<svg xmlns="http://www.w3.org/2000/svg" viewBox="0 0 500 372.61"><defs><style>.cls-1{fill:#ebebeb;}.cls-2,.cls-6{fill:#e6e6e6;}.cls-3{fill:#f0f0f0;}.cls-10,.cls-16,.cls-17,.cls-18,.cls-4{fill:#fff;}.cls-5{fill:#fafafa;}.cls-16,.cls-6{opacity:0.4;}.cls-7{fill:#e0e0e0;}.cls-8{fill:#f5f5f5;}.cls-9{fill:#407bff;}.cls-10{opacity:0.6;}.cls-11{fill:#263238;}.cls-12{fill:#ffc3bd;}.cls-13,.cls-14{opacity:0.2;}.cls-15{fill:#ed847e;}.cls-17{opacity:0.7;}.cls-18{opacity:0.8;}</style></defs><title>angry-woman</title><g id="Background_Complete" data-name="Background Complete"><rect class="cls-1" y="327.45" width="500" height="0.25"/><rect class="cls-1" x="64.67" y="336.97" width="20.91" height="0.25"/><rect class="cls-1" x="171.14" y="334.26" width="24.19" height="0.25"/><rect class="cls-1" x="118.81" y="340.23" width="19.19" height="0.25"/><rect class="cls-1" x="422" y="344.58" width="27.9" height="0.25"/><rect class="cls-1" x="387.71" y="337.22" width="21.63" height="0.25"/><rect class="cls-1" x="277.21" y="340.35" width="48.45" height="0.25"/><path class="cls-1" d="M237,337.8H43.91a5.71,5.71,0,0,1-5.7-5.71V60.66A5.71,5.71,0,0,1,43.91,55H237a5.71,5.71,0,0,1,5.71,5.71V332.09A5.71,5.71,0,0,1,237,337.8ZM43.91,55.2a5.46,5.46,0,0,0-5.45,5.46V332.09a5.46,5.46,0,0,0,5.45,5.46H237a5.47,5.47,0,0,0,5.46-5.46V60.66A5.47,5.47,0,0,0,237,55.2Z" transform="translate(0 -54.95)"/><path class="cls-1" d="M453.31,337.8H260.21a5.72,5.72,0,0,1-5.71-5.71V60.66A5.72,5.72,0,0,1,260.21,55h193.1A5.71,5.71,0,0,1,459,60.66V332.09A5.71,5.71,0,0,1,453.31,337.8ZM260.21,55.2a5.47,5.47,0,0,0-5.46,5.46V332.09a5.47,5.47,0,0,0,5.46,5.46h193.1a5.47,5.47,0,0,0,5.46-5.46V60.66a5.47,5.47,0,0,0-5.46-5.46Z" transform="translate(0 -54.95)"/><rect class="cls-2" x="357.69" y="32.36" width="54.66" height="143.71"/><rect class="cls-3" x="361.05" y="32.36" width="64.49" height="143.71"/><rect class="cls-4" x="331.99" y="137.46" width="122.62" height="43.4" transform="translate(552.46 -289.09) rotate(90)"/><rect class="cls-2" x="69.47" y="15.69" width="243.35" height="135.94"/><rect class="cls-3" x="71.89" y="15.69" width="246.09" height="135.94"/><rect class="cls-2" x="69.47" y="151.63" width="243.35" height="9.59"/><rect class="cls-3" x="80.48" y="151.63" width="246.09" height="9.59"/><rect class="cls-5" x="134.19" y="22.79" width="121.49" height="231.64" transform="translate(333.55 -111.27) rotate(90)"/><polygon class="cls-4" points="140.41 144.41 182.82 22.91 226.23 22.91 183.81 144.41 140.41 144.41"/><path class="cls-3" d="M82.46,131a.52.52,0,0,1-.52-.52v-48a.52.52,0,1,1,1,0v48A.51.51,0,0,1,82.46,131Z" transform="translate(0 -54.95)"/><polygon class="cls-4" points="200.13 144.41 242.54 22.91 257.56 22.91 215.15 144.41 200.13 144.41"/><rect class="cls-2" x="249.55" y="138.15" width="121.49" height="0.92" transform="translate(448.91 -226.63) rotate(90)"/><polygon class="cls-6" points="319.69 30.2 76.34 30.2 75.68 25.72 319.02 25.72 319.69 30.2"/><polygon class="cls-6" points="319.69 37.59 76.34 37.59 75.68 33.11 319.02 33.11 319.69 37.59"/><polygon class="cls-6" points="319.69 44.98 76.34 44.98 75.68 40.5 319.02 40.5 319.69 44.98"/><polygon class="cls-6" points="319.69 52.37 76.34 52.37 75.68 47.89 319.02 47.89 319.69 52.37"/><polygon class="cls-6" points="319.69 59.76 76.34 59.76 75.68 55.28 319.02 55.28 319.69 59.76"/><polygon class="cls-6" points="319.69 67.15 76.34 67.15 75.68 62.67 319.02 62.67 319.69 67.15"/><rect class="cls-2" x="408.87" y="204.83" width="28.89" height="122.62"/><polygon class="cls-3" points="432.28 327.45 437.76 327.45 437.76 311.84 426.52 311.84 432.28 327.45"/><rect class="cls-2" x="263.65" y="204.83" width="28.89" height="122.62"/><rect class="cls-3" x="287.75" y="204.83" width="150.01" height="113.04"/><path class="cls-2" d="M433.51,310.53H364.6v42.78h68.91V310.53Z" transform="translate(0 -54.95)"/><path class="cls-2" d="M360.92,310.53H292v42.78h68.91V310.53Z" transform="translate(0 -54.95)"/><path class="cls-5" d="M345.5,321.55a4.88,4.88,0,1,0,4.88-4.88A4.88,4.88,0,0,0,345.5,321.55Z" transform="translate(0 -54.95)"/><path class="cls-5" d="M370.26,321.55a4.88,4.88,0,1,0,4.87-4.88A4.87,4.87,0,0,0,370.26,321.55Z" transform="translate(0 -54.95)"/><path class="cls-2" d="M433.51,266.11H364.6v40.64h68.91V266.11Z" transform="translate(0 -54.95)"/><path class="cls-7" d="M433.51,266.11H408.65v40.64h24.86V266.11Z" transform="translate(0 -54.95)"/><path class="cls-2" d="M360.92,266.11H292v40.64h68.91V266.11Z" transform="translate(0 -54.95)"/><path class="cls-7" d="M360.92,266.11H336.06v40.64h24.86V266.11Z" transform="translate(0 -54.95)"/><path class="cls-8" d="M302.13,283.12a23.63,23.63,0,1,0,47.25,0Z" transform="translate(0 -54.95)"/><polygon class="cls-3" points="293.24 327.45 287.75 327.45 287.75 311.84 298.99 311.84 293.24 327.45"/><rect class="cls-2" x="72.35" y="220.86" width="42.82" height="6.97"/><rect class="cls-1" x="77.67" y="227.83" width="37.5" height="91.31"/><rect class="cls-8" x="115.17" y="282.78" width="117.96" height="91.31" transform="translate(348.29 601.92) rotate(180)"/><path class="cls-1" d="M225,364.43H123.31v-72H225Zm-100.66-1H224v-70H124.32Z" transform="translate(0 -54.95)"/><circle class="cls-1" cx="135.65" cy="249.83" r="4.03"/><rect class="cls-7" x="77.67" y="282.78" width="155.46" height="1.62" transform="translate(310.79 512.23) rotate(180)"/><rect class="cls-3" x="115.17" y="275.81" width="123.28" height="6.97" transform="translate(353.61 503.64) rotate(180)"/><polygon class="cls-1" points="77.67 319.14 77.67 327.45 92.56 319.14 77.67 319.14"/><polygon class="cls-8" points="115.17 319.14 115.17 327.45 130.06 319.14 115.17 319.14"/><polygon class="cls-8" points="233.13 319.14 233.13 327.45 218.24 319.14 233.13 319.14"/><polygon class="cls-1" points="115.17 319.14 115.17 327.45 100.28 319.14 115.17 319.14"/><polygon class="cls-1" points="195.63 319.14 195.63 327.45 180.74 319.14 195.63 319.14"/><polygon class="cls-1" points="195.63 319.14 195.63 327.45 210.51 319.14 195.63 319.14"/><rect class="cls-2" x="119.7" y="181.78" width="10.09" height="39.08"/><polygon class="cls-7" points="157.13 220.86 123.66 220.86 118.61 175.12 152.08 175.12 157.13 220.86"/><polygon class="cls-2" points="160.76 220.86 126.19 220.86 121.13 175.12 155.7 175.12 160.76 220.86"/><polygon class="cls-4" points="128.68 217.26 124.42 178.72 153.21 178.72 157.46 217.26 128.68 217.26"/></g><g id="Shadow"><ellipse id="_Path_" data-name="&lt;Path&gt;" class="cls-8" cx="250" cy="361.29" rx="193.89" ry="11.32"/></g><g id="Steam"><path class="cls-9" d="M228.23,128.44c-15.53-4.6-30-15.9-37.47-22.39,4.88-2.07,10-6.31,6.37-10.09,7.84-9.48,5.94-23.8-5-24.63-8.16-11.51-29.9-10.35-32.18,2-16,3.43-19,28.49-6.23,32.48-4.43,11.44,16.12,13.69,19.07,9.18,5.77,2.44,8.91-.83,10.49-3.87A123.67,123.67,0,0,0,228.23,128.44Z" transform="translate(0 -54.95)"/><path class="cls-10" d="M228.23,128.44c-15.53-4.6-30-15.9-37.47-22.39,4.88-2.07,10-6.31,6.37-10.09,7.84-9.48,5.94-23.8-5-24.63-8.16-11.51-29.9-10.35-32.18,2-16,3.43-19,28.49-6.23,32.48-4.43,11.44,16.12,13.69,19.07,9.18,5.77,2.44,8.91-.83,10.49-3.87A123.67,123.67,0,0,0,228.23,128.44Z" transform="translate(0 -54.95)"/><path class="cls-9" d="M359.36,132.89c4.87-12.63-12.87-25.63-25.58-17.18-8.54-3.56-17.62,7.51-12.62,15.5-4.45,1.53-5.06,8.07-2.61,11.46-8.92,1.63-21.9,3.11-33.07,1.06a133.56,133.56,0,0,0,38.86,5.62,8.75,8.75,0,0,0,7.85,5.44c5.11,6.92,19.17,5.81,22.69-4.66C359.43,151.7,368.06,136.72,359.36,132.89Z" transform="translate(0 -54.95)"/><path class="cls-10" d="M359.36,132.89c4.87-12.63-12.87-25.63-25.58-17.18-8.54-3.56-17.62,7.51-12.62,15.5-4.45,1.53-5.06,8.07-2.61,11.46-8.92,1.63-21.9,3.11-33.07,1.06a133.56,133.56,0,0,0,38.86,5.62,8.75,8.75,0,0,0,7.85,5.44c5.11,6.92,19.17,5.81,22.69-4.66C359.43,151.7,368.06,136.72,359.36,132.89Z" transform="translate(0 -54.95)"/><polygon class="cls-9" points="239.92 27.3 233.08 32.37 241.15 39.89 235.8 44.03 245.6 51.95 239.4 44.66 247.07 40.62 238.15 33.39 246.23 28.39 233.13 18.98 239.92 27.3"/><polygon class="cls-9" points="294.57 43.98 296.44 49.14 289.43 50.32 290.83 54.45 282.73 55.23 288.67 53.51 285.97 48.6 293.35 47.89 290.77 42.32 301.18 41.91 294.57 43.98"/><polygon class="cls-9" points="298.14 61.52 297.37 63.58 293.95 61.97 293.29 63.59 289.52 61.55 292.64 62.7 292.98 60.49 296.4 62.34 297 59.97 301.65 62.76 298.14 61.52"/><polygon class="cls-9" points="210.37 81.31 210.24 84.78 204.57 82.35 204.4 85.09 198.03 81.99 203.04 83.67 202.47 79.97 208.27 82.79 207.99 78.81 215.99 83.1 210.37 81.31"/></g><g id="Character"><path class="cls-11" d="M255.35,115.33c-17.22,6.23-23.78,19.49-19.67,28.08,5.11-5.19,6.89,3.67,17.34,5.52,7.34,7.55,21,10.51,26.66,5.85-2.66-4.67,1-6.49,1.78-20C282.35,118.71,256.68,100.22,255.35,115.33Z" transform="translate(0 -54.95)"/><path class="cls-12" d="M281.64,215.23a7.15,7.15,0,0,0-3.29-5.24l-1.13-.71c-3.85,2.87-5.76,9-5.76,9l-.74,1.68a3.13,3.13,0,0,0,1.39,4l3.32,1.79a3.15,3.15,0,0,0,3.54-.39h0a8.76,8.76,0,0,0,3-7.62Z" transform="translate(0 -54.95)"/><path class="cls-12" d="M268.78,163.68c1.76,1.74,3.34,3.47,4.94,5.27s3.14,3.61,4.64,5.5,3,3.8,4.4,5.82a75.88,75.88,0,0,1,4.14,6.4l.3.53a4.87,4.87,0,0,1,.53,1.48A18.25,18.25,0,0,1,288,193a34.76,34.76,0,0,1-.37,3.56,53.23,53.23,0,0,1-1.45,6.41c-.61,2-1.28,4-2.05,6a58.47,58.47,0,0,1-2.57,5.75,3.58,3.58,0,0,1-6.75-1.86v-.14c.11-1.91.3-3.9.44-5.83s.3-3.86.39-5.75.15-3.73.12-5.45a22.23,22.23,0,0,0-.17-2.42,6.48,6.48,0,0,0-.37-1.65l.84,2c-1.2-1.62-2.6-3.29-4-5s-2.94-3.35-4.43-5l-9.12-10.06h0a7.1,7.1,0,0,1,10.27-9.81Z" transform="translate(0 -54.95)"/><path class="cls-9" d="M257.4,223s6.17,44.47,11.68,73.67c5.78,30.67,27.41,99.83,28.34,101.91l-8.16,3.61s-36.8-58.36-37.65-94.44c-14.35-22-22.47-47-25-61.24-3.19-18,4-34.06,4-34.06Z" transform="translate(0 -54.95)"/><path class="cls-13" d="M234.29,242.86c0,.07.06.16.1.25,3.11,6.51,4.74,18.12,4.74,29a90.77,90.77,0,0,1-.65,11.25,182.43,182.43,0,0,1-10.22-29.3Z" transform="translate(0 -54.95)"/><path class="cls-12" d="M302.48,407.29s-2.25-1.62-5.06-8.75c0,0-5.05.39-8.16,3.61,2.22,4.8,4.8,9.1,4.8,9.1Z" transform="translate(0 -54.95)"/><path class="cls-11" d="M292.26,408.49l9.57-3.83a.94.94,0,0,1,.62,0c1.38.44,8,.91,15.91-1.31l1.33,1.41a92,92,0,0,1-23.59,11.34,2.26,2.26,0,0,1-3.07-1.65,27.67,27.67,0,0,0-1.3-4.69A1,1,0,0,1,292.26,408.49Z" transform="translate(0 -54.95)"/><path class="cls-9" d="M316.31,401.86a15,15,0,0,0-6.43-5.29l.17-.47a15.12,15.12,0,0,1,6.68,5.49Z" transform="translate(0 -54.95)"/><path class="cls-9" d="M311.12,399.91a9.53,9.53,0,0,0-5.13-1.53l0-.5a9.85,9.85,0,0,1,5.45,1.62Z" transform="translate(0 -54.95)"/><path class="cls-9" d="M219.29,210.31s-10.11,6.64-13.84,24.54c-2.95,14.15-1,35.84,1.78,65.34-16.4,29.48-2.35,100.73-2.35,100.73h8.91c-.09-2.27,8.7-71.46,14.73-102.08,5.75-29.16,20.92-84.66,20.92-84.66Z" transform="translate(0 -54.95)"/><path class="cls-12" d="M215.25,410.61s-1.49-2.34-1.45-10c0,0-5.33-1.35-8.92.32.28,5.29.71,10.4.71,10.4Z" transform="translate(0 -54.95)"/><path class="cls-11" d="M204.91,407.77h10.31a.91.91,0,0,1,.59.21,47.15,47.15,0,0,0,15.48,6.39l.51,1.87H205.67a2.27,2.27,0,0,1-2.24-2.68,27.89,27.89,0,0,0,.53-4.83A1,1,0,0,1,204.91,407.77Z" transform="translate(0 -54.95)"/><path class="cls-11" d="M274.25,176.92c-1,3.83,3.23,14.05-5.38,17.64-2.53,7.62-5.33,16.66-11.47,28.4l-38.11-12.65c6.5-13.1,6.5-20,6.55-46a10.15,10.15,0,0,1,11.23-10.08c1.6.17,3.29.39,5,.67a126.32,126.32,0,0,1,17.84,3.76c1.89.58,3.83,1.24,5.68,1.91A13.77,13.77,0,0,1,274.25,176.92Z" transform="translate(0 -54.95)"/><path class="cls-13" d="M254.91,186.25a59.21,59.21,0,0,1-16.67-.42C244.91,189.5,254.29,188.28,254.91,186.25Z" transform="translate(0 -54.95)"/><path class="cls-11" d="M221.58,205.28c-1.72.94-3.25,4-3.12,4.78-3.22,2.22-24.05,21.16-16.05,64.21,11.66,1.9,34.58-5.77,45.08-3.85s13.75,5.66,21.08,5c-4.91-6.09-9.75-44.25-9.72-51.5,2-2.42,1-5.78,1-5.78S245.14,214.19,221.58,205.28Z" transform="translate(0 -54.95)"/><path class="cls-13" d="M236.87,258a93.1,93.1,0,0,1,7.77-20.11S243.87,251.33,236.87,258Z" transform="translate(0 -54.95)"/><g class="cls-14"><path class="cls-4" d="M254.67,224.44l-.44,0a4.9,4.9,0,0,1-1.74-.67,6.08,6.08,0,0,0-1.52-.64,4.88,4.88,0,0,0-1.43,0,5.79,5.79,0,0,1-2.07-.07,5.5,5.5,0,0,1-1.67-.89,5,5,0,0,0-1.39-.78,5.19,5.19,0,0,0-1.51-.13,5.75,5.75,0,0,1-2-.2,5.85,5.85,0,0,1-1.63-1,5.11,5.11,0,0,0-1.32-.84,5,5,0,0,0-1.54-.21,5.65,5.65,0,0,1-1.91-.29,5.82,5.82,0,0,1-1.61-1.1,5.17,5.17,0,0,0-1.25-.89,5.35,5.35,0,0,0-1.57-.29,5.59,5.59,0,0,1-1.85-.37,5.94,5.94,0,0,1-1.61-1.23,5.42,5.42,0,0,0-1.14-.92,5.88,5.88,0,0,0-1.6-.42,5.3,5.3,0,0,1-1.77-.5,5.85,5.85,0,0,1-1.7-1.61,4.86,4.86,0,0,0-.8-.86.51.51,0,0,1-.11-.7.5.5,0,0,1,.7-.11,5.55,5.55,0,0,1,1,1,5.21,5.21,0,0,0,1.41,1.36,4.56,4.56,0,0,0,1.44.39A6.12,6.12,0,0,1,226,213a6,6,0,0,1,1.39,1.09,3.44,3.44,0,0,0,2.85,1.33,6,6,0,0,1,1.87.36,5.84,5.84,0,0,1,1.51,1,3.44,3.44,0,0,0,2.91,1.15,6.07,6.07,0,0,1,1.84.27,5.91,5.91,0,0,1,1.59,1,4.9,4.9,0,0,0,1.34.85,4.83,4.83,0,0,0,1.64.15,4.62,4.62,0,0,1,3.48,1.08,4.68,4.68,0,0,0,1.36.76,5.26,5.26,0,0,0,1.73,0,5.76,5.76,0,0,1,1.71,0,6.73,6.73,0,0,1,1.79.74,4.6,4.6,0,0,0,1.38.56,4.7,4.7,0,0,0,2.25-.46,6.65,6.65,0,0,1,.91-.32.5.5,0,0,1,.6.38.5.5,0,0,1-.37.6,4.79,4.79,0,0,0-.77.27A6.32,6.32,0,0,1,254.67,224.44Z" transform="translate(0 -54.95)"/></g><path class="cls-12" d="M247.44,137.25c-.95,5.9-.54,14.65-5.36,17.64,0,0,13.16,5.28,17.33,18.39,5-7.13.51-14.63.51-14.63-6.08-2.88-4.92-7.6-2.86-11.82Z" transform="translate(0 -54.95)"/><path class="cls-13" d="M226,162.44a10.29,10.29,0,0,0-.17,1.86c0,3.55,0,6.75,0,9.65.71-.4,1.4-.83,2.08-1.27a26.2,26.2,0,0,0,6.57-5.7l.07-.09Z" transform="translate(0 -54.95)"/><path class="cls-13" d="M255.53,151.12l-4.77-3a10.53,10.53,0,0,0,.38,3.7c.6,2.44,4.33,5.09,7.29,6A6.14,6.14,0,0,1,255.53,151.12Z" transform="translate(0 -54.95)"/><path class="cls-12" d="M248.88,129.92c-1.77,9.65-2.73,13.7.78,19.74,5.27,9.09,17.29,9.09,21.86.15,4.11-8.05,6.32-22.48-1.88-28.52S250.65,120.27,248.88,129.92Z" transform="translate(0 -54.95)"/><path class="cls-13" d="M266.57,135.05c1.36-.36,2.1-1.05,2.2-1.83C269.1,134.75,268.18,135.43,266.57,135.05Z" transform="translate(0 -54.95)"/><path class="cls-13" d="M254.33,144.39c.32,1.37,1,2.12,1.77,2.24C254.57,146.92,253.91,146,254.33,144.39Z" transform="translate(0 -54.95)"/><path class="cls-13" d="M271.54,134.55a2.36,2.36,0,0,0-.08,2A1.37,1.37,0,0,1,271.54,134.55Z" transform="translate(0 -54.95)"/><path class="cls-11" d="M256.45,144.87s2.95,1.44,12.28,4.18c.27-2-.65-4-5.45-5.39S256.45,144.87,256.45,144.87Z" transform="translate(0 -54.95)"/><path class="cls-4" d="M267.71,147.05a13.24,13.24,0,0,0-1.2-.67,5.61,5.61,0,0,0,1.51-.12c-.76-1-2.21-1.87-4.74-2.6a8.6,8.6,0,0,0-3.73-.32,6,6,0,0,0,1,.94,8.4,8.4,0,0,0-1-.11c-.87-.12-1.66.61-2.23,1.09,1.42.58,4.7,1.81,11,3.67A2,2,0,0,0,267.71,147.05Z" transform="translate(0 -54.95)"/><path class="cls-11" d="M257.07,117.89c5.28,8.83,14.22,13.5,15.78,13.94-1.19-3.08-4.64-6.27-4.64-6.27s8.47,3,9.53,11C278.79,126.28,271.57,115.94,257.07,117.89Z" transform="translate(0 -54.95)"/><path class="cls-11" d="M261.52,117.65c-7.89,12.35-7.39,20.79-7.39,20.79s-9.72-3.68-10.45-10C244.24,122.17,253.74,114.86,261.52,117.65Z" transform="translate(0 -54.95)"/><path class="cls-11" d="M257.34,113.28c-9.35.62-22.75,8.75-25.62,20.89,4.8-8.6,14.47-16.44,26.12-16.71C256.31,115.91,257.34,113.28,257.34,113.28Z" transform="translate(0 -54.95)"/><path class="cls-11" d="M261.77,135.75c-.19.77.22.83.73.95s.91.27,1.1-.5-.06-1.5-.57-1.63S262,135,261.77,135.75Z" transform="translate(0 -54.95)"/><path class="cls-11" d="M271.26,138.23c-.2.78.22.83.73,1s.91.27,1.1-.51-.07-1.5-.57-1.62S271.45,137.46,271.26,138.23Z" transform="translate(0 -54.95)"/><path class="cls-11" d="M272.28,137l2-.07S273,138.18,272.28,137Z" transform="translate(0 -54.95)"/><path class="cls-15" d="M268.66,137.94a25.43,25.43,0,0,0,1,5.21c-1.26.7-2.92-.26-2.92-.26Z" transform="translate(0 -54.95)"/><path class="cls-11" d="M267.65,143.37c-.17.21-.58.17-.91-.1s-.46-.66-.29-.88.59-.17.92.1S267.83,143.15,267.65,143.37Z" transform="translate(0 -54.95)"/><path class="cls-12" d="M245.51,135.14a6.27,6.27,0,0,0,2.13,4.71c1.75,1.44,3.7-.31,4.12-2.78.37-2.21-.08-5.63-2.27-6.08S245.45,132.77,245.51,135.14Z" transform="translate(0 -54.95)"/><path class="cls-11" d="M265.66,133.83a.44.44,0,0,0-.25-.27,3.72,3.72,0,0,1-2.23-2.54.47.47,0,0,0-.93.15,4.68,4.68,0,0,0,2.79,3.25.47.47,0,0,0,.62-.59Z" transform="translate(0 -54.95)"/><path class="cls-11" d="M272.27,135.52a.46.46,0,0,0-.15.31.47.47,0,0,0,.44.5,4.65,4.65,0,0,0,3.95-1.62.47.47,0,0,0-.75-.57,3.7,3.7,0,0,1-3.14,1.26A.47.47,0,0,0,272.27,135.52Z" transform="translate(0 -54.95)"/><path class="cls-11" d="M262.79,134.56l2-.08S263.47,135.7,262.79,134.56Z" transform="translate(0 -54.95)"/><path class="cls-12" d="M199.06,198.3a7.17,7.17,0,0,0-5.71-2.39L192,196c-1.5,4.56.5,10.71.5,10.71l.36,1.8a3.15,3.15,0,0,0,3.46,2.5l3.75-.46a3.14,3.14,0,0,0,2.66-2.36h0a8.77,8.77,0,0,0-2-7.94Z" transform="translate(0 -54.95)"/><path class="cls-12" d="M234.49,168.68l-3.62.31-3.72.38c-2.47.26-4.93.58-7.34.94s-4.79.82-7.05,1.36a36.38,36.38,0,0,0-6.12,2l-.32.15-.08,0s0,0,0,0a.48.48,0,0,0,.11-.09.39.39,0,0,0,.14-.17s-.2.12-.4.38a11.7,11.7,0,0,0-1.32,2.34,50.45,50.45,0,0,0-2.3,6.61c-1.37,4.73-2.45,9.83-3.56,14.8l0,.12a3.55,3.55,0,0,1-7-.44,84.61,84.61,0,0,1,0-16.46,49.08,49.08,0,0,1,1.59-8.62,24,24,0,0,1,1.93-4.81,13.72,13.72,0,0,1,2-2.77,12.56,12.56,0,0,1,1.63-1.45l.52-.36.38-.23.54-.33a41.5,41.5,0,0,1,8.51-3.72,76.92,76.92,0,0,1,8.3-2.16c2.75-.56,5.49-1,8.23-1.32,1.37-.16,2.74-.31,4.11-.41s2.71-.19,4.24-.23a7.1,7.1,0,0,1,.84,14.17Z" transform="translate(0 -54.95)"/></g><g id="Table"><rect class="cls-9" x="115.33" y="206.81" width="269.33" height="2.67"/><polygon class="cls-11" points="154.05 209.48 118.33 209.48 108.33 365.11 110.88 365.11 120.74 211.65 151.65 211.65 161.5 365.11 164.05 365.11 154.05 209.48"/><polygon class="cls-11" points="381.67 209.48 345.95 209.48 335.95 365.11 338.5 365.11 348.35 211.65 379.26 211.65 389.12 365.11 391.67 365.11 381.67 209.48"/><rect class="cls-9" x="290.44" y="235.68" width="15.08" height="20.59" rx="0.84" transform="translate(50.5 -105.7) rotate(10.63)"/><path class="cls-9" d="M306,255a8.92,8.92,0,0,1-6.94-3.37,7.1,7.1,0,0,1,2-10.56,8.56,8.56,0,0,1,6.09-1.06c4.11.77,6.39,4.47,5.54,9h0a7.47,7.47,0,0,1-2.74,4.74A6.41,6.41,0,0,1,306,255Zm-.53-13.15a6.48,6.48,0,0,0-3.38.93,5.11,5.11,0,0,0-1.44,7.64,6.63,6.63,0,0,0,4.08,2.45,4.94,4.94,0,0,0,4-.72,5.55,5.55,0,0,0,2-3.51h0c.54-2.85-.47-6-3.93-6.67A7.34,7.34,0,0,0,305.44,241.86Zm6.23,7h0Z" transform="translate(0 -54.95)"/><rect class="cls-16" x="287.85" y="242.13" width="11.38" height="6.03" transform="translate(-1.58 433.44) rotate(-79.36)"/><polygon class="cls-16" points="300.62 185.74 298.52 196.92 297.18 196.67 299.27 185.49 300.62 185.74"/><path class="cls-9" d="M337.06,199.77c11.34,2.19,38.72-21.34,45.84-30,5.8,3.53,21.9,9,28.46,8.56-13.11,12.4-33.11,31.76-51.08,29.4C350.37,206.45,337.06,199.77,337.06,199.77Z" transform="translate(0 -54.95)"/><path class="cls-17" d="M337.06,199.77c11.34,2.19,38.72-21.34,45.84-30,5.8,3.53,21.9,9,28.46,8.56-13.11,12.4-33.11,31.76-51.08,29.4C350.37,206.45,337.06,199.77,337.06,199.77Z" transform="translate(0 -54.95)"/><path class="cls-9" d="M71.74,355.13c10.94,3.72,41.25-15.9,49.47-23.5,5.28,4.28,20.49,11.84,27.05,12.33-14.67,10.52-37.11,27-54.59,22.23C84,363.56,71.74,355.13,71.74,355.13Z" transform="translate(0 -54.95)"/><path class="cls-17" d="M71.74,355.13c10.94,3.72,41.25-15.9,49.47-23.5,5.28,4.28,20.49,11.84,27.05,12.33-14.67,10.52-37.11,27-54.59,22.23C84,363.56,71.74,355.13,71.74,355.13Z" transform="translate(0 -54.95)"/><path class="cls-9" d="M80.92,244.59c10.65-4.49,42.28,12.9,51,19.9,5-4.65,19.59-13.28,26.09-14.23C142.65,240.82,119.1,226,102,232,92.57,235.31,80.92,244.59,80.92,244.59Z" transform="translate(0 -54.95)"/><path class="cls-17" d="M80.92,244.59c10.65-4.49,42.28,12.9,51,19.9,5-4.65,19.59-13.28,26.09-14.23C142.65,240.82,119.1,226,102,232,92.57,235.31,80.92,244.59,80.92,244.59Z" transform="translate(0 -54.95)"/><path class="cls-9" d="M314.33,208.79c10.11,5.57,43.4-8.41,52.83-14.45,4.44,5.14,18.09,15.26,24.46,16.89C375.33,219,350.35,231.29,334,223.52,324.94,219.24,314.33,208.79,314.33,208.79Z" transform="translate(0 -54.95)"/><path class="cls-18" d="M314.33,208.79c10.11,5.57,43.4-8.41,52.83-14.45,4.44,5.14,18.09,15.26,24.46,16.89C375.33,219,350.35,231.29,334,223.52,324.94,219.24,314.33,208.79,314.33,208.79Z" transform="translate(0 -54.95)"/><path class="cls-9" d="M161.87,212c-11.51-.87-31.73-30.77-36.33-41-6.52,1.88-23.48,2.88-29.71.77,9.39,15.41,23.59,39.36,41.54,41.81C147.28,214.92,161.87,212,161.87,212Z" transform="translate(0 -54.95)"/><path class="cls-17" d="M161.87,212c-11.51-.87-31.73-30.77-36.33-41-6.52,1.88-23.48,2.88-29.71.77,9.39,15.41,23.59,39.36,41.54,41.81C147.28,214.92,161.87,212,161.87,212Z" transform="translate(0 -54.95)"/><path class="cls-9" d="M195.42,222.6c-9.33,6.8-44.1-2.89-54.22-7.7-3.76,5.65-16,17.4-22.15,19.82,17.14,5.67,43.46,14.72,58.74,5C186.21,234.3,195.42,222.6,195.42,222.6Z" transform="translate(0 -54.95)"/><path class="cls-18" d="M195.42,222.6c-9.33,6.8-44.1-2.89-54.22-7.7-3.76,5.65-16,17.4-22.15,19.82,17.14,5.67,43.46,14.72,58.74,5C186.21,234.3,195.42,222.6,195.42,222.6Z" transform="translate(0 -54.95)"/><path class="cls-9" d="M417.44,268c-4.85,10.48-39.94,18.94-51.12,19.66-.53,6.77-5.53,23-9.7,28.1,17.73-3.39,45.14-8.3,53.73-24.25C415.09,282.7,417.44,268,417.44,268Z" transform="translate(0 -54.95)"/><path class="cls-18" d="M417.44,268c-4.85,10.48-39.94,18.94-51.12,19.66-.53,6.77-5.53,23-9.7,28.1,17.73-3.39,45.14-8.3,53.73-24.25C415.09,282.7,417.44,268,417.44,268Z" transform="translate(0 -54.95)"/><path class="cls-9" d="M309.44,219.52c11.66-3.61,40.67-1.13,51.56,2,2.52,6.09,13.39,17.12,22.37,19.29-7.33,1.24-38.06-.1-45.06,2.2A52,52,0,0,1,309.44,219.52Z" transform="translate(0 -54.95)"/><path class="cls-17" d="M309.44,219.52c11.66-3.61,40.67-1.13,51.56,2,2.52,6.09,13.39,17.12,22.37,19.29-7.33,1.24-38.06-.1-45.06,2.2A52,52,0,0,1,309.44,219.52Z" transform="translate(0 -54.95)"/></g></svg>