<svg id="Layer_1" data-name="Layer 1" xmlns="http://www.w3.org/2000/svg" viewBox="0 0 129.62 89.11"><defs><style>.cls-1{fill:#fff;}</style></defs><title>email-icon</title><path class="cls-1" d="M176.06,110.67h-5.79a2.32,2.32,0,0,1,0-4.63h5.79a2.32,2.32,0,0,1,0,4.63Z" transform="translate(-80 -21.55)"/><path class="cls-1" d="M158.24,110.67h-12a2.32,2.32,0,1,1,0-4.63h12a2.32,2.32,0,0,1,0,4.63Zm-24.08,0h-12a2.32,2.32,0,1,1,0-4.63h12a2.32,2.32,0,1,1,0,4.63Z" transform="translate(-80 -21.55)"/><path class="cls-1" d="M110.09,110.67H104.3a2.32,2.32,0,0,1,0-4.63h5.79a2.32,2.32,0,1,1,0,4.63Z" transform="translate(-80 -21.55)"/><path class="cls-1" d="M207.31,110.67H176.06a2.32,2.32,0,0,1,0-4.63H205V26.18H84.63V106H104.3a2.32,2.32,0,1,1,0,4.63h-22A2.32,2.32,0,0,1,80,108.35V23.87a2.32,2.32,0,0,1,2.31-2.32h125a2.31,2.31,0,0,1,2.31,2.32v84.48A2.31,2.31,0,0,1,207.31,110.67Z" transform="translate(-80 -21.55)"/><path class="cls-1" d="M144.81,73.05a2.3,2.3,0,0,1-1.39-.46L80.93,25.72A2.31,2.31,0,1,1,83.7,22l61.11,45.83L205.92,22a2.31,2.31,0,1,1,2.78,3.7L146.2,72.59A2.3,2.3,0,0,1,144.81,73.05Z" transform="translate(-80 -21.55)"/><path class="cls-1" d="M82.31,110.67a2.31,2.31,0,0,1-1.61-4l48.9-47.81a2.32,2.32,0,0,1,3.24,3.31L83.93,110A2.3,2.3,0,0,1,82.31,110.67Z" transform="translate(-80 -21.55)"/><path class="cls-1" d="M207.31,110.67a2.3,2.3,0,0,1-1.62-.66L156.79,62.2A2.31,2.31,0,0,1,160,58.89l48.91,47.81a2.32,2.32,0,0,1-1.62,4Z" transform="translate(-80 -21.55)"/></svg>