<svg xmlns="http://www.w3.org/2000/svg" xmlns:xlink="http://www.w3.org/1999/xlink" viewBox="0 0 189.52 179.01"><defs><style>.cls-1{isolation:isolate;}.cls-2{fill:#bec2d3;}.cls-3{fill:#9094a3;}.cls-4{fill:url(#linear-gradient);}.cls-18,.cls-29,.cls-5,.cls-6{fill:#fff;}.cls-6{opacity:0.48;}.cls-18,.cls-6{mix-blend-mode:soft-light;}.cls-7{fill:#26264f;}.cls-8{opacity:0.67;}.cls-9{fill:url(#linear-gradient-2);}.cls-10{fill:#ebeff2;}.cls-11{fill:#d8dee8;}.cls-12{fill:url(#linear-gradient-3);}.cls-13{fill:url(#linear-gradient-4);}.cls-14{fill:url(#linear-gradient-5);}.cls-15{fill:url(#linear-gradient-6);}.cls-16{fill:url(#linear-gradient-7);}.cls-17{fill:url(#linear-gradient-8);}.cls-18,.cls-28{opacity:0.3;}.cls-19{fill:url(#linear-gradient-9);}.cls-20{fill:url(#linear-gradient-10);}.cls-21{opacity:0.4;fill:url(#linear-gradient-11);}.cls-21,.cls-28{mix-blend-mode:multiply;}.cls-22{fill:url(#linear-gradient-12);}.cls-23{fill:url(#linear-gradient-13);}.cls-24{fill:url(#linear-gradient-14);}.cls-25{fill:url(#linear-gradient-15);}.cls-26{fill:url(#linear-gradient-16);}.cls-27{fill:url(#linear-gradient-17);}.cls-28{fill:url(#linear-gradient-18);}.cls-29{opacity:0.68;}.cls-30{fill:url(#linear-gradient-19);}.cls-31{fill:url(#linear-gradient-20);}.cls-32{fill:url(#linear-gradient-21);}.cls-33{fill:url(#linear-gradient-22);}.cls-34{fill:url(#linear-gradient-23);}.cls-35{fill:url(#linear-gradient-24);}.cls-36{fill:url(#linear-gradient-25);}.cls-37{fill:url(#linear-gradient-26);}.cls-38{fill:url(#linear-gradient-27);}</style><linearGradient id="linear-gradient" x1="574.85" y1="791.49" x2="690.08" y2="791.49" gradientUnits="userSpaceOnUse"><stop offset="0" stop-color="#aa80f9"/><stop offset="1" stop-color="#6165d7"/></linearGradient><linearGradient id="linear-gradient-2" x1="649.62" y1="767.79" x2="701.42" y2="716.78" gradientUnits="userSpaceOnUse"><stop offset="0" stop-color="#e38ddd"/><stop offset="1" stop-color="#9571f6"/></linearGradient><linearGradient id="linear-gradient-3" x1="135.91" y1="78.24" x2="151.25" y2="78.24" gradientUnits="userSpaceOnUse"><stop offset="0" stop-color="#40447e"/><stop offset="1" stop-color="#3c3b6b"/></linearGradient><linearGradient id="linear-gradient-4" x1="719.09" y1="764.91" x2="731.68" y2="764.91" gradientTransform="translate(1303.17 -116.81) rotate(76.72)" xlink:href="#linear-gradient-3"/><linearGradient id="linear-gradient-5" x1="147.56" y1="46.15" x2="166.88" y2="46.15" gradientUnits="userSpaceOnUse"><stop offset="0" stop-color="#ffc444"/><stop offset="1" stop-color="#f36f56"/></linearGradient><linearGradient id="linear-gradient-6" x1="643.61" y1="714.1" x2="729.31" y2="714.1" gradientUnits="userSpaceOnUse"><stop offset="0" stop-color="#fcb148"/><stop offset="0.05" stop-color="#fdba46"/><stop offset="0.14" stop-color="#ffc244"/><stop offset="0.32" stop-color="#ffc444"/><stop offset="0.48" stop-color="#fdb946"/><stop offset="0.78" stop-color="#f99c4d"/><stop offset="0.87" stop-color="#f8924f"/><stop offset="1" stop-color="#f8924f"/></linearGradient><linearGradient id="linear-gradient-7" x1="658.66" y1="760.1" x2="714.26" y2="760.1" xlink:href="#linear-gradient-6"/><linearGradient id="linear-gradient-8" x1="668.97" y1="721.42" x2="719.59" y2="721.42" gradientUnits="userSpaceOnUse"><stop offset="0" stop-color="#444b8c"/><stop offset="1" stop-color="#26264f"/></linearGradient><linearGradient id="linear-gradient-9" x1="70.96" y1="46.06" x2="90.28" y2="46.06" xlink:href="#linear-gradient-5"/><linearGradient id="linear-gradient-10" x1="68.75" y1="46.06" x2="77.2" y2="46.06" xlink:href="#linear-gradient-5"/><linearGradient id="linear-gradient-11" x1="658.66" y1="760.1" x2="695.69" y2="760.1" xlink:href="#linear-gradient-6"/><linearGradient id="linear-gradient-12" x1="110.56" y1="133.49" x2="115.92" y2="92.05" gradientUnits="userSpaceOnUse"><stop offset="0" stop-color="#fcb148"/><stop offset="0.05" stop-color="#fdba46"/><stop offset="0.14" stop-color="#ffc244"/><stop offset="0.32" stop-color="#ffc444"/><stop offset="0.4" stop-color="#fec045"/><stop offset="0.71" stop-color="#faa34b"/><stop offset="0.87" stop-color="#f8924f"/><stop offset="1" stop-color="#f8924f"/></linearGradient><linearGradient id="linear-gradient-13" x1="86.86" y1="78.24" x2="102.19" y2="78.24" xlink:href="#linear-gradient-3"/><linearGradient id="linear-gradient-14" x1="670.03" y1="764.91" x2="682.62" y2="764.91" gradientTransform="translate(738.96 -254.2) rotate(45)" xlink:href="#linear-gradient-3"/><linearGradient id="linear-gradient-15" x1="691.88" y1="765.19" x2="701.46" y2="765.19" xlink:href="#linear-gradient-3"/><linearGradient id="linear-gradient-16" x1="679.97" y1="770.62" x2="716.01" y2="770.62" xlink:href="#linear-gradient"/><linearGradient id="linear-gradient-17" x1="701.11" y1="762.28" x2="751.97" y2="762.28" xlink:href="#linear-gradient"/><linearGradient id="linear-gradient-18" x1="701.11" y1="762.28" x2="740.44" y2="762.28" xlink:href="#linear-gradient"/><linearGradient id="linear-gradient-19" x1="718.81" y1="782.49" x2="682.14" y2="842.43" gradientUnits="userSpaceOnUse"><stop offset="0" stop-color="#ff9085"/><stop offset="1" stop-color="#fb6fbb"/></linearGradient><linearGradient id="linear-gradient-20" x1="120.37" y1="141.6" x2="111.89" y2="168.05" xlink:href="#linear-gradient-19"/><linearGradient id="linear-gradient-21" x1="127.23" y1="150.04" x2="122.5" y2="164.8" xlink:href="#linear-gradient-19"/><linearGradient id="linear-gradient-22" x1="134.78" y1="153.83" x2="131.83" y2="163.05" xlink:href="#linear-gradient-19"/><linearGradient id="linear-gradient-23" x1="147.17" y1="129.77" x2="134.21" y2="170.22" xlink:href="#linear-gradient-19"/><linearGradient id="linear-gradient-24" x1="154.62" y1="132.8" x2="143.1" y2="168.72" xlink:href="#linear-gradient-19"/><linearGradient id="linear-gradient-25" x1="163.52" y1="126.95" x2="149.7" y2="170.08" xlink:href="#linear-gradient-19"/><linearGradient id="linear-gradient-26" x1="169.79" y1="135.29" x2="159.66" y2="166.91" xlink:href="#linear-gradient-19"/><linearGradient id="linear-gradient-27" x1="175.79" y1="144.44" x2="169.69" y2="163.48" xlink:href="#linear-gradient-19"/></defs><title>ai-robot</title><g class="cls-1"><g id="Illustration"><path class="cls-2" d="M757.37,838.84l-187.64-1.6V842a2.52,2.52,0,0,0,1.93,2.57l53.06,9.32a7.58,7.58,0,0,0,1.9.09l128.71-10.63a2.4,2.4,0,0,0,2-2.51Z" transform="translate(-567.86 -674.96)"/><path class="cls-3" d="M689.28,831.25l-117.61,8.66a3.57,3.57,0,0,1-3.81-3.68V748.65a3.89,3.89,0,0,1,3.81-3.95H689.28a3.37,3.37,0,0,1,3.13,3.57v79.17A3.69,3.69,0,0,1,689.28,831.25Z" transform="translate(-567.86 -674.96)"/><path class="cls-2" d="M691.15,831.25l-117.6,8.66a3.57,3.57,0,0,1-3.82-3.68V748.65a3.89,3.89,0,0,1,3.82-3.95h117.6a3.37,3.37,0,0,1,3.14,3.57v79.17A3.69,3.69,0,0,1,691.15,831.25Z" transform="translate(-567.86 -674.96)"/><path class="cls-4" d="M687.49,825.67,578,833.19a2.92,2.92,0,0,1-3.1-3V753.5a3.19,3.19,0,0,1,3.1-3.25l109.54-.47a2.77,2.77,0,0,1,2.59,2.93v69.84A3,3,0,0,1,687.49,825.67Z" transform="translate(-567.86 -674.96)"/><path class="cls-5" d="M636.5,747.09a1.36,1.36,0,1,1-1.35-1.47A1.41,1.41,0,0,1,636.5,747.09Z" transform="translate(-567.86 -674.96)"/><path class="cls-6" d="M573.55,839.91l117-8.61.59,0a3.13,3.13,0,0,0,2.07-1c-8.42-.46-13.65-3.45-17-6.53-6.77-6.2-5.6-12.32-12.91-16.39-9.11-5.09-16.27,1.35-23.19-5-4.19-3.86-2.13-6.73-7.29-12.49-5.71-6.38-9.43-4.24-15.18-10-7.26-7.26-3.63-12.91-9.88-18.12-7.59-6.32-15.77-.47-23-6.53-3.12-2.62-4.83-6.42-5.72-10.46h-5.49a3.89,3.89,0,0,0-3.82,3.95v87.58A3.57,3.57,0,0,0,573.55,839.91Z" transform="translate(-567.86 -674.96)"/><path class="cls-3" d="M695.84,830.77l-126.11,9.11,55,9.66a7.58,7.58,0,0,0,1.9.09l130.75-10.79-59.52-8A9.66,9.66,0,0,0,695.84,830.77Z" transform="translate(-567.86 -674.96)"/><polygon class="cls-7" points="20.28 165 125.27 157.31 157.76 161.64 53.67 169.87 20.28 165"/><g class="cls-8"><path class="cls-5" d="M615.62,783.2a15.31,15.31,0,0,1,11.3-8.22l.34-21.08c-14,.7-26.08,9.74-31.54,22.46Z" transform="translate(-567.86 -674.96)"/><path class="cls-5" d="M642.83,791.85a15.43,15.43,0,0,1-14.21,12.94,14,14,0,0,1-6-1L611.7,822.44a33.36,33.36,0,0,0,16.92,3.32c18-1.16,32.34-16,34-33.85Z" transform="translate(-567.86 -674.96)"/><path class="cls-5" d="M608.3,820.52l11-18.7a14.49,14.49,0,0,1-5.43-11.45,15.24,15.24,0,0,1,.36-3.33l-19.94-6.8a37.67,37.67,0,0,0-1.62,10.92A34.63,34.63,0,0,0,608.3,820.52Z" transform="translate(-567.86 -674.96)"/></g><path class="cls-9" d="M630.8,774.94a14.15,14.15,0,0,1,12.19,13l32.52.19v0c0-25.69-19.16-46.65-44.14-48.09Z" transform="translate(-567.86 -674.96)"/><path class="cls-10" d="M568,681.64v52.94a3.22,3.22,0,0,0,3.25,3.18H680.2a3.12,3.12,0,0,0,3.12-3.12v-51.9Z" transform="translate(-567.86 -674.96)"/><path class="cls-11" d="M680.2,676.12,571.27,675a3.18,3.18,0,0,0-3.25,3.15v5.42l115.3,1.06v-5.32A3.16,3.16,0,0,0,680.2,676.12Z" transform="translate(-567.86 -674.96)"/><path class="cls-11" d="M594.63,709.94l6-20.59a22.59,22.59,0,0,1,15.7,21.27Z" transform="translate(-567.86 -674.96)"/><path class="cls-5" d="M610.72,711.9a16.71,16.71,0,0,1-6.09,11.72l-9.42-12.23Z" transform="translate(-567.86 -674.96)"/><path class="cls-5" d="M593.28,709.22c-3.63-3.44-8-7.61-11.5-10.93a17.39,17.39,0,0,1,15.9-4.08Z" transform="translate(-567.86 -674.96)"/><path class="cls-5" d="M592.53,710.51,579.34,720a16.7,16.7,0,0,1,1.41-20.65l3.22,3.06C587.53,705.78,591.11,709.17,592.53,710.51Z" transform="translate(-567.86 -674.96)"/><path class="cls-5" d="M592.91,712l-.26,15.45a17.31,17.31,0,0,1-12.43-6.33Z" transform="translate(-567.86 -674.96)"/><path class="cls-5" d="M594.37,712.7l9.09,11.8a17.24,17.24,0,0,1-9.34,3Z" transform="translate(-567.86 -674.96)"/><polygon class="cls-5" points="107.37 24.58 51.55 24.21 51.55 18.98 107.37 19.4 107.37 24.58"/><polygon class="cls-5" points="107.37 33.97 51.55 33.69 51.55 28.45 107.37 28.78 107.37 33.97"/><polygon class="cls-5" points="107.37 43.35 51.55 43.16 51.55 37.92 107.37 38.16 107.37 43.35"/><polygon class="cls-5" points="107.37 52.73 51.55 52.63 51.55 47.4 107.37 47.55 107.37 52.73"/><path class="cls-5" d="M575.47,679.24a1.41,1.41,0,0,1-1.44,1.4,1.45,1.45,0,0,1-1.44-1.43,1.42,1.42,0,0,1,1.44-1.4A1.44,1.44,0,0,1,575.47,679.24Z" transform="translate(-567.86 -674.96)"/><rect class="cls-5" x="716.3" y="748.3" width="7.42" height="24.25" transform="matrix(0.55, -0.84, 0.84, 0.55, -878.35, 271.83)"/><circle class="cls-12" cx="143.58" cy="78.24" r="7.67"/><circle class="cls-13" cx="725.38" cy="764.91" r="6.3" transform="translate(-753.58 620.19) rotate(-76.72)"/><ellipse class="cls-14" cx="157.22" cy="46.15" rx="9.66" ry="13.58"/><path class="cls-15" d="M695.55,688.21H677.37A33.77,33.77,0,0,0,643.61,722h0a18,18,0,0,0,18,18h49.66a18,18,0,0,0,18-18h0A33.77,33.77,0,0,0,695.55,688.21Z" transform="translate(-567.86 -674.96)"/><path class="cls-16" d="M692.36,776.89h-11.8a21.9,21.9,0,0,1-21.9-21.9h0a11.68,11.68,0,0,1,11.69-11.68h32.22A11.68,11.68,0,0,1,714.26,755h0A21.9,21.9,0,0,1,692.36,776.89Z" transform="translate(-567.86 -674.96)"/><path class="cls-17" d="M712.05,732.7H677.49a8.3,8.3,0,0,1-8.52-8v-6.79a8,8,0,0,1,8.52-7.75l34.56,1.11a7.77,7.77,0,0,1,7.54,7.69v6.31A7.48,7.48,0,0,1,712.05,732.7Z" transform="translate(-567.86 -674.96)"/><path class="cls-5" d="M688.57,720.93a5.42,5.42,0,0,1-5.65,5.28,5.69,5.69,0,0,1-5.74-5.52,5.42,5.42,0,0,1,5.74-5.28A5.7,5.7,0,0,1,688.57,720.93Z" transform="translate(-567.86 -674.96)"/><path class="cls-5" d="M711.92,721.4a5.14,5.14,0,0,1-5.27,5.11,5.4,5.4,0,0,1-5.36-5.33,5.14,5.14,0,0,1,5.36-5.1A5.39,5.39,0,0,1,711.92,721.4Z" transform="translate(-567.86 -674.96)"/><path class="cls-18" d="M699,735.25c-5.14-6-2.85-10.87-9.57-19.06-9.25-11.26-20-10-22.51-17.62-.68-2.12-.76-5,1.08-9A33.78,33.78,0,0,0,643.61,722h0a18,18,0,0,0,18,18h43.28A20.51,20.51,0,0,1,699,735.25Z" transform="translate(-567.86 -674.96)"/><ellipse class="cls-19" cx="80.62" cy="46.06" rx="9.66" ry="13.58"/><ellipse class="cls-20" cx="72.97" cy="46.06" rx="4.22" ry="5.94"/><path class="cls-21" d="M695.26,764.84c-1.62-7.6-19.52-7.42-20-12.39-.38-3.83,9.9-7.62,11.19-8.1,1.11-.4,2.2-.75,3.29-1H670.35A11.68,11.68,0,0,0,658.66,755h0a21.9,21.9,0,0,0,21.9,21.9h11.8a21.58,21.58,0,0,0,3.33-.25,8,8,0,0,1-1.86-4.18C693.47,769.09,695.89,767.78,695.26,764.84Z" transform="translate(-567.86 -674.96)"/><ellipse class="cls-22" cx="118.89" cy="69" rx="18.63" ry="2.26"/><rect class="cls-5" x="667.24" y="748.3" width="7.42" height="24.25" transform="matrix(0.55, -0.84, 0.84, 0.55, -900.55, 230.77)"/><circle class="cls-23" cx="94.52" cy="78.24" r="7.67"/><polygon class="cls-5" points="112.04 87.86 129.8 87.86 129.1 95.21 111.69 94.62 112.04 87.86"/><circle class="cls-24" cx="676.33" cy="764.91" r="6.3" transform="translate(-910.64 27.31) rotate(-45)"/><path class="cls-25" d="M699.21,762.61a8.9,8.9,0,0,0-4.74-1,2.07,2.07,0,0,0-2,1.82l-.62,5.26H701l.3-1.26A4.4,4.4,0,0,0,699.21,762.61Z" transform="translate(-567.86 -674.96)"/><path class="cls-26" d="M715.39,768.86l-33.06-.57a1.39,1.39,0,0,0-1.15.58l-1,1.4A1.07,1.07,0,0,0,681,772l35,1Z" transform="translate(-567.86 -674.96)"/><path class="cls-27" d="M750.87,752.77l-34.08-1.58a2.87,2.87,0,0,0-2.53,1.28l-13.15,20,36,.94a2.93,2.93,0,0,0,2.49-1.26l12.13-17.52A1.16,1.16,0,0,0,750.87,752.77Z" transform="translate(-567.86 -674.96)"/><path class="cls-28" d="M714.26,752.47a2.87,2.87,0,0,1,2.53-1.28l.74,0a5.3,5.3,0,0,0,.93,3c1.93,2.67,5.52,1.34,7.95,4.19,2.66,3.14-.21,6.47,2.16,9.38,2.5,3.06,7,1,11.87,3.18l-.8,1.15a2.93,2.93,0,0,1-2.49,1.26l-36-.94Z" transform="translate(-567.86 -674.96)"/><path class="cls-29" d="M671,795.12v44.15a2.41,2.41,0,0,0,2.45,2.53L751,837.72a2.45,2.45,0,0,0,2.1-2.56V794.28Z" transform="translate(-567.86 -674.96)"/><path class="cls-30" d="M751,789.1l-77.63.4a2.58,2.58,0,0,0-2.45,2.67v4.52l82.18-1v-4.19A2.28,2.28,0,0,0,751,789.1Z" transform="translate(-567.86 -674.96)"/><path class="cls-5" d="M676.55,793a1.15,1.15,0,0,1-1.08,1.19,1.18,1.18,0,0,1,0-2.35A1.11,1.11,0,0,1,676.55,793Z" transform="translate(-567.86 -674.96)"/><polygon class="cls-5" points="119.86 160.38 113.75 160.66 113.75 127.84 119.86 127.73 119.86 160.38"/><polygon class="cls-31" points="119.86 160.38 113.75 160.66 113.75 145.08 119.86 144.88 119.86 160.38"/><polygon class="cls-5" points="128.24 159.98 122.23 160.26 122.23 127.69 128.24 127.59 128.24 159.98"/><polygon class="cls-32" points="128.24 159.98 122.23 160.26 122.23 152.53 128.24 152.29 128.24 159.98"/><polygon class="cls-5" points="136.5 159.59 130.58 159.87 130.58 127.55 136.5 127.45 136.5 159.59"/><polygon class="cls-33" points="136.5 159.59 130.58 159.87 130.58 155.84 136.5 155.58 136.5 159.59"/><polygon class="cls-5" points="144.64 159.2 138.8 159.48 138.8 127.41 144.64 127.31 144.64 159.2"/><polygon class="cls-34" points="144.64 159.2 138.8 159.48 138.8 134.35 144.64 134.22 144.64 159.2"/><polygon class="cls-5" points="152.65 158.83 146.9 159.1 146.9 127.27 152.65 127.17 152.65 158.83"/><polygon class="cls-35" points="152.65 158.83 146.9 159.1 146.9 137 152.65 136.84 152.65 158.83"/><polygon class="cls-5" points="160.54 158.45 154.88 158.72 154.88 127.13 160.54 127.03 160.54 158.45"/><polygon class="cls-36" points="160.54 158.45 154.88 158.72 154.88 131.72 160.54 131.6 160.54 158.45"/><polygon class="cls-5" points="168.31 158.09 162.74 158.35 162.74 126.99 168.31 126.89 168.31 158.09"/><polygon class="cls-37" points="168.31 158.09 162.74 158.35 162.74 139.09 168.31 138.93 168.31 158.09"/><polygon class="cls-5" points="175.97 157.72 170.48 157.98 170.48 126.86 175.97 126.76 175.97 157.72"/><polygon class="cls-38" points="175.97 157.72 170.48 157.98 170.48 147.18 175.97 146.97 175.97 157.72"/></g></g></svg>