<svg id="Layer_1" data-name="Layer 1" xmlns="http://www.w3.org/2000/svg" viewBox="0 0 3475.15 2708.69"><defs><style>.cls-1{fill:#ecf3fe;}.cls-2{fill:#dfe5ea;}.cls-3{fill:#5b97ef;}.cls-4{fill:#fff;}.cls-5{fill:#e4ecf9;}.cls-6{fill:#3b82f4;}.cls-7{fill:#474747;opacity:0.29;}.cls-8{fill:#f4b545;}.cls-9{fill:#232323;opacity:0.1;}.cls-10{fill:#46c1aa;}.cls-11{fill:#52d1bd;}.cls-12{fill:#3caf99;}.cls-13{fill:#727272;}.cls-14{fill:#302f2f;}.cls-15{fill:#f4b698;}.cls-16{opacity:0.28;}.cls-17{fill:#e29586;}.cls-18{fill:#565656;}.cls-19{fill:#363636;opacity:0.2;}.cls-20{fill:#eee;}.cls-21{fill:#ffdca4;}.cls-22{fill:#e09f36;}.cls-23{fill:#f4cb95;}.cls-24{fill:#d8a471;}.cls-25{fill:#edc28e;}.cls-26{fill:#e5b67f;}.cls-27{fill:#cc8e2b;}.cls-28{fill:#e29d2d;}.cls-29{fill:#4786d1;}</style></defs><title>email-graphic</title><path class="cls-1" d="M1985.53,1190.89a859,859,0,0,1,113.35-180.64C2466.29,560.8,3188.22,598.67,3611.54,961,4081,1362.76,4037.62,2039,4028,2154.54,3994.64,2556.49,3786,3210.78,3306,3344.06c-223,61.92-435.78-7.7-621.41-136.87-146.6-102-339.91-92.48-479.84,27.09-52.93,45.23-111.94,83.47-177.48,110.55-148.34,61.28-280.4,44.86-337.6,37-445.88-61.06-881.44-568.72-877.34-1043.38C817,1793.78,1399.92,1376,1985.53,1190.89Z" transform="translate(-812.25 -681.19)"/><path class="cls-2" d="M3636.17,1909.56V2980.45c0,1.3-.06,2.6-.12,4,0,.62-.07,1.24-.13,1.86s-.06,1.17-.12,1.8c0,.24-.06.49-.06.74l-.19,1.18c-.06.93-.25,1.86-.37,2.79s-.31,1.8-.5,2.67a8.76,8.76,0,0,1-.31,1.3,2.68,2.68,0,0,1-.19,1,8.88,8.88,0,0,1-.31,1.31c-.18.8-.43,1.61-.61,2.35a1.23,1.23,0,0,1-.13.44c-.43,1.36-.81,2.73-1.3,4a.25.25,0,0,1-.06.19c-.25.68-.5,1.36-.75,2s-.49,1.18-.68,1.74a3,3,0,0,0-.19.49c-.74,1.68-1.49,3.42-2.35,5-.25.5-.56,1.12-.87,1.68s-.62,1.05-.93,1.61-.56,1.05-.93,1.55c-.62,1-1.31,2.11-2,3.1-.43.68-.87,1.24-1.24,1.86-1.05,1.37-2.05,2.73-3.16,4-.81,1-1.62,1.93-2.42,2.8s-1.68,1.8-2.55,2.66c-.37.44-.8.81-1.24,1.24a8.5,8.5,0,0,1-1.18,1.06c-.43.43-.93.87-1.42,1.3-.13.13-.31.25-.44.37-1.18,1.06-2.42,2-3.66,3a1.69,1.69,0,0,0-.37.31c-1,.68-2,1.43-3,2.11-.37.25-.68.5-1,.68-.56.38-1.12.75-1.68,1.06a9.16,9.16,0,0,1-1.36.8,14.37,14.37,0,0,1-1.49.87,69.67,69.67,0,0,1-10.92,5c-.25.06-.43.18-.68.25s-.56.18-.81.25c-.87.31-1.74.61-2.67.86-1.55.5-3.1.87-4.65,1.24l-2.42.56a11.64,11.64,0,0,1-1.55.25l-1.92.37c-.13,0-.19,0-.25.06l-1.55.19c-.25,0-.5.06-.75.06l-1.36.19c-.25,0-.5.06-.81.06l-2.85.19c-1.37.06-2.73.12-4.1.12H1667.62c-1.37,0-2.73-.06-4.1-.12l-2.85-.19a28.51,28.51,0,0,1-3.17-.37,16.27,16.27,0,0,1-1.8-.25c-1.48-.19-3-.5-4.4-.81a8,8,0,0,1-1.24-.31c-1.55-.37-3.1-.74-4.65-1.24-.93-.31-1.8-.55-2.67-.86a83.35,83.35,0,0,1-12-5.28l-2.79-1.67c-1.05-.62-2.11-1.31-3.1-2a77.23,77.23,0,0,1-16.32-14.83,51.08,51.08,0,0,1-3.16-4.09,73.38,73.38,0,0,1-8.5-15.26c-.5-1.24-1-2.61-1.49-3.91s-.87-2.67-1.3-4-.74-2.73-1-4.1-.56-2.54-.81-3.84c-.06-.19-.06-.44-.13-.62-.18-1.24-.37-2.55-.49-3.79a.47.47,0,0,1-.06-.31c-.13-1-.19-1.92-.25-2.91-.19-1.93-.25-3.85-.25-5.83V1909.56a76.35,76.35,0,0,1,27.92-59.12,4.45,4.45,0,0,1,.49-.37l4-3a76,76,0,0,1,44.24-14.08H3559.55a51.5,51.5,0,0,1,5.46.25,2.82,2.82,0,0,1,1,.06c1.73.12,3.53.31,5.21.56l1.18.18c1.48.25,3,.56,4.4.93a9,9,0,0,1,1.12.25c1.8.44,3.53.93,5.27,1.49s3.29,1.12,4.84,1.74a62.11,62.11,0,0,1,6.51,3,38.72,38.72,0,0,1,3.48,1.86,50.72,50.72,0,0,1,5.7,3.72c.07-.06.07,0,.07,0l4,3a4.45,4.45,0,0,1,.49.37,38.35,38.35,0,0,1,2.92,2.55c.74.62,1.43,1.3,2.11,2a66.76,66.76,0,0,1,5.95,6.58c.87,1,1.68,2.11,2.42,3.16a71.73,71.73,0,0,1,8.13,14.27c.62,1.37,1.18,2.79,1.74,4.22,0,.06.06.12.06.19a69.83,69.83,0,0,1,2.17,7c.31,1.18.56,2.3.81,3.48.18.93.37,1.8.49,2.73s.31,1.86.44,2.79a31.77,31.77,0,0,1,.37,3.35,22.74,22.74,0,0,1,.19,2.85C3636.11,1906.9,3636.17,1908.26,3636.17,1909.56Z" transform="translate(-812.25 -681.19)"/><path class="cls-3" d="M3631.58,1883.39h-2036a76.64,76.64,0,0,1,23.33-33,4.45,4.45,0,0,1,.49-.37l4-3,943.27-716a77.54,77.54,0,0,1,93.87,0l943.2,716c.07-.06.07,0,.07,0l4,3a4.45,4.45,0,0,1,.49.37,38.35,38.35,0,0,1,2.92,2.55c.74.62,1.43,1.3,2.11,2a66.76,66.76,0,0,1,5.95,6.58c.87,1,1.68,2.11,2.42,3.16a71.73,71.73,0,0,1,8.13,14.27c.62,1.37,1.18,2.79,1.74,4.22C3631.52,1883.26,3631.58,1883.32,3631.58,1883.39Z" transform="translate(-812.25 -681.19)"/><path class="cls-4" d="M1037.49,570.85H2539.93A137.15,137.15,0,0,1,2677.08,708V2320.12a0,0,0,0,1,0,0H900.34a0,0,0,0,1,0,0V708A137.15,137.15,0,0,1,1037.49,570.85Z"/><rect class="cls-5" x="1102.69" y="877.28" width="1372.05" height="80.65" rx="33.25"/><path class="cls-5" d="M1135.94,1049.57H2441.48a33.26,33.26,0,0,1,33.26,33.26V1097a33.26,33.26,0,0,1-33.26,33.26H1135.94a33.25,33.25,0,0,1-33.25-33.25v-14.14a33.25,33.25,0,0,1,33.25-33.25Z"/><path class="cls-5" d="M1135.94,1221.86H2441.48a33.26,33.26,0,0,1,33.26,33.26v14.14a33.25,33.25,0,0,1-33.25,33.25H1135.94a33.25,33.25,0,0,1-33.25-33.25v-14.14a33.25,33.25,0,0,1,33.25-33.25Z"/><path class="cls-5" d="M1135.94,1394.15H2441.48a33.26,33.26,0,0,1,33.26,33.26v14.14a33.25,33.25,0,0,1-33.25,33.25H1135.94a33.25,33.25,0,0,1-33.25-33.25v-14.14A33.26,33.26,0,0,1,1135.94,1394.15Z"/><path class="cls-5" d="M1135.94,1566.44H2441.48a33.26,33.26,0,0,1,33.26,33.26v14.14a33.25,33.25,0,0,1-33.25,33.25H1135.94a33.25,33.25,0,0,1-33.25-33.25V1599.7A33.25,33.25,0,0,1,1135.94,1566.44Z"/><path class="cls-6" d="M2613.62,2473.73v.06a50.49,50.49,0,0,1-10.55,8.69l-931.24,574.58h-4.21a74.88,74.88,0,0,1-22.21-3.29c-1-.31-2-.62-2.92-.93a75.92,75.92,0,0,1-31.58-20.9c-.8-.87-1.61-1.8-2.42-2.8a73,73,0,0,1-6.39-9c-.68-1.06-1.24-2.11-1.86-3.16s-1.18-2.24-1.67-3.36a76.16,76.16,0,0,1-7.57-33.18V1909.56a76.35,76.35,0,0,1,27.92-59.12,4.45,4.45,0,0,1,.49-.37l4-3a76,76,0,0,1,44.24-14.08h17.49l81.77,50.44,753.74,465.09L2549,2366l54.1,33.38a50.45,50.45,0,0,1,10.55,8.68v.06A49,49,0,0,1,2613.62,2473.73Z" transform="translate(-812.25 -681.19)"/><path class="cls-6" d="M3636.17,1909.56V2980.45c0,1.3-.06,2.6-.12,4,0,.62-.07,1.24-.13,1.86s-.06,1.17-.12,1.8c0,.24-.06.49-.06.74l-.19,1.18c-.06.93-.25,1.86-.37,2.79s-.31,1.8-.5,2.67c0,.12-.06.31-.06.43a5.37,5.37,0,0,1-.25.87,2.68,2.68,0,0,1-.19,1,8.88,8.88,0,0,1-.31,1.31c-.18.8-.37,1.55-.61,2.35a1.23,1.23,0,0,1-.13.44c-.37,1.36-.81,2.73-1.3,4a.25.25,0,0,1-.06.19c-.25.68-.44,1.3-.75,2s-.43,1.12-.68,1.74a4.22,4.22,0,0,0-.19.49c-.74,1.68-1.49,3.42-2.35,5-.25.5-.56,1.12-.87,1.68s-.62,1.05-.93,1.61-.56,1.05-.93,1.55c-.62,1-1.31,2.11-2,3.1-.43.68-.87,1.24-1.24,1.86-1.05,1.43-2.11,2.73-3.16,4-.81,1-1.62,1.93-2.42,2.8s-1.68,1.8-2.55,2.66c-.37.44-.8.81-1.24,1.24a8.5,8.5,0,0,1-1.18,1.06c-.43.43-.93.87-1.42,1.3-.13.13-.31.25-.44.37-1.18,1.06-2.42,2-3.66,3a1.69,1.69,0,0,0-.37.31c-1,.68-2,1.43-3,2.11-.37.25-.68.5-1,.68-.56.38-1.12.75-1.68,1.06a9.16,9.16,0,0,1-1.36.8,14.37,14.37,0,0,1-1.49.87,69.67,69.67,0,0,1-10.92,5,5.2,5.2,0,0,0-.68.25c-.25.06-.56.18-.81.25-.87.31-1.74.61-2.67.86-1.55.5-3.1.87-4.65,1.24l-2.42.56a11.64,11.64,0,0,1-1.55.25l-1.92.37H3571c-.56.06-1.11.19-1.61.25-.25,0-.5.06-.75.06l-1.36.19c-.25,0-.5.06-.81.06l-2.85.19c-1.37.06-2.73.12-4.1.12h-4.21L2624.1,2482.48a48.32,48.32,0,0,1-10.48-8.69v-.06a48.87,48.87,0,0,1,0-65.64V2408a48.28,48.28,0,0,1,10.48-8.68l54-33.38,28.36-17.49,753.81-465.09,81.76-50.44h17.49a51.5,51.5,0,0,1,5.46.25,2.82,2.82,0,0,1,1,.06c1.73.12,3.53.31,5.21.56l1.18.18c1.48.25,3,.56,4.4.93a9,9,0,0,1,1.12.25c1.8.44,3.53.93,5.27,1.49s3.29,1.12,4.84,1.74a62.11,62.11,0,0,1,6.51,3,38.72,38.72,0,0,1,3.48,1.86,50.72,50.72,0,0,1,5.7,3.72c.07-.06.07,0,.07,0l4,3a4.45,4.45,0,0,1,.49.37,38.35,38.35,0,0,1,2.92,2.55c.74.62,1.43,1.3,2.11,2a66.76,66.76,0,0,1,5.95,6.58c.87,1,1.68,2.11,2.42,3.16a71.73,71.73,0,0,1,8.13,14.27c.62,1.37,1.18,2.79,1.74,4.22,0,.06.06.12.06.19a69.83,69.83,0,0,1,2.17,7c.31,1.18.56,2.3.81,3.48.18.93.37,1.8.49,2.73s.31,1.86.44,2.79a31.77,31.77,0,0,1,.37,3.35,22.74,22.74,0,0,1,.19,2.85C3636.11,1906.9,3636.17,1908.26,3636.17,1909.56Z" transform="translate(-812.25 -681.19)"/><path class="cls-7" d="M3636.17,2966v11.14c0,44.16-34.31,80-76.62,80H1667.62c-42.31,0-76.62-35.81-76.62-80V2966l973.11-640.24a89.44,89.44,0,0,1,98.89,0Z" transform="translate(-812.25 -681.19)"/><path class="cls-3" d="M3636.17,2969.78v10.67a76.62,76.62,0,0,1-76.62,76.61H1667.62a76.62,76.62,0,0,1-76.62-76.61v-10.67l973.11-613.36a92.7,92.7,0,0,1,98.89,0Z" transform="translate(-812.25 -681.19)"/><rect class="cls-6" x="1102.69" y="704.98" width="635.88" height="80.65" rx="33.25"/><path class="cls-8" d="M1854.92,2909.66l-.51,0c-22.69-.9-45.52-2.86-67.86-5.82a12.55,12.55,0,1,1,3.29-24.89c21.59,2.85,43.65,4.75,65.57,5.62a12.56,12.56,0,0,1-.49,25.11Zm66.92-.32a12.56,12.56,0,0,1-.6-25.1c21.65-1,43.73-3.06,65.62-6a12.56,12.56,0,0,1,3.33,24.89c-22.6,3-45.38,5.1-67.73,6.19ZM1722.32,2892a12.39,12.39,0,0,1-2.82-.32c-22-5.06-44.1-11.24-65.62-18.38a12.55,12.55,0,0,1,7.91-23.83c20.77,6.89,42.08,12.85,63.33,17.74a12.55,12.55,0,0,1-2.8,24.79Zm332.16-.25a12.55,12.55,0,0,1-2.62-24.83c21.29-4.57,42.82-10.06,64-16.3a12.56,12.56,0,1,1,7.1,24.09c-21.77,6.42-43.91,12.05-65.82,16.76A12.63,12.63,0,0,1,2054.48,2891.76Zm128.47-37.7a12.56,12.56,0,0,1-4.39-24.32c20.51-7.65,41.08-16.13,61.14-25.22a12.55,12.55,0,1,1,10.36,22.87c-20.57,9.32-41.68,18-62.73,25.88A12.67,12.67,0,0,1,2183,2854.06Zm-587.71-4a12.51,12.51,0,0,1-4.94-1c-20.32-8.71-41-18.48-61.39-29a12.55,12.55,0,1,1,11.53-22.3c19.88,10.27,40,19.78,59.75,28.25a12.56,12.56,0,0,1-5,24.1Zm709.68-51.32a12.56,12.56,0,0,1-6-23.61c17.65-9.54,34.45-19.4,49.93-29.3a12.56,12.56,0,0,1,13.52,21.17c-16,10.22-33.32,20.39-51.51,30.22A12.46,12.46,0,0,1,2304.92,2798.76Zm-828.69-10.1a12.5,12.5,0,0,1-6.51-1.83c-19.45-11.8-38.55-24.31-56.78-37.16a12.56,12.56,0,0,1,14.48-20.52c17.76,12.53,36.37,24.71,55.33,36.21a12.56,12.56,0,0,1-6.52,23.3Zm-109.38-77.34a12.5,12.5,0,0,1-8-2.87c-17-14-33.33-28.58-48.52-43.29a12.73,12.73,0,0,1-3.15-3.19,12.56,12.56,0,0,1,16.28-18.63,568.12,568.12,0,0,0,61.42,10.26,12.56,12.56,0,1,1-2.76,25q-11.64-1.28-23.34-3.06,7.89,6.86,16,13.57a12.56,12.56,0,0,1-8,22.25Zm83.5-29.26a12.56,12.56,0,0,1-.11-25.12c17.49-.15,35.15-1.17,52.51-3,3.56-.38,7.75-.83,13-1.45a12.55,12.55,0,1,1,3,24.93c-5.32.64-9.62,1.1-12.75,1.44q-28,3-55.47,3.21Zm133-15.52a12.55,12.55,0,0,1-2.57-24.84c21.87-4.61,43.34-10.14,63.81-16.46a12.56,12.56,0,1,1,7.4,24c-21.2,6.53-43.42,12.27-66,17A12.31,12.31,0,0,1,1583.39,2666.54Zm-330.11-17.76a12.39,12.39,0,0,1-4.16-.72,627.6,627.6,0,0,1-63.1-26.15,12.56,12.56,0,0,1,10.87-22.64,600.09,600.09,0,0,0,60.56,25.1,12.56,12.56,0,0,1-4.17,24.41Zm458-22a12.56,12.56,0,0,1-5-24.1,504,504,0,0,0,58.29-29.51,12.56,12.56,0,1,1,12.83,21.59,528,528,0,0,1-61.2,31A12.61,12.61,0,0,1,1711.28,2626.79Zm-439.88-9.15a12.55,12.55,0,0,1-9.62-4.48,579.36,579.36,0,0,1-40.93-54.83,12.56,12.56,0,1,1,21-13.77A556.52,556.52,0,0,0,1281,2597a12.55,12.55,0,0,1-9.6,20.63ZM1132.73,2591a12.52,12.52,0,0,1-6.59-1.87,649.66,649.66,0,0,1-56.07-39,12.55,12.55,0,1,1,15.4-19.83,625.94,625.94,0,0,0,53.88,37.42,12.55,12.55,0,0,1-6.62,23.23Zm693-33a12.56,12.56,0,0,1-8.08-22.17,330,330,0,0,0,45.15-45.89,12.56,12.56,0,1,1,19.58,15.74,356.21,356.21,0,0,1-48.58,49.38A12.48,12.48,0,0,1,1825.68,2558ZM1027.14,2509a12.49,12.49,0,0,1-8.71-3.51,632.19,632.19,0,0,1-46.58-49.93,12.55,12.55,0,1,1,19.26-16.1,611,611,0,0,0,44.73,47.94,12.55,12.55,0,0,1-8.7,21.6Zm171.55-3.42a12.58,12.58,0,0,1-11.4-7.26,401.76,401.76,0,0,1-23.75-64.8,12.56,12.56,0,0,1,24.26-6.51,374.86,374.86,0,0,0,22.26,60.71,12.55,12.55,0,0,1-11.37,17.86Zm709.81-51.52a12.55,12.55,0,0,1-11.25-18.12,297.8,297.8,0,0,0,21-56.65l.9-3.55a12.55,12.55,0,0,1,24.36,6.09l-1,3.79a322.43,322.43,0,0,1-22.84,61.44A12.56,12.56,0,0,1,1908.5,2454.1Zm-967-47.62a12.52,12.52,0,0,1-10.47-5.63,598.54,598.54,0,0,1-34.45-59,12.55,12.55,0,0,1,22.37-11.39,578.45,578.45,0,0,0,33,56.57,12.56,12.56,0,0,1-10.46,19.49ZM1164.7,2377a12.56,12.56,0,0,1-12.52-11.74c-.46-7.15-.69-14.42-.69-21.6a338.72,338.72,0,0,1,3.41-47.77,12.56,12.56,0,1,1,24.86,3.57,312.13,312.13,0,0,0-3.16,44.2c0,6.65.21,13.37.64,20a12.55,12.55,0,0,1-11.72,13.34C1165.25,2377,1165,2377,1164.7,2377Zm776.16-51.82h-.56a12.55,12.55,0,0,1-12-13.09c.21-4.85.32-9.69.31-14.55a354.11,354.11,0,0,0-3.58-49.9,12.56,12.56,0,1,1,24.86-3.54,378.75,378.75,0,0,1,3.83,53.43q0,7.83-.33,15.65A12.55,12.55,0,0,1,1940.86,2325.19Zm-1060-37.79a12.57,12.57,0,0,1-11.77-8.16A619.21,619.21,0,0,1,848.76,2214a12.55,12.55,0,1,1,24.35-6.13,593,593,0,0,0,19.46,62.59,12.55,12.55,0,0,1-11.76,17Zm302.31-42.15a12.4,12.4,0,0,1-4-.67,12.56,12.56,0,0,1-7.85-15.93,455.68,455.68,0,0,1,27.16-63.24,12.56,12.56,0,1,1,22.27,11.6,430.3,430.3,0,0,0-25.65,59.72A12.56,12.56,0,0,1,1183.12,2245.25Zm739.24-52a12.54,12.54,0,0,1-11.94-8.71,404.79,404.79,0,0,0-24.84-59.93,12.56,12.56,0,1,1,22.36-11.44,429.69,429.69,0,0,1,26.38,63.67,12.54,12.54,0,0,1-12,16.41ZM848.07,2157.79A12.54,12.54,0,0,1,835.66,2147c-3.15-22.24-5.21-45.1-6.13-67.94a12.56,12.56,0,0,1,25.1-1,655.35,655.35,0,0,0,5.89,65.41,12.56,12.56,0,0,1-10.67,14.19A11.94,11.94,0,0,1,848.07,2157.79Zm396.3-31.18a12.55,12.55,0,0,1-10.25-19.78,541.13,541.13,0,0,1,42.94-53.42,12.56,12.56,0,0,1,18.54,16.94,518.82,518.82,0,0,0-40.95,50.93A12.53,12.53,0,0,1,1244.37,2126.61Zm617.31-52.12a12.58,12.58,0,0,1-10.15-5.14,394.76,394.76,0,0,0-42.44-49,12.56,12.56,0,0,1,17.57-18,422.15,422.15,0,0,1,45.14,52.15,12.57,12.57,0,0,1-10.12,20ZM1334.53,2028a12.55,12.55,0,0,1-8.13-22.13,505.76,505.76,0,0,1,55.21-40.76,12.56,12.56,0,1,1,13.49,21.18,478.94,478.94,0,0,0-52.46,38.74A12.51,12.51,0,0,1,1334.53,2028Zm-491.85-3.78-.73,0a12.57,12.57,0,0,1-11.82-13.26,680.23,680.23,0,0,1,7.29-67.83,12.55,12.55,0,1,1,24.79,4,654.07,654.07,0,0,0-7,65.31A12.57,12.57,0,0,1,842.68,2024.17Zm923.44-42.67a12.46,12.46,0,0,1-7-2.17,326.64,326.64,0,0,0-56.52-30.78,12.56,12.56,0,0,1,9.73-23.16,352,352,0,0,1,60.89,33.16,12.56,12.56,0,0,1-7.06,23Zm-318.81-24.89a12.56,12.56,0,0,1-5.06-24,394.53,394.53,0,0,1,65.35-22.27,12.56,12.56,0,1,1,5.93,24.4,371.09,371.09,0,0,0-61.18,20.85A12.38,12.38,0,0,1,1447.31,1956.61Zm196.1-26.2a12.53,12.53,0,0,1-2.27-.21,292.65,292.65,0,0,0-52.38-4.72c-3.56-.06-7.71.07-11.56.22a12.55,12.55,0,0,1-1-25.09c4.17-.16,8.64-.09,12.53-.24a317,317,0,0,1,56.89,5.13,12.56,12.56,0,0,1-2.24,24.91Zm-779.16-38.18a12.56,12.56,0,0,1-12.1-16,637.33,637.33,0,0,1,22-64.6,12.56,12.56,0,0,1,23.31,9.37,607.34,607.34,0,0,0-21.13,62A12.57,12.57,0,0,1,864.25,1892.23Zm49.76-124a12.57,12.57,0,0,1-11.08-18.44A667.17,667.17,0,0,1,938,1691.27a12.56,12.56,0,1,1,20.86,14,639.46,639.46,0,0,0-33.73,56.3A12.53,12.53,0,0,1,914,1768.25Zm74.42-111.1a12.55,12.55,0,0,1-9.67-20.55c14.36-17.38,29.81-34.34,45.92-50.39a12.56,12.56,0,0,1,17.73,17.79c-15.54,15.48-30.44,31.83-44.29,48.6A12.53,12.53,0,0,1,988.43,1657.15Zm94.72-94.48a12.56,12.56,0,0,1-8-22.24c17.37-14.34,35.69-28.11,54.45-40.94a12.56,12.56,0,1,1,14.18,20.74c-18.15,12.39-35.86,25.7-52.64,39.56A12.46,12.46,0,0,1,1083.15,1562.67Zm110.48-75.55a12.56,12.56,0,0,1-6.15-23.51c19.64-11,40.09-21.33,60.78-30.68a12.55,12.55,0,1,1,10.34,22.88c-20,9.06-39.83,19-58.84,29.71A12.48,12.48,0,0,1,1193.63,1487.12Zm122-55.16a12.55,12.55,0,0,1-4.18-24.39c21.23-7.5,43.1-14.21,65-20a12.55,12.55,0,0,1,6.36,24.29c-21.23,5.56-42.42,12.07-63,19.34A12.81,12.81,0,0,1,1315.6,1432Z" transform="translate(-812.25 -681.19)"/><polygon class="cls-9" points="1129.58 404.08 182.2 530.49 411.89 704.7 415.48 1025.34 613.41 857.22 724.63 941.08 1129.58 404.08"/><polygon class="cls-10" points="436.15 1005.89 430.9 537.52 1150.25 384.63 436.15 1005.89"/><path class="cls-11" d="M1246.36,1367.62c3.64-1.83,716.14-301.8,716.14-301.8l-947.38,126.4Z" transform="translate(-812.25 -681.19)"/><polygon class="cls-12" points="512.64 746.21 436.15 1005.89 764.21 727.24 512.64 746.21"/><polygon class="cls-11" points="512.64 746.21 745.3 921.64 1150.25 384.63 512.64 746.21"/><path class="cls-9" d="M3814.78,1948.49a22,22,0,0,0-23.31-20.53l-846.57,53.82a22,22,0,0,0-20.52,23.31L2946.24,2349a22,22,0,0,0,23.31,20.53l846.56-53.82a22,22,0,0,0,20.53-23.31Z" transform="translate(-812.25 -681.19)"/><path class="cls-4" d="M3837.52,2284.07,2991,2337.88a22,22,0,0,1-23.31-20.53l-21.86-343.88a22,22,0,0,1,20.52-23.31l846.57-53.81a22,22,0,0,1,23.31,20.52l21.86,343.89A22,22,0,0,1,3837.52,2284.07Z" transform="translate(-812.25 -681.19)"/><path class="cls-6" d="M3748,1999.74l-369.43,23.49a17.43,17.43,0,0,1-18.43-16.24l-.06-.86a17.43,17.43,0,0,1,16.23-18.44l369.43-23.48a17.41,17.41,0,0,1,18.43,16.23l.06.87A17.42,17.42,0,0,1,3748,1999.74Z" transform="translate(-812.25 -681.19)"/><path class="cls-1" d="M3752.87,2077.25l-369.42,23.48A17.41,17.41,0,0,1,3365,2084.5l-.06-.87a17.41,17.41,0,0,1,16.23-18.43l369.42-23.49a17.43,17.43,0,0,1,18.44,16.23l0,.87A17.41,17.41,0,0,1,3752.87,2077.25Z" transform="translate(-812.25 -681.19)"/><path class="cls-1" d="M3757.8,2154.75l-369.42,23.49a17.43,17.43,0,0,1-18.44-16.23l-.05-.87a17.42,17.42,0,0,1,16.23-18.44l369.42-23.48a17.43,17.43,0,0,1,18.44,16.23l.05.87A17.41,17.41,0,0,1,3757.8,2154.75Z" transform="translate(-812.25 -681.19)"/><path class="cls-1" d="M3762.73,2232.26l-369.43,23.48a17.42,17.42,0,0,1-18.43-16.23l-.06-.87a17.42,17.42,0,0,1,16.24-18.43l369.42-23.48A17.4,17.4,0,0,1,3778.9,2213l.06.87A17.42,17.42,0,0,1,3762.73,2232.26Z" transform="translate(-812.25 -681.19)"/><circle class="cls-1" cx="3156.76" cy="2132.7" r="163.05" transform="translate(-1395.7 2175.63) rotate(-45)"/><path class="cls-13" d="M3242.56,2233.1a128.9,128.9,0,0,1-27.89,18.71,129.85,129.85,0,0,1-34.05,11.34,129.82,129.82,0,0,1-96.25-20,75.18,75.18,0,0,1,43-39.3h0a.06.06,0,0,1,0,0,70.07,70.07,0,0,1,10.18-2.79,3.15,3.15,0,0,1,.42-.09,70.91,70.91,0,0,1,9.42-1.21l27.08-1.72a71.54,71.54,0,0,1,9.49,0,2.12,2.12,0,0,1,.43,0,71.15,71.15,0,0,1,10.47,1.48h0v0A75.08,75.08,0,0,1,3242.56,2233.1Z" transform="translate(-812.25 -681.19)"/><path class="cls-14" d="M3229,2072l5.54,87.24a34.85,34.85,0,0,1-32.57,37l-82,5.21a34.87,34.87,0,0,1-37-32.59l-5.54-87.24c-4.93-77.48,71.08-78.8,71.08-78.8s19.67-2.16,39.59,6c17.84,7.29,35.88,22.9,40.18,55.77C3228.57,2067,3228.81,2069.47,3229,2072Z" transform="translate(-812.25 -681.19)"/><path class="cls-15" d="M3183.56,2184.55l1.63,25.66c.69,10.87-9.27,20.45-22.16,21.27s-24-7.42-24.67-18.29l-1.63-25.66a17.8,17.8,0,0,1,4.06-12.27,19.83,19.83,0,0,1,2.16-2.34,23,23,0,0,1,5.13-3.64,27.1,27.1,0,0,1,21.92-1.4,23.51,23.51,0,0,1,5.54,3l.26.18a20.63,20.63,0,0,1,2.18,1.87A17.75,17.75,0,0,1,3183.56,2184.55Z" transform="translate(-812.25 -681.19)"/><path class="cls-16" d="M3218,2092.55l2.37,37.36a61.41,61.41,0,0,1-36.5,59.9l.62,9.85a60.63,60.63,0,0,1-20.67,5.05l-5,.32a60.66,60.66,0,0,1-21.15-2.39l-.63-9.85a61.42,61.42,0,0,1-43.79-54.8l-2.37-37.36a61.4,61.4,0,0,1,57.19-64.66l5-.31a60.8,60.8,0,0,1,38.81,10.9h0A61.23,61.23,0,0,1,3218,2092.55Z" transform="translate(-812.25 -681.19)"/><path class="cls-15" d="M3217.42,2083l3,46.93a60.89,60.89,0,0,1-8.63,35.3l0,0a63.33,63.33,0,0,1-4.78,6.83,61.43,61.43,0,0,1-23,17.73,60.44,60.44,0,0,1-20.68,5l-5,.32a60.51,60.51,0,0,1-21.13-2.38,61.41,61.41,0,0,1-43.81-54.8l-3-46.68c0-.65-.06-1.3-.08-1.95a61.06,61.06,0,0,1,18.5-46,63.6,63.6,0,0,1,6-5.18,60.72,60.72,0,0,1,32.73-12.11l5-.32a60.81,60.81,0,0,1,37.67,10.16,62,62,0,0,1,19.62,21.15A60.15,60.15,0,0,1,3217.42,2083Z" transform="translate(-812.25 -681.19)"/><path class="cls-15" d="M3243.45,2106.14a24.52,24.52,0,0,1-22.91,26l-3.11-48.92a24.43,24.43,0,0,1,9.69,1.33l0,0A24.5,24.5,0,0,1,3243.45,2106.14Z" transform="translate(-812.25 -681.19)"/><path class="cls-17" d="M3234.13,2106.73a15.18,15.18,0,0,1-14.18,16.11l-1.93-30.29A15.18,15.18,0,0,1,3234.13,2106.73Z" transform="translate(-812.25 -681.19)"/><path class="cls-18" d="M3194.93,2199.54v0l-14.31,63.59a130.75,130.75,0,0,1-31,2l-22.25-61.27h0l12.92-.83.49.45,21.74,19.79,19.09-22.39.43-.5Z" transform="translate(-812.25 -681.19)"/><path class="cls-15" d="M3090.3,2091.32l3.11,48.92a24.51,24.51,0,0,1-8.56-47.95,11.06,11.06,0,0,1,1.13-.3l.61-.13A23.86,23.86,0,0,1,3090.3,2091.32Z" transform="translate(-812.25 -681.19)"/><path class="cls-17" d="M3076.72,2116.74a15.18,15.18,0,0,0,16.11,14.18l-1.93-30.29A15.18,15.18,0,0,0,3076.72,2116.74Z" transform="translate(-812.25 -681.19)"/><path class="cls-18" d="M3214.67,2251.81a125,125,0,0,1-16,6.64l-.35-5.6Z" transform="translate(-812.25 -681.19)"/><polygon class="cls-19" points="2350.25 1542.07 2369.24 1553.8 2382.68 1518.35 2350.25 1542.07"/><polygon class="cls-20" points="2382.68 1518.35 2368.85 1552.61 2350.25 1542.07 2369.76 1519.17 2372.31 1516.19 2382.68 1518.35"/><polygon class="cls-19" points="2315.1 1522.64 2332.75 1556.12 2350.25 1542.07 2315.1 1522.64"/><polygon class="cls-20" points="2350.25 1542.07 2333.16 1554.88 2315.1 1522.64 2325.12 1519.19 2328.02 1521.82 2350.25 1542.07"/><path class="cls-14" d="M3228.87,2070.39c-45.35,6.18-43.64-35.32-40.17-55.77C3206.53,2021.92,3224.58,2037.53,3228.87,2070.39Z" transform="translate(-812.25 -681.19)"/><path class="cls-14" d="M3203.33,2036c-1.41,2.61-15.32,31.88-43.59,33.68s-72.08,21.63-71.67,49.87-40.87-83.72,44.43-98.08S3203.33,2036,3203.33,2036Z" transform="translate(-812.25 -681.19)"/><path class="cls-9" d="M3890.69,1882.48l-81.25-334.86a22,22,0,0,0-26.53-16.16l-824.35,200a22,22,0,0,0-16.17,26.52l81.26,334.86a22,22,0,0,0,26.52,16.17l824.35-200A22,22,0,0,0,3890.69,1882.48Z" transform="translate(-812.25 -681.19)"/><rect class="cls-8" x="2988.98" y="1595.68" width="892.2" height="388.5" rx="21.96" transform="translate(-1137.45 179.27) rotate(-13.64)"/><circle class="cls-21" cx="3194.91" cy="1848.2" r="161.55" transform="translate(-1183.36 2119.29) rotate(-45)"/><path class="cls-8" d="M3227.38,1990.58a24,24,0,0,1-2.65.54l-.05,0a137.77,137.77,0,0,1-78.56-6.47,76.07,76.07,0,0,1,36.4-49h.05a68.22,68.22,0,0,1,9.61-4.56,74.06,74.06,0,0,1,9.53-3l26.59-6.45a75.74,75.74,0,0,1,9.8-1.67h.05a68.75,68.75,0,0,1,10.63-.36,75.62,75.62,0,0,1,41.28,14.3,76.86,76.86,0,0,1,12.44,11.29,138.47,138.47,0,0,1-64.73,42.6c-1.17.38-2.35.72-3.59,1a2.84,2.84,0,0,1-.56.19h0a2.23,2.23,0,0,1-.76.18,1.54,1.54,0,0,1-.67.17c-.89.31-1.84.54-2.79.77l-.67.17-.81.19-.24.06Z" transform="translate(-812.25 -681.19)"/><path class="cls-22" d="M3120,1838s-30.16-87.93,18.59-101.63,65.81-31,78.59-29.75,41.63,80.83,42.37,97.52S3120,1838,3120,1838Z" transform="translate(-812.25 -681.19)"/><path class="cls-23" d="M3234.91,1906.74l6.1,25.16c2.59,10.67-5.62,21.91-18.26,25s-25.08-3.16-27.67-13.82l-6.11-25.17a17.9,17.9,0,0,1,1.88-12.88,20.26,20.26,0,0,1,1.73-2.7,23.73,23.73,0,0,1,4.45-4.51,27.36,27.36,0,0,1,21.5-5.22,23.49,23.49,0,0,1,6,2l.29.13a21.16,21.16,0,0,1,2.49,1.47A18,18,0,0,1,3234.91,1906.74Z" transform="translate(-812.25 -681.19)"/><path class="cls-24" d="M3253,1809.44l8.89,36.65a61.85,61.85,0,0,1-25.73,65.8l2.34,9.67a61.1,61.1,0,0,1-19.62,8.62l-4.91,1.19a60.79,60.79,0,0,1-21.4,1.33l-2.35-9.66a61.87,61.87,0,0,1-53-46.7l-8.89-36.64a61.83,61.83,0,0,1,45.43-74.15l4.91-1.19a61.29,61.29,0,0,1,40.41,4h0A61.66,61.66,0,0,1,3253,1809.44Z" transform="translate(-812.25 -681.19)"/><path class="cls-23" d="M3250.7,1800.07l11.18,46a61.09,61.09,0,0,1-1.34,33.64c-.54,1.66-1.2,3.29-1.88,4.86a53.48,53.48,0,0,1-2.73,5.65,61.38,61.38,0,0,1-39.41,30.27l-4.88,1.18a61.76,61.76,0,0,1-74.43-45.36l-11.58-47.76a61.57,61.57,0,0,1,10.33-48.79,56.38,56.38,0,0,1,5.08-6.16,61,61,0,0,1,30.36-17.75l4.88-1.19a59.92,59.92,0,0,1,27.7-.21,49.53,49.53,0,0,1,5.26,1.37,57.86,57.86,0,0,1,6.19,2.31A61.52,61.52,0,0,1,3250.7,1800.07Z" transform="translate(-812.25 -681.19)"/><path class="cls-25" d="M3280.6,1818.48a24.69,24.69,0,0,1-18.17,29.81l-11.65-48a24.67,24.67,0,0,1,9.84-.38h.05A24.71,24.71,0,0,1,3280.6,1818.48Z" transform="translate(-812.25 -681.19)"/><path class="cls-24" d="M3271.46,1820.69a15.29,15.29,0,0,1-11.25,18.46l-7.21-29.71A15.29,15.29,0,0,1,3271.46,1820.69Z" transform="translate(-812.25 -681.19)"/><path class="cls-25" d="M3126.09,1830.56l11.64,48a24.69,24.69,0,0,1-16.88-46.07c.35-.18.7-.35,1.07-.5l.58-.23A24.76,24.76,0,0,1,3126.09,1830.56Z" transform="translate(-812.25 -681.19)"/><path class="cls-24" d="M3117.06,1858.16a15.29,15.29,0,0,0,18.46,11.25l-7.21-29.71A15.28,15.28,0,0,0,3117.06,1858.16Z" transform="translate(-812.25 -681.19)"/><path class="cls-26" d="M3250.7,1800.07l11.18,46a61.09,61.09,0,0,1-1.34,33.64c-.54,1.66-1.2,3.29-1.88,4.86-9.15-89.71-26.77-98.75-47.35-93.59-22.13,5.49-33.79-20.54-33.79-20.54l31.72-14.62a57.86,57.86,0,0,1,6.19,2.31A61.52,61.52,0,0,1,3250.7,1800.07Z" transform="translate(-812.25 -681.19)"/><path class="cls-27" d="M3245.16,1948.86l8.24,8.57-15.63,30.38c-1.17.38-2.35.72-3.59,1a2.84,2.84,0,0,1-.56.19h0a2.23,2.23,0,0,1-.76.18l7.34-46.61,0-.11,1.22-7.68,0-.06.11-.78-3-12.41,18,18.48-10.75,8.37Z" transform="translate(-812.25 -681.19)"/><path class="cls-4" d="M3228.68,1990.32l.67-.17c1-.23,1.9-.46,2.79-.77a1.54,1.54,0,0,0,.67-.17,2.23,2.23,0,0,0,.76-.18h0l1.8-5.5,9.51-29.55-1.86-7.68,4.24-6.69-5.3-9.74a24.26,24.26,0,0,1-.85,2.53l-.07.12,0,.1c-1.63,4.54-5.68,13.86-13.1,20.36a30.68,30.68,0,0,1-5.37,3.73,31.68,31.68,0,0,1-8.83-1.6c-8.59-2.71-15.44-8.43-18.55-11.47l-.07-.08c-1.29-1.16-1.92-1.86-1.92-1.86l-.24,11.08,6.83,4,1.87,7.68,18.93,18.87,7.15,7.16.06,0Z" transform="translate(-812.25 -681.19)"/><path class="cls-22" d="M3245.76,1948.41l7.64,9-19.22,31.4a2.84,2.84,0,0,1-.56.19h0a2.23,2.23,0,0,1-.76.18,1.54,1.54,0,0,1-.67.17l7.09-44.74v-.05l1.89-12,0-.1.07-.12-3-12.41,18.36,20.06-11.74,7.25Z" transform="translate(-812.25 -681.19)"/><path class="cls-27" d="M3227.38,1990.58a24,24,0,0,1-2.65.54l-.05,0-28.9-19.73,3.4-11.39-.73-.13-13.4-2.51,7.51-24.67,2.63,10.84.38,1.57.07.09.24.34.07.09,4.75,6.48,0,0,28,38.16-.81.19-.24.06Z" transform="translate(-812.25 -681.19)"/><polygon class="cls-22" points="2415.13 1309.4 2383.53 1290.22 2386.2 1278.71 2386.55 1277.26 2372.8 1276.19 2379.93 1249.95 2380.31 1251.52 2382.94 1262.36 2383.01 1262.44 2390.26 1272.31 2390.27 1272.36 2417.1 1308.97 2416.43 1309.13 2415.62 1309.33 2415.38 1309.39 2415.13 1309.4"/><path class="cls-22" d="M3211.4,1746.17s-32.15-1.77-38-.36-13.11,3.91-23.93,9.47-25.11,22.24-25.11,22.24l-1.76,7c-1.35,2.32-2.69,4.91-2.63,5.54s.1,2.57.14,4.37l-1.45,5.76c.34-.23,1.17-.72,2.16-1.4l2.73,4.52a53.36,53.36,0,0,1,12.86-18.23c11.95-7.86,29.27-13.32,44-7.2C3207.12,1789,3247,1769,3247,1769Z" transform="translate(-812.25 -681.19)"/><path class="cls-28" d="M3754.63,1610.84l-359.73,87.28a17.41,17.41,0,0,1-21-12.78l-.2-.85a17.41,17.41,0,0,1,12.78-21l359.73-87.28a17.41,17.41,0,0,1,21,12.78l.21.85A17.42,17.42,0,0,1,3754.63,1610.84Z" transform="translate(-812.25 -681.19)"/><rect class="cls-21" x="3386.43" y="1694.85" width="404.9" height="35.61" rx="17.37" transform="translate(-1114.89 213.36) rotate(-13.64)"/><rect class="cls-21" x="3404.74" y="1770.32" width="404.9" height="35.61" rx="17.37" transform="translate(-1132.17 219.8) rotate(-13.64)"/><rect class="cls-21" x="3423.06" y="1845.79" width="404.9" height="35.61" rx="17.37" transform="translate(-1149.45 226.25) rotate(-13.64)"/><path class="cls-11" d="M3230.3,2941.92q-9,0-17.9-.37a12.56,12.56,0,0,1,1-25.09,419.13,419.13,0,0,0,64.9-2.42,12.55,12.55,0,1,1,2.85,24.94A447.71,447.71,0,0,1,3230.3,2941.92Zm-83.75-8.64a12.85,12.85,0,0,1-2.61-.27,412.55,412.55,0,0,1-66-19.87,12.56,12.56,0,0,1,9.24-23.36,384,384,0,0,0,62,18.65,12.56,12.56,0,0,1-2.58,24.85Zm198.93-6.6a12.56,12.56,0,0,1-3.17-24.7,502.64,502.64,0,0,0,61.93-20.68,12.56,12.56,0,1,1,9.47,23.26,528.22,528.22,0,0,1-65,21.71A12.71,12.71,0,0,1,3345.48,2926.68Zm-322.93-42.21a12.45,12.45,0,0,1-6.4-1.77,481,481,0,0,1-56.33-39.38,12.56,12.56,0,0,1,15.81-19.52,455.57,455.57,0,0,0,53.35,37.32,12.56,12.56,0,0,1-6.43,23.35Zm446.81-7.92a12.56,12.56,0,0,1-6.1-23.54,574.5,574.5,0,0,0,55.36-35,12.56,12.56,0,1,1,14.61,20.43,599.22,599.22,0,0,1-57.79,36.53A12.51,12.51,0,0,1,3469.36,2876.55Zm-550.85-75.81a12.5,12.5,0,0,1-9.06-3.86,626.86,626.86,0,0,1-44.51-51.9,12.55,12.55,0,0,1,19.91-15.3,601.27,601.27,0,0,0,42.72,49.81,12.56,12.56,0,0,1-9.06,21.25Zm659.59-1.87a12.55,12.55,0,0,1-8.41-21.88,564.6,564.6,0,0,0,46-46.59,12.56,12.56,0,1,1,18.87,16.57,589.72,589.72,0,0,1-48.08,48.67A12.56,12.56,0,0,1,3578.1,2798.87Zm43.16-74.6a12.56,12.56,0,0,1-1.21-25.05,306.53,306.53,0,0,0,36.15-5.76,12.57,12.57,0,0,1-.53-14.77,447.25,447.25,0,0,0,32.43-56.42,12.56,12.56,0,1,1,22.65,10.84,466.9,466.9,0,0,1-30.59,54.09c1-.28,1.9-.58,2.85-.88a12.56,12.56,0,0,1,7.5,24,339.92,339.92,0,0,1-68,13.91C3622.08,2724.25,3621.66,2724.27,3621.26,2724.27Zm-66.78-1a12.44,12.44,0,0,1-1.61-.11,357.61,357.61,0,0,1-67.54-15.78,12.56,12.56,0,0,1,8-23.82,331.84,331.84,0,0,0,62.76,14.7,12.56,12.56,0,0,1-1.58,25Zm-717.74-28.51a12.54,12.54,0,0,1-10.66-5.91c-12.18-19.52-23.4-39.56-33.35-59.57a12.56,12.56,0,0,1,22.49-11.19c9.59,19.3,20.41,38.63,32.16,57.46a12.56,12.56,0,0,1-10.64,19.21Zm911.69-9.81a12.56,12.56,0,0,1-5.91-23.65,386.08,386.08,0,0,0,54.4-35.17,12.56,12.56,0,0,1,15.33,19.89,411.28,411.28,0,0,1-57.94,37.46A12.44,12.44,0,0,1,3748.43,2685Zm-320.51-3.58a12.32,12.32,0,0,1-6-1.52,364.6,364.6,0,0,1-57.59-38.52A12.56,12.56,0,0,1,3380.3,2622a340.52,340.52,0,0,0,53.62,35.86,12.55,12.55,0,0,1-6,23.59Zm426.29-77.58a12.56,12.56,0,0,1-9.1-21.21,450.38,450.38,0,0,0,41.24-50.34,12.55,12.55,0,0,1,20.51,14.47,472.19,472.19,0,0,1-43.55,53.16A12.5,12.5,0,0,1,3854.21,2603.83Zm-528.41-7.55a12.54,12.54,0,0,1-10-5,245.34,245.34,0,0,1-34.28-61.39,12.56,12.56,0,0,1,23.49-8.88,220,220,0,0,0,30.8,55.08,12.56,12.56,0,0,1-10,20.15Zm397.21-18.6a12.36,12.36,0,0,1-3.33-.45,12.56,12.56,0,0,1-8.79-15.43,290.29,290.29,0,0,0,10.3-63.19,12.56,12.56,0,1,1,25.09,1.17,316.13,316.13,0,0,1-11.17,68.66A12.56,12.56,0,0,1,3723,2577.68Zm208.29-82.82a12.55,12.55,0,0,1-11.14-18.32,500.46,500.46,0,0,0,26.06-59.83,12.56,12.56,0,1,1,23.63,8.51,524.92,524.92,0,0,1-27.39,62.85A12.54,12.54,0,0,1,3931.3,2494.86Zm-651.6-22.05a12.57,12.57,0,0,1-12.54-11.95c-.18-3.87-.28-7.75-.28-11.62a256.06,256.06,0,0,1,6.88-58.28,12.55,12.55,0,1,1,24.45,5.71,231.66,231.66,0,0,0-6.21,52.57c0,3.47.08,6.93.25,10.4a12.57,12.57,0,0,1-11.94,13.16Zm448.71-27.66a12.57,12.57,0,0,1-12.3-10.09,338.89,338.89,0,0,0-18.8-61.72,12.56,12.56,0,0,1,23.25-9.51,365.08,365.08,0,0,1,20.18,66.3,12.56,12.56,0,0,1-9.85,14.78A13.1,13.1,0,0,1,3728.41,2445.15ZM3309,2343.65a12.56,12.56,0,0,1-11.19-18.25,304.29,304.29,0,0,1,38.53-58.14,12.56,12.56,0,0,1,19.2,16.21,277.94,277.94,0,0,0-35.34,53.31A12.56,12.56,0,0,1,3309,2343.65Zm369.14-21.93a12.54,12.54,0,0,1-10.59-5.79,308.55,308.55,0,0,0-39.86-50.35,12.56,12.56,0,0,1,17.88-17.64,333.44,333.44,0,0,1,43.13,54.46,12.55,12.55,0,0,1-10.56,19.32ZM3395,2242.59a12.56,12.56,0,0,1-7.25-22.82c20.27-14.3,41.6-24.85,63.39-31.35a12.55,12.55,0,1,1,7.18,24.06,194.09,194.09,0,0,0-56.1,27.81A12.47,12.47,0,0,1,3395,2242.59Zm188.86-14.17a12.45,12.45,0,0,1-6.12-1.61c-19-10.65-38.67-17.3-58.41-19.75a12.56,12.56,0,0,1,3.1-24.92c23,2.85,45.71,10.52,67.58,22.77a12.56,12.56,0,0,1-6.15,23.51Z" transform="translate(-812.25 -681.19)"/><circle class="cls-9" cx="3990.73" cy="2268.01" r="244.66" transform="translate(-1247.12 2804.97) rotate(-45)"/><circle class="cls-8" cx="3230.48" cy="1557.6" r="244.66"/><path class="cls-4" d="M4086.32,2167.89l5.79-19.21,46.44,3.3-35.71,124.23q-3.33,11.79-3.6,15.66a9.25,9.25,0,0,0,1.58,6.47,6.22,6.22,0,0,0,4.67,2.63q9.51.69,25.42-10.65t28.62-31.91a103.31,103.31,0,0,0,9.32-86.24,92.8,92.8,0,0,0-20.84-34q-14.15-14.79-35.84-24.12t-49.85-11.33q-28.68-2-53.13,3.73a133.41,133.41,0,0,0-43.57,18.48,120.77,120.77,0,0,0-32.72,32.41,150.64,150.64,0,0,0-19.19,38.59,178,178,0,0,0-8.79,44.1q-2.16,30.27,8.11,56.19a112.34,112.34,0,0,0,32,44.53q21.73,18.62,53.78,28.05t73.33,8.14q32.81-1.56,56.19-10.86a108.87,108.87,0,0,0,40.44-27.88l37.47,2.66a124.73,124.73,0,0,1-26.23,31.9,135.24,135.24,0,0,1-36.16,22.45,179.34,179.34,0,0,1-45.25,12.25,253.16,253.16,0,0,1-53.68,1.48q-43.26-3.07-77.11-16.89t-56-36.87a138.93,138.93,0,0,1-32.16-53.56q-10-30.49-7.48-66.39,2.65-37.45,17.47-69.12a164.3,164.3,0,0,1,40-54q25.18-22.33,60-33.47t75.64-8.23q33.42,2.37,60.61,14.12t45.76,31.46A122.35,122.35,0,0,1,4199,2161.5q8.69,25.8,6.54,56.07a133.54,133.54,0,0,1-38.81,84.49,118.07,118.07,0,0,1-39.06,25.86,102.84,102.84,0,0,1-46.65,7.2q-14.26-1-21.83-6.42t-9.45-16.14q-16.39,14-36.55,16.58a65.78,65.78,0,0,1-38.26-6.43q-18.11-9-28.33-27.92t-8.35-45.5a133.14,133.14,0,0,1,15.74-53.51,112.57,112.57,0,0,1,36.9-41.4,78.71,78.71,0,0,1,50.73-13.54Q4073.23,2143.09,4086.32,2167.89Zm-102.71,84.28q-1.5,21.1,6.49,33a28,28,0,0,0,22.25,12.9q16.53,1.17,30.05-11.12t21.46-32a127.12,127.12,0,0,0,9.28-38.5,59.82,59.82,0,0,0-1-17,40,40,0,0,0-5.58-13.57,28.49,28.49,0,0,0-9.77-9.26,31.64,31.64,0,0,0-13.6-3.89q-15.49-1.09-28.74,10.07t-21.31,30A120.77,120.77,0,0,0,3983.61,2252.17Z" transform="translate(-812.25 -681.19)"/><path class="cls-29" d="M3323.62,882.42l26.44-13.9a8.17,8.17,0,0,1,11.85,8.61l-5,29.45a8.17,8.17,0,0,0,2.35,7.22l21.39,20.86a8.17,8.17,0,0,1-4.52,13.93l-29.57,4.29a8.18,8.18,0,0,0-6.15,4.47l-13.22,26.79a8.16,8.16,0,0,1-14.64,0l-13.23-26.79a8.15,8.15,0,0,0-6.14-4.47l-29.57-4.29a8.17,8.17,0,0,1-4.52-13.93l21.39-20.86a8.17,8.17,0,0,0,2.35-7.22l-5.05-29.45a8.17,8.17,0,0,1,11.85-8.61l26.44,13.9A8.11,8.11,0,0,0,3323.62,882.42Z" transform="translate(-812.25 -681.19)"/><path class="cls-29" d="M1172.85,3009.11a70.3,70.3,0,1,1,70.3-70.3A70.37,70.37,0,0,1,1172.85,3009.11Zm0-121.26a51,51,0,1,0,51,51A51,51,0,0,0,1172.85,2887.85Z" transform="translate(-812.25 -681.19)"/><circle class="cls-29" cx="1172.85" cy="2938.81" r="35.8" transform="translate(-2546.78 1008.9) rotate(-45)"/><circle class="cls-29" cx="1813.98" cy="2645.28" r="32.31"/><circle class="cls-29" cx="1277.65" cy="78.78" r="32.31"/></svg>