<svg xmlns="http://www.w3.org/2000/svg" viewBox="0 0 2496.18 1451.14"><defs><style>.cls-1{isolation:isolate;}.cls-2{fill:#d1bb93;}.cls-3{fill:#fbe7c4;}.cls-4{fill:#abc3a6;}.cls-5{fill:#8ca885;}.cls-6{fill:#dbdbdb;}.cls-18,.cls-32,.cls-33,.cls-6{mix-blend-mode:multiply;}.cls-7{fill:#f0ebe2;}.cls-8{fill:#d6cdbc;}.cls-9{fill:#fffaf0;}.cls-10{fill:#5b4848;}.cls-11{fill:#413446;}.cls-12{fill:#ddebde;}.cls-13{fill:#adc6b1;}.cls-14{fill:#ffefd1;}.cls-15{fill:#847887;}.cls-16{fill:#a798ab;}.cls-17{fill:#c0afc4;}.cls-18{fill:#e6dbce;}.cls-19{fill:#7a6161;}.cls-20{fill:#b0aba3;}.cls-21{fill:#db573d;}.cls-22{fill:#c9c3ba;}.cls-23{fill:#616161;mix-blend-mode:screen;}.cls-24{fill:#ff8762;}.cls-25{fill:#5c556e;}.cls-26{fill:#464154;}.cls-27{fill:#756c8c;}.cls-28{fill:#4d4469;}.cls-29{fill:#2b1710;}.cls-30{fill:#d13b3b;}.cls-31{fill:#fff;}.cls-32{fill:#e0b3a8;}.cls-33{fill:#d9d9d9;}.cls-34{fill:#aba69e;}.cls-35{fill:#7d7973;}.cls-36{fill:#c4bfb5;}.cls-37{fill:#96928b;}.cls-38{fill:#5e5c57;}.cls-39{fill:#9c9790;}.cls-40{fill:#b34732;}.cls-41{fill:#322d45;}.cls-42{fill:#c0e1f0;}.cls-43{fill:#805f5f;}.cls-44{fill:#5e5e5e;}.cls-45{fill:#423434;}</style></defs><title>explainer-video</title><g class="cls-1"><g id="Layer_1" data-name="Layer 1"><path class="cls-2" d="M557.13,1118H510.58v-53.79l9.54-9.54h37Zm-44.9-1.65h43.25v-60H520.8l-8.57,8.57Z" transform="translate(-317.22 -410.5)"/><polygon class="cls-2" points="207 657.98 196.65 657.98 196.65 656.33 205.35 656.33 205.35 647.63 207 647.63 207 657.98"/><path class="cls-2" d="M400.52,1267.64c-.06-.36-6.27-36.75-2.12-115.05l3.39.18c-4.13,77.84,2,113.93,2.07,114.28Z" transform="translate(-317.22 -410.5)"/><path class="cls-2" d="M399.75,1241.64l-1.13-1c-1.15-1-28.19-25.27-28.19-55.8a56.42,56.42,0,0,1,2.29-15.55l.47-1.61,12.25,3.38c-2.62-2.67-6-6.1-9-9l-.84-.83.48-1.07c8.11-18.21,22-30.59,22.54-31.11l1.13-1,1.12,1c.78.69,19.22,17.21,25.86,40.14l.22.74-.42.65c-6.52,10-11.73,18.07-15.08,23.36l14.9-11,2.66-2,.05,3.84c0,30.53-27,54.78-28.19,55.8Zm-24.21-69.78a52.09,52.09,0,0,0-1.72,13c0,25.55,20.81,47.26,25.93,52.21,4.91-4.76,24.36-25,25.83-49.31-18.16,13.36-18.75,13.75-18.95,13.89l-1.15.76-1-1c-1.27-1.26-1.28-1.27,18.79-32.06-5.6-18.44-19.47-32.83-23.51-36.75-3.38,3.26-13.57,13.78-20.09,27.83,5.74,5.65,12.5,12.65,12.57,12.72l4.29,4.45Z" transform="translate(-317.22 -410.5)"/><path class="cls-2" d="M997.55,555.29A31.47,31.47,0,1,1,1029,523.82,31.51,31.51,0,0,1,997.55,555.29Zm0-60.43a29,29,0,1,0,29,29A29,29,0,0,0,997.55,494.86Z" transform="translate(-317.22 -410.5)"/><path class="cls-2" d="M997.55,510.29a31.41,31.41,0,0,1-21-8.05l1.67-1.86a29,29,0,0,0,38.64.05l1.67,1.86A31.41,31.41,0,0,1,997.55,510.29Z" transform="translate(-317.22 -410.5)"/><path class="cls-2" d="M978.63,547.71,977,545.82a31.48,31.48,0,0,1,41-.07l-1.62,1.9a29,29,0,0,0-37.76.06Z" transform="translate(-317.22 -410.5)"/><path class="cls-2" d="M997.55,555.29c-9.12,0-16.25-13.82-16.25-31.47s7.13-31.46,16.25-31.46,16.24,13.82,16.24,31.46S1006.66,555.29,997.55,555.29Zm0-60.43c-7.46,0-13.75,13.26-13.75,29s6.29,29,13.75,29,13.74-13.27,13.74-29S1005,494.86,997.55,494.86Z" transform="translate(-317.22 -410.5)"/><rect class="cls-2" x="679.08" y="83.11" width="2.5" height="60.43"/><rect class="cls-2" x="650.11" y="112.07" width="60.43" height="2.5"/><path class="cls-2" d="M2391.69,603.52a17.84,17.84,0,0,1-7.86-2.12c-22.31-11-38.45-10.44-48,1.55l-3.17-2.51c10.86-13.69,28.67-14.59,52.93-2.68,6.78,3.34,9.5,1.32,14-2,4.23-3.13,9.5-7,19.52-6.63,20.24.82,28.88,11.4,29.23,11.85l-3.17,2.52c-.07-.09-8-9.59-26.23-10.33-8.58-.35-12.83,2.8-16.94,5.85C2398.93,601.3,2395.93,603.52,2391.69,603.52Z" transform="translate(-317.22 -410.5)"/><path class="cls-2" d="M2391.69,631.87a17.84,17.84,0,0,1-7.86-2.12c-22.31-11-38.45-10.44-48,1.56l-3.17-2.52c10.86-13.69,28.67-14.59,52.93-2.67,6.78,3.33,9.5,1.31,14-2,4.23-3.13,9.5-7,19.52-6.63,20.24.82,28.88,11.4,29.23,11.86l-3.17,2.52c-.07-.09-8-9.59-26.23-10.34-8.58-.34-12.83,2.8-16.94,5.85C2398.93,629.65,2395.93,631.87,2391.69,631.87Z" transform="translate(-317.22 -410.5)"/><path class="cls-2" d="M429.3,1605.38a17.84,17.84,0,0,1-7.86-2.13c-22.32-11-38.46-10.44-48,1.56l-3.18-2.52c10.87-13.69,28.68-14.59,52.93-2.67,6.79,3.33,9.51,1.32,14-2,4.24-3.14,9.51-7,19.52-6.64,20.24.82,28.88,11.41,29.24,11.86l-3.17,2.52c-.07-.09-8-9.59-26.23-10.33-8.59-.35-12.84,2.8-16.94,5.84C436.54,1603.16,433.54,1605.38,429.3,1605.38Z" transform="translate(-317.22 -410.5)"/><path class="cls-2" d="M429.3,1633.73a17.84,17.84,0,0,1-7.86-2.13c-22.32-11-38.46-10.43-48,1.56l-3.18-2.52c10.87-13.69,28.68-14.59,52.93-2.67,6.79,3.33,9.51,1.32,14-2,4.24-3.14,9.51-7,19.52-6.64,20.24.82,28.88,11.41,29.24,11.86l-3.17,2.52c-.07-.09-8-9.59-26.23-10.33-8.59-.35-12.84,2.8-16.94,5.84C436.54,1631.51,433.54,1633.73,429.3,1633.73Z" transform="translate(-317.22 -410.5)"/><path class="cls-3" d="M2443.42,1495.8a450.67,450.67,0,0,1-63-225.41c-2-185.86-48.21-426.07-287.67-441.74C1784.89,808.51,1877,886.2,1681.31,719.31S1255.45,839.44,1097.2,1023.6s-236,239.54-391.33,271.19c-139.72,28.46-216.62,261.66-132.37,457a106.14,106.14,0,0,0,97.51,63.9H2436.68C2522.85,1686.72,2487.81,1570.48,2443.42,1495.8Z" transform="translate(-317.22 -410.5)"/><ellipse class="cls-3" cx="841.47" cy="941.59" rx="263.28" ry="199.62" transform="translate(-736.37 605.22) rotate(-51.58)"/><path class="cls-4" d="M544.93,1815.6H2466.84a0,0,0,0,1,0,0V1843a18.66,18.66,0,0,1-18.66,18.66H563.59A18.66,18.66,0,0,1,544.93,1843V1815.6A0,0,0,0,1,544.93,1815.6Z" transform="translate(2694.55 3266.74) rotate(180)"/><path class="cls-2" d="M2737.56,1266.6a1.72,1.72,0,0,0,1.42-2.68c-1.93-2.85-3.94-5.7-6-8.46a1.71,1.71,0,1,0-2.75,2c2,2.72,4,5.53,5.9,8.34A1.72,1.72,0,0,0,2737.56,1266.6Z" transform="translate(-317.22 -410.5)"/><path class="cls-2" d="M2718.65,1243.22c-4-4.57-8.33-9-12.74-13.26a1.72,1.72,0,0,1,2.37-2.48c4.48,4.29,8.84,8.82,12.94,13.47a1.72,1.72,0,0,1-1.29,2.85A1.67,1.67,0,0,1,2718.65,1243.22Zm-26.54-25.42c-4.75-3.84-9.72-7.53-14.77-11a1.72,1.72,0,0,1,1.93-2.84c5.13,3.48,10.17,7.22,15,11.12a1.72,1.72,0,1,1-2.16,2.67Zm-30.4-20.63c-5.33-3-10.84-5.8-16.39-8.33a1.71,1.71,0,1,1,1.42-3.12c5.64,2.57,11.24,5.41,16.65,8.45a1.72,1.72,0,0,1-.84,3.22A1.67,1.67,0,0,1,2661.71,1197.17Zm-33.43-15.24c-5.76-2.06-11.66-3.89-17.56-5.45a1.71,1.71,0,1,1,.88-3.31c6,1.58,12,3.44,17.83,5.52a1.72,1.72,0,0,1-.57,3.34A1.69,1.69,0,0,1,2628.28,1181.93Z" transform="translate(-317.22 -410.5)"/><path class="cls-2" d="M2593,1172.56a1.71,1.71,0,0,0,.3-3.4c-3.39-.6-6.84-1.12-10.26-1.55a1.71,1.71,0,1,0-.44,3.4c3.37.43,6.77.94,10.11,1.53A1.46,1.46,0,0,0,2593,1172.56Z" transform="translate(-317.22 -410.5)"/><path class="cls-2" d="M2494.62,1177.56a1.58,1.58,0,0,0,.47-.07c3.27-.92,6.59-1.78,9.89-2.55a1.71,1.71,0,1,0-.78-3.34c-3.35.78-6.73,1.65-10,2.59a1.72,1.72,0,0,0,.47,3.37Z" transform="translate(-317.22 -410.5)"/><path class="cls-2" d="M2551.67,1609.75c-7-.09-14.1-.52-21-1.27a1.72,1.72,0,0,1,.37-3.42c6.83.74,13.81,1.17,20.72,1.26a1.72,1.72,0,0,1,0,3.43Zm19.23-2.27a1.72,1.72,0,0,1,1.58-1.85c6.89-.55,13.81-1.44,20.59-2.64a1.72,1.72,0,1,1,.6,3.38c-6.88,1.22-13.92,2.12-20.92,2.68h-.14A1.72,1.72,0,0,1,2570.9,1607.48Zm-61.11-2.26c-6.86-1.42-13.74-3.18-20.43-5.24a1.72,1.72,0,1,1,1-3.28c6.59,2,13.36,3.76,20.11,5.16a1.71,1.71,0,0,1-.34,3.39Zm102.34-4.7a1.72,1.72,0,0,1,1.19-2.12c6.65-1.84,13.28-4,19.72-6.5a1.71,1.71,0,1,1,1.23,3.2c-6.54,2.51-13.28,4.74-20,6.61a1.88,1.88,0,0,1-.46.06A1.72,1.72,0,0,1,2612.13,1600.52Zm-142.61-7.7c-6.46-2.69-12.87-5.72-19.06-9a1.72,1.72,0,1,1,1.61-3c6.1,3.25,12.41,6.24,18.77,8.88a1.72,1.72,0,0,1-1.32,3.17Zm181.76-7a1.71,1.71,0,0,1,.77-2.3c6.17-3.07,12.27-6.48,18.13-10.13a1.71,1.71,0,1,1,1.81,2.91c-5.95,3.71-12.14,7.17-18.41,10.29a1.76,1.76,0,0,1-.76.18A1.71,1.71,0,0,1,2651.28,1585.84ZM2432.34,1573c-5.84-3.87-11.56-8.06-17-12.47a1.71,1.71,0,1,1,2.15-2.67c5.37,4.34,11,8.47,16.76,12.28a1.72,1.72,0,1,1-1.9,2.86Zm254.6-9a1.71,1.71,0,0,1,.32-2.4c5.48-4.18,10.83-8.68,15.89-13.37a1.72,1.72,0,1,1,2.33,2.52c-5.14,4.76-10.57,9.33-16.14,13.58a1.74,1.74,0,0,1-1,.35A1.7,1.7,0,0,1,2686.94,1564Zm-287.38-17.49c-5-4.9-9.84-10.09-14.36-15.44a1.71,1.71,0,0,1,.2-2.42,1.72,1.72,0,0,1,2.42.2c4.45,5.27,9.21,10.38,14.14,15.21a1.71,1.71,0,1,1-2.4,2.45Zm318.29-10.67a1.71,1.71,0,0,1-.14-2.42c4.61-5.15,9-10.57,13.1-16.12a1.71,1.71,0,1,1,2.76,2c-4.15,5.64-8.62,11.15-13.3,16.37a1.7,1.7,0,0,1-2.42.14Zm-345.5-21.5c-4-5.75-7.77-11.77-11.2-17.87a1.72,1.72,0,1,1,3-1.69c3.38,6,7.09,11.94,11,17.6a1.72,1.72,0,0,1-.43,2.39,1.71,1.71,0,0,1-2.39-.43Zm370.56-12a1.73,1.73,0,0,1-.59-2.36c3.55-5.91,6.85-12.07,9.82-18.29a1.72,1.72,0,1,1,3.1,1.47c-3,6.32-6.37,12.58-10,18.59a1.73,1.73,0,0,1-1.48.83A1.77,1.77,0,0,1,2742.91,1502.37Zm-391.22-24.76c-2.84-6.41-5.4-13-7.61-19.67a1.72,1.72,0,1,1,3.26-1.09c2.18,6.54,4.7,13.06,7.49,19.37a1.71,1.71,0,0,1-.87,2.26,1.72,1.72,0,0,1-2.27-.87Zm409.5-12.84a1.73,1.73,0,0,1-1-2.2c2.36-6.48,4.43-13.16,6.16-19.83a1.71,1.71,0,1,1,3.32.86c-1.75,6.78-3.86,13.56-6.26,20.14a1.71,1.71,0,0,1-1.61,1.13A1.78,1.78,0,0,1,2761.19,1464.77Zm-422.8-27.14c-1.57-6.82-2.82-13.81-3.73-20.76a1.71,1.71,0,1,1,3.4-.45c.9,6.85,2.13,13.72,3.67,20.44a1.71,1.71,0,0,1-1.29,2.05,1.65,1.65,0,0,1-.38,0A1.72,1.72,0,0,1,2338.39,1437.63Zm433.6-13.25a1.72,1.72,0,0,1-1.42-2c1.08-6.8,1.85-13.74,2.28-20.64a1.72,1.72,0,0,1,3.43.22c-.44,7-1.22,14-2.32,21a1.72,1.72,0,0,1-1.69,1.45Zm-439.07-28.53c-.1-2.67-.15-5.38-.15-8,0-4.34.13-8.72.38-13a1.71,1.71,0,1,1,3.42.2c-.24,4.25-.37,8.57-.37,12.84,0,2.63.05,5.3.15,7.93a1.73,1.73,0,0,1-1.66,1.78h-.06A1.71,1.71,0,0,1,2332.92,1395.85Zm3.88-40.1a1.72,1.72,0,0,1-1.44-2c1.07-6.93,2.48-13.89,4.2-20.67a1.71,1.71,0,1,1,3.32.84c-1.69,6.68-3.08,13.53-4.13,20.35a1.72,1.72,0,0,1-1.69,1.46Zm9.95-40.62a1.71,1.71,0,0,1-1-2.19c2.36-6.59,5.07-13.15,8.05-19.49a1.72,1.72,0,0,1,3.11,1.46c-2.94,6.24-5.6,12.7-7.93,19.19a1.71,1.71,0,0,1-1.61,1.13A1.65,1.65,0,0,1,2346.75,1315.13Zm17.48-38a1.72,1.72,0,0,1-.6-2.35c3.57-6,7.47-12,11.6-17.61a1.71,1.71,0,1,1,2.77,2c-4.06,5.58-7.9,11.41-11.42,17.34a1.71,1.71,0,0,1-1.47.84A1.77,1.77,0,0,1,2364.23,1277.17Zm24.36-34a1.71,1.71,0,0,1-.15-2.42c4.64-5.25,9.59-10.33,14.71-15.12a1.72,1.72,0,1,1,2.34,2.51c-5,4.71-9.91,9.72-14.48,14.88a1.69,1.69,0,0,1-1.28.58A1.71,1.71,0,0,1,2388.59,1243.19Zm30.32-28.8a1.72,1.72,0,0,1,.31-2.41c5.55-4.28,11.36-8.35,17.29-12.08a1.71,1.71,0,1,1,1.83,2.9c-5.83,3.68-11.56,7.68-17,11.9a1.76,1.76,0,0,1-1.05.36A1.7,1.7,0,0,1,2418.91,1214.39Zm35.21-22.58a1.72,1.72,0,0,1,.75-2.31c6.26-3.16,12.75-6,19.28-8.59a1.71,1.71,0,1,1,1.24,3.19c-6.42,2.51-12.81,5.36-19,8.47a1.77,1.77,0,0,1-.77.18A1.7,1.7,0,0,1,2454.12,1191.81Z" transform="translate(-317.22 -410.5)"/><path class="cls-2" d="M2774.9,1382.35h0a1.71,1.71,0,0,0,1.66-1.77c-.11-3.44-.3-6.93-.57-10.36a1.72,1.72,0,1,0-3.42.27c.26,3.38.45,6.81.56,10.2A1.71,1.71,0,0,0,2774.9,1382.35Z" transform="translate(-317.22 -410.5)"/><path class="cls-2" d="M2737.56,1266.6a1.72,1.72,0,0,0,1.42-2.68c-1.93-2.85-3.94-5.7-6-8.46a1.71,1.71,0,1,0-2.75,2c2,2.72,4,5.53,5.9,8.34A1.72,1.72,0,0,0,2737.56,1266.6Z" transform="translate(-317.22 -410.5)"/><path class="cls-2" d="M2718.65,1243.22c-4-4.57-8.33-9-12.74-13.26a1.72,1.72,0,0,1,2.37-2.48c4.48,4.29,8.84,8.82,12.94,13.47a1.72,1.72,0,0,1-1.29,2.85A1.67,1.67,0,0,1,2718.65,1243.22Zm-26.54-25.42c-4.75-3.84-9.72-7.53-14.77-11a1.72,1.72,0,0,1,1.93-2.84c5.13,3.48,10.17,7.22,15,11.12a1.72,1.72,0,1,1-2.16,2.67Zm-30.4-20.63c-5.33-3-10.84-5.8-16.39-8.33a1.71,1.71,0,1,1,1.42-3.12c5.64,2.57,11.24,5.41,16.65,8.45a1.72,1.72,0,0,1-.84,3.22A1.67,1.67,0,0,1,2661.71,1197.17Zm-33.43-15.24c-5.76-2.06-11.66-3.89-17.56-5.45a1.71,1.71,0,1,1,.88-3.31c6,1.58,12,3.44,17.83,5.52a1.72,1.72,0,0,1-.57,3.34A1.69,1.69,0,0,1,2628.28,1181.93Z" transform="translate(-317.22 -410.5)"/><path class="cls-2" d="M2593,1172.56a1.71,1.71,0,0,0,.3-3.4c-3.39-.6-6.84-1.12-10.26-1.55a1.71,1.71,0,1,0-.44,3.4c3.37.43,6.77.94,10.11,1.53A1.46,1.46,0,0,0,2593,1172.56Z" transform="translate(-317.22 -410.5)"/><path class="cls-2" d="M2532.54,1175.69l-27.23-19.79H2539l10.41-32,10.4,32h33.66l-27.23,19.79,10.4,32-27.23-19.79-27.24,19.79Zm37.54,23-7.91-24.34,20.71-15.05h-25.59l-7.91-24.34-7.91,24.34h-25.6l20.71,15.05-7.91,24.34,20.71-15Z" transform="translate(-317.22 -410.5)"/><path class="cls-2" d="M2759.74,1340.78v-3.49a20.66,20.66,0,0,0-5.14-13.3,21.71,21.71,0,0,1,17.55-35.78,21.88,21.88,0,0,1,20.65,20.55,21.65,21.65,0,0,1-5,15,22.18,22.18,0,0,0-5.37,14.2v2.86a11.37,11.37,0,1,1-22.74,0Zm-2-44.88a19.33,19.33,0,0,0-1.35,26.55,23,23,0,0,1,5.71,14.84v3.49a9,9,0,1,0,18,0v-2.86a24.8,24.8,0,0,1,5.92-15.71,19.34,19.34,0,0,0-14-31.63l-.94,0A19.2,19.2,0,0,0,2757.75,1295.9Z" transform="translate(-317.22 -410.5)"/><rect class="cls-2" x="2452.71" y="857.6" width="2.37" height="15.16"/><rect class="cls-2" x="2745.63" y="1278.37" width="2.37" height="15.16" transform="translate(-422.03 1908.35) rotate(-45)"/><rect class="cls-2" x="2412.09" y="898.71" width="15.16" height="2.37"/><rect class="cls-2" x="2787.98" y="1284.42" width="15.16" height="2.37" transform="translate(-407.49 1942.76) rotate(-45)"/><rect class="cls-2" x="2481.03" y="898.22" width="15.16" height="2.37"/><rect class="cls-2" x="2445.34" y="922.42" width="17.36" height="2.37"/><rect class="cls-2" x="2446.32" y="929.51" width="15.64" height="2.37"/><path class="cls-2" d="M2177.79,850.47h82.67v48.07h-82.67ZM2258,853h-77.71v43.12H2258Z" transform="translate(-317.22 -410.5)"/><path class="cls-2" d="M2185.39,872.89a18.86,18.86,0,1,1,18.86,18.86A18.88,18.88,0,0,1,2185.39,872.89Zm2.47,0a16.39,16.39,0,1,0,16.39-16.38A16.41,16.41,0,0,0,2187.86,872.89Z" transform="translate(-317.22 -410.5)"/><path class="cls-2" d="M2225.64,886.64a5.28,5.28,0,1,1,5.28,5.28A5.29,5.29,0,0,1,2225.64,886.64Zm2.48,0a2.81,2.81,0,1,0,2.8-2.81A2.81,2.81,0,0,0,2228.12,886.64Z" transform="translate(-317.22 -410.5)"/><path class="cls-2" d="M2243,886.64a5.29,5.29,0,1,1,5.29,5.28A5.29,5.29,0,0,1,2243,886.64Zm2.48,0a2.81,2.81,0,1,0,2.81-2.81A2.81,2.81,0,0,0,2245.47,886.64Z" transform="translate(-317.22 -410.5)"/><path class="cls-2" d="M2185.55,843.68h24v9.11h-24Zm21.5,2.48h-19v4.15h19Z" transform="translate(-317.22 -410.5)"/><rect class="cls-2" x="1879.16" y="421.49" width="2.48" height="12.45"/><path class="cls-2" d="M2191.31,827.09a6,6,0,1,1,6,6A6,6,0,0,1,2191.31,827.09Zm2.48,0a3.51,3.51,0,1,0,3.51-3.51A3.51,3.51,0,0,0,2193.79,827.09Z" transform="translate(-317.22 -410.5)"/><path class="cls-2" d="M744.34,827.29h-.1a168.11,168.11,0,0,1-16.78-1.67A1.83,1.83,0,0,1,728,822c5.41.81,10.93,1.37,16.41,1.64a1.83,1.83,0,0,1-.08,3.66Zm16.68,0a1.83,1.83,0,0,1-.09-3.66c5.48-.28,11-.84,16.41-1.66a1.83,1.83,0,0,1,.55,3.62,167.85,167.85,0,0,1-16.78,1.69Zm-49.63-5a1.88,1.88,0,0,1-.46-.06,165.77,165.77,0,0,1-16.1-5,1.83,1.83,0,0,1,1.27-3.43,160.42,160.42,0,0,0,15.75,4.92,1.84,1.84,0,0,1-.46,3.61Zm82.56,0a1.83,1.83,0,0,1-.45-3.6,164,164,0,0,0,15.74-4.94,1.83,1.83,0,0,1,1.27,3.43,164.11,164.11,0,0,1-16.1,5.05A1.76,1.76,0,0,1,794,822.25ZM680.13,810.74a1.81,1.81,0,0,1-.81-.19,167.37,167.37,0,0,1-14.75-8.19,1.83,1.83,0,1,1,1.94-3.1c4.66,2.9,9.51,5.59,14.43,8a1.83,1.83,0,0,1-.81,3.47Zm145.07-.08a1.83,1.83,0,0,1-.81-3.47c4.91-2.42,9.76-5.12,14.41-8a1.83,1.83,0,1,1,1.94,3.1,166.84,166.84,0,0,1-14.73,8.2A1.81,1.81,0,0,1,825.2,810.66ZM651.85,793.11a1.82,1.82,0,0,1-1.12-.39,167.22,167.22,0,0,1-12.8-11,1.83,1.83,0,0,1,2.52-2.66A164.2,164.2,0,0,0,653,789.83a1.83,1.83,0,0,1,.33,2.57A1.86,1.86,0,0,1,651.85,793.11ZM853.46,793a1.83,1.83,0,0,1-1.13-3.27A164.33,164.33,0,0,0,864.85,779a1.83,1.83,0,0,1,2.52,2.65c-4.06,3.86-8.36,7.56-12.79,11A1.83,1.83,0,0,1,853.46,793ZM627.68,770.16a1.81,1.81,0,0,1-1.39-.64A165.85,165.85,0,0,1,616,756.2a1.83,1.83,0,0,1,3-2.1,161.14,161.14,0,0,0,10.12,13,1.83,1.83,0,0,1-.2,2.58A1.79,1.79,0,0,1,627.68,770.16ZM877.6,770a1.79,1.79,0,0,1-1.19-.44,1.83,1.83,0,0,1-.2-2.58,162.79,162.79,0,0,0,10.11-13,1.83,1.83,0,1,1,3,2.09A168.2,168.2,0,0,1,879,769.39,1.79,1.79,0,0,1,877.6,770Zm-269-27.19a1.83,1.83,0,0,1-1.6-.94,165.7,165.7,0,0,1-7.45-15.13,1.83,1.83,0,0,1,3.36-1.45,161.1,161.1,0,0,0,7.29,14.8,1.84,1.84,0,0,1-.71,2.49A1.79,1.79,0,0,1,608.6,742.84Zm288.06-.15a1.79,1.79,0,0,1-.89-.23,1.83,1.83,0,0,1-.71-2.49,163.7,163.7,0,0,0,7.27-14.81,1.83,1.83,0,0,1,3.37,1.44,167.29,167.29,0,0,1-7.44,15.15A1.84,1.84,0,0,1,896.66,742.69ZM595.42,712.24a1.84,1.84,0,0,1-1.75-1.28,167.24,167.24,0,0,1-4.23-16.33,1.83,1.83,0,1,1,3.58-.74c1.11,5.37,2.5,10.74,4.14,16a1.84,1.84,0,0,1-1.74,2.38Zm314.39-.17a1.76,1.76,0,0,1-.55-.09,1.83,1.83,0,0,1-1.2-2.29,159.36,159.36,0,0,0,4.12-16,1.83,1.83,0,0,1,3.59.74,163.68,163.68,0,0,1-4.22,16.33A1.81,1.81,0,0,1,909.81,712.07ZM588.7,679.6a1.82,1.82,0,0,1-1.81-1.64,165.9,165.9,0,0,1-.86-16.85,1.82,1.82,0,0,1,1.82-1.83h0a1.83,1.83,0,0,1,1.83,1.83,164.43,164.43,0,0,0,.84,16.48,1.83,1.83,0,0,1-1.64,2Zm327.78-.18h-.18a1.83,1.83,0,0,1-1.64-2,164.42,164.42,0,0,0,.82-16.48v-.37a1.83,1.83,0,0,1,1.83-1.83h0a1.83,1.83,0,0,1,1.83,1.83v.37c0,5.62-.28,11.28-.84,16.84A1.82,1.82,0,0,1,916.48,679.42Zm0-33.69a1.84,1.84,0,0,1-1.82-1.64,161.91,161.91,0,0,0-2.51-16.3,1.83,1.83,0,1,1,3.59-.74c1.13,5.47,2,11.08,2.57,16.67a1.83,1.83,0,0,1-1.64,2ZM909.7,613.1a1.84,1.84,0,0,1-1.75-1.28,163.8,163.8,0,0,0-5.76-15.45,1.83,1.83,0,1,1,3.36-1.45,164.7,164.7,0,0,1,5.89,15.8,1.83,1.83,0,0,1-1.19,2.3A1.75,1.75,0,0,1,909.7,613.1Zm-13.22-30.58a1.84,1.84,0,0,1-1.6-.94c-2.67-4.78-5.62-9.48-8.76-14a1.83,1.83,0,1,1,3-2.1c3.21,4.6,6.23,9.41,9,14.29a1.84,1.84,0,0,1-1.6,2.73Zm-19.11-27.3a1.86,1.86,0,0,1-1.39-.64,162.35,162.35,0,0,0-11.39-11.93,1.83,1.83,0,1,1,2.52-2.66c4.07,3.86,8,8,11.65,12.2a1.84,1.84,0,0,1-1.39,3Zm-24.2-22.92a1.84,1.84,0,0,1-1.11-.38,164.68,164.68,0,0,0-13.56-9.42,1.83,1.83,0,1,1,1.94-3.1A166.82,166.82,0,0,1,854.29,529a1.83,1.83,0,0,1-1.12,3.28ZM679.81,514.94a1.83,1.83,0,0,1-.81-3.47,165.5,165.5,0,0,1,15.49-6.69,1.83,1.83,0,1,1,1.27,3.43,161.82,161.82,0,0,0-15.14,6.54A1.81,1.81,0,0,1,679.81,514.94Zm145.06-.24a1.77,1.77,0,0,1-.8-.19A161.88,161.88,0,0,0,808.9,508a1.83,1.83,0,1,1,1.26-3.44,168.26,168.26,0,0,1,15.52,6.63,1.83,1.83,0,0,1-.81,3.48ZM711,503.31a1.83,1.83,0,0,1-.46-3.6,165.1,165.1,0,0,1,16.52-3.4,1.83,1.83,0,0,1,.55,3.62,161.12,161.12,0,0,0-16.15,3.33A1.85,1.85,0,0,1,711,503.31Zm82.56-.13a1.74,1.74,0,0,1-.45-.06A164.17,164.17,0,0,0,777,499.84a1.83,1.83,0,0,1,.54-3.62c5.55.84,11.11,2,16.54,3.35a1.83,1.83,0,0,1-.46,3.61ZM744,498.25a1.83,1.83,0,0,1-.09-3.66c5.59-.28,11.28-.29,16.86,0a1.82,1.82,0,0,1,1.74,1.91,1.84,1.84,0,0,1-1.92,1.74c-5.45-.26-11-.25-16.5,0Z" transform="translate(-317.22 -410.5)"/><path class="cls-2" d="M689.8,655.31l-32-35.22c-14,6.24-31.39,9.67-49.11,9.67-44.74,0-81.13-21.39-81.13-47.68s36.39-47.69,81.13-47.69,81.13,21.39,81.13,47.69ZM659,614.57l26.21,28.84V582.08c0-23.82-34.31-43.2-76.49-43.2s-76.5,19.38-76.5,43.2,34.32,43.19,76.5,43.19c17.71,0,35-3.53,48.69-9.95Z" transform="translate(-317.22 -410.5)"/><path class="cls-5" d="M502,1343.27c3.24,32.27-20.17,61.06-20.17,61.06s-28.69-23.54-31.94-55.81,20.17-61,20.17-61S498.78,1311,502,1343.27Z" transform="translate(-317.22 -410.5)"/><path class="cls-5" d="M431.75,1455.14c-30.4,11.29-64.17-4.1-64.17-4.1s15.54-33.7,45.94-45,64.17,4.1,64.17,4.1S462.15,1443.85,431.75,1455.14Z" transform="translate(-317.22 -410.5)"/><path class="cls-5" d="M501.49,1500.83c-30.5,11-64.13-4.62-64.13-4.62s15.8-33.57,46.3-44.61,64.13,4.62,64.13,4.62S532,1489.79,501.49,1500.83Z" transform="translate(-317.22 -410.5)"/><path class="cls-5" d="M563.48,1552.38c-32.35,2.32-60.45-21.93-60.45-21.93s24.36-28,56.71-30.3,60.45,21.93,60.45,21.93S595.83,1550.07,563.48,1552.38Z" transform="translate(-317.22 -410.5)"/><path class="cls-5" d="M620.63,1621c-32.36,2.31-60.45-21.93-60.45-21.93s24.36-28,56.71-30.3,60.45,21.93,60.45,21.93S653,1618.73,620.63,1621Z" transform="translate(-317.22 -410.5)"/><path class="cls-5" d="M586.65,1396.92c-4.78,32.08-34.55,54.23-34.55,54.23s-22-29.87-17.24-62S569.41,1335,569.41,1335,591.43,1364.84,586.65,1396.92Z" transform="translate(-317.22 -410.5)"/><path class="cls-5" d="M660.06,1464.64c-4.79,32.08-34.56,54.23-34.56,54.23s-22-29.87-17.24-61.95,34.56-54.22,34.56-54.22S664.84,1432.56,660.06,1464.64Z" transform="translate(-317.22 -410.5)"/><path class="cls-5" d="M727.23,1541.8c-11.2,30.44-44.85,46.07-44.85,46.07s-15.49-33.71-4.29-64.15,44.85-46.07,44.85-46.07S738.43,1511.37,727.23,1541.8Z" transform="translate(-317.22 -410.5)"/><path class="cls-5" d="M776,1613.17c-11.2,30.44-44.85,46.07-44.85,46.07s-15.49-33.71-4.29-64.15S771.69,1549,771.69,1549,787.18,1582.74,776,1613.17Z" transform="translate(-317.22 -410.5)"/><path class="cls-5" d="M792.75,1785.07c-.8-1.56-2.08-4.28-3.84-8-92.88-197-222.51-337.23-365-395l1.87-4.64c143.68,58.22,274.25,199.38,367.66,397.47,1.73,3.67,3,6.33,3.77,7.87Z" transform="translate(-317.22 -410.5)"/><path class="cls-5" d="M381,1340.05c31,9.4,48.62,42.07,48.62,42.07s-32.74,17.45-63.79,8.05-48.62-42.07-48.62-42.07S350,1330.66,381,1340.05Z" transform="translate(-317.22 -410.5)"/><path class="cls-5" d="M2317.72,1079.91c5.82,31.91,36.3,53.07,36.3,53.07s21-30.57,15.21-62.47-36.3-53.07-36.3-53.07S2311.89,1048,2317.72,1079.91Z" transform="translate(-317.22 -410.5)"/><path class="cls-5" d="M2416.25,1167.91c32.35,2.42,60.52-21.73,60.52-21.73s-24.27-28.07-56.61-30.49-60.52,21.73-60.52,21.73S2383.91,1165.49,2416.25,1167.91Z" transform="translate(-317.22 -410.5)"/><path class="cls-5" d="M2361.92,1231.15c32.36,2.15,60.33-22.23,60.33-22.23s-24.5-27.87-56.86-30-60.33,22.22-60.33,22.22S2329.55,1229,2361.92,1231.15Z" transform="translate(-317.22 -410.5)"/><path class="cls-5" d="M2316.65,1297.86c31.72-6.75,52-37.82,52-37.82s-31.16-20.14-62.89-13.4-52,37.83-52,37.83S2284.92,1304.61,2316.65,1297.86Z" transform="translate(-317.22 -410.5)"/><path class="cls-5" d="M2280.77,1379.67c31.73-6.75,52-37.82,52-37.82s-31.17-20.14-62.89-13.4-52,37.83-52,37.83S2249.05,1386.42,2280.77,1379.67Z" transform="translate(-317.22 -410.5)"/><path class="cls-5" d="M2251.28,1154.92c13.49,29.49,48.23,42.52,48.23,42.52s12.88-34.8-.61-64.3-48.23-42.52-48.23-42.52S2237.79,1125.42,2251.28,1154.92Z" transform="translate(-317.22 -410.5)"/><path class="cls-5" d="M2199.53,1240.33c13.49,29.5,48.23,42.52,48.23,42.52s12.88-34.8-.61-64.29-48.23-42.52-48.23-42.52S2186,1210.84,2199.53,1240.33Z" transform="translate(-317.22 -410.5)"/><path class="cls-5" d="M2156.38,1333.09c19.2,26.14,55.87,31.83,55.87,31.83s5.53-36.69-13.67-62.83-55.87-31.83-55.87-31.83S2137.18,1307,2156.38,1333.09Z" transform="translate(-317.22 -410.5)"/><path class="cls-5" d="M2129.33,1415.18c19.2,26.14,55.87,31.83,55.87,31.83s5.54-36.69-13.67-62.83-55.86-31.83-55.86-31.83S2110.13,1389,2129.33,1415.18Z" transform="translate(-317.22 -410.5)"/><path class="cls-5" d="M2160.87,1585c.34-1.73.81-4.69,1.47-8.76,34.64-215,120.3-385.7,241.21-480.69l-3.1-3.93c-121.89,95.77-208.21,267.59-243,483.82-.64,4-1.11,6.91-1.44,8.6Z" transform="translate(-317.22 -410.5)"/><path class="cls-5" d="M2433.1,1043.27c-27.22,17.63-35.06,53.9-35.06,53.9s36.3,7.68,63.53-10,35-53.9,35-53.9S2460.32,1025.64,2433.1,1043.27Z" transform="translate(-317.22 -410.5)"/><path class="cls-5" d="M2467.56,1270.37c-6.8,22.74,6.05,46.67,6.05,46.67s23.87-13,30.67-35.69-6-46.68-6-46.68S2474.36,1247.62,2467.56,1270.37Z" transform="translate(-317.22 -410.5)"/><path class="cls-5" d="M2502.59,1360.49c20.29,12.32,46.68,5.93,46.68,5.93s-6.5-26.36-26.79-38.69-46.68-5.93-46.68-5.93S2482.3,1348.17,2502.59,1360.49Z" transform="translate(-317.22 -410.5)"/><path class="cls-5" d="M2446.14,1383.68c20.39,12.16,46.74,5.55,46.74,5.55s-6.72-26.31-27.11-38.47-46.73-5.55-46.73-5.55S2425.75,1371.52,2446.14,1383.68Z" transform="translate(-317.22 -410.5)"/><path class="cls-5" d="M2394.46,1412.15c22.93,6.14,46.47-7.39,46.47-7.39s-13.63-23.49-36.56-29.63-46.48,7.39-46.48,7.39S2371.53,1406,2394.46,1412.15Z" transform="translate(-317.22 -410.5)"/><path class="cls-5" d="M2343.88,1453.59c22.93,6.14,46.48-7.4,46.48-7.4s-13.64-23.49-36.57-29.62-46.47,7.39-46.47,7.39S2321,1447.45,2343.88,1453.59Z" transform="translate(-317.22 -410.5)"/><path class="cls-5" d="M2399.31,1297.21c-1,23.72,17.33,43.75,17.33,43.75s20-18.41,21-42.13-17.33-43.75-17.33-43.75S2400.32,1273.49,2399.31,1297.21Z" transform="translate(-317.22 -410.5)"/><path class="cls-5" d="M2337.19,1335.72c-1,23.72,17.33,43.76,17.33,43.76s20-18.42,21-42.14-17.33-43.75-17.33-43.75S2338.19,1312,2337.19,1335.72Z" transform="translate(-317.22 -410.5)"/><path class="cls-5" d="M2278.23,1381.89c3.84,23.42,25.86,39.31,25.86,39.31s15.8-22.09,12-45.51-25.86-39.32-25.86-39.32S2274.39,1358.46,2278.23,1381.89Z" transform="translate(-317.22 -410.5)"/><path class="cls-5" d="M2233.32,1426.43c3.84,23.43,25.86,39.32,25.86,39.32s15.8-22.09,12-45.51-25.86-39.32-25.86-39.32S2229.48,1403,2233.32,1426.43Z" transform="translate(-317.22 -410.5)"/><path class="cls-5" d="M2197.47,1547.66c.8-1,2.09-2.79,3.87-5.23,94-128.7,206.59-211.57,317-233.36l-.71-3.59c-111.31,22-224.69,105.35-319.24,234.79-1.75,2.4-3,4.14-3.8,5.13Z" transform="translate(-317.22 -410.5)"/><path class="cls-5" d="M2555,1284.8c-23.61,2.45-40.77,23.51-40.77,23.51s21.13,17.06,44.74,14.61,40.77-23.51,40.77-23.51S2578.59,1282.34,2555,1284.8Z" transform="translate(-317.22 -410.5)"/><path class="cls-4" d="M746.85,1202.91c-1,32.42-28,57.89-28,57.89s-25.35-27.09-24.35-59.51,28-57.89,28-57.89S747.86,1170.5,746.85,1202.91Z" transform="translate(-317.22 -410.5)"/><path class="cls-4" d="M662.53,1304.61c-31.62,7.22-63.08-12.46-63.08-12.46s19.82-31.38,51.44-38.59S714,1266,714,1266,694.15,1297.4,662.53,1304.61Z" transform="translate(-317.22 -410.5)"/><path class="cls-4" d="M725.69,1359.05c-31.68,7-63-13-63-13s20.07-31.21,51.75-38.16,63,13,63,13S757.37,1352.09,725.69,1359.05Z" transform="translate(-317.22 -410.5)"/><path class="cls-4" d="M780.39,1418.27c-32.38-2-57-29.66-57-29.66s27.81-24.56,60.19-22.61,57.05,29.65,57.05,29.65S812.77,1420.21,780.39,1418.27Z" transform="translate(-317.22 -410.5)"/><path class="cls-4" d="M823.73,1267.18c-9,31.18-41.36,49.23-41.36,49.23s-17.92-32.49-9-63.66,41.36-49.24,41.36-49.24S832.67,1236,823.73,1267.18Z" transform="translate(-317.22 -410.5)"/><path class="cls-4" d="M887.63,1343.93c-8.94,31.18-41.36,49.23-41.36,49.23s-17.92-32.49-9-63.66,41.36-49.24,41.36-49.24S896.57,1312.75,887.63,1343.93Z" transform="translate(-317.22 -410.5)"/><path class="cls-4" d="M977.22,1679c-.59-1.66-1.51-4.52-2.76-8.45C908.17,1463.11,798,1307.07,664.31,1231.16l2.47-4.35c134.81,76.53,245.77,233.58,312.44,442.2,1.24,3.85,2.13,6.66,2.71,8.29Z" transform="translate(-317.22 -410.5)"/><path class="cls-4" d="M627.3,1183.87C656.85,1197.25,670,1232,670,1232s-34.76,13-64.3-.38S563,1183.5,563,1183.5,597.75,1170.49,627.3,1183.87Z" transform="translate(-317.22 -410.5)"/><path class="cls-6" d="M1475.09,686.74s-68.68,52.13-74.26,52.13-27.93-26.07-27.93-26.07l-52.13,1.86-9.31,63.3-35.37-70.74-91.23,5.58-37.24-14.89-35.37,24.2-39.1-20.48-63.3,55.86-63.3-41-65.16,27.93-29.79-39.1L792,722.11l-35.37-35.37c-2.9,257.43,96.44,681.12,56.27,853.94H668.52c-49.65,9.93-43.44,65.16-29.16,137.15s7.44,131-42.21,136.53H1315.6c49.64-5.58,56.47-64.54,42.2-136.53-4.34-21.89-7.92-42.21-9.43-60.2h108.1C1637.07,1625.08,1471.37,1018.13,1475.09,686.74Z" transform="translate(-317.22 -410.5)"/><path class="cls-7" d="M1529.8,1503.19H712.94c-56.45,11.29-49.39,74.09-33.16,155.94s8.46,148.88-48,155.23h816.85c56.45-6.35,64.21-73.38,48-155.23S1473.35,1514.48,1529.8,1503.19Z" transform="translate(-317.22 -410.5)"/><path class="cls-8" d="M792,1590.68c-24-8.46-8.47-86.08-79-87.49h290.71c24,0-42.34,63.5-42.34,63.5L834,1588.57Z" transform="translate(-317.22 -410.5)"/><path class="cls-9" d="M1630,532.28s-78.09,59.27-84.44,59.27-31.75-29.64-31.75-29.64L1454.53,564,1444,636l-40.22-80.44L1300,561.91,1257.67,545l-40.22,27.52L1173,549.21l-72,63.51-72-46.57L955,597.9l-33.87-44.45-67.73,19-40.22-40.22C808.9,909.07,997.3,1599.15,792,1590.68h816.85C1814.15,1599.15,1625.76,909.07,1630,532.28Z" transform="translate(-317.22 -410.5)"/><rect class="cls-8" x="570.01" y="367.33" width="457.23" height="35.99"/><rect class="cls-8" x="595.41" y="532.44" width="647.74" height="35.99"/><rect class="cls-8" x="605.29" y="704.61" width="647.74" height="35.99"/><rect class="cls-8" x="616.58" y="897.94" width="301.29" height="35.99"/><path class="cls-10" d="M2120.92,992.49l-.06-.4h-1075l-.06.4a2428.39,2428.39,0,0,0,.06,775.48h1075A2428.39,2428.39,0,0,0,2120.92,992.49Z" transform="translate(-317.22 -410.5)"/><path class="cls-11" d="M1086.85,1678.46a2369.28,2369.28,0,0,1,0-596.86,41.41,41.41,0,0,1,41.09-36.17h754A41.41,41.41,0,0,1,1923,1081.6a2369.28,2369.28,0,0,1,0,596.86,41.41,41.41,0,0,1-41.09,36.17h-754A41.41,41.41,0,0,1,1086.85,1678.46Z" transform="translate(-317.22 -410.5)"/><path class="cls-12" d="M1127.94,1705.22a32,32,0,0,1-31.75-27.94,2363.7,2363.7,0,0,1,0-594.5,32,32,0,0,1,31.75-27.94h754a32,32,0,0,1,31.75,28,2363.62,2363.62,0,0,1,0,594.49,32,32,0,0,1-31.75,27.94Z" transform="translate(-317.22 -410.5)"/><path class="cls-13" d="M1127.94,1695.81a22.63,22.63,0,0,1-22.42-19.72,2355.16,2355.16,0,0,1,0-592.12,22.63,22.63,0,0,1,22.42-19.72h754a22.63,22.63,0,0,1,22.42,19.72,2355.16,2355.16,0,0,1,0,592.12,22.63,22.63,0,0,1-22.42,19.72Z" transform="translate(-317.22 -410.5)"/><path class="cls-14" d="M1127.94,1686.4a13.19,13.19,0,0,1-13.08-11.49,2344.9,2344.9,0,0,1,0-589.76,13.18,13.18,0,0,1,13.08-11.48h754a13.18,13.18,0,0,1,13.08,11.48,2345.84,2345.84,0,0,1,0,589.76,13.19,13.19,0,0,1-13.08,11.49Z" transform="translate(-317.22 -410.5)"/><rect class="cls-15" x="1653.65" y="709.37" width="143.23" height="135.86"/><circle class="cls-16" cx="1725.27" cy="777.3" r="49.11"/><rect class="cls-17" x="1986.22" y="1180.44" width="112.53" height="14.73" transform="translate(-610.28 419.78) rotate(-21.48)"/><rect class="cls-15" x="1653.65" y="869.38" width="143.23" height="135.86"/><circle class="cls-16" cx="1725.27" cy="937.3" r="49.11"/><rect class="cls-17" x="1986.22" y="1340.44" width="112.53" height="14.73" transform="translate(477.68 -1167.89) rotate(25.93)"/><path class="cls-18" d="M1045.89,1768h1075a2428.39,2428.39,0,0,0,.06-775.48l-.06-.4H1792.1c-281.79,315.87-637.4,511.78-765,633.2Q1034.39,1696.81,1045.89,1768Z" transform="translate(-317.22 -410.5)"/><polygon class="cls-19" points="782.3 1405.04 747.58 1405.04 764.08 1357.7 815.29 1357.7 782.3 1405.04"/><polygon class="cls-19" points="1753.88 1405.04 1788.6 1405.04 1772.1 1357.7 1720.89 1357.7 1753.88 1405.04"/><path class="cls-20" d="M1723.87,771.21l-36.21,96.24C1703.86,949.39,1783,985.6,1783,985.6L1877.28,958Z" transform="translate(-317.22 -410.5)"/><ellipse class="cls-21" cx="1908.72" cy="784.55" rx="171.52" ry="226.78" transform="translate(-392.87 940.61) rotate(-38.28)"/><ellipse class="cls-22" cx="1908.72" cy="784.55" rx="131.67" ry="174.09" transform="translate(-392.87 940.61) rotate(-38.28)"/><ellipse class="cls-20" cx="1890.62" cy="796.94" rx="88.03" ry="116.39" transform="translate(-404.44 932.05) rotate(-38.28)"/><path class="cls-23" d="M1829.64,860.78l266.09,31.87c19.26-63.58,1.61-146-52.37-214.35-44.78-56.75-104.75-91.39-161.75-99.31Z" transform="translate(-317.22 -410.5)"/><path class="cls-10" d="M2144.07,714.51a11,11,0,0,1-10.89-9.86c-.11-1.09-12.12-108.82-121.18-134.31a11,11,0,1,1,5-21.34c99.34,23.21,133.7,110.53,138,153.46a11,11,0,0,1-9.82,12A10.24,10.24,0,0,1,2144.07,714.51Z" transform="translate(-317.22 -410.5)"/><path class="cls-10" d="M2252.7,680.21a11,11,0,0,1-10.9-10c-5.38-59.42-48.44-180.28-172.87-212.4a11,11,0,1,1,5.47-21.22c64.15,16.56,114.33,54.67,149.13,113.27,33,55.56,39.19,108.35,40.09,118.37a11,11,0,0,1-9.92,11.91C2253.36,680.2,2253,680.21,2252.7,680.21Z" transform="translate(-317.22 -410.5)"/><path class="cls-24" d="M1128.05,1752.9c3.43,10.7,3.84,22.22-1.78,37.59s-7.82,21-7.14,26.06h90.26c-3.7-12.07-43.48-26.47-48-32.1s-3.43-34.67-3.43-34.67Z" transform="translate(-317.22 -410.5)"/><path class="cls-25" d="M1161.38,1784.45a6.51,6.51,0,0,1-.44-.64c-4.71,5.56-5.87,11.77-7,13.26-10.35,5.67-23,.6-29.16-2.62-4.55,12.42-6.31,17.49-5.69,22.1h90.26C1205.69,1804.48,1165.91,1790.08,1161.38,1784.45Z" transform="translate(-317.22 -410.5)"/><path class="cls-26" d="M1199.93,1811.69h-76.68a.49.49,0,0,1,0-1h76.68a.49.49,0,0,1,0,1Z" transform="translate(-317.22 -410.5)"/><path class="cls-26" d="M1164,1796.88l-.12,0a.49.49,0,0,1-.36-.59c.09-.36,2.24-8.61,7.9-8.47a.5.5,0,0,1,.48.51.49.49,0,0,1-.51.47c-4.88-.13-6.9,7.65-6.92,7.72A.48.48,0,0,1,1164,1796.88Z" transform="translate(-317.22 -410.5)"/><path class="cls-26" d="M1176.06,1804.15l-.12,0a.49.49,0,0,1-.36-.59c.09-.36,2.19-8.61,7.9-8.47a.5.5,0,0,1,.48.5.49.49,0,0,1-.51.48c-4.87-.12-6.9,7.65-6.92,7.72A.48.48,0,0,1,1176.06,1804.15Z" transform="translate(-317.22 -410.5)"/><path class="cls-24" d="M1071.26,1752.9c3.43,10.7,3.84,22.22-1.78,37.59s-7.82,21-7.13,26.06h90.25c-3.7-12.07-43.48-26.47-48-32.1s-3.43-29.76-3.43-29.76Z" transform="translate(-317.22 -410.5)"/><path class="cls-27" d="M1104.6,1784.45a5.19,5.19,0,0,1-.45-.64c-4.71,5.56-5.87,11.77-7,13.26-10.34,5.67-23,.6-29.16-2.62-4.55,12.42-6.31,17.49-5.68,22.1h90.25C1148.9,1804.48,1109.12,1790.08,1104.6,1784.45Z" transform="translate(-317.22 -410.5)"/><path class="cls-28" d="M1050.46,1293.81c.55,11.52-3.84,36.76-9.69,58.34s-9.7,55.23-3.66,101.87,20.3,79.56,15.36,98.76-5.48,62-.55,106.44,13.72,93.27,13.72,95.47c11,13.71,44.44,1.09,44.44,1.09s-.55-90,3.84-105.34c4.39,74.62,7.14,103.15,7.14,103.15,21.39,15.36,44.44-6,44.44-6s8.78-183.8,15.91-212.88,7.68-153.07-8.23-211.78l-15.91-58.71Z" transform="translate(-317.22 -410.5)"/><path class="cls-21" d="M1084.84,1131.68c-40,2.65-55.78,16.19-60.9,48.37s26.34,113.76,26.34,118.52c7.68,6.21,19,5.48,19,5.48s18.29,24.14,36.58,24.51,82.3-38.77,82.3-38.77,20.48,26.7,30.35,30,64.38,7,64.38,7l25.42-25.79s-58.7-28.71-64.19-36.39-49.38-96.57-64-110.83-43.71-19.57-43.71-19.57l-36,6.4Z" transform="translate(-317.22 -410.5)"/><path class="cls-29" d="M1096.64,1058.43c-26.88-4.11-31.27-39-9.05-49.38s32.37,11.8,32.37,11.8a11.54,11.54,0,0,1,9,.41l10.84,2.75c13.3,2.88,19.06,10.28,19.06,10.28,7.41.55,18.38,10.15,12.07,21.67s-8.5,12.9-5.48,22.23-12.89,23-18.79,23-37.73-15.34-39.92-17.54S1096.64,1058.43,1096.64,1058.43Z" transform="translate(-317.22 -410.5)"/><path class="cls-24" d="M1126.27,1044.17c-2.75,20.85-17,26.88-17,26.88l-7.13,12.07s-1.38,40.06-4.67,45-12.62,3.57-12.62,3.57c1.92,12.62,25.52,41.7,41.7,33.74s9.88-31.27,9.88-31.27c-7.41.27-9.06.55-9.33-3.57a82.39,82.39,0,0,1,.27-10.15c3,.55,8.51,4.39,17.29-8s13.17-29.9,15.36-38.13-1.1-23-3-26.07C1145.47,1055.69,1126.27,1044.17,1126.27,1044.17Z" transform="translate(-317.22 -410.5)"/><path class="cls-27" d="M1112.49,1071.42c0,9.39-4.51,16-9.88,17-13.1,2.38-16.39-9.08-16.39-18.47s3.56-17.15,16.39-15.55C1108,1055.09,1112.49,1062,1112.49,1071.42Z" transform="translate(-317.22 -410.5)"/><path class="cls-30" d="M1126.36,1097c9.42-2.28,13.62.37,13.62,1.83,2.84-1.37,4.67,2,4.58,2.75-.64,2.1-1.1,9.41-9.33,7.68S1126.36,1097,1126.36,1097Z" transform="translate(-317.22 -410.5)"/><path class="cls-31" d="M1127.18,1097.75a11.47,11.47,0,0,0,11.07,7.78,5.92,5.92,0,0,0,5.41-3.54C1142.54,1101.78,1127.18,1097.75,1127.18,1097.75Z" transform="translate(-317.22 -410.5)"/><path class="cls-29" d="M1143.66,1102c-4.44,0-10.41-1.55-18.13-4.7a.49.49,0,1,1,.37-.9c9.06,3.69,15.87,5.19,20.24,4.42a.5.5,0,0,1,.57.4.48.48,0,0,1-.4.57A15.65,15.65,0,0,1,1143.66,1102Z" transform="translate(-317.22 -410.5)"/><path class="cls-29" d="M1144.91,1094.32a24,24,0,0,1-6.9-1.14.49.49,0,0,1,.38-.91,22.39,22.39,0,0,0,7.37,1c-.08-.29-.22-.79-.36-1.27a33,33,0,0,1-1.65-8.49c0-3.91,2.47-7.11,5.89-11.53l.65-.84a.49.49,0,0,1,.69-.09.47.47,0,0,1,.09.68l-.65.85c-3.31,4.27-5.69,7.35-5.69,10.93a31.87,31.87,0,0,0,1.61,8.21,9.1,9.1,0,0,1,.44,1.8.63.63,0,0,1-.29.53A3.44,3.44,0,0,1,1144.91,1094.32Z" transform="translate(-317.22 -410.5)"/><path class="cls-32" d="M1135.63,1113.77a10.68,10.68,0,0,1-2.32-.27,7.09,7.09,0,0,1-4.72-3.11.49.49,0,0,1,.17-.67.48.48,0,0,1,.67.18,6.42,6.42,0,0,0,4.1,2.65,6.33,6.33,0,0,0,3.85-.07.49.49,0,1,1,.54.82A4.48,4.48,0,0,1,1135.63,1113.77Z" transform="translate(-317.22 -410.5)"/><path class="cls-32" d="M1125.72,1120l-.18,0c-15-6-19.65-24.64-19.65-29.4a.49.49,0,1,1,1,0c0,4.61,4.56,22.72,19,28.49a.49.49,0,0,1-.18.94Z" transform="translate(-317.22 -410.5)"/><path class="cls-33" d="M1077,1178.72a.5.5,0,0,1-.47-.35c-.07-.22-7.63-22.73-40.88-24.16a.48.48,0,0,1-.47-.51.49.49,0,0,1,.51-.47c34,1.46,41.7,24.61,41.78,24.85a.49.49,0,0,1-.32.61Z" transform="translate(-317.22 -410.5)"/><path class="cls-33" d="M1112.56,1268.33h-.13c-2.59-.51-23.5-37.71-30.43-58.86a.49.49,0,0,1,.93-.31c7.35,22.42,27.6,56.74,29.65,58.19h0c2.42,0,12.06-4.74,23.2-10.22,19.15-9.43,45.38-22.34,60.38-24.16a.49.49,0,0,1,.55.43.49.49,0,0,1-.43.54c-14.83,1.8-41,14.67-60.07,24.07C1124.06,1264,1115.23,1268.33,1112.56,1268.33Z" transform="translate(-317.22 -410.5)"/><path class="cls-33" d="M1184.52,1234a.54.54,0,0,1-.21,0,.5.5,0,0,1-.24-.65,27.4,27.4,0,0,0,1.79-10.4c0-1.93-2-5.54-4.53-10.11-5.69-10.29-15.23-27.51-15.23-49.51a.49.49,0,0,1,.49-.49.48.48,0,0,1,.49.49c0,21.75,9.46,38.83,15.11,49,2.7,4.87,4.65,8.39,4.65,10.58a27.91,27.91,0,0,1-1.88,10.81A.49.49,0,0,1,1184.52,1234Z" transform="translate(-317.22 -410.5)"/><path class="cls-33" d="M1188.18,1286.62a.49.49,0,0,1-.39-.19.48.48,0,0,1,.09-.69c14.06-10.82,29.4-28.29,29.55-28.46a.49.49,0,1,1,.74.64c-.15.18-15.56,17.72-29.7,28.6A.46.46,0,0,1,1188.18,1286.62Z" transform="translate(-317.22 -410.5)"/><path class="cls-33" d="M1239.06,1286.88a.74.74,0,0,1-.25-.05c-.86-.36-.56-2.08,1.14-9.3.67-2.84,1.42-6.06,1.88-8.68.08-.45.13-.8.16-1.08-.4.63-.93,1.57-1.46,2.48-2.25,3.92-6,10.49-10.69,14.78a.49.49,0,0,1-.66-.73c4.56-4.18,8.28-10.66,10.5-14.54,1.8-3.14,2.23-3.89,2.91-3.65s.57.79.2,2.91c-.46,2.64-1.22,5.88-1.89,8.73s-1.49,6.39-1.59,7.78a10.92,10.92,0,0,0,.75-1.12,26,26,0,0,0,4-12.18.49.49,0,0,1,.49-.49h0a.49.49,0,0,1,.5.49,26.52,26.52,0,0,1-4.1,12.69C1240.05,1286.32,1239.54,1286.88,1239.06,1286.88Z" transform="translate(-317.22 -410.5)"/><path class="cls-33" d="M1107.7,1286.62a.39.39,0,0,1-.18,0,.49.49,0,0,1-.27-.64c1.17-2.83,2-7.22,2.6-10.75.89-4.85,1.24-6.54,2.13-6.69.24,0,.6,0,.91.56,1.5,2.64,1.87,15.77,1.89,16.32a.49.49,0,1,1-1,0c-.1-3.66-.6-13.5-1.71-15.75a39.06,39.06,0,0,0-1.27,5.71c-.65,3.57-1.46,8-2.66,11A.49.49,0,0,1,1107.7,1286.62Z" transform="translate(-317.22 -410.5)"/><path class="cls-33" d="M1067.84,1300.15a.48.48,0,0,1-.38-.17c-.14-.16-14.42-16.74-24.21-37a.49.49,0,0,1,.89-.42,189.41,189.41,0,0,0,24.07,36.83.5.5,0,0,1,0,.69A.51.51,0,0,1,1067.84,1300.15Z" transform="translate(-317.22 -410.5)"/><path class="cls-33" d="M1055.68,1370.11c-.69,0-1.41,0-2.15-.1a.49.49,0,0,1-.45-.53.48.48,0,0,1,.53-.44c4.44.39,7.76-.42,10.13-2.48,5.37-4.67,6-15.58,6.76-30.68.4-7.5.85-16,2-25.3a.49.49,0,0,1,.54-.43.48.48,0,0,1,.43.54c-1.11,9.29-1.56,17.76-2,25.24-.82,15.34-1.42,26.43-7.1,31.37C1062.21,1369.18,1059.35,1370.11,1055.68,1370.11Z" transform="translate(-317.22 -410.5)"/><path class="cls-33" d="M1078.53,1740.64a.5.5,0,0,1-.48-.42c0-.21-3.32-21.89-5.77-62.59v-.17c-2.54-42.4-6.39-106.47-.89-127,4.21-15.7-1.81-43.32-8.78-75.31-2.07-9.52-4.22-19.36-6.22-29.45-10.15-51.15-9.24-93.19,2.94-136.29a.47.47,0,0,1,.6-.34.49.49,0,0,1,.34.6c-12.13,42.95-13,84.85-2.92,135.84,2,10.08,4.15,19.92,6.22,29.43,7,32.11,13,59.84,8.77,75.77-5.46,20.38-1.46,86.93.92,126.69v.17c2.44,40.65,5.73,62.29,5.76,62.5a.49.49,0,0,1-.41.56Z" transform="translate(-317.22 -410.5)"/><path class="cls-33" d="M1085.38,1749.05a42.82,42.82,0,0,1-19-4.16.49.49,0,0,1,.43-.89c18.59,9.12,39.25.09,39.46,0a.49.49,0,0,1,.64.24.5.5,0,0,1-.24.65A58.19,58.19,0,0,1,1085.38,1749.05Z" transform="translate(-317.22 -410.5)"/><path class="cls-25" d="M1143.14,1811.69h-76.68a.49.49,0,0,1,0-1h76.68a.49.49,0,0,1,0,1Z" transform="translate(-317.22 -410.5)"/><path class="cls-25" d="M1107.2,1796.88l-.12,0a.48.48,0,0,1-.35-.59c.08-.36,2.23-8.61,7.89-8.47a.49.49,0,0,1,.48.51.48.48,0,0,1-.5.47c-4.89-.13-6.9,7.65-6.92,7.72A.5.5,0,0,1,1107.2,1796.88Z" transform="translate(-317.22 -410.5)"/><path class="cls-25" d="M1119.27,1804.15l-.12,0a.48.48,0,0,1-.35-.59c.08-.36,2.19-8.61,7.89-8.47a.49.49,0,0,1,.48.5.48.48,0,0,1-.5.48c-4.87-.12-6.9,7.65-6.92,7.72A.5.5,0,0,1,1119.27,1804.15Z" transform="translate(-317.22 -410.5)"/><path class="cls-33" d="M1113.92,1643.25a.49.49,0,0,1-.49-.49c0-1.79,1.33-11.32,3.16-24.52,3.44-24.71,8.63-62.06,8.09-71.47-.29-5.11,1.35-18.14,3.62-36.18,3.94-31.23,9.88-78.43,9-115.54a.48.48,0,0,1,.35-.48c.07,0,7.23-2.18,9-5.53.72-1.32.2-7.71-.45-15.8-1-12.85-2.44-30.44-1-47.1a.49.49,0,0,1,.53-.45.48.48,0,0,1,.44.53c-1.46,16.58,0,34.13,1,46.94.78,9.71,1.15,14.84.34,16.35-1.77,3.28-7.72,5.39-9.26,5.89.84,37.12-5.09,84.15-9,115.31-2.18,17.31-3.9,31-3.61,36,.55,9.5-4.65,46.91-8.1,71.66-1.76,12.66-3.15,22.66-3.15,24.38A.49.49,0,0,1,1113.92,1643.25Z" transform="translate(-317.22 -410.5)"/><path class="cls-29" d="M1134.33,1077.07c-.83,2.48-2.85,4-4.5,3.47s-2.31-3-1.48-5.49,2.85-4,4.51-3.47S1135.17,1074.59,1134.33,1077.07Z" transform="translate(-317.22 -410.5)"/><path class="cls-29" d="M1153.67,1083.38c-.83,2.47-2.85,4-4.5,3.47s-2.31-3-1.48-5.49,2.86-4,4.51-3.47S1154.51,1080.9,1153.67,1083.38Z" transform="translate(-317.22 -410.5)"/><path class="cls-29" d="M1123.52,1063.74c11.8-1.37,17.65,4,17.74,3.75C1138.34,1058.16,1129.29,1057.61,1123.52,1063.74Z" transform="translate(-317.22 -410.5)"/><path class="cls-29" d="M1152.33,1071.14c5,.55,6.77,3.94,6.77,3.94C1160,1069,1153.88,1069.68,1152.33,1071.14Z" transform="translate(-317.22 -410.5)"/><ellipse class="cls-28" cx="777.68" cy="660.92" rx="9.88" ry="17.01"/><path class="cls-27" d="M1100.94,1062.63c3.89-25.13,25.9-40.62,38.91-38.62-7.41-2.47-10.43-2.75-10.84-2.75-22.84,6.42-32.57,21.74-35.89,40.14a3.92,3.92,0,0,0,4.91,4.46l.1,0A3.9,3.9,0,0,0,1100.94,1062.63Z" transform="translate(-317.22 -410.5)"/><path class="cls-24" d="M1202.53,1232.36c8.51-8.5,13.17-14.54,14-20s1.65-10.69,11.66-13.71,15-12.76,15.5-12.76c3.16,1.1,4.8,7.68-.68,12.76s-10.7,14.4,1.78,10.83,28-11.93,30.31-9.46-3.29,6.45-3.29,6.45c-1,6.31-3.7,7.81-3.7,8.23-1.24,7-17.7,18.65-14.68,17.69s9.19-5.76,9.33-3.84-3.43,8.64-14.54,10.84-13.31,1.78-18.52,5.21-11.38,9.19-13.72,8.64A28.55,28.55,0,0,1,1202.53,1232.36Z" transform="translate(-317.22 -410.5)"/><rect class="cls-34" x="992.03" y="884.96" width="108.64" height="7.13"/><polygon class="cls-22" points="899.03 970.55 992.03 892.09 992.03 884.96 899.03 963.41 899.03 970.55"/><path class="cls-35" d="M1324.21,1381.05c71.88-1.65,93.82-70.51,93-78.46h-108l-93,78.46Z" transform="translate(-317.22 -410.5)"/><path class="cls-34" d="M1216.25,1381.05c71.87-1.65,93.82-70.51,93-78.46Z" transform="translate(-317.22 -410.5)"/><rect class="cls-22" x="978.13" y="953.17" width="42.06" height="46.45"/><rect class="cls-35" x="990.57" y="999.63" width="17.19" height="389.18"/><polygon class="cls-22" points="1061.13 1405.36 937.19 1405.36 986.27 1388.81 1012.05 1388.81 1061.13 1405.36"/><rect class="cls-22" x="2068.1" y="1253.75" width="132.59" height="4.43" transform="translate(-608.83 347.9) rotate(-18.88)"/><rect class="cls-22" x="2070.68" y="1262.61" width="132.59" height="4.43" transform="translate(-611.56 349.21) rotate(-18.88)"/><rect class="cls-22" x="1974.56" y="1360.03" width="164.91" height="4.43" transform="translate(3564.48 -708.86) rotate(104.18)"/><rect class="cls-22" x="1965.73" y="1357.35" width="164.91" height="4.43" transform="translate(3550.88 -703.63) rotate(104.18)"/><polygon class="cls-34" points="1843.61 1110.7 1711.23 1110.7 1665.99 1004.9 1669.32 1002.32 1843.61 1110.7"/><polygon class="cls-36" points="1843.97 1101.65 1711.6 1101.65 1669.13 1002.32 1801.51 1002.32 1843.97 1101.65"/><polygon class="cls-37" points="1713 1099.53 1672.35 1004.44 1800.11 1004.44 1840.76 1099.53 1713 1099.53"/><polygon class="cls-38" points="1711.96 1092.05 1678 1011.55 1801.14 1011.55 1835.11 1092.05 1711.96 1092.05"/><path class="cls-24" d="M2145.87,1404.33c-1.29-1.11-18.28-21.23-17.73-25.48s-.92-17.36-6.27-19.76-13.48-6.46-17.91-10.15-6.1-9.42-7.39-9.42c-3.14,1.3-3,5.17,0,12.19s3.88,10.34-.74,9-33.78-11.27-34.34-7.21,4.06,3.88,1.85,5.17,2,7.57,2,7.57c-2.4,8.87,13.29,18.1,29.91,27s23.08,33.42,23.08,33.42C2138.67,1422.05,2145.87,1404.33,2145.87,1404.33Z" transform="translate(-317.22 -410.5)"/><path class="cls-32" d="M2092.88,1370.74l-.14,0c-.09,0-9.11-2.33-25-10.57a.57.57,0,0,1,.52-1c15.81,8.18,24.72,10.46,24.81,10.48a.58.58,0,0,1,.41.69A.57.57,0,0,1,2092.88,1370.74Z" transform="translate(-317.22 -410.5)"/><path class="cls-32" d="M2087.34,1381.26a.52.52,0,0,1-.27-.07c-.11-.06-11.24-6.23-17.33-13.42a.58.58,0,0,1,.06-.8.57.57,0,0,1,.8.07c6,7,16.9,13.1,17,13.16a.56.56,0,0,1,.23.77A.57.57,0,0,1,2087.34,1381.26Z" transform="translate(-317.22 -410.5)"/><rect class="cls-39" x="1928.53" y="1275.94" width="27.69" height="132.56"/><polygon class="cls-22" points="1980.35 1291.08 1904.41 1291.08 1897.33 1255.26 1987.43 1255.26 1980.35 1291.08"/><polygon class="cls-40" points="1923.54 1261.17 1824.96 1261.17 1855.7 1174.58 2086.94 1040.4 2134.44 1040.68 2042.36 1223.32 2018.54 1242.71 1923.54 1261.17"/><path class="cls-24" d="M2148.85,1771.46c-4.71,6.65,1.14,23.54,1.14,24.37,6.65,18.28,4.43,23.82,4.43,23.82H2045.58c6.93-13.85,54.28-22.71,68.69-33.23,1.87-20.77,2.18-33.51,2.18-33.51Z" transform="translate(-317.22 -410.5)"/><path class="cls-29" d="M2151.85,1801.33c-7,1.59-24.41,4.28-34.82-4.39a12.8,12.8,0,0,0-3.66-9.9c-15.36,10.25-61,19-67.79,32.61h108.84S2156.18,1815.24,2151.85,1801.33Z" transform="translate(-317.22 -410.5)"/><path class="cls-41" d="M2234.12,1531s-126.29,1.48-144,11.45-19.94,17.17-16.06,46,31,190,31,190c30.47,12.18,54.29,1.1,56.5-2.22-3.88-82-10-139.58-10-139.58s13.29-19.94,16.06-21,99.15-44.31,99.15-44.31l7.2-22.71S2244.64,1531.17,2234.12,1531Z" transform="translate(-317.22 -410.5)"/><path class="cls-24" d="M2013.67,1771.46c-4.7,6.65-13,23.54-13,24.37,6.64,18.28,4.43,23.82,4.43,23.82H1896.25c6.92-13.85,54.28-22.71,68.68-33.23s16.34-33.51,16.34-33.51Z" transform="translate(-317.22 -410.5)"/><path class="cls-29" d="M2002.52,1801.33c-7.06,1.59-24.42,4.28-34.82-4.39a12.84,12.84,0,0,0-3.66-9.9c-15.36,10.25-61,19-67.79,32.61h108.84S2006.84,1815.24,2002.52,1801.33Z" transform="translate(-317.22 -410.5)"/><path class="cls-28" d="M2260.71,1547.42c-7.2-1.67-159,26.58-172.82,48.74s-126.84,150.65-126.84,156.75c8.31,27.69,54.28,25.48,54.28,25.48s129.06-119.09,134.05-130.72c65.35-.56,164.5,7.2,195-13.85s35.45-55.39,35.45-55.39Z" transform="translate(-317.22 -410.5)"/><path class="cls-42" d="M2319.7,1345.52c-28.16,3.6-50.87,20-67.86,42.93s-51.32,67.94-55.75,68.68c-40.62-42.46-50.59-53.54-50.59-53.54a284.42,284.42,0,0,1-27.7,22.89s34.34,92,68.32,91.21,76.43-27.69,76.43-27.69c-10.34,27.32-28.43,41-28.43,41,8.49,3,13.66,21.42,37.3,43.21s74.22,26.21,107.82,17.72c29.91-79.39,32.12-123.33,32.12-125.55,7.39-17.72,22.53-80.5,16.25-111.88s-34.89-36-60.83-26.68S2338.44,1354.29,2319.7,1345.52Z" transform="translate(-317.22 -410.5)"/><path class="cls-29" d="M2316.28,1274.9c-5.72-5.17-4.8-15-2.4-17-8.49-12.19.55-37.67,14.22-40.44s16.06,9.79,21.23,11.82c7,1.11,22.52,4.8,22.52,4.8,25.11,7,28.07,35.45,17.54,47.63s-21.41,20.13-22.71,27.33-1.29,8.49-1.84,8.68S2316.28,1274.9,2316.28,1274.9Z" transform="translate(-317.22 -410.5)"/><path class="cls-24" d="M2325.79,1240.93c-1.66,4.89-8,16.52-9.05,23.17s-6.09,20.86-6.18,31.48,2.67,17.08,3.32,21.51,12.83,9.23,17.17,7.11a31.11,31.11,0,0,1-3.14,16.52c-1.84,4.16-8.21,4.8-8.21,4.8-1.85,5.45-1.94,17.45,3.78,21.24,29.73-7.85,43.3-39,43.3-39-.83-2.12-.83-22.06-.83-32v-10c-17.73-4.8,2.21-28.07-5.17-28.07S2328.83,1244.44,2325.79,1240.93Z" transform="translate(-317.22 -410.5)"/><path class="cls-29" d="M2316.16,1293c1.46,7.41,2.15,12.53,1.87,16.06s8.17,5.47,15.93.84,9.28-9.63,9.28-9.63S2321.29,1299,2316.16,1293Z" transform="translate(-317.22 -410.5)"/><path class="cls-29" d="M2345.91,1282.5c-.8,2.62-2.66,4.37-4.15,3.91s-2.06-3-1.26-5.57,2.66-4.36,4.16-3.91S2346.71,1279.88,2345.91,1282.5Z" transform="translate(-317.22 -410.5)"/><path class="cls-29" d="M2325.33,1274.28c-.8,2.62-2.67,4.37-4.16,3.91s-2.06-3-1.26-5.56,2.66-4.37,4.16-3.91S2326.13,1271.67,2325.33,1274.28Z" transform="translate(-317.22 -410.5)"/><path class="cls-29" d="M2322.83,1290.15a.46.46,0,0,1-.23-.06c-7.65-3.57-7.66-4.59-7.67-4.93a.78.78,0,0,1,.45-.7c.12-.06,11.93-6.48,13.63-18.87a.57.57,0,0,1,.64-.48.56.56,0,0,1,.48.64c-1.63,11.88-11.82,18.33-13.88,19.52a40.83,40.83,0,0,0,6.82,3.8.56.56,0,0,1,.28.75A.57.57,0,0,1,2322.83,1290.15Zm-6.94-4.68Z" transform="translate(-317.22 -410.5)"/><path class="cls-32" d="M2323.87,1316.74a11,11,0,0,1-5.06-1,4.61,4.61,0,0,1-2.43-2.88.58.58,0,0,1,.4-.7.57.57,0,0,1,.69.4,3.52,3.52,0,0,0,1.87,2.18c2.52,1.33,6.82,1,9.59.11a.57.57,0,0,1,.72.35.57.57,0,0,1-.36.72A17.39,17.39,0,0,1,2323.87,1316.74Z" transform="translate(-317.22 -410.5)"/><path class="cls-29" d="M2333.08,1326.89a.57.57,0,0,1-.09-1.13c14-2.37,26.84-15.68,29.93-24.19a.57.57,0,0,1,1.07.39c-3.19,8.76-16.45,22.48-30.81,24.92Z" transform="translate(-317.22 -410.5)"/><path class="cls-29" d="M2299.11,1296.7a.34.34,0,0,1-.14,0c-9.57-2.48-9.75-3.3-9.83-3.65s-.25-1.13,21.56-23.87a.57.57,0,1,1,.82.78c-7.86,8.19-19.54,20.59-21.13,22.84a63.18,63.18,0,0,0,8.86,2.81.57.57,0,0,1,.41.69A.58.58,0,0,1,2299.11,1296.7Zm-8.88-3.66Z" transform="translate(-317.22 -410.5)"/><path class="cls-33" d="M2296.43,1385.14h-.1a.57.57,0,0,1-.45-.67c0-.08,1.68-8.69,3.32-19.09a.56.56,0,0,1,.64-.47.58.58,0,0,1,.48.65c-1.65,10.41-3.31,19-3.33,19.13A.57.57,0,0,1,2296.43,1385.14Z" transform="translate(-317.22 -410.5)"/><path class="cls-33" d="M2364.56,1376h0a.57.57,0,0,1-.57-.57c0-.43.6-43.44,27.56-50.67a.57.57,0,0,1,.7.4.57.57,0,0,1-.4.69c-26.14,7-26.72,49.16-26.72,49.59A.57.57,0,0,1,2364.56,1376Z" transform="translate(-317.22 -410.5)"/><path class="cls-33" d="M2354.87,1462.68a.55.55,0,0,1-.35-.12l-29.36-23.26a.56.56,0,0,1-.09-.8.57.57,0,0,1,.79-.09l28.68,22.73c1.65-6.26,11.92-46.17,11.67-69.64a.57.57,0,0,1,.56-.57.57.57,0,0,1,.57.56c.28,25.54-11.8,70.33-11.93,70.77a.54.54,0,0,1-.37.39A.47.47,0,0,1,2354.87,1462.68Z" transform="translate(-317.22 -410.5)"/><path class="cls-33" d="M2357.51,1527.73a11.91,11.91,0,0,1-4.51-.84c-13.84-5.53-57.12-62-59-64.43a.57.57,0,0,1,.9-.69c.45.59,44.93,58.65,58.48,64.07,3.24,1.3,7.27.91,12-1.15,12.85-5.64,27.28-22.59,31.6-34a.57.57,0,0,1,1.06.4c-4.41,11.61-18.72,28.68-32.21,34.61A21,21,0,0,1,2357.51,1527.73Z" transform="translate(-317.22 -410.5)"/><path class="cls-33" d="M2357.64,1479.85a.55.55,0,0,1-.56-.49c-1.43-10.93-2.44-12.73-2.58-12.93l0,0a.56.56,0,0,1,.65-.9.48.48,0,0,1,.15.11h0l6.65,6.65a.57.57,0,0,1,0,.8.58.58,0,0,1-.81,0l-4.8-4.8a106.22,106.22,0,0,1,1.89,11,.57.57,0,0,1-.49.64Z" transform="translate(-317.22 -410.5)"/><path class="cls-33" d="M2268.46,1480.41l-.14,0a.57.57,0,0,1-.41-.69c.06-.23,6.08-23.45,6.08-45.28a.57.57,0,0,1,1.13,0c0,22-6,45.33-6.11,45.56A.57.57,0,0,1,2268.46,1480.41Z" transform="translate(-317.22 -410.5)"/><path class="cls-33" d="M2194.79,1477.64a.56.56,0,0,1-.32-.11c-3-2.14-2.69-8.24-2.26-11.6-1.76,2.47-4.6,7.11-4.6,11.14a.57.57,0,1,1-1.14,0c0-6.23,6-13.36,6.23-13.66a.57.57,0,0,1,1,.48c-.6,2.83-1.5,10.63,1.43,12.72a.57.57,0,0,1-.33,1Z" transform="translate(-317.22 -410.5)"/><path class="cls-33" d="M2274.55,1606.14a.5.5,0,0,1-.28-.08c-.3-.17-7.34-4.29-7.1-10.29.17-4.42,4.25-8.56,12.13-12.31a.56.56,0,0,1,.48,1c-7.46,3.56-11.32,7.37-11.48,11.33-.21,5.31,6.47,9.23,6.54,9.27a.57.57,0,0,1,.2.78A.55.55,0,0,1,2274.55,1606.14Z" transform="translate(-317.22 -410.5)"/><path class="cls-33" d="M2006.47,1755.69a.6.6,0,0,1-.41-.17.58.58,0,0,1,0-.81c1-1,100.84-97,107.93-107.9,4.66-7.18,4.07-9.54,3.82-10.55a1.34,1.34,0,0,1,.83-1.84,15.78,15.78,0,0,1,3.4-.85c2.28-.42,5.41-1,6-2.17.05-.12.22-.48-.18-1.17a.94.94,0,0,1,0-.93c1.09-2,14.83-4.76,40.83-8.08,21.75-2.78,48.52-5.45,68.19-6.8,39.46-2.7,50.47-5.76,58.86-16.4a.57.57,0,0,1,.89.7c-8.65,11-19.8,14.1-59.67,16.83-42.76,2.93-105.37,10.73-108,14.21a2.29,2.29,0,0,1,.16,2.11c-.79,1.72-4,2.3-6.77,2.82a15,15,0,0,0-3.11.75,1.48,1.48,0,0,0-.32.2s0,.2.09.34c.31,1.25,1,3.85-4,11.44-7.16,11-104,104.15-108.1,108.11A.53.53,0,0,1,2006.47,1755.69Z" transform="translate(-317.22 -410.5)"/><path class="cls-33" d="M2017,1763.44h0c-.28,0-28.64-2.42-43-18.46a.57.57,0,0,1,.84-.76c14.09,15.71,42,18.07,42.27,18.09a.57.57,0,0,1,.52.61A.56.56,0,0,1,2017,1763.44Z" transform="translate(-317.22 -410.5)"/><path class="cls-33" d="M2137.39,1648.36c-6.13,0-14-5.51-14.37-5.77a.56.56,0,0,1-.14-.79.57.57,0,0,1,.79-.13c.09.06,9.29,6.49,15.08,5.44.65-.12,1.05-.21,1.28-.28-.25-.19-.64-.45-1-.69a27.86,27.86,0,0,1-10.11-11,.57.57,0,0,1,1-.52,27,27,0,0,0,9.72,10.53c1.23.82,1.85,1.23,1.71,1.89s-.81.84-2.42,1.14A8.8,8.8,0,0,1,2137.39,1648.36Zm2.9-1.29Z" transform="translate(-317.22 -410.5)"/><path class="cls-29" d="M2338.53,1267.22a41,41,0,0,1,16.89,8.72C2352.1,1264,2343.79,1262,2338.53,1267.22Z" transform="translate(-317.22 -410.5)"/><path class="cls-29" d="M2318.86,1260.78a11.9,11.9,0,0,1,10,3.94C2327.52,1255.31,2318.86,1260.78,2318.86,1260.78Z" transform="translate(-317.22 -410.5)"/><path class="cls-31" d="M2343.24,1300.31s-19.36-1.16-26-6.23a17,17,0,0,0,2.42,6.92,7.4,7.4,0,0,0,3.11,2.22,8.62,8.62,0,0,1-2.77-.9c-.8,3.09-1.6,5.3-2,6.91-.06,3.45,8.27,5.29,15.93.71S2343.24,1300.31,2343.24,1300.31Z" transform="translate(-317.22 -410.5)"/><path class="cls-29" d="M2344.25,1300.86h0c-.91,0-22.41-.29-29.24-8.61a.57.57,0,1,1,.88-.72c6.49,7.92,28.15,8.19,28.37,8.19a.57.57,0,0,1,0,1.14Z" transform="translate(-317.22 -410.5)"/><path class="cls-27" d="M2388.85,1285.41c-2.09,7.78-8.38,12.85-14,11.33s-8.56-9.06-6.47-16.84,8.37-12.85,14-11.33S2390.93,1277.63,2388.85,1285.41Z" transform="translate(-317.22 -410.5)"/><path class="cls-28" d="M2393.65,1287.07c-2.09,7.78-8.38,12.86-14,11.34s-8.56-9.07-6.47-16.84,8.37-12.86,14-11.34S2395.74,1279.29,2393.65,1287.07Z" transform="translate(-317.22 -410.5)"/><path class="cls-27" d="M2349.33,1229.3c26.67,4.39,32.51,25.75,32.18,39.83a3.75,3.75,0,0,0,3.67,3.83h0a3.76,3.76,0,0,0,3.86-3.89c-.69-19.49-12.38-34.36-17.74-36.26C2357.45,1228.56,2349.33,1229.3,2349.33,1229.3Z" transform="translate(-317.22 -410.5)"/><path class="cls-24" d="M2318.68,1430.36c-1.29-1.11-18.28-21.23-17.72-25.48s-.93-17.35-6.28-19.75-13.48-6.47-17.91-10.16-6.09-9.41-7.39-9.41c-3.13,1.29-3,5.17,0,12.18s3.88,10.34-.73,9-33.79-11.26-34.35-7.2,4.07,3.87,1.85,5.17,2,7.57,2,7.57c-2.4,8.86,13.3,18.09,29.91,27s23.08,33.42,23.08,33.42C2311.48,1448.08,2318.68,1430.36,2318.68,1430.36Z" transform="translate(-317.22 -410.5)"/><path class="cls-32" d="M2265.69,1396.77l-.14,0c-.08,0-9.11-2.32-25-10.57a.56.56,0,1,1,.52-1c15.8,8.17,24.71,10.45,24.8,10.47a.57.57,0,0,1,.41.69A.56.56,0,0,1,2265.69,1396.77Z" transform="translate(-317.22 -410.5)"/><path class="cls-32" d="M2260.15,1407.29a.54.54,0,0,1-.27-.07c-.11-.06-11.24-6.22-17.33-13.42a.57.57,0,0,1,.07-.8.56.56,0,0,1,.79.07c6,7,16.91,13.1,17,13.16a.57.57,0,0,1,.22.77A.56.56,0,0,1,2260.15,1407.29Z" transform="translate(-317.22 -410.5)"/><path class="cls-21" d="M2240.76,1671.67a8.49,8.49,0,0,1-.54-17l83-5.32a35.08,35.08,0,0,0,26.9-15.68c40.77-62,92.08-176.39,92.59-177.54a8.49,8.49,0,1,1,15.51,6.93c-2.12,4.74-52.38,116.82-93.91,180a52.15,52.15,0,0,1-40,23.29l-83,5.32Z" transform="translate(-317.22 -410.5)"/><polygon class="cls-22" points="2015.13 1405.7 1956.23 1392.26 1928.26 1392.26 1869.64 1405.7 1869.64 1408.87 2015.13 1408.87 2015.13 1405.7"/><path class="cls-32" d="M2093.52,1386a.75.75,0,0,1-.37-.11.71.71,0,0,1-.23-1c.17-.28,4.22-6.57,18.19-6.47-2.32-2.61-7-8.92-5.73-16.36a.71.71,0,1,1,1.4.24c-1.49,8.83,6.44,16.27,6.52,16.35a.7.7,0,0,1-.51,1.22c-14.48-.61-18.62,5.7-18.66,5.77A.73.73,0,0,1,2093.52,1386Z" transform="translate(-317.22 -410.5)"/><rect class="cls-43" x="1598.97" y="1110.61" width="356.43" height="9.14"/><rect class="cls-22" x="1645.91" y="1119.19" width="262.54" height="10.52"/><rect class="cls-39" x="1770.22" y="1129.71" width="13.94" height="279.16"/><rect class="cls-22" x="1711.13" y="1397.8" width="132.1" height="11.08"/><rect class="cls-37" x="2125.93" y="1512.15" width="54.1" height="9.05" transform="translate(3988.73 2622.85) rotate(180)"/><path class="cls-29" d="M2303.77,1300.75l-4.9-1.31a3.05,3.05,0,0,1-2.16-3.73h0a3.06,3.06,0,0,1,3.74-2.16l4.9,1.31a3.05,3.05,0,0,1,2.16,3.73h0A3.06,3.06,0,0,1,2303.77,1300.75Z" transform="translate(-317.22 -410.5)"/><path class="cls-22" d="M2228.35,1247.08l-33.09-26a20.86,20.86,0,0,1-3.5-29.29h0a20.86,20.86,0,0,1,29.3-3.5l33.09,26a20.88,20.88,0,0,1,3.5,29.3h0A20.87,20.87,0,0,1,2228.35,1247.08Z" transform="translate(-317.22 -410.5)"/><path class="cls-33" d="M2258,1218.27a20.73,20.73,0,0,1-4.06,8.79h0a20.86,20.86,0,0,1-29.29,3.5l-33.09-26a20.55,20.55,0,0,1-3.87-4,20.85,20.85,0,0,0,7.55,20.51l33.09,26a20.88,20.88,0,0,0,29.3-3.5h0A20.88,20.88,0,0,0,2258,1218.27Z" transform="translate(-317.22 -410.5)"/><rect class="cls-44" x="2221.1" y="1195.24" width="7.94" height="45.42" transform="translate(911.95 -1525.47) rotate(38.19)"/><path class="cls-44" d="M2208.46,1239.45a10.34,10.34,0,1,1-10.34-10.34A10.34,10.34,0,0,1,2208.46,1239.45Z" transform="translate(-317.22 -410.5)"/><path class="cls-22" d="M2205,1239.45a6.83,6.83,0,1,1-6.83-6.83A6.83,6.83,0,0,1,2205,1239.45Z" transform="translate(-317.22 -410.5)"/><circle class="cls-44" cx="1756.09" cy="871.05" r="10.34"/><path class="cls-22" d="M2080.14,1281.55a6.83,6.83,0,1,1-6.83-6.83A6.83,6.83,0,0,1,2080.14,1281.55Z" transform="translate(-317.22 -410.5)"/><polygon class="cls-10" points="412.14 1390.13 454.7 1390.13 347.17 534 304.61 534 412.14 1390.13"/><rect class="cls-22" x="642.84" y="831.22" width="86.75" height="144.86" transform="translate(338.05 1627.39) rotate(-141.22)"/><path class="cls-43" d="M577.48,763.93,941.82,882.87l35.22-124L604.57,668.55a21.75,21.75,0,0,0-26.06,15.2L563.3,737.3A21.77,21.77,0,0,0,577.48,763.93Z" transform="translate(-317.22 -410.5)"/><circle class="cls-22" cx="1040.92" cy="844.01" r="131.36" transform="translate(-609.15 572.75) rotate(-45)"/><path class="cls-6" d="M1029.09,713.19A131.34,131.34,0,0,0,1103,959.75a131.34,131.34,0,1,1-73.88-246.56Z" transform="translate(-317.22 -410.5)"/><path class="cls-10" d="M995,982.85l11.93,3.39a15.88,15.88,0,0,0,19.63-11l70.47-248.12a15.89,15.89,0,0,0-10.94-19.63l-11.94-3.39a15.89,15.89,0,0,0-19.63,11L984.09,963.22A15.89,15.89,0,0,0,995,982.85Z" transform="translate(-317.22 -410.5)"/><path class="cls-10" d="M718,887h0a36.44,36.44,0,0,0,46.26-32L782.7,706.23l-24.8-7.05L695.43,835.44A36.44,36.44,0,0,0,718,887Z" transform="translate(-317.22 -410.5)"/><circle class="cls-22" cx="727.2" cy="854.46" r="22.71" transform="translate(-641.38 835.81) rotate(-70.04)"/><path class="cls-45" d="M848.71,1797.15H715.38a13.54,13.54,0,0,0-13.54,13.54V1816H862.25v-5.28A13.54,13.54,0,0,0,848.71,1797.15Z" transform="translate(-317.22 -410.5)"/><path class="cls-2" d="M471.82,857.36l-27.23-19.78h33.66l10.41-32,10.4,32h33.66l-27.23,19.78,10.4,32-27.23-19.79-27.24,19.79Zm37.54,23-7.91-24.34,20.71-15H496.57l-7.91-24.34L480.75,841h-25.6l20.71,15L468,880.39l20.71-15Z" transform="translate(-317.22 -410.5)"/><path class="cls-2" d="M1316.17,462.3l-27.24-19.78h33.67l10.4-32,10.4,32h33.67l-27.24,19.78,10.41,32L1333,474.53l-27.23,19.79Zm37.54,23L1345.8,461l20.71-15h-25.6L1333,421.61,1325.09,446H1299.5l20.7,15-7.9,24.34,20.7-15Z" transform="translate(-317.22 -410.5)"/></g></g></svg>