<svg xmlns="http://www.w3.org/2000/svg" xmlns:xlink="http://www.w3.org/1999/xlink" viewBox="0 0 2852.3 2963.11"><defs><style>.cls-1{fill:url(#linear-gradient);}.cls-2{fill:url(#linear-gradient-2);}.cls-3{fill:none;}.cls-4{isolation:isolate;}.cls-45,.cls-5,.cls-54,.cls-59{fill:#f4f7fa;}.cls-6{fill:#fff;}.cls-7{fill:#d8dee8;}.cls-8{clip-path:url(#clip-path);}.cls-54,.cls-59,.cls-9{mix-blend-mode:soft-light;}.cls-10{fill:#fcfdfe;}.cls-11{clip-path:url(#clip-path-2);}.cls-12{fill:url(#linear-gradient-5);}.cls-13{fill:url(#linear-gradient-6);}.cls-14{fill:url(#linear-gradient-7);}.cls-15{fill:url(#linear-gradient-8);}.cls-16{fill:url(#linear-gradient-9);}.cls-17{fill:url(#linear-gradient-10);}.cls-18,.cls-29,.cls-37,.cls-48,.cls-50,.cls-58{opacity:0.3;mix-blend-mode:multiply;}.cls-18{fill:url(#linear-gradient-11);}.cls-19{fill:url(#linear-gradient-12);}.cls-20{fill:url(#linear-gradient-13);}.cls-21{fill:url(#linear-gradient-14);}.cls-22{fill:url(#linear-gradient-15);}.cls-23{fill:url(#linear-gradient-16);}.cls-24{fill:url(#linear-gradient-17);}.cls-25{fill:url(#linear-gradient-18);}.cls-26{fill:url(#linear-gradient-19);}.cls-27{fill:url(#linear-gradient-20);}.cls-28{fill:url(#linear-gradient-21);}.cls-29{fill:url(#linear-gradient-22);}.cls-30{fill:url(#linear-gradient-23);}.cls-31{fill:url(#linear-gradient-24);}.cls-32{fill:url(#linear-gradient-25);}.cls-33{fill:#aeb7c4;}.cls-34{clip-path:url(#clip-path-3);}.cls-35{fill:url(#linear-gradient-26);}.cls-36{fill:url(#linear-gradient-27);}.cls-38{fill:url(#linear-gradient-28);}.cls-39{fill:url(#linear-gradient-29);}.cls-40{fill:url(#linear-gradient-30);}.cls-41{fill:url(#linear-gradient-31);}.cls-42{fill:url(#linear-gradient-32);}.cls-43{fill:url(#linear-gradient-33);}.cls-44{fill:url(#linear-gradient-34);}.cls-45{opacity:0.75;}.cls-46{fill:url(#linear-gradient-35);}.cls-47{fill:url(#linear-gradient-36);}.cls-48{fill:url(#linear-gradient-37);}.cls-49{fill:url(#linear-gradient-38);}.cls-50{fill:url(#linear-gradient-39);}.cls-51{fill:url(#linear-gradient-40);}.cls-52{fill:url(#linear-gradient-41);}.cls-53{fill:url(#linear-gradient-42);}.cls-54{opacity:0.5;}.cls-55{fill:url(#linear-gradient-43);}.cls-56{fill:url(#linear-gradient-44);}.cls-57{fill:url(#linear-gradient-45);}.cls-58{fill:url(#linear-gradient-46);}.cls-59{opacity:0.44;}</style><linearGradient id="linear-gradient" x1="2466.25" y1="3524.3" x2="52.28" y2="-649.84" gradientUnits="userSpaceOnUse"><stop offset="0" stop-color="#ff9085"/><stop offset="1" stop-color="#fb6fbb"/></linearGradient><linearGradient id="linear-gradient-2" x1="648.73" y1="1513.55" x2="1910.15" y2="3590.18" gradientUnits="userSpaceOnUse"><stop offset="0" stop-color="#e38ddd"/><stop offset="1" stop-color="#9571f6"/></linearGradient><clipPath id="clip-path" transform="translate(-428.85 -314.72)"><path class="cls-1" d="M1344.86,2816.69c-20,47.52-57.38,113.51-97.16,189.52h847.54c-129.46-239.35-298.81-485.88-166.86-953.13,61.93-219.28,253.34-616.75,118-843.73-154.19-258.6-363.21-107-451.46-311.75-137.92-320-454.88-510.55-735.4-301-276.86,206.82-180.38,802.08,310.11,1397.53C1473.11,2461.18,1449.49,2568.55,1344.86,2816.69Z"/></clipPath><clipPath id="clip-path-2" transform="translate(-428.85 -314.72)"><path class="cls-2" d="M1199.19,1870.63c4.57,389.38,192.37,261.07,365.55,299.5,199.87,289.18,218.7,557.48-79.72,789.18l-332.5-49.76c-123.37-5.72-268.14-43.43-260-207.71,9.24-185.8,53.18-303.8-156.53-395s-299.8-257.74-214.88-447.12c89.37-199.29-120.25-467.93,32.94-601.45C821,1025.56,1194.44,1465.17,1199.19,1870.63Z"/></clipPath><linearGradient id="linear-gradient-5" x1="-256.61" y1="3220" x2="-206.54" y2="3220" gradientTransform="translate(2606.4)" gradientUnits="userSpaceOnUse"><stop offset="0" stop-color="#ffc444"/><stop offset="1" stop-color="#f36f56"/></linearGradient><linearGradient id="linear-gradient-6" x1="-317.08" y1="3234.18" x2="-228.15" y2="3234.18" gradientTransform="translate(2606.4)" gradientUnits="userSpaceOnUse"><stop offset="0" stop-color="#444b8c"/><stop offset="1" stop-color="#26264f"/></linearGradient><linearGradient id="linear-gradient-7" x1="-260.19" y1="3201.8" x2="-270.03" y2="3224.54" xlink:href="#linear-gradient-6"/><linearGradient id="linear-gradient-8" x1="586.11" y1="1167.57" x2="1433.14" y2="2604.31" gradientTransform="matrix(-1, 0.01, 0.01, 1, 3505.08, -154.81)" gradientUnits="userSpaceOnUse"><stop offset="0" stop-color="#311944"/><stop offset="1" stop-color="#893976"/></linearGradient><linearGradient id="linear-gradient-9" x1="572.5" y1="1175.96" x2="1406.33" y2="2590.31" gradientTransform="matrix(-1, 0.01, 0.01, 1, 3505.08, -154.81)" xlink:href="#linear-gradient"/><linearGradient id="linear-gradient-10" x1="-25.91" y1="2714.34" x2="-298.05" y2="3186.57" gradientTransform="translate(2606.4)" xlink:href="#linear-gradient-8"/><linearGradient id="linear-gradient-11" x1="5.49" y1="2732.44" x2="-266.64" y2="3204.67" gradientTransform="translate(2606.4)" xlink:href="#linear-gradient-8"/><linearGradient id="linear-gradient-12" x1="473.77" y1="3130.12" x2="514.93" y2="3130.12" xlink:href="#linear-gradient-6"/><linearGradient id="linear-gradient-13" x1="313.67" y1="2612.12" x2="131.86" y2="3020.32" gradientTransform="translate(2606.4)" xlink:href="#linear-gradient-8"/><linearGradient id="linear-gradient-14" x1="-333.08" y1="1879.5" x2="-339.94" y2="2021" xlink:href="#linear-gradient-5"/><linearGradient id="linear-gradient-15" x1="204.67" y1="1905.57" x2="197.81" y2="2047.07" xlink:href="#linear-gradient-5"/><linearGradient id="linear-gradient-16" x1="-256.96" y1="2118.54" x2="-62.58" y2="2662.81" gradientTransform="translate(2606.4)" gradientUnits="userSpaceOnUse"><stop offset="0" stop-color="#aa80f9"/><stop offset="1" stop-color="#6165d7"/></linearGradient><linearGradient id="linear-gradient-17" x1="-66.33" y1="2050.46" x2="128.06" y2="2594.73" xlink:href="#linear-gradient-16"/><linearGradient id="linear-gradient-18" x1="196.32" y1="1956.66" x2="390.7" y2="2500.93" xlink:href="#linear-gradient-16"/><linearGradient id="linear-gradient-19" x1="6468.2" y1="-1461.18" x2="6474.48" y2="-1628.41" gradientTransform="matrix(-0.97, 0.23, 0.23, 0.97, 9266.84, 2168.91)" xlink:href="#linear-gradient-5"/><linearGradient id="linear-gradient-20" x1="-2461.78" y1="293.21" x2="-2497.73" y2="201.9" gradientTransform="matrix(0.94, 0.34, -0.34, 0.94, 5033.95, 2738.32)" gradientUnits="userSpaceOnUse"><stop offset="0" stop-color="#311944"/><stop offset="1" stop-color="#6b3976"/></linearGradient><linearGradient id="linear-gradient-21" x1="3982.23" y1="421.75" x2="3980.62" y2="551.35" gradientTransform="matrix(-0.92, -0.39, -0.39, 0.92, 6436.65, 3292.23)" xlink:href="#linear-gradient-5"/><linearGradient id="linear-gradient-22" x1="-280.3" y1="1721.82" x2="17.6" y2="2555.94" xlink:href="#linear-gradient-16"/><linearGradient id="linear-gradient-23" x1="643.66" y1="2585.76" x2="1962.36" y2="2585.76" gradientTransform="translate(295.29)" gradientUnits="userSpaceOnUse"><stop offset="0" stop-color="#311944"/><stop offset="1" stop-color="#a03976"/></linearGradient><linearGradient id="linear-gradient-24" x1="1171.3" y1="2644.37" x2="1962.36" y2="2644.37" xlink:href="#linear-gradient-23"/><linearGradient id="linear-gradient-25" x1="1773.5" y1="1889.77" x2="-39.99" y2="4928.58" gradientTransform="translate(295.29)" xlink:href="#linear-gradient-5"/><clipPath id="clip-path-3" transform="translate(-428.85 -314.72)"><path class="cls-3" d="M1630,548.84,1005.07,455s-304.53,21.25-309.84,23c0,0-49.57,495.74-49.57,502.82s289.83,400.38,289.83,400.38a412.77,412.77,0,0,0-7.14,64c-7.13,217.5,159.59,385.08,371.2,374.37a390.56,390.56,0,0,0,135.68-32,413.17,413.17,0,0,0,43.88-22.25c81.22-47.46,289.61,55.51,325.66-33.14l198.52-164.65,10.63-334.63-190.77-399Z"/></clipPath><linearGradient id="linear-gradient-26" x1="1859.23" y1="1526.88" x2="1637.96" y2="1927.92" gradientUnits="userSpaceOnUse"><stop offset="0" stop-color="#ab316d"/><stop offset="1" stop-color="#792d3d"/></linearGradient><linearGradient id="linear-gradient-27" x1="3099.68" y1="4293.22" x2="3538.36" y2="4293.22" gradientTransform="matrix(-0.26, -0.96, -0.96, 0.26, 6513.86, 3588.33)" xlink:href="#linear-gradient-5"/><linearGradient id="linear-gradient-28" x1="3099.68" y1="4297.7" x2="3513.97" y2="4297.7" gradientTransform="matrix(-0.26, -0.96, -0.96, 0.26, 6513.86, 3588.33)" xlink:href="#linear-gradient"/><linearGradient id="linear-gradient-29" x1="4510.05" y1="1576.86" x2="4969.07" y2="1576.86" gradientTransform="matrix(-1, 0, 0, 1, 5936.86, 0)" xlink:href="#linear-gradient-5"/><linearGradient id="linear-gradient-30" x1="2717.69" y1="1283.54" x2="3597.37" y2="1283.54" gradientTransform="matrix(-0.85, -0.52, -0.52, 0.85, 4480.77, 1403.06)" xlink:href="#linear-gradient-20"/><linearGradient id="linear-gradient-31" x1="2717.68" y1="1381.89" x2="3597.37" y2="1381.89" gradientTransform="matrix(-0.85, -0.52, -0.52, 0.85, 4480.77, 1403.06)" xlink:href="#linear-gradient-20"/><linearGradient id="linear-gradient-32" x1="4696.24" y1="1446.27" x2="4687.31" y2="1158.08" gradientTransform="matrix(-1, 0, 0, 1, 5936.86, 0)" xlink:href="#linear-gradient-26"/><linearGradient id="linear-gradient-33" x1="2784.58" y1="1570.83" x2="2866.12" y2="1303.88" gradientTransform="matrix(-0.85, -0.52, -0.52, 0.85, 4480.77, 1403.06)" xlink:href="#linear-gradient-26"/><linearGradient id="linear-gradient-34" x1="4510.05" y1="1675.99" x2="4969.07" y2="1675.99" gradientTransform="matrix(-1, 0, 0, 1, 5936.86, 0)" xlink:href="#linear-gradient"/><linearGradient id="linear-gradient-35" x1="1860.02" y1="1543.83" x2="1861.72" y2="1530.18" gradientUnits="userSpaceOnUse"><stop offset="0" stop-color="#26264f"/><stop offset="1" stop-color="#444b8c"/></linearGradient><linearGradient id="linear-gradient-36" x1="1853" y1="1531.39" x2="1870.07" y2="1500.66" xlink:href="#linear-gradient-35"/><linearGradient id="linear-gradient-37" x1="1833.69" y1="1516.82" x2="1890.35" y2="1516.82" xlink:href="#linear-gradient-35"/><linearGradient id="linear-gradient-38" x1="1854.62" y1="1522.99" x2="1871.48" y2="1490.55" xlink:href="#linear-gradient-35"/><linearGradient id="linear-gradient-39" x1="1831.15" y1="1507.28" x2="1892.86" y2="1507.28" xlink:href="#linear-gradient-35"/><linearGradient id="linear-gradient-40" x1="1830.24" y1="1496.13" x2="1893.8" y2="1496.13" xlink:href="#linear-gradient-35"/><linearGradient id="linear-gradient-41" x1="1860.44" y1="1491.33" x2="1866.7" y2="1462.03" xlink:href="#linear-gradient-35"/><linearGradient id="linear-gradient-42" x1="1848.42" y1="1327.81" x2="1972.61" y2="1524.97" gradientUnits="userSpaceOnUse"><stop offset="0" stop-color="#fcb148"/><stop offset="0.05" stop-color="#fdba46"/><stop offset="0.14" stop-color="#ffc244"/><stop offset="0.32" stop-color="#ffc444"/><stop offset="0.48" stop-color="#fdb946"/><stop offset="0.78" stop-color="#f99c4d"/><stop offset="0.87" stop-color="#f8924f"/><stop offset="1" stop-color="#f8924f"/></linearGradient><linearGradient id="linear-gradient-43" x1="1825.73" y1="1479.62" x2="1851.05" y2="1405.65" gradientUnits="userSpaceOnUse"><stop offset="0.49" stop-color="#ebeff2"/><stop offset="1" stop-color="#fff"/></linearGradient><linearGradient id="linear-gradient-44" x1="1849.94" y1="1487.91" x2="1875.26" y2="1413.93" xlink:href="#linear-gradient-43"/><linearGradient id="linear-gradient-45" x1="1816.91" y1="1476.6" x2="1842.24" y2="1402.63" xlink:href="#linear-gradient-43"/><linearGradient id="linear-gradient-46" x1="1852.78" y1="1283.37" x2="1828.02" y2="1487.37" xlink:href="#linear-gradient-42"/></defs><title>freelancer-integration</title><g class="cls-4"><g id="Illustration"><path class="cls-5" d="M693.22,958.11c22.14-28,415.12-507.45,1042.92-466.66,88.71,5.77,625.05,51.26,829.85,416.13,159.44,284.06-9.36,536.09,185.15,729.63,169.48,168.64,377.76,57,481.91,193.38,158.65,207.73-94,768.74-482.18,1081.61C2320.66,3259,1556.09,3448.14,987.22,3041.25c-563.34-402.94-559-1120.95-558.3-1234.6C429.85,1652.88,432.06,1288.06,693.22,958.11Z" transform="translate(-428.85 -314.72)"/><path class="cls-6" d="M2831.84,1594.76c49.42,25.09,111.5,2.06,138.67-51.45s9.13-117.23-40.29-142.32c-2.56-1.3-5.17-2.39-7.79-3.43a626.63,626.63,0,0,0,20.74-89.3c2.83,0,5.68-.06,8.56-.32,56.38-5,101.13-56.83,99.95-115.71s-47.84-102.55-104.22-97.53c-2.95.27-5.84.73-8.72,1.24a574.84,574.84,0,0,0-24.14-85.27c2.59-1.52,5.17-3.09,7.7-4.85,48.23-33.8,63.65-100.5,34.44-149s-92-60.39-140.23-26.59c-2.47,1.73-4.8,3.6-7.1,5.5a509.68,509.68,0,0,0-62.55-58.4c1.59-2.6,3.14-5.24,4.55-8,27.17-53.51,62.67-112,12.87-136.27-115.21-56.25-164.65-8.1-191.82,45.41-1.41,2.77-2.62,5.58-3.79,8.4a510.11,510.11,0,0,0-84.05-16c.17-3,.31-6,.25-9-1.18-58.89,16.29-90.75-40.3-91.85-123.41-2.4-165.05,51.16-163.87,110.05.06,3.07.32,6.08.63,9.07A573.87,573.87,0,0,0,2198.24,720c-1.29-2.63-2.62-5.24-4.15-7.78-29.21-48.48-92-60.39-140.23-26.59s-63.66,100.49-34.45,149c1.5,2.49,3.14,4.81,4.8,7.1a627.33,627.33,0,0,0-59.85,69.45c-2.39-1.5-4.81-3-7.37-4.27-49.42-25.09-111.5-2.05-138.67,51.46s-9.13,117.22,40.29,142.31c2.56,1.3,5.17,2.39,7.79,3.44a626.63,626.63,0,0,0-20.74,89.3c-2.84,0-5.68.05-8.57.31-56.38,5-101.12,56.83-99.94,115.72s47.84,102.54,104.22,97.52c3-.26,5.84-.73,8.72-1.24a575,575,0,0,0,24.14,85.28c-2.6,1.51-5.18,3.08-7.7,4.85-48.23,33.79-63.66,100.49-34.44,149s125.92,71,174.16,37.22c2.47-1.74-29.13-14.22-26.84-16.12a509.64,509.64,0,0,0,62.56,58.39c-1.59,2.61-3.15,5.25-4.55,8-27.17,53.51-9.14,117.22,40.28,142.31s111.5,2.05,138.67-51.45c1.41-2.77,2.62-5.59,3.79-8.41a508.88,508.88,0,0,0,84.05,16c-.18,3-.31,6-.25,9,1.18,58.88,47.84,102.54,104.22,97.52s101.13-56.84,99.94-115.72c-.06-3.08-.31-6.09-.62-9.07a575.05,575.05,0,0,0,83.09-30.84c1.29,2.63,2.62,5.24,4.15,7.77,29.21,48.48,92,60.39,140.23,26.6s63.66-100.5,34.44-149c-1.49-2.48-3.13-4.81-4.8-7.1a626.16,626.16,0,0,0,59.85-69.44C2826.86,1592,2829.28,1593.46,2831.84,1594.76Zm-616,7.82c-179.42-91.1-244.9-322.43-146.27-516.71S2393.59,808,2573,899.05s244.91,322.43,146.27,516.71S2395.24,1693.68,2215.81,1602.58Z" transform="translate(-428.85 -314.72)"/><path class="cls-6" d="M2951.73,1307.94c56.38-5,101.13-56.83,99.95-115.72s-47.84-102.54-104.22-97.52c-2.95.27-5.84.73-8.72,1.24a574.84,574.84,0,0,0-24.14-85.27c2.59-1.52,5.17-3.09,7.7-4.85,48.23-33.8,107.91-115.45,73.88-160.68-64.59-85.84-131.44-48.69-179.67-14.89-2.47,1.73-4.8,3.6-7.1,5.49a509.6,509.6,0,0,0-62.55-58.39c1.59-2.6,3.14-5.24,4.55-8,14.79-29.12,16.09-61.23,6.33-88.53q-69.88,123-137.69,247.14c143.13,104.89,188.7,311.59,99.23,487.81-75.81,149.33-226.53,233.18-373.68,222.67-6.57,17-13,34.14-20,51-19.08,45.75-40.75,90.56-62.45,135.32q20.47,3.86,41.1,6c-.18,3-.31,6-.25,9,1.18,58.88,36.93,108.91,139.11,103.49,56.52-3,66.24-62.81,65-121.69-.06-3.08-.31-6.09-.62-9.07a575.05,575.05,0,0,0,83.09-30.84c1.29,2.63,2.62,5.24,4.15,7.77,29.21,48.48,130.55,69.08,178.79,35.29s25.1-109.19-4.12-157.67c-1.49-2.48-3.13-4.81-4.8-7.1a626.16,626.16,0,0,0,59.85-69.44c2.4,1.5,4.82,3,7.38,4.26,49.41,25.09,111.5,2,138.67-51.45s9.13-117.23-40.29-142.32c-2.56-1.3-5.17-2.39-7.79-3.43a626.63,626.63,0,0,0,20.74-89.3C2946,1308.25,2948.85,1308.2,2951.73,1307.94Z" transform="translate(-428.85 -314.72)"/><path class="cls-7" d="M2885,1600.81c49.42,25.09,111.5,2,138.67-51.46s9.13-117.22-40.29-142.31c-2.56-1.3-5.17-2.4-7.79-3.44a626.63,626.63,0,0,0,20.74-89.3c2.83,0,5.68,0,8.56-.31,56.38-5,101.13-56.83,99.95-115.72s-47.84-102.55-104.22-97.52c-3,.26-5.84.73-8.72,1.24a575,575,0,0,0-24.14-85.28c2.59-1.51,5.18-3.08,7.7-4.85,48.23-33.79,63.65-100.49,34.44-149s-92-60.39-140.23-26.6c-2.47,1.73-4.8,3.6-7.1,5.5A508.83,508.83,0,0,0,2800,783.4c1.59-2.61,3.15-5.25,4.55-8,27.17-53.51,9.13-117.22-40.28-142.31s-111.5-2.06-138.67,51.45c-1.41,2.77-2.62,5.59-3.79,8.41a510.14,510.14,0,0,0-84.05-16c.17-3,.31-6,.25-9-1.18-58.88-47.84-102.54-104.22-97.52s-101.13,56.84-100,115.72c.06,3.08.32,6.09.63,9.07A574.61,574.61,0,0,0,2251.39,726c-1.29-2.63-2.62-5.24-4.15-7.77-29.21-48.49-92-60.39-140.23-26.6s-63.66,100.5-34.45,149c1.5,2.48,3.14,4.8,4.8,7.1a627.22,627.22,0,0,0-59.85,69.44c-2.39-1.5-4.81-3-7.37-4.26-49.42-25.09-111.5-2.06-138.67,51.45s-9.13,117.23,40.29,142.32c2.56,1.3,5.17,2.39,7.79,3.43a626.63,626.63,0,0,0-20.74,89.3c-2.84,0-5.68.06-8.57.31-56.38,5-101.12,56.84-99.94,115.72S1838.14,1418,1894.52,1413c3-.26,5.84-.72,8.72-1.24a574.62,574.62,0,0,0,24.14,85.28c-2.6,1.52-5.18,3.09-7.7,4.85-48.23,33.8-63.66,100.49-34.44,149s92,60.39,140.23,26.59c2.47-1.73,4.8-3.6,7.09-5.5a509.64,509.64,0,0,0,62.56,58.39c-1.59,2.61-3.15,5.25-4.56,8-27.16,53.51-9.12,117.23,40.29,142.32s111.5,2,138.67-51.46c1.41-2.77,2.62-5.59,3.79-8.41a509.1,509.1,0,0,0,84.05,16c-.18,3-.31,6-.25,9,1.18,58.89,47.84,102.55,104.22,97.52s101.13-56.83,99.94-115.72c-.06-3.07-.31-6.08-.62-9.07a575,575,0,0,0,83.09-30.83c1.29,2.62,2.62,5.23,4.15,7.76,29.21,48.49,92,60.4,140.23,26.6s63.66-100.49,34.44-149c-1.49-2.48-3.13-4.8-4.8-7.09a626.27,626.27,0,0,0,59.85-69.45C2880,1598,2882.43,1599.51,2885,1600.81Zm-616,7.81c-179.42-91.09-244.9-322.43-146.27-516.71s324-277.92,503.47-186.82,244.91,322.43,146.27,516.71S2448.39,1699.72,2269,1608.62Z" transform="translate(-428.85 -314.72)"/><path class="cls-1" d="M1344.86,2816.69c-20,47.52-57.38,113.51-97.16,189.52h847.54c-129.46-239.35-298.81-485.88-166.86-953.13,61.93-219.28,253.34-616.75,118-843.73-154.19-258.6-363.21-107-451.46-311.75-137.92-320-454.88-510.55-735.4-301-276.86,206.82-180.38,802.08,310.11,1397.53C1473.11,2461.18,1449.49,2568.55,1344.86,2816.69Z" transform="translate(-428.85 -314.72)"/><g class="cls-8"><g class="cls-9"><path class="cls-10" d="M1685.87,2957.1c-9.79-109.89-24.6-213-40.27-322.24l-5.22-36.41c-10.79-52.12-20-103.81-28.93-153.79-20.14-112.86-39.16-219.47-74.82-330.4-1.34-6.59-2.3-13-3.33-19.87-3.66-24.37-7.44-49.58-25.1-71.65l-.47-1c-144.13-593.17-413-1166.55-799.25-1704.19l4-2.87c386.47,538,655.6,1111.78,799.92,1705.37,18.19,23,22.21,49.87,25.77,73.58,1,6.76,2,13.15,3.22,19.35,35.69,111,54.74,217.75,74.91,330.78,8.91,49.95,18.13,101.6,28.93,153.8l5.24,36.56c15.69,109.27,30.5,212.49,40.3,322.51Z" transform="translate(-428.85 -314.72)"/><path class="cls-10" d="M1603.05,2424.59c-46.51-283.65,54.59-643.24,147.59-894.95,100.72-272.59,213.89-480.89,215-483L1970,1049c-1.13,2.07-114.16,210.11-214.75,482.37-92.79,251.13-193.66,609.81-147.32,892.39Z" transform="translate(-428.85 -314.72)"/><path class="cls-10" d="M1233,1216.11c-66.14-298.25-66.47-626.57-66.58-734.46,0-20.64,0-34.27-.5-36.86l4.84-.86c.52,2.89.55,13.65.58,37.71.11,107.76.44,435.68,66.46,733.41Z" transform="translate(-428.85 -314.72)"/><path class="cls-10" d="M1411.3,1682.54c-139.36-245-704.63-398.32-710.32-399.84l1.27-4.75c5.71,1.52,573,155.37,713.32,402.16Z" transform="translate(-428.85 -314.72)"/></g></g><path class="cls-2" d="M1199.19,1870.63c4.57,389.38,192.37,261.07,365.55,299.5,199.87,289.18,218.7,557.48-79.72,789.18l-332.5-49.76c-123.37-5.72-268.14-43.43-260-207.71,9.24-185.8,53.18-303.8-156.53-395s-299.8-257.74-214.88-447.12c89.37-199.29-120.25-467.93,32.94-601.45C821,1025.56,1194.44,1465.17,1199.19,1870.63Z" transform="translate(-428.85 -314.72)"/><g class="cls-11"><g class="cls-9"><path class="cls-10" d="M1281.74,2567.45a2548.31,2548.31,0,0,1-357.49-501.62C825,1883.29,749.37,1690.76,699.43,1493.58a2327.58,2327.58,0,0,1-60.08-342.39l5-.49a2323.07,2323.07,0,0,0,60,341.65c49.83,196.77,125.32,388.91,224.36,571.08a2543,2543,0,0,0,356.79,500.62Z" transform="translate(-428.85 -314.72)"/><path class="cls-10" d="M923.86,2781.31l-2.28-4.48c61.75-31.46,134.6-56,216.52-72.92a840.63,840.63,0,0,1,115.25-15.82l.33,5a833.69,833.69,0,0,0-114.56,15.73C1057.64,2725.67,985.22,2750.05,923.86,2781.31Z" transform="translate(-428.85 -314.72)"/><path class="cls-10" d="M989,2176.93C817.28,2010.84,451.79,2026,448.13,2026.21l-.24-5c3.7-.16,371.32-15.49,544.59,152.13Z" transform="translate(-428.85 -314.72)"/><path class="cls-10" d="M777.26,1743.46c-51.39-265,147.2-571.17,149.21-574.23l4.2,2.76c-2,3-199.47,307.57-148.47,570.51Z" transform="translate(-428.85 -314.72)"/></g></g><path class="cls-12" d="M2399.86,3204.79c-1,.66-19.19,25.29-27.43,41.38L2349.8,3234s12.76-4.54,19.17-29.22S2399.86,3204.79,2399.86,3204.79Z" transform="translate(-428.85 -314.72)"/><path class="cls-13" d="M2340.35,3260.91s14.19,4.8,20.1,5.23l.59,0a9.78,9.78,0,0,0,8.58-3.91c3.49-4.68,8.54-11.76,8.63-13.74.15-3-8-9.26-15.35-12s-9-6.3-22.55-17.12-36.41-23.65-47.12-13.77S2292.41,3240.19,2340.35,3260.91Z" transform="translate(-428.85 -314.72)"/><path class="cls-14" d="M2301.08,3207.24c11.76,4.69,15.31,17.92,35.71,31.35,11.59,7.62,25.86,14.62,36.05,19.25,2.75-3.88,5.34-7.9,5.41-9.32.15-3-8-9.25-15.35-11.94s-9-6.31-22.55-17.13-36.41-23.65-47.12-13.77a12.35,12.35,0,0,0-3.88,10.12C2291.47,3210.09,2295.09,3204.86,2301.08,3207.24Z" transform="translate(-428.85 -314.72)"/><path class="cls-15" d="M2204.65,1673.71l.68,46.22c.2,13.56,11.57,23.5,25.39,22.2l25.11-2.35a283.26,283.26,0,0,0,17.29,62.25l-20.63,13.78c-11.85,7.92-15.72,23.31-8.65,34.38l24.1,37.68c7.06,11,38.81,16.26,50.63,8.32l3.07-15.81a274.27,274.27,0,0,0,48.12,43l-10.69,19.8c-6.68,12.38-2.39,26.92,9.58,32.47l40.73,18.9c11.93,5.53,49.75,4.63,56.4-7.72l-12.52-23.66a292.93,292.93,0,0,0,65.75,10.94l.31,20.48c.19,13.44,11.36,23.2,24.92,21.8l46.15-4.74c13.52-1.38,24.31-13.37,24.11-26.77l-.3-20.41a328.55,328.55,0,0,0,64.61-24l10.62,16.79c6.89,10.9,46.12,14.76,57.64,6.9l14.92-28.16c11.48-7.84,15.23-23,8.38-33.88l-11-17.42a345.09,345.09,0,0,0,45.5-51.59l19.27,9.13c11.64,5.52,45.39,7,51.88-5.19l3-48.32c6.47-12.15,2.31-26.48-9.3-32L2849.5,1747a316.46,316.46,0,0,0,14.85-64.17l24.18-2.26a26.48,26.48,0,0,0,23.67-26.29l-.67-45.26a22,22,0,0,0-24.38-21.85l-25.6,2.32a282.52,282.52,0,0,0-18.17-59.45l22.79-15.3c11.41-7.67,15.13-22.73,8.32-33.66l2.27-45.11c-6.82-11-47.15-5.78-58.6,1.86l-24,16a274.5,274.5,0,0,0-45.41-39.84l14-26c6.52-12.11,2.33-26.54-9.35-32.24l-18.13-23.67c-11.72-5.71-48.32,3.69-54.86,15.83L2666,1374.54a293,293,0,0,0-60.73-10.76l-.44-29.66c-.2-13.4-11.31-23.36-24.83-22.26l-46.17,3.78c-13.56,1.11-24.41,12.9-24.21,26.34l.44,29.74a327.9,327.9,0,0,0-60.82,21l7.65-31.78c-7-11.09-45.17-6.39-56.9,1.33L2360,1388.62c-11.77,7.74-15.62,23-8.59,34.15l15.07,23.81a346.27,346.27,0,0,0-45.26,48.2l.28-15.75c-12-5.73-52.62,3.35-59.33,15.66l-22.92,42c-6.73,12.33-2.41,27,9.64,32.69l24,11.38a319.3,319.3,0,0,0-17,63.69l-26.58,2.42C2215.49,1648.14,2204.44,1660.15,2204.65,1673.71Zm171.74,12c-1.51-101.68,80.73-191.36,183.12-200.26,101.76-8.85,185,65.54,186.5,166.11s-79.33,190.12-181.08,200.07C2462.56,1861.61,2377.89,1787.35,2376.39,1685.67Z" transform="translate(-428.85 -314.72)"/><path class="cls-16" d="M2235.62,1671.8l.68,46.22c.2,13.56,11.57,23.5,25.39,22.21l25.11-2.36a283.11,283.11,0,0,0,17.29,62.25l-20.63,13.79c-11.85,7.91-15.72,23.31-8.65,34.37l24.1,37.68c7.06,11,22.37,13.56,34.18,5.62l19.52-13.11a274.27,274.27,0,0,0,48.12,43L2390,1941.25c-6.68,12.37-2.39,26.91,9.58,32.47l40.73,18.89c11.94,5.54,27,0,33.64-12.36l10.24-19a293.5,293.5,0,0,0,65.75,11l.31,20.47c.19,13.44,11.36,23.2,24.92,21.81l46.16-4.74c13.51-1.39,24.3-13.37,24.1-26.77l-.3-20.42a329.16,329.16,0,0,0,64.61-24l10.62,16.79c6.89,10.89,21.82,13.34,33.34,5.48L2793,1934c11.49-7.84,15.23-23,8.38-33.88l-11-17.42a345.72,345.72,0,0,0,45.51-51.59l19.26,9.13c11.64,5.52,26.33.12,32.81-12l22.09-41.46c6.47-12.15,2.31-26.48-9.3-32l-20.25-9.67a316.46,316.46,0,0,0,14.85-64.17l24.18-2.26a26.49,26.49,0,0,0,23.68-26.29l-.67-45.26a22,22,0,0,0-24.39-21.85l-25.6,2.33a282.43,282.43,0,0,0-18.17-59.46l22.79-15.3c11.41-7.67,15.13-22.73,8.32-33.65l-23.25-37.28c-6.82-10.94-21.63-13.62-33.08-6l-24,16a274.55,274.55,0,0,0-45.41-39.85l14-26c6.52-12.11,2.33-26.54-9.35-32.24l-39.9-19.45c-11.73-5.72-26.54-.52-33.09,11.61L2697,1372.63a293,293,0,0,0-60.73-10.76l-.44-29.66c-.2-13.4-11.31-23.36-24.83-22.26l-46.17,3.78c-13.56,1.11-24.41,12.9-24.21,26.34l.44,29.75a327.9,327.9,0,0,0-60.82,21l-15.34-24.33c-7-11.1-22.18-13.84-33.91-6.13l-40.07,26.35c-11.77,7.75-15.61,23-8.59,34.15l15.07,23.82a346.23,346.23,0,0,0-45.26,48.19l-25.13-12c-12-5.74-27.21-.41-33.92,11.9l-22.92,42c-6.73,12.34-2.41,27,9.64,32.69l24,11.38a319.49,319.49,0,0,0-17,63.69l-26.58,2.42C2246.46,1646.23,2235.42,1658.24,2235.62,1671.8Zm171.74,12c-1.51-101.68,80.73-191.36,183.12-200.26,101.76-8.85,185,65.55,186.5,166.11s-79.33,190.12-181.08,200.08C2493.53,1859.7,2408.86,1785.44,2407.36,1683.76Z" transform="translate(-428.85 -314.72)"/><path class="cls-17" d="M2534.58,2539.28A1672.9,1672.9,0,0,0,2361.82,3199l39,16.09c25.52-16.27,63-44.91,90.58-91.4,45.27-76.19,13.32-114.83,50.1-206.48,35.67-88.84,80.87-90.33,120-186.93,23.35-57.63,28.7-110,29.73-144.07Z" transform="translate(-428.85 -314.72)"/><path class="cls-18" d="M2606,2560.63c14.08,36.42,13,63.79,7.52,83.84-18.07,66.75-89.36,74-106.33,148.65-11.4,50.09,17.45,61.17,2.28,113.2-16.1,55.2-51.51,52.78-70.89,109.76-15.23,44.8,1,62.92-5.72,125.78a335.71,335.71,0,0,1-11.82,59.2c22.78-17.12,49.42-42.11,70.39-77.42,45.27-76.19,13.32-114.83,50.1-206.48,35.67-88.84,80.87-90.33,120-186.93,23.35-57.63,28.7-110,29.73-144.07Z" transform="translate(-428.85 -314.72)"/><path class="cls-19" d="M3106.13,3075.54s9.62,3.62,13.88,17.06-2.71,69.27-8.79,83-24,10.45-29.19,0,2.2-84.35,2.2-84.35Z" transform="translate(-428.85 -314.72)"/><path class="cls-20" d="M2540.3,2572.44a1211.27,1211.27,0,0,1,90.33,141.78c39.78,73.37,48.88,108.73,95.78,176.91,43.42,63.15,72.08,85.85,83.78,94.56,28.23,21,51.52,30.43,111.47,53.11q78.59,29.72,166.3,61.34c10.33,1.16,14.67-3.3,17.5-12.66-1-44.63-14.39-71.87-25.53-88-23.77-34.41-48.45-34.59-122-86.72-39.23-27.8-59.19-42.16-75.72-64.9-8-10.94-21-31.26-41.63-108-8.46-31.44-18.62-74-27.2-125.34Z" transform="translate(-428.85 -314.72)"/><path class="cls-21" d="M2294,1905.34s7.24-14.91-9.77-28.31-49.52-31.81-46.94-57.54c0,0,17.56,29.54,28.91,26.88a22.65,22.65,0,0,1,19,3.85s26.54,15.11,25.76,44.07l-.77,29Z" transform="translate(-428.85 -314.72)"/><path class="cls-22" d="M2808.54,1919s-12.8-7-16.52-16-3.77-22.88,8.89-30.2,15.43-14.76,20-20.7,15.05-8,15.05-8-18.8,34.68-21.06,40.37-11.39,6.47,0,22.75Z" transform="translate(-428.85 -314.72)"/><path class="cls-23" d="M2285.88,1898.64l29.87-4.8a247.37,247.37,0,0,1,29.32,59.57c20,60.15,4.66,93.84,16.56,130.21,9.75,29.79,39.59,66.92,131.21,94.33q-1,87.28-2,174.56c-37.56-5.58-98-20.48-155.8-64.79-33.47-25.66-69.73-53.48-83.18-101.19-17-60.21,8.17-131.58,18-159.51,5.64-16,16.56-43.09,18.4-81.81A238.51,238.51,0,0,0,2285.88,1898.64Z" transform="translate(-428.85 -314.72)"/><path class="cls-24" d="M2485.89,2175.81a406.86,406.86,0,0,0,126.13,5c88.79-10.47,153.15-48.06,186.46-71.1,36.38,79.38,37.14,138.23,30.74,177.77-4.73,29.14-11.9,38.91-12.54,71.52-1.09,54.91,18.54,63.23,27.77,134.58,7.59,58.74-3.32,71.54,13.82,96,12.3,17.55,28.64,26.24,38.35,53.67,3.22,9.08,11.22,31.68,2.71,39-13.63,11.74-47.47-34.81-110.63-41.16-33.68-3.38-38.83,8.37-73.75,1.72-38.11-7.27-35.46-21.94-71.17-29.16-35.4-7.16-46.15,5.61-100.34-.86-22.8-2.72-34.2-4.08-41.31-10.4-23-20.45-4-61.13.15-125.09,4.08-63.09-11.58-67.3-18-161.23A890.34,890.34,0,0,1,2485.89,2175.81Z" transform="translate(-428.85 -314.72)"/><path class="cls-25" d="M2792.14,1917.25l21.43-24a395.6,395.6,0,0,1,117.76,96.39c31.2,37.86,58.74,71.27,61.71,119.77,4.25,69.51-45,121.53-67.88,145.76-45.15,47.73-97.23,67.69-127,76.3-57.69-128-49.12-178.05-28.7-199.4,11.37-11.89,26.7-15.21,40.76-37.26,19.55-30.68,16.09-65.39,13.89-87.39C2820.05,1966.94,2804.21,1936,2792.14,1917.25Z" transform="translate(-428.85 -314.72)"/><path class="cls-26" d="M2618.92,2114c-1.64,8.72-2.65,27.53,8.88,42.47,10.09,13.08,25.52,17,31.7,18.69,14.94,4,23,.76,23.82,3.33,1.78,5.68-34.87,30.94-77.28,29.35-24.93-.92-50-11-49.78-19.06.29-9,32.28-8,40.22-26.58,5.08-11.9-1.92-26.55-9.51-38C2593.85,2116.26,2612,2122.05,2618.92,2114Z" transform="translate(-428.85 -314.72)"/><path class="cls-27" d="M2588.18,2106.24c-2.59-7.22.29-16.95,7.35-21.08,6.07-3.55,13.18-1.64,17.44-.5,12.37,3.31,25.92,13.83,27.79,26.24,1.11,7.36-9.8,17.53-11.61,19.42-2,2.13-4.49,2.18-7.14,3.37-3.66,1.64-9.41,4.28-18.85,8.77a49,49,0,0,0-.22-8.71,45.56,45.56,0,0,0-2.73-11.18C2596.34,2113,2590.64,2113.09,2588.18,2106.24Z" transform="translate(-428.85 -314.72)"/><path class="cls-28" d="M2615.24,2140.3a27.26,27.26,0,0,1-27.12,2c-13.67-6.31-6-36.66,4.92-39.47,3.65-.94,9.9.5,14.33,3.66,2.62,1.87,3.22,3.37,7.55,6.35,4,2.75,5.38,2.77,6.35,4.32,1.22,1.94,1.38,5.61-4.19,13.2,3.51-1.51,7-1.24,9,.65a5.52,5.52,0,0,1,1.31,2.44C2628.22,2137.65,2623.53,2140.7,2615.24,2140.3Z" transform="translate(-428.85 -314.72)"/><path class="cls-29" d="M2799.85,2571.29c-26.8-5.18-36.87,20.46-62.89,16-36.15-6.19-32.38-58.41-74.32-83.47-48-28.71-96.11,14.1-128.06-10.29-18.29-14-30.53-49.34-6.86-141.79.39-7.21,1.5-41.42-24-70.89-29-33.48-69.36-34.28-75.47-34.3-64.95,4-126.34-26.73-158.94-80a159.21,159.21,0,0,1-21-55.92c-3.25,24.68-3.37,51.24,3.59,75.93,13.45,47.71,49.71,75.53,83.18,101.19,56.17,43.08,114.82,58.33,152.55,64.27,7.27,60.42,18.16,71.42,14.68,125.26-4.14,64-23.14,104.64-.15,125.09,7.11,6.32,18.51,7.68,41.31,10.4,54.19,6.47,64.94-6.3,100.34.86,35.71,7.22,33.06,21.89,71.17,29.16,34.92,6.65,40.07-5.1,73.75-1.72,63.16,6.35,97,52.9,110.63,41.16,4.87-4.19,4.33-13.38,2.37-22.19-16.9-5.68-29-13.52-37.81-21.26C2833.78,2612.3,2829.8,2577.08,2799.85,2571.29Z" transform="translate(-428.85 -314.72)"/><path class="cls-30" d="M2037.1,2927.79c49.57,25.17,111.85,2.06,139.1-51.62s9.16-117.59-40.41-142.76c-2.57-1.3-5.19-2.4-7.82-3.45a628.9,628.9,0,0,0,20.81-89.58c2.84,0,5.69-.05,8.59-.31,56.56-5,101.44-57,100.26-116.08s-48-102.87-104.55-97.83c-3,.26-5.86.73-8.74,1.24a576.93,576.93,0,0,0-24.22-85.54c2.6-1.52,5.19-3.1,7.72-4.87,48.39-33.9,63.86-100.8,34.55-149.44s-92.28-60.58-140.67-26.68c-2.48,1.74-4.81,3.62-7.12,5.52a510.61,510.61,0,0,0-62.75-58.58c1.6-2.61,3.16-5.26,4.57-8,27.25-53.67,62.86-112.31,12.9-136.7-115.57-56.42-165.16-8.12-192.42,45.56-1.41,2.78-2.62,5.6-3.79,8.43a511.3,511.3,0,0,0-84.32-16.09c.18-3,.31-6,.25-9-1.18-59.06,16.34-91-40.43-92.13-123.79-2.41-165.56,51.32-164.38,110.39.07,3.09.32,6.11.63,9.1a577.43,577.43,0,0,0-83.35,30.93c-1.29-2.63-2.63-5.25-4.16-7.79-29.3-48.64-92.28-60.58-140.67-26.68s-63.86,100.81-34.55,149.44c1.5,2.5,3.14,4.83,4.81,7.12a628.42,628.42,0,0,0-60,69.67c-2.4-1.51-4.83-3-7.4-4.28-49.57-25.17-111.85-2.06-139.1,51.61s-9.16,117.6,40.41,142.77c2.57,1.3,5.2,2.39,7.82,3.44a629.22,629.22,0,0,0-20.81,89.58c-2.84,0-5.69.06-8.59.31-56.55,5-101.44,57-100.26,116.09s48,102.86,104.55,97.82c3-.26,5.86-.73,8.75-1.24a577.37,577.37,0,0,0,24.21,85.55c-2.6,1.52-5.19,3.09-7.72,4.86-48.38,33.9-63.85,100.81-34.55,149.44s126.32,71.23,174.71,37.33c2.48-1.73-29.23-14.26-26.92-16.16a511.31,511.31,0,0,0,62.75,58.57c-1.59,2.61-3.15,5.26-4.57,8-27.25,53.68-9.15,117.6,40.42,142.76s111.85,2.06,139.1-51.61c1.41-2.78,2.63-5.61,3.8-8.44a510.09,510.09,0,0,0,84.32,16.1c-.18,3-.32,6-.26,9,1.19,59.07,48,102.87,104.55,97.83s101.45-57,100.26-116.09c-.06-3.08-.32-6.1-.63-9.1a576.37,576.37,0,0,0,83.36-30.93c1.28,2.63,2.62,5.25,4.15,7.79,29.31,48.64,92.29,60.58,140.68,26.68s63.85-100.8,34.55-149.44c-1.5-2.49-3.15-4.82-4.82-7.12a628.16,628.16,0,0,0,60-69.66C2032.1,2925,2034.53,2926.48,2037.1,2927.79Zm-618,7.84c-180-91.38-245.67-323.45-146.73-518.33s325.07-278.79,505.05-187.41,245.68,323.44,146.73,518.33S1599.13,3027,1419.14,2935.63Z" transform="translate(-428.85 -314.72)"/><path class="cls-31" d="M2157.37,2640.07c56.56-5,101.44-57,100.26-116.08s-48-102.87-104.55-97.83c-2.95.26-5.86.73-8.74,1.24a577.28,577.28,0,0,0-24.22-85.54c2.6-1.52,5.19-3.1,7.72-4.87,48.39-33.9,108.25-115.81,74.11-161.18-64.79-86.11-131.84-48.84-180.23-14.94-2.48,1.74-4.81,3.61-7.12,5.52a510.61,510.61,0,0,0-62.75-58.58c1.6-2.61,3.16-5.26,4.57-8,14.83-29.21,16.14-61.42,6.35-88.8q-70.11,123.39-138.13,247.91c143.59,105.22,189.3,312.57,99.55,489.34-76,149.8-227.24,233.91-374.86,223.37-6.58,17.08-13,34.25-20.1,51.16-19.14,45.9-40.87,90.85-62.64,135.74q20.54,3.87,41.23,6.06c-.18,3-.32,6-.26,9,1.19,59.07,37,109.26,139.55,103.82,56.7-3,66.44-63,65.26-122.08-.06-3.08-.32-6.1-.62-9.1a577.87,577.87,0,0,0,83.35-30.93c1.28,2.63,2.62,5.25,4.15,7.79,29.31,48.64,131,69.3,179.35,35.4s25.18-109.52-4.12-158.16c-1.5-2.49-3.15-4.82-4.82-7.12a628.16,628.16,0,0,0,60-69.66c2.4,1.5,4.83,3,7.4,4.27,49.57,25.18,111.85,2.06,139.1-51.61s9.16-117.59-40.41-142.76c-2.57-1.31-5.19-2.4-7.82-3.45a629.22,629.22,0,0,0,20.81-89.58C2151.62,2640.37,2154.47,2640.33,2157.37,2640.07Z" transform="translate(-428.85 -314.72)"/><path class="cls-32" d="M2090.42,2933.85c49.57,25.17,111.85,2.06,139.1-51.62s9.16-117.59-40.41-142.76c-2.57-1.3-5.19-2.4-7.82-3.45a628.9,628.9,0,0,0,20.81-89.58c2.84,0,5.69-.05,8.59-.31,56.55-5,101.44-57,100.26-116.08s-48-102.87-104.55-97.83c-3,.27-5.86.73-8.75,1.25a577,577,0,0,0-24.21-85.55c2.6-1.52,5.19-3.09,7.72-4.86,48.38-33.9,63.85-100.81,34.55-149.45S2123.42,2133,2075,2166.93c-2.48,1.74-4.81,3.62-7.12,5.52a511.31,511.31,0,0,0-62.75-58.57c1.59-2.62,3.15-5.27,4.57-8.05,27.25-53.67,9.16-117.59-40.42-142.76s-111.85-2-139.1,51.62c-1.41,2.78-2.63,5.61-3.8,8.43a511.18,511.18,0,0,0-84.31-16.09c.17-3,.31-6,.25-9-1.19-59.07-48-102.87-104.55-97.83s-101.44,57-100.26,116.08c.06,3.09.32,6.11.63,9.11a574.65,574.65,0,0,0-83.35,30.93c-1.29-2.64-2.63-5.26-4.16-7.8-29.31-48.63-92.29-60.58-140.67-26.68s-63.86,100.81-34.56,149.45c1.5,2.49,3.15,4.82,4.82,7.12a628.16,628.16,0,0,0-60,69.66c-2.4-1.51-4.83-3-7.4-4.28-49.57-25.17-111.85-2.06-139.1,51.62s-9.16,117.59,40.41,142.76c2.57,1.3,5.19,2.4,7.82,3.45a628.9,628.9,0,0,0-20.81,89.58c-2.84,0-5.69.05-8.59.31-56.56,5-101.44,57-100.26,116.08s48,102.87,104.55,97.83c3-.27,5.86-.73,8.75-1.25a575.82,575.82,0,0,0,24.21,85.55c-2.6,1.52-5.19,3.09-7.72,4.87-48.39,33.89-63.86,100.8-34.55,149.44s92.28,60.57,140.67,26.68c2.48-1.74,4.81-3.62,7.12-5.52a509.76,509.76,0,0,0,62.75,58.57c-1.59,2.62-3.16,5.27-4.57,8-27.25,53.67-9.16,117.59,40.41,142.76s111.85,2.06,139.11-51.62c1.41-2.78,2.62-5.6,3.79-8.43a511.3,511.3,0,0,0,84.32,16.09c-.17,3-.31,6-.25,9,1.18,59.07,48,102.87,104.55,97.83s101.44-57,100.26-116.08c-.06-3.09-.32-6.11-.63-9.11a575.08,575.08,0,0,0,83.35-30.93c1.29,2.64,2.63,5.26,4.16,7.8,29.3,48.63,92.28,60.58,140.67,26.68s63.86-100.81,34.56-149.45c-1.51-2.49-3.15-4.82-4.82-7.12a629.22,629.22,0,0,0,60-69.66C2085.42,2931.08,2087.85,2932.55,2090.42,2933.85Zm-618,7.84c-180-91.38-245.68-323.44-146.73-518.33S1650.8,2144.57,1830.78,2236s245.67,323.45,146.73,518.33S1652.44,3033.07,1472.46,2941.69Z" transform="translate(-428.85 -314.72)"/><path class="cls-33" d="M715,1409l-2.42,73.75c-.71,21.64,16,38.38,37.3,37.39l38.71-1.79A467.91,467.91,0,0,0,810.47,1619l-32.69,20.38c-18.78,11.7-25.88,35.94-15.85,54.13l34.15,62c10,18.16,58.35,29,77.08,17.23l5.9-25a429.49,429.49,0,0,0,70.63,72.27l-17.9,30.74c-11.18,19.22-5.69,42.74,12.27,52.52l61.1,33.31c17.89,9.75,76,11.27,87.12-7.92l-17.43-38.7a436,436,0,0,0,100.09,22.58l-1.07,32.67c-.7,21.44,15.7,37.88,36.62,36.71l71.19-4c20.84-1.16,38.3-19.42,39-40.8l1.07-32.58a492.37,492.37,0,0,0,101-33.3l15,27.6c9.76,17.9,69.67,27.12,88,15.48l25-43.74c18.21-11.6,25.1-35.48,15.4-53.36l-15.55-28.64a542.07,542.07,0,0,0,73.7-78.72l28.88,16.07c17.45,9.71,69.14,14.67,80-4.23l8.26-76.81c10.84-18.87,5.53-42-11.87-51.79l-30.35-17a520.63,520.63,0,0,0,27.61-101.16l37.28-1.72c20.47-1,37.61-18.89,38.3-40.08l2.37-72.21c.69-21.19-15.32-37.64-35.79-36.75l-39.46,1.71a464.61,464.61,0,0,0-23.43-96.21L1742.2,1207c18.09-11.33,24.93-35.06,15.3-53l6.87-71.76c-9.66-18-71.94-12.9-90.08-1.59l-38,23.68a429.53,429.53,0,0,0-66.7-67.07L1593,996.92c10.91-18.8,5.57-42.14-11.94-52.14l-26-39.14c-17.56-10-74.43,2.11-85.39,21l-24.07,41.35a434.65,434.65,0,0,0-92.39-21.89l1.55-47.34c.7-21.38-15.6-38.13-36.44-37.42l-71.13,2.42c-20.91.71-38.44,18.67-39.14,40.11l-1.56,47.47A489.15,489.15,0,0,0,1111.52,980L1125.66,930c-9.91-18.24-68.85-13.71-87.44-2.32l-63.46,38.9C956.11,978,949.06,1002,959,1020.3l21.34,39.16a541,541,0,0,0-73.08,73.32l1.61-25.09c-18-10.08-81,1.23-92.24,20.35l-38.32,65.2c-11.25,19.15-5.72,42.83,12.34,52.88l36,20a523.58,523.58,0,0,0-30.81,100.24l-41,1.78C733.57,1369.08,715.72,1387.37,715,1409Zm181.2,36.13c6.84-208.65,177.8-384.3,380.73-392.28,201.7-7.94,358.83,153,352.06,359.31s-174.92,381.88-376.69,392.1C1049.31,1814.54,889.38,1653.78,896.21,1445.13Z" transform="translate(-428.85 -314.72)"/><path class="cls-6" d="M762.69,1408.38l-2.42,73.75c-.71,21.63,16,38.37,37.29,37.38l38.72-1.79a466.59,466.59,0,0,0,21.87,100.6l-32.7,20.38c-18.78,11.7-25.88,35.94-15.85,54.14l34.16,62c10,18.17,33.31,23.36,52,11.64l30.94-19.38a429.76,429.76,0,0,0,70.62,72.26l-17.89,30.74c-11.18,19.22-5.69,42.74,12.26,52.53l61.1,33.3c17.9,9.76,41.42,2.1,52.55-17.08l17.14-29.54a436.27,436.27,0,0,0,100.09,22.58l-1.07,32.68c-.7,21.44,15.7,37.87,36.62,36.71l71.19-4c20.85-1.16,38.3-19.43,39-40.81l1.07-32.58a491.86,491.86,0,0,0,101-33.3l15,27.6c9.75,17.91,32.48,23,50.76,11.35l62.19-39.61c18.22-11.6,25.11-35.48,15.4-53.36l-15.55-28.63a542.55,542.55,0,0,0,73.7-78.72l28.89,16.06c17.45,9.71,40.4,2.25,51.26-16.66l37-64.38c10.85-18.87,5.54-42-11.86-51.79l-30.36-17a520.94,520.94,0,0,0,27.62-101.17l37.27-1.72c20.47-1,37.61-18.89,38.31-40.07l2.36-72.22c.7-21.18-15.32-37.64-35.78-36.75l-39.47,1.72a464.53,464.53,0,0,0-23.42-96.22l36.12-22.62c18.09-11.34,24.94-35.06,15.3-53l-32.88-61.24c-9.66-18-32.18-23.41-50.32-12.11l-38,23.69a429.59,429.59,0,0,0-66.7-67.08l23.42-40.35c10.91-18.8,5.56-42.14-12-52.13L1569,910c-17.56-10-40.69-2.9-51.66,15.94l-24.06,41.35a434.93,434.93,0,0,0-92.39-21.89l1.55-47.34c.7-21.38-15.61-38.13-36.44-37.42l-71.14,2.42c-20.9.72-38.43,18.67-39.14,40.11l-1.55,47.47a489,489,0,0,0-94.92,28.75l-21.72-40c-9.9-18.24-33-23.8-51.58-12.41l-63.47,38.89c-18.65,11.43-25.7,35.51-15.74,53.78l21.33,39.15a541.56,541.56,0,0,0-73.08,73.32l-37.66-21.08c-18-10.08-41.73-2.78-53,16.34L826,1192.61c-11.26,19.15-5.73,42.83,12.34,52.88l36,20a522.77,522.77,0,0,0-30.81,100.23l-41,1.78C781.25,1368.45,763.39,1386.74,762.69,1408.38Zm165.66,36.82c7.12-217.5,185.34-400.6,396.87-408.92,210.26-8.28,374,159.44,367,374.55s-182.34,398.09-392.67,408.74C1087.93,1830.28,921.22,1662.7,928.35,1445.2Z" transform="translate(-428.85 -314.72)"/><g class="cls-34"><path class="cls-35" d="M1754.09,1567.08l30.1-8s14.17-27.45,34.08-23,37.63,20.76,54,15.25,32.31-14.24,40.72-12.75-18.59,19.19-18.59,19.19,27-18.59,37.18-15.94-38.07,26.12-49.58,33.2-54.88,1-70.82,1.81-59.75,15-59.75,15Z" transform="translate(-428.85 -314.72)"/><path class="cls-36" d="M1765.9,1555.47l-5.31,39.4a472.56,472.56,0,0,1-109.91,83.77c-54.82,30.17-179.77,98.94-281.16,44.37-77.32-41.62-103-134.48-112.65-169.84-8.87-32.71-17-61.78-8.85-93.84,17.86-70.12-23.7-112.58,86.07-125.56,92.72,50.51,83.43,154,122.82,192.73,31,30.44,86.57,33.09,110.22,34.23,35.17,1.71,49.4-5.64,96.62-8.68A522.74,522.74,0,0,1,1765.9,1555.47Z" transform="translate(-428.85 -314.72)"/><g class="cls-37"><path class="cls-38" d="M1328.67,1581.48c31.24,12.2,58.48-6.06,97.17,16.78,48.93,28.89,43.43,80.57,80.27,90.84,30.07,8.38,55.21-20.06,99.44-48.66,34.3-22.18,85-47.61,157.27-62.14q-1.11,8.29-2.23,16.57a472.56,472.56,0,0,1-109.91,83.77c-54.82,30.17-179.77,98.94-281.16,44.37-77.32-41.62-103-134.48-112.65-169.84-8.87-32.71-17-61.78-8.85-93.84a114.8,114.8,0,0,1,10-25.63C1270.85,1535.58,1300.63,1570.52,1328.67,1581.48Z" transform="translate(-428.85 -314.72)"/></g><path class="cls-39" d="M967.94,1805.34c-.69-33.84-2.51-220.57,87.9-354.85,20.72-30.78,57.39-85.23,127.78-121.26A300.84,300.84,0,0,1,1252.8,1304l60.22,9a366.22,366.22,0,0,1,68.37,83.83c14.59,24.6,38.74,65.32,44.34,117.89,6.52,61.25-17.83,85.4-37.83,180.8a756.72,756.72,0,0,0-15.46,123.71l-208.36,17.9a977.15,977.15,0,0,0-9.76-109,980.85,980.85,0,0,0-22.79-110.69,843.89,843.89,0,0,0-25.23,223c-8.44,3.33-55.94,21.13-101.73-3.26A110.84,110.84,0,0,1,967.94,1805.34Z" transform="translate(-428.85 -314.72)"/><path class="cls-40" d="M1294.73,1240.39c59.27-8,88.91-12,108.88-28.13,43.63-35.15,53.15-99.38,45.23-144.6-11.11-63.46-59.12-104.09-89.51-129.8-39-33-48-24.57-62.77-45.52-40.89-57.91,25.83-124.92,11.08-216.73-16.28-101.29-120.23-161-147.1-175.12-143.18-75-286.66.91-301.23,8.93-135,74.33-188.25,231.05-170.46,351,5.08,34.29,18.1,122,77.79,150.6,57.48,27.55,109.44-23.1,190.66,13.08,11.35,5.06,45.74,20.38,72.43,55.22,30.15,39.34,22,66.44,55.12,106.86,26.84,32.76,58.69,47.31,65.11,50.14C1190.32,1254.06,1225.68,1249.74,1294.73,1240.39Z" transform="translate(-428.85 -314.72)"/><g class="cls-37"><path class="cls-41" d="M829.81,527.86c-92.35,119.27-106.36,174-88.86,197.62,24.49,33,104.79-2.88,145.2,45.2,36.35,43.24-6.1,99.06,27.86,137.81,42.93,49,131.85-16.15,191.9,28.09,71.47,52.66,2.43,186.86,72.56,260.92,21.24,22.43,57.56,41.72,123.55,41.9l-7.29,1c-69,9.35-104.41,13.67-144.77-4.12-6.42-2.83-38.27-17.38-65.11-50.14-33.1-40.42-25-67.52-55.12-106.86-26.69-34.84-61.08-50.16-72.43-55.22-81.22-36.18-133.18,14.47-190.66-13.08-59.69-28.6-72.71-116.31-77.79-150.6C672.42,749.63,716.63,607.49,829.81,527.86Z" transform="translate(-428.85 -314.72)"/></g><path class="cls-42" d="M1303.08,1213.4s1.69,43.49,0,72.69c-1.24,21.38,17.24,33.55,17.24,33.55s10.15,17.39-44.73,20.3-108.3,0-108.3,0,53.66-35.69,65.92-45.18,18.84-80.39,11-125.31Z" transform="translate(-428.85 -314.72)"/><path class="cls-43" d="M1386.7,1156.16s-11.33,72-32.7,106.66-57.83,39.71-71,19.87-18.81-72.91-18.81-72.91-9.67,7.44-17.85-10.92,14.74-79.35,32.72-47.06c0,0,5-18,25.36-36S1402.46,1112.36,1386.7,1156.16Z" transform="translate(-428.85 -314.72)"/><g class="cls-37"><path class="cls-44" d="M1085.14,1718.9c24.21-38-12.71-70.93,3-131.06,13.39-51.31,57-91.37,73-84.89,22.13,9-21.35,101.47,22.34,144.47,29,28.54,66.82,6.11,105.75,31.27,25.67,16.59,51.46,53.67,53.48,143l-178.58,15.34a977.15,977.15,0,0,0-9.76-109,980.85,980.85,0,0,0-22.79-110.69,842.74,842.74,0,0,0-25.23,223c-8.44,3.33-55.94,21.13-101.74-3.26-2.55-1.36-5-2.79-7.28-4.27,1.17-19.71,6.23-42.24,20.84-61.78C1041.85,1739.27,1067.62,1746.39,1085.14,1718.9Z" transform="translate(-428.85 -314.72)"/></g><path class="cls-45" d="M1958.14,1346.87c0-50.55-43-91.53-96.12-91.53s-96.12,41-96.12,91.53c0,30.67,15.85,57.82,40.18,74.43a37.74,37.74,0,0,1,16.58,31.15v7a27.55,27.55,0,0,0,27.55,27.56h23.62a27.56,27.56,0,0,0,27.55-27.56v-7A37.74,37.74,0,0,1,1918,1421.3C1942.29,1404.69,1958.14,1377.54,1958.14,1346.87Z" transform="translate(-428.85 -314.72)"/><path class="cls-46" d="M1883.34,1527.82c0,6.23-9.55,11.29-21.32,11.29s-21.32-5.06-21.32-11.29,9.54-11.29,21.32-11.29S1883.34,1521.58,1883.34,1527.82Z" transform="translate(-428.85 -314.72)"/><path class="cls-47" d="M1833.69,1507.65v11.53a10.13,10.13,0,0,0,5.74,9.15c4.89,2.33,13,4.89,24.82,4.59,9.58-.25,15.83-1.81,19.8-3.46a10.28,10.28,0,0,0,6.3-9.53v-6.38Z" transform="translate(-428.85 -314.72)"/><path class="cls-48" d="M1833.69,1517.75a11.15,11.15,0,0,0,3,2.09c5.48,2.61,41.39,8.45,50.06,5.2a11.78,11.78,0,0,0,3-1.67,10.45,10.45,0,0,0,.59-3.44v-6.38l-56.66-5.9Z" transform="translate(-428.85 -314.72)"/><path class="cls-49" d="M1836.2,1499.81a5.4,5.4,0,0,0-6,5.38v.32a11.35,11.35,0,0,0,6.44,10.27c5.48,2.62,41.39,8.46,50.06,5.2a10.46,10.46,0,0,0,7.06-10v-.26a5.41,5.41,0,0,0-4.85-5.38Z" transform="translate(-428.85 -314.72)"/><path class="cls-50" d="M1889,1505.3l-52.75-5.49a5.37,5.37,0,0,0-5,2.38,11.3,11.3,0,0,0,5.53,5.79c5.48,2.62,42.92,9.22,50.06,5.86a12.43,12.43,0,0,0,6.12-6.2A5.39,5.39,0,0,0,1889,1505.3Z" transform="translate(-428.85 -314.72)"/><path class="cls-51" d="M1834.14,1481.13a3.9,3.9,0,0,0-3.9,3.9v9a11.35,11.35,0,0,0,6.44,10.27c5.48,2.62,42.92,9.22,50.06,5.86a11.92,11.92,0,0,0,7.06-10.7V1485a3.91,3.91,0,0,0-3.9-3.9Z" transform="translate(-428.85 -314.72)"/><path class="cls-52" d="M1893,1483.94c0,4-13.87,7.33-31,7.33s-31-3.28-31-7.33,13.88-7.33,31-7.33S1893,1479.89,1893,1483.94Z" transform="translate(-428.85 -314.72)"/><path class="cls-53" d="M1958.14,1346.87c0-50.55-43-91.53-96.12-91.53s-96.12,41-96.12,91.53c0,30.67,15.85,57.82,40.18,74.43a37.74,37.74,0,0,1,16.58,31.15v7a27.55,27.55,0,0,0,27.55,27.56h23.62a27.56,27.56,0,0,0,27.55-27.56v-7A37.74,37.74,0,0,1,1918,1421.3C1942.29,1404.69,1958.14,1377.54,1958.14,1346.87Z" transform="translate(-428.85 -314.72)"/><path class="cls-54" d="M1884.7,1478.16c0,3-10.16,5.36-22.68,5.36s-22.68-2.4-22.68-5.36,10.15-5.36,22.68-5.36S1884.7,1475.2,1884.7,1478.16Z" transform="translate(-428.85 -314.72)"/><path class="cls-55" d="M1856.11,1481.44a1.31,1.31,0,0,1-1.3-1.14l-16.69-129.76a1.31,1.31,0,1,1,2.6-.33L1857.41,1480a1.32,1.32,0,0,1-1.13,1.47Z" transform="translate(-428.85 -314.72)"/><path class="cls-56" d="M1866.47,1481.44h-.17a1.31,1.31,0,0,1-1.13-1.47l16.69-129.75a1.31,1.31,0,1,1,2.6.33l-16.69,129.76A1.31,1.31,0,0,1,1866.47,1481.44Z" transform="translate(-428.85 -314.72)"/><path class="cls-57" d="M1880.06,1350.43a1.3,1.3,0,0,1-1.1-.59l-4.6-7a.24.24,0,0,0-.19-.11.26.26,0,0,0-.18.11l-3,5.1a2.83,2.83,0,0,1-4.79.11l-4.18-6.26a.21.21,0,0,0-.18-.1c-.09,0-.13,0-.17.1l-3.67,5.3a2.84,2.84,0,0,1-2.32,1.22h0a2.85,2.85,0,0,1-2.33-1.22l-5.28-7.57a.26.26,0,0,0-.19-.1.21.21,0,0,0-.18.11l-4.82,8.33a1.31,1.31,0,0,1-2.27-1.31l4.83-8.33a2.83,2.83,0,0,1,4.78-.2l5.28,7.57a.21.21,0,0,0,.18.1h0a.23.23,0,0,0,.18-.09l3.66-5.31a2.84,2.84,0,0,1,4.7,0l4.17,6.26c.05.07.12.13.19.1a.18.18,0,0,0,.17-.11l3-5.09a2.83,2.83,0,0,1,4.81-.1l4.6,7a1.32,1.32,0,0,1-.37,1.82A1.34,1.34,0,0,1,1880.06,1350.43Z" transform="translate(-428.85 -314.72)"/><path class="cls-58" d="M1863.76,1419.06c2.06-35.28,61.53-43.54,61.28-75-.16-19.4-23.79-33.81-28.84-36.7-37.18-21.26-83,3.29-92.4-14.09-2.35-4.33-1.25-9-.62-11.72a25.12,25.12,0,0,1,6.29-11.28c-26.24,16.34-43.57,44.56-43.57,76.64,0,30.67,15.85,57.82,40.18,74.43a37.74,37.74,0,0,1,16.58,31.15v7a27.55,27.55,0,0,0,27.55,27.56h23.62a27.56,27.56,0,0,0,27.55-27.56v-5.59a18.1,18.1,0,0,1-11.08,4.19C1876.1,1457.93,1862.74,1436.61,1863.76,1419.06Z" transform="translate(-428.85 -314.72)"/><ellipse class="cls-59" cx="1434.7" cy="1035.71" rx="82.71" ry="79.77"/></g></g></g></svg>