<svg id="Layer_1" data-name="Layer 1" xmlns="http://www.w3.org/2000/svg" viewBox="0 0 164.46 301.41"><defs><style>.cls-1{fill:#fff;}</style></defs><title>mouse-click</title><path class="cls-1" d="M931.07,493.39a8,8,0,0,0,.82-.23,6,6,0,0,0,1.67-.43,12.49,12.49,0,0,0-4.74-24.05,13.19,13.19,0,0,0-3,.38c-2.54.69-5.19,1.5-8.09,2.47l-2.08.71c-2.19.77-4.32,1.58-6.41,2.44l-.35.15c-.3.11-.59.23-.82.33-2.3,1-4.55,2-6.92,3.22l-1.63.84c-1.78.94-3.51,1.89-5.21,2.9l-1.39.81c-2,1.23-4,2.51-5.86,3.82l-1.08.79c-1.54,1.09-3,2.22-4.43,3.35L880.12,492c-1.68,1.38-3.31,2.79-5,4.33l-.35.34q-2.1,2-4,4l-1.11,1.18c-1.27,1.36-2.5,2.74-3.61,4.07l-.4.46c-1.25,1.51-2.43,3-3.57,4.56l-.89,1.22c-.9,1.24-1.76,2.49-2.65,3.83l-.55.82c-1,1.51-1.91,3-2.9,4.73-.19.33-.38.65-.49.86-.69,1.2-1.34,2.38-1.92,3.5l-.62,1.18c-.73,1.43-1.42,2.84-2.08,4.27l-.36.81c-.53,1.16-1,2.31-1.47,3.4l-.5,1.2c-.51,1.28-1,2.53-1.44,3.75a2.83,2.83,0,0,0-.11.31c-.14.38-.28.75-.4,1.12H837A60.18,60.18,0,0,0,776.86,602V710h0A60.2,60.2,0,0,0,837,770.09h35.19A60.17,60.17,0,0,0,932.24,710V602a60.16,60.16,0,0,0-59-60.07A91.64,91.64,0,0,1,931.07,493.39ZM920.34,710a48.26,48.26,0,0,1-48.19,48.19H837a48.28,48.28,0,0,1-48.2-48.2V649.93H920.34ZM858.63,545.8a6,6,0,0,0,5.56,8.06h8A48.24,48.24,0,0,1,920.34,602v36H788.76v-36A48.26,48.26,0,0,1,837,553.86H850a6,6,0,0,0,5.69-4.19c.48-1.56,1-3.17,1.61-4.9l0-.07,0-.11c.39-1.09.82-2.21,1.28-3.33l.45-1.11c.41-1,.86-2,1.33-3.08l.32-.72c.59-1.26,1.21-2.53,1.87-3.83l.55-1c.54-1.05,1.13-2.1,1.81-3.31l.5-.86c.76-1.32,1.58-2.65,2.48-4l.5-.76c.76-1.12,1.54-2.26,2.33-3.36l.81-1.1c1-1.36,2-2.71,3.12-4l.38-.44q1.53-1.83,3.23-3.64l1-1.08c1.14-1.2,2.33-2.38,3.66-3.64l.33-.32c1.37-1.28,2.83-2.53,4.32-3.76.39-.32.78-.63,1.21-1,1.26-1,2.56-2,4-3l1-.7c1.65-1.16,3.4-2.29,5.18-3.38l1.29-.76c1.52-.89,3.07-1.75,4.89-2.7l1.26-.66c2.11-1.06,4.14-2,6.27-2.91l1-.41c1.87-.77,3.81-1.51,5.76-2.2l2-.67c2.66-.89,5.08-1.63,7.35-2.23a.61.61,0,0,1,.59.6.55.55,0,0,1-.16.4l-1.24.32A104,104,0,0,0,858.63,545.8Z" transform="translate(-776.86 -468.68)"/><path class="cls-1" d="M854.52,561.61a19.15,19.15,0,0,0-19.06,19.09v35.21a19.1,19.1,0,0,0,38.19,0v-35.2h0a19.15,19.15,0,0,0-18.79-19.08Zm7.24,19.12V615.9a7.2,7.2,0,0,1-14.4,0v-35.2a7.23,7.23,0,0,1,7-7.2h.18A7.25,7.25,0,0,1,861.76,580.73Z" transform="translate(-776.86 -468.68)"/></svg>