<svg xmlns="http://www.w3.org/2000/svg" xmlns:xlink="http://www.w3.org/1999/xlink" viewBox="0 0 2833.97 2800"><defs><style>.cls-1{fill:url(#linear-gradient);}.cls-2{fill:#fe8794;}.cls-3{isolation:isolate;}.cls-4{fill:#f4f7fa;}.cls-14,.cls-18,.cls-20,.cls-5{mix-blend-mode:soft-light;}.cls-6{clip-path:url(#clip-path);}.cls-7{fill:#fcfdfe;}.cls-8{clip-path:url(#clip-path-2);}.cls-9{fill:url(#linear-gradient-3);}.cls-10{fill:url(#linear-gradient-4);}.cls-11{fill:url(#linear-gradient-5);}.cls-12{fill:#d8dee8;}.cls-13,.cls-14,.cls-18{fill:#fff;}.cls-14{opacity:0.48;}.cls-15{fill:url(#linear-gradient-6);}.cls-16,.cls-28,.cls-37,.cls-41,.cls-52{opacity:0.3;}.cls-16,.cls-28,.cls-30,.cls-37,.cls-41,.cls-52{mix-blend-mode:multiply;}.cls-16{fill:url(#linear-gradient-7);}.cls-17{fill:url(#linear-gradient-8);}.cls-18{opacity:0.74;}.cls-19{fill:url(#linear-gradient-9);}.cls-20{opacity:0.5;}.cls-21{fill:url(#linear-gradient-10);}.cls-22{fill:url(#linear-gradient-11);}.cls-23{fill:url(#linear-gradient-12);}.cls-24{fill:url(#linear-gradient-13);}.cls-25{fill:url(#linear-gradient-14);}.cls-26{fill:url(#linear-gradient-15);}.cls-27{fill:url(#linear-gradient-16);}.cls-28{fill:url(#linear-gradient-17);}.cls-29{fill:url(#linear-gradient-18);}.cls-30{opacity:0.4;fill:url(#linear-gradient-19);}.cls-31{fill:url(#linear-gradient-20);}.cls-32{fill:url(#linear-gradient-21);}.cls-33{fill:url(#linear-gradient-22);}.cls-34{fill:url(#linear-gradient-23);}.cls-35{fill:url(#linear-gradient-24);}.cls-36{fill:url(#linear-gradient-25);}.cls-37{fill:url(#linear-gradient-26);}.cls-38{fill:url(#linear-gradient-27);}.cls-39{fill:url(#linear-gradient-28);}.cls-40{fill:url(#linear-gradient-29);}.cls-41{fill:url(#linear-gradient-30);}.cls-42{fill:url(#linear-gradient-31);}.cls-43{fill:url(#linear-gradient-32);}.cls-44{fill:url(#linear-gradient-33);}.cls-45{fill:url(#linear-gradient-34);}.cls-46{fill:url(#linear-gradient-35);}.cls-47{fill:url(#linear-gradient-36);}.cls-48{fill:url(#linear-gradient-37);}.cls-49{fill:url(#linear-gradient-38);}.cls-50{fill:url(#linear-gradient-39);}.cls-51{fill:url(#linear-gradient-40);}.cls-52{fill:url(#linear-gradient-41);}</style><linearGradient id="linear-gradient" x1="1385.34" y1="572.37" x2="2035.58" y2="4729.25" gradientUnits="userSpaceOnUse"><stop offset="0" stop-color="#e38ddd"/><stop offset="1" stop-color="#9571f6"/></linearGradient><clipPath id="clip-path" transform="translate(-435.48 -455)"><path class="cls-1" d="M1877.86,2663.52c23,1.32,74.27-16.1,85.76-26.16,76.44-66.88,227.7-182.82,241.3-289.33,2.32-18.19-75-50-83.12-68.64-44.34-32.24-61.72-40.68-88.81-92-80-151.63,205.55-354.44-56.14-493.78-191.69-102.06-376.91-64.23-295.57-376.3s-61.1-935.38-436.43-777.57c-215.41,90.57-71.43,396-207.3,575.81-129.11,170.85-78.38,341,100.58,491.76s55.66,217.58-36.19,385.74c-110.34,202,213.45,302.33,366.88,335.89C1592.37,2355.93,1888.75,2508.11,1877.86,2663.52Z"/></clipPath><clipPath id="clip-path-2" transform="translate(-435.48 -455)"><path class="cls-2" d="M1867.68,2795.76c21.88-7.28,63-42.42,70-56,46.3-90.41,144-254.05,117.22-358.05-4.57-17.76-88.12-18.75-102.6-33-53.12-13.57-72.38-15-116.55-52.68-130.39-111.31,60-405.32-234.72-438-215.85-24-374,79.67-413.76-240.37s-402.59-846.5-693-561.11c-166.65,163.79,80.05,394.36,20.28,611.65C457.78,1874.6,567.83,2014,789.84,2087.85s132.16,181.59,109,371.79c-27.83,228.48,310.1,202,465.07,176.45C1488.69,2615.52,1820.34,2647.34,1867.68,2795.76Z"/></clipPath><linearGradient id="linear-gradient-3" x1="1690.92" y1="3132.95" x2="1498.93" y2="3213.59" gradientUnits="userSpaceOnUse"><stop offset="0" stop-color="#40447e"/><stop offset="1" stop-color="#3c3b6b"/></linearGradient><linearGradient id="linear-gradient-4" x1="1378.54" y1="2279.44" x2="1179.48" y2="2363.05" xlink:href="#linear-gradient-3"/><linearGradient id="linear-gradient-5" x1="536.65" y1="2327.64" x2="2350.7" y2="2327.64" xlink:href="#linear-gradient-3"/><linearGradient id="linear-gradient-6" x1="536.65" y1="3048.19" x2="3269.45" y2="3048.19" xlink:href="#linear-gradient-3"/><linearGradient id="linear-gradient-7" x1="369.17" y1="2570.59" x2="2371.47" y2="2570.59" xlink:href="#linear-gradient-3"/><linearGradient id="linear-gradient-8" x1="2194.84" y1="762.7" x2="574.39" y2="4003.6" gradientUnits="userSpaceOnUse"><stop offset="0" stop-color="#aa80f9"/><stop offset="1" stop-color="#6165d7"/></linearGradient><linearGradient id="linear-gradient-9" x1="1493.99" y1="661.49" x2="1775.55" y2="1787.73" xlink:href="#linear-gradient-8"/><linearGradient id="linear-gradient-10" x1="1041.18" y1="2134.1" x2="1041.18" y2="1784.61" xlink:href="#linear-gradient-8"/><linearGradient id="linear-gradient-11" x1="1046.29" y1="2411.82" x2="1046.29" y2="2062.32" xlink:href="#linear-gradient-8"/><linearGradient id="linear-gradient-12" x1="2258.47" y1="1192.34" x2="1861.04" y2="1319.89" gradientUnits="userSpaceOnUse"><stop offset="0" stop-color="#fcb148"/><stop offset="0.05" stop-color="#fdba46"/><stop offset="0.14" stop-color="#ffc244"/><stop offset="0.32" stop-color="#ffc444"/><stop offset="0.48" stop-color="#fdb946"/><stop offset="0.78" stop-color="#f99c4d"/><stop offset="0.87" stop-color="#f8924f"/><stop offset="1" stop-color="#f8924f"/></linearGradient><linearGradient id="linear-gradient-13" x1="2579.97" y1="796.73" x2="2225.17" y2="1579.5" gradientUnits="userSpaceOnUse"><stop offset="0" stop-color="#ffdb44"/><stop offset="1" stop-color="#feef06"/></linearGradient><linearGradient id="linear-gradient-14" x1="2514.7" y1="1623.24" x2="2446.24" y2="1249.25" xlink:href="#linear-gradient-12"/><linearGradient id="linear-gradient-15" x1="2369.55" y1="1017.89" x2="2651.69" y2="1616.81" xlink:href="#linear-gradient-12"/><linearGradient id="linear-gradient-16" x1="2358.31" y1="889.01" x2="2500.18" y2="1420.7" xlink:href="#linear-gradient-13"/><linearGradient id="linear-gradient-17" x1="2286.55" y1="1056.65" x2="2568.12" y2="1654.36" xlink:href="#linear-gradient-12"/><linearGradient id="linear-gradient-18" x1="2012.43" y1="1249.67" x2="2482.03" y2="606.08" gradientUnits="userSpaceOnUse"><stop offset="0" stop-color="#311944"/><stop offset="1" stop-color="#893976"/></linearGradient><linearGradient id="linear-gradient-19" x1="2391.48" y1="933.27" x2="2561.29" y2="700.54" xlink:href="#linear-gradient-18"/><linearGradient id="linear-gradient-20" x1="2252.18" y1="1608.43" x2="2388.49" y2="1747.17" gradientUnits="userSpaceOnUse"><stop offset="0" stop-color="#ffc444"/><stop offset="1" stop-color="#f36f56"/></linearGradient><linearGradient id="linear-gradient-21" x1="2590.06" y1="2926.36" x2="2588.91" y2="2618.56" xlink:href="#linear-gradient-8"/><linearGradient id="linear-gradient-22" x1="-501.52" y1="3009.54" x2="-499.61" y2="2849.82" gradientTransform="translate(3360.93 65.44) rotate(4.58)" xlink:href="#linear-gradient-20"/><linearGradient id="linear-gradient-23" x1="2771.53" y1="2925.68" x2="2770.38" y2="2617.88" xlink:href="#linear-gradient-8"/><linearGradient id="linear-gradient-24" x1="-316.83" y1="3011.73" x2="-314.93" y2="2852.02" gradientTransform="translate(3360.93 65.44) rotate(4.58)" xlink:href="#linear-gradient-20"/><linearGradient id="linear-gradient-25" x1="2626.12" y1="2223.85" x2="2738.94" y2="2800.65" xlink:href="#linear-gradient-18"/><linearGradient id="linear-gradient-26" x1="-593.59" y1="2495.88" x2="-423.54" y2="2495.88" gradientTransform="translate(3360.93 65.44) rotate(4.58)" xlink:href="#linear-gradient-18"/><linearGradient id="linear-gradient-27" x1="-497.59" y1="2520.17" x2="-239.44" y2="2520.17" gradientTransform="translate(3360.93 65.44) rotate(4.58)" xlink:href="#linear-gradient-18"/><linearGradient id="linear-gradient-28" x1="2460.32" y1="1688.46" x2="2650.7" y2="2911.12" xlink:href="#linear-gradient-20"/><linearGradient id="linear-gradient-29" x1="-257.21" y1="2995.21" x2="-66.83" y2="4217.87" gradientTransform="translate(3360.93 65.44) rotate(4.58)" xlink:href="#linear-gradient-20"/><linearGradient id="linear-gradient-30" x1="21.22" y1="2550.81" x2="-554.91" y2="1723.69" gradientTransform="translate(3360.93 65.44) rotate(4.58)" xlink:href="#linear-gradient-20"/><linearGradient id="linear-gradient-31" x1="2998.12" y1="2007.89" x2="2890.94" y2="2152.68" xlink:href="#linear-gradient-20"/><linearGradient id="linear-gradient-32" x1="-34.3" y1="2960.5" x2="156.08" y2="4183.17" gradientTransform="translate(3360.93 65.44) rotate(4.58)" xlink:href="#linear-gradient-20"/><linearGradient id="linear-gradient-33" x1="-2469.03" y1="3299.21" x2="-2469.03" y2="3134.51" gradientTransform="matrix(0.78, 0.63, -0.63, 0.78, 6685.31, 622.2)" xlink:href="#linear-gradient-20"/><linearGradient id="linear-gradient-34" x1="-464.24" y1="1576.64" x2="-533.12" y2="1401.67" gradientTransform="translate(3360.93 65.44) rotate(4.58)" gradientUnits="userSpaceOnUse"><stop offset="0" stop-color="#444b8c"/><stop offset="1" stop-color="#3e4177"/></linearGradient><linearGradient id="linear-gradient-35" x1="-2585.45" y1="3251.75" x2="-2508.45" y2="3102.02" gradientTransform="matrix(0.78, 0.63, -0.63, 0.78, 6685.31, 622.2)" xlink:href="#linear-gradient-20"/><linearGradient id="linear-gradient-36" x1="1852.21" y1="1639.77" x2="1570.44" y2="1730.19" xlink:href="#linear-gradient-12"/><linearGradient id="linear-gradient-37" x1="2080.15" y1="1359.29" x2="1828.6" y2="1914.25" xlink:href="#linear-gradient-13"/><linearGradient id="linear-gradient-38" x1="2033.88" y1="1945.27" x2="1985.34" y2="1680.11" xlink:href="#linear-gradient-12"/><linearGradient id="linear-gradient-39" x1="1930.97" y1="1516.09" x2="2131" y2="1940.71" xlink:href="#linear-gradient-12"/><linearGradient id="linear-gradient-40" x1="1923" y1="1424.72" x2="2023.58" y2="1801.67" xlink:href="#linear-gradient-13"/><linearGradient id="linear-gradient-41" x1="1872.12" y1="1543.57" x2="2071.75" y2="1967.33" xlink:href="#linear-gradient-12"/></defs><title>passive-earning</title><g class="cls-3"><g id="Illustration"><path class="cls-4" d="M3203,1602.16c-55.37-362.42-99.83-612.89-299.77-750.14-337.26-231.5-713.91,144.32-1191.65-107.86C1476.32,620,1467.5,476,1268.29,456.93c-352.45-33.8-641.09,386.81-666.1,422.88C450.2,1099,399.43,1366.22,461.05,1621c40,165.49,67.06,336.75,59.63,506.8-12.91,295.95-5.48,572.19,281.73,748.68,256.44,157.59,579.18,296.58,887.08,320.92,209.24,16.55,443.9-10.22,645.57-64.7C3362.83,2855.07,3279.09,2100.48,3203,1602.16Z" transform="translate(-435.48 -455)"/><g class="cls-5"><path class="cls-1" d="M1877.86,2663.52c23,1.32,74.27-16.1,85.76-26.16,76.44-66.88,227.7-182.82,241.3-289.33,2.32-18.19-75-50-83.12-68.64-44.34-32.24-61.72-40.68-88.81-92-80-151.63,205.55-354.44-56.14-493.78-191.69-102.06-376.91-64.23-295.57-376.3s-61.1-935.38-436.43-777.57c-215.41,90.57-71.43,396-207.3,575.81-129.11,170.85-78.38,341,100.58,491.76s55.66,217.58-36.19,385.74c-110.34,202,213.45,302.33,366.88,335.89C1592.37,2355.93,1888.75,2508.11,1877.86,2663.52Z" transform="translate(-435.48 -455)"/><g class="cls-6"><path class="cls-7" d="M2079.75,2501.24l2.93-3.93C1476.48,2046.68,1203.34,1285.23,1352,460.43l-4.83-.87c-70.46,390.89-44.75,782.46,74.35,1132.37C1546.75,1959.79,1774.36,2274.22,2079.75,2501.24Z" transform="translate(-435.48 -455)"/><path class="cls-7" d="M1046.45,2071.71c204.82-27,527.83,31.89,720,131.36l2.26-4.36c-193-99.86-517.27-159-722.93-131.86Z" transform="translate(-435.48 -455)"/><path class="cls-7" d="M1961.77,2411.42l3.9-3c-68.15-89.51-88.43-210-60.27-358.21,20.64-108.65,66.35-229.37,135.88-358.81l-4.32-2.32c-69.76,129.88-115.65,251.07-136.38,360.22C1872.15,2198.93,1892.74,2320.76,1961.77,2411.42Z" transform="translate(-435.48 -455)"/><path class="cls-7" d="M1406.56,1541.6l4-2.76c-119.77-175.32-328.2-255.37-482-291.66l-1.12,4.78C1080.44,1288,1287.68,1367.58,1406.56,1541.6Z" transform="translate(-435.48 -455)"/><path class="cls-7" d="M1314.1,1064.43l4.87.56c27.07-237.66,200.82-418.92,302-505.81l-3.19-3.72C1516.05,642.82,1341.36,825.11,1314.1,1064.43Z" transform="translate(-435.48 -455)"/></g></g><g class="cls-5"><path class="cls-2" d="M1867.68,2795.76c21.88-7.28,63-42.42,70-56,46.3-90.41,144-254.05,117.22-358.05-4.57-17.76-88.12-18.75-102.6-33-53.12-13.57-72.38-15-116.55-52.68-130.39-111.31,60-405.32-234.72-438-215.85-24-374,79.67-413.76-240.37s-402.59-846.5-693-561.11c-166.65,163.79,80.05,394.36,20.28,611.65C457.78,1874.6,567.83,2014,789.84,2087.85s132.16,181.59,109,371.79c-27.83,228.48,310.1,202,465.07,176.45C1488.69,2615.52,1820.34,2647.34,1867.68,2795.76Z" transform="translate(-435.48 -455)"/><g class="cls-8"><path class="cls-7" d="M1995.27,2570.34l1.26-4.74C1266.68,2371,731.37,1764.52,564.56,943.19l-4.81,1c79.06,389.25,247.72,743.56,487.75,1024.64C1299.84,2264.31,1627.57,2472.32,1995.27,2570.34Z" transform="translate(-435.48 -455)"/><path class="cls-7" d="M876.37,2553.28c180.31-100.85,502.22-165.52,717.58-144.17l.48-4.88C1378.22,2382.8,1055,2447.74,874,2549Z" transform="translate(-435.48 -455)"/><path class="cls-7" d="M1852.43,2530.51l2.53-4.21c-96.41-58-159.81-162.45-188.44-310.54-21-108.59-23.15-237.65-6.41-383.63l-4.87-.56c-16.8,146.47-14.63,276,6.46,385.12C1690.61,2366.21,1754.78,2471.79,1852.43,2530.51Z" transform="translate(-435.48 -455)"/><path class="cls-7" d="M1015,1927.59l2.74-4.07c-176.11-118.61-399.37-115.93-555.66-92.79l.72,4.85C618.21,1812.57,840.18,1809.86,1015,1927.59Z" transform="translate(-435.48 -455)"/><path class="cls-7" d="M752.64,1518.42l4.74-1.29c-62.72-230.83,31.7-463.48,93.56-581.61l-4.35-2.28C784.4,1052,689.49,1286,752.64,1518.42Z" transform="translate(-435.48 -455)"/></g></g><path class="cls-9" d="M3269.45,3027.69l-2732.8-24v71.07c0,19.29,11.92,35.69,28.06,38.62l772.76,139.95a105.19,105.19,0,0,0,27.72,1.31l1874.56-159.56c16.74-1.43,29.7-17.88,29.7-37.7Z" transform="translate(-435.48 -455)"/><path class="cls-10" d="M2277.73,2912.48l-1712.82,130c-30.65,2.32-55.57-22.4-55.57-55.22V1672.06c0-32.83,24.92-59.44,55.57-59.44H2277.73c25.25,0,45.66,24.06,45.66,53.74V2855.28C2323.39,2885,2303,2910.57,2277.73,2912.48Z" transform="translate(-435.48 -455)"/><path class="cls-11" d="M2305,2912.48l-1712.82,130c-30.65,2.32-55.57-22.4-55.57-55.22V1672.06c0-32.83,24.92-59.44,55.57-59.44H2305c25.25,0,45.66,24.06,45.66,53.74V2855.28C2350.7,2885,2330.29,2910.57,2305,2912.48Z" transform="translate(-435.48 -455)"/><path class="cls-12" d="M2251.68,2828.66,656.37,2941.6c-24.94,1.76-45.21-18.53-45.21-45.33V1744.8c0-26.8,20.27-48.61,45.21-48.73L2251.68,1689c20.83-.09,37.68,19.62,37.68,44V2781.8C2289.36,2806.21,2272.51,2827.19,2251.68,2828.66Z" transform="translate(-435.48 -455)"/><path class="cls-13" d="M1509.12,1648.6c0,12.22-8.81,22.15-19.7,22.19s-19.75-9.87-19.75-22.12,8.85-22.18,19.75-22.19S1509.12,1636.37,1509.12,1648.6Z" transform="translate(-435.48 -455)"/><path class="cls-14" d="M1892.36,2551.77c-132-76.32-235.87,20.38-336.06-75-60.75-57.85-30.93-101-105.67-187.41-82.79-95.74-136.69-63.56-219.89-149.72-105.21-108.95-52.59-193.71-143.21-271.93-109.93-94.89-228.49-7.06-333.14-98.07-45.13-39.25-69.9-96.31-82.83-157H569.16c-17.94,0-32.51,15.62-32.51,34.89V3010.84c0,19.27,14.57,33.78,32.51,32.41l1745.65-133.09c8.56-.65,16.16-6,21-13.81-127.78-5-206.29-51-256.47-98.59C1981.2,2704.71,1998.23,2613,1892.36,2551.77Z" transform="translate(-435.48 -455)"/><path class="cls-15" d="M2373.31,2906.59,536.65,3043.44l800.82,145a105.62,105.62,0,0,0,27.72,1.32l1904.26-162.1-866.93-120.17A137.23,137.23,0,0,0,2373.31,2906.59Z" transform="translate(-435.48 -455)"/><polygon class="cls-16" points="369.17 2591.88 1898.24 2476.25 2371.47 2541.32 855.58 2664.93 369.17 2591.88"/><path class="cls-17" d="M2390.83,1142.68,895.6,1093.55c-50.13-1.65-91,37.9-91,88.35V2639.21c0,50.45,40.82,89.6,91,87.46l1495.23-63.85c43.25-1.85,78.17-41.1,78.17-87.67V1229.58C2469,1183,2434.07,1144.1,2390.83,1142.68Z" transform="translate(-435.48 -455)"/><path class="cls-18" d="M895.6,2697.62c-34.1,1.41-61.83-25.24-61.83-59.53V1182.73a59.69,59.69,0,0,1,61.83-60.14l1495.23,47.12c29.46.93,53.27,27.42,53.27,59.16V2576.1c0,31.75-23.81,58.47-53.27,59.69Z" transform="translate(-435.48 -455)"/><path class="cls-19" d="M2390.83,1142.68,895.6,1093.55c-50.13-1.65-91,37.9-91,88.35v65.52L2469,1290.08v-60.5C2469,1183,2434.08,1144.1,2390.83,1142.68Z" transform="translate(-435.48 -455)"/><path class="cls-13" d="M966.37,1177.75a28.61,28.61,0,0,1-29.49,28.85A30.68,30.68,0,0,1,907.31,1176a28.6,28.6,0,0,1,29.57-28.85A30.68,30.68,0,0,1,966.37,1177.75Z" transform="translate(-435.48 -455)"/><path class="cls-13" d="M1069.31,1180.74a28.4,28.4,0,0,1-29.21,28.72,30.47,30.47,0,0,1-29.29-30.42,28.4,28.4,0,0,1,29.29-28.72A30.47,30.47,0,0,1,1069.31,1180.74Z" transform="translate(-435.48 -455)"/><path class="cls-13" d="M1171.27,1183.7a28.21,28.21,0,0,1-28.93,28.59c-16-.44-29-14-29-30.27a28.2,28.2,0,0,1,29-28.59C1158.33,1153.92,1171.27,1167.47,1171.27,1183.7Z" transform="translate(-435.48 -455)"/><g class="cls-20"><path class="cls-13" d="M1809.62,1702.91c-174.64-254.11-476.92-173.26-668.14-454-34.49-50.63-57.89-102.16-73.94-149.67l-171.93-5.65c-50.14-1.65-91,37.9-91,88.35V2639.21c0,50.45,40.82,89.6,91,87.46l1440.47-61.51c-33-47.59-320.41-223.87-394.66-494.53C1873.51,1923.11,1915,1856.23,1809.62,1702.91Z" transform="translate(-435.48 -455)"/></g><polygon class="cls-13" points="1952.26 1224.44 480.69 1222.68 480.69 1174.59 1952.26 1180.55 1952.26 1224.44"/><polygon class="cls-13" points="1952.26 1122.11 480.69 1109.6 480.69 986.31 1952.26 1009.59 1952.26 1122.11"/><path class="cls-13" d="M1143.89,1939.47l-195.19,1.15V1754.14l195.19.24Zm-172.42-24.4,143.14-.7V1779.63l-143.14-.06Z" transform="translate(-435.48 -455)"/><polygon class="cls-13" points="1920.03 1349.13 789.74 1349.79 789.74 1299.47 1920.03 1300.66 1920.03 1349.13"/><polygon class="cls-13" points="1920.03 1427.23 789.74 1430.86 789.74 1383.34 1920.03 1381.45 1920.03 1427.23"/><path class="cls-13" d="M1143.89,2214.3l-195.19,3.21V2031l195.19-1.82Zm-172.42-22.59,143.14-2.22V2054.74l-143.14,1.47Z" transform="translate(-435.48 -455)"/><polygon class="cls-13" points="1920.03 1613.05 789.74 1623.76 789.74 1573.44 1920.03 1564.58 1920.03 1613.05"/><polygon class="cls-13" points="1920.03 1691.15 789.74 1704.83 789.74 1657.31 1920.03 1645.37 1920.03 1691.15"/><path class="cls-13" d="M1143.89,2489.13l-195.19,5.26V2307.92l195.19-3.88Zm-172.42-18,143.14-3.77V2329.85l-143.14,3Z" transform="translate(-435.48 -455)"/><polygon class="cls-13" points="1920.03 1876.97 789.74 1897.73 789.74 1847.41 1920.03 1828.5 1920.03 1876.97"/><polygon class="cls-13" points="1920.03 1955.07 789.74 1978.81 789.74 1931.28 1920.03 1909.29 1920.03 1955.07"/><path class="cls-21" d="M1016.54,1930.84a21.46,21.46,0,0,1-14.87-5.78L943,1869.58a19.37,19.37,0,0,1,0-28.41,21.93,21.93,0,0,1,29.89-.07l40.69,38.6,93.95-129.29a21.42,21.42,0,0,1,29-5,19.41,19.41,0,0,1,5.23,27.74l-108,149a21.37,21.37,0,0,1-15.39,8.61C1017.8,1930.8,1017.17,1930.83,1016.54,1930.84Z" transform="translate(-435.48 -455)"/><path class="cls-22" d="M1021.66,2208.56a21.47,21.47,0,0,1-14.88-5.79l-58.63-55.47a19.38,19.38,0,0,1,0-28.41,21.93,21.93,0,0,1,29.89-.07l40.7,38.6,93.94-129.29a21.42,21.42,0,0,1,29-5,19.41,19.41,0,0,1,5.23,27.74l-108,148.95a21.35,21.35,0,0,1-15.38,8.61C1022.91,2208.52,1022.28,2208.55,1021.66,2208.56Z" transform="translate(-435.48 -455)"/><path class="cls-23" d="M2716,1177.92c0,184.37-144.17,329.41-328.43,323.75-191.77-5.89-353.05-171.51-353.05-369.7s161.28-342.06,353.05-322.09C2571.83,829.07,2716,993.54,2716,1177.92Z" transform="translate(-435.48 -455)"/><path class="cls-24" d="M2765.79,1162c0,184.37-144.17,329.41-328.43,323.75-191.77-5.89-353.05-171.5-353.05-369.69S2245.59,774,2437.36,794C2621.62,813.17,2765.79,977.65,2765.79,1162Z" transform="translate(-435.48 -455)"/><path class="cls-25" d="M2751.33,1161c0,176.26-137.94,314.68-314,309C2254.5,1464.09,2101,1306,2101,1117.2S2254.5,791,2437.36,809.74C2613.39,827.77,2751.33,984.79,2751.33,1161Z" transform="translate(-435.48 -455)"/><path class="cls-26" d="M2741,1160.35c0,170.44-133.48,304.12-303.61,298.41-176.51-5.93-324.53-158.58-324.53-340.76s148-314.88,324.53-297C2607.49,838.22,2741,989.91,2741,1160.35Z" transform="translate(-435.48 -455)"/><path class="cls-27" d="M2435.62,879h0a18.55,18.55,0,0,1,16.38,18.2v31.38a460.22,460.22,0,0,1,54.38,9.44q20.09,4.71,39.89,11.23a18.33,18.33,0,0,1,12.5,18.83l-3.85,39.35a14.76,14.76,0,0,1-21.06,12.24,227.93,227.93,0,0,0-26.76-10,243.07,243.07,0,0,0-50.47-9.43l-4.63-.38v89.87c47.23,13.21,81.91,31,104.33,53.35s33.42,50,33.42,83.28q0,54-37,86.57-37.22,32.79-104.56,36.81v34.64a15.75,15.75,0,0,1-16.39,16h-.29a17.42,17.42,0,0,1-16.46-17.37v-34.16l-7.29-.33a478.71,478.71,0,0,1-60.58-6.46,393.5,393.5,0,0,1-41.85-9.63,18,18,0,0,1-13.13-18.65l4.53-50.58c1-10.94,12-17.3,22.36-13.2a329.92,329.92,0,0,0,36.82,12.09,322.5,322.5,0,0,0,58.85,9.83l.29-100q-68-16.83-101.57-49.84-33.61-33.16-33.65-84.81,0-53.41,36.48-82.38c24.16-19.19,58.51-28.74,102.83-28.72V894.12A14.81,14.81,0,0,1,2435.62,879Zm-16.44,120q-21,1.53-32.76,11.55t-11.75,27q0,16,10.87,26.81t33.64,17.16Zm29.05,181v91.68q22.84,0,35.07-10.9t12.2-30.86q0-18.18-11.34-30.17T2448.23,1180Z" transform="translate(-435.48 -455)"/><path class="cls-28" d="M2382.41,1202.08c10.26-101.31,103.38-144.2,91.22-237.39-7.48-57.44-51-105.85-99.59-143.65-147.3,15.45-261.21,137.43-261.21,297,0,182.18,148,334.83,324.53,340.76a305.15,305.15,0,0,0,50.15-2.45C2417.41,1386.56,2373.6,1289.13,2382.41,1202.08Z" transform="translate(-435.48 -455)"/><path class="cls-29" d="M2700.2,949.93v1.43c-12.59-17.19-35.15-41.09-48.66-54.92-.25-.61-.68-1.22-.93-1.83a323.82,323.82,0,0,0-31-57.19,315.57,315.57,0,0,0-49.49-56.64c-2.33-2.3-5-4.33-7.54-6.51-1.28-1.06-2.57-2.16-3.86-3.22l-1.9-1.62c-.66-.54-1.35-1-2-1.55q-4-3-8.06-6.15l-2-1.55-2.12-1.44c-1.41-1-2.81-1.94-4.21-2.89-5.54-4-11.52-7.49-17.35-11.16-3-1.78-6.08-3.41-9.1-5.1-1.49-.85-3-1.71-4.55-2.54l-4.7-2.34A293.83,293.83,0,0,0,2422.58,708l-10.51-1.73c-3.51-.48-7.07-.79-10.56-1.2l-5.29-.6-5.3-.29-5.31-.32c-1.76-.09-3.51-.27-5.29-.23-3.53,0-7.05-.06-10.6-.07-.86,0-1.8-.06-2.6,0l-2.36.12-4.72.25-4.67.24c-.42,0-.7,0-1.24,0l-4.81.36-6.42.45-4.8.36-.81,0-.29,0s-1.67,0,1.13.06L2327.75,707c-1.71.27-3.43.44-5.14.81l-5.09,1-5.09,1-2.54.5c-.85.16-1.67.41-2.5.61-3.33.85-6.66,1.68-10,2.54-1.67.36-3.29.93-4.91,1.42l-4.86,1.53-4.85,1.46-4.75,1.74c-3.17,1.19-6.34,2.23-9.41,3.49s-6.14,2.59-9.18,3.91A263.58,263.58,0,0,0,2195,767.6l-3.49,2.91-3.31,3.11c-2.19,2-4.46,4-6.55,6.12-.08.07-.16.18-.25.25-4.06,4.21-8.18,8.17-11.83,12.52-1,1.06-1.93,2.14-2.86,3.22l-1.44,1.59-1.33,1.69c-1.79,2.19-3.55,4.4-5.31,6.58-.43.54-.9,1.06-1.33,1.62l-1.21,1.69c-.83,1.13-1.64,2.27-2.45,3.37-1.58,2.26-3.31,4.35-4.73,6.69a250.93,250.93,0,0,0-27.4,53.14,243.44,243.44,0,0,0-12.14,47.39c-.23,1.78-.47,3.52-.7,5.25s-.54,3.38-.61,5c-.27,3.35-.54,6.53-.81,9.57s-.18,6.07-.31,8.86c-.05,1.4-.14,2.77-.16,4.08s.09,2.66.11,3.92q0,3.81.11,7.16a9.59,9.59,0,0,0,.12,1.39c.06.41.11.82.16,1.22.08.79.18.68.26,1.4s.12.9.18.9h118.43l-72,79.79-167.29,183L1747.63,968.29h125.8a19.57,19.57,0,0,0,.58-3.85c.48-3.65,1-7.21,1.58-11.55.32-2.16.61-4.17,1-6.49.18-1.13.35-2.21.53-3.4s.32-2.43.55-3.46c.88-4.35,1.8-8.94,2.77-13.83.52-2.43,1-4.91,1.57-7.47s1.26-5.14,1.94-7.8c1.37-5.31,2.7-10.89,4.35-16.63s3.6-11.62,5.49-17.77c.92-3.09,2.12-6.13,3.24-9.28s2.3-6.28,3.49-9.52a454.22,454.22,0,0,1,40.93-81.62,448,448,0,0,1,67.21-82c3.25-3.33,6.85-6.37,10.33-9.55l5.27-4.73,2.68-2.38,2.73-2.27c3.69-3,7.41-6,11.12-9.08l2.81-2.27,2.91-2.16,5.86-4.33c7.69-5.88,15.94-11.19,24.15-16.66,4.13-2.66,8.42-5.15,12.68-7.72,2.1-1.26,4.25-2.52,6.39-3.81l6.58-3.56A425.76,425.76,0,0,1,2216,582.66l15.11-3c5-.93,10.17-1.58,15.24-2.36l7.63-1.07,7.68-.76,7.66-.74c2.56-.23,5.1-.52,7.67-.61,5.11-.23,10.24-.85,15.36-1.08,1.26,0,2.56-.54,3.83-.54H2300l7.65.43,7.65.25c2.55,0,5.1.35,7.64.47l15.2.92c3.46,0,1.19.09,2.07.11l.4,0,.81.09,1.58.22,3.2.39,6.37.8,3.2.39,1.59.2,2,.27,8.06,1.19,8.06,1.22,4,.63c1.31.21,2.48.5,3.74.75,4.91,1.05,9.82,2.11,14.74,3.13,2.44.49,4.85,1.19,7.26,1.82l7.25,1.93,7.2,1.92,7.11,2.25c4.71,1.53,9.44,3,14.06,4.62s9.22,3.46,13.8,5.19A395,395,0,0,1,2552.74,658c1.8,1.39,3.58,2.79,5.36,4.18s3.45,2.89,5.16,4.37c3.42,2.91,6.86,5.72,10.15,8.7,6.49,6.1,13,11.95,18.89,18.28,1.51,1.55,3,3.11,4.49,4.64l2.22,2.31,2.12,2.39c2.82,3.2,5.61,6.39,8.37,9.53l2.06,2.38,2,2.45c1.28,1.63,2.59,3.25,3.87,4.87,2.56,3.26,5.24,6.35,7.54,9.72a396.21,396.21,0,0,1,33.23,53.05c4.46,8.54,8.43,17,11.94,25.45a375.2,375.2,0,0,1,22.2,71.82c.49,2.73,1,5.42,1.5,8.06s1,5.2,1.33,7.77c.68,5.13,1.36,10,2,14.77s.83,9.32,1.23,13.66c.16,2.15.37,4.26.5,6.35s.5,4.06.59,6C2699.57,942.69,2700.2,946.45,2700.2,949.93Z" transform="translate(-435.48 -455)"/><path class="cls-30" d="M2700.2,949.93v1.43c-12.59-17.19-35.15-41.09-48.66-54.92-.25-.61-.68-1.22-.93-1.83a323.82,323.82,0,0,0-31-57.19,315.57,315.57,0,0,0-49.49-56.64c-2.33-2.3-5-4.33-7.54-6.51-1.28-1.06-2.57-2.16-3.86-3.22l-1.9-1.62c-.66-.54-1.35-1-2-1.55q-4-3-8.06-6.15l-2-1.55-2.12-1.44c-1.41-1-2.81-1.94-4.21-2.89-5.54-4-11.52-7.49-17.35-11.16-3-1.78-6.08-3.41-9.1-5.1-1.49-.85-3-1.71-4.55-2.54l-4.7-2.34A293.83,293.83,0,0,0,2422.58,708l-10.51-1.73c-3.51-.48-7.07-.79-10.56-1.2l-5.29-.6-5.3-.29-5.31-.32c-1.76-.09-3.51-.27-5.29-.23-3.53,0-7.05-.06-10.6-.07-.86,0-1.8-.06-2.6,0l-2.36.12-4.72.25-4.67.24c-.42,0-.7,0-1.24,0l-4.81.36-6.42.45-4.8.36-.81,0-.29,0s-1.67,0,1.13.06L2327.75,707c-1.71.27-3.43.44-5.14.81l-5.09,1-5.09,1-2.54.5c-.85.16-1.67.41-2.5.61-3.33.85-6.66,1.68-10,2.54-1.67.36-3.29.93-4.91,1.42l-4.86,1.53-4.85,1.46-4.75,1.74c-3.17,1.19-6.34,2.23-9.41,3.49s-6.14,2.59-9.18,3.91A263.58,263.58,0,0,0,2195,767.6l-3.49,2.91-3.31,3.11c-2.19,2-4.46,4-6.55,6.12-.08.07-.16.18-.25.25,53.16-65.82,139.28-108.59,236.47-108.59,99.57,0,187.52,44.89,240.31,113.45,4.46,8.54,8.43,17,11.94,25.45a375.2,375.2,0,0,1,22.2,71.82c.49,2.73,1,5.42,1.5,8.06s1,5.2,1.33,7.77c.68,5.13,1.36,10,2,14.77s.83,9.32,1.23,13.66c.16,2.15.37,4.26.5,6.35s.5,4.06.59,6C2699.57,942.69,2700.2,946.45,2700.2,949.93Z" transform="translate(-435.48 -455)"/><path class="cls-31" d="M2307.51,1673.67s7.94-29.81,2.31-37.42-40.07-38.09-36.75-28.15a64,64,0,0,0,8.27,16.55s-18.54,8.61-6.62,21.53,15.9,15.9,16.56,27.49S2299.56,1689.23,2307.51,1673.67Z" transform="translate(-435.48 -455)"/><path class="cls-32" d="M2638.33,2960.14s4.21,25.78,3.68,35-102.34,13.87-103.37,7,16.83-17.8,29.4-21.65,49.35-14.15,49.35-14.15Z" transform="translate(-435.48 -455)"/><path class="cls-33" d="M2613.62,2934.45l3.25,32.05s11.82,7.81,22.24,1.78l5.22-34.89Z" transform="translate(-435.48 -455)"/><path class="cls-34" d="M2820,3001.93s4.21,25.77,3.68,35-102.34,13.86-103.37,7,16.83-17.8,29.4-21.66,49.34-14.15,49.34-14.15Z" transform="translate(-435.48 -455)"/><path class="cls-35" d="M2795.25,2976.23l3.25,32.05s11.82,7.82,22.24,1.78l5.21-34.88Z" transform="translate(-435.48 -455)"/><path class="cls-36" d="M2632.09,2097.71q-17.64,35.79-35.3,71.57c-9.46,136.14-14.16,284.18-11.14,442.5,2.24,117.79,8.54,229.37,17.58,334.1l47.86-2.19c23.08-45.79,50.31-115.16,52.82-200.79,2.61-89.32-24.47-101.18-22.75-186.7,2.22-110.84,48.7-140.41,73.47-273.74,9.47-51,15.84-117.59,8.27-198.39Z" transform="translate(-435.48 -455)"/><path class="cls-37" d="M2762.9,2084.07l-70.65,7.37c-42.38,73.76-54.22,150.54-46.78,184.49,10.52,48.05,38.36,63.44,36.83,111.68-1.51,47.73-29.63,60.11-47.47,116.37-12.35,38.95-9.09,74.76-2.07,144.8,14.15,141.07,48.22,184.22,19.68,230.47-8.11,13.14-22.71,28.8-51.34,40.75.7,8.65,1.39,17.33,2.13,25.88q23.94-1.08,47.86-2.19c23.08-45.79,50.31-115.16,52.82-200.79,2.61-89.32-24.47-101.18-22.75-186.7,2.22-110.84,48.7-140.41,73.47-273.74C2764.1,2231.47,2770.47,2164.87,2762.9,2084.07Z" transform="translate(-435.48 -455)"/><path class="cls-38" d="M2695.4,2140.66c22.09,120.45,41.6,249.36,56.82,386.07,18.38,165.08,28.19,320.7,32.05,465.18l52.53,1.49c69-136.51,73.22-229.06,63.27-289.31-3.83-23.22-14.25-68.75-16.62-136.8-1.66-47.43,1.37-83.53,5.15-126.92,8.28-95.14,18.34-115.91,19.79-188.68,1.35-68.3,1.63-102.86-17.86-123C2839.16,2075.52,2705.54,2136,2695.4,2140.66Z" transform="translate(-435.48 -455)"/><path class="cls-39" d="M2316.67,1669.07l-34.94-2.43c-27.47,111-7.76,218.71,54.24,258.31,96.88,61.88,276.92-54.7,315.94-181.64,17.13-55.72,13.23-136.13-21-151.75-9.5-4.34-24.24-5-56.18,12.92-95.39,53.55-97.9,154.77-146.39,163.35C2406.78,1771.64,2372,1757.89,2316.67,1669.07Z" transform="translate(-435.48 -455)"/><path class="cls-40" d="M2583.39,2193.71c-16.78-27.84,4.3-54.69,9.09-107.44,5.44-59.78-17.59-69.73-40.36-168.8-15.15-65.88-29.69-129.13-12.33-203.17,8.31-35.49,22.42-95.67,72.23-124.74,25.7-15,60.8-13.5,129.94-9.89,85.5,4.47,128.25,6.71,160.13,23.5,4.67,2.46,101.66,55.21,108.34,141.21,6.79,87.53-88.53,99.29-101.24,216-5.71,52.4,4.47,133,11.06,185.26,6.34,50.19,10.7,63,.79,78.23-23.87,36.63-96.95,26.19-243.12,5.32C2620.59,2221,2595.91,2214.48,2583.39,2193.71Z" transform="translate(-435.48 -455)"/><path class="cls-41" d="M2805.78,1941.62c6.18,22.75,28.41,39.74,43.89,95.07,3.34,11.95,27.13,97-3.73,118-17.83,12.09-33.84-10.82-77.1-13.81-75-5.19-110.69,57.82-159.67,40.62-8.5-3-19.72-9.36-30.92-24-2.23,13.18-1.84,24.62,5.14,36.22,12.52,20.77,37.2,27.3,94.53,35.49,146.17,20.87,219.25,31.31,243.12-5.32,9.91-15.19,5.55-28-.79-78.23-6.59-52.27-16.77-132.86-11.06-185.26,12.71-116.72,108-128.48,101.24-216-1.82-23.4-10.43-44.23-21.94-62.37C2867.57,1730.94,2786.36,1870.13,2805.78,1941.62Z" transform="translate(-435.48 -455)"/><path class="cls-42" d="M2958.51,2113.79l-24.19,15.45c-4.34-5-14.4-15.14-30.1-18.6-17.69-3.88-38,1.69-38.48,7.34-.37,4.52,12,9.08,13.9,9.79,15.44,5.7,26.89,1,33.13,7.17,2.21,2.2,5,6.28,11.28,10.06a35.76,35.76,0,0,0,4.32,2.23c10.31,4,28-13.93,29.5-15.5Z" transform="translate(-435.48 -455)"/><path class="cls-43" d="M2887,1796.48c-17.5-41.91-29.63-106.09-2-201.4,182.14,71.77,275,241.92,238.77,376.79-29.9,111.19-138.68,165.34-163,176.74l-16.94-38.56c28.12-31.31,59.81-77.61,55.33-130.45C2993.05,1906.35,2922.47,1881.34,2887,1796.48Z" transform="translate(-435.48 -455)"/><path class="cls-44" d="M2746.43,1493.44s1.44,31.87,11.33,55.73c8.94,21.56,55.95,35.12,65.48,39.93s-17.85,18.88-45.35,21.65-106-3.48-120.19-13.9,11.38-9.64,31-16.85,31-45.59,27.51-63S2746.43,1493.44,2746.43,1493.44Z" transform="translate(-435.48 -455)"/><path class="cls-45" d="M2702.94,1481.89c-14.27-14-16.26-15.65-17.81-20.5-6.24-19.45,8.85-46.08,28.63-52.64,1-.34,14.3-4.59,19.37,1.17,4.3,4.89-2,11.64,1,21.06,2.82,8.82,10.46,9.48,24.63,21,11.68,9.52,18.93,15.45,20.61,23.78,3.45,17.17-17.34,42.06-35.75,41.39C2737,1517,2735.18,1513.57,2702.94,1481.89Z" transform="translate(-435.48 -455)"/><path class="cls-46" d="M2741.8,1519.85s-15.16,17.17-38.27,11.49c-20.69-5.08-15.41-52.56-.27-60.14,5-2.53,14.23-2.32,21.13,1,4.08,2,5.21,4,11.93,7.09,6.2,2.84,8.17,2.45,9.84,4.45,2.08,2.5,3,7.88-3.56,20.88,4.72-3.34,9.78-4,12.89-1.83a7.2,7.2,0,0,1,2.31,3.21C2759.77,1511.88,2753.66,1517.86,2741.8,1519.85Z" transform="translate(-435.48 -455)"/><path class="cls-47" d="M2176.59,1629.54c0,130.72-102.21,233.55-232.85,229.54-136-4.18-250.3-121.6-250.3-262.11s114.34-242.52,250.3-228.36C2074.38,1382.21,2176.59,1498.82,2176.59,1629.54Z" transform="translate(-435.48 -455)"/><path class="cls-48" d="M2211.89,1618.27c0,130.72-102.21,233.55-232.85,229.53-136-4.17-250.3-121.59-250.3-262.1s114.34-242.52,250.3-228.36C2109.68,1370.94,2211.89,1487.55,2211.89,1618.27Z" transform="translate(-435.48 -455)"/><path class="cls-49" d="M2201.64,1617.58c0,125-97.8,223.09-222.6,219.05-129.64-4.19-238.49-116.25-238.49-250.14s108.85-231.26,238.49-218C2103.84,1381.3,2201.64,1492.62,2201.64,1617.58Z" transform="translate(-435.48 -455)"/><path class="cls-50" d="M2194.3,1617.08c0,120.84-94.64,215.62-215.26,211.57-125.14-4.2-230.08-112.43-230.08-241.59S1853.9,1363.82,1979,1376.49C2099.66,1388.7,2194.3,1496.25,2194.3,1617.08Z" transform="translate(-435.48 -455)"/><path class="cls-51" d="M1977.81,1417.6h0a13.15,13.15,0,0,1,11.61,12.91v22.25a327.56,327.56,0,0,1,38.56,6.68q14.24,3.35,28.28,8a13,13,0,0,1,8.86,13.35l-2.73,27.9a10.46,10.46,0,0,1-14.93,8.68,161.16,161.16,0,0,0-19-7.07,171.91,171.91,0,0,0-35.79-6.69l-3.28-.27V1567q50.22,14,74,37.82t23.69,59q0,38.29-26.2,61.38c-17.59,15.5-42.24,24.21-74.13,26.1v24.56a11.16,11.16,0,0,1-11.62,11.34h-.21a12.33,12.33,0,0,1-11.66-12.31v-24.22l-5.18-.24a339.16,339.16,0,0,1-42.94-4.58,278.93,278.93,0,0,1-29.68-6.82,12.8,12.8,0,0,1-9.31-13.22l3.22-35.87c.69-7.75,8.48-12.26,15.85-9.35a235.4,235.4,0,0,0,26.1,8.57,228.75,228.75,0,0,0,41.73,7l.21-70.88c-32.14-8-56.21-19.73-72-35.33s-23.85-35.74-23.85-60.14q0-37.86,25.86-58.4,25.7-20.42,72.9-20.36v-22.74A10.5,10.5,0,0,1,1977.81,1417.6Zm-11.66,85.05q-14.89,1.08-23.22,8.19t-8.34,19.12a25.68,25.68,0,0,0,7.71,19q7.7,7.62,23.85,12.17Zm20.6,128.34v65q16.2,0,24.86-7.73t8.65-21.88q0-12.89-8-21.39T1986.75,1631Z" transform="translate(-435.48 -455)"/><path class="cls-52" d="M1940.09,1646.68c7.27-71.83,73.29-102.24,64.67-168.31-5.31-40.73-36.18-75-70.61-101.84-104.43,11-185.19,97.43-185.19,210.53,0,129.16,104.94,237.39,230.08,241.59a217.3,217.3,0,0,0,35.56-1.73C1964.9,1777.46,1933.84,1708.39,1940.09,1646.68Z" transform="translate(-435.48 -455)"/></g></g></svg>