<svg xmlns="http://www.w3.org/2000/svg" xmlns:xlink="http://www.w3.org/1999/xlink" viewBox="0 0 2798.7 2785.05"><defs><style>.cls-1{fill:url(#linear-gradient);}.cls-2{opacity:0.3;}.cls-3{fill:#91b3fa;}.cls-4{fill:#bdd0fb;}.cls-5{fill:url(#linear-gradient-2);}.cls-6{fill:url(#linear-gradient-3);}.cls-7{fill:url(#linear-gradient-4);}.cls-8{fill:url(#linear-gradient-5);}.cls-9{opacity:0.7;}.cls-10,.cls-16{fill:#fff;}.cls-11{fill:url(#linear-gradient-6);}.cls-12{fill:url(#linear-gradient-7);}.cls-13{fill:url(#linear-gradient-8);}.cls-14{fill:url(#linear-gradient-9);}.cls-15{fill:url(#linear-gradient-10);}.cls-16{opacity:0.78;}.cls-17{fill:url(#linear-gradient-11);}.cls-18{fill:url(#linear-gradient-12);}.cls-19{fill:url(#linear-gradient-13);}.cls-20{fill:url(#linear-gradient-14);}.cls-21{fill:url(#linear-gradient-15);}.cls-22{fill:url(#linear-gradient-16);}.cls-23{fill:url(#linear-gradient-17);}.cls-24{fill:url(#linear-gradient-18);}.cls-25{fill:url(#linear-gradient-19);}.cls-26{fill:url(#linear-gradient-20);}.cls-27{fill:url(#linear-gradient-21);}.cls-28{fill:url(#linear-gradient-22);}.cls-29{fill:url(#linear-gradient-23);}.cls-30{fill:url(#linear-gradient-24);}.cls-31{fill:url(#linear-gradient-25);}.cls-32{fill:url(#linear-gradient-26);}.cls-33{fill:url(#linear-gradient-27);}.cls-34{fill:url(#linear-gradient-28);}.cls-35{fill:url(#linear-gradient-29);}.cls-36{fill:url(#linear-gradient-30);}.cls-37{fill:url(#linear-gradient-31);}.cls-38{fill:url(#linear-gradient-32);}.cls-39{fill:url(#linear-gradient-33);}.cls-40{fill:url(#linear-gradient-34);}.cls-41{fill:url(#linear-gradient-35);}.cls-42{fill:url(#linear-gradient-36);}.cls-43{fill:url(#linear-gradient-37);}.cls-44{fill:url(#linear-gradient-38);}.cls-45{fill:url(#linear-gradient-39);}.cls-46{fill:url(#linear-gradient-40);}.cls-47{fill:url(#linear-gradient-41);}.cls-48{fill:url(#linear-gradient-42);}.cls-49{fill:url(#linear-gradient-43);}.cls-50{fill:url(#linear-gradient-44);}.cls-51{fill:url(#linear-gradient-45);}.cls-52{fill:url(#linear-gradient-46);}.cls-53{fill:url(#linear-gradient-47);}.cls-54{fill:url(#linear-gradient-48);}</style><linearGradient id="linear-gradient" x1="3473.77" y1="3600.16" x2="1543.08" y2="1544.9" gradientUnits="userSpaceOnUse"><stop offset="0" stop-color="#dae3fe"/><stop offset="1" stop-color="#e9effd"/></linearGradient><linearGradient id="linear-gradient-2" x1="-942.68" y1="2835.09" x2="-383.26" y2="1156.84" gradientTransform="matrix(-1, 0, 0, 1, 1155.78, 0)" gradientUnits="userSpaceOnUse"><stop offset="0" stop-color="#09005d"/><stop offset="1" stop-color="#1a0f91"/></linearGradient><linearGradient id="linear-gradient-3" x1="664.22" y1="2177.34" x2="3069.33" y2="2177.34" gradientUnits="userSpaceOnUse"><stop offset="0" stop-color="#4f52ff"/><stop offset="1" stop-color="#4042e2"/></linearGradient><linearGradient id="linear-gradient-4" x1="1925.24" y1="1108.15" x2="1854.22" y2="3101.88" gradientTransform="translate(3716.19 5985.86) rotate(-180)" xlink:href="#linear-gradient-2"/><linearGradient id="linear-gradient-5" x1="3378.64" y1="1089.59" x2="2413.83" y2="2675.73" gradientUnits="userSpaceOnUse"><stop offset="0" stop-color="#ff928e"/><stop offset="1" stop-color="#fe7062"/></linearGradient><linearGradient id="linear-gradient-6" x1="2678.89" y1="3108.73" x2="2022.21" y2="2189.38" xlink:href="#linear-gradient-5"/><linearGradient id="linear-gradient-7" x1="2136.51" y1="1754.44" x2="1368.7" y2="2789.98" xlink:href="#linear-gradient-5"/><linearGradient id="linear-gradient-8" x1="1483.77" y1="2931.88" x2="338.19" y2="1848.51" xlink:href="#linear-gradient-5"/><linearGradient id="linear-gradient-9" x1="1442.18" y1="1502.5" x2="1650.32" y2="1260.91" gradientTransform="translate(1409.72 -727.97) rotate(44.11)" gradientUnits="userSpaceOnUse"><stop offset="0" stop-color="#e1473d"/><stop offset="1" stop-color="#e9605a"/></linearGradient><linearGradient id="linear-gradient-10" x1="1767.93" y1="1084.71" x2="1152.46" y2="2014.5" gradientTransform="translate(1409.72 -727.97) rotate(44.11)" xlink:href="#linear-gradient-5"/><linearGradient id="linear-gradient-11" x1="854.55" y1="828.03" x2="542.44" y2="1352.01" gradientTransform="translate(1223.03 201.83) rotate(14.29)" xlink:href="#linear-gradient-5"/><linearGradient id="linear-gradient-12" x1="1716.35" y1="1313.75" x2="2056.03" y2="919.48" gradientTransform="translate(1279.69 -1115.67) rotate(44.11)" xlink:href="#linear-gradient-9"/><linearGradient id="linear-gradient-13" x1="2247.97" y1="631.91" x2="1243.52" y2="2149.34" gradientTransform="translate(-406.11 -365.41) rotate(-0.89)" xlink:href="#linear-gradient-5"/><linearGradient id="linear-gradient-14" x1="1216.88" y1="301.79" x2="707.51" y2="1156.93" gradientTransform="translate(1223.03 201.83) rotate(14.29)" xlink:href="#linear-gradient-5"/><linearGradient id="linear-gradient-15" x1="1880.98" y1="1891.04" x2="2230.51" y2="1485.34" gradientTransform="translate(1731.42 -1080.51) rotate(44.11)" xlink:href="#linear-gradient-9"/><linearGradient id="linear-gradient-16" x1="2428.01" y1="1189.43" x2="1394.45" y2="2750.85" gradientTransform="translate(1731.42 -1080.51) rotate(44.11)" xlink:href="#linear-gradient-5"/><linearGradient id="linear-gradient-17" x1="1537.9" y1="795.46" x2="1013.78" y2="1675.38" gradientTransform="translate(1223.03 201.83) rotate(14.29)" xlink:href="#linear-gradient-5"/><linearGradient id="linear-gradient-18" x1="2277.78" y1="1374.19" x2="2557.32" y2="1049.72" gradientTransform="translate(1514.35 -1434.39) rotate(44.11)" xlink:href="#linear-gradient-9"/><linearGradient id="linear-gradient-19" x1="2715.27" y1="813.07" x2="1888.67" y2="2061.83" gradientTransform="translate(1514.35 -1434.39) rotate(44.11)" xlink:href="#linear-gradient-5"/><linearGradient id="linear-gradient-20" x1="1707.27" y1="337.65" x2="1288.09" y2="1041.38" gradientTransform="translate(1223.03 201.83) rotate(14.29)" xlink:href="#linear-gradient-5"/><linearGradient id="linear-gradient-21" x1="13339.33" y1="2800.43" x2="13377.65" y2="2800.43" gradientTransform="translate(-12511.63 -63.47) rotate(0.54)" gradientUnits="userSpaceOnUse"><stop offset="0" stop-color="#febbba"/><stop offset="1" stop-color="#ff928e"/></linearGradient><linearGradient id="linear-gradient-22" x1="568.67" y1="2898.74" x2="982.88" y2="2247.11" gradientTransform="matrix(1, 0, 0, 1, 0, 0)" xlink:href="#linear-gradient-2"/><linearGradient id="linear-gradient-23" x1="13201.24" y1="2798.45" x2="13234.32" y2="2798.45" xlink:href="#linear-gradient-21"/><linearGradient id="linear-gradient-24" x1="495.58" y1="2852.28" x2="909.8" y2="2200.65" gradientTransform="matrix(1, 0, 0, 1, 0, 0)" xlink:href="#linear-gradient-2"/><linearGradient id="linear-gradient-25" x1="13497.05" y1="1800.81" x2="13692.8" y2="1800.81" xlink:href="#linear-gradient-21"/><linearGradient id="linear-gradient-26" x1="-3202.46" y1="1767.07" x2="-3071.11" y2="2065.93" gradientTransform="matrix(-1, -0.01, -0.01, 1, -2064.9, 36.7)" xlink:href="#linear-gradient-21"/><linearGradient id="linear-gradient-27" x1="13691.86" y1="1668.47" x2="13746.67" y2="1584.2" xlink:href="#linear-gradient-21"/><linearGradient id="linear-gradient-28" x1="13068.69" y1="2078.07" x2="13316.42" y2="2078.07" xlink:href="#linear-gradient-21"/><linearGradient id="linear-gradient-29" x1="13258.92" y1="1813.24" x2="13356.86" y2="1813.24" xlink:href="#linear-gradient-21"/><linearGradient id="linear-gradient-30" x1="4457.2" y1="7402.81" x2="4420.6" y2="7282.09" gradientTransform="matrix(0.75, -0.66, 0.66, 0.75, -7378.22, -818.16)" xlink:href="#linear-gradient-21"/><linearGradient id="linear-gradient-31" x1="4424.18" y1="7192.47" x2="4454.8" y2="7367.1" gradientTransform="matrix(0.75, -0.66, 0.66, 0.75, -7378.22, -818.16)" xlink:href="#linear-gradient-2"/><linearGradient id="linear-gradient-32" x1="4419.79" y1="7402.24" x2="4386.86" y2="7293.63" gradientTransform="matrix(0.75, -0.66, 0.66, 0.75, -7378.22, -818.16)" xlink:href="#linear-gradient-21"/><linearGradient id="linear-gradient-33" x1="13094.81" y1="1981.34" x2="13231.5" y2="2550.9" gradientTransform="translate(-12243.34)" xlink:href="#linear-gradient-2"/><linearGradient id="linear-gradient-34" x1="13001.14" y1="2132.02" x2="13078.59" y2="2132.02" gradientTransform="translate(-12243.34)" xlink:href="#linear-gradient-21"/><linearGradient id="linear-gradient-35" x1="-874.58" y1="2042.09" x2="-854.15" y2="2127.21" gradientTransform="matrix(-1, 0, 0, 1, 31.98, 0)" xlink:href="#linear-gradient-3"/><linearGradient id="linear-gradient-36" x1="17706.55" y1="2832.38" x2="17401.97" y2="3006.23" gradientTransform="matrix(-1, 0, 0, 1, 19262.92, 0)" xlink:href="#linear-gradient-21"/><linearGradient id="linear-gradient-37" x1="-7885.5" y1="-2935.18" x2="-7908.89" y2="-2576.66" gradientTransform="translate(9967.65 2161.15) rotate(-26.18)" xlink:href="#linear-gradient-3"/><linearGradient id="linear-gradient-38" x1="17677.08" y1="2875.73" x2="18719.21" y2="2223.35" gradientTransform="matrix(-1, 0, 0, 1, 19262.92, 0)" xlink:href="#linear-gradient-21"/><linearGradient id="linear-gradient-39" x1="-6521.24" y1="-5193.61" x2="-6544.62" y2="-4835.11" gradientTransform="matrix(0.79, -0.61, 0.61, 0.79, 9985.23, 3191.1)" xlink:href="#linear-gradient-3"/><linearGradient id="linear-gradient-40" x1="-10959.38" y1="362.98" x2="-10884.48" y2="550.86" gradientTransform="translate(12127.39 -1699.17) rotate(-19.17)" xlink:href="#linear-gradient-2"/><linearGradient id="linear-gradient-41" x1="-8776.62" y1="2732.17" x2="-8473.21" y2="2732.17" gradientTransform="translate(10866.46)" xlink:href="#linear-gradient-21"/><linearGradient id="linear-gradient-42" x1="-10717.04" y1="1718.2" x2="-10702.21" y2="1609.69" gradientTransform="translate(12532.33 105.01) rotate(-4.11)" xlink:href="#linear-gradient-21"/><linearGradient id="linear-gradient-43" x1="-10151.93" y1="-3097.92" x2="-10012.28" y2="-3346.45" gradientTransform="translate(10113.35 -4320.77) rotate(-56.92)" xlink:href="#linear-gradient-21"/><linearGradient id="linear-gradient-44" x1="-10121.9" y1="-3314.35" x2="-10052.07" y2="-3139.2" gradientTransform="translate(10113.35 -4320.77) rotate(-56.92)" xlink:href="#linear-gradient-2"/><linearGradient id="linear-gradient-45" x1="-10122.2" y1="-3081.22" x2="-9982.55" y2="-3329.75" gradientTransform="translate(10113.35 -4320.77) rotate(-56.92)" xlink:href="#linear-gradient-21"/><linearGradient id="linear-gradient-46" x1="-8875.71" y1="2348.05" x2="-9034.43" y2="2391.56" gradientTransform="translate(10824.99 -55.03) rotate(-2.83)" xlink:href="#linear-gradient-2"/><linearGradient id="linear-gradient-47" x1="2348.63" y1="2703.11" x2="3776.17" y2="2583.01" gradientTransform="translate(-684.65)" xlink:href="#linear-gradient-2"/><linearGradient id="linear-gradient-48" x1="-9073.44" y1="2655.77" x2="-9124.54" y2="2732.72" gradientTransform="translate(10866.46)" xlink:href="#linear-gradient-3"/></defs><title>passive3</title><g id="Illustration"><path class="cls-1" d="M2915.89,2756.09c-72.79,72.07-137.93,114.44-187.8,146.42-486.37,311.91-1042.35,222-1214.25,191.28-277.33-49.57-511.43-84.55-712.57-259.08-457-396.6-434.82-1223.93-85.58-1736.43,41.41-60.77,390.12-557.23,947.3-627.19,13.63-1.71,23.8-2.68,32.7-3.59,86.2-8.76,620.33-55,1055.86,295.44a1266.24,1266.24,0,0,1,255.72,278.66C3347.46,1546.22,3348.53,2327.77,2915.89,2756.09Z" transform="translate(-455.65 -460.68)"/><g class="cls-2"><path class="cls-3" d="M1085.21,1025.46a9.47,9.47,0,0,1-13.36,1c-7.73-6.6-15.87-13-24.18-18.92a9.47,9.47,0,0,1-2.29-13.07l.1-.15a9.48,9.48,0,0,1,13.23-2.19c8.75,6.27,17.31,13,25.45,19.92a9.47,9.47,0,0,1,1.66,12.57A7.57,7.57,0,0,1,1085.21,1025.46Zm-80-44.07c-9-4.76-18.37-9.18-27.74-13.14a9.48,9.48,0,0,1,7.38-17.46c9.86,4.17,19.68,8.82,29.2,13.83a9.47,9.47,0,0,1,4,12.8,8.57,8.57,0,0,1-.58,1A9.47,9.47,0,0,1,1005.22,981.39Zm-74.9-29.29c-9.85-2.63-19.93-4.85-30-6.62a9.48,9.48,0,0,1,3.29-18.67c10.57,1.86,21.19,4.21,31.56,7a9.48,9.48,0,0,1-4.88,18.32Zm-79.57-11.81c-10.2-.36-20.53-.27-30.71.24a9.48,9.48,0,0,1-1-18.93c10.72-.54,21.59-.63,32.32-.26a9.48,9.48,0,0,1-.65,18.95Zm-80.22,6.21c-10,1.91-20.06,4.28-29.89,7a9.48,9.48,0,1,1-5.12-18.25c10.34-2.9,20.93-5.39,31.45-7.41a9.48,9.48,0,0,1,3.56,18.62Zm-76.85,23.81c-9.34,4.08-18.62,8.61-27.58,13.47a9.48,9.48,0,0,1-9-16.66c9.43-5.12,19.2-9.89,29-14.18a9.48,9.48,0,0,1,7.59,17.37Zm-220.86,274a9.48,9.48,0,0,1-7.67-11c1.88-10.55,4.24-21.17,7-31.56a9.48,9.48,0,0,1,18.31,4.92c-2.65,9.85-4.89,19.94-6.68,30a9.39,9.39,0,0,1-1.51,3.71A9.49,9.49,0,0,1,472.82,1244.35Zm151.24-233.82c-8.19,6.05-16.22,12.54-23.86,19.27a9.48,9.48,0,0,1-12.54-14.22c8.05-7.09,16.51-13.92,25.14-20.29a9.47,9.47,0,1,1,11.26,15.24Zm-129.75,154a9.48,9.48,0,0,1-5-12.43c4.2-9.87,8.87-19.68,13.89-29.18a9.48,9.48,0,0,1,16.76,8.86c-4.77,9-9.22,18.36-13.2,27.74a9.63,9.63,0,0,1-.92,1.67A9.48,9.48,0,0,1,494.31,1164.58Zm70.89-99.29c-6.63,7.73-13,15.85-19,24.14a9.48,9.48,0,0,1-15.51-10.9l.12-.17c6.27-8.72,13-17.27,20-25.4a9.48,9.48,0,0,1,15,11.53C565.62,1064.76,565.42,1065,565.2,1065.29Z" transform="translate(-455.65 -460.68)"/><path class="cls-3" d="M476.63,1306.69a9.46,9.46,0,0,0,1.66-5.41c0-4.88,0-9.85.22-14.77a9.48,9.48,0,0,0-18.94-.67c-.18,5.17-.26,10.4-.24,15.54a9.48,9.48,0,0,0,17.3,5.31Z" transform="translate(-455.65 -460.68)"/></g><g class="cls-2"><path class="cls-3" d="M590.86,1572.12a9.47,9.47,0,0,0-1.28-12.22c-3.54-3.37-7.07-6.88-10.48-10.41a9.48,9.48,0,1,0-13.63,13.17c3.59,3.72,7.31,7.41,11,11a9.49,9.49,0,0,0,13.4-.32A10.55,10.55,0,0,0,590.86,1572.12Z" transform="translate(-455.65 -460.68)"/><path class="cls-3" d="M1138.72,1529.67a9.48,9.48,0,0,1-15.08-11.5c6-7.92,11.84-16.23,17.31-24.78a9.48,9.48,0,1,1,16,10.22q-3.56,5.55-7.26,10.94C1146.14,1519.68,1142.45,1524.76,1138.72,1529.67Zm30.42-66.75a9.48,9.48,0,0,1-4.62-12.58c4.22-9.12,8.1-18.52,11.52-27.93a9.48,9.48,0,0,1,17.81,6.48c-3.6,9.92-7.69,19.81-12.12,29.41a10.14,10.14,0,0,1-.8,1.4A9.48,9.48,0,0,1,1169.14,1462.92Zm-64.48,105.58c-7.48,7.43-15.38,14.64-23.48,21.44a9.48,9.48,0,1,1-12.18-14.53c7.7-6.45,15.2-13.3,22.3-20.36a9.48,9.48,0,0,1,14.5,12.08A9.75,9.75,0,0,1,1104.66,1568.5Zm92.24-182a9.47,9.47,0,0,1-7.27-11.26c2.11-9.81,3.82-19.82,5.09-29.77a9.48,9.48,0,0,1,18.8,2.4c-1.34,10.48-3.14,21-5.36,31.36a9.47,9.47,0,0,1-11.26,7.27ZM1039.44,1620.3c-8.93,5.6-18.22,10.9-27.62,15.75a9.48,9.48,0,0,1-8.69-16.85c8.93-4.61,17.76-9.64,26.23-15a9.48,9.48,0,1,1,10.08,16.06Zm-75,36.24c-10,3.52-20.18,6.67-30.39,9.35a9.48,9.48,0,0,1-4.81-18.34c9.7-2.54,19.41-5.53,28.88-8.88a9.48,9.48,0,0,1,6.32,17.87Zm-81.12,19c-10.5,1.27-21.16,2.11-31.7,2.5a9.48,9.48,0,1,1-.7-18.94c10-.37,20.14-1.17,30.12-2.38a9.48,9.48,0,0,1,2.28,18.82Zm-83.34.89c-10.52-1.06-21.11-2.57-31.49-4.51a9.48,9.48,0,1,1,3.47-18.63c9.86,1.84,19.92,3.27,29.91,4.27a9.48,9.48,0,0,1-1.89,18.87ZM718.44,1659c-10-3.34-20-7.15-29.71-11.32a9.48,9.48,0,1,1,7.5-17.42c9.22,4,18.71,7.59,28.21,10.76a9.48,9.48,0,0,1,6,12,9.79,9.79,0,0,1-1.18,2.38A9.48,9.48,0,0,1,718.44,1659Zm-75.64-34.9c-6.66-4-13.28-8.26-19.67-12.66-2.32-1.59-4.6-3.2-6.87-4.84a9.36,9.36,0,0,1-2.15-13.22,9.47,9.47,0,0,1,13.23-2.16q3.23,2.34,6.53,4.6c6.08,4.18,12.37,8.23,18.7,12a9.48,9.48,0,0,1,3.23,13c-.1.16-.2.33-.31.49A9.48,9.48,0,0,1,642.8,1624.11Z" transform="translate(-455.65 -460.68)"/><path class="cls-3" d="M1214.87,1301.54a9.45,9.45,0,0,0,1.67-5.46c0-5.14-.21-10.36-.48-15.54a9.48,9.48,0,1,0-18.93,1c.25,4.92.4,9.89.45,14.76a9.48,9.48,0,0,0,17.29,5.27Z" transform="translate(-455.65 -460.68)"/></g><path class="cls-3" d="M1098.93,1187.7a4.43,4.43,0,0,0-4-3.18l-53.85-2.6a235,235,0,0,0-47.63-59.34l9.09-53.11a4.44,4.44,0,0,0-2.24-4.63l-56.71-31.09a4.43,4.43,0,0,0-5.11.61l-39.88,36.22a235,235,0,0,0-75.65-8.24l-31.15-44a4.43,4.43,0,0,0-4.86-1.69l-62.08,18.11a4.43,4.43,0,0,0-3.18,4l-2.59,53.85a234.87,234.87,0,0,0-59.35,47.63l-53.11-9.09a4.44,4.44,0,0,0-4.63,2.24l-31.09,56.71a4.45,4.45,0,0,0,.61,5.11l36.22,39.89a234.86,234.86,0,0,0-8.23,75.64l-44,31.15a4.43,4.43,0,0,0-1.69,4.86l18.11,62.08a4.44,4.44,0,0,0,4,3.18l53.86,2.59A234.83,234.83,0,0,0,677.4,1474l-9.08,53.11a4.44,4.44,0,0,0,2.23,4.63l56.71,31.09a4.45,4.45,0,0,0,5.11-.61L772.26,1526a234.86,234.86,0,0,0,75.64,8.23l31.15,44a4.43,4.43,0,0,0,4.86,1.69L946,1561.81a4.44,4.44,0,0,0,3.18-4l2.6-53.86a235,235,0,0,0,59.34-47.62l53.11,9.08a4.44,4.44,0,0,0,4.63-2.23l31.09-56.71a4.42,4.42,0,0,0-.61-5.11l-36.22-39.89a234.87,234.87,0,0,0,8.24-75.64l44-31.15a4.45,4.45,0,0,0,1.7-4.86Z" transform="translate(-455.65 -460.68)"/><path class="cls-4" d="M883,1342.53a64.93,64.93,0,1,1,6-7.44A65.08,65.08,0,0,1,883,1342.53Zm-97.43-42.42a49.84,49.84,0,1,0,13.3-35.75,50.54,50.54,0,0,0-4.63,5.76A49.48,49.48,0,0,0,785.6,1300.11Z" transform="translate(-455.65 -460.68)"/><path class="cls-4" d="M965.61,1389.38a163.58,163.58,0,0,0,8.61-14h0c.83-1.53,1.64-3.06,2.43-4.61a161.69,161.69,0,0,0,9.73-23.68c0-.11.07-.22.1-.33l.3-.94c.19-.62.37-1.23.56-1.84a3.79,3.79,0,0,0-7.27-2.17,152.41,152.41,0,0,1-136.21,108.63,151.35,151.35,0,0,1-83-18.39,153,153,0,0,1-13.35-8.22,152.29,152.29,0,0,1-47-198.48c40.38-73.65,133.09-100.68,206.7-60.32a153.39,153.39,0,0,1,13.17,8.11,151.79,151.79,0,0,1,45,48.39,3.79,3.79,0,0,0,6.55-3.83,160.17,160.17,0,0,0-61.08-59.32c-77.29-42.37-174.64-13.94-217,63.32a159.88,159.88,0,0,0,49.31,208.37,164.29,164.29,0,0,0,14,8.63,159.87,159.87,0,0,0,208.39-49.34Z" transform="translate(-455.65 -460.68)"/><g class="cls-2"><path class="cls-3" d="M1474.9,899.7a5.86,5.86,0,0,0-.29-7c-3.13-3.86-6.43-7.67-9.79-11.33a5.85,5.85,0,0,0-8.63,7.91c3.21,3.5,6.35,7.13,9.34,10.81a5.87,5.87,0,0,0,8.24.85A6.23,6.23,0,0,0,1474.9,899.7Z" transform="translate(-455.65 -460.68)"/><path class="cls-3" d="M1443,868a5.86,5.86,0,0,1-8.25.67,241.36,241.36,0,0,0-19.51-14.93c-1.41-1-2.85-1.94-4.3-2.89a5.85,5.85,0,0,1-1.67-8.1,6.06,6.06,0,0,1,8.11-1.68c1.51,1,3,2,4.5,3a256.12,256.12,0,0,1,20.45,15.66,5.85,5.85,0,0,1,1,7.77Zm-57.85-31.93a242.31,242.31,0,0,0-27.39-11.53,5.85,5.85,0,1,1,3.86-11,255,255,0,0,1,28.72,12.08,5.87,5.87,0,0,1,2.66,7.85c-.13.25-.28.5-.43.73A5.87,5.87,0,0,1,1385.18,836.07Zm-56-19.57a238.46,238.46,0,0,0-29.39-4.44,5.86,5.86,0,0,1,1-11.67,252.31,252.31,0,0,1,30.83,4.66,5.85,5.85,0,0,1,4.49,7,6,6,0,0,1-.9,2.09A5.88,5.88,0,0,1,1329.16,816.5Zm-59.11-5.21a239.66,239.66,0,0,0-29.58,2.89,5.86,5.86,0,0,1-1.86-11.57,255.48,255.48,0,0,1,31-3,5.86,5.86,0,0,1,.42,11.71Zm-58.6,9.38a242.52,242.52,0,0,0-28,10,5.86,5.86,0,0,1-4.6-10.77,256.39,256.39,0,0,1,29.34-10.46,5.86,5.86,0,0,1,3.25,11.25ZM1156.91,844a238.84,238.84,0,0,0-24.69,16.49,5.85,5.85,0,0,1-7.1-9.31,253.23,253.23,0,0,1,25.9-17.31,5.86,5.86,0,0,1,7.77,8.38A6,6,0,0,1,1156.91,844Zm-47.17,35.93A239.82,239.82,0,0,0,1089.85,902a5.86,5.86,0,0,1-9.17-7.3,253.4,253.4,0,0,1,20.87-23.14,5.85,5.85,0,0,1,8.92,7.49A5.43,5.43,0,0,1,1109.74,879.92Zm-58.62,75.6a5.85,5.85,0,0,1-2.91-7.75,258.24,258.24,0,0,1,12.51-24c.69-1.18,1.4-2.35,2.11-3.52a5.86,5.86,0,0,1,10,6.13c-.67,1.09-1.33,2.19-2,3.33a241.2,241.2,0,0,0-12,22.92,6.55,6.55,0,0,1-.51.9A5.84,5.84,0,0,1,1051.12,955.52Z" transform="translate(-455.65 -460.68)"/></g><g class="cls-2"><path class="cls-3" d="M1484.76,1198.45a253.83,253.83,0,0,1-19.17,23.9,5.85,5.85,0,1,1-8.67-7.86,243.7,243.7,0,0,0,18.28-22.81,5.85,5.85,0,0,1,9.6,6.7Zm8.23-23.7a5.86,5.86,0,0,1-2.37-7.93A244.44,244.44,0,0,0,1503,1140.3a5.85,5.85,0,1,1,10.89,4.3,255.58,255.58,0,0,1-12.93,27.79,4.86,4.86,0,0,1-.33.54A5.85,5.85,0,0,1,1493,1174.75Zm-49.35,69a254.53,254.53,0,0,1-24.39,18.57,5.86,5.86,0,0,1-6.52-9.73A239.81,239.81,0,0,0,1436,1234.9a5.86,5.86,0,0,1,8.65,7.75A5.92,5.92,0,0,1,1443.64,1243.77Zm72.55-124.15a5.84,5.84,0,0,1-4.2-7.13,239.51,239.51,0,0,0,5.56-28.7,5.85,5.85,0,1,1,11.61,1.52,250.83,250.83,0,0,1-5.84,30.11,5.66,5.66,0,0,1-.84,1.85A5.86,5.86,0,0,1,1516.19,1119.62ZM1392.8,1277.8a253.59,253.59,0,0,1-28.13,12.16,5.86,5.86,0,0,1-4-11,241.21,241.21,0,0,0,26.83-11.6,5.86,5.86,0,1,1,5.29,10.45Zm-57.52,20.85a257,257,0,0,1-30.23,5.08,5.85,5.85,0,1,1-1.24-11.64,246.21,246.21,0,0,0,28.84-4.85,5.85,5.85,0,0,1,2.63,11.41Zm-60.87,6.47a253.81,253.81,0,0,1-30.58-2.32,5.85,5.85,0,1,1,1.6-11.6,240.49,240.49,0,0,0,29.16,2.21,5.85,5.85,0,0,1,5.76,5.94,5.79,5.79,0,0,1-1,3.23A5.86,5.86,0,0,1,1274.41,1305.12Z" transform="translate(-455.65 -460.68)"/><path class="cls-3" d="M1530.27,1057.71a5.85,5.85,0,0,0,1-3.27c0-5-.07-10-.33-15a5.85,5.85,0,0,0-11.69.61c.24,4.69.35,9.49.31,14.27a5.85,5.85,0,0,0,10.68,3.36Z" transform="translate(-455.65 -460.68)"/></g><path class="cls-3" d="M1453.08,977.32a3,3,0,0,0-2.7-2.13l-36-1.73a156.71,156.71,0,0,0-31.87-39.71l6.08-35.54a3,3,0,0,0-1.49-3.1l-38-20.8a3,3,0,0,0-3.42.4L1319,899a157,157,0,0,0-50.62-5.51L1247.54,864a3,3,0,0,0-3.25-1.13L1202.75,875a3,3,0,0,0-2.13,2.71l-1.74,36a157.1,157.1,0,0,0-39.71,31.87l-35.54-6.08a3,3,0,0,0-3.1,1.5L1099.73,979a3,3,0,0,0,.41,3.42l24.23,26.69a157.61,157.61,0,0,0-5.51,50.62l-29.44,20.85a3,3,0,0,0-1.14,3.24l12.13,41.55a3,3,0,0,0,2.7,2.13l36,1.73a157.06,157.06,0,0,0,31.86,39.71l-6.07,35.54a3,3,0,0,0,1.49,3.1l38,20.8a3,3,0,0,0,3.42-.4l26.69-24.24a157,157,0,0,0,50.62,5.51l20.84,29.45a3,3,0,0,0,3.25,1.13l41.54-12.12a3,3,0,0,0,2.13-2.71l1.74-36a157.5,157.5,0,0,0,39.71-31.87l35.54,6.08a3,3,0,0,0,3.09-1.5l20.81-38a3,3,0,0,0-.41-3.41l-24.24-26.69a157.05,157.05,0,0,0,5.51-50.62l29.45-20.85a3,3,0,0,0,1.13-3.25Z" transform="translate(-455.65 -460.68)"/><path class="cls-4" d="M1309.18,1081.46a44,44,0,1,1,4.11-5.12A43.94,43.94,0,0,1,1309.18,1081.46Zm-54.61-6.28a32.57,32.57,0,0,0,46-1.69h0a32.57,32.57,0,0,0-47.72-44.35,34,34,0,0,0-3,3.74A32.63,32.63,0,0,0,1254.57,1075.18Z" transform="translate(-455.65 -460.68)"/><path class="cls-4" d="M1366.66,1114.06a111.4,111.4,0,0,0,14.64-30.24c.09-.32.19-.64.29-1a5.85,5.85,0,1,0-11.22-3.33,99.11,99.11,0,0,1-8.1,19.36h0c-.18.34-.37.68-.56,1a97.64,97.64,0,0,1-33.24,35,99.18,99.18,0,0,1-24.16,11l-.21.06-.65.19a97.88,97.88,0,0,1-75-8.19,99.37,99.37,0,0,1-8.64-5.31,98.58,98.58,0,0,1,103.41-167.55c2.93,1.61,5.78,3.37,8.52,5.25a98.2,98.2,0,0,1,29.14,31.33,5.73,5.73,0,0,0,1.73,1.86,5.85,5.85,0,0,0,8.37-7.78,109.91,109.91,0,0,0-32.6-35.05,111.7,111.7,0,0,0-9.53-5.87,110.28,110.28,0,0,0-115.69,187.44,110.38,110.38,0,0,0,153.49-28.19Z" transform="translate(-455.65 -460.68)"/><path class="cls-5" d="M654,2896a43.91,43.91,0,0,0,43.8,43.76H3066.41a43.91,43.91,0,0,0,43.81-43.76l19.71-1361.17c0-24.07-28.36-71.06-80.33-67.53L734.73,1407.38a110.36,110.36,0,0,0-113.26,112.89Z" transform="translate(-455.65 -460.68)"/><path class="cls-6" d="M697.24,2854a41.56,41.56,0,0,0,41.44,41.44H3009.29a41.56,41.56,0,0,0,41.44-41.44l18.6-1235.69c-2.19-74.36-67.38-101.08-106.9-99.51l-2218.6-59.52a77.58,77.58,0,0,0-79.58,79.39Z" transform="translate(-455.65 -460.68)"/><path class="cls-3" d="M3026.2,2267h-.09a6.07,6.07,0,0,1-6-6.16l1.47-100.21a6.08,6.08,0,0,1,6.07-6h.09a6.08,6.08,0,0,1,6,6.17L3032.27,2261A6.07,6.07,0,0,1,3026.2,2267Z" transform="translate(-455.65 -460.68)"/><path class="cls-3" d="M3029.8,2021.38h-.09a6.07,6.07,0,0,1-6-6.16l5.63-383.82c-.1-22.8-7-41-20.57-54-25.28-24.22-65.42-23-67.11-22.91l-709.11-19a6.08,6.08,0,0,1-5.91-6.23,5.81,5.81,0,0,1,6.23-5.91l708.69,19c4.41-.26,47.15-1,75.62,26.27,16,15.34,24.19,36.48,24.31,62.81l-5.64,383.94A6.07,6.07,0,0,1,3029.8,2021.38Z" transform="translate(-455.65 -460.68)"/><rect class="cls-7" x="461.85" y="2933.13" width="2792.5" height="119.6" rx="5.65" transform="translate(3260.54 5525.17) rotate(180)"/><path class="cls-8" d="M2301.17,2728.74l482.41-924.2h-98.84c-18.23,0-28.25-21.19-16.69-35.28l514.16-626.65c22.28-27.16,66.3-9.93,64.23,25.14l-36.14,612.79a61.23,61.23,0,0,1-68.09,57.22l-68.91-7.88L2594.65,2866.46a76.21,76.21,0,0,1-69.19,44.27h-165.9Z" transform="translate(-455.65 -460.68)"/><g class="cls-9"><path class="cls-10" d="M2759.22,1739.48a5,5,0,0,1-3.07-1,5,5,0,0,1-.93-7.08l424.57-551.66a18.08,18.08,0,0,1,32.29,13.06l-7.49,66.12a5,5,0,1,1-10-1.13l7.49-66.13a8,8,0,0,0-14.25-5.76l-424.57,551.66A5,5,0,0,1,2759.22,1739.48Z" transform="translate(-455.65 -460.68)"/></g><path class="cls-11" d="M1902.31,2080.56l340.58,756.54a124.9,124.9,0,0,0,113.89,73.63h175.57a64.12,64.12,0,0,0,56.06-33l6.24-11.26h0a50.19,50.19,0,0,1-44.71-27.38L2096.17,1950Z" transform="translate(-455.65 -460.68)"/><path class="cls-12" d="M2142,2039.79h0A74.48,74.48,0,0,0,2033.84,2057L1533.1,2809.29A216.29,216.29,0,0,1,1353,2905.75h-70.46l-57.34-165.18s465.51-713.78,585.5-821.76c0,0,119.48-107.69,237.29-26.27,31.13,21.51,54.76,52.21,69.19,87.19Z" transform="translate(-455.65 -460.68)"/><path class="cls-13" d="M680.61,2296.3s83.82-104.77,246.24-121.06c0,0,77.15,26.28,230.84,301.67s255.7,401,375.41,332.38l-9.91,16.46a180.53,180.53,0,0,1-154.65,87.39h-66.21a226.51,226.51,0,0,1-183.89-94.22C998.82,2652.64,754.09,2322.12,680.61,2296.3Z" transform="translate(-455.65 -460.68)"/><g class="cls-9"><path class="cls-10" d="M3188.43,1361.78l-.58,0a5.06,5.06,0,0,1-4.45-5.59l3.4-29.92a5,5,0,1,1,10,1.14l-3.39,29.92A5,5,0,0,1,3188.43,1361.78Z" transform="translate(-455.65 -460.68)"/></g><g class="cls-9"><path class="cls-10" d="M1796.06,2317.81a5,5,0,0,1-4.19-7.87l219.57-325.48a39,39,0,0,1,67.54,5.13,5.05,5.05,0,0,1-9.13,4.32,28.87,28.87,0,0,0-50-3.8l-219.57,325.48A5.06,5.06,0,0,1,1796.06,2317.81Z" transform="translate(-455.65 -460.68)"/></g><g class="cls-9"><path class="cls-10" d="M1739,2402.39a5.06,5.06,0,0,1-4.18-7.88l14.08-20.87a5,5,0,0,1,8.37,5.65l-14.08,20.87A5,5,0,0,1,1739,2402.39Z" transform="translate(-455.65 -460.68)"/></g><circle class="cls-14" cx="1723.37" cy="1325.54" r="155.18" transform="translate(-888.18 1146.17) rotate(-45)"/><circle class="cls-15" cx="1723.37" cy="1325.54" r="150.02" transform="translate(-888.18 1146.17) rotate(-45)"/><path class="cls-16" d="M1598.79,1270.17a5,5,0,0,1-4.59-7.21,142.87,142.87,0,0,1,126.94-80.9,144.54,144.54,0,0,1,25.91,1.92,5,5,0,1,1-1.64,9.89,135.66,135.66,0,0,0-24.12-1.78,132.91,132.91,0,0,0-118.06,75.25A5,5,0,0,1,1598.79,1270.17Z" transform="translate(-455.65 -460.68)"/><circle class="cls-16" cx="1726.69" cy="1328.75" r="126.97" transform="translate(-889.49 1149.45) rotate(-45)"/><path class="cls-17" d="M1715.7,1423.33l-.22-13.81c-14.4-.36-28.7-3.53-38.88-7.81a8,8,0,0,1-4.57-9.36l3.31-12.92a8.05,8.05,0,0,1,10.85-5.44,93.49,93.49,0,0,0,35.9,7c13.87-.21,24.14-5.07,24-14.71-.13-8.7-8.21-13.75-27.56-18.62-27.62-7.09-47.55-18.77-47.93-43-.34-21.87,15.39-38.8,43.05-43.7l-.21-13.81a8.05,8.05,0,0,1,7.92-8.18l8.12-.12a8,8,0,0,1,8.17,7.92l.19,12.4a103,103,0,0,1,30.81,5,8,8,0,0,1,5.15,9.59l-3,12a8,8,0,0,1-10.51,5.58,83.86,83.86,0,0,0-30.21-5c-16.46.26-21,7.15-21,13.26.12,7.52,10.07,12.54,31.57,18.79,30.7,8.69,43.59,21.19,43.94,44,.33,20.92-14.9,40-44.91,45.13l.24,15.46a8,8,0,0,1-7.92,8.17l-8.12.13A8,8,0,0,1,1715.7,1423.33Z" transform="translate(-455.65 -460.68)"/><circle class="cls-18" cx="2126.35" cy="974.73" r="253.25" transform="translate(-522.09 1328.37) rotate(-45)"/><circle class="cls-19" cx="1670.7" cy="514.05" r="244.83"/><path class="cls-16" d="M1923,880.88a4.7,4.7,0,0,1-4.3-6.75,231.06,231.06,0,0,1,245.75-127,4.7,4.7,0,1,1-1.54,9.27,223.15,223.15,0,0,0-40-3,220.39,220.39,0,0,0-195.77,124.78A4.71,4.71,0,0,1,1923,880.88Z" transform="translate(-455.65 -460.68)"/><circle class="cls-16" cx="2131.77" cy="979.98" r="207.22" transform="translate(-524.22 1333.74) rotate(-45)"/><path class="cls-20" d="M2113.83,1134.32l-.35-22.54c-23.51-.57-46.84-5.76-63.46-12.73a13,13,0,0,1-7.45-15.29l5.4-21.09a13.14,13.14,0,0,1,17.71-8.87c16.48,6.61,36.79,11.72,58.59,11.38,22.63-.35,39.39-8.28,39.15-24-.22-14.2-13.4-22.43-45-30.38-45.07-11.58-77.6-30.64-78.21-70.16-.56-35.67,25.11-63.32,70.26-71.31l-.35-22.54a13.13,13.13,0,0,1,12.93-13.34l13.24-.2a13.12,13.12,0,0,1,13.34,12.92l.31,20.25c21.76.53,37.65,4,50.28,8.22a13.07,13.07,0,0,1,8.41,15.65l-5,19.5a13.11,13.11,0,0,1-17.16,9.11,136.84,136.84,0,0,0-49.31-8.16c-26.85.42-34.35,11.66-34.19,21.64.19,12.27,16.43,20.46,51.51,30.66,50.1,14.19,71.14,34.58,71.72,71.79.53,34.14-24.31,65.22-73.3,73.66l.39,25.23a13.13,13.13,0,0,1-12.92,13.34l-13.25.2A13.13,13.13,0,0,1,2113.83,1134.32Z" transform="translate(-455.65 -460.68)"/><circle class="cls-21" cx="2309.78" cy="1537.59" r="260.59" transform="translate(-866.37 1622.93) rotate(-45)"/><circle class="cls-22" cx="2309.78" cy="1537.59" r="251.93" transform="translate(-866.37 1622.93) rotate(-45)"/><path class="cls-16" d="M2100.51,1440.88a4.48,4.48,0,0,1-2.12-.47,4.69,4.69,0,0,1-2.17-6.28,237.6,237.6,0,0,1,252.72-130.58,4.7,4.7,0,1,1-1.54,9.27,230.7,230.7,0,0,0-41.16-3.06,226.92,226.92,0,0,0-201.56,128.47A4.68,4.68,0,0,1,2100.51,1440.88Z" transform="translate(-455.65 -460.68)"/><circle class="cls-16" cx="2315.36" cy="1542.99" r="213.22" transform="translate(-868.56 1628.45) rotate(-45)"/><path class="cls-23" d="M2296.9,1701.81l-.36-23.2c-24.2-.59-48.2-5.92-65.3-13.09a13.43,13.43,0,0,1-7.67-15.74l5.56-21.7a13.52,13.52,0,0,1,18.22-9.13c17,6.8,37.85,12.07,60.29,11.72,23.29-.37,40.53-8.53,40.28-24.72-.23-14.6-13.78-23.07-46.28-31.25-46.39-11.92-79.86-31.53-80.49-72.19-.57-36.72,25.84-65.16,72.3-73.38l-.36-23.2a13.51,13.51,0,0,1,13.3-13.72L2320,1392a13.52,13.52,0,0,1,13.73,13.31l.32,20.83c22.39.54,38.73,4.12,51.73,8.46a13.45,13.45,0,0,1,8.66,16.1l-5.11,20.07a13.49,13.49,0,0,1-17.65,9.38,140.64,140.64,0,0,0-50.74-8.4c-27.63.43-35.35,12-35.19,22.26.2,12.63,16.91,21.06,53,31.55,51.56,14.6,73.21,35.58,73.8,73.87.55,35.13-25,67.12-75.42,75.8l.41,26a13.52,13.52,0,0,1-13.31,13.72l-13.63.21A13.51,13.51,0,0,1,2296.9,1701.81Z" transform="translate(-455.65 -460.68)"/><circle class="cls-24" cx="2628.42" cy="1098.61" r="208.41" transform="translate(-462.64 1719.67) rotate(-45)"/><circle class="cls-25" cx="2628.42" cy="1098.61" r="201.48" transform="translate(-462.64 1719.67) rotate(-45)"/><path class="cls-16" d="M2461.07,1022.64a5.08,5.08,0,0,1-2.32-.51,5.13,5.13,0,0,1-2.37-6.86,190.32,190.32,0,0,1,169.06-107.76,192.29,192.29,0,0,1,34.52,2.57,5.13,5.13,0,1,1-1.68,10.12,183.84,183.84,0,0,0-32.68-2.42,180.13,180.13,0,0,0-160,102A5.11,5.11,0,0,1,2461.07,1022.64Z" transform="translate(-455.65 -460.68)"/><circle class="cls-16" cx="2632.88" cy="1102.93" r="170.53" transform="translate(-464.39 1724.08) rotate(-45)"/><path class="cls-26" d="M2618.11,1230l-.28-18.55c-19.35-.47-38.55-4.74-52.23-10.47a10.75,10.75,0,0,1-6.13-12.59l4.45-17.35a10.82,10.82,0,0,1,14.57-7.31c13.56,5.44,30.27,9.65,48.21,9.38,18.63-.29,32.42-6.83,32.22-19.77-.18-11.68-11-18.46-37-25-37.09-9.53-63.86-25.22-64.37-57.73-.45-29.36,20.67-52.11,57.83-58.69l-.29-18.55a10.81,10.81,0,0,1,10.64-11l10.9-.17a10.8,10.8,0,0,1,11,10.64l.26,16.66c17.91.44,31,3.3,41.37,6.77a10.76,10.76,0,0,1,6.93,12.88l-4.09,16.05a10.78,10.78,0,0,1-14.11,7.5,112.44,112.44,0,0,0-40.58-6.72c-22.1.34-28.27,9.59-28.14,17.8.15,10.11,13.52,16.84,42.39,25.24,41.23,11.67,58.54,28.45,59,59.08.43,28.09-20,53.67-60.32,60.62l.32,20.76a10.8,10.8,0,0,1-10.64,11l-10.9.17A10.81,10.81,0,0,1,2618.11,1230Z" transform="translate(-455.65 -460.68)"/><path class="cls-3" d="M804.76,2863.81s-4.71,25.25-7.14,50.26A17.26,17.26,0,0,0,814,2932.92c33.32,1.71,104.61,5.09,130.21,4.19a5.61,5.61,0,0,0,5-7.64,12.52,12.52,0,0,0-6.36-6.83l-117.28-55.27Z" transform="translate(-455.65 -460.68)"/><path class="cls-27" d="M801.24,2848.92l3.3,30.28s20.55,9.81,34.74-.88l-8.22-33.79Z" transform="translate(-455.65 -460.68)"/><path class="cls-28" d="M809.37,2280.22c-1.63,7.88-12.09,394.14,27.56,567.66a5.89,5.89,0,0,1-3.51,6.8,102.39,102.39,0,0,1-33.7,6.51,10.12,10.12,0,0,1-10-7.36c-11.42-40.28-66.06-242.07-71.61-434.38-6.19-214.9.07-7.32.07-7.32l6.1-132.74Z" transform="translate(-455.65 -460.68)"/><path class="cls-3" d="M669.13,2875.71s-7.23,12.7-14.44,46.56a10.53,10.53,0,0,0,9.14,12.7c11,1.18,27.93,2.74,41.51,2.77a10.49,10.49,0,0,0,10.5-11.6c-1.39-12.4-5.88-32.76-20.2-48.74Z" transform="translate(-455.65 -460.68)"/><path class="cls-29" d="M663.26,2836.74l8,45.83s8.23,6.25,24.68,1.93l-3.54-49.26Z" transform="translate(-455.65 -460.68)"/><path class="cls-30" d="M645.81,2290.51c-35.72,203.51,2.52,503.85,15.82,562.68a9.15,9.15,0,0,0,7.33,7c6.17,1.08,16.35,2,26.42-.81a8.39,8.39,0,0,0,6.11-7.66c2.31-47.45,1.74-338.85,34.31-453.71A26.13,26.13,0,0,1,746,2383.71l61.49-42.84,5.35-70.14Z" transform="translate(-455.65 -460.68)"/><path class="cls-10" d="M864.7,1906.36c-101.2-2.64-213.14,24.54-213.14,24.54-9,49.59-18.59,95.84-20.6,144.63-5.11,124.12,11.7,234.41,11.7,234.41,78.16,21.29,166.87-11,166.87-11,13.73-73.45,76.47-280,76.47-280,49.51-5.66,90.38-19.54,124.11-38.09-25.31-29.9-37-67.76-42-90.12C932.18,1901.58,895.91,1907.17,864.7,1906.36Z" transform="translate(-455.65 -460.68)"/><path class="cls-31" d="M1165.09,1760.13c-9.83-12.1-22.47-6.54-22.47-6.54-15.49,62.77-94.08,113-174.55,137.21,5,22.36,16.73,60.22,42,90.12C1144,1907.33,1165.09,1760.13,1165.09,1760.13Z" transform="translate(-455.65 -460.68)"/><path class="cls-32" d="M1162.64,1763.16c1,3.32-11.08,8.24-18.05-5.36-.18-6.48-3.86-34.29.06-39.54,20.9-27.93,61.24-62.81,61.24-62.81,6.7,6.74,1.06,13.24,1.06,13.24l-19.59,20c4,7.37,8.88,13.61,11.11,22.5a27.17,27.17,0,0,1-2.9,20c-3.46,6.1-8.19,14-12.64,20.24C1174.5,1763.18,1162.64,1763.16,1162.64,1763.16Z" transform="translate(-455.65 -460.68)"/><path class="cls-33" d="M1178.74,1701.75l-17.82,14.83-5.7,14.87,15.6,17.64s5.59-29.57,9.59-35.94S1182.4,1703.66,1178.74,1701.75Z" transform="translate(-455.65 -460.68)"/><path class="cls-10" d="M689.44,2029.28l-37.88-98.38s-95.16,63.33-111.48,144.63c17.85,1.49,50.31,6.44,82,22.81C629.41,2060,689.44,2029.28,689.44,2029.28Z" transform="translate(-455.65 -460.68)"/><path class="cls-34" d="M771.18,2122.28s-106.72,59-142,7.41c-7.34-10.7-9-21.29-7.09-31.35-31.66-16.37-64.12-21.32-82-22.81-4.92,24.51-2.69,50.64,11.48,77.17,61.64,115.36,233.42-4.11,233.42-4.11Z" transform="translate(-455.65 -460.68)"/><path class="cls-35" d="M763,1823.21,729.87,1916a3.35,3.35,0,0,0,1.49,4c8.73,4.94,40.23,19.27,78.57-4.53a15.8,15.8,0,0,0,7.39-11.22l11.19-80.5Z" transform="translate(-455.65 -460.68)"/><path class="cls-36" d="M833.86,1737.64s34.73,66.9,29.94,93.75-48.6,24.5-86.67,2.29l-26-72.13Z" transform="translate(-455.65 -460.68)"/><path class="cls-37" d="M779.16,1798.4a2.75,2.75,0,0,0,1.24-4c-2.79-4.35-8-13.23-9.64-21,0,0-6.32-4.13,16.27-9.31s56.28-13.23,63.53-32.35c7.06-18.64-10.59-65.85-39.82-28.64a2.74,2.74,0,0,1-4.34,0c-4.68-6.2-17-19.11-34.35-11.52-16.24,7.1-18.17,18.93-18,24.9a2.74,2.74,0,0,1-3.26,2.77c-8.16-1.64-27.76-3.17-37.11,16.87-7.7,16.5-2.89,25.93,1.53,30.56a2.73,2.73,0,0,1-1.21,4.53c-5.39,1.59-12.37,6.08-11.8,18.68.8,17.4,20.27,16.06,25.81,15.32a2.77,2.77,0,0,1,2.43.88c4.7,5.3,25.88,27.82,49,30.73a2.76,2.76,0,0,0,2.93-3.63L772.65,1804a2.77,2.77,0,0,1,1.52-3.41Z" transform="translate(-455.65 -460.68)"/><path class="cls-38" d="M783.15,1802.57s-25-17.51-27-3,22.47,21.29,34.67,16Z" transform="translate(-455.65 -460.68)"/><path class="cls-39" d="M749.37,2215.48l58.13-203a5.93,5.93,0,0,1,5-4.26c10.53-1.23,41-4.68,76.29-7.66,42.44-3.59,91.73-6.5,121.19-4a5.93,5.93,0,0,1,4.85,8.55C998.09,2039,929.2,2176.81,894.69,2222a5.93,5.93,0,0,1-4.79,2.35L755,2223.06A5.94,5.94,0,0,1,749.37,2215.48Z" transform="translate(-455.65 -460.68)"/><path class="cls-40" d="M763.41,2166.44s-8.09-33.3-4.83-45.11,9.6-27,30.69-23.63,46,12.26,46,12.26S834,2125.35,818,2120.38l9.95,7.7s-1.43,12.32-15,5.74l9.25,10.2s-5.82,10.12-15.78,3.63S791.67,2170.45,763.41,2166.44Z" transform="translate(-455.65 -460.68)"/><path class="cls-41" d="M884.92,2061.16A17.07,17.07,0,1,0,902,2044.09,17.06,17.06,0,0,0,884.92,2061.16Z" transform="translate(-455.65 -460.68)"/><path class="cls-3" d="M814.08,2072.4l11.83-40.15a13.78,13.78,0,0,1,10.35-9.66c37.1-7.74,138.63-9.38,139.65-9.4l-.07-4.53c-4.18.06-103,1.66-140.51,9.49A18.3,18.3,0,0,0,821.56,2031l-11.83,40.15Z" transform="translate(-455.65 -460.68)"/><path class="cls-42" d="M1602.68,3115.79c.36-.13,193.56-338.46,219.66-370.3a20.25,20.25,0,0,1,18.07-7.26l53.92,6.42,63.35,137-105.54-61.46c10.45,72.22-125.13,179.55-171.63,218.72a10.67,10.67,0,0,0-.84,15.55l18.56,19.44c-30.47,30.89-65.64,50.72-105.33,59.9Z" transform="translate(-455.65 -460.68)"/><path class="cls-43" d="M1687.49,3063.46s11.85,3.83,15.86,14.38a12.07,12.07,0,0,1-4.54,13.91c-19.51,14-83.85,59.1-113.55,67.94a3.36,3.36,0,0,1-4.2-4c1.52-6.9,6.45-20.68,22.33-40.84l-1.42,2.88a4.12,4.12,0,0,0,5.71,5.44C1627.54,3112,1668,3087.46,1687.49,3063.46Z" transform="translate(-455.65 -460.68)"/><path class="cls-44" d="M1677.93,3198.83c.33-.21,29.31-70,29.64-70.25,26.57-161.81,91.41-300.38,110.54-336.84a20.21,20.21,0,0,1,16.22-10.77l54.11-4.62,89.77,121.39-115.79-38.84c24.84,68.62-86.21,201.17-123.82,248.93a10.7,10.7,0,0,0,2.32,15.41l22.12,15.27c-23.6,36.42-54,63-91,80Z" transform="translate(-455.65 -460.68)"/><path class="cls-45" d="M1750.4,3130.41s12.37,1.35,18.44,10.88a12.07,12.07,0,0,1-1.63,14.54c-16.28,17.63-70.16,74.85-97.46,89.51a3.36,3.36,0,0,1-4.91-3c.09-7.07,2.13-21.56,13.6-44.52l-.81,3.11a4.13,4.13,0,0,0,6.7,4.18C1701.51,3190.09,1736.16,3157.87,1750.4,3130.41Z" transform="translate(-455.65 -460.68)"/><path class="cls-10" d="M2141.71,2750.78s48.95,72.81,53,106-13.53,44.69-64.76,48.93c-152.46,12.6-227.62-33.09-227.62-33.09-10.42-66.5-17.85-83.42-105-119.57,0,0,110.17,8.74,132.34.14S2141.71,2750.78,2141.71,2750.78Z" transform="translate(-455.65 -460.68)"/><path class="cls-46" d="M1946.52,2342.89s34.09-40.33,70.34,9.15c6.56,9,31.77,1.57,41,20.33a23.81,23.81,0,0,0,25.7,13.23c26.44-4.87,69.67-5.28,91,36.16,16.29,31.64,3.71,50.15-12.57,60.7-12,7.76-16.23,23.5-9,35.78,6.94,11.78,8.24,27.73-9.67,46.93-40.15,43-119.61-27.3-119.61-27.3l-63.1-149.1Z" transform="translate(-455.65 -460.68)"/><path class="cls-10" d="M2009.33,2741.14s-57-54.27-85-90.22a76.28,76.28,0,0,1-12.92-68.65c12.81-43.15,35.58-87.85,37.65-94.81,3.19-10.66,67.1-10.22,67.1-10.22s125.76,81.62,175.18,219.89l-55.5,17.28s-8.58-14.41-21.31-33.17a2.5,2.5,0,0,0-4.24,2.66c9.76,17,17.67,33.86,18.39,44.92Z" transform="translate(-455.65 -460.68)"/><path class="cls-47" d="M1900.73,2762.56l42.83-46.6,49.47,13.32s57.66,8.94,90.67,0l33-8.93,74.59-23.22,11.71,33.1a19.92,19.92,0,0,1-7.28,22.9c-6.45,4.59-14,9.63-18.84,11.74-9.82,4.29-226.26,1.36-226.26,1.36Z" transform="translate(-455.65 -460.68)"/><path class="cls-48" d="M1972.18,2400.4l43,79.87c-2.84,17.44-46.75,17.93-53.54,7.52a10.46,10.46,0,0,1-1.35-3.52l-25.69-53.37c-1.11-5.21,13.16-22.74,17.86-25.24l17.07-9.09C1976.07,2393.07,1948.63,2392.79,1972.18,2400.4Z" transform="translate(-455.65 -460.68)"/><path class="cls-49" d="M1885.25,2381.65s-4.85,27,16.36,61.3,42.33,32.76,53.06,20.53,23.59-32.62,17.74-66.84S1892.57,2347.24,1885.25,2381.65Z" transform="translate(-455.65 -460.68)"/><path class="cls-50" d="M1946.73,2400.36s-34.34-45.12-60.71-5.79l.44,13.59s-34.29-1.61-30.57-33.21,31.71-53.2,70.52-42.4,61.49,23.1,65.87,50-17.62,22.54-17.62,22.54-8.4-18.59-18.55-19.86-6.48,13.44-6.48,13.44Z" transform="translate(-455.65 -460.68)"/><path class="cls-51" d="M1954.61,2399.15s-17.79-23.08-1.59-27.88,15.59,22.63,14.53,32.82Z" transform="translate(-455.65 -460.68)"/><path class="cls-52" d="M2042.5,2781h-.45l-197-.22a8.82,8.82,0,1,1,0-17.63l197,.21a8.82,8.82,0,0,1,.43,17.63Z" transform="translate(-455.65 -460.68)"/><path class="cls-53" d="M1668,2602.14H1832a31.28,31.28,0,0,1,28.28,17.93l75.85,160.83H1732.26a19,19,0,0,1-17.67-12l-58.81-148.82A13.1,13.1,0,0,1,1668,2602.14Z" transform="translate(-455.65 -460.68)"/><path class="cls-54" d="M1783.54,2684.6c3.56,11.05.93,21.78-5.86,24s-15.19-5-18.74-16-.93-21.77,5.86-24S1780,2673.56,1783.54,2684.6Z" transform="translate(-455.65 -460.68)"/></g></svg>