<svg xmlns="http://www.w3.org/2000/svg" xmlns:xlink="http://www.w3.org/1999/xlink" viewBox="0 0 2838.53 2800"><defs><style>.cls-1{fill:url(#linear-gradient);}.cls-2{fill:url(#linear-gradient-2);}.cls-3{fill:url(#linear-gradient-3);}.cls-4{isolation:isolate;}.cls-5{fill:#f4f7fa;}.cls-6{clip-path:url(#clip-path);}.cls-7{opacity:0.5;}.cls-7,.cls-8{mix-blend-mode:soft-light;}.cls-24,.cls-25,.cls-8{opacity:0.7;}.cls-25,.cls-9{fill:#fff;}.cls-10{clip-path:url(#clip-path-2);}.cls-11{clip-path:url(#clip-path-3);}.cls-12{fill:url(#linear-gradient-7);}.cls-13{fill:url(#linear-gradient-8);}.cls-14{fill:url(#linear-gradient-9);}.cls-15{fill:url(#linear-gradient-10);}.cls-16{fill:url(#linear-gradient-11);}.cls-17{fill:#d8dee8;}.cls-18{opacity:0.15;}.cls-102,.cls-18,.cls-27,.cls-29,.cls-32,.cls-93,.cls-96{mix-blend-mode:multiply;}.cls-19{fill:url(#linear-gradient-12);}.cls-20{fill:url(#linear-gradient-13);}.cls-21{fill:url(#linear-gradient-14);}.cls-22{fill:url(#linear-gradient-15);}.cls-23{fill:url(#linear-gradient-16);}.cls-24{fill:url(#linear-gradient-17);}.cls-26{fill:url(#linear-gradient-18);}.cls-102,.cls-27,.cls-32,.cls-93,.cls-96{opacity:0.3;}.cls-27{fill:url(#linear-gradient-19);}.cls-28{fill:url(#linear-gradient-20);}.cls-29{opacity:0.2;fill:url(#linear-gradient-21);}.cls-30{fill:url(#linear-gradient-22);}.cls-31{fill:url(#linear-gradient-23);}.cls-32{fill:url(#linear-gradient-24);}.cls-33{opacity:0.9;}.cls-34{fill:url(#linear-gradient-25);}.cls-35{fill:url(#linear-gradient-26);}.cls-36{fill:url(#linear-gradient-27);}.cls-37{fill:url(#linear-gradient-28);}.cls-38{fill:#fcb048;}.cls-39{fill:url(#linear-gradient-29);}.cls-40{fill:url(#linear-gradient-30);}.cls-41{fill:url(#linear-gradient-31);}.cls-42{fill:url(#linear-gradient-32);}.cls-43{fill:url(#linear-gradient-33);}.cls-44{fill:url(#linear-gradient-34);}.cls-45{fill:url(#linear-gradient-35);}.cls-46{fill:url(#linear-gradient-36);}.cls-47{fill:url(#linear-gradient-37);}.cls-48{fill:url(#linear-gradient-38);}.cls-49{fill:url(#linear-gradient-39);}.cls-50{fill:url(#linear-gradient-40);}.cls-51{fill:url(#linear-gradient-41);}.cls-52{fill:url(#linear-gradient-42);}.cls-53{fill:url(#linear-gradient-43);}.cls-54{fill:url(#linear-gradient-44);}.cls-55{fill:url(#linear-gradient-45);}.cls-56{fill:url(#linear-gradient-46);}.cls-57{fill:url(#linear-gradient-47);}.cls-58{fill:url(#linear-gradient-48);}.cls-59{fill:url(#linear-gradient-49);}.cls-60{fill:url(#linear-gradient-50);}.cls-61{fill:url(#linear-gradient-51);}.cls-62{fill:url(#linear-gradient-52);}.cls-63{fill:url(#linear-gradient-53);}.cls-64{fill:url(#linear-gradient-54);}.cls-65{fill:url(#linear-gradient-55);}.cls-66{fill:url(#linear-gradient-56);}.cls-67{fill:url(#linear-gradient-57);}.cls-68{fill:url(#linear-gradient-58);}.cls-69{fill:url(#linear-gradient-59);}.cls-70{fill:url(#linear-gradient-60);}.cls-71{fill:url(#linear-gradient-61);}.cls-72{fill:url(#linear-gradient-62);}.cls-73{fill:url(#linear-gradient-63);}.cls-74{fill:url(#linear-gradient-64);}.cls-75{fill:url(#linear-gradient-65);}.cls-76{fill:url(#linear-gradient-66);}.cls-77{fill:url(#linear-gradient-67);}.cls-78{fill:url(#linear-gradient-68);}.cls-79{fill:url(#linear-gradient-69);}.cls-80{fill:url(#linear-gradient-70);}.cls-81{fill:url(#linear-gradient-71);}.cls-82{fill:url(#linear-gradient-72);}.cls-83{fill:url(#linear-gradient-73);}.cls-84{fill:url(#linear-gradient-74);}.cls-85{fill:url(#linear-gradient-75);}.cls-86{fill:url(#linear-gradient-76);}.cls-87{fill:url(#linear-gradient-77);}.cls-88{fill:url(#linear-gradient-78);}.cls-89{fill:url(#linear-gradient-79);}.cls-90{fill:url(#linear-gradient-80);}.cls-91{fill:url(#linear-gradient-81);}.cls-92{fill:url(#linear-gradient-82);}.cls-93{fill:url(#linear-gradient-83);}.cls-94{fill:url(#linear-gradient-84);}.cls-95{fill:url(#linear-gradient-85);}.cls-96{fill:url(#linear-gradient-86);}.cls-97{fill:url(#linear-gradient-87);}.cls-98{fill:url(#linear-gradient-88);}.cls-99{fill:url(#linear-gradient-89);}.cls-100{fill:url(#linear-gradient-90);}.cls-101{fill:url(#linear-gradient-91);}.cls-102{fill:url(#linear-gradient-92);}.cls-103{fill:url(#linear-gradient-93);}</style><linearGradient id="linear-gradient" x1="2358.25" y1="2176.65" x2="2560.8" y2="2466.02" gradientUnits="userSpaceOnUse"><stop offset="0" stop-color="#aa80f9"/><stop offset="1" stop-color="#6165d7"/></linearGradient><linearGradient id="linear-gradient-2" x1="2549.03" y1="1958.21" x2="2884.16" y2="2428.68" xlink:href="#linear-gradient"/><linearGradient id="linear-gradient-3" x1="2128.07" y1="1206.32" x2="2435.49" y2="3122.53" gradientUnits="userSpaceOnUse"><stop offset="0" stop-color="#e38ddd"/><stop offset="1" stop-color="#9571f6"/></linearGradient><clipPath id="clip-path" transform="translate(-434.38 -455)"><path class="cls-1" d="M2366.21,2973.91c30.05,6.38,242.13,51.43,379.76-92.82,16-16.77,92.17-96.61,92.61-205.68.45-112.95-80.69-163.23-51.51-227.93,26-57.63,97.72-34.07,155.36-102,58.52-69,74.89-199.69,9.38-260.53-45.1-41.9-122.82-44.9-179.29-19.51-97.67,43.9-73.9,146.66-168.91,238.14-108.37,104.34-201.21,30.3-315.58,123.8-132.4,108.23-184.86,352.08-85.8,469.15C2246.11,2948.39,2308,2961.54,2366.21,2973.91Z"/></clipPath><clipPath id="clip-path-2" transform="translate(-434.38 -455)"><path class="cls-2" d="M2211.37,2716c154.59,39.83,288.47-43.84,320.67-64,18.8-11.75,170.16-109.47,211.25-288.36,36.92-160.74-48.26-243,22.94-392.21,31.86-66.76,78.86-113.08,83.16-117.25,81.55-79.1,133.3-58.4,193.24-124.36,64.14-70.59,68.45-164.26,71.26-225.29,3.43-74.62,6.59-143.16-41.65-191.56-47.13-47.29-128.53-60.51-191.25-37.64-96.45,35.17-76.9,129.53-199.06,217.29-77.11,55.41-103.88,31.44-163,88.92-64.3,62.49-53.79,111.34-107.35,186.89-54.52,76.91-110.38,89.72-198.85,146.6-84.31,54.2-264.63,170.13-299.91,330.66C1874.2,2421.37,2006.4,2663.19,2211.37,2716Z"/></clipPath><clipPath id="clip-path-3" transform="translate(-434.38 -455)"><path class="cls-3" d="M1692.25,2622.56c-67.36-119.9,49.67-340.44,161.8-456.32,72-74.43,116.9-79.72,160-161.61,59.5-113.18,9.11-170.21,66.59-290.05,52.34-109.14,106.53-89.26,167.47-198.88,71.69-129,11.07-188.2,67.34-317.17C2378.63,1053.61,2548,915.73,2665.54,958c79.28,28.47,129.28,136.77,127.18,228.94-3.26,142.45-129,162.91-172.59,334-9.2,36.14-11.62,65.33-10.33,90.81,3.89,76.64,21.09,128.39,31,162,36.23,122.75-8.82,245.49-26.16,292.72-45.54,124.08-103.78,112.54-195.16,262.81-94.09,154.71-55.15,204.47-121.85,280.37C2155.12,2771.78,1776.73,2773,1692.25,2622.56Z"/></clipPath><linearGradient id="linear-gradient-7" x1="2596.42" y1="4396.68" x2="1131.46" y2="5726.11" gradientTransform="translate(-3755.8 3738.61) rotate(-90)" gradientUnits="userSpaceOnUse"><stop offset="0" stop-color="#26264f"/><stop offset="1" stop-color="#444b8c"/></linearGradient><linearGradient id="linear-gradient-8" x1="623.58" y1="1851.49" x2="2294.32" y2="1804.93" gradientUnits="userSpaceOnUse"><stop offset="0" stop-color="#444b8c"/><stop offset="1" stop-color="#26264f"/></linearGradient><linearGradient id="linear-gradient-9" x1="1489.73" y1="5561.79" x2="2317.35" y2="4550.26" gradientTransform="translate(-3755.8 3738.61) rotate(-90)" xlink:href="#linear-gradient-8"/><linearGradient id="linear-gradient-10" x1="1942.63" y1="2627.24" x2="718.49" y2="972.86" gradientUnits="userSpaceOnUse"><stop offset="0.49" stop-color="#ebeff2"/><stop offset="1" stop-color="#fff"/></linearGradient><linearGradient id="linear-gradient-11" x1="1388.71" y1="2670.34" x2="1361.09" y2="2880.73" xlink:href="#linear-gradient-8"/><linearGradient id="linear-gradient-12" x1="2348.35" y1="4164.79" x2="879.26" y2="5497.97" gradientTransform="translate(-3755.8 3738.61) rotate(-90)" xlink:href="#linear-gradient-3"/><linearGradient id="linear-gradient-13" x1="1683.23" y1="2281.3" x2="2019.82" y2="1202.24" gradientUnits="userSpaceOnUse"><stop offset="0" stop-color="#311944"/><stop offset="1" stop-color="#893976"/></linearGradient><linearGradient id="linear-gradient-14" x1="1952" y1="2069.31" x2="2294.91" y2="970.01" xlink:href="#linear-gradient-13"/><linearGradient id="linear-gradient-15" x1="2639.91" y1="726.58" x2="1020.07" y2="2886.36" gradientUnits="userSpaceOnUse"><stop offset="0" stop-color="#fcb148"/><stop offset="0.05" stop-color="#fdba46"/><stop offset="0.14" stop-color="#ffc244"/><stop offset="0.32" stop-color="#ffc444"/><stop offset="0.48" stop-color="#fdb946"/><stop offset="0.78" stop-color="#f99c4d"/><stop offset="0.87" stop-color="#f8924f"/><stop offset="1" stop-color="#f8924f"/></linearGradient><linearGradient id="linear-gradient-16" x1="2549.97" y1="529.92" x2="930.14" y2="2689.69" xlink:href="#linear-gradient-15"/><linearGradient id="linear-gradient-17" x1="887.06" y1="949.77" x2="1911.22" y2="949.77" gradientUnits="userSpaceOnUse"><stop offset="0" stop-color="#ff9085"/><stop offset="1" stop-color="#fb6fbb"/></linearGradient><linearGradient id="linear-gradient-18" x1="2027.43" y1="2673.52" x2="2835.72" y2="2673.52" gradientTransform="translate(9.44 -130.79) rotate(1.76)" xlink:href="#linear-gradient-17"/><linearGradient id="linear-gradient-19" x1="2027.43" y1="2685.26" x2="2493.54" y2="2685.26" gradientTransform="translate(9.44 -130.79) rotate(1.76)" xlink:href="#linear-gradient-17"/><linearGradient id="linear-gradient-20" x1="2292.7" y1="2357.55" x2="2339.41" y2="2040.9" xlink:href="#linear-gradient-13"/><linearGradient id="linear-gradient-21" x1="2397.71" y1="2130.49" x2="2310.34" y2="2449.57" gradientTransform="translate(9.44 -130.79) rotate(1.76)" gradientUnits="userSpaceOnUse"><stop offset="0" stop-color="#6165d7"/><stop offset="1" stop-color="#aa80f9"/></linearGradient><linearGradient id="linear-gradient-22" x1="2212.8" y1="2185.06" x2="2599.88" y2="2185.06" gradientTransform="translate(9.44 -130.79) rotate(1.76)" xlink:href="#linear-gradient-17"/><linearGradient id="linear-gradient-23" x1="2274.88" y1="2290.98" x2="2522.6" y2="2290.98" gradientTransform="translate(9.44 -130.79) rotate(1.76)" xlink:href="#linear-gradient-8"/><linearGradient id="linear-gradient-24" x1="2212.82" y1="2204.59" x2="2558.13" y2="2204.59" gradientTransform="translate(9.44 -130.79) rotate(1.76)" xlink:href="#linear-gradient-17"/><linearGradient id="linear-gradient-25" x1="2398.63" y1="2463.6" x2="2521.8" y2="2925.19" gradientTransform="translate(9.44 -130.79) rotate(1.76)" gradientUnits="userSpaceOnUse"><stop offset="0" stop-color="#ebeff2"/><stop offset="1" stop-color="#fff"/></linearGradient><linearGradient id="linear-gradient-26" x1="1286.01" y1="3000.67" x2="2105.16" y2="3000.67" xlink:href="#linear-gradient-15"/><linearGradient id="linear-gradient-27" x1="1264.97" y1="2453.4" x2="1308.16" y2="2814.92" gradientUnits="userSpaceOnUse"><stop offset="0" stop-color="#ffdb44"/><stop offset="1" stop-color="#feef06"/></linearGradient><linearGradient id="linear-gradient-28" x1="1697.47" y1="2892.27" x2="1710.74" y2="3003.3" xlink:href="#linear-gradient-27"/><linearGradient id="linear-gradient-29" x1="-40.69" y1="1136.18" x2="-27.48" y2="1246.81" gradientTransform="translate(1669.25 4127.84) rotate(180)" gradientUnits="userSpaceOnUse"><stop offset="0" stop-color="#f36f56"/><stop offset="0.31" stop-color="#f99c4c"/><stop offset="0.55" stop-color="#fdb946"/><stop offset="0.68" stop-color="#ffc444"/><stop offset="0.8" stop-color="#ffc244"/><stop offset="0.87" stop-color="#feba46"/><stop offset="0.92" stop-color="#fcad49"/><stop offset="0.96" stop-color="#f99a4d"/><stop offset="1" stop-color="#f68252"/><stop offset="1" stop-color="#f57e53"/></linearGradient><linearGradient id="linear-gradient-30" x1="1187.04" y1="2917.73" x2="2006.19" y2="2917.73" xlink:href="#linear-gradient-15"/><linearGradient id="linear-gradient-31" x1="1166" y1="2370.45" x2="1209.19" y2="2731.97" xlink:href="#linear-gradient-27"/><linearGradient id="linear-gradient-32" x1="1598.5" y1="2809.33" x2="1611.77" y2="2920.36" xlink:href="#linear-gradient-27"/><linearGradient id="linear-gradient-33" x1="58.28" y1="1219.12" x2="71.49" y2="1329.76" xlink:href="#linear-gradient-29"/><linearGradient id="linear-gradient-34" x1="1272.44" y1="2835.03" x2="2091.59" y2="2835.03" xlink:href="#linear-gradient-15"/><linearGradient id="linear-gradient-35" x1="1685.78" y1="2742.75" x2="1728.96" y2="3104.27" xlink:href="#linear-gradient-27"/><linearGradient id="linear-gradient-36" x1="1683.9" y1="2726.63" x2="1697.17" y2="2837.66" xlink:href="#linear-gradient-27"/><linearGradient id="linear-gradient-37" x1="-27.12" y1="1301.82" x2="-13.91" y2="1412.46" xlink:href="#linear-gradient-29"/><linearGradient id="linear-gradient-38" x1="1324.26" y1="2752.08" x2="2143.41" y2="2752.08" xlink:href="#linear-gradient-15"/><linearGradient id="linear-gradient-39" x1="1303.22" y1="2204.81" x2="1346.41" y2="2566.33" xlink:href="#linear-gradient-27"/><linearGradient id="linear-gradient-40" x1="1735.72" y1="2643.68" x2="1748.99" y2="2754.71" xlink:href="#linear-gradient-27"/><linearGradient id="linear-gradient-41" x1="-78.94" y1="1384.77" x2="-65.73" y2="1495.4" xlink:href="#linear-gradient-29"/><linearGradient id="linear-gradient-42" x1="1286.01" y1="2662.59" x2="2105.16" y2="2662.59" xlink:href="#linear-gradient-15"/><linearGradient id="linear-gradient-43" x1="1699.35" y1="2570.32" x2="1742.54" y2="2931.84" xlink:href="#linear-gradient-27"/><linearGradient id="linear-gradient-44" x1="1697.47" y1="2554.2" x2="1710.74" y2="2665.23" xlink:href="#linear-gradient-27"/><linearGradient id="linear-gradient-45" x1="-40.69" y1="1474.25" x2="-27.48" y2="1584.89" xlink:href="#linear-gradient-29"/><linearGradient id="linear-gradient-46" x1="1187.04" y1="2579.65" x2="2006.19" y2="2579.65" xlink:href="#linear-gradient-15"/><linearGradient id="linear-gradient-47" x1="1166" y1="2032.37" x2="1209.19" y2="2393.9" xlink:href="#linear-gradient-27"/><linearGradient id="linear-gradient-48" x1="1598.5" y1="2471.25" x2="1611.77" y2="2582.28" xlink:href="#linear-gradient-27"/><linearGradient id="linear-gradient-49" x1="58.28" y1="1557.2" x2="71.49" y2="1667.83" xlink:href="#linear-gradient-29"/><linearGradient id="linear-gradient-50" x1="1272.44" y1="2496.95" x2="2091.59" y2="2496.95" xlink:href="#linear-gradient-15"/><linearGradient id="linear-gradient-51" x1="1251.4" y1="1949.67" x2="1294.59" y2="2311.19" xlink:href="#linear-gradient-27"/><linearGradient id="linear-gradient-52" x1="1683.9" y1="2388.55" x2="1697.17" y2="2499.58" xlink:href="#linear-gradient-27"/><linearGradient id="linear-gradient-53" x1="-27.12" y1="1639.9" x2="-13.91" y2="1750.53" xlink:href="#linear-gradient-29"/><linearGradient id="linear-gradient-54" x1="1228.02" y1="2414" x2="2047.17" y2="2414" xlink:href="#linear-gradient-15"/><linearGradient id="linear-gradient-55" x1="1206.98" y1="1866.73" x2="1250.17" y2="2228.25" xlink:href="#linear-gradient-27"/><linearGradient id="linear-gradient-56" x1="1639.48" y1="2305.61" x2="1652.75" y2="2416.63" xlink:href="#linear-gradient-27"/><linearGradient id="linear-gradient-57" x1="17.3" y1="1722.84" x2="30.51" y2="1833.48" xlink:href="#linear-gradient-29"/><linearGradient id="linear-gradient-58" x1="2023.35" y1="1682.64" x2="2842.51" y2="1682.64" gradientTransform="matrix(0.58, 0.81, -0.81, 0.58, 2214.38, -230.34)" xlink:href="#linear-gradient-15"/><linearGradient id="linear-gradient-59" x1="2436.7" y1="1590.38" x2="2479.87" y2="1951.85" gradientTransform="matrix(0.58, 0.81, -0.81, 0.58, 2214.38, -230.34)" xlink:href="#linear-gradient-27"/><linearGradient id="linear-gradient-60" x1="2434.82" y1="1574.26" x2="2448.08" y2="1685.27" gradientTransform="matrix(0.58, 0.81, -0.81, 0.58, 2214.38, -230.34)" xlink:href="#linear-gradient-27"/><linearGradient id="linear-gradient-61" x1="-777.47" y1="2453.76" x2="-764.25" y2="2564.37" gradientTransform="matrix(-0.58, -0.81, 0.81, -0.58, -181.2, 3522.62)" xlink:href="#linear-gradient-29"/><linearGradient id="linear-gradient-62" x1="643.54" y1="3192.42" x2="1462.69" y2="3192.42" xlink:href="#linear-gradient-15"/><linearGradient id="linear-gradient-63" x1="1056.88" y1="3100.14" x2="1100.07" y2="3461.66" xlink:href="#linear-gradient-27"/><linearGradient id="linear-gradient-64" x1="1055" y1="3084.02" x2="1068.27" y2="3195.05" xlink:href="#linear-gradient-27"/><linearGradient id="linear-gradient-65" x1="601.78" y1="944.43" x2="614.99" y2="1055.07" xlink:href="#linear-gradient-29"/><linearGradient id="linear-gradient-66" x1="544.57" y1="3109.47" x2="1363.72" y2="3109.47" xlink:href="#linear-gradient-15"/><linearGradient id="linear-gradient-67" x1="523.53" y1="2562.2" x2="566.72" y2="2923.72" xlink:href="#linear-gradient-27"/><linearGradient id="linear-gradient-68" x1="956.03" y1="3001.08" x2="969.3" y2="3112.1" xlink:href="#linear-gradient-27"/><linearGradient id="linear-gradient-69" x1="700.75" y1="1027.38" x2="713.96" y2="1138.01" xlink:href="#linear-gradient-29"/><linearGradient id="linear-gradient-70" x1="629.97" y1="3026.77" x2="1449.12" y2="3026.77" xlink:href="#linear-gradient-15"/><linearGradient id="linear-gradient-71" x1="608.93" y1="2479.5" x2="652.11" y2="2841.02" xlink:href="#linear-gradient-27"/><linearGradient id="linear-gradient-72" x1="1041.43" y1="2918.37" x2="1054.69" y2="3029.4" xlink:href="#linear-gradient-27"/><linearGradient id="linear-gradient-73" x1="615.35" y1="1110.08" x2="628.57" y2="1220.71" xlink:href="#linear-gradient-29"/><linearGradient id="linear-gradient-74" x1="681.79" y1="2943.83" x2="1500.94" y2="2943.83" xlink:href="#linear-gradient-15"/><linearGradient id="linear-gradient-75" x1="660.75" y1="2396.55" x2="703.94" y2="2758.07" xlink:href="#linear-gradient-27"/><linearGradient id="linear-gradient-76" x1="1093.25" y1="2835.43" x2="1106.52" y2="2946.46" xlink:href="#linear-gradient-27"/><linearGradient id="linear-gradient-77" x1="563.53" y1="1193.02" x2="576.74" y2="1303.66" xlink:href="#linear-gradient-29"/><linearGradient id="linear-gradient-78" x1="1422.1" y1="2095.24" x2="1380.67" y2="2021.95" gradientTransform="matrix(-1, 0, 0, 1, 3528.87, 0)" gradientUnits="userSpaceOnUse"><stop offset="0" stop-color="#311944"/><stop offset="1" stop-color="#a03976"/></linearGradient><linearGradient id="linear-gradient-79" x1="1677.23" y1="2085.31" x2="2038.36" y2="2630.54" gradientTransform="matrix(-1, 0, 0, 1, 3528.87, 0)" xlink:href="#linear-gradient-3"/><linearGradient id="linear-gradient-80" x1="1540.08" y1="2429.44" x2="1833.85" y2="2429.44" gradientTransform="matrix(-1, 0, 0, 1, 3528.87, 0)" xlink:href="#linear-gradient"/><linearGradient id="linear-gradient-81" x1="1540.08" y1="2429.44" x2="1833.85" y2="2429.44" gradientTransform="matrix(-1, 0, 0, 1, 3528.87, 0)" gradientUnits="userSpaceOnUse"><stop offset="0" stop-color="#444b8c"/><stop offset="1" stop-color="#3e4177"/></linearGradient><linearGradient id="linear-gradient-82" x1="1759.21" y1="2753.23" x2="1771.9" y2="2981.8" gradientTransform="matrix(0.96, 0.29, -0.29, 0.96, 995.2, -392.26)" xlink:href="#linear-gradient-8"/><linearGradient id="linear-gradient-83" x1="1540.08" y1="2440.49" x2="1833.85" y2="2440.49" xlink:href="#linear-gradient-81"/><linearGradient id="linear-gradient-84" x1="1815.04" y1="2903.87" x2="1830.03" y2="2868.11" gradientTransform="matrix(1, 0, 0, 1, 0, 0)" xlink:href="#linear-gradient-78"/><linearGradient id="linear-gradient-85" x1="1702.34" y1="2421.38" x2="1965.74" y2="2741.43" xlink:href="#linear-gradient-81"/><linearGradient id="linear-gradient-86" x1="1450.32" y1="2110.22" x2="1843.5" y2="2110.22" gradientTransform="matrix(-1, 0, 0, 1, 3528.87, 0)" xlink:href="#linear-gradient-3"/><linearGradient id="linear-gradient-87" x1="2364.73" y1="1833.89" x2="2016.35" y2="2125.63" gradientTransform="matrix(-1, 0, 0, 1, 3528.87, 0)" xlink:href="#linear-gradient-8"/><linearGradient id="linear-gradient-88" x1="1791.97" y1="2009.32" x2="2153.09" y2="2554.55" gradientTransform="matrix(-1, 0, 0, 1, 3528.87, 0)" xlink:href="#linear-gradient-3"/><linearGradient id="linear-gradient-89" x1="1937.73" y1="1912.78" x2="2298.85" y2="2458.01" gradientTransform="matrix(-1, 0, 0, 1, 3528.87, 0)" xlink:href="#linear-gradient-3"/><linearGradient id="linear-gradient-90" x1="1919.92" y1="2076.18" x2="1870" y2="1895.61" xlink:href="#linear-gradient-78"/><linearGradient id="linear-gradient-91" x1="2047.02" y1="1798.75" x2="1888.76" y2="1930.45" xlink:href="#linear-gradient-78"/><linearGradient id="linear-gradient-92" x1="1905.49" y1="2208.21" x2="2151.31" y2="2208.21" gradientTransform="matrix(-1, 0, 0, 1, 3528.87, 0)" xlink:href="#linear-gradient-3"/><linearGradient id="linear-gradient-93" x1="2174.88" y1="2236.28" x2="2092.03" y2="2339.31" xlink:href="#linear-gradient-78"/></defs><title>passive2</title><g class="cls-4"><g id="Illustration"><path class="cls-5" d="M3009.82,921.86c-22-27.84-413.12-505-1037.89-464.41-88.28,5.74-622,51-825.85,414.12-158.67,282.69,9.32,533.51-184.25,726.11-168.66,167.82-375.94,56.74-479.59,192.45-157.88,206.72,93.55,765,479.86,1076.39,428.13,345.06,1189,533.35,1755.14,128.42,560.62-401,556.29-1115.54,555.6-1228.64C3271.92,1613.27,3269.72,1250.21,3009.82,921.86Z" transform="translate(-434.38 -455)"/><path class="cls-1" d="M2366.21,2973.91c30.05,6.38,242.13,51.43,379.76-92.82,16-16.77,92.17-96.61,92.61-205.68.45-112.95-80.69-163.23-51.51-227.93,26-57.63,97.72-34.07,155.36-102,58.52-69,74.89-199.69,9.38-260.53-45.1-41.9-122.82-44.9-179.29-19.51-97.67,43.9-73.9,146.66-168.91,238.14-108.37,104.34-201.21,30.3-315.58,123.8-132.4,108.23-184.86,352.08-85.8,469.15C2246.11,2948.39,2308,2961.54,2366.21,2973.91Z" transform="translate(-434.38 -455)"/><g class="cls-6"><g class="cls-7"><g class="cls-8"><path class="cls-9" d="M2169.92,2933.89a2,2,0,0,1-.85-3.77c186.73-88.77,321.2-206.06,399.65-348.61,25.34-46,39.21-84,52.61-120.78,16.53-45.31,32.14-88.1,67.32-140.83,82.69-124,215.42-214.81,394.49-270a2,2,0,1,1,1.17,3.79c-178.18,54.86-310.19,145.15-392.36,268.36-34.91,52.34-50.45,94.91-66.89,140-13.46,36.88-27.37,75-52.86,121.33-78.87,143.29-213.93,261.14-401.43,350.28A2,2,0,0,1,2169.92,2933.89Z" transform="translate(-434.38 -455)"/></g><g class="cls-8"><path class="cls-9" d="M2841.44,2291.42c-34.93,0-73.94-4.35-116.56-15.53a2,2,0,0,1-1.41-2.42,2,2,0,0,1,2.42-1.41c189.59,49.71,307.08-36.79,308.25-37.66a2,2,0,1,1,2.39,3.16C3035.62,2238.25,2963.51,2291.42,2841.44,2291.42Z" transform="translate(-434.38 -455)"/></g><g class="cls-8"><path class="cls-9" d="M2421.74,2770a2,2,0,0,1-1.73-1c-26.63-47.58-42.32-98.39-46.64-151-11.42-139.06,61.81-244.06,93.81-282.74a2,2,0,1,1,3.06,2.52C2438.54,2376,2366,2480,2377.32,2617.6c4.27,52.07,19.8,102.34,46.15,149.42a2,2,0,0,1-.76,2.7A2,2,0,0,1,2421.74,2770Z" transform="translate(-434.38 -455)"/></g><g class="cls-8"><path class="cls-9" d="M2520.38,2886.43c-60.65,0-125.92-13-195.34-39a2,2,0,0,1-1.16-2.55,2,2,0,0,1,2.55-1.16c132.33,49.5,249.33,51.53,347.75,6,142.35-65.83,195.89-210.3,196.42-211.75a2,2,0,0,1,3.73,1.35c-.53,1.46-54.64,147.49-198.48,214C2628.18,2875.41,2576.24,2886.43,2520.38,2886.43Z" transform="translate(-434.38 -455)"/></g></g></g><path class="cls-2" d="M2211.37,2716c154.59,39.83,288.47-43.84,320.67-64,18.8-11.75,170.16-109.47,211.25-288.36,36.92-160.74-48.26-243,22.94-392.21,31.86-66.76,78.86-113.08,83.16-117.25,81.55-79.1,133.3-58.4,193.24-124.36,64.14-70.59,68.45-164.26,71.26-225.29,3.43-74.62,6.59-143.16-41.65-191.56-47.13-47.29-128.53-60.51-191.25-37.64-96.45,35.17-76.9,129.53-199.06,217.29-77.11,55.41-103.88,31.44-163,88.92-64.3,62.49-53.79,111.34-107.35,186.89-54.52,76.91-110.38,89.72-198.85,146.6-84.31,54.2-264.63,170.13-299.91,330.66C1874.2,2421.37,2006.4,2663.19,2211.37,2716Z" transform="translate(-434.38 -455)"/><g class="cls-10"><g class="cls-8"><path class="cls-9" d="M2048.3,2713.29a2,2,0,0,1-.84-3.77c231.82-108.38,365.06-237.5,396-383.77,12.43-58.7,7.82-113.34,3.35-166.17-6.89-81.57-13.4-158.62,39-246.23,45.11-75.39,119.41-129.72,163.81-162.18,32-23.37,57.87-42.05,80.71-58.54,58.57-42.26,90.84-65.55,128-97.79,95.33-82.62,154.18-215,174.91-393.61a2,2,0,0,1,2.2-1.74,2,2,0,0,1,1.74,2.2c-20.85,179.57-80.15,312.86-176.26,396.15-37.33,32.36-69.64,55.67-128.31,98-22.84,16.49-48.73,35.17-80.67,58.52-44.17,32.3-118.08,86.33-162.77,161-51.76,86.52-45.3,162.95-38.47,243.86,4.49,53.13,9.13,108.06-3.42,167.33-31.24,147.56-165.23,277.61-398.23,386.54A2.08,2.08,0,0,1,2048.3,2713.29Z" transform="translate(-434.38 -455)"/></g><g class="cls-8"><path class="cls-9" d="M2948.28,1667.17c-49,0-97.46-10.28-137.38-22.27a2,2,0,1,1,1.14-3.79c76.5,23,184.78,39.65,266.16-11.35,48.49-30.39,64.56-70.93,64.72-71.33a2,2,0,1,1,3.69,1.42c-.16.42-16.71,42.19-66.3,73.27C3040.35,1658.16,2994.11,1667.17,2948.28,1667.17Z" transform="translate(-434.38 -455)"/></g><g class="cls-8"><path class="cls-9" d="M2587,1804.15a2,2,0,0,1-1.38-.56c-49.27-48-51.78-120.65-7.27-210.11,33.44-67.2,82.08-120.9,82.56-121.43a2,2,0,1,1,2.94,2.67c-.49.53-48.8,53.88-82,120.59-30.43,61.19-54,146.49,6.51,205.44a2,2,0,0,1-1.38,3.4Z" transform="translate(-434.38 -455)"/></g><g class="cls-8"><path class="cls-9" d="M2451.82,2285.05a2,2,0,0,1-.25-4c142.08-17.74,222-84.52,264-137.42,45.49-57.28,57.56-110.93,57.68-111.47a2,2,0,0,1,3.87.85c-.12.54-12.39,55.1-58.44,113.08-42.48,53.48-123.21,121-266.61,138.89Z" transform="translate(-434.38 -455)"/></g><g class="cls-8"><path class="cls-9" d="M2254.34,2592.54a1.91,1.91,0,0,1-1-.26c-70.55-40-120.11-99.57-147.28-177-21.71-61.82-29.25-135.08-22.42-217.75,11.62-140.59,61.53-261.4,62-262.61a2,2,0,0,1,3.66,1.53c-.5,1.2-50.19,121.51-61.74,261.5-6.77,82.1.7,154.79,22.22,216.06,26.86,76.45,75.8,135.26,145.49,174.79a2,2,0,0,1-1,3.71Z" transform="translate(-434.38 -455)"/></g></g><path class="cls-3" d="M1692.25,2622.56c-67.36-119.9,49.67-340.44,161.8-456.32,72-74.43,116.9-79.72,160-161.61,59.5-113.18,9.11-170.21,66.59-290.05,52.34-109.14,106.53-89.26,167.47-198.88,71.69-129,11.07-188.2,67.34-317.17C2378.63,1053.61,2548,915.73,2665.54,958c79.28,28.47,129.28,136.77,127.18,228.94-3.26,142.45-129,162.91-172.59,334-9.2,36.14-11.62,65.33-10.33,90.81,3.89,76.64,21.09,128.39,31,162,36.23,122.75-8.82,245.49-26.16,292.72-45.54,124.08-103.78,112.54-195.16,262.81-94.09,154.71-55.15,204.47-121.85,280.37C2155.12,2771.78,1776.73,2773,1692.25,2622.56Z" transform="translate(-434.38 -455)"/><g class="cls-11"><g class="cls-8"><path class="cls-9" d="M1720.9,2739.65a2,2,0,0,1-.63-3.87c184-61.38,306.8-152.71,364.89-271.44,28.91-59.08,34.81-106.38,41.06-156.45,7-55.83,14.16-113.56,52.92-194.35,39.64-82.6,80.4-112.13,119.83-140.68,37.71-27.31,73.33-53.11,107.7-122.34,50.78-102.27,51.23-181.54,51.71-265.47.39-69.13.8-140.61,28.16-231.57,45.62-151.62,156.07-288.48,328.28-406.77a2,2,0,0,1,2.76.52,2,2,0,0,1-.52,2.75c-171.45,117.77-281.37,253.91-326.72,404.64-27.2,90.41-27.61,161.6-28,230.45-.48,84.4-.93,164.13-52.11,267.21-34.81,70.11-72.5,97.4-108.94,123.79-39,28.26-79.37,57.49-118.57,139.19-38.48,80.2-45.64,137.6-52.57,193.12-6.28,50.41-12.22,98-41.42,157.71-58.58,119.72-182.13,211.72-367.21,273.46A2.29,2.29,0,0,1,1720.9,2739.65Z" transform="translate(-434.38 -455)"/></g><g class="cls-8"><path class="cls-9" d="M2488.44,1356a2,2,0,0,1-.06-4c129.19-4.25,219.66-64.54,272.81-114.36,57.61-54,85-107.62,85.24-108.15a2,2,0,0,1,3.54,1.78c-.28.54-27.95,54.78-86.06,109.26-53.65,50.29-145,111.14-275.41,115.43Z" transform="translate(-434.38 -455)"/></g><g class="cls-8"><path class="cls-9" d="M2371.35,1905.48a1.94,1.94,0,0,1-1-.29c-116-70.61-148.69-207.12-155.71-309.21-7.59-110.38,12.41-205.38,12.61-206.33a2,2,0,0,1,3.88.83c-.2,1-20.09,95.48-12.53,205.32,7,101.12,39.31,236.29,153.81,306a2,2,0,0,1-1,3.67Z" transform="translate(-434.38 -455)"/></g><g class="cls-8"><path class="cls-9" d="M2234.17,2202.83a550.62,550.62,0,0,1-85.74-6.88,2,2,0,0,1-1.65-2.26A2,2,0,0,1,2149,2192c88.48,13.94,172.12,6.72,248.6-21.45,61.18-22.54,118-58.46,168.76-106.78,86.53-82.31,126.14-173.19,126.53-174.09a2,2,0,1,1,3.64,1.56c-.39.92-40.32,92.54-127.44,175.4C2500.61,2131.84,2390.15,2202.83,2234.17,2202.83Z" transform="translate(-434.38 -455)"/></g><g class="cls-8"><path class="cls-9" d="M1971.33,2609.6a1.91,1.91,0,0,1-1-.29c-133.3-80.6-151.38-222.5-143.09-327.36,9-113.32,49.89-208.92,50.3-209.87a2,2,0,1,1,3.64,1.58c-.41.94-41.09,96-50,208.71-5.22,66.07,1.35,125.17,19.52,175.67,22.67,63,63.61,112.77,121.67,147.88a2,2,0,0,1-1,3.68Z" transform="translate(-434.38 -455)"/></g></g><path class="cls-12" d="M2063.59,2752c0,40.63-28.83,75.37-64.38,77.44l-1371.29,80c-40.72,2.38-74-31.23-74-74.93V867.41c0-43.7,33.25-77.91,74-76.25l1371.29,55.57c35.55,1.44,64.38,35.66,64.38,76.3Z" transform="translate(-434.38 -455)"/><path class="cls-13" d="M2103.85,2752c0,40.63-28.83,75.37-64.38,77.44l-1371.29,80c-40.72,2.38-74-31.23-74-74.93V867.41c0-43.7,33.25-77.91,74-76.25l1371.29,55.57c35.55,1.44,64.38,35.66,64.38,76.3Z" transform="translate(-434.38 -455)"/><path class="cls-14" d="M628.71,868.68v1964c0,23.36,17.69,41.29,39.47,40.06l1084.55-61.44L2039.47,2795c19-1.08,34.46-19.61,34.46-41.4V921.92c0-21.78-15.41-40-34.46-40.78l-297.1-11.53L668.18,827.92C646.4,827.08,628.71,845.33,628.71,868.68Z" transform="translate(-434.38 -455)"/><path class="cls-15" d="M2054.93,2668.91a15.55,15.55,0,0,1-14.48,15.44L667.07,2754.57c-9.12.47-16.56-6.2-16.56-14.88v-1871c0-8.67,7.44-15.45,16.56-15.1l1373.38,51.65a15.29,15.29,0,0,1,14.48,15.24Z" transform="translate(-434.38 -455)"/><path class="cls-16" d="M1515,2790.67,1236.13,2806c-14.91.82-27-9.52-27-23.09v-1c0-13.58,12.11-25.22,27-26L1515,2741.23c14.49-.76,26.23,9.45,26.23,22.81v1C1541.23,2778.4,1529.49,2789.88,1515,2790.67Z" transform="translate(-434.38 -455)"/><polygon class="cls-17" points="1543.9 1952.93 303.22 1999.12 303.22 2043.1 1543.9 1994.35 1543.9 1952.93"/><polygon class="cls-17" points="1543.9 2018.51 303.22 2068.75 303.22 2112.73 1543.9 2059.94 1543.9 2018.51"/><polygon class="cls-17" points="969.28 2109.24 303.22 2138.38 303.22 2182.36 969.28 2151.84 969.28 2109.24"/><g class="cls-18"><path class="cls-19" d="M1740.89,2623.24c-5.59-119.86,127.68-190.16,114.88-359.26-1.16-15.25-13.07-146.1-118.38-234.8-94.57-79.65-174.06-49.68-349.1-113.21-122.68-44.52-260.59-94.58-316.37-195-110.77-199.44,205.76-398.65,141-656.84-18.57-74-71-164.67-209.42-259.38l-335.3-13.58c-40.72-1.65-74,32.55-74,76.25V2834.52c0,43.71,33.25,77.32,74,74.94l1249.44-72.92C1784.54,2759.6,1743.8,2685.69,1740.89,2623.24Z" transform="translate(-434.38 -455)"/></g><path class="cls-20" d="M976.19,2382.38c-39.8,1.37-79.93-9.69-112.58-34-72.33-53.85-80.12-151.71-17.28-217.89l918.38-974.06c30-31.63,73.47-49,119-47.8,45.27,1.24,88.13,20.84,117.57,53.67l307.48,342.88L2658.11,1121c52.26-57.47,142.79-61,202.11-8.39,59,52.25,65.26,140.63,14.15,198l-453,508.15c-28.21,31.66-69.29,50.14-112.68,50.6-43.57.46-85.19-17.29-114-48.76l-311.08-340-779.05,844.64C1071.16,2361.23,1023.91,2380.74,976.19,2382.38Z" transform="translate(-434.38 -455)"/><polygon class="cls-21" points="2534.36 926.35 2152.92 591.74 2646.74 425.94 2681.22 425.94 2569.74 922.37 2534.36 926.35"/><path class="cls-22" d="M1010.67,2382.38c-39.8,1.37-79.92-9.69-112.58-34-72.33-53.85-80.11-151.71-17.28-217.89l918.38-974.06c30-31.63,73.48-49,119-47.8,45.28,1.24,88.13,20.84,117.57,53.67l307.49,342.88L2692.59,1121c52.27-57.47,142.79-61,202.11-8.39,59,52.25,65.26,140.63,14.16,198l-453,508.15c-28.22,31.66-69.3,50.14-112.68,50.6-43.58.46-85.19-17.29-114-48.76l-311.08-340-779,844.64C1105.65,2361.23,1058.4,2380.74,1010.67,2382.38Z" transform="translate(-434.38 -455)"/><polygon class="cls-23" points="2568.85 926.35 2187.41 591.74 2681.22 425.94 2568.85 926.35"/><path class="cls-24" d="M1880.86,1234.86H893.16a6.09,6.09,0,0,1-3.94-10.74L1004,1126.81V695.46c0-17.4,14.63-31.18,32.66-30.77L1880.86,684a31.31,31.31,0,0,1,30.36,31.06v489.44A30.37,30.37,0,0,1,1880.86,1234.86Z" transform="translate(-434.38 -455)"/><polygon class="cls-9" points="843.33 312.31 650.32 308.65 650.32 285.96 843.33 289.79 843.33 312.31"/><polygon class="cls-9" points="843.33 357.35 650.32 354.04 650.32 331.35 843.33 334.82 843.33 357.35"/><polygon class="cls-9" points="843.33 428.28 650.32 425.54 650.32 402.84 843.33 405.76 843.33 428.28"/><polygon class="cls-9" points="843.33 473.32 650.32 470.93 650.32 448.23 843.33 450.8 843.33 473.32"/><polygon class="cls-9" points="1401.41 662.94 650.32 659.3 650.32 636.61 1401.41 640.93 1401.41 662.94"/><polygon class="cls-9" points="1401.41 706.96 650.32 704.7 650.32 682 1401.41 684.95 1401.41 706.96"/><polygon class="cls-9" points="843.33 544.26 650.32 542.42 650.32 519.72 843.33 521.74 843.33 544.26"/><polygon class="cls-9" points="843.33 589.3 650.32 587.81 650.32 565.12 843.33 566.78 843.33 589.3"/><polygon class="cls-9" points="1401.41 595.89 915.37 592.19 915.37 291.21 920.15 291.31 920.15 587.56 1401.41 591.32 1401.41 595.89"/><polygon class="cls-9" points="983.1 508.78 979.71 505.48 1079.98 406.68 1177.61 441.53 1273.07 361.95 1368.37 411.67 1366.28 415.72 1273.73 367.45 1178.61 446.77 1081.25 412.04 983.1 508.78"/><path class="cls-25" d="M1432.15,962.32a16,16,0,0,1-16.37,15.86A16.43,16.43,0,0,1,1399.39,962a16,16,0,0,1,16.39-15.86A16.43,16.43,0,0,1,1432.15,962.32Z" transform="translate(-434.38 -455)"/><path class="cls-25" d="M1531.23,864.6A15.83,15.83,0,0,1,1515,880.34a16.42,16.42,0,0,1-16.26-16.23A15.84,15.84,0,0,1,1515,848.37,16.42,16.42,0,0,1,1531.23,864.6Z" transform="translate(-434.38 -455)"/><path class="cls-25" d="M1628.6,899.38a15.77,15.77,0,0,1-16.11,15.7,16.3,16.3,0,0,1-16.13-16.15,15.77,15.77,0,0,1,16.13-15.7A16.3,16.3,0,0,1,1628.6,899.38Z" transform="translate(-434.38 -455)"/><path class="cls-25" d="M1723.76,820a15.6,15.6,0,0,1-16,15.59,16.26,16.26,0,0,1-16-16.13,15.59,15.59,0,0,1,16-15.59A16.26,16.26,0,0,1,1723.76,820Z" transform="translate(-434.38 -455)"/><path class="cls-25" d="M1817.57,868.94a15.54,15.54,0,0,1-15.86,15.55,16.11,16.11,0,0,1-15.88-16,15.55,15.55,0,0,1,15.88-15.56A16.13,16.13,0,0,1,1817.57,868.94Z" transform="translate(-434.38 -455)"/><path class="cls-26" d="M2407.28,3021q-4.34,0-8.28-.07c-104.42-3.21-368.36,8.87-439.18-219.61-65.09-209.84,211.17-520,256.64-569.19,4-4.38,6.26-6.68,6.26-6.68s-11.34-8.89,223.8-10.72c263.38,215.16,301,380.24,301,380.24C2823,2933.14,2519.31,3019.83,2407.28,3021Z" transform="translate(-434.38 -455)"/><path class="cls-27" d="M2407.28,3021q-4.34,0-8.28-.07c-104.42-3.21-368.36,8.87-439.18-219.61-65.09-209.84,211.17-520,256.64-569.19a70.93,70.93,0,0,1,32.17,3C2252.51,2236.43,1680.12,2924.18,2407.28,3021Z" transform="translate(-434.38 -455)"/><path class="cls-28" d="M2183.51,2046.65s46.1-73.14,107.09-43.8,110.18,51.47,143.42,32.87,50.79-33.61,58.54,9.72-119.19,145.38-119.19,145.38S2184.42,2185,2183.51,2046.65Z" transform="translate(-434.38 -455)"/><path class="cls-29" d="M2182.51,2079.33s46.09-73.14,107.09-43.8S2399.78,2087,2433,2068.4s50.79-33.61,58.54,9.72-119.19,145.38-119.19,145.38S2183.41,2217.69,2182.51,2079.33Z" transform="translate(-434.38 -455)"/><path class="cls-30" d="M2498.27,2162.12c-18.32,25.51-39.46,47.2-57.73,55.84-22.93,10.83-63.34,16.58-103.46,18.27s-80-.73-101.77-6.18l0,0a49,49,0,0,1-12.55-4.6s-67.32-114.55-66.73-167c.16-16.65,7.19-27,25.36-25.55,75.47,6.23,75.89,48.44,127.79,38.26s92.09-87.43,124.88-35.4,71.94-19.37,102.14,5.11C2555.65,2056.62,2531.63,2115.68,2498.27,2162.12Z" transform="translate(-434.38 -455)"/><path class="cls-31" d="M2218.78,2218.55s137.88,44.15,230.46-5.54c7.53,10.14,11.51,13.45,11.51,13.45s-68.71,59-248.13,9.84C2212.62,2236.3,2217.41,2223.51,2218.78,2218.55Z" transform="translate(-434.38 -455)"/><path class="cls-32" d="M2498.27,2162.12c-18.32,25.51-39.46,47.2-57.73,55.84-22.93,10.83-63.34,16.58-103.46,18.27l-101.77-6.18,0,0a49,49,0,0,1-12.55-4.6s-67.32-114.55-66.73-167c.89-.89,29.61-29.43,61,34.61,31.94,65,42.48,121.19,83.46,95.57s106.2-129.26,115.58-79.23-32.29,96.61-2.75,89.61C2436.32,2193.5,2481.37,2160.75,2498.27,2162.12Z" transform="translate(-434.38 -455)"/><g class="cls-33"><path class="cls-34" d="M2392.73,2399.51h0c8.58,0,15.6,6.09,15.68,13.7l.31,26.06a478.54,478.54,0,0,1,51.62,3.2q19,2.19,37.79,5.91c7.49,1.48,12.7,7.66,12.08,14.58l-3,33.17c-.79,8.84-10.45,14.9-19.73,12.13a220.51,220.51,0,0,0-25.53-6,251.73,251.73,0,0,0-48.15-3.43l-4.42.09.89,76.11c45.44,6.84,78.86,18.72,100.62,35.67s32.84,39.58,33.5,68.24q1.09,46.74-33.91,79.06c-23.66,21.81-57.32,36.36-101.26,43.54l.35,30.81c.1,8.21-7.05,15.42-16,16.1l-.29,0c-9,.68-16.29-5.46-16.36-13.72l-.26-30.45-7.19.5a517.43,517.43,0,0,1-59.83.8,407.6,407.6,0,0,1-41.53-4.06c-8.18-1.23-13.79-7.62-13-15.22l4.58-45.36c1-9.76,11.84-16.51,22.1-14a327.31,327.31,0,0,0,36.27,6.83,340.71,340.71,0,0,0,57.76,2.54l-.46-87.18c-44.15-5.26-77.3-16.33-99.1-33.19s-32.81-40.22-32.72-69.71q.13-45.53,35.46-73.2c23.25-18.24,56.16-29.2,98.46-33l-.24-26.68C2377.18,2405.78,2384.12,2399.55,2392.73,2399.51ZM2378,2501.08q-20.13,3.16-31.36,12.69t-11.19,23.94q.08,13.65,10.62,21.83t32.56,11.5Zm29.54,151.79.91,79.81q22.24-2.32,34-13.14t11.41-28.12q-.24-15.78-11.34-25T2407.57,2652.87Z" transform="translate(-434.38 -455)"/></g><path class="cls-35" d="M1346.88,2938.09v79c0,25.52,159.4,46.21,356,46.21s356-20.69,356-46.21v-79Z" transform="translate(-434.38 -455)"/><ellipse class="cls-36" cx="1268.52" cy="2483.09" rx="356.02" ry="46.2"/><path class="cls-37" d="M1702.9,2987.48c-174.14,0-356.23-16.64-356.23-48.72,0-1.76.63-4.86,2.39-4.86s1,2.43,1,4.19c0,20.34,144.9,43,352.83,43s352.83-22.67,352.83-43c0-1.76.3-3.41,2.06-3.41s1.34,2.35,1.34,4.11C2059.13,2970.87,1877,2987.48,1702.9,2987.48Z" transform="translate(-434.38 -455)"/><path class="cls-38" d="M1669.26,2940.66q5.23-3.63,11.19-7.15a70,70,0,0,1,15.29-6.38,146.24,146.24,0,0,1,23.47-4.64,297.12,297.12,0,0,1,35.15-1.9q20.64-.11,38.75,1.31a264.72,264.72,0,0,1,31.87,4.22q13.71,2.8,22.37,6.94t10.22,9.48l40.09.4a39.26,39.26,0,0,1,7.68.72c2.24.45,3.33,1,3.33,1.73l0,3.3-51.54-.5q-2.7,6.07-13.81,11.1t-28.26,8.72l-18.77-2.61a23,23,0,0,1-4.15-1c-1.08-.4-1.6-.83-1.61-1.3q0-.95,4.36-2.17t9.82-3a98.57,98.57,0,0,0,10.76-4.26c3.5-1.63,5.84-3.58,7.06-5.86l-121.64-1.2a115.09,115.09,0,0,1-10.75,6.93,69.94,69.94,0,0,1-15.78,6.13,165.09,165.09,0,0,1-24.47,4.42,348,348,0,0,1-36.91,1.81c-11.15,0-22-.37-32.63-1.27a221.51,221.51,0,0,1-28.32-4,88.1,88.1,0,0,1-20.32-6.65c-5.27-2.64-8.23-5.68-8.85-9.11l-33-.34a42.58,42.58,0,0,1-7.8-.68c-2.27-.44-3.43-1-3.43-1.76l0-3.3,45.12.43c2-3.48,6.08-6.51,12.34-9.09a141.4,141.4,0,0,1,22.89-6.89l15.12,2.08c4.59.64,6.86,1.4,6.87,2.26,0,.47-.93,1.05-2.83,1.74s-4.17,1.52-6.77,2.49a61.1,61.1,0,0,0-7.52,3.39,15.93,15.93,0,0,0-5.49,4.4Zm-111.32,4.5c.9,2.17,2.92,4,6,5.6a47.64,47.64,0,0,0,11.47,3.87,117,117,0,0,0,15.44,2.22q8.63.71,18,.67a189.38,189.38,0,0,0,19.12-.95,110.15,110.15,0,0,0,14.31-2.42,66.51,66.51,0,0,0,10.76-3.55,60.24,60.24,0,0,0,8.22-4.4Zm264.8-2.95c-.9-2.19-3.11-4.12-6.55-5.77a59,59,0,0,0-13.18-4.16,147.24,147.24,0,0,0-18.7-2.51q-10.63-.81-23.49-.76a181.64,181.64,0,0,0-19.69,1,102.44,102.44,0,0,0-14.3,2.6,52.28,52.28,0,0,0-10.28,3.8,74.31,74.31,0,0,0-7.88,4.64Z" transform="translate(-434.38 -455)"/><path class="cls-39" d="M1703,2896.89c-158.74,0-324,14-350.47,41a30.68,30.68,0,0,1,2.89,3c22.29-18.78,158.77-37.68,347.58-37.68,193.66,0,332.32,19.89,349.12,39.13a33.2,33.2,0,0,1,2.66-3C2032.9,2911.37,1864.51,2896.89,1703,2896.89Z" transform="translate(-434.38 -455)"/><path class="cls-40" d="M1247.91,2855.14v79c0,25.52,159.39,46.2,356,46.2s356-20.68,356-46.2v-79Z" transform="translate(-434.38 -455)"/><ellipse class="cls-41" cx="1169.55" cy="2400.14" rx="356.02" ry="46.2"/><path class="cls-42" d="M1603.93,2904.53c-174.14,0-356.23-16.63-356.23-48.71,0-1.76.63-4.86,2.39-4.86s1,2.42,1,4.18c0,20.35,144.9,43,352.83,43s352.83-22.67,352.83-43c0-1.76.3-3.41,2.06-3.41s1.34,2.35,1.34,4.11C1960.16,2887.92,1778.06,2904.53,1603.93,2904.53Z" transform="translate(-434.38 -455)"/><path class="cls-38" d="M1570.29,2857.72q5.24-3.63,11.18-7.16a70.3,70.3,0,0,1,15.3-6.37,146.13,146.13,0,0,1,23.47-4.65,299.55,299.55,0,0,1,35.15-1.89q20.64-.11,38.75,1.31a264.72,264.72,0,0,1,31.87,4.22c9.14,1.87,16.61,4.19,22.36,6.94s9.13,5.91,10.23,9.48l40.09.4a39.31,39.31,0,0,1,7.68.71c2.24.46,3.33,1,3.33,1.74l0,3.3-51.54-.5q-2.72,6.06-13.82,11.09t-28.25,8.72l-18.77-2.61a22.14,22.14,0,0,1-4.15-1c-1.08-.39-1.6-.82-1.61-1.29,0-.63,1.45-1.36,4.36-2.17s6.18-1.83,9.82-3a98.5,98.5,0,0,0,10.76-4.25c3.5-1.63,5.84-3.59,7.06-5.86l-121.64-1.21a114.38,114.38,0,0,1-10.75,6.94,70.13,70.13,0,0,1-15.78,6.13,166.4,166.4,0,0,1-24.47,4.42A345.69,345.69,0,0,1,1514,2883c-11.15.06-22-.37-32.63-1.26a223.48,223.48,0,0,1-28.33-4,87.84,87.84,0,0,1-20.31-6.65c-5.27-2.65-8.23-5.68-8.85-9.11l-33-.34a43.42,43.42,0,0,1-7.8-.69c-2.27-.44-3.43-1-3.44-1.75v-3.31l45.12.43c2-3.47,6.08-6.5,12.33-9.08a140.85,140.85,0,0,1,22.9-6.89l15.11,2.07c4.59.65,6.87,1.4,6.88,2.27,0,.47-.93,1-2.83,1.74s-4.17,1.52-6.77,2.48a62.64,62.64,0,0,0-7.52,3.39,16.19,16.19,0,0,0-5.5,4.4Zm-111.33,4.5c.91,2.16,2.93,4,6,5.59a47.71,47.71,0,0,0,11.46,3.87,119,119,0,0,0,15.45,2.23q8.63.71,18,.66a186.74,186.74,0,0,0,19.12-.94,110.33,110.33,0,0,0,14.31-2.43,66.84,66.84,0,0,0,10.76-3.55,60.23,60.23,0,0,0,8.22-4.39Zm264.81-3c-.9-2.19-3.11-4.11-6.55-5.76a59,59,0,0,0-13.18-4.16,143.71,143.71,0,0,0-18.7-2.51q-10.63-.82-23.49-.76a181.64,181.64,0,0,0-19.69,1,100.73,100.73,0,0,0-14.3,2.6,51.65,51.65,0,0,0-10.28,3.8,72.65,72.65,0,0,0-7.88,4.64Z" transform="translate(-434.38 -455)"/><path class="cls-43" d="M1604,2813.94c-158.75,0-324,14-350.47,41a31.82,31.82,0,0,1,2.89,3c22.29-18.77,158.76-37.67,347.58-37.67,193.66,0,332.32,19.89,349.12,39.12a34.48,34.48,0,0,1,2.66-3C1933.93,2828.43,1765.54,2813.94,1604,2813.94Z" transform="translate(-434.38 -455)"/><path class="cls-44" d="M1333.31,2772.44v79c0,25.51,159.39,46.2,356,46.2s356-20.69,356-46.2v-79Z" transform="translate(-434.38 -455)"/><path class="cls-45" d="M2045.34,2772.44c0,25.52-159.39,46.2-356,46.2s-356-20.68-356-46.2,159.39-46.2,356-46.2S2045.34,2746.93,2045.34,2772.44Z" transform="translate(-434.38 -455)"/><path class="cls-46" d="M1689.33,2821.83c-174.14,0-356.23-16.63-356.23-48.71,0-1.77.63-4.86,2.39-4.86s1,2.42,1,4.18c0,20.35,144.9,43,352.83,43s352.83-22.66,352.83-43c0-1.76.3-3.41,2.06-3.41s1.33,2.35,1.33,4.11C2045.55,2805.22,1863.46,2821.83,1689.33,2821.83Z" transform="translate(-434.38 -455)"/><path class="cls-38" d="M1655.68,2775c3.5-2.42,7.21-4.8,11.19-7.16a70.56,70.56,0,0,1,15.3-6.38,147.12,147.12,0,0,1,23.47-4.64,297.12,297.12,0,0,1,35.15-1.9q20.64-.09,38.75,1.32a260.29,260.29,0,0,1,31.86,4.22q13.72,2.8,22.37,6.94t10.23,9.47l40.09.41a39.31,39.31,0,0,1,7.68.71c2.24.46,3.33,1,3.33,1.73l0,3.3-51.54-.49q-2.71,6.06-13.82,11.09t-28.26,8.72l-18.77-2.61a22,22,0,0,1-4.14-1c-1.08-.39-1.61-.82-1.61-1.29q0-1,4.35-2.17t9.83-3a99.3,99.3,0,0,0,10.76-4.25c3.5-1.64,5.84-3.59,7-5.86L1687.33,2781a114.88,114.88,0,0,1-10.74,6.93,69.85,69.85,0,0,1-15.78,6.13,164.87,164.87,0,0,1-24.48,4.43,345.49,345.49,0,0,1-36.9,1.8c-11.15.06-22-.37-32.64-1.26a223.57,223.57,0,0,1-28.32-4,88.33,88.33,0,0,1-20.31-6.65c-5.28-2.65-8.24-5.68-8.85-9.11l-33-.34a43.42,43.42,0,0,1-7.8-.69c-2.27-.44-3.43-1-3.44-1.76v-3.3l45.12.43c2-3.47,6.08-6.51,12.33-9.08a140.55,140.55,0,0,1,22.9-6.89l15.11,2.07c4.59.65,6.87,1.4,6.88,2.27,0,.46-.93,1-2.83,1.74s-4.17,1.52-6.77,2.48a61.1,61.1,0,0,0-7.52,3.39,16.07,16.07,0,0,0-5.5,4.4Zm-111.32,4.49c.91,2.17,2.93,4,6,5.6a47.71,47.71,0,0,0,11.46,3.87,118.49,118.49,0,0,0,15.45,2.23q8.63.7,18,.66a189.86,189.86,0,0,0,19.13-.94,112.07,112.07,0,0,0,14.31-2.43,67.17,67.17,0,0,0,10.76-3.55,59.5,59.5,0,0,0,8.21-4.39Zm264.81-3c-.9-2.19-3.11-4.11-6.55-5.76a58.93,58.93,0,0,0-13.19-4.16,143.53,143.53,0,0,0-18.69-2.51q-10.63-.83-23.5-.76a179.06,179.06,0,0,0-19.68,1,99.07,99.07,0,0,0-14.3,2.6,52.07,52.07,0,0,0-10.28,3.79,74.35,74.35,0,0,0-7.88,4.65Z" transform="translate(-434.38 -455)"/><path class="cls-47" d="M1689.37,2731.24c-158.74,0-324,14-350.46,41a31.88,31.88,0,0,1,2.89,3c22.28-18.77,158.76-37.67,347.57-37.67,193.66,0,332.33,19.88,349.13,39.12a33,33,0,0,1,2.66-3C2019.32,2745.73,1850.94,2731.24,1689.37,2731.24Z" transform="translate(-434.38 -455)"/><path class="cls-48" d="M1385.13,2689.5v79c0,25.52,159.4,46.21,356,46.21s356-20.69,356-46.21v-79Z" transform="translate(-434.38 -455)"/><ellipse class="cls-49" cx="1306.77" cy="2234.5" rx="356.02" ry="46.2"/><path class="cls-50" d="M1741.15,2738.88c-174.14,0-356.23-16.63-356.23-48.71,0-1.76.63-4.86,2.39-4.86s1,2.43,1,4.19c0,20.34,144.9,43,352.83,43s352.83-22.67,352.83-43c0-1.76.3-3.42,2.06-3.42s1.34,2.36,1.34,4.12C2097.38,2722.28,1915.28,2738.88,1741.15,2738.88Z" transform="translate(-434.38 -455)"/><path class="cls-38" d="M1707.51,2692.07q5.23-3.63,11.19-7.15a70,70,0,0,1,15.29-6.38,146.24,146.24,0,0,1,23.47-4.64,297.12,297.12,0,0,1,35.15-1.9q20.64-.11,38.75,1.31a264.72,264.72,0,0,1,31.87,4.22q13.71,2.8,22.37,6.94t10.22,9.48l40.09.4a39.26,39.26,0,0,1,7.68.72c2.24.45,3.33,1,3.33,1.73l0,3.3-51.54-.5q-2.72,6.08-13.82,11.1t-28.25,8.72l-18.77-2.61a22.07,22.07,0,0,1-4.15-1c-1.08-.39-1.6-.82-1.61-1.29q0-.95,4.36-2.17t9.82-3a98.57,98.57,0,0,0,10.76-4.26c3.5-1.63,5.84-3.58,7.06-5.86l-121.64-1.2a115.09,115.09,0,0,1-10.75,6.93,70.13,70.13,0,0,1-15.78,6.13,165.09,165.09,0,0,1-24.47,4.42,348,348,0,0,1-36.91,1.81c-11.15.05-22-.37-32.63-1.27a221.68,221.68,0,0,1-28.33-4,88,88,0,0,1-20.31-6.65c-5.27-2.64-8.23-5.68-8.85-9.11l-33-.34a43.48,43.48,0,0,1-7.8-.68c-2.27-.44-3.43-1-3.44-1.76v-3.3l45.12.43c2-3.48,6.08-6.51,12.34-9.09a141.4,141.4,0,0,1,22.89-6.89l15.12,2.08c4.59.64,6.86,1.4,6.87,2.26,0,.47-.93,1.05-2.83,1.74s-4.17,1.52-6.77,2.48a62.7,62.7,0,0,0-7.52,3.4,15.93,15.93,0,0,0-5.49,4.4Zm-111.33,4.5c.91,2.17,2.93,4,6,5.6a47.64,47.64,0,0,0,11.47,3.87,117,117,0,0,0,15.44,2.22q8.63.7,18,.67a189.38,189.38,0,0,0,19.12-.95,111.88,111.88,0,0,0,14.31-2.42,66.51,66.51,0,0,0,10.76-3.55,60.24,60.24,0,0,0,8.22-4.4Zm264.81-3c-.9-2.19-3.11-4.12-6.55-5.77a59,59,0,0,0-13.18-4.16,147.24,147.24,0,0,0-18.7-2.51q-10.62-.81-23.49-.76a181.64,181.64,0,0,0-19.69,1,102.44,102.44,0,0,0-14.3,2.6,52.28,52.28,0,0,0-10.28,3.8,74.31,74.31,0,0,0-7.88,4.64Z" transform="translate(-434.38 -455)"/><path class="cls-51" d="M1741.2,2648.3c-158.75,0-324,14-350.47,41a30.68,30.68,0,0,1,2.89,3c22.29-18.78,158.76-37.68,347.58-37.68,193.66,0,332.32,19.89,349.12,39.13a33.2,33.2,0,0,1,2.66-3C2071.15,2662.78,1902.76,2648.3,1741.2,2648.3Z" transform="translate(-434.38 -455)"/><path class="cls-52" d="M1346.88,2600v79c0,25.51,159.4,46.2,356,46.2s356-20.69,356-46.2v-79Z" transform="translate(-434.38 -455)"/><path class="cls-53" d="M2058.92,2600c0,25.52-159.4,46.2-356,46.2s-356-20.68-356-46.2,159.4-46.2,356-46.2S2058.92,2574.49,2058.92,2600Z" transform="translate(-434.38 -455)"/><path class="cls-54" d="M1702.9,2649.4c-174.14,0-356.23-16.64-356.23-48.72,0-1.76.63-4.85,2.39-4.85s1,2.42,1,4.18c0,20.34,144.9,43,352.83,43s352.83-22.67,352.83-43c0-1.76.3-3.41,2.06-3.41s1.34,2.35,1.34,4.11C2059.13,2632.79,1877,2649.4,1702.9,2649.4Z" transform="translate(-434.38 -455)"/><path class="cls-38" d="M1669.26,2602.58q5.23-3.61,11.19-7.15a70.45,70.45,0,0,1,15.29-6.38,146.24,146.24,0,0,1,23.47-4.64,297.12,297.12,0,0,1,35.15-1.9q20.64-.09,38.75,1.31A264.72,264.72,0,0,1,1825,2588q13.71,2.82,22.37,6.94t10.22,9.48l40.09.41a38.55,38.55,0,0,1,7.68.71c2.24.45,3.33,1,3.33,1.73l0,3.3-51.54-.49q-2.7,6.06-13.81,11.09t-28.26,8.72l-18.77-2.61a23,23,0,0,1-4.15-1c-1.08-.4-1.6-.83-1.61-1.29q0-1,4.36-2.17t9.82-3a100.56,100.56,0,0,0,10.76-4.25c3.5-1.64,5.84-3.59,7.06-5.86l-121.64-1.21a115.09,115.09,0,0,1-10.75,6.93,69.47,69.47,0,0,1-15.78,6.13,163.79,163.79,0,0,1-24.47,4.42,345.35,345.35,0,0,1-36.91,1.81c-11.15,0-22-.37-32.63-1.27a223.42,223.42,0,0,1-28.32-4,88.56,88.56,0,0,1-20.32-6.66c-5.27-2.64-8.23-5.67-8.85-9.11l-33-.33a43.42,43.42,0,0,1-7.8-.69c-2.27-.44-3.43-1-3.43-1.76l0-3.3,45.12.43c2-3.48,6.08-6.51,12.34-9.09a141.4,141.4,0,0,1,22.89-6.89l15.12,2.08c4.59.64,6.86,1.4,6.87,2.26,0,.47-.93,1.05-2.83,1.74l-6.77,2.49a61.1,61.1,0,0,0-7.52,3.39,15.93,15.93,0,0,0-5.49,4.4Zm-111.32,4.5c.9,2.17,2.92,4,6,5.6a47.64,47.64,0,0,0,11.47,3.87,117,117,0,0,0,15.44,2.22q8.63.72,18,.67a186.48,186.48,0,0,0,19.12-1,110.15,110.15,0,0,0,14.31-2.42,66.51,66.51,0,0,0,10.76-3.55,60.23,60.23,0,0,0,8.22-4.39Zm264.8-2.95c-.9-2.19-3.11-4.12-6.55-5.77a59.53,59.53,0,0,0-13.18-4.16,147.24,147.24,0,0,0-18.7-2.51q-10.63-.81-23.49-.76a178.87,178.87,0,0,0-19.69,1,101.1,101.1,0,0,0-14.3,2.59,52.93,52.93,0,0,0-10.28,3.8,76.06,76.06,0,0,0-7.88,4.64Z" transform="translate(-434.38 -455)"/><path class="cls-55" d="M1703,2558.81c-158.74,0-324,14-350.47,41a30.68,30.68,0,0,1,2.89,3c22.29-18.77,158.77-37.68,347.58-37.68,193.66,0,332.32,19.89,349.12,39.13a33.2,33.2,0,0,1,2.66-3C2032.9,2573.29,1864.51,2558.81,1703,2558.81Z" transform="translate(-434.38 -455)"/><path class="cls-56" d="M1247.91,2517.06v79c0,25.52,159.39,46.2,356,46.2s356-20.68,356-46.2v-79Z" transform="translate(-434.38 -455)"/><ellipse class="cls-57" cx="1169.55" cy="2062.06" rx="356.02" ry="46.2"/><path class="cls-58" d="M1603.93,2566.45c-174.14,0-356.23-16.63-356.23-48.71,0-1.76.63-4.86,2.39-4.86s1,2.42,1,4.18c0,20.35,144.9,43,352.83,43s352.83-22.67,352.83-43c0-1.76.3-3.41,2.06-3.41s1.34,2.35,1.34,4.12C1960.16,2549.85,1778.06,2566.45,1603.93,2566.45Z" transform="translate(-434.38 -455)"/><path class="cls-38" d="M1570.29,2519.64q5.24-3.63,11.18-7.16a70.79,70.79,0,0,1,15.3-6.37,145.15,145.15,0,0,1,23.47-4.64,297.12,297.12,0,0,1,35.15-1.9q20.64-.11,38.75,1.31a264.72,264.72,0,0,1,31.87,4.22c9.14,1.87,16.61,4.19,22.36,6.94s9.13,5.92,10.23,9.48l40.09.4a40.1,40.1,0,0,1,7.68.71c2.24.46,3.33,1,3.33,1.74l0,3.3-51.54-.5q-2.72,6.06-13.82,11.1t-28.25,8.71l-18.77-2.61a21.38,21.38,0,0,1-4.15-1c-1.08-.39-1.6-.82-1.61-1.29,0-.63,1.45-1.36,4.36-2.17s6.18-1.82,9.82-3a96.52,96.52,0,0,0,10.76-4.25c3.5-1.63,5.84-3.58,7.06-5.86l-121.64-1.2a116.42,116.42,0,0,1-10.75,6.93,70.13,70.13,0,0,1-15.78,6.13,166.4,166.4,0,0,1-24.47,4.42,345.69,345.69,0,0,1-36.91,1.8c-11.15.06-22-.36-32.63-1.26a223.48,223.48,0,0,1-28.33-4,87.84,87.84,0,0,1-20.31-6.65c-5.27-2.64-8.23-5.68-8.85-9.11l-33-.34a43.48,43.48,0,0,1-7.8-.68c-2.27-.45-3.43-1-3.44-1.76v-3.3l45.12.43c2-3.48,6.08-6.51,12.33-9.09a141.86,141.86,0,0,1,22.9-6.89l15.11,2.07c4.59.65,6.87,1.4,6.88,2.27,0,.47-.93,1.05-2.83,1.74s-4.17,1.52-6.77,2.48a62.64,62.64,0,0,0-7.52,3.39,16.09,16.09,0,0,0-5.5,4.41Zm-111.33,4.5c.91,2.16,2.93,4,6,5.59a47.69,47.69,0,0,0,11.46,3.88,117.38,117.38,0,0,0,15.45,2.22q8.63.71,18,.66a186.74,186.74,0,0,0,19.12-.94,112.18,112.18,0,0,0,14.31-2.42,66.8,66.8,0,0,0,10.76-3.56,60.23,60.23,0,0,0,8.22-4.39Zm264.81-2.95c-.9-2.2-3.11-4.12-6.55-5.77a59,59,0,0,0-13.18-4.16,145.45,145.45,0,0,0-18.7-2.51q-10.63-.83-23.49-.76a181.64,181.64,0,0,0-19.69,1,102.17,102.17,0,0,0-14.3,2.6,51.65,51.65,0,0,0-10.28,3.8,72.65,72.65,0,0,0-7.88,4.64Z" transform="translate(-434.38 -455)"/><path class="cls-59" d="M1604,2475.86c-158.75,0-324,14-350.47,41a31.92,31.92,0,0,1,2.89,3.05c22.29-18.78,158.76-37.68,347.58-37.68,193.66,0,332.32,19.89,349.12,39.12a34.48,34.48,0,0,1,2.66-3C1933.93,2490.35,1765.54,2475.86,1604,2475.86Z" transform="translate(-434.38 -455)"/><path class="cls-60" d="M1333.31,2434.36v79c0,25.52,159.39,46.2,356,46.2s356-20.68,356-46.2v-79Z" transform="translate(-434.38 -455)"/><ellipse class="cls-61" cx="1254.95" cy="1979.36" rx="356.02" ry="46.2"/><path class="cls-62" d="M1689.33,2483.75c-174.14,0-356.23-16.63-356.23-48.71,0-1.76.63-4.86,2.39-4.86s1,2.42,1,4.18c0,20.35,144.9,43,352.83,43s352.83-22.67,352.83-43c0-1.76.3-3.41,2.06-3.41s1.33,2.35,1.33,4.11C2045.55,2467.14,1863.46,2483.75,1689.33,2483.75Z" transform="translate(-434.38 -455)"/><path class="cls-38" d="M1655.68,2436.94c3.5-2.42,7.21-4.8,11.19-7.16a70.09,70.09,0,0,1,15.3-6.37,145.9,145.9,0,0,1,23.47-4.65,299.55,299.55,0,0,1,35.15-1.89q20.64-.1,38.75,1.31a264.26,264.26,0,0,1,31.86,4.22q13.72,2.8,22.37,6.94t10.23,9.47l40.09.41a39.31,39.31,0,0,1,7.68.71c2.24.46,3.33,1,3.33,1.74l0,3.3-51.54-.5q-2.71,6.06-13.82,11.09t-28.26,8.72l-18.77-2.61a21.26,21.26,0,0,1-4.14-1c-1.08-.39-1.61-.82-1.61-1.29,0-.63,1.45-1.36,4.35-2.17s6.18-1.83,9.83-3a99.3,99.3,0,0,0,10.76-4.25c3.5-1.63,5.84-3.59,7-5.86l-121.64-1.21a111,111,0,0,1-10.74,6.93,69.38,69.38,0,0,1-15.78,6.13,164.87,164.87,0,0,1-24.48,4.43,345.49,345.49,0,0,1-36.9,1.8c-11.15.06-22-.37-32.64-1.26a223.57,223.57,0,0,1-28.32-4,87.84,87.84,0,0,1-20.31-6.65c-5.28-2.65-8.24-5.68-8.85-9.11l-33-.34a43.42,43.42,0,0,1-7.8-.69c-2.27-.44-3.43-1-3.44-1.75V2435l45.12.43c2-3.47,6.08-6.5,12.33-9.08a140.55,140.55,0,0,1,22.9-6.89l15.11,2.07c4.59.65,6.87,1.4,6.88,2.27,0,.47-.93,1-2.83,1.74s-4.17,1.52-6.77,2.48a62.64,62.64,0,0,0-7.52,3.39,16.19,16.19,0,0,0-5.5,4.4Zm-111.32,4.5c.91,2.16,2.93,4,6,5.59a47.71,47.71,0,0,0,11.46,3.87,118.49,118.49,0,0,0,15.45,2.23q8.63.7,18,.66a187,187,0,0,0,19.13-.94,110.33,110.33,0,0,0,14.31-2.43,67.17,67.17,0,0,0,10.76-3.55,59.5,59.5,0,0,0,8.21-4.39Zm264.81-3c-.9-2.2-3.11-4.12-6.55-5.77a58.93,58.93,0,0,0-13.19-4.16,145.28,145.28,0,0,0-18.69-2.51q-10.63-.83-23.5-.76a181.58,181.58,0,0,0-19.68,1,100.46,100.46,0,0,0-14.3,2.6,51.42,51.42,0,0,0-10.28,3.8,72.65,72.65,0,0,0-7.88,4.64Z" transform="translate(-434.38 -455)"/><path class="cls-63" d="M1689.37,2393.16c-158.74,0-324,14-350.46,41a33.12,33.12,0,0,1,2.89,3c22.28-18.77,158.76-37.67,347.57-37.67,193.66,0,332.33,19.89,349.13,39.12a32.9,32.9,0,0,1,2.66-3C2019.32,2407.65,1850.94,2393.16,1689.37,2393.16Z" transform="translate(-434.38 -455)"/><path class="cls-64" d="M1288.89,2351.42v79c0,25.51,159.39,46.2,356,46.2s356-20.69,356-46.2v-79Z" transform="translate(-434.38 -455)"/><ellipse class="cls-65" cx="1210.53" cy="1896.42" rx="356.02" ry="46.2"/><path class="cls-66" d="M1644.91,2400.81c-174.14,0-356.23-16.64-356.23-48.72,0-1.76.63-4.85,2.39-4.85s1,2.42,1,4.18c0,20.34,144.9,43,352.83,43s352.83-22.67,352.83-43c0-1.76.3-3.41,2.06-3.41s1.34,2.35,1.34,4.11C2001.14,2384.2,1819,2400.81,1644.91,2400.81Z" transform="translate(-434.38 -455)"/><path class="cls-38" d="M1611.27,2354q5.24-3.61,11.18-7.15a70.56,70.56,0,0,1,15.3-6.38,146.24,146.24,0,0,1,23.47-4.64,297.12,297.12,0,0,1,35.15-1.9q20.64-.11,38.75,1.31a264.26,264.26,0,0,1,31.86,4.22q13.73,2.81,22.37,6.94t10.23,9.48l40.09.41a38.55,38.55,0,0,1,7.68.71c2.24.45,3.33,1,3.33,1.73l0,3.3-51.54-.49q-2.72,6.06-13.82,11.09t-28.26,8.72l-18.76-2.61a23,23,0,0,1-4.15-1c-1.08-.4-1.61-.83-1.61-1.29q0-1,4.35-2.17t9.83-3a101.4,101.4,0,0,0,10.76-4.25c3.5-1.64,5.84-3.59,7.06-5.86l-121.64-1.21a116.42,116.42,0,0,1-10.75,6.93,69.66,69.66,0,0,1-15.78,6.13,163.79,163.79,0,0,1-24.47,4.42,348.15,348.15,0,0,1-36.91,1.81c-11.15.05-22-.37-32.63-1.27a223.6,223.6,0,0,1-28.33-4,88.29,88.29,0,0,1-20.31-6.66c-5.27-2.64-8.24-5.67-8.85-9.11l-33-.33a43.42,43.42,0,0,1-7.8-.69c-2.27-.44-3.43-1-3.44-1.76v-3.3l45.12.43c2-3.48,6.08-6.51,12.33-9.09a141.86,141.86,0,0,1,22.9-6.89l15.11,2.08c4.59.64,6.87,1.4,6.88,2.26,0,.47-.93,1.05-2.83,1.74l-6.77,2.49a61.1,61.1,0,0,0-7.52,3.39,16.07,16.07,0,0,0-5.5,4.4Zm-111.33,4.5c.91,2.17,2.93,4,6,5.6a47.71,47.71,0,0,0,11.46,3.87,117.38,117.38,0,0,0,15.45,2.22q8.63.72,18,.67a186.63,186.63,0,0,0,19.12-.95,110.44,110.44,0,0,0,14.31-2.42,67.17,67.17,0,0,0,10.76-3.55,61.35,61.35,0,0,0,8.22-4.39Zm264.81-2.95c-.9-2.19-3.11-4.12-6.55-5.77a59.46,59.46,0,0,0-13.19-4.16,146.81,146.81,0,0,0-18.69-2.51q-10.63-.81-23.49-.76a181.64,181.64,0,0,0-19.69,1,102.17,102.17,0,0,0-14.3,2.6,52,52,0,0,0-10.28,3.8,74.31,74.31,0,0,0-7.88,4.64Z" transform="translate(-434.38 -455)"/><path class="cls-67" d="M1645,2310.22c-158.75,0-324,14-350.47,41a31.88,31.88,0,0,1,2.89,3c22.28-18.77,158.76-37.68,347.58-37.68,193.65,0,332.32,19.89,349.12,39.13a33.2,33.2,0,0,1,2.66-3C1974.91,2324.7,1806.52,2310.22,1645,2310.22Z" transform="translate(-434.38 -455)"/><path class="cls-68" d="M2102.19,2407.09l-64.34,45.77c-20.8,14.79,54.74,156.67,168.7,316.89s223.22,278.12,244,263.33l64.35-45.77Z" transform="translate(-434.38 -455)"/><path class="cls-69" d="M2514.91,2987.31c-20.79,14.79-130-103.11-244-263.33s-189.5-302.1-168.71-316.89,130,103.11,244,263.33S2535.7,2972.52,2514.91,2987.31Z" transform="translate(-434.38 -455)"/><path class="cls-70" d="M2268.31,2725.83c-100.94-141.9-192.93-299.93-166.79-318.52,1.44-1,4.33-2.3,5.35-.87s-1.39,2.22-2.83,3.24c-16.58,11.8,48.94,143,169.46,312.45s223,274.38,239.56,262.58c1.44-1,3-1.73,4-.29s-1.14,2.45-2.58,3.47C2488.32,3006.48,2369.24,2867.72,2268.31,2725.83Z" transform="translate(-434.38 -455)"/><path class="cls-38" d="M2287,2671.28c4,1.44,8.09,3.09,12.32,5a70.24,70.24,0,0,1,14.06,8.76,146.72,146.72,0,0,1,17.39,16.44,297.67,297.67,0,0,1,21.92,27.54q12,16.77,21.39,32.34a262.8,262.8,0,0,1,15,28.41q5.67,12.81,7.31,22.25t-1.79,13.83l22.9,32.9a40,40,0,0,1,3.88,6.68c.92,2.09,1.08,3.3.51,3.71l-2.68,1.93-29.47-42.28q-6.51,1.3-17-4.83t-23.49-18l-8.75-16.81a21.72,21.72,0,0,1-1.6-3.94c-.31-1.11-.26-1.79.12-2.06s1.94.39,4.29,2.29,5.07,4,8.16,6.25a98.85,98.85,0,0,0,9.7,6.3c3.36,1.91,6.31,2.68,8.87,2.36l-69.53-99.82a118.11,118.11,0,0,1-11.87-4.74,69.79,69.79,0,0,1-14.14-9.31,164.51,164.51,0,0,1-17.79-17.38,344.08,344.08,0,0,1-22.87-29q-9.75-13.57-17.88-27.32a223.4,223.4,0,0,1-13.13-25.42,88.1,88.1,0,0,1-6.35-20.41c-.9-5.83-.15-10,2.29-12.49l-18.85-27.09a43.06,43.06,0,0,1-4-6.75c-1-2.11-1.16-3.4-.56-3.82l2.68-1.93,25.8,37c4-.39,8.83,1.18,14.56,4.78a141.19,141.19,0,0,1,18.88,14.67l7.07,13.51c2.14,4.12,2.84,6.41,2.14,6.92-.38.27-1.39-.15-3.06-1.3s-3.65-2.51-5.94-4.08a64.2,64.2,0,0,0-7.12-4.16,15.91,15.91,0,0,0-6.78-1.92Zm-68.19-88.11c-1.24,2-1.58,4.72-1.08,8.13a47.43,47.43,0,0,0,3.49,11.59,118.15,118.15,0,0,0,7.14,13.87q4.43,7.44,9.9,15.07a188.51,188.51,0,0,0,11.86,15,110,110,0,0,0,10.26,10.26,67.73,67.73,0,0,0,9.13,6.71,59.9,59.9,0,0,0,8.35,4.15Zm155.9,214.08c1.26-2,1.55-4.93.9-8.69a59.14,59.14,0,0,0-4.25-13.15,147.62,147.62,0,0,0-8.79-16.69q-5.51-9.13-13-19.58a181.38,181.38,0,0,0-12.24-15.45,101,101,0,0,0-10.41-10.15,52.1,52.1,0,0,0-9-6.17,73.86,73.86,0,0,0-8.35-3.74Z" transform="translate(-434.38 -455)"/><path class="cls-71" d="M2342.15,2673.36c-92-129.36-199.2-256-236.55-261.82a31.59,31.59,0,0,1-.81,4.12c28.22,7.28,122.73,107.53,232.17,261.39,112.25,157.81,176.42,282.34,170.48,307.18a31.73,31.73,0,0,1,4,.42C2521.6,2950.62,2435.8,2805,2342.15,2673.36Z" transform="translate(-434.38 -455)"/><path class="cls-72" d="M704.41,3129.83v79c0,25.52,159.39,46.2,356,46.2s356-20.68,356-46.2v-79Z" transform="translate(-434.38 -455)"/><path class="cls-73" d="M1416.45,3129.83c0,25.52-159.4,46.2-356,46.2s-356-20.68-356-46.2,159.39-46.2,356-46.2S1416.45,3104.32,1416.45,3129.83Z" transform="translate(-434.38 -455)"/><path class="cls-74" d="M1060.43,3179.22c-174.14,0-356.23-16.63-356.23-48.71,0-1.76.63-4.86,2.39-4.86s1,2.42,1,4.18c0,20.35,144.9,43,352.83,43s352.83-22.66,352.83-43c0-1.76.3-3.41,2.06-3.41s1.34,2.35,1.34,4.11C1416.66,3162.61,1234.56,3179.22,1060.43,3179.22Z" transform="translate(-434.38 -455)"/><path class="cls-38" d="M1026.79,3132.41q5.24-3.63,11.18-7.16a70.77,70.77,0,0,1,15.3-6.38,147.35,147.35,0,0,1,23.47-4.64,295.25,295.25,0,0,1,35.15-1.89q20.64-.11,38.75,1.31a262.72,262.72,0,0,1,31.87,4.22q13.71,2.8,22.37,6.94t10.22,9.47l40.09.41a39.31,39.31,0,0,1,7.68.71c2.24.46,3.33,1,3.33,1.73l0,3.3-51.54-.49Q1212,3146,1200.86,3151t-28.25,8.72l-18.77-2.61a22.14,22.14,0,0,1-4.15-1c-1.08-.39-1.6-.82-1.61-1.29q0-1,4.36-2.17t9.82-3a98.5,98.5,0,0,0,10.76-4.25c3.5-1.63,5.84-3.59,7.06-5.86l-121.64-1.21a115.09,115.09,0,0,1-10.75,6.93,69.66,69.66,0,0,1-15.78,6.13,165,165,0,0,1-24.47,4.43,345.84,345.84,0,0,1-36.91,1.8c-11.15.06-22-.37-32.63-1.26a223.48,223.48,0,0,1-28.33-4,88.49,88.49,0,0,1-20.31-6.65c-5.27-2.65-8.23-5.68-8.85-9.11l-33-.34a43.42,43.42,0,0,1-7.8-.69c-2.27-.44-3.43-1-3.44-1.76v-3.3l45.12.43c2-3.47,6.08-6.51,12.33-9.08a140.85,140.85,0,0,1,22.9-6.89l15.11,2.07c4.59.65,6.87,1.4,6.88,2.27,0,.46-.93,1-2.83,1.74s-4.17,1.52-6.77,2.48a61.1,61.1,0,0,0-7.52,3.39,16.07,16.07,0,0,0-5.5,4.4Zm-111.33,4.5c.91,2.16,2.93,4,6,5.59a47.64,47.64,0,0,0,11.47,3.87,118.58,118.58,0,0,0,15.44,2.23q8.63.71,18,.66a189.8,189.8,0,0,0,19.12-.94,112.07,112.07,0,0,0,14.31-2.43,66.84,66.84,0,0,0,10.76-3.55,60.23,60.23,0,0,0,8.22-4.39Zm264.81-3c-.9-2.19-3.11-4.11-6.55-5.76a59,59,0,0,0-13.18-4.16,143.71,143.71,0,0,0-18.7-2.51q-10.63-.83-23.49-.76a179.12,179.12,0,0,0-19.69,1,99.33,99.33,0,0,0-14.3,2.6,52.31,52.31,0,0,0-10.28,3.79,74.35,74.35,0,0,0-7.88,4.65Z" transform="translate(-434.38 -455)"/><path class="cls-75" d="M1060.48,3088.63c-158.75,0-324,14-350.47,41a30.68,30.68,0,0,1,2.89,3c22.28-18.77,158.76-37.67,347.58-37.67,193.66,0,332.32,19.88,349.12,39.12a36.13,36.13,0,0,1,2.66-3C1390.43,3103.12,1222,3088.63,1060.48,3088.63Z" transform="translate(-434.38 -455)"/><path class="cls-76" d="M605.44,3046.89v79c0,25.52,159.39,46.21,356,46.21s356-20.69,356-46.21v-79Z" transform="translate(-434.38 -455)"/><ellipse class="cls-77" cx="527.08" cy="2591.89" rx="356.02" ry="46.2"/><path class="cls-78" d="M961.46,3096.27c-174.14,0-356.23-16.63-356.23-48.71,0-1.76.63-4.86,2.39-4.86s1,2.43,1,4.19c0,20.34,144.9,43,352.83,43s352.83-22.67,352.83-43c0-1.76.3-3.41,2.06-3.41s1.34,2.35,1.34,4.11C1317.69,3079.67,1135.59,3096.27,961.46,3096.27Z" transform="translate(-434.38 -455)"/><path class="cls-38" d="M927.81,3049.46q5.25-3.63,11.19-7.15a70.06,70.06,0,0,1,15.3-6.38,146.24,146.24,0,0,1,23.47-4.64,297.12,297.12,0,0,1,35.15-1.9q20.64-.1,38.75,1.31a264.26,264.26,0,0,1,31.86,4.22q13.73,2.8,22.37,6.94t10.23,9.48l40.09.41a38.55,38.55,0,0,1,7.68.71c2.24.45,3.33,1,3.33,1.73l0,3.3-51.54-.5q-2.71,6.08-13.82,11.1t-28.26,8.72l-18.76-2.61a23,23,0,0,1-4.15-1c-1.08-.4-1.61-.83-1.61-1.3q0-.95,4.35-2.17t9.83-3a99.38,99.38,0,0,0,10.76-4.26c3.5-1.63,5.84-3.58,7.06-5.86l-121.65-1.2a114.88,114.88,0,0,1-10.74,6.93,70.13,70.13,0,0,1-15.78,6.13,165.09,165.09,0,0,1-24.47,4.42,348.15,348.15,0,0,1-36.91,1.81c-11.15.05-22-.37-32.63-1.27a221.68,221.68,0,0,1-28.33-4,87.84,87.84,0,0,1-20.31-6.65c-5.27-2.64-8.24-5.68-8.85-9.11l-33-.34a42.58,42.58,0,0,1-7.8-.68c-2.27-.44-3.43-1-3.44-1.76v-3.3l45.12.43c2-3.48,6.08-6.51,12.33-9.09a141.86,141.86,0,0,1,22.9-6.89l15.11,2.08c4.59.64,6.87,1.4,6.88,2.26,0,.47-.93,1-2.83,1.74s-4.17,1.52-6.77,2.49a61.1,61.1,0,0,0-7.52,3.39,16.07,16.07,0,0,0-5.5,4.4ZM816.49,3054c.91,2.17,2.93,4,6,5.6a47.71,47.71,0,0,0,11.46,3.87,117.14,117.14,0,0,0,15.45,2.22q8.63.7,18,.67a189.53,189.53,0,0,0,19.12-1,110.44,110.44,0,0,0,14.31-2.42,67.17,67.17,0,0,0,10.76-3.55,60.24,60.24,0,0,0,8.22-4.4ZM1081.3,3051c-.9-2.19-3.11-4.12-6.55-5.77a58.93,58.93,0,0,0-13.19-4.16,146.81,146.81,0,0,0-18.69-2.51q-10.63-.81-23.49-.76a181.64,181.64,0,0,0-19.69,1,101.89,101.89,0,0,0-14.3,2.6,52,52,0,0,0-10.28,3.8,74.31,74.31,0,0,0-7.88,4.64Z" transform="translate(-434.38 -455)"/><path class="cls-79" d="M961.51,3005.69c-158.75,0-324,14-350.47,41a31.88,31.88,0,0,1,2.89,3c22.28-18.78,158.76-37.68,347.58-37.68,193.65,0,332.32,19.89,349.12,39.13a31.74,31.74,0,0,1,2.66-3C1291.46,3020.17,1123.07,3005.69,961.51,3005.69Z" transform="translate(-434.38 -455)"/><path class="cls-80" d="M690.84,2964.19v79c0,25.52,159.39,46.2,356,46.2s356-20.68,356-46.2v-79Z" transform="translate(-434.38 -455)"/><ellipse class="cls-81" cx="612.48" cy="2509.19" rx="356.02" ry="46.2"/><path class="cls-82" d="M1046.85,3013.57c-174.13,0-356.22-16.63-356.22-48.71,0-1.76.63-4.86,2.39-4.86s1,2.42,1,4.19c0,20.34,144.9,43,352.82,43s352.83-22.67,352.83-43c0-1.77.31-3.42,2.07-3.42s1.33,2.35,1.33,4.12C1403.08,2997,1221,3013.57,1046.85,3013.57Z" transform="translate(-434.38 -455)"/><path class="cls-38" d="M1013.21,2966.76c3.5-2.42,7.21-4.8,11.19-7.16a70.58,70.58,0,0,1,15.3-6.37,146,146,0,0,1,23.47-4.64,297.12,297.12,0,0,1,35.15-1.9q20.64-.11,38.75,1.31a264.26,264.26,0,0,1,31.86,4.22q13.72,2.81,22.37,6.94t10.23,9.48l40.09.4a40.18,40.18,0,0,1,7.68.71c2.24.46,3.32,1,3.33,1.74v3.3l-51.53-.5q-2.71,6.08-13.82,11.1T1159,2994.1l-18.77-2.61a21.26,21.26,0,0,1-4.14-1c-1.08-.39-1.61-.82-1.61-1.29,0-.63,1.45-1.36,4.35-2.17s6.18-1.82,9.83-3a99.38,99.38,0,0,0,10.76-4.26c3.49-1.63,5.83-3.58,7-5.86l-121.64-1.2a114.88,114.88,0,0,1-10.74,6.93,70.32,70.32,0,0,1-15.78,6.13,165,165,0,0,1-24.48,4.42A345.49,345.49,0,0,1,957,2992c-11.15.06-22-.36-32.64-1.26a223.57,223.57,0,0,1-28.32-4,88.1,88.1,0,0,1-20.32-6.65c-5.27-2.64-8.23-5.68-8.84-9.11l-33-.34a43.39,43.39,0,0,1-7.8-.68c-2.28-.44-3.43-1-3.44-1.76v-3.3l45.12.43c2-3.48,6.08-6.51,12.33-9.09a141.55,141.55,0,0,1,22.9-6.89l15.11,2.08c4.59.64,6.87,1.39,6.87,2.26,0,.47-.92,1.05-2.82,1.74s-4.17,1.52-6.78,2.48a64.86,64.86,0,0,0-7.51,3.39,15.89,15.89,0,0,0-5.5,4.41Zm-111.32,4.5c.91,2.16,2.93,4,6,5.59a47.69,47.69,0,0,0,11.46,3.88A116.89,116.89,0,0,0,934.8,2983q8.63.71,18,.66a187,187,0,0,0,19.13-.94,112.18,112.18,0,0,0,14.31-2.42,66.66,66.66,0,0,0,10.75-3.56,59.07,59.07,0,0,0,8.22-4.39Zm264.81-3c-.91-2.2-3.12-4.12-6.55-5.77a58.93,58.93,0,0,0-13.19-4.16,145.52,145.52,0,0,0-18.69-2.51q-10.63-.82-23.5-.76a181.58,181.58,0,0,0-19.68,1,102.33,102.33,0,0,0-14.31,2.6,52.17,52.17,0,0,0-10.27,3.8,70.78,70.78,0,0,0-7.88,4.64Z" transform="translate(-434.38 -455)"/><path class="cls-83" d="M1046.9,2923c-158.74,0-324,14-350.46,41a34.64,34.64,0,0,1,2.89,3.05c22.28-18.78,158.76-37.68,347.57-37.68,193.66,0,332.33,19.89,349.13,39.13a31.74,31.74,0,0,1,2.66-3C1376.85,2937.47,1208.47,2923,1046.9,2923Z" transform="translate(-434.38 -455)"/><path class="cls-84" d="M742.66,2881.24v79c0,25.52,159.39,46.2,356,46.2s356-20.68,356-46.2v-79Z" transform="translate(-434.38 -455)"/><ellipse class="cls-85" cx="664.3" cy="2426.24" rx="356.02" ry="46.2"/><path class="cls-86" d="M1098.68,2930.63c-174.14,0-356.23-16.63-356.23-48.71,0-1.77.63-4.86,2.39-4.86s1,2.42,1,4.18c0,20.35,144.9,43,352.83,43s352.83-22.66,352.83-43c0-1.76.3-3.41,2.06-3.41s1.34,2.35,1.34,4.11C1454.91,2914,1272.81,2930.63,1098.68,2930.63Z" transform="translate(-434.38 -455)"/><path class="cls-38" d="M1065,2883.82q5.24-3.63,11.18-7.16a70.77,70.77,0,0,1,15.3-6.38,146.24,146.24,0,0,1,23.47-4.64,299.28,299.28,0,0,1,35.15-1.9q20.64-.09,38.75,1.32a260.29,260.29,0,0,1,31.86,4.22q13.73,2.8,22.37,6.94t10.23,9.47l40.09.41a39.31,39.31,0,0,1,7.68.71c2.24.46,3.33,1,3.33,1.73l0,3.3-51.54-.49q-2.72,6.06-13.82,11.09t-28.25,8.72l-18.77-2.61a22.14,22.14,0,0,1-4.15-1c-1.08-.39-1.6-.82-1.61-1.29q0-1,4.36-2.17t9.82-3a98.5,98.5,0,0,0,10.76-4.25c3.5-1.64,5.84-3.59,7.06-5.86l-121.64-1.21a116.42,116.42,0,0,1-10.75,6.93,69.66,69.66,0,0,1-15.78,6.13,165,165,0,0,1-24.47,4.43,345.84,345.84,0,0,1-36.91,1.8c-11.15,0-22-.37-32.63-1.26a223.48,223.48,0,0,1-28.33-4,88.33,88.33,0,0,1-20.31-6.65c-5.27-2.65-8.23-5.68-8.85-9.11l-33-.34a43.42,43.42,0,0,1-7.8-.69c-2.27-.44-3.43-1-3.44-1.76v-3.3l45.12.43c2-3.48,6.08-6.51,12.33-9.09a141.93,141.93,0,0,1,22.9-6.88l15.11,2.07c4.59.65,6.87,1.4,6.88,2.27,0,.46-.93,1-2.83,1.74s-4.17,1.52-6.77,2.48a61.1,61.1,0,0,0-7.52,3.39,16.07,16.07,0,0,0-5.5,4.4Zm-111.33,4.49c.91,2.17,2.93,4,6,5.6a47.71,47.71,0,0,0,11.46,3.87,119,119,0,0,0,15.45,2.23q8.63.7,18,.66a189.8,189.8,0,0,0,19.12-.94,112.07,112.07,0,0,0,14.31-2.43,66.84,66.84,0,0,0,10.76-3.55,60.23,60.23,0,0,0,8.22-4.39Zm264.81-2.95c-.9-2.19-3.11-4.11-6.55-5.76a58.93,58.93,0,0,0-13.19-4.16,143.29,143.29,0,0,0-18.69-2.51q-10.63-.82-23.49-.76a179.12,179.12,0,0,0-19.69,1,100.83,100.83,0,0,0-14.3,2.59,52.68,52.68,0,0,0-10.28,3.8,74.35,74.35,0,0,0-7.88,4.65Z" transform="translate(-434.38 -455)"/><path class="cls-87" d="M1098.73,2840c-158.75,0-324,14-350.47,41a30.68,30.68,0,0,1,2.89,3c22.28-18.77,158.76-37.67,347.58-37.67,193.66,0,332.32,19.88,349.12,39.12a36.13,36.13,0,0,1,2.66-3C1428.68,2854.53,1260.29,2840,1098.73,2840Z" transform="translate(-434.38 -455)"/><path class="cls-88" d="M2123,2015.47s4.45-17.49,11.87-22.11,17.91-9.55,20.32-11.58,5.2,4-1.72,8.67l-6.92,4.64a6.86,6.86,0,0,0,.28,3c1.1,3.28,4.84,5.53,9.46,6,17.77,3.72,24.71,3.9,27.42,3.11.4-.12,1.95-.62,2.6.07,1.05,1.1-.83,4.59-1.63,5.81-4.81,7.34-21.5,10.54-34,4.79-4.56-2.09-6.31-4.35-9.64-3.78-5.29.9-8.54,7.87-10.46,13.65Z" transform="translate(-434.38 -455)"/><path class="cls-89" d="M2141.4,2021.41l-19.83-14.16c-37,39-70.6,51-94,54.93-75.6,12.56-121.3-46.71-240.68-74.95a489.3,489.3,0,0,0-114.23-13c2.44,35.51,13.23,99.61,62.32,147.77,86.75,85.12,241.44,69.77,331.34-1.16C2108.85,2087.22,2130.71,2046.06,2141.4,2021.41Z" transform="translate(-434.38 -455)"/><path class="cls-90" d="M1749.25,2264.72c98.24,23.85,163,62.13,200.74,89.22,20.49,14.67,30,23.83,35,37.17,29.11,76-120.41,191-136.34,203l-20.88-48.68c15.45-84.8,41.17-111.41,62.69-119.32,6-2.21,16.13-4.58,15.94-7.43-.47-6.74-57.26,2.86-111.53-17-54.11-19.8-108.48-69.9-98.77-103C1697.92,2292.66,1705.34,2275.18,1749.25,2264.72Z" transform="translate(-434.38 -455)"/><path class="cls-91" d="M1749.25,2264.72c98.24,23.85,163,62.13,200.74,89.22,20.49,14.67,30,23.83,35,37.17,29.11,76-120.41,191-136.34,203l-20.88-48.68c15.45-84.8,41.17-111.41,62.69-119.32,6-2.21,16.13-4.58,15.94-7.43-.47-6.74-57.26,2.86-111.53-17-54.11-19.8-108.48-69.9-98.77-103C1697.92,2292.66,1705.34,2275.18,1749.25,2264.72Z" transform="translate(-434.38 -455)"/><path class="cls-92" d="M1844.51,2820.51s-9.14,3.25-9.18,10.49,9.27,39.09,19.37,50.4,11-5.56,10.37-16.44-3.27-35.23-5.76-39.94S1844.51,2820.51,1844.51,2820.51Z" transform="translate(-434.38 -455)"/><path class="cls-93" d="M1873.88,2375.89c17.85-.35,59.67-3.68,70.8,17,9.29,17.25-7,43.4-17,59.48-27.21,43.72-53.62,48.19-72.23,75.06-7.2,10.4-13.72,24.92-15.8,45.67l-11.84-27.62c15.45-84.79,41.17-111.4,62.69-119.31,6-2.21,16.13-4.58,15.94-7.43-.47-6.74-57.26,2.86-111.53-17-49.33-18.05-98.7-61.24-99.73-93.84C1773.31,2363.92,1832.1,2376.71,1873.88,2375.89Z" transform="translate(-434.38 -455)"/><path class="cls-94" d="M1839.23,2789.77c.54,11.15,1.48,20.47,2.34,27.39,1.88,15.31,3.62,21.36,6,26.88,2.08,4.81,7.26,15.3,9.73,14.57s-.07-12.36-2-44.67c-.28-4.69-1.15-19.62-1.15-19.62h0Z" transform="translate(-434.38 -455)"/><path class="cls-95" d="M1692.61,2271.09a441.7,441.7,0,0,1,114.7,99.13c25.22,30.94,63.58,78,77.47,148.15,7.41,37.39,3.76,70.94-3.82,136.5a1372.67,1372.67,0,0,1-26.8,154.34l-13.05,5.25c-11.66-21.42-26.91-55.33-32.38-98.69-8.94-70.94,17.6-93.48,4.86-143.79-11-43.59-43-70.31-106.95-123.75-52.54-43.92-101-70-119-124.74-3.05-9.3-5.65-20.71-.67-31.16C1597.73,2269.82,1638.78,2262,1692.61,2271.09Z" transform="translate(-434.38 -455)"/><path class="cls-96" d="M1851.22,2129.47c11.15-2.07,16.54-7.65,45.11-17.17a134.07,134.07,0,0,1,24.28-5.49c61.81-8.52,86.92,21.16,131.7,12.75a94.89,94.89,0,0,0,26.24-9.19c-3.9,3.53-7.94,7-12.25,10.43-89.9,70.93-244.59,86.28-331.34,1.16-25.46-25-40.56-54.23-49.6-81.57a202.94,202.94,0,0,1,62.18,21.29C1802.44,2091.36,1820.18,2135.24,1851.22,2129.47Z" transform="translate(-434.38 -455)"/><path class="cls-97" d="M1585.32,1998c14.52-3.91,38.68-4.51,60.76-23.8,6.65-5.8,30.2-26.38,25.81-53.87-3.87-24.2-27.6-36.1-30.51-37.52-16.78-8.15-33-5.32-50.89-1.93-23.25,4.39-30.7,11.18-46.74,16.4-39.69,12.9-54.46-9-94.88-5.07-51.66,5.08-54.19,43.55-97.71,46.73-48.86,3.57-60.68-43.83-109.39-49.48-67.61-7.84-165.35,69.5-159.07,152.58,3.63,48,42.22,101.23,88.76,115.43,27.13,8.28,55.72,3.75,64.8,20.66,6.47,12-6.17,22.19-3.84,43.61,3,27.61,27.84,45.82,31.85,48.76,37.22,27.31,116.59,8.51,169.2-35.5C1528.35,2155.66,1506.42,2019.24,1585.32,1998Z" transform="translate(-434.38 -455)"/><path class="cls-98" d="M1533.94,1982a1051.52,1051.52,0,0,1,114.3-7.8c90.12-1.22,103,10.2,106.32,18.66,6.16,15.77-17.67,29.86-11.68,57.36,3.58,16.44,13.48,17.74,20.4,35.4,6.74,17.22,1.45,26.47-4.51,66.84-7.63,51.61-11.14,77.85,3.3,98.65,10,14.46,21.26,15.69,20.19,22.55-2.28,14.64-52.87,6.57-116.92,34.66-18.54,8.13-35.6,18.15-49.92,26.55-33.51,19.67-39.71,27.2-55.23,36.11-49.08,28.19-122.8,30.91-161.44-3.19-14.41-12.71-24.91-31.39-20.18-38.23,6.43-9.31,35.2,11.84,61.6-1.06,17.49-8.55,14.17-22.38,34.39-38.67,24.33-19.61,41.25-9.34,57.81-22.1,25.84-19.9,14.09-67.56,6.83-147.45A1336.48,1336.48,0,0,1,1533.94,1982Z" transform="translate(-434.38 -455)"/><path class="cls-99" d="M1564.44,2113.9c-10-.8-65.6-4.29-109.4,36.32-40.14,37.22-54.56,96.84-37.17,152.73l-27.62,13.81c-38.92-43.36-47.47-84.32-49.92-103-14-106.86,76.41-216.22,176.32-234.74,31.35-5.81,58.29-1.68,75,2.24Z" transform="translate(-434.38 -455)"/><path class="cls-100" d="M1628.44,1928.4s-4.1,32.82-16.22,40.33-31.73,7.2-33.89,9.86,62,26.81,100.29,7.51l16-11.22c-12.59,0-28.75-.85-35.15-4.49a55.23,55.23,0,0,1-17.81-16.47l.14-18.17Z" transform="translate(-434.38 -455)"/><path class="cls-101" d="M1626.6,1940s7.89,10.84,20.28,6.32c11.09-4,4.47-32.68-4.32-35.95-2.94-1.09-8.33-.61-11.93,1.64-2.53,1.58-9.29,10-5.42,19.4-2.8-.81-5.26-.07-5.88,1.31-.79,1.76,1.59,4.16,2.12,4.7A9.42,9.42,0,0,0,1626.6,1940Z" transform="translate(-434.38 -455)"/><path class="cls-102" d="M1384.94,2163.82c15.62-57,66.25-110.28,125.33-113.65,25.75-1.47,67.6,6.16,82.85,34,13.8,25.19-8.34,41.12-4.25,87.09,5.15,57.9,45,85.81,31.86,104.09-11.11,15.47-40-4-69,15.93-22.21,15.25-14.35,32.93-37.18,53.11-22.3,19.71-56.64,26.57-87.09,19.12a101.45,101.45,0,0,1-49.87-29.56,7.71,7.71,0,0,1,1-4.43c6.43-9.31,35.2,11.84,61.6-1.06,17.49-8.55,14.17-22.38,34.39-38.67,24.33-19.61,41.25-9.34,57.81-22.1,25.84-19.9,14.09-67.56,6.83-147.45-.17-1.91-.34-4-.51-6-22.66,2.11-55.55,10-83.65,36-40.14,37.22-54.56,96.84-37.17,152.73l-4.15,2.08C1397.18,2281.19,1367.58,2227.19,1384.94,2163.82Z" transform="translate(-434.38 -455)"/><path class="cls-103" d="M1410.12,2306.83l4.21,9.22s44.56,5.61,37.39,24.45-12.36,7.78-15.09,2.82-18.24-12.86-24.39-13.51-16.08-16-16.08-16Z" transform="translate(-434.38 -455)"/></g></g></svg>