<svg xmlns="http://www.w3.org/2000/svg" xmlns:xlink="http://www.w3.org/1999/xlink" viewBox="0 0 2800.73 2785.11"><defs><style>.cls-1{isolation:isolate;}.cls-2{fill:#f4f7fa;}.cls-3{fill:#26264f;}.cls-4{fill:url(#linear-gradient);}.cls-30,.cls-38,.cls-5{fill:#fff;}.cls-14,.cls-19,.cls-32,.cls-44,.cls-5{opacity:0.3;}.cls-5{mix-blend-mode:soft-light;}.cls-6{fill:url(#linear-gradient-2);}.cls-7{fill:url(#linear-gradient-3);}.cls-8{fill:url(#linear-gradient-4);}.cls-9{fill:url(#linear-gradient-5);}.cls-10{fill:url(#linear-gradient-6);}.cls-11{fill:url(#linear-gradient-7);}.cls-12{fill:url(#linear-gradient-8);}.cls-13,.cls-14{fill:url(#linear-gradient-9);}.cls-14,.cls-19,.cls-32,.cls-44{mix-blend-mode:multiply;}.cls-15{fill:url(#linear-gradient-11);}.cls-16{fill:url(#linear-gradient-12);}.cls-17{fill:url(#linear-gradient-13);}.cls-18{fill:url(#linear-gradient-14);}.cls-19{fill:url(#linear-gradient-15);}.cls-20{fill:url(#linear-gradient-16);}.cls-21{fill:url(#linear-gradient-17);}.cls-22{fill:url(#linear-gradient-18);}.cls-23{fill:url(#linear-gradient-19);}.cls-24{fill:url(#linear-gradient-20);}.cls-25{fill:url(#linear-gradient-21);}.cls-26{fill:url(#linear-gradient-22);}.cls-27{fill:url(#linear-gradient-23);}.cls-28{fill:url(#linear-gradient-24);}.cls-29{fill:url(#linear-gradient-25);}.cls-31{fill:url(#linear-gradient-26);}.cls-32{fill:url(#linear-gradient-27);}.cls-33{fill:url(#linear-gradient-28);}.cls-34{fill:url(#linear-gradient-29);}.cls-35{fill:url(#linear-gradient-30);}.cls-36{fill:url(#linear-gradient-31);}.cls-37{fill:url(#linear-gradient-32);}.cls-38{opacity:0.5;}.cls-39{fill:#d8dee8;}.cls-40{fill:url(#linear-gradient-33);}.cls-41{fill:url(#linear-gradient-34);}.cls-42,.cls-44{fill:#bfc8d6;}.cls-43{fill:url(#linear-gradient-35);}</style><linearGradient id="linear-gradient" x1="3788.64" y1="207.64" x2="997.25" y2="5057.92" gradientUnits="userSpaceOnUse"><stop offset="0" stop-color="#ffc444"/><stop offset="1" stop-color="#f36f56"/></linearGradient><linearGradient id="linear-gradient-2" x1="1722.94" y1="2332.89" x2="596.38" y2="3841.5" gradientUnits="userSpaceOnUse"><stop offset="0" stop-color="#e38ddd"/><stop offset="1" stop-color="#9571f6"/></linearGradient><linearGradient id="linear-gradient-3" x1="3192.24" y1="640.85" x2="2302.6" y2="1882.64" gradientUnits="userSpaceOnUse"><stop offset="0" stop-color="#ff9085"/><stop offset="1" stop-color="#fb6fbb"/></linearGradient><linearGradient id="linear-gradient-4" x1="3303.09" y1="-1244.13" x2="432.48" y2="3743.81" gradientTransform="matrix(0.95, -0.3, 0.3, 0.95, -945.74, 1585.19)" gradientUnits="userSpaceOnUse"><stop offset="0" stop-color="#aa80f9"/><stop offset="1" stop-color="#6165d7"/></linearGradient><linearGradient id="linear-gradient-5" x1="740.2" y1="3184.7" x2="866.29" y2="3184.7" gradientUnits="userSpaceOnUse"><stop offset="0" stop-color="#40447e"/><stop offset="1" stop-color="#3c3b6b"/></linearGradient><linearGradient id="linear-gradient-6" x1="1176.75" y1="2967.93" x2="1260.12" y2="2967.93" xlink:href="#linear-gradient-5"/><linearGradient id="linear-gradient-7" x1="801.75" y1="3178.59" x2="847.5" y2="3273.35" gradientUnits="userSpaceOnUse"><stop offset="0" stop-color="#311944"/><stop offset="1" stop-color="#a03976"/></linearGradient><linearGradient id="linear-gradient-8" x1="1242.11" y1="2803.49" x2="1172.16" y2="3115.11" xlink:href="#linear-gradient-7"/><linearGradient id="linear-gradient-9" x1="1224.11" y1="3041.89" x2="900.93" y2="2718.7" gradientUnits="userSpaceOnUse"><stop offset="0" stop-color="#ab316d"/><stop offset="1" stop-color="#792d3d"/></linearGradient><linearGradient id="linear-gradient-11" x1="1438.13" y1="2827.87" x2="1114.94" y2="2504.69" xlink:href="#linear-gradient-9"/><linearGradient id="linear-gradient-12" x1="1014.11" y1="1816.38" x2="835.28" y2="2367.94" xlink:href="#linear-gradient"/><linearGradient id="linear-gradient-13" x1="1597.68" y1="2185.61" x2="1542.28" y2="2130.21" xlink:href="#linear-gradient-7"/><linearGradient id="linear-gradient-14" x1="1250.34" y1="1892.96" x2="1071.51" y2="2444.53" xlink:href="#linear-gradient"/><linearGradient id="linear-gradient-15" x1="1006.14" y1="1813.79" x2="827.31" y2="2365.36" xlink:href="#linear-gradient"/><linearGradient id="linear-gradient-16" x1="780.41" y1="1955.47" x2="924.04" y2="1718.47" xlink:href="#linear-gradient-7"/><linearGradient id="linear-gradient-17" x1="770.23" y1="1949.3" x2="913.87" y2="1712.3" xlink:href="#linear-gradient-7"/><linearGradient id="linear-gradient-18" x1="772.83" y1="1950.88" x2="916.47" y2="1713.88" xlink:href="#linear-gradient-7"/><linearGradient id="linear-gradient-19" x1="2483.81" y1="2964.63" x2="2503.16" y2="3313.04" gradientUnits="userSpaceOnUse"><stop offset="0" stop-color="#444b8c"/><stop offset="1" stop-color="#26264f"/></linearGradient><linearGradient id="linear-gradient-20" x1="2520.36" y1="3136.33" x2="2510.08" y2="2665.93" xlink:href="#linear-gradient"/><linearGradient id="linear-gradient-21" x1="2834.13" y1="2945.18" x2="2853.49" y2="3293.56" xlink:href="#linear-gradient-19"/><linearGradient id="linear-gradient-22" x1="2828.8" y1="3129.59" x2="2818.51" y2="2659.2" xlink:href="#linear-gradient"/><linearGradient id="linear-gradient-23" x1="2371.02" y1="2830.6" x2="2566.37" y2="2568.41" gradientTransform="matrix(1, 0, 0, 1, 0, 0)" xlink:href="#linear-gradient-4"/><linearGradient id="linear-gradient-24" x1="1546.14" y1="2005.65" x2="1617.08" y2="2439.42" gradientTransform="translate(124.19 236.7) rotate(-11.19)" xlink:href="#linear-gradient"/><linearGradient id="linear-gradient-25" x1="2516.14" y1="2863.13" x2="2973.68" y2="2436.44" gradientTransform="matrix(1, 0, 0, 1, 0, 0)" xlink:href="#linear-gradient-4"/><linearGradient id="linear-gradient-26" x1="2835.8" y1="2099.21" x2="2700.31" y2="1907.28" xlink:href="#linear-gradient-19"/><linearGradient id="linear-gradient-27" x1="2395.94" y1="2849.16" x2="2591.29" y2="2586.98" gradientTransform="matrix(1, 0, 0, 1, 0, 0)" xlink:href="#linear-gradient-4"/><linearGradient id="linear-gradient-28" x1="2503.71" y1="1717.13" x2="2623.23" y2="1543.63" xlink:href="#linear-gradient"/><linearGradient id="linear-gradient-29" x1="2492.87" y1="1629.13" x2="2681.8" y2="1515.38" xlink:href="#linear-gradient"/><linearGradient id="linear-gradient-30" x1="2544.33" y1="1892.23" x2="2628.48" y2="2406.86" xlink:href="#linear-gradient"/><linearGradient id="linear-gradient-31" x1="2691.91" y1="1164.87" x2="3569.74" y2="2110.63" gradientTransform="matrix(1, 0, 0, 1, 0, 0)" xlink:href="#linear-gradient-4"/><linearGradient id="linear-gradient-32" x1="3044.27" y1="2502.93" x2="2713.31" y2="3134.45" gradientTransform="translate(358.39 -905.27) rotate(18.6)" xlink:href="#linear-gradient-4"/><linearGradient id="linear-gradient-33" x1="934.88" y1="878.08" x2="1638.87" y2="878.08" gradientUnits="userSpaceOnUse"><stop offset="0" stop-color="#311944"/><stop offset="1" stop-color="#893976"/></linearGradient><linearGradient id="linear-gradient-34" x1="950.88" y1="667.78" x2="1651.67" y2="667.78" xlink:href="#linear-gradient-3"/><linearGradient id="linear-gradient-35" x1="1434.07" y1="931.9" x2="1510.87" y2="931.9" xlink:href="#linear-gradient-3"/></defs><title>people-per-hour</title><g class="cls-1"><g id="Illustration"><path class="cls-2" d="M3227.05,1644.61C3151.13,1147.72,2839.89,537.26,2225,473.38c0,0-466.86-56.79-927.08,29.28-273.14,51.08-512.64,203.13-664.19,421.67s-202.17,485-140.73,739.06c39.9,165,66.86,335.78,59.46,505.34-9.33,213.83-26.9,438.67,67.63,638.08C758.6,3099,1096.54,3185,1391.42,3212.48c108.67,10.12,217.74,14.19,326.5,22.79,208.64,16.5,442.62-10.2,643.72-64.52C3386.46,2893.92,3303,2141.49,3227.05,1644.61Z" transform="translate(-467.5 -455)"/><path class="cls-3" d="M2887.55,2581c20.26,16.23,53.62,31.31,106.74,28.58,108.4-5.55,192-171.85,64.36-245.45-129.09-74.42-207.85,27.09-207.85,27.09V2083.87l-257.91,7.36c-28.25.81-45.21,35.48-29.11,60,82.28,125.3-12.53,247.82-89.05,255.64-88.85,9.08-178.36-38.9-169.81-148.32,3.71-47.38,16.22-85.59,29.21-113.66,11.89-25.71-5.65-54.93-32.32-54.18l-306.5,8.65v272.92c0,20.83,20.93,34,38.52,23.71,25.39-14.8,63.54-28.66,115.11-25.59,103.5,6.15,162.28,94.19,124.83,169.14-72.22,144.5-167.36,111.35-221.21,75-17.64-11.9-41.66,2.82-41.66,25.37v314.51l848.53-53.73V2597.57C2859.43,2581.74,2876.11,2571.83,2887.55,2581Z" transform="translate(-467.5 -455)"/><path class="cls-3" d="M2052.56,2614.53c53.85,36.36,149,69.51,221.21-75,37.45-74.95-21.33-163-124.83-169.14-51.57-3.07-89.72,10.79-115.11,25.59-17.59,10.26-38.52-2.88-38.52-23.71V2099.36l-290.13,8.18c-29.18.82-47.39-31.49-32.77-58.09,100.69-183.09-62.16-257.17-103.28-253.36-45.49,4.21-187.57,32.41-187.57,141,0,49.17,14.18,90.43,29.68,120.81,13.44,26.36-4.83,58.69-34.21,59.52l-262.47,7.41v270.35c0,30.55-30.18,53-58.44,43.27-40.44-14-97.81-27.19-158.54-19.71-115.48,14.23-144.51,178.08-76.87,257.89,49.72,58.66,141.27,9.91,210.24-27.92,28.55-15.66,61.86,4.27,61.86,36.39v327.47l15.59,15.6,902.5-73.73V2639.9C2010.9,2617.35,2034.92,2602.63,2052.56,2614.53Z" transform="translate(-467.5 -455)"/><path class="cls-3" d="M2029.73,1567.34c29.95-20.15,76.39-36.95,139.76-19.37,120.46,33.44,114,149.49,90.46,206.69-19.9,48.27-138,106.53-221.87,43.69-17.81-13.33-42.77,0-42.77,23.14v277.87l306.5-8.65c26.67-.75,44.21,28.47,32.32,54.18-13,28.07-25.5,66.28-29.21,113.66-8.55,109.42,81,157.4,169.81,148.32,76.52-7.82,171.33-130.34,89.05-255.64-16.1-24.52.86-59.19,29.11-60l257.91-7.36,15.6-313.13-15.6-15.59c-79.29,103.67-196.19,79-242-23.4-45.93-102.8-8.33-197.42,95.48-206.9,53.1-4.84,88.57,15.33,110.48,36,11.46,10.82,29.26,2.11,29.26-14.42V1281.11l-253.36-1.41c-28.11-.16-44.79-35.29-27.27-58.83,15.21-20.42,27.29-46.17,28.73-77.22,4.17-89.76-58.58-176.24-142.76-186.85-84.78-10.68-174.45,74-161.6,160.68,6.09,41,21.51,80.1,36,109.8,12.1,24.76-4.72,54.11-30.92,54l-304.19-1.65v264.2C1988.73,1566,2011.93,1579.3,2029.73,1567.34Z" transform="translate(-467.5 -455)"/><path class="cls-4" d="M2903.15,2596.59c20.25,16.23,53.62,31.3,106.73,28.58,108.41-5.55,192-171.85,64.36-245.46-129.08-74.41-207.84,27.1-207.84,27.1V2099.46l-257.92,7.37c-28.25.81-45.2,35.48-29.1,60,82.27,125.31-12.53,247.82-89.06,255.65-88.84,9.08-178.35-38.9-169.8-148.33,3.7-47.37,16.22-85.58,29.2-113.65,11.9-25.72-5.64-54.93-32.31-54.18l-306.5,8.64v272.93c0,20.83,20.93,34,38.52,23.71,25.39-14.81,63.54-28.67,115.11-25.6,103.49,6.16,162.28,94.2,124.83,169.14-72.22,144.51-167.36,111.36-221.22,75-17.63-11.9-41.65,2.81-41.65,25.36V2970L2875,2916.27V2613.16C2875,2597.34,2891.71,2587.42,2903.15,2596.59Z" transform="translate(-467.5 -455)"/><path class="cls-5" d="M2065.33,2926.75v-250.1c33.06,18.45,65.87,26.91,97.79,25.23,44.73-2.36,108.58-26.69,159.64-129,21.38-42.85,21.21-91.6-.45-133.89-27.83-54.33-85.37-89.33-154.18-93.54-9.07-.56-18.14-.67-27-.33-32.71,1.24-63.35,8.43-91.36,21.44V2154.67l264.51-7.9c-17.54,38.85-28.2,81-31.68,125.35-4.11,52.56,10,98.55,40.86,132.91,35.77,39.87,92.07,61.13,154.3,58.43,4.86-.21,9.79-.57,14.66-1.07,55-5.71,110.24-51,137.7-112.55,29.15-65.35,22.55-139.1-18-203.24l218-6.59v377.11l63.51-85.42c2.57-3.11,32.26-37.78,82.42-39.85,25.58-1,52.75,6.59,80.76,22.68,37.7,21.66,53,52.61,44.26,89.57-9.07,38.46-45.59,79.61-91.15,81.86-35.56,1.77-64.8-5.66-84.5-21.48a48,48,0,0,0-32.77-10.79c-29.67,1.42-53.87,28.93-53.87,61.3v264.09Z" transform="translate(-467.5 -455)"/><path class="cls-6" d="M2068.15,2630.13c53.86,36.36,149,69.51,221.22-75,37.45-74.94-21.34-163-124.83-169.14-51.57-3.07-89.72,10.79-115.11,25.6-17.59,10.26-38.52-2.88-38.52-23.71V2115l-290.14,8.19c-29.17.82-47.39-31.5-32.76-58.1,100.68-183.08-62.16-257.16-103.28-253.36-45.49,4.21-187.58,32.42-187.58,141,0,49.18,14.19,90.44,29.68,120.82,13.45,26.35-4.83,58.69-34.21,59.52l-262.46,7.41v270.35c0,30.55-30.18,53.05-58.45,43.26-40.44-14-97.81-27.19-158.53-19.71-115.48,14.23-144.52,178.08-76.88,257.89,49.72,58.67,141.28,9.91,210.25-27.91,28.55-15.66,61.85,4.27,61.85,36.39v327.47L2026.5,2970V2655.49C2026.5,2632.94,2050.52,2618.23,2068.15,2630.13Z" transform="translate(-467.5 -455)"/><path class="cls-5" d="M1150.22,2983.16V2698.57c0-47.5-38-84.36-84.92-82.16a86,86,0,0,0-37.43,10.66c-36.73,20.07-87.19,47.66-124.12,49.46-19.72,1-28.41-6-34.31-13C841.6,2630.6,835,2574,853.71,2529c8.91-21.38,27.07-47.79,63-52.27,6.67-.84,13.54-1.4,20.43-1.69,47.06-1.93,91,9.41,119.56,19.24a82.06,82.06,0,0,0,30.41,4.44c46.83-2,84.8-42.18,84.8-89.61V2181.5l220.72-6.6c28-.83,53.32-16.15,67.78-40.94a83.8,83.8,0,0,0,2.67-80.6c-16.62-32.63-25-66.81-25-101.57,0-81.87,142.19-97.9,149.44-98.65,12.11-.05,58.74,16.55,81.14,56.29,20,35.46,14.86,81.09-15.26,135.75-14.16,25.7-14.17,56,0,80.92s39.35,39.24,67.46,38.4l251.13-7.5v232.42c0,18.84,7.07,36.16,19.91,48.77A61.14,61.14,0,0,0,2037.6,2456a64.44,64.44,0,0,0,29.63-8.86c21.55-12.61,46.43-19.57,73.92-20.71,6.44-.26,13.11-.2,19.8.18,42.51,2.46,78.56,22.88,94.18,53.27,6.83,13.29,12.5,34,.74,57.53-26.78,53.49-58,81.54-92.75,83.25-27.63,1.36-54.94-12.91-73-25.15a60.12,60.12,0,0,0-36.82-10.36c-36.22,1.72-65.76,34.17-65.76,72.34v274.09Z" transform="translate(-467.5 -455)"/><path class="cls-7" d="M2045.32,1582.93c30-20.14,76.4-37,139.77-19.36,120.46,33.43,114,149.48,90.45,206.69-19.89,48.27-138,106.52-221.87,43.68-17.8-13.33-42.76,0-42.76,23.14V2115l306.5-8.64c26.67-.75,44.21,28.46,32.31,54.18-13,28.07-25.5,66.28-29.2,113.65-8.55,109.43,81,157.41,169.8,148.33,76.53-7.83,171.33-130.34,89.06-255.65-16.1-24.51.85-59.18,29.1-60l257.92-7.37V1770.74c-79.3,103.67-196.19,79-242-23.39-45.94-102.81-8.34-197.43,95.48-206.9,53.1-4.85,88.57,15.33,110.48,36,11.46,10.81,29.26,2.1,29.26-14.43V1296.7l-253.37-1.4c-28.1-.16-44.79-35.3-27.26-58.84,15.2-20.42,27.28-46.16,28.73-77.21,4.17-89.76-58.58-176.24-142.76-186.85-84.79-10.68-174.45,74.05-161.6,160.67,6.08,41,21.51,80.11,36,109.8,12.1,24.76-4.72,54.12-30.92,54l-304.18-1.65v264.2C2004.33,1581.57,2027.53,1594.9,2045.32,1582.93Z" transform="translate(-467.5 -455)"/><path class="cls-5" d="M2477.77,2383.27c-40.63,1.62-77.5-11.46-98.56-35-16.19-18.14-23.23-42.4-20.92-72.08,2.74-35.15,11.25-68.37,25.27-98.71,11.42-24.74,10.2-53.1-3.26-75.92s-37-36.28-62.89-35.59l-267.62,7.1V1859.67c27.3,15.29,58.42,23,91.2,22.35,72.35-1.36,148.17-44.46,169.38-96,17.63-42.84,27.06-109.28.66-167.55-14.6-32.23-46.55-74.74-116-94.15a230,230,0,0,0-62.49-8.81,191.67,191.67,0,0,0-89.3,21.9V1336.23l265.28,1c25.71.09,48.95-13.74,62.22-37a81,81,0,0,0,2.26-75.74c-16.6-34-27.71-67.67-32.09-97.26-4.62-31.17,12.3-57.5,22.78-70.4,23.11-28.44,57.2-45.74,88.93-45.19a82.46,82.46,0,0,1,8.66.6c62.74,7.8,112.71,74,109.42,144.59-.88,18.87-7.86,37.2-20.76,54.51-16.94,22.69-20.06,53.31-8.16,79.86,12.12,27,36.86,43.86,64.53,44l217,.84v187.24c-26.2-15.36-56.21-23.3-88.48-23.2-5.84,0-11.85.3-17.85.83-58.34,5.23-104.34,33.88-129.35,80.73-27.19,51-26,117.87,3.36,183.39,31.51,70.4,92.74,113.24,159.55,112,27.59-.53,54.52-8.5,79.52-23.15V2061l-221.6,6c-27,.73-51.62,17.41-64.21,43.56s-10.81,56.71,4.51,80c35.16,53.44,27.41,98.44,14.7,126.82-17.53,39.18-51.84,62.84-75.27,65.19C2484.74,2382.88,2481.23,2383.13,2477.77,2383.27Z" transform="translate(-467.5 -455)"/><path class="cls-3" d="M856.39,1797.54c16.79-17.38,38.23-35.21,64.48-48.92,145.31-75.91,186.83,124.92,132.86,229.11-27.61,53.3-79.54,56.17-124,46.07-32.68-7.42-61.18,23.83-50.76,56.38l85.5,267.18,247.72-87.06c27.73-9.74,35.28-46.11,14.44-67.11-24-24.22-50.1-59.19-65.09-106-33.08-103.39,93.64-173.56,135.69-191.44,38-16.15,215.67,4.77,175.58,209.83-5.82,29.79,21.38,55,48.92,45.34l273.83-96.22L1710.88,1790c-7.06-22.07,12.66-42.35,33.68-35.07,99,34.27,193.76-57.2,198-109.24,5-61.67-24.23-174.15-149.14-169.28-65.72,2.56-104.83,32.73-127.22,61-13.3,16.82-39.46,11.2-46.22-9.92l-80.52-251.63-285,89.51c-28.29,8.88-34.45,47-10.59,66,34.12,27.1,73.18,60.61,87.56,82.47,27.51,41.83,32.1,144.47-70.35,194.4-103.39,50.38-205.76,1.52-232.79-98a333,333,0,0,1-10.69-114.69c2.27-27.18-24-48.19-49.58-40.17l-261.18,82,77.77,243C794.64,1811.85,833.74,1821,856.39,1797.54Z" transform="translate(-467.5 -455)"/><path class="cls-8" d="M876,1807.64c16.78-17.38,38.22-35.21,64.48-48.92,145.31-75.91,186.83,124.92,132.86,229.11-27.62,53.3-79.54,56.17-124,46.07-32.68-7.42-61.18,23.83-50.76,56.39l85.5,267.17,247.72-87.06c27.73-9.74,35.28-46.11,14.44-67.11-24-24.21-50.1-59.19-65.09-106-33.09-103.39,93.64-173.56,135.68-191.44,38-16.15,215.68,4.77,175.59,209.83-5.82,29.79,21.38,55,48.91,45.34l273.84-96.22-84.7-264.65c-7.06-22.07,12.66-42.35,33.68-35.07,99.06,34.27,193.76-57.2,198-109.24,5-61.67-24.23-174.15-149.15-169.28-65.71,2.56-104.83,32.73-127.21,61-13.3,16.82-39.46,11.2-46.22-9.92L1559.05,1286l-285,89.51c-28.3,8.88-34.45,47-10.59,66,34.12,27.1,73.18,60.61,87.56,82.47,27.51,41.84,32.09,144.47-70.36,194.4-103.39,50.38-205.76,1.52-232.78-98a332.74,332.74,0,0,1-10.69-114.69c2.27-27.18-24-48.19-49.58-40.17l-261.19,82,77.78,243C814.25,1822,853.34,1831.11,876,1807.64Z" transform="translate(-467.5 -455)"/><path class="cls-5" d="M1010.6,2303.34l-72.47-226.46a2,2,0,0,1-.13-.61,1.9,1.9,0,0,1,1.06-1,2,2,0,0,1,1.16,0c35.59,8,67.61,7.32,95.17-2,31.95-10.87,57.58-33.6,74.16-65.69,40-77.34,35-190.41-9.55-253.75,1.21.71,2.43,1.41,3.67,2.09,48.63,27,106.63,31.57,163.22,12.86h0a251.65,251.65,0,0,0,31.33-12.83c68.72-33.63,94.42-85,103.9-122.14,11.71-45.81,4.55-97.77-18.24-132.45-5.2-7.91-20.77-31.6-91.34-88.25l241.74-76.37,68.17,213a69.63,69.63,0,0,0,34.44,41.21,62.94,62.94,0,0,0,79.13-17,118.26,118.26,0,0,1,57.06-39.67,157,157,0,0,1,42.42-7.29c34.55-1.4,61.3,8.12,79.58,28.28,23.36,25.77,31.38,66.84,29,96.15-1.15,14.07-30.83,57.57-80.79,74.41-23.26,7.84-46,8-67.55.54a62.59,62.59,0,0,0-40.85-.37c-34.35,11.52-53,50.41-41.35,86.65l72.35,226.07-233.81,81.72c20.88-112.54-17-175.56-52.68-208.8-56.15-52.25-136.26-58.58-172.82-46.32q-2.77.93-5.21,2c-77,32.61-198.15,120.94-159,243.3,14.47,45.25,39.2,86,73.46,121ZM845.55,1778.48a1.28,1.28,0,0,1-1.66-.85l-64.76-202.34,216.8-68.49A374.72,374.72,0,0,0,1008.36,1631a210.25,210.25,0,0,0,40.88,79.65c-28.24-12.93-61.21-14.26-95.71-3.09a211.2,211.2,0,0,0-32.13,13.61c-27,14.06-52.31,33.14-75.16,56.75A2.1,2.1,0,0,1,845.55,1778.48Z" transform="translate(-467.5 -455)"/><path class="cls-9" d="M757.37,3159.15c-14.63,14.77-20.56,30.62-15.25,39.9,3.68,6.42,11.8,8.1,20.7,9.81,14,2.69,28.7,2,58.82-6.54,28.11-7.94,44.64-12.6,44.65-19.36,0-6.32-14.44-11.23-27.13-15.54a158.52,158.52,0,0,0-44.48-8.27Z" transform="translate(-467.5 -455)"/><path class="cls-10" d="M1194.6,2919.68c-6.59,2.84-15,7.86-17.3,16.16-3.55,13.09,10.44,26.61,32.83,47.7,16.79,15.82,39.48,37.18,47.37,31.79,4.84-3.3,2-15.17-.68-26.22-3.2-13.3-10.28-33.88-27.81-56.43Z" transform="translate(-467.5 -455)"/><path class="cls-11" d="M789.48,3126.61,758,3161.53a6.52,6.52,0,0,0,3,10.65c6.9,1.93,16.51,3.49,25.34,1a12.15,12.15,0,0,0,5.09-3.13l31.43-30.69Z" transform="translate(-467.5 -455)"/><path class="cls-12" d="M1212.05,2898.59l-17,24.47a7.09,7.09,0,0,0,2.44,10.26,60.26,60.26,0,0,0,8.4,3.87,12.76,12.76,0,0,0,13.94-3.47l18.42-20.73Z" transform="translate(-467.5 -455)"/><path class="cls-13" d="M907.11,2386.11a593.87,593.87,0,0,1,47.4,143.28c5,25.61,28.19,154.55-21.73,309.93-46.46,144.61-132,236.66-177.57,279.34A120,120,0,0,0,828.38,3147c139-99.26,206.48-211.72,237.09-272.92,103.27-206.49,77.36-409.19,32.22-494.93-14.82-28.15-31.57-43.39-50.53-50.18C986.29,2307.25,915.71,2377.36,907.11,2386.11Z" transform="translate(-467.5 -455)"/><path class="cls-14" d="M1097.69,2379.19c-14.82-28.15-31.57-43.39-50.53-50.18-60.87-21.76-131.45,48.35-140.05,57.1A594.62,594.62,0,0,1,954,2526.88c42.53,10,101.94,33.72,130.89,89.77,46.84,90.68-20.5,199.37-34.47,221.92-30.76,49.63-49.38,45-94.8,116.34-34.31,53.9-36.93,77.37-66.79,103.42-35.12,30.63-79,39.61-114.36,41.56-7,7.06-13.42,13.33-19.23,18.77A120,120,0,0,0,828.38,3147c139-99.26,206.48-211.72,237.09-272.92C1168.74,2667.63,1142.83,2464.93,1097.69,2379.19Z" transform="translate(-467.5 -455)"/><path class="cls-15" d="M985.75,2378.57a240.54,240.54,0,0,0,42,60.33c54.58,56.91,105.62,51.53,163.44,98.41,7.12,5.77,58.34,48.24,77.25,110.2,36.41,119.27-69.39,236.88-81.11,249.55a127.16,127.16,0,0,0,64.5,32c151.69-138.6,225.81-306.56,175.34-415.7-27.54-59.54-92.72-102.82-140.87-134.79a628.2,628.2,0,0,0-202.76-87.6Z" transform="translate(-467.5 -455)"/><path class="cls-16" d="M1076.24,2062.21c2.29,67.07-13.26,101.85,8.52,156.59,15.64,39.33,41.57,66.37,61.25,83.17a263,263,0,0,1-88.21,97.89c-61.53,40.48-122.72,43.19-146.74,43C860.16,2416.66,783,2367.3,721,2279.41c-42-59.58-88.12-125-75.92-208.39,15.5-105.94,113.67-162.53,141.5-178.58,18.32-10.56,144.83-83.5,222.16-29.89C1070.91,1905.66,1074.53,2012,1076.24,2062.21Z" transform="translate(-467.5 -455)"/><path class="cls-17" d="M1499.07,2138.34c2-10.84,9.79-18.7,14.21-23.17,5.14-5.19,6.19-4.37,9.54-8.61,8.44-10.69,6.4-21.72,9.65-22.09,2.82-.32,7.78,7.63,7.44,15.84-.38,9.19-7.09,11.93-5.82,17,1.77,7.16,17.69,12.36,31.78,9.69,16.33-3.09,24.31-16.26,30.7-12.92,4.64,2.42,4.34,11.09,4.31,11.85-.72,16.26-22.44,33.32-43.63,35.55-12.2,1.28-16.77-3.14-31.24.54-9.6,2.43-13,5.74-17.78,3.77C1500.34,2162.57,1497.14,2148.69,1499.07,2138.34Z" transform="translate(-467.5 -455)"/><path class="cls-18" d="M1501.41,2132.59c-130.63,9-208.64-24.93-255.68-57.46-106.69-73.78-127.62-191.08-251.36-222.63-22.57-5.76-61.87-15.78-83.31,4.31-44.56,41.73,8,194.69,100.55,288.71,20.43,20.76,94.08,93.38,215.62,109.78,155.78,21,267.53-66.9,286.8-82.59a24.65,24.65,0,0,0,4.8-25C1514.37,2135.87,1502.39,2132.82,1501.41,2132.59Z" transform="translate(-467.5 -455)"/><path class="cls-19" d="M855,2338c-36.78-34.84-19.37-56.43-64.64-126.4-46.11-71.28-79.3-72.6-100.54-120.65-11-24.86-17.77-60.57-5.66-111.85-18.63,25.1-33.8,55.54-39.13,91.93-12.2,83.39,33.92,148.81,75.92,208.39,62,87.89,139.17,137.25,190.07,163.44,24,.2,85.21-2.51,146.74-43a259.5,259.5,0,0,0,54.37-47.94,242.47,242.47,0,0,1-66.09,24.85C1033.81,2379.42,922.45,2401.84,855,2338Z" transform="translate(-467.5 -455)"/><path class="cls-20" d="M821.31,1819.89l-10.65,35.95a57.71,57.71,0,0,1-19.75,29.05L762.67,1907s86.12-14.46,127.31-54.59l-25.15-7.93a6.37,6.37,0,0,1-4.44-6.06V1812Z" transform="translate(-467.5 -455)"/><path class="cls-21" d="M852.26,1838.05c4.1-.91,33.83,4,42.28-10.33,11.48-19.4.06-50.39-1.09-55.18-4.83-20-6.62-23.09-10.34-27.33l-5.26-5.57-.68-.48c-3.66-2.51-17.32-6.6-20.27-6.75-9.42-.47-28.59,33.31-39.57,85.37-.89,1.86-1.77,3.73-2.64,5.63C812.41,1828.34,852,1840,852.26,1838.05Z" transform="translate(-467.5 -455)"/><path class="cls-3" d="M900.21,1730c-4.3,15.89-16.32,30.88-20.86,32.59a27.25,27.25,0,0,0-7.44,4.75,8.2,8.2,0,0,0-1.41,1.64c-6.16,9.1,6.64,25.14,2.36,28.81-3.09,2.66-12.77-4.58-14.8-2.11-1.92,2.32,5.62,10.2,3.4,13-1.68,2.11-6.64-1.55-11.11,1.18-2.23,1.36-2.1,2.94-5.43,8a52.69,52.69,0,0,1-5.91,7.56c-8,7.88-24.46,7.14-26.46,2.6-.56-1.26.39-2,.47-5.67a29.06,29.06,0,0,0-1.18-7.79c-1.8-6.21-8.55-12.11-14.89-19.85-11.73-14.33-13.31-24.3-13.69-27.63-.13-1.19-.18-2.07-.21-2.7-.65-12.73,3.92-30,12-39.14,13.56-15.39,31.23-1.65,52.22-14.89,24.22-15.26,20.4-46,31.43-46.31C890.86,1663.69,908.14,1700.6,900.21,1730Z" transform="translate(-467.5 -455)"/><path class="cls-22" d="M868.14,1792.52c-2.47-6.4-10.66-3.19-12.55,3.73s2.91,15.91,9.79,16.28S871.47,1801.12,868.14,1792.52Z" transform="translate(-467.5 -455)"/><path class="cls-23" d="M2532.29,3088.52s2.42,19.26.8,25.71-57.62,11.12-76.63,8.87,11.32-21.66,23.43-25.3S2532.29,3088.52,2532.29,3088.52Z" transform="translate(-467.5 -455)"/><path class="cls-24" d="M2504.11,3056.39,2510,3095s15,6.77,22.28.08l.8-40.44Z" transform="translate(-467.5 -455)"/><path class="cls-25" d="M2819.77,3054.67s-11.88,8.81-8.71,19.37,30.89,52.87,50.65,64.88,13.56-13,7.81-28.59-20.44-49.91-26.17-55.66S2819.77,3054.67,2819.77,3054.67Z" transform="translate(-467.5 -455)"/><path class="cls-26" d="M2798.4,3012.22c5.74,16,11.27,29.17,15.59,38.87,9.56,21.48,14.78,29.54,20.7,36.53,5.16,6.08,17.38,19.07,20.66,16.91s-5.6-18-22.83-64.22c-2.5-6.71-10.4-28.09-10.4-28.09H2798.4Z" transform="translate(-467.5 -455)"/><path class="cls-27" d="M2386.84,2343.26a1000,1000,0,0,0-2.15,178.5c7.66,98.76,27.41,161.25,52.17,266.55,15.14,64.35,35.53,159.07,54,277.52a52.07,52.07,0,0,0,33.1,6.49,50.35,50.35,0,0,0,19.88-7.55c48.42-148,34.12-239.65,10.75-296.78-10-24.35-22-43.56-28.49-81-8.54-49.52,2-77.21,17.08-191.92,10.74-81.76,8.88-94.4,1.73-106.66C2516.35,2339.4,2429,2340.36,2386.84,2343.26Z" transform="translate(-467.5 -455)"/><path class="cls-28" d="M2085.71,1929.23s-6.8-26.66-18.11-33.7-27.29-14.55-30.95-17.64-8,6.15,2.61,13.21l10.55,7.07a10.43,10.43,0,0,1-.43,4.54c-1.67,5-7.37,8.43-14.42,9.08-27.08,5.67-37.66,6-41.8,4.74-.61-.18-3-.94-4,.11-1.59,1.67,1.27,7,2.5,8.86,7.32,11.19,32.76,16,51.8,7.3,6.95-3.19,9.61-6.62,14.69-5.76,8.06,1.36,13,12,15.94,20.8Z" transform="translate(-467.5 -455)"/><path class="cls-29" d="M2553.51,2360.47c29.66,153.18,58.77,233.64,80.8,279.15A762.48,762.48,0,0,1,2675,2739c15.17,45.95,21.5,79.75,24.73,94.63,10.23,46.95,35.5,115.51,103.51,205.44.85.5,12.45,7.06,23.53,1.21a22.69,22.69,0,0,0,9.52-9.88c-8.89-86-19.09-158.22-28-214-1.86-11.7-10-62.86-22.89-130.46-5-26.45-12.38-65.21-21.2-105-11-49.57-27.82-117-53.76-197.84Z" transform="translate(-467.5 -455)"/><path class="cls-30" d="M2063.87,1937.68l23.13-20.57c2.82,2.86,44,43,101.53,30.85,39.63-8.38,62.48-40.92,77.12-61.69,44-62.38,17.67-108.16,65-150.55,13.15-11.77,38.94-26,55.8-21.67,40.18,10.35,63.3,131.17,24.42,226.2-7.85,19.18-51.06,124.79-149.09,136.23C2182.64,2085.72,2098.72,2030,2063.87,1937.68Z" transform="translate(-467.5 -455)"/><path class="cls-31" d="M2528.24,1754.55c-16.82-15.55-49-33.48-65.15-75.15-4.86-12.54-22.07-57,3.32-91,15.07-20.18,43.07-33.89,67.74-29,21.09,4.15,24.39,18.84,60.22,48.39,13.94,11.51,36.36,30,61.31,40.28,42.75,17.62,68.43,1,111.34,2.93,52.72,2.32,114,31.75,143.48,74.53,52.37,75.94-23.5,153,33.87,241.94,18.8,29.15,28.06,22.61,72.58,79s66.87,84.74,62.9,119.36c-5.5,48-57.25,93.93-106,97-47.6,3.05-77.86-34.4-102.09-18-17.25,11.66-7.39,34.33-25.71,61.58-23.61,35.13-70,42.13-77.52,43.26-69.57,10.5-163.38-71.09-203.23-167.74C2493.49,2007.67,2619.69,1839.09,2528.24,1754.55Z" transform="translate(-467.5 -455)"/><path class="cls-32" d="M2554.58,2768c-10-24.35-22-43.56-28.49-81-8.54-49.52,2-77.21,17.08-191.92,10.74-81.76,8.88-94.4,1.73-106.66-15.51-26.64-48.39-38.46-82-43.29.45,1.72.9,3.44,1.27,5.11,17.6,80.4-49.59,129.46-19.28,217.85,14.94,43.57,38.79,53.55,44.34,104.1,5.2,47.35-13.67,57.21-9.64,100.25,6,64.33,51.73,79.9,63.62,129.17,7.73,32,1.22,78.82-55.22,146.57.94,5.84,1.88,11.69,2.81,17.65a52.07,52.07,0,0,0,33.1,6.49,50.35,50.35,0,0,0,19.88-7.55C2592.25,2916.81,2578,2825.12,2554.58,2768Z" transform="translate(-467.5 -455)"/><path class="cls-2" d="M2377.47,1829.72c-72.45,57.22-64.39,167-108.93,172.54-13.6,1.7-12.85-8.73-45.3-19.28-47.46-15.43-69.76.16-103.14-11.56-13.83-4.86-31.82-15.23-49.53-39.7l-6.7,6c34.85,92.28,118.77,148,197.92,138.8,98-11.44,141.24-117,149.09-136.23,18.25-44.59,22.84-94.86,18.42-136.73A151,151,0,0,0,2377.47,1829.72Z" transform="translate(-467.5 -455)"/><path class="cls-30" d="M2324.91,1743c4.44-6.89,18.55-26,78.45-40.08,30-7.06,85.53-19.15,156.95-4,98.1,20.79,159.2,79.65,182.2,104.4-18.83,12.26-70.8,49.67-96.53,120.64-8,22.09-31.66,97.58,2.17,168.29,19.49,40.74,54,71.33,80.16,94.57,39.28,34.84,59.62,40.2,72.79,71.42,14.34,34-.11,50.57,17.7,73.85,19.13,25,41.54,13.37,73.95,38.65,33.21,25.89,21.4,47.2,51.62,75.81,43.91,41.57,102.13,28.07,104.84,46.77,2.33,16.09-39,37.92-74.2,46.78-69.61,17.53-130.33-11.9-148.38-21-50-25.12-41.36-41.37-79.47-60.52-63.82-32.06-107.44,3.62-252.79,7.29-78.72,2-118.52,2.44-140.33-24.19-19.91-24.33-9.44-51,2.51-166h0c3.84-38.41,11.88-118.81,11.93-164.64,0-27.08-9.36-71.32-28.15-159.82-1.11-5.22-11.27-53-19.48-116.89C2313.45,1776.77,2314.52,1759.11,2324.91,1743Z" transform="translate(-467.5 -455)"/><path class="cls-2" d="M2944.37,2446.49c-30.22-28.61-18.41-49.92-51.62-75.81-32.41-25.28-54.82-13.66-73.95-38.65-17.81-23.28-3.36-39.85-17.7-73.85-13.17-31.22-33.51-36.58-72.79-71.42-26.19-23.24-60.67-53.83-80.16-94.57-33.83-70.71-10.18-146.2-2.17-168.29,25.73-71,77.7-108.38,96.53-120.64-1.82-2-4-4.18-6.24-6.53-124.06,17-196.4,88.74-205.34,110-20.68,49.06,12.05,67.09,12.9,208.6.4,67.64-6.89,94.35,15.05,122.59,25.1,32.28,54,22.29,90.32,64.51,27.89,32.44,23.43,53,49.47,66.67,28,14.69,45.84-2.44,77.42,4.3,52.76,11.25,64,72.09,98.92,105.37,26.38,25.17,75.15,42.77,171.33,23.88,2.22-3.24,3.3-6.4,2.87-9.36C3046.5,2474.56,2988.28,2488.06,2944.37,2446.49Z" transform="translate(-467.5 -455)"/><path class="cls-30" d="M2568.56,1944.87c-13.19,28,47.41,93.23,114.77,124.21,13.72,6.31,112.28,51.62,156.2,8.05,36.29-36,12.87-110.46,4.51-137-41.07-130.52-167.17-196.92-220-220.86-39.44,98.62-16.22,142.56-7.07,156.28,9.55,14.34,36.2,44.45,64.51,71,19.92,18.66,32.32,27.74,30.65,30.65-2.08,3.62-25.42-3.22-116.08-47.35C2585.52,1931.48,2573.07,1935.31,2568.56,1944.87Z" transform="translate(-467.5 -455)"/><path class="cls-33" d="M2520.05,1622.17s6.25,50,24.71,61.48,48.31,26.43,51.6,30.49-114.37,16.71-172.67-12.71h0c19.21-4,24.44-5.48,24.44-5.48,5.21-1.48,14.94-4.22,24.69-9.78a83.91,83.91,0,0,0,27.15-25.1l-.21-27.7Z" transform="translate(-467.5 -455)"/><path class="cls-34" d="M2522.85,1639.89s-12,16.52-30.91,9.64c-16.9-6.17-6.81-49.82,6.59-54.8,4.48-1.66,12.69-.93,18.18,2.5,3.86,2.4,14.17,15.21,8.26,29.56,4.27-1.23,8-.11,9,2,1.19,2.69-2.43,6.34-3.24,7.17A14.31,14.31,0,0,1,2522.85,1639.89Z" transform="translate(-467.5 -455)"/><path class="cls-35" d="M2591.46,1938.32s-55.27-56.55-77.76-64.9-9,3.85,0,10.92,15,9.39,10.39,20.12-13,20.25.21,28.66,18.32,11.63,28.6,12.91l10.28,1.29,13.5,7.19S2594,1952.46,2591.46,1938.32Z" transform="translate(-467.5 -455)"/><path class="cls-36" d="M2959.37,1106.14c-154.65-21.36-303.18,67.75-327.17,199.65-8.26,45.36-.44,89.4,19.88,128.17l-42.81,77.5c-4.06,7.34.64,15.69,8.37,14.89,26.16-2.72,75.37-7.74,106.74-10.5,41,29.53,92.68,49.14,150.57,54.31,151.16,13.48,288.66-76.88,311.32-201.45S3109.22,1126.84,2959.37,1106.14Z" transform="translate(-467.5 -455)"/><polygon class="cls-30" points="2331.13 1017.33 2281.99 1018.49 2281.99 937.65 2331.13 937.2 2331.13 1017.33"/><polygon class="cls-30" points="2411.17 1015.46 2363.42 1016.58 2363.42 910.66 2411.17 910.44 2411.17 1015.46"/><polygon class="cls-30" points="2488.97 1013.63 2442.55 1014.72 2442.55 875.91 2488.97 875.99 2488.97 1013.63"/><polygon class="cls-30" points="2564.63 1011.86 2519.48 1012.92 2519.48 830.97 2564.63 831.41 2564.63 1011.86"/><path class="cls-30" d="M2749.49,1323.76a9.3,9.3,0,0,1-3.33-.65,8,8,0,0,1-4.57-10.68c2.11-4.73,7.2-5.31,9.93-5.62,2.07-.23,4.88-.45,8.42-.71,115.21-8.71,196-51.72,243-127.12a7.71,7.71,0,0,1,10.72-2.28,7.85,7.85,0,0,1,2.61,10.72c-31.68,51-78.26,88.4-139.16,111.12-49.68,18.55-95.81,22.17-115.75,23.73-3.31.26-6.72.53-8.3.74A9,9,0,0,1,2749.49,1323.76Zm7.83-4.83Zm0,0Zm0,0h0Zm0,0h0Zm0,0h0Zm0,0h0Zm0,0v0Z" transform="translate(-467.5 -455)"/><path class="cls-30" d="M3017.16,1224.29a8,8,0,0,1-7.77-7.42l-2.22-34-32.7,20.8a8.09,8.09,0,0,1-11-2.42,7.67,7.67,0,0,1,2.18-10.8l55.29-35,4,60.77a7.54,7.54,0,0,1-7.25,8.06Z" transform="translate(-467.5 -455)"/><path class="cls-37" d="M1838.1,3094.16c-35.6-15.21-79-41.12-114-85.6-37.91-48.13-79.23-134.72-48.87-170.3,11.34-13.29,33.53-20.47,48.71-14,22.44,9.61,14.35,42.55,42.67,90.87,5.23,8.93,32.3,55.1,55.09,50.28,11.34-2.39,19.33-16.91,21.75-29.18,7-35.87-33.12-55.26-60.93-106-28.2-51.47-40.14-128.71-5.7-166.63,19.8-21.78,56.2-32,73.76-19.78,7.5,5.22,10.48,13.8,17.38,76.86,5.66,51.76,5.88,66.37,17.81,75.11,12.29,9,35.52,10.71,48.21-.1,33-28.18-40.91-111.09-16-212.67,11.17-45.52,45.23-107.1,90-107.67,30.3-.39,64,27.12,69.61,56.68,5,26.65-15.92,38.37-23.26,91.95-2.23,16.26-6.82,49.72,5.28,55.62,14.2,6.94,44.3-27.56,51.43-36,53.65-63.78,33.21-112.73,72.48-139.24,30.62-20.67,80.64-16.28,112.55,10.1,27.93,23.09,42.82,63.7,33.38,97.42-9.61,34.31-49.26,58.34-128.58,106.39-37.61,22.78-66.25,37.09-75.69,69.15-4.59,15.62-5.78,39.38,4.6,45.08,22.92,12.58,68-81.58,130.87-77.3,32.2,2.2,63.83,29.82,71,61.93,8.79,39.33-20,81.18-53.11,97.16-43.14,20.86-68.28-14.48-140.82-.9-32.17,6-85.57,23.91-88.3,52.64-1.19,12.51,7.14,27.95,20,34,28.76,13.45,55.12-32.22,110.44-37.59,39.85-3.86,87.18,13.93,92,37.29,6.78,33-71.32,76.38-111,93.84C2113,3114.62,2005.23,3148.93,1838.1,3094.16Z" transform="translate(-467.5 -455)"/><path class="cls-38" d="M1859.81,3084c22.75-83.58,133.2-232.24,199.25-297.87,64.63-64.21,142.71-173.93,143.49-175l2.16,1.54c-.78,1.1-79,111-143.78,175.38-65.84,65.43-175.93,213.53-198.56,296.69Z" transform="translate(-467.5 -455)"/><path class="cls-39" d="M1862.53,3106.18c-54.38-17.11-143.49-54.71-217.35-138.9-30.44-34.7-89.88-102.46-92.25-197.46-1.18-47.36,11.16-127.91,52.48-138.21,26.58-6.63,63.29,16.3,75.95,45.14,12.76,29.08-6.47,47,2.15,106.12,3.19,21.86,7.2,47.33,22.31,52.11,12.63,4,30.79-7.13,39.67-21.82,18.34-30.35-14.37-57-3.48-101.73,7.74-31.84,35.6-64.9,60.38-62.08,21.52,2.44,40.07,31.85,42.73,58.7,4.27,43-34.29,58.27-31,106.29,1.47,21.3,11.1,47.94,25.64,50.46,16.55,2.87,37.45-25.93,46.81-49.78,12.36-31.49,1.86-47.31,15.6-60.55,15.33-14.77,48.52-14.46,65.15.89,23.29,21.5,12.78,71.31-2.73,101.13-19.86,38.18-49.49,46.63-49.37,78.42,0,11.67,4.11,27.74,14.23,31.76,14.44,5.75,35.36-15.34,49.24-29.35,33.8-34.07,34-55.69,52.6-59.17,18.86-3.53,43.1,14.07,49.15,34.6,3.36,11.41,3.74,32.69-39.14,78.24C2011.3,3022.87,1956.45,3070.51,1862.53,3106.18Z" transform="translate(-467.5 -455)"/><path class="cls-40" d="M1638.87,660.52c0-23.44-19.15-43.27-42.76-44.29L983.55,589.58c-26.55-1.15-48.67,18.18-48.67,43.2v488.94c0,25,22,45.11,48.6,44.9l14.34-.16.68-1.07,597.17-11.81c23.61-.19,43.2-11.36,43.2-34.8Zm-535.8,39.77c-22.81-.78-41.37-19-41.37-40.73s18.56-38.57,41.37-37.63,41.07,19.16,41.07,40.72S1125.79,701.06,1103.07,700.29Zm195.25,6.63c-22-.75-39.92-18.65-39.92-40s17.91-37.89,39.92-37,39.64,18.8,39.64,40S1320.25,707.67,1298.32,706.92Zm188.47,6.41c-21.25-.73-38.54-18.31-38.54-39.27s17.29-37.24,38.54-36.37,38.27,18.44,38.27,39.26S1508,714.05,1486.79,713.33Z" transform="translate(-467.5 -455)"/><path class="cls-41" d="M1651.67,745.38V660.52a43.94,43.94,0,0,0-42.15-43.73L999.11,590.23a48.19,48.19,0,0,0-29.75,8.16c-11.19,7.79-18.48,20.1-18.48,34.51V745.38ZM1500.32,638.25c21.12.86,38.19,18.41,38.19,39.21s-17.07,37-38.19,36.32-38.45-18.27-38.45-39.2S1479.13,637.38,1500.32,638.25Zm-188-7.72c21.86.89,39.54,18.76,39.54,39.93s-17.68,37.68-39.54,36.94-39.83-18.62-39.83-39.92S1290.39,629.62,1312.34,630.53Zm-194.74-8c22.65.93,41,19.12,41,40.67s-18.32,38.35-41,37.58-41.28-19-41.28-40.66S1094.85,621.59,1117.6,622.53Z" transform="translate(-467.5 -455)"/><path class="cls-30" d="M950.88,719.83v401.76c0,25,20.78,45.09,47.25,44.87l611.05-5a42.79,42.79,0,0,0,42.49-42.72V742Z" transform="translate(-467.5 -455)"/><path class="cls-42" d="M1405.27,800.14a10.06,10.06,0,0,0-9.78-10.34L1335,788.23c-5.77-.15-13,4.24-13,9.85V854.7c0,5.61,7.47,10.3,13.25,10.41l58.78,1.13c5.7.11,11.17-4.32,11.17-9.89Z" transform="translate(-467.5 -455)"/><path class="cls-42" d="M1510.87,802.84a10.52,10.52,0,0,0-10.29-10.25L1444,791.12a9.63,9.63,0,0,0-10,9.82V857a10.07,10.07,0,0,0,9.9,10.23l56.79,1.09a9.83,9.83,0,0,0,10.11-9.81Z" transform="translate(-467.5 -455)"/><path class="cls-42" d="M1616.47,805.55c0-5.46-4.87-10-10.35-10.15l-56-1.51c-5.55-.14-10.4,4.17-10.4,9.66v55.51a10.4,10.4,0,0,0,10.19,10.19l56.19,1.1c5.48.11,10.42-4.22,10.42-9.68Z" transform="translate(-467.5 -455)"/><path class="cls-42" d="M1405.27,903a9.94,9.94,0,0,0-9.78-10.24l-60.45-1c-5.77-.09-13,4.34-13,9.95v56.62c0,5.61,7.47,10.25,13.25,10.31l58.78.57c5.7.06,11.17-4.4,11.17-10Z" transform="translate(-467.5 -455)"/><path class="cls-43" d="M1510.87,904.67a10.41,10.41,0,0,0-10.29-10.16l-56.54-.94a9.74,9.74,0,0,0-10,9.91v56.07a10,10,0,0,0,9.9,10.14l56.79.55a9.94,9.94,0,0,0,10.11-9.9Z" transform="translate(-467.5 -455)"/><path class="cls-42" d="M1616.47,906.37c0-5.46-4.87-10-10.35-10.06l-56-1c-5.55-.09-10.4,4.26-10.4,9.76v55.5a10.27,10.27,0,0,0,10.19,10.09l56.19.58c5.48,0,10.42-4.31,10.42-9.77Z" transform="translate(-467.5 -455)"/><path class="cls-42" d="M1075.67,897.74c0-5.74-5.33-10.51-11.39-10.61L1003.15,886a10.18,10.18,0,0,0-10.67,10.25v58.38a10.38,10.38,0,0,0,10.45,10.61l61.68.65c6.06.06,11.06-4.51,11.06-10.25Z" transform="translate(-467.5 -455)"/><path class="cls-42" d="M1187.67,899.46A10.31,10.31,0,0,0,1177.4,889l-61.18-1c-6-.1-11.75,4.44-11.75,10.16v57.79c0,5.72,6,10.43,12,10.49l60.39.59a10.46,10.46,0,0,0,10.82-10.18Z" transform="translate(-467.5 -455)"/><path class="cls-42" d="M1296.47,901.33a10.36,10.36,0,0,0-10.24-10.41l-60.71-1.06c-5.89-.1-12.25,4.36-12.25,10V957.1c0,5.66,6.51,10.34,12.4,10.39l59.7.65c5.82.05,11.1-4.4,11.1-10Z" transform="translate(-467.5 -455)"/><path class="cls-42" d="M1405.27,1005.78a9.81,9.81,0,0,0-9.78-10.14l-60.45-.47c-5.77,0-13,4.44-13,10.05v56.62c0,5.61,7.47,10.2,13.25,10.2l58.78,0c5.7,0,11.17-4.5,11.17-10.07Z" transform="translate(-467.5 -455)"/><path class="cls-42" d="M1510.87,1006.49a10.29,10.29,0,0,0-10.29-10.06L1444,996a9.85,9.85,0,0,0-10,10v56.07a9.85,9.85,0,0,0,9.9,10h56.79a10,10,0,0,0,10.11-10Z" transform="translate(-467.5 -455)"/><path class="cls-42" d="M1075.67,1003.72c0-5.74-5.33-10.46-11.39-10.5l-61.13-.5a10.3,10.3,0,0,0-10.67,10.36v58.38a10.26,10.26,0,0,0,10.45,10.5l61.68,0c6.06,0,11.06-4.61,11.06-10.35Z" transform="translate(-467.5 -455)"/><path class="cls-42" d="M1187.67,1004.37A10.19,10.19,0,0,0,1177.4,994l-61.18-.47c-6,0-11.75,4.55-11.75,10.27v57.78c0,5.73,6,10.39,12,10.39l60.39,0a10.58,10.58,0,0,0,10.82-10.29Z" transform="translate(-467.5 -455)"/><path class="cls-42" d="M1296.47,1005.19a10.25,10.25,0,0,0-10.24-10.31l-60.71-.49c-5.89,0-12.25,4.47-12.25,10.13v57.21c0,5.67,6.51,10.29,12.4,10.29l59.7.08c5.82,0,11.1-4.5,11.1-10.12Z" transform="translate(-467.5 -455)"/><path class="cls-42" d="M1113.77,517.43c-38.27-1.94-69.94,29.21-73,74.63l32.32,1.41c2.64-27.14,20.22-47.22,40.68-46.24,22.11,1,40.72,26.75,40.72,56.26s-18.61,53.66-40.72,52.82c-11.52-.44-22.12-7.64-29.66-18.59-4.38,6-11.92,19.89-4.78,37.09a66.86,66.86,0,0,0,34.44,11.25c40,1.41,72.3-35,72.3-81.21S1153.75,519.45,1113.77,517.43Z" transform="translate(-467.5 -455)"/><path class="cls-42" d="M1308.31,527.17c-36.94-1.87-67.51,28.76-70.46,73.38l31.19,1.36c2.55-26.66,19.52-46.41,39.27-45.46,21.35,1,39.32,26.25,39.32,55.24s-18,52.75-39.32,51.94c-11.12-.43-21.35-7.49-28.64-18.25-4.22,5.93-11.5,19.55-4.61,36.44a63.69,63.69,0,0,0,33.25,11c38.6,1.37,69.81-34.39,69.81-79.84S1346.91,529.12,1308.31,527.17Z" transform="translate(-467.5 -455)"/><path class="cls-42" d="M1496.76,536.8c-35.66-1.8-65.15,28.32-68,72.15l30.11,1.31c2.46-26.19,18.83-45.61,37.9-44.69,20.6,1,38,25.76,38,54.24s-17.35,51.84-38,51.05c-10.73-.41-20.61-7.34-27.64-17.9-4.08,5.82-11.1,19.21-4.45,35.8a60.7,60.7,0,0,0,32.09,10.82c37.26,1.31,67.38-33.84,67.38-78.5S1534,538.68,1496.76,536.8Z" transform="translate(-467.5 -455)"/><path class="cls-44" d="M1651.67,1103.38v15.41a42.52,42.52,0,0,1-42.15,42.73l-611,4.94c-26.46.22-47.61-19.9-47.61-44.86V632.9a42.06,42.06,0,0,1,18.29-34.76c24.3,8.74,55.6,33.13,71.63,99.25,28.26,116.5,52.58,166.26,161.56,163.78,69.66-1.58,123.08,1.62,156.37,32.32,17.87,16.46,30,40.91,35.8,76.87,3.38,21,18.49,34.47,40.06,44.31,21.12,9.66,48.58,15.89,77.14,22.6C1564.17,1049.56,1622.87,1063.5,1651.67,1103.38Z" transform="translate(-467.5 -455)"/><path class="cls-42" d="M2178.7,1165.11a8.14,8.14,0,0,1-6.79-4.43L2031,903.26H1710.78c-4.27,0-7.73-2.57-7.73-6.84s3.46-6.84,7.73-6.84h324.83c2.83,0,5.42,1.06,6.78,3.54l143.08,260.78a7.49,7.49,0,0,1-6.77,11.21Z" transform="translate(-467.5 -455)"/></g></g></svg>