<svg id="Layer_1" data-name="Layer 1" xmlns="http://www.w3.org/2000/svg" viewBox="0 0 329.27 320.7"><defs><style>.cls-1{fill:#2cce6d;}</style></defs><title>target-icon</title><path class="cls-1" d="M735.59,732.19A129.5,129.5,0,0,0,830.93,515l24.39-24.39a5.36,5.36,0,0,0,3.82,2.27l51,5.61q.3,0,.6,0a5.44,5.44,0,0,0,.59-10.84l-47.86-5.24,14-14.05a5.1,5.1,0,0,0,.7.16l51,5.6.59,0a5.44,5.44,0,0,0,.59-10.84l-43.13-4.74,26.2-26.19a5.44,5.44,0,0,0-7.69-7.7L879,451.56,864.8,415a5.43,5.43,0,0,0-10.13,3.93l15.72,40.6a4,4,0,0,0,.23.41l-11.57,11.57-14.2-37.83a5.44,5.44,0,1,0-10.18,3.82l15.72,41.87a4.35,4.35,0,0,0,.29.52l-27.44,27.43A129.06,129.06,0,0,0,735.59,473C664.15,473,606,531.17,606,602.61S664.15,732.19,735.59,732.19Zm0-248.27a118.27,118.27,0,0,1,80,31l-25.65,25.66a82.49,82.49,0,1,0,7.69,7.68l25.65-25.64a118.65,118.65,0,1,1-87.66-38.74Zm-3.84,122.53a5.42,5.42,0,0,0,7.69,0l16.75-16.73A24.38,24.38,0,1,1,748.5,582l-16.75,16.74A5.43,5.43,0,0,0,731.75,606.45Zm24.55-32.23A35.31,35.31,0,1,0,764,581.9l25.9-25.9a71.68,71.68,0,1,1-7.68-7.68Z" transform="translate(-606.03 -411.49)"/></svg>