<svg xmlns="http://www.w3.org/2000/svg" viewBox="0 0 1681.19 1038.26"><defs><style>.cls-1{isolation:isolate;}.cls-2{fill:#d1bb93;}.cls-3{fill:#fbe7c4;}.cls-4{fill:#abc3a6;}.cls-5{fill:#8ca885;}.cls-6{fill:#574040;}.cls-7{fill:#fffaf0;}.cls-8{fill:#705353;}.cls-9{fill:#ffe9ca;}.cls-10{fill:#db573d;}.cls-11,.cls-33{mix-blend-mode:screen;}.cls-12,.cls-33{fill:#616161;}.cls-12,.cls-24,.cls-30,.cls-31{mix-blend-mode:multiply;}.cls-13{fill:#e6bf8a;}.cls-14{fill:#ffcd87;}.cls-15{fill:#f59a73;}.cls-16{fill:#fdd19d;}.cls-17{fill:#805f5f;}.cls-18{fill:#b0aba3;}.cls-19{fill:#63605c;}.cls-20{fill:#827e78;}.cls-21{fill:#c9c3ba;}.cls-22{fill:#aba69e;}.cls-23{fill:#e3dcd2;}.cls-24{fill:#dbdbdb;}.cls-25{fill:#f57954;}.cls-26{fill:#2b1710;}.cls-27{fill:#ff8762;}.cls-28{fill:#4d4469;}.cls-29{fill:#d13b3b;}.cls-30{fill:#e0b3a8;}.cls-31{fill:#d9d9d9;}.cls-32{fill:#fff;}.cls-34{fill:#c0e1f0;}</style></defs><title>voiceover</title><g class="cls-1"><g id="Layer_1" data-name="Layer 1"><path class="cls-2" d="M2380,747.92c-.5.69-1,1.37-1.52,2.05a1.11,1.11,0,0,1-1.56.21,1.14,1.14,0,0,1-.21-1.56,102.69,102.69,0,0,0,7.29-11,1.12,1.12,0,0,1,1.52-.41,1.1,1.1,0,0,1,.41,1.52A104.1,104.1,0,0,1,2380,747.92ZM2369.73,760l-.11.13a101.85,101.85,0,0,1-10.09,8.94,1.12,1.12,0,1,1-1.37-1.76,99.88,99.88,0,0,0,9.88-8.74,1.11,1.11,0,0,1,1.69,1.43Zm22-33.18a1.11,1.11,0,0,1-1.93-1.07,98.75,98.75,0,0,0,4.19-12.51,1.11,1.11,0,0,1,2.15.57,103.05,103.05,0,0,1-4.28,12.78A.86.86,0,0,1,2391.71,726.84Zm-43,49.48a1,1,0,0,1-.35.31,102.14,102.14,0,0,1-12.08,6,1.12,1.12,0,1,1-.86-2.06,100.75,100.75,0,0,0,11.82-5.87,1.11,1.11,0,0,1,1.47,1.61Zm49.81-75.22a1.13,1.13,0,0,1-1,.45,1.11,1.11,0,0,1-1-1.24,101.66,101.66,0,0,0,.79-13.17,1.12,1.12,0,0,1,2.23,0,104.52,104.52,0,0,1-.81,13.47A1.27,1.27,0,0,1,2398.49,701.1Zm-74.39,85.48a1.16,1.16,0,0,1-.61.43,104.56,104.56,0,0,1-13.22,2.67,1.12,1.12,0,1,1-.3-2.21,99.68,99.68,0,0,0,12.93-2.61,1.12,1.12,0,0,1,1.37.78A1.1,1.1,0,0,1,2324.1,786.58Zm74.25-112.11a1.11,1.11,0,0,1-.76.45,1.1,1.1,0,0,1-1.25-.95,101.44,101.44,0,0,0-2.63-12.93,1.11,1.11,0,1,1,2.14-.59,104.29,104.29,0,0,1,2.7,13.22A1.11,1.11,0,0,1,2398.35,674.47ZM2297.71,790.15a1.08,1.08,0,0,1-.89.46,104.26,104.26,0,0,1-13.46-.82,1.11,1.11,0,0,1-1-1.25,1.1,1.1,0,0,1,1.24-1,103.48,103.48,0,0,0,13.17.81,1.1,1.1,0,0,1,1.11,1.1A1.06,1.06,0,0,1,2297.71,790.15Zm93.63-141.37a1.14,1.14,0,0,1-.47.37,1.12,1.12,0,0,1-1.46-.59,100.82,100.82,0,0,0-5.88-11.82,1.11,1.11,0,0,1,1.92-1.12,103,103,0,0,1,6,12.08A1.12,1.12,0,0,1,2391.34,648.78Zm-120,138a1.11,1.11,0,0,1-1.19.43,103.15,103.15,0,0,1-12.78-4.3,1.11,1.11,0,0,1,.84-2.06,100.46,100.46,0,0,0,12.51,4.21,1.11,1.11,0,0,1,.79,1.36A.92.92,0,0,1,2271.32,786.78Zm-24.62-10.12a1.13,1.13,0,0,1-1.46.31,106.4,106.4,0,0,1-9.08-5.87c-.73-.53-1.44-1.06-2.15-1.6a1.1,1.1,0,0,1-.21-1.56,1.11,1.11,0,0,1,1.56-.21q1,.79,2.1,1.56a102,102,0,0,0,8.89,5.75,1.11,1.11,0,0,1,.41,1.52Zm-21.18-16.15a1.34,1.34,0,0,1-.11.14,1.11,1.11,0,0,1-1.57,0,102,102,0,0,1-8.93-10.11,1.11,1.11,0,0,1,.2-1.56,1.12,1.12,0,0,1,1.56.2,100,100,0,0,0,8.74,9.89A1.11,1.11,0,0,1,2225.52,760.51Zm-16.27-21.07a1.17,1.17,0,0,1-.35.31,1.11,1.11,0,0,1-1.52-.41,102.92,102.92,0,0,1-6-12.09,1.11,1.11,0,0,1,2.06-.85,102.39,102.39,0,0,0,5.86,11.83A1.13,1.13,0,0,1,2209.25,739.44Zm101.36-152.25a1.09,1.09,0,0,1-1,.45,103.51,103.51,0,0,0-13.17-.84,1.11,1.11,0,1,1,0-2.22,102.54,102.54,0,0,1,13.46.86,1.11,1.11,0,0,1,1,1.24A1,1,0,0,1,2310.61,587.19ZM2199,714.85a1.08,1.08,0,0,1-.61.42,1.11,1.11,0,0,1-1.36-.79,103.82,103.82,0,0,1-2.66-13.22,1.11,1.11,0,0,1,.95-1.25,1.13,1.13,0,0,1,1.26,1,100.14,100.14,0,0,0,2.6,12.94A1.12,1.12,0,0,1,2199,714.85Zm85-127.62a1.09,1.09,0,0,1-.75.45,102,102,0,0,0-12.95,2.59,1.11,1.11,0,1,1-.57-2.15,104.47,104.47,0,0,1,13.22-2.64,1.11,1.11,0,0,1,1.25,1A1.09,1.09,0,0,1,2284,587.23Zm-88.5,101.23a1.1,1.1,0,0,1-.9.46,1.12,1.12,0,0,1-1.12-1.11,104.39,104.39,0,0,1,.84-13.46,1.11,1.11,0,0,1,2.21.29,99.79,99.79,0,0,0-.82,13.16A1.15,1.15,0,0,1,2195.48,688.46Zm62.78-94.32a1,1,0,0,1-.47.38,100,100,0,0,0-11.84,5.84,1.11,1.11,0,1,1-1.11-1.93,103.7,103.7,0,0,1,12.1-6,1.11,1.11,0,0,1,1.32,1.68Zm-59.38,67.93a1.13,1.13,0,0,1-1.19.42,1.11,1.11,0,0,1-.79-1.36,103.2,103.2,0,0,1,4.31-12.78,1.11,1.11,0,0,1,2.06.85,100.37,100.37,0,0,0-4.22,12.5A1.4,1.4,0,0,1,2198.88,662.07Zm36.33-54.59a1.19,1.19,0,0,1-.22.23,99.9,99.9,0,0,0-9.9,8.72,1.11,1.11,0,1,1-1.58-1.57,103.28,103.28,0,0,1,10.12-8.92,1.12,1.12,0,0,1,1.58,1.54Zm-26.18,30a1.11,1.11,0,0,1-1.86-1.21,103.68,103.68,0,0,1,7.48-11.22,1.11,1.11,0,1,1,1.76,1.35,104.14,104.14,0,0,0-7.31,11A.36.36,0,0,1,2209,637.46Z" transform="translate(-1344.57 -573.4)"/><path class="cls-2" d="M2430.2,623.94l-108.57-4.13-.12-1.35a11.13,11.13,0,0,1,4.74-10.41c4.18-3,10.37-3.66,16-1.89.55-10.17,4.05-18.53,10.19-24.28,6.36-6,15.36-9,25.38-8.42,10,.24,18.73,3.9,24.62,10.32,5.68,6.2,8.54,14.8,8.31,25,5.71-1.35,11.83-.2,15.78,3.09a11.15,11.15,0,0,1,3.93,10.74Zm-105.66-7.09,103,3.92a8,8,0,0,0-3-6.55c-3.59-3-9.73-3.79-14.92-1.93l-2.2.78.15-2.32c.65-10.29-1.92-18.9-7.42-24.89-5.32-5.81-13.31-9.12-22.48-9.33-9.22-.51-17.42,2.21-23.17,7.59-5.94,5.56-9.15,14-9.28,24.25l0,2.33-2.13-.94c-5-2.25-11.22-1.92-15,.79A8,8,0,0,0,2324.54,616.85Z" transform="translate(-1344.57 -573.4)"/><path class="cls-2" d="M1436.44,1229.69c0-.26-4.68-27.43-1.58-85.88l2.53.14c-3.09,58.1,1.5,85,1.55,85.3Z" transform="translate(-1344.57 -573.4)"/><path class="cls-2" d="M1435.86,1210.29l-.83-.74c-.86-.76-21-18.87-21-41.66a42.16,42.16,0,0,1,1.71-11.6l.35-1.2,9.14,2.51c-2-2-4.48-4.55-6.72-6.73l-.62-.61.35-.81a75.26,75.26,0,0,1,16.83-23.22l.84-.74.84.74c.58.52,14.35,12.85,19.31,30l.16.56-.32.49c-4.86,7.45-8.75,13.48-11.25,17.43l11.12-8.18,2-1.46,0,2.86c0,22.79-20.18,40.9-21,41.66Zm-18.07-52.1a39,39,0,0,0-1.28,9.7c0,19.07,15.54,35.28,19.35,39,3.67-3.55,18.19-18.68,19.29-36.81-13.56,10-14,10.27-14.15,10.37l-.86.58-.75-.72c-1-.94-1-1,14-23.94-4.17-13.76-14.53-24.51-17.55-27.43a74.73,74.73,0,0,0-15,20.77c4.29,4.23,9.33,9.45,9.38,9.5l3.21,3.33Z" transform="translate(-1344.57 -573.4)"/><path class="cls-2" d="M2850.57,1235.21h-14.38v-62.36h14.38Zm-12.14-2.28h9.89v-57.8h-9.89Z" transform="translate(-1344.57 -573.4)"/><path class="cls-2" d="M2838.43,1196.45h-13.06v-18.53h13.06Zm-10.82-2.28h8.58v-14h-8.58Z" transform="translate(-1344.57 -573.4)"/><path class="cls-2" d="M2895.74,1220l-47.42-24v-17.67l47.42-24Zm-45.17-25.41,42.93,21.72V1158l-42.93,21.73Z" transform="translate(-1344.57 -573.4)"/><path class="cls-2" d="M2893.5,1203.93v-33.49l7.59,13.14v7.21Zm2.24-25.1v16.71l3.11-5.38v-6Z" transform="translate(-1344.57 -573.4)"/><path class="cls-2" d="M2902,1204.8l-1.51-1.69c.6-.56,14.53-14,.75-31.69L2903,1170C2918.05,1189.39,2902.12,1204.65,2902,1204.8Z" transform="translate(-1344.57 -573.4)"/><path class="cls-2" d="M2915.54,1211.27l-1.77-1.41c.15-.19,14.85-19.95.79-45.19l2-1.13C2931.33,1190.15,2915.7,1211.06,2915.54,1211.27Z" transform="translate(-1344.57 -573.4)"/><path class="cls-2" d="M1578.62,904.43a39.6,39.6,0,1,1,39.6-39.6A39.64,39.64,0,0,1,1578.62,904.43Zm0-76a36.46,36.46,0,1,0,36.45,36.45A36.5,36.5,0,0,0,1578.62,828.38Z" transform="translate(-1344.57 -573.4)"/><path class="cls-2" d="M1578.62,847.8a39.52,39.52,0,0,1-26.45-10.13l2.1-2.34a36.47,36.47,0,0,0,48.63.06l2.1,2.34A39.54,39.54,0,0,1,1578.62,847.8Z" transform="translate(-1344.57 -573.4)"/><path class="cls-2" d="M1554.82,894.9l-2.06-2.38a39.61,39.61,0,0,1,51.62-.09l-2.05,2.39a36.46,36.46,0,0,0-47.51.08Z" transform="translate(-1344.57 -573.4)"/><path class="cls-2" d="M1578.62,904.43c-11.47,0-20.45-17.39-20.45-39.6s9-39.6,20.45-39.6,20.45,17.39,20.45,39.6S1590.09,904.43,1578.62,904.43Zm0-76c-9.38,0-17.31,16.69-17.31,36.45s7.93,36.46,17.31,36.46,17.3-16.7,17.3-36.46S1588,828.38,1578.62,828.38Z" transform="translate(-1344.57 -573.4)"/><rect class="cls-2" x="232.48" y="253.4" width="3.15" height="76.06"/><rect class="cls-2" x="196.02" y="289.86" width="76.06" height="3.15"/><path class="cls-2" d="M1966.74,613.28a13.39,13.39,0,0,1-5.87-1.58c-16.65-8.19-28.7-7.8-35.81,1.16L1922.7,611c8.11-10.22,21.4-10.89,39.51-2,5.06,2.49,7.09,1,10.46-1.51,3.16-2.34,7.09-5.25,14.56-5,15.11.61,21.56,8.51,21.83,8.85l-2.37,1.88c0-.07-5.94-7.16-19.58-7.71-6.41-.26-9.58,2.09-12.64,4.36C1972.14,611.62,1969.91,613.28,1966.74,613.28Z" transform="translate(-1344.57 -573.4)"/><path class="cls-2" d="M1966.74,634.44a13.39,13.39,0,0,1-5.87-1.58c-16.65-8.18-28.7-7.79-35.81,1.16l-2.36-1.88c8.11-10.22,21.4-10.89,39.51-2,5.06,2.48,7.09,1,10.46-1.51,3.16-2.35,7.09-5.26,14.56-5,15.11.61,21.56,8.52,21.83,8.85l-2.37,1.88c0-.06-5.94-7.15-19.58-7.71-6.41-.26-9.58,2.09-12.64,4.37C1972.14,632.79,1969.91,634.44,1966.74,634.44Z" transform="translate(-1344.57 -573.4)"/><path class="cls-2" d="M2572,667.19l-20.33-14.77h25.13l7.76-23.9,7.77,23.9h25.13l-20.33,14.77,7.76,23.9-20.33-14.77-20.33,14.77Zm28,17.2-5.9-18.17L2609.54,655h-19.1l-5.91-18.17-5.9,18.17h-19.11L2575,666.22l-5.9,18.17,15.45-11.23Z" transform="translate(-1344.57 -573.4)"/><path class="cls-3" d="M2835.24,1338.58a336.43,336.43,0,0,1-47-168.26c-1.46-138.74-36-318-214.74-329.75-229.82-15-161.09,43-307.14-81.62s-317.89,89.68-436,227.14-176.13,178.81-292.11,202.44c-104.3,21.24-161.7,195.32-98.82,341.09a79.23,79.23,0,0,0,72.79,47.7h1318C2894.53,1481.09,2868.37,1394.32,2835.24,1338.58Z" transform="translate(-1344.57 -573.4)"/><ellipse class="cls-3" cx="1639.44" cy="924.88" rx="196.53" ry="149.01" transform="translate(-1448.54 1061.18) rotate(-51.58)"/><path class="cls-4" d="M1418.08,1577.29H2852.72a0,0,0,0,1,0,0V1593a18.66,18.66,0,0,1-18.66,18.66H1436.74a18.66,18.66,0,0,1-18.66-18.66v-15.7A0,0,0,0,1,1418.08,1577.29Z" transform="translate(2926.23 2615.55) rotate(180)"/><path class="cls-2" d="M2969.14,833.38a1.24,1.24,0,0,0,.71-.22,1.28,1.28,0,0,0,.35-1.78c-1.44-2.13-2.94-4.25-4.48-6.32a1.28,1.28,0,1,0-2,1.53c1.51,2,3,4.13,4.41,6.23A1.28,1.28,0,0,0,2969.14,833.38Z" transform="translate(-1344.57 -573.4)"/><path class="cls-2" d="M2955,815.93c-3-3.41-6.21-6.75-9.5-9.9a1.28,1.28,0,1,1,1.77-1.85c3.34,3.2,6.59,6.59,9.65,10.06a1.27,1.27,0,0,1-.11,1.8,1.25,1.25,0,0,1-.85.32A1.28,1.28,0,0,1,2955,815.93Zm-19.8-19c-3.55-2.87-7.26-5.63-11-8.18a1.28,1.28,0,0,1,1.44-2.12c3.83,2.59,7.59,5.39,11.2,8.3a1.28,1.28,0,0,1-.81,2.28A1.26,1.26,0,0,1,2935.22,797Zm-22.7-15.41c-4-2.23-8.09-4.33-12.23-6.21a1.28,1.28,0,1,1,1.06-2.34c4.21,1.92,8.39,4,12.43,6.32a1.28,1.28,0,0,1-.63,2.4A1.32,1.32,0,0,1,2912.52,781.55Zm-24.95-11.37c-4.3-1.54-8.71-2.91-13.11-4.07a1.28,1.28,0,1,1,.66-2.47c4.47,1.18,9,2.56,13.31,4.12a1.28,1.28,0,0,1-.86,2.42Z" transform="translate(-1344.57 -573.4)"/><path class="cls-2" d="M2861.25,763.19a1.28,1.28,0,0,0,.22-2.55c-2.53-.44-5.1-.83-7.66-1.15a1.28,1.28,0,1,0-.32,2.54c2.51.32,5.05.7,7.54,1.14Z" transform="translate(-1344.57 -573.4)"/><path class="cls-2" d="M2787.79,766.92a1.34,1.34,0,0,0,.35,0c2.45-.69,4.93-1.34,7.39-1.91a1.28,1.28,0,1,0-.58-2.49c-2.5.58-5,1.23-7.5,1.93a1.28,1.28,0,0,0,.34,2.52Z" transform="translate(-1344.57 -573.4)"/><path class="cls-2" d="M2830.39,1089.53c-5.25-.07-10.53-.39-15.72-1a1.28,1.28,0,0,1,.28-2.55c5.1.56,10.31.87,15.47.94a1.28,1.28,0,0,1,0,2.56Zm14.35-1.69a1.27,1.27,0,0,1,1.17-1.38c5.15-.42,10.32-1.08,15.38-2a1.28,1.28,0,1,1,.44,2.52c-5.13.91-10.39,1.58-15.61,2H2846A1.27,1.27,0,0,1,2844.74,1087.84Zm-45.62-1.69c-5.12-1.06-10.25-2.37-15.25-3.91a1.28,1.28,0,0,1,.75-2.45c4.92,1.52,10,2.81,15,3.85a1.28,1.28,0,0,1-.26,2.53A1.18,1.18,0,0,1,2799.12,1086.15Zm76.39-3.51a1.29,1.29,0,0,1,.89-1.58c5-1.38,9.92-3,14.72-4.85a1.28,1.28,0,0,1,1.66.73,1.29,1.29,0,0,1-.74,1.66c-4.88,1.87-9.91,3.53-14.95,4.93a1.41,1.41,0,0,1-.35,0A1.29,1.29,0,0,1,2875.51,1082.64Zm-106.45-5.75c-4.82-2-9.61-4.27-14.23-6.73a1.28,1.28,0,1,1,1.21-2.26c4.55,2.42,9.26,4.65,14,6.63a1.28,1.28,0,0,1-.5,2.46A1.23,1.23,0,0,1,2769.06,1076.89Zm135.68-5.21a1.27,1.27,0,0,1,.57-1.71c4.61-2.3,9.16-4.84,13.53-7.57a1.28,1.28,0,1,1,1.36,2.18c-4.44,2.76-9.07,5.35-13.75,7.68a1.28,1.28,0,0,1-1.71-.58Zm-163.43-9.58c-4.36-2.89-8.64-6-12.7-9.31a1.28,1.28,0,1,1,1.61-2c4,3.24,8.21,6.32,12.5,9.16a1.29,1.29,0,0,1,.36,1.78,1.28,1.28,0,0,1-1.77.36Zm190-6.72a1.28,1.28,0,0,1,.25-1.79c4.08-3.13,8.08-6.48,11.86-10a1.28,1.28,0,0,1,1.74,1.88c-3.84,3.55-7.9,7-12,10.13a1.25,1.25,0,0,1-.78.27A1.31,1.31,0,0,1,2931.35,1055.38Zm-214.51-13.05c-3.74-3.66-7.35-7.54-10.72-11.53a1.28,1.28,0,1,1,2-1.66c3.33,3.93,6.88,7.75,10.56,11.36a1.27,1.27,0,0,1,0,1.81,1.29,1.29,0,0,1-1.81,0Zm237.59-8a1.28,1.28,0,0,1-.1-1.81c3.43-3.84,6.72-7.89,9.77-12a1.28,1.28,0,0,1,2.07,1.52c-3.1,4.2-6.44,8.32-9.93,12.22a1.32,1.32,0,0,1-1,.43A1.26,1.26,0,0,1,2954.43,1034.36Zm-257.9-16c-3-4.29-5.8-8.78-8.37-13.34a1.29,1.29,0,1,1,2.24-1.26c2.52,4.49,5.29,8.91,8.23,13.14a1.28,1.28,0,0,1-.32,1.78,1.24,1.24,0,0,1-.73.23A1.26,1.26,0,0,1,2696.53,1018.31Zm276.61-8.94a1.26,1.26,0,0,1-.44-1.75c2.65-4.42,5.11-9,7.33-13.66a1.28,1.28,0,1,1,2.31,1.1c-2.25,4.72-4.75,9.39-7.44,13.87a1.3,1.3,0,0,1-1.1.63A1.21,1.21,0,0,1,2973.14,1009.37Zm-292-18.48c-2.12-4.78-4-9.72-5.68-14.68a1.26,1.26,0,0,1,.81-1.62,1.28,1.28,0,0,1,1.62.81c1.62,4.88,3.5,9.74,5.59,14.45a1.29,1.29,0,0,1-.65,1.7,1.39,1.39,0,0,1-.52.11A1.28,1.28,0,0,1,2681.11,990.89Zm305.67-9.59a1.28,1.28,0,0,1-.76-1.64c1.76-4.83,3.31-9.81,4.6-14.8a1.28,1.28,0,1,1,2.48.64c-1.31,5.07-2.88,10.13-4.67,15a1.28,1.28,0,0,1-1.21.84A1.17,1.17,0,0,1,2986.78,981.3Zm-315.61-20.25c-1.16-5.09-2.1-10.31-2.78-15.5a1.28,1.28,0,1,1,2.54-.33c.67,5.11,1.59,10.24,2.74,15.25a1.28,1.28,0,0,1-1,1.54,1.43,1.43,0,0,1-.29,0A1.29,1.29,0,0,1,2671.17,961.05Zm323.68-9.89a1.29,1.29,0,0,1-1.07-1.47c.81-5.08,1.38-10.26,1.71-15.41a1.27,1.27,0,0,1,1.36-1.19,1.29,1.29,0,0,1,1.2,1.36c-.33,5.22-.92,10.49-1.74,15.64a1.28,1.28,0,0,1-1.26,1.08Zm-327.76-21.3c-.07-2-.11-4-.11-6,0-3.23.1-6.51.28-9.73a1.28,1.28,0,0,1,2.56.15c-.18,3.17-.28,6.4-.28,9.58,0,2,0,4,.11,5.92a1.28,1.28,0,0,1-1.23,1.33h-.05A1.27,1.27,0,0,1,2667.09,929.86Zm2.9-29.93a1.29,1.29,0,0,1-1.07-1.47c.79-5.17,1.84-10.36,3.13-15.43a1.28,1.28,0,0,1,2.48.63c-1.26,5-2.3,10.1-3.08,15.19a1.29,1.29,0,0,1-1.27,1.09Zm7.42-30.32a1.28,1.28,0,0,1-.77-1.64c1.76-4.92,3.78-9.81,6-14.54a1.28,1.28,0,1,1,2.32,1.09c-2.19,4.65-4.18,9.47-5.92,14.32a1.28,1.28,0,0,1-1.2.84A1.35,1.35,0,0,1,2677.41,869.61Zm13.06-28.34a1.27,1.27,0,0,1-.45-1.75c2.66-4.5,5.57-8.92,8.65-13.15a1.29,1.29,0,0,1,2.08,1.51c-3,4.16-5.91,8.52-8.53,12.94a1.26,1.26,0,0,1-1.1.63A1.28,1.28,0,0,1,2690.47,841.27Zm18.18-25.36a1.28,1.28,0,0,1-.11-1.81c3.46-3.92,7.16-7.71,11-11.29a1.28,1.28,0,0,1,1.75,1.87c-3.76,3.52-7.4,7.26-10.81,11.12a1.29,1.29,0,0,1-1.81.11Zm22.63-21.5a1.29,1.29,0,0,1,.23-1.8c4.14-3.2,8.49-6.23,12.91-9a1.28,1.28,0,0,1,1.77.4,1.3,1.3,0,0,1-.4,1.77c-4.36,2.74-8.63,5.73-12.71,8.88a1.28,1.28,0,0,1-1.8-.23Zm26.28-16.86a1.28,1.28,0,0,1,.57-1.72c4.67-2.36,9.51-4.52,14.38-6.42a1.28,1.28,0,1,1,.93,2.39c-4.79,1.87-9.56,4-14.16,6.32a1.27,1.27,0,0,1-1.72-.57Z" transform="translate(-1344.57 -573.4)"/><path class="cls-2" d="M2997,919.79h0a1.29,1.29,0,0,0,1.24-1.33c-.08-2.56-.22-5.17-.42-7.73a1.28,1.28,0,1,0-2.56.2c.2,2.52.34,5.09.42,7.62A1.28,1.28,0,0,0,2997,919.79Z" transform="translate(-1344.57 -573.4)"/><path class="cls-2" d="M2969.14,833.38a1.24,1.24,0,0,0,.71-.22,1.28,1.28,0,0,0,.35-1.78c-1.44-2.13-2.94-4.25-4.48-6.32a1.28,1.28,0,1,0-2,1.53c1.51,2,3,4.13,4.41,6.23A1.28,1.28,0,0,0,2969.14,833.38Z" transform="translate(-1344.57 -573.4)"/><path class="cls-2" d="M2955,815.93c-3-3.41-6.21-6.75-9.5-9.9a1.28,1.28,0,1,1,1.77-1.85c3.34,3.2,6.59,6.59,9.65,10.06a1.27,1.27,0,0,1-.11,1.8,1.25,1.25,0,0,1-.85.32A1.28,1.28,0,0,1,2955,815.93Zm-19.8-19c-3.55-2.87-7.26-5.63-11-8.18a1.28,1.28,0,0,1,1.44-2.12c3.83,2.59,7.59,5.39,11.2,8.3a1.28,1.28,0,0,1-.81,2.28A1.26,1.26,0,0,1,2935.22,797Zm-22.7-15.41c-4-2.23-8.09-4.33-12.23-6.21a1.28,1.28,0,1,1,1.06-2.34c4.21,1.92,8.39,4,12.43,6.32a1.28,1.28,0,0,1-.63,2.4A1.32,1.32,0,0,1,2912.52,781.55Zm-24.95-11.37c-4.3-1.54-8.71-2.91-13.11-4.07a1.28,1.28,0,1,1,.66-2.47c4.47,1.18,9,2.56,13.31,4.12a1.28,1.28,0,0,1-.86,2.42Z" transform="translate(-1344.57 -573.4)"/><path class="cls-2" d="M2861.25,763.19a1.28,1.28,0,0,0,.22-2.55c-2.53-.44-5.1-.83-7.66-1.15a1.28,1.28,0,1,0-.32,2.54c2.51.32,5.05.7,7.54,1.14Z" transform="translate(-1344.57 -573.4)"/><path class="cls-2" d="M2816.11,765.52l-20.33-14.77h25.12l7.77-23.9,7.77,23.9h25.13l-20.33,14.77,7.76,23.9-20.33-14.77-20.33,14.77Zm28,17.19-5.91-18.17,15.46-11.23h-19.11l-5.9-18.17-5.9,18.17h-19.11l15.46,11.23-5.91,18.17,15.46-11.23Z" transform="translate(-1344.57 -573.4)"/><path class="cls-2" d="M2985.7,888.76v-2.61a15.38,15.38,0,0,0-3.84-9.93,16.21,16.21,0,0,1,13.1-26.71,16.34,16.34,0,0,1,15.42,15.34,16.12,16.12,0,0,1-3.7,11.17,16.57,16.57,0,0,0-4,10.6v2.14a8.49,8.49,0,1,1-17,0Zm-1.48-33.5a14.41,14.41,0,0,0-1,19.81,17.18,17.18,0,0,1,4.27,11.08v2.61a6.72,6.72,0,1,0,13.44,0v-2.14a18.54,18.54,0,0,1,4.41-11.73,14.36,14.36,0,0,0,3.29-9.95,14.55,14.55,0,0,0-13.73-13.66l-.7,0A14.32,14.32,0,0,0,2984.22,855.26Z" transform="translate(-1344.57 -573.4)"/><rect class="cls-2" x="1648.74" y="261.1" width="1.77" height="11.31"/><rect class="cls-2" x="2975.16" y="842.17" width="1.77" height="11.31" transform="translate(-1072.47 1779.2) rotate(-45)"/><rect class="cls-2" x="1618.42" y="291.79" width="11.31" height="1.77"/><rect class="cls-2" x="3006.78" y="846.68" width="11.31" height="1.77" transform="translate(-1061.59 1804.92) rotate(-45)"/><rect class="cls-2" x="1669.87" y="291.42" width="11.31" height="1.77"/><rect class="cls-2" x="1643.23" y="309.49" width="12.96" height="1.77"/><rect class="cls-2" x="1643.96" y="314.78" width="11.68" height="1.77"/><path class="cls-2" d="M1794.37,887.74h-.07c-4.18-.21-8.4-.63-12.53-1.25a1.37,1.37,0,0,1,.41-2.71,119.55,119.55,0,0,0,12.25,1.23,1.37,1.37,0,0,1-.06,2.73Zm12.45,0a1.37,1.37,0,0,1-.07-2.73,119,119,0,0,0,12.25-1.24,1.37,1.37,0,0,1,.42,2.71c-4.13.62-8.34,1-12.53,1.26Zm-37-3.71a1.41,1.41,0,0,1-.35,0,122.82,122.82,0,0,1-12-3.76,1.36,1.36,0,1,1,.94-2.56,121.28,121.28,0,0,0,11.76,3.68,1.36,1.36,0,0,1,1,1.66A1.37,1.37,0,0,1,1769.78,884Zm61.63,0a1.36,1.36,0,0,1-1.32-1,1.37,1.37,0,0,1,1-1.67,117.45,117.45,0,0,0,11.74-3.69,1.37,1.37,0,1,1,1,2.57,125.66,125.66,0,0,1-12,3.77A1.32,1.32,0,0,1,1831.41,884Zm-85-8.59a1.42,1.42,0,0,1-.6-.14,125.74,125.74,0,0,1-11-6.11,1.37,1.37,0,1,1,1.45-2.32,122.73,122.73,0,0,0,10.76,6,1.36,1.36,0,0,1-.6,2.59Zm108.29-.06a1.36,1.36,0,0,1-.6-2.59c3.66-1.81,7.28-3.82,10.76-6a1.36,1.36,0,0,1,1.88.43,1.38,1.38,0,0,1-.44,1.89,123.11,123.11,0,0,1-11,6.12A1.29,1.29,0,0,1,1854.73,875.33Zm-129.4-13.1a1.4,1.4,0,0,1-.84-.29c-3.3-2.56-6.52-5.32-9.55-8.2a1.37,1.37,0,1,1,1.88-2,120.89,120.89,0,0,0,9.35,8,1.37,1.37,0,0,1-.84,2.45Zm150.49-.08a1.37,1.37,0,0,1-.83-2.45,122.78,122.78,0,0,0,9.34-8,1.37,1.37,0,1,1,1.88,2,122.24,122.24,0,0,1-9.55,8.21A1.32,1.32,0,0,1,1875.82,862.15Zm-168.53-17a1.36,1.36,0,0,1-1-.48,123.44,123.44,0,0,1-7.72-9.94,1.37,1.37,0,0,1,2.24-1.57,120.43,120.43,0,0,0,7.55,9.73,1.36,1.36,0,0,1-.14,1.93A1.38,1.38,0,0,1,1707.29,845.1Zm186.56-.1a1.37,1.37,0,0,1-1-2.25,121.72,121.72,0,0,0,7.54-9.74,1.37,1.37,0,0,1,2.25,1.56,125.55,125.55,0,0,1-7.72,10A1.36,1.36,0,0,1,1893.85,845Zm-200.8-20.29a1.38,1.38,0,0,1-1.2-.71,121.77,121.77,0,0,1-5.56-11.29,1.37,1.37,0,1,1,2.51-1.08,122.79,122.79,0,0,0,5.44,11,1.36,1.36,0,0,1-.53,1.86A1.34,1.34,0,0,1,1693.05,824.71Zm215-.12a1.33,1.33,0,0,1-.66-.17,1.37,1.37,0,0,1-.53-1.86c2-3.58,3.81-7.3,5.43-11a1.37,1.37,0,1,1,2.51,1.08,125.74,125.74,0,0,1-5.55,11.3A1.37,1.37,0,0,1,1908.07,824.59Zm-224.86-22.73a1.37,1.37,0,0,1-1.31-1,124.61,124.61,0,0,1-3.16-12.19,1.37,1.37,0,1,1,2.68-.55,119.15,119.15,0,0,0,3.09,11.92,1.36,1.36,0,0,1-.89,1.71A1.51,1.51,0,0,1,1683.21,801.86Zm234.68-.13a1.45,1.45,0,0,1-.41-.06,1.37,1.37,0,0,1-.9-1.71,119.29,119.29,0,0,0,3.08-11.93,1.37,1.37,0,0,1,2.68.55,125.49,125.49,0,0,1-3.15,12.2A1.36,1.36,0,0,1,1917.89,801.73ZM1678.2,777.5a1.37,1.37,0,0,1-1.36-1.23,125.36,125.36,0,0,1-.64-12.57,1.36,1.36,0,0,1,1.36-1.37h0a1.37,1.37,0,0,1,1.37,1.37,119.7,119.7,0,0,0,.63,12.29,1.36,1.36,0,0,1-1.23,1.5Zm244.67-.14h-.14a1.38,1.38,0,0,1-1.22-1.5,122.94,122.94,0,0,0,.61-12.3v-.27a1.37,1.37,0,0,1,1.37-1.37h0a1.37,1.37,0,0,1,1.37,1.36v.28a125.06,125.06,0,0,1-.63,12.57A1.37,1.37,0,0,1,1922.87,777.36Zm0-25.14a1.38,1.38,0,0,1-1.36-1.23c-.42-4.07-1-8.17-1.87-12.17a1.36,1.36,0,1,1,2.67-.55,123.68,123.68,0,0,1,1.92,12.44,1.37,1.37,0,0,1-1.22,1.5Zm-5-24.36a1.38,1.38,0,0,1-1.31-1,121.07,121.07,0,0,0-4.3-11.54,1.37,1.37,0,0,1,2.51-1.09,125.89,125.89,0,0,1,4.4,11.8,1.37,1.37,0,0,1-.89,1.72A1.51,1.51,0,0,1,1917.81,727.86ZM1907.94,705a1.35,1.35,0,0,1-1.19-.7,122.39,122.39,0,0,0-6.55-10.43,1.37,1.37,0,1,1,2.24-1.57,122.93,122.93,0,0,1,6.69,10.67,1.37,1.37,0,0,1-1.19,2Zm-14.26-20.38a1.37,1.37,0,0,1-1-.47,121.22,121.22,0,0,0-8.5-8.91,1.36,1.36,0,0,1-.06-1.93,1.38,1.38,0,0,1,1.94-.06c3,2.88,6,6,8.69,9.11a1.36,1.36,0,0,1-1,2.26Zm-18.07-17.11a1.36,1.36,0,0,1-.83-.28c-3.24-2.5-6.65-4.87-10.12-7a1.37,1.37,0,1,1,1.45-2.32,124.66,124.66,0,0,1,10.34,7.19,1.36,1.36,0,0,1-.84,2.44Zm-129.41-13a1.36,1.36,0,0,1-.6-2.59,124.29,124.29,0,0,1,11.56-5,1.37,1.37,0,1,1,.95,2.56c-3.83,1.43-7.63,3.07-11.31,4.88A1.29,1.29,0,0,1,1746.2,654.58Zm108.29-.18a1.41,1.41,0,0,1-.6-.13,122.88,122.88,0,0,0-11.33-4.85,1.37,1.37,0,1,1,1-2.56,125.5,125.5,0,0,1,11.58,4.95,1.36,1.36,0,0,1-.6,2.59Zm-85-8.49a1.37,1.37,0,0,1-.34-2.69,122.5,122.5,0,0,1,12.33-2.54,1.36,1.36,0,0,1,1.56,1.14,1.37,1.37,0,0,1-1.14,1.56,122.74,122.74,0,0,0-12.06,2.48A1.48,1.48,0,0,1,1769.51,645.91Zm61.64-.1a1.27,1.27,0,0,1-.34,0c-4-1-8-1.83-12.07-2.44a1.37,1.37,0,0,1,.4-2.71,125.42,125.42,0,0,1,12.34,2.51,1.37,1.37,0,0,1-.33,2.69Zm-37.06-3.68a1.37,1.37,0,0,1-.06-2.73,125.68,125.68,0,0,1,12.58,0,1.35,1.35,0,0,1,1.3,1.43,1.37,1.37,0,0,1-1.43,1.3c-4.07-.2-8.23-.19-12.31,0Z" transform="translate(-1344.57 -573.4)"/><path class="cls-2" d="M1753.66,759.36l-23.9-26.29c-10.48,4.67-23.43,7.22-36.66,7.22-33.4,0-60.56-16-60.56-35.59s27.16-35.59,60.56-35.59,60.56,16,60.56,35.59Zm-23-30.4,19.57,21.53V704.7c0-17.78-25.62-32.25-57.1-32.25S1636,686.92,1636,704.7,1661.61,737,1693.1,737c13.22,0,26.13-2.64,36.34-7.44Z" transform="translate(-1344.57 -573.4)"/><path class="cls-4" d="M2732.94,874.54c-6.94,23.19,6.16,47.6,6.16,47.6s24.35-13.2,31.29-36.4-6.15-47.6-6.15-47.6S2739.89,851.34,2732.94,874.54Z" transform="translate(-1344.57 -573.4)"/><path class="cls-4" d="M2768.65,966.46c20.69,12.57,47.61,6.06,47.61,6.06s-6.63-26.89-27.32-39.46-47.61-6.07-47.61-6.07S2748,953.89,2768.65,966.46Z" transform="translate(-1344.57 -573.4)"/><path class="cls-4" d="M2711.07,990.1c20.8,12.4,47.66,5.67,47.66,5.67s-6.84-26.84-27.63-39.24-47.66-5.67-47.66-5.67S2690.28,977.69,2711.07,990.1Z" transform="translate(-1344.57 -573.4)"/><path class="cls-4" d="M2658.35,1019.12c23.39,6.27,47.4-7.53,47.4-7.53s-13.89-24-37.28-30.22-47.4,7.53-47.4,7.53S2635,1012.85,2658.35,1019.12Z" transform="translate(-1344.57 -573.4)"/><path class="cls-4" d="M2594.75,1073.09c23.38,6.27,47.4-7.53,47.4-7.53s-13.9-24-37.29-30.23-47.4,7.53-47.4,7.53S2571.36,1066.82,2594.75,1073.09Z" transform="translate(-1344.57 -573.4)"/><path class="cls-4" d="M2541.74,1127.7c23.39,6.27,47.4-7.53,47.4-7.53s-13.9-24-37.28-30.23-47.4,7.54-47.4,7.54S2518.36,1121.43,2541.74,1127.7Z" transform="translate(-1344.57 -573.4)"/><path class="cls-4" d="M2663.33,901.9c-1,24.19,17.67,44.63,17.67,44.63s20.36-18.78,21.39-43-17.67-44.63-17.67-44.63S2664.36,877.71,2663.33,901.9Z" transform="translate(-1344.57 -573.4)"/><path class="cls-4" d="M2600,941.16c-1,24.19,17.67,44.63,17.67,44.63S2638,967,2639,942.82s-17.67-44.62-17.67-44.62S2601,917,2600,941.16Z" transform="translate(-1344.57 -573.4)"/><path class="cls-4" d="M2476.21,1053.47c4,23.88,26.51,40,26.51,40s16-22.58,12.05-46.46-26.51-40-26.51-40S2472.22,1029.59,2476.21,1053.47Z" transform="translate(-1344.57 -573.4)"/><path class="cls-4" d="M2457.42,1157.27c.81-1,2.13-2.84,3.95-5.33,95.91-131.23,210.75-215.73,323.36-237.91l-.73-3.67c-113.53,22.37-229.18,107.39-325.65,239.38-1.78,2.44-3.08,4.22-3.87,5.23Z" transform="translate(-1344.57 -573.4)"/><path class="cls-4" d="M2822.1,889.28c-24.08,2.5-41.59,24-41.59,24s21.54,17.42,45.62,14.92,41.59-24,41.59-24S2846.18,886.78,2822.1,889.28Z" transform="translate(-1344.57 -573.4)"/><path class="cls-5" d="M2587.21,761.18c4.35,23.82,27.1,39.61,27.1,39.61s15.7-22.81,11.35-46.63-27.1-39.61-27.1-39.61S2582.86,737.36,2587.21,761.18Z" transform="translate(-1344.57 -573.4)"/><path class="cls-5" d="M2660.76,826.87c24.14,1.8,45.17-16.22,45.17-16.22s-18.11-21-42.25-22.76-45.18,16.22-45.18,16.22S2636.62,825.06,2660.76,826.87Z" transform="translate(-1344.57 -573.4)"/><path class="cls-5" d="M2620.2,874.07c24.16,1.61,45-16.59,45-16.59s-18.29-20.8-42.44-22.41-45,16.59-45,16.59S2596,872.46,2620.2,874.07Z" transform="translate(-1344.57 -573.4)"/><path class="cls-5" d="M2586.41,923.87c23.68-5,38.81-28.23,38.81-28.23s-23.26-15-46.94-10-38.81,28.23-38.81,28.23S2562.73,928.91,2586.41,923.87Z" transform="translate(-1344.57 -573.4)"/><path class="cls-5" d="M2559.63,984.94c23.68-5,38.81-28.24,38.81-28.24s-23.26-15-46.94-10-38.81,28.23-38.81,28.23S2536,990,2559.63,984.94Z" transform="translate(-1344.57 -573.4)"/><path class="cls-5" d="M2537.61,817.17c10.07,22,36,31.74,36,31.74s9.61-26-.46-48-36-31.74-36-31.74S2527.55,795.15,2537.61,817.17Z" transform="translate(-1344.57 -573.4)"/><path class="cls-5" d="M2499,880.93c10.07,22,36,31.74,36,31.74s9.61-26-.46-48-36-31.74-36-31.74S2488.92,858.91,2499,880.93Z" transform="translate(-1344.57 -573.4)"/><path class="cls-5" d="M2466.78,950.17c14.33,19.51,41.7,23.76,41.7,23.76s4.13-27.39-10.2-46.9-41.71-23.76-41.71-23.76S2452.44,930.66,2466.78,950.17Z" transform="translate(-1344.57 -573.4)"/><path class="cls-5" d="M2446.58,1011.44c14.34,19.52,41.71,23.76,41.71,23.76s4.13-27.38-10.2-46.9-41.71-23.75-41.71-23.75S2432.25,991.93,2446.58,1011.44Z" transform="translate(-1344.57 -573.4)"/><path class="cls-5" d="M2470.13,1138.2c.25-1.29.6-3.5,1.09-6.54,25.86-160.48,89.8-287.91,180.06-358.81l-2.31-2.94c-91,71.49-155.43,199.75-181.43,361.16-.48,3-.83,5.15-1.08,6.42Z" transform="translate(-1344.57 -573.4)"/><path class="cls-5" d="M2673.33,733.83c-20.32,13.16-26.16,40.23-26.16,40.23s27.09,5.74,47.41-7.43,26.17-40.23,26.17-40.23S2693.65,720.66,2673.33,733.83Z" transform="translate(-1344.57 -573.4)"/><path class="cls-4" d="M1799.14,1124.77c-.75,24.19-20.9,43.21-20.9,43.21s-18.92-20.23-18.17-44.43,20.89-43.21,20.89-43.21S1799.89,1100.57,1799.14,1124.77Z" transform="translate(-1344.57 -573.4)"/><path class="cls-4" d="M1736.2,1200.68c-23.61,5.38-47.09-9.31-47.09-9.31s14.79-23.42,38.39-28.8,47.09,9.31,47.09,9.31S1759.8,1195.3,1736.2,1200.68Z" transform="translate(-1344.57 -573.4)"/><path class="cls-4" d="M1783.34,1241.31c-23.65,5.19-47-9.69-47-9.69s15-23.3,38.63-28.49,47,9.7,47,9.7S1807,1236.12,1783.34,1241.31Z" transform="translate(-1344.57 -573.4)"/><path class="cls-4" d="M1824.17,1285.52c-24.16-1.45-42.58-22.14-42.58-22.14s20.76-18.33,44.93-16.88,42.58,22.14,42.58,22.14S1848.34,1287,1824.17,1285.52Z" transform="translate(-1344.57 -573.4)"/><path class="cls-4" d="M1856.52,1172.74c-6.67,23.27-30.87,36.75-30.87,36.75s-13.38-24.25-6.7-47.53,30.87-36.75,30.87-36.75S1863.2,1149.47,1856.52,1172.74Z" transform="translate(-1344.57 -573.4)"/><path class="cls-4" d="M1904.22,1230c-6.67,23.27-30.87,36.75-30.87,36.75s-13.38-24.25-6.7-47.53,30.87-36.75,30.87-36.75S1910.9,1206.76,1904.22,1230Z" transform="translate(-1344.57 -573.4)"/><path class="cls-4" d="M1971.1,1480.13c-.44-1.24-1.12-3.37-2.06-6.31-49.48-154.83-131.7-271.3-231.52-328l1.85-3.25c100.63,57.13,183.46,174.36,233.22,330.09.93,2.88,1.59,5,2,6.19Z" transform="translate(-1344.57 -573.4)"/><path class="cls-4" d="M1709.9,1110.55c22,10,31.87,35.89,31.87,35.89s-25.94,9.71-48-.28-31.87-35.89-31.87-35.89S1687.84,1100.57,1709.9,1110.55Z" transform="translate(-1344.57 -573.4)"/><path class="cls-4" d="M1379.65,1379.7c22.89,7.89,47.81-4.2,47.81-4.2s-12.19-24.87-35.08-32.76-47.81,4.21-47.81,4.21S1356.76,1371.82,1379.65,1379.7Z" transform="translate(-1344.57 -573.4)"/><path class="cls-4" d="M1473,1347.79c13.41-20.16,8-47.32,8-47.32s-27.14,5.51-40.55,25.67-8,47.33-8,47.33S1459.55,1368,1473,1347.79Z" transform="translate(-1344.57 -573.4)"/><path class="cls-4" d="M1494.22,1406.28c13.24-20.26,7.62-47.39,7.62-47.39s-27.1,5.74-40.34,26-7.62,47.39-7.62,47.39S1481,1426.55,1494.22,1406.28Z" transform="translate(-1344.57 -573.4)"/><path class="cls-4" d="M1521.06,1460.15c7.22-23.11-5.58-47.67-5.58-47.67s-24.51,12.9-31.73,36,5.59,47.67,5.59,47.67S1513.84,1483.26,1521.06,1460.15Z" transform="translate(-1344.57 -573.4)"/><path class="cls-4" d="M1404.14,1450.37c24.13,2,45.31-15.82,45.31-15.82s-17.93-21.11-42-23.13-45.32,15.82-45.32,15.82S1380,1448.35,1404.14,1450.37Z" transform="translate(-1344.57 -573.4)"/><path class="cls-4" d="M1440.78,1515.3c24.12,2,45.31-15.82,45.31-15.82s-17.93-21.12-42-23.13-45.32,15.82-45.32,15.82S1416.65,1513.28,1440.78,1515.3Z" transform="translate(-1344.57 -573.4)"/><path class="cls-4" d="M1421.22,1329.58l-3.69.57c12.13,78.33,53.59,158.86,119.62,234.53l3.67-1.47C1474.75,1487.79,1433.3,1407.56,1421.22,1329.58Z" transform="translate(-1344.57 -573.4)"/><path class="cls-4" d="M1398,1291.22c1.51,24.17,22.24,42.53,22.24,42.53s18.28-20.8,16.77-45-22.25-42.53-22.25-42.53S1396.51,1267.06,1398,1291.22Z" transform="translate(-1344.57 -573.4)"/><path class="cls-5" d="M1839,989.57c2.43,24.09-15,45.58-15,45.58s-21.41-17.57-23.84-41.66,15.06-45.58,15.06-45.58S1836.58,965.48,1839,989.57Z" transform="translate(-1344.57 -573.4)"/><path class="cls-5" d="M1786.55,1073.08c-22.7,8.43-47.9-3.06-47.9-3.06s11.59-25.16,34.29-33.59,47.9,3.06,47.9,3.06S1809.24,1064.65,1786.55,1073.08Z" transform="translate(-1344.57 -573.4)"/><path class="cls-5" d="M1838.6,1107.18c-22.76,8.25-47.87-3.45-47.87-3.45s11.8-25.06,34.57-33.3,47.87,3.45,47.87,3.45S1861.37,1098.94,1838.6,1107.18Z" transform="translate(-1344.57 -573.4)"/><path class="cls-5" d="M1884.87,1145.66c-24.14,1.73-45.11-16.36-45.11-16.36s18.18-20.9,42.33-22.62,45.12,16.37,45.12,16.37S1909,1143.94,1884.87,1145.66Z" transform="translate(-1344.57 -573.4)"/><path class="cls-5" d="M1927.53,1196.92c-24.15,1.72-45.12-16.37-45.12-16.37s18.19-20.9,42.34-22.62,45.12,16.37,45.12,16.37S1951.68,1195.19,1927.53,1196.92Z" transform="translate(-1344.57 -573.4)"/><path class="cls-5" d="M1902.18,1029.62c-3.57,23.94-25.8,40.48-25.8,40.48s-16.43-22.3-12.87-46.24,25.8-40.48,25.8-40.48S1905.74,1005.67,1902.18,1029.62Z" transform="translate(-1344.57 -573.4)"/><path class="cls-5" d="M1957,1080.17c-3.57,23.95-25.8,40.48-25.8,40.48s-16.43-22.3-12.86-46.24,25.79-40.48,25.79-40.48S1960.54,1056.22,1957,1080.17Z" transform="translate(-1344.57 -573.4)"/><path class="cls-5" d="M2007.11,1137.77c-8.36,22.72-33.48,34.39-33.48,34.39s-11.56-25.17-3.2-47.89,33.48-34.39,33.48-34.39S2015.47,1115.05,2007.11,1137.77Z" transform="translate(-1344.57 -573.4)"/><path class="cls-5" d="M2043.5,1191c-8.37,22.72-33.49,34.39-33.49,34.39s-11.56-25.17-3.2-47.89,33.49-34.39,33.49-34.39S2051.86,1168.32,2043.5,1191Z" transform="translate(-1344.57 -573.4)"/><path class="cls-5" d="M2056,1319.36c-.6-1.17-1.56-3.2-2.87-6-69.33-147-166.09-251.73-272.47-294.83l1.41-3.47c107.24,43.46,204.71,148.83,274.44,296.7,1.29,2.74,2.23,4.73,2.81,5.88Z" transform="translate(-1344.57 -573.4)"/><path class="cls-5" d="M1748.67,987.17c23.17,7,36.3,31.4,36.3,31.4s-24.45,13-47.62,6-36.3-31.4-36.3-31.4S1725.5,980.16,1748.67,987.17Z" transform="translate(-1344.57 -573.4)"/><rect class="cls-6" x="871.85" y="439.75" width="568.35" height="561.62" rx="29.35"/><path class="cls-7" d="M2242.76,1513.5l-.65-4.39a1461.38,1461.38,0,0,1-.08-429.62l.74-5a48,48,0,0,1,47.5-41h442.31a23.32,23.32,0,0,1,23,19.48h0a1461.48,1461.48,0,0,1,0,481.94h0a23.42,23.42,0,0,1-23.1,19.56H2290.26A48,48,0,0,1,2242.76,1513.5Z" transform="translate(-1344.57 -573.4)"/><circle class="cls-6" cx="2459.74" cy="1321.72" r="182.12" transform="translate(-1558.72 1553.02) rotate(-45)"/><path class="cls-6" d="M2402.41,1515.26a5.06,5.06,0,0,1-1.48-.22,203.6,203.6,0,0,1-102.68-71.93,200.24,200.24,0,0,1-40.53-121.39c0-111.4,90.63-202,202-202a202.52,202.52,0,0,1,93.87,23.09,5.06,5.06,0,1,1-4.71,9,192.24,192.24,0,0,0-89.16-21.93c-105.81,0-191.9,86.09-191.9,191.91,0,85.12,54.67,158.92,136,183.64a5.06,5.06,0,0,1-1.47,9.9Z" transform="translate(-1344.57 -573.4)"/><circle class="cls-8" cx="2459.74" cy="1321.72" r="172.22" transform="translate(-1558.72 1553.02) rotate(-45)"/><circle class="cls-6" cx="1115.17" cy="748.32" r="166.94"/><circle class="cls-9" cx="2459.74" cy="1321.72" r="69.28" transform="translate(-736.32 2838.59) rotate(-76.72)"/><circle class="cls-10" cx="1115.17" cy="748.32" r="61.37"/><circle class="cls-9" cx="2459.74" cy="1321.72" r="57.65" transform="translate(-736.32 2838.59) rotate(-76.72)"/><path class="cls-6" d="M2464.94,1321.72a5.2,5.2,0,1,1-5.2-5.2A5.19,5.19,0,0,1,2464.94,1321.72Z" transform="translate(-1344.57 -573.4)"/><g class="cls-11"><path class="cls-12" d="M2641.86,1321.72a181.45,181.45,0,0,0-48-123.23l-133.46,123.57,171,60.83A182,182,0,0,0,2641.86,1321.72Z" transform="translate(-1344.57 -573.4)"/><path class="cls-12" d="M2460.37,1322.06l-172.28-61.3a182.31,182.31,0,0,0,38.5,185.18Z" transform="translate(-1344.57 -573.4)"/></g><rect class="cls-13" x="2533.97" y="1123.76" width="7.26" height="26.72" transform="translate(-745.17 -1430.23) rotate(21.67)"/><path class="cls-13" d="M2510.22,1146.2s2-5.28,3-5.28c31.34,8.41,40.08,19.13,40.08,19.13l-2,4.29A232.26,232.26,0,0,0,2510.22,1146.2Z" transform="translate(-1344.57 -573.4)"/><circle class="cls-13" cx="1199.14" cy="547.23" r="12.04"/><rect class="cls-13" x="2378.58" y="1492.83" width="7.26" height="26.72" transform="translate(2718.02 3195.49) rotate(-158.9)"/><path class="cls-13" d="M2409.49,1496.84s-1.92,5.3-2.91,5.31c-31.43-8.1-40.28-18.73-40.28-18.73l1.94-4.31A232.45,232.45,0,0,0,2409.49,1496.84Z" transform="translate(-1344.57 -573.4)"/><circle class="cls-13" cx="2376.27" cy="1522.74" r="12.04" transform="translate(-1524.91 2144.8) rotate(-57.71)"/><path class="cls-13" d="M2606.72,1313.85a6.31,6.31,0,0,1-5.8-8.83l8.75-20.28a20.22,20.22,0,0,0,1.66-7.89l1-121.79a6.32,6.32,0,0,1,6.32-6.28h.05a6.32,6.32,0,0,1,6.27,6.38L2624,1277a32.82,32.82,0,0,1-2.69,12.8l-8.75,20.28A6.32,6.32,0,0,1,2606.72,1313.85Z" transform="translate(-1344.57 -573.4)"/><rect class="cls-13" x="2588.16" y="1303.16" width="28.54" height="35.8" rx="4.57" transform="translate(-888.8 -1229.63) rotate(15.73)"/><path class="cls-10" d="M1229,479.51h68.94a21.13,21.13,0,0,1,21.13,21.13v64.48a0,0,0,0,1,0,0h-68.94A21.13,21.13,0,0,1,1229,544V479.51A0,0,0,0,1,1229,479.51Z"/><rect class="cls-6" x="1263.24" y="557.95" width="20.91" height="22.64"/><rect class="cls-8" x="1257.43" y="543.97" width="32.54" height="13.98"/><circle class="cls-6" cx="2618.76" cy="1092.75" r="30.68" transform="translate(-1563.4 511.94) rotate(-22.5)"/><circle class="cls-13" cx="2618.76" cy="1092.75" r="10.56" transform="translate(-1350.24 1598.4) rotate(-45)"/><circle class="cls-13" cx="2668.65" cy="1192.26" r="22.21" transform="translate(-449.41 2942.19) rotate(-76.72)"/><circle class="cls-14" cx="2668.65" cy="1192.26" r="15.15" transform="translate(-1597.69 538.6) rotate(-22.5)"/><circle class="cls-13" cx="2732.03" cy="1192.26" r="22.21" transform="translate(-1387.43 1707.64) rotate(-45)"/><circle class="cls-14" cx="2732.03" cy="1192.26" r="15.15" transform="translate(-1592.86 562.86) rotate(-22.5)"/><rect class="cls-8" x="1380.63" y="656.97" width="17.92" height="125.96"/><rect class="cls-6" x="1384.46" y="660.25" width="10.26" height="119.4"/><rect class="cls-10" x="1374.57" y="721.18" width="29.79" height="16.16"/><rect class="cls-8" x="1326.92" y="656.97" width="17.92" height="125.96"/><rect class="cls-6" x="1330.76" y="660.25" width="10.26" height="119.4"/><rect class="cls-10" x="1320.87" y="672.79" width="29.79" height="16.16"/><path class="cls-2" d="M1619.94,903.63H1547.4V861.45h72.54Zm-70.36-2.17h68.19V863.63h-68.19Z" transform="translate(-1344.57 -573.4)"/><path class="cls-2" d="M1596.72,897.68a16.56,16.56,0,1,1,16.56-16.55A16.58,16.58,0,0,1,1596.72,897.68Zm0-30.93a14.38,14.38,0,1,0,14.38,14.38A14.39,14.39,0,0,0,1596.72,866.75Z" transform="translate(-1344.57 -573.4)"/><path class="cls-2" d="M1573.32,897.82a4.64,4.64,0,1,1,4.63-4.64A4.64,4.64,0,0,1,1573.32,897.82Zm0-7.1a2.46,2.46,0,1,0,2.46,2.46A2.46,2.46,0,0,0,1573.32,890.72Z" transform="translate(-1344.57 -573.4)"/><path class="cls-2" d="M1558.09,897.82a4.64,4.64,0,1,1,4.63-4.64A4.63,4.63,0,0,1,1558.09,897.82Zm0-7.1a2.46,2.46,0,1,0,2.46,2.46A2.46,2.46,0,0,0,1558.09,890.72Z" transform="translate(-1344.57 -573.4)"/><path class="cls-2" d="M1613.13,863.49h-21v-8h21Zm-18.86-2.18H1611v-3.64h-16.69Z" transform="translate(-1344.57 -573.4)"/><rect class="cls-2" x="256.89" y="271.83" width="2.18" height="10.92"/><path class="cls-2" d="M1602.82,846.18a5.25,5.25,0,1,1,5.25-5.25A5.25,5.25,0,0,1,1602.82,846.18Zm0-8.32a3.07,3.07,0,1,0,3.08,3.07A3.08,3.08,0,0,0,1602.82,837.86Z" transform="translate(-1344.57 -573.4)"/><path class="cls-2" d="M2870.56,1409.69a13.26,13.26,0,0,1-5.87-1.59c-16.65-8.18-28.7-7.79-35.81,1.16l-2.37-1.88c8.11-10.21,21.41-10.89,39.51-2,5.07,2.49,7.1,1,10.46-1.51,3.16-2.34,7.1-5.26,14.57-5,15.11.61,21.56,8.51,21.83,8.85l-2.37,1.88c-.05-.07-5.94-7.16-19.58-7.71-6.41-.26-9.58,2.09-12.65,4.36C2876,1408,2873.72,1409.69,2870.56,1409.69Z" transform="translate(-1344.57 -573.4)"/><path class="cls-2" d="M2870.56,1430.85a13.36,13.36,0,0,1-5.87-1.58c-16.65-8.19-28.7-7.8-35.81,1.16l-2.37-1.88c8.11-10.22,21.41-10.89,39.51-2,5.07,2.49,7.1,1,10.46-1.51,3.16-2.34,7.1-5.25,14.57-5,15.11.61,21.56,8.51,21.83,8.85l-2.37,1.88c-.05-.06-5.94-7.16-19.58-7.71-6.41-.26-9.58,2.09-12.65,4.36C2876,1429.19,2873.72,1430.85,2870.56,1430.85Z" transform="translate(-1344.57 -573.4)"/><rect class="cls-15" x="178.05" y="671.08" width="611.47" height="331.77" rx="16.24"/><circle class="cls-16" cx="312" cy="860.12" r="97.73"/><circle class="cls-7" cx="312" cy="860.12" r="73.3"/><circle class="cls-16" cx="659.52" cy="860.12" r="97.73"/><circle class="cls-7" cx="659.52" cy="860.12" r="73.3"/><rect class="cls-17" x="383.48" y="688.44" width="200.61" height="82.94"/><rect class="cls-10" x="392.64" y="746.31" width="40.02" height="18.32"/><rect class="cls-16" x="392.64" y="724.55" width="40.02" height="18.32"/><rect class="cls-3" x="392.32" y="704.51" width="40.02" height="18.32"/><rect class="cls-10" x="533.13" y="746.31" width="40.02" height="18.32"/><rect class="cls-16" x="533.13" y="724.13" width="40.02" height="18.32"/><rect class="cls-3" x="533.13" y="701.94" width="40.02" height="18.32"/><rect class="cls-10" x="439.47" y="746.31" width="40.02" height="18.32"/><rect class="cls-16" x="439.47" y="724.13" width="40.02" height="18.32"/><rect class="cls-10" x="486.3" y="746.31" width="40.02" height="18.32"/><rect class="cls-17" x="428.8" y="801.77" width="28.45" height="142.26"/><rect class="cls-6" x="437.48" y="810.93" width="11.09" height="123.93"/><rect class="cls-10" x="431.46" y="841.55" width="23.15" height="8.92"/><rect class="cls-17" x="469.55" y="801.77" width="28.45" height="142.26"/><rect class="cls-6" x="478.23" y="810.93" width="11.09" height="123.93"/><rect class="cls-10" x="472.21" y="890.84" width="23.15" height="8.92"/><rect class="cls-17" x="508.99" y="801.77" width="28.45" height="142.26"/><rect class="cls-6" x="517.67" y="810.93" width="11.09" height="123.93"/><rect class="cls-10" x="511.64" y="866.2" width="23.15" height="8.92"/><circle class="cls-17" cx="343.93" cy="719.63" r="9.32"/><circle class="cls-17" cx="311.89" cy="719.63" r="9.32"/><rect class="cls-6" x="225.95" y="700.34" width="8.36" height="54.01"/><rect class="cls-17" x="213.73" y="714.48" width="32.79" height="16.4"/><rect class="cls-6" x="731.22" y="700.34" width="8.36" height="54.01"/><rect class="cls-17" x="719" y="729.27" width="32.79" height="16.4"/><rect class="cls-3" x="686.8" y="696.64" width="12.54" height="12.54"/><rect class="cls-17" x="686.8" y="726.22" width="12.54" height="12.54"/><rect class="cls-18" x="299.46" y="649.85" width="83.84" height="20.24"/><rect class="cls-18" x="583.92" y="649.85" width="83.84" height="20.24"/><polygon class="cls-6" points="350.59 648.88 323.5 648.88 323.5 577.51 638.74 577.51 638.74 647.92 611.65 647.92 611.65 604.6 350.59 604.6 350.59 648.88"/><path class="cls-19" d="M2179,1561.64a10.6,10.6,0,0,1-10.53-9.51c-5.84-56.41-80.29-54.25-184.84-45-11.64,1-23.16,2-34.36,2.88-20.5,1.53-27.38-7.09-29.53-14.6-2.79-9.71-9.31-32.43,120.68-148.67,61.21-54.74,130.56-109.87,140.11-114.89a10.6,10.6,0,0,1,9.9,18.75c-7,3.88-71,54-134.67,110.87-105.11,93.84-114.79,121.64-115.56,127.12a25.59,25.59,0,0,0,7.49.27c11.11-.83,22.54-1.84,34.08-2.85,93.45-8.24,199.36-17.57,207.79,64a10.61,10.61,0,0,1-9.45,11.64C2179.69,1561.62,2179.32,1561.64,2179,1561.64Z" transform="translate(-1344.57 -573.4)"/><rect class="cls-20" x="834.17" y="664.33" width="36.66" height="311.23"/><path class="cls-20" d="M752.08,975.56H952.91a7.83,7.83,0,0,1,7.83,7.83v19.84a0,0,0,0,1,0,0H744.26a0,0,0,0,1,0,0V983.39A7.83,7.83,0,0,1,752.08,975.56Z"/><path class="cls-21" d="M2289.47,1108.4v114.35a31.36,31.36,0,0,1-31.35,31.35H2151.3l28.59-145.7Z" transform="translate(-1344.57 -573.4)"/><path class="cls-22" d="M2117.18,1112.55v110.2a31.36,31.36,0,0,0,62.71,0V1108.4Z" transform="translate(-1344.57 -573.4)"/><circle class="cls-20" cx="803.97" cy="650.27" r="15.22"/><path class="cls-23" d="M2312,1098.26h0a121.72,121.72,0,0,0,65.19-159.32L2281.61,711a121.73,121.73,0,0,0-159.33-65.19h0L1956,715.56,2145.74,1168Z" transform="translate(-1344.57 -573.4)"/><path class="cls-21" d="M2195,1147.3l-98.61,41.35a68.24,68.24,0,0,1-89.34-36.55L1870.17,825.57a68.25,68.25,0,0,1,36.55-89.34l98.62-41.35a68.26,68.26,0,0,1,89.34,36.55L2231.6,1058A68.26,68.26,0,0,1,2195,1147.3Z" transform="translate(-1344.57 -573.4)"/><path class="cls-24" d="M2142.12,1105.5l-38.42,16.11a8.22,8.22,0,0,1-10.75-4.4l-130-310.13a8.21,8.21,0,0,1,4.4-10.76l38.42-16.11a8.22,8.22,0,0,1,10.75,4.4l130,310.13A8.21,8.21,0,0,1,2142.12,1105.5Z" transform="translate(-1344.57 -573.4)"/><path class="cls-24" d="M2213.15,739.73a121.19,121.19,0,0,0-54.07-59.82l-35.86,15a121.15,121.15,0,0,1,54.07,59.82l95.57,227.91a121.45,121.45,0,0,1,9.47,46l35.86-15a121.49,121.49,0,0,0-9.47-46Z" transform="translate(-1344.57 -573.4)"/><path class="cls-24" d="M1896.61,871.25h59.85a3.78,3.78,0,0,1,3.78,3.78v19.18a3.78,3.78,0,0,1-3.78,3.78h-59.85a0,0,0,0,1,0,0V871.25A0,0,0,0,1,1896.61,871.25Z" transform="translate(-1536.63 241.13) rotate(-22.75)"/><rect class="cls-24" x="2061.67" y="795.56" width="94.52" height="26.74" rx="3.78" transform="translate(-1493.32 305.04) rotate(-22.75)"/><path class="cls-24" d="M2266.83,724.72h25.88a0,0,0,0,1,0,0v26.74a0,0,0,0,1,0,0h-25.88a3.78,3.78,0,0,1-3.78-3.78V728.5a3.78,3.78,0,0,1,3.78-3.78Z" transform="matrix(0.92, -0.39, 0.39, 0.92, -1452.78, 364.86)"/><path class="cls-24" d="M1925.32,939.71h59.85a3.78,3.78,0,0,1,3.78,3.78v19.18a3.78,3.78,0,0,1-3.78,3.78h-59.85a0,0,0,0,1,0,0V939.71A0,0,0,0,1,1925.32,939.71Z" transform="translate(-1560.87 257.56) rotate(-22.75)"/><rect class="cls-24" x="2090.37" y="864.02" width="94.52" height="26.74" rx="3.78" transform="translate(-1517.56 321.47) rotate(-22.75)"/><path class="cls-24" d="M2295.53,793.18h25.88a0,0,0,0,1,0,0v26.74a0,0,0,0,1,0,0h-25.88a3.78,3.78,0,0,1-3.78-3.78V797a3.78,3.78,0,0,1,3.78-3.78Z" transform="translate(-1477.02 381.29) rotate(-22.75)"/><path class="cls-24" d="M1954,1008.17h59.85a3.78,3.78,0,0,1,3.78,3.78v19.18a3.78,3.78,0,0,1-3.78,3.78H1954a0,0,0,0,1,0,0v-26.74A0,0,0,0,1,1954,1008.17Z" transform="translate(-1585.11 273.98) rotate(-22.75)"/><rect class="cls-24" x="2119.08" y="932.48" width="94.52" height="26.74" rx="3.78" transform="translate(-1541.8 337.89) rotate(-22.75)"/><path class="cls-24" d="M2324.24,861.64h25.88a0,0,0,0,1,0,0v26.74a0,0,0,0,1,0,0h-25.88a3.78,3.78,0,0,1-3.78-3.78V865.42a3.78,3.78,0,0,1,3.78-3.78Z" transform="translate(-1501.26 397.72) rotate(-22.75)"/><path class="cls-24" d="M1982.73,1076.63h59.85a3.78,3.78,0,0,1,3.78,3.78v19.18a3.78,3.78,0,0,1-3.78,3.78h-59.85a0,0,0,0,1,0,0v-26.74A0,0,0,0,1,1982.73,1076.63Z" transform="translate(-1609.35 290.41) rotate(-22.75)"/><rect class="cls-24" x="2147.78" y="1000.94" width="94.52" height="26.74" rx="3.78" transform="translate(-1566.04 354.32) rotate(-22.75)"/><path class="cls-24" d="M2352.95,930.1h25.88a0,0,0,0,1,0,0v26.74a0,0,0,0,1,0,0h-25.88a3.78,3.78,0,0,1-3.78-3.78V933.88A3.78,3.78,0,0,1,2352.95,930.1Z" transform="translate(-1525.5 414.14) rotate(-22.75)"/><path class="cls-25" d="M1562,1361.13s1.28,17.6-6.44,30.48-15.89,43.35-14.17,79.84,8.59,83,5.87,87a32.29,32.29,0,0,0-3.71,6.9l1,3.83s6.44,2.43,6.87,2.43,8.58,1.43,9.44,0,5.72-4.29,5.72-4.29.58-3.29.58-4.29-2.71-8.87-2.71-8.87c-3.73-7.88,9.36-102.67,12.36-113s26.62-73.19,26.62-73.19l-16.1-26.62Z" transform="translate(-1344.57 -573.4)"/><path class="cls-26" d="M1564.41,1554.16c-2.06,1.45-2.58,3.4-3.71,7.79-1.31,5.12-11.81,6.53-17.18,3.4a34.48,34.48,0,0,0-.42,10c.29.86,56.09,0,56.09,0C1596,1570.77,1569.4,1557.68,1564.41,1554.16Z" transform="translate(-1344.57 -573.4)"/><path class="cls-27" d="M1573.84,1350.69s10.88,34.62,4.58,57.23-5.44,50.94,2.58,81.56,20.31,66.1,15.74,69.25-4,15.74-3.73,16.6,56.09,0,56.09,0c-3.43-4.86-33.48-19.46-35.48-21.75s-7.15-131.07.86-141.08,8.87-56.09,8.87-56.09l-23.47-72.4-20.32,7.15Z" transform="translate(-1344.57 -573.4)"/><path class="cls-28" d="M1565.4,1189.43c-21,33-20.18,66.53-12,105.17s2.15,78.12,2.15,78.12c7.72,4.72,24.46,3.86,24.46,3.86,2.58-11.16,7.3-56.66,7.3-56.66.86,15,4.72,57.52,4.72,57.52,8.59-2.57,35.63,3,44.22-4.29-3.87-64,8.58-103.88,3.86-144.23s-6.22-39.49-6.22-39.49Z" transform="translate(-1344.57 -573.4)"/><path class="cls-26" d="M1570.55,1177.19c-2.58,6.87-5.15,12.24-5.15,12.24,34.13,8.8,68.47,0,68.47,0l-2.58-9.66Z" transform="translate(-1344.57 -573.4)"/><path class="cls-21" d="M1709.42,1015.79v19.84c32.83,1.08,48.5,19.11,48.5,19.11v-58S1742.25,1014.72,1709.42,1015.79Z" transform="translate(-1344.57 -573.4)"/><path class="cls-21" d="M1704.48,1037.18c-5,25.9,7.58,35.92,7.58,35.92l-17.6,8.3c-10.3-10.3-13.73-34.49-13.59-43.93C1690.74,1034.47,1704.48,1037.18,1704.48,1037.18Z" transform="translate(-1344.57 -573.4)"/><path class="cls-21" d="M318.43,444.25h11.94a0,0,0,0,1,0,0v15.6a0,0,0,0,1,0,0H318.43a4.37,4.37,0,0,1-4.37-4.37v-6.85A4.37,4.37,0,0,1,318.43,444.25Z"/><rect class="cls-15" x="327.86" y="439.32" width="39.06" height="26.61" rx="5.61"/><path class="cls-10" d="M1586.33,1049.27c-21.79,5.8-32.09,31.13-24.36,61.17s8.58,65.25,6.43,69.54c25.33,9.88,63.53,1.29,63.53,1.29l-.85-21.46s28.33,17.6,45.93,7.73,20.6-68.69,20.6-84.14l-.86-6.87-17-2.79-.86,5.58c-8.16,19.75-18.67,44.65-19.53,44.65-13.52-3-26.4-15.89-31.77-28.12s-14.91-24-14.91-24S1592.23,1049.49,1586.33,1049.27Z" transform="translate(-1344.57 -573.4)"/><path class="cls-26" d="M1577.85,979.52c-13.31,9.87-8.8,25.11,4.93,33.91s5.16,17.39,4.51,17.39a8.57,8.57,0,0,0,5.8-.86,13.93,13.93,0,0,1-2.36,2.79,11.11,11.11,0,0,0,4.93-2.68l14.6-.76s11.37-20.82,11.59-21.67,15.24-6.23,15-7.09c-1.5-6.22,2.15-14.59.86-23.39s-9.44-16.31-17.39-11.81C1595.66,962.13,1584.5,966.86,1577.85,979.52Z" transform="translate(-1344.57 -573.4)"/><path class="cls-27" d="M1623.78,972.54c7,8.38,9.12,8.91,9.76,14.6s1.08,9,2.15,10.73,8.48,4.94,8,5.69-5.58,4.83-6,5.58a1.88,1.88,0,0,0,1,2.47c1.07,1.39-.51,3.28-.51,3.28s-1.64,4.44-1.32,4.44,1.4,2.47.22,3.55-1.4,3.32-.86,5.9-.11,4.29-3.44,4.61-7.94,0-11,1.5-8,8.16-9.55,17.17.86,20.29.54,19.75c-17.82-18.14-26.4-22.54-26.4-22.54,6.33-7.51,9.33-19.2,9.33-19.2,6.66-4.08,7.08-14.06,6.44-14.17-4.83-2.47-7.62-10.2-3.43-13.31s8.69.54,9.33,4c3.54.22,1.61-15.88.54-18.88A59.12,59.12,0,0,0,1623.78,972.54Z" transform="translate(-1344.57 -573.4)"/><path class="cls-29" d="M1636.87,1019.33c-.32,0,1.32-4.44,1.32-4.44s1.58-1.89.51-3.28c-6.07,1.82-12.4,4.77-14.06,3.86,2.5,3.56,7.73,7.7,12.63,7.2A3,3,0,0,0,1636.87,1019.33Z" transform="translate(-1344.57 -573.4)"/><path class="cls-26" d="M1629,998.19c0,2.2-.92,4-2,4s-2-1.77-2-4,.91-4,2-4S1629,996,1629,998.19Z" transform="translate(-1344.57 -573.4)"/><path class="cls-26" d="M1619.92,993.85a35.92,35.92,0,0,1,10.57-5.74C1623.4,987.41,1620.29,992,1619.92,993.85Z" transform="translate(-1344.57 -573.4)"/><path class="cls-30" d="M1605.45,1015.49a2.69,2.69,0,0,1-2.77-1.81c-.34-1.24.35-3.1,3.38-4.35a5.11,5.11,0,0,0-3.63-3.92,2.14,2.14,0,0,0-2.36,1.13.38.38,0,1,1-.66-.38,2.88,2.88,0,0,1,3.15-1.5,5.89,5.89,0,0,1,4.32,4.84.39.39,0,0,1-.24.43c-2.63,1-3.51,2.5-3.22,3.55s1.37,1.42,2.69,1.18a.39.39,0,0,1,.14.76A4.4,4.4,0,0,1,1605.45,1015.49Z" transform="translate(-1344.57 -573.4)"/><path class="cls-30" d="M1620.88,1033.88h-.07c-.12,0-12.08-2.33-15.22-13.8a.39.39,0,0,1,.27-.47.37.37,0,0,1,.47.27c3,11,14.5,13.22,14.62,13.24a.38.38,0,0,1-.07.76Z" transform="translate(-1344.57 -573.4)"/><path class="cls-31" d="M1627.07,1155.61a.42.42,0,0,1-.21-.06c-.33-.21-33.39-21.34-48.69-34.37a.38.38,0,0,1,.5-.58c15.26,13,48.27,34.09,48.61,34.31a.38.38,0,0,1,.11.53A.37.37,0,0,1,1627.07,1155.61Z" transform="translate(-1344.57 -573.4)"/><path class="cls-31" d="M1610.47,1076.92a.37.37,0,0,1-.32-.18c-2.71-4.15-9.49-9.22-18-10.57-7.74-1.23-15.39,1-22.1,6.37a.39.39,0,0,1-.49-.6c6.9-5.54,14.75-7.79,22.72-6.53,8.7,1.38,15.68,6.63,18.48,10.91a.37.37,0,0,1-.11.53A.33.33,0,0,1,1610.47,1076.92Z" transform="translate(-1344.57 -573.4)"/><path class="cls-31" d="M1659.69,1141.31a.41.41,0,0,1-.18,0,.38.38,0,0,1-.15-.53c1.5-2.7,1.54-6,1.57-8.33s0-3.88,1.34-3.88c2.19,0,4,6.67,4.38,8a.38.38,0,0,1-.28.47.39.39,0,0,1-.47-.28c-.8-3.08-2.46-7.43-3.63-7.43-.54,0-.56,1.51-.58,3.12,0,2.45-.06,5.82-1.66,8.7A.4.4,0,0,1,1659.69,1141.31Z" transform="translate(-1344.57 -573.4)"/><path class="cls-31" d="M1695.46,1083.21h-.08l-14.6-3.43a.39.39,0,0,1-.28-.46.38.38,0,0,1,.46-.29l14.59,3.43a.38.38,0,0,1-.09.76Z" transform="translate(-1344.57 -573.4)"/><path class="cls-31" d="M1588.72,1316.44a.38.38,0,0,1-.38-.38c0-.06,0-1.61-1.71-10.81-2.16-11.86-9.65-88.07,3.19-109.3a.39.39,0,1,1,.66.4c-12.74,21.05-5.25,96.94-3.1,108.77,1.71,9.37,1.73,10.88,1.73,10.94A.39.39,0,0,1,1588.72,1316.44Z" transform="translate(-1344.57 -573.4)"/><path class="cls-31" d="M1589.58,1214.88l-3.87,0a.39.39,0,0,1-.38-.39.41.41,0,0,1,.39-.38c19.37.28,19.37-.35,19.62-16.49l0-1.44a.38.38,0,1,1,.76,0l0,1.44C1605.88,1212.7,1605.84,1214.88,1589.58,1214.88Z" transform="translate(-1344.57 -573.4)"/><path class="cls-32" d="M1625.07,1016.06c4.4,2.68,11.8,3.27,11.8,3.27l1.18-4.13S1628.77,1016.87,1625.07,1016.06Z" transform="translate(-1344.57 -573.4)"/><path class="cls-26" d="M1629.92,1016.75a18.72,18.72,0,0,1-5.87-.72.38.38,0,1,1,.32-.69c1.2.54,8.43,1.39,13.32-.65a.38.38,0,0,1,.5.2.39.39,0,0,1-.21.51A21.76,21.76,0,0,1,1629.92,1016.75Z" transform="translate(-1344.57 -573.4)"/><path class="cls-32" d="M1607.57,1019.23a4,4,0,1,1-4-4A4,4,0,0,1,1607.57,1019.23Z" transform="translate(-1344.57 -573.4)"/><path class="cls-27" d="M1679.8,1073.74c.35-5.51-1.65-8.08-3.65-13.81s.86-11,2.14-16.45-.28-8.87-.28-8.87c5.86,1.29,7.44,3.72,6.44,8.58s1,5.15,11.59,5.15,17.6.43,15.74,3.3-5.3,2.71-5.15,4.86,1.57,1.43.71,5-10.73,8.58-10.59,15C1688.31,1077.25,1679.8,1073.74,1679.8,1073.74Z" transform="translate(-1344.57 -573.4)"/><rect class="cls-33" x="336.73" y="442.96" width="13.09" height="5.22" rx="1.46"/><rect class="cls-33" x="351.73" y="442.96" width="5.22" height="5.22" rx="1.46"/><rect class="cls-22" x="412.93" y="421.14" width="7.08" height="62.46" rx="1.99"/><path class="cls-33" d="M1723.69,1017.07a64.6,64.6,0,0,0,15.38-4.73,3.14,3.14,0,0,1,4.39,2.79h0a3.14,3.14,0,0,1-3.09,3.22c-5.28.08-13.57.54-16.48.71a1,1,0,0,1-1.06-1h0A1,1,0,0,1,1723.69,1017.07Z" transform="translate(-1344.57 -573.4)"/><path class="cls-33" d="M1753.52,1013.43a4.08,4.08,0,1,1-4.08-4.08A4.08,4.08,0,0,1,1753.52,1013.43Z" transform="translate(-1344.57 -573.4)"/><path class="cls-24" d="M1799.34,1018c-.25,0-.49,0-.73,0a6.28,6.28,0,0,1-4.65-2.78c-3-4.19-5.49-5.49-17.14-.35a.56.56,0,0,1-.73-.28.55.55,0,0,1,.28-.72c11.8-5.21,15.11-4,18.49.72a5.21,5.21,0,0,0,3.86,2.32c2.85.28,6.54-1.49,10.12-4.87a.55.55,0,1,1,.75.8C1806,1016.22,1802.41,1018,1799.34,1018Z" transform="translate(-1344.57 -573.4)"/><path class="cls-24" d="M1799.34,1029.56c-.25,0-.49,0-.73,0a6.31,6.31,0,0,1-4.65-2.78c-3-4.19-5.49-5.5-17.14-.35a.56.56,0,0,1-.73-.28.55.55,0,0,1,.28-.72c11.8-5.21,15.11-4.05,18.49.72a5.17,5.17,0,0,0,3.86,2.31c2.85.29,6.54-1.48,10.12-4.86a.55.55,0,1,1,.75.8C1806,1027.74,1802.41,1029.56,1799.34,1029.56Z" transform="translate(-1344.57 -573.4)"/><path class="cls-24" d="M1799.34,1041.08a5.85,5.85,0,0,1-.73,0,6.27,6.27,0,0,1-4.65-2.77c-3-4.2-5.49-5.5-17.14-.35a.56.56,0,0,1-.73-.28.55.55,0,0,1,.28-.72c11.8-5.21,15.11-4.06,18.49.72a5.2,5.2,0,0,0,3.86,2.31c2.85.29,6.54-1.49,10.12-4.86a.55.55,0,0,1,.78,0,.54.54,0,0,1,0,.77C1806,1039.26,1802.41,1041.08,1799.34,1041.08Z" transform="translate(-1344.57 -573.4)"/><rect class="cls-28" x="232.64" y="607.76" width="3.97" height="12.99"/><rect class="cls-28" x="269.66" y="607.98" width="3.97" height="12.99"/><path class="cls-26" d="M1614.32,1554.16c-2.06,1.45-2.58,3.4-3.71,7.79-1.31,5.12-11.81,6.53-17.18,3.4a34.87,34.87,0,0,0-.42,10c.29.86,56.09,0,56.09,0C1645.89,1570.77,1619.32,1557.68,1614.32,1554.16Z" transform="translate(-1344.57 -573.4)"/><path class="cls-27" d="M2260.89,1110.44c-2.34,5.13-2.45,11.56.11,18.09s3.39,13.54,2.69,17.86l-78.56,2.8c6.77-12.37,29.18-18,41.79-25.21s11.67-17.28,11.67-17.28Z" transform="translate(-1344.57 -573.4)"/><path class="cls-26" d="M2261.92,1131.1c-6.13,3.82-18.92,9.61-32.2,2.22-.28-1.41-.49-4.69-4.8-8.25-12.85,6.73-33.37,12.38-39.79,24.12l78.56-2.8C2264.3,1142.63,2263.76,1136.84,2261.92,1131.1Z" transform="translate(-1344.57 -573.4)"/><path class="cls-27" d="M2334,1135.42c-2.33,5.14-2.45,11.56.12,18.09s3.39,13.55,2.69,17.86l-78.57,2.81c6.77-12.38,29.19-18,41.79-25.22s11.68-17.28,11.68-17.28Z" transform="translate(-1344.57 -573.4)"/><path class="cls-28" d="M2493.39,924.75c5.91,37.67,3.42,77.51-26.15,86.23s-98.06-6.54-98.68,6.54-4,36.73-13.08,64.12-20.23,60.08-20.23,60.08c-27.08,1.25-29.89-2.8-29.89-2.8s-3.73-101.17-3.42-100.23c-9.34,23.34-35.18,80.62-39.22,82.8-13.08-.31-31.44-12.76-31.13-23,15.25-52.29,32.37-143.5,62.88-151.28s102.41-10,102.41-10L2470,912.92Z" transform="translate(-1344.57 -573.4)"/><path class="cls-34" d="M2438,764.12c-16.81,7.79-56,36.74-63.82,35.8S2309,777.36,2309,777.36l19.28,43s17.56,18.74,35.31,24.65,42-6.54,42-6.54l-10.27,17.75-63.19-13.08-4.36,23.35s55.41,43,76.58,40.16c-7.79,26.15-7.48,30.5-7.48,30.5,16.19,3.74,7.79,6.54,49.5,1.87s49.18-10.27,50.12-10.27c12.45-17.12,8.09-64.13,9.34-91.52s-22.73-71.6-27.09-78.14a71.13,71.13,0,0,1-6.84-13.38Z" transform="translate(-1344.57 -573.4)"/><path class="cls-27" d="M2481.05,716.46c1.91,10.15-7.74,13.58-8.52,14a16.7,16.7,0,0,0-.62,15.26c-10.59,14.47-38.14,24.59-38.14,24.59,9-14.63,5.14-23,5.14-23s24.44-39.37,24.75-40.31,9-3.73,9-3.73l6.23,5.13Z" transform="translate(-1344.57 -573.4)"/><path class="cls-26" d="M2440.47,678.13a2.26,2.26,0,0,1-.63-3.81c-2.45-7.59,7.71-5.61,16.7-2.11s27.31,13.9,28.95,24.4-4.44,19.85-4.44,19.85c-9.57-7.71-12.72,2-15.18,11.67s-18.09,23.93-31,23.93-18.91-4.08-18.91-7.24,7.28-19.76,7.28-19.76l10.7-26.93Z" transform="translate(-1344.57 -573.4)"/><path class="cls-27" d="M2422.48,726.7c-.77,1.79-2,4.8-3.26,7.9,28.09,3.5,24.38-11.7,21.56-11S2429.32,727.52,2422.48,726.7Z" transform="translate(-1344.57 -573.4)"/><path class="cls-27" d="M2440.47,678.13c-4.75,6.38-10.74,14.79-10.9,18.52s1,8.41,0,9.88-12.45,8.72-12.22,9.66,6.07,3.26,6.07,3.73-.23,5.14-.23,5.14c4.51,1.09,7.63,1.16,11.44-3.82s7.78-4.9,14.79-4.51,10.19-8.33,10.19-8.33c-4.82-.85-5.29-1.94-2.88-6.15s1.63-11.36,3-12.76C2452.61,688.79,2445.37,677,2440.47,678.13Z" transform="translate(-1344.57 -573.4)"/><path class="cls-26" d="M2439.92,706.15c0,2.1-.84,3.81-1.87,3.81s-1.86-1.71-1.86-3.81.83-3.82,1.86-3.82S2439.92,704,2439.92,706.15Z" transform="translate(-1344.57 -573.4)"/><path class="cls-26" d="M2428.54,730a34.53,34.53,0,0,1-6.06-.55.48.48,0,0,1-.38-.56.46.46,0,0,1,.55-.38c8.85,1.59,14.25-.87,14.31-.9a.47.47,0,0,1,.63.23.49.49,0,0,1-.23.64A22.35,22.35,0,0,1,2428.54,730Z" transform="translate(-1344.57 -573.4)"/><path class="cls-30" d="M2471,726.62a.48.48,0,0,1,0-1c2.13-.18,3.66-1,4.2-2.29a2.33,2.33,0,0,0-.32-2.41,3.24,3.24,0,0,0-3.28-.89.48.48,0,0,1-.57-.47,5.72,5.72,0,0,1,2.58-4.41,3.49,3.49,0,0,1,3.62,0,.48.48,0,0,1-.47.84,2.52,2.52,0,0,0-2.67,0,4.9,4.9,0,0,0-2,3,4,4,0,0,1,3.57,1.32,3.3,3.3,0,0,1,.46,3.39c-.69,1.61-2.51,2.65-5,2.86Z" transform="translate(-1344.57 -573.4)"/><path class="cls-31" d="M2410.58,843.05a.46.46,0,0,1-.29-.1.48.48,0,0,1-.09-.67c.12-.16,12.26-16.19,25.16-46a.48.48,0,0,1,.63-.25.48.48,0,0,1,.24.63c-12.94,29.9-25.15,46-25.27,46.17A.49.49,0,0,1,2410.58,843.05Z" transform="translate(-1344.57 -573.4)"/><path class="cls-31" d="M2400.62,872.31a.5.5,0,0,1-.36-.16c-.09-.11-2.3-2.7-2.3-9a9.82,9.82,0,0,0-.06-1.32,42.33,42.33,0,0,0-1.7,4c-.65,1.67-1.33,3.39-2,4.73a.48.48,0,0,1-.86-.43c.66-1.3,1.33-3,2-4.65,1.59-4,2.08-5,2.85-4.88.57.1.76.76.76,2.59,0,5.93,2,8.38,2.06,8.4a.47.47,0,0,1-.05.67A.47.47,0,0,1,2400.62,872.31Z" transform="translate(-1344.57 -573.4)"/><path class="cls-31" d="M2412.76,904.68a.48.48,0,0,1-.44-.29.47.47,0,0,1,.26-.62c11.6-4.89,57-51.41,57.43-51.88a.47.47,0,0,1,.68.66c-1.87,1.93-46,47.14-57.74,52.1A.63.63,0,0,1,2412.76,904.68Z" transform="translate(-1344.57 -573.4)"/><path class="cls-31" d="M2445.13,783a.46.46,0,0,1-.22-.06.48.48,0,0,1-.19-.65c3.68-6.78,15.46-12.34,25.73-12.12,7.88.16,13.85,3.59,16.83,9.65a.48.48,0,0,1-.86.42c-2.81-5.73-8.49-9-16-9.12-9.95-.2-21.34,5.12-24.88,11.63A.47.47,0,0,1,2445.13,783Z" transform="translate(-1344.57 -573.4)"/><path class="cls-31" d="M2410.27,837.76h0a.48.48,0,0,1-.46-.5c0-.19.81-19.51,16.85-56.52a.48.48,0,0,1,.88.38c-16,36.82-16.77,56-16.77,56.17A.48.48,0,0,1,2410.27,837.76Z" transform="translate(-1344.57 -573.4)"/><path class="cls-31" d="M2374.47,815.65a.47.47,0,0,1-.47-.4,37,37,0,0,1,0-9.47,4.61,4.61,0,0,0,0-1.61c-.56.29-2,2.12-5.65,8.75a.47.47,0,0,1-.65.18.46.46,0,0,1-.18-.64c4.49-8.17,5.86-9.55,6.81-9.25.78.25.75,1.43.62,2.68a37.85,37.85,0,0,0,0,9.21.47.47,0,0,1-.39.55Z" transform="translate(-1344.57 -573.4)"/><path class="cls-31" d="M2462.88,965.39h0a9.15,9.15,0,0,1-7.4-5.08c-2.14-4.17-1.51-9.73,1.74-15.24a.46.46,0,0,1,.65-.17.47.47,0,0,1,.17.65c-3.08,5.23-3.7,10.45-1.71,14.32a8.19,8.19,0,0,0,6.63,4.57.48.48,0,0,1,0,1Z" transform="translate(-1344.57 -573.4)"/><path class="cls-31" d="M2327.47,1131h-.13a.48.48,0,0,1-.33-.59c.24-.92,24.87-91.91,24.26-105.07-.17-3.73-.56-6.65-.88-9-.8-6-1.13-8.41,4.67-9.86,1.7-.43,2.67-.91,2.87-1.43s-.33-1.27-.93-2.16c-.93-1.4-2.1-3.13-1.68-5.37.24-1.27,3-3,21.49-5.88,12.09-1.91,27.69-3.84,41.47-5.54,13.47-1.67,25.1-3.11,31.13-4.22,19.66-3.6,24.15-20.33,26.07-37.87a.48.48,0,0,1,.95.1c-2,17.91-6.57,35-26.85,38.71-6,1.11-17.7,2.55-31.19,4.22-13.76,1.71-29.36,3.64-41.44,5.54-18.35,2.9-20.58,4.54-20.69,5.11-.35,1.86.65,3.35,1.54,4.67.74,1.11,1.39,2.07,1,3s-1.42,1.48-3.53,2c-5,1.24-4.75,2.84-3.95,8.8.31,2.37.71,5.31.88,9.08.62,13.31-23.28,101.61-24.29,105.36A.48.48,0,0,1,2327.47,1131Z" transform="translate(-1344.57 -573.4)"/><path class="cls-31" d="M2358.28,1012.39a.48.48,0,0,1,0-.95c.08,0,7.74,0,9.83-.61.15,0,.17-.09.18-.11.21-.59-1.17-2.6-2.39-4.38a45.83,45.83,0,0,1-3.37-5.42.47.47,0,0,1,.21-.64.48.48,0,0,1,.64.21,46.46,46.46,0,0,0,3.3,5.31c1.9,2.76,2.87,4.24,2.51,5.24a1.16,1.16,0,0,1-.81.71C2366.16,1012.38,2358.6,1012.39,2358.28,1012.39Z" transform="translate(-1344.57 -573.4)"/><path class="cls-31" d="M2305.05,1034.18h0a.47.47,0,0,1-.44-.5c.11-1.85,2.86-45.35,7.51-55.58s80.81-31.73,84-32.64a.48.48,0,1,1,.26.92c-.79.22-78.91,22.16-83.43,32.11s-7.4,54.79-7.43,55.24A.48.48,0,0,1,2305.05,1034.18Z" transform="translate(-1344.57 -573.4)"/><path class="cls-26" d="M2433.89,694.51c10.1,3.33,12.55,6.36,12.55,6.36C2438.15,690,2434.24,692.82,2433.89,694.51Z" transform="translate(-1344.57 -573.4)"/><path class="cls-27" d="M2330.27,839.46c-1.87-10.59-6.85-11.52-12.45-15.57s-7.48-10.58-9-10.89c-3.74,2.49-2.18,8.4,1.55,12.76s-19.61-11.52-23-11.21,20.54,22.42,9.65,17.13-22.73-13.7-24-9.34,4.36,5.91,1.87,6.84c-3.74,2.18,13.69,17.44,10.89,16.5s-14-7.47-9.34-1.24,30.82,16.5,39.23,18.36a71.51,71.51,0,0,1,12.14,3.74C2341.79,859.07,2337.12,846.31,2330.27,839.46Z" transform="translate(-1344.57 -573.4)"/><path class="cls-26" d="M2335,1156.08c-6.12,3.82-18.92,9.61-32.19,2.22-.29-1.41-.49-4.69-4.81-8.25-12.85,6.74-33.36,12.38-39.79,24.13l78.57-2.81C2337.38,1167.62,2336.83,1161.82,2335,1156.08Z" transform="translate(-1344.57 -573.4)"/></g></g></svg>