<svg id="Layer_1" data-name="Layer 1" xmlns="http://www.w3.org/2000/svg" xmlns:xlink="http://www.w3.org/1999/xlink" viewBox="0 0 2689.09 2152.29"><defs><style>.cls-1{opacity:0.41;fill:url(#linear-gradient);}.cls-2,.cls-4{fill:#c5e7e8;}.cls-2,.cls-3{opacity:0.59;}.cls-5{fill:#e4eff3;}.cls-6{fill:#96d0d2;}.cls-7{fill:#002144;}.cls-8{fill:#fff5fe;}.cls-9{fill:#ffe8fd;}.cls-10,.cls-27{fill:#fff;}.cls-11{fill:#fe99b7;}.cls-12{fill:#005f7b;}.cls-13{fill:url(#linear-gradient-2);}.cls-14{fill:url(#linear-gradient-3);}.cls-15{fill:url(#linear-gradient-4);}.cls-16,.cls-23{fill:#ffcb5b;}.cls-17{fill:#ffe8b5;}.cls-18{fill:url(#linear-gradient-5);}.cls-19{fill:#ffb691;}.cls-20{fill:url(#linear-gradient-6);}.cls-21{fill:#eb9d76;}.cls-22{fill:url(#linear-gradient-7);}.cls-23{opacity:0.38;}.cls-24{fill:url(#New_Gradient_Swatch_1);}.cls-25{fill:url(#New_Gradient_Swatch_1-2);}.cls-26{fill:url(#New_Gradient_Swatch_1-3);}.cls-27{opacity:0.74;}.cls-28{fill:url(#linear-gradient-8);}.cls-29{fill:#00324b;}.cls-30{fill:url(#linear-gradient-9);}.cls-31{fill:#ffa302;}.cls-32{fill:#fe688e;}</style><linearGradient id="linear-gradient" x1="1897.87" y1="1165.82" x2="344.73" y2="1500.74" gradientUnits="userSpaceOnUse"><stop offset="0" stop-color="#c5e7e8"/><stop offset="1" stop-color="#fff5fe"/></linearGradient><linearGradient id="linear-gradient-2" x1="2486.56" y1="2112.67" x2="2586.92" y2="2112.67" gradientUnits="userSpaceOnUse"><stop offset="0" stop-color="#fe99b7"/><stop offset="1" stop-color="#fe688e"/></linearGradient><linearGradient id="linear-gradient-3" x1="2208.5" y1="2058.11" x2="2438.53" y2="2058.11" xlink:href="#linear-gradient-2"/><linearGradient id="linear-gradient-4" x1="1661.09" y1="1492.73" x2="1812.9" y2="1492.73" gradientUnits="userSpaceOnUse"><stop offset="0" stop-color="#005f7b"/><stop offset="1" stop-color="#00324b"/></linearGradient><linearGradient id="linear-gradient-5" x1="2059.45" y1="1982.23" x2="2222.56" y2="1982.23" xlink:href="#linear-gradient-2"/><linearGradient id="linear-gradient-6" x1="2034.2" y1="1687.72" x2="1859.27" y2="1915.39" xlink:href="#linear-gradient-4"/><linearGradient id="linear-gradient-7" x1="1693.65" y1="1833.24" x2="1888.75" y2="1833.24" xlink:href="#linear-gradient-4"/><linearGradient id="New_Gradient_Swatch_1" x1="924.43" y1="531.13" x2="992.97" y2="531.13" gradientUnits="userSpaceOnUse"><stop offset="0" stop-color="#5d9c9e"/><stop offset="1" stop-color="#96d0d2"/></linearGradient><linearGradient id="New_Gradient_Swatch_1-2" x1="919.48" y1="511.96" x2="997.93" y2="511.96" xlink:href="#New_Gradient_Swatch_1"/><linearGradient id="New_Gradient_Swatch_1-3" x1="919.48" y1="522.69" x2="997.93" y2="522.69" xlink:href="#New_Gradient_Swatch_1"/><linearGradient id="linear-gradient-8" x1="556.46" y1="1891.05" x2="737.09" y2="1891.05" xlink:href="#linear-gradient-4"/><linearGradient id="linear-gradient-9" x1="414.42" y1="1653.05" x2="671.49" y2="1653.05" xlink:href="#linear-gradient-4"/></defs><title>writing</title><path class="cls-1" d="M957.2,592.93C680.63,664,419.65,802.49,293.25,920.29c-178.62,166.48-208.74,375.08,61.34,495.56,278.51,124.24-4,344.71,173.69,544.61,292.14,328.63,1093.59,58.15,1426.33-143.17,576.9-349,733.79-848.4,502.8-1073.32C2215.33,508.27,1564.18,436.88,957.2,592.93Z" transform="translate(-155.45 -240.95)"/><path class="cls-2" d="M2321.55,941.19a64.16,64.16,0,0,0-2.11-9.28l10.31-12.54a74.66,74.66,0,0,0-9.4-15.64L2304.4,907a62.38,62.38,0,0,0-15.21-11.27l-1.59-16.2a76.24,76.24,0,0,0-17.7-4.41l-9,13.55a61.86,61.86,0,0,0-18.74,2.8l-12.57-10.32a75.18,75.18,0,0,0-15.64,9.4l3.23,16a62.14,62.14,0,0,0-11.28,15.23l-16.17,1.59a73.84,73.84,0,0,0-4.43,17.7l13.54,9a62.54,62.54,0,0,0,2.81,18.76l-10.33,12.55a75.15,75.15,0,0,0,9.42,15.65l15.93-3.22a62.44,62.44,0,0,0,15.24,11.26l1.58,16.19a74.72,74.72,0,0,0,17.71,4.41l9-13.55a59.5,59.5,0,0,0,9.47-.68,61.08,61.08,0,0,0,9.28-2.12l12.56,10.33a76.14,76.14,0,0,0,15.64-9.4l-3.22-16A62.68,62.68,0,0,0,2315.17,979l16.2-1.58a76.11,76.11,0,0,0,4.41-17.73l-13.53-9A65.09,65.09,0,0,0,2321.55,941.19ZM2266,987.05a37.13,37.13,0,1,1,31.24-42.23A37.14,37.14,0,0,1,2266,987.05Z" transform="translate(-155.45 -240.95)"/><g class="cls-3"><path class="cls-4" d="M1221.93,1839a155.26,155.26,0,0,0-5.1-22.51l25-30.44a182.06,182.06,0,0,0-22.82-38l-38.7,7.82a151.26,151.26,0,0,0-36.93-27.36l-3.85-39.3a184.07,184.07,0,0,0-43-10.71l-21.83,32.88a150.88,150.88,0,0,0-45.49,6.8l-30.49-25a182.28,182.28,0,0,0-37.95,22.81l7.82,38.7a150.79,150.79,0,0,0-27.35,37l-39.25,3.84a179.74,179.74,0,0,0-10.76,43l32.87,21.78a151.11,151.11,0,0,0,6.81,45.54l-25.06,30.44a181.44,181.44,0,0,0,22.87,38l38.65-7.81a151.42,151.42,0,0,0,37,27.31l3.85,39.29a182.36,182.36,0,0,0,43,10.72L1073,2010.8a150.67,150.67,0,0,0,45.49-6.8l30.49,25.06a184.24,184.24,0,0,0,38-22.82l-7.82-38.7a152.41,152.41,0,0,0,27.32-36.92l39.29-3.85a183.86,183.86,0,0,0,10.71-43L1223.64,1862A154.22,154.22,0,0,0,1221.93,1839Zm-134.72,111.29A90.11,90.11,0,1,1,1163,1847.76,90.11,90.11,0,0,1,1087.21,1950.24Z" transform="translate(-155.45 -240.95)"/><circle class="cls-4" cx="1073.88" cy="1861.1" r="44.05" transform="translate(-1156.92 1063.5) rotate(-45)"/></g><g class="cls-3"><path class="cls-4" d="M1470,1763.84a83,83,0,0,0-2.72-12l13.35-16.24a97.46,97.46,0,0,0-12.17-20.26l-20.66,4.18a80.79,80.79,0,0,0-19.71-14.61l-2-21a98.27,98.27,0,0,0-22.93-5.72l-11.65,17.55a80.87,80.87,0,0,0-24.28,3.63L1350.85,1686a97.65,97.65,0,0,0-20.25,12.17l4.18,20.66a80.38,80.38,0,0,0-14.61,19.74l-20.94,2.05a96.12,96.12,0,0,0-5.75,22.93l17.55,11.62a81.25,81.25,0,0,0,3.63,24.31l-13.37,16.25a97.14,97.14,0,0,0,12.2,20.27l20.63-4.17a81,81,0,0,0,19.74,14.58l2.05,21a97.52,97.52,0,0,0,22.93,5.72l11.65-17.55a79.65,79.65,0,0,0,12.26-.89,78.28,78.28,0,0,0,12-2.75L1431,1865.3a98.3,98.3,0,0,0,20.25-12.18l-4.17-20.65a81.45,81.45,0,0,0,14.58-19.71l21-2a98.14,98.14,0,0,0,5.72-23l-17.53-11.62A81.45,81.45,0,0,0,1470,1763.84Zm-71.9,59.39a48.09,48.09,0,1,1,40.46-54.69A48.09,48.09,0,0,1,1398.05,1823.23Z" transform="translate(-155.45 -240.95)"/><circle class="cls-4" cx="1390.93" cy="1775.66" r="23.51" transform="translate(-828.53 2444.37) rotate(-75.71)"/></g><path class="cls-5" d="M2071.2,787.57h-923V428.84a30.54,30.54,0,0,1,30.54-30.54h892.5Z" transform="translate(-155.45 -240.95)"/><rect class="cls-6" x="1103.49" y="388.6" width="622.48" height="13.41" rx="6.7"/><path class="cls-6" d="M1874.72,580.39H1265.64a6.7,6.7,0,0,1-6.7-6.7h0a6.71,6.71,0,0,1,6.7-6.71h609.08a6.71,6.71,0,0,1,6.7,6.71h0A6.7,6.7,0,0,1,1874.72,580.39Z" transform="translate(-155.45 -240.95)"/><path class="cls-6" d="M1874.72,517.82H1265.64a6.7,6.7,0,0,1-6.7-6.7h0a6.7,6.7,0,0,1,6.7-6.7h609.08a6.7,6.7,0,0,1,6.7,6.7h0A6.7,6.7,0,0,1,1874.72,517.82Z" transform="translate(-155.45 -240.95)"/><rect class="cls-6" x="1856.55" y="156.49" width="118.39" height="462.51" rx="59.19"/><rect class="cls-7" x="628.41" y="514.65" width="1412.59" height="999.39" rx="58.24"/><path class="cls-8" d="M686.63,536.88H1982.76a36,36,0,0,1,36,36v882.93a36,36,0,0,1-36,36H686.63a36,36,0,0,1-36-36V572.88a36,36,0,0,1,36-36Z"/><path class="cls-9" d="M2040.83,777.84v244.82a59.19,59.19,0,0,1-59.18,59.18H1804.07v652H918.31v-956Z" transform="translate(-155.45 -240.95)"/><polygon class="cls-6" points="1619.78 377.31 1678.97 377.31 1797.36 839.82 1554.76 839.82 1619.78 377.31"/><rect class="cls-5" x="1398.95" y="354.87" width="390.12" height="408.89"/><polygon class="cls-10" points="1676.06 377.31 1593.4 509.2 1614.26 377.31 1676.06 377.31"/><rect class="cls-6" x="1619.78" y="377.31" width="118.39" height="462.51" rx="59.19"/><rect class="cls-5" x="1738.16" y="377.31" width="118.39" height="462.51" rx="59.19"/><path class="cls-10" d="M1775.23,1732.75H889.48V676.23a58,58,0,0,1,58-58h827.79Z" transform="translate(-155.45 -240.95)"/><path class="cls-4" d="M1644.49,1552.47V1546h23.13l.12,5.76v.71Zm-23.13,0h-23.13V1546h23.13Zm-46.26,0H1552V1546h23.13Zm-46.26,0h-23.12V1546h23.12Zm-46.25,0h-23.13V1546h23.13Zm-46.26,0H1413.2V1546h23.13Zm-47.64-2.22a14.7,14.7,0,0,1-7-12.55v-11.42h6.48v11.42a8.24,8.24,0,0,0,3.92,7Zm293.7-17.69h-6.48v-23.14h6.48Zm-294.2-29.4h-6.48V1480h6.48Zm294.2-16.86h-6.48v-23.13h6.48Zm-294.2-29.4h-6.48v-23.13h6.48Zm294.2-16.86h-6.48v-23.13h6.48Zm-294.2-29.4h-6.48v-23.13h6.48Zm294.2-16.86h-6.48v-23.12h6.48Zm-294.2-29.4h-6.48v-5.07a14.8,14.8,0,0,1,14.68-14.77l0,6.48a8.3,8.3,0,0,0-8.24,8.29Zm283.75-12.15a8.28,8.28,0,0,0-4.32-1.21h-16.79v-6.48h16.79a14.72,14.72,0,0,1,7.71,2.17ZM1627.7,1351h-23.13v-6.48h23.13Zm-46.26,0h-23.13v-6.48h23.13Zm-46.26,0h-23.13v-6.48h23.13Zm-46.25,0H1465.8v-6.48h23.13Zm-46.26,0h-23.13v-6.48h23.13Z" transform="translate(-155.45 -240.95)"/><rect class="cls-11" x="1848.04" y="1026.82" width="220.2" height="108.04" rx="21.55"/><polygon class="cls-11" points="1878.92 1126.69 1861.95 1171.43 1944.22 1120.01 1878.92 1126.69"/><path class="cls-8" d="M2188.15,1326.13H2039a4.34,4.34,0,0,1-4.34-4.34h0a4.34,4.34,0,0,1,4.34-4.35h149.11a4.35,4.35,0,0,1,4.35,4.35h0A4.34,4.34,0,0,1,2188.15,1326.13Z" transform="translate(-155.45 -240.95)"/><rect class="cls-8" x="1879.24" y="1101.64" width="101.61" height="8.69" rx="3.49"/><rect class="cls-8" x="1879.24" y="1051.5" width="157.8" height="8.69" rx="4.35"/><rect class="cls-6" x="326.62" y="602.23" width="177.18" height="108.04" rx="19.33"/><polygon class="cls-6" points="472.92 702.1 489.89 746.84 407.62 695.42 472.92 702.1"/><rect class="cls-8" x="346.25" y="651.9" width="131.87" height="8.69" rx="3.97"/><path class="cls-8" d="M506.05,926.69H629.23a4.35,4.35,0,0,0,4.35-4.35h0a4.34,4.34,0,0,0-4.35-4.34H506.05a4.34,4.34,0,0,0-4.35,4.34h0A4.35,4.35,0,0,0,506.05,926.69Z" transform="translate(-155.45 -240.95)"/><rect class="cls-8" x="346.25" y="626.91" width="131.87" height="8.69" rx="3.97"/><rect class="cls-10" x="2129.98" y="869.87" width="131.53" height="131.53"/><polygon class="cls-12" points="2272.61 1012.5 2255.79 1012.5 2255.79 1007.69 2267.8 1007.69 2267.8 995.68 2272.61 995.68 2272.61 1012.5"/><path class="cls-12" d="M2387.23,1253.45h-24v-4.8h24Zm-48,0h-24v-4.8h24Z" transform="translate(-155.45 -240.95)"/><polygon class="cls-12" points="2135.7 1012.5 2118.89 1012.5 2118.89 995.68 2123.69 995.68 2123.69 1007.69 2135.7 1007.69 2135.7 1012.5"/><path class="cls-12" d="M2279.14,1212.61h-4.8v-24h4.8Zm0-48h-4.8v-24h4.8Z" transform="translate(-155.45 -240.95)"/><polygon class="cls-12" points="2123.69 875.59 2118.89 875.59 2118.89 858.77 2135.7 858.77 2135.7 863.58 2123.69 863.58 2123.69 875.59"/><path class="cls-12" d="M2387.23,1104.53h-24v-4.8h24Zm-48,0h-24v-4.8h24Z" transform="translate(-155.45 -240.95)"/><polygon class="cls-12" points="2272.61 875.59 2267.8 875.59 2267.8 863.58 2255.79 863.58 2255.79 858.77 2272.61 858.77 2272.61 875.59"/><path class="cls-12" d="M2428.06,1212.61h-4.8v-24h4.8Zm0-48h-4.8v-24h4.8Z" transform="translate(-155.45 -240.95)"/><path class="cls-12" d="M2313.15,1129.78h74.21v23.87h-6.72a67.08,67.08,0,0,0-3-9.33,18.93,18.93,0,0,0-3.12-5.21,9.78,9.78,0,0,0-3.54-2.54,16.1,16.1,0,0,0-5.65-.75h-8.71v70.23a36.68,36.68,0,0,0,.44,6.44,10.61,10.61,0,0,0,1.37,3.81,6.22,6.22,0,0,0,2.51,2.19,22.55,22.55,0,0,0,4.93,1.55v3.36h-31.34V1220a35.18,35.18,0,0,0,3.64-1,8.71,8.71,0,0,0,2.57-1.34,6.2,6.2,0,0,0,1.64-2,11.44,11.44,0,0,0,1-3.36,38.6,38.6,0,0,0,.38-6.24v-70.23h-8.64a19.31,19.31,0,0,0-5.32.61A8.61,8.61,0,0,0,2326,1139a18.67,18.67,0,0,0-3.26,5.55,63.13,63.13,0,0,0-2.78,9.09h-6.79Z" transform="translate(-155.45 -240.95)"/><polygon class="cls-6" points="2193.73 132.32 2190.86 190.34 2385.7 17.11 2193.73 132.32"/><polygon class="cls-5" points="2125.71 63.07 2286.39 184.89 2402.69 0 2125.71 63.07"/><polygon class="cls-6" points="2402.69 0 2183.83 107.14 2190.86 190.34 2216.72 132.07 2402.69 0"/><path class="cls-11" d="M2736.64,2128.76s-96.16,7.65-181.81,14.17c-11.66.92-23.11,1.76-34.12,2.61-12.07.88-23.55,1.77-34.15,2.5-20.57,1.51-37.73,2.73-48.8,3.39l-1.59.11c-5.66.33-9.49.51-11.15.51-2.76,0-9.38-2.68-18.69-7.25h0c-26.72-13.1-75.34-41.66-116.82-66.69-22.41-13.5-42.76-26-56.45-34.41-11-6.81-17.78-11-17.78-11l-27-2.43a429.08,429.08,0,0,1-19.87-44.61c-7.44-19.76-13.88-42.36-12.92-59.55.74-14.06,6.44-24.47,20.54-26.79,16.89-2.76,32-2.47,46.55.66,30.88,6.52,59.07,25.77,95.73,55.8,43.8,35.84,112.66,98.3,155.39,121.64,9.94,5.41,18.47,8.72,25,9.09,7.95.44,22.75-3.54,42.33-6.41a247,247,0,0,1,35.7-2.8h0c3.39,0,6.77,0,10.23.08,65.26.81,142.36,9.13,142.36,9.13Z" transform="translate(-155.45 -240.95)"/><path class="cls-13" d="M2586.92,2077.38l-32.09,65.55c-11.66.92-23.11,1.76-34.12,2.61-12.07.88-23.55,1.77-34.15,2.5l54.4-67.94a247,247,0,0,1,35.7-2.8h0C2580.08,2077.3,2583.46,2077.34,2586.92,2077.38Z" transform="translate(-155.45 -240.95)"/><path class="cls-14" d="M2438.53,2152.05l-2.36-.51-29.84-6.74c-41.11-20.13-134.23-77-173.31-101.1l-24.52-79.53,229.26,187.26Z" transform="translate(-155.45 -240.95)"/><polygon class="cls-15" points="1661.09 1429.65 1715.68 1546.56 1812.9 1573.24 1750.34 1412.22 1661.09 1429.65"/><rect class="cls-16" x="1324.22" y="1135.22" width="328.8" height="240.71" rx="16.46"/><rect class="cls-10" x="1345.64" y="1156.64" width="285.96" height="197.87" rx="8.76"/><polygon class="cls-16" points="1363.73 1354.58 1448.26 1208.18 1532.78 1354.58 1363.73 1354.58"/><polygon class="cls-16" points="1473.9 1354.82 1537.99 1243.82 1602.07 1354.82 1473.9 1354.82"/><polygon class="cls-16" points="1550.85 1243.82 1537.99 1243.82 1537.29 1263.64 1557.93 1276.35 1550.85 1243.82"/><polygon class="cls-16" points="1460.97 1208.18 1448.11 1208.18 1447.41 1228.01 1468.05 1240.71 1460.97 1208.18"/><circle class="cls-16" cx="1664.3" cy="1442.81" r="13.92" transform="translate(-580.91 505.77) rotate(-22.5)"/><polygon class="cls-17" points="1376.59 1354.58 1461.12 1208.18 1545.64 1354.58 1376.59 1354.58"/><polygon class="cls-17" points="1486.76 1354.82 1550.85 1243.82 1614.93 1354.82 1486.76 1354.82"/><rect class="cls-16" x="1508.84" y="1187.94" width="12.86" height="27.85"/><circle class="cls-17" cx="1677.15" cy="1442.81" r="13.92" transform="matrix(0.23, -0.97, 0.97, 0.23, -267.84, 2502.66)"/><path class="cls-11" d="M2615.19,2029.39s-15.79,19.83-38.5,47.91h0c-16.16,20-35.89,44.13-55.95,68.24-43.2,51.78-88,103.42-103.05,113.25-31.87,20.86-80,34.78-207.32-82.19-55.42-50.93-90.68-85.94-113-109.56-33.05-34.93-37.87-45-37.87-45s45.27-77.8,96-95.91c10.19-3.64,20.65-4.85,31-2.54a71,71,0,0,1,13.25,4.38c49.94,22.27,59.07,97.68,65.88,115.53,2.06,5.38,11.45,18.51,23.92,34.63,32.35,41.85,85.57,104,85.57,104s13.8-17.07,31.25-37.32c19.47-22.56,43.47-49.06,58-60.21l9.39-7.17c33.82-25.55,103.79-77.48,103.79-77.48Z" transform="translate(-155.45 -240.95)"/><path class="cls-18" d="M2222.56,1900a205.52,205.52,0,0,0-22.89,28,322.28,322.28,0,0,0-30.73,56.46l-.55,1.25a178.76,178.76,0,0,1-71.07,81.38c-33.05-34.93-37.87-45-37.87-45s45.27-77.8,96-95.91c.74-14.06,6.44-24.47,20.54-26.79C2192.9,1896.56,2208,1896.85,2222.56,1900Z" transform="translate(-155.45 -240.95)"/><path class="cls-19" d="M1926.33,1665.61s-27.61,106.74-55.21,61.36c-8.9-14.61-16.34-23.52-22.3-28.86-7.69-6.84-13-7.84-16-7.58h0a6,6,0,0,0-2.76.85s-32.54,11-49.69-27-17.52-84.65-17.52-84.65l44.5-19Z" transform="translate(-155.45 -240.95)"/><path class="cls-12" d="M2222,1892.58c-12.88,15.94-44.79,62.57-74.86,102.43s-92,48.47-92,48.47-31.28-60.72-63.15-96.9-60.55-33.75-99.63-52a1.82,1.82,0,0,0-.37-.18c-1-.48-2-1-3-1.44l-.26-.15c-36.44-18.51-43.36-47.48-63.63-68.34-20.84-21.46-54-25.77-96.91-39.27-11.26-3.54-23-7.36-34.56-11.6h0c-32.61-11.81-64.16-26.61-81.34-46-23.3-26.39-92-111.66-92-111.66l26.39-23.3s113.46,101.21,124.5,106.73,104.27,27,134.34,32.5,50.9-3.68,60.1-11.63c6.62-5.74,28.19-20.06,39.75-27.64h0c4.49-3,7.47-4.89,7.47-4.89s26-29,68.56-12.48a97.27,97.27,0,0,1,14.25,7c35.37,20.9,58.29,74.08,80.74,113.43,9.87,17.26,19.59,31.87,30.26,39.93C2141.63,1861.93,2222,1892.58,2222,1892.58Z" transform="translate(-155.45 -240.95)"/><path class="cls-20" d="M2076.41,1795.61c-37.39-.56-90,11.11-115.12-10.57-35.55-30.65-55.94-92.45-55.94-92.45h0l76-17.37a97.27,97.27,0,0,1,14.25,7C2031,1703.08,2054,1756.26,2076.41,1795.61Z" transform="translate(-155.45 -240.95)"/><path class="cls-7" d="M1770.54,1546.2c-16.74,31.8-6.83,79.46,35.88,97.53,47.84,20.25,72.07-.61,106.42,61.34s105.2,62,151.21,34.35,60.73-42.32,133.41-28.52,86.49-41.4,63.49-83.73-91.09-69.93-145.38-48.76-98.45,32.2-140.77,4.6-82.81-67.17-127.9-69S1779.74,1528.72,1770.54,1546.2Z" transform="translate(-155.45 -240.95)"/><path class="cls-19" d="M1546.64,1592.63s-11.19-18.71-21.77-25.61-28.07-21.62-31.29-15.18,14.27,22.54,14.27,22.54-23-6-25.77-17.48-8.28-3.59-7.36,14.54,1.38,25,13.34,30.08,32.21,14.42,32.21,14.42Z" transform="translate(-155.45 -240.95)"/><path class="cls-12" d="M2729.28,2086.51s33.59-12.51,44.63-8.37,46.46,63.48,58,92,13.26,28.48,6.91,31.74c-11.66,6-39.57-6.9-58.89-32.2s-36.81-41.46-43.25-41Z" transform="translate(-155.45 -240.95)"/><path class="cls-12" d="M2577.47,1999.93s7.82-12,11-21.62,8.74-29.45,26.68-20.25,67.63,52.91,84.19,61.19,35.52,22,35.52,22-17.58,10.23-53-.35a290.4,290.4,0,0,0-66.71-11.5Z" transform="translate(-155.45 -240.95)"/><path class="cls-7" d="M2766.09,2083.66c-5.56,14.13,3.78,27.6,18,46.46s22,34.05,34.91,53.83,22.55,24.38,25.31,10.58-18.11-38.55-26.77-53.91S2776.21,2057.89,2766.09,2083.66Z" transform="translate(-155.45 -240.95)"/><path class="cls-7" d="M2601.39,1967.26c5.19,5,26.22,21.17,44.62,30.37s43,36.48,66.71,41.86c20.24,4.6,24.84,4.14,23.92-5.06s-23.46-27.14-51.06-39.56-52.91-36.35-66.25-39.11S2591.8,1958.06,2601.39,1967.26Z" transform="translate(-155.45 -240.95)"/><path class="cls-21" d="M1848.82,1698.11c-7.69-6.84-13-7.84-16-7.58,5.81-2.1,18.73-8.54,21.12-25.1C1854,1665.43,1858,1684.75,1848.82,1698.11Z" transform="translate(-155.45 -240.95)"/><path class="cls-22" d="M1888.75,1892.84c-36.44-18.51-43.36-47.48-63.63-68.34-20.84-21.46-54-25.77-96.91-39.27-11.26-3.54-23-7.36-34.56-11.6,4.57,1.11,78.1,18.55,102.21,21.24,24.8,2.76,54.54,13.8,59,41.4C1859,1862,1873.84,1884.49,1888.75,1892.84Z" transform="translate(-155.45 -240.95)"/><path class="cls-7" d="M2031.24,1588.21c-28.51,0-55.83-15.27-94.27-36.74l-7.23-4c-63.07-35.14-105-26.61-105.45-26.52l-.78-3.6c1.76-.39,43.74-8.91,108,26.9l7.24,4c60.45,33.78,90.79,50.73,141.22,21.17,53.46-31.34,112.53-13.27,113.12-13.09l-1.11,3.51c-.57-.18-58.14-17.74-110.15,12.75C2063.22,1583.52,2047.05,1588.21,2031.24,1588.21Z" transform="translate(-155.45 -240.95)"/><path class="cls-12" d="M1999.08,1732.33l-2.28,0c-15.76-.37-37.11-4.86-49.32-24.16-27.29-43.15-55.93-61.73-117.87-76.49-19.84-4.72-34.29-14.31-42.94-28.5-14.19-23.24-7.77-50.23-7.49-51.37l3.57.88c-.07.26-6.32,26.69,7.08,48.6,8.13,13.31,21.8,22.33,40.63,26.81,62.27,14.83,92.58,34.54,120.13,78.1,11.34,17.93,31.44,22.11,46.3,22.45,27.72.76,58.29-11.57,66-22.52l3,2.11C2057.72,1719.84,2027.79,1732.33,1999.08,1732.33Z" transform="translate(-155.45 -240.95)"/><rect class="cls-6" x="811.57" y="455.92" width="283.25" height="207.36" rx="6.61"/><rect class="cls-10" x="830.03" y="474.37" width="246.34" height="170.45" rx="4.38"/><polygon class="cls-6" points="845.61 644.88 918.42 518.77 991.23 644.88 845.61 644.88"/><polygon class="cls-6" points="940.52 645.09 995.72 549.47 1050.93 645.09 940.52 645.09"/><polygon class="cls-6" points="1006.8 549.47 995.72 549.47 995.12 566.54 1012.9 577.49 1006.8 549.47"/><polygon class="cls-6" points="929.37 518.77 918.3 518.77 917.69 535.85 935.48 546.79 929.37 518.77"/><circle class="cls-6" cx="970.61" cy="513.32" r="11.99"/><polygon class="cls-4" points="856.69 644.88 929.5 518.77 1002.31 644.88 856.69 644.88"/><polygon class="cls-4" points="951.6 645.09 1006.8 549.47 1062.01 645.09 951.6 645.09"/><rect class="cls-6" x="970.61" y="501.33" width="11.08" height="23.99"/><circle class="cls-4" cx="981.69" cy="513.32" r="11.99"/><path class="cls-4" d="M1689.48,1259H987.75a24.43,24.43,0,0,1-24.4-24.41V1018.39a24.43,24.43,0,0,1,24.4-24.4h701.73a24.44,24.44,0,0,1,24.41,24.4v216.18A24.44,24.44,0,0,1,1689.48,1259ZM987.75,1001.35a17.06,17.06,0,0,0-17,17v216.18a17.07,17.07,0,0,0,17,17h701.73a17.07,17.07,0,0,0,17-17V1018.39a17.06,17.06,0,0,0-17-17Z" transform="translate(-155.45 -240.95)"/><path class="cls-4" d="M1703.51,898H1307.16a6.7,6.7,0,0,1-6.7-6.71h0a6.7,6.7,0,0,1,6.7-6.7h396.35a6.7,6.7,0,0,1,6.7,6.7h0A6.7,6.7,0,0,1,1703.51,898Z" transform="translate(-155.45 -240.95)"/><path class="cls-4" d="M1703.51,835.41H1307.16a6.7,6.7,0,0,1-6.7-6.7h0a6.71,6.71,0,0,1,6.7-6.71h396.35a6.71,6.71,0,0,1,6.7,6.71h0A6.7,6.7,0,0,1,1703.51,835.41Z" transform="translate(-155.45 -240.95)"/><path class="cls-4" d="M1703.51,772.84H1307.16a6.7,6.7,0,0,1-6.7-6.7h0a6.7,6.7,0,0,1,6.7-6.7h396.35a6.7,6.7,0,0,1,6.7,6.7h0A6.7,6.7,0,0,1,1703.51,772.84Z" transform="translate(-155.45 -240.95)"/><path class="cls-4" d="M1703.51,710.28H1307.16a6.7,6.7,0,0,1-6.7-6.71h0a6.7,6.7,0,0,1,6.7-6.7h396.35a6.7,6.7,0,0,1,6.7,6.7h0A6.7,6.7,0,0,1,1703.51,710.28Z" transform="translate(-155.45 -240.95)"/><path class="cls-4" d="M1311.56,1548.11H963.27c-3.25,0-5.89-3-5.89-6.7h0c0-3.71,2.64-6.71,5.89-6.71h348.29c3.25,0,5.89,3,5.89,6.71h0C1317.45,1545.11,1314.81,1548.11,1311.56,1548.11Z" transform="translate(-155.45 -240.95)"/><path class="cls-4" d="M1311.56,1485.54H963.27c-3.25,0-5.89-3-5.89-6.7h0c0-3.7,2.64-6.7,5.89-6.7h348.29c3.25,0,5.89,3,5.89,6.7h0C1317.45,1482.54,1314.81,1485.54,1311.56,1485.54Z" transform="translate(-155.45 -240.95)"/><path class="cls-4" d="M1311.56,1423H963.27c-3.25,0-5.89-3-5.89-6.71h0c0-3.7,2.64-6.7,5.89-6.7h348.29c3.25,0,5.89,3,5.89,6.7h0C1317.45,1420,1314.81,1423,1311.56,1423Z" transform="translate(-155.45 -240.95)"/><path class="cls-4" d="M1311.56,1360.41H963.27c-3.25,0-5.89-3-5.89-6.7h0c0-3.71,2.64-6.71,5.89-6.71h348.29c3.25,0,5.89,3,5.89,6.71h0C1317.45,1357.41,1314.81,1360.41,1311.56,1360.41Z" transform="translate(-155.45 -240.95)"/><path class="cls-4" d="M1636.89,1195.75H1027.82a6.7,6.7,0,0,1-6.71-6.7h0a6.71,6.71,0,0,1,6.71-6.71h609.07a6.71,6.71,0,0,1,6.71,6.71h0A6.7,6.7,0,0,1,1636.89,1195.75Z" transform="translate(-155.45 -240.95)"/><path class="cls-4" d="M1636.89,1133.18H1027.82a6.7,6.7,0,0,1-6.71-6.7h0a6.7,6.7,0,0,1,6.71-6.7h609.07a6.7,6.7,0,0,1,6.71,6.7h0A6.7,6.7,0,0,1,1636.89,1133.18Z" transform="translate(-155.45 -240.95)"/><path class="cls-4" d="M1636.89,1070.62H1027.82a6.7,6.7,0,0,1-6.71-6.71h0a6.7,6.7,0,0,1,6.71-6.7h609.07a6.7,6.7,0,0,1,6.71,6.7h0A6.7,6.7,0,0,1,1636.89,1070.62Z" transform="translate(-155.45 -240.95)"/><path class="cls-17" d="M1033.74,402.46c0,22-10.84,41.55-27.81,54.38a38.59,38.59,0,0,0-7.32,7.23,35.18,35.18,0,0,0-7.55,21.64v37a29.12,29.12,0,0,1-9.48,21.34,33.45,33.45,0,0,1-22.88,8.84c-17.86,0-32.35-13.51-32.35-30.18v-37a36.1,36.1,0,0,0-14.78-28.79c-16.86-12.71-27.7-32.1-27.9-53.85,0-1.54,0-3.07.12-4.58,2.21-36.43,34.69-65.74,74.35-66C999.84,332.19,1033.74,363.63,1033.74,402.46Z" transform="translate(-155.45 -240.95)"/><path class="cls-23" d="M998.61,464.07a35.18,35.18,0,0,0-7.55,21.64v37a29.12,29.12,0,0,1-9.48,21.34,33.45,33.45,0,0,1-22.88,8.84c-17.86,0-32.35-13.51-32.35-30.18v-37a36.1,36.1,0,0,0-14.78-28.79c-16.86-12.71-27.7-32.1-27.9-53.85,0-1.54,0-3.07.12-4.58,18.66,38.73,60.4,65.71,108.9,65.71C994.67,464.2,996.65,464.16,998.61,464.07Z" transform="translate(-155.45 -240.95)"/><path class="cls-24" d="M993,507.54v16.15c0,17.43-15,31.65-33.64,32-19.25.32-34.9-14.45-34.9-32.4V507.54a1,1,0,0,1,.88-.93H992.1A1,1,0,0,1,993,507.54Z" transform="translate(-155.45 -240.95)"/><path class="cls-25" d="M992.56,517.33H924.85a5.36,5.36,0,0,1-5.37-5.37h0a5.36,5.36,0,0,1,5.37-5.36h67.71a5.37,5.37,0,0,1,5.37,5.36h0A5.37,5.37,0,0,1,992.56,517.33Z" transform="translate(-155.45 -240.95)"/><path class="cls-26" d="M992.56,528.05H924.85a5.36,5.36,0,0,1-5.37-5.36h0a5.36,5.36,0,0,1,5.37-5.36h67.71a5.37,5.37,0,0,1,5.37,5.36h0A5.37,5.37,0,0,1,992.56,528.05Z" transform="translate(-155.45 -240.95)"/><path class="cls-17" d="M958.94,322.84h0a3.83,3.83,0,0,1-3.83-3.83V299.86a3.84,3.84,0,0,1,3.83-3.84h0a3.84,3.84,0,0,1,3.84,3.84V319A3.83,3.83,0,0,1,958.94,322.84Z" transform="translate(-155.45 -240.95)"/><path class="cls-17" d="M898.29,346.21h0a3.7,3.7,0,0,1-5,0l-14.92-13.9a3.7,3.7,0,0,1,0-5.41h0a3.68,3.68,0,0,1,5,0l14.92,13.9A3.69,3.69,0,0,1,898.29,346.21Z" transform="translate(-155.45 -240.95)"/><path class="cls-17" d="M873.9,402.57h0a3.58,3.58,0,0,1-3.56,3.6l-21.61.09a3.57,3.57,0,0,1-3.59-3.55h0a3.58,3.58,0,0,1,3.56-3.6l21.61-.09A3.57,3.57,0,0,1,873.9,402.57Z" transform="translate(-155.45 -240.95)"/><path class="cls-17" d="M898.64,458.3h0a3.7,3.7,0,0,1,0,5.41l-14.83,14a3.7,3.7,0,0,1-5.05,0h0a3.7,3.7,0,0,1,0-5.41l14.84-14A3.7,3.7,0,0,1,898.64,458.3Z" transform="translate(-155.45 -240.95)"/><path class="cls-17" d="M1019,346.1h0a3.7,3.7,0,0,1,0-5.41l14.9-13.92a3.69,3.69,0,0,1,5,0h0a3.7,3.7,0,0,1,0,5.41L1024,346.1A3.7,3.7,0,0,1,1019,346.1Z" transform="translate(-155.45 -240.95)"/><path class="cls-17" d="M1043.62,401.89h0a3.58,3.58,0,0,1,3.58-3.58l21.6,0a3.58,3.58,0,0,1,3.58,3.58h0a3.58,3.58,0,0,1-3.58,3.57h-21.61A3.59,3.59,0,0,1,1043.62,401.89Z" transform="translate(-155.45 -240.95)"/><path class="cls-17" d="M1019.36,457.89h0a3.69,3.69,0,0,1,5,0l14.9,13.92a3.7,3.7,0,0,1,0,5.41h0a3.69,3.69,0,0,1-5,0l-14.9-13.92A3.7,3.7,0,0,1,1019.36,457.89Z" transform="translate(-155.45 -240.95)"/><path class="cls-27" d="M1006.89,412.45a7,7,0,0,1-7-7,41,41,0,0,0-41-41,7,7,0,0,1,0-13.94,55,55,0,0,1,54.93,54.92A7,7,0,0,1,1006.89,412.45Z" transform="translate(-155.45 -240.95)"/><path class="cls-12" d="M2316.38,470.29l-1.85-1.57c4.95-5.83,8.07-9.14,8.1-9.17l1.77,1.67S2321.29,464.52,2316.38,470.29Z" transform="translate(-155.45 -240.95)"/><path class="cls-12" d="M2321.89,748.66a76.72,76.72,0,0,1-20.77-2.85l.65-2.35a74.55,74.55,0,0,0,24.27,2.65l.13,2.43C2324.75,748.62,2323.31,748.66,2321.89,748.66Zm28.91-5.4-.87-2.28a82.65,82.65,0,0,0,21.3-12l1.5,1.92A85.11,85.11,0,0,1,2350.8,743.26Zm-72.49-8.17a86.68,86.68,0,0,1-18.4-17.19l1.9-1.53a84.12,84.12,0,0,0,17.88,16.72Zm111.8-22.46-2-1.4a87.18,87.18,0,0,0,11.16-21.8l2.3.8A89.28,89.28,0,0,1,2390.11,712.63Zm-143.46-16.09c-1.8-3.78-3.47-7.79-5-11.92a116.45,116.45,0,0,1-3.53-11.72l2.37-.58a110.82,110.82,0,0,0,3.46,11.47c1.46,4.06,3.1,8,4.86,11.71Zm-160.19-.34-2.19-1.08a249.68,249.68,0,0,1,12.18-21.86l2.07,1.29A244.89,244.89,0,0,0,2086.46,696.2Zm320.15-30.61-2.42-.18c.19-2.6.29-5.26.29-7.9,0-2.1-.06-4.22-.18-6.32a69.46,69.46,0,0,0-1.36-10.24l2.38-.5a70.36,70.36,0,0,1,1.41,10.6c.12,2.15.19,4.32.19,6.46C2406.92,660.21,2406.81,662.93,2406.61,665.59Zm-293.87-11.32-1.91-1.5A224.9,224.9,0,0,1,2127.35,634l1.74,1.71A225.08,225.08,0,0,0,2112.74,654.27Zm122-6.27c-.06-1.65-.09-3.33-.09-5a152.63,152.63,0,0,1,1.37-20.08l2.41.32a151.22,151.22,0,0,0-1.35,19.76c0,1.62,0,3.27.09,4.89Zm-87.36-29-1.53-1.9a219.76,219.76,0,0,1,20.34-14.61l1.3,2A216.29,216.29,0,0,0,2147.41,619Zm246.25-.54a80.83,80.83,0,0,0-16.27-18.24l1.57-1.87a83.32,83.32,0,0,1,16.75,18.79ZM2243.44,599l-2.35-.64a238.17,238.17,0,0,1,7.94-23.76l2.27.89A234.07,234.07,0,0,0,2243.44,599Zm-54.29-6.52-1.06-2.19a220.45,220.45,0,0,1,23.12-9.63l.81,2.3A220,220,0,0,0,2189.15,592.5Zm167.64-5.67a139.5,139.5,0,0,0-23-9l.69-2.33a141,141,0,0,1,23.37,9.17Zm-121-10.72-.54-2.37a217.66,217.66,0,0,1,24.7-4.16l.26,2.42A215.32,215.32,0,0,0,2235.82,576.11Zm73.84-3.5a192.09,192.09,0,0,0-24.68-1.84l0-2.44a193.34,193.34,0,0,1,25,1.87Zm-48.29-19.78-2.19-1.08c3.58-7.23,7.58-14.63,11.9-22l2.11,1.23C2268.9,538.3,2264.92,545.65,2261.37,552.83Zm25.05-42.89-2-1.36c4.58-6.82,9.46-13.67,14.51-20.36l2,1.47C2295.84,496.34,2291,503.15,2286.42,509.94Z" transform="translate(-155.45 -240.95)"/><path class="cls-12" d="M2072.35,730.61l-2.31-.77c1.29-3.87,2.68-7.74,4.12-11.53l2.28.87C2075,722.93,2073.63,726.77,2072.35,730.61Z" transform="translate(-155.45 -240.95)"/><path class="cls-19" d="M885.78,1101.14s4.19-15.85,8.73-25.13,10.38-26.73,13.93-27.08,4,5.53,2.12,17.11,5.43,6.7,12.18-6.18,7.2,5.76,13.2,17c16.44,30.85-10.09,42.85-17,46.63S885.78,1101.14,885.78,1101.14Z" transform="translate(-155.45 -240.95)"/><path class="cls-19" d="M555.83,2075.82l-24.14,25.43,32.84,41.64s4.6-15.12,28.28-30.81S555.83,2075.82,555.83,2075.82Z" transform="translate(-155.45 -240.95)"/><path class="cls-12" d="M818.93,1892.09c-8.15,12.57-52.69,58.45-100.62,105.93-30.4,30.17-62.2,61-86.91,84.34-25.08,23.75-42.81,39.73-44.37,39.48-5.44-.88-39-40.77-39-40.77s3.11-4.25,8.45-11.63c10.64-14.62,30.08-41.51,51.43-71.53,28.28-39.85,59.85-85.23,78.43-114.89,10.33-16.46,16.62-28.08,16.18-31.22-1-7.18-29.67-42.28-59.62-77.34-20-23.33-40.53-46.69-53.9-61.79,0,0,0,0-.05,0-9.1-10.25-14.88-16.69-14.88-16.69l-14.32-23.7L536.58,1634l17.17-12.31,25.58-18.36,60-43.06s10.56,14,26.47,35.16c1.82,2.39,3.7,4.91,5.68,7.52,34.92,46.34,89.76,119.07,120.07,159C838.42,1823.51,837.55,1863.42,818.93,1892.09Z" transform="translate(-155.45 -240.95)"/><path class="cls-28" d="M723.9,1872c-25.49,45.25,3.36,65.54-63.8,117.88-51.2,39.91-88.72,68.31-103.64,79.53,32.57-44.8,147.92-204.54,146-217.64-1.72-12-80-101.35-113.52-139.13,23.35,13.31,58.2,32.81,92,50.41C739.41,1793.51,749.39,1826.78,723.9,1872Z" transform="translate(-155.45 -240.95)"/><path class="cls-12" d="M504.41,2114s-16.24,12.23-13,22.19,15.43,27.65,16.84,38.36,19.39,79.28,31.88,81.66,15.2-3.55,15.2-3.55-13.32-93.25-12.86-94.58S504.41,2114,504.41,2114Z" transform="translate(-155.45 -240.95)"/><path class="cls-29" d="M535.13,2094.35c-9.57,4.51-36.13,16-34.17,29.86s18.87,27.28,22.86,57.26,17.7,69,28.75,72.66,11.55-43.31,11.23-64.32,5.92-53.06,7.19-55.19-12.14-11.28-20.82-23.86S535.13,2094.35,535.13,2094.35Z" transform="translate(-155.45 -240.95)"/><path class="cls-19" d="M685.94,2247.32s4.5,41.25,3,53.57,48,2.66,48,2.66l-2.58-53.05Z" transform="translate(-155.45 -240.95)"/><path class="cls-12" d="M738.53,2261.9c-30.19,8.13-48.22-1.3-55.35-3.37-4.4-1.3-30.43-97.82-51.78-176.17-9.59-35.28-18.23-66.86-23.51-84.45-1.9-6.23-3.35-10.72-4.27-13-9.35-22.84-21.13-30.56-110.59-154-34.62-47.8-54.16-88.44-65.11-120.25-17.3-50.36-13-78.71-13-78.71,18.83-20.84,100.11-14.6,138.87-10.28,12.63,1.4,20.73,2.6,20.73,2.6s6.24,12.75,16.17,33.89c13,27.64,32.28,69.66,52.23,116.29,14.93,35,30.22,72.55,43.44,108.56,4.27,11.64,8.34,23.09,12.09,34.26,8.19,24.32,14.72,52,19.9,80.74C740.27,2119.67,738.53,2261.9,738.53,2261.9Z" transform="translate(-155.45 -240.95)"/><path class="cls-30" d="M665.81,1595.42l-86.48,7.9-25.58,18.36c-38.76-4.32-120-10.56-138.87,10.28,0,0-4.26,28.35,13,78.71,13.69-6,37.74-13.73,80-22.64a312.73,312.73,0,0,0,51.77-15.79c10.9-4.32,21.23-9.1,30.92-14.07a399.45,399.45,0,0,0,80.84-55.23Z" transform="translate(-155.45 -240.95)"/><path class="cls-12" d="M682.25,2330.9s-3.47,11.67.83,16.38,21.71,10.5,33.69,15.24,39.37,24.36,52.45,27.7,41.54,7.38,44.65-8.95Z" transform="translate(-155.45 -240.95)"/><path class="cls-29" d="M686.12,2299.39c-.33,7.24-8.75,32.47-.26,40.48s26.69,10.61,37.32,16.87,40.12,22.57,55.22,26.41,34,1.47,35.47-1.88c3.48-7.82-32-32.49-49.07-45.73s-25.22-36.22-26.48-39.22-11.51-.12-29.32-2.3S686.54,2290.38,686.12,2299.39Z" transform="translate(-155.45 -240.95)"/><path class="cls-16" d="M923.38,1120.51c-1.38,4.08-45.63,81.11-70.22,123.68v0c-7.26,12.57-12.81,22.15-15,26-10.65,18.31-47.61,39.48-86.73,57.93-39.88,18.81-111.55,26.56-112.44,95.36-.64,50.56,10.73,100.8,19.93,138.19,5.68,23.25,10.55,38.57,11.12,39.36.87,1.15-24.65,19.12-54.23,34.42-22.75,11.77-47.9,22-65.26,21.62-39.92-.73-136.3,30.69-143.74,24.82S366.57,1481.82,382.71,1382c18.77-116.19,107.58-117.82,107.58-117.82s35,4.44,69.9,8.22c18,1.93,35.95,3.7,49.12,4.54,38.71,2.53,164.41-46.67,183-60.25,22.28-16.29,90.53-119,93.11-117.66S925.16,1115.21,923.38,1120.51Z" transform="translate(-155.45 -240.95)"/><path class="cls-31" d="M670,1601c.87,1.15-24.65,19.12-54.23,34.42-61.78,3.1-145.87-22.85-162.61-58-21.92-46-50.55-226.29-50.55-226.29l56.79,5.79,41.74,167.92,157.74,36.8C664.58,1584.91,669.45,1600.23,670,1601Z" transform="translate(-155.45 -240.95)"/><path class="cls-10" d="M553.45,1382.29c-11.41-43.77-63.16-118.15-63.16-118.15s35,4.44,69.9,8.22C567.31,1306.93,553.45,1382.29,553.45,1382.29Z" transform="translate(-155.45 -240.95)"/><path class="cls-19" d="M507.4,1197.28s-8.07,45.5-17.11,66.86c0,0,14,11.35,37.14,15.09s32.78-6.89,32.78-6.89l9.1-56.18Z" transform="translate(-155.45 -240.95)"/><path class="cls-19" d="M616,1120.27l-12.24,75.57-60-1.74-10-11.16-11-12.19-15.45-46.82s6.11-32.24,7.62-33.33c.87-.63,32.77.08,59.63.79,19.69.53,36.66,1.06,36.66,1.06Z" transform="translate(-155.45 -240.95)"/><path class="cls-7" d="M657,1103.74a27,27,0,0,1-4.15,10.62s0,0,0,0c-3.56,5.24-9.6,9.57-19.53,11.34-22.24,3.94-44.8-2.51-59.83-8.26s-21.12-5.52-26.33-3.6c-2.14.8-3.12,4.44-4,9a124.73,124.73,0,0,1-2.64,12.37c-2.7,8.87-8.26,1.82-9.87-6.74s-20.66-12-17.87,7.72,12.53,17,17,22,3.61,11.74,14.34,19.29a23.72,23.72,0,0,0,27,.82c6.48-4.26,22.4-2.13,27.9-1.24s11.24,2.5,10.13,7.62-5,34.77-10.33,41.53a29.34,29.34,0,0,1-6.7,6.35c-6.21,4.19-16,7.25-32.39,5.93-24.09-1.89-37.24-11.67-46.33-23.12-5.79-7.25-9.28-19.5-11.66-32.24-1.38-7.35-2.37-14.86-3.23-21.67-2.14-17.51-10.71-27.87-9-51.42.1-1.27.22-2.54.38-3.88,0-.3,0-.63.1-.93,3.37-27,23.41-46.06,36.86-53.19s33.94,1.83,41.45,2.72,16.55-20.24,44.17-10.12S628,1068.14,635.17,1075c3.88,3.67,9.76,5.66,14.51,8.44,4.08,2.37,7.32,5.32,7.69,10.44A39.14,39.14,0,0,1,657,1103.74Z" transform="translate(-155.45 -240.95)"/><path class="cls-31" d="M853.16,1244.22c-7.26,12.57-12.81,22.15-15,26-10.65,18.31-47.61,39.48-86.73,57.93-39.88,18.81-111.55,26.56-112.44,95.36,0,0-6-68.24,30.31-91.22S768,1327.76,853.16,1244.22Z" transform="translate(-155.45 -240.95)"/><rect class="cls-32" x="354.6" y="1302.38" width="850.58" height="92.5" transform="translate(-915.69 1342.27) rotate(-68.62)"/><rect class="cls-11" x="354.6" y="1329.89" width="850.58" height="37.48" transform="translate(-915.69 1342.27) rotate(-68.62)"/><polygon class="cls-17" points="822.54 728.51 736.4 694.79 798.75 610.29 842.21 551.39 834.13 624.14 822.54 728.51"/><polygon class="cls-7" points="834.13 624.14 798.75 610.29 842.21 551.39 834.13 624.14"/><path class="cls-7" d="M642.88,1772.46l-50.14-19.63a19.32,19.32,0,0,1-11-25h0l86.14,33.72h0A19.33,19.33,0,0,1,642.88,1772.46Z" transform="translate(-155.45 -240.95)"/><path class="cls-19" d="M696.64,1548.59s11.7-4.63,18.23-6.13,39.65-10,42-6.47c3.2,4.71-12.77,8.41-18,11.76s16.11,0,19.56,3.17-2.69,27.84-5.63,30.16-37.12,2-52.06-.61S696.64,1548.59,696.64,1548.59Z" transform="translate(-155.45 -240.95)"/><path class="cls-16" d="M705,1581.5s-150.56,11.35-194.06-4.77c-6.48-2.4-13.33-8.06-20.28-16.06,0,0,0,0,0,0-39.64-45.46-83.06-166.25-87.11-190.44-4.75-28.43,6.08-59.09,33.25-67.27,11.9-3.58,41,5.8,59,75.86s39.06,138.42,45,140.78,154.89,25.56,161,26.55c2.67.43,3.65,7.32,3.88,14.88C705.84,1570.69,705,1581.5,705,1581.5Z" transform="translate(-155.45 -240.95)"/><path class="cls-31" d="M705,1581.5s-150.56,11.35-194.06-4.77c-6.48-2.4-13.33-8.06-20.28-16.06,1.19.95,42.51,33.1,214.94.36C705.84,1570.69,705,1581.5,705,1581.5Z" transform="translate(-155.45 -240.95)"/><path class="cls-19" d="M935.94,1076.89s-21.83-6.36-28.2,9.51-12.19,41.06,11.21,37.12Z" transform="translate(-155.45 -240.95)"/><path class="cls-12" d="M615.4,1113.52a58.51,58.51,0,0,1-8.3-.64c-12-1.77-21.93-4-29.91-5.86-13.59-3.11-22.57-5.15-28.45-1.71l-2.15-3.65c7.32-4.32,17-2.11,31.54,1.22,7.91,1.8,17.75,4.06,29.59,5.79,10.7,1.59,19,0,24.61-4.55a21.1,21.1,0,0,0,7.33-13.87l4.24.22a25.31,25.31,0,0,1-8.88,16.94C630.05,1111.47,623.47,1113.52,615.4,1113.52Z" transform="translate(-155.45 -240.95)"/><path class="cls-12" d="M606.16,1099.11c-4.88,0-11.71-.78-21.15-3.21-23.08-5.93-29.47-3.35-29.53-3.32l-1.89-3.81c.71-.36,7.59-3.37,32.47,3,22.7,5.82,28.49,1.62,28.54,1.58l2.82,3.17C617,1096.92,614.3,1099.11,606.16,1099.11Z" transform="translate(-155.45 -240.95)"/></svg>