<svg id="Layer_1" data-name="Layer 1" xmlns="http://www.w3.org/2000/svg" viewBox="0 0 2280.92 1759.9"><defs><style>.cls-1{fill:#d4ecf9;}.cls-1,.cls-26,.cls-7{opacity:0.3;}.cls-2{fill:#f7cc7f;}.cls-17,.cls-3{fill:#f47458;}.cls-4{fill:#355389;}.cls-5{fill:#eafcfc;}.cls-22,.cls-6{fill:#3cb4c5;}.cls-6{opacity:0.2;}.cls-7{fill:#daeef7;}.cls-8{fill:#13375b;}.cls-9{fill:#f7a491;}.cls-10{fill:#f48c7f;}.cls-11{fill:#e25a44;}.cls-12{fill:#f8a492;}.cls-13{fill:#184655;}.cls-14{fill:#fff;}.cls-15{fill:#f79c8d;}.cls-16,.cls-26{fill:#eab054;}.cls-17,.cls-21{opacity:0.5;}.cls-18{fill:#96d9c9;}.cls-19{fill:#50bfa5;}.cls-20{fill:#9bc1f9;}.cls-23{fill:#c0ecff;}.cls-24{fill:#adaeb5;}.cls-25{fill:#544c60;}</style></defs><title>audio-coupl</title><path class="cls-1" d="M1134.71,212.79s509-70.57,576.4,270.89c35.69,180.7,298.24,50.12,448.07,112.83,106.66,44.65,51.55,195.89,115.63,235.33,315.77,194.37,233.61,1044.43,172.29,1044.3l-2105.71-3.47S171.09,1617.81,325.26,1469s48.31-216.87,29.58-274.39c-21.52-66-98.55-254.59,120.9-337.14,112.67-42.38,147.66-159.68,156.2-238C646.53,485.66,721.4,366.57,835,301.54,907,260.36,1004,226.55,1134.71,212.79Z" transform="translate(-227.76 -119)"/><path class="cls-2" d="M1459,370.23,1488.53,404c2.19.84,4-.5,8.44-3.78,8-5.85,15.94-11.72,24.11-17.29a6.38,6.38,0,0,1,5.39-.2c8.72,4.22,17.18,9,25.94,13.1,2.71,1.28,3.9,2.36,3.91,5.52,0,12.64.39,25.28.64,37.78,10.9,3.74,39.27,5.95,49,3.72,1.93-11.89,4.09-24,5.77-36.19.52-3.79,1.72-5.14,5.62-6.13a254,254,0,0,0,26.67-8.72c3.55-1.33,5.92-1.74,8.91,1.29,7.76,7.83,16,15.2,23.87,22.9,2.12,2.08,4,2.57,6.22.62l32-27.6c2.62-2.26.59-4.14-.63-5.87-6.13-8.77-12.23-17.58-18.65-26.14-2.42-3.21-2.43-5.51-.38-9,5.43-9.31,10.26-19,15.71-29.25l40.38-.93a144.57,144.57,0,0,0,3.19-48.77l-39-6.49c-4.34-12.13-8.1-23.46-12.51-34.52-1.28-3.21-.82-4.8,1.37-7,7.61-7.76,15-15.76,22.53-23.57,1.63-1.69,2.6-3.07,1.1-5.4-7.6-11.77-16.09-22.75-26.92-31.81-2.42-2-4.05-1.73-6.31-.11-9.11,6.5-18.34,12.82-27.42,19.36-2.2,1.58-3.66,1.91-6.38.48-9.42-5-19.06-9.53-28.8-13.83-2.49-1.1-2.93-2.39-3-4.65-.29-12.64-.68-25.28-1-38.25-15.94-3.51-31.75-5.16-48.18-3.65-2.3,13.83-4.59,27.56-6.77,40.7L1534.84,173c-7-6.65-15.09-14.37-23.27-21.95-6.71-6.22-5-6.69-13-1a14.89,14.89,0,0,1-2.59,1.19l-19,16.67a29.85,29.85,0,0,1-3.59,4.42c-3.7,3.14-4.19,5.91-1,10.1,6.72,8.73,12.88,17.88,19.06,27a5.9,5.9,0,0,1,.34,4.88c-4,8.65-8.76,17-12.3,25.8-1.73,4.32-3.81,5.28-8,5.31-12,.06-24,.61-37.13,1-1.24,16.32-2.45,32.24-3.67,48.34,3,.56,4.74.91,6.48,1.2,10.71,1.78,21.41,3.66,32.16,5.25,3,.45,4.06,1.83,5,4.69,3.16,9.82,7,19.44,10.2,29.25a6.44,6.44,0,0,1-1.19,5.33c-6,6.64-12.27,12.94-18.35,19.45C1460,365.13,1458.17,367.1,1459,370.23Zm79.88-41.6a72.68,72.68,0,0,1,6.8-102.56h0a72.67,72.67,0,0,1,102.56,6.79h0a72.68,72.68,0,0,1-6.79,102.57h0a72.69,72.69,0,0,1-102.57-6.8Z" transform="translate(-227.76 -119)"/><path class="cls-3" d="M1575.55,495.3l-56.26,57.26c-1.19,4,1.43,7,7.87,14.53,11.51,13.42,23,26.85,34.06,40.66,1.74,2.17,2.15,6.88,1.08,9.58-6.35,16.11-13.68,31.83-19.87,48-1.92,5-3.69,7.27-9.33,7.7-22.52,1.74-45,4.1-67.25,6.21-5.19,19.93-5.33,70.81,0,87.83,21.44,1.85,43.33,4.07,65.26,5.42,6.83.43,9.4,2.39,11.69,9.21,5.31,15.82,12.08,31.2,19.12,46.36,2.85,6.14,3.89,10.33-1.1,16.06-12.93,14.87-25,30.52-37.63,45.61-3.41,4.06-4,7.38-.26,11.16q26.73,26.67,53.48,53.31c4.38,4.37,7.45.49,10.37-1.9,14.81-12.12,29.7-24.16,44.09-36.76,5.4-4.73,9.49-5.07,16-1.88,17.34,8.43,35.23,15.74,54.25,24.09,2.19,22.18,4.6,46.66,7.08,71.83,29,4.82,57.73,4.27,87.34-.85l6.34-70.47c21-9.35,40.72-17.58,59.86-26.93,5.53-2.71,8.44-2.1,12.72,1.51,14.85,12.52,30.09,24.57,45,37,3.23,2.68,5.82,4.23,9.78,1.23,20-15.12,38.39-31.72,53.09-52.24,3.28-4.57,2.53-7.45-.65-11.27-12.81-15.36-25.32-31-38.19-46.27-3.11-3.71-3.89-6.27-1.7-11.3,7.58-17.46,14.42-35.26,20.79-53.2,1.63-4.58,3.85-5.52,7.89-5.92,22.49-2.22,45-4.6,68-7,4.13-28.89,5-57.28,0-86.38l-73.44-6.61c-9.24-22.22-18.19-43.73-27.77-66.75,10.91-13.44,23.59-28.82,36-44.42,10.19-12.8,11.25-9.85.11-23.36a27.51,27.51,0,0,1-2.47-4.46l-32.27-31.71c-2.81-1.91-6-3.43-8.35-5.8-6.1-6.17-11.09-6.67-18.13-.37-14.66,13.14-30.16,25.36-45.6,37.58a10.49,10.49,0,0,1-8.65,1.27c-16-6-31.43-13.35-47.63-18.47-7.92-2.5-9.93-6.08-10.53-13.6-1.72-21.34-4.31-42.61-6.78-66.05l-86.65-.06c-.59,5.44-1,8.57-1.27,11.71-1.74,19.34-3.65,38.66-5,58-.4,5.5-2.72,7.49-7.69,9.51-17.09,7-33.73,15-50.77,22.12-2.64,1.09-7.36.36-9.67-1.41-12.62-9.72-24.7-20.14-37.12-30.11C1584.78,496.47,1581,493.51,1575.55,495.3Zm84.84,136.81a129.92,129.92,0,0,1,183.73-1.63h0a129.91,129.91,0,0,1,1.63,183.72h0A129.92,129.92,0,0,1,1662,815.84h0a129.92,129.92,0,0,1-1.64-183.73Z" transform="translate(-227.76 -119)"/><path class="cls-4" d="M1692.05,316h0l-.2-.06c-1.82-.66-3.67-1.25-5.55-1.79-.63-.18-1.27-.37-1.92-.54s-1.36-.34-2-.51-1.39-.33-2.09-.48l-2-.4c-.75-.14-1.5-.28-2.25-.4l-1.92-.3c-.81-.12-1.63-.22-2.45-.31l-1.79-.2c-.94-.09-1.88-.16-2.82-.22-.5,0-1-.07-1.49-.09-1.45-.07-2.91-.12-4.38-.12h-673c-1.57,0-3.13,0-4.67.12a91.93,91.93,0,0,0-9.16.93c-1.5.23-3,.5-4.46.8a91,91,0,0,0-72,79.9,92.61,92.61,0,0,0-.47,9.32V1781.78a91.08,91.08,0,0,0,59.87,85.64h0l.47.16q2.6.93,5.27,1.69c.64.19,1.28.38,1.92.55s1.37.34,2.05.5,1.39.33,2.09.48,1.32.28,2,.4,1.49.28,2.25.41l1.92.29c.81.12,1.63.22,2.45.32.59.07,1.19.14,1.79.19.93.09,1.88.16,2.82.22l1.49.1c1.45.07,2.91.11,4.38.11h673a90.88,90.88,0,0,0,90.75-91.06V401.64A91.08,91.08,0,0,0,1692.05,316Z" transform="translate(-227.76 -119)"/><rect class="cls-5" x="713.62" y="315.68" width="766.53" height="1314.05"/><circle class="cls-6" cx="1326.09" cy="883.62" r="275.2" transform="translate(-464.17 1077.49) rotate(-45)"/><path class="cls-7" d="M1481.05,393.39H1169.51a8.24,8.24,0,0,1-8.24-8.23h0a8.24,8.24,0,0,1,8.24-8.24h311.54a8.24,8.24,0,0,1,8.23,8.24h0A8.24,8.24,0,0,1,1481.05,393.39Z" transform="translate(-227.76 -119)"/><circle class="cls-6" cx="1326.09" cy="883.62" r="242.37" transform="translate(-464.17 1077.49) rotate(-45)"/><circle class="cls-6" cx="1326.09" cy="883.62" r="199.17" transform="translate(-464.17 1077.49) rotate(-45)"/><path class="cls-7" d="M1361.86,1812a37.65,37.65,0,1,1-37.65-37.77A37.72,37.72,0,0,1,1361.86,1812Z" transform="translate(-227.76 -119)"/><rect class="cls-6" x="713.62" y="1574.6" width="766.53" height="55.13"/><rect class="cls-6" x="713.62" y="315.68" width="766.53" height="69.73"/><path class="cls-8" d="M784.59,1178l2.69,2.41a3.31,3.31,0,0,0,4.65-.11l47.7-52.62a3.27,3.27,0,0,0-.36-4.61l-2.69-2.42a3.3,3.3,0,0,0-4.65.12l-47.7,52.61A3.28,3.28,0,0,0,784.59,1178Z" transform="translate(-227.76 -119)"/><path class="cls-9" d="M622.88,1135.27c6.37-5.2,55.68,16.51,55,24.07s34.4,80.81,34.4,80.81l60.54-48.43,0,0c.54-1.76,6.28-20.59,6.56-24,.29-3.54,10.52-9.72,15.27-8.81s-4.06,6.89-4.64,8c-1.58,3,4.51,4.11,4.51,4.11s17.49-9.64,17.86-15.3,4-17.54,7.76-15c1.95,1.28,1.94,9.7,1.33,13.7,1.12-4.54,2.71-9.66,4.26-10.17,2.83-.93,4.24,2.68,3.72,4.46s-5.08,21-6.47,23.2-29.6,24.95-33.67,29.91c0,0-78.3,89.81-83.87,92.16-4.89,2.06-22.34-28.89-38.81-49.43S603,1151.53,622.88,1135.27Z" transform="translate(-227.76 -119)"/><path class="cls-10" d="M464.89,1795.68s-10.76,10.53-11,14.4-.95,45.28,3.44,49.15,17.3,6.61,13.15,11c-3.14,3.28-27.25,2.58-43.24,1.7-4.67-.26-10.52-37.62-12.36-43.11-2.69-8-9.22-25.93-6.78-31.49,1.19-2.71,6.88-8.27,14.9-13.47,8.43-5.46,16.49-17.63,16.49-17.63Z" transform="translate(-227.76 -119)"/><path class="cls-9" d="M576.34,1820.21s-9.62,27.29-9.64,27.36c-.71,4.33-3.53,15-3.53,18.94,0,14.77,66.37-12.54,51.5-19.08-1.35-.59-5.57-5.32-6-10.35-.68-7.74,5.59-17.46,5.59-17.46Z" transform="translate(-227.76 -119)"/><path class="cls-4" d="M680.47,1312s4.83,48.93,4.83,49.66c0,79.14,15.64,233.75,12.67,248.63-7.26,36.29-85.33,221.44-85.33,221.44l-42.2-5.06,55-221.68-20.24-89.22-28.63-176.37Z" transform="translate(-227.76 -119)"/><path class="cls-8" d="M538.84,1355.26l-8,46.37-21.67,190.85L426.67,1779s11.6,27.14,28.73,31l131.3-191.51,81.57-245.06L665.41,1319Z" transform="translate(-227.76 -119)"/><path class="cls-11" d="M697.29,1195.48l-58.51,6s-2.68-48.14-2.68-71.1c0-27.85,2.36-63.73,5.71-63,9.41,2.17,22.09,7.38,29.63,17.78C697.55,1121.19,697.29,1195.48,697.29,1195.48Z" transform="translate(-227.76 -119)"/><path class="cls-3" d="M668.55,1125.47c1.22,8.49,23.72,239.39,23.72,239.39-106.54,51.63-165.33,9.19-165.33,9.19s3.48-162.13-.7-184.2c-2.76-14.6-6.21-111.62,3.22-114.34,12.1-3.49,26-7.19,41.1-8.77,12.91-1.34,63.06-2.12,72,.9C642.59,1067.64,663.4,1089.75,668.55,1125.47Z" transform="translate(-227.76 -119)"/><path class="cls-8" d="M423.51,1783.56s24.8,70.06,34.5,73.44c2.58.9,14.95,3.18,17.28,8.66.7,1.66,0,7.18,0,7.18H423.6s-6.53-30.87-9.12-44.43c0,0-13.68-33.14-12.16-36.15S423.51,1783.56,423.51,1783.56Z" transform="translate(-227.76 -119)"/><path class="cls-8" d="M559.39,1871.38l7.6-24.09s16,6.78,24,5.65,23.56-5.65,23.56-5.65c31.86,10.52,58,15.63,53.21,24.09H559.39Z" transform="translate(-227.76 -119)"/><path class="cls-9" d="M705.51,1294a13.87,13.87,0,0,0,1.6-1.19c-1.89-22.62-1.55-44.54,5.53-52-.17-.35-1.72-3.65-3.33-7.07-8.21,6.37-12.1,23.27-10.57,50.71a45.22,45.22,0,0,0,1.08,5.69C702.19,1292.78,704.35,1294.47,705.51,1294Z" transform="translate(-227.76 -119)"/><path class="cls-12" d="M421.41,1367.3a6.74,6.74,0,0,1,0-1.49c1.57-16,14.8-150.26,17-156,2-5.16,61.35-90.32,61.35-90.32l29.17,39.87-57.07,76.39c-1.28,4.85-21.87,95.49-21.87,95.49s-4.22,16.52-6.11,26.42c.86,2.38,1.7,4.63,2.45,6.48a60.87,60.87,0,0,0,6.15,9.92c2.55,3.43,6.77,10.93,7.29,12.93.61,2.33,1.7,7.18,2.31,10.1s1.46,6.33,1.61,7.92a15.34,15.34,0,0,0,1.84,4.26,2.55,2.55,0,0,1-3,3.68c-2.07-.69-3.68-3.38-4.68-5.06-2.81-4.74-4.3-13.39-5-12.93s-3.16,15.13-3.55,16.79-3.34,18.7-5,21.81-3.87,2.6-4.45.65c-.51-1.68,1.84-25.52,1.84-25.52s.29-3-1-2.09-3.5,22.59-4.42,25.75-3,4.85-4.81,2.31c-2.17-3.1,1.56-26.06,1.56-26.06s.42-2.88-.81-2.61-2.77,18.71-3.72,20.31-3.37,2.16-4.52-.5c-1.36-3.13,2.15-23.59,2.15-23.59s-.17-1.63-.94-1.09-3.19,16.17-4.78,17.62a1.68,1.68,0,0,1-2.44,0c-2.91-2,1.55-16.85,1.51-24.25s3.37-15.69,2.35-24.5C421.71,1369.51,421.53,1368.15,421.41,1367.3Z" transform="translate(-227.76 -119)"/><path class="cls-3" d="M453.41,1173.47l50.69,34.15S532.67,1165,548,1149.77c19.21-19-7-77.3-19.38-74C500.94,1083.14,453.41,1173.47,453.41,1173.47Z" transform="translate(-227.76 -119)"/><path class="cls-9" d="M574.29,1016.83,566.7,1067s27.69,59.7,44.22,54.53c13.87-4.35,5.34-57.18,5.34-57.18S608.7,1036,611,1021.76,574.29,1016.83,574.29,1016.83Z" transform="translate(-227.76 -119)"/><path class="cls-3" d="M611,1021.76c2.26-14.2-36.68-4.93-36.68-4.93l-.63,4.15a23,23,0,0,0,4.22,7c8.7,9.4,22.3,15,34.06,15.47C610.76,1035.78,610,1027.58,611,1021.76Z" transform="translate(-227.76 -119)"/><path class="cls-9" d="M567.89,945.89c-1.1-.41-8.82,57.11,5.84,72.93s43.21,21,53.45,8.54c11.33-13.78,10.76-75.6-12-91.87S567.89,945.89,567.89,945.89Z" transform="translate(-227.76 -119)"/><path class="cls-13" d="M606.48,904.72a63.17,63.17,0,0,0-33.21,19c-8,.94-18.87,5.38-30.09,24-13.8,22.92-3.61,48.33,12.45,60.79s15.85,26.86,15.85,26.86L574,1028a41.93,41.93,0,0,0,2-17.54,34.54,34.54,0,0,0-2.6-10.54c-3.87-8.33,8.3-13.86,11.71-20.78,2.63-5.33,2.75-17.53,6.89-26.35L597,946s11.4-8.9,22.56-6.39S629.08,900.1,606.48,904.72Z" transform="translate(-227.76 -119)"/><path class="cls-9" d="M584.39,989.33c.12,7-3.06,12.76-7.1,12.83s-7.41-5.56-7.52-12.58,3.06-12.76,7.1-12.83S584.27,982.32,584.39,989.33Z" transform="translate(-227.76 -119)"/><path class="cls-14" d="M608.19,1005.55l22.09-1.15s-.07,8.44-9.78,9.23C608.68,1014.59,608.19,1005.55,608.19,1005.55Z" transform="translate(-227.76 -119)"/><path class="cls-9" d="M2039.19,1199.28s42.55,93.38,51.57,110.74,25.81,70.87,26.58,73.51-21.46,32.53-17.26,34,10.12-15.06,14.54-12.5,14.88,45.29,17.62,43.54c5.13-3.28-5.41-26.39-2.72-27.46s8.78,25.1,13.93,24.93-8.07-24.28-6.51-26.1,15.43,21,18.51,16.86c1.68-2.28-12.82-20-9.71-21.21s16.26,10.74,17.94,7.93-12.35-8.51-16.07-17-10.77-12.81-12.76-28-2.78-69.55-16.41-98.16-43.6-91.9-43.6-91.9Z" transform="translate(-227.76 -119)"/><path class="cls-8" d="M2052.72,1095.29c1-23-2.42-45.8-12.69-67.25-8.83-18.46-30.69-28.94-50.62-29-63.29-.08-71.33,83.89-111.62,116.29-12.31,9.89-26.07,18-37.72,28.63-43,39.41-23.63,112.37,15.86,146.93,27.41,24,70.48,37.6,104.26,18.86,17.63-9.79,31-26.06,40.55-43.88,13.54-25.29,22.26-54.47,31.89-81.43C2042.87,1155.79,2051.46,1125.92,2052.72,1095.29Z" transform="translate(-227.76 -119)"/><path class="cls-9" d="M1826.57,1005.62c2.92-2.12,10.31,13,13.87,12.81s-2.46-21.1.22-22.72c4.93-3,8,22.55,10.34,21.32s.5-27.7,5.58-26.31-.93,27.66,2.18,27.46,3.41-24.92,9.9-26.43c3.48-.8-5.86,42.21-2.72,45.93s16.49-10,19.89-7.27-26.15,22.79-26.61,25.49-6.57,60.43-5.77,79.52c6.58.37,43.83,7.75,50,8-4.1,12.08,6,24.55,2.6,36.76-20.88-1.85-83-6.58-86.88-11.06-11.86-13.65,9.88-97.95,14.89-112.73s.11-20.93.37-30S1823.65,1007.74,1826.57,1005.62Z" transform="translate(-227.76 -119)"/><path class="cls-10" d="M1923.35,1867.87c5.26-3.88,9.51-6.44,26.32-14.59,1.09-.53,5.08-3.08,6.52-4a50.46,50.46,0,0,0,10.47-9.27c3-3.36,4.45-14.13,5.13-22.72-1.73-19.18-29.52-326.82-35.39-360.13-6.05-34.37,3.17-86.81,3.17-86.81l21.46-8.09,40.73,141.18L1998.55,1611s9.58,31,10.79,49.49-13.85,168.77-13.85,168.77h0a78.14,78.14,0,0,0,.81,13.26c1.1,5.62,7.26,17.19,4.43,22.48s-6,6.61-6,6.61l-73.19,1.19C1917.5,1872.81,1920.14,1870.24,1923.35,1867.87Z" transform="translate(-227.76 -119)"/><path class="cls-15" d="M2034.44,1359.36s25.42,38.35,31.47,70.08-4.45,129.25,7.2,170.84c6.3,22.51,30.18,57.27,33.81,86.36s16.27,113,16.27,113h0c1.91,8.82,4.9,19.72,8.79,24.79,2.38,3.1,6.72,7,9.58,12.63,4.44,8.73,2,21.72-1.29,28.87-1.68,3.68.11,3.67-3.71,4.85-11.34,3.51-23.4-2.4-28.23-13.28a67.62,67.62,0,0,1-5.53-24.41,114.07,114.07,0,0,0-4-25.8h0L2017.55,1608l-58.82-172-15.07-88.58Z" transform="translate(-227.76 -119)"/><path class="cls-8" d="M2106.13,1851.82c17.59,3.21,29.29-7.1,35.38-14.82,4.47,8.75,6.65,21.79,3.36,29-2.9,6.33-11.36,6.15-18,6.4-7,.26-12.49-3.66-16-9.81A59.13,59.13,0,0,1,2106.13,1851.82Z" transform="translate(-227.76 -119)"/><path class="cls-8" d="M1956.2,1849.32c19.36,5,33.67,1.59,41.68-1.64,2.06,5.86,4.8,13.22,3.34,17.46-1.77,5.19-4.3,6.37-6.54,6.42-17.68.47-64.76,1.1-78.25,1.28a2.21,2.21,0,0,1-1.71-3.63C1918.07,1865.21,1954.76,1850.2,1956.2,1849.32Z" transform="translate(-227.76 -119)"/><path class="cls-8" d="M2018,1604.28l-4.59.3h-.24c-1.5.09-3,.18-4.54.25l-.28,0-4.57.22h-.24c-1.55.07-3.11.13-4.67.18-17.35.57-38.78.35-52.53-2-7-70.17-9.62-134.22-12.22-148.39-6.29-34.38,5.49-88.64,5.49-88.64l-1-12.89,3-8.22L2036,1357s26.43,38.34,32.73,70.07-4.62,129.26,7.48,170.84C2076.24,1598,2049.29,1602.15,2018,1604.28Z" transform="translate(-227.76 -119)"/><path class="cls-16" d="M1889.4,1138.13s70.68-7.39,91.53-.42,35.51,36.78,24.38,53.46-111.44-5.17-111.44-5.17Z" transform="translate(-227.76 -119)"/><path class="cls-2" d="M2014.05,1131.56s35-2.17,48.8,12.48-30.69,130.54-33.2,149.18,12.82,68.22,12.82,68.22-82.13,16.06-105.6,1c0,0-4.31-135.36-1.79-148.68s25.26-66.18,30.29-71.51S2014.05,1131.56,2014.05,1131.56Z" transform="translate(-227.76 -119)"/><path class="cls-9" d="M2002.42,1086.16s.18,1,.5,2.71c1.56,8.16,7.56,35.26,11.62,42.71,4.9,9-16.78,37.71-37.64,34.2-6.21-1,5.25-26.38,4.7-29.06-1.06-5.14-2.49-12.14-3.95-19.33-.83-4.06-1.66-8.17-2.45-12-2.23-11-4-20-4-20Z" transform="translate(-227.76 -119)"/><path class="cls-17" d="M2002.92,1088.87c-.32-1.71-.5-2.71-.5-2.71l-31.27-.76s1.82,9,4,20c.78,3.84,1.62,7.93,2.44,12,4.82-.69,9.87-3,14.92-7.27a38.26,38.26,0,0,0,11.31-16.34C2003.49,1091.79,2003.16,1090.13,2002.92,1088.87Z" transform="translate(-227.76 -119)"/><path class="cls-9" d="M1981.37,1017.1s14.74-1.65,24,10,19.19,47.51-3.76,67-45.61-2.58-49-26S1948,1016.26,1981.37,1017.1Z" transform="translate(-227.76 -119)"/><path class="cls-9" d="M1945.83,1067.74c2.73,5.18,7.33,8,10.26,6.4s3.09-7.16.35-12.34-7.33-8-10.26-6.4S1943.09,1062.57,1945.83,1067.74Z" transform="translate(-227.76 -119)"/><path class="cls-8" d="M1979.72,1013.27s19.69,34.14,33.78,35.71,15.93,19.72,15.93,19.72-5-41.8-19-49.86S1979.72,1013.27,1979.72,1013.27Z" transform="translate(-227.76 -119)"/><path class="cls-9" d="M2009.8,1057.56c-1.14,6.07,1.16,11.63,5.15,12.42s8.15-3.47,9.29-9.53-1.16-11.63-5.14-12.42S2011,1051.5,2009.8,1057.56Z" transform="translate(-227.76 -119)"/><path class="cls-14" d="M1990.46,1073.34l-20.12,2.89s1.56,7.57,10.44,6.56C1991.61,1081.55,1990.46,1073.34,1990.46,1073.34Z" transform="translate(-227.76 -119)"/><path class="cls-2" d="M2061.33,1265.32s-39.49-59.08-43-80.78,16-48.56,35.92-46.48,54,100.92,54,100.92Z" transform="translate(-227.76 -119)"/><path class="cls-5" d="M1281.92,860.1h22c1.18,0,2.5.33,3.49-.1a17.08,17.08,0,0,0,3.39-2.63c-1.14-.88-2.26-2.46-3.44-2.51-6.59-.25-13.2-.12-19.8-.13h-5.41V840.31c7.63,0,15.06.06,22.5,0,2.31,0,5.87,1,6-2.6.09-3.75-3.52-2.64-5.8-2.67-7.45-.11-14.91,0-22.63,0V820.41c7.42,0,14.85.08,22.27,0,2.39,0,6.3,1.23,6.18-2.73-.11-3.8-4-2.49-6.39-2.54-7.29-.13-14.58-.05-22.08-.05V800.56h21.25c1.32,0,2.76.29,3.92-.15s2.33-1.66,3.48-2.53c-1.14-.88-2.25-2.48-3.43-2.53-6.3-.27-12.61-.15-18.92-.17h-4.78c1.06-16.77,20.19-32.83,40.18-34.11,20.7-1.34,41,13.82,44.86,34.11h-19.67c-1.61,0-3.32-.26-4.8.2-1.15.35-2,1.64-3,2.52,1,.86,2,2.35,3.06,2.46,3.49.34,7,.18,10.55.19,4.83,0,9.66,0,14.89,0V815H1349.1c-1.17,0-2.46-.31-3.49.08a28,28,0,0,0-4.38,2.55c1.41.91,2.79,2.55,4.23,2.61,6.59.28,13.2.13,19.8.13h4.61V835H1349c-1.47,0-3.06-.36-4.37.1s-2.22,1.74-3.31,2.67c1,.83,2,2.27,3.12,2.38,3.49.33,7,.18,10.55.19h14.85v14.43h-18.56c-2.2,0-4.47-.29-6.58.14-1.26.25-2.28,1.67-3.4,2.56,1.14.88,2.25,2.49,3.42,2.53,6.74.25,13.49.14,20.24.14h5.18c0,11.1.18,21.77-.06,32.43-.18,7.87.16,16-1.61,23.55-3.85,16.44-14.65,27.25-30.94,31.66-16.11,4.36-30.6.39-42.54-11.31a42.12,42.12,0,0,1-13-31.19C1281.94,890.42,1281.92,875.61,1281.92,860.1Z" transform="translate(-227.76 -119)"/><path class="cls-5" d="M1300.66,979.69c5.06,1.75,10.36,2.82,15.53,4.2v73h19.62V983.57c2.45-.48,4.49-.78,6.48-1.28,31-7.82,51.09-26.84,59.42-57.89,4.1-15.29,2.09-30.94,2.39-46.43.12-6.18-3.78-10.13-9.18-10.14s-9.09,3.73-9.21,10c-.13,6.59-.09,13.2.07,19.79.39,16.07-2.31,31.16-12.45,44.36-14.87,19.37-40.38,28-63.67,21.13-24-7-41.21-27.92-42.79-52.48-.64-9.94-.26-19.94-.45-29.92a24.93,24.93,0,0,0-.83-7.35c-1.36-4-5.63-6.13-10-5.47s-7.58,4.32-7.66,9.37c-.16,9.68-.14,19.37,0,29.05A78.07,78.07,0,0,0,1300.66,979.69Z" transform="translate(-227.76 -119)"/><path class="cls-18" d="M1785.44,362.54l2.59,23.15c.69,1,1.85,1,4.71.89,5.13-.14,10.26-.27,15.39-.23a3.34,3.34,0,0,1,2.36,1.52c2.46,4.37,4.66,8.9,7.16,13.25.78,1.35,1,2.17,0,3.51-3.73,5.39-7.31,10.89-10.91,16.28,3.54,4.82,15,14.16,19.76,16.09,4.35-4.49,8.85-9,13.17-13.7,1.35-1.46,2.26-1.68,4.21-.95a129.92,129.92,0,0,0,13.94,4.19c1.91.48,3,1,3.42,3.18,1,5.64,2.3,11.21,3.38,16.83.29,1.51.92,2.26,2.47,2.1q10.89-1.14,21.79-2.28c1.78-.19,1.47-1.59,1.47-2.69,0-5.55,0-11.11-.21-16.65-.07-2.09.6-3.07,2.51-4,5.08-2.36,10-5.05,15.36-7.8l17.47,11.55a74.87,74.87,0,0,0,15.8-19.82l-14.71-14.33c1.75-6.45,3.49-12.38,4.89-18.4a2.82,2.82,0,0,1,2.67-2.59c5.54-1.05,11-2.28,16.57-3.37,1.2-.24,2-.54,2.07-2a71.53,71.53,0,0,0-2-21.52c-.43-1.58-1.22-1.94-2.66-1.92-5.8.07-11.6,0-17.41.13a2.61,2.61,0,0,1-2.85-1.69c-2.55-4.9-5.3-9.7-8.17-14.42a2.21,2.21,0,0,1,.11-2.86c3.61-5.47,7.19-11,10.88-16.59a80.28,80.28,0,0,0-19.44-15.82L1896.28,307l-20.11-6c-1-4.91-2.17-10.58-3.41-16.23-1-4.64-.16-4.34-5.24-4.3a8.18,8.18,0,0,1-1.45-.26l-13,1.46a16.1,16.1,0,0,1-2.84.82c-2.5.24-3.53,1.27-3.4,4,.27,5.71.19,11.43.12,17.15a3.06,3.06,0,0,1-1.3,2.18c-4.27,2.49-8.76,4.63-12.88,7.34-2,1.33-3.19,1.12-5-.12-5.12-3.52-10.38-6.83-16.11-10.56L1795.74,322c1.12,1.13,1.75,1.79,2.41,2.42,4,3.93,8,7.9,12.14,11.76,1.17,1.1,1.19,2,.73,3.47-1.56,5.13-2.79,10.35-4.31,15.48a3.35,3.35,0,0,1-2.09,1.92c-4.5,1.06-9,1.88-13.57,2.85C1787.39,360.68,1786,361,1785.44,362.54Zm46.33,5.94A37.7,37.7,0,0,1,1865,326.82h0a37.69,37.69,0,0,1,41.66,33.26h0a37.7,37.7,0,0,1-33.26,41.67h0a37.7,37.7,0,0,1-41.67-33.27Z" transform="translate(-227.76 -119)"/><path class="cls-19" d="M682,253.81l8.95,56,29.94-39.4,99.3-94.89L732,211s-42.82,25-44.65,28S682,253.81,682,253.81Z" transform="translate(-227.76 -119)"/><polygon class="cls-18" points="404.33 114.25 592.38 56.56 454.2 134.81 404.33 114.25"/><polygon class="cls-18" points="530.98 170.93 469.75 146.02 592.38 56.56 530.98 170.93"/><path class="cls-20" d="M477.18,526.05a125.22,125.22,0,0,1-1.4-13.61c-.21-4.21-.2-8.51,0-12.78l4.63.23c-.21,4.12-.21,8.26,0,12.32a121.28,121.28,0,0,0,1.36,13.11c.2,1.26.42,2.52.66,3.77l-4.55.87C477.62,528.64,477.39,527.32,477.18,526.05Zm3.36-56.34a176.52,176.52,0,0,1,10.32-28.45l4.21,1.94A171.75,171.75,0,0,0,485,470.9ZM618.63,418.8c-.3-.08-.61-.17-.91-.27l1.36-4.43c.26.09.53.16.75.23a3.46,3.46,0,0,0,.49,0c2.59-.13,8.94-2,11.87-5.22a19.65,19.65,0,0,0,4.75-10.29l4.57.76a24.47,24.47,0,0,1-5.91,12.66c-4.06,4.42-11.81,6.55-15.05,6.71A5.88,5.88,0,0,1,618.63,418.8Zm-113.14-4a240.58,240.58,0,0,1,18-24.22l3.54,3a235.15,235.15,0,0,0-17.66,23.76Zm85.07-25.36A56.47,56.47,0,0,1,588.28,376a68.12,68.12,0,0,1,.09-7.81l4.62.32a63.1,63.1,0,0,0-.08,7.26,51.29,51.29,0,0,0,2.09,12.4,42.33,42.33,0,0,0,3.35,8l-4.07,2.21A47.73,47.73,0,0,1,590.56,389.47Zm14.57-29-.65-.1.69-4.58.7.11c10.48,1.7,20.24,6.81,26.77,14l-3.43,3.12C623.37,366.61,614.59,362,605.13,360.5Zm-58.06,10.8c4.48-3,12.68-8.22,17.33-9.85,3.62-1.27,7-2.31,10.24-3.18l1.19,4.47c-3.16.84-6.39,1.85-9.89,3.08-3.05,1.07-9,4.47-16.31,9.34Zm49-32.72a103.45,103.45,0,0,1,16.3-25.75l3.51,3a99.19,99.19,0,0,0-15.58,24.6Z" transform="translate(-227.76 -119)"/><path class="cls-20" d="M637.93,296.88a88.67,88.67,0,0,1,13.22-6.83l-1.77-4.28A95.07,95.07,0,0,0,635.47,293Z" transform="translate(-227.76 -119)"/><path class="cls-6" d="M1516,1586.21H1132a45,45,0,0,1-45-45h0a45,45,0,0,1,45-45h384a45,45,0,0,1,45,45h0A45,45,0,0,1,1516,1586.21Z" transform="translate(-227.76 -119)"/><g class="cls-21"><rect class="cls-22" x="790.88" y="1166.79" width="15.35" height="78.91"/><rect class="cls-22" x="818.53" y="1176.65" width="15.35" height="59.18"/><rect class="cls-22" x="846.18" y="1166.79" width="15.35" height="78.91"/><rect class="cls-22" x="873.83" y="1130.45" width="15.35" height="149.16"/><rect class="cls-22" x="901.49" y="1151.74" width="15.35" height="109.01"/><rect class="cls-22" x="1151.38" y="1130.45" width="15.35" height="149.16"/><rect class="cls-22" x="1179.03" y="1159.52" width="15.35" height="93.44"/><rect class="cls-22" x="1204.76" y="1184.44" width="15.35" height="43.61"/><rect class="cls-22" x="1229.66" y="1171.46" width="15.35" height="69.56"/><rect class="cls-22" x="1255.11" y="1134.8" width="15.35" height="142.89"/><rect class="cls-22" x="1281.34" y="1176.65" width="15.35" height="59.18"/><rect class="cls-22" x="1308.51" y="1159.52" width="15.35" height="93.44"/><rect class="cls-22" x="1333.81" y="1130.45" width="15.35" height="151.58"/><rect class="cls-22" x="1358.68" y="1159.52" width="15.35" height="88.77"/><rect class="cls-22" x="1384.63" y="1181.21" width="15.35" height="45.39"/><rect class="cls-22" x="1409.71" y="1190.49" width="15.35" height="26.83"/><rect class="cls-22" x="764.46" y="1184.44" width="15.35" height="38.93"/><rect class="cls-22" x="1038.16" y="1130.45" width="15.35" height="149.16"/><rect class="cls-22" x="1065.81" y="1151.74" width="15.35" height="109.01"/><rect class="cls-22" x="929.14" y="1176.65" width="15.35" height="59.18"/><rect class="cls-22" x="956.79" y="1184.44" width="15.35" height="43.61"/><rect class="cls-22" x="1095.72" y="1176.65" width="15.35" height="59.18"/><rect class="cls-22" x="1123.37" y="1159.52" width="15.35" height="93.44"/><rect class="cls-22" x="984.44" y="1171.46" width="15.35" height="69.56"/><rect class="cls-22" x="1012.09" y="1159.52" width="15.35" height="93.44"/></g><path class="cls-19" d="M2233.9,941.87l-125.45,44.41a11.68,11.68,0,0,1-14.91-7.12l-28.43-80.3a11.69,11.69,0,0,1,7.12-14.91l125.44-44.41a11.69,11.69,0,0,1,14.92,7.12L2241,927A11.67,11.67,0,0,1,2233.9,941.87Z" transform="translate(-227.76 -119)"/><polygon class="cls-19" points="1855.9 817.91 1828.24 878.51 1878.69 848.79 1855.9 817.91"/><path class="cls-14" d="M2121,916.27l13.11-5s12.14-18.45,11.05-23-7.17-12.88-5-15,7.29-5,12.85-.44c4,3.31,7.53,19.47,9.46,19.93,1.2.3,8.82-2.38,14.35-4.42a10.44,10.44,0,0,1,10.6,2h0a5.55,5.55,0,0,1,1.07,6.9l-2,3.53,3.43,2.24a5.55,5.55,0,0,1,1.64,7.65l-1.68,2.62,2.24,1.23a5.54,5.54,0,0,1,1.87,8.05l-1.54,2.2.52.46a5.54,5.54,0,0,1,.77,7.45l-1.58,2.13-34.92,13.37a25.7,25.7,0,0,1-10.27,1.67l-13.06,2.67a2.89,2.89,0,0,1-3.3-1.84L2119.27,920A2.9,2.9,0,0,1,2121,916.27Z" transform="translate(-227.76 -119)"/><path class="cls-23" d="M492.16,734.57H249.21a21.49,21.49,0,0,0-21.45,21.52v142a21.49,21.49,0,0,0,21.45,21.53h170c10.93,15.3,30.75,42.7,32.49,42.7s-1.51-25.88-3.73-42.7h44.2a21.49,21.49,0,0,0,21.45-21.53v-142A21.49,21.49,0,0,0,492.16,734.57Z" transform="translate(-227.76 -119)"/><path class="cls-3" d="M635.48,564.75H942.19a29.38,29.38,0,0,1,29.33,29.43V788.39a29.38,29.38,0,0,1-29.33,29.44h-207c-14.94,20.92-42,58.39-44.43,58.39-2.24,0,2.07-35.39,5.11-58.39H635.48a29.38,29.38,0,0,1-29.33-29.44V594.18A29.38,29.38,0,0,1,635.48,564.75Z" transform="translate(-227.76 -119)"/><path class="cls-14" d="M937.38,664.58H788.27a.9.9,0,0,0-.9.91V677a.9.9,0,0,0,.9.9H937.38a.9.9,0,0,0,.91-.9V665.49A.91.91,0,0,0,937.38,664.58Z" transform="translate(-227.76 -119)"/><rect class="cls-14" x="639.91" y="664.58" width="126.13" height="13.3" rx="0.86" transform="translate(1178.19 1223.46) rotate(180)"/><rect class="cls-14" x="639.38" y="621.14" width="167.53" height="13.3" rx="0.86" transform="translate(1218.53 1136.57) rotate(180)"/><rect class="cls-14" x="835.27" y="621.14" width="103.02" height="13.3" rx="0.86" transform="translate(1545.79 1136.57) rotate(180)"/><polygon class="cls-14" points="411.62 643.98 710.52 643.98 710.52 643.98 710.52 630.67 411.62 630.67 411.62 643.98"/><rect class="cls-14" x="796.13" y="707.63" width="142.15" height="13.3" transform="translate(1506.66 1309.56) rotate(180)"/><rect class="cls-14" x="639.91" y="707.63" width="142.15" height="13.3" transform="translate(1194.21 1309.56) rotate(180)"/><path class="cls-24" d="M354.09,853.33c0,6.23,8.16,11.29,18.23,11.29s18.23-5.06,18.23-11.29S382.39,842,372.32,842,354.09,847.09,354.09,853.33Z" transform="translate(-227.76 -119)"/><path class="cls-2" d="M372.32,613.42a82.2,82.2,0,0,1,53.84,144.31c-.06.07-12.84,13.88-15,28.34l-.38,8.86a12.48,12.48,0,0,1-3.22,7.82c-.17.19-.35.37-.54.55h-69.5c-.19-.18-.37-.36-.54-.55a12.48,12.48,0,0,1-3.22-7.82l-.38-8.86c-2.11-14.46-14.89-28.27-14.95-28.34a82.2,82.2,0,0,1,53.84-144.31Z" transform="translate(-227.76 -119)"/><path class="cls-25" d="M346.64,803.3H398a9.25,9.25,0,0,1,9.25,9.25v42a0,0,0,0,1,0,0H337.39a0,0,0,0,1,0,0v-42A9.25,9.25,0,0,1,346.64,803.3Z" transform="translate(516.88 1538.89) rotate(180)"/><path class="cls-26" d="M351.71,758.46A82.25,82.25,0,0,0,417.64,627a82.2,82.2,0,0,1,8.52,130.69c-.06.07-12.84,13.88-15,28.34l-.38,8.86a12.48,12.48,0,0,1-3.22,7.82c-.17.19-.35.37-.54.55h-69.5c-.19-.18-.37-.36-.54-.55a12.48,12.48,0,0,1-3.22-7.82l-.38-8.86c-2.11-14.46-14.89-28.27-14.95-28.34A82.88,82.88,0,0,1,306.6,745,81.87,81.87,0,0,0,351.71,758.46Z" transform="translate(-227.76 -119)"/><polygon class="cls-14" points="145.13 616.48 161.47 545.24 175.8 586.68 180 585.23 160.6 529.13 143.93 601.82 126.86 560.15 111.06 586.84 114.88 589.11 126.14 570.11 145.13 616.48"/><path class="cls-25" d="M393.48,814l.4,0A3.76,3.76,0,0,0,398,810.7l11.42-110.3a3.74,3.74,0,0,0-3.35-4.12l-.39,0a3.74,3.74,0,0,0-4.12,3.35l-11.43,110.3A3.76,3.76,0,0,0,393.48,814Z" transform="translate(-227.76 -119)"/><path class="cls-25" d="M350.91,814h0a4,4,0,0,1-4.34-3.53L335.19,700.6a4,4,0,0,1,3.53-4.34h0a4,4,0,0,1,4.34,3.52l11.38,109.91A4,4,0,0,1,350.91,814Z" transform="translate(-227.76 -119)"/><rect class="cls-24" x="334.41" y="803.3" width="75.78" height="7.73" rx="1.02" transform="translate(516.83 1495.33) rotate(180)"/><rect class="cls-24" x="334.41" y="818.8" width="75.78" height="7.73" rx="1.02" transform="translate(516.83 1526.34) rotate(180)"/><rect class="cls-24" x="334.41" y="836.15" width="75.78" height="7.73" rx="1.02" transform="translate(516.83 1561.03) rotate(180)"/><rect class="cls-2" x="33.21" y="1750.67" width="2247.72" height="9.24"/></svg>