<svg id="Layer_1" data-name="Layer 1" xmlns="http://www.w3.org/2000/svg" xmlns:xlink="http://www.w3.org/1999/xlink" viewBox="0 0 715.83 134.49"><defs><style>.cls-1{font-size:67.56px;font-family:Gin-Regular, Gin;}.cls-1,.cls-3{fill:#fff;}.cls-2{clip-path:url(#clip-path);}.cls-4{fill:#fdfffd;}</style><clipPath id="clip-path" transform="translate(-634.81 -242.7)"/></defs><title>click-home-logo-white</title><text class="cls-1" transform="translate(202.54 105.43)">Click Home Income</text><g class="cls-2"><path class="cls-3" d="M721.81,358.35c0-2.27,0-4.25,0-6.23,0-3.75-.06-7.51,0-11.27a23.63,23.63,0,0,1,.31-4,2.65,2.65,0,0,1,2.73-2.47,3,3,0,0,1,2.83,3c.09,2.17,0,4.36,0,6.53,0,.37,0,.73,0,1.32,1.06-1.06,2.08-1.65,3.42-1.18s1.74,1.55,2,2.9c1-1.15,2.17-1.7,3.6-1.08s1.7,2,1.9,3.3a10.82,10.82,0,0,1,2.06-.88,2.53,2.53,0,0,1,3,2,8.08,8.08,0,0,1,.23,1.89c-.09,4.2.12,8.44-.44,12.58-.36,2.63-2,5-2.85,7.64s-2.29,3.31-4.93,3.13c-4.05-.27-8.14-.08-12.22-.05a1.18,1.18,0,0,1-1.28-.79,85,85,0,0,0-7.51-13.3,40.06,40.06,0,0,1-3-5.65,2.63,2.63,0,0,1,.56-3.3,2.91,2.91,0,0,1,4.36.17c1.66,1.82,3.29,3.68,5.17,5.78" transform="translate(-634.81 -242.7)"/><path class="cls-3" d="M719.87,350.94a14.35,14.35,0,0,1-9.49-12.38,14.65,14.65,0,0,1,9.27-15,14.6,14.6,0,0,1,17.79,21.14,3.33,3.33,0,0,0-2.29-.16,35.76,35.76,0,0,0,1.88-5.4,12.3,12.3,0,0,0-6.78-13A12.12,12.12,0,0,0,716,328.87a12.29,12.29,0,0,0,2.55,18.91,10.87,10.87,0,0,0,1.34.76s0,1.46,0,2.4" transform="translate(-634.81 -242.7)"/><path class="cls-3" d="M729.47,343c.42-.63.69-1.08,1-1.49a6.86,6.86,0,0,0-6.12-11.08,6.9,6.9,0,0,0-5.76,5,5.92,5.92,0,0,0,.7,5.19c.45.62.82,1,.82,1s0,2.36,0,3.21c-.39-.29-.71-.5-1-.74a9.11,9.11,0,0,1-2.32-10.57,9.11,9.11,0,0,1,17.36,2,8.83,8.83,0,0,1-1.63,7l-.34.49a4,4,0,0,0-2.71-.08" transform="translate(-634.81 -242.7)"/><path class="cls-3" d="M700.41,374q-.39-5.34-.67-10.66l-.29-5.33-.25-5.33c-.35-7.11-.57-14.21-.83-21.32s-.41-14.21-.56-21.32l-.2-10.65-.14-10.66,0-2.93,3,0,13.46-.11,13.47,0,13.46,0,13.47.12,3,0,0,2.91L757,299.2l-.19,10.49c-.16,7-.33,14-.57,21s-.47,14-.82,21q-.23,5.25-.53,10.49c-.19,3.5-.42,7-.66,10.49q-.39-5.24-.67-10.49t-.53-10.49c-.35-7-.57-14-.82-21s-.41-14-.57-21l-.19-10.49-.15-10.49,2.93,2.93-13.47.12-13.46,0-13.47,0-13.46-.11,2.93-2.94-.14,10.66L703,310c-.15,7.11-.32,14.22-.56,21.32s-.48,14.21-.83,21.32l-.25,5.33-.29,5.33c-.18,3.55-.41,7.1-.66,10.66" transform="translate(-634.81 -242.7)"/><polygon class="cls-3" points="134.04 133.99 133.36 133.48 152.71 71.28 128.09 62.7 128.09 56.27 160.56 67.5 134.04 133.99"/><polygon class="cls-3" points="55.87 134.49 56.54 133.99 32.04 71.28 56.66 62.7 56.66 56.27 24.19 67.51 55.87 134.49"/><polygon class="cls-4" points="153.94 48.5 153.94 23.51 146.9 23.51 146.9 42.52 96.94 0 0 71.58 4.16 77.28 96.63 9 181.6 81.76 183.89 73.99 153.94 48.5"/></g></svg>