<svg xmlns="http://www.w3.org/2000/svg" xmlns:xlink="http://www.w3.org/1999/xlink" viewBox="0 0 2830.93 2912.26"><defs><style>.cls-1{fill:none;}.cls-2{fill:url(#linear-gradient);}.cls-3{isolation:isolate;}.cls-4{fill:#f4f7fa;}.cls-5{fill:url(#linear-gradient-2);}.cls-6{fill:url(#linear-gradient-3);}.cls-7{fill:url(#linear-gradient-4);}.cls-11,.cls-13,.cls-17,.cls-23,.cls-8{fill:#fff;}.cls-8{opacity:0.28;}.cls-11,.cls-13,.cls-17,.cls-41,.cls-8{mix-blend-mode:soft-light;}.cls-9{fill:url(#linear-gradient-5);}.cls-10{clip-path:url(#clip-path);}.cls-11{opacity:0.7;}.cls-12{clip-path:url(#clip-path-2);}.cls-13{opacity:0.5;}.cls-14{fill:url(#linear-gradient-7);}.cls-15{fill:url(#linear-gradient-8);}.cls-16{fill:url(#linear-gradient-9);}.cls-18{fill:#97a6b7;}.cls-19,.cls-20{fill:url(#linear-gradient-10);}.cls-20,.cls-35,.cls-36{opacity:0.3;mix-blend-mode:multiply;}.cls-21{fill:url(#linear-gradient-12);}.cls-22{fill:#26264f;}.cls-24{fill:#d8dee8;}.cls-25{fill:url(#linear-gradient-13);}.cls-26{fill:url(#linear-gradient-14);}.cls-27{fill:url(#linear-gradient-15);}.cls-28{fill:url(#linear-gradient-16);}.cls-29{fill:url(#linear-gradient-17);}.cls-30{fill:url(#linear-gradient-18);}.cls-31{fill:url(#linear-gradient-19);}.cls-32{fill:url(#linear-gradient-20);}.cls-33{fill:url(#linear-gradient-21);}.cls-34{fill:url(#linear-gradient-22);}.cls-35{fill:url(#linear-gradient-23);}.cls-36{fill:url(#linear-gradient-24);}.cls-37{fill:url(#linear-gradient-25);}.cls-38{fill:url(#linear-gradient-26);}.cls-39{fill:url(#linear-gradient-27);}.cls-40{fill:url(#linear-gradient-28);}.cls-41{fill:url(#linear-gradient-29);}</style><linearGradient id="linear-gradient" x1="1256.21" y1="2121.81" x2="1133.29" y2="3247.74" gradientUnits="userSpaceOnUse"><stop offset="0" stop-color="#ff9085"/><stop offset="1" stop-color="#fb6fbb"/></linearGradient><linearGradient id="linear-gradient-2" x1="3208.71" y1="380.6" x2="2530.71" y2="970.29" gradientUnits="userSpaceOnUse"><stop offset="0" stop-color="#aa80f9"/><stop offset="1" stop-color="#6165d7"/></linearGradient><linearGradient id="linear-gradient-3" x1="3129.06" y1="1376.38" x2="1105.83" y2="150.63" xlink:href="#linear-gradient-2"/><linearGradient id="linear-gradient-4" x1="1927.1" y1="1701.76" x2="1200.65" y2="2524.37" gradientTransform="matrix(0.99, -0.14, 0.14, 0.99, -639.38, 136.11)" gradientUnits="userSpaceOnUse"><stop offset="0" stop-color="#e38ddd"/><stop offset="1" stop-color="#9571f6"/></linearGradient><linearGradient id="linear-gradient-5" x1="1409.99" y1="484.07" x2="1575.79" y2="1860.73" gradientUnits="userSpaceOnUse"><stop offset="0" stop-color="#ffc444"/><stop offset="1" stop-color="#f36f56"/></linearGradient><clipPath id="clip-path" transform="translate(-427.11 -417.58)"><path class="cls-1" d="M1988.92,2707.23c-196.32-49.94-252.07-110.48-260.69-161.29-14.11-83.15,99-134.4,83.89-229.17-17.45-109.17-182.11-131.82-177-203.59,5.48-77.57,199.33-72,239.33-183.71,36.27-101.24-103.56-160.16-102.48-307.22,1.28-175.57,201.51-216.78,236.7-416.66,24-136.48-45.52-252.5-100.11-343.54-122.81-204.86-375.13-404-660.65-383.86C1208.93,481,981.62,497,925.32,630.3c-57.07,135.11,79.17,349,218.56,462.41,101,82.17,185.7,96.87,190.16,161.57,6,87.22-143.81,119.1-158,246.2-7.52,67.2,26.94,124.6,60.84,181.07,76.84,128,151.77,123.21,162.77,194.13,15,97-120.5,136.69-150.59,281.88-21.44,103.44,24.52,193.59,50.41,244.39C1400.37,2600,1672.22,2713.38,1988.92,2707.23Z"/></clipPath><clipPath id="clip-path-2" transform="translate(-427.11 -417.58)"><path class="cls-2" d="M1876.61,2654.61A1202,1202,0,0,1,1652,2744.13c-205.85,58.81-559.95,99.77-681.65-59.29-15-19.56-54.48-71.22-49.24-135,5.45-66.36,54.44-86.84,47.15-128.33-10-56.72-107.54-52.42-204.54-117.52-82.38-55.29-181.5-172.17-171.93-309.64,10.5-150.75,145.44-236.46,160.11-245.46,99.74-61.17,253.43-83.3,349.52-6,85,68.38,93,188.87,98.24,268.38,11.89,179.92-63.37,260.84-9.16,323.84,49.36,57.38,133.09,15.05,193.09,91.59,25.65,32.71,18.32,50.61,58.4,114.62,30.33,48.44,63.08,83.81,76.55,96.35C1622.74,2734.72,1855.94,2661.35,1876.61,2654.61Z"/></clipPath><linearGradient id="linear-gradient-7" x1="1814.86" y1="-918.2" x2="1646.95" y2="2724.88" gradientUnits="userSpaceOnUse"><stop offset="0" stop-color="#444b8c"/><stop offset="1" stop-color="#26264f"/></linearGradient><linearGradient id="linear-gradient-8" x1="1786.87" y1="588.44" x2="1618.96" y2="4231.39" xlink:href="#linear-gradient-7"/><linearGradient id="linear-gradient-9" x1="1784.61" y1="808.88" x2="1642.18" y2="3899.07" gradientUnits="userSpaceOnUse"><stop offset="0.49" stop-color="#ebeff2"/><stop offset="1" stop-color="#fff"/></linearGradient><linearGradient id="linear-gradient-10" x1="1043.51" y1="1284.27" x2="1198.48" y2="1284.27" xlink:href="#linear-gradient"/><linearGradient id="linear-gradient-12" x1="1797.26" y1="2439.74" x2="1681.21" y2="5393.74" xlink:href="#linear-gradient-7"/><linearGradient id="linear-gradient-13" x1="2125.24" y1="958.91" x2="852.27" y2="1720.39" gradientTransform="matrix(0.77, 0.64, -0.64, 0.77, 2384.89, -106.4)" xlink:href="#linear-gradient"/><linearGradient id="linear-gradient-14" x1="2725.02" y1="3449.61" x2="2780.73" y2="3499.17" gradientTransform="translate(-102.84 206.94) rotate(-8.05)" xlink:href="#linear-gradient-7"/><linearGradient id="linear-gradient-15" x1="1853.42" y1="3499.25" x2="1853.42" y2="3402.19" gradientTransform="translate(813.36 77.42) rotate(-8.05)" xlink:href="#linear-gradient-5"/><linearGradient id="linear-gradient-16" x1="2730.62" y1="3443.32" x2="2786.33" y2="3492.87" gradientTransform="translate(-102.84 206.94) rotate(-8.05)" xlink:href="#linear-gradient-7"/><linearGradient id="linear-gradient-17" x1="2684.1" y1="3272.05" x2="2739.81" y2="3321.61" xlink:href="#linear-gradient-7"/><linearGradient id="linear-gradient-18" x1="1812.45" y1="3321.7" x2="1812.45" y2="3224.65" gradientTransform="translate(925.31)" xlink:href="#linear-gradient-5"/><linearGradient id="linear-gradient-19" x1="-457.44" y1="3366.21" x2="-820.73" y2="1899.43" gradientTransform="matrix(-1, 0, 0, 1, 2275.75, 0)" gradientUnits="userSpaceOnUse"><stop offset="0" stop-color="#ab316d"/><stop offset="1" stop-color="#792d3d"/></linearGradient><linearGradient id="linear-gradient-20" x1="3376.46" y1="1673.39" x2="2167.22" y2="2396.75" xlink:href="#linear-gradient"/><linearGradient id="linear-gradient-21" x1="2689.7" y1="3265.75" x2="2745.41" y2="3315.31" xlink:href="#linear-gradient-7"/><linearGradient id="linear-gradient-22" x1="2700.11" y1="1673.09" x2="2685.69" y2="2093.53" gradientTransform="matrix(1, 0, 0, 1, 0, 0)" xlink:href="#linear-gradient-4"/><linearGradient id="linear-gradient-23" x1="3059.21" y1="1685.41" x2="3044.79" y2="2105.84" xlink:href="#linear-gradient"/><linearGradient id="linear-gradient-24" x1="3069.81" y1="1978.16" x2="2405.07" y2="2375.8" xlink:href="#linear-gradient"/><linearGradient id="linear-gradient-25" x1="1326.97" y1="432.98" x2="1388.25" y2="485.15" gradientTransform="matrix(0.14, 0.99, 0.99, -0.14, 1532.76, 497.64)" xlink:href="#linear-gradient-5"/><linearGradient id="linear-gradient-26" x1="3232.42" y1="1438.93" x2="2104.93" y2="2113.39" xlink:href="#linear-gradient"/><linearGradient id="linear-gradient-27" x1="2827.68" y1="1597.13" x2="3179.64" y2="2165.32" xlink:href="#linear-gradient-5"/><linearGradient id="linear-gradient-28" x1="2830.85" y1="1595.17" x2="3182.81" y2="2163.36" xlink:href="#linear-gradient-5"/><linearGradient id="linear-gradient-29" x1="1385.62" y1="-302.46" x2="1250" y2="3149.59" xlink:href="#linear-gradient-9"/></defs><title>ebook</title><g class="cls-3"><g id="Illustration"><path class="cls-4" d="M2996.47,1066.25C2955.39,1010,2603.7,545,2033.63,567.67c-28.49,1.13-584.46,30.5-789.53,395-151.7,269.63,8.9,508.86-176.15,692.56-161.25,160.07-359.42,54.12-458.51,183.56C458.5,2036,698.88,2568.48,1068.2,2865.46c381.35,306.66,1110.92,531.63,1678,122.5C3382.8,2528.62,3376.33,1586.2,2996.47,1066.25Z" transform="translate(-427.11 -417.58)"/><path class="cls-5" d="M2292.05,494.31l11.87,60.82a482.09,482.09,0,0,0-75.52,37.73l-40.57-46.58a30.43,30.43,0,0,0-43.13-2.66L2064.86,614a31,31,0,0,0-3.14,43.5l40.93,47.23a496.61,496.61,0,0,0-46.94,70.55l-59.27-20.15c-16-5.44-33.45,3.29-39,19.49l-35,101.49c-5.6,16.26,2.83,33.88,18.84,39.35l59.47,20.32a494.26,494.26,0,0,0-6,84.93l-62.22,12.69a31.66,31.66,0,0,0-24.54,36.79l19.77,106a30.51,30.51,0,0,0,36.07,24.59l62.41-12.73a488.71,488.71,0,0,0,36.55,77l-48,42.65a32,32,0,0,0-3.21,44.52l70,82a30.56,30.56,0,0,0,43.77,2.87l48-42.77a488.12,488.12,0,0,0,70.28,48.13L2223,1503.81c-5.59,16.61,3,34.65,19.29,40.28L2344,1579.34c16.28,5.65,34-3.29,39.55-19.94l20.32-60.89a476.49,476.49,0,0,0,85.32,5.67l12.31,63c3.36,17.25,19.79,28.46,36.69,25l105.67-21.55c16.9-3.44,27.82-20.23,24.41-37.47l-12.39-62.49a482.4,482.4,0,0,0,77.12-38.47l41.16,47.5a30.81,30.81,0,0,0,44,2.9l80.53-72.42a32,32,0,0,0,2.57-44.74l-41-47.11a497,497,0,0,0,47.45-72.7l58.42,20a30.81,30.81,0,0,0,39.3-19.81L3039,1142.7a31.73,31.73,0,0,0-19.81-39.82l-57.85-19.68a494.65,494.65,0,0,0,4.77-86.81l59.68-12.17a31,31,0,0,0,24-36.83l-21.86-105.6a31.12,31.12,0,0,0-36.56-24.33l-59.5,12.13a488.91,488.91,0,0,0-38.34-77.27L2938.71,712a31,31,0,0,0,2.51-43.7l-70.67-80a30.68,30.68,0,0,0-43.4-2.68l-45.48,40.42a487,487,0,0,0-71-47L2730,521.2a30.76,30.76,0,0,0-19.35-38.91l-100.3-33.63a30.69,30.69,0,0,0-38.8,19.37l-19.52,58a476.44,476.44,0,0,0-84.36-4.81l-11.95-60.3A30.41,30.41,0,0,0,2419.75,437l-103.58,21.12A30.93,30.93,0,0,0,2292.05,494.31Zm-118.19,576.63c-32.59-170.54,77.32-335.81,245.34-370.07s332,75.15,366.41,245.31c34.65,171.19-74.81,338.81-244.67,373.45S2206.66,1242.5,2173.86,1070.94Z" transform="translate(-427.11 -417.58)"/><path class="cls-6" d="M3071.79,928.57,3049.93,823a31.12,31.12,0,0,0-36.56-24.33l-59.5,12.14a489.39,489.39,0,0,0-38.35-77.27l45.2-40.29a31.05,31.05,0,0,0,2.5-43.71l-70.67-80a30.69,30.69,0,0,0-43.4-2.68l-45.48,40.43a486.15,486.15,0,0,0-71-47L2752,502.38a30.75,30.75,0,0,0-19.35-38.9l-100.31-33.63a30.67,30.67,0,0,0-38.79,19.36l-19.52,58a477.39,477.39,0,0,0-84.36-4.81l-12-60.3a30.41,30.41,0,0,0-35.94-23.92l-103.57,21.12a30.93,30.93,0,0,0-24.13,36.18l11.88,60.82A481.61,481.61,0,0,0,2250.41,574l-40.57-46.58a30.43,30.43,0,0,0-43.13-2.66l-79.85,70.37a31,31,0,0,0-3.13,43.49l40.92,47.23a497.11,497.11,0,0,0-46.93,70.55l-59.27-20.15a31,31,0,0,0-39,19.49l-35,101.49c-5.61,16.26,2.82,33.89,18.84,39.36L2022.75,917a494.19,494.19,0,0,0-6,84.93l-62.22,12.68a31.66,31.66,0,0,0-24.53,36.8l19.77,106a30.5,30.5,0,0,0,36.07,24.58l62.4-12.72a488.6,488.6,0,0,0,36.55,77l-48,42.65a32,32,0,0,0-3.21,44.52l70,82a30.55,30.55,0,0,0,43.77,2.88l48-42.78a486.76,486.76,0,0,0,70.28,48.13L2245,1485c-5.59,16.62,3,34.66,19.29,40.29L2366,1560.53c16.29,5.64,34-3.29,39.55-20l20.32-60.89a475.74,475.74,0,0,0,85.33,5.67l12.3,63c3.37,17.26,19.8,28.46,36.7,25l105.67-21.55c16.89-3.45,27.82-20.23,24.4-37.48l-12.39-62.49a481.15,481.15,0,0,0,77.12-38.47l41.17,47.51a30.81,30.81,0,0,0,44,2.89l80.53-72.42a32.06,32.06,0,0,0,2.56-44.74l-41-47.11a496.46,496.46,0,0,0,47.46-72.69l58.41,20a30.82,30.82,0,0,0,39.31-19.82L3061,1123.89a31.74,31.74,0,0,0-19.8-39.83l-57.86-19.67a493.8,493.8,0,0,0,4.78-86.82l59.67-12.17A31,31,0,0,0,3071.79,928.57ZM2563,1300.81c-169.86,34.64-334.29-77.12-367.08-248.69-32.6-170.53,77.32-335.81,245.33-370.07s332,75.15,366.42,245.31C2842.26,1098.55,2732.81,1266.17,2563,1300.81Z" transform="translate(-427.11 -417.58)"/><path class="cls-7" d="M2174.05,2757.74c-602.22,103.4-787.41,23.25-842.09-73-31.8-55.94-35.08-144.78-125.77-256.94-76.44-94.52-120.41-88.68-153.15-161.16-56.78-125.71,51.53-196.38,7.39-318.13-48.33-133.3-200.38-109.83-266.29-269-36.06-87.08,6.26-101.76-25.83-188.55-65.42-176.89-258.16-161.53-322.19-321.08C408.84,1077,428,956.82,489.36,886c123-142,417.54-87.52,584.13,44.12,21.46,17,183,148.31,198.61,342.81,9.43,117.36-41.12,172.08.53,243.53,58.77,100.8,191.84,47.57,250.29,137.12,79.19,121.34-108.66,305.59-18.15,442.14,35,52.86,72.06,38.66,107.08,99.36,57.59,99.82-9.52,195.47,3.72,278.56C1629.8,2562.9,1742.15,2671.86,2174.05,2757.74Z" transform="translate(-427.11 -417.58)"/><path class="cls-8" d="M1060.06,1207.47c78.15,180.32-49.24,294.28,42.26,436.52,74.31,115.51,191.5,91.9,223.54,199.45,30.71,103.07-68.55,152.86-41.4,270.6,22.38,97,97.73,97.53,173,223,75.76,126.33,45.13,202.07,84,279.24,41.77,82.84,160.28,160.53,479.24,165.07,47.85-6.47,98.85-14.3,153.31-23.65-431.9-85.88-544.25-194.84-558.48-284.06-13.24-83.09,53.87-178.74-3.72-278.56-35-60.7-72-46.5-107.08-99.36-90.51-136.55,97.34-320.8,18.15-442.14-58.45-89.55-191.52-36.32-250.29-137.12-41.65-71.45,8.9-126.17-.53-243.53-15.64-194.5-177.15-325.85-198.61-342.81C906.9,798.52,612.37,744.07,489.36,886c-.59.68-1.15,1.4-1.74,2.09,82.26,2.92,183.12,19.68,287.55,69.48C856.26,996.28,997.78,1063.76,1060.06,1207.47Z" transform="translate(-427.11 -417.58)"/><path class="cls-9" d="M1908.53,862.05c-122.81-204.86-375.13-404-660.65-383.86C1208.93,481,981.62,497,925.32,630.3c-57.07,135.11,79.17,349,218.56,462.41,101,82.17,185.7,96.87,190.16,161.57,6,87.22-143.81,119.1-158,246.2-7.52,67.2,26.94,124.6,60.84,181.07,76.84,128,151.77,123.21,162.77,194.13,15,97-120.5,136.69-150.59,281.88-21.44,103.44,24.52,193.59,50.41,244.39,100.93,198,372.78,311.43,689.48,305.28-196.32-49.94-252.07-110.48-260.69-161.29-14.11-83.15,99-134.4,83.89-229.17-17.45-109.17-182.11-131.82-177-203.59,5.48-77.57,199.33-72,239.33-183.71,36.27-101.24-103.56-160.16-102.48-307.22,1.28-175.57,201.51-216.78,236.7-416.66C2032.67,1069.11,1963.12,953.09,1908.53,862.05Z" transform="translate(-427.11 -417.58)"/><g class="cls-10"><path class="cls-11" d="M853.1,562.61q185.29,85,369.95,171.52c61.65,28.61,123,57.75,184,88,30.47,15.08,60.87,30.33,91,46.06s60.16,31.93,89.35,49.72c14.58,8.92,29,18.26,42.75,28.61,6.94,5.1,13.59,10.67,20.1,16.42a189.69,189.69,0,0,1,18.15,19,118.13,118.13,0,0,1,14.39,22.42,112.23,112.23,0,0,1,8.67,25.23,137.34,137.34,0,0,1,.74,52.72c-3.18,17.41-9.73,33.93-18,49.24s-18.35,29.43-28.89,43c-21.2,27.07-44.85,51.63-67.48,76.85s-44.61,50.9-62.73,79.12a301,301,0,0,0-23.44,44.19,232.74,232.74,0,0,0-14,47.7c-5.21,32.67-3.2,66.8,7,98.34a214.72,214.72,0,0,0,21.09,45c8.7,14.24,18.87,27.64,29.33,40.93s21.38,26.43,31.36,40.46c5.07,7,9.73,14.25,14.22,21.66a210.1,210.1,0,0,1,11.8,23.23,176.81,176.81,0,0,1,13.59,50.33,221,221,0,0,1-.14,52,202,202,0,0,1-12.71,50.43,248.87,248.87,0,0,1-24.45,45.72c-19,28.75-42.54,53.68-59,82.64a139.15,139.15,0,0,0-16.94,46.17,142.07,142.07,0,0,0,1.1,49.21,155.58,155.58,0,0,0,17.25,46.31,237.83,237.83,0,0,0,29.69,40.27c22.32,25.16,48.37,47.47,69.51,74.83,10.56,13.6,19.61,28.67,25.76,45a148.68,148.68,0,0,1,9,51.14,143.06,143.06,0,0,1-9.34,51.05c-6.32,16.25-15.68,30.9-24.9,45.11s-18.13,28.61-20.65,44.81c-3,16.09.75,32.84,8.26,47.45,7.77,14.6,18.7,27.53,31,38.87a310,310,0,0,0,40,30.8c28.35,18.39,58.6,33.89,89.54,47.72s62.57,26.24,94.52,37.7,64.23,22.06,96.74,31.89c65,19.83,130.7,37.15,196.7,53.3l-.1.45c-66.15-15.57-132-32.31-197.25-51.58q-48.95-14.34-97.14-31.08c-32.11-11.2-63.93-23.31-95.12-37s-61.75-28.92-90.6-47.28a313.69,313.69,0,0,1-40.94-31c-12.75-11.49-24.22-24.77-32.49-40.18-8-15.41-12.3-33.55-9.08-51.1,1.2-8.81,4.56-17.09,8.3-24.91s8.49-15.06,13-22.3c9.18-14.29,18.13-28.52,24.09-44.06a136.54,136.54,0,0,0,8.65-48.71,141.77,141.77,0,0,0-8.82-48.67c-5.92-15.48-14.62-29.84-24.93-43-20.62-26.46-46.65-48.56-69.56-74.09a245.69,245.69,0,0,1-30.87-41.48,163.81,163.81,0,0,1-18.4-48.7,150.26,150.26,0,0,1-1.4-52.16,147.74,147.74,0,0,1,17.71-49.11c8.44-15.21,18.78-29,29-42.58s20.66-26.9,29.93-40.87a239.43,239.43,0,0,0,23.48-44,192.55,192.55,0,0,0,12-48.14c3.8-33,.65-67.09-12.9-97.38-13-30.62-35.09-56.5-56.22-83.11-10.57-13.38-21-27.07-30.07-41.83a224.59,224.59,0,0,1-22.14-47.06c-10.73-33.18-12.89-68.74-7.47-103.09a243.38,243.38,0,0,1,14.54-49.92,311.11,311.11,0,0,1,24.19-45.79c18.59-29.06,40.88-55.24,63.62-80.57s46.21-49.9,66.88-76.4c10.28-13.26,20-26.93,27.85-41.55s13.89-30.06,16.8-46.1a127.2,127.2,0,0,0-.74-48.49,101.5,101.5,0,0,0-20.76-43.3,180.92,180.92,0,0,0-17-17.88c-6.21-5.5-12.56-10.89-19.3-15.88-13.35-10.1-27.45-19.35-41.82-28.21-28.78-17.69-58.57-33.91-88.57-49.73s-60.31-31.14-90.68-46.31l-91.31-45.24c-30.39-15.18-61.15-29.62-91.71-44.44Q1036.05,652.64,852.9,563Z" transform="translate(-427.11 -417.58)"/></g><path class="cls-2" d="M1876.61,2654.61A1202,1202,0,0,1,1652,2744.13c-205.85,58.81-559.95,99.77-681.65-59.29-15-19.56-54.48-71.22-49.24-135,5.45-66.36,54.44-86.84,47.15-128.33-10-56.72-107.54-52.42-204.54-117.52-82.38-55.29-181.5-172.17-171.93-309.64,10.5-150.75,145.44-236.46,160.11-245.46,99.74-61.17,253.43-83.3,349.52-6,85,68.38,93,188.87,98.24,268.38,11.89,179.92-63.37,260.84-9.16,323.84,49.36,57.38,133.09,15.05,193.09,91.59,25.65,32.71,18.32,50.61,58.4,114.62,30.33,48.44,63.08,83.81,76.55,96.35C1622.74,2734.72,1855.94,2661.35,1876.61,2654.61Z" transform="translate(-427.11 -417.58)"/><g class="cls-12"><path class="cls-13" d="M1747.6,2714.35a2191.41,2191.41,0,0,1-290.55-19.17c-288.37-38.59-321-103.17-331.66-124.39-16.64-33-13.62-60.72-10.42-90.09,3.6-33,7.32-67.13-14.33-114.51-19.74-43.22-45.47-63.29-70.36-82.69-24.26-18.93-49.36-38.5-67.81-79.25-23.79-52.5-16.58-95.11-9-140.22,4.18-24.73,8.51-50.3,8.05-79-1.81-113.17-79.88-229-232-344.44l2.18-2.87C884.8,1753.86,963.34,1870.69,965.18,1985c.46,29-3.9,54.72-8.11,79.61-7.53,44.55-14.65,86.63,8.68,138.14,18.09,39.94,41.72,58.37,66.75,77.88,25.23,19.68,51.31,40,71.42,84,22,48.28,18.11,84.47,14.63,116.41-3.14,28.82-6.11,56,10.06,88.07,10.49,20.8,42.43,84.1,328.92,122.44,141.72,19,287.65,23.86,433.71,14.55l.23,3.6Q1819.44,2714.35,1747.6,2714.35Z" transform="translate(-427.11 -417.58)"/></g><path class="cls-14" d="M2503,922.2c0-36.66-26.89-67.38-58.43-68.62L926.52,793.76c-37.77-1.49-66.8,30-66.8,70.31V3251.33c0,40.33,27.7,70.05,65.47,66.24L2445.5,3164.23c31.53-3.19,57.53-35.47,57.53-72.12Z" transform="translate(-427.11 -417.58)"/><path class="cls-15" d="M2542.67,922.2c0-36.66-24.58-67.38-56.12-68.62L969.12,793.76c-37.78-1.49-66.15,30-66.15,70.31V3251.33c0,40.33,28.2,70.05,66,66.24l1518.24-153.34c31.54-3.19,55.48-35.47,55.48-72.12Z" transform="translate(-427.11 -417.58)"/><path class="cls-16" d="M2474.2,1072.64v1880c0,19.47-14.44,38.46-31.22,40L1123.85,3111.62,1020.3,3121a28.84,28.84,0,0,1-16.38-3.27c-10.93-6-18.07-19.35-18.07-34.22V1033.87c0-11.6,3.56-21.73,11.17-28.55a36.35,36.35,0,0,1,7-4.91,28.93,28.93,0,0,1,15.53-3.67l104.1,2.92,1319.47,37.13C2460,1037.28,2474.2,1053.17,2474.2,1072.64Z" transform="translate(-427.11 -417.58)"/><path class="cls-17" d="M2416.52,2994.92,1020.79,3120.87c-19.84,1.79-34.94-16.17-34.94-37.4V1033.89c0-11.6,4.08-21.87,11.7-28.68,4.58,12.16,9.14,24.15,14.46,35.9,156.85,346.21,469.2,119.82,675.72,461.52,161.66,267.46,36.74,520.86,219.37,818.1,144.37,234.91,272.94,154.9,404.46,381C2362.2,2788.73,2395.17,2890.82,2416.52,2994.92Z" transform="translate(-427.11 -417.58)"/><path class="cls-18" d="M1348,1571.76l-55.39,167.75h-71.22l181.2-533.33h83.09l182,533.33h-73.59l-57-167.75ZM1522.91,1518l-52.23-153.51c-11.87-34.81-19.78-66.47-27.69-97.33h-1.58c-7.91,31.65-16.62,64.1-26.91,96.54L1362.28,1518Z" transform="translate(-427.11 -417.58)"/><polygon class="cls-18" points="1881.65 1007.22 1309.64 1003.71 1309.64 962.14 1881.65 967.13 1881.65 1007.22"/><polygon class="cls-18" points="1881.65 1079.81 1309.64 1078.99 1309.64 1037.42 1881.65 1039.72 1881.65 1079.81"/><polygon class="cls-18" points="1881.65 1152.4 1309.64 1154.27 1309.64 1112.69 1881.65 1112.31 1881.65 1152.4"/><polygon class="cls-18" points="1881.65 1224.99 1309.64 1229.54 1309.64 1187.97 1881.65 1184.9 1881.65 1224.99"/><polygon class="cls-18" points="1881.65 1297.58 1309.64 1304.82 1309.64 1263.25 1881.65 1257.49 1881.65 1297.58"/><polygon class="cls-18" points="1881.65 1417.39 747.12 1440.56 747.12 1397.53 1881.65 1377.3 1881.65 1417.39"/><polygon class="cls-18" points="1881.65 1489.98 747.12 1518.48 747.12 1475.45 1881.65 1449.89 1881.65 1489.98"/><polygon class="cls-18" points="1881.65 1562.57 747.12 1596.41 747.12 1553.37 1881.65 1522.48 1881.65 1562.57"/><polygon class="cls-18" points="1881.65 1635.16 747.12 1674.33 747.12 1631.29 1881.65 1595.07 1881.65 1635.16"/><polygon class="cls-18" points="1881.65 1707.74 747.12 1752.25 747.12 1709.21 1881.65 1667.66 1881.65 1707.74"/><polygon class="cls-18" points="1881.65 1852.92 747.12 1908.09 747.12 1865.06 1881.65 1812.83 1881.65 1852.92"/><polygon class="cls-18" points="1881.65 1925.51 747.12 1986.01 747.12 1942.98 1881.65 1885.42 1881.65 1925.51"/><polygon class="cls-18" points="1881.65 1998.1 747.12 2063.93 747.12 2020.9 1881.65 1958.01 1881.65 1998.1"/><polygon class="cls-18" points="1881.65 2070.69 747.12 2141.86 747.12 2098.82 1881.65 2030.6 1881.65 2070.69"/><polygon class="cls-18" points="1881.65 2143.28 747.12 2219.78 747.12 2176.74 1881.65 2103.19 1881.65 2143.28"/><polygon class="cls-18" points="1881.65 2267.27 747.12 2350.67 747.12 2307.64 1881.65 2227.19 1881.65 2267.27"/><polygon class="cls-18" points="1881.65 2339.86 747.12 2428.59 747.12 2385.56 1881.65 2299.77 1881.65 2339.86"/><polygon class="cls-18" points="1881.65 2412.45 747.12 2506.51 747.12 2463.48 1881.65 2372.36 1881.65 2412.45"/><path class="cls-19" d="M1194.1,997.44l-125-.69-6.3,0c-6.2,0-10.18.17-15.21.59a4.4,4.4,0,0,0-4,4.38v570.15l77.49-85.48,77.48,64.51v-549A4.41,4.41,0,0,0,1194.1,997.44Z" transform="translate(-427.11 -417.58)"/><path class="cls-20" d="M1131.19,1388.29c-91.28-32.43-45.62-211.43-37.22-291.9,4.79-45.87-10.71-79.32-24.91-99.64l-6.3,0c-6.2,0-10.18.17-15.21.59a4.4,4.4,0,0,0-4,4.38v570.15l77.49-85.48,77.48,64.51v-85C1185.65,1431,1164.67,1400.19,1131.19,1388.29Z" transform="translate(-427.11 -417.58)"/><path class="cls-21" d="M1890.39,3133.7a23.26,23.26,0,0,1-21.35,22.84l-198.2,14.05c-12.09.86-21.9-8.12-21.9-20.07h0c0-11.94,9.81-22.29,21.9-23.12l198.2-13.57a19.67,19.67,0,0,1,21.35,19.87Z" transform="translate(-427.11 -417.58)"/><path class="cls-22" d="M2120,1574.41a12.21,12.21,0,0,0-7.5,5.84,11.85,11.85,0,0,0-.93,9.37l69.68,218.45a12.25,12.25,0,0,0,15.08,8l161.83-46.48a12,12,0,0,0,8.34-14.84l-62.75-217.4a12.24,12.24,0,0,0-15-8.32Z" transform="translate(-427.11 -417.58)"/><path class="cls-23" d="M2132.92,1585a10.86,10.86,0,0,0-6.69,5.21,10.57,10.57,0,0,0-.83,8.36l62.14,194.81a10.92,10.92,0,0,0,13.44,7.08L2345.31,1759a10.71,10.71,0,0,0,7.43-13.24l-56-193.87a10.92,10.92,0,0,0-13.35-7.41Z" transform="translate(-427.11 -417.58)"/><polygon class="cls-24" points="1829.31 1167.86 1755.54 1187.05 1750.82 1171.88 1824.7 1153.06 1829.31 1167.86"/><path class="cls-24" d="M2301.12,1612.36a1,1,0,0,1-.52,1.28l-62,16.71a1.09,1.09,0,0,1-1.22-.83l-4-12.81a1,1,0,0,1,.54-1.3l62.13-16.41a1.06,1.06,0,0,1,1.17.82Z" transform="translate(-427.11 -417.58)"/><path class="cls-24" d="M2305.62,1626.82a1,1,0,0,1-.52,1.28l-61.93,17a1.08,1.08,0,0,1-1.21-.83l-1.11-3.56a1,1,0,0,1,.55-1.31l62-16.9a1.05,1.05,0,0,1,1.17.82Z" transform="translate(-427.11 -417.58)"/><path class="cls-24" d="M2309.74,1640.06a1,1,0,0,1-.51,1.28l-61.85,17.3a1.07,1.07,0,0,1-1.21-.83l-1.11-3.55a1,1,0,0,1,.55-1.32l61.88-17.18a1,1,0,0,1,1.17.81Z" transform="translate(-427.11 -417.58)"/><path class="cls-24" d="M2313.86,1653.29a1,1,0,0,1-.51,1.29l-61.76,17.58a1.07,1.07,0,0,1-1.21-.82l-1.11-3.56a1,1,0,0,1,.54-1.32l61.8-17.46a1,1,0,0,1,1.17.81Z" transform="translate(-427.11 -417.58)"/><path class="cls-24" d="M2318,1666.53a1,1,0,0,1-.51,1.29l-61.68,17.86a1.05,1.05,0,0,1-1.2-.82l-1.11-3.56a1,1,0,0,1,.54-1.32l61.71-17.74a1,1,0,0,1,1.17.81Z" transform="translate(-427.11 -417.58)"/><path class="cls-24" d="M2234.29,1692.49l-49.54,14.35c-1.84.54-3.88-.81-4.56-3l-20.26-65.09c-.68-2.19.27-4.36,2.11-4.85l49.92-13.17c1.78-.48,3.77.89,4.44,3l19.89,63.9C2237,1689.82,2236.07,1692,2234.29,1692.49Z" transform="translate(-427.11 -417.58)"/><path class="cls-24" d="M2162.48,1635.69l.06,0,49.92-13.16a2.21,2.21,0,0,1,2.46,1.71l19.89,63.89a2,2,0,0,1-1.06,2.61l-49.54,14.36a2.22,2.22,0,0,1-2.56-1.68l-20.26-65.1A2,2,0,0,1,2162.48,1635.69Zm-.55-1.76c-1.77.55-2.67,2.67-2,4.82l20.26,65.09c.68,2.19,2.72,3.54,4.56,3l49.54-14.35h0c1.76-.52,2.65-2.67,2-4.81l-19.89-63.9c-.67-2.15-2.66-3.52-4.44-3L2162,1633.9Z" transform="translate(-427.11 -417.58)"/><path class="cls-24" d="M2224.19,1730.8l-31.47,9.22a.45.45,0,0,1-.52-.34l-1.54-5a.43.43,0,0,1,.24-.56l31.48-9.16a.44.44,0,0,1,.51.34l1.53,4.91A.42.42,0,0,1,2224.19,1730.8Z" transform="translate(-427.11 -417.58)"/><path class="cls-24" d="M2250.23,1736.05l-53.77,16a.44.44,0,0,1-.52-.34l-1.55-5a.43.43,0,0,1,.24-.56l53.81-15.88a.43.43,0,0,1,.5.34l1.51,4.86A.43.43,0,0,1,2250.23,1736.05Z" transform="translate(-427.11 -417.58)"/><path class="cls-24" d="M2253.9,1747.84,2200.19,1764a.45.45,0,0,1-.52-.34l-1.54-5a.44.44,0,0,1,.24-.57l53.74-16.08a.44.44,0,0,1,.5.33l1.51,4.87A.42.42,0,0,1,2253.9,1747.84Z" transform="translate(-427.11 -417.58)"/><path class="cls-24" d="M2257.57,1759.64l-53.64,16.4a.45.45,0,0,1-.52-.34l-1.54-5a.43.43,0,0,1,.24-.56l53.67-16.3a.44.44,0,0,1,.5.33l1.52,4.87A.44.44,0,0,1,2257.57,1759.64Z" transform="translate(-427.11 -417.58)"/><path class="cls-24" d="M2313,1704.79l-47.48,13.91a.42.42,0,0,1-.49-.34l-1.51-4.83a.41.41,0,0,1,.22-.55l47.51-13.81a.42.42,0,0,1,.48.33l1.49,4.76A.41.41,0,0,1,2313,1704.79Z" transform="translate(-427.11 -417.58)"/><path class="cls-24" d="M2330.87,1712.08l-61.71,18.34a.44.44,0,0,1-.5-.33l-1.5-4.84a.41.41,0,0,1,.22-.55l61.74-18.22a.42.42,0,0,1,.48.33l1.48,4.74A.4.4,0,0,1,2330.87,1712.08Z" transform="translate(-427.11 -417.58)"/><path class="cls-24" d="M2334.44,1723.56l-61.63,18.58a.44.44,0,0,1-.5-.33l-1.5-4.84a.42.42,0,0,1,.22-.55L2332.7,1718a.42.42,0,0,1,.48.33l1.47,4.74A.4.4,0,0,1,2334.44,1723.56Z" transform="translate(-427.11 -417.58)"/><path class="cls-24" d="M2338,1735l-61.55,18.82a.44.44,0,0,1-.5-.33l-1.51-4.84a.43.43,0,0,1,.23-.55l61.59-18.7a.42.42,0,0,1,.48.33l1.47,4.73A.41.41,0,0,1,2338,1735Z" transform="translate(-427.11 -417.58)"/><path class="cls-25" d="M3041.12,1685.38c8.91,3.37,144.84,57.43,172.78,199.3,2.25,11.46,24.09,133.34-58.57,219.45-92.69,96.55-271.17,94.16-342,13.44-16.52-18.82-25.24-39.68-30.12-57.21h0l18.67-49.59c22.77-27.5,53.79-34,70.35-38.1,40.83-10.06,71.65,8.13,95-11.56,12.94-10.9,15.51-26.57,17.8-40.58,7.82-47.7-19.1-77.07-21.06-106.49-1.47-22-9.17-70.18,19.54-101.6C3001.71,1692.54,3026.89,1687.13,3041.12,1685.38Z" transform="translate(-427.11 -417.58)"/><path class="cls-26" d="M3094.08,3266.45c1.59-8.73,29.79-16.64,43.76-4.94,6.93,5.81,11.71,17.58,7.7,22.9-1.46,1.93,4.51,5.34-1.21,5.4C3125.33,3290,3092.51,3275.13,3094.08,3266.45Z" transform="translate(-427.11 -417.58)"/><path class="cls-27" d="M3123.65,3269.63l29-4.1c-13.44-16.18-11-67.71-11-67.71l-30.85,6.89s3.52,14.14,9.5,35C3122.39,3246.86,3123.31,3258,3123.65,3269.63Z" transform="translate(-427.11 -417.58)"/><path class="cls-28" d="M3121.07,3266.06s34.93-8,38.7-1.12,6.71,25.47-15.44,24.87S3119.1,3271.93,3121.07,3266.06Z" transform="translate(-427.11 -417.58)"/><path class="cls-29" d="M2696.08,3299.2c2.79-8.43,31.82-12.31,44,1.23,6.06,6.72,9.14,19.05,4.42,23.75-1.72,1.72,3.73,5.92-2,5.19C2723.71,3326.93,2693.3,3307.57,2696.08,3299.2Z" transform="translate(-427.11 -417.58)"/><path class="cls-30" d="M2724.9,3306.48h29.3c-11-17.9-1.37-68.57-1.37-68.57l-31.51,2.5s1.51,14.5,4.51,36C2726.85,3283.76,2726.19,3295,2724.9,3306.48Z" transform="translate(-427.11 -417.58)"/><path class="cls-31" d="M2649,2198.66a1355.6,1355.6,0,0,0-45.42,207.89c-35.59,258.84,40,267.1,25.92,553.93-4.51,91.55,79.32,302.67,86.71,307.33a91.08,91.08,0,0,0,11.59.46,115.83,115.83,0,0,0,29.53-4.92c13.27-2.29,61.15-132,50.05-209.07-7.85-54.56-5.57-113.13-1-230.25.74-19,49.29-369.23,49.29-369.23,14.77,129.64,31.76,239.8,46.49,325.2,47.31,274.4,201.14,440.48,209.16,443.14,1.59.64,16,5.88,27.83-1.9a19.21,19.21,0,0,0,7-7.93c4.11-3.22-1.22-273.95-48.14-477.69-68.1-295.74-38.45-364.94-60-497C3019.32,2124.29,2649,2198.66,2649,2198.66Z" transform="translate(-427.11 -417.58)"/><path class="cls-32" d="M3074.66,1919.41c-14.17,55.07-14.46,49.84-31.65,119.18-10.23,41.37-30.27,85.73-16,158.78a334.8,334.8,0,0,0,10.92,41.26,424.42,424.42,0,0,1-135.46,44.62c-125.52,18.66-230.1-18.92-271-39.9-1-4.72-2.34-9.73-2.34-15v-.08c-3.6-10.09-4.34-21.37-6-34.3-5.19-41.09-8.41-98.85-1.21-189.2v-.11c0-1.84-.19-3.71,0-5.58a716.66,716.66,0,0,1,26.6-146.6c11-37.41,21.74-62.49,33.81-84a377.73,377.73,0,0,1,40.4-58c5.77-6.74,10.36-11.82,11.34-12.72,57.26-51.5,144.82-36.72,190-35.42,40.47,1.22,118.42,3.06,161.7,54.3C3101.83,1735.62,3098,1828.49,3074.66,1919.41Z" transform="translate(-427.11 -417.58)"/><path class="cls-33" d="M2722.86,3302.59s35.7-3.08,38.47,4.31,3.08,26.16-18.77,22.47S2720.09,3308.13,2722.86,3302.59Z" transform="translate(-427.11 -417.58)"/><path class="cls-34" d="M2620.64,2046.65a1.49,1.49,0,0,1-.53-2.89c.7-.26,70.76-27.7,136.07-92.19a1.49,1.49,0,0,1,2.1,2.12c-65.78,65-136.4,92.58-137.1,92.86A1.47,1.47,0,0,1,2620.64,2046.65Z" transform="translate(-427.11 -417.58)"/><path class="cls-35" d="M3023.58,2176.41a1.5,1.5,0,0,1-1.48-1.33c-5.4-48.66,4.64-83.89,13.51-115,2.16-7.57,4.2-14.72,6-21.87,9.77-39.41,14.05-54.64,18.57-70.75,2.94-10.46,6-21.28,10.69-39.35a1.51,1.51,0,0,1,1.82-1.07,1.49,1.49,0,0,1,1.06,1.82c-4.71,18.1-7.75,28.93-10.7,39.41-4.52,16.09-8.79,31.28-18.55,70.66-1.78,7.2-3.83,14.37-6,22-8.79,30.81-18.75,65.74-13.4,113.82a1.48,1.48,0,0,1-1.32,1.64Z" transform="translate(-427.11 -417.58)"/><path class="cls-36" d="M3038,2238.63a424.42,424.42,0,0,1-135.46,44.62c-125.52,18.66-230.1-18.92-271-39.9-1-4.72-2.34-9.73-2.34-15v-.08l-6-34.3c-5.19-41.09-8.41-98.85-1.21-189.2v-.11c43.25-19.89,128.67-45.73,109.4,47.07-26.13,125.8,3.39,120.54,63.75,123.17s44.08,70.2,121.56,54c37.3-7.82,76.8-24.47,110.42-31.5A334.38,334.38,0,0,0,3038,2238.63Z" transform="translate(-427.11 -417.58)"/><path class="cls-37" d="M2194,1821.07l-26.51-12.7a58.35,58.35,0,0,1-15.19-18.09,69.28,69.28,0,0,1-7.64-30.71c.07,0-1.2-21.46,7.9-25.09a7.62,7.62,0,0,1,4.15-.37l9.43,24.83s1.51,10.81,18.55,22c16.89,14.71,23.7,28.16,23.7,28.16Z" transform="translate(-427.11 -417.58)"/><path class="cls-38" d="M2804.42,1678.8c-49.45-32.18-178.77,68.64-217.92,96.44-151.82,107.82-133.62,175.07-202.57,141.5-46.62-22.7-52.95-91.13-132.62-116.87-3.66-1.18-7.18-2.18-10.53-3a57,57,0,0,0-40.67,4.93l-9.23,4.89-3.21,1a48.58,48.58,0,0,0-30,28.49,202.2,202.2,0,0,0-11.47,42.38,297.61,297.61,0,0,0,5.94,37.4c3,13.29,38,158.8,159.67,203.62a215.33,215.33,0,0,0,50.29,11.73c40,4.85,76.22-1.08,138.17-22.43,104.94-36.15,185.05-70.07,255.89-153a112.24,112.24,0,0,0,8.83-12C2817.7,1863.14,2852.17,1709.85,2804.42,1678.8Z" transform="translate(-427.11 -417.58)"/><path class="cls-39" d="M2796.82,1610.46c-14-23.68-7.77-50.73-6.36-56.58,5.89-24.47,8.08-28.18,12.62-33.36l6.43-6.79s.4-.3.82-.59c4.46-3.07,21.14-8.07,24.74-8.25,11.5-.57,34.91,40.67,48.31,104.22,1.09,2.27,2.16,4.56,3.23,6.88,6.65,14.42,12.35,28.6,17.25,42.42,77.72,6.57,88.5,15.69,88.85,21,.73,11.08-43.56,23.89-76.86,28.77-72.63,10.63-147.29-8.52-146.95-22.07.15-5.89,14.58-13.58,76.16-21.64l-4.32-30.57C2835.73,1632.75,2807.14,1627.91,2796.82,1610.46Z" transform="translate(-427.11 -417.58)"/><path class="cls-22" d="M2782.21,1501.94c5.24,19.4,19.92,37.69,25.46,39.78a33.63,33.63,0,0,1,9.09,5.81,9.81,9.81,0,0,1,1.71,2c7.52,11.1-8.1,30.69-2.88,35.16,3.78,3.25,15.59-5.59,18.07-2.58,2.35,2.84-6.86,12.46-4.15,15.88,2,2.58,8.1-1.89,13.56,1.44,2.72,1.66,2.57,3.6,6.63,9.81a64.42,64.42,0,0,0,7.22,9.23c9.75,9.61,29.86,8.71,32.3,3.17.68-1.54-.48-2.38-.58-6.92a35.16,35.16,0,0,1,1.45-9.52c2.19-7.58,10.43-14.78,18.17-24.23,14.33-17.5,16.25-29.67,16.71-33.73.17-1.45.22-2.52.26-3.29.8-15.54-4.78-36.57-14.66-47.78-16.56-18.79-38.13-2-63.75-18.18-29.56-18.63-24.91-56.11-38.36-56.53C2793.62,1421,2772.52,1466.07,2782.21,1501.94Z" transform="translate(-427.11 -417.58)"/><path class="cls-40" d="M2821.35,1578.27c3-7.81,13-3.89,15.32,4.55s-3.55,19.43-12,19.88S2817.29,1588.78,2821.35,1578.27Z" transform="translate(-427.11 -417.58)"/><path class="cls-22" d="M2821.44,1563.09l-7.21,17.3s-7.22,20.77-16.73,13c-7.78-6.36-9.2-5.79-9.46-5.37a.84.84,0,0,0-.06.18c-.11,0-.21-4.14-.29-7.79a67,67,0,0,0-4,22.79c0,9.58,0,19.84,7.5,27.69.43.45,8.6,8.76,19.61,8.37,0,0,4.33-.16,20.77-7.79,0,0-22.5-8.65-23.65-11.83-3.14-8.62,7.85-16.67,12.12-37.21A75.79,75.79,0,0,0,2821.44,1563.09Z" transform="translate(-427.11 -417.58)"/><circle class="cls-41" cx="1353.37" cy="518.45" r="37.84"/></g></g></svg>