<svg id="Ñëîé_1" data-name="Ñëîé 1" xmlns="http://www.w3.org/2000/svg" viewBox="0 0 1247.05 1159.96"><defs><style>.cls-1{fill:#ccd7f2;opacity:0.49;}.cls-2{fill:#fff;}.cls-3{fill:#bbcff2;}.cls-4{fill:#ffe578;}.cls-5{fill:#ffbb61;}.cls-6{fill:#0b1775;}.cls-7{fill:#ff685a;}.cls-8{fill:#ff7f5c;}.cls-9{fill:#4db4e8;}.cls-10{fill:#3788c4;}.cls-11{fill:#98b5e5;}.cls-12{fill:#000543;}.cls-13{fill:#c2d1f2;}.cls-14{fill:#091468;}.cls-15{fill:#1c2e9b;}.cls-16{fill:#452a51;}.cls-17{fill:#b9cbed;}.cls-18{fill:#d7e1fc;}.cls-19{fill:#6a4c7a;}.cls-20{fill:#f0f3fc;}.cls-21{fill:#26182d;}.cls-22{fill:#8d6aa3;}.cls-23{fill:#30b8c6;}.cls-24{fill:#ffde9a;}.cls-25{fill:#ff9985;}.cls-26{fill:#ffc179;}.cls-27{fill:#fa694f;}</style></defs><title>ebook-design</title><path class="cls-1" d="M248.71,1112.06c1-9.76,31.64-19.54,32.39-29.62.85-38.41-5.93-78.66-19.09-115.62-2.61-7.33-27.81-84.37-37.44-107.87-17.62-42.12-27-88.75-22-132.37,10.87-99.27,62.35-174.48,136-195.54,56.79-16.54,115.19,1.51,166.33-27.07,36.77-21.06,64.63-54.15,98.24-84.23,48.75-40.61,106.36-49.64,163.06-57.16,117.73-15,239.4,6,355.14,72.2,61.29,34.6,144.91,94.76,140.88,197-.2,18-5.07,33.09-8.53,51.14-7.93,46.63-40.36,67.69-57.47,109.8-11.32,25.57-11.12,57.16,1.76,85.74,39.09,85.63,92.57,99.64,135.45,174.48,21.13,39,18.46,100.85,3.26,155.68s-65.45,92.6-122.37,92.6H330.34c-53.68,0-82.32-43.48-83.51-97.14C246,1165.06,245.26,1144.12,248.71,1112.06Z" transform="translate(-171.62 -141.3)"/><rect class="cls-2" x="951.07" y="267.35" width="295.98" height="148.94" rx="11.05"/><path class="cls-3" d="M1164.73,557.4h211.91A21.65,21.65,0,0,1,1355,579H1186.4a21.65,21.65,0,0,1-21.67-21.63Z" transform="translate(-171.62 -141.3)"/><rect class="cls-3" x="1270.68" y="578.9" width="6.4" height="715.33" transform="translate(2376.15 1731.82) rotate(180)"/><path class="cls-3" d="M1370.47,1298.65h-183a8.57,8.57,0,1,1,0-17.14h183a8.57,8.57,0,1,1,0,17.14Z" transform="translate(-171.62 -141.3)"/><rect class="cls-4" x="957.15" y="950.61" width="119.98" height="34.75" rx="1.28" transform="translate(1862.67 1794.65) rotate(180)"/><path class="cls-5" d="M1052.14,950.61h82.79a4.81,4.81,0,0,1,4.67,3.5h-83.46a3.87,3.87,0,0,0-4,3.77v19.58a3.87,3.87,0,0,0,4,3.78h83.59a4.79,4.79,0,0,1-4.8,4.11h-82.79a4.81,4.81,0,0,1-4.92-4.69V955.29A4.8,4.8,0,0,1,1052.14,950.61Z" transform="translate(-171.62 -141.3)"/><path class="cls-2" d="M1052.18,977.46V957.88a3.87,3.87,0,0,1,4-3.77h83.46a4.28,4.28,0,0,1,.25,1.18v25.37a5.41,5.41,0,0,1-.12.58h-83.59A3.87,3.87,0,0,1,1052.18,977.46Z" transform="translate(-171.62 -141.3)"/><rect class="cls-5" x="976.19" y="950.45" width="27.04" height="34.9" transform="translate(1807.8 1794.5) rotate(180)"/><path class="cls-6" d="M1053.39,979.18a1.18,1.18,0,0,0,1.21-1.15V957.58a1.21,1.21,0,0,0-2.42,0V978A1.19,1.19,0,0,0,1053.39,979.18Z" transform="translate(-171.62 -141.3)"/><rect class="cls-7" x="856.08" y="782.07" width="94.05" height="27.23" rx="1.28"/><path class="cls-8" d="M1047.29,923.37H982.4a3.78,3.78,0,0,0-3.66,2.75h65.42a3,3,0,0,1,3.1,3v15.34a3,3,0,0,1-3.1,3H978.64a3.75,3.75,0,0,0,3.76,3.23h64.89a3.78,3.78,0,0,0,3.86-3.68V927A3.77,3.77,0,0,0,1047.29,923.37Z" transform="translate(-171.62 -141.3)"/><path class="cls-2" d="M1047.26,944.42V929.08a3,3,0,0,0-3.1-3H978.74a3.22,3.22,0,0,0-.2.92v19.89a3.27,3.27,0,0,0,.1.45h65.52A3,3,0,0,0,1047.26,944.42Z" transform="translate(-171.62 -141.3)"/><path class="cls-6" d="M1046.31,945.77a.94.94,0,0,1-1-.91v-16a1,1,0,0,1,1.9,0v16A.94.94,0,0,1,1046.31,945.77Z" transform="translate(-171.62 -141.3)"/><rect class="cls-9" x="1013.95" y="900.26" width="79.82" height="23.11" rx="0.69" transform="translate(1936.11 1682.33) rotate(180)"/><path class="cls-10" d="M1077.14,900.26h55.08a3.19,3.19,0,0,1,3.1,2.33H1079.8a2.57,2.57,0,0,0-2.63,2.51v13a2.57,2.57,0,0,0,2.63,2.51h55.61a3.19,3.19,0,0,1-3.19,2.74h-55.08a3.19,3.19,0,0,1-3.27-3.12V903.37A3.19,3.19,0,0,1,1077.14,900.26Z" transform="translate(-171.62 -141.3)"/><path class="cls-2" d="M1077.17,918.12v-13a2.57,2.57,0,0,1,2.63-2.51h55.52a2.66,2.66,0,0,1,.17.78v16.88a2.33,2.33,0,0,1-.08.38H1079.8A2.57,2.57,0,0,1,1077.17,918.12Z" transform="translate(-171.62 -141.3)"/><rect class="cls-10" x="1026.62" y="900.16" width="17.99" height="23.22" transform="translate(1899.6 1682.22) rotate(180)"/><path class="cls-6" d="M1077.9,919.27c.55,0,.88-.32.88-.7V904.83a.72.72,0,0,0-.74-.7c-.54,0-.87.31-.87.7v13.74A.72.72,0,0,0,1077.9,919.27Z" transform="translate(-171.62 -141.3)"/><path class="cls-2" d="M274.52,808.7a35,35,0,0,0-53.34,0L221,809c-9.7,11.57-15.19,27.88-10.06,42.09,2.63,7.3,7.93,13.92,8,21.68.09,13.15-14,21.07-21.85,31.63a37.54,37.54,0,0,0-4.37,36.23c4.62,10.95,14.68,20.43,13.85,32.3-.55,7.8-5.8,14.35-10.78,20.38-7.91,9.59-15.83,19.47-20.42,31s-5.44,25.23.64,36.07c5,8.95,14.39,15.56,16.77,25.54,2.34,9.8-2.81,19.71-3.72,29.75-1.74,18.94,13.13,37.08,31.49,42a50.49,50.49,0,0,0,24.67.11,12,12,0,0,1,5.39,0,50.49,50.49,0,0,0,24.67-.11c18.37-4.9,33.23-23,31.5-42-.92-10-6.07-20-3.73-29.75,2.38-10,11.75-16.59,16.77-25.54,6.09-10.84,5.24-24.52.65-36.07s-12.51-21.44-20.43-31c-5-6-10.23-12.58-10.78-20.38-.83-11.87,9.24-21.35,13.85-32.3a37.54,37.54,0,0,0-4.37-36.23c-7.83-10.56-21.94-18.48-21.85-31.63.06-7.76,5.35-14.38,8-21.68,5.14-14.21-.35-30.52-10.06-42.09Z" transform="translate(-171.62 -141.3)"/><path class="cls-11" d="M282.12,1076l3.14-14.73-2.77-.6-4.68,21.87.13,0-29.6,46.66v-80.11l44.91-50.67-2.12-1.89-21.77,24.56,6.74-32.15-2.78-.59-7.53,35.91.64.14-18.09,20.41V888.54s17.2-24,17.2-24h.06v-.1l7-9.84-2.31-1.65-4,5.58,2.5-20.43-2.82-.34-3.13,25.61-14.54,20.37V812.49H245.5v58.28l-19-27.34-2.33,1.62,21.31,30.71V979.4l-18.07-34.87H228l-.41-21.74-2.84.06.32,17.17-9.59-18.5L213,922.82l32.52,62.77V1101l-28.18-40.23.61-.14-8.15-37.25L207,1024l7,32.06-7.52-10.74-2.32,1.63,41.21,58.86.11-.07v124.89h2.84v-96.24s44.25-69.66,44.25-69.66l-2.39-1.52Z" transform="translate(-171.62 -141.3)"/><rect class="cls-11" x="20.46" y="1079.58" width="106.34" height="77.53" rx="3.1"/><polygon class="cls-6" points="718.72 601.15 719.57 692.38 738.42 692.38 737.57 601.15 718.72 601.15"/><polygon class="cls-12" points="554.44 601.15 555.29 692.34 721.24 692.34 720.39 601.15 554.44 601.15"/><path class="cls-6" d="M599,794.21h470c8.51,0,15.36-6,15.29-13.34L1081.52,486c-.07-7.37-7-13.34-15.55-13.34H596c-8.51,0-15.36,6-15.29,13.34l2.75,294.89C583.51,788.24,590.46,794.21,599,794.21Z" transform="translate(-171.62 -141.3)"/><path class="cls-12" d="M584.07,794.21h470c8.51,0,15.36-6,15.29-13.34L1066.6,486c-.06-7.37-7-13.34-15.54-13.34h-470c-8.51,0-15.36,6-15.29,13.34l2.75,294.89C568.59,788.24,575.55,794.21,584.07,794.21Z" transform="translate(-171.62 -141.3)"/><path class="cls-13" d="M1055.59,494.68c0-4.87-4.75-8.82-10.51-8.82H589.5c-5.75,0-10.38,3.95-10.34,8.82l.09,9.27,476.42-.62Z" transform="translate(-171.62 -141.3)"/><path class="cls-2" d="M1057.15,661.61l-.28-29.84-1.2-128.44L579.25,504l1.19,127.82.37,40,.67,72.2.18,18.71c0,4.87,4.75,8.82,10.5,8.82h455.58c5.76,0,10.39-4,10.35-8.82l-.68-73.06Z" transform="translate(-171.62 -141.3)"/><polygon class="cls-13" points="149.39 1157.11 192.1 688.31 180.13 688.31 137.41 1157.11 149.39 1157.11"/><rect class="cls-13" x="178.97" y="688.31" width="712.46" height="25.32"/><rect class="cls-14" x="758.72" y="1117.91" width="102.33" height="39.44"/><rect class="cls-15" x="861.05" y="1117.91" width="156.5" height="39.44"/><path class="cls-12" d="M1048.94,1298.65h-5.33v-21.8a2.67,2.67,0,1,1,5.33,0Z" transform="translate(-171.62 -141.3)"/><path class="cls-12" d="M1060.55,1298.65h-5.33v-21.8a2.67,2.67,0,1,1,5.33,0Z" transform="translate(-171.62 -141.3)"/><path class="cls-12" d="M1072.17,1298.65h-5.34v-21.8a2.67,2.67,0,0,1,5.34,0Z" transform="translate(-171.62 -141.3)"/><path class="cls-12" d="M1083.78,1298.65h-5.33v-21.8a2.67,2.67,0,1,1,5.33,0Z" transform="translate(-171.62 -141.3)"/><path class="cls-12" d="M1095.4,1298.65h-5.34v-21.8a2.67,2.67,0,0,1,5.34,0Z" transform="translate(-171.62 -141.3)"/><path class="cls-12" d="M1107,1298.65h-5.33v-21.8a2.67,2.67,0,1,1,5.33,0Z" transform="translate(-171.62 -141.3)"/><path class="cls-12" d="M1118.62,1298.65h-5.33v-21.8a2.67,2.67,0,1,1,5.33,0Z" transform="translate(-171.62 -141.3)"/><path class="cls-12" d="M1130.24,1298.65h-5.34v-21.8a2.67,2.67,0,0,1,5.34,0Z" transform="translate(-171.62 -141.3)"/><path class="cls-12" d="M1141.85,1298.65h-5.33v-21.8a2.67,2.67,0,1,1,5.33,0Z" transform="translate(-171.62 -141.3)"/><path class="cls-12" d="M1153.46,1298.65h-5.33v-21.8a2.67,2.67,0,1,1,5.33,0Z" transform="translate(-171.62 -141.3)"/><path class="cls-12" d="M1165.08,1298.65h-5.34v-21.8a2.67,2.67,0,0,1,5.34,0Z" transform="translate(-171.62 -141.3)"/><path class="cls-12" d="M1176.69,1298.65h-5.33v-21.8a2.67,2.67,0,1,1,5.33,0Z" transform="translate(-171.62 -141.3)"/><path class="cls-12" d="M988.41,1287.43h-7.08a4.65,4.65,0,0,1,0-9.29h7.08a4.65,4.65,0,0,1,0,9.29Z" transform="translate(-171.62 -141.3)"/><path class="cls-6" d="M1186.83,1264H1033.28L962.17,985.35H1189c9.27,0,18.28,8.74,18.27,17.72l-.2,240.28C1207.53,1255.37,1199.11,1264,1186.83,1264Z" transform="translate(-171.62 -141.3)"/><rect class="cls-12" x="744.55" y="844.05" width="132.33" height="278.61" rx="17.28"/><path class="cls-4" d="M1009.52,1255h-9a1.64,1.64,0,0,1-1.62-1.59,1.55,1.55,0,0,1,1.55-1.58h9a1.63,1.63,0,0,1,1.62,1.58A1.55,1.55,0,0,1,1009.52,1255Z" transform="translate(-171.62 -141.3)"/><path class="cls-4" d="M1034.62,1251.83h-9a1.15,1.15,0,0,0-.33,0,1.27,1.27,0,0,0-.34,0h-9a1.55,1.55,0,0,0-1.55,1.58A1.64,1.64,0,0,0,1016,1255h9a1.66,1.66,0,0,0,.33,0,1.86,1.86,0,0,0,.34,0h9a1.55,1.55,0,0,0,1.55-1.59A1.63,1.63,0,0,0,1034.62,1251.83Z" transform="translate(-171.62 -141.3)"/><path class="cls-4" d="M979.91,1014.91c-14,0-25.41,13.58-25.41,30.26s11.4,30.26,25.41,30.26,25.4-13.57,25.4-30.26S993.92,1014.91,979.91,1014.91Zm0,62.52c-15.11,0-27.41-14.47-27.41-32.26s12.3-32.26,27.41-32.26,27.4,14.47,27.4,32.26S995,1077.43,979.91,1077.43Z" transform="translate(-171.62 -141.3)"/><path class="cls-4" d="M979.91,1094.39c-14,0-25.41,13.58-25.41,30.26s11.4,30.26,25.41,30.26,25.4-13.57,25.4-30.26S993.92,1094.39,979.91,1094.39Zm0,62.52c-15.11,0-27.41-14.47-27.41-32.26s12.3-32.26,27.41-32.26,27.4,14.48,27.4,32.26S995,1156.91,979.91,1156.91Z" transform="translate(-171.62 -141.3)"/><path class="cls-4" d="M979.91,1173.88c-14,0-25.41,13.57-25.41,30.26s11.4,30.26,25.41,30.26,25.4-13.58,25.4-30.26S993.92,1173.88,979.91,1173.88Zm0,62.52c-15.11,0-27.41-14.48-27.41-32.26s12.3-32.26,27.41-32.26,27.4,14.47,27.4,32.26S995,1236.4,979.91,1236.4Z" transform="translate(-171.62 -141.3)"/><rect class="cls-2" x="839.44" y="688.31" width="187.44" height="25.32"/><polygon class="cls-2" points="1084.55 1157.35 1040.89 688.31 1028.91 688.31 1072.57 1157.35 1084.55 1157.35"/><polygon class="cls-2" points="883.86 1158.13 841.05 688.51 829.08 688.51 871.29 1158.13 883.86 1158.13"/><circle class="cls-16" cx="831.88" cy="353.78" r="5.62"/><circle class="cls-16" cx="850.51" cy="353.78" r="5.62"/><circle class="cls-16" cx="869.13" cy="353.78" r="5.62"/><path class="cls-12" d="M834.2,373.48h20.51a5.13,5.13,0,0,1,5.13,5.13V380a0,0,0,0,1,0,0H829.08a0,0,0,0,1,0,0v-1.4A5.13,5.13,0,0,1,834.2,373.48Z"/><path class="cls-17" d="M682.68,730.09a.49.49,0,0,1-.49.48.49.49,0,0,1,0-1A.49.49,0,0,1,682.68,730.09Z" transform="translate(-171.62 -141.3)"/><path class="cls-18" d="M848,829.61H646.91a8,8,0,0,1,0-16H848a8,8,0,1,1,0,16Z" transform="translate(-171.62 -141.3)"/><polygon class="cls-19" points="282.37 523.65 284.45 544.02 302.2 544.02 300.12 523.65 282.37 523.65"/><path class="cls-2" d="M762.61,829.61H561.51a8,8,0,1,1,0-16h201.1a8,8,0,0,1,0,16Z" transform="translate(-171.62 -141.3)"/><rect class="cls-7" x="1114.51" y="678.57" width="6.33" height="74.8" rx="1.61" transform="translate(-296.88 108.93) rotate(-12.1)"/><rect class="cls-9" x="1123.38" y="667.87" width="6.33" height="74.8" rx="2.03" transform="translate(-243.22 -11.32) rotate(-6.4)"/><rect class="cls-12" x="1138.61" y="661.8" width="6.33" height="74.8" rx="1.72" transform="translate(-69.23 -286.03) rotate(7.59)"/><rect class="cls-2" x="1149.63" y="674.55" width="6.33" height="74.8" rx="1.87" transform="translate(15.17 -379.42) rotate(12.82)"/><rect class="cls-11" x="940" y="570.64" width="44" height="117.87"/><path class="cls-2" d="M463.36,685.34H450.53V650.81a6.42,6.42,0,1,1,12.83,0Z" transform="translate(-171.62 -141.3)"/><ellipse class="cls-20" cx="121.48" cy="250.34" rx="89.08" ry="88.98"/><ellipse class="cls-2" cx="121.48" cy="250.34" rx="70.25" ry="70.17"/><path class="cls-3" d="M293.06,396.57a4.44,4.44,0,0,1-4.43-4.42V341.6a4.44,4.44,0,0,1,8.87,0v50.55A4.44,4.44,0,0,1,293.06,396.57Z" transform="translate(-171.62 -141.3)"/><path class="cls-3" d="M323.61,396.57H292.66a4,4,0,1,1,0-8h30.95a4,4,0,1,1,0,8Z" transform="translate(-171.62 -141.3)"/><path class="cls-2" d="M1072.39,937.6c0,4.42,7.51,8,16.78,8s16.79-3.58,16.79-8-7.52-8-16.79-8S1072.39,933.19,1072.39,937.6Z" transform="translate(-171.62 -141.3)"/><path class="cls-3" d="M438.75,434.52a1.68,1.68,0,0,0,1.68-1.68v-3.49a1.68,1.68,0,0,0-3.36,0v3.49A1.68,1.68,0,0,0,438.75,434.52Z" transform="translate(-171.62 -141.3)"/><path class="cls-3" d="M430.42,433.76a1.68,1.68,0,0,0,1,.79l.42.05a1.72,1.72,0,0,0,.84-.22,1.62,1.62,0,0,0,.78-1,1.66,1.66,0,0,0-.16-1.29l-.81-1.4a1.66,1.66,0,0,0-1-.77,1.63,1.63,0,0,0-1.28.16,1.65,1.65,0,0,0-.79,1,1.71,1.71,0,0,0,.17,1.27Z" transform="translate(-171.62 -141.3)"/><path class="cls-3" d="M424.61,438.69l2.84,1.64.42.17a1.59,1.59,0,0,0,.48.07l.44-.06a1.66,1.66,0,0,0,1-.77,1.73,1.73,0,0,0,.17-1.28,1.69,1.69,0,0,0-.79-1l-2.85-1.65a1.76,1.76,0,0,0-.53-.19,1.62,1.62,0,0,0-.79,0,1.71,1.71,0,0,0-1,.79A1.67,1.67,0,0,0,424.61,438.69Z" transform="translate(-171.62 -141.3)"/><path class="cls-3" d="M444.85,434.15a1.61,1.61,0,0,0,.83.22l.44-.05a1.69,1.69,0,0,0,1-.79l.81-1.39a1.67,1.67,0,0,0,.16-1.28,1.61,1.61,0,0,0-.78-1,1.68,1.68,0,0,0-2.29.62l-.81,1.39a1.68,1.68,0,0,0,.62,2.3Z" transform="translate(-171.62 -141.3)"/><path class="cls-3" d="M453.24,450.76l-2.85-1.64L450,449a1.64,1.64,0,0,0-1,0,1.61,1.61,0,0,0-1,.78,1.65,1.65,0,0,0-.17,1.29,1.69,1.69,0,0,0,.78,1l2.85,1.64a1.47,1.47,0,0,0,.42.17l.47.07a1.69,1.69,0,0,0,.85-3.14Z" transform="translate(-171.62 -141.3)"/><path class="cls-3" d="M454.34,442.81h-1.61a1.68,1.68,0,0,0-1.68,1.68,1.7,1.7,0,0,0,1.68,1.7h1.61a1.69,1.69,0,1,0,0-3.38Z" transform="translate(-171.62 -141.3)"/><path class="cls-3" d="M428.38,449.65a1.68,1.68,0,0,0-1.28.16l-2.32,1.34a1.66,1.66,0,0,0-.79,1,1.69,1.69,0,0,0,.18,1.28,1.59,1.59,0,0,0,1,.77l.49.08a1.69,1.69,0,0,0,.84-.23l2.32-1.33a1.68,1.68,0,0,0-.46-3.09Z" transform="translate(-171.62 -141.3)"/><path class="cls-3" d="M439.09,454.93a1.69,1.69,0,0,0-1.68,1.68v3.5a1.68,1.68,0,0,0,3.36,0v-3.5A1.68,1.68,0,0,0,439.09,454.93Z" transform="translate(-171.62 -141.3)"/><path class="cls-3" d="M447.43,455.69a1.73,1.73,0,0,0-1-.78,1.61,1.61,0,0,0-1.27.17,1.66,1.66,0,0,0-.79,1,1.7,1.7,0,0,0,.17,1.27l.81,1.4a1.68,1.68,0,0,0,1.45.84,1.72,1.72,0,0,0,.85-.23,1.67,1.67,0,0,0,.78-1,1.61,1.61,0,0,0-.17-1.27Z" transform="translate(-171.62 -141.3)"/><path class="cls-3" d="M433,455.31a1.69,1.69,0,0,0-2.3.61l-.8,1.39a1.66,1.66,0,0,0-.17,1.29,1.7,1.7,0,0,0,.78,1,1.78,1.78,0,0,0,.84.22l.43-.06a1.72,1.72,0,0,0,1-.78l.8-1.39a1.62,1.62,0,0,0,.17-1.27A1.66,1.66,0,0,0,433,455.31Z" transform="translate(-171.62 -141.3)"/><path class="cls-3" d="M426.79,445a1.69,1.69,0,0,0-1.68-1.7H423.5a1.69,1.69,0,0,0,0,3.38h1.61A1.68,1.68,0,0,0,426.79,445Z" transform="translate(-171.62 -141.3)"/><path class="cls-3" d="M449.5,439.82l.41.05a1.69,1.69,0,0,0,.84-.23l2.32-1.33a1.72,1.72,0,0,0,.78-1,1.66,1.66,0,0,0-.17-1.26,1.5,1.5,0,0,0-.76-.68l-.25-.11a1.75,1.75,0,0,0-1.35.15L449,436.72a1.68,1.68,0,0,0,.5,3.1Z" transform="translate(-171.62 -141.3)"/><path class="cls-3" d="M1149.58,292.17a1.59,1.59,0,0,0,1.58-1.59v-3.29a1.59,1.59,0,1,0-3.17,0v3.29A1.59,1.59,0,0,0,1149.58,292.17Z" transform="translate(-171.62 -141.3)"/><path class="cls-3" d="M1141.72,291.45a1.57,1.57,0,0,0,1,.74l.41.05a1.5,1.5,0,0,0,.78-.21,1.6,1.6,0,0,0,.59-2.17l-.76-1.32a1.63,1.63,0,0,0-1-.73,1.57,1.57,0,0,0-1.2.16,1.57,1.57,0,0,0-.59,2.16Z" transform="translate(-171.62 -141.3)"/><path class="cls-3" d="M1136.25,296.1l2.68,1.54.39.16a1.83,1.83,0,0,0,.45.07l.42-.06a1.58,1.58,0,0,0,.38-2.9l-2.69-1.55a1.66,1.66,0,0,0-.5-.18,1.59,1.59,0,0,0-.75,0,1.58,1.58,0,0,0-.38,2.91Z" transform="translate(-171.62 -141.3)"/><path class="cls-3" d="M1155.32,291.81a1.58,1.58,0,0,0,.79.21l.41,0a1.57,1.57,0,0,0,1-.74l.76-1.31a1.59,1.59,0,0,0,.16-1.21,1.63,1.63,0,0,0-.74-1,1.6,1.6,0,0,0-2.17.58l-.76,1.31a1.58,1.58,0,0,0-.16,1.2A1.61,1.61,0,0,0,1155.32,291.81Z" transform="translate(-171.62 -141.3)"/><path class="cls-3" d="M1163.23,307.47l-2.68-1.54-.33-.14a1.52,1.52,0,0,0-.92,0,1.61,1.61,0,0,0-1,.74,1.58,1.58,0,0,0,.58,2.17l2.68,1.55a1.35,1.35,0,0,0,.4.15l.45.07a1.57,1.57,0,0,0,1.37-.8,1.51,1.51,0,0,0,.16-1.19A1.57,1.57,0,0,0,1163.23,307.47Z" transform="translate(-171.62 -141.3)"/><path class="cls-3" d="M1164.28,300h-1.52a1.6,1.6,0,0,0,0,3.19h1.52a1.6,1.6,0,0,0,0-3.19Z" transform="translate(-171.62 -141.3)"/><path class="cls-3" d="M1139.81,306.42a1.58,1.58,0,0,0-1.22.16l-2.18,1.25a1.6,1.6,0,0,0-.74,1,1.57,1.57,0,0,0,.16,1.2,1.5,1.5,0,0,0,1,.73l.47.08a1.6,1.6,0,0,0,.79-.22l2.18-1.26a1.58,1.58,0,0,0,.58-2.16A1.62,1.62,0,0,0,1139.81,306.42Z" transform="translate(-171.62 -141.3)"/><path class="cls-3" d="M1149.9,311.4a1.59,1.59,0,0,0-1.58,1.59v3.29a1.59,1.59,0,0,0,3.17,0V313A1.59,1.59,0,0,0,1149.9,311.4Z" transform="translate(-171.62 -141.3)"/><path class="cls-3" d="M1157.76,312.12a1.59,1.59,0,0,0-2.17-.58,1.58,1.58,0,0,0-.58,2.16l.76,1.32a1.58,1.58,0,0,0,1.37.79,1.65,1.65,0,0,0,.8-.21,1.6,1.6,0,0,0,.73-1,1.56,1.56,0,0,0-.16-1.21Z" transform="translate(-171.62 -141.3)"/><path class="cls-3" d="M1144.16,311.76a1.6,1.6,0,0,0-2.17.58l-.76,1.31a1.58,1.58,0,0,0,.59,2.17,1.55,1.55,0,0,0,.78.21l.41-.06a1.59,1.59,0,0,0,1-.73l.75-1.31a1.6,1.6,0,0,0-.57-2.17Z" transform="translate(-171.62 -141.3)"/><path class="cls-3" d="M1138.3,302a1.59,1.59,0,0,0-1.58-1.6h-1.52a1.6,1.6,0,0,0,0,3.19h1.52A1.59,1.59,0,0,0,1138.3,302Z" transform="translate(-171.62 -141.3)"/><path class="cls-3" d="M1159.71,297.15l.39.05a1.58,1.58,0,0,0,.79-.21l2.18-1.26a1.57,1.57,0,0,0,.74-1,1.51,1.51,0,0,0-.16-1.18,1.47,1.47,0,0,0-.71-.65l-.24-.1a1.69,1.69,0,0,0-1.27.14l-2.19,1.26a1.62,1.62,0,0,0-.73,1,1.58,1.58,0,0,0,.15,1.19A1.6,1.6,0,0,0,1159.71,297.15Z" transform="translate(-171.62 -141.3)"/><path class="cls-3" d="M605.63,444H503a11.15,11.15,0,0,1-11.13-11.13V268A11.14,11.14,0,0,1,503,256.86h90.26a11.1,11.1,0,0,1,8.55,4l12.41,14.89a11.19,11.19,0,0,1,2.58,7.13v150A11.14,11.14,0,0,1,605.63,444ZM503,260.75a7.24,7.24,0,0,0-7.24,7.23V432.9a7.25,7.25,0,0,0,7.24,7.24H605.63a7.25,7.25,0,0,0,7.24-7.24v-150a7.28,7.28,0,0,0-1.68-4.64l-12.41-14.89a7.22,7.22,0,0,0-5.56-2.6Z" transform="translate(-171.62 -141.3)"/><path class="cls-3" d="M901.6,456.55h-89a10,10,0,0,1-10-10V395.2a10,10,0,0,1,10-10h89a10,10,0,0,1,10,10v51.38A10,10,0,0,1,901.6,456.55Zm-89-67.43a6.09,6.09,0,0,0-6.09,6.08v51.38a6.09,6.09,0,0,0,6.09,6.08h89a6.09,6.09,0,0,0,6.08-6.08V395.2a6.09,6.09,0,0,0-6.08-6.08Z" transform="translate(-171.62 -141.3)"/><polygon class="cls-3" points="688.73 277 634.35 250.01 636.09 246.52 688.62 272.61 735.2 246.57 737.09 249.96 688.73 277"/><path class="cls-3" d="M953.33,204.51l-19.91-5.14a3.67,3.67,0,0,1-.72-6.84L996,160.94a2.38,2.38,0,0,1,3.07.9,3.11,3.11,0,0,1-.39,3.93Zm36-35.92-55,27.42,17.9,4.24Z" transform="translate(-171.62 -141.3)"/><path class="cls-3" d="M960.42,226.24a4.74,4.74,0,0,1-.65-.05,4.18,4.18,0,0,1-3.45-3.09l-5.68-21.41,45.6-39.37a2.72,2.72,0,0,1,4,3.67L964,224.25A4.13,4.13,0,0,1,960.42,226.24ZM955,203.05l5.05,19.06.57.08L993,170.27Z" transform="translate(-171.62 -141.3)"/><path class="cls-3" d="M821,149.71a2.07,2.07,0,0,0,2.07-2.06v-4.28a2.07,2.07,0,1,0-4.13,0v4.28A2.07,2.07,0,0,0,821,149.71Z" transform="translate(-171.62 -141.3)"/><path class="cls-3" d="M810.8,148.77a2,2,0,0,0,1.26,1l.53.07a2.08,2.08,0,0,0,2-1.52,2,2,0,0,0-.2-1.58l-1-1.71a2.07,2.07,0,0,0-1.24-.95,2.07,2.07,0,0,0-2.54,1.46,2.08,2.08,0,0,0,.21,1.56Z" transform="translate(-171.62 -141.3)"/><path class="cls-3" d="M803.67,154.82l3.5,2,.51.21a2.32,2.32,0,0,0,.58.08l.54-.07a2,2,0,0,0,1.25-1,2,2,0,0,0,.21-1.56,2,2,0,0,0-1-1.26l-3.5-2a2.26,2.26,0,0,0-.65-.23,2,2,0,0,0-1,0,2,2,0,0,0-1.26,1A2.07,2.07,0,0,0,803.67,154.82Z" transform="translate(-171.62 -141.3)"/><path class="cls-3" d="M828.49,149.25a2.06,2.06,0,0,0,1,.27l.53-.07a2,2,0,0,0,1.25-1l1-1.7a2.06,2.06,0,0,0-3.57-2.07l-1,1.71a2,2,0,0,0-.21,1.56A2.06,2.06,0,0,0,828.49,149.25Z" transform="translate(-171.62 -141.3)"/><path class="cls-3" d="M838.78,169.62l-3.49-2-.44-.18a2,2,0,0,0-1.19-.05,2,2,0,0,0-1.26,1,2.05,2.05,0,0,0,.75,2.82l3.49,2a2.06,2.06,0,0,0,.52.2l.58.08a2.07,2.07,0,0,0,1.79-1,2.08,2.08,0,0,0-.75-2.81Z" transform="translate(-171.62 -141.3)"/><path class="cls-3" d="M840.14,159.86h-2a2.08,2.08,0,0,0,0,4.15h2a2.08,2.08,0,0,0,0-4.15Z" transform="translate(-171.62 -141.3)"/><path class="cls-3" d="M808.3,168.25a2.05,2.05,0,0,0-1.57.2l-2.84,1.64a2.07,2.07,0,0,0-1,1.25,2.1,2.1,0,0,0,.21,1.57,2,2,0,0,0,1.26,1l.6.09a2.06,2.06,0,0,0,1-.27l2.84-1.64a2.06,2.06,0,0,0,1-1.26,2,2,0,0,0-.21-1.55A2.08,2.08,0,0,0,808.3,168.25Z" transform="translate(-171.62 -141.3)"/><path class="cls-3" d="M821.44,174.73a2.07,2.07,0,0,0-2.07,2.06v4.28a2.07,2.07,0,0,0,4.13,0v-4.28A2.06,2.06,0,0,0,821.44,174.73Z" transform="translate(-171.62 -141.3)"/><path class="cls-3" d="M831.65,175.67a2,2,0,0,0-2.81-.76,2,2,0,0,0-.76,2.81l1,1.72a2.07,2.07,0,0,0,1.78,1,2,2,0,0,0,2-1.52,2.05,2.05,0,0,0-.21-1.57Z" transform="translate(-171.62 -141.3)"/><path class="cls-3" d="M814,175.19a2.08,2.08,0,0,0-2.82.76l-1,1.7a2.06,2.06,0,0,0-.21,1.58,2.1,2.1,0,0,0,1,1.24,2.06,2.06,0,0,0,1,.28l.53-.08a2.07,2.07,0,0,0,1.26-.95l1-1.71a2,2,0,0,0,.21-1.56A2.08,2.08,0,0,0,814,175.19Z" transform="translate(-171.62 -141.3)"/><path class="cls-3" d="M806.35,162.51a2.07,2.07,0,0,0-2.06-2.08h-2a2.08,2.08,0,0,0,0,4.15h2A2.07,2.07,0,0,0,806.35,162.51Z" transform="translate(-171.62 -141.3)"/><path class="cls-3" d="M834.2,156.2l.5.06a1.94,1.94,0,0,0,1-.28l2.85-1.63a2.06,2.06,0,0,0,1-1.26,2,2,0,0,0-.21-1.55,1.85,1.85,0,0,0-.93-.83l-.3-.13a2.12,2.12,0,0,0-1.66.18l-2.84,1.64a2.07,2.07,0,0,0-.76,2.81A2.12,2.12,0,0,0,834.2,156.2Z" transform="translate(-171.62 -141.3)"/><path class="cls-3" d="M614.82,301.8a1.95,1.95,0,0,1-.63-3.79s1.79-.62,5.08-1.5a1.95,1.95,0,0,1,1,3.76c-3.08.83-4.79,1.41-4.83,1.42A1.93,1.93,0,0,1,614.82,301.8Z" transform="translate(-171.62 -141.3)"/><path class="cls-3" d="M804.76,375.09a1.94,1.94,0,0,1-1.66-.94q-2.82-4.65-5.76-8.95a1.94,1.94,0,0,1,3.21-2.19q3,4.39,5.88,9.12a2,2,0,0,1-.66,2.67A1.85,1.85,0,0,1,804.76,375.09Zm-12.1-17.75a1.93,1.93,0,0,1-1.54-.76q-3.3-4.32-6.7-8.25a1.95,1.95,0,1,1,3-2.54q3.46,4,6.84,8.43a1.93,1.93,0,0,1-.37,2.72A1.91,1.91,0,0,1,792.66,357.34Zm-14-16.25a2,2,0,0,1-1.39-.58c-2.47-2.53-5-5-7.66-7.35a1.94,1.94,0,1,1,2.6-2.89c2.68,2.4,5.32,4.93,7.85,7.52a1.94,1.94,0,0,1,0,2.75A1.9,1.9,0,0,1,778.62,341.09Zm-16-14.33a1.89,1.89,0,0,1-1.19-.41c-2.8-2.17-5.69-4.26-8.6-6.22A1.95,1.95,0,0,1,755,316.9c3,2,6,4.15,8.82,6.38a1.95,1.95,0,0,1-1.2,3.48Zm-17.83-12a2,2,0,0,1-1-.26c-3-1.74-6.19-3.39-9.38-4.92a1.95,1.95,0,1,1,1.68-3.51c3.27,1.57,6.52,3.27,9.64,5.05a1.95,1.95,0,0,1-1,3.64Zm-19.37-9.29a1.94,1.94,0,0,1-.71-.13c-3.28-1.29-6.65-2.47-10-3.53a1.94,1.94,0,0,1,1.16-3.71c3.45,1.08,6.9,2.3,10.27,3.62a1.94,1.94,0,0,1-.71,3.75Zm-20.5-6.42a2.38,2.38,0,0,1-.45,0c-3.4-.81-6.9-1.53-10.4-2.12a2,2,0,0,1-1.6-2.25,1.9,1.9,0,0,1,2.24-1.59c3.6.61,7.18,1.34,10.66,2.17a1.95,1.95,0,0,1-.45,3.84ZM630.24,298a1.95,1.95,0,0,1-.37-3.86c3.17-.61,6.76-1.22,10.72-1.75a1.89,1.89,0,0,1,2.19,1.67,1.94,1.94,0,0,1-1.67,2.18c-3.88.52-7.39,1.12-10.5,1.72A1.61,1.61,0,0,1,630.24,298Zm53.51-2.46c-3.7-.37-7.27-.63-10.8-.78a1.95,1.95,0,0,1,.08-3.89q5.55.24,10.92.79a1.95,1.95,0,0,1-.2,3.88Zm-32.21-.4a1.94,1.94,0,0,1-.15-3.88c3.45-.26,7.07-.44,10.85-.51a1.88,1.88,0,0,1,2,1.91,1.94,1.94,0,0,1-1.91,2c-3.7.07-7.25.24-10.63.5Z" transform="translate(-171.62 -141.3)"/><path class="cls-3" d="M812.63,389.12a1.94,1.94,0,0,1-1.73-1.06c-.8-1.54-1.6-3.05-2.41-4.55a1.94,1.94,0,0,1,3.42-1.85c.82,1.52,1.64,3.06,2.44,4.62a1.95,1.95,0,0,1-1.72,2.84Z" transform="translate(-171.62 -141.3)"/><path class="cls-3" d="M911.1,439.79a1.95,1.95,0,0,1-.92-3.66c1.55-.83,4.74-2.61,8.76-5.27a1.94,1.94,0,1,1,2.15,3.24c-4.16,2.75-7.47,4.6-9.07,5.46A1.9,1.9,0,0,1,911.1,439.79Zm17.36-11.42a1.95,1.95,0,0,1-1.19-3.48c2.73-2.13,5.36-4.35,7.81-6.6a1.94,1.94,0,0,1,2.63,2.86c-2.52,2.32-5.23,4.62-8.05,6.81A1.94,1.94,0,0,1,928.46,428.37Zm15.24-14.08a1.91,1.91,0,0,1-1.3-.5,2,2,0,0,1-.14-2.75,91.08,91.08,0,0,0,6.4-7.9,1.94,1.94,0,0,1,3.15,2.28,97.12,97.12,0,0,1-6.66,8.23A1.93,1.93,0,0,1,943.7,414.29Zm12.09-16.82a1.92,1.92,0,0,1-.93-.24,2,2,0,0,1-.78-2.64,70.11,70.11,0,0,0,4.22-9.16,1.95,1.95,0,0,1,3.65,1.36,76,76,0,0,1-4.45,9.67A1.94,1.94,0,0,1,955.79,397.47ZM963,378.1l-.39,0a2,2,0,0,1-1.51-2.3,62.26,62.26,0,0,0,1.2-10,1.86,1.86,0,0,1,2-1.87,1.94,1.94,0,0,1,1.87,2,66.57,66.57,0,0,1-1.28,10.59A2,2,0,0,1,963,378.1Zm.82-20.62a2,2,0,0,1-1.93-1.72,69.64,69.64,0,0,0-1.92-9.9,1.95,1.95,0,0,1,3.76-1,73.14,73.14,0,0,1,2,10.45,1.93,1.93,0,0,1-1.7,2.16Zm-5.27-20a2,2,0,0,1-1.81-1.21,99.22,99.22,0,0,0-4.33-9.2,1.94,1.94,0,0,1,3.43-1.83,102.1,102.1,0,0,1,4.51,9.56,2,2,0,0,1-1.07,2.54A1.89,1.89,0,0,1,958.54,337.48Zm-9.72-18.29a2,2,0,0,1-1.64-.89c-1.21-1.86-2.5-3.74-3.89-5.63l-2-2.81a1.94,1.94,0,0,1,3.18-2.24l2,2.76q2.13,2.92,4,5.8a2,2,0,0,1-.57,2.69A2,2,0,0,1,948.82,319.19ZM937.14,302a2,2,0,0,1-1.65-.92c-1.9-3.06-3.67-6.12-5.25-9.1a1.95,1.95,0,1,1,3.44-1.82c1.54,2.9,3.26,5.88,5.12,8.87a2,2,0,0,1-.63,2.68A1.91,1.91,0,0,1,937.14,302Zm-9.66-18.34a1.93,1.93,0,0,1-1.78-1.18A99.23,99.23,0,0,1,922,272.6a1.95,1.95,0,1,1,3.72-1.14,96.32,96.32,0,0,0,3.51,9.53,2,2,0,0,1-1,2.56A2.07,2.07,0,0,1,927.48,283.7Zm-6-19.81a2,2,0,0,1-1.92-1.62,66.1,66.1,0,0,1-.95-10.63,1.95,1.95,0,1,1,3.89,0,61.83,61.83,0,0,0,.9,10,1.94,1.94,0,0,1-1.6,2.24A1.16,1.16,0,0,1,921.48,263.89Zm0-20.63a2.19,2.19,0,0,1-.36,0,1.94,1.94,0,0,1-1.55-2.27,51.42,51.42,0,0,1,3.06-10.31,2,2,0,0,1,2.54-1.05,2,2,0,0,1,1.05,2.54,48.34,48.34,0,0,0-2.83,9.54A1.94,1.94,0,0,1,921.46,243.26Zm7.87-19a2,2,0,0,1-1.1-.33,2,2,0,0,1-.51-2.71,57.89,57.89,0,0,1,6.85-8.25,1.94,1.94,0,1,1,2.75,2.74,54.51,54.51,0,0,0-6.39,7.7A1.9,1.9,0,0,1,929.33,224.23Zm14.53-14.67a1.94,1.94,0,0,1-1.12-3.53,53,53,0,0,1,9.35-5.45,1.94,1.94,0,1,1,1.5,3.58,51,51,0,0,0-8.6,5A2,2,0,0,1,943.86,209.56Z" transform="translate(-171.62 -141.3)"/><path class="cls-2" d="M896.06,684.3c-15.72-11.55-31.44-19.89-48.12-28.56-23.42-11.87-46.52-21.81-67.06-39.14-2.56-1.92-5.13-2.89-7.7-4.81-26.63-22.14-50-46.2-63.84-77.32a150,150,0,0,1-10.1-31.27l-117.86.15,1.19,127.55.37,39.88.67,72.05.18,18.68c0,4.86,4.74,8.8,10.48,8.8H967a219,219,0,0,0-25.65-40.77C927.51,712.21,914.35,697.45,896.06,684.3Z" transform="translate(-171.62 -141.3)"/><circle class="cls-21" cx="547.21" cy="555.29" r="1.55"/><circle class="cls-21" cx="482.42" cy="620.29" r="1.55"/><path class="cls-22" d="M580,582.2l118.14,84.56A56.66,56.66,0,0,0,761,668.85l153.59-95.13a38.33,38.33,0,0,1,31.89-3.91l111.67,35,1.11,168.46H580.66Z" transform="translate(-171.62 -141.3)"/><path class="cls-1" d="M894.71,548.08a23.42,23.42,0,0,0-19.56,3.52l-1.24-.75C872,537.79,857.16,525.17,846,521.57c-12.1-3.89-25.62.57-35.73,8.24-1.11.85-2.2,1.76-3.25,2.72A16.32,16.32,0,0,0,795.84,528c-10.07,0-18.22,9.86-18.19,22,0,.28,0,.55,0,.82-6.13-3.26-13.26-4.69-19.77-2.56a32.7,32.7,0,0,0-12.44,8.19,4.21,4.21,0,0,0,3,7.16H906.3a2.41,2.41,0,0,0,2.14-3.5C905.58,554.45,900.65,549.81,894.71,548.08Z" transform="translate(-171.62 -141.3)"/><path class="cls-21" d="M796.64,597.79a1.55,1.55,0,1,1-1.55-1.54A1.54,1.54,0,0,1,796.64,597.79Z" transform="translate(-171.62 -141.3)"/><path class="cls-23" d="M731.35,743.46c-5.84,7.08-11.69,14.37-15.08,22.9a39.9,39.9,0,0,0-2,6.92H825.41a38.23,38.23,0,0,0-2-6.92c-3.38-8.53-9.23-15.82-15.07-22.9-3.67-4.45-7.55-9.29-8-15.05-.61-8.75,6.82-15.75,10.22-23.84a27.7,27.7,0,0,0-3.22-26.74c-5.79-7.79-16.19-13.64-16.13-23.35,0-5.72,3.95-10.61,5.89-16,3.79-10.49-.26-22.53-7.43-31.07l-.16-.2a25.85,25.85,0,0,0-39.37,0l-.17.2c-7.16,8.54-11.21,20.58-7.43,31.07,2,5.38,5.85,10.27,5.89,16,.07,9.71-10.34,15.56-16.12,23.35a27.73,27.73,0,0,0-3.23,26.74c3.41,8.09,10.84,15.09,10.22,23.84C738.9,734.17,735,739,731.35,743.46Z" transform="translate(-171.62 -141.3)"/><path class="cls-21" d="M809.88,599.73a1.94,1.94,0,1,1,1.94-1.94A1.93,1.93,0,0,1,809.88,599.73Z" transform="translate(-171.62 -141.3)"/><path class="cls-21" d="M730,599.73a1.94,1.94,0,1,1,1.94-1.94A1.93,1.93,0,0,1,730,599.73Z" transform="translate(-171.62 -141.3)"/><rect class="cls-21" x="558.34" y="456.16" width="79.93" height="0.66"/><path class="cls-21" d="M728.59,692.19a1.94,1.94,0,1,1-1.93-1.93A1.93,1.93,0,0,1,728.59,692.19Z" transform="translate(-171.62 -141.3)"/><path class="cls-21" d="M728.59,652.23a1.94,1.94,0,1,1-1.93-1.94A1.92,1.92,0,0,1,728.59,652.23Z" transform="translate(-171.62 -141.3)"/><path class="cls-21" d="M728.59,732.16a1.94,1.94,0,1,1-1.93-1.93A1.93,1.93,0,0,1,728.59,732.16Z" transform="translate(-171.62 -141.3)"/><rect class="cls-21" x="554.71" y="510.92" width="0.66" height="79.93"/><path class="cls-21" d="M814.56,692.19a1.94,1.94,0,1,1-1.94-1.93A1.94,1.94,0,0,1,814.56,692.19Z" transform="translate(-171.62 -141.3)"/><path class="cls-21" d="M814.56,652.23a1.94,1.94,0,1,1-1.94-1.94A1.93,1.93,0,0,1,814.56,652.23Z" transform="translate(-171.62 -141.3)"/><path class="cls-21" d="M814.56,732.16a1.94,1.94,0,1,1-1.94-1.93A1.94,1.94,0,0,1,814.56,732.16Z" transform="translate(-171.62 -141.3)"/><rect class="cls-21" x="640.68" y="510.92" width="0.66" height="79.93"/><path class="cls-24" d="M925.4,627l23.89-10.7a59.65,59.65,0,1,0-19.76,115.93c1.49,0,3-.05,4.41-.16l-19.39-46.86a7.19,7.19,0,0,1,3.89-9.4l17.5-7.26-14.22-32A7.28,7.28,0,0,1,925.4,627Z" transform="translate(-171.62 -141.3)"/><path class="cls-24" d="M949.29,616.26,925.39,627a7.27,7.27,0,0,0-3.67,9.59l11.06,24.87a7.56,7.56,0,0,1-4,10.06L917.93,676a6.65,6.65,0,0,0-3.59,8.68L933.94,732a59.65,59.65,0,0,0,15.35-115.77Z" transform="translate(-171.62 -141.3)"/><path class="cls-21" d="M989.57,732.47H869.89V613H989.57Zm-119.34-.41h119V613.36h-119Z" transform="translate(-171.62 -141.3)"/><circle class="cls-21" cx="698.61" cy="471.76" r="1.55"/><path class="cls-21" d="M990.92,612.91a1.55,1.55,0,1,1-1.55-1.55A1.55,1.55,0,0,1,990.92,612.91Z" transform="translate(-171.62 -141.3)"/><circle class="cls-21" cx="698.57" cy="591.24" r="1.55"/><circle class="cls-21" cx="817.71" cy="591.08" r="1.55"/><rect class="cls-18" x="425.88" y="381.32" width="73.46" height="110.8"/><path class="cls-17" d="M662.94,534.46h-57.5a2.32,2.32,0,1,1,0-4.63h57.5a2.32,2.32,0,0,1,0,4.63Z" transform="translate(-171.62 -141.3)"/><path class="cls-17" d="M662.94,548.49h-57.5a2.32,2.32,0,1,1,0-4.63h57.5a2.32,2.32,0,0,1,0,4.63Z" transform="translate(-171.62 -141.3)"/><path class="cls-17" d="M662.94,562.52h-57.5a2.32,2.32,0,1,1,0-4.63h57.5a2.32,2.32,0,0,1,0,4.63Z" transform="translate(-171.62 -141.3)"/><path class="cls-17" d="M662.94,576.55h-57.5a2.32,2.32,0,1,1,0-4.63h57.5a2.32,2.32,0,0,1,0,4.63Z" transform="translate(-171.62 -141.3)"/><path class="cls-17" d="M662.94,590.58h-57.5a2.31,2.31,0,1,1,0-4.62h57.5a2.31,2.31,0,0,1,0,4.62Z" transform="translate(-171.62 -141.3)"/><path class="cls-17" d="M662.94,604.61h-57.5a2.31,2.31,0,1,1,0-4.62h57.5a2.31,2.31,0,1,1,0,4.62Z" transform="translate(-171.62 -141.3)"/><path class="cls-17" d="M662.94,618.64h-57.5a2.31,2.31,0,1,1,0-4.62h57.5a2.31,2.31,0,0,1,0,4.62Z" transform="translate(-171.62 -141.3)"/><path class="cls-17" d="M662.94,632.67h-57.5a2.31,2.31,0,1,1,0-4.62h57.5a2.31,2.31,0,0,1,0,4.62Z" transform="translate(-171.62 -141.3)"/><path class="cls-17" d="M662.94,646.71h-57.5a2.32,2.32,0,1,1,0-4.63h57.5a2.32,2.32,0,0,1,0,4.63Z" transform="translate(-171.62 -141.3)"/><path class="cls-2" d="M615.73,531.79a4.67,4.67,0,1,1-4.67-4.67A4.67,4.67,0,0,1,615.73,531.79Z" transform="translate(-171.62 -141.3)"/><path class="cls-2" d="M661.55,546.17a4.67,4.67,0,1,1-4.66-4.66A4.67,4.67,0,0,1,661.55,546.17Z" transform="translate(-171.62 -141.3)"/><path class="cls-2" d="M624.3,560.21a4.67,4.67,0,1,1-4.66-4.67A4.66,4.66,0,0,1,624.3,560.21Z" transform="translate(-171.62 -141.3)"/><path class="cls-12" d="M671,522.62v-2.2a5.84,5.84,0,0,0-5.83-5.82h-61.8a5.85,5.85,0,0,0-5.83,5.82v2.2Z" transform="translate(-171.62 -141.3)"/><rect class="cls-18" x="829.08" y="380.01" width="30.77" height="221.14"/><rect class="cls-17" x="832.99" y="384.65" width="9.47" height="9.47"/><rect class="cls-17" x="846.47" y="384.65" width="9.47" height="9.47"/><rect class="cls-17" x="832.99" y="400.31" width="9.47" height="9.47"/><rect class="cls-17" x="846.47" y="400.31" width="9.47" height="9.47"/><rect class="cls-17" x="832.99" y="415.96" width="9.47" height="9.47"/><rect class="cls-17" x="846.47" y="415.96" width="9.47" height="9.47"/><rect class="cls-17" x="832.99" y="431.62" width="9.47" height="9.47"/><rect class="cls-17" x="846.47" y="431.62" width="9.47" height="9.47"/><rect class="cls-17" x="832.99" y="447.27" width="9.47" height="9.47"/><rect class="cls-17" x="846.47" y="447.27" width="9.47" height="9.47"/><rect class="cls-17" x="832.99" y="462.93" width="9.47" height="9.47"/><rect class="cls-17" x="846.47" y="462.93" width="9.47" height="9.47"/><rect class="cls-17" x="832.99" y="478.58" width="9.47" height="9.47"/><rect class="cls-17" x="846.47" y="478.58" width="9.47" height="9.47"/><rect class="cls-17" x="832.99" y="494.24" width="9.47" height="9.47"/><rect class="cls-17" x="846.47" y="494.24" width="9.47" height="9.47"/><rect class="cls-17" x="832.99" y="509.9" width="9.47" height="9.47"/><rect class="cls-17" x="846.47" y="509.9" width="9.47" height="9.47"/><rect class="cls-17" x="832.99" y="525.55" width="9.47" height="9.47"/><rect class="cls-17" x="846.47" y="525.55" width="9.47" height="9.47"/><rect class="cls-17" x="832.99" y="541.21" width="9.47" height="9.47"/><rect class="cls-17" x="846.47" y="541.21" width="9.47" height="9.47"/><rect class="cls-17" x="832.99" y="556.86" width="9.47" height="9.47"/><rect class="cls-17" x="846.47" y="556.86" width="9.47" height="9.47"/><rect class="cls-17" x="832.99" y="572.52" width="9.47" height="9.47"/><rect class="cls-17" x="846.47" y="572.52" width="9.47" height="9.47"/><rect class="cls-17" x="832.99" y="588.17" width="9.47" height="9.47"/><rect class="cls-17" x="846.47" y="588.17" width="9.47" height="9.47"/><path class="cls-18" d="M929.49,527.13v24.5a2.84,2.84,0,0,0,2.84,2.84h54a2.84,2.84,0,0,0,2.84-2.84V526.75Z" transform="translate(-171.62 -141.3)"/><path class="cls-12" d="M989.14,527.13v-1.27a3.15,3.15,0,0,0-3.14-3.14H932.63a3.14,3.14,0,0,0-3.14,3.14v1.27Z" transform="translate(-171.62 -141.3)"/><path class="cls-23" d="M945.23,535.34a6.5,6.5,0,1,1-6.5-6.5A6.49,6.49,0,0,1,945.23,535.34Z" transform="translate(-171.62 -141.3)"/><path class="cls-22" d="M973,535.34a6.5,6.5,0,1,1-6.49-6.5A6.48,6.48,0,0,1,973,535.34Z" transform="translate(-171.62 -141.3)"/><circle class="cls-2" cx="780.74" cy="403.45" r="6.5"/><path class="cls-5" d="M986.53,544.76a6.5,6.5,0,1,1-6.5-6.5A6.5,6.5,0,0,1,986.53,544.76Z" transform="translate(-171.62 -141.3)"/><path class="cls-23" d="M1031.94,760.45h-41a4,4,0,0,0-4,4v56.26a9,9,0,0,0,8.95,8.94h31a8.94,8.94,0,0,0,8.94-8.94V764.41A4,4,0,0,0,1031.94,760.45Z" transform="translate(-171.62 -141.3)"/><path class="cls-23" d="M1034.8,812.53A19.56,19.56,0,1,1,1054.36,793,19.58,19.58,0,0,1,1034.8,812.53Zm0-36.87A17.32,17.32,0,1,0,1052.12,793,17.33,17.33,0,0,0,1034.8,775.66Z" transform="translate(-171.62 -141.3)"/><path class="cls-12" d="M714.23,721a6.48,6.48,0,0,0-6.49-6.48H593.67a5.62,5.62,0,0,0-5.64,5.61v7.89h126.2Z" transform="translate(-171.62 -141.3)"/><path class="cls-18" d="M714.23,720.68H588v25.77a5.49,5.49,0,0,0,5.49,5.49H708.36a5.87,5.87,0,0,0,5.87-5.87Z" transform="translate(-171.62 -141.3)"/><path class="cls-11" d="M606.7,751.9V730.7a3.89,3.89,0,0,0-7.78,0v21.2Z" transform="translate(-171.62 -141.3)"/><path class="cls-11" d="M676.87,751.9v-18a1.19,1.19,0,0,0-1.17-1.21h-6.11a1.2,1.2,0,0,0-1.18,1.21v18Z" transform="translate(-171.62 -141.3)"/><polygon class="cls-11" points="450.94 591.25 450.94 610.63 457.18 610.63 457.18 584.36 450.94 591.25"/><polygon class="cls-11" points="529.81 591.37 528.01 584.36 526.21 591.37 529.81 591.37"/><polygon class="cls-11" points="526 592.18 523.21 603.05 523.21 610.63 532.81 610.63 532.81 603.05 530.02 592.18 526 592.18"/><path class="cls-11" d="M616.31,751.94V739.51a1.94,1.94,0,1,0-3.88,0v12.43Z" transform="translate(-171.62 -141.3)"/><path class="cls-11" d="M651.12,751.86v-7.07a1.94,1.94,0,0,0-3.88,0v7.07Z" transform="translate(-171.62 -141.3)"/><rect class="cls-11" x="462.73" y="598.37" width="6.52" height="12.26"/><polygon class="cls-11" points="462.73 597.85 469.25 597.85 465.99 585.59 462.73 597.85"/><path class="cls-11" d="M690.44,740.07l-3-8.94a1,1,0,0,0-1.92,0l-3,8.94s0,11.87,0,11.87h7.93V740.07Z" transform="translate(-171.62 -141.3)"/><polygon class="cls-11" points="485.63 610.63 492.16 610.63 488.89 598.37 485.63 610.63"/><path class="cls-11" d="M616.81,732.3c0,2.54-1.09,4.6-2.44,4.6s-2.44-2.06-2.44-4.6,2.44-4.59,2.44-4.59S616.81,729.76,616.81,732.3Z" transform="translate(-171.62 -141.3)"/><path class="cls-11" d="M663,736c0,4.6-1.09,8.33-2.44,8.33s-2.44-3.73-2.44-8.33a16.86,16.86,0,0,1,2.44-8.32A16.86,16.86,0,0,1,663,736Z" transform="translate(-171.62 -141.3)"/><path class="cls-11" d="M649.49,729.39v9.88H649V729.15a13.45,13.45,0,0,0-2.29,7.05c0,4,1.09,7.26,2.44,7.26s2.44-3.25,2.44-7.26A13.33,13.33,0,0,0,649.49,729.39Z" transform="translate(-171.62 -141.3)"/><rect class="cls-11" x="497.69" y="589.96" width="6.68" height="2.61" rx="1.06"/><path class="cls-11" d="M669.82,727.54h5.91a1.06,1.06,0,0,1,1.06,1.06v1.11a1.06,1.06,0,0,1-1.06,1.06h-5.91a1.32,1.32,0,0,1-1.32-1.32v-.6a1.32,1.32,0,0,1,1.32-1.32Z" transform="translate(1230.18 -84.79) rotate(90)"/><rect class="cls-11" x="500.77" y="580.47" width="0.51" height="4.73" rx="0.21"/><path class="cls-12" d="M527.51,1026.55c7.62,0,37.2-1.69,44.82-1.53,12.74.27,22.83,10,28.4,20.17s7.6,19.24,8.11,30.47,5.39,22.61,9.32,33.31c5.71,15.53,14.29,28.37,19.33,44.09,3.46,10.78,4,23.35,5.27,34.5,2.1,18.76,3.21,36.23,15.6,51.57-5.41-49.11-9.71-98.23-23.57-146-6.32-21.84-13.59-43.63-25.13-63.74-5.76-10-12.68-19.72-22.07-27.32-6.12-5-15.09-9.09-22.41-5.64-2.74,1.29-4.82,3.49-7.61,4.68a12.11,12.11,0,0,1-13-2.5c3.87,4.15-89.38,15.8-90.82,18.78C449.69,1025.75,505.08,1026.51,527.51,1026.55Z" transform="translate(-171.62 -141.3)"/><polygon class="cls-25" points="491.45 1081.66 498.39 1142.12 525.1 1144.26 533.07 1131.41 530.9 1128.83 527.08 1084.51 491.45 1081.66"/><path class="cls-12" d="M710.47,1136.48c-9.58-42.52-18-92-37.15-135.12a106.38,106.38,0,0,0-37.89-44.9c-18-12.33-39-19.53-59.42-22.7a165,165,0,0,0-26.35-2c-34,.26-53.69.12-70.53,0v81.76c34.63.28,71.22.12,93.63,0,13.09-.09,24.75,7.47,29.33,19a834.43,834.43,0,0,1,51.25,196.9c1.07,8.2,10.82,16.11,19.82,16.11h32c8.37,0,13.89-5,13.82-12.34C718.72,1200.67,717.47,1167.56,710.47,1136.48Z" transform="translate(-171.62 -141.3)"/><path class="cls-2" d="M731.29,1280.54l-31.65-11.94H671.13c-3.43,0-6.25,3-6.4,6.8l-.66,16.64,73.36,1.9C740.51,1289.47,739,1283.46,731.29,1280.54Z" transform="translate(-171.62 -141.3)"/><path class="cls-12" d="M664.07,1292l-.81,3c-.5,1.88,1.55,3.65,4.28,3.68l57,.68c6.23.07,10.7-2.33,12.89-5.51Z" transform="translate(-171.62 -141.3)"/><path class="cls-12" d="M701.64,1278.08l-2.12-.72a.94.94,0,0,1-.55-1.13l2.87-10.36a.8.8,0,0,1,1-.6l2.12.72a.91.91,0,0,1,.54,1.13l-2.86,10.36A.8.8,0,0,1,701.64,1278.08Z" transform="translate(-171.62 -141.3)"/><path class="cls-12" d="M710,1280.7l-2.13-.73a.92.92,0,0,1-.54-1.13l2.87-10.36a.82.82,0,0,1,1-.6l2.12.72a.94.94,0,0,1,.54,1.14L711,1280.09A.81.81,0,0,1,710,1280.7Z" transform="translate(-171.62 -141.3)"/><path class="cls-12" d="M717.91,1283.65l-2.12-.73a.91.91,0,0,1-.54-1.13l2.86-10.36a.82.82,0,0,1,1-.6l2.13.72a.94.94,0,0,1,.54,1.14l-2.87,10.36A.82.82,0,0,1,717.91,1283.65Z" transform="translate(-171.62 -141.3)"/><rect class="cls-12" x="497.84" y="1145.81" width="12.09" height="3.88" rx="0.31"/><polygon class="cls-25" points="654.25 1081.66 661.19 1142.12 687.91 1144.26 695.88 1131.41 693.7 1128.83 689.88 1084.51 654.25 1081.66"/><path class="cls-12" d="M873.27,1136.48c-9.58-42.52-18-92-37.14-135.12a106.4,106.4,0,0,0-37.9-44.9c-18-12.33-39-19.53-59.41-22.7a165.15,165.15,0,0,0-26.36-2c-34,.26-96.22.12-113.06,0l42.54,81.76c34.63.28,71.21.12,93.62,0,13.09-.09,24.76,7.47,29.33,19a834.31,834.31,0,0,1,51.26,196.9c1.07,8.2,10.81,16.11,19.82,16.11h32c8.37,0,13.89-5,13.82-12.34C881.52,1200.67,880.28,1167.56,873.27,1136.48Z" transform="translate(-171.62 -141.3)"/><path class="cls-12" d="M690.32,1019.93c7.62,0,37.19-1.73,44.81-1.57,12.75.28,22.84,10.34,28.4,20.74s7.6,19.78,8.12,31.33,5.38,23.25,9.32,34.25c5.7,16,14.28,29.17,19.32,45.32,3.46,11.09,4,24,5.28,35.48,2.1,19.29,3.2,37.25,15.6,53-5.42-50.5-9.72-101-23.57-150.16-6.33-22.45-13.59-44.86-25.14-65.54-5.76-10.31-12.68-20.27-22.07-28.09-6.11-5.09-15.09-9.33-22.41-5.79-2.73,1.32-4.82,3.58-7.6,4.81a11.88,11.88,0,0,1-13-2.57c3.87,4.26-89.37,16.24-90.82,19.31C612.5,1019.11,667.88,1019.89,690.32,1019.93Z" transform="translate(-171.62 -141.3)"/><path class="cls-2" d="M894.1,1280.54l-31.66-11.94h-28.5c-3.44,0-6.26,3-6.41,6.8l-.66,16.64,73.36,1.9C903.31,1289.47,901.85,1283.46,894.1,1280.54Z" transform="translate(-171.62 -141.3)"/><path class="cls-12" d="M826.87,1292l-.81,3c-.5,1.88,1.55,3.65,4.28,3.68l57,.68c6.22.07,10.69-2.33,12.88-5.51Z" transform="translate(-171.62 -141.3)"/><path class="cls-12" d="M864.44,1278.08l-2.12-.72a.93.93,0,0,1-.54-1.13l2.86-10.36a.8.8,0,0,1,1-.6l2.13.72a.92.92,0,0,1,.54,1.13l-2.87,10.36A.8.8,0,0,1,864.44,1278.08Z" transform="translate(-171.62 -141.3)"/><path class="cls-12" d="M872.79,1280.7l-2.12-.73a.91.91,0,0,1-.54-1.13l2.86-10.36a.82.82,0,0,1,1-.6l2.13.72a1,1,0,0,1,.54,1.14l-2.87,10.35A.81.81,0,0,1,872.79,1280.7Z" transform="translate(-171.62 -141.3)"/><path class="cls-12" d="M880.72,1283.65l-2.13-.73a.92.92,0,0,1-.54-1.13l2.86-10.36a.83.83,0,0,1,1-.6l2.12.72a.94.94,0,0,1,.54,1.14l-2.86,10.36A.82.82,0,0,1,880.72,1283.65Z" transform="translate(-171.62 -141.3)"/><rect class="cls-12" x="660.64" y="1145.81" width="12.09" height="3.88" rx="0.31"/><rect class="cls-21" x="389.93" y="1035.63" width="16.68" height="90.4"/><path class="cls-2" d="M378.26,921.38h40a0,0,0,0,1,0,0v129.09a5.39,5.39,0,0,1-5.39,5.39H383.65a5.39,5.39,0,0,1-5.39-5.39V921.38A0,0,0,0,1,378.26,921.38Z"/><path class="cls-26" d="M633.83,1043.32H506a12.79,12.79,0,1,0,0,25.58H633.83a12.79,12.79,0,0,0,0-25.58Z" transform="translate(-171.62 -141.3)"/><path class="cls-19" d="M701.08,1289a3.63,3.63,0,0,1-3.63-3.63,14.61,14.61,0,0,0-14.59-14.59H456.93a14.62,14.62,0,0,0-14.6,14.59,3.63,3.63,0,0,1-7.26,0,21.88,21.88,0,0,1,21.86-21.85H682.86a21.87,21.87,0,0,1,21.85,21.85A3.62,3.62,0,0,1,701.08,1289Z" transform="translate(-171.62 -141.3)"/><circle class="cls-21" cx="700.99" cy="1286.8" r="12.58" transform="translate(-610.69 224.91) rotate(-22.5)"/><circle class="cls-21" cx="438.7" cy="1286.8" r="12.58" transform="translate(-630.66 124.53) rotate(-22.5)"/><path class="cls-12" d="M434.81,572.7c-.58-5.32-4.05-24.65-6.39-29.2l3.95,2.36A29.23,29.23,0,0,0,428.54,523c5.13-.74,11.85-1.45,18.21,4.47a20.51,20.51,0,0,0-2.95-10.59,21.23,21.23,0,0,1,20.34-2.31,24.23,24.23,0,0,0-3.5-14.42c7.31-.58,15.54-.73,21.49,6.28a14.92,14.92,0,0,0-.35-7.63c4.54.34,9.16,3,12.83,7.24a38.09,38.09,0,0,1,.74-6.73c7.48.95,15,5.21,21.13,12,.15-1.91,2.28-1.25,3.52-.12,6.71,6.14,13.15,13.92,16.38,24,1.46,4.54,2.07,10.19-.18,13.45-1.56,2.26-4.08,2.72-6.45,2.88-12.89.86-26.07-4-39.11-5.11a20.92,20.92,0,0,0-9.19.83c-3.12,1.2-5.81,3.64-8.57,5.85a69.12,69.12,0,0,1-28.07,13.7c-1,.23-2.34.26-3-1Z" transform="translate(-171.62 -141.3)"/><path class="cls-25" d="M476.1,633c1.09.29,3.36,2.31,5.27,3a7.46,7.46,0,0,0,4.21.1,8.61,8.61,0,0,0,1.38-.45C509,628.9,516,611,518,603c.21-.31.4-.62.61-.93a15.8,15.8,0,0,1-4.64-9.25c-1-7,2.29-13.05,7.43-13.47a8.18,8.18,0,0,1,5.52,1.73,13.34,13.34,0,0,1,3.11,3.45c1.05-.31,1.27-3.61,1.3-4.47.06-2.1-.32-4.18-.33-6.28,0-3,1.56-6.77,3.18-10.45l4.22,32.34c1.06,11.3-3.87,21.84-11.61,29.33a41.21,41.21,0,0,1-12.43,8.28c-2.14,4.54,7.29,22.26,5.94,27.09s-15-1.6-19.43,4.05c-1.55,2-2.86-2.14-5.37-1.85-4,.46-13.87-.32-17.74-1.26l-6.61-29.83A12,12,0,0,1,476.1,633Z" transform="translate(-171.62 -141.3)"/><path class="cls-12" d="M452.68,609.63a14.08,14.08,0,0,1,.5,1.68c.87,5.71-1.68,12.42,2.08,16.81,2.36,2.76,6.36,3.37,10,3.42s7.45-.25,10.85,1.41c1.81.9,3.36,2.31,5.27,3a7.62,7.62,0,0,0,4.34.07,8.35,8.35,0,0,0,1.25-.42C509,628.9,516,611,518,603c.21-.31.4-.62.61-.93a15.8,15.8,0,0,1-4.64-9.25c-1-7,2.29-13.05,7.43-13.47a8.18,8.18,0,0,1,5.52,1.73,14,14,0,0,1,3.14,3.45c1-.31,1.24-3.61,1.27-4.47.06-2.1-.32-4.18-.33-6.28,0-3,1.56-6.77,3.18-10.45a50.74,50.74,0,0,0,3.28-8.67c1.53-7.31.2-18-3.92-24.28s-13.67-4.93-21.09-5.91c-2.66-.35-5.45-.3-7.88-1.43-2.13-1-3.78-2.81-5.79-4-3.93-2.38-8.95-2.26-13.35-.93-.21.07-.41.19-.62.26-4.14,1.36-7.95,3.57-11.85,5.54-6.24,3.15-12.93,5.6-18.47,9.85a26.26,26.26,0,0,0-5.53,5.8A18.07,18.07,0,0,0,445.42,550a21.43,21.43,0,0,0-2.26,2.09,28.58,28.58,0,0,0-7.29,16.81,33,33,0,0,0-.09,3.85c.29,8.57,3.86,16.93,9,23.9,3,4.13,6.58,8.18,7.93,13Z" transform="translate(-171.62 -141.3)"/><path class="cls-7" d="M449.28,653.49c14.85-.2,44.31-1.38,69.54,2.41,7.17.1,18.35.27,31.76.52l43.26,77.42c.64,3.48,18.31,38.61,19.9,41.76,34,68.7,12.1,86.87,56.76,160.78,3.14,5.19-11.18,20-13.5,23.67-23.75,37.62-84.8,47.62-142.26,33.24-21-5-27-21.43-33.6-38.58-7.48-19.36-11.36-40.24-12.83-52.71-15.93-134.83-33.05-128.4-52.88-194.13C410.68,692.14,427.91,653.79,449.28,653.49Z" transform="translate(-171.62 -141.3)"/><path class="cls-25" d="M525.43,565.66c-12.06.07-18.48,2.22-21.75,4-2.68,1.48-4.05,3.12-4.07,4.88,0,3.25,3.89,8.83,12.73,14,4.59,2.66,15.07,2.69,25.08,4,31.75,4.16,75.38,9.14,118,18.81,4.17.95,1,4.37-2.65,6.53-12.28,7.21-18.26,9.21-32.77,16-5.14,2.4-18.4,7.87-50.14,23.85,16.44,6.48,27.92,22.5,34.55,40,17.38-10.07,33.82-20,43.41-25.86,25.92-15.94,46.25-31.92,52.38-41.19,6.94-11.06,11.92-25.48,9.11-38.29C700.28,576.48,623.12,565.12,525.43,565.66Z" transform="translate(-171.62 -141.3)"/><path class="cls-25" d="M310.16,604.94c4.14-15.16,56.33-30.57,120.4-40.7l3.31,24.23c-8.23,3.12-18.36,6.27-28.92,9.55-29.76,9.24-36.22,11.84-48.73,17.56-3,1.37,2.09,5,5.13,6.77,10.13,5.89,11.9,5.92,24.33,11.92,4,1.94,14.79,5.92,40.62,18.51-11.38,8.1-17.76,25.14-20.33,43.15-14.33-8.21-27.93-16.33-35.88-21.19-21.48-13.16-45.51-33.61-51.34-42.18C312.08,622.32,309.81,617.92,310.16,604.94Z" transform="translate(-171.62 -141.3)"/><path class="cls-7" d="M359,647.69,357.45,655c-1.35,6.16,2.06,23.36,7.48,26.58,13.16,7.82,45.72,24.82,59.59,31.82,4.12,2.07-9.37-15.93-2.92-13.91l78.62-23.74c-19.54-11-77.74-37.3-109.11-50.83a14.62,14.62,0,0,0-6.77-.54C371.8,625.66,361.73,635.37,359,647.69Z" transform="translate(-171.62 -141.3)"/><path class="cls-7" d="M650.33,647l1.6,7.35c1.34,6.16-2.06,23.36-7.48,26.58-13.17,7.82-55.35,29.72-69.22,36.71-4.11,2.08-66.07-42.54-66.07-42.54,19.54-11,77.74-37.31,109.11-50.83a14.47,14.47,0,0,1,6.77-.54C637.58,625,647.65,634.71,650.33,647Z" transform="translate(-171.62 -141.3)"/><path class="cls-25" d="M500,605.58a3.51,3.51,0,0,1-.46-4.53l8.8-13.12a2.69,2.69,0,0,1,4-.76,3.53,3.53,0,0,1,.46,4.53L504,604.82A2.67,2.67,0,0,1,500,605.58Z" transform="translate(-171.62 -141.3)"/><path class="cls-25" d="M495.26,567.94c-2.08,1.36-4.07,3-5,4.93a9,9,0,0,0-.5,4.64A40.91,40.91,0,0,0,492.48,589c1.31,3.37,3.69,7,8.2,7.39s8.62-1.62,11.72-4.5c5.86-5.45,7.91-7.46,9.73-14.18,2.27-8.41-.57-14.51-11.32-13.17C505.28,565.19,499.78,565,495.26,567.94Z" transform="translate(-171.62 -141.3)"/><path class="cls-25" d="M500.39,590.88l-21,2.27a2.84,2.84,0,0,0-2.34,3.18,2.71,2.71,0,0,0,2.83,2.62l21-2.27a2.87,2.87,0,0,0,2.34-3.18A2.7,2.7,0,0,0,500.39,590.88Z" transform="translate(-171.62 -141.3)"/><path class="cls-25" d="M497.63,583.25l-21,2.27a2.85,2.85,0,0,0-2.33,3.18,2.7,2.7,0,0,0,2.83,2.62l21-2.27a2.84,2.84,0,0,0,2.33-3.18A2.69,2.69,0,0,0,497.63,583.25Z" transform="translate(-171.62 -141.3)"/><path class="cls-25" d="M499.8,574.21l-21,2.27a2.86,2.86,0,0,0-2.34,3.18,2.72,2.72,0,0,0,2.84,2.62l21-2.27a2.85,2.85,0,0,0,2.33-3.18A2.7,2.7,0,0,0,499.8,574.21Z" transform="translate(-171.62 -141.3)"/><path class="cls-25" d="M504.46,566.87l-21,2.27a2.86,2.86,0,0,0-2.34,3.19A2.71,2.71,0,0,0,484,575l21-2.28a2.86,2.86,0,0,0,2.34-3.18A2.71,2.71,0,0,0,504.46,566.87Z" transform="translate(-171.62 -141.3)"/><path class="cls-25" d="M447.08,605a3.51,3.51,0,0,0,.46-4.53l-8.8-13.13a2.69,2.69,0,0,0-4-.75,3.51,3.51,0,0,0-.46,4.53l8.81,13.12A2.69,2.69,0,0,0,447.08,605Z" transform="translate(-171.62 -141.3)"/><path class="cls-25" d="M451.85,567.39c2.08,1.37,4.07,3,4.95,4.94a9,9,0,0,1,.51,4.64,41.35,41.35,0,0,1-2.68,11.45c-1.31,3.37-3.69,7-8.2,7.39s-8.62-1.63-11.72-4.5c-5.86-5.45-7.91-7.46-9.73-14.18-2.27-8.42.57-14.51,11.32-13.17C441.83,564.65,447.33,564.43,451.85,567.39Z" transform="translate(-171.62 -141.3)"/><path class="cls-25" d="M446.72,590.34l21,2.27a2.85,2.85,0,0,1,2.34,3.18,2.71,2.71,0,0,1-2.83,2.62l-21-2.27a2.87,2.87,0,0,1-2.34-3.18A2.7,2.7,0,0,1,446.72,590.34Z" transform="translate(-171.62 -141.3)"/><path class="cls-25" d="M449.48,582.71l21,2.27a2.84,2.84,0,0,1,2.33,3.18,2.71,2.71,0,0,1-2.83,2.62l-21-2.27a2.85,2.85,0,0,1-2.33-3.18A2.69,2.69,0,0,1,449.48,582.71Z" transform="translate(-171.62 -141.3)"/><path class="cls-25" d="M447.31,573.66l21,2.28a2.84,2.84,0,0,1,2.33,3.18,2.7,2.7,0,0,1-2.83,2.62l-21-2.28a2.84,2.84,0,0,1-2.33-3.18A2.71,2.71,0,0,1,447.31,573.66Z" transform="translate(-171.62 -141.3)"/><path class="cls-25" d="M442.65,566.33l21,2.27a2.86,2.86,0,0,1,2.34,3.18,2.7,2.7,0,0,1-2.83,2.62l-21-2.27a2.86,2.86,0,0,1-2.34-3.18A2.71,2.71,0,0,1,442.65,566.33Z" transform="translate(-171.62 -141.3)"/><path class="cls-24" d="M408.67,1020.31,372.49,719.57c-2.19-18.84,10.14-34.25,27.4-34.25H570.13c17.26,0,33.17,15.41,35.36,34.25l34.94,300.74Z" transform="translate(-171.62 -141.3)"/><path class="cls-26" d="M393.79,1020.31,361.55,719.57c-2-18.84,9.36-34.25,25.29-34.25H543.92c15.92,0,30.6,15.41,32.62,34.25l32.24,300.74Z" transform="translate(-171.62 -141.3)"/><path class="cls-26" d="M393.23,1018.25v14.9a20,20,0,0,0,20,20H714.8c12.22,0,22.11-3.94,22-16.16v-4c-.05-7-5.77-14.76-12.82-14.76Z" transform="translate(-171.62 -141.3)"/><path class="cls-27" d="M569.69,597.28a.93.93,0,0,0,.12-1.85c-.39,0-39.45-5.12-56-6.27a.93.93,0,1,0-.13,1.85c16.5,1.14,55.5,6.21,55.89,6.26Z" transform="translate(-171.62 -141.3)"/><rect class="cls-26" x="430.34" y="721.97" width="110.73" height="31.8" rx="10.32"/><rect class="cls-24" x="455.56" y="721.97" width="110.73" height="31.8" rx="9.29"/><path class="cls-26" d="M758.92,1053.15H709.55a4.71,4.71,0,0,1-4.7-4.7V1023a4.72,4.72,0,0,1,4.7-4.7h49.37a17.45,17.45,0,0,1,0,34.9Z" transform="translate(-171.62 -141.3)"/><path class="cls-24" d="M505,665H442.43a25.41,25.41,0,0,1,.16-50.82H505.2A25.41,25.41,0,0,1,505,665Z" transform="translate(-171.62 -141.3)"/><path class="cls-26" d="M484.1,665H421.5a25.41,25.41,0,0,1,.16-50.82h62.6A25.41,25.41,0,0,1,484.1,665Z" transform="translate(-171.62 -141.3)"/><path class="cls-17" d="M887.18,804.21a4,4,0,0,1-4-4V734.73a4,4,0,0,1,8,0v65.48A4,4,0,0,1,887.18,804.21Z" transform="translate(-171.62 -141.3)"/><rect class="cls-2" x="703.73" y="656.4" width="23.33" height="31.91" rx="3.63"/></svg>