<svg xmlns="http://www.w3.org/2000/svg" xmlns:xlink="http://www.w3.org/1999/xlink" viewBox="0 0 2933.16 2851.43"><defs><style>.cls-1{fill:url(#linear-gradient);}.cls-2{fill:url(#linear-gradient-2);}.cls-3{isolation:isolate;}.cls-4{fill:#f4f7fa;}.cls-5{clip-path:url(#clip-path);}.cls-6{opacity:0.5;}.cls-23,.cls-34,.cls-42,.cls-6{mix-blend-mode:soft-light;}.cls-35,.cls-42,.cls-7{fill:#fff;}.cls-8{clip-path:url(#clip-path-2);}.cls-9{fill:url(#linear-gradient-5);}.cls-10{fill:url(#linear-gradient-6);}.cls-11,.cls-12{fill:#d8dee8;}.cls-12,.cls-20,.cls-23,.cls-29,.cls-31,.cls-48,.cls-54{opacity:0.3;}.cls-12,.cls-20,.cls-29,.cls-31,.cls-48,.cls-54{mix-blend-mode:multiply;}.cls-13{fill:#999;}.cls-14{fill:url(#linear-gradient-7);}.cls-15{fill:url(#linear-gradient-8);}.cls-16{fill:#26264f;}.cls-17{fill:url(#linear-gradient-10);}.cls-18{fill:url(#linear-gradient-11);}.cls-19{fill:url(#linear-gradient-12);}.cls-20{fill:url(#linear-gradient-13);}.cls-21{fill:url(#linear-gradient-14);}.cls-22{fill:url(#linear-gradient-15);}.cls-24{fill:url(#linear-gradient-16);}.cls-25{fill:url(#linear-gradient-17);}.cls-26{fill:url(#linear-gradient-19);}.cls-27{fill:url(#linear-gradient-20);}.cls-28{fill:url(#linear-gradient-21);}.cls-29{fill:url(#linear-gradient-22);}.cls-30{fill:url(#linear-gradient-23);}.cls-31{fill:url(#linear-gradient-24);}.cls-32{fill:url(#linear-gradient-25);}.cls-33{fill:url(#linear-gradient-26);}.cls-35{opacity:0.36;}.cls-36{fill:url(#linear-gradient-27);}.cls-37{fill:url(#linear-gradient-28);}.cls-38{fill:url(#linear-gradient-29);}.cls-39{fill:url(#linear-gradient-30);}.cls-40{fill:url(#linear-gradient-31);}.cls-41{fill:url(#linear-gradient-32);}.cls-42{opacity:0.21;}.cls-43{fill:url(#linear-gradient-33);}.cls-44{fill:url(#linear-gradient-34);}.cls-45{fill:url(#linear-gradient-35);}.cls-46{fill:url(#linear-gradient-36);}.cls-47{fill:url(#linear-gradient-37);}.cls-48{fill:url(#linear-gradient-38);}.cls-49{fill:url(#linear-gradient-39);}.cls-50{fill:url(#linear-gradient-40);}.cls-51{fill:url(#linear-gradient-41);}.cls-52{fill:url(#linear-gradient-42);}.cls-53{fill:url(#linear-gradient-43);}.cls-54{fill:url(#linear-gradient-44);}.cls-55{fill:url(#linear-gradient-45);}.cls-56{fill:url(#linear-gradient-46);}</style><linearGradient id="linear-gradient" x1="2645.52" y1="1805.8" x2="2701.05" y2="3168.34" gradientUnits="userSpaceOnUse"><stop offset="0" stop-color="#e38ddd"/><stop offset="1" stop-color="#9571f6"/></linearGradient><linearGradient id="linear-gradient-2" x1="2995.49" y1="1983.36" x2="2741.01" y2="2666.44" gradientUnits="userSpaceOnUse"><stop offset="0" stop-color="#ff9085"/><stop offset="1" stop-color="#fb6fbb"/></linearGradient><clipPath id="clip-path" transform="translate(-435.76 -371.64)"><path class="cls-1" d="M2284.8,2798c59.49-55.82,138-146.49,173.51-274.7,46.59-168.13-21.68-253.1-14-537.75,4.87-180,10.08-305.55,100.82-372.71,71.1-52.63,186.22-63.09,256.09-14.31,58.09,40.56,91.7,126.83,102,188.41,8.36,50.18,1.65,86.62,30.58,113.06,29.56,27,61.48,11.72,89.12,31.73,56.07,40.59,23.6,175,18.36,196.74-58.36,241.67-281.05,404.67-379,474.6C2581.19,2660.89,2455.85,2737.93,2284.8,2798Z"/></clipPath><clipPath id="clip-path-2" transform="translate(-435.76 -371.64)"><path class="cls-2" d="M2317.38,2669.2c115.68,56.66,271.12,112.34,443.69,116.47,44,1.06,316.1,7.57,338.7-106.88,8-40.32-21.75-61.6-12.05-115.69,11.5-64.09,60.58-75.24,119.1-133.84,34.91-35,137.09-137.3,96.19-240.9-24.45-61.9-98.88-121.46-169.75-137.26-104-23.18-179.89,52.32-306.15,182.28-111.92,115.21-116.37,154.57-198.41,236.13C2567.81,2530,2470.93,2607.08,2317.38,2669.2Z"/></clipPath><linearGradient id="linear-gradient-5" x1="477.66" y1="2333.28" x2="3342.73" y2="2333.28" gradientUnits="userSpaceOnUse"><stop offset="0" stop-color="#ffc444"/><stop offset="1" stop-color="#f36f56"/></linearGradient><linearGradient id="linear-gradient-6" x1="1925.65" y1="1559.9" x2="1963.83" y2="2334.4" gradientUnits="userSpaceOnUse"><stop offset="0.49" stop-color="#ebeff2"/><stop offset="1" stop-color="#fff"/></linearGradient><linearGradient id="linear-gradient-7" x1="366.77" y1="1727.75" x2="895.43" y2="1727.75" xlink:href="#linear-gradient-5"/><linearGradient id="linear-gradient-8" x1="826.09" y1="1479.98" x2="1424.92" y2="1479.98" xlink:href="#linear-gradient-2"/><linearGradient id="linear-gradient-10" x1="951.75" y1="2065.88" x2="944.47" y2="2113.36" gradientUnits="userSpaceOnUse"><stop offset="0" stop-color="#311944"/><stop offset="1" stop-color="#a03976"/></linearGradient><linearGradient id="linear-gradient-11" x1="930.38" y1="1895.9" x2="1045.52" y2="1895.9" gradientUnits="userSpaceOnUse"><stop offset="0" stop-color="#ab316d"/><stop offset="1" stop-color="#792d3d"/></linearGradient><linearGradient id="linear-gradient-12" x1="1119.02" y1="2066.22" x2="1104.09" y2="2119.83" xlink:href="#linear-gradient-10"/><linearGradient id="linear-gradient-13" x1="930.38" y1="1895.9" x2="1045.52" y2="1895.9" xlink:href="#linear-gradient-11"/><linearGradient id="linear-gradient-14" x1="967.26" y1="1895.39" x2="1161.07" y2="1895.39" xlink:href="#linear-gradient-11"/><linearGradient id="linear-gradient-15" x1="988.71" y1="1424.68" x2="875.38" y2="1705.71" xlink:href="#linear-gradient-10"/><linearGradient id="linear-gradient-16" x1="1301.01" y1="1649.23" x2="1304.84" y2="1502.96" xlink:href="#linear-gradient-10"/><linearGradient id="linear-gradient-17" x1="1082.59" y1="1464.56" x2="934.03" y2="1812.21" gradientUnits="userSpaceOnUse"><stop offset="0" stop-color="#aa80f9"/><stop offset="1" stop-color="#6165d7"/></linearGradient><linearGradient id="linear-gradient-19" x1="890.98" y1="1462.89" x2="978.13" y2="1462.89" xlink:href="#linear-gradient-10"/><linearGradient id="linear-gradient-20" x1="893.12" y1="1490.17" x2="845.16" y2="1422.23" gradientTransform="matrix(-1, 0, 0, 1, 1795.05, 0)" xlink:href="#linear-gradient-10"/><linearGradient id="linear-gradient-21" x1="889.78" y1="1492.53" x2="841.82" y2="1424.59" gradientTransform="matrix(-1, 0, 0, 1, 1795.05, 0)" xlink:href="#linear-gradient-10"/><linearGradient id="linear-gradient-22" x1="1025.87" y1="1440.32" x2="877.32" y2="1787.98" xlink:href="#linear-gradient-17"/><linearGradient id="linear-gradient-23" x1="1587.79" y1="1712.21" x2="1555.06" y2="2388.54" xlink:href="#linear-gradient-5"/><linearGradient id="linear-gradient-24" x1="1574.62" y1="1711.57" x2="1541.9" y2="2387.9" xlink:href="#linear-gradient-5"/><linearGradient id="linear-gradient-25" x1="2536.28" y1="2242.38" x2="2347.51" y2="1992.71" xlink:href="#linear-gradient-17"/><linearGradient id="linear-gradient-26" x1="2227.95" y1="1401.72" x2="2016.6" y2="2461.53" xlink:href="#linear-gradient-17"/><linearGradient id="linear-gradient-27" x1="1732.67" y1="1661.41" x2="1639.34" y2="1537.97" xlink:href="#linear-gradient-6"/><linearGradient id="linear-gradient-28" x1="1726.49" y1="1656.76" x2="1673.18" y2="1586.24" xlink:href="#linear-gradient-6"/><linearGradient id="linear-gradient-29" x1="1759.52" y1="1652.25" x2="1726.98" y2="1609.2" xlink:href="#linear-gradient-6"/><linearGradient id="linear-gradient-30" x1="1922.13" y1="1648.18" x2="1846.87" y2="1548.64" xlink:href="#linear-gradient-6"/><linearGradient id="linear-gradient-31" x1="1977.02" y1="1643.75" x2="1911.73" y2="1557.4" xlink:href="#linear-gradient-6"/><linearGradient id="linear-gradient-32" x1="2083.86" y1="1639.51" x2="2003.05" y2="1532.64" xlink:href="#linear-gradient-6"/><linearGradient id="linear-gradient-33" x1="2430" y1="2028.21" x2="2451.44" y2="2180.6" xlink:href="#linear-gradient-5"/><linearGradient id="linear-gradient-34" x1="1902.99" y1="2102.36" x2="1924.43" y2="2254.75" xlink:href="#linear-gradient-5"/><linearGradient id="linear-gradient-35" x1="2334.2" y1="2782.27" x2="2366.6" y2="2878.7" xlink:href="#linear-gradient-5"/><linearGradient id="linear-gradient-36" x1="1856.94" y1="2424.93" x2="1889.1" y2="2520.65" xlink:href="#linear-gradient-5"/><linearGradient id="linear-gradient-37" x1="2423.61" y1="2732.82" x2="2271.48" y2="2561.29" gradientUnits="userSpaceOnUse"><stop offset="0" stop-color="#444b8c"/><stop offset="1" stop-color="#3e4177"/></linearGradient><linearGradient id="linear-gradient-38" x1="2423.61" y1="2732.82" x2="2271.48" y2="2561.29" xlink:href="#linear-gradient-37"/><linearGradient id="linear-gradient-39" x1="2232.3" y1="2635.05" x2="2007.68" y2="2593.19" xlink:href="#linear-gradient-37"/><linearGradient id="linear-gradient-40" x1="2124.76" y1="1940.03" x2="2264.64" y2="2453.6" xlink:href="#linear-gradient-2"/><linearGradient id="linear-gradient-41" x1="2188.7" y1="2138.15" x2="2213.97" y2="2212.69" xlink:href="#linear-gradient-5"/><linearGradient id="linear-gradient-42" x1="1992.51" y1="3064.72" x2="2017.79" y2="3139.25" gradientTransform="translate(514.58)" xlink:href="#linear-gradient-5"/><linearGradient id="linear-gradient-43" x1="2537.47" y1="3515.95" x2="2602.56" y2="3620.86" gradientTransform="translate(514.58)" xlink:href="#linear-gradient-5"/><linearGradient id="linear-gradient-44" x1="2026.18" y1="1966.88" x2="2166.05" y2="2480.45" xlink:href="#linear-gradient-2"/><linearGradient id="linear-gradient-45" x1="1282.38" y1="836.38" x2="2670.72" y2="836.38" xlink:href="#linear-gradient-10"/><linearGradient id="linear-gradient-46" x1="1339.4" y1="813.11" x2="2717.3" y2="813.11" xlink:href="#linear-gradient-2"/></defs><title>guru-integration</title><g class="cls-3"><g id="Illustration"><path class="cls-4" d="M3308.18,1562.3c-57.47-376.16-103.61-636.13-311.14-778.58-350-240.28-741,149.79-1236.83-112-244.14-128.87-253.3-278.28-460.06-298.12-365.82-35.08-665.4,401.48-691.36,438.92C451,1040,398.35,1317.41,462.3,1581.86c41.53,171.75,69.6,349.52,61.9,526-13.41,307.17-5.7,593.89,292.4,777.07,266.17,163.57,601.15,307.83,920.72,333.09,217.18,17.17,460.73-10.61,670.05-67.16C3474.11,2862.71,3387.19,2079.51,3308.18,1562.3Z" transform="translate(-435.76 -371.64)"/><path class="cls-1" d="M2284.8,2798c59.49-55.82,138-146.49,173.51-274.7,46.59-168.13-21.68-253.1-14-537.75,4.87-180,10.08-305.55,100.82-372.71,71.1-52.63,186.22-63.09,256.09-14.31,58.09,40.56,91.7,126.83,102,188.41,8.36,50.18,1.65,86.62,30.58,113.06,29.56,27,61.48,11.72,89.12,31.73,56.07,40.59,23.6,175,18.36,196.74-58.36,241.67-281.05,404.67-379,474.6C2581.19,2660.89,2455.85,2737.93,2284.8,2798Z" transform="translate(-435.76 -371.64)"/><g class="cls-5"><g class="cls-6"><path class="cls-7" d="M2217.2,2843.69l-2.54-6.69c103.22-39.22,192-86,263.93-139,105.94-78.08,171.88-167.61,196-266.11,18.9-77.18,12.19-157.23,2.91-268-7.42-88.49-20.66-150.54-32.34-205.28-15.29-71.68-27.37-128.3-18.95-210.5,8.54-83.41,36-166.31,81.72-246.41l6.21,3.55c-45.19,79.22-72.38,161.18-80.81,243.58-8.31,81.09,3.67,137.22,18.83,208.28,11.72,55,25,117.24,32.46,206.17,9,107.3,16.09,192-3.08,270.35-24.53,100.17-91.38,191.07-198.71,270.16C2410.4,2757.16,2321,2804.23,2217.2,2843.69Z" transform="translate(-435.76 -371.64)"/><path class="cls-7" d="M2676.27,2102.79l-3.71-1.61c-.59-.26-59.72-26.46-118.76-87.22-54.48-56.07-120.17-154-123.67-301.77l7.15-.17c3.44,145.37,67.94,241.61,121.45,296.74,49.7,51.22,99.38,77.47,113,84.14,48.52-159.77,134.39-260,198.14-316.15,69.75-61.37,129-84.72,129.59-85l2.59,6.67c-.58.22-58.88,23.24-127.71,83.88-63.49,55.94-149.19,156.27-196.95,316.57Z" transform="translate(-435.76 -371.64)"/><path class="cls-7" d="M2688.42,2342.36l-1.47-2.15c-.58-.85-58.78-85.62-133.75-159.19-74.39-73-248.89-98.4-250.64-98.65l1-7.08a796,796,0,0,1,98.27,21.92c71.77,20.84,124.38,47.31,156.37,78.7,68.79,67.5,123.54,144.35,133.16,158.11,182.75-56.94,377.82-484.7,379.78-489l6.52,2.94c-.5,1.1-50.27,110.76-122.3,225.7-97,154.79-186,245-264.45,268Z" transform="translate(-435.76 -371.64)"/><path class="cls-7" d="M2508.8,2682.49l3.55-6.18c46.68-81.08,39.85-166.26-20.29-253.15C2447,2358,2387.37,2316.5,2386.77,2316.09l4.06-5.89c.61.42,61.32,42.71,107.12,108.89,59.42,85.86,67.7,173.69,24.13,254.47,50.56-7.56,361.06-61.9,569.27-279.74L3321,2153.52l5.18,4.95-229.67,240.29c-119.13,124.64-270.65,194.92-376.77,231.92-114.95,40.08-203,50.87-203.88,51Z" transform="translate(-435.76 -371.64)"/></g></g><path class="cls-2" d="M2317.38,2669.2c115.68,56.66,271.12,112.34,443.69,116.47,44,1.06,316.1,7.57,338.7-106.88,8-40.32-21.75-61.6-12.05-115.69,11.5-64.09,60.58-75.24,119.1-133.84,34.91-35,137.09-137.3,96.19-240.9-24.45-61.9-98.88-121.46-169.75-137.26-104-23.18-179.89,52.32-306.15,182.28-111.92,115.21-116.37,154.57-198.41,236.13C2567.81,2530,2470.93,2607.08,2317.38,2669.2Z" transform="translate(-435.76 -371.64)"/><g class="cls-8"><g class="cls-6"><path class="cls-7" d="M2320.12,2668.57a717.75,717.75,0,0,1-151.38-16.13c-131.37-28.26-254.56-91.12-366.13-186.81l4.66-5.43c110.66,94.91,232.78,157.23,363,185.25,173.43,37.32,353,9.13,533.83-83.8,188.36-96.82,330.83-239.63,417.17-342.39,59.71-71.05,98.9-162.7,116.51-272.39l7.06,1.14c-17.81,111-57.55,203.79-118.09,275.85-86.77,103.26-230,246.79-419.38,344.15C2577.1,2635,2447.41,2668.57,2320.12,2668.57Z" transform="translate(-435.76 -371.64)"/><path class="cls-7" d="M2930,2416.62l-.74-3.13c-.53-2.24-51.35-226,81.57-381.7l5.44,4.65c-122.07,143-86.33,344.73-80.72,372.27,322-41.74,407.33-225.26,425.85-280.67.52-1.56.88-2.53,1-2.87l6.45,3.1c-.13.31-.36,1-.7,2-18.93,56.59-106.22,244.47-435,285.91Z" transform="translate(-435.76 -371.64)"/><path class="cls-7" d="M3011,2671.59c-73.07,0-178.72-20.62-304.1-105.42l-1.59-1.08v-1.91c0-1.74,2.26-176.3,110.14-363.1l108.66-188.15,6.19,3.58-108.65,188.15C2720.69,2378.39,2713,2542,2712.47,2561.33c77.26,52,195.79,111.42,324.67,102.18,77.33-5.53,122.07-33.52,122.52-33.81l3.84,6c-1.87,1.19-46.73,29.24-125.85,34.9C3029.32,2671.24,3020.4,2671.59,3011,2671.59Z" transform="translate(-435.76 -371.64)"/></g></g><path class="cls-9" d="M2097.57,1585.25,477.66,1690c112.21,42.76,291.58,128.45,435.2,302.07,282.77,341.83,174.8,719.57,461.78,949.49,76.36,61.17,207.69,133.52,435.41,139.76l1532.68-149.15c-546.5-103.87-743.88-300.24-819.73-467.67-76.12-168-58-369-229.08-639.42A1286.06,1286.06,0,0,0,2097.57,1585.25Z" transform="translate(-435.76 -371.64)"/><path class="cls-10" d="M596.62,1398.82l1435.5-63.37c76.46,38.38,188.05,106.6,282.25,224.61,216.8,271.59,135.2,540.19,258.6,804.18,78.69,168.34,262,379.25,739.08,520.22L1792.13,3026.27c-115.89-28.59-276.58-88-399.92-226.3-130.77-146.6-98.19-245.77-263.13-706.58-116.09-324.31-195.4-452.22-312.71-554.77C735.15,1467.62,654.42,1424.62,596.62,1398.82Z" transform="translate(-435.76 -371.64)"/><path class="cls-11" d="M952.17,1494.06a13.64,13.64,0,0,1-.74-27.25L2036.66,1407a13.64,13.64,0,1,1,1.5,27.23L952.93,1494C952.67,1494.06,952.42,1494.06,952.17,1494.06Z" transform="translate(-435.76 -371.64)"/><path class="cls-11" d="M1028.61,1576.39a13.64,13.64,0,0,1-.74-27.25l1085.23-59.83a13.64,13.64,0,1,1,1.5,27.23l-1085.23,59.83Z" transform="translate(-435.76 -371.64)"/><path class="cls-12" d="M1179.32,1669l481.74-26.38a70,70,0,0,1,55.69,22.82c49.35,54.43,156.94,204.72,183.4,501.8a41.66,41.66,0,0,1-37.72,45.2l-517.79,46.7a41.58,41.58,0,0,1-44.91-35.5c-14-96.9-58.13-350.42-152.45-489.63C1129.08,1707.11,1146.93,1670.72,1179.32,1669Z" transform="translate(-435.76 -371.64)"/><path class="cls-12" d="M1319.46,2355.44c14.33,116.12,84,442.43,417.8,575.75a86.79,86.79,0,0,0,38.45,5.95l1089.93-79c39.5-2.86,51.54-55.19,17.17-74.86-139.69-80-347.4-241.9-420.39-523.5a40.1,40.1,0,0,0-41.86-29.84l-1064.25,80.57A40.15,40.15,0,0,0,1319.46,2355.44Z" transform="translate(-435.76 -371.64)"/><path class="cls-13" d="M1327.45,3096.42A5.45,5.45,0,0,1,1322,3091v-979.5a5.46,5.46,0,1,1,10.91,0V3091A5.46,5.46,0,0,1,1327.45,3096.42Z" transform="translate(-435.76 -371.64)"/><path class="cls-13" d="M1063.56,3034.89a5.45,5.45,0,0,1-5.45-5.45V2086.77a5.46,5.46,0,1,1,10.91,0v942.67A5.45,5.45,0,0,1,1063.56,3034.89Z" transform="translate(-435.76 -371.64)"/><path class="cls-13" d="M453.46,3078.79a5.57,5.57,0,0,1-1.86-.33,5.44,5.44,0,0,1-3.26-7l352.75-972a5.46,5.46,0,0,1,10.26,3.72l-352.76,972A5.46,5.46,0,0,1,453.46,3078.79Z" transform="translate(-435.76 -371.64)"/><path class="cls-13" d="M713.88,3154.85a5.35,5.35,0,0,1-1.61-.25,5.44,5.44,0,0,1-3.6-6.81L1025.27,2123a5.45,5.45,0,0,1,10.42,3.22L719.09,3151A5.45,5.45,0,0,1,713.88,3154.85Z" transform="translate(-435.76 -371.64)"/><polygon class="cls-13" points="630.71 1714.15 895.43 1733.74 895.43 1739.69 592.89 1753.26 366.77 1725.55 366.77 1719.59 630.71 1714.15"/><polygon class="cls-14" points="630.71 1708.19 895.43 1733.74 592.89 1747.3 366.77 1719.59 630.71 1708.19"/><path class="cls-13" d="M782.38,2931.27a3.56,3.56,0,0,1-.91-.12L529.41,2865a3.57,3.57,0,1,1,1.82-6.91l252,66.13a3.57,3.57,0,0,1-.9,7Z" transform="translate(-435.76 -371.64)"/><path class="cls-13" d="M853.78,2701.17a5.33,5.33,0,0,1-1-.08l-247.37-43.81a5.45,5.45,0,1,1,1.9-10.73l247.38,43.8a5.45,5.45,0,0,1-1,10.82Z" transform="translate(-435.76 -371.64)"/><path class="cls-13" d="M928,2461.74a5.78,5.78,0,0,1-.71,0l-239.4-30.86A5.45,5.45,0,0,1,689.3,2420l239.41,30.86a5.46,5.46,0,0,1-.69,10.87Z" transform="translate(-435.76 -371.64)"/><path class="cls-13" d="M975.59,2295.58a5,5,0,0,1-.85-.07l-225.09-35.22a5.46,5.46,0,1,1,1.69-10.78l225.09,35.22a5.46,5.46,0,0,1-.84,10.85Z" transform="translate(-435.76 -371.64)"/><path class="cls-15" d="M826.19,1630.71c6.31-92.41,44.27-336.77,266.9-435.49a39.85,39.85,0,0,1,51.19,17.92l278.08,523.3a21.54,21.54,0,0,1-22.74,31.32l-540.5-94.88A40,40,0,0,1,826.19,1630.71Z" transform="translate(-435.76 -371.64)"/><path class="cls-15" d="M826.19,1630.71c6.31-92.41,44.27-336.77,266.9-435.49a39.85,39.85,0,0,1,51.19,17.92l278.08,523.3a21.54,21.54,0,0,1-22.74,31.32l-540.5-94.88A40,40,0,0,1,826.19,1630.71Z" transform="translate(-435.76 -371.64)"/><path class="cls-16" d="M943.77,2087c1.42-1.22,3-.79,10.18.46,8.8,1.53,10.63,1.61,13.56,3.37.72.43,5.54,3.31,5,5-.41,1.31-3.62,1-15.34.7-10.37-.26-13-.15-14.42-2.26A6.14,6.14,0,0,1,943.77,2087Z" transform="translate(-435.76 -371.64)"/><path class="cls-17" d="M945.3,2079.59l1.53,10.07a5.32,5.32,0,0,0,5.62,0l-.13-8.81Z" transform="translate(-435.76 -371.64)"/><path class="cls-18" d="M934.58,1708a298.73,298.73,0,0,0,3.58,61.77c8,48.72,21.57,55,24.21,92.33,2.22,31.48-5.26,58.36-14.14,90.23-9.33,33.53-16.7,43.27-17.73,67.59-1.14,26.82,6.38,49,12.76,63.3l10.72.51a334.3,334.3,0,0,1,28.59-78.62c17.43-33.86,35.39-54.22,41.86-62.79,23-30.42,36.64-91.92-10.21-229.73Z" transform="translate(-435.76 -371.64)"/><path class="cls-19" d="M1107.5,2081.12l3.72,15.73s2.41,2.23,6.64,0v-15Z" transform="translate(-435.76 -371.64)"/><path class="cls-16" d="M1109.3,2096.18c1.42-1.22,3-.79,10.17.46,8.81,1.53,10.64,1.62,13.57,3.37.72.43,5.54,3.31,5,5-.41,1.31-3.62,1-15.34.7-10.37-.26-13-.15-14.42-2.26A6.13,6.13,0,0,1,1109.3,2096.18Z" transform="translate(-435.76 -371.64)"/><path class="cls-20" d="M1014.22,1712.62,934.58,1708a298.73,298.73,0,0,0,3.58,61.77,217.06,217.06,0,0,0,8.81,36,64,64,0,0,0,6.76,6.07c20.68,15.84,38.28,9.4,46.71,23.74,8.31,14.14-6.26,24.77-4.6,61.26,1.06,23.26,7.18,23.16,4.6,36-5.39,26.81-31.88,26.21-42.89,55.9-6.92,18.68,1.35,24.9-6.12,45.94a81,81,0,0,1-16,26.65,156.28,156.28,0,0,0,7.83,21.85l10.72.51a334.3,334.3,0,0,1,28.59-78.62c17.43-33.86,35.39-54.22,41.86-62.79C1047.4,1911.93,1061.07,1850.43,1014.22,1712.62Z" transform="translate(-435.76 -371.64)"/><path class="cls-21" d="M975.93,1700.88c-7.31,15.28-8.63,27.67-8.67,35.67-.18,43.39,37.23,82.85,92.54,139.88,13.62,14.06,20.23,20.07,25.24,32.59,10.36,25.9-.13,45-1.9,84.38-1.66,36.82,2,52.71,5.36,63.56a141.81,141.81,0,0,0,14.55,32.16l18.38.77c14.55-23.12,36.28-65,39.29-120.24,2.51-46-9.12-80.43-24.09-124.75a578.86,578.86,0,0,0-58.85-123.34Z" transform="translate(-435.76 -371.64)"/><path class="cls-22" d="M867.18,1674.3v5.2l8.78,2a18.63,18.63,0,0,1,3.39,1.1l3.76,1.63a23.41,23.41,0,0,0,22.76-2.34h0Z" transform="translate(-435.76 -371.64)"/><g class="cls-23"><path class="cls-7" d="M994.31,1313.41c18.9,26.83,64.41,9.41,95,45.94,31.73,38-.1,77.44,30.63,117.93,31.15,41,77.33,18.22,108.73,56.67,36.16,44.26-5.28,98.77,18.38,148.55,15.07,31.72,57.84,64,176.79,70.7a21.1,21.1,0,0,0-1.44-16.76l-278.08-523.3a39.85,39.85,0,0,0-51.19-17.92A402.52,402.52,0,0,0,993,1258.43C984.15,1285.75,986.74,1302.66,994.31,1313.41Z" transform="translate(-435.76 -371.64)"/></g><path class="cls-24" d="M1286.45,1561.51a54.8,54.8,0,0,0,10-18c2.73-8.49,1.73-13.08,6.13-17.14,4-3.73,11-5.5,14.55-2.77,1.72,1.32,2.18,3.31,2.9,6.73a36.94,36.94,0,0,1,.25,13.92l-2.82-5.31a27.17,27.17,0,0,1-1.7,5.35,28.51,28.51,0,0,1-7.66,10.3l-11.65,17.63h0Z" transform="translate(-435.76 -371.64)"/><path class="cls-25" d="M870.79,1668.63q-.66,8.46-1.3,16.94c-6.31.85-45.61,5.51-74.28-21.44-34.92-32.84-23.56-83.9-21.44-93.43,14.82-66.6,85.82-92.45,94-95.3,29.64-10.27,54-7.92,99.7-3.48,34,3.29,68,6.59,104.92,22.58,80.66,34.89,91.27,92.1,142.43,93.31,17.53.42,43.53-5.68,75.94-39.16l14.61,9.95c-2.37,10.28-15.29,61.53-62.23,87.15-51.61,28.17-123.41,13.92-171.58-38.66-3.79,42.84,4.2,73.2,13.07,93.79,7,16.33,14,25.08,10,34.46-7.28,16.94-42,16.57-88.07,16.08-45.29-.48-68.19-1-80.18-14.17-12.21-13.44-5.85-25.64-12.58-74.77-5.77-42.08-10-73.13-26-77.94-14.72-4.42-41.5,12.68-44.3,38.82C841.46,1642.24,852.48,1660.79,870.79,1668.63Z" transform="translate(-435.76 -371.64)"/><path class="cls-25" d="M870.79,1668.63q-.66,8.46-1.3,16.94c-6.31.85-45.61,5.51-74.28-21.44-34.92-32.84-23.56-83.9-21.44-93.43,14.82-66.6,85.82-92.45,94-95.3,29.64-10.27,54-7.92,99.7-3.48,34,3.29,68,6.59,104.92,22.58,80.66,34.89,91.27,92.1,142.43,93.31,17.53.42,43.53-5.68,75.94-39.16l14.61,9.95c-2.37,10.28-15.29,61.53-62.23,87.15-51.61,28.17-123.41,13.92-171.58-38.66-3.79,42.84,4.2,73.2,13.07,93.79,7,16.33,14,25.08,10,34.46-7.28,16.94-42,16.57-88.07,16.08-45.29-.48-68.19-1-80.18-14.17-14.34-15.78-3.32-30.92-12.58-74.77-1.46-6.9-16.14-74.07-40.55-75.41-13.09-.72-27.76,17.59-29.78,36.29C841.43,1642.33,852.47,1660.88,870.79,1668.63Z" transform="translate(-435.76 -371.64)"/><path class="cls-26" d="M925.77,1438.23c2.18,21.75-1.84,29.47-6.54,32.09-6.4,3.58-20.64,1.38-27.39,6.19-.32.23-.89.64-.86,1.19.13,2.26,11.6,3.61,26.75,7.24,17.62,4.21,51.86,2.68,58.86,0,.49-.19,1.47-.6,1.54-1.27.28-2.71-15.16-1.65-24.21-10.79-6.78-6.85-4.23-13.59-14-24.7a53,53,0,0,0-5.92-5.74Z" transform="translate(-435.76 -371.64)"/><path class="cls-27" d="M941.2,1458.17c1.62-.89,14.79-2.49,16.61-9.58,2.46-9.61-6.18-21.32-7.26-23.2-4.5-7.89-5.64-9-7.73-10.29l-2.91-1.7a3.53,3.53,0,0,0-.35-.12c-1.85-.62-8.13-.67-9.4-.37-4,1-8,17.61-6.23,41-.15.89-.29,1.8-.43,2.71C923.15,1459,941.32,1459,941.2,1458.17Z" transform="translate(-435.76 -371.64)"/><path class="cls-16" d="M953.59,1411.91c-1.52,4.41-7.54,9-10.23,11a12.17,12.17,0,0,0-2.56,2.93,3.63,3.63,0,0,0-.39.86c-1.48,4.61,5.9,9.82,4.54,11.9-1,1.5-6-.37-6.52.93s3.63,3.62,3,5.08c-.45,1.1-3,.16-4.55,1.86-.78.85-.53,1.51-1.31,4.07a22.87,22.87,0,0,1-1.57,3.92c-2.41,4.32-9.47,6-10.87,4.36-.39-.47-.08-.87-.5-2.46a12.51,12.51,0,0,0-1.46-3.15c-1.52-2.4-5.1-4.07-8.74-6.56-6.72-4.62-8.62-8.64-9.19-10l-.17-.42c-.09-.23-.18-.47-.25-.7-1.52-4.92,2.37-10.22,4.47-12.69a67.33,67.33,0,0,1,15.47-13.34c2-1.26,21.61-13.36,28.8-7.38C954.17,1404.26,954.62,1408.91,953.59,1411.91Z" transform="translate(-435.76 -371.64)"/><path class="cls-28" d="M942.31,1437c-1.83-2.4-4.9,0-4.85,3.12s3.19,6.38,6.14,5.69S944.77,1440.18,942.31,1437Z" transform="translate(-435.76 -371.64)"/><path class="cls-29" d="M1083.14,1732.28c-10.32,4.92-24.67,4.63-32.93-3.06-12.83-12,.33-34.09-13-42.89-12.19-8-24.07,2.57-35.22-4.59-19.2-12.33,2.7-52.31-17.61-75-16.75-18.73-41.1-2.18-61.27-21.44-22.61-21.59-4.75-54.57-25.27-68.92-17.15-12-48.15-1.87-66.62,11.49-31.05,22.47-33.07,58.75-47.47,58.2-3.2-.12-7.05-2.09-11.34-8.41-3.1,17.5-6.9,58.57,22.82,86.52,28.67,26.95,68,22.29,74.28,21.44q.64-8.47,1.3-16.94c-18.32-7.75-29.36-26.3-27.32-45.27,2-18.7,16.69-37,29.78-36.29,24.41,1.34,39.09,68.51,40.55,75.41,9.26,43.85-1.76,59,12.58,74.77,12,13.19,34.89,13.69,80.18,14.17,46.06.49,80.79.86,88.07-16.08,1.73-4,1.36-8-.1-12.44A32,32,0,0,1,1083.14,1732.28Z" transform="translate(-435.76 -371.64)"/><path class="cls-30" d="M1577.94,1931l-206.76-31.68a19.29,19.29,0,0,0-22.07,16.34c-4.44,31.88-8.56,98.37,20.3,160.18,39.8,85.23,156.16,101.37,258,82.85s185.45-114.76,179.08-234.81c-6.06-114.42-96.38-229.59-272.42-214.75a19.36,19.36,0,0,0-16.1,26.92C1536.88,1779.93,1575,1874.42,1577.94,1931Z" transform="translate(-435.76 -371.64)"/><path class="cls-31" d="M1616.47,2050.15c-42-16.92-28.45-60.43-70.9-85.45-55.88-32.93-113.39,22.35-172.72-9.09a95,95,0,0,1-25.85-20.34c-2.75,35.3-1.42,89.49,22.41,140.55,39.8,85.23,156.16,101.37,258,82.85,60.79-11.06,115.08-49.84,147.62-104.83a96.19,96.19,0,0,0-33.08-14.6C1690.9,2027.83,1659.86,2067.65,1616.47,2050.15Z" transform="translate(-435.76 -371.64)"/><path class="cls-32" d="M1897.11,1419,2404,1394.58a18.27,18.27,0,0,1,19.15,18.25V2026a18.26,18.26,0,0,1-17.49,18.25l-506.84,27.86a18.28,18.28,0,0,1-19-18.26V1437.28A18.27,18.27,0,0,1,1897.11,1419Z" transform="translate(-435.76 -371.64)"/><path class="cls-33" d="M1906.25,1427.05l506.84-24.46a18.28,18.28,0,0,1,19.15,18.25V2034a18.27,18.27,0,0,1-17.49,18.25l-506.84,27.85a18.27,18.27,0,0,1-19.05-18.25V1445.3A18.28,18.28,0,0,1,1906.25,1427.05Z" transform="translate(-435.76 -371.64)"/><g class="cls-34"><polygon class="cls-35" points="1564.08 1644.1 1519.97 1646.64 1519.97 1127.76 1564.08 1125.42 1564.08 1644.1"/><polygon class="cls-35" points="1639.61 1639.74 1595.56 1642.28 1595.56 1123.75 1639.61 1121.41 1639.61 1639.74"/><polygon class="cls-35" points="1715.03 1635.4 1671.04 1637.93 1671.04 1119.75 1715.03 1117.41 1715.03 1635.4"/><polygon class="cls-35" points="1790.36 1631.06 1746.43 1633.59 1746.43 1115.75 1790.36 1113.42 1790.36 1631.06"/><polygon class="cls-35" points="1865.58 1626.72 1821.71 1629.25 1821.71 1111.76 1865.58 1109.43 1865.58 1626.72"/><polygon class="cls-35" points="1940.71 1622.39 1896.89 1624.92 1896.89 1107.77 1940.71 1105.45 1940.71 1622.39"/><polygon class="cls-36" points="1564.08 1644.1 1519.97 1646.64 1519.97 1174.25 1564.08 1171.89 1564.08 1644.1"/><polygon class="cls-37" points="1639.61 1639.74 1595.56 1642.28 1595.56 1385.59 1639.61 1383.15 1639.61 1639.74"/><polygon class="cls-38" points="1715.03 1635.4 1671.04 1637.93 1671.04 1493.18 1715.03 1490.71 1715.03 1635.4"/><polygon class="cls-39" points="1790.36 1631.06 1746.43 1633.59 1746.43 1258.48 1790.36 1256.1 1790.36 1631.06"/><polygon class="cls-40" points="1865.58 1626.72 1821.71 1629.25 1821.71 1307.86 1865.58 1305.46 1865.58 1626.72"/><polygon class="cls-41" points="1940.71 1622.39 1896.89 1624.92 1896.89 1219.85 1940.71 1217.49 1940.71 1622.39"/></g><path class="cls-42" d="M2413.09,1402.59l-487.37,23.52c0,24.35,5.58,42.07,11.55,54.62,29.46,61.94,96.08,58.61,119.46,122.52,16.88,46.17-12.62,62.3,6.12,101.08,28.42,58.81,104.74,39.22,139.37,98,23.13,39.26-.83,65.1,9.19,122.52,6.14,35.16,25.07,82.38,82.49,134.06l120.85-6.64a18.27,18.27,0,0,0,17.49-18.25v-613.2A18.28,18.28,0,0,0,2413.09,1402.59Z" transform="translate(-435.76 -371.64)"/><path class="cls-43" d="M2418.65,2042.26V2013s-4.21-6.26-6.43-21.75,1.81-9.35,3.78-2.9a10.61,10.61,0,0,0,3.05,4.58,5.83,5.83,0,0,0,9.68-3.52l2.78-19.4s11.25,11.5,3.11,40.29c-2.55,9,0,30.76,0,30.76Z" transform="translate(-435.76 -371.64)"/><path class="cls-44" d="M1905.31,2065.59l-7.38-28.54s7.1-11,3.69-22.13-1.36-7.2-4.11,0-8.17-5-12.41-16.09-6.41,6-5.38,16.09,1.42,16.16,7.47,23.55,4.83,33.67,4.83,33.67Z" transform="translate(-435.76 -371.64)"/><path class="cls-16" d="M2324.39,2851.3c.23-6.29,15.39-5,25.32-4.07s14.3,4.93,15.85,8.66.39,12.91-8.79,9.06C2349.24,2861.78,2324.18,2856.86,2324.39,2851.3Z" transform="translate(-435.76 -371.64)"/><path class="cls-45" d="M2342.64,2826.94l7.07,24.36s7.06,4.85,9.39,2.44l-2.63-28.08Z" transform="translate(-435.76 -371.64)"/><polygon class="cls-46" points="1856.98 2440.88 1880.37 2451.08 1876.44 2462.92 1853.02 2456.83 1856.98 2440.88"/><path class="cls-16" d="M2291.41,2858.46s15.58,4,22.48-5.18c4.43-5.92,8.12-16,10.19-22.41a7,7,0,0,0-4-8.6c-4.94-2-11.67-4.09-14.53-2.48-4.8,2.7-.3,20.63-2.4,25.3S2290.81,2852.76,2291.41,2858.46Z" transform="translate(-435.76 -371.64)"/><path class="cls-47" d="M2255.06,2447.88a1301.58,1301.58,0,0,0,85,388.25,25.7,25.7,0,0,0,22.2,0c3.83-29.14,5.8-53.72,6.9-72,2.89-48.22,4.2-72.92-2.37-101.62-6.16-26.93-11.11-24.83-17.54-54.59-5.72-26.47-5.85-46.83-5.86-76.64a672.09,672.09,0,0,1,4.89-80.92Z" transform="translate(-435.76 -371.64)"/><path class="cls-48" d="M2343.12,2816.22c-6.19-19.95,6-29.06,4.59-54.37-1.73-30.93-20.78-31.85-26.8-66.63-4.83-27.94,6.94-30.35,3.83-64.32-3.3-36.1-17.52-43.42-14.55-65.09,1.66-12,8.68-28.48,33.32-46.38a675,675,0,0,1,4.77-69.06l-93.22-2.49a1301.58,1301.58,0,0,0,85,388.25,25.87,25.87,0,0,0,10.36,2.51,25.11,25.11,0,0,0,6.58-.7A51.66,51.66,0,0,1,2343.12,2816.22Z" transform="translate(-435.76 -371.64)"/><path class="cls-49" d="M2179.25,2437.93a554.93,554.93,0,0,1-8.12,59c-10.75,55.84-23.09,73.72-26.34,110.23-3.8,42.58,7.83,76.08,12.25,88.83,30.18,87,113.07,127.51,135,137.43q3.72-12,7.43-24.1a220.22,220.22,0,0,1-21.4-35c-13.15-26.87-14-42.69-23-69.15-16.19-47.73-28.5-41-31.46-65.27-4.68-38.52,26.4-54.07,54.43-127.7a399.61,399.61,0,0,0,15.32-49.78Z" transform="translate(-435.76 -371.64)"/><path class="cls-50" d="M2413.57,2030.54l23.74-3.82c9.93,14,38.56,58.14,32.93,117.16-1.34,14-7.11,60.39-46.34,97.31-28.09,26.44-59.32,34.75-73.63,37.61,0,68.74,1.27,112.08,3.63,138a336.09,336.09,0,0,1-.83,63.23c-1.08,10.31-1.65,15.53-3.06,18.37-19.58,39.52-131.84,8.2-162.16-4.9-7.89-3.41-15.9-8.15-19.32-16.54-4.41-10.78-.19-20.55,1.53-29.1,4.21-21-8.27-36.82-33.28-77.53-10.58-17.22-25.94-43.06-43.88-76.61-20.77,6.06-69.71,16.91-117.62-5.94-70.39-33.59-110.56-126.6-90.09-227.39l21.45-6.13a212.4,212.4,0,0,0,32.53,72.46c11.33,16.12,20.77,29.54,37.15,37.05,25.71,11.78,48.55-.18,81.94-8.43,52.6-13,96.59-8.14,150-2.25,58.37,6.43,74.37,18.42,117,10.36,19-3.58,42.75-8.38,62.2-27.25C2425.81,2099.1,2415.16,2038.82,2413.57,2030.54Z" transform="translate(-435.76 -371.64)"/><path class="cls-51" d="M2195.48,2107.35s-3.5,14,1.43,20.29,21.39,30.35,26.75,31.52c3.05.67,10.71,1.83,16.72,2.71a3.21,3.21,0,0,1,.91,6.09c-6,2.6-16.55,5.21-34.67,5-26.21-.29-47.28-10.26-56.47-15.42a1.39,1.39,0,0,1,.8-2.6l11.8.88a16.16,16.16,0,0,0,17.27-17.91l-.73-6.56Z" transform="translate(-435.76 -371.64)"/><path class="cls-52" d="M2184.66,2135.56c-1.62-.89-14.79-2.49-16.61-9.58-2.46-9.61,6.18-21.32,7.26-23.2,4.5-7.88,5.64-9,7.73-10.29l2.91-1.7.35-.12c1.85-.62,8.13-.67,9.4-.36,4,1,8,17.6,6.23,41,.15.9.29,1.8.43,2.71C2202.71,2136.35,2184.54,2136.39,2184.66,2135.56Z" transform="translate(-435.76 -371.64)"/><path class="cls-16" d="M2172.27,2089.3c-.57,2.86,7,8.55,10.23,11a12.17,12.17,0,0,1,2.56,2.93,3.54,3.54,0,0,1,.39.87c1.48,4.6-5.9,9.81-4.54,11.89,1,1.51,6-.37,6.52.93s-3.64,3.62-3,5.08c.45,1.1,3,.16,4.55,1.86.77.85.53,1.51,1.31,4.07a22.08,22.08,0,0,0,1.57,3.92c2.41,4.32,9.47,6,10.87,4.36.39-.47.07-.87.5-2.46a12.68,12.68,0,0,1,1.46-3.15c1.52-2.4,5.1-4.07,8.74-6.56,6.72-4.62,8.61-8.64,9.19-10l.17-.42c.09-.23.18-.47.25-.7,1.42-4.63-4.47-12.69-4.47-12.69a50,50,0,0,0-15.47-13.34,68.12,68.12,0,0,0-20.75-1C2178.3,2086.38,2172.72,2087,2172.27,2089.3Z" transform="translate(-435.76 -371.64)"/><path class="cls-16" d="M2169.55,2113.36s5.58,6.7,12.95-1.35l3.64,1.08s-8.9,19.57-10.8,19.57a57.86,57.86,0,0,1-7.46-1.27,4.67,4.67,0,0,1-2.77-5.3A76.76,76.76,0,0,1,2169.55,2113.36Z" transform="translate(-435.76 -371.64)"/><path class="cls-53" d="M2184.27,2114.34c1.83-2.4,4.9,0,4.85,3.13s-3.19,6.37-6.14,5.68S2181.81,2117.58,2184.27,2114.34Z" transform="translate(-435.76 -371.64)"/><path class="cls-54" d="M2320.15,2486.94c-38,13.4-82.36-6.2-93.43-32.93-8.18-19.76,9.31-38.62-3.06-59-11.9-19.6-33.41-10.82-48.24-30.63-16.17-21.6,2.86-40.73-11.49-69.69-10.79-21.79-36.63-41.39-62-41.35-30.19,0-41.46,27.84-67.39,22.21-13.55-2.94-13.23-11.12-32.16-24.51-32.86-23.23-54.89-13.5-81.94-29.86a82.58,82.58,0,0,1-25.08-24c16.17,41.05,44.13,73.53,79.94,90.62,47.91,22.85,96.85,12,117.62,5.94,17.94,33.55,33.3,59.39,43.88,76.61,25,40.71,37.49,56.55,33.28,77.53-1.72,8.55-5.94,18.32-1.53,29.1,3.42,8.39,11.43,13.13,19.32,16.54,30.32,13.1,142.58,44.42,162.16,4.9,1.41-2.84,2-8.06,3.06-18.37.68-6.43,1.14-12.58,1.43-18.35A75,75,0,0,1,2320.15,2486.94Z" transform="translate(-435.76 -371.64)"/><g class="cls-3"><path class="cls-55" d="M2080.7,406.31c152.35,6.17,279.16,148.11,286.37,316.18a336.63,336.63,0,0,1-1.17,46.84,187,187,0,0,1,82.77-17.91c118.38,1.69,216.81,112.18,221.85,246.25,4.77,126.84-75.57,232.39-184,245.13-5.75.64-11.56,1.1-17.45,1.25l-1063,22.62c-65.55-10.93-118.81-69.65-123.37-141.83-5.15-81.55,53.85-148.1,131-148.36a134.79,134.79,0,0,1,46.66,8.17,362.24,362.24,0,0,1-13.3-77.88C1436,721.46,1567.62,574,1737.27,578.51a289.45,289.45,0,0,1,89.62,16.91C1863.51,479.9,1962.25,401.51,2080.7,406.31Z" transform="translate(-435.76 -371.64)"/><path class="cls-56" d="M2132.07,385.08c151.2,6.4,277,148.09,284,315.63a339.1,339.1,0,0,1-1.19,46.69A184.74,184.74,0,0,1,2497,729.68c117.52,1.89,215.16,112.21,220.07,245.87,4.64,126.46-75.19,231.54-182.83,244-5.7.62-11.47,1.07-17.32,1.2l-1055,20.58c-65-11-117.82-69.63-122.29-141.57-5-81.28,53.54-147.49,130.12-147.61a132.94,132.94,0,0,1,46.28,8.23A363.21,363.21,0,0,1,1503,882.78c-10.88-184.69,119.84-331.41,288.17-326.64a286.44,286.44,0,0,1,88.92,17C1916.48,458.07,2014.52,380.11,2132.07,385.08Z" transform="translate(-435.76 -371.64)"/></g><path class="cls-7" d="M2122.33,749.89l-18.95.65a140.7,140.7,0,0,0-6.92-24.47l16.37-9.94a9.4,9.4,0,0,0,3.32-12.82l-16.47-27.39a9.37,9.37,0,0,0-12.9-3l-16.6,10a144.85,144.85,0,0,0-18.51-17.53l9.54-16.86a9.22,9.22,0,0,0-3.59-12.7l-28.56-15.48a9.69,9.69,0,0,0-13,3.76L2006.47,641a150.58,150.58,0,0,0-25.3-5.94l-.21-19.38a9.37,9.37,0,0,0-9.7-9.2l-33.24.77a9.69,9.69,0,0,0-9.54,9.69l.22,19.46a155.11,155.11,0,0,0-25.45,7.27l-10.15-16.57a9.79,9.79,0,0,0-13.32-3.15l-29,17.14a9.45,9.45,0,0,0-3.41,13.09l10.2,16.57a156.38,156.38,0,0,0-18.68,18.88l-17.45-9.21a10.07,10.07,0,0,0-13.36,3.87l-16.6,29a9.26,9.26,0,0,0,3.78,12.9l17.33,9.07a147.45,147.45,0,0,0-6.65,25.46l-19.87.69a9.93,9.93,0,0,0-9.72,9.86l.45,32.89a9.43,9.43,0,0,0,10,9.15l19.69-.76a142.3,142.3,0,0,0,7.22,25L1797,847.75a9.47,9.47,0,0,0-3.41,13.11l17.31,27.64a9.8,9.8,0,0,0,13.41,2.88l16.64-10.1A144.71,144.71,0,0,0,1860.16,899l-9.41,16.6a9.09,9.09,0,0,0,3.72,12.72l29.23,14.89a10.06,10.06,0,0,0,13.17-4.08l9.29-16.42a149.61,149.61,0,0,0,25.91,5.5l.22,18.44a9.07,9.07,0,0,0,9.71,8.9l33.06-1.63a9.88,9.88,0,0,0,9.44-9.8l-.2-18.37a155.43,155.43,0,0,0,25.47-7.86l9.49,15.4a9.37,9.37,0,0,0,13,2.79l28.11-17.4a9.4,9.4,0,0,0,3.33-12.84l-9.49-15.5a154.91,154.91,0,0,0,18.26-19l16.24,8.5a9.67,9.67,0,0,0,12.8-4l15.93-28.41a9,9,0,0,0-3.54-12.52l-16.26-8.59a147.49,147.49,0,0,0,6.37-25l18.78-.72a9.65,9.65,0,0,0,9.28-9.62l-.28-32A9,9,0,0,0,2122.33,749.89ZM1955.55,686.6c53.4-1.55,96.79,39.47,97.3,91.55s-41.93,96-95.18,98.27c-53.66,2.32-98-38.48-98.69-91.24S1901.73,688.18,1955.55,686.6Z" transform="translate(-435.76 -371.64)"/><path class="cls-7" d="M2353.16,962l-13.78.57a103.46,103.46,0,0,0-5-17.83l11.92-7.35a6.93,6.93,0,0,0,2.45-9.39l-11.91-19.9a6.74,6.74,0,0,0-9.36-2.15l-12.09,7.4a103.81,103.81,0,0,0-13.4-12.69l7-12.36a6.68,6.68,0,0,0-2.57-9.24L2285.72,868a7.06,7.06,0,0,0-9.42,2.82l-7,12.4a107.44,107.44,0,0,0-18.34-4.18l-.1-14.13a6.71,6.71,0,0,0-7-6.65l-24.1.77a7.15,7.15,0,0,0-6.94,7.11l.1,14.19a112.07,112.07,0,0,0-18.46,5.45l-7.29-12a7,7,0,0,0-9.64-2.21l-21,12.65a7,7,0,0,0-2.51,9.55l7.34,12a114,114,0,0,0-13.58,13.86L2135.16,913a7.32,7.32,0,0,0-9.68,2.9l-12.1,21.22a6.72,6.72,0,0,0,2.69,9.38l12.5,6.51a108.39,108.39,0,0,0-4.89,18.59l-14.37.6a7.31,7.31,0,0,0-7.06,7.24l.21,24a6.75,6.75,0,0,0,7.19,6.62l14.24-.64a104.15,104.15,0,0,0,5.14,18.23l-12.18,7.46a7,7,0,0,0-2.51,9.58l12.44,20.08a7,7,0,0,0,9.69,2l12.08-7.44a104.78,104.78,0,0,0,13.89,12.82l-6.87,12.15a6.61,6.61,0,0,0,2.66,9.27l21.13,10.76a7.32,7.32,0,0,0,9.56-3l6.78-12a107.72,107.72,0,0,0,18.78,3.91l.1,13.47a6.54,6.54,0,0,0,7,6.47l24-1.32a7.3,7.3,0,0,0,6.89-7.2l-.1-13.42a113.36,113.36,0,0,0,18.52-5.85l6.85,11.22a6.77,6.77,0,0,0,9.43,2l20.48-12.84a7,7,0,0,0,2.45-9.41l-6.86-11.29a115.93,115.93,0,0,0,13.33-14l11.78,6.14a7.06,7.06,0,0,0,9.32-2.95l11.66-20.85a6.58,6.58,0,0,0-2.54-9.14L2335,1018a110,110,0,0,0,4.7-18.33l13.66-.62a7.13,7.13,0,0,0,6.77-7.08l-.12-23.42A6.52,6.52,0,0,0,2353.16,962Zm-120.94-45.3c38.74-1.44,70.13,28.27,70.36,66.31s-30.72,70.3-69.37,72.21c-38.93,1.93-70.95-27.65-71.26-66.12S2193.21,918.17,2232.22,916.73Z" transform="translate(-435.76 -371.64)"/></g></g></svg>