<svg id="Layer_1" data-name="Layer 1" xmlns="http://www.w3.org/2000/svg" xmlns:xlink="http://www.w3.org/1999/xlink" viewBox="0 0 1254.19 1875.48"><defs><style>.cls-1,.cls-25{fill:none;}.cls-2{fill:#e08a68;}.cls-3{fill:#ced0d8;}.cls-4{fill:#161e3a;}.cls-5{fill:#ef9e78;}.cls-6{fill:#666;}.cls-7{fill:#64342f;}.cls-8{fill:#2b203e;}.cls-9{fill:#f07a6e;}.cls-10,.cls-23{fill:#fff;}.cls-11{fill:#8c6239;}.cls-12{fill:#7c4f29;}.cls-13{fill:#333;}.cls-14{fill:#262728;}.cls-15{fill:#222a4e;}.cls-16{fill:#dadeea;}.cls-17{fill:#babbbf;}.cls-18{fill:#3f1d1b;}.cls-19{fill:#747cbb;}.cls-20{fill:#283460;}.cls-21{opacity:0.69;}.cls-22{clip-path:url(#clip-path);}.cls-23{opacity:0.43;}.cls-24{clip-path:url(#clip-path-2);}.cls-25{stroke:#42210b;stroke-miterlimit:10;stroke-width:3.34px;}.cls-26{fill:#42210b;}.cls-27{fill:#1b243f;}.cls-28{fill:#330f1d;}.cls-29{fill:#c1272d;}.cls-30{fill:#3d1623;}.cls-31{clip-path:url(#clip-path-3);}.cls-32{clip-path:url(#clip-path-4);}</style><clipPath id="clip-path" transform="translate(-376.46 -238.17)"><circle class="cls-1" cx="708.29" cy="443.85" r="31.82" transform="translate(-122.77 354.31) rotate(-25.92)"/></clipPath><clipPath id="clip-path-2" transform="translate(-376.46 -238.17)"><circle class="cls-1" cx="628.75" cy="444.99" r="31.82" transform="translate(-36.74 832.9) rotate(-65.53)"/></clipPath><clipPath id="clip-path-3" transform="translate(-376.46 -238.17)"><circle class="cls-1" cx="1253.48" cy="439.4" r="31.96" transform="translate(741.01 1664.82) rotate(-86.62)"/></clipPath><clipPath id="clip-path-4" transform="translate(-376.46 -238.17)"><circle class="cls-1" cx="1333.37" cy="437.46" r="31.96" transform="translate(-63.84 568.1) rotate(-23.51)"/></clipPath></defs><title>handshake-men</title><path class="cls-2" d="M857,1022.82c5.57,0,71.23,10,71.23,10l82.36,41.18c6.58,3.88,2.48,18.19-4,22.28a7,7,0,0,1-2.71,1.09c-6.68,1.12-12.25,17.81-22.26,21.15a148.15,148.15,0,0,0-15.29,6.49,28.82,28.82,0,0,1-23.77.48l-92.27-38.13-36.73-10Z" transform="translate(-376.46 -238.17)"/><path class="cls-2" d="M1109.63,707.85c5.56-3.34,40.06-33.39,40.06-33.39s40.07-26.71,50.09-36.73,14.47-26.71,23.37-23.37,10,11.13,6.68,18.92-31.17,41.18-31.17,41.18l100.16-6.59s20,4.36,16.71,25.51-24.49,43.4-39,50.08-82.36,6.68-93.49,6.68-27.82-2.23-27.82-2.23l-40.07,8.91Z" transform="translate(-376.46 -238.17)"/><path class="cls-3" d="M1248.75,652.2l-85.7,229.27L1000.2,996.6a17.65,17.65,0,0,0-5.42,22.61c5.3,10.09,13.89,23.6,25.84,33.8a26.73,26.73,0,0,0,31.53,2.38l167.66-104.92c13.43.7,28.94-28.93,30-69l40.07-123.54Z" transform="translate(-376.46 -238.17)"/><path class="cls-4" d="M628.3,705.74a71.17,71.17,0,0,0,32.29,34.46C707,764.76,851.1,840.27,887.74,850.82c43.86,12.64,262-81.76,262-81.76s-2.25-69.24-27-74.89L893.07,749.1,699.5,650.75c-20.3-10.31-45.1-7.51-61.94,7.83C626.17,669,619,684.17,628.3,705.74Z" transform="translate(-376.46 -238.17)"/><path class="cls-2" d="M560.08,478.86s16.45,96.62,10.85,118-48,39.19-48,39.19,91.62,64.9,126.27,45.2,46.16-29.49,46.16-29.49-27.14-3.61-31.16-19.05-1.49-149-1.49-149Z" transform="translate(-376.46 -238.17)"/><path class="cls-5" d="M742.67,447s-5.18,62-10.78,83.34S680.18,585.09,668.62,591s-29,2.23-29,2.23S585,555.07,577.14,539.66,557,458.57,557,458.57s-14.39-85,.88-106.47,59.34-66.4,111.73-53.37,68.91,19.63,72.23,61.22C743.27,378.25,742.67,447,742.67,447Z" transform="translate(-376.46 -238.17)"/><path class="cls-6" d="M730.33,413l-41.17.41s-3.55-2.32-1.25-7.05,30.51-8.54,36.43-5.07S732.66,410.65,730.33,413Z" transform="translate(-376.46 -238.17)"/><path class="cls-6" d="M587.57,416.09l46.6-.46s4-2.7,1.25-8-34.71-9-41.32-4.92S584.88,413.46,587.57,416.09Z" transform="translate(-376.46 -238.17)"/><path class="cls-7" d="M673.56,1862.61s57.09,87.09,90,94.83c0,0,29,25.17,13.55,42.59s-42.58,17.41-60,13.54-75.49-61.93-75.49-61.93l-3.87-9.68-5.8,9.68-21.3-15.49,11.62-79.35Z" transform="translate(-376.46 -238.17)"/><path class="cls-7" d="M508.07,1897.44l-1.93,63.88-21.29,32.9-3.87,1.93s-7.74,75.49-9.68,79.36-1.94,13.55-13.55,23.23-40.64,23.22-60,3.87-21.29-38.71-21.29-38.71,54.19-125.81,56.13-137.42,9.68-38.71,9.68-38.71Z" transform="translate(-376.46 -238.17)"/><ellipse class="cls-8" cx="720.74" cy="451.79" rx="9.68" ry="13.55" transform="translate(-380.93 -230.97) rotate(-0.57)"/><ellipse class="cls-8" cx="633.65" cy="452.66" rx="9.68" ry="13.55" transform="translate(-380.94 -231.84) rotate(-0.57)"/><path class="cls-9" d="M672.9,497.09c5.11-.91,11.22-2.47,13.1-6.55,1.47-3.2,0-7.22-4.35-12.27-7.64-8.78-1.45-53.58,1.58-70.11l-3.83-.48c0,.15-2.78,15.27-4.3,31.56-2.07,22.19-.92,36,3.42,40.95,3.52,4,4.82,7.13,3.87,9.19s-4.2,3.46-10.28,4.54Z" transform="translate(-376.46 -238.17)"/><path class="cls-10" d="M687.79,522.15,632,511s-6.28.26,1.18,11.07,39.71,13.75,39.71,13.75S687.45,533,687.79,522.15Z" transform="translate(-376.46 -238.17)"/><path class="cls-11" d="M723.43,1079.58s42.51,55.51,44,127.11c1.38,64.85-72.2,557-86.08,649.13a19,19,0,0,1-17.2,16.11l-22.54,1.92A24.28,24.28,0,0,1,615.31,1849l14.77-565L511.94,1901.32s-59.16,25.53-75.48-7.75c-7.52-15.32,14.63-687.89,27.73-748.18s60.74-102,60.74-102Z" transform="translate(-376.46 -238.17)"/><path class="cls-12" d="M684.84,1577.84a322.12,322.12,0,0,0,37.62-2.34c-17.61,123.77-35,240.11-41.08,280.32a19,19,0,0,1-17.2,16.11l-22.54,1.92A24.28,24.28,0,0,1,615.31,1849l8-276.59A238.74,238.74,0,0,0,684.84,1577.84Z" transform="translate(-376.46 -238.17)"/><path class="cls-12" d="M467.54,1487.83q41.74,44.94,98.9,63.54c5.71,3,3,5.71,8.83,8.21l-63.33,341.74s-59.16,25.53-75.48-7.75c-4.27-8.7,1-229.28,8.8-429.36A245.73,245.73,0,0,0,467.54,1487.83Z" transform="translate(-376.46 -238.17)"/><path class="cls-13" d="M548.1,440.08s21.21-8,19.06-29.23,5.13-67.79,10.88-73.66,120.07,6.55,156.72-6.4l8.42,67.66,5-76.5s35-31.82,21.27-51-28.67-35.56-79.13-12.62c-47.58,21.63-134.32-.84-163.25,17.47-34,21.53-28.57,46.74-28.57,46.74s8.51,77.34,24.27,105.25Z" transform="translate(-376.46 -238.17)"/><path class="cls-6" d="M747.87,327.28l-4.69,71.17-7.8-62.72Q741.74,331.73,747.87,327.28Z" transform="translate(-376.46 -238.17)"/><path class="cls-6" d="M547.86,350.46A156.62,156.62,0,0,0,571,360.33c-3.05,16.6-5.07,38-3.81,50.52,2.15,21.27-19.06,29.23-19.06,29.23l-25.29-12.33c-14.6-25.87-23-94.14-24.13-104A152,152,0,0,0,547.86,350.46Z" transform="translate(-376.46 -238.17)"/><path class="cls-14" d="M705.49,1119.38c-32.9,17.42-81.29,27.1-106.45,21.29s-98.71-42.58-102.58-63.87l.65.64" transform="translate(-376.46 -238.17)"/><rect class="cls-15" x="573.88" y="1103.9" width="11.61" height="36.77" transform="translate(517.54 2107.53) rotate(-167.09)"/><rect class="cls-15" x="684.2" y="1094.22" width="11.61" height="36.77" transform="translate(1398.45 1607.23) rotate(155.84)"/><rect class="cls-15" x="537.11" y="1090.35" width="11.61" height="36.77" transform="translate(177.92 2105.03) rotate(-154.44)"/><rect class="cls-15" x="720.98" y="1076.8" width="11.61" height="36.77" transform="translate(1628.02 1165.46) rotate(137.14)"/><path class="cls-5" d="M556.64,425.67s-7-20.26-24.29-10.41-13.17,38.85-3.39,48.43,27.38,28.76,31.23,26.78,7.67-7.81,7.67-7.81Z" transform="translate(-376.46 -238.17)"/><path class="cls-16" d="M680.33,633.57l-41.75,50.65-92.53-59.08-85.28,92.72S476.9,872.61,479.23,911.3c1.42,23.79.25,80.51-.86,120.68a62,62,0,0,0,41.74,60.38c32.22,11.06,75.78,23.2,106.3,20.71,25.07-2,52.17-8.25,74.05-14.33,26.31-7.32-9.26-40.91-7.08-68.13,5.87-73.45,41.32-209.29,32.27-260.44C713.35,700.61,711.3,651,711.3,651Z" transform="translate(-376.46 -238.17)"/><polygon class="cls-17" points="263.23 445.72 296.13 432.17 321.29 445.72 296.13 407.01 263.23 445.72"/><polygon class="cls-16" points="255.4 450.95 249.26 418.11 178.91 351.06 148.41 397.82 212.97 466.86 255.4 450.95"/><path class="cls-16" d="M662,604.63,680.33,620c7.92,17.35,17.42,63.88,17.42,63.88l-23.22-29L643.4,682.23S674,644.19,662,604.63Z" transform="translate(-376.46 -238.17)"/><polygon class="cls-17" points="209.03 449.59 249.68 418.62 261.29 445.72 240 437.98 209.03 449.59"/><rect class="cls-3" x="619.32" y="1113.57" width="53.27" height="32.9" rx="6.71" transform="translate(1033.69 1945.52) rotate(173.8)"/><rect class="cls-14" x="622.43" y="1116.25" width="47" height="27.1" rx="5.72" transform="translate(1033.62 1945.06) rotate(173.8)"/><path class="cls-18" d="M675.62,1875.73c6.27,5,13.84,7.82,21,11.36,6.62,3.31,13.15,7.08,18.49,12.27a42.67,42.67,0,0,1,3.73,4.12,14.08,14.08,0,0,1,2.87,5c.11.45.4,2.07-.13,2.36.07,0-.6-.2-.76-.25l-1.49-.45c-1.74-.55-3.48-1.15-5.19-1.8-6.65-2.54-13.11-6.07-18.07-11.26a45.09,45.09,0,0,1-6.73-10c-1.91-3.52-4-7-7.11-9.61a1.68,1.68,0,0,0-2.79,1.62,45.59,45.59,0,0,1-2,29.29c-.45,1.09-1,2.16-1.51,3.21-.28.54-1,2.54-1.65,2.65.14,0,0,0-.1-.15a1.33,1.33,0,0,1-.28-.39,4.4,4.4,0,0,1-.49-1.26,27.84,27.84,0,0,1-.53-3.85,83.52,83.52,0,0,1-.08-16.43,81.51,81.51,0,0,1,3.92-18.33c.68-2-2.54-2.92-3.22-.89a85.12,85.12,0,0,0-3.72,37.72c.3,2.31.65,5.19,2.91,6.48,2.76,1.59,4.69-1.2,5.83-3.31a48.4,48.4,0,0,0,5.3-16.26,49.05,49.05,0,0,0-1.17-19.37l-2.79,1.63c3,2.48,4.93,5.87,6.77,9.28a48.23,48.23,0,0,0,6.42,9.63c5.29,5.85,12.37,9.76,19.64,12.61,1.83.71,3.69,1.36,5.56,2s3.93,1.49,5.52,0,1.61-3.72,1.2-5.55a15.37,15.37,0,0,0-3-5.73c-4.91-6.49-11.56-11.32-18.62-15.24-4-2.22-8.13-4.16-12.27-6.08-4.53-2.1-9.12-4.27-13-7.4-1.66-1.33-4,1-2.36,2.36Z" transform="translate(-376.46 -238.17)"/><path class="cls-18" d="M457.07,1912.52c1.23,10.54,5.74,20.24,9.14,30.18s6.24,20.43,6.18,31.08a52.07,52.07,0,0,1-.57,7.69,17.39,17.39,0,0,1-1.66,5.71,6.27,6.27,0,0,1-1.75,2.11,2.58,2.58,0,0,1-1.13.57c-.46,0-.59-.29-.83-.68-1.29-2.14-2.39-4.45-3.47-6.71-4.31-9-7.6-18.73-7.75-28.75-.08-5.76,1.17-11.17,2.77-16.67s3.15-11,2.54-16.63c-.16-1.54-2.22-2.4-3.11-.84A61.53,61.53,0,0,1,427.27,1946c-1.54.62-3.11,1.18-4.69,1.67-.87.27-3.71,1.52-4.22.47s.66-2.73,1.15-3.44c1-1.51,2.17-2.93,3.31-4.33a110.61,110.61,0,0,1,36.2-29.16c1.92-1,.23-3.85-1.68-2.88a113.72,113.72,0,0,0-37.53,30.48c-2,2.56-5,5.64-4.82,9.19a4,4,0,0,0,2.85,3.73c1.89.53,4-.33,5.81-.9a65,65,0,0,0,36.67-29.6l-3.12-.84c.58,5.41-.92,10.6-2.42,15.75A61,61,0,0,0,451.9,1952c-.23,10.77,3.1,21.3,7.61,31,1.14,2.45,2.37,4.87,3.67,7.24,1.17,2.14,2.9,3.72,5.48,2.75,4.33-1.62,5.79-6.67,6.41-10.79,1.69-11.21-.2-22.52-3.39-33.29-1.79-6.06-4-12-6.19-17.89s-4.34-12.07-5.08-18.43a1.72,1.72,0,0,0-1.67-1.67,1.68,1.68,0,0,0-1.67,1.67Z" transform="translate(-376.46 -238.17)"/><path class="cls-19" d="M669.92,660.47s-24.12,10.64-43.27-4.26L608.92,670.4l19.86,34.75-8.51,104.28,40.43,61.71s19.15-42.56,19.15-46.82S658.57,703,658.57,703l14.9-31.92Z" transform="translate(-376.46 -238.17)"/><path class="cls-4" d="M520.25,637.06S650.06,813.68,654.31,845.6c0,0,35-135.9,36.49-193.89.14-5.6-3.39-11.61-.56-14.43C690.47,637,713.9,652,713.9,652S751.25,687.81,719,943.8c-15.31,121.36,18.65,142.45,32.27,171.39,34,72.35,11.13,150.25,11.13,150.25s-91-24-108.07-145.33c-20.84,66.27-70.31,97.6-102.14,102.15C462.79,1235,450,1215.87,450,1215.87l29.79-159.6S473,886.46,460.42,847.94s-28.67-123.49-.76-154.56Z" transform="translate(-376.46 -238.17)"/><path class="cls-20" d="M665.59,1123C688.7,999,682.75,930,674.05,910.39,650.43,857.25,542.5,794.47,526.58,785.44L583.35,763l-66.73-27.36L510.28,649l-2.12.16,6.43,87.9,63.07,25.85-56,22.21,2,1.09c1.23.67,123.4,68.58,148.5,125,8.63,19.41,14.44,87.72-8.6,211.3Z" transform="translate(-376.46 -238.17)"/><path class="cls-13" d="M704.32,509.13s-.71-7.81-17.38-9.11-42.2-9.11-48.59-6.5-17,5.2-17,13c0,0,61.71,15.62,83,15.62C704.32,522.15,708.58,519.54,704.32,509.13Z" transform="translate(-376.46 -238.17)"/><path class="cls-20" d="M669.38,900.8c11-53.66,23.19-82.2,35.27-103.24,13.08-22.78,23.71-33,23.81-33.12l1.37-1.3-46.08-12.56,42.82-23.3L703,644.63l-2,.58,23.12,81-46,25,47.62,13c-3.25,3.42-12.14,13.56-22.83,32.17-12.18,21.19-24.55,50-35.57,104Z" transform="translate(-376.46 -238.17)"/><g class="cls-21"><g class="cls-22"><circle class="cls-23" cx="708.29" cy="443.85" r="31.82" transform="translate(-499.23 116.14) rotate(-25.92)"/><rect class="cls-23" x="676.98" y="427.91" width="94.39" height="10.44" transform="translate(470.63 1029.77) rotate(-129.26)"/><rect class="cls-23" x="664.92" y="439.77" width="94.39" height="7.51" transform="translate(442.88 1037.41) rotate(-129.26)"/></g></g><g class="cls-21"><g class="cls-24"><circle class="cls-23" cx="628.75" cy="444.99" r="31.82" transform="translate(-413.2 594.72) rotate(-65.53)"/><rect class="cls-23" x="597.44" y="429.04" width="94.39" height="10.44" transform="translate(339.88 970.04) rotate(-129.26)"/><rect class="cls-23" x="585.38" y="440.91" width="94.39" height="7.51" transform="translate(312.13 977.68) rotate(-129.26)"/></g></g><circle class="cls-25" cx="708.47" cy="444.03" r="32.17" transform="translate(-482.93 392.84) rotate(-45)"/><rect class="cls-26" x="661.1" y="437.53" width="14.85" height="14.85" transform="translate(966.88 642.14) rotate(179.18)"/><path class="cls-26" d="M596.77,433.78l-14.85.21.14,9.55s9.59,3,12.86,9.36Z" transform="translate(-376.46 -238.17)"/><path class="cls-26" d="M738.87,431.75l11.67-.17.14,9.55s-7.46,3.29-9.87,9.68Z" transform="translate(-376.46 -238.17)"/><polygon class="cls-11" points="205.46 195.82 179.91 189.11 182.13 196.15 205.6 205.36 205.46 195.82"/><circle class="cls-25" cx="628.03" cy="444.12" r="32.17" transform="translate(-506.55 335.99) rotate(-45)"/><path class="cls-13" d="M706.41,329.4s37.85,13.76,4.59,39c0,0,22.56-21-15.67-36.31Z" transform="translate(-376.46 -238.17)"/><path class="cls-27" d="M449.43,754.74a71.09,71.09,0,0,0,8.11,46.51c25.36,46,104.48,188.13,129.34,217,29.75,34.61,273.44,76.86,273.44,76.86s26.53-60.79,8.92-79.09L647.09,936.14l-108-188.36c-11.32-19.76-33.6-31-56.08-27.41C467.81,722.8,453.48,731.6,449.43,754.74Z" transform="translate(-376.46 -238.17)"/><path class="cls-2" d="M1404.31,472.6s-16.52,97-10.9,118.5,48.22,39.37,48.22,39.37-92,65.19-126.84,45.4-46.37-29.63-46.37-29.63,27.25-3.62,31.3-19.13,1.49-149.71,1.49-149.71Z" transform="translate(-376.46 -238.17)"/><path class="cls-5" d="M1220.88,440.63s5.22,62.27,10.84,83.72,52,55,63.55,60.91,29.15,2.23,29.15,2.23,54.83-38.34,62.76-53.82,20.25-81.46,20.25-81.46,14.47-85.41-.87-106.95-59.62-66.71-112.25-53.62-69.22,19.72-72.55,61.5C1220.29,371.52,1220.88,440.63,1220.88,440.63Z" transform="translate(-376.46 -238.17)"/><path class="cls-28" d="M1228.61,375l38.08,16.17s4.19-.79,3.86-6.06-25-19.63-31.88-18.67S1227.36,371.9,1228.61,375Z" transform="translate(-376.46 -238.17)"/><path class="cls-28" d="M1362.57,380.18l-43.83,16.47s-4.7-1.1-4.07-7,29.26-21,36.93-19.59S1364.13,376.74,1362.57,380.18Z" transform="translate(-376.46 -238.17)"/><path class="cls-7" d="M1290.32,1862.67s-57.36,87.5-90.42,95.28c0,0-29.16,25.27-13.61,42.77s42.78,17.5,60.28,13.61,75.83-62.22,75.83-62.22l3.89-9.72,5.83,9.72,21.39-15.55-11.67-79.72Z" transform="translate(-376.46 -238.17)"/><path class="cls-7" d="M1456.56,1897.67l1.94,64.17,21.39,33.05,3.89,1.94s7.78,75.83,9.72,79.72,1.94,13.61,13.61,23.33,40.83,23.34,60.28,3.89,21.38-38.88,21.38-38.88-54.44-126.39-56.38-138-9.72-38.89-9.72-38.89Z" transform="translate(-376.46 -238.17)"/><ellipse class="cls-8" cx="1236.32" cy="443.12" rx="13.61" ry="9.72" transform="translate(404.44 1436.79) rotate(-89.43)"/><ellipse class="cls-8" cx="1323.81" cy="441.77" rx="13.61" ry="9.72" transform="translate(492.41 1522.94) rotate(-89.43)"/><path class="cls-9" d="M1291,490.91c-5.13-.91-11.27-2.49-13.15-6.58-1.48-3.22-.06-7.25,4.36-12.33,7.68-8.82,1.47-53.83-1.58-70.43l3.85-.48c0,.15,2.79,15.33,4.32,31.7,2.07,22.29.92,36.13-3.44,41.14-3.53,4.05-4.84,7.16-3.88,9.24s4.21,3.47,10.32,4.56Z" transform="translate(-376.46 -238.17)"/><path class="cls-29" d="M1269.75,512.09l72-1.23s7.76,2-4,15.52-52.59,9.19-52.59,9.19S1267.66,527.62,1269.75,512.09Z" transform="translate(-376.46 -238.17)"/><path class="cls-10" d="M1269.77,511l71.94-.1s7.77.9-4,6.51-52.54,3.57-52.54,3.57S1267.76,517.49,1269.77,511Z" transform="translate(-376.46 -238.17)"/><path class="cls-15" d="M1214.56,1066.26s-17,65.57-18.58,137.49c-1.39,65.15,72.54,559.54,86.48,652.1a19.1,19.1,0,0,0,17.28,16.19l22.64,1.93a24.4,24.4,0,0,0,26.45-25L1334,1337l118.68,564.57s59.44,25.65,75.83-7.78c7.55-15.39-14.7-691-27.85-751.61s-61-102.43-61-102.43Z" transform="translate(-376.46 -238.17)"/><path class="cls-4" d="M1279,1576.6a322.71,322.71,0,0,1-37.79-2.35c17.69,124.34,35.19,241.22,41.27,281.6a19.1,19.1,0,0,0,17.28,16.19l22.64,1.93a24.4,24.4,0,0,0,26.45-25l-8.06-277.85A239.54,239.54,0,0,1,1279,1576.6Z" transform="translate(-376.46 -238.17)"/><path class="cls-4" d="M1497.28,1486.18q-41.94,45.15-99.36,63.83c-5.73,3-11.54,5.74-17.42,8.25l72.17,343.3s59.44,25.65,75.83-7.78c4.29-8.74-1-230.32-8.84-431.33A245.56,245.56,0,0,1,1497.28,1486.18Z" transform="translate(-376.46 -238.17)"/><path class="cls-30" d="M1416.35,435.77s-21.31-8-19.15-29.36-5.16-68.1-10.93-74S1265.65,339,1228.83,326l-8.45,68-5.07-76.86s-17.44-6-3.64-25.31,31.65-54.13,84.15-53.61,118.54,7,141.62,32.52,48.35,25.76,48.35,25.76l-19.65,21.2s-8.55,77.69-24.39,105.73Z" transform="translate(-376.46 -238.17)"/><path class="cls-28" d="M1437.44,270.7c-23.08-25.5-89.13-32-141.62-32.52s-70.34,34.3-84.15,53.61,3.64,25.31,3.64,25.31v.59a49.46,49.46,0,0,1,13.35,9.21l.16-.92c36.82,13,151.66.54,157.44,6.44a6.27,6.27,0,0,1,.43.52c9.45-8.55,22-13.84,34.7-13.71a49.27,49.27,0,0,1,41.39,23.21c2.21-14.47,3.35-24.78,3.35-24.78l19.65-21.2S1460.52,296.21,1437.44,270.7Z" transform="translate(-376.46 -238.17)"/><path class="cls-14" d="M1225.18,1068.73s0,29.82,33,47.32,81.67,27.22,106.94,21.38,99.16-42.77,103-64.16l-.64.65Z" transform="translate(-376.46 -238.17)"/><rect class="cls-15" x="1378.78" y="1100.49" width="11.67" height="36.94" transform="translate(-591.46 99.46) rotate(-12.91)"/><rect class="cls-15" x="1267.96" y="1090.77" width="11.67" height="36.94" transform="translate(189.03 -662.32) rotate(24.16)"/><rect class="cls-15" x="1415.73" y="1086.88" width="11.67" height="36.94" transform="translate(-714.23 483.25) rotate(-25.56)"/><rect class="cls-15" x="1231.01" y="1073.27" width="11.67" height="36.94" transform="translate(696.33 -788.01) rotate(42.86)"/><path class="cls-28" d="M1420.39,420.18a48.67,48.67,0,0,1-22.89-5.87c2.89,15.47,18.85,21.46,18.85,21.46l25.4-12.38a80.6,80.6,0,0,0,4.85-10.61A50.19,50.19,0,0,1,1420.39,420.18Z" transform="translate(-376.46 -238.17)"/><path class="cls-5" d="M1407.76,419.16s7-20.35,24.41-10.45,13.23,39,3.41,48.64-27.51,28.89-31.38,26.91-7.7-7.85-7.7-7.85Z" transform="translate(-376.46 -238.17)"/><path class="cls-16" d="M1283.51,628l41.94,50.87,93-59.35,67.23,32.82a71.76,71.76,0,0,1,38.08,82.22c-15.11,59.3-36.68,147.35-38.18,172.44-1.44,23.89-.26,80.88.86,121.24a62.33,62.33,0,0,1-42.08,60.69c-32.35,11.1-76,23.25-106.64,20.76-25.23-2.06-52.52-8.32-74.53-14.44a65.27,65.27,0,0,1-47.52-57.68c-5.89-73.79-15.83-220-6.74-271.39,12.36-69.87,43.51-120.69,43.51-120.69Z" transform="translate(-376.46 -238.17)"/><path class="cls-3" d="M1485.54,907a178,178,0,0,1,2.4-17.95,230.94,230.94,0,0,1-95.85,60.17q-55.18,29-118.94,26.59a315.55,315.55,0,0,1-62.45-6.34c1.65,25.57,3.42,49.2,4.93,68.09a65.34,65.34,0,0,0,47.66,57.73c22,6.11,49.21,12.35,74.39,14.4,30.66,2.5,74.42-9.69,106.79-20.81a62.27,62.27,0,0,0,41.93-60.65C1485.28,987.89,1484.1,930.91,1485.54,907Z" transform="translate(-376.46 -238.17)"/><polygon class="cls-17" points="947.88 440.39 914.83 426.78 889.55 440.39 914.83 401.51 947.88 440.39"/><polygon class="cls-16" points="955.75 445.65 961.91 412.65 1032.58 345.3 1063.22 392.27 998.37 461.63 955.75 445.65"/><path class="cls-16" d="M1301.94,598.94l-18.43,15.46c-8,17.43-17.5,64.17-17.5,64.17l23.33-29.17,36.12,28.9S1289.88,638.68,1301.94,598.94Z" transform="translate(-376.46 -238.17)"/><polygon class="cls-17" points="1002.32 444.28 961.49 413.17 949.83 440.39 971.21 432.62 1002.32 444.28"/><rect class="cls-3" x="965.61" y="514.28" width="83.61" height="11.67"/><rect class="cls-3" x="1291.29" y="1110.21" width="53.52" height="33.05" rx="6.74" transform="translate(-247.09 -373.91) rotate(6.2)"/><rect class="cls-14" x="1294.46" y="1112.9" width="47.22" height="27.22" rx="5.75" transform="translate(-247.11 -373.91) rotate(6.2)"/><path class="cls-18" d="M1285.88,1873.49c-6.72,5.36-15.18,8.16-22.74,12.1-7.16,3.74-14.16,8.24-19.49,14.4-2.56,3-5.77,6.83-5.05,11,.34,2,1.67,3.6,3.82,3.4a26.76,26.76,0,0,0,5.83-1.74c7.44-2.61,14.71-6.19,20.49-11.63a40.86,40.86,0,0,0,7.72-10.37c2.11-3.85,4.08-7.86,7.55-10.69l-2.79-1.63a49.31,49.31,0,0,0,3.2,33.92c1,2.13,2.35,5.66,5.2,5.63,2.44,0,3.81-2.65,4.2-4.73a75.09,75.09,0,0,0,.79-18.94,86.71,86.71,0,0,0-4.21-21.16c-.68-2-3.9-1.16-3.22.88a83.18,83.18,0,0,1,4,32.84c-.11,1.31-.24,2.63-.41,3.94a9,9,0,0,1-.73,3.15c-.5,1-.58.75-1.11-.14a35.7,35.7,0,0,1-1.77-3.35,45,45,0,0,1-4-14.28,45.69,45.69,0,0,1,1.27-16.87,1.68,1.68,0,0,0-2.79-1.62c-5.7,4.66-7.59,12.12-12.12,17.68s-10.83,9.49-17.41,12.31c-1.68.73-3.4,1.37-5.13,2-.81.28-1.62.54-2.43.8-.42.14-2.19.9-2.48.74s-.25-1.69-.16-2.15a9,9,0,0,1,1.29-2.92,32.44,32.44,0,0,1,3.46-4.46c5-5.54,11.4-9.59,18-13,7.9-4.14,16.55-7.1,23.59-12.72,1.68-1.34-.7-3.69-2.36-2.36Z" transform="translate(-376.46 -238.17)"/><path class="cls-18" d="M1504.45,1912.82c-1.31,11.29-6.62,21.79-10.09,32.5s-6,22-5.13,33.29c.36,4.43.88,9.84,4.2,13.17,1.51,1.5,4,2.87,6.1,1.63a6.45,6.45,0,0,0,2.12-2.59c.64-1.18,1.27-2.36,1.88-3.56,4.87-9.58,8.71-19.92,9.37-30.73a52.9,52.9,0,0,0-2.18-17.77c-1.67-5.89-3.73-11.8-3.07-18l-3.11.84a65.41,65.41,0,0,0,33.78,28.69,52.35,52.35,0,0,0,5.45,1.75c1.91.49,4,.58,5.4-1.1,2.29-2.83-.13-6.67-1.92-9a113.71,113.71,0,0,0-39.73-33.25c-1.91-1-3.6,1.91-1.68,2.88a111.85,111.85,0,0,1,34.64,27.21c1.21,1.42,2.39,2.87,3.51,4.35a13.46,13.46,0,0,1,2.52,4,2.58,2.58,0,0,1,.18,1.52c-.3.66-1.25.37-1.82.23a50.65,50.65,0,0,1-4.95-1.55,61.07,61.07,0,0,1-17.63-10,62.16,62.16,0,0,1-14.87-17.46c-.88-1.56-2.94-.7-3.11.84-1.09,10.28,4.63,19.73,5.26,29.86s-2.13,20-6.13,29.07c-1,2.33-2.13,4.63-3.31,6.89-.54,1-1.08,2.09-1.67,3.11-.15.26-.37.78-.7.86s-1-.32-1.25-.52c-3.43-2.36-3.71-8.18-4-11.87-.76-10.65,1.6-21.18,4.82-31.26,3.61-11.29,9.05-22.2,10.42-34.07a1.67,1.67,0,0,0-1.67-1.67,1.7,1.7,0,0,0-1.66,1.67Z" transform="translate(-376.46 -238.17)"/><g class="cls-21"><g class="cls-31"><circle class="cls-23" cx="1253.48" cy="439.4" r="31.96" transform="translate(364.55 1426.65) rotate(-86.62)"/><rect class="cls-23" x="1189.71" y="424" width="94.82" height="10.49" transform="translate(-227.36 919.72) rotate(-52.95)"/><rect class="cls-23" x="1202.22" y="435.44" width="94.82" height="7.54" transform="translate(-230.35 933.67) rotate(-52.95)"/></g></g><g class="cls-21"><g class="cls-32"><circle class="cls-23" cx="1333.37" cy="437.46" r="31.96" transform="translate(-440.3 329.93) rotate(-23.51)"/><rect class="cls-23" x="1269.59" y="422.06" width="94.82" height="10.49" transform="translate(-194.07 982.7) rotate(-52.95)"/><rect class="cls-23" x="1282.1" y="433.51" width="94.82" height="7.54" transform="translate(-197.05 996.65) rotate(-52.95)"/></g></g><circle class="cls-25" cx="1253.31" cy="439.58" r="32.32" transform="translate(-443.87 60.97) rotate(-13.26)"/><rect class="cls-26" x="1285.98" y="431.5" width="14.92" height="14.92" transform="translate(-386.7 -206.75) rotate(-1.39)"/><path class="cls-26" d="M1365,425l14.91-.36.23,9.59s-9.51,3.43-12.55,9.89Z" transform="translate(-376.46 -238.17)"/><path class="cls-26" d="M1222.31,428.43l-11.72.28.24,9.59s7.61,3,10.27,9.34Z" transform="translate(-376.46 -238.17)"/><polygon class="cls-11" points="1003.49 186.44 1028.88 178.72 1026.92 185.87 1003.72 196.02 1003.49 186.44"/><circle class="cls-25" cx="1334.06" cy="436.56" r="32.32" transform="translate(-294.42 833.01) rotate(-45)"/><path class="cls-5" d="M1477.57,1085.21l-40.64,23.66s-17.42,9.11-9.68,40.05,56.13,56.42,56.13,56.42l11.61-81.9,9.68-16.39Z" transform="translate(-376.46 -238.17)"/><path class="cls-16" d="M1513.16,674.35s111.51,214.29,117.31,259.79S1500.8,1128.9,1500.8,1128.9s-52.26-7.28-54.2-32.77l91-171.09-61.93-91S1441.55,699.83,1513.16,674.35Z" transform="translate(-376.46 -238.17)"/><path class="cls-5" d="M1024.05,1010.52a25.08,25.08,0,0,0-22.06-5.39c-16.44,3.87-57.26,14.18-62.65,18.8-4,3.39-9.34,8.5-13.68,12.71a26,26,0,0,0-7.9,17.6l3.78,29.79s8.9,12.24,14.46,4.45,5.57-19.94,5.57-26.71c0-3.34,11.14-10.5,11.14-10.5l43.4,25s20,9,31.72-20.59l22.92-7.77a7.79,7.79,0,0,0,1.8-13Z" transform="translate(-376.46 -238.17)"/><path class="cls-5" d="M905,1096.45l-15.36,19.69a8.94,8.94,0,0,0,1.54,12.52h0a9,9,0,0,0,12.52-1.54l15.37-19.7a8.94,8.94,0,0,0-1.55-12.52h0A9,9,0,0,0,905,1096.45Z" transform="translate(-376.46 -238.17)"/><path class="cls-5" d="M921.15,1104.31l-13,16.7a7.6,7.6,0,0,0,1.31,10.63h0a7.6,7.6,0,0,0,10.63-1.31l13-16.71a7.6,7.6,0,0,0-1.31-10.63h0A7.58,7.58,0,0,0,921.15,1104.31Z" transform="translate(-376.46 -238.17)"/><path class="cls-5" d="M935.85,1109.25l-13,16.71a7.6,7.6,0,0,0,1.31,10.63h0a7.58,7.58,0,0,0,10.62-1.32l13-16.7a7.6,7.6,0,0,0-1.31-10.63h0A7.59,7.59,0,0,0,935.85,1109.25Z" transform="translate(-376.46 -238.17)"/><path class="cls-5" d="M946.67,1117.31l-9.75,12.51a5.67,5.67,0,0,0,1,8h0a5.69,5.69,0,0,0,8-1l9.75-12.51a5.67,5.67,0,0,0-1-8h0A5.69,5.69,0,0,0,946.67,1117.31Z" transform="translate(-376.46 -238.17)"/></svg>