<svg id="Layer_1" data-name="Layer 1" xmlns="http://www.w3.org/2000/svg" viewBox="0 0 128.58 105.83"><defs><style>.cls-1{fill:#fff;}</style></defs><title>handshake</title><path class="cls-1" d="M507.53,403.81l-10.95,10.95c-.55-.08-1.1-.13-1.65-.17-3.93-1.59-10.9-2.71-19.09,3.59l-.19.17-2.69,2.7c-10.12-6.86-18.15-2.63-20.41-1.14l-10.07-10.08L410.71,441.6l12,12c.1,5.4,2,10.93,5.74,16.52a43.62,43.62,0,0,0,5.28,6.39c2.48,2.52,5,5,7.49,7.5-2.71,3.95-1.55,7.22,1.28,10.16s5.63,3.41,9.6,2.26a.09.09,0,0,1,.1,0c2.85,4.27,5.48,6.34,8.31,6.57,1.18,1.14,2.34,2.3,3.53,3.44a11,11,0,0,0,13.07,1.72c1.83-1.05,2.14-1.91,3.08-3.39,7.15,6,11.92,6.11,17.54-2.31a.08.08,0,0,1,.09,0c4,1.15,6.67.8,9.61-2.26s4.12-6.57.78-10.83c0,0-.89-1.15-.84-1.15a6.72,6.72,0,0,0,5.3-2.78c2.76-3.58,2.59-7.34-.37-11,1.29-1.31,2.61-2.6,3.9-3.91a44.2,44.2,0,0,0,5.27-6.39c3.73-5.59,5.65-11.12,5.74-16.52l12-12ZM435.7,471.94A29.19,29.19,0,0,1,428.1,459a24,24,0,0,1-.56-3.32,26.61,26.61,0,0,1-.09-2.84l-12.21-12.21,26.26-26.26,8.41,8.42.56.55,0,.09,4.07.34.26-.66c1.61-1.09,8.26-4.78,17.15,2l11.76,11.81a3.17,3.17,0,0,1,0,4.46l-.78.77a3.16,3.16,0,0,1-4.46,0l-12-12.08-2.92,2,3.25,3.81,1.41,1.42L464,441.46a2.3,2.3,0,0,0-.64,1.09l-.2.22Q451,454.91,438.89,467A12.58,12.58,0,0,0,435.7,471.94Zm39,32.76A4.06,4.06,0,0,1,471.4,506c-1.92-.15-3.25-1.62-4.18-2.54l-1.7-1.68a25.8,25.8,0,0,0,4.26-3c.93,1.49,1.24,2.35,3.07,3.4a10.88,10.88,0,0,0,2.56,1.05A3,3,0,0,1,474.68,504.7ZM492,503.07c-1.8,2.12-3.87,2.31-6.5-.14-.41-.37-.81-.76-1.22-1.14a11.28,11.28,0,0,0,1.64-1.3c1.51-1.46,3-2.94,4.5-4.4l.48.48C493.39,499.06,493.72,501.07,492,503.07Zm12.56-6.57c-1.82,2.49-4.6,2.54-7.1.06-1.24-1.23-2.47-2.48-3.72-3.71,2.05-2,4.1-4,6.14-6l3.45,3.45C505.56,492.54,505.94,494.64,504.57,496.5Zm5.09-14.72A4.2,4.2,0,0,1,503.8,484a6.49,6.49,0,0,1-.62-.39c2-2,3.92-3.92,5.87-5.88A3.81,3.81,0,0,1,509.66,481.78Zm12.89-35a22.22,22.22,0,0,1-.09,2.84,21.51,21.51,0,0,1-.56,3.32,29.34,29.34,0,0,1-7.64,13c-5,5.25-10.21,10.27-15.33,15.39-5.38,5.38-10.73,10.77-16.15,16.1-.93.92-2.26,2.39-4.18,2.53a4,4,0,0,1-3.27-1.31c-.84-.79-1.11-2.79-.79-4a9.31,9.31,0,0,1,2.59-3.64c2.45-2.51,4.94-5,7.42-7.45q1.8-1.81,3.59-3.65c1.26-1.31,5-4.06,2.88-6-1.9-1.78-4.62,1.65-5.76,2.8s-2.42,2.42-3.64,3.61c-5.69,5.56-11.3,11.19-17.12,16.59-2.64,2.45-4.7,2.26-6.51.14s-1.38-4,1.11-6.5l19.33-19.35c.91-.9,1.69-1.5,1.85-2.88.13-1-.25-1.92-1.3-2.08-1.77-.27-2.54.41-3.68,1.55q-11.39,11.37-22.77,22.75c-2.49,2.48-5.28,2.43-7.1-.06-1.36-1.86-1-4,1.24-6.19q11.54-11.6,23.13-23.13c1.26-1.26,2.25-2.66.71-4.11s-2.75-.16-3.88,1q-8.89,8.94-17.83,17.83a12.46,12.46,0,0,1-2.59,2.12,4.21,4.21,0,0,1-5.87-2.21c-.95-2.37.27-3.88,1.78-5.38q14.79-14.75,29.5-29.57l4,4.06a7.06,7.06,0,0,0,10,0l.77-.77a7,7,0,0,0,.24-9.71l-9-9h0l-1.76-1.77,2.4-2.41a17.34,17.34,0,0,1,9.73-3.94,17.56,17.56,0,0,1,9.39,2.16l2.65-2.65,8.42-8.42,26.25,26.25Z" transform="translate(-410.71 -403.81)"/></svg>