<svg xmlns="http://www.w3.org/2000/svg" xmlns:xlink="http://www.w3.org/1999/xlink" viewBox="0 0 2201.55 1409.61"><defs><style>.cls-1{mask:url(#mask);}.cls-10,.cls-12,.cls-14,.cls-16,.cls-2,.cls-4,.cls-54,.cls-6,.cls-8{mix-blend-mode:multiply;}.cls-2{fill:url(#linear-gradient);}.cls-3{mask:url(#mask-2);}.cls-4{fill:url(#linear-gradient-2);}.cls-5{mask:url(#mask-3);}.cls-6{fill:url(#linear-gradient-3);}.cls-7{mask:url(#mask-4);}.cls-8{fill:url(#New_Gradient_Swatch_9);}.cls-9{mask:url(#mask-5);}.cls-10{fill:url(#linear-gradient-4);}.cls-11{mask:url(#mask-6);}.cls-12{fill:url(#linear-gradient-5);}.cls-13{mask:url(#mask-7);}.cls-14{fill:url(#linear-gradient-6);}.cls-15{mask:url(#mask-8);}.cls-16{fill:url(#linear-gradient-7);}.cls-17{fill:#9bd7ee;}.cls-18{isolation:isolate;}.cls-19{fill:#beeaf0;}.cls-20{fill:#9bd5db;}.cls-21{fill:url(#New_Gradient_Swatch_5);}.cls-22{opacity:0.31;}.cls-23,.cls-25,.cls-26,.cls-44,.cls-46{fill:none;}.cls-23,.cls-25{stroke:#4a2382;}.cls-23,.cls-25,.cls-26,.cls-44,.cls-46,.cls-59,.cls-72,.cls-73{stroke-miterlimit:10;}.cls-23{stroke-width:6.51px;}.cls-24{fill:url(#New_Gradient_Swatch_8);}.cls-25{stroke-width:5.62px;}.cls-26{stroke:#737373;stroke-width:7.1px;}.cls-27{fill:#63ad55;}.cls-28{opacity:0.27;}.cls-29{mask:url(#mask-9);}.cls-30{fill:url(#linear-gradient-8);}.cls-31{mask:url(#mask-10);}.cls-32{fill:url(#linear-gradient-9);}.cls-33{mask:url(#mask-11);}.cls-34{fill:url(#linear-gradient-10);}.cls-35{mask:url(#mask-12);}.cls-36{fill:url(#linear-gradient-11);}.cls-37{mask:url(#mask-13);}.cls-38{fill:url(#linear-gradient-12);}.cls-39{mask:url(#mask-14);}.cls-40{fill:url(#linear-gradient-13);}.cls-41{mask:url(#mask-15);}.cls-42{fill:url(#linear-gradient-14);}.cls-43,.cls-57,.cls-59{opacity:0.33;}.cls-43{mix-blend-mode:screen;}.cls-44,.cls-59{stroke:#fff;}.cls-44{stroke-linecap:round;stroke-width:2.84px;}.cls-45{fill:url(#linear-gradient-15);}.cls-46{stroke:#916827;stroke-width:6.65px;}.cls-47{fill:#424242;}.cls-48{fill:url(#New_Gradient_Swatch_8-2);}.cls-49{mask:url(#mask-16);}.cls-50{opacity:0.34;fill:url(#New_Gradient_Swatch_7);}.cls-51{fill:#6b6b6b;}.cls-52{fill:#6e6e6e;}.cls-53{fill:#999;}.cls-54{fill:#2e3191;opacity:0.25;}.cls-55{fill:#4a4a4a;}.cls-56{fill:url(#New_Gradient_Swatch_11);}.cls-58,.cls-59,.cls-60,.cls-72,.cls-73{fill:#fff;}.cls-59{stroke-linecap:square;stroke-width:12.85px;}.cls-60,.cls-71{opacity:0.18;}.cls-61{clip-path:url(#clip-path);}.cls-62{fill:url(#New_Gradient_Swatch_8-3);}.cls-63{fill:url(#New_Gradient_Swatch_6);}.cls-64{fill:url(#New_Gradient_Swatch_4);}.cls-65{fill:url(#New_Gradient_Swatch_11-2);}.cls-66{fill:#c1b49a;}.cls-67{fill:#9a8479;}.cls-68{fill:url(#New_Gradient_Swatch_3);}.cls-69{fill:url(#New_Gradient_Swatch_6-2);}.cls-70{fill:#808184;}.cls-72,.cls-73{stroke:#858585;}.cls-72{stroke-width:6.49px;}.cls-73{stroke-width:7.93px;}.cls-74{filter:url(#luminosity-noclip-16);}.cls-75{filter:url(#luminosity-noclip-15);}.cls-76{filter:url(#luminosity-noclip-14);}.cls-77{filter:url(#luminosity-noclip-13);}.cls-78{filter:url(#luminosity-noclip-12);}.cls-79{filter:url(#luminosity-noclip-11);}.cls-80{filter:url(#luminosity-noclip-10);}.cls-81{filter:url(#luminosity-noclip-9);}.cls-82{filter:url(#luminosity-noclip-8);}.cls-83{filter:url(#luminosity-noclip-7);}.cls-84{filter:url(#luminosity-noclip-6);}.cls-85{filter:url(#luminosity-noclip-5);}.cls-86{filter:url(#luminosity-noclip-4);}.cls-87{filter:url(#luminosity-noclip-3);}.cls-88{filter:url(#luminosity-noclip-2);}.cls-89{filter:url(#luminosity-noclip);}</style><filter id="luminosity-noclip" x="1706.84" y="-9109" width="537.28" height="32766" filterUnits="userSpaceOnUse" color-interpolation-filters="sRGB"><feFlood flood-color="#fff" result="bg"/><feBlend in="SourceGraphic" in2="bg"/></filter><mask id="mask" x="1706.84" y="-9109" width="537.28" height="32766" maskUnits="userSpaceOnUse"><g class="cls-89"/></mask><linearGradient id="linear-gradient" x1="1706.84" y1="1300.87" x2="2244.12" y2="1300.87" gradientUnits="userSpaceOnUse"><stop offset="0"/><stop offset="0.21" stop-color="#030303"/><stop offset="0.34" stop-color="#0b0b0b"/><stop offset="0.46" stop-color="#1a1a1a"/><stop offset="0.56" stop-color="#2f2f2f"/><stop offset="0.66" stop-color="#4a4a4a"/><stop offset="0.74" stop-color="#6c6c6c"/><stop offset="0.83" stop-color="#949494"/><stop offset="0.91" stop-color="#c2c2c2"/><stop offset="0.99" stop-color="#f4f4f4"/><stop offset="1" stop-color="#fff"/></linearGradient><filter id="luminosity-noclip-2" x="1994.56" y="-9109" width="321.27" height="32766" filterUnits="userSpaceOnUse" color-interpolation-filters="sRGB"><feFlood flood-color="#fff" result="bg"/><feBlend in="SourceGraphic" in2="bg"/></filter><mask id="mask-2" x="1994.56" y="-9109" width="321.27" height="32766" maskUnits="userSpaceOnUse"><g class="cls-88"/></mask><linearGradient id="linear-gradient-2" x1="1994.56" y1="805.42" x2="2315.83" y2="805.42" xlink:href="#linear-gradient"/><filter id="luminosity-noclip-3" x="1569.04" y="-9109" width="176.52" height="32766" filterUnits="userSpaceOnUse" color-interpolation-filters="sRGB"><feFlood flood-color="#fff" result="bg"/><feBlend in="SourceGraphic" in2="bg"/></filter><mask id="mask-3" x="1569.04" y="-9109" width="176.52" height="32766" maskUnits="userSpaceOnUse"><g class="cls-87"/></mask><linearGradient id="linear-gradient-3" x1="1569.04" y1="913.34" x2="1745.56" y2="913.34" xlink:href="#linear-gradient"/><filter id="luminosity-noclip-4" x="1020.95" y="-9109" width="852.3" height="32766" filterUnits="userSpaceOnUse" color-interpolation-filters="sRGB"><feFlood flood-color="#fff" result="bg"/><feBlend in="SourceGraphic" in2="bg"/></filter><mask id="mask-4" x="1020.95" y="-9109" width="852.3" height="32766" maskUnits="userSpaceOnUse"><g class="cls-86"/></mask><linearGradient id="New_Gradient_Swatch_9" x1="1447.1" y1="887.97" x2="1447.1" y2="236.9" gradientUnits="userSpaceOnUse"><stop offset="0"/><stop offset="1" stop-color="#fff"/></linearGradient><filter id="luminosity-noclip-5" x="1772.56" y="-9109" width="164.83" height="32766" filterUnits="userSpaceOnUse" color-interpolation-filters="sRGB"><feFlood flood-color="#fff" result="bg"/><feBlend in="SourceGraphic" in2="bg"/></filter><mask id="mask-5" x="1772.56" y="-9109" width="164.83" height="32766" maskUnits="userSpaceOnUse"><g class="cls-85"/></mask><linearGradient id="linear-gradient-4" x1="1772.56" y1="840.73" x2="1937.39" y2="840.73" xlink:href="#linear-gradient"/><filter id="luminosity-noclip-6" x="1807.52" y="-9109" width="502.08" height="32766" filterUnits="userSpaceOnUse" color-interpolation-filters="sRGB"><feFlood flood-color="#fff" result="bg"/><feBlend in="SourceGraphic" in2="bg"/></filter><mask id="mask-6" x="1807.52" y="-9109" width="502.08" height="32766" maskUnits="userSpaceOnUse"><g class="cls-84"/></mask><linearGradient id="linear-gradient-5" x1="1807.52" y1="1127.44" x2="2309.6" y2="1127.44" xlink:href="#linear-gradient"/><filter id="luminosity-noclip-7" x="1983.14" y="-9109" width="402.86" height="32766" filterUnits="userSpaceOnUse" color-interpolation-filters="sRGB"><feFlood flood-color="#fff" result="bg"/><feBlend in="SourceGraphic" in2="bg"/></filter><mask id="mask-7" x="1983.14" y="-9109" width="402.86" height="32766" maskUnits="userSpaceOnUse"><g class="cls-83"/></mask><linearGradient id="linear-gradient-6" x1="1983.14" y1="951.34" x2="2386" y2="951.34" xlink:href="#linear-gradient"/><filter id="luminosity-noclip-8" x="1905.08" y="-9109" width="209.94" height="32766" filterUnits="userSpaceOnUse" color-interpolation-filters="sRGB"><feFlood flood-color="#fff" result="bg"/><feBlend in="SourceGraphic" in2="bg"/></filter><mask id="mask-8" x="1905.08" y="-9109" width="209.94" height="32766" maskUnits="userSpaceOnUse"><g class="cls-82"/></mask><linearGradient id="linear-gradient-7" x1="1905.08" y1="812.62" x2="2115.03" y2="812.62" xlink:href="#linear-gradient"/><linearGradient id="New_Gradient_Swatch_5" x1="184.45" y1="1179" x2="782.28" y2="1179" gradientUnits="userSpaceOnUse"><stop offset="0" stop-color="#ed79b5"/><stop offset="1" stop-color="#e5cdeb"/></linearGradient><linearGradient id="New_Gradient_Swatch_8" x1="339.01" y1="979.15" x2="657.85" y2="979.15" gradientUnits="userSpaceOnUse"><stop offset="0" stop-color="#5871ed"/><stop offset="1" stop-color="#9ba0eb"/></linearGradient><filter id="luminosity-noclip-9" x="1706.84" y="1200.05" width="537.28" height="201.62" filterUnits="userSpaceOnUse" color-interpolation-filters="sRGB"><feFlood flood-color="#fff" result="bg"/><feBlend in="SourceGraphic" in2="bg"/></filter><mask id="mask-9" x="1522.4" y="962.05" width="537.28" height="201.62" maskUnits="userSpaceOnUse"><g class="cls-81"><g transform="translate(-184.45 -238.01)"><g class="cls-1"><path class="cls-2" d="M1706.84,1201.11s622-23.34,527.52,149.59S1706.84,1201.11,1706.84,1201.11Z"/></g></g></g></mask><linearGradient id="linear-gradient-8" x1="1706.84" y1="1300.87" x2="2244.12" y2="1300.87" gradientUnits="userSpaceOnUse"><stop offset="0" stop-color="#fff"/><stop offset="0.26" stop-color="#fcfeff"/><stop offset="0.43" stop-color="#f4fcff"/><stop offset="0.57" stop-color="#e5f9ff"/><stop offset="0.7" stop-color="#d0f4ff"/><stop offset="0.82" stop-color="#b5eeff"/><stop offset="0.92" stop-color="#94e6ff"/><stop offset="1" stop-color="#78e0ff"/></linearGradient><filter id="luminosity-noclip-10" x="1772.56" y="592.38" width="164.83" height="496.7" filterUnits="userSpaceOnUse" color-interpolation-filters="sRGB"><feFlood flood-color="#fff" result="bg"/><feBlend in="SourceGraphic" in2="bg"/></filter><mask id="mask-10" x="1588.12" y="354.37" width="164.83" height="496.7" maskUnits="userSpaceOnUse"><g class="cls-80"><g transform="translate(-184.45 -238.01)"><g class="cls-9"><path class="cls-10" d="M1786,1089.08s-66.62-563.29,97.37-490.15S1786,1089.08,1786,1089.08Z"/></g></g></g></mask><linearGradient id="linear-gradient-9" x1="1772.56" y1="840.73" x2="1937.39" y2="840.73" xlink:href="#linear-gradient-8"/><filter id="luminosity-noclip-11" x="1807.52" y="1049.91" width="502.08" height="155.08" filterUnits="userSpaceOnUse" color-interpolation-filters="sRGB"><feFlood flood-color="#fff" result="bg"/><feBlend in="SourceGraphic" in2="bg"/></filter><mask id="mask-11" x="1623.08" y="811.9" width="502.08" height="155.08" maskUnits="userSpaceOnUse"><g class="cls-79"><g transform="translate(-184.45 -238.01)"><g class="cls-11"><path class="cls-12" d="M1807.52,1120s542.94-164.17,499.62,10.09S1807.52,1120,1807.52,1120Z"/></g></g></g></mask><linearGradient id="linear-gradient-10" x1="1807.52" y1="1127.44" x2="2309.6" y2="1127.44" xlink:href="#linear-gradient-8"/><filter id="luminosity-noclip-12" x="1983.14" y="877.89" width="402.86" height="146.89" filterUnits="userSpaceOnUse" color-interpolation-filters="sRGB"><feFlood flood-color="#fff" result="bg"/><feBlend in="SourceGraphic" in2="bg"/></filter><mask id="mask-12" x="1798.7" y="639.89" width="402.86" height="146.89" maskUnits="userSpaceOnUse"><g class="cls-78"><g transform="translate(-184.45 -238.01)"><g class="cls-13"><path class="cls-14" d="M1983.14,1003.78S2423.26,778.14,2383.45,931,1983.14,1003.78,1983.14,1003.78Z"/></g></g></g></mask><linearGradient id="linear-gradient-11" x1="1983.14" y1="951.34" x2="2386" y2="951.34" xlink:href="#linear-gradient-8"/><filter id="luminosity-noclip-13" x="1905.08" y="625.08" width="209.94" height="375.09" filterUnits="userSpaceOnUse" color-interpolation-filters="sRGB"><feFlood flood-color="#fff" result="bg"/><feBlend in="SourceGraphic" in2="bg"/></filter><mask id="mask-13" x="1720.64" y="387.07" width="209.94" height="375.09" maskUnits="userSpaceOnUse"><g class="cls-77"><g transform="translate(-184.45 -238.01)"><g class="cls-15"><path class="cls-16" d="M1905.08,1000.16s72.27-456,184.57-362.44S1905.08,1000.16,1905.08,1000.16Z"/></g></g></g></mask><linearGradient id="linear-gradient-12" x1="1905.08" y1="812.62" x2="2115.03" y2="812.62" xlink:href="#linear-gradient-8"/><filter id="luminosity-noclip-14" x="1994.56" y="662.56" width="321.27" height="285.74" filterUnits="userSpaceOnUse" color-interpolation-filters="sRGB"><feFlood flood-color="#fff" result="bg"/><feBlend in="SourceGraphic" in2="bg"/></filter><mask id="mask-14" x="1810.11" y="424.55" width="321.27" height="285.74" maskUnits="userSpaceOnUse"><g class="cls-76"><g transform="translate(-184.45 -238.01)"><g class="cls-3"><path class="cls-4" d="M1994.56,948.29s247.83-389.5,313.61-259S1994.56,948.29,1994.56,948.29Z"/></g></g></g></mask><linearGradient id="linear-gradient-13" x1="1994.56" y1="805.42" x2="2315.83" y2="805.42" xlink:href="#linear-gradient-8"/><filter id="luminosity-noclip-15" x="1569.04" y="639.61" width="176.52" height="547.45" filterUnits="userSpaceOnUse" color-interpolation-filters="sRGB"><feFlood flood-color="#fff" result="bg"/><feBlend in="SourceGraphic" in2="bg"/></filter><mask id="mask-15" x="1384.6" y="401.6" width="176.52" height="547.45" maskUnits="userSpaceOnUse"><g class="cls-75"><g transform="translate(-184.45 -238.01)"><g class="cls-5"><path class="cls-6" d="M1690.42,1187.06s-240.05-574.22-45-546.47S1690.42,1187.06,1690.42,1187.06Z"/></g></g></g></mask><linearGradient id="linear-gradient-14" x1="1569.04" y1="913.34" x2="1745.56" y2="913.34" xlink:href="#linear-gradient-8"/><linearGradient id="linear-gradient-15" x1="1402.47" y1="983.89" x2="1768.4" y2="983.89" gradientTransform="translate(1896.51 -1245.45) rotate(62.01)" gradientUnits="userSpaceOnUse"><stop offset="0" stop-color="#ffe887"/><stop offset="0.38" stop-color="#f7c359"/><stop offset="0.79" stop-color="#f0a02e"/><stop offset="1" stop-color="#ed931d"/></linearGradient><linearGradient id="New_Gradient_Swatch_8-2" x1="661.25" y1="1029.68" x2="1211.71" y2="610.58" xlink:href="#New_Gradient_Swatch_8"/><filter id="luminosity-noclip-16" x="1020.95" y="563.73" width="852.3" height="750.78" filterUnits="userSpaceOnUse" color-interpolation-filters="sRGB"><feFlood flood-color="#fff" result="bg"/><feBlend in="SourceGraphic" in2="bg"/></filter><mask id="mask-16" x="836.5" y="325.72" width="852.3" height="750.78" maskUnits="userSpaceOnUse"><g class="cls-74"><g transform="translate(-184.45 -238.01)"><g class="cls-7"><polygon class="cls-8" points="1873.25 1314.51 1020.95 1314.51 1459.19 563.73 1873.25 563.73 1873.25 1314.51"/></g></g></g></mask><linearGradient id="New_Gradient_Swatch_7" x1="1262.66" y1="649.97" x2="1262.66" y2="-1.11" gradientUnits="userSpaceOnUse"><stop offset="0" stop-color="#fff"/><stop offset="1" stop-color="#fff"/></linearGradient><linearGradient id="New_Gradient_Swatch_11" x1="1305.45" y1="55.81" x2="757.49" y2="228.47" gradientUnits="userSpaceOnUse"><stop offset="0" stop-color="#a586eb"/><stop offset="0.48" stop-color="#c680d2"/><stop offset="1" stop-color="#ed79b5"/></linearGradient><clipPath id="clip-path" transform="translate(-184.45 -238.01)"><rect class="cls-17" x="611.8" y="528.93" width="437.07" height="437.07"/></clipPath><linearGradient id="New_Gradient_Swatch_8-3" x1="779.68" y1="993.51" x2="921.29" y2="753.87" xlink:href="#New_Gradient_Swatch_8"/><linearGradient id="New_Gradient_Swatch_6" x1="745.01" y1="388.52" x2="821.01" y2="498.05" gradientUnits="userSpaceOnUse"><stop offset="0" stop-color="#ffe887"/><stop offset="0.17" stop-color="#fddf7b"/><stop offset="0.49" stop-color="#f8c65d"/><stop offset="0.9" stop-color="#ef9e2b"/><stop offset="1" stop-color="#ed931d"/></linearGradient><linearGradient id="New_Gradient_Swatch_4" x1="991.62" y1="302.93" x2="996.74" y2="703.88" gradientUnits="userSpaceOnUse"><stop offset="0" stop-color="#2d4ded"/><stop offset="1" stop-color="#e5cdeb"/></linearGradient><linearGradient id="New_Gradient_Swatch_11-2" x1="1115.43" y1="471.49" x2="1190.01" y2="471.49" xlink:href="#New_Gradient_Swatch_11"/><linearGradient id="New_Gradient_Swatch_3" x1="977.04" y1="355.67" x2="1029" y2="267.74" xlink:href="#New_Gradient_Swatch_11"/><linearGradient id="New_Gradient_Swatch_6-2" x1="1122.72" y1="355.67" x2="1174.68" y2="267.74" xlink:href="#New_Gradient_Swatch_6"/></defs><title>image-editor</title><g class="cls-18"><g id="Layer_1" data-name="Layer 1"><path class="cls-19" d="M1970.84,1070.94c-13.46,25.8-30.85,46.07-48.6,66.94q-8.49,10-17.74,19.28c-2.77,2.78-5.51,5.51-8.25,8.24-35.36,35.3-78,62.38-125.11,78.27-1.5.51-3,1-4.52,1.49-44.42,14-89.53,24-137,24.93-48.17,2.9-96.92,1.11-147.08-1.58q-9.63-.51-19.29-.44c-20.59.13-39.91.38-59.15,3.12-76.79,7.55-139.58,43.87-194.91,92-27.67,24.06-53.51,51-78.37,78.53-86.25,118.76-211.31,224-368.48,203.33-13.61-1.47-26.3-3.1-39.91-4.57-22.75-4.69-45.34-8.44-67.65-16.11-12.24-4.6-24.33-8.28-36.57-12.88-48.2-19.54-88.55-43.37-128.66-76.9A261.9,261.9,0,0,1,460,1506.9c-23.2-23.94-41.44-46.83-57.39-73-68.15-107.87-34.74-235.58-20.9-355,1.87-19.67.42-39.23-3-58.47-9-70.59-27.86-142.31-12.75-211.88q4.37-21.43,9.86-42.51A251.12,251.12,0,0,1,406.13,686a273.86,273.86,0,0,1,24.32-34.79c52-61.86,137-79.38,213.74-87.1C717,557,788.81,550.54,858.28,530.68c15.73-4.26,31.34-8.87,46.53-15.21a193.66,193.66,0,0,0,43.91-25.53q25.41-18.79,50.41-38.05t49.94-38.53c17.27-14.54,35.2-28.44,53.73-41.49s37.63-25.27,57.26-36.46c118.68-67.28,257.32-114.35,389-91.61C2054.91,331.08,2060.17,899.74,1970.84,1070.94Z" transform="translate(-184.45 -238.01)"/><path class="cls-19" d="M919.36,378.92A121.67,121.67,0,0,1,892,467.28a128.9,128.9,0,0,1-81.19,45.2c-33,4.93-64.19-1.46-87.69-16.05s-39.63-40.93-42.85-77.36A152.25,152.25,0,0,1,685.4,365,143.06,143.06,0,0,1,708,318.44c19.94-26.87,48.72-45,81.67-48.61s63.89,7.18,87.34,27A121.1,121.1,0,0,1,919.36,378.92Z" transform="translate(-184.45 -238.01)"/><ellipse class="cls-19" cx="1106.4" cy="1277.95" rx="49.47" ry="50.12"/><ellipse class="cls-19" cx="1025.38" cy="1345.27" rx="31.83" ry="32.25"/><ellipse class="cls-20" cx="1155.88" cy="1186.56" rx="894.07" ry="68.36"/></g><g id="Layer_2" data-name="Layer 2"><path class="cls-21" d="M782.28,1383.34c-52.13-26.38-106-4.48-159.25,9.72-56.82,14.8-90.56-42-131-69.92a230.3,230.3,0,0,0-24.95-16.75c-17.25-9.87-36-16.71-57.69-18.09-23.08-1.77-46.17.59-69.31-1.71a116.23,116.23,0,0,1-25.64-5.73,100.29,100.29,0,0,1-24.6-12.68c-56.82-39.65-63.33-110.08-92.92-165.49-5.65-12.24-10-23.39-11.7-34.38-3.38-22,4.45-43.82,26.78-65a118.73,118.73,0,0,1,35.89-23.73c85.15-20.33,201.74-38.09,262.7,44.18a219.06,219.06,0,0,1,15,23.13c4.46,7.86,8.49,15.85,12.5,23.84,14,30.56,35.86,57.19,68.41,68.44,52.09,18.94,117.78,33.14,130.8,98.84,8.29,44.38,11.84,87.59,33.49,125.93C778,1376.48,782.28,1383.34,782.28,1383.34Z" transform="translate(-184.45 -238.01)"/><g class="cls-22"><path class="cls-23" d="M717.6,1363.49s-92.72-79.93-208.81-161.06S277.11,1072,277.11,1072" transform="translate(-184.45 -238.01)"/><line class="cls-23" x1="113.23" y1="938.61" x2="222.55" y2="900.15"/><line class="cls-23" x1="238.1" y1="801.32" x2="306.46" y2="952.17"/><line class="cls-23" x1="286.54" y1="1015.74" x2="366.89" y2="994.82"/></g><path class="cls-24" d="M651.78,1268.43c-24.24-18.36-492-374.32-236.86-542.27C707.32,533.68,656.07,1164.61,651.78,1268.43Z" transform="translate(-184.45 -238.01)"/><g class="cls-22"><path class="cls-25" d="M642,1205.37s-32.16-100.7-81-212.82S449.33,791.93,449.33,791.93" transform="translate(-184.45 -238.01)"/><line class="cls-25" x1="240.85" y1="621.75" x2="330.62" y2="661.27"/><line class="cls-25" x1="374.31" y1="553.93" x2="368.9" y2="737.44"/><line class="cls-25" x1="279.08" y1="751.79" x2="394.12" y2="796.12"/></g><path class="cls-26" d="M1492.5,1394.25s89.63-112.9,251.11-253.49,292-219.38,292-219.38" transform="translate(-184.45 -238.01)"/><path class="cls-27" d="M1706.84,1201.11s622-23.34,527.52,149.59S1706.84,1201.11,1706.84,1201.11Z" transform="translate(-184.45 -238.01)"/><path class="cls-27" d="M1786,1089.08s-66.62-563.29,97.37-490.15S1786,1089.08,1786,1089.08Z" transform="translate(-184.45 -238.01)"/><path class="cls-27" d="M1807.52,1120s542.94-164.17,499.62,10.09S1807.52,1120,1807.52,1120Z" transform="translate(-184.45 -238.01)"/><path class="cls-27" d="M1983.14,1003.78S2423.26,778.14,2383.45,931,1983.14,1003.78,1983.14,1003.78Z" transform="translate(-184.45 -238.01)"/><path class="cls-27" d="M1905.08,1000.16s72.27-456,184.57-362.44S1905.08,1000.16,1905.08,1000.16Z" transform="translate(-184.45 -238.01)"/><path class="cls-27" d="M1994.56,948.29s247.83-389.5,313.61-259S1994.56,948.29,1994.56,948.29Z" transform="translate(-184.45 -238.01)"/><path class="cls-27" d="M1690.42,1187.06s-240.05-574.22-45-546.47S1690.42,1187.06,1690.42,1187.06Z" transform="translate(-184.45 -238.01)"/><g class="cls-28"><g class="cls-29"><path class="cls-30" d="M1706.84,1201.11s622-23.34,527.52,149.59S1706.84,1201.11,1706.84,1201.11Z" transform="translate(-184.45 -238.01)"/></g><g class="cls-31"><path class="cls-32" d="M1786,1089.08s-66.62-563.29,97.37-490.15S1786,1089.08,1786,1089.08Z" transform="translate(-184.45 -238.01)"/></g><g class="cls-33"><path class="cls-34" d="M1807.52,1120s542.94-164.17,499.62,10.09S1807.52,1120,1807.52,1120Z" transform="translate(-184.45 -238.01)"/></g><g class="cls-35"><path class="cls-36" d="M1983.14,1003.78S2423.26,778.14,2383.45,931,1983.14,1003.78,1983.14,1003.78Z" transform="translate(-184.45 -238.01)"/></g><g class="cls-37"><path class="cls-38" d="M1905.08,1000.16s72.27-456,184.57-362.44S1905.08,1000.16,1905.08,1000.16Z" transform="translate(-184.45 -238.01)"/></g><g class="cls-39"><path class="cls-40" d="M1994.56,948.29s247.83-389.5,313.61-259S1994.56,948.29,1994.56,948.29Z" transform="translate(-184.45 -238.01)"/></g><g class="cls-41"><path class="cls-42" d="M1690.42,1187.06s-240.05-574.22-45-546.47S1690.42,1187.06,1690.42,1187.06Z" transform="translate(-184.45 -238.01)"/></g></g><g class="cls-43"><path class="cls-44" d="M1684.36,1153.15s16.69-92.47.55-215.54-43.42-215.74-43.42-215.74" transform="translate(-184.45 -238.01)"/><path class="cls-44" d="M1791.3,1059.8s77.48-232.64,81.49-356.93" transform="translate(-184.45 -238.01)"/><path class="cls-44" d="M1919.11,980.46s134-238.29,144.69-279.18" transform="translate(-184.45 -238.01)"/><path class="cls-44" d="M2051.06,909.33S2237.87,747.1,2274.42,723" transform="translate(-184.45 -238.01)"/><path class="cls-44" d="M1997.35,996.65s232.21-9.58,313.69-51.77" transform="translate(-184.45 -238.01)"/><path class="cls-44" d="M1856.52,1119.28s229.24,32.92,345.81,14.5" transform="translate(-184.45 -238.01)"/><path class="cls-44" d="M1749.73,1214.46s350.72,139,445.42,118.85" transform="translate(-184.45 -238.01)"/></g><path class="cls-45" d="M1556.93,898.82c5.72-35.51,18-554.46,434.91-548.53C2250.83,725.52,1667.76,845.65,1556.93,898.82Z" transform="translate(-184.45 -238.01)"/><g class="cls-22"><path class="cls-46" d="M1617.34,853.53s87.32-89.5,177.35-202.76,147.56-228,147.56-228" transform="translate(-184.45 -238.01)"/><path class="cls-46" d="M1808.31,633.31" transform="translate(-184.45 -238.01)"/></g></g><g id="Layer_3" data-name="Layer 3"><rect class="cls-47" x="439.48" y="268.91" width="1306.65" height="914.47" rx="50.67"/><rect class="cls-48" x="496.8" y="325.72" width="1192.01" height="750.78"/><g class="cls-49"><polygon class="cls-50" points="1688.81 1076.5 836.5 1076.5 1274.74 325.72 1688.81 325.72 1688.81 1076.5"/></g><path class="cls-51" d="M1289.28,536.16a12,12,0,1,1-12-12A12,12,0,0,1,1289.28,536.16Z" transform="translate(-184.45 -238.01)"/><rect class="cls-52" x="262.94" y="1127.02" width="1659.73" height="62.88" rx="9.38"/><path class="cls-53" d="M952.5,1127h283.91a0,0,0,0,1,0,0v2.14a24.12,24.12,0,0,1-24.12,24.12H976.61a24.12,24.12,0,0,1-24.12-24.12V1127A0,0,0,0,1,952.5,1127Z"/><rect class="cls-54" x="423.3" y="261.87" width="1183.56" height="769.36"/><rect class="cls-55" x="358.56" y="145.79" width="1183.56" height="823.99"/><rect class="cls-56" x="358.56" y="120.28" width="1183.56" height="94.86"/><g class="cls-57"><circle class="cls-58" cx="396.69" cy="166.63" r="13.05"/><path class="cls-58" d="M634.45,404.64a13,13,0,1,1-13.05-13.05A13,13,0,0,1,634.45,404.64Z" transform="translate(-184.45 -238.01)"/><circle class="cls-58" cx="477.23" cy="166.63" r="13.05"/></g><line class="cls-59" x1="751.84" y1="165.31" x2="1170.9" y2="165.31"/><rect class="cls-60" x="404.62" y="268.19" width="482.53" height="482.53"/><rect class="cls-17" x="427.35" y="290.92" width="437.07" height="437.07"/><g class="cls-61"><path class="cls-62" d="M568.86,830.13s82-203.61,144.56-203.61S861.69,840.87,861.69,840.87s74.6-93.41,105-93.41c41,0,116.24,137.1,116.24,137.1l-11.38,154.77-496.9-14.55Z" transform="translate(-184.45 -238.01)"/><circle class="cls-63" cx="744.63" cy="387.98" r="52.56"/></g><rect class="cls-64" x="934.61" y="412.32" width="118.33" height="118.33"/><rect class="cls-65" x="1080.28" y="412.32" width="118.33" height="118.33"/><rect class="cls-66" x="1225.96" y="412.32" width="118.33" height="118.33"/><rect class="cls-67" x="1371.63" y="412.32" width="118.33" height="118.33"/><rect class="cls-68" x="934.61" y="268.19" width="118.33" height="118.33"/><rect class="cls-69" x="1080.28" y="268.19" width="118.33" height="118.33"/><rect class="cls-17" x="1225.96" y="268.19" width="118.33" height="118.33"/><rect class="cls-70" x="1371.63" y="268.19" width="118.33" height="118.33"/><rect class="cls-60" x="934.61" y="569.58" width="555.36" height="182.21"/><rect class="cls-60" x="404.62" y="790.72" width="1085.35" height="140.85"/><g class="cls-71"><rect class="cls-58" x="964.25" y="604.51" width="110.74" height="49.08"/><rect class="cls-58" x="1092.08" y="604.51" width="110.74" height="49.08"/><rect class="cls-58" x="1219.91" y="604.51" width="110.74" height="49.08"/></g><g class="cls-71"><rect class="cls-58" x="964.25" y="670.57" width="110.74" height="49.08"/><rect class="cls-58" x="1092.08" y="670.57" width="110.74" height="49.08"/><rect class="cls-58" x="1219.91" y="670.57" width="110.74" height="49.08"/></g><line class="cls-72" x1="1352.22" y1="612.44" x2="1462.22" y2="612.44"/><line class="cls-72" x1="1352.22" y1="628.63" x2="1462.22" y2="628.63"/><line class="cls-72" x1="1352.22" y1="644.83" x2="1432.89" y2="644.83"/><line class="cls-72" x1="1352.22" y1="677.29" x2="1462.22" y2="677.29"/><line class="cls-72" x1="1352.22" y1="693.48" x2="1462.22" y2="693.48"/><line class="cls-72" x1="1387.91" y1="709.68" x2="1462.22" y2="709.68"/><line class="cls-73" x1="471.92" y1="837.59" x2="901.56" y2="837.59"/><line class="cls-73" x1="471.92" y1="880.35" x2="901.56" y2="880.35"/><line class="cls-73" x1="990.79" y1="837.59" x2="1420.44" y2="837.59"/><line class="cls-73" x1="990.79" y1="880.35" x2="1420.44" y2="880.35"/><line class="cls-73" x1="546.06" y1="825.79" x2="546.06" y2="848.51"/><line class="cls-73" x1="661.86" y1="869.65" x2="661.86" y2="892.36"/><line class="cls-73" x1="1232.5" y1="825.79" x2="1232.5" y2="848.51"/><line class="cls-73" x1="1189.14" y1="869.15" x2="1189.14" y2="891.86"/></g></g></svg>