<svg id="Layer_1" data-name="Layer 1" xmlns="http://www.w3.org/2000/svg" viewBox="0 0 146.22 146.54"><defs><style>.cls-1{fill:#2cce6d;}</style></defs><title>support</title><path class="cls-1" d="M913.34,613.8c4.24,3.09,17.34,11.33,37.09,11.33,1.35,0,2.72,0,4.12-.12a73.08,73.08,0,0,0,30.6-138.32c-.14-.08-.26-.17-.41-.24l-.29-.12A72.43,72.43,0,0,0,962,479.51c-30.33-4.78-49,10.59-50.09,11.54a73.61,73.61,0,0,0-20.82,21,3.53,3.53,0,0,0-.51.58,38.26,38.26,0,0,0-2.74,4.86,73,73,0,0,0,25.52,96.34ZM952.26,486c2,0,3.87.1,5.77.27a77.65,77.65,0,0,1,20.4,5.27L964,522a31.8,31.8,0,0,0-25.29,3l-19.47-30A65.48,65.48,0,0,1,952.26,486Zm0,43a22.94,22.94,0,1,1-9.81,43.63,31.25,31.25,0,0,1-2.82-1.74,4,4,0,0,0-.8-.41A22.9,22.9,0,0,1,952.26,529Zm58.34,49.73-29.49-15a28.39,28.39,0,0,0-1.27-24.6l27.9-19.41C1012.11,527.05,1021.89,548.47,1010.6,578.75ZM952.26,617.9a65.5,65.5,0,0,1-33.14-9l19.55-30.15.33.16a33.62,33.62,0,0,0,25.23,3.34l14.2,29.89a76,76,0,0,1-25,5.7C953,617.88,952.64,617.9,952.26,617.9Zm-57.57-98,27.66,19.25a28.4,28.4,0,0,0-1.22,24.71l-27,14.82c-11.07-29.51-3.42-50.76.43-58.6Zm32.53,48.79a30.9,30.9,0,0,0,5.48,6.16L913.12,605a66.48,66.48,0,0,1-17.35-19.05ZM985,609.19l-15.47-32.57a30.46,30.46,0,0,0,7.2-7.13l32.11,16.38A66.43,66.43,0,0,1,985,609.19Zm-9.17-76a30.33,30.33,0,0,0-6.37-6l15.47-32.56a66.46,66.46,0,0,1,20.34,18Zm-62.57-34.35,19.57,30.19a30.21,30.21,0,0,0-4.82,5.22l-29.42-20.48A66.4,66.4,0,0,1,913.21,498.86Z" transform="translate(-879.15 -478.59)"/></svg>