<svg id="Layer_1" data-name="Layer 1" xmlns="http://www.w3.org/2000/svg" viewBox="0 0 236.5 175.36"><defs><style>.cls-1{fill:#cfcde0;}.cls-2{fill:#dad8e5;}.cls-3{fill:#fefefe;}.cls-4{fill:#9c9eb9;}.cls-5{fill:#d0d1de;}.cls-6{fill:#110239;}.cls-7{fill:#fd425f;}.cls-8{fill:#01c7e2;}.cls-9{fill:#f88667;}.cls-10{fill:#00a7cc;}.cls-11{fill:#e45940;}.cls-12{fill:#e42244;}</style></defs><title>traffic-computer</title><rect class="cls-1" x="35.08" y="115.97" width="166.35" height="24.43"/><rect class="cls-2" x="19.29" width="197.92" height="132.67" rx="10.2"/><rect class="cls-3" x="28.4" y="8.79" width="179.69" height="113.72"/><path class="cls-1" d="M25.16,199.74v3.63c0,2,2.19,3.63,4.88,3.63H256.79c2.69,0,4.88-1.63,4.88-3.63v-3.63Z" transform="translate(-25.16 -31.64)"/><path class="cls-2" d="M143.41,171.76H46.34c-.33.35-15.59,14-20.25,24.15-2,4.34-.69,6.63,3,6.63H257.72c3.71,0,5-2.29,3-6.63-4.67-10.14-19.93-23.8-20.26-24.15Z" transform="translate(-25.16 -31.64)"/><polygon class="cls-4" points="224.22 165.7 17.38 165.7 31.72 144.48 209.89 144.48 224.22 165.7"/><path class="cls-5" d="M246.87,193.62l-.45-.66h-13.8l-2.57-5.15h12.89l-.45-.66H229.71L227.14,182H239l-.45-.66H226.81l-2.6-5.21H223l2.56,5.21H210.8l-2.07-5.21h-1.19l2,5.21H194.79l-1.54-5.21h-1.19l1.5,5.21H178.78l-1-5.21h-1.19l1,5.21H162.77l-.48-5.21H161.1l.44,5.21h-14v-5.21H146.2v5.21H131.67l.44-5.21h-1.19l-.49,5.21H115.66l1-5.21h-1.19l-1,5.21H99.65l1.5-5.21H100l-1.55,5.21H83.64l2-5.21H84.48l-2.08,5.21H67.63l2.56-5.21H69l-2.61,5.21h-13l-.45.66H66.06l-2.57,5.15H49.44l-.45.66H63.16L60.59,193H45.51l-.45.66h15.2l-1.86,3.73h1.36l1.83-3.73H77.52L76,197.35h1.35l1.46-3.73H94.77l-1.1,3.73H95l1.07-3.73H112l-.72,3.73h1.36l.69-3.73h15.93l-.35,3.73h1.36l.32-3.73H146.2v3.73h1.32v-3.73h15.07l.31,3.73h1.36l-.34-3.73h15.93l.69,3.73h1.36l-.73-3.73H197.1l1.08,3.73h1.36l-1.11-3.73h15.93l1.45,3.73h1.36l-1.48-3.73h15.93l1.83,3.73h1.36L233,193.62ZM83.38,182H98.22l-1.53,5.15H81.37ZM67.3,182H82.14l-2,5.15H64.77Zm10.48,11H61.92l2.53-5.15H79.83ZM95,193H79.11l2-5.15H96.5Zm17.19,0H96.3l1.48-5.15h15.38Zm1.13-5.81H98L99.46,182h14.83ZM129.35,193H113.49l1-5.15h15.38Zm.54-5.81H114.57l1-5.15h14.84ZM146.2,193H130.68l.43-5.15H146.2Zm0-5.81h-15l.44-5.15H146.2Zm1.32-5.15H161.6l.44,5.15H147.52Zm0,11v-5.15h14.57l.44,5.15Zm78.39-11,2.53,5.15H213.11l-2-5.15Zm-16.08,0,2,5.15H196.51L195,182Zm-47,0h14.84l1,5.15H163.32Zm1,11-.48-5.15h15.38l1,5.15Zm15-11h14.84l1.49,5.15H179.91Zm2.14,11-1-5.15h15.39l1.48,5.15Zm17.19,0-1.53-5.15h15.38l2,5.15Zm17.19,0-2.05-5.15h15.38l2.53,5.15Z" transform="translate(-25.16 -31.64)"/><path class="cls-6" d="M143.41,202.54h-10a2,2,0,0,0,.5,1.39,1.13,1.13,0,0,0,.76.28H152.2a1.15,1.15,0,0,0,.76-.28,2.15,2.15,0,0,0,.5-1.39Z" transform="translate(-25.16 -31.64)"/><path class="cls-5" d="M214.29,143.8H72.54V57.3H214.29Zm-139.1-2.64H211.64V60H75.19Z" transform="translate(-25.16 -31.64)"/><rect class="cls-7" x="155.33" y="47.43" width="13.18" height="56.42"/><rect class="cls-5" x="130.9" y="77.9" width="13.18" height="25.94"/><rect class="cls-8" x="106.48" y="71.63" width="13.18" height="32.22"/><rect class="cls-5" x="82.05" y="53.38" width="13.18" height="50.47"/><rect class="cls-5" x="57.62" y="64.46" width="13.18" height="39.39"/><polygon class="cls-6" points="137.78 67.83 112.75 62.86 88.62 39.81 64.65 60.98 63.78 59.99 88.66 38.02 113.39 61.64 137.2 66.37 161.38 32.33 162.46 33.09 137.78 67.83"/><path class="cls-7" d="M92.35,92.13a3,3,0,1,1-3-3A3,3,0,0,1,92.35,92.13Z" transform="translate(-25.16 -31.64)"/><circle class="cls-7" cx="88.48" cy="38.91" r="2.98"/><path class="cls-7" d="M141.21,93.87a3,3,0,1,1-3-3A3,3,0,0,1,141.21,93.87Z" transform="translate(-25.16 -31.64)"/><path class="cls-7" d="M165.63,98.09a3,3,0,1,1-3-3A3,3,0,0,1,165.63,98.09Z" transform="translate(-25.16 -31.64)"/><path class="cls-7" d="M190.06,64.94a3,3,0,1,1-3-3A3,3,0,0,1,190.06,64.94Z" transform="translate(-25.16 -31.64)"/><path class="cls-9" d="M113.23,87a5.41,5.41,0,0,0,2.54-1.33,3.21,3.21,0,0,1,1-.86,7.49,7.49,0,0,0,1.27-.89,2.7,2.7,0,0,1,1.33-.74c.63-.06.29.68,0,1.14s-2.06,1.19-2,1.82,2.14-.34,2.54-.54c1-.47,1-1.27,1.6-2,.33-.46.63-.57.83,0,.15.46-.17.94-.4,1.32a5.8,5.8,0,0,1-2,2,7,7,0,0,0,2-1.69c.32-.39,1.41-2.29,2.06-1.83,1.32.91-2.3,4.26-3.16,4.52a8.08,8.08,0,0,0,2.16-1.57c.39-.35,1.29-1.22,1.44-.29.23,1.38-2.47,2.39-3.59,3a9.12,9.12,0,0,0,2.32-1c1-.51,1,.41.09,1.11a14.32,14.32,0,0,1-1.48.84,8.55,8.55,0,0,1-5.5.77c-.78-.08-2.3.59-2.76.09C112.72,90,113.19,88.14,113.23,87Z" transform="translate(-25.16 -31.64)"/><path class="cls-7" d="M113.8,86.74,115.4,92s-18.7,4.82-23.25,5.53S77.61,86.84,77.61,86.84s-3.41-8.27-.87-8.16c2,.08,16.29,11,17.08,11.43S113.8,86.74,113.8,86.74Z" transform="translate(-25.16 -31.64)"/><path class="cls-9" d="M64.81,181.15a19.59,19.59,0,0,0,.47,5.26c.61,1.68,4.93,4.25,4.93,4.25s-3.91.75-5.41-.41-5.06-7.22-4.83-8S61.28,179,61.28,179Z" transform="translate(-25.16 -31.64)"/><path class="cls-9" d="M88.08,179a19.53,19.53,0,0,0,.47,5.25c.61,1.68,4.93,4.26,4.93,4.26s-3.91.75-5.41-.41-5.06-7.22-4.83-8,1.31-3.23,1.31-3.23Z" transform="translate(-25.16 -31.64)"/><path class="cls-6" d="M60.86,181.15s-3.27,1.09-2.45,4a24.84,24.84,0,0,1,.68,6.55h1s.2-4.09.81-4,2,4,3.35,4h7.72s.81-.82,0-1.29-6.05-.28-6.65-1.44S60.86,181.15,60.86,181.15Z" transform="translate(-25.16 -31.64)"/><path class="cls-6" d="M84.32,178.87s-3.28,1.09-2.46,4a25,25,0,0,1,.69,6.55h1s.21-4.1.82-4,2,4,3.35,4h7.71s.82-.82,0-1.3-6-.27-6.64-1.43S84.32,178.87,84.32,178.87Z" transform="translate(-25.16 -31.64)"/><path class="cls-8" d="M82.15,107.6s-9.18,3.22-15.83,0a15.79,15.79,0,0,0-4.67,10.28,37.3,37.3,0,0,0,.27,7.77c.46,3.84,1.58,13.91.88,20.12-1,9.1-3.85,35.48-3.85,35.48l6.33,1s5.82-31.86,6.5-35.79,2.9-19.9,2.9-19.9,3.94,12.35,5,18.33c.16.92,3,34.74,3,34.74l6.14,0S88.4,142,88.4,144C88.4,144.8,86.74,118.65,82.15,107.6Z" transform="translate(-25.16 -31.64)"/><path class="cls-10" d="M79,131.51a28.34,28.34,0,0,0-5-10c.29,1.72.55,3.43.75,5.16l0-.09s3.38,10.57,4.68,16.89C79.22,136.62,80,134.58,79,131.51Z" transform="translate(-25.16 -31.64)"/><path class="cls-11" d="M75.65,70.08c-.63-.14-3.67-6.55-5-7.8-.62,4.38-3.27,14.78-3.27,14.78C70.61,80.51,77,78.39,77,78.39A21.86,21.86,0,0,1,75.65,70.08Z" transform="translate(-25.16 -31.64)"/><path class="cls-9" d="M74.38,54.79S80.62,56.2,81.81,58s1.2,6.55,1.86,7.81c.4.75.75,1.36,1,1.81s-.26.62-.81.81a1,1,0,0,0-.58.6c-.37,1.15-1.4,4.07-2.43,4.48-1.29.5-7.64.31-9.56-5.23S70.38,53.61,74.38,54.79Z" transform="translate(-25.16 -31.64)"/><path class="cls-7" d="M68.36,74.89a77.54,77.54,0,0,0,8.56,3.25s5,10,5.38,12.72,2.94,21.7,2.94,21.7-10,6.34-24.44,1.32c0,0,3.47-14.91,2.68-20.8S63.37,79.25,68.36,74.89Z" transform="translate(-25.16 -31.64)"/><path class="cls-12" d="M66.6,115.35C66.44,109,67.89,103.27,68,96.93c.1-5.12-2-8-4.58-11.18a29.86,29.86,0,0,0,0,7.33c.79,5.89-2.68,20.8-2.68,20.8A35.26,35.26,0,0,0,66.6,115.35Z" transform="translate(-25.16 -31.64)"/><path class="cls-6" d="M60.8,92.41c3.52-2.93,2.08-5.85,5.62-8.63l.77-.6c.18-1.52-3.5-.73-2.48-2.27,1.42-2.16,7.38-5.42,7.25-7.51a3.72,3.72,0,0,1,.15-2c.31-1.62,1-1.93-.28-3.11-.89-.84-1.64-1.73-.94-3,.58-1,1.5-1.32,2.3-.36.21.25,1.26,2.36,1.53,1.17.08-.33-.37-1-.41-1.34a1.48,1.48,0,0,1,.42-1.34c.63-.67,1.56-1,2.21-1.7.81-.84.92-2,2.09-2.41a3,3,0,0,1,1.88-.08c.28.07,1.47.87,1.66.79,2-.79,1.11-3.91-.27-4.88a15.22,15.22,0,0,0-8.58-2.89c-3.65.08-7,2.9-9.11,5.64-1.54,2-1.44,4.09-2.55,6.23-1,1.95-3.19,2.92-4.5,4.67a6.75,6.75,0,0,0-.76,5.73A10.75,10.75,0,0,1,57.35,79C57,80.93,55.49,82.35,55,84.22a8.31,8.31,0,0,0-.09,5.3C55.8,93,57.86,93.93,60.8,92.41Z" transform="translate(-25.16 -31.64)"/><path class="cls-9" d="M55.39,123.92a5.1,5.1,0,0,0,.67,2.65,3.08,3.08,0,0,1,.58,1.14,7.05,7.05,0,0,0,.55,1.36,2.65,2.65,0,0,1,.4,1.4c-.08.61-.7.13-1.06-.25s-.66-2.17-1.26-2.23-.15,2.06-.05,2.48c.23,1,1,1.23,1.56,1.93.35.41.39.71-.23.76-.47,0-.84-.36-1.14-.65A5.48,5.48,0,0,1,54,130.23a6.47,6.47,0,0,0,1.12,2.26c.29.38,1.82,1.8,1.25,2.31-1.13,1-3.46-3.06-3.51-3.92a7.67,7.67,0,0,0,1,2.35c.25.44.86,1.46,0,1.4-1.33-.09-1.68-2.82-2.05-4a9.05,9.05,0,0,0,.45,2.39c.25,1-.6.86-1.05-.16a13.94,13.94,0,0,1-.46-1.56,8.24,8.24,0,0,1,.48-5.28c.25-.71,0-2.27.53-2.59C52.76,122.81,54.35,123.64,55.39,123.92Z" transform="translate(-25.16 -31.64)"/><path class="cls-7" d="M56.13,124l-5.75.31s-.07-17,1.46-22.79S64.27,80.16,66.75,79c3-1.42,11.86,2.37,5.36,7.42S59.44,103.48,59.19,104,56.13,124,56.13,124Z" transform="translate(-25.16 -31.64)"/></svg>