<svg id="Layer_1" data-name="Layer 1" xmlns="http://www.w3.org/2000/svg" viewBox="0 0 380.6 406.8"><defs><style>.cls-1{fill:#fff;}</style></defs><title>user</title><path class="cls-1" d="M831.57,676c-23.21-19.92-57.73-28.4-102.63-25.31a110.72,110.72,0,1,0-128.79-3.06c-32.43-3.2-100.71-.82-121.44,71.13a8.36,8.36,0,0,0-.33,2.33V846.8a8.41,8.41,0,0,0,8.4,8.41h363.8a8.41,8.41,0,0,0,8.4-8.41V727c0-.15,0-.32,0-.47C858.91,725.4,857.06,697.84,831.57,676ZM571.78,559.14A94.91,94.91,0,1,1,667.14,654h-.91A95,95,0,0,1,571.78,559.14ZM665,687.77h8.11l12,24.79L668.73,744.5l-12.26-24.09Zm-10-16.86a5.67,5.67,0,0,1,5.65-5.67h16a5.66,5.66,0,1,1,0,11.31h-16A5.65,5.65,0,0,1,655.05,670.91ZM684.6,685.7a16.46,16.46,0,0,0,8.33-19,110.66,110.66,0,0,0,19.24-6.64l-20.6,40Zm-30.77.57-5,19.09L627,662.5a112.2,112.2,0,0,0,17.15,5.07,16.59,16.59,0,0,0-.34,3.34A16.86,16.86,0,0,0,653.83,686.27ZM842.16,838.39h-347V722.26C516.25,652,592,662.33,609.85,665.8l51.34,101a8.42,8.42,0,0,0,7.47,4.59h0a8.42,8.42,0,0,0,7.48-4.56l51-99.18c41.57-3.33,72.9,3.68,93.14,20.84,19.41,16.46,21.66,36.67,21.84,38.87Z" transform="translate(-478.38 -448.41)"/></svg>