<svg xmlns="http://www.w3.org/2000/svg" viewBox="0 0 2336.01 1497.13"><defs><style>.cls-1{isolation:isolate;}.cls-2{fill:#bbebe4;}.cls-3{fill:#568584;}.cls-4{fill:#3ca7bd;}.cls-5{fill:#13849c;}.cls-6{fill:#005769;}.cls-7{fill:#ffdc9c;}.cls-8{fill:#ebb28a;}.cls-9{fill:#08697d;}.cls-10{fill:#e3e3e3;}.cls-10,.cls-19,.cls-34{mix-blend-mode:multiply;}.cls-11{fill:#4d4d4d;}.cls-11,.cls-13,.cls-28,.cls-39,.cls-40{mix-blend-mode:screen;}.cls-12{fill:#314a66;}.cls-13{fill:#242424;}.cls-14{fill:#a3a3a3;}.cls-15{fill:#c7c7c7;}.cls-16{fill:#004059;}.cls-17{fill:#155973;}.cls-18{fill:#6ba1b5;}.cls-19{fill:#bfbfbf;}.cls-20{fill:#ffe9bf;}.cls-21{fill:#f0dbb4;}.cls-22{fill:#457574;}.cls-23{fill:#548f8e;}.cls-24{fill:#76b8b7;}.cls-25{fill:#69a3a2;}.cls-26{fill:#3c6665;}.cls-27{fill:#92d1d0;}.cls-28{fill:#3d3d3d;}.cls-29{fill:#572807;}.cls-30{fill:#2b1710;}.cls-31{fill:#de442a;}.cls-32{fill:#ff8762;}.cls-33{fill:#f5724a;}.cls-34{fill:#e0b3a8;}.cls-35{fill:#406185;}.cls-36{fill:#833d0a;}.cls-37{fill:#5682b3;}.cls-38{fill:#402118;}.cls-39{fill:#8a8a8a;}.cls-40{fill:#575757;}.cls-41{fill:#fff0d4;}.cls-42{fill:#fffcf7;}.cls-43{fill:#f27522;}.cls-44{fill:#ff2424;}</style></defs><title>article-writing</title><g class="cls-1"><g id="Layer_1" data-name="Layer 1"><path class="cls-2" d="M2003.27,636.05c-176.72,12.5-30.42,401.53,206.85,450.2S2433.2,605.63,2003.27,636.05Z" transform="translate(-371.69 -392.43)"/><path class="cls-3" d="M1840.92,803.52c-1.18,0-2.36,0-3.54,0a1.54,1.54,0,0,1-1.5-1.58,1.57,1.57,0,0,1,1.58-1.5,142.93,142.93,0,0,0,18.28-.74,1.54,1.54,0,0,1,.33,3.07A144.2,144.2,0,0,1,1840.92,803.52ZM1819,801.83l-.24,0a143.52,143.52,0,0,1-18.24-4.09,1.54,1.54,0,1,1,.87-3,139.11,139.11,0,0,0,17.85,4,1.54,1.54,0,0,1-.24,3.07Zm55.13-2.24a1.54,1.54,0,0,1-.36-3,139.55,139.55,0,0,0,17.46-5.45,1.54,1.54,0,1,1,1.11,2.88,142.82,142.82,0,0,1-17.84,5.57A1.55,1.55,0,0,1,1874.13,799.59Zm-90.55-8.19a1.51,1.51,0,0,1-.62-.14,141.24,141.24,0,0,1-16.56-8.71,1.53,1.53,0,0,1-.51-2.12,1.55,1.55,0,0,1,2.12-.51,139.72,139.72,0,0,0,16.2,8.52,1.55,1.55,0,0,1-.63,3Zm125-5.1a1.55,1.55,0,0,1-.75-2.9,138.84,138.84,0,0,0,15.45-9.8,1.54,1.54,0,1,1,1.82,2.49,142.6,142.6,0,0,1-15.79,10A1.47,1.47,0,0,1,1908.57,786.3ZM1752.1,772.1a1.56,1.56,0,0,1-1-.34,143.3,143.3,0,0,1-13.73-12.69,1.54,1.54,0,1,1,2.24-2.12,140.91,140.91,0,0,0,13.44,12.41,1.54,1.54,0,0,1-1,2.74Zm186.28-7.57a1.54,1.54,0,0,1-1.07-2.66,140.93,140.93,0,0,0,12.4-13.46,1.54,1.54,0,1,1,2.4,1.93,143.43,143.43,0,0,1-12.67,13.76A1.56,1.56,0,0,1,1938.38,764.53Zm-211.71-19.18a1.53,1.53,0,0,1-1.25-.64,144.32,144.32,0,0,1-10-15.79,1.54,1.54,0,1,1,2.71-1.48,142,142,0,0,0,9.78,15.45,1.55,1.55,0,0,1-.34,2.16A1.52,1.52,0,0,1,1726.67,745.35Zm234.9-9.56a1.57,1.57,0,0,1-.81-.22,1.55,1.55,0,0,1-.51-2.12,140.44,140.44,0,0,0,8.5-16.21,1.54,1.54,0,1,1,2.82,1.25,143.57,143.57,0,0,1-8.69,16.57A1.54,1.54,0,0,1,1961.57,735.79ZM1709,713a1.55,1.55,0,0,1-1.44-1A142.51,142.51,0,0,1,1702,694.1a1.54,1.54,0,0,1,3-.72,140.13,140.13,0,0,0,5.43,17.47,1.53,1.53,0,0,1-.89,2A1.5,1.5,0,0,1,1709,713Zm-8.61-35.9a1.54,1.54,0,0,1-1.53-1.38,146.41,146.41,0,0,1-.77-15c0-1.24,0-2.48,0-3.71a1.55,1.55,0,0,1,3.09.08c0,1.2,0,2.41,0,3.63a142.86,142.86,0,0,0,.76,14.65,1.53,1.53,0,0,1-1.38,1.69Zm1-36.9a1,1,0,0,1-.24,0,1.54,1.54,0,0,1-1.29-1.76,143.2,143.2,0,0,1,4.11-18.24,1.54,1.54,0,0,1,3,.87,139.18,139.18,0,0,0-4,17.85A1.54,1.54,0,0,1,1701.37,640.15Zm10.47-35.4a1.56,1.56,0,0,1-.63-.14,1.54,1.54,0,0,1-.78-2,142.64,142.64,0,0,1,8.73-16.54,1.54,1.54,0,0,1,2.63,1.61,138.92,138.92,0,0,0-8.54,16.19A1.56,1.56,0,0,1,1711.84,604.75Zm253.4-9.69a1.55,1.55,0,0,1-1.36-.8,139.79,139.79,0,0,0-9.74-15.49,1.54,1.54,0,0,1,2.49-1.81,142.17,142.17,0,0,1,10,15.83,1.55,1.55,0,0,1-.63,2.09A1.58,1.58,0,0,1,1965.24,595.06Zm-234.07-21.78a1.56,1.56,0,0,1-1-.34,1.54,1.54,0,0,1-.22-2.17,144.71,144.71,0,0,1,12.7-13.73,1.55,1.55,0,0,1,2.18.06,1.54,1.54,0,0,1-.06,2.18,143.56,143.56,0,0,0-12.43,13.43A1.51,1.51,0,0,1,1731.17,573.28Zm212.4-8.11a1.53,1.53,0,0,1-1.12-.48A141,141,0,0,0,1929,552.24a1.54,1.54,0,1,1,1.94-2.4,143.59,143.59,0,0,1,13.71,12.73,1.54,1.54,0,0,1-1.12,2.6ZM1758,547.88a1.57,1.57,0,0,1-1.25-.63,1.55,1.55,0,0,1,.35-2.16,143.34,143.34,0,0,1,15.8-10,1.54,1.54,0,1,1,1.47,2.71,141.14,141.14,0,0,0-15.46,9.77A1.52,1.52,0,0,1,1758,547.88Zm157-6a1.49,1.49,0,0,1-.81-.23,139.58,139.58,0,0,0-16.18-8.55,1.55,1.55,0,0,1-.77-2,1.53,1.53,0,0,1,2-.78,142,142,0,0,1,16.54,8.75,1.54,1.54,0,0,1-.81,2.85Zm-124.56-11.59a1.55,1.55,0,0,1-.55-3,143.4,143.4,0,0,1,17.86-5.52,1.54,1.54,0,1,1,.72,3,139.48,139.48,0,0,0-17.47,5.4A1.59,1.59,0,0,1,1790.37,530.28Zm90.86-3.49a1.61,1.61,0,0,1-.44-.06,139.62,139.62,0,0,0-17.85-4,1.54,1.54,0,0,1,.48-3.05,141.57,141.57,0,0,1,18.24,4.13,1.54,1.54,0,0,1-.43,3Zm-55-5.08a1.54,1.54,0,0,1-.16-3.07,143.79,143.79,0,0,1,18.68-.71,1.54,1.54,0,0,1-.08,3.08,142.91,142.91,0,0,0-18.28.69Z" transform="translate(-371.69 -392.43)"/><path class="cls-3" d="M2500,1550.05c-1.19,0-2.37,0-3.54,0a1.54,1.54,0,0,1-1.51-1.58,1.57,1.57,0,0,1,1.58-1.5,143.09,143.09,0,0,0,18.29-.74,1.54,1.54,0,0,1,.32,3.07A144,144,0,0,1,2500,1550.05Zm-21.93-1.69-.23,0a143.67,143.67,0,0,1-18.25-4.09,1.54,1.54,0,1,1,.87-3,139.49,139.49,0,0,0,17.85,4,1.54,1.54,0,0,1-.24,3.07Zm55.14-2.24a1.54,1.54,0,0,1-.36-3,139.93,139.93,0,0,0,17.45-5.45,1.54,1.54,0,1,1,1.11,2.88,142.3,142.3,0,0,1-17.84,5.57A1.47,1.47,0,0,1,2533.22,1546.12Zm-90.56-8.19a1.51,1.51,0,0,1-.62-.14,141.24,141.24,0,0,1-16.56-8.71,1.54,1.54,0,0,1,1.61-2.63,139.72,139.72,0,0,0,16.2,8.52,1.55,1.55,0,0,1-.63,3Zm125-5.1a1.54,1.54,0,0,1-.74-2.9,139.64,139.64,0,0,0,15.44-9.8,1.54,1.54,0,1,1,1.82,2.49,143.41,143.41,0,0,1-15.78,10A1.54,1.54,0,0,1,2567.65,1532.83Zm-156.47-14.2a1.53,1.53,0,0,1-1-.34,142.23,142.23,0,0,1-13.74-12.69,1.54,1.54,0,0,1,2.24-2.12,140.91,140.91,0,0,0,13.44,12.41,1.55,1.55,0,0,1,.23,2.17A1.53,1.53,0,0,1,2411.18,1518.63Zm186.28-7.57a1.53,1.53,0,0,1-1.12-.48,1.55,1.55,0,0,1,0-2.18,140.93,140.93,0,0,0,12.4-13.46,1.54,1.54,0,1,1,2.4,1.93,142.15,142.15,0,0,1-12.67,13.76A1.56,1.56,0,0,1,2597.46,1511.06Zm-211.71-19.18a1.53,1.53,0,0,1-1.25-.64,142.75,142.75,0,0,1-10-15.79,1.54,1.54,0,1,1,2.7-1.48,142,142,0,0,0,9.78,15.45,1.55,1.55,0,0,1-.33,2.16A1.57,1.57,0,0,1,2385.75,1491.88Zm234.9-9.56a1.53,1.53,0,0,1-1.32-2.34,138.9,138.9,0,0,0,8.5-16.21,1.54,1.54,0,1,1,2.82,1.25,145.07,145.07,0,0,1-8.68,16.57A1.56,1.56,0,0,1,2620.65,1482.32Zm-252.55-22.84a1.55,1.55,0,0,1-1.44-1,142.51,142.51,0,0,1-5.55-17.86,1.55,1.55,0,0,1,3-.72,138.43,138.43,0,0,0,5.42,17.47,1.55,1.55,0,0,1-1.44,2.1Zm-8.61-35.9a1.55,1.55,0,0,1-1.53-1.38,146.41,146.41,0,0,1-.77-15c0-1.24,0-2.48,0-3.71a1.55,1.55,0,0,1,3.09.08c0,1.2-.05,2.41-.05,3.63a142.86,142.86,0,0,0,.76,14.65,1.53,1.53,0,0,1-1.37,1.69Zm1-36.9a1,1,0,0,1-.24,0,1.55,1.55,0,0,1-1.29-1.76,143.2,143.2,0,0,1,4.11-18.24,1.54,1.54,0,0,1,3,.87,140.89,140.89,0,0,0-4,17.85A1.54,1.54,0,0,1,2360.45,1386.68Zm10.47-35.4a1.6,1.6,0,0,1-.63-.14,1.54,1.54,0,0,1-.78-2,142.64,142.64,0,0,1,8.73-16.54,1.54,1.54,0,1,1,2.63,1.61,140.46,140.46,0,0,0-8.54,16.19A1.56,1.56,0,0,1,2370.92,1351.28Zm253.4-9.69a1.53,1.53,0,0,1-1.35-.8,141.36,141.36,0,0,0-9.75-15.49,1.54,1.54,0,0,1,2.5-1.81,143.57,143.57,0,0,1,10,15.83,1.55,1.55,0,0,1-.62,2.09A1.65,1.65,0,0,1,2624.32,1341.59Zm-234.07-21.78a1.54,1.54,0,0,1-1.2-2.51,144.71,144.71,0,0,1,12.7-13.73,1.55,1.55,0,0,1,2.13,2.24,140.91,140.91,0,0,0-12.43,13.43A1.53,1.53,0,0,1,2390.25,1319.81Zm212.4-8.11a1.56,1.56,0,0,1-1.12-.48,141,141,0,0,0-13.41-12.45,1.54,1.54,0,1,1,2-2.39,144.6,144.6,0,0,1,13.71,12.72,1.55,1.55,0,0,1-1.13,2.6ZM2417,1294.41a1.54,1.54,0,0,1-.91-2.79,144.29,144.29,0,0,1,15.8-10,1.54,1.54,0,1,1,1.48,2.71,141.27,141.27,0,0,0-15.47,9.77A1.51,1.51,0,0,1,2417,1294.41Zm157-6a1.49,1.49,0,0,1-.81-.23,139.45,139.45,0,0,0-16.17-8.55,1.54,1.54,0,1,1,1.26-2.82,142.65,142.65,0,0,1,16.53,8.75,1.54,1.54,0,0,1-.81,2.85Zm-124.55-11.59a1.55,1.55,0,0,1-.56-3,143,143,0,0,1,17.87-5.52,1.54,1.54,0,1,1,.71,3,140,140,0,0,0-17.47,5.4A1.54,1.54,0,0,1,2449.46,1276.81Zm90.85-3.49a1.61,1.61,0,0,1-.44-.06,139.24,139.24,0,0,0-17.85-4,1.54,1.54,0,0,1,.48-3,142.1,142.1,0,0,1,18.25,4.13,1.54,1.54,0,0,1-.44,3Zm-54.95-5.08a1.54,1.54,0,0,1-.16-3.07,143.79,143.79,0,0,1,18.68-.71,1.54,1.54,0,0,1-.08,3.08,143,143,0,0,0-18.28.69Z" transform="translate(-371.69 -392.43)"/><path class="cls-3" d="M2077.26,679H1926.62l-.24-1.86a15.48,15.48,0,0,1,6-14.68c5.64-4.35,14.18-5.62,22-3.46.23-14.12,4.63-25.89,12.83-34.17,8.5-8.59,20.81-13.22,34.72-13,13.85-.19,26.16,4.42,34.66,13,8.19,8.28,12.6,20.05,12.83,34.17,7.84-2.16,16.38-.89,22,3.46a15.47,15.47,0,0,1,6,14.68Zm-146.77-4.25h142.89a11.07,11.07,0,0,0-4.5-8.92c-5.12-4-13.67-4.74-20.77-1.89l-3,1.19.08-3.22c.36-14.28-3.65-26.07-11.58-34.09-7.68-7.76-18.93-11.94-31.64-11.74-12.8-.22-24,4-31.7,11.74-7.94,8-12,19.81-11.59,34.09l.08,3.22-3-1.19c-7.11-2.85-15.65-2.07-20.78,1.89A11.07,11.07,0,0,0,1930.49,674.71Z" transform="translate(-371.69 -392.43)"/><path class="cls-2" d="M1299.57,557c-643.9-77.79-1121.46,642.86-533.35,1285.72H2206.07c480.62-233.21,229.16-644.89-52.73-701.67S1903.9,630,1299.57,557Z" transform="translate(-371.69 -392.43)"/><path class="cls-3" d="M576.43,540.13a1.72,1.72,0,0,1-1-.3,1.77,1.77,0,0,1-.48-2.47c2-3,4.07-5.9,6.2-8.76a1.78,1.78,0,0,1,2.85,2.12c-2.09,2.82-4.15,5.72-6.11,8.63A1.76,1.76,0,0,1,576.43,540.13Z" transform="translate(-371.69 -392.43)"/><path class="cls-3" d="M594.67,516.54a1.82,1.82,0,0,1-1.18-.44,1.78,1.78,0,0,1-.15-2.51c4.24-4.81,8.74-9.5,13.38-13.94a1.78,1.78,0,1,1,2.46,2.56c-4.57,4.38-9,9-13.18,13.73A1.76,1.76,0,0,1,594.67,516.54ZM622.34,490a1.78,1.78,0,0,1-1.11-3.16c5-4,10.21-7.92,15.52-11.52a1.78,1.78,0,1,1,2,2.94c-5.22,3.55-10.36,7.36-15.28,11.34A1.75,1.75,0,0,1,622.34,490Zm31.71-21.53a1.77,1.77,0,0,1-.87-3.32c5.6-3.15,11.4-6.09,17.23-8.76a1.78,1.78,0,1,1,1.48,3.24c-5.75,2.62-11.46,5.52-17,8.62A1.79,1.79,0,0,1,654.05,468.5Zm34.87-15.89a1.78,1.78,0,0,1-.59-3.45c6-2.16,12.26-4.09,18.46-5.72a1.77,1.77,0,1,1,.9,3.43c-6.1,1.61-12.21,3.51-18.17,5.63A1.81,1.81,0,0,1,688.92,452.61Z" transform="translate(-371.69 -392.43)"/><path class="cls-3" d="M726,442.81a1.77,1.77,0,0,1-.31-3.52c3.51-.62,7.08-1.16,10.62-1.61a1.78,1.78,0,0,1,.45,3.53c-3.48.44-7,1-10.45,1.58Z" transform="translate(-371.69 -392.43)"/><path class="cls-3" d="M827.85,448a1.59,1.59,0,0,1-.48-.07c-3.39-1-6.83-1.84-10.24-2.64a1.78,1.78,0,1,1,.8-3.46c3.47.81,7,1.71,10.4,2.69a1.77,1.77,0,0,1-.48,3.48Z" transform="translate(-371.69 -392.43)"/><path class="cls-3" d="M768.78,895.27a1.78,1.78,0,0,1,0-3.55c7.16-.1,14.38-.53,21.45-1.3a1.78,1.78,0,0,1,.38,3.54c-7.18.77-14.51,1.22-21.78,1.31Zm-21.65-.71H747c-7.24-.58-14.53-1.51-21.65-2.77a1.78,1.78,0,1,1,.62-3.5c7,1.24,14.18,2.16,21.31,2.73a1.78,1.78,0,0,1-.14,3.55Zm64.66-3.94a1.78,1.78,0,0,1-.36-3.52c7-1.44,14-3.23,20.82-5.33a1.77,1.77,0,1,1,1,3.39c-6.92,2.14-14,4-21.14,5.42A1.47,1.47,0,0,1,811.79,890.62ZM704.53,887a1.59,1.59,0,0,1-.48-.07c-7-1.94-14-4.24-20.73-6.84a1.77,1.77,0,0,1,1.27-3.31c6.67,2.56,13.53,4.82,20.41,6.73a1.78,1.78,0,0,1-.47,3.49Zm148.61-9.13a1.78,1.78,0,0,1-.68-3.42c6.58-2.73,13.11-5.83,19.42-9.19a1.77,1.77,0,0,1,1.67,3.13c-6.4,3.42-13,6.56-19.73,9.34A1.63,1.63,0,0,1,853.14,877.89Zm-189-6.38a1.82,1.82,0,0,1-.79-.18c-6.49-3.23-12.9-6.82-19.06-10.66a1.77,1.77,0,1,1,1.88-3c6.06,3.78,12.38,7.31,18.76,10.49a1.77,1.77,0,0,1-.79,3.36Zm227.2-14a1.8,1.8,0,0,1-1.49-.79,1.78,1.78,0,0,1,.5-2.46c5.95-3.94,11.79-8.22,17.34-12.71a1.78,1.78,0,1,1,2.23,2.77c-5.64,4.55-11.56,8.9-17.6,12.9A1.8,1.8,0,0,1,891.33,857.53Zm-263.93-8.9a1.74,1.74,0,0,1-1.08-.37c-5.75-4.39-11.38-9.12-16.7-14A1.78,1.78,0,1,1,612,831.6c5.25,4.85,10.78,9.51,16.45,13.84a1.78,1.78,0,0,1-1.08,3.19ZM925,830.33a1.77,1.77,0,0,1-1.24-3c5.11-5,10-10.29,14.64-15.74a1.78,1.78,0,0,1,2.72,2.29c-4.69,5.54-9.69,10.92-14.87,16A1.78,1.78,0,0,1,925,830.33Zm-329.34-11.1a1.8,1.8,0,0,1-1.33-.59c-4.83-5.41-9.46-11.11-13.76-16.94a1.78,1.78,0,1,1,2.86-2.11c4.23,5.74,8.79,11.35,13.55,16.68a1.77,1.77,0,0,1-1.32,3Zm357.29-21.94a1.73,1.73,0,0,1-1-.32,1.77,1.77,0,0,1-.45-2.47c4.08-5.86,7.92-12,11.42-18.21A1.78,1.78,0,1,1,966,778c-3.56,6.32-7.46,12.54-11.6,18.5A1.76,1.76,0,0,1,952.93,797.29Zm-383-12.9a1.78,1.78,0,0,1-1.52-.86c-3.73-6.22-7.21-12.69-10.33-19.24a1.78,1.78,0,0,1,3.21-1.52c3.07,6.44,6.49,12.81,10.16,18.93a1.78,1.78,0,0,1-.61,2.44A1.76,1.76,0,0,1,570,784.39Zm404.17-24.82a1.77,1.77,0,0,1-1.62-2.49c2.89-6.53,5.5-13.28,7.76-20.05a1.78,1.78,0,0,1,3.37,1.12c-2.29,6.88-4.94,13.73-7.88,20.37A1.77,1.77,0,0,1,974.14,759.57ZM551.35,745.33a1.77,1.77,0,0,1-1.66-1.17c-2.49-6.81-4.66-13.82-6.48-20.84a1.78,1.78,0,1,1,3.44-.89c1.79,6.91,3.93,13.81,6.37,20.52a1.76,1.76,0,0,1-1.06,2.27A1.61,1.61,0,0,1,551.35,745.33Zm436.46-26.82a1.87,1.87,0,0,1-.4,0,1.78,1.78,0,0,1-1.33-2.13c1.59-7,2.87-14.06,3.8-21.15a1.77,1.77,0,1,1,3.52.46c-.94,7.2-2.24,14.43-3.86,21.49A1.77,1.77,0,0,1,987.81,718.51ZM540.5,703.44a1.78,1.78,0,0,1-1.75-1.49c-1.13-7.15-1.94-14.45-2.4-21.7a1.77,1.77,0,1,1,3.54-.22c.46,7.14,1.25,14.32,2.37,21.36a1.76,1.76,0,0,1-1.47,2A1.42,1.42,0,0,1,540.5,703.44Zm452.93-27.82h-.07a1.77,1.77,0,0,1-1.71-1.83c.1-2.72.15-5.49.15-8.22,0-4.41-.13-8.88-.38-13.28a1.77,1.77,0,0,1,3.54-.2c.26,4.46.39,9,.39,13.48,0,2.77-.05,5.58-.15,8.34A1.78,1.78,0,0,1,993.43,675.62Zm-2.52-43.21a1.77,1.77,0,0,1-1.75-1.5c-1.08-7.06-2.52-14.15-4.27-21.06a1.78,1.78,0,0,1,3.44-.88c1.78,7,3.24,14.23,4.34,21.4a1.77,1.77,0,0,1-1.48,2A1.32,1.32,0,0,1,990.91,632.41Zm-10.62-41.94a1.78,1.78,0,0,1-1.67-1.18c-2.41-6.72-5.17-13.39-8.2-19.85a1.77,1.77,0,1,1,3.21-1.51c3.08,6.55,5.89,13.34,8.33,20.16a1.78,1.78,0,0,1-1.07,2.27A1.81,1.81,0,0,1,980.29,590.47Zm-18.4-39.15a1.77,1.77,0,0,1-1.53-.87c-3.64-6.13-7.61-12.17-11.82-17.94a1.78,1.78,0,1,1,2.87-2.1c4.28,5.87,8.31,12,12,18.23a1.78,1.78,0,0,1-.63,2.44A1.81,1.81,0,0,1,961.89,551.32Zm-25.48-35a1.76,1.76,0,0,1-1.33-.6c-4.73-5.34-9.78-10.52-15-15.4a1.78,1.78,0,0,1,2.43-2.6c5.29,5,10.41,10.22,15.22,15.65a1.77,1.77,0,0,1-.16,2.51A1.74,1.74,0,0,1,936.41,516.35ZM904.8,486.79a1.79,1.79,0,0,1-1.09-.37c-5.65-4.37-11.58-8.51-17.62-12.32a1.78,1.78,0,1,1,1.9-3c6.13,3.87,12.15,8.07,17.9,12.51a1.78,1.78,0,0,1-1.09,3.18Zm-36.62-23.08a1.79,1.79,0,0,1-.8-.2c-6.37-3.21-13-6.16-19.63-8.75a1.78,1.78,0,0,1,1.29-3.31c6.76,2.63,13.47,5.62,19.94,8.89a1.78,1.78,0,0,1-.8,3.37Z" transform="translate(-371.69 -392.43)"/><path class="cls-3" d="M537.78,659.93h0A1.77,1.77,0,0,1,536,658.1c.11-3.56.31-7.17.59-10.73a1.78,1.78,0,0,1,3.54.28c-.28,3.5-.47,7.05-.58,10.56A1.78,1.78,0,0,1,537.78,659.93Z" transform="translate(-371.69 -392.43)"/><path class="cls-3" d="M576.43,540.13a1.72,1.72,0,0,1-1-.3,1.77,1.77,0,0,1-.48-2.47c2-3,4.07-5.9,6.2-8.76a1.78,1.78,0,0,1,2.85,2.12c-2.09,2.82-4.15,5.72-6.11,8.63A1.76,1.76,0,0,1,576.43,540.13Z" transform="translate(-371.69 -392.43)"/><path class="cls-3" d="M594.67,516.54a1.82,1.82,0,0,1-1.18-.44,1.78,1.78,0,0,1-.15-2.51c4.24-4.81,8.74-9.5,13.38-13.94a1.78,1.78,0,1,1,2.46,2.56c-4.57,4.38-9,9-13.18,13.73A1.76,1.76,0,0,1,594.67,516.54ZM622.34,490a1.78,1.78,0,0,1-1.11-3.16c5-4,10.21-7.92,15.52-11.52a1.78,1.78,0,1,1,2,2.94c-5.22,3.55-10.36,7.36-15.28,11.34A1.75,1.75,0,0,1,622.34,490Zm31.71-21.53a1.77,1.77,0,0,1-.87-3.32c5.6-3.15,11.4-6.09,17.23-8.76a1.78,1.78,0,1,1,1.48,3.24c-5.75,2.62-11.46,5.52-17,8.62A1.79,1.79,0,0,1,654.05,468.5Zm34.87-15.89a1.78,1.78,0,0,1-.59-3.45c6-2.16,12.26-4.09,18.46-5.72a1.77,1.77,0,1,1,.9,3.43c-6.1,1.61-12.21,3.51-18.17,5.63A1.81,1.81,0,0,1,688.92,452.61Z" transform="translate(-371.69 -392.43)"/><path class="cls-3" d="M726,442.81a1.77,1.77,0,0,1-.31-3.52c3.51-.62,7.08-1.16,10.62-1.61a1.78,1.78,0,0,1,.45,3.53c-3.48.44-7,1-10.45,1.58Z" transform="translate(-371.69 -392.43)"/><path class="cls-3" d="M799.37,479.18,771.18,458.7,743,479.18l10.77-33.13-28.19-20.48h34.84l10.77-33.14L782,425.57h34.84L788.6,446.05Zm-28.19-24.87,21.43,15.57-8.19-25.19,21.43-15.57H779.37l-8.19-25.19L763,429.12H736.51l21.43,15.57-8.19,25.19Z" transform="translate(-371.69 -392.43)"/><path class="cls-3" d="M541.7,628.68a11.78,11.78,0,0,1-11.77-11.77v-3a22.92,22.92,0,0,0-5.56-14.7,22.42,22.42,0,0,1-5.12-15.48,22.65,22.65,0,0,1,21.38-21.27,22.46,22.46,0,0,1,18.16,37,21.35,21.35,0,0,0-5.32,13.77v3.61A11.78,11.78,0,0,1,541.7,628.68Zm0-63.75c-.32,0-.65,0-1,0a20,20,0,0,0-14.48,32.74A25.68,25.68,0,0,1,532.38,614v3a9.32,9.32,0,1,0,18.63,0V613.3a23.75,23.75,0,0,1,5.92-15.36,20,20,0,0,0-15.22-33Z" transform="translate(-371.69 -392.43)"/><rect class="cls-3" x="168.78" y="149.25" width="2.45" height="15.69"/><rect class="cls-3" x="559.01" y="558.93" width="15.69" height="2.45" transform="translate(-601.76 172.45) rotate(-45)"/><rect class="cls-3" x="197.58" y="191.8" width="15.69" height="2.45"/><rect class="cls-3" x="515.18" y="551.96" width="2.45" height="15.69" transform="translate(-616.28 136.69) rotate(-45)"/><rect class="cls-3" x="126.24" y="191.29" width="15.69" height="2.45"/><rect class="cls-3" x="160.9" y="216.34" width="17.96" height="2.45"/><rect class="cls-3" x="161.66" y="223.67" width="16.19" height="2.45"/><path class="cls-3" d="M2640.23,1445.2h-46.49a20.69,20.69,0,0,1-20.66-20.66v-56.36a4.45,4.45,0,0,1,4.45-4.45v1.7a2.75,2.75,0,0,0-2.74,2.75v56.36a19,19,0,0,0,18.95,19h46.49a2.75,2.75,0,0,0,2.75-2.75v-3.6h1.71v3.6A4.46,4.46,0,0,1,2640.23,1445.2Z" transform="translate(-371.69 -392.43)"/><path class="cls-3" d="M2641.09,1438h-32.83a31.62,31.62,0,0,1-31.58-31.59v-42.68h32.82a31.62,31.62,0,0,1,31.59,31.58Zm-62.7-72.57v41a29.91,29.91,0,0,0,29.87,29.88h31.12v-41a29.91,29.91,0,0,0-29.88-29.88Z" transform="translate(-371.69 -392.43)"/><path class="cls-3" d="M2687,1445.2h-46.49a4.46,4.46,0,0,1-4.46-4.46v-3.83h1.71v3.83a2.75,2.75,0,0,0,2.75,2.75H2687a19,19,0,0,0,18.95-19v-56.36a2.75,2.75,0,0,0-2.74-2.75v-1.7a4.45,4.45,0,0,1,4.45,4.45v56.36A20.69,20.69,0,0,1,2687,1445.2Z" transform="translate(-371.69 -392.43)"/><path class="cls-3" d="M2672.51,1438h-32.82v-42.69a31.62,31.62,0,0,1,31.59-31.58h32.82v42.68A31.62,31.62,0,0,1,2672.51,1438Zm-31.11-1.71h31.11a29.91,29.91,0,0,0,29.88-29.88v-41h-31.11a29.91,29.91,0,0,0-29.88,29.88Z" transform="translate(-371.69 -392.43)"/><path class="cls-3" d="M1083.14,595.41l-11.29,8.92-42.55-53.85,11.29-8.92Zm-11,6.52,8.61-6.8L1040.31,544l-8.61,6.81Z" transform="translate(-371.69 -392.43)"/><path class="cls-3" d="M1042.17,542.48l-12.33,9.75-1.82-15Zm-11,6.52,7.57-6-8.68-3.21Z" transform="translate(-371.69 -392.43)"/><path class="cls-3" d="M1083.14,595.41l-11.29,8.92L1062.93,593l11.29-8.92Zm-11,6.52,8.61-6.8-6.8-8.61-8.61,6.8Z" transform="translate(-371.69 -392.43)"/><path class="cls-3" d="M2108.21,925.68l-11.29,8.92-42.54-53.86,11.29-8.92Zm-11,6.52,8.62-6.8-40.43-51.18-8.61,6.8Z" transform="translate(-371.69 -392.43)"/><path class="cls-3" d="M2067.25,872.75l-12.34,9.75-1.82-15Zm-11,6.52,7.56-6-8.67-3.21Z" transform="translate(-371.69 -392.43)"/><path class="cls-3" d="M2108.21,925.68l-11.29,8.92L2088,923.31l11.29-8.92Zm-11,6.52,8.62-6.8-6.81-8.61-8.61,6.8Z" transform="translate(-371.69 -392.43)"/><path class="cls-3" d="M1374.82,597.82h-81.88V503.2l16.78-16.78h65.1Zm-79-2.9h76.08V489.32h-61l-15.08,15.08Z" transform="translate(-371.69 -392.43)"/><polygon class="cls-3" points="945.23 118.33 927.03 118.33 927.03 115.43 942.33 115.43 942.33 100.13 945.23 100.13 945.23 118.33"/><path class="cls-3" d="M486.91,1399.66c-.07-.37-6.5-38-2.19-119.07l3.5.19c-4.28,80.56,2.08,117.91,2.14,118.27Z" transform="translate(-371.69 -392.43)"/><path class="cls-3" d="M486.1,1372.75l-1.16-1c-1.19-1.06-29.17-26.16-29.17-57.76a58.42,58.42,0,0,1,2.37-16.08l.48-1.67,12.67,3.49c-2.7-2.76-6.21-6.3-9.31-9.33l-.87-.86.5-1.11c8.39-18.84,22.73-31.66,23.33-32.19l1.16-1,1.17,1c.81.72,19.89,17.81,26.76,41.54l.23.77-.44.67c-6.74,10.34-12.13,18.7-15.61,24.18L513.63,1312l2.76-2,.05,4c0,31.6-28,56.7-29.17,57.76Zm-25.05-72.22a53.93,53.93,0,0,0-1.77,13.44c0,26.45,21.53,48.92,26.82,54,5.09-4.93,25.22-25.91,26.74-51-18.79,13.84-19.4,14.24-19.61,14.38l-1.19.79-1.05-1c-1.31-1.31-1.32-1.32,19.45-33.18-5.79-19.08-20.15-34-24.34-38-3.49,3.37-14,14.26-20.79,28.79,5.95,5.86,12.94,13.09,13,13.17l4.45,4.61Z" transform="translate(-371.69 -392.43)"/><path class="cls-3" d="M1174.54,777.61c.15-.25,15-25.33,57.58-70.32l1.94,1.84c-42.3,44.73-57.07,69.59-57.21,69.83Z" transform="translate(-371.69 -392.43)"/><path class="cls-3" d="M1187.37,761.56l-.16-1.17c-.18-1.2-4-29.63,11.58-48a44.21,44.21,0,0,1,9.33-8.18l1.1-.73,5.65,8.29c-.21-2.94-.5-6.74-.81-10l-.08-.93.84-.4a79.34,79.34,0,0,1,29.48-7.18l1.18,0,.17,1.18c.12.81,2.77,20.18-5,37.38l-.25.56-.59.18c-9,2.68-16.29,4.87-21,6.34l14.57,1,2.61.18-1.93,2.33c-15.62,18.37-44.3,19.14-45.51,19.16Zm21.14-54.37a41.49,41.49,0,0,0-7.68,6.93c-13.07,15.38-11.66,39.09-11.11,44.69,5.39-.35,27.46-2.61,40.77-16.46-17.76-1.25-18.32-1.32-18.51-1.34l-1.08-.13-.12-1.09c-.12-1.41-.12-1.42,27.71-9.68,6.06-14,5.08-29.72,4.65-34.15a79,79,0,0,0-26.33,6.47c.57,6.34,1,14,1.06,14.09l.31,4.88Z" transform="translate(-371.69 -392.43)"/><path class="cls-3" d="M2212.94,1046.76a17.54,17.54,0,0,1-17.52-17.52v-4.41a34.14,34.14,0,0,0-8.28-21.88,33.32,33.32,0,0,1-7.62-23.05,33.71,33.71,0,0,1,31.82-31.67,33.45,33.45,0,0,1,27,55.14,31.77,31.77,0,0,0-7.93,20.49v5.38A17.53,17.53,0,0,1,2212.94,1046.76Zm0-94.91-1.44,0a29.79,29.79,0,0,0-21.56,48.74,38.27,38.27,0,0,1,9.12,24.21v4.41a13.87,13.87,0,1,0,27.73,0v-5.38a35.41,35.41,0,0,1,8.81-22.87A29.79,29.79,0,0,0,2213,951.85Z" transform="translate(-371.69 -392.43)"/><rect class="cls-3" x="1839.42" y="524.82" width="3.65" height="23.35"/><rect class="cls-3" x="2238.7" y="942.92" width="23.35" height="3.65" transform="translate(-380.59 1475.58) rotate(-45)"/><rect class="cls-3" x="1882.3" y="588.15" width="23.35" height="3.65"/><rect class="cls-3" x="2173.45" y="932.54" width="3.65" height="23.35" transform="translate(-402.22 1422.3) rotate(-45)"/><rect class="cls-3" x="1776.08" y="587.4" width="23.35" height="3.65"/><rect class="cls-3" x="1827.68" y="624.69" width="26.74" height="3.65"/><rect class="cls-3" x="1828.81" y="635.61" width="24.11" height="3.65"/><rect class="cls-3" x="15.8" y="878.8" width="3.87" height="13.04"/><rect class="cls-3" x="15.8" y="901.24" width="3.87" height="13.04"/><rect class="cls-3" x="22.44" y="894.61" width="13.04" height="3.87"/><rect class="cls-3" y="894.61" width="13.04" height="3.87"/><rect class="cls-3" x="288.38" y="173.31" width="3.87" height="13.04"/><rect class="cls-3" x="288.38" y="195.75" width="3.87" height="13.04"/><rect class="cls-3" x="295.02" y="189.12" width="13.04" height="3.87"/><rect class="cls-3" x="272.57" y="189.12" width="13.04" height="3.87"/><rect class="cls-3" x="2056.11" y="730.49" width="3.87" height="13.04"/><rect class="cls-3" x="2056.11" y="752.93" width="3.87" height="13.04"/><rect class="cls-3" x="2062.74" y="746.29" width="13.04" height="3.87"/><rect class="cls-3" x="2040.3" y="746.29" width="13.04" height="3.87"/><rect class="cls-3" x="1820.85" y="1014.72" width="3.87" height="13.04"/><rect class="cls-3" x="1820.85" y="1037.16" width="3.87" height="13.04"/><rect class="cls-3" x="1827.49" y="1030.53" width="13.04" height="3.87"/><rect class="cls-3" x="1805.05" y="1030.53" width="13.04" height="3.87"/><rect class="cls-3" x="241.29" y="554.12" width="3.87" height="13.04"/><rect class="cls-3" x="241.29" y="576.56" width="3.87" height="13.04"/><rect class="cls-3" x="247.93" y="569.92" width="13.04" height="3.87"/><rect class="cls-3" x="225.49" y="569.92" width="13.04" height="3.87"/><rect class="cls-3" x="1759.48" y="158.48" width="3.87" height="13.04"/><rect class="cls-3" x="1759.48" y="180.92" width="3.87" height="13.04"/><rect class="cls-3" x="1766.12" y="174.28" width="13.04" height="3.87"/><rect class="cls-3" x="1743.68" y="174.28" width="13.04" height="3.87"/><rect class="cls-3" x="1072.65" y="225.28" width="3.87" height="13.04"/><rect class="cls-3" x="1072.65" y="247.72" width="3.87" height="13.04"/><rect class="cls-3" x="1079.29" y="241.09" width="13.04" height="3.87"/><rect class="cls-3" x="1056.85" y="241.09" width="13.04" height="3.87"/><path class="cls-4" d="M1098.51,734.22c-21.13,41.69-66.86,61-66.86,61s-11.49-48.29,9.63-90,51.06-69,66.86-61S1119.63,692.52,1098.51,734.22Z" transform="translate(-371.69 -392.43)"/><path class="cls-5" d="M968.31,1294.46a5.12,5.12,0,0,1-5.08-4.55c-20.11-179.61,5.43-319.75,30.4-405.69,27.12-93.32,58.56-143.37,59.89-145.45a5.12,5.12,0,0,1,8.65,5.49c-.32.5-32.14,51.21-58.83,143.28-24.64,85-49.83,223.53-29.93,401.23a5.13,5.13,0,0,1-4.52,5.66A5.63,5.63,0,0,1,968.31,1294.46Z" transform="translate(-371.69 -392.43)"/><path class="cls-5" d="M2383.76,759.68c0,89.6-80.1,162.24-80.1,162.24s-80.1-72.64-80.1-162.24,35.86-162.24,80.1-162.24S2383.76,670.08,2383.76,759.68Z" transform="translate(-371.69 -392.43)"/><path class="cls-6" d="M2303.66,1517.8a7.77,7.77,0,0,1-7.77-7.77V649.16a7.77,7.77,0,1,1,15.54,0V1510A7.77,7.77,0,0,1,2303.66,1517.8Z" transform="translate(-371.69 -392.43)"/><path class="cls-7" d="M2420.77,1840.08s158.19-212.94,21.3-349.83H2173.36c-136.88,136.89,21.3,349.83,21.3,349.83Z" transform="translate(-371.69 -392.43)"/><path class="cls-8" d="M2457.28,1550.42H2151.56a3.89,3.89,0,0,1,0-7.78h305.72a3.89,3.89,0,0,1,0,7.78Z" transform="translate(-371.69 -392.43)"/><path class="cls-5" d="M2502.81,1017.36c-58.28,46.65-147.24,32.37-147.24,32.37s5.54-89.93,63.83-136.58,124.2-61.15,147.24-32.37S2561.1,970.71,2502.81,1017.36Z" transform="translate(-371.69 -392.43)"/><path class="cls-9" d="M2302.43,1090.37a6.49,6.49,0,0,1,1-9.11l206.78-165.51a6.47,6.47,0,1,1,8.09,10.11l-206.77,165.52A6.49,6.49,0,0,1,2302.43,1090.37Z" transform="translate(-371.69 -392.43)"/><path class="cls-5" d="M2137.41,1251.8c58.28,46.65,147.24,32.36,147.24,32.36s-5.54-89.92-63.83-136.58-124.2-61.14-147.24-32.36S2079.12,1205.14,2137.41,1251.8Z" transform="translate(-371.69 -392.43)"/><path class="cls-9" d="M2307,1306.35a6.48,6.48,0,0,0-1-9.11l-176-147a6.47,6.47,0,1,0-8.09,10.11l176,147.06A6.48,6.48,0,0,0,2307,1306.35Z" transform="translate(-371.69 -392.43)"/><path class="cls-9" d="M2518.59,1191.7a6.47,6.47,0,0,0-9.09-1.08L2303,1346.52a6.48,6.48,0,1,0,8,10.17l206.53-155.9A6.46,6.46,0,0,0,2518.59,1191.7Z" transform="translate(-371.69 -392.43)"/><path class="cls-5" d="M2517.52,1200.79c-28.3,145-129.24,172.92-206.53,155.9Z" transform="translate(-371.69 -392.43)"/><path class="cls-10" d="M2219.84,1490.25h-46.48c-136.88,136.89,21.3,349.83,21.3,349.83h226.11s51.69-69.58,70.4-154.76C2400.47,1647.23,2257.55,1575.65,2219.84,1490.25Z" transform="translate(-371.69 -392.43)"/><circle class="cls-11" cx="2405.8" cy="1570.15" r="45.87" transform="translate(-46.78 3158.41) rotate(-76.72)"/><path class="cls-12" d="M880.54,1221v-143.9h-108V1221a174.92,174.92,0,1,0,108,0Z" transform="translate(-371.69 -392.43)"/><path class="cls-13" d="M759.12,1255.59h64.39c-85.18,50.19-94.3,137.39-94.3,137.39C716,1324.54,753.54,1260.66,759.12,1255.59Z" transform="translate(-371.69 -392.43)"/><rect class="cls-14" x="413.03" y="442.86" width="33.46" height="241.82"/><rect class="cls-15" x="404.92" y="360.73" width="49.68" height="162.24"/><rect class="cls-14" x="419.11" y="318.65" width="21.29" height="42.08"/><path class="cls-14" d="M737.57,954.77a3.89,3.89,0,0,1-3.89-3.88V770.4a47.55,47.55,0,0,1,47.49-47.49,3.89,3.89,0,1,1,0,7.77,39.76,39.76,0,0,0-39.71,39.72V950.89A3.89,3.89,0,0,1,737.57,954.77Z" transform="translate(-371.69 -392.43)"/><circle class="cls-14" cx="368.41" cy="576.7" r="24.84"/><rect class="cls-16" x="468.55" y="286.2" width="34.48" height="398.42"/><rect class="cls-17" x="468.55" y="245.64" width="34.48" height="124.72"/><path class="cls-18" d="M857.74,514.37h-1.28s-49.68,107.48-16.22,123.7H874C907.43,621.85,857.74,514.37,857.74,514.37Z" transform="translate(-371.69 -392.43)"/><path class="cls-19" d="M861,565.6c.38-11.51-3.79-32.25-3.79-32.25H857s-4.22,21-3.78,32.48a13.18,13.18,0,1,0,7.75-.23Z" transform="translate(-371.69 -392.43)"/><path class="cls-20" d="M1977.54,863.84c29.08,1.38,108-16.62,31.85-141.25H1294.51c76.17,124.63-2.76,142.63-31.85,141.25Z" transform="translate(-371.69 -392.43)"/><path class="cls-21" d="M1878.11,863.84H1262.66c-85.86-52.63-195.43,24.93-114.33,256.19H1863.2C1814.08,979.94,1835,896.36,1878.11,863.84Z" transform="translate(-371.69 -392.43)"/><path class="cls-10" d="M1836.6,1009c-8-74.61,11.32-122.37,41.5-145.12H1275.8Z" transform="translate(-371.69 -392.43)"/><path class="cls-22" d="M1777.82,1032h-577a7.08,7.08,0,0,1,0-14.16h577a7.08,7.08,0,0,1,0,14.16Z" transform="translate(-371.69 -392.43)"/><circle class="cls-23" cx="829.12" cy="632.5" r="23.08"/><path class="cls-22" d="M1200.81,1145.57a7.08,7.08,0,0,1-7.08-7.08v-115.4a7.08,7.08,0,0,1,14.16,0v115.4A7.08,7.08,0,0,1,1200.81,1145.57Z" transform="translate(-371.69 -392.43)"/><circle class="cls-23" cx="1402.43" cy="632.5" r="23.08"/><path class="cls-22" d="M1774.12,1145.57a7.07,7.07,0,0,1-7.07-7.08v-115.4a7.08,7.08,0,1,1,14.15,0v115.4A7.08,7.08,0,0,1,1774.12,1145.57Z" transform="translate(-371.69 -392.43)"/><path class="cls-24" d="M1500.85,1120H1822.6a189.17,189.17,0,0,1,186,154.77l30.12,162.87a114,114,0,0,0,104,93h0a114,114,0,0,1,105.9,113.74v195.71H722.28V1644.42a114,114,0,0,1,105.9-113.74h0a114,114,0,0,0,104-93l30.12-162.87a189.17,189.17,0,0,1,186-154.77h352.52Z" transform="translate(-371.69 -392.43)"/><path class="cls-3" d="M1531.32,1233.58h317.12a48.47,48.47,0,0,1,48.47,48.47v120a158.36,158.36,0,0,0,48,113.54l151.44,147.24H866l151.45-147.24a158.39,158.39,0,0,0,48-113.54v-120a48.47,48.47,0,0,1,48.47-48.47h417.45Z" transform="translate(-371.69 -392.43)"/><path class="cls-25" d="M1896.91,1399.76V1282.05a48.47,48.47,0,0,0-48.47-48.47H1113.87a48.47,48.47,0,0,0-48.46,48.47v117.71Z" transform="translate(-371.69 -392.43)"/><polygon class="cls-25" points="1876.96 1270.44 494.3 1270.44 350.58 1270.44 350.58 1447.7 1876.96 1447.7 1876.96 1270.44"/><rect class="cls-26" x="769.94" y="1171.81" width="15.58" height="48.12"/><ellipse class="cls-27" cx="777.73" cy="1150.12" rx="58.16" ry="32.31"/><rect class="cls-26" x="769.94" y="1044.41" width="15.58" height="48.12"/><ellipse class="cls-27" cx="777.73" cy="1022.71" rx="58.16" ry="32.31"/><rect class="cls-26" x="989.35" y="1171.81" width="15.58" height="48.12"/><ellipse class="cls-27" cx="997.14" cy="1150.12" rx="58.16" ry="32.31"/><rect class="cls-26" x="989.35" y="1044.41" width="15.58" height="48.12"/><ellipse class="cls-27" cx="997.14" cy="1022.71" rx="58.16" ry="32.31"/><rect class="cls-26" x="1208.77" y="1171.81" width="15.58" height="48.12"/><ellipse class="cls-27" cx="1216.56" cy="1150.12" rx="58.16" ry="32.31"/><rect class="cls-26" x="1208.77" y="1044.41" width="15.58" height="48.12"/><ellipse class="cls-27" cx="1216.56" cy="1022.71" rx="58.16" ry="32.31"/><rect class="cls-26" x="1428.19" y="1171.81" width="15.58" height="48.12"/><ellipse class="cls-27" cx="1435.97" cy="1150.12" rx="58.16" ry="32.31"/><rect class="cls-26" x="1428.19" y="1044.41" width="15.58" height="48.12"/><ellipse class="cls-27" cx="1435.97" cy="1022.71" rx="58.16" ry="32.31"/><rect class="cls-27" x="893.43" y="1203.97" width="432.06" height="66.47"/><rect class="cls-28" x="1147.12" y="744.58" width="351.41" height="53.45" rx="15.65"/><rect class="cls-28" x="1060.05" y="744.58" width="61.17" height="53.45" rx="15.65"/><polygon class="cls-29" points="249.19 1450.23 234.44 1450.23 260.44 1224.87 301.19 1224.87 249.19 1450.23"/><ellipse class="cls-7" cx="331.2" cy="1099.73" rx="143.45" ry="160.07"/><path class="cls-16" d="M636.76,1498.27c-4.07,38.66-2.71,103.1,25.78,113.27s132.26,4.75,132.26,4.75,23.06-61.72,21-69.86-15.6-52.23-15.6-52.23Z" transform="translate(-371.69 -392.43)"/><path class="cls-30" d="M709.17,1805c-.51,7.63-7.12,38.15-7.12,38.15h56.46c0-12.21-11.7-58-11.7-58Z" transform="translate(-371.69 -392.43)"/><path class="cls-31" d="M649.14,1304.46c-47.31,8.64-49.34,139.38-27,158.2,8.14,39.68,27,32.56,43.75,34.59s177-7.12,177-7.12l38.15-27.47c-2-25.94-56.47-105.3-85.46-119.54s-46.29-18.06-46.29-18.06Z" transform="translate(-371.69 -392.43)"/><path class="cls-32" d="M804.8,1428.58c51.38-9.67,68.68,23.91,72.24,25.43,6.1,6.62,14.75,31-19.33,34.6s-68.17-1-68.17-1Z" transform="translate(-371.69 -392.43)"/><path class="cls-33" d="M687.29,1289.7c-2,17.3-9.89,18.91-9.27,21,2.66,14.33,32.67,46.89,71.34,14.33-8.4-10.18-7.89-40.19-7.89-40.19Z" transform="translate(-371.69 -392.43)"/><rect class="cls-30" x="623.33" y="1290.34" width="38.69" height="5.47" rx="1.38" transform="translate(-513.38 -311.73) rotate(-6.47)"/><path class="cls-30" d="M682.21,1283.94c2.71,15.6,11.53,30.18,30.86,30.18s30.62-17,30.57-30.18c6.31-10.43,3.34-18.65,3.34-18.65v-37c11.87-27.81-38-41.71-60.36-14.24-21.71,3.73-10.28,54.51-10.28,54.51Z" transform="translate(-371.69 -392.43)"/><path class="cls-32" d="M714.93,1289.28c-6,.6-15-2.37-14.54,3s11.45,7.75,20.86,6.1c4.57-.8,8-3,8-5.09S727.65,1288,714.93,1289.28Z" transform="translate(-371.69 -392.43)"/><path class="cls-32" d="M759.41,1263.08c-.17-7.63-9.16-10.68-13.4,1.19-5.42,1.52-3.73-16.45-1.35-22,0,0-5.48-2.37-4.63-12-1,1.18-33.07,11.19-49-11.54,3.9,15.94-10.68,21.88-9.83,23.57,2.37,5.6,4.07,23.57-1.36,22-4.24-11.87-13.22-8.82-13.39-1.19s3.22,22.38,15.77,20.86c-1.53-5.43-.51-14.92.51-10.85s11.87,16.1,19.67,13.05l.16-.06a28.68,28.68,0,0,1,20.75,0l.16.06c7.8,3,18.65-9,19.67-13.05s2,5.42.51,10.85C756.19,1285.46,759.58,1270.71,759.41,1263.08Z" transform="translate(-371.69 -392.43)"/><path class="cls-30" d="M704.65,1261.69c0,2.44-1.17,4.42-2.6,4.42s-2.6-2-2.6-4.42,1.16-4.43,2.6-4.43S704.65,1259.24,704.65,1261.69Z" transform="translate(-371.69 -392.43)"/><path class="cls-30" d="M728.13,1261.43c0,2.45-1.16,4.43-2.6,4.43s-2.6-2-2.6-4.43,1.17-4.42,2.6-4.42S728.13,1259,728.13,1261.43Z" transform="translate(-371.69 -392.43)"/><path class="cls-30" d="M687.93,1253.33c13.48.26,20.73,2.67,20.73,2.67C703.83,1246,687.93,1241.63,687.93,1253.33Z" transform="translate(-371.69 -392.43)"/><path class="cls-30" d="M713.43,1281.61c-2.14,0-4.38-.25-5-.83s-.32-1.2.23-3.42c1-4,3.06-12.26.59-20.62a.65.65,0,0,1,.44-.81.65.65,0,0,1,.81.44c2.57,8.7.44,17.22-.58,21.31a22.34,22.34,0,0,0-.48,2.2,18.88,18.88,0,0,0,7.38.13.64.64,0,0,1,.8.44.65.65,0,0,1-.44.81A15.62,15.62,0,0,1,713.43,1281.61Z" transform="translate(-371.69 -392.43)"/><path class="cls-30" d="M718.2,1255.24c8.52-2.93,19.07-1.15,19.07-1.15C730.79,1245.32,721.38,1247.74,718.2,1255.24Z" transform="translate(-371.69 -392.43)"/><path class="cls-34" d="M718.45,1257.92a.52.52,0,0,1-.17,0,3,3,0,0,1-2-1.53c-.55-1.1-.39-2.67.48-4.81a.65.65,0,1,1,1.2.49c-.7,1.72-.88,3-.52,3.75a1.74,1.74,0,0,0,1.23.85.65.65,0,0,1-.17,1.27Z" transform="translate(-371.69 -392.43)"/><path class="cls-30" d="M713.65,1294.4a33.07,33.07,0,0,1-9.5-1.28.65.65,0,0,1-.44-.81.66.66,0,0,1,.81-.43c8.34,2.52,18,.43,19-.09a.65.65,0,1,1,.58,1.17C723.09,1293.45,718.79,1294.4,713.65,1294.4Z" transform="translate(-371.69 -392.43)"/><path class="cls-34" d="M678.82,1278.48h-.05c-3.09-.23-6.44-3.62-6.4-6.48,0-.92.45-3,4-3.41-.4-1.76-1.83-6.42-5.82-7.42a.65.65,0,0,1-.47-.79.64.64,0,0,1,.78-.47c5.79,1.44,6.89,8.87,6.93,9.19a.61.61,0,0,1-.14.5.68.68,0,0,1-.47.24c-1.57.06-3.45.5-3.48,2.18,0,2,2.58,5,5.19,5.17a.64.64,0,0,1,.6.69A.64.64,0,0,1,678.82,1278.48Z" transform="translate(-371.69 -392.43)"/><path class="cls-34" d="M747,1278.48h.05c3.09-.23,6.44-3.62,6.4-6.48,0-.92-.45-3-4-3.41.4-1.76,1.82-6.42,5.82-7.42a.65.65,0,0,0-.32-1.26c-5.78,1.44-6.88,8.87-6.93,9.19a.65.65,0,0,0,.15.5.68.68,0,0,0,.47.24c1.57.06,3.45.5,3.48,2.18,0,2-2.58,5-5.2,5.17a.65.65,0,0,0,0,1.29Z" transform="translate(-371.69 -392.43)"/><path class="cls-32" d="M629.3,1472.84c-13.56-4.75-11.53-17.3-11.53-18.66-4.41-17.63-9.15-26.11,21.37-58.67s39.34-53.58,39.68-60-21.37-15.6-24.42-18.32-16.45-38.28-12.51-39,14.63,19.33,14.63,19.33,7.88-4.7,8.26-4.7,16.54,10.42,17.05,10.93a10.54,10.54,0,0,1-.64,5.6c8.9-.89,21.11,7.37,19.71,17.55s-21.07,114.47-27.85,129.72C663.55,1477.92,629.3,1472.84,629.3,1472.84Z" transform="translate(-371.69 -392.43)"/><path class="cls-34" d="M656.86,1309.51a.61.61,0,0,1-.32-.08.64.64,0,0,1-.25-.88c2.93-5.34,8.19-14.25,10.42-13.89a.65.65,0,0,1-.18,1.28c-1.23.18-5.68,7-9.1,13.24A.65.65,0,0,1,656.86,1309.51Z" transform="translate(-371.69 -392.43)"/><path class="cls-34" d="M651.86,1305.61h-.13a.64.64,0,0,1-.51-.76c.27-1.44,3.83-5.79,4.54-6.65a.65.65,0,0,1,1,.83c-1.68,2-4.11,5.24-4.27,6.06A.64.64,0,0,1,651.86,1305.61Z" transform="translate(-371.69 -392.43)"/><path class="cls-34" d="M678,1310.73c-3.85,0-9.73-4-11.63-5.41a.65.65,0,1,1,.77-1c4.28,3.11,9.6,5.87,11.85,5a.65.65,0,1,1,.46,1.21A3.94,3.94,0,0,1,678,1310.73Z" transform="translate(-371.69 -392.43)"/><path class="cls-35" d="M297.63,983.07H438.37a6.78,6.78,0,0,1,6.78,6.78v97a0,0,0,0,1,0,0H290.85a0,0,0,0,1,0,0v-97A6.78,6.78,0,0,1,297.63,983.07Z"/><rect class="cls-12" x="271.18" y="1087.18" width="174.65" height="9.5"/><rect class="cls-36" x="107.37" y="1096.68" width="502.26" height="15.77"/><path class="cls-37" d="M356.71,1029.19h30.11a0,0,0,0,1,0,0v7.73a7.87,7.87,0,0,1-7.87,7.87H348.84a0,0,0,0,1,0,0v-7.73A7.87,7.87,0,0,1,356.71,1029.19Z"/><path class="cls-7" d="M969.19,1437.6c-5.29-2.45-12.4,1.66-15.88,9.18s-2,15.6,3.27,18,12.4-1.66,15.88-9.18S974.48,1440.05,969.19,1437.6Zm-11,23.69c-2.86-1.32-4.13-6.93-1.38-12.87s7.86-8.6,10.71-7.28,4.12,6.93,1.37,12.87S961.07,1462.62,958.22,1461.29Z" transform="translate(-371.69 -392.43)"/><path class="cls-7" d="M954.58,1415.86H889c-7.12,36.37,2.29,62.06,16,72.75h33.53C952.29,1477.92,961.7,1452.23,954.58,1415.86Z" transform="translate(-371.69 -392.43)"/><path class="cls-6" d="M668.47,1504.38C628.28,1519.64,639,1568,646.6,1599s56.46,211.12,56.46,211.12c37.14,17.29,47.82-16.28,47.82-16.28S736.64,1562.88,724.94,1538,695.43,1499.29,668.47,1504.38Z" transform="translate(-371.69 -392.43)"/><path class="cls-38" d="M702.05,1843.17c11.19-25.77,48.15-31.88,56.46,0Z" transform="translate(-371.69 -392.43)"/><path class="cls-30" d="M818.69,1805c.51,7.63,7.12,38.15,7.12,38.15H769.35c0-12.21,11.7-58,11.7-58Z" transform="translate(-371.69 -392.43)"/><path class="cls-6" d="M804,1506.34c42.25,7.93,40.27,57.38,38.24,89.27s-18.31,210-18.31,210c-33.5,23.58-49.94-7.58-49.94-7.58s-26.75-222-19.64-248.64S776.52,1506.09,804,1506.34Z" transform="translate(-371.69 -392.43)"/><path class="cls-38" d="M825.81,1843.17c-11.19-25.77-48.15-31.88-56.46,0Z" transform="translate(-371.69 -392.43)"/><rect class="cls-29" x="143.66" y="1112.96" width="21.37" height="336.76"/><rect class="cls-29" x="534.97" y="1112.96" width="21.37" height="336.76"/><rect class="cls-36" x="478.95" y="1151.28" width="133.39" height="298.44"/><rect class="cls-29" x="478.95" y="1298.46" width="133.39" height="4.07"/><rect class="cls-29" x="478.95" y="1377.77" width="133.39" height="4.07"/><rect class="cls-29" x="478.95" y="1232.16" width="133.39" height="4.07"/><path class="cls-39" d="M620.48,1287.33C579.79,1246,575,1185.59,611,1155.07s38.66-108.53,32.56-134.3c43.41,87.5,7.46,144.47-19.67,167.53S612.35,1265.62,620.48,1287.33Z" transform="translate(-371.69 -392.43)"/><path class="cls-40" d="M629.05,1192c-16,22.64-16.79,43.5-8.14,68.68C615.06,1223.57,629.05,1192,629.05,1192Z" transform="translate(-371.69 -392.43)"/><path class="cls-40" d="M632,1061.47c4.06,48.15-13.57,79.35-29.17,88.85C627.27,1095.38,632,1061.47,632,1061.47Z" transform="translate(-371.69 -392.43)"/><path class="cls-16" d="M2137.13,1612.55l17.34-1.68c0,6.71,5.6,41.41,52.61,67.15s59.87,44.77,59.31,63.24c-3.35,10.07,0,13.43,1.68,14.55s84.5,12.31,84.5,12.31c-10.07-13.43-45.88-29.66-55.4-40.29S2202,1582.33,2194.76,1565s-21.82-26.3-23.5-26.3-94,20.71-102.41,16.79-75.54-27.42-76.1-23.51-9,47-9,47Z" transform="translate(-371.69 -392.43)"/><path class="cls-6" d="M1936.1,1548.55l-4.35,10.84c-13.62,14.92-25.56,74,30,95.69s152.59,13.8,175.72-1.49,14.17-38.06,8.21-41.42-133.56-41.78-135.8-46.26-4.64-24.38-4.64-24.38Z" transform="translate(-371.69 -392.43)"/><path class="cls-41" d="M2259.49,1504c.38,9.7-14.55,45.52-14.55,45.52-13.06-31.34-49.62-25.74-54.84-22.39s-14.92,2.24-14.92,2.24l.74-12.68Z" transform="translate(-371.69 -392.43)"/><path class="cls-42" d="M2170.7,1532.34c34-39.55,93.64-11.94,93.64-11.94s8.21-46.63,7.09-46.63c-72,6-98.86,37.68-98.86,37.68l-13.43,13.8Z" transform="translate(-371.69 -392.43)"/><path class="cls-43" d="M2005.62,1399.9c-16.23,6.34-26.68,56.33-48.69,76.1s-33.43,48.55-21,71.91c14.13,7.28,62.81,2.38,71.91-6,15.67,21.82,56.8,74.88,120,12.6l5-.43-2-20.15s-43.93,7-68.83-3.07c-16.23-9.52-16.51-31.62-16.51-31.62s12-21,11.19-23.51-9.23-18.74-13.43-32.73S2024.36,1399.06,2005.62,1399.9Z" transform="translate(-371.69 -392.43)"/><path class="cls-32" d="M2017.93,1389.27c-5.6,5-12.31,10.63-12.31,10.63,28,10.63,38.61,45.33,37.77,43.09a88.47,88.47,0,0,1,10.54-41.23s12.13-1,13.24.1,14.83,7.27,14.83,7.27,14.27-4.48,15.11-5.59,11.2-24.35,11.2-24.35l6.43-23.22,3.92-17.35-16.51-23.78-50.08,17.35Z" transform="translate(-371.69 -392.43)"/><path class="cls-44" d="M2081.91,1378.35c9.89,2.05,15.3,5,15.3,5l1.77,7.08s-4.11,3.55-8.49,2.24S2081.91,1378.35,2081.91,1378.35Z" transform="translate(-371.69 -392.43)"/><path class="cls-30" d="M2100.49,1358.83c-1.17,2.39-3.14,3.83-4.39,3.22s-1.3-3-.13-5.44,3.14-3.84,4.39-3.22S2101.67,1356.44,2100.49,1358.83Z" transform="translate(-371.69 -392.43)"/><path class="cls-30" d="M2093.48,1347.29c10.07,2.66,14,6.72,14,6.72C2111.1,1344.5,2099.91,1344.22,2093.48,1347.29Z" transform="translate(-371.69 -392.43)"/><path class="cls-34" d="M2058.36,1360a.67.67,0,0,1-.24,0c-1.51-.54-2.55-2.11-2.79-4.21s.41-4.74,2.39-6c1.18-.76,3.2-1.26,6.31.4.65-2,.84-5.86-.73-8.19a4.31,4.31,0,0,0-4.31-1.83.71.71,0,1,1-.14-1.42,5.71,5.71,0,0,1,5.63,2.45c2,3,1.68,8.15.53,10.34a.69.69,0,0,1-.44.36.72.72,0,0,1-.57-.08c-2.28-1.39-4.19-1.67-5.51-.83s-1.93,3-1.74,4.64a3.42,3.42,0,0,0,1.85,3,.72.72,0,0,1-.24,1.39Z" transform="translate(-371.69 -392.43)"/><path class="cls-34" d="M2066.61,1395a.76.76,0,0,1-.38-.11c-2-1.26-8.88-10.91-10.54-24.16a.72.72,0,1,1,1.42-.18c1.67,13.31,8.6,22.31,9.89,23.13a.72.72,0,0,1,.22,1A.73.73,0,0,1,2066.61,1395Z" transform="translate(-371.69 -392.43)"/><path class="cls-30" d="M2092.64,1385.92a.65.65,0,0,1-.27-.05,34.67,34.67,0,0,1-12.15-7.88.7.7,0,0,1,0-1,.71.71,0,0,1,1,0,34.16,34.16,0,0,0,11.63,7.51.72.72,0,0,1-.26,1.38Z" transform="translate(-371.69 -392.43)"/><path class="cls-19" d="M2043.67,1496.31a.72.72,0,0,1-.7-.61c-.06-.35-5.63-35.17-8.4-52-1.42-8.66-5.26-15.25-11.12-19.05-6.46-4.2-15-4.94-25.48-2.2a.71.71,0,1,1-.37-1.38c10.85-2.85,19.81-2,26.63,2.38,6.2,4,10.27,10.95,11.75,20,2.77,16.88,8.34,51.7,8.4,52a.73.73,0,0,1-.6.82Z" transform="translate(-371.69 -392.43)"/><path class="cls-19" d="M2005.9,1541.91a.69.69,0,0,1-.63-.38c-.12-.21-11.29-21.34-13.51-42.23a.7.7,0,0,1,.63-.78.71.71,0,0,1,.79.63c2.2,20.6,13.24,41.5,13.35,41.71a.72.72,0,0,1-.3,1A.64.64,0,0,1,2005.9,1541.91Z" transform="translate(-371.69 -392.43)"/><path class="cls-19" d="M2053.46,1548.63a.7.7,0,0,1-.48-.19.71.71,0,0,1,0-1,47.33,47.33,0,0,0,6.11-9.18c1.67-3,2.59-4.68,3.8-4.7a1.45,1.45,0,0,1,1.3.84c1.77,2.95.27,11.31.09,12.26a.72.72,0,0,1-.83.57.73.73,0,0,1-.58-.84c.46-2.41,1.36-9.15.09-11.25a.68.68,0,0,0-.13-.18c-.38.18-1.55,2.29-2.49,4a48.86,48.86,0,0,1-6.31,9.46A.72.72,0,0,1,2053.46,1548.63Z" transform="translate(-371.69 -392.43)"/><path class="cls-19" d="M2127.89,1554.5h0a.7.7,0,0,1-.69-.74,50.57,50.57,0,0,0-2.76-16.25.72.72,0,0,1,.44-.91.73.73,0,0,1,.91.45,50.71,50.71,0,0,1,2.84,16.77A.72.72,0,0,1,2127.89,1554.5Z" transform="translate(-371.69 -392.43)"/><path class="cls-19" d="M2095.36,1656.88c-.33,0-34,3.23-81.75-7.54-36.27-8.17-47.36-39.72-50.59-62.12a25.87,25.87,0,0,0,13.69-26.72,145.11,145.11,0,0,0,27.52-8.3.71.71,0,1,0-.58-1.3c-.38.16-37.91,16.58-68.63,8.08a.71.71,0,1,0-.38,1.37,74.31,74.31,0,0,0,19.78,2.49,114.12,114.12,0,0,0,20.88-2.07c1.84,16.13-9.24,23.24-12.48,25a120.14,120.14,0,0,1-1-19.88.71.71,0,0,0-.68-.74.72.72,0,0,0-.75.68c-.49,12.08-.28,73,52.89,85a317.4,317.4,0,0,0,68.72,8c8.52,0,13.36-.46,13.49-.47a.72.72,0,1,0-.15-1.43Z" transform="translate(-371.69 -392.43)"/><path class="cls-19" d="M2245.69,1695.52a.71.71,0,0,1-.35-1.34c.15-.08,15-8.38,18.81-13.24a.72.72,0,1,1,1.13.88c-4,5.09-18.62,13.27-19.24,13.61A.63.63,0,0,1,2245.69,1695.52Z" transform="translate(-371.69 -392.43)"/><path class="cls-16" d="M1959.5,1552.32a81.67,81.67,0,0,1-22.92-2.88.71.71,0,0,1-.48-.89.71.71,0,0,1,.89-.48c25.81,7.68,63.58-2.7,64-2.8a.71.71,0,1,1,.38,1.37C2001.05,1546.72,1980.68,1552.32,1959.5,1552.32Z" transform="translate(-371.69 -392.43)"/><path class="cls-30" d="M2105.79,1323.05c-9.89,22.38-32.09,24.24-36.75,21.45-4.1-12.31-18.09-8-19.4,3.91s13.24,22.39.56,40.48-34.14,9.14-42-.93-3.73-23.69,9-30,11.94-20,14.93-30,31-57.64,76.29-16.42c20.52,29.1,18.28,39,9.51,53.16s-11.19,11.94-6.34,28-23.13,37.12-57.64,9.14c5.41-7.46,12.13-7.27,15.11-5.22s9.7,7.09,13.62,5.41,3.17-6.16,4.29-8,5.22-2.61,6.34-6.34c4.29-.56,3.92-2.8,3.92-4.29s2.42-3,2.42-3,6,.93,6.16,0-.56-15.48.56-18.09,6.71-6.53,8.39-12.31S2105.79,1323.05,2105.79,1323.05Z" transform="translate(-371.69 -392.43)"/><path class="cls-32" d="M2131,1533.92s8,2.52,12.5-4.94,6.71-14.92,16.41-15.67,15.3-4.85,15.3-4.85c.37,1.12-4.85,7.09-6.72,12.31s23.88,1.87,24.25,4.48-6,7.09-8.58,10.82-7.46,13.8-11.56,16-39.64,2-39.64,2Z" transform="translate(-371.69 -392.43)"/><path class="cls-32" d="M2297.17,1727.83c-2.92-3.27-13-18.27-25.84-38a175.12,175.12,0,0,1-22.29,16.81c13.32,12.58,17.68,23.68,17.35,34.6-3.35,10.07,0,13.43,1.68,14.55s84.5,12.31,84.5,12.31C2342.5,1754.69,2306.69,1738.46,2297.17,1727.83Z" transform="translate(-371.69 -392.43)"/><path class="cls-30" d="M2266.39,1741.26c-3.35,10.07,0,13.43,1.68,14.55s84.5,12.31,84.5,12.31c-10.07-13.43-45.88-29.66-55.4-40.29-.2-.23-.45-.53-.72-.87a66.39,66.39,0,0,0-6,15.42,38.9,38.9,0,0,1-24.06-2.91C2266.41,1740.07,2266.41,1740.66,2266.39,1741.26Z" transform="translate(-371.69 -392.43)"/><path class="cls-3" d="M101.62,1448.24h2090a7.83,7.83,0,0,1,7.83,7.83v41.06a0,0,0,0,1,0,0H93.79a0,0,0,0,1,0,0v-41.06A7.83,7.83,0,0,1,101.62,1448.24Z"/><path class="cls-4" d="M1081.72,892.3c-39.55,24.91-88.7,18-88.7,18s15-47.33,54.51-72.24,79.26-32.95,88.7-18S1121.27,867.39,1081.72,892.3Z" transform="translate(-371.69 -392.43)"/><path class="cls-4" d="M937,905.88c32.2,33.87,35.06,83.43,35.06,83.43S922.7,984,890.5,950.07s-47.9-71.23-35.06-83.44S904.79,872,937,905.88Z" transform="translate(-371.69 -392.43)"/><path class="cls-4" d="M1288,907.28c-31.77,16.89-69.1,8.77-69.1,8.77s14.16-35.48,45.93-52.37,62.7-20.8,69.1-8.76S1319.76,890.4,1288,907.28Z" transform="translate(-371.69 -392.43)"/><path class="cls-5" d="M957.86,1202.21a4,4,0,0,1-1.18-5.12c66.91-121.95,145.07-198.83,198.86-241.86,58.41-46.72,100.37-64.29,102.13-65a3.94,3.94,0,1,1,3,7.29c-.43.17-42.91,18-100.5,64.11-53.14,42.56-130.39,118.61-196.59,239.26a3.93,3.93,0,0,1-5.35,1.56Z" transform="translate(-371.69 -392.43)"/><path class="cls-4" d="M1207.4,999.34c-35.92-1.84-63.78-28-63.78-28S1174,948.19,1209.93,950s64.48,14.38,63.78,28S1243.32,1001.19,1207.4,999.34Z" transform="translate(-371.69 -392.43)"/><path class="cls-4" d="M1110.3,943.77c5.26,35.59-14.9,68-14.9,68s-28.69-25.24-33.94-60.82,1.41-66,14.9-68S1105,908.18,1110.3,943.77Z" transform="translate(-371.69 -392.43)"/><path class="cls-4" d="M1095.44,1121.26c-36-1.09-64.36-26.65-64.36-26.65s29.9-23.79,65.86-22.7,64.76,13,64.35,26.66S1131.39,1122.36,1095.44,1121.26Z" transform="translate(-371.69 -392.43)"/></g></g></svg>