<svg xmlns="http://www.w3.org/2000/svg" xmlns:xlink="http://www.w3.org/1999/xlink" viewBox="0 0 2823.01 2800"><defs><style>.cls-1{fill:none;}.cls-2{fill:#f4f7fa;}.cls-3{fill:url(#linear-gradient);}.cls-4{clip-path:url(#clip-path);}.cls-5{fill:#fcfdfe;}.cls-6{clip-path:url(#clip-path-2);}.cls-7{fill:url(#linear-gradient-2);}.cls-8{fill:#beb8f2;}.cls-9{fill:url(#linear-gradient-3);}.cls-10{fill:url(#linear-gradient-4);}.cls-11{fill:url(#linear-gradient-5);}.cls-12{fill:url(#linear-gradient-6);}.cls-13{fill:url(#linear-gradient-7);}.cls-14{fill:url(#linear-gradient-8);}.cls-15{fill:url(#linear-gradient-9);}.cls-16{fill:url(#linear-gradient-10);}.cls-17{fill:url(#linear-gradient-11);}.cls-18{fill:#fff;}.cls-19{clip-path:url(#clip-path-3);}.cls-20{fill:url(#linear-gradient-12);}.cls-21{fill:url(#linear-gradient-13);}.cls-22{fill:url(#linear-gradient-14);}.cls-23{fill:url(#linear-gradient-15);}.cls-24{fill:url(#linear-gradient-16);}.cls-25{fill:url(#linear-gradient-17);}.cls-26{fill:url(#linear-gradient-18);}.cls-27{clip-path:url(#clip-path-4);}.cls-28{fill:url(#linear-gradient-19);}.cls-29{fill:url(#linear-gradient-20);}.cls-30{fill:url(#linear-gradient-21);}.cls-31{fill:url(#linear-gradient-22);}.cls-32{fill:url(#linear-gradient-23);}.cls-33{fill:url(#linear-gradient-24);}.cls-34{fill:url(#linear-gradient-25);}.cls-35{fill:url(#linear-gradient-26);}.cls-36{clip-path:url(#clip-path-5);}.cls-37{fill:url(#linear-gradient-27);}.cls-38{fill:url(#linear-gradient-28);}.cls-39{fill:url(#linear-gradient-29);}.cls-40{fill:url(#linear-gradient-30);}.cls-41{fill:url(#linear-gradient-31);}</style><linearGradient id="linear-gradient" x1="-617.58" y1="2149.62" x2="-159.24" y2="5079.76" gradientTransform="matrix(-0.9, -0.44, -0.44, 0.9, 3657.63, -696.28)" gradientUnits="userSpaceOnUse"><stop offset="0" stop-color="#e38ddd"/><stop offset="1" stop-color="#9571f6"/></linearGradient><clipPath id="clip-path" transform="translate(-454.62 -455)"><path class="cls-1" d="M2298.14,2596.75c54,101.88,104.83,207.77,158.7,310.66,65.52-6.1,142.45-14.87,142.81-96.8.5-113.92,184.74-190.12,274.89-208.2,111.56-22.38,348.22-93.16,269.69-240.9-65.38-123-154.43-172.87-22.93-280.91s169.88-231.4,77.48-356.85c-97.23-132,10.18-352.83-145.72-420.69-271.65-118.23-380.77,334.32-324.31,561.71s-78.16,199.69-218.29,271c-191.32,97.31,13.56,253.75-45,356.77C2419.52,2573.28,2371.31,2568.46,2298.14,2596.75Z"/></clipPath><clipPath id="clip-path-2" transform="translate(-454.62 -455)"><path class="cls-1" d="M2453.86,2779.89q-150.39-13.54-300.79-34c-1.53,1.55-46.28-212.77,50-331.9,190.69-231,42.84-420.42-2.74-535-71.69-161.17-51-363.13,132.54-335.84,178.53,22.35,184.87-343,138.61-621.49-33.7-134.94,85.69-307.69,212-352.73,128.75-49.28,264.42,29.13,319.81,298.77,78.4,311.39-140.66,514.16-216.86,676.77-75,159.65,126.79,274.06-22.23,420.16-125,129.4-286.2,226.43-216.8,376.24C2618.38,2488.86,2610.4,2613.56,2453.86,2779.89Z"/></clipPath><linearGradient id="linear-gradient-2" x1="5185.56" y1="2250.27" x2="4470.45" y2="4282.71" gradientTransform="matrix(-0.89, -0.45, -0.45, 0.89, 8330.55, 925.06)" gradientUnits="userSpaceOnUse"><stop offset="0" stop-color="#aa80f9"/><stop offset="1" stop-color="#6165d7"/></linearGradient><linearGradient id="linear-gradient-3" x1="3070.43" y1="2671.07" x2="-506.39" y2="1185.78" gradientTransform="matrix(0.97, -0.25, 0.25, 0.97, 1140.73, 528.59)" gradientUnits="userSpaceOnUse"><stop offset="0.1" stop-color="#311944"/><stop offset="0.27" stop-color="#371b47"/><stop offset="0.48" stop-color="#462150"/><stop offset="0.72" stop-color="#612a5f"/><stop offset="0.97" stop-color="#853774"/><stop offset="1" stop-color="#893976"/></linearGradient><linearGradient id="linear-gradient-4" x1="3072.13" y1="2666.72" x2="-504.56" y2="1181.48" xlink:href="#linear-gradient-3"/><linearGradient id="linear-gradient-5" x1="-517.51" y1="1077.12" x2="2077.21" y2="2701.85" gradientTransform="matrix(0.97, -0.25, 0.25, 0.97, 1140.73, 528.59)" xlink:href="#linear-gradient-2"/><linearGradient id="linear-gradient-6" x1="4118.64" y1="3697.68" x2="537.78" y2="2210.71" gradientTransform="matrix(1, 0, 0, 1, 0, 0)" xlink:href="#linear-gradient-3"/><linearGradient id="linear-gradient-7" x1="4119.7" y1="3695.11" x2="538.84" y2="2208.14" gradientTransform="matrix(1, 0, 0, 1, 0, 0)" xlink:href="#linear-gradient-3"/><linearGradient id="linear-gradient-8" x1="623.38" y1="1948.59" x2="3221.02" y2="3575.15" gradientTransform="matrix(1, 0, 0, 1, 0, 0)" xlink:href="#linear-gradient-2"/><linearGradient id="linear-gradient-9" x1="1340.66" y1="3497.32" x2="1672.18" y2="2475.12" gradientUnits="userSpaceOnUse"><stop offset="0" stop-color="#f36f56"/><stop offset="1" stop-color="#ffc444"/></linearGradient><linearGradient id="linear-gradient-10" x1="482.95" y1="2102.14" x2="1423.05" y2="2102.14" gradientUnits="userSpaceOnUse"><stop offset="0" stop-color="#444b8c"/><stop offset="1" stop-color="#26264f"/></linearGradient><linearGradient id="linear-gradient-11" x1="514.87" y1="2112.78" x2="1454.97" y2="2112.78" gradientTransform="matrix(1, 0, 0, 1, 0, 0)" xlink:href="#linear-gradient"/><clipPath id="clip-path-3" transform="translate(-454.62 -455)"><path class="cls-1" d="M1392.43,2091.47c0,221.08-176.76,412.51-398.43,427.81-225.79,15.58-411.92-156.87-411.92-385.45S768.21,1713.35,994,1705.32C1215.67,1697.44,1392.43,1870.38,1392.43,2091.47Z"/></clipPath><linearGradient id="linear-gradient-12" x1="1136.36" y1="1790.71" x2="1006.42" y2="2193.52" gradientUnits="userSpaceOnUse"><stop offset="0" stop-color="#ab316d"/><stop offset="1" stop-color="#792d3d"/></linearGradient><linearGradient id="linear-gradient-13" x1="548.52" y1="2463.9" x2="1423.74" y2="2463.9" gradientUnits="userSpaceOnUse"><stop offset="0" stop-color="#ff9085"/><stop offset="1" stop-color="#fb6fbb"/></linearGradient><linearGradient id="linear-gradient-14" x1="981.67" y1="2148.04" x2="983.36" y2="2474.91" xlink:href="#linear-gradient-9"/><linearGradient id="linear-gradient-15" x1="1028" y1="1678.01" x2="952.7" y2="2185.43" xlink:href="#linear-gradient-9"/><linearGradient id="linear-gradient-16" x1="1041.52" y1="1757.84" x2="907.3" y2="2173.9" xlink:href="#linear-gradient-12"/><linearGradient id="linear-gradient-17" x1="1952.25" y1="2627.01" x2="2849.68" y2="2627.01" xlink:href="#linear-gradient-10"/><linearGradient id="linear-gradient-18" x1="1983.75" y1="2627.01" x2="2881.18" y2="2627.01" xlink:href="#linear-gradient-13"/><clipPath id="clip-path-4" transform="translate(-454.62 -455)"><path class="cls-1" d="M2821.45,2622.17c0,214.63-168.81,393.56-380.46,399.73-215.51,6.29-393.12-168.32-393.12-390.1S2225.48,2231,2441,2231.91C2652.64,2232.82,2821.45,2407.53,2821.45,2622.17Z"/></clipPath><linearGradient id="linear-gradient-19" x1="2015.85" y1="2968.48" x2="2851.35" y2="2968.48" xlink:href="#linear-gradient-12"/><linearGradient id="linear-gradient-20" x1="2428.15" y1="2662.5" x2="2429.74" y2="2971.6" xlink:href="#linear-gradient-9"/><linearGradient id="linear-gradient-21" x1="2473.68" y1="2236.07" x2="2395.65" y2="2717.93" xlink:href="#linear-gradient-9"/><linearGradient id="linear-gradient-22" x1="2432.68" y1="2335.93" x2="2394.49" y2="2571.8" xlink:href="#linear-gradient-10"/><linearGradient id="linear-gradient-23" x1="2595.78" y1="2256.13" x2="2518.01" y2="2736.46" xlink:href="#linear-gradient-9"/><linearGradient id="linear-gradient-24" x1="2359.18" y1="2217.58" x2="2281" y2="2700.39" xlink:href="#linear-gradient-9"/><linearGradient id="linear-gradient-25" x1="1580.4" y1="1144.2" x2="2722.26" y2="1144.2" xlink:href="#linear-gradient-10"/><linearGradient id="linear-gradient-26" x1="1618.97" y1="1144.2" x2="2760.84" y2="1144.2" xlink:href="#linear-gradient-9"/><clipPath id="clip-path-5" transform="translate(-454.62 -455)"><path class="cls-1" d="M2684.88,1157.76c0,267.83-214.68,482.66-483.92,479.79-274.25-2.92-500.35-229.82-500.35-506.74S1926.71,639.38,2201,651.48C2470.2,663.35,2684.88,889.94,2684.88,1157.76Z"/></clipPath><linearGradient id="linear-gradient-27" x1="2901.96" y1="-4.22" x2="1549.15" y2="2557.74" xlink:href="#linear-gradient-12"/><linearGradient id="linear-gradient-28" x1="2191.9" y1="1494.37" x2="2140.47" y2="2413.63" xlink:href="#linear-gradient-10"/><linearGradient id="linear-gradient-29" x1="2185.98" y1="1187.41" x2="2188.01" y2="1580.25" xlink:href="#linear-gradient-9"/><linearGradient id="linear-gradient-30" x1="2241.54" y1="620.51" x2="2151" y2="1230.66" xlink:href="#linear-gradient-9"/><linearGradient id="linear-gradient-31" x1="2459.6" y1="520.47" x2="1947.1" y2="1491.05" xlink:href="#linear-gradient-12"/></defs><title>community-fb</title><g id="Illustration"><path class="cls-2" d="M3196,1819.71c46.28,236.16,140.08,714.79-84.39,1035-407.4,581.11-1792.93,540.16-2378.17-192.5C682.85,2598.85,429,2268.44,456.73,1816c48-784.77,915.09-1480.35,1610-1343.73,406.68,80,677,429.74,788.25,573.74C2900.81,1105.34,3110.83,1385.12,3196,1819.71Z" transform="translate(-454.62 -455)"/><path class="cls-3" d="M2579.11,2844.12c-16.75.87-54-12-62.29-19.36-55.35-49-164.94-133.88-174.42-211.43-1.62-13.24,54.72-36.09,60.73-49.61,32.38-23.28,45.06-29.35,65-66.61,58.79-110-148.16-258.65,42.76-359,139.85-73.51,274.45-45.27,216.48-272.62s48.08-680.24,320.52-564c156.35,66.73,50.43,288.37,148.57,419.7,93.27,124.8,55.7,248.4-75.07,357.36s-41.34,158.08,24.83,280.77c79.48,147.38-156.46,219.11-268.21,242.93C2788,2621.46,2571.79,2731,2579.11,2844.12Z" transform="translate(-454.62 -455)"/><g class="cls-4"><path class="cls-5" d="M2428.44,2722.64l-2.09-2.89c444.94-322.47,650.34-874,549.45-1475.29l3.52-.59c47.81,285,25.66,569.59-64.06,823.08C2820.94,2333.45,2652.6,2560.18,2428.44,2722.64Z" transform="translate(-454.62 -455)"/><path class="cls-5" d="M3183.9,2419.27c-148.76-21.47-384.25,18.55-525,89.22l-1.6-3.19c141.25-70.94,377.69-111.12,527.06-89.56Z" transform="translate(-454.62 -455)"/><path class="cls-5" d="M2515.06,2658.34l-2.81-2.2c50.36-64.51,66.17-152,47-260-14-79.23-46.25-167.45-95.68-262.22l3.16-1.65c49.6,95.1,81.92,183.66,96,263.24C2582.12,2504.55,2566.07,2593,2515.06,2658.34Z" transform="translate(-454.62 -455)"/><path class="cls-5" d="M2926.6,2030.48l-2.92-2c88.67-126.48,241-182.88,353.17-207.92l.78,3.48C3166.07,1848.9,3014.61,1904.93,2926.6,2030.48Z" transform="translate(-454.62 -455)"/><path class="cls-5" d="M2998.06,1684.17l-3.55.37c-17.6-173.13-142.39-306.51-215.21-370.61l2.35-2.68C2854.87,1375.69,2980.34,1509.84,2998.06,1684.17Z" transform="translate(-454.62 -455)"/></g><g class="cls-6"><path class="cls-7" d="M2453.86,2779.89q-150.39-13.54-300.79-34c-1.53,1.55-46.28-212.77,50-331.9,190.69-231,42.84-420.42-2.74-535-71.06-161.09-48.57-341.11,118.77-353.16,185.39-17,201.78-326.37,152.38-604.17-33.7-134.94,85.69-307.69,212-352.73,128.75-49.28,264.42,29.13,319.81,298.77,78.4,311.39-140.66,514.16-216.86,676.77-75,159.65,126.79,274.06-22.23,420.16-125,129.4-286.2,226.43-216.8,376.24C2618.38,2488.86,2610.4,2613.56,2453.86,2779.89Z" transform="translate(-454.62 -455)"/><path class="cls-8" d="M2316.59,2800.44c-.14-1.92,69.28-462.12,208.32-914.16,18.59-72.9,39.11-146.56,59-217.8C2694.39,1271.75,2798.78,897,2641,495.72l5.58-2.19c158.53,403.16,53.88,778.83-56.92,1176.56-19.84,71.21-40.35,144.84-59,217.82-139.79,454.48-208,909.52-208.1,912.33Z" transform="translate(-454.62 -455)"/><path class="cls-8" d="M2684.12,1301l-4.68-3.76c103.91-129.37,227.81-311.91,294.37-410,53.87-79.37,54.13-79.36,57.21-79l-.3,3,1.54,2.51c-3,2.57-25.3,35.38-53.49,76.92C2912.16,988.71,2788.17,1171.39,2684.12,1301Z" transform="translate(-454.62 -455)"/><path class="cls-8" d="M2706.41,1129.73c-30.72-139.18-93.65-228.44-141-278.82-51.61-54.87-98.7-78.79-104.37-79.48l.28-2.31-2.27-3c1.44-1.08,3.16-.75,5.85.24,38.52,14.22,193.37,117.35,247.39,362.08Z" transform="translate(-454.62 -455)"/><path class="cls-8" d="M2449.62,2181.4l-6-.37c17.64-282.87-187.93-534.3-277.14-629.27-4.79-5.1-6.33-6.76-6.91-7.64l5-3.29-2.51,1.65,2.5-1.67c.43.62,3.14,3.5,6.28,6.85,64.33,68.49,119.34,141.2,163.48,216.1C2419.15,1907.65,2457.93,2048.16,2449.62,2181.4Z" transform="translate(-454.62 -455)"/><path class="cls-8" d="M2486.54,2041l-5.27-2.86c108.23-199,358.12-227,362.23-226.81h0l2.39,2.68-1.88,3-1.11-2.76,0,3C2840.51,1817.34,2593.69,1844,2486.54,2041Zm355.27-229.51,1.11,2.78Z" transform="translate(-454.62 -455)"/><path class="cls-8" d="M2329,2725.19c-1.11-57.14-27-153.21-144-286.48-6.64-7.56-6.64-7.56-6.5-9.12l6,.53-3-.27,2.63-1.38c.39.59,2.71,3.23,5.39,6.29,118.17,134.63,144.32,232.18,145.45,290.31Z" transform="translate(-454.62 -455)"/><path class="cls-8" d="M2354.17,2616.18l-5.84-1.35c23.75-103.37,161.5-185.75,241.5-225.65,2.54-1.27,4.17-2.08,4.75-2.42l3,5.17c-.62.37-2.37,1.25-5.11,2.61C2513.46,2434,2377.38,2515.2,2354.17,2616.18Z" transform="translate(-454.62 -455)"/></g><path class="cls-9" d="M1894.29,2100.77c55.92,12.26,112-26.88,125.3-87.43s-21.29-119.57-77.2-131.84c-2.9-.63-5.8-1-8.69-1.41a647.55,647.55,0,0,0-2.42-94.67c2.83-.74,5.66-1.52,8.48-2.53,55.06-19.65,86.36-83.06,69.9-141.63s-74.43-90.12-129.5-70.47c-2.88,1-5.65,2.24-8.4,3.5a594.72,594.72,0,0,0-46.25-79c2.19-2.19,4.37-4.42,6.43-6.84,39.46-46.3,37.57-117-4.21-157.89s-107.65-36.51-147.11,9.79c-2,2.37-3.86,4.84-5.67,7.34a525.75,525.75,0,0,0-77.69-42.16c.91-3,1.78-6.06,2.47-9.19,13.28-60.55,33.61-128.2-22.49-139.59-129.78-26.34-166.72,34.62-180,95.17-.68,3.14-1.17,6.26-1.6,9.39a526.26,526.26,0,0,0-88.2,5.76c-.6-3-1.24-6-2.08-9-16.46-58.56-7.25-95-64.12-81.37-124,29.61-151.75,94-135.29,152.54.86,3.06,1.9,6,3,8.91a592.89,592.89,0,0,0-75.08,52.39c-2-2.3-4-4.56-6.16-6.7-41.79-40.9-107.65-36.51-147.11,9.79s-37.58,117,4.21,157.89c2.14,2.1,4.38,4,6.64,5.85a647.35,647.35,0,0,0-41.83,85c-2.78-.88-5.58-1.71-8.48-2.35-55.91-12.26-112,26.88-125.29,87.42S737.1,1846.94,793,1859.2c2.9.64,5.79,1,8.68,1.42a647.58,647.58,0,0,0,2.43,94.67c-2.83.74-5.66,1.52-8.48,2.53-55.07,19.65-86.37,83.06-69.91,141.63s74.44,90.12,129.51,70.46c2.87-1,5.65-2.24,8.39-3.5a593.06,593.06,0,0,0,46.26,79c-2.2,2.2-4.37,4.43-6.44,6.85-39.46,46.3-37.57,117,4.22,157.89s144.32,38.32,183.78-8c2-2.37-32.81-6.66-31-9.15a525.8,525.8,0,0,0,77.7,42.15c-.92,3-1.79,6.07-2.48,9.2-13.28,60.55,21.29,119.57,77.2,131.84s112-26.87,125.3-87.42c.69-3.14,1.17-6.27,1.6-9.39a526.45,526.45,0,0,0,88.21-5.76c.59,3,1.23,6,2.07,9,16.46,58.57,74.44,90.12,129.51,70.47s86.37-83.06,69.91-141.63c-.86-3.06-1.9-6-3-8.91a594.33,594.33,0,0,0,75.08-52.39c2,2.29,4,4.56,6.16,6.69,41.78,40.9,107.65,36.52,147.11-9.79s37.57-117-4.21-157.89c-2.14-2.09-4.38-4-6.64-5.84a647.92,647.92,0,0,0,41.82-85C1888.59,2099.29,1891.39,2100.13,1894.29,2100.77Zm-613.9,167.63c-203-44.53-328.52-258.84-280.3-478.68s251.9-362,454.92-317.41,328.52,258.84,280.3,478.68S1483.42,2312.93,1280.39,2268.4Z" transform="translate(-454.62 -455)"/><path class="cls-10" d="M1939.76,1782.89c55.06-19.66,86.36-83.06,69.91-141.63s-74.44-90.12-129.51-70.47c-2.88,1-5.65,2.25-8.4,3.5a593.63,593.63,0,0,0-46.25-79c2.19-2.19,4.37-4.43,6.43-6.85,39.46-46.3,77.94-143.42,32.18-179.81-86.85-69.08-144-14.58-183.5,31.72-2,2.37-3.86,4.84-5.67,7.34a525.75,525.75,0,0,0-77.69-42.16c.91-3,1.78-6.06,2.47-9.19,7.23-33,.21-65.4-16.64-90.15q-38,141.11-73.55,282.82c170.32,67.73,269.51,262.58,225.77,462-37.06,169-166,291.91-315.85,319.58-2.15,18.73-4.15,37.51-6.81,56.19-7.2,50.7-17.24,101.13-27.33,151.5q21.47-1.46,42.66-4.63c.59,3,1.23,6,2.07,9,16.46,58.57,65.19,99.32,165.94,67.39,55.74-17.66,49.94-80,33.48-138.55-.86-3.06-1.9-6-3-8.91a594.33,594.33,0,0,0,75.08-52.39c2,2.29,4,4.56,6.16,6.69,41.78,40.9,148.45,35.21,187.91-11.1s-3.23-115.68-45-156.57c-2.14-2.1-4.38-4-6.64-5.86a648.43,648.43,0,0,0,41.82-84.95c2.78.88,5.58,1.71,8.48,2.34,55.92,12.27,112-26.87,125.3-87.42s-21.29-119.57-77.2-131.84c-2.9-.63-5.8-1-8.69-1.41a647.55,647.55,0,0,0-2.42-94.67C1934.11,1784.68,1936.94,1783.89,1939.76,1782.89Z" transform="translate(-454.62 -455)"/><path class="cls-11" d="M1949,2093c55.92,12.27,112-26.87,125.3-87.42S2053,1886,1997.09,1873.76c-2.89-.64-5.79-1-8.68-1.42a647.45,647.45,0,0,0-2.42-94.66c2.83-.75,5.66-1.53,8.48-2.54,55.06-19.65,86.36-83.06,69.91-141.63s-74.44-90.12-129.51-70.47c-2.88,1-5.65,2.25-8.4,3.51a593.06,593.06,0,0,0-46.26-79c2.2-2.19,4.38-4.43,6.44-6.85,39.46-46.3,37.58-117-4.21-157.89s-107.65-36.51-147.11,9.79c-2,2.38-3.86,4.85-5.67,7.34a525.69,525.69,0,0,0-77.69-42.15c.91-3,1.78-6.06,2.47-9.2,13.28-60.55-21.28-119.57-77.2-131.84s-112,26.88-125.3,87.42c-.68,3.14-1.17,6.27-1.6,9.39a525.21,525.21,0,0,0-88.2,5.77c-.6-3-1.24-6-2.08-9-16.46-58.57-74.44-90.12-129.5-70.47s-86.37,83.07-69.91,141.63c.86,3.06,1.89,6,3,8.91a592.89,592.89,0,0,0-75.08,52.39c-2-2.29-4-4.56-6.16-6.7-41.79-40.89-107.65-36.51-147.11,9.8s-37.58,117,4.21,157.88c2.14,2.1,4.38,4,6.64,5.86a646.73,646.73,0,0,0-41.83,85c-2.78-.88-5.58-1.72-8.48-2.35-55.91-12.27-112,26.87-125.29,87.42s21.28,119.57,77.2,131.84c2.9.63,5.79,1,8.68,1.41a647.54,647.54,0,0,0,2.43,94.67c-2.83.74-5.66,1.53-8.48,2.53-55.07,19.66-86.37,83.06-69.91,141.63s74.44,90.12,129.51,70.47c2.87-1,5.65-2.24,8.39-3.5a593.69,593.69,0,0,0,46.26,79c-2.2,2.19-4.37,4.43-6.44,6.85-39.45,46.3-37.57,117,4.22,157.88s107.64,36.52,147.1-9.79c2-2.37,3.87-4.84,5.67-7.34a525.85,525.85,0,0,0,77.7,42.16c-.92,3-1.79,6.06-2.48,9.2-13.28,60.54,21.29,119.57,77.2,131.83s112-26.87,125.3-87.42c.69-3.13,1.17-6.26,1.61-9.39a525.34,525.34,0,0,0,88.2-5.76c.59,3,1.23,6,2.07,9,16.46,58.57,74.44,90.11,129.51,70.46s86.37-83.06,69.91-141.63c-.86-3.06-1.9-6-3-8.91a595.29,595.29,0,0,0,75.08-52.38c2,2.29,4,4.55,6.16,6.69,41.78,40.89,107.65,36.51,147.11-9.79s37.57-117-4.21-157.89c-2.14-2.09-4.38-4-6.64-5.85a647.94,647.94,0,0,0,41.82-85C1943.3,2091.55,1946.1,2092.38,1949,2093Zm-613.9,167.63c-203-44.53-328.52-258.84-280.3-478.68s251.9-361.94,454.92-317.41,328.52,258.85,280.3,478.68S1538.13,2305.19,1335.1,2260.65Z" transform="translate(-454.62 -455)"/><path class="cls-12" d="M2247.6,3025.27c30.29,15.38,68.36,1.26,85-31.55s5.59-71.87-24.71-87.26c-1.57-.79-3.17-1.46-4.77-2.1a386.28,386.28,0,0,0,12.72-54.75c1.73,0,3.47,0,5.25-.2,34.56-3.08,62-34.84,61.27-70.95s-29.33-62.87-63.9-59.79c-1.8.17-3.58.45-5.34.76a352.29,352.29,0,0,0-14.8-52.28c1.59-.93,3.17-1.89,4.72-3,29.57-20.71,39-61.61,21.12-91.34s-56.41-37-86-16.3c-1.52,1.06-2.94,2.21-4.35,3.37a313.18,313.18,0,0,0-38.36-35.8c1-1.6,1.93-3.22,2.79-4.91,16.66-32.81,38.43-68.65,7.89-83.56-70.64-34.48-101-5-117.61,27.85-.86,1.7-1.6,3.42-2.32,5.15a313.84,313.84,0,0,0-51.53-9.84c.11-1.82.19-3.65.15-5.5-.72-36.1,10-55.64-24.71-56.31-75.66-1.47-101.19,31.37-100.47,67.47,0,1.89.2,3.73.39,5.56a353.85,353.85,0,0,0-51,18.91c-.79-1.61-1.6-3.21-2.54-4.77-17.91-29.72-56.4-37-86-16.3s-39,61.61-21.12,91.34c.92,1.52,1.92,2.95,3,4.35a383.4,383.4,0,0,0-36.7,42.58c-1.47-.92-3-1.82-4.52-2.62-30.3-15.38-68.36-1.25-85,31.55s-5.6,71.87,24.7,87.26c1.57.79,3.17,1.46,4.78,2.1a383.36,383.36,0,0,0-12.72,54.76c-1.74,0-3.48,0-5.25.19-34.57,3.08-62,34.84-61.28,70.95s29.33,62.87,63.9,59.79c1.81-.16,3.58-.45,5.35-.76a352.26,352.26,0,0,0,14.79,52.28c-1.58.93-3.17,1.89-4.71,3-29.58,20.72-39,61.61-21.12,91.34s77.21,43.53,106.78,22.81c1.51-1.06-17.86-8.72-16.45-9.88a312.37,312.37,0,0,0,38.35,35.8c-1,1.6-1.93,3.22-2.79,4.92-16.66,32.8-5.6,71.87,24.7,87.25s68.36,1.26,85-31.55c.86-1.69,1.61-3.42,2.32-5.15a311.87,311.87,0,0,0,51.54,9.84c-.11,1.82-.2,3.65-.16,5.5.72,36.1,29.33,62.87,63.9,59.79s62-34.85,61.28-70.95c0-1.89-.2-3.73-.38-5.56a350.94,350.94,0,0,0,50.94-18.91c.79,1.61,1.61,3.21,2.54,4.77,17.91,29.72,56.41,37,86,16.3s39-61.61,21.12-91.34c-.92-1.52-1.92-2.94-2.94-4.35a384.37,384.37,0,0,0,36.69-42.58C2244.54,3023.57,2246,3024.47,2247.6,3025.27Zm-377.7,4.79c-110-55.85-150.16-197.69-89.68-316.8s198.68-170.4,308.68-114.55,150.16,197.69,89.69,316.81S1979.9,3085.91,1869.9,3030.06Z" transform="translate(-454.62 -455)"/><path class="cls-13" d="M2321.11,2849.41c34.56-3.08,62-34.84,61.27-70.95s-29.33-62.87-63.9-59.79c-1.8.16-3.58.45-5.34.76a352.29,352.29,0,0,0-14.8-52.28c1.59-.93,3.17-1.89,4.72-3,29.57-20.71,66.16-70.78,45.29-98.51-39.6-52.63-80.58-29.85-110.15-9.13-1.52,1.06-2.94,2.21-4.35,3.37a313.18,313.18,0,0,0-38.36-35.8c1-1.6,1.93-3.22,2.79-4.91a68.81,68.81,0,0,0,3.88-54.28q-42.84,75.42-84.42,151.52c87.76,64.31,115.7,191,60.84,299.09-46.48,91.55-138.88,143-229.11,136.52-4,10.44-8,20.93-12.29,31.27-11.69,28.05-25,55.53-38.28,83q12.55,2.35,25.2,3.7c-.11,1.82-.2,3.65-.16,5.5.72,36.1,22.64,66.78,85.29,63.45,34.66-1.83,40.61-38.51,39.89-74.61,0-1.89-.2-3.73-.38-5.56a353.29,353.29,0,0,0,50.94-18.91c.79,1.61,1.61,3.21,2.54,4.76,17.91,29.73,80.05,42.36,109.62,21.64s15.39-66.94-2.52-96.67c-.92-1.52-1.92-2.94-2.94-4.35a384.37,384.37,0,0,0,36.69-42.58c1.47.92,2.95,1.82,4.53,2.62,30.29,15.38,68.36,1.26,85-31.55s5.59-71.87-24.71-87.26c-1.57-.79-3.17-1.46-4.77-2.1a386.28,386.28,0,0,0,12.72-54.75C2317.59,2849.6,2319.33,2849.57,2321.11,2849.41Z" transform="translate(-454.62 -455)"/><path class="cls-14" d="M2280.18,3029c30.3,15.39,68.36,1.26,85-31.54s5.6-71.88-24.7-87.26c-1.57-.8-3.17-1.47-4.78-2.11a383.23,383.23,0,0,0,12.72-54.75c1.74,0,3.48,0,5.25-.19,34.57-3.08,62-34.85,61.28-70.95s-29.33-62.87-63.9-59.79c-1.81.16-3.58.45-5.35.76a352.73,352.73,0,0,0-14.79-52.29c1.58-.93,3.17-1.89,4.71-3,29.58-20.72,39-61.61,21.12-91.34s-56.4-37-86-16.31c-1.51,1.07-2.94,2.21-4.35,3.38a311.59,311.59,0,0,0-38.35-35.8c1-1.6,1.93-3.22,2.79-4.92,16.66-32.81,5.6-71.87-24.7-87.26s-68.36-1.25-85,31.55c-.86,1.7-1.6,3.43-2.32,5.16a311.87,311.87,0,0,0-51.54-9.84c.11-1.82.2-3.65.16-5.5-.72-36.1-29.33-62.87-63.9-59.79s-62,34.84-61.28,70.95c0,1.88.2,3.73.38,5.56a350.94,350.94,0,0,0-50.94,18.91c-.79-1.62-1.61-3.21-2.54-4.77-17.91-29.73-56.41-37-86-16.3s-39,61.61-21.12,91.33c.92,1.53,1.92,3,2.94,4.36a384.26,384.26,0,0,0-36.69,42.57c-1.47-.92-3-1.81-4.52-2.61-30.3-15.38-68.37-1.26-85,31.55s-5.6,71.87,24.7,87.25c1.57.8,3.17,1.47,4.77,2.11a384.55,384.55,0,0,0-12.71,54.75c-1.74,0-3.48,0-5.25.19-34.57,3.08-62,34.85-61.28,71s29.33,62.87,63.9,59.79c1.8-.16,3.58-.44,5.34-.76a352.42,352.42,0,0,0,14.8,52.29c-1.59.93-3.17,1.89-4.72,3-29.57,20.72-39,61.62-21.11,91.34s56.4,37,86,16.31c1.51-1.06,2.94-2.21,4.34-3.37a314,314,0,0,0,38.36,35.8c-1,1.59-1.93,3.21-2.79,4.91-16.66,32.81-5.6,71.88,24.7,87.26s68.36,1.26,85-31.55c.86-1.7,1.6-3.42,2.32-5.15a313,313,0,0,0,51.53,9.83c-.1,1.83-.19,3.65-.15,5.5.72,36.11,29.33,62.88,63.9,59.8s62-34.85,61.28-70.95c0-1.89-.2-3.73-.39-5.57a352.18,352.18,0,0,0,50.95-18.9c.79,1.61,1.61,3.21,2.54,4.76,17.91,29.73,56.4,37,86,16.31s39-61.62,21.12-91.34c-.92-1.52-1.92-2.95-2.95-4.35a383.4,383.4,0,0,0,36.7-42.58C2277.13,3027.28,2278.61,3028.18,2280.18,3029Zm-377.69,4.8c-110-55.86-150.16-197.69-89.68-316.81s198.68-170.4,308.68-114.54,150.16,197.69,89.68,316.8S2012.49,3089.62,1902.49,3033.77Z" transform="translate(-454.62 -455)"/><path class="cls-15" d="M2490.27,2693.05,896.42,2126.68,2220.75,1124.73ZM1078.09,2098.64l1301,462.29-220-1280.12Z" transform="translate(-454.62 -455)"/><path class="cls-16" d="M962.08,2573.75C700.2,2592.52,483,2392.15,483,2126.71s217.25-488.54,479.13-497.15c256.36-8.43,461,192.62,461,448S1218.44,2555.37,962.08,2573.75Z" transform="translate(-454.62 -455)"/><path class="cls-17" d="M994,2584.39c-261.88,18.77-479.13-181.6-479.13-447S732.12,1648.81,994,1640.2c256.36-8.42,461,192.62,461,448S1250.36,2566,994,2584.39Z" transform="translate(-454.62 -455)"/><path class="cls-18" d="M1423.74,2089.83c0,238.46-190.51,445.17-429.74,462-244,17.17-445.48-169-445.48-416.24S750,1681.11,994,1672.76C1233.23,1664.58,1423.74,1851.37,1423.74,2089.83Z" transform="translate(-454.62 -455)"/><g class="cls-19"><path class="cls-20" d="M941.4,1810.32c-77.48,2.69-151,50.55-183.63,112.5-39.32,74.65,13.18,107.24-12.46,226-23.61,109.4-78.75,131.37-69.64,201.6,10,76.92,85.32,121.33,115.1,138.88,133.93,79,343.26,62.09,449.59-57.61,8.88-10,82.27-92.63,62.46-163.09-17.73-63-93.73-58.6-109.47-124.26-13.56-56.57,38.37-78.48,33.42-161.42-1-16.23-5.54-93-63.32-124.89-38.48-21.21-80.76-11.64-96.25-7.31C1048.6,1837.11,1003.31,1808.17,941.4,1810.32Z" transform="translate(-454.62 -455)"/><path class="cls-21" d="M548.52,2437.64S939.9,2184,1423.74,2381.21c0,0-61.63,199.57-429.74,236.08C614.4,2654.94,548.52,2437.64,548.52,2437.64Z" transform="translate(-454.62 -455)"/><path class="cls-22" d="M924.64,2115.92,910,2226.07c-5,37.58-30.66,70.38-66.35,84.72l-119.3,47.95s228.32,95.49,516.7-32.94l-131.47-37.49c-37.32-11.68-62.75-45.41-64.37-85.49l-3.78-93Z" transform="translate(-454.62 -455)"/><path class="cls-23" d="M1102.58,2010.23c0,92.19-55.49,194.35-124.28,198.22-69.19,3.89-125.57-93-125.57-186.15s56.38-146.48,125.57-149.42C1047.09,1870,1102.58,1918,1102.58,2010.23Z" transform="translate(-454.62 -455)"/><path class="cls-24" d="M1033.33,1930.18c-37.36,3.61-93.95,15.2-133.16,58.26-65.82,72.31-34.56,180.07-63.84,188.15-26.08,7.2-66.48-68.56-65.83-154.12.55-71.66,25-157.17,88.79-181.06,37.44-14,48.46,5.77,169.2,12.58,70.34,4,42.75,36.76,58.57,47.83,70.25,49.15,61.36,221.58,23.55,225.78C1092.68,2129.59,1067.9,2086,1033.33,1930.18Z" transform="translate(-454.62 -455)"/></g><path class="cls-25" d="M2409.49,3085.1c-249.95,8-457.24-195-457.24-452.5s207.29-465.62,457.24-463.89c244.77,1.71,440.19,204.78,440.19,452.72S2654.26,3077.3,2409.49,3085.1Z" transform="translate(-454.62 -455)"/><path class="cls-26" d="M2441,3085.1c-249.95,8-457.24-195-457.24-452.5S2191,2167,2441,2168.71c244.77,1.71,440.19,204.78,440.19,452.72S2685.76,3077.3,2441,3085.1Z" transform="translate(-454.62 -455)"/><path class="cls-18" d="M2851.35,2621.8c0,231.5-181.95,424.73-410.36,431.7-232.92,7.11-425.14-181.46-425.14-421.3S2208.07,2199,2441,2200.31C2669.4,2201.6,2851.35,2390.29,2851.35,2621.8Z" transform="translate(-454.62 -455)"/><g class="cls-27"><path class="cls-28" d="M2015.85,2926.34s373.5-230.9,835.5-20.62c0,0-58.86,191.34-410.36,212.36C2078.71,3139.75,2015.85,2926.34,2015.85,2926.34Z" transform="translate(-454.62 -455)"/><path class="cls-29" d="M2374.78,2627.73l-14,106.33c-4.06,67.59-69.67,94.33-69.67,94.33,77,91.37,224.27,84.42,275.76-4.93-35.58-12.75-75.47-67.74-77-106.71l-3.6-90.41Z" transform="translate(-454.62 -455)"/><path class="cls-30" d="M2544.65,2532.05c0,89.49-53,186.49-118.65,187.56-66,1.09-119.85-95.15-119.85-185.54s53.81-140,119.85-140.14C2491.68,2393.76,2544.65,2442.57,2544.65,2532.05Z" transform="translate(-454.62 -455)"/><path class="cls-31" d="M2302.59,2556.92l19.81-3.37c-3-7.37-15.54-40,0-68.81,14.91-27.61,50-41.21,76.82-39.53,30.44,1.91,48.71,16.1,64,5,8.58-6.26,11.36-17.56,12.34-26.36a83.55,83.55,0,0,0,6.17,23.11c11.36,26.36,30.57,31.74,41,49.14,7,11.71,11.63,31.36,0,66.13l17.4-1.22a490.42,490.42,0,0,0,18-81c6.77-50.21,11.43-84.77-7.8-101.54-3.84-3.34-20.79-16.59-61.38-4-9.51-10.05-29.55-28.46-60.39-37.73-10.67-3.2-63.59-19.11-110.53,15.38-31.93,23.46-57,67.2-48.91,103.31,4.25,19.09,15.89,27.62,26.13,64.51A248.94,248.94,0,0,1,2302.59,2556.92Z" transform="translate(-454.62 -455)"/><path class="cls-32" d="M2528.17,2565.23s7.61-39.27,30.74-35.57-10,68.21-30.74,76.17Z" transform="translate(-454.62 -455)"/><path class="cls-33" d="M2321,2567.28s-7.75-39.49-31.37-35.37,10.22,68.77,31.37,76.32Z" transform="translate(-454.62 -455)"/></g><path class="cls-34" d="M2162.39,1716.43c-318.1-2.54-582-266.27-582-587.85s263.89-570.87,582-556c311.37,14.57,559.87,277.88,559.87,587.25S2473.76,1718.92,2162.39,1716.43Z" transform="translate(-454.62 -455)"/><path class="cls-35" d="M2201,1716.43c-318.09-2.54-582-266.27-582-587.85s263.9-570.87,582-556c311.37,14.57,559.88,277.88,559.88,587.25S2512.33,1718.92,2201,1716.43Z" transform="translate(-454.62 -455)"/><path class="cls-18" d="M2722.91,1158.8c0,288.88-231.38,520.9-521.95,518.19-296.41-2.76-541.12-247.82-541.12-547.29S1904.55,598.56,2201,612C2491.53,625.24,2722.91,869.93,2722.91,1158.8Z" transform="translate(-454.62 -455)"/><g class="cls-36"><path class="cls-37" d="M1806.18,1496.27c-28.63-83,78.85-111.35,92.53-304.59.93-13.13,19.14-277.07,59.73-327.79a110.81,110.81,0,0,1,11.4-12.08c20.3-15.72,51.67-13.88,163.6-60.58,95.93-40,90.39-38.87,102.79-41.14,72.12-13.26,178.75,52.76,213.84,140.85,31.47,79-6.29,146.45,50.12,285.31h0c69.94,199.8,104.91,299.7,73.26,362.43C2477.26,1729.33,1870.43,1682.65,1806.18,1496.27Z" transform="translate(-454.62 -455)"/><path class="cls-38" d="M1659.84,1495.63s475.41-269.49,1063.07,16.15c0,0-74.85,235.82-521.95,244.51C1739.87,1765.25,1659.84,1495.63,1659.84,1495.63Z" transform="translate(-454.62 -455)"/><path class="cls-39" d="M2116.72,1142.2l-17.82,132a117.3,117.3,0,0,1-80.6,96.23L1873.39,1417s277.34,137.72,627.6,10l-159.68-58.1a123.68,123.68,0,0,1-78.19-109.8l-4.58-113Z" transform="translate(-454.62 -455)"/><path class="cls-40" d="M2332.84,1031.35c0,111.68-67.39,230.09-151,228.13-84-2-152.52-124.81-152.52-237.65s68.48-172,152.52-168.88C2265.45,856.07,2332.84,919.66,2332.84,1031.35Z" transform="translate(-454.62 -455)"/><path class="cls-41" d="M2024.31,1094.46c14.49-.37-6.43-118.15,49.7-149.09,37.27-20.54,101.94.9,138.3,40.18,57.32,61.92,25.25,147.81,68.67,167.46,27.56,12.48,64.35-11.42,82-29.15,55-55.37,47.54-176-17.53-245.8-51.87-55.68-122.27-59.83-139-60.3-95.84-2.71-183.85,65.74-204,149C1986.87,1030.74,2013.59,1094.73,2024.31,1094.46Z" transform="translate(-454.62 -455)"/></g></g></svg>