<svg xmlns="http://www.w3.org/2000/svg" xmlns:xlink="http://www.w3.org/1999/xlink" viewBox="0 0 2802.15 2800"><defs><style>.cls-1{fill:none;}.cls-2{fill:url(#linear-gradient);}.cls-3{fill:url(#linear-gradient-2);}.cls-4{isolation:isolate;}.cls-5{fill:#fcfdfe;}.cls-6{fill:#f4f7fa;}.cls-7{fill:url(#linear-gradient-3);}.cls-8{opacity:0.4;}.cls-10,.cls-18,.cls-8{mix-blend-mode:soft-light;}.cls-9{clip-path:url(#clip-path);}.cls-10{opacity:0.5;}.cls-11{clip-path:url(#clip-path-2);}.cls-12{clip-path:url(#clip-path-3);}.cls-13,.cls-18,.cls-19,.cls-20,.cls-25{fill:#fff;}.cls-14,.cls-16{fill:#d8dee8;}.cls-15{fill:#97a6b7;}.cls-16,.cls-27,.cls-30,.cls-35,.cls-40,.cls-54{opacity:0.3;}.cls-16,.cls-27,.cls-30,.cls-35,.cls-40,.cls-44,.cls-54{mix-blend-mode:multiply;}.cls-17{fill:url(#linear-gradient-6);}.cls-18,.cls-25{opacity:0.6;}.cls-19,.cls-44{opacity:0.2;}.cls-20,.cls-21{opacity:0.68;}.cls-22{fill:url(#linear-gradient-7);}.cls-23{fill:url(#linear-gradient-8);}.cls-24{fill:url(#linear-gradient-9);}.cls-26{fill:url(#linear-gradient-10);}.cls-27{fill:url(#linear-gradient-11);}.cls-28{fill:url(#linear-gradient-12);}.cls-29{fill:url(#linear-gradient-13);}.cls-30{fill:url(#linear-gradient-14);}.cls-31{fill:url(#linear-gradient-15);}.cls-32{fill:url(#linear-gradient-16);}.cls-33{clip-path:url(#clip-path-4);}.cls-34{fill:url(#linear-gradient-17);}.cls-35{fill:url(#linear-gradient-18);}.cls-36{fill:url(#linear-gradient-19);}.cls-37{fill:url(#linear-gradient-20);}.cls-38{fill:url(#linear-gradient-21);}.cls-39{fill:url(#linear-gradient-22);}.cls-41{fill:url(#linear-gradient-23);}.cls-42{fill:url(#linear-gradient-24);}.cls-43{fill:url(#linear-gradient-25);}.cls-45{fill:url(#linear-gradient-26);}.cls-46{fill:url(#linear-gradient-27);}.cls-47{fill:url(#linear-gradient-28);}.cls-48{fill:url(#linear-gradient-29);}.cls-49{fill:url(#linear-gradient-30);}.cls-50{fill:url(#linear-gradient-31);}.cls-51{fill:url(#linear-gradient-32);}.cls-52{fill:url(#linear-gradient-33);}.cls-53{fill:url(#linear-gradient-34);}.cls-54{fill:url(#linear-gradient-35);}.cls-55{fill:url(#linear-gradient-36);}.cls-56{fill:url(#linear-gradient-37);}.cls-57{fill:url(#linear-gradient-38);}</style><linearGradient id="linear-gradient" x1="528.64" y1="1633.95" x2="1525.55" y2="1633.95" gradientUnits="userSpaceOnUse"><stop offset="0" stop-color="#e38ddd"/><stop offset="1" stop-color="#9571f6"/></linearGradient><linearGradient id="linear-gradient-2" x1="1251.49" y1="1680" x2="1044.44" y2="2268.46" gradientUnits="userSpaceOnUse"><stop offset="0" stop-color="#ffc444"/><stop offset="1" stop-color="#f36f56"/></linearGradient><linearGradient id="linear-gradient-3" x1="3863.11" y1="341.67" x2="4729.64" y2="1768.19" gradientTransform="matrix(0.97, 0.23, -0.23, 0.97, -2329.51, -663.72)" gradientUnits="userSpaceOnUse"><stop offset="0" stop-color="#ff9085"/><stop offset="1" stop-color="#fb6fbb"/></linearGradient><clipPath id="clip-path" transform="translate(-459.04 -455)"><path class="cls-1" d="M1739.2,2159.69c249.54-1.3,917.17-154.13,658.94-303.21-215-124.12-380-163-325.41-448.69s-64.56-500.07-340.11-547.38c-290-49.78-434.14-463.11-698.16-398.59C574.41,574.24,838.4,1217,1238.12,1579.5,1574.14,1884.19,1346.15,2161.73,1739.2,2159.69Z"/></clipPath><clipPath id="clip-path-2" transform="translate(-459.04 -455)"><path class="cls-2" d="M1472.12,1880.58c35.21-67.57,113.81-226.47-29.26-274.56-119.11-40-204.88-42.81-206.44-190s-82.16-241.66-223.63-237.52C863.92,1182.83,751,992.18,626.41,1050.66c-217,101.89-40.23,432,213.08,534.18S940.85,1770,928.26,1890a208.26,208.26,0,0,0,3.43,49.17c24.25,126.53,154.65,152.48,245,258.4C1300,2342,1443.66,1935.17,1472.12,1880.58Z"/></clipPath><clipPath id="clip-path-3" transform="translate(-459.04 -455)"><path class="cls-3" d="M1598.09,1972.94c-42.25-105.8-205.34-169.19-292.07-82.12-98.14,98.5-238.09-54.47-281.69-235.17-42.66-176.83-381.61-203-324.42,188.18C734.07,2077.45,962,2109,1073.29,2152.28s71.15,215.9,227.64,198.52c75.82-8.42,290.25-79.86,328.42-175.79C1658.47,2101.8,1610.21,2003.31,1598.09,1972.94Z"/></clipPath><linearGradient id="linear-gradient-6" x1="729.21" y1="2586.18" x2="2448.34" y2="1127.32" xlink:href="#linear-gradient"/><linearGradient id="linear-gradient-7" x1="2492.86" y1="1087.59" x2="2549.33" y2="1087.59" gradientTransform="matrix(-1, 0, 0, 1, 3880.05, 0)" xlink:href="#linear-gradient-2"/><linearGradient id="linear-gradient-8" x1="2491.7" y1="1359.35" x2="2548.12" y2="1359.35" gradientTransform="matrix(-1, 0, 0, 1, 3880.05, 0)" xlink:href="#linear-gradient-2"/><linearGradient id="linear-gradient-9" x1="2490.55" y1="1630.4" x2="2546.92" y2="1630.4" gradientTransform="matrix(-1, 0, 0, 1, 3880.05, 0)" xlink:href="#linear-gradient-2"/><linearGradient id="linear-gradient-10" x1="-959.9" y1="2551.73" x2="-1232.79" y2="2873.57" gradientTransform="translate(1595.65 -6.7) rotate(-9.4)" gradientUnits="userSpaceOnUse"><stop offset="0" stop-color="#311944"/><stop offset="1" stop-color="#893976"/></linearGradient><linearGradient id="linear-gradient-11" x1="-993.51" y1="2523.23" x2="-1266.4" y2="2845.07" xlink:href="#linear-gradient-10"/><linearGradient id="linear-gradient-12" x1="569.67" y1="2624.4" x2="805.2" y2="2624.4" gradientUnits="userSpaceOnUse"><stop offset="0" stop-color="#aa80f9"/><stop offset="1" stop-color="#6165d7"/></linearGradient><linearGradient id="linear-gradient-13" x1="-833.88" y1="1961.26" x2="-582.05" y2="3354.18" gradientTransform="translate(1595.65 -6.7) rotate(-9.4)" xlink:href="#linear-gradient-12"/><linearGradient id="linear-gradient-14" x1="-920.07" y1="1963.75" x2="-665.09" y2="3374.09" gradientTransform="translate(1595.65 -6.7) rotate(-9.4)" xlink:href="#linear-gradient-12"/><linearGradient id="linear-gradient-15" x1="-144.57" y1="2157.16" x2="-646.2" y2="2748.76" gradientTransform="matrix(-1, 0, 0, 1, 1343.7, 3.44)" xlink:href="#linear-gradient"/><linearGradient id="linear-gradient-16" x1="-109.44" y1="2445.67" x2="-593.02" y2="2458" gradientTransform="matrix(-0.99, 0.16, 0.16, 0.99, 948.3, 101)" xlink:href="#linear-gradient-10"/><clipPath id="clip-path-4" transform="translate(-459.04 -455)"><path class="cls-1" d="M1813.52,2905.33c26.12-4.32,50-19.53,70.9-45.2,21.29-26.12,38.57-61.67,51.36-105.66,26.9-92.47,30.6-210.47,10.44-332.26s-61.71-232.3-117-311.17c-26.29-37.51-54.11-65.59-82.69-83.46-28.07-17.56-55.55-24.26-81.67-19.94s-50,19.53-70.9,45.2c-21.29,26.12-38.57,61.67-51.36,105.66-26.9,92.47-30.6,210.47-10.44,332.26s61.71,232.3,117,311.17c26.29,37.52,54.11,65.6,82.69,83.46C1759.92,2903,1787.4,2909.66,1813.52,2905.33Z"/></clipPath><linearGradient id="linear-gradient-17" x1="-496.77" y1="2005.26" x2="-332.35" y2="2914.73" gradientTransform="translate(1595.65 -6.7) rotate(-9.4)" xlink:href="#linear-gradient-2"/><linearGradient id="linear-gradient-18" x1="-401.96" y1="2122.42" x2="-280.64" y2="2793.47" gradientTransform="translate(1595.65 -6.7) rotate(-9.4)" xlink:href="#linear-gradient-2"/><linearGradient id="linear-gradient-19" x1="-3248.02" y1="1237.49" x2="-3833.87" y2="2702.13" gradientTransform="matrix(-0.99, 0.16, 0.16, 0.99, -1206.36, 457.77)" xlink:href="#linear-gradient-10"/><linearGradient id="linear-gradient-20" x1="-3610.71" y1="1798.12" x2="-3341.61" y2="2297.23" gradientTransform="matrix(-0.99, 0.16, 0.16, 0.99, -1206.36, 457.77)" xlink:href="#linear-gradient-3"/><linearGradient id="linear-gradient-21" x1="-3775.3" y1="1492.86" x2="-3506.19" y2="1991.97" gradientTransform="matrix(-0.99, 0.16, 0.16, 0.99, -1206.36, 457.77)" xlink:href="#linear-gradient-3"/><linearGradient id="linear-gradient-22" x1="-2840.08" y1="1393.96" x2="-2588.11" y2="1861.29" gradientTransform="matrix(-1, 0.01, 0.01, 1, -219.99, 283.62)" xlink:href="#linear-gradient-3"/><linearGradient id="linear-gradient-23" x1="-3683.5" y1="1825.88" x2="-3417.74" y2="2359.19" gradientTransform="matrix(-0.99, 0.16, 0.16, 0.99, -1206.36, 457.77)" xlink:href="#linear-gradient-3"/><linearGradient id="linear-gradient-24" x1="1939.31" y1="2271.08" x2="1988.13" y2="2229.18" xlink:href="#linear-gradient-12"/><linearGradient id="linear-gradient-25" x1="1787.16" y1="2282.4" x2="2050.18" y2="2282.4" xlink:href="#linear-gradient-12"/><linearGradient id="linear-gradient-26" x1="1884.44" y1="2294.86" x2="2050.18" y2="2294.86" xlink:href="#linear-gradient-12"/><linearGradient id="linear-gradient-27" x1="2982.43" y1="2824.89" x2="3434.65" y2="2849.12" gradientTransform="translate(-951.1 414.99) rotate(-9.4)" xlink:href="#linear-gradient-12"/><linearGradient id="linear-gradient-28" x1="-3553" y1="2641.66" x2="-3164.45" y2="3362.31" gradientTransform="matrix(-0.99, 0.16, 0.16, 0.99, -1206.36, 457.77)" xlink:href="#linear-gradient-12"/><linearGradient id="linear-gradient-29" x1="-3665.41" y1="2684.36" x2="-3282.71" y2="3452.35" gradientTransform="matrix(-0.99, 0.16, 0.16, 0.99, -1206.36, 457.77)" xlink:href="#linear-gradient"/><linearGradient id="linear-gradient-30" x1="2289.23" y1="2263.02" x2="2513.61" y2="2033.74" gradientTransform="matrix(0.93, -0.36, 0.36, 0.93, -923.7, 881.07)" xlink:href="#linear-gradient-2"/><linearGradient id="linear-gradient-31" x1="-3156.21" y1="2125.7" x2="-2958.72" y2="2491.98" gradientTransform="matrix(-0.93, 0.36, 0.36, 0.93, -1620.35, 1147.57)" xlink:href="#linear-gradient-2"/><linearGradient id="linear-gradient-32" x1="8304.96" y1="-6187.23" x2="8689.33" y2="-6465.65" gradientTransform="matrix(-0.93, 0.36, 0.36, 0.93, -1620.35, 1147.57)" xlink:href="#linear-gradient-2"/><linearGradient id="linear-gradient-33" x1="2292.5" y1="2942.27" x2="2951.12" y2="2386.8" gradientTransform="translate(-951.1 414.99) rotate(-9.4)" xlink:href="#linear-gradient-10"/><linearGradient id="linear-gradient-34" x1="-2992.55" y1="2478.59" x2="-2726.52" y2="2972" gradientTransform="matrix(-0.99, 0.16, 0.16, 0.99, -1206.36, 457.77)" xlink:href="#linear-gradient"/><linearGradient id="linear-gradient-35" x1="2054.11" y1="2496.68" x2="2332.85" y2="3013.67" gradientTransform="translate(-469.48 335.24) rotate(-9.4)" xlink:href="#linear-gradient"/><linearGradient id="linear-gradient-36" x1="2916.12" y1="2172.07" x2="3048.76" y2="2323.87" gradientTransform="translate(-922.86 410.31) rotate(-9.4)" xlink:href="#linear-gradient-2"/><linearGradient id="linear-gradient-37" x1="-3362.07" y1="2195.37" x2="-3103.17" y2="2675.56" gradientTransform="matrix(-0.99, 0.16, 0.16, 0.99, -1178.12, 453.09)" xlink:href="#linear-gradient-2"/><linearGradient id="linear-gradient-38" x1="-3434.19" y1="2220.82" x2="-3178.9" y2="2733.13" gradientTransform="matrix(-0.99, 0.16, 0.16, 0.99, -1178.12, 453.09)" xlink:href="#linear-gradient-2"/></defs><title>influencer</title><g class="cls-4"><g id="Illustration"><g id="Smart_tv_content" data-name="Smart tv content"><path class="cls-5" d="M1971.66,2915.92l-2.11-1.54c-4.13,17.27-8.43,34.52-13,51.71l5.1-.86c4.71-17.86,9.1-35.79,13.32-53.77C1973.86,2912.94,1972.74,2914.43,1971.66,2915.92Z" transform="translate(-459.04 -455)"/><path class="cls-6" d="M2587.58,632.2c94.11,134.73-16.24,353.15,123.41,454.48,135.93,98.63,302.93-63,431,21.86,190,126,155.33,702.26-122.52,1060.34-83.56,107.69-153.38,149.58-184.3,271.37-66.4,261.51,167,417.07,122.55,546.41C2857.77,3277.88,1320,3522.25,702.92,2647c-288.18-408.76-331.3-999-73.82-1447.32C1094.37,389.63,2376.41,329.9,2587.58,632.2Z" transform="translate(-459.04 -455)"/><path class="cls-7" d="M1706,1987.48c291.78-193.61,729.88,2.69,750.47-62.53,1.58-5,10.93-28.48-58.34-68.47-215-124.12-380-163-325.41-448.69s-64.56-500.07-340.11-547.38c-290-49.78-434.14-463.11-698.16-398.59C574.41,574.24,838.4,1217,1238.12,1579.5c241.22,218.73,178,521.31,296.59,526.91C1597.36,2109.36,1612.73,2049.38,1706,1987.48Z" transform="translate(-459.04 -455)"/><g class="cls-8"><g class="cls-9"><path class="cls-5" d="M1951.06,2162.81c-2-6.53-29.47-128.11-31.5-134.63C1731.49,1424.3,1359.2,869.89,853.11,471.6l-8.78,10c504.79,397.26,876,950.49,1062.94,1553,2.88,2,26.53,123,29.39,125.08C1939.9,2162,1947.83,2160.46,1951.06,2162.81Z" transform="translate(-459.04 -455)"/><path class="cls-5" d="M1728.09,1581.22l13.64-2.18c-57.42-298.34,231.88-669.54,234.8-673.25l-11.14-7.92C1962.42,901.63,1669.62,1277.37,1728.09,1581.22Z" transform="translate(-459.04 -455)"/><path class="cls-5" d="M1403.8,1052.19l9.75-9.18c-259.33-245.68-752.09-258-757-258l-.1,13.09C661.3,798.14,1148.52,810.34,1403.8,1052.19Z" transform="translate(-459.04 -455)"/></g></g><g class="cls-10"><path class="cls-2" d="M1472.12,1880.58c35.21-67.57,113.81-226.47-29.26-274.56-119.11-40-204.88-42.81-206.44-190s-82.16-241.66-223.63-237.52C863.92,1182.83,751,992.18,626.41,1050.66c-217,101.89-40.23,432,213.08,534.18S940.85,1770,928.26,1890a208.26,208.26,0,0,0,3.43,49.17c24.25,126.53,154.65,152.48,245,258.4C1300,2342,1443.66,1935.17,1472.12,1880.58Z" transform="translate(-459.04 -455)"/><g class="cls-11"><path class="cls-5" d="M1381.56,2212.67l6.93-1.1C1307.82,1734,981.71,1298,537.4,1073.69l-3.35,5.85C976.48,1302.86,1301.23,1737.05,1381.56,2212.67Z" transform="translate(-459.04 -455)"/><path class="cls-5" d="M1313.93,1956.06l7,.21c8.23-190.28,187.07-333.54,188.88-335l-4.47-5.06C1503.52,1617.68,1322.29,1762.78,1313.93,1956.06Z" transform="translate(-459.04 -455)"/><path class="cls-5" d="M1364.18,2125.22l6.31-3c-89.61-172.61-459.59-207.52-463.32-207.85l-.73,6.59C910.13,1921.32,1276.28,1955.88,1364.18,2125.22Z" transform="translate(-459.04 -455)"/><path class="cls-5" d="M1082.79,1536.59l6.55-2.45c-58.39-142.28,48-355.47,49-357.6l-6.32-2.81C1131,1175.89,1023.32,1391.68,1082.79,1536.59Z" transform="translate(-459.04 -455)"/><path class="cls-5" d="M868.85,1306.59l3.92-5.54c-153.31-95.91-399-52.61-401.52-52.16l1.27,6.5C475,1255,717.94,1212.16,868.85,1306.59Z" transform="translate(-459.04 -455)"/></g></g><g class="cls-10"><path class="cls-3" d="M1598.09,1972.94c-42.25-105.8-205.34-169.19-292.07-82.12-98.14,98.5-238.09-54.47-281.69-235.17-42.66-176.83-381.61-203-324.42,188.18C734.07,2077.45,962,2109,1073.29,2152.28s71.15,215.9,227.64,198.52c75.82-8.42,290.25-79.86,328.42-175.79C1658.47,2101.8,1610.21,2003.31,1598.09,1972.94Z" transform="translate(-459.04 -455)"/><g class="cls-12"><path class="cls-13" d="M1554.72,2238a1928,1928,0,0,1-185.64-66.81c-261.87-110.52-566.82-320.76-532.45-694.77l-4.78-.44c-15.3,166.49,34.2,314.93,147.12,441.18C1069.18,2018,1199.83,2105,1367.3,2175.63a1929.06,1929.06,0,0,0,184.8,66.57Q1553.35,2240.06,1554.72,2238Z" transform="translate(-459.04 -455)"/><path class="cls-13" d="M1028.44,1967.86l.76-4.74c-157.88-25.53-357.32-146.77-359.32-148l-2.51,4.1C669.38,1820.45,869.63,1942.19,1028.44,1967.86Z" transform="translate(-459.04 -455)"/><path class="cls-13" d="M955.5,1881.68c-51.39-183.52,37.4-315,38.3-316.34l-3.95-2.73c-.92,1.32-91,134.59-39,320.36Z" transform="translate(-459.04 -455)"/><path class="cls-13" d="M1559.19,2239.47C1356.79,2124.38,1389.84,1813,1390.41,1810l-4.64-1.21c-.85,2.9-33.16,318.71,171,434.82Z" transform="translate(-459.04 -455)"/><path class="cls-13" d="M1466.62,2214l.38-4.8c-148.11-11.74-288.42,111.66-289.82,112.91l3.2,3.59C1181.77,2324.44,1320.58,2202.4,1466.62,2214Z" transform="translate(-459.04 -455)"/></g></g><path class="cls-14" d="M1406.93,1976.33l-2.37,27.38-127.43,84.21L1257.6,2069l74.72-75.74s14.84-4.4-7.38-11.86l-70.45-5.06,5.34-4.32,91.19-7.15S1382.68,1970.63,1406.93,1976.33Z" transform="translate(-459.04 -455)"/><path class="cls-15" d="M2551.09,2090.13v72l221.14,214h68l-85.05-180.76s-39.7-23.72,45.36-23.72l306.19,61.47L3102.4,2214l-364.19-117.71S2624.8,2090.13,2551.09,2090.13Z" transform="translate(-459.04 -455)"/><path class="cls-15" d="M2945.54,2175.24c48.05,5.63,87.68-23.13,87.59-64.19l-3.29-1479.87c-.09-41.06-39.85-67.7-87.87-59.52l-6.18,1.06-5.83,7.55L1182.61,884.11c-22.18,3.78-39.87,16.49-39.81,43.87l2.19,986.81c.06,27.38,21.4,39.38,43.59,42l1739.56,192.05,10.1,25.57Z" transform="translate(-459.04 -455)"/><path class="cls-14" d="M2925.73,2174.1c47.82,5.6,87.27-23.09,87.18-64.06l-3.28-1476.45c-.09-41-39.66-67.55-87.46-59.4L1170.14,873c-22.09,3.77-39.83,29-39.77,56.37l2.19,985c.06,27.33,17.91,51.65,40,54.24Z" transform="translate(-459.04 -455)"/><path class="cls-16" d="M1170.19,896.29l1752-288c25.49-4.19,46.36,10,46.41,31.8l2.54,1142.89.72,322.84c.05,21.78-20.76,37.11-46.26,34.28L1172.53,1945.27c-11.87-1.31-21.46-14.3-21.5-29l-.5-225.78-1.7-764.06C1148.8,911.73,1158.33,898.24,1170.19,896.29Z" transform="translate(-459.04 -455)"/><path class="cls-17" d="M2925.37,2015.87c9.91.88,18-5.27,18-13.71l-3-1357.66c0-8.44-8.12-14-18-12.43L1170.23,912.61c-4.63.74-8.38,6-8.37,11.77l2.06,924.69c0,5.75,3.79,10.76,8.42,11.17Z" transform="translate(-459.04 -455)"/><path class="cls-18" d="M1321.41,1901.31c124.64-90.3,36.39-356.94,178.1-495.34,148.74-145.28,369.62,18.87,484.06-136.21,87.48-118.56-15.28-247.46,67.88-361.44,134.12-183.81,501.19,17.57,680.86-178.39,26.14-28.52,52.66-70.51,67.74-134.92l122.12-20.82c47.8-8.15,87.37,18.44,87.46,59.4L3012.91,2110c.09,41-39.36,69.66-87.19,64.06L1172.58,1968.59c-22.11-2.59-40-26.91-40-54.24l0-17.51C1225.54,1939.45,1283.58,1928.72,1321.41,1901.31Z" transform="translate(-459.04 -455)"/><polygon class="cls-19" points="778.34 1329.96 2384.98 1447.33 2388.26 280.21 774.43 539.08 778.34 1329.96"/><polygon class="cls-20" points="788.62 736.65 1019.1 713.23 1018.38 521.44 787.74 557.07 788.62 736.65"/><g class="cls-21"><path class="cls-22" d="M1330.71,1091.21c.09,19.84,12.65,34.46,28.17,32.63s28.39-19.69,28.31-39.86-13-34.75-28.62-32.58S1330.63,1071.36,1330.71,1091.21Z" transform="translate(-459.04 -455)"/><polygon class="cls-20" points="887.11 612.1 887.28 654.1 919.74 628.93 887.11 612.1"/></g><polygon class="cls-13" points="788.78 769.52 1019.23 748.32 1019.18 733.98 788.72 756.09 788.78 769.52"/><polygon class="cls-13" points="872.34 785.61 1019.33 773.1 1019.27 758.75 872.28 771.85 872.34 785.61"/><polygon class="cls-20" points="789.9 999.53 1020.16 993.93 1019.44 802.66 789.03 820.41 789.9 999.53"/><g class="cls-21"><path class="cls-23" d="M1331.92,1360.79c.09,19.79,12.64,35.33,28.14,34.7,15.65-.63,28.37-17.45,28.28-37.56s-12.94-35.65-28.59-34.7S1331.83,1341,1331.92,1360.79Z" transform="translate(-459.04 -455)"/><polygon class="cls-20" points="887.52 884.49 887.7 926.49 920.15 901.32 887.52 884.49"/></g><polygon class="cls-13" points="790.06 1032.32 1020.29 1028.93 1020.24 1014.63 790 1018.92 790.06 1032.32"/><polygon class="cls-13" points="873.55 1054.8 1020.38 1053.64 1020.33 1039.34 873.49 1041.07 873.55 1054.8"/><polygon class="cls-20" points="791.18 1261.75 1021.22 1273.88 1020.5 1083.13 790.31 1083.08 791.18 1261.75"/><g class="cls-21"><path class="cls-24" d="M1333.13,1629.66c.09,19.74,12.62,36.2,28.11,36.77s28.34-15.22,28.25-35.28-12.93-36.53-28.56-36.79S1333,1609.92,1333.13,1629.66Z" transform="translate(-459.04 -455)"/><polygon class="cls-20" points="889.07 1155.16 889.25 1197.16 921.7 1171.99 889.07 1155.16"/></g><polygon class="cls-13" points="791.34 1294.45 1021.35 1308.79 1021.29 1294.52 791.28 1281.09 791.34 1294.45"/><polygon class="cls-13" points="874.75 1323.29 1021.44 1333.42 1021.39 1319.16 874.69 1309.6 874.75 1323.29"/><path class="cls-25" d="M2777.47,1376.59a117.74,117.74,0,0,0-39.4,9.08,306.73,306.73,0,0,0,10-66c6.33-155.22-108.16-274.81-255.76-267.07a268.65,268.65,0,0,0-79.33,16.58C2378.82,971.3,2288.74,905.67,2180,911.37c-142.77,7.48-263.5,135.29-269.62,285.43a276.28,276.28,0,0,0,1.38,41.88,193.76,193.76,0,0,0-81.17-12.85c-117.83,6.18-217.43,111.62-222.49,235.53-4.81,117.8,77.47,209.83,186.77,213.4,5.74.15,11.55.13,17.41-.17l976.58-54.49c55-13.43,98.42-65.87,100.88-126.31C2892.56,1425.69,2842.28,1373.2,2777.47,1376.59Zm-416.61-18.09-201.54,137.35c-23,17.83-56.36,1.48-56.36-27.58V1210.68a34.92,34.92,0,0,1,50.57-31.22l201.54,120.23A34.93,34.93,0,0,1,2360.86,1358.5Z" transform="translate(-459.04 -455)"/><path class="cls-26" d="M1101.85,3159c-35.13,3.53-71.61-13.06-91.36-44.64L732.11,2669c-25.34-40.56-13.05-93.25,27.65-117.95,41-24.88,112.87-15.47,138.76,25.47l284.39,449.75c26.81,42.41,13.35,95.86-29.87,119.13C1142.4,3151.08,1113.44,3157.85,1101.85,3159Z" transform="translate(-459.04 -455)"/><path class="cls-27" d="M759.76,2551c41-24.88,112.87-15.47,138.76,25.47l260,411.23c-32.59-2.86-69.49,4-110.18-21.28-67.73-42.07-49.64-113.35-106.32-164.79-25.91-23.52-70.28-45.44-152.42-40.65l-57.52-92C706.77,2628.39,719.06,2575.7,759.76,2551Z" transform="translate(-459.04 -455)"/><path class="cls-28" d="M624.14,2475.92a37.38,37.38,0,0,1,5.16-.49l122.89-21.73,53,320.12-119.16,18a37.82,37.82,0,0,1-9.13,2.73c-42.2,7-88.22-58.69-102.79-146.69S582,2482.9,624.14,2475.92Z" transform="translate(-459.04 -455)"/><path class="cls-29" d="M752.19,2453.7c-29,114.31-11.4,220.53,53,320.12l964.57,142.81-139.31-900.05Z" transform="translate(-459.04 -455)"/><path class="cls-30" d="M1478.82,2693.46c-92.54-18.57-140.52-140.42-242.31-127.93-79.88,9.8-91,90.77-170.12,95.34-81,4.67-108.54-78.9-202.64-94.38-42.79-7-84.75,2.52-124,21q7.51,96.86,65.41,186.38l964.57,142.81-104.69-296.1C1583.5,2688.16,1523.68,2702.46,1478.82,2693.46Z" transform="translate(-459.04 -455)"/><ellipse class="cls-31" cx="1739.2" cy="2456.49" rx="225.81" ry="470.94" transform="translate(-836.96 -137.9) rotate(-9.4)"/><path class="cls-32" d="M1813.52,2905.33c26.12-4.32,50-19.53,70.9-45.2,21.29-26.12,38.57-61.67,51.36-105.66,26.9-92.47,30.6-210.47,10.44-332.26s-61.71-232.3-117-311.17c-26.29-37.51-54.11-65.59-82.69-83.46-28.07-17.56-55.55-24.26-81.67-19.94s-50,19.53-70.9,45.2c-21.29,26.12-38.57,61.67-51.36,105.66-11.25,38.67-18.44,81.79-21.53,127.8-4.29,64,48.26,121.4,60,192.26,12.47,75.36-15.77,158.59,11.26,220.49,16.66,38.14,35.73,72.81,56.8,102.88,26.29,37.52,54.11,65.6,82.69,83.46C1759.92,2903,1787.4,2909.66,1813.52,2905.33Z" transform="translate(-459.04 -455)"/><g class="cls-33"><path class="cls-34" d="M1758.55,2459.55c19.49,117.71-43,224.07-138.16,237.39-93.72,13.1-184-69.19-202.94-183.62s40.18-220.28,133.35-236.64C1645.44,2260.07,1739.06,2341.83,1758.55,2459.55Z" transform="translate(-459.04 -455)"/><path class="cls-35" d="M1743.26,2460.11c14.47,87.41-12,163.1-58.5,169-45.76,5.78-93.74-58.48-107.81-143.45s10.78-160.42,56.14-168.62C1679.16,2308.69,1728.78,2372.7,1743.26,2460.11Z" transform="translate(-459.04 -455)"/></g><path class="cls-36" d="M2438,1956.91s24.33-21.33,35.76-50.3c-28.55-23.41-48.23-54.73-54.17-90.6-14.24-86,54.88-171.6,158.79-192,106.28-20.92,208.81,33.53,228.45,123.2l0,.09q.36,1.66.69,3.36l.09.49c.21,1.1.41,2.21.6,3.32a141.77,141.77,0,0,1,1.69,15.35c.12,2.18.2,4.36.22,6.53,0,4.33-.12,8.65-.48,12.93-.17,2.14-.4,4.27-.67,6.39-.19,1.41-.39,2.83-.61,4.23-5.27,33.06-22.08,63.74-47.1,88.7l-1.61,1.59a200.63,200.63,0,0,1-28.6,23.09c-.65.44-1.31.87-2,1.29q-6.89,4.5-14.23,8.5-3.14,1.73-6.36,3.34-2.14,1.08-4.32,2.12-3.27,1.56-6.62,3c-1.48.65-3,1.28-4.48,1.9a233,233,0,0,1-60.87,15.79c-1.59.19-3.19.37-4.77.53l-1.39.12c-1.13.11-2.27.22-3.4.31l-1.5.1c-1.1.09-2.2.16-3.3.23l-1.41.07c-1.14.06-2.27.12-3.41.16l-1.21,0c-1.22,0-2.44.08-3.65.1h-.93c-1.33,0-2.66,0-4,0h-.54c-1.5,0-3,0-4.48-.07h0a224.31,224.31,0,0,1-36.7-3.93l0,0q-10.48-2-20.51-5C2528.05,1956,2493.46,1983.79,2438,1956.91Z" transform="translate(-459.04 -455)"/><path class="cls-37" d="M2405.54,1817.72c14.24,86,107.44,145.88,212.64,133.19,110.46-13.32,191.55-100.8,176-194.78s-120.73-151.93-229.85-130.46C2460.41,1646.12,2391.29,1731.72,2405.54,1817.72Z" transform="translate(-459.04 -455)"/><path class="cls-38" d="M2405.54,1817.72c14.24,86,107.44,145.88,212.64,133.19,110.46-13.32,191.55-100.8,176-194.78s-120.73-151.93-229.85-130.46C2460.41,1646.12,2391.29,1731.72,2405.54,1817.72Z" transform="translate(-459.04 -455)"/><path class="cls-39" d="M2532.79,1936.29s-36.81,57.22-108.85,22.33c0,0,46.3-40.58,41.18-85.83Z" transform="translate(-459.04 -455)"/><path class="cls-13" d="M2696.57,1726.19h0c-11.56-21.09-33.83-33.91-57.05-30.35-30.66,4.7-51.28,36.11-45.65,70.09-5.63-34-35.66-57.63-67.49-52.75-24.72,3.79-43.32,23.64-48.09,48.46h0c-19.14,89.89,138,140,138,140S2739.26,1800.65,2696.57,1726.19Z" transform="translate(-459.04 -455)"/><g class="cls-40"><path class="cls-41" d="M2564.52,1915.59c15.22-50.78-15.47-91.9,10.62-127.56,26.9-36.77,74.24-14.12,116.53-47.86,16.58-13.23,33.82-36.29,42.45-79.46,31.58,23.65,53.62,56.61,60.05,95.42,15.56,94-65.53,181.46-176,194.78a228.59,228.59,0,0,1-70.71-2.31A101.54,101.54,0,0,0,2564.52,1915.59Z" transform="translate(-459.04 -455)"/></g><path class="cls-42" d="M1934.58,2383.48l-1.16.1-2.11.18-1.17.08-2.11.13c-.37,0-.74,0-1.12.06l-2.17.1-1,0-2.29.06h-.87l-2.49,0h-.65c-.93,0-1.86,0-2.78,0h-.34a165.36,165.36,0,0,1-21.61-1.87v0c-51-7.89-90.73-39.22-97.67-81.15-9-54.54,40.55-108.61,112.55-121.08,70-12.12,135.79,19.24,150.87,71.18.08.29.17.57.25.85s.23.86.34,1.29.21.81.31,1.22.18.73.26,1.1.23,1,.33,1.53c.07.29.13.58.19.87q.24,1.23.45,2.46c4.6,27.83-5.78,55-26.18,76.81-1.32,1.4-2.68,2.79-4.07,4.15s-2.84,2.69-4.32,4c-.74.65-1.49,1.3-2.25,1.94-1.51,1.29-3.07,2.55-4.66,3.78s-3.22,2.43-4.89,3.61q-2.12,1.49-4.31,2.92a155.39,155.39,0,0,1-26.72,13.91c-1.85.74-3.71,1.46-5.6,2.15a173.68,173.68,0,0,1-36.44,8.86c-1.1.15-2.19.28-3.28.4l-1,.11Z" transform="translate(-459.04 -455)"/><path class="cls-43" d="M1788.24,2302.3c9,54.54,72.61,91.33,143.82,81.94,73.26-9.68,126.53-64.29,117-121.73s-77.79-93.52-150.58-80.9C1827.78,2193.87,1779.21,2247.76,1788.24,2302.3Z" transform="translate(-459.04 -455)"/><path class="cls-13" d="M1959.47,2301.62a61.15,61.15,0,0,0,9.83-26.34,37.61,37.61,0,0,0-2.8-18.86c-4.06-9.79-11.7-15.62-19.08-21.26-5.51-4.2-10.72-8.17-14.23-13.61l-.64-1c-2.08-3.19-4.43-6.81-4.65-9.73a5.73,5.73,0,0,0-5.69-5.23,5.65,5.65,0,0,0-5.6,5.3l-6.2,100.6a32.73,32.73,0,0,0-16.65-5.67c-15.56-1-28.86,8.38-29.62,20.84s11.27,23.36,26.83,24.32,28.85-8.39,29.62-20.84l4.06-65.8c8.28,3.76,21.65,12.87,24.27,32.38a30.56,30.56,0,0,1-2.37,2.95,5.65,5.65,0,1,0,8,8,41.28,41.28,0,0,0,4.5-5.57A3.94,3.94,0,0,0,1959.47,2301.62Z" transform="translate(-459.04 -455)"/><g class="cls-44"><path class="cls-45" d="M1896.26,2362.75c10.67-32-9.7-57.5,8.2-79.93,18.34-23,49.71-9,77.89-30,11-8.17,22.42-22.34,28.33-48.82,20.39,14.58,34.47,34.76,38.4,58.49,9.51,57.44-43.76,112-117,121.73a165.64,165.64,0,0,1-47.62-.53A64.58,64.58,0,0,0,1896.26,2362.75Z" transform="translate(-459.04 -455)"/></g><path class="cls-46" d="M2694.93,2923c-.88.09-1.76.16-2.65.24-1.6.14-3.2.28-4.8.4l-2.67.19c-1.6.11-3.2.22-4.79.31l-2.54.13c-1.66.09-3.31.16-4.95.23l-2.32.08-5.22.14-2,0c-1.89,0-3.78,0-5.66,0h-1.48q-3.18,0-6.33-.08h-.77a377,377,0,0,1-49.18-4.27l0,0c-115.95-17.95-206.47-89.25-222.26-184.65-20.55-124.12,92.27-247.15,256.13-275.53,159.3-27.59,309,43.78,343.31,162,.19.65.38,1.29.56,1.94.27,1,.53,2,.78,2.93s.48,1.84.7,2.77.41,1.67.6,2.51c.27,1.16.52,2.32.76,3.48l.42,2c.36,1.85.71,3.72,1,5.59,10.48,63.32-13.14,125.22-59.57,174.79q-4.5,4.78-9.27,9.43t-9.82,9.11c-1.68,1.49-3.39,3-5.11,4.43q-5.17,4.38-10.62,8.59t-11.12,8.21c-3.2,2.27-6.48,4.48-9.8,6.65a354.08,354.08,0,0,1-60.83,31.65c-4.19,1.69-8.43,3.33-12.73,4.89a395.62,395.62,0,0,1-82.93,20.17q-3.74.49-7.46.92c-.77.09-1.54.16-2.32.24C2698.35,2922.64,2696.64,2922.82,2694.93,2923Z" transform="translate(-459.04 -455)"/><path class="cls-47" d="M2361.91,2738.27c20.55,124.11,165.24,207.83,327.26,186.44,166.74-22,287.95-146.29,266.31-277s-177-212.79-342.65-184.09C2451.88,2491.51,2341.36,2614.16,2361.91,2738.27Z" transform="translate(-459.04 -455)"/><path class="cls-13" d="M2560.7,2605.19l32.07,193.69c3.62,21.85,30.78,30,45.81,13.72L2773,2684.23a26.62,26.62,0,0,0-11.67-43.5l-166.51-65.31A26.62,26.62,0,0,0,2560.7,2605.19Z" transform="translate(-459.04 -455)"/><g class="cls-40"><path class="cls-48" d="M2607.71,2875.83c24.3-72.74-22.06-130.85,18.67-181.91,41.73-52.31,113.12-20.55,177.24-68.21,25-18.59,51-50.85,64.48-111.09,46.4,33.17,78.44,79.09,87.38,133.08,21.64,130.72-99.57,255-266.31,277a375.69,375.69,0,0,1-108.34-1.19A147.06,147.06,0,0,0,2607.71,2875.83Z" transform="translate(-459.04 -455)"/></g><path class="cls-49" d="M2057.39,1879.15c71.68-24.94,147.74-4.46,180.29,45.86l.13.2c1.77,2.76,3.42,5.61,4.92,8.54l.3.58c.7,1.37,1.36,2.77,2,4.18.12.26.23.51.34.77.64,1.45,1.25,2.91,1.82,4.4,24.35,63.63-22.14,136.71-102.76,162.87q-3.23,1-6.45,2l-.63.18q-3,.87-6.11,1.62l-.95.24c-2,.48-4,.92-5.92,1.33l-1.12.23q-2.91.6-5.81,1.09l-1.18.19q-2.89.48-5.79.87l-1.12.14c-1.92.24-3.83.46-5.74.64l-1,.09q-2.58.23-5.16.39l-1.3.08c-1.75.09-3.49.16-5.22.2l-1.13,0h0c-59.81,1.15-113.09-27.37-131.34-75.08C1934.71,1978.77,1978.55,1906.58,2057.39,1879.15Z" transform="translate(-459.04 -455)"/><path class="cls-50" d="M1943.42,2046.49c23.72,62,106.53,91.59,186,65.8,80.63-26.16,127.12-99.24,102.77-162.87s-109.81-92.36-189.79-64.53C1963.55,1912.32,1919.71,1984.51,1943.42,2046.49Z" transform="translate(-459.04 -455)"/><path class="cls-13" d="M2081.49,2085.73l-9.61-43.48-19,7.69-8.09-21.13,22.79-9.11-6.06-27.1-20,7.88-8.16-21.33,23.28-9.08-9.35-42,20.77-7.93,9.34,41.82,21-8.22-9.08-41.72,20.44-7.8,9.08,41.56,18.24-7.12,8,20.93-21.41,8.45,6,26.76,18.9-7.56,7.93,20.72-22.3,9,9.8,42.85-20.64,8.53-9.81-43-21,8.51,9.83,43.2Zm27.87-82.74-6-26.88-21.06,8.31,6,27Z" transform="translate(-459.04 -455)"/><g class="cls-40"><path class="cls-51" d="M2083.29,2094.81c4.55-39.22-25-64.7-9.81-94.22,15.48-30.11,54.56-20.11,81.46-49.56,10.45-11.44,19.94-29.8,20.26-61.14,26.35,12.87,46.92,33.24,57,59.53,24.35,63.63-22.14,136.71-102.77,162.87a189.23,189.23,0,0,1-54.65,9.29A74.41,74.41,0,0,0,2083.29,2094.81Z" transform="translate(-459.04 -455)"/></g><path class="cls-52" d="M2093.73,2392.59c101.34-13.6,196.21,33.94,225.62,109.13l.11.3q2.4,6.17,4.2,12.59l.24.85c.54,2,1,4,1.5,6.05l.24,1.11c.45,2.08.86,4.18,1.21,6.29,15,90.56-66.06,174.49-179.54,187.3-3,.34-6,.61-9,.85l-.88.07c-2.84.21-5.68.37-8.5.48l-1.32.06c-2.74.1-5.46.15-8.18.16h-1.53q-4,0-8-.13l-1.6-.06c-2.64-.11-5.26-.24-7.88-.42l-1.51-.12c-2.6-.2-5.18-.42-7.75-.7l-1.39-.16c-2.31-.26-4.62-.56-6.91-.88l-1.74-.24q-3.49-.52-6.94-1.14l-1.5-.25v0c-79.25-14.59-141.89-66.6-153.13-134.5C1904.94,2491,1982.28,2407.54,2093.73,2392.59Z" transform="translate(-459.04 -455)"/><path class="cls-53" d="M1898.2,2582.75c14.61,88.21,115.93,149.61,227.77,137,113.47-12.81,194.53-96.74,179.54-187.29s-120.05-151.5-233.13-136.33C1960.93,2411.08,1883.6,2494.55,1898.2,2582.75Z" transform="translate(-459.04 -455)"/><path class="cls-13" d="M1990.08,2532.09l18.27,102.73a14.19,14.19,0,0,0,15.87,11.62l179.69-28.12.63-.1a15,15,0,0,0,9.39-5.78,14.33,14.33,0,0,0,2.7-11.19l-20.32-114.74a10.75,10.75,0,0,0-4.74-7.2,11.31,11.31,0,0,0-8.62-1.62l-181.54,37.65A14.6,14.6,0,0,0,1990.08,2532.09Zm12.38-4a3.17,3.17,0,0,1,4.33-1.08l74.6,45.72a16.53,16.53,0,0,0,20.47-2.58l75.83-76.76a3.33,3.33,0,0,1,4.65-.12,3.21,3.21,0,0,1,0,4.59l-75.93,76.74a23.24,23.24,0,0,1-12.32,6.56,22.71,22.71,0,0,1-16.1-3l-74.53-45.73A3.16,3.16,0,0,1,2002.46,2528.1Z" transform="translate(-459.04 -455)"/><path class="cls-54" d="M2178.68,2593.93c-36.3-75.13-95.1-113.12-180.26-108.57-26.48.59-40.55-15.25-46-37.23-40.89,35.41-62.59,84.23-54.25,134.62,14.61,88.21,115.93,149.61,227.76,137,66.84-7.54,122.4-39.77,153.75-83.48C2237.69,2641.35,2196,2626.79,2178.68,2593.93Z" transform="translate(-459.04 -455)"/><path class="cls-55" d="M2657.6,2157.89c.16.63.32,1.26.47,1.89s.26,1,.38,1.57c.17.76.33,1.53.49,2.3.09.42.19.84.27,1.27q.36,1.8.66,3.63a121,121,0,0,1,1.57,15.91,124.79,124.79,0,0,1-2.17,27.56c-.25,1.29-.52,2.59-.8,3.88a137.61,137.61,0,0,1-4.37,15.34,154,154,0,0,1-16.26,33q-2.27,3.51-4.74,6.95c-1.65,2.29-3.36,4.56-5.13,6.79a196,196,0,0,1-24.16,25.3c-1.12,1-2.26,2-3.41,2.92q-3.45,2.91-7.05,5.69a228.4,228.4,0,0,1-27.08,17.92q-4.11,2.32-8.37,4.51t-8.63,4.22q-4.38,2-8.88,3.91a254.15,254.15,0,0,1-52.82,15.5l-4.77.81-1.53.23-3.25.49-1.74.23-3,.39-1.79.21-3,.33-1.74.16-3,.28-1.64.13-3.16.22-1.48.09-3.37.17-1.23.05q-1.86.07-3.72.12l-.85,0c-1.43,0-2.86,0-4.29.05h-.25a233.64,233.64,0,0,1-26.82-1.5l0,0c-74.62-8.61-133.2-53.23-143.58-115.93-13.5-81.52,59.13-165.39,164.35-187.79,101.6-21.63,196.82,21.63,219,98,.14.5.29,1,.42,1.49S2657.44,2157.29,2657.6,2157.89Z" transform="translate(-459.04 -455)"/><path class="cls-56" d="M2260.62,2246.52c13.49,81.52,106.63,132.8,210.11,114.17,105.86-19.06,182.07-103.7,168-188.64s-112.61-135.15-217.89-112.63C2317.93,2081.44,2247.12,2165,2260.62,2246.52Z" transform="translate(-459.04 -455)"/><path class="cls-13" d="M2363.56,2248.17q17.21,14,43.43,19.53a146.1,146.1,0,0,0,54.52.88,159.83,159.83,0,0,0,17.85-4.1l7.77-2.14,6.84,4.28a138.53,138.53,0,0,0,42.08,17.41,100.53,100.53,0,0,1-13.66-22.25l-6-12.7,10.93-8.93q16.32-13.26,23.92-29t5-31.26q-3.15-19-20.35-33t-43.43-19.53a152.15,152.15,0,0,0-105.85,17.52q-23,13.73-34.82,32.49t-8.63,37.78Q2346.35,2234.2,2363.56,2248.17Z" transform="translate(-459.04 -455)"/><g class="cls-40"><path class="cls-57" d="M2418.63,2330.75c15.33-48.55-14.43-85.59,11.45-120.24,26.48-35.43,72-16.33,112.56-49.17,15.79-12.78,32.18-34.53,40.51-74.27,29.42,20.62,49.78,49.9,55.59,85,14.06,84.94-62.15,169.58-168,188.64a233.13,233.13,0,0,1-69.17,2.23A102.86,102.86,0,0,0,2418.63,2330.75Z" transform="translate(-459.04 -455)"/></g></g></g></g></svg>