<svg xmlns="http://www.w3.org/2000/svg" xmlns:xlink="http://www.w3.org/1999/xlink" viewBox="0 0 500 500"><defs><style>.cls-1{fill:#4c2357;}.cls-2{fill:#ccccf2;}.cls-3{fill:#3d2558;}.cls-4{fill:#ffd83f;}.cls-5{fill:#ff9043;}.cls-6{isolation:isolate;}.cls-16,.cls-7{fill:#fff;}.cls-8{fill:#b5e84f;}.cls-9{fill:#9fcd4d;}.cls-10{clip-path:url(#clip-path);}.cls-11{fill:#3d3d91;opacity:0.2;}.cls-11,.cls-12{mix-blend-mode:multiply;}.cls-12{fill:#6031a2;opacity:0.1;}.cls-13{clip-path:url(#clip-path-2);}.cls-14{clip-path:url(#clip-path-3);}.cls-15{fill:url(#Degradado_sin_nombre_42);}.cls-16,.cls-19{opacity:0.7;}.cls-17{fill:#682363;}.cls-18{fill:#594470;}.cls-19{fill:#dfe9ff;}.cls-20{fill:#3dc7ff;}.cls-21{fill:#ca4c72;}.cls-22{fill:#ff4889;}.cls-23{clip-path:url(#clip-path-4);}.cls-24{fill:#331e46;}.cls-25{fill:#d6d6f5;}.cls-26{fill:#ffd0c4;}.cls-27{clip-path:url(#clip-path-5);}.cls-28{fill:#883657;}.cls-29{fill:#ffb3a3;}.cls-30{clip-path:url(#clip-path-6);}.cls-31{fill:#48243a;}.cls-32{fill:#371f2a;}</style><clipPath id="clip-path"><polygon class="cls-1" points="396.72 207.69 402.46 237.31 422.66 237.31 428.13 208.08 396.72 207.69"/></clipPath><clipPath id="clip-path-2"><rect class="cls-2" x="230.71" y="181.47" width="38.58" height="29.23"/></clipPath><clipPath id="clip-path-3"><rect class="cls-3" x="156.85" y="66.3" width="186.3" height="121.88" rx="4.72"/></clipPath><linearGradient id="Degradado_sin_nombre_42" x1="249.94" y1="156.31" x2="249.94" y2="55.3" gradientUnits="userSpaceOnUse"><stop offset="0" stop-color="#bffff3"/><stop offset="1" stop-color="#61d2df"/></linearGradient><clipPath id="clip-path-4"><path class="cls-4" d="M170.76,371.22l-7.15,16.27,44,25.73s8.13-22.85-19.71-32.92"/></clipPath><clipPath id="clip-path-5"><path class="cls-4" d="M276.45,398.19,277.92,410l53.34-.47s-6-22-38.5-20"/></clipPath><clipPath id="clip-path-6"><path class="cls-5" d="M74.4,164.93c-1.87,1.51,4.42,130.67,6.54,134.67s73.22,5.33,78.34,2.66,10.47-130.77,7.78-137.33S91.73,150.93,74.4,164.93Z"/></clipPath></defs><title>infographic-creator</title><g class="cls-6"><g id="BACKGROUND"><rect class="cls-7" width="500" height="500"/></g><g id="OBJECTS"><path class="cls-8" d="M405.39,220.29a21.42,21.42,0,0,1-3.69-20.74c.59-1.6,1.38-3.21,1.23-4.9a7.76,7.76,0,0,0-1.12-3.06c-2.11-3.72-5.18-6.87-6.84-10.81a17.07,17.07,0,0,1-.53-11.62c.83-2.62,2.33-5.24,1.79-7.93s-3.11-4.7-4.46-7.2a9.34,9.34,0,0,1,1.32-10.48,9.63,9.63,0,0,1,10.34-2.35,9.9,9.9,0,0,1,6.1,8.72c.08,2.69-.95,5.28-1.48,7.92a22.43,22.43,0,0,0-.32,6.89,7.28,7.28,0,0,0,1,3.17c1.17,1.77,3.49,2.4,5.61,2.38s4.23-.52,6.34-.43c4.53.2,8.51,3.15,11.43,6.61,2.62,3.11,4.71,7,4.23,11a15.24,15.24,0,0,1-2.48,6.21c-3.59,5.75-8.84,10.66-10.66,17.18-.65,2.35-.84,4.87-2,7a9,9,0,0,1-9.25,4.56"/><path class="cls-7" d="M408,212.29a.49.49,0,0,1-.49-.41,39.92,39.92,0,0,1-.6-12.65,51,51,0,0,1,1.41-6.36c.34-1.28.69-2.6,1-3.91.89-4.1.81-7.4-.22-10.07a22.6,22.6,0,0,0-3.84-5.86,30.69,30.69,0,0,1-3.33-4.68c-2.09-3.9-2.36-8.45-2.35-12.38,0-2.73.24-5.55,1.84-7.68a.5.5,0,1,1,.8.6c-1.5,2-1.63,4.7-1.64,7.08,0,3.81.24,8.2,2.24,11.91A29,29,0,0,0,406,172.4a23.79,23.79,0,0,1,4,6.13c1.11,2.86,1.2,6.34.27,10.64-.28,1.33-.64,2.67-1,4a52.44,52.44,0,0,0-1.39,6.23,39.23,39.23,0,0,0,.59,12.35.5.5,0,0,1-.4.58Z"/><path class="cls-9" d="M412,199.4c-1.66-2.42-3.49-4.83-4.28-7.66s-.25-6.27,2.11-8c1.4-1,3.27-1.36,4.49-2.59a5.78,5.78,0,0,0,1.3-4.76,30.33,30.33,0,0,0-1.33-4.92c-1.36-4.58-1.38-9.74.91-13.94,1.72-3.15,5.48-5.73,8.8-4.36,2.55,1.05,3.8,4.05,3.76,6.8s-1.07,5.38-1.86,8-1.31,5.53-.35,8.11c.61,1.64,1.77,3,2.54,4.59,1.59,3.23,1.42,7.08.45,10.55s-2.68,6.67-4.12,10c-1.07,2.47-4.32,14.87-7.88,12.74-2.45-1.46-1-4.35-1.14-6.52C415.23,204.45,413.63,201.79,412,199.4Z"/><path class="cls-7" d="M417.49,210a.53.53,0,0,1-.24-.06.51.51,0,0,1-.2-.68,26.73,26.73,0,0,0,2.71-6.32,9.59,9.59,0,0,0-.5-6.51,14.77,14.77,0,0,0-.91-1.48,8.58,8.58,0,0,1-1.48-3.07c-.42-2.12.65-4.05,1.69-5.91l.48-.87a11.83,11.83,0,0,0,1.61-6.69,17,17,0,0,0-.78-3.18c-.21-.67-.43-1.36-.59-2.06a14.44,14.44,0,0,1,1.63-10.54.51.51,0,0,1,.69-.18.51.51,0,0,1,.17.69,13.46,13.46,0,0,0-1.52,9.81c.16.66.37,1.33.57,2a17.84,17.84,0,0,1,.82,3.37,12.69,12.69,0,0,1-1.72,7.27l-.49.89c-.95,1.7-1.92,3.46-1.58,5.23a7.89,7.89,0,0,0,1.34,2.71,15.43,15.43,0,0,1,1,1.58,10.54,10.54,0,0,1,.58,7.2,27.42,27.42,0,0,1-2.8,6.56A.51.51,0,0,1,417.49,210Z"/><polygon class="cls-1" points="396.72 207.69 402.46 237.31 422.66 237.31 428.13 208.08 396.72 207.69"/><g class="cls-10"><rect class="cls-11" x="390.73" y="199.72" width="44.64" height="15.6"/></g><rect class="cls-1" x="394.41" y="205.83" width="35.89" height="5.25"/><ellipse class="cls-12" cx="250" cy="398.68" rx="225.66" ry="32.92"/><rect class="cls-3" x="195.47" y="215.57" width="109.05" height="14.43"/><rect class="cls-2" x="230.71" y="181.47" width="38.58" height="29.23"/><g class="cls-13"><rect class="cls-11" x="216.74" y="160.22" width="72.69" height="35.86"/></g><rect class="cls-3" x="156.85" y="66.3" width="186.3" height="121.88" rx="4.72"/><g class="cls-14"><rect class="cls-2" x="147.72" y="169.83" width="202.51" height="36.7"/><rect class="cls-15" x="164.78" y="73.01" width="170.32" height="87.21"/><path class="cls-3" d="M254.07,179a4.21,4.21,0,1,1-4.2-4.21A4.2,4.2,0,0,1,254.07,179Z"/><rect class="cls-16" x="175.91" y="78.89" width="52.55" height="75.66"/><rect class="cls-7" x="246.54" y="83.75" width="74.44" height="9.09"/><rect class="cls-7" x="304.09" y="129.71" width="16.89" height="24.35"/><rect class="cls-7" x="246.54" y="97.23" width="74.44" height="3.43"/><rect class="cls-7" x="286.56" y="105.75" width="34.42" height="3.43"/><rect class="cls-7" x="264.95" y="114.26" width="56.03" height="3.43"/><rect class="cls-7" x="252.88" y="122.78" width="68.1" height="3.43"/><circle class="cls-7" cx="207.08" cy="132.06" r="14.94" transform="translate(-32.73 185.1) rotate(-45)"/><circle class="cls-4" cx="207.08" cy="132.06" r="12.25" transform="translate(-32.73 185.1) rotate(-45)"/></g><path class="cls-17" d="M77.34,410h0a6.62,6.62,0,0,1-6.62-6.62V243.94a6.63,6.63,0,0,1,6.62-6.63h0A6.63,6.63,0,0,1,84,243.94V403.39A6.62,6.62,0,0,1,77.34,410Z"/><path class="cls-17" d="M422.66,410h0a6.62,6.62,0,0,1-6.63-6.62V243.94a6.63,6.63,0,0,1,6.63-6.63h0a6.63,6.63,0,0,1,6.62,6.63V403.39A6.62,6.62,0,0,1,422.66,410Z"/><path class="cls-1" d="M107.34,390h0a6.62,6.62,0,0,1-6.62-6.62V243.94a6.63,6.63,0,0,1,6.62-6.63h0a6.63,6.63,0,0,1,6.63,6.63V383.39A6.62,6.62,0,0,1,107.34,390Z"/><path class="cls-1" d="M392.66,390h0a6.62,6.62,0,0,1-6.63-6.62V243.94a6.63,6.63,0,0,1,6.63-6.63h0a6.63,6.63,0,0,1,6.62,6.63V383.39A6.62,6.62,0,0,1,392.66,390Z"/><path class="cls-3" d="M364.2,244.06a35.64,35.64,0,0,1-14.73-3.17l.82-1.82A33.68,33.68,0,0,0,367,241.94a21,21,0,0,0,11.22-3.89,11.87,11.87,0,0,0,4.89-10c-.27-3.36-2.23-6.27-4.31-9.34-2.18-3.23-4.43-6.57-4.64-10.56-.18-3.29,1.09-6.37,2.36-8.95s2.62-4.88,4-7.21l.79-1.37a35.47,35.47,0,0,0,3.3-6.84,18.49,18.49,0,0,0,0-11.21c-1.58-4.87-5.38-8.71-9.7-9.78a16,16,0,0,0-7,0,23.28,23.28,0,0,0-12.5,6.64,18.16,18.16,0,0,0-5.11,12.87l-2,.06a20.25,20.25,0,0,1,5.66-14.31,25.26,25.26,0,0,1,13.57-7.22,18,18,0,0,1,7.88,0c5,1.25,9.3,5.51,11.11,11.1a20.48,20.48,0,0,1,0,12.44,36.89,36.89,0,0,1-3.47,7.23l-.79,1.37c-1.34,2.3-2.72,4.68-3.91,7.1s-2.3,5.12-2.15,7.95c.18,3.44,2.18,6.41,4.3,9.55s4.33,6.41,4.64,10.3a13.85,13.85,0,0,1-5.66,11.75,22.88,22.88,0,0,1-12.27,4.31Q365.7,244.06,364.2,244.06Z"/><rect class="cls-18" x="273.02" y="181.25" width="96.32" height="52.47" rx="3.3"/><rect class="cls-19" x="284.41" y="185.47" width="73.55" height="36.1"/><rect class="cls-3" x="275.5" y="189.89" width="1.91" height="13.63"/><rect class="cls-3" x="361.93" y="189.89" width="5.22" height="13.63"/><rect class="cls-3" x="279.32" y="189.89" width="1.91" height="20.18"/><rect class="cls-20" x="275.5" y="183.05" width="5.74" height="0.71"/><rect class="cls-7" x="342.86" y="189.15" width="10.09" height="28.25"/><path class="cls-7" d="M340.76,217.9H315.63V188.65h25.13Zm-24.13-1h23.13V189.65H316.63Z"/><circle class="cls-7" cx="324.93" cy="198.76" r="5.51"/><circle class="cls-4" cx="324.93" cy="198.76" r="3.4"/><rect class="cls-21" x="60.23" y="230" width="379.54" height="14.63"/><rect class="cls-4" x="306.19" y="131.52" width="5.46" height="5.46"/><rect class="cls-21" x="313.4" y="131.52" width="5.46" height="5.46"/><rect class="cls-22" x="306.19" y="138.85" width="5.46" height="5.46"/><rect class="cls-18" x="313.4" y="138.85" width="5.46" height="5.46"/><rect class="cls-3" x="306.19" y="146.18" width="5.46" height="5.46"/><rect class="cls-5" x="313.4" y="146.18" width="5.46" height="5.46"/><path class="cls-4" d="M170.76,371.22l-7.15,16.27,44,25.73s8.13-22.85-19.71-32.92"/><g class="cls-23"><polygon class="cls-7" points="160.93 381.63 219.92 416.21 216.48 421.88 163.61 395.34 160.93 381.63"/></g><path class="cls-24" d="M150.26,307l37.83,13.37-20.31,50.52s14.67,13.11,26.71,10.36c9.69-15.24,36.22-71.5,36.22-71.5Z"/><path class="cls-25" d="M282.78,210.7H217.22a2.44,2.44,0,0,0-2.44,2.44h0a2.43,2.43,0,0,0,2.44,2.43h65.56a2.43,2.43,0,0,0,2.44-2.43h0A2.44,2.44,0,0,0,282.78,210.7Z"/><path class="cls-7" d="M289,218.76s8.82-28.09,9.51-29.43c3-.69,3.16.8,3.16.8l-10,29.69Z"/><path class="cls-26" d="M252.91,210.22c.18-.06,15.14.6,16,.6,5.83-3.74,12.25-6.73,14.32-6.73,2.35,0,14.61,3.56,18.28,7.78,3.82,4.41-1.32,6.81-.67,10.49.94,5.32-5.91,8.35-5.91,8.35l-17.67-.08-8.15-4.74L254,228.36Z"/><path class="cls-4" d="M276.45,398.19,277.92,410l53.34-.47s-6-22-38.5-20"/><g class="cls-27"><rect class="cls-7" x="273.5" y="406.15" width="63.41" height="13.12"/></g><path class="cls-22" d="M171.43,135.62c13.2-3.47,41.66,64.9,41.66,64.9l47.82,8.68s6.85,13.59-3.15,21.52c-28.89,4.14-62.29-.72-62.29-.72l-26.12-43.48S158.23,139.09,171.43,135.62Z"/><path class="cls-26" d="M127.88,107.46l-7,20.54s18,5,33.43,4c4.83-7.7,3.74-20.43,3.74-20.43"/><path class="cls-4" d="M184.4,64.2c-3.85,0-7,3.87-7,8.65s3.11,8.64,7,8.64,6.95-3.87,6.95-8.64S188.24,64.2,184.4,64.2Zm0,14.69c-2.75,0-5-2.71-5-6s2.22-6,5-6,5,2.71,5,6S187.14,78.89,184.4,78.89Z"/><path class="cls-26" d="M121.86,59.19c-4.66,7.13-9.07,40.85,7.09,49.22,28.13,14.57,51.91,6.11,51.91,6.11,5.9-17.33,3.85-55.73.83-66.58S137.94,34.58,121.86,59.19Z"/><path class="cls-28" d="M178.93,63.7a2,2,0,0,0,1.17,1.57,4.23,4.23,0,0,0,1.31.25A5.49,5.49,0,0,0,184.5,65a2.84,2.84,0,0,0,1.39-3,1.76,1.76,0,0,0-.4-.94,2.34,2.34,0,0,0-1.49-.59,6.59,6.59,0,0,0-1.77.15,7,7,0,0,0-2.89.94A2.81,2.81,0,0,0,178.93,63.7Z"/><path class="cls-28" d="M158.09,68.23s3,26.12,6.53,28.63,19.5,0,19.5,0,5.94,10,0,16.32S158.19,117,158.19,117l-6.25-48.73Z"/><path class="cls-28" d="M158.09,68.23l4.06-12.09s-12.46-4.81-9.3-9.11,23.82-1.78,31.78-.7c-2.72-10-22.25-16.8-43.4-11.57S112.58,55.91,112.12,69.1s3.33,31.69,15.76,38.36c17,0,17.44-22.89,17.44-22.89l1.92-14.43Z"/><polygon class="cls-4" points="147.24 67.18 189.36 69.17 189.36 71.56 149.82 69.95 147.24 67.18"/><path class="cls-26" d="M152,69.47s-4.15-5.37-9.84-2.41-5,15-2.2,18.4a7.61,7.61,0,0,0,9.49,2.05"/><path class="cls-22" d="M133.9,119.81s-31.14,0-43.26,23.26c-9.94,19.07,0,126.94,0,126.94s56.79,12.36,83.45,1.34c3.34-21,12-110.89,6.67-125S162.76,124,133.9,119.81Z"/><path class="cls-3" d="M90.64,270S81.5,307.17,112,314.28s106.48-.52,106.48-.52L274,398.68s19.88,1,27.65-14.35C301.4,383,251.9,285.83,245.43,280s-71.34-8.65-71.34-8.65S110.55,263.91,90.64,270Z"/><path class="cls-29" d="M143,71.43A1.86,1.86,0,0,0,143,73.5a3.85,3.85,0,0,0,1.7,1c.61.27,1.24.77,1.21,1.43s-.53,1-1,1.38a5,5,0,0,0-1.79,3.47,2.9,2.9,0,0,0,2.21,2.94,3.47,3.47,0,0,0,2.83-1.16c2.54-2.51,2.58-6.52,1.92-9.8A3.92,3.92,0,0,0,143,71.43Z"/><path class="cls-5" d="M74.4,164.93c-1.87,1.51,4.42,130.67,6.54,134.67s73.22,5.33,78.34,2.66,10.47-130.77,7.78-137.33S91.73,150.93,74.4,164.93Z"/><g class="cls-30"><path class="cls-4" d="M82.74,237.35c.45,9.16.91,18.33,1.94,27.45.76,6.72,2,13.74,6.2,19,4,5,10.14,7.73,16.17,9.89,9.36,3.34,20.56,5.5,28.6-.32,4.29-3.1,6.9-8,8.87-12.9,5.38-13.44,7-28.06,7.85-42.51s1-29.17-.61-43.65c-.57-5-1.4-10.06-4.07-14.28-4.18-6.61-12.06-9.82-19.64-11.74-8.5-2.14-17.59-3-26.25-1.37-5.7,1.1-15,3.68-17.65,9.45-3.61,7.81-2.33,20.65-2.39,29.08C81.69,216.1,82.21,226.73,82.74,237.35Z"/></g><rect class="cls-31" x="125.76" y="323.66" width="11" height="88.19"/><path class="cls-5" d="M86.22,315s-2,10.11,1.35,12.13,98.52,2.77,104-2.52,1.39-12.85-4.55-12.53S90.92,311,86.22,315Z"/><path class="cls-31" d="M96,276.66s-9.19,47,6.84,53.68,31.54-1.68,31.54-1.68l-21-5.44s-5.57-17.72-1-45.42C104.12,269,96,276.66,96,276.66Z"/><path class="cls-31" d="M91.73,279.62a13.79,13.79,0,0,0,5,4.1c3.91,2.11,8.45,3.33,12.83,2.55s8.48-3.83,9.72-8.1c1.38-4.78-1.12-10.1-5.13-13.06-4.16-3.07-12.45-5.64-17.41-2.94C91.16,265.21,88,274.24,91.73,279.62Z"/><circle class="cls-32" cx="145.6" cy="423.24" r="11.26" transform="translate(-299.77 467.7) rotate(-76.72)"/><path class="cls-31" d="M174.93,422.92H104.8a6.7,6.7,0,0,1-6.71-6.71h0a6.7,6.7,0,0,1,6.71-6.71h70.13a6.71,6.71,0,0,1,6.71,6.71h0A6.71,6.71,0,0,1,174.93,422.92Z"/><circle class="cls-32" cx="99.59" cy="429.24" r="11.26" transform="translate(-341.04 427.55) rotate(-76.72)"/><circle class="cls-32" cx="180.88" cy="429.24" r="11.26" transform="translate(-271.79 539.02) rotate(-80.78)"/><path class="cls-24" d="M172.26,374.05"/><path class="cls-7" d="M192.93,385.59a2.14,2.14,0,0,0-.74,2,1.92,1.92,0,0,0,.64.88,5.11,5.11,0,0,0,5.95,0,3.76,3.76,0,0,0,1.84-2.86C200.66,381.06,194.33,384.09,192.93,385.59Z"/><path class="cls-7" d="M303.87,394.54a2.15,2.15,0,0,0,1,1.83,1.81,1.81,0,0,0,1.08.09,5.11,5.11,0,0,0,3.87-4.53,3.72,3.72,0,0,0-1-3.25C305.47,385.72,303.65,392.5,303.87,394.54Z"/></g></g></svg>