<svg xmlns="http://www.w3.org/2000/svg" xmlns:xlink="http://www.w3.org/1999/xlink" viewBox="0 0 625.48 412.29"><defs><style>.cls-1{isolation:isolate;}.cls-2,.cls-58{fill:#b5d0ff;}.cls-11,.cls-12,.cls-2,.cls-77{opacity:0.2;}.cls-3{fill:#6f3fba;}.cls-4{fill:#5730a0;}.cls-5{fill:#774cc9;}.cls-6{fill:#854dce;}.cls-7{fill:#b8b8f4;}.cls-73,.cls-76,.cls-8{opacity:0.3;}.cls-9{fill:#eefaff;}.cls-10{fill:#7272dd;}.cls-11{fill:url(#linear-gradient);}.cls-12{fill:url(#linear-gradient-2);}.cls-13{fill:#9494ed;}.cls-14{fill:#f98094;}.cls-15,.cls-25{fill:#fff;}.cls-16{fill:#d6d4ff;}.cls-17{fill:#7878c4;}.cls-18{fill:#0e7c74;}.cls-19{fill:#a29ee5;}.cls-20{fill:#8c8cdd;}.cls-21{fill:#bfb8f4;}.cls-22{fill:#383493;}.cls-23{fill:#5146af;}.cls-24,.cls-36,.cls-37,.cls-38,.cls-48,.cls-49,.cls-64,.cls-65,.cls-66,.cls-67,.cls-70,.cls-74,.cls-75{fill:none;}.cls-24{stroke:#5730a0;stroke-width:2px;}.cls-24,.cls-37,.cls-38,.cls-48,.cls-49,.cls-64,.cls-65,.cls-66,.cls-67,.cls-70,.cls-74,.cls-75{stroke-linecap:round;}.cls-24,.cls-70,.cls-74,.cls-75{stroke-linejoin:round;}.cls-25{opacity:0.31;}.cls-26{fill:#6c3db7;}.cls-27{fill:#f7b59c;}.cls-28{fill:#01263a;}.cls-29{fill:#003051;}.cls-30{fill:#ed9780;}.cls-31{fill:#8d1612;}.cls-32{fill:#ff4c2f;}.cls-33{fill:#fafff7;}.cls-34{fill:#452e17;}.cls-35{fill:#f4f4f4;}.cls-36,.cls-37,.cls-70,.cls-74,.cls-75{stroke:#fff;}.cls-36,.cls-37,.cls-38,.cls-48,.cls-49,.cls-64,.cls-65,.cls-66,.cls-67{stroke-miterlimit:10;}.cls-38{stroke:#ed9780;}.cls-39{fill:#9999ef;}.cls-40{fill:#4c4051;}.cls-41{fill:#0052a3;}.cls-42{fill:#594a5f;}.cls-43{fill:#0058c4;}.cls-44{fill:#2c1e56;}.cls-45{fill:#e5a18c;}.cls-46{fill:#d1deff;}.cls-47{fill:#eaa18b;}.cls-48{stroke:#eaa18b;}.cls-48,.cls-49{stroke-width:0.5px;}.cls-49{stroke:#c9806f;}.cls-50,.cls-73,.cls-76,.cls-77{fill:#9999f1;}.cls-51{fill:#c2e0f2;}.cls-52{fill:#1a1a47;}.cls-53{fill:#9ca2f2;}.cls-54{fill:#0b0b3a;}.cls-55{fill:#b0b2ff;}.cls-56{fill:#3d3d72;}.cls-57,.cls-60{fill:#94c1f7;}.cls-59{fill:#cfe3ff;}.cls-60,.cls-68,.cls-71{opacity:0.5;}.cls-61{fill:#e1efff;}.cls-62{fill:#cce1ff;}.cls-63{fill:#7878ff;}.cls-64,.cls-65,.cls-66,.cls-67{stroke:#9acee2;}.cls-65{stroke-dasharray:11.86 4.94;}.cls-66{stroke-dasharray:11.84 4.93;}.cls-67{stroke-dasharray:12 5;}.cls-69{fill:#389fe5;}.cls-70{stroke-width:1.38px;}.cls-71{mix-blend-mode:screen;}.cls-72{fill:#81a8cc;}.cls-73{mix-blend-mode:multiply;}.cls-74{stroke-width:1.06px;}.cls-75{stroke-width:1.62px;}.cls-78{fill:#8787dd;}</style><linearGradient id="linear-gradient" x1="354.13" y1="112.75" x2="354.13" y2="323.66" gradientUnits="userSpaceOnUse"><stop offset="0" stop-color="#fff"/><stop offset="1" stop-color="#fff" stop-opacity="0"/></linearGradient><linearGradient id="linear-gradient-2" x1="398.32" y1="112.75" x2="398.32" y2="323.66" xlink:href="#linear-gradient"/></defs><title>online-course</title><g class="cls-1"><g id="OBJECTS"><path class="cls-2" d="M94.22,443s-65.49-76.32,8.29-159.38c59.46-67,40.48-92.85,37.73-138-2.32-38.21,41-94.72,105.87-97.54,106.3-4.62,132.73,29.54,189.17,27.12S517.24,53,582.79,60.8C704.44,75.25,688,190.54,670.31,276.71s35.54,115.6-2.79,166.35" transform="translate(-63.01 -47.64)"/><polygon class="cls-3" points="363.35 382.8 260.62 382.8 271.78 338.92 274.31 328.97 279.22 309.71 344.75 309.71 349.66 328.97 352.19 338.92 363.35 382.8"/><polygon class="cls-4" points="352.19 338.92 271.78 338.92 274.31 328.97 349.66 328.97 352.19 338.92"/><path class="cls-5" d="M465.78,442.56H284.2a7.89,7.89,0,0,1-7.89-7.89h0a7.89,7.89,0,0,1,7.89-7.89H465.78a7.89,7.89,0,0,1,7.89,7.89h0A7.89,7.89,0,0,1,465.78,442.56Z" transform="translate(-63.01 -47.64)"/><path class="cls-6" d="M542.62,171V364.07a8.33,8.33,0,0,1-8.33,8.32H215.71a8.32,8.32,0,0,1-8.33-8.32V171a8.32,8.32,0,0,1,8.33-8.32H534.29A8.33,8.33,0,0,1,542.62,171Z" transform="translate(-63.01 -47.64)"/><rect class="cls-7" x="150.51" y="121.1" width="322.35" height="170.24"/><g class="cls-8"><rect class="cls-9" x="431.91" y="121.1" width="9.04" height="144.78"/><rect class="cls-9" x="454.81" y="121.1" width="9.04" height="144.78"/><rect class="cls-9" x="157.18" y="121.1" width="9.04" height="144.78"/><rect class="cls-9" x="180.07" y="121.1" width="9.04" height="144.78"/><rect class="cls-9" x="202.97" y="121.1" width="9.04" height="144.78"/><rect class="cls-9" x="225.86" y="121.1" width="9.04" height="144.78"/><rect class="cls-9" x="248.76" y="121.1" width="9.04" height="144.78"/><rect class="cls-9" x="271.65" y="121.1" width="9.04" height="144.78"/><rect class="cls-9" x="294.55" y="121.1" width="9.04" height="144.78"/><rect class="cls-9" x="317.44" y="121.1" width="9.04" height="144.78"/><rect class="cls-9" x="340.34" y="121.1" width="9.04" height="144.78"/><rect class="cls-9" x="363.23" y="121.1" width="9.04" height="144.78"/><rect class="cls-9" x="386.13" y="121.1" width="9.04" height="144.78"/><rect class="cls-9" x="409.02" y="121.1" width="9.04" height="144.78"/></g><rect class="cls-10" x="150.51" y="265.88" width="322.35" height="25.46"/><path class="cls-4" d="M375,362.87h0a7.75,7.75,0,0,1-7.73-7.73h0a7.75,7.75,0,0,1,7.73-7.72h0a7.75,7.75,0,0,1,7.73,7.72h0A7.75,7.75,0,0,1,375,362.87Z" transform="translate(-63.01 -47.64)"/><polygon class="cls-11" points="335.68 324.6 313.03 324.6 372.58 114.99 395.23 114.99 335.68 324.6"/><polygon class="cls-12" points="392.56 324.6 344.53 324.6 404.08 114.99 452.11 114.99 392.56 324.6"/><path class="cls-13" d="M523.5,328.74H259a2.5,2.5,0,1,1,0-5H523.5a2.5,2.5,0,0,1,0,5Z" transform="translate(-63.01 -47.64)"/><path class="cls-14" d="M391.27,323.75v5H259a2.5,2.5,0,1,1,0-5Z" transform="translate(-63.01 -47.64)"/><circle class="cls-15" cx="328.32" cy="278.61" r="4.5"/><circle class="cls-15" cx="235.08" cy="326.25" r="10.04" transform="translate(-199.46 432.45) rotate(-76.72)"/><path class="cls-6" d="M233.57,321.74l5.5,4.24a.33.33,0,0,1,0,.53l-5.5,4.24a.33.33,0,0,1-.54-.26V322A.34.34,0,0,1,233.57,321.74Z" transform="translate(-63.01 -47.64)"/><path class="cls-16" d="M99.17,421S50.77,355.61,66,341.65,103.34,376.87,99.17,421Z" transform="translate(-63.01 -47.64)"/><path class="cls-17" d="M70.49,349.39A187.23,187.23,0,0,1,91.12,392q3.3,9.8,5.63,19.86c1.45,6.3,2.4,12.68,3.71,19a.3.3,0,0,0,.59-.08c-1-13.31-4.7-26.87-9-39.47A167.53,167.53,0,0,0,71.1,349c-.26-.36-.86,0-.61.36Z" transform="translate(-63.01 -47.64)"/><path class="cls-17" d="M69.24,358.34c4.09,2.9,8,6.21,12.11,9,.26.17.5-.2.32-.41a39.19,39.19,0,0,0-12.13-9.11.3.3,0,0,0-.3.52Z" transform="translate(-63.01 -47.64)"/><path class="cls-17" d="M70.74,362.26c4.09,2.9,8,6.2,12.11,9,.26.18.5-.19.32-.41A39.28,39.28,0,0,0,71,361.74a.3.3,0,0,0-.3.52Z" transform="translate(-63.01 -47.64)"/><path class="cls-16" d="M109.05,413.5s46.66-66.63,31.11-80.19S103.72,369.51,109.05,413.5Z" transform="translate(-63.01 -47.64)"/><path class="cls-17" d="M135.22,340.83a169.81,169.81,0,0,0-20.82,46c-3.91,13.41-7.05,27.8-7.52,41.81,0,.33.54.42.59.08,1-6.63,1.7-13.29,2.9-19.89a215.82,215.82,0,0,1,5-21.3,187.77,187.77,0,0,1,20.46-46.31c.24-.39-.36-.73-.61-.35Z" transform="translate(-63.01 -47.64)"/><path class="cls-18" d="M110.41,381.59a63.28,63.28,0,0,0,1.09,16.6.26.26,0,0,0,.51-.07,74.88,74.88,0,0,0-.4-7.77c-.19-2.91-.29-5.85-.6-8.76a.3.3,0,0,0-.6,0Z" transform="translate(-63.01 -47.64)"/><path class="cls-19" d="M105.4,389.87s-47-66.41-31.47-80S110.53,345.86,105.4,389.87Z" transform="translate(-63.01 -47.64)"/><path class="cls-17" d="M78.3,317.68c16.29,26.09,25.35,55.92,28.44,86.42.62,6.12.89,12.25,1.35,18.39a.31.31,0,0,0,.61,0c.28-11.79-1.22-23.8-3.22-35.39a196.81,196.81,0,0,0-12.75-44A162.17,162.17,0,0,0,78.9,317.32c-.24-.37-.84,0-.6.36Z" transform="translate(-63.01 -47.64)"/><path class="cls-20" d="M102.59,409.25s28.9-39.72,19.66-48.07S99.85,382.63,102.59,409.25Z" transform="translate(-63.01 -47.64)"/><path class="cls-17" d="M119.06,365.59a105,105,0,0,0-15.15,34.67c-2.25,9.14-4.1,19.19-3.7,28.65a.31.31,0,0,0,.61,0c1.16-9.55,1.84-19,4.17-28.35A118,118,0,0,1,119.67,366c.24-.39-.36-.73-.61-.36Z" transform="translate(-63.01 -47.64)"/><polygon class="cls-21" points="58.95 359.69 58.72 361.21 58.24 364.44 53.63 395.42 26.09 395.42 21.47 364.44 21 361.21 20.77 359.69 58.95 359.69"/><polygon class="cls-17" points="58.72 361.21 58.24 364.44 21.47 364.44 21 361.21 58.72 361.21"/><path class="cls-19" d="M122.49,410.24H83.24A2.27,2.27,0,0,1,81,408h0a2.28,2.28,0,0,1,2.28-2.28h39.25a2.28,2.28,0,0,1,2.28,2.28h0A2.27,2.27,0,0,1,122.49,410.24Z" transform="translate(-63.01 -47.64)"/><path class="cls-22" d="M139.2,294.88v20.49a1.46,1.46,0,0,1-.26.83,1.42,1.42,0,0,1-1.18.61h-30.1a1.44,1.44,0,0,1-1-.39v-19a1.26,1.26,0,0,1,1.26-1.25h21.15a1.26,1.26,0,0,0,1.25-1.27,1.26,1.26,0,0,1,1.26-1.26h6.35A1.27,1.27,0,0,1,139.2,294.88Z" transform="translate(-63.01 -47.64)"/><path class="cls-23" d="M138.94,316.2a1.42,1.42,0,0,1-1.18.61h-30.1a1.44,1.44,0,0,1-1-.39,1.21,1.21,0,0,1-.3-.42.31.31,0,0,1-.05-.1l-6.7-15.29a1.21,1.21,0,0,1,1.11-1.69h29.84a1.21,1.21,0,0,1,1.11.71L138,314Z" transform="translate(-63.01 -47.64)"/><line class="cls-24" x1="10.05" y1="395.87" x2="613.93" y2="395.87"/><path class="cls-16" d="M74.84,29.64H213.21a6.65,6.65,0,0,1,6.65,6.65v106.9a1.43,1.43,0,0,1-1.43,1.43H71.79a1.43,1.43,0,0,1-1.43-1.43V34.12A4.48,4.48,0,0,1,74.84,29.64Z"/><rect class="cls-15" x="76.24" y="114.28" width="137.89" height="24.76" rx="2.83"/><rect class="cls-15" x="76.24" y="100.15" width="137.89" height="10.04" rx="1.8"/><path class="cls-25" d="M219.53,96.69H140.86a2.21,2.21,0,0,1-2.22-2.22h0a2.21,2.21,0,0,1,2.22-2.21h78.67a2.21,2.21,0,0,1,2.22,2.21h0A2.21,2.21,0,0,1,219.53,96.69Z" transform="translate(-63.01 -47.64)"/><path class="cls-25" d="M219.53,105.85H140.86a2.21,2.21,0,0,1-2.22-2.22h0a2.21,2.21,0,0,1,2.22-2.21h78.67a2.21,2.21,0,0,1,2.22,2.21h0A2.21,2.21,0,0,1,219.53,105.85Z" transform="translate(-63.01 -47.64)"/><path class="cls-25" d="M219.53,115H140.86a2.22,2.22,0,0,1-2.22-2.22h0a2.22,2.22,0,0,1,2.22-2.22h78.67a2.22,2.22,0,0,1,2.22,2.22h0A2.22,2.22,0,0,1,219.53,115Z" transform="translate(-63.01 -47.64)"/><path class="cls-25" d="M219.53,124.17H140.86a2.22,2.22,0,0,1-2.22-2.22h0a2.22,2.22,0,0,1,2.22-2.22h78.67a2.22,2.22,0,0,1,2.22,2.22h0A2.22,2.22,0,0,1,219.53,124.17Z" transform="translate(-63.01 -47.64)"/><path class="cls-25" d="M219.53,133.33H140.86a2.22,2.22,0,0,1-2.22-2.22h0a2.22,2.22,0,0,1,2.22-2.22h78.67a2.22,2.22,0,0,1,2.22,2.22h0A2.22,2.22,0,0,1,219.53,133.33Z" transform="translate(-63.01 -47.64)"/><path class="cls-25" d="M201.05,142.49H140.86a2.21,2.21,0,0,1-2.22-2.22h0a2.21,2.21,0,0,1,2.22-2.21h60.19a2.22,2.22,0,0,1,2.22,2.21h0A2.22,2.22,0,0,1,201.05,142.49Z" transform="translate(-63.01 -47.64)"/><path class="cls-6" d="M281.35,73.48H134.88A1.51,1.51,0,0,0,133.36,75V86.21h149.5V75A1.5,1.5,0,0,0,281.35,73.48Z" transform="translate(-63.01 -47.64)"/><path class="cls-15" d="M260.68,79.84a1.38,1.38,0,1,1-1.38-1.38A1.38,1.38,0,0,1,260.68,79.84Z" transform="translate(-63.01 -47.64)"/><path class="cls-15" d="M267.54,79.84a1.38,1.38,0,1,1-1.38-1.38A1.38,1.38,0,0,1,267.54,79.84Z" transform="translate(-63.01 -47.64)"/><path class="cls-15" d="M274.41,79.84A1.38,1.38,0,1,1,273,78.46,1.38,1.38,0,0,1,274.41,79.84Z" transform="translate(-63.01 -47.64)"/><path class="cls-15" d="M277.14,93.69V141a1.45,1.45,0,0,1-1.45,1.45H228.86a1.45,1.45,0,0,1-1.44-1.45V93.69a1.44,1.44,0,0,1,1.44-1.43h46.83A1.45,1.45,0,0,1,277.14,93.69Z" transform="translate(-63.01 -47.64)"/><path class="cls-26" d="M277.14,132.17V141a1.45,1.45,0,0,1-1.45,1.45H252.46l1-10.32,10.93-12.1Z" transform="translate(-63.01 -47.64)"/><path class="cls-6" d="M270.64,142.49H228.86a1.45,1.45,0,0,1-1.44-1.45v-8.87L243.78,115Z" transform="translate(-63.01 -47.64)"/><path class="cls-6" d="M270.57,105.85a5.77,5.77,0,1,1-5.77-5.77A5.76,5.76,0,0,1,270.57,105.85Z" transform="translate(-63.01 -47.64)"/><path class="cls-27" d="M347.5,298.42,331.87,271.6l-24.85,2-6.78,6.18c-.87-1-.68-.78-1.36-1.55-5.24-5.87-17.51-15.63-27.24-25.68a236.79,236.79,0,0,1-19.32-22.82l-2,1c0-1,0-1.72,0-1.72l-8.75-11.69-10.6-.69-7.87,9.56.41,5.12s.13,7.89,6.29,8.68c1.85.24,6.52,1.13,8,2.14a30.53,30.53,0,0,1,9.88,11.45c6.95,13.61,17.07,33,26.58,49.68a20.2,20.2,0,0,0,1.09,1.79c3.31,5.27,13.56,20.51,21.94,21.23C307.48,327.09,347.5,298.42,347.5,298.42Z" transform="translate(-63.01 -47.64)"/><path class="cls-28" d="M383.11,157s3.34-5,7.93-6.18-5,10.68-5,10.68-2.59,1.14-2.89.95S383.11,157,383.11,157Z" transform="translate(-63.01 -47.64)"/><path class="cls-29" d="M468.64,121.38s32.74,11.76-6.24,45.54l-5.87-1.79Z" transform="translate(-63.01 -47.64)"/><path class="cls-27" d="M385.84,223.06a63.74,63.74,0,0,0,36.5,22.08c36.27-.69,42.45-20.67,42.45-20.67L444.53,220s-.61-26.45,10.63-42.76c8.41,1.62,12.36-11.66,10-15.22-2.51-3.87-5.33-3.36-5.33-3.36-2.39,2.59-4.56,8.69-5.63,11.7l-50.53,26.13a29.87,29.87,0,0,1,1.36,3.63A59.24,59.24,0,0,1,407.33,211a74.07,74.07,0,0,1,.44,9.93Zm64.81-47c1.07-1.83,2.23-3.68,3.52-5.54-.45,1.29-.79,2.45-1,3.4C451.71,175.17,450.68,176.06,450.65,176.1Z" transform="translate(-63.01 -47.64)"/><path class="cls-30" d="M405.08,200.09A59.24,59.24,0,0,1,407.33,211c42.08-9.22,43.29-32,43.29-32L429,187.79Z" transform="translate(-63.01 -47.64)"/><path class="cls-28" d="M398.42,107.18s-9.17,17-2.86,28.26l14.59-18.9" transform="translate(-63.01 -47.64)"/><path class="cls-27" d="M382.35,193.7c9.69,15.31,45.23,15,61.9-7s19.4-47.11,11.06-62.58c-4.63-8.6-15.72-13.57-26.62-14.38a29.58,29.58,0,0,0-8.67.65,31.59,31.59,0,0,0-17.18,10.45c-.41.49-.79,1-1.17,1.47l-2.56,3.37c-.34.44-.65.88-.95,1.35a29,29,0,0,0-3.7,7.77,27.59,27.59,0,0,0-1,4.4,29.27,29.27,0,0,1-6,14C380.14,162.22,372.67,178.4,382.35,193.7Z" transform="translate(-63.01 -47.64)"/><path class="cls-30" d="M402.83,120.86a42.77,42.77,0,0,0,11.3,2.94c8.48,1,25.57,2.72,31.3,9a15.88,15.88,0,0,1,3.83,7.07c1.41,4.9-3.18-16.65-3.18-16.65L420,110.4A31.68,31.68,0,0,0,402.83,120.86Z" transform="translate(-63.01 -47.64)"/><path class="cls-30" d="M452.41,146.64s-.08,22.19-11.82,28.06-19.77-1.37-25.13-5.2c-3.08-2.2-4.16,3.44-4.16,3.44s6.12,10.17,9.18,10.17,15.39-.16,16.33-.76,8-4,8-4,4.85-8.28,5.19-9.16,5.86-10.31,5.61-11.5-.17-9-.17-9Z" transform="translate(-63.01 -47.64)"/><path class="cls-29" d="M398.74,78.09c-2.76.54-5.27,6.22-6.4,8.77A21.25,21.25,0,0,0,394.67,109c8,11.08,25.26,11.1,38.14,14.41,11.45,3,17.16,10.33,16.4,18.74a8.54,8.54,0,0,0,2.13,6.32l.25.29a6.9,6.9,0,0,1,1.56,5.91C451.8,161.33,447.6,175,437.27,178c-8.92,2.64-12.59-.71-14.06-1.84-5.19-3.95-8.13-8.33-18.27-13.27-5.27-2.57-10.94-2.22-18.34-3.3-1.37-.2-3.28-.38-3.49-2.6,0,0-16.14,18.93-4.85,38.62a20.68,20.68,0,0,0,13.07,9.85c7.59,1.83,20.19,2.89,34.85-3.73,24-10.84,31.88-35.59,35.07-43.37s11.48-28.74,5.3-48c-3.82-11.91-15.9-22-35.65-22.87C417.14,86.84,406.94,76.5,398.74,78.09Z" transform="translate(-63.01 -47.64)"/><path class="cls-31" d="M414.43,174.64a12.4,12.4,0,0,1-1,1.53c-2.17,2.82-7.85,8.16-17.54,3.45a9.72,9.72,0,0,1-5.3-5.49c-1.48-4.2.73-8.5.73-8.5a77,77,0,0,0,8.48,4.65c4.22,2,9.42,3.95,14.1,4.32Z" transform="translate(-63.01 -47.64)"/><path class="cls-32" d="M414.13,173.74l-.25.86-.47,1.57c-2.17,2.82-7.85,8.16-17.54,3.45a9.72,9.72,0,0,1-5.3-5.49c4-3.84,8-3.85,8-3.85h6.51Z" transform="translate(-63.01 -47.64)"/><path class="cls-33" d="M391.78,165.63s-2.71,3.37-2.72,4.34c0,1.5,17.86,9.89,18.82,9.95s2.61-3.38,2.61-3.38l-7.23-4.31" transform="translate(-63.01 -47.64)"/><path class="cls-29" d="M392.66,129.42a4.62,4.62,0,0,0-.47,1.41,2.59,2.59,0,0,0,1.85,3.1c3.35,1.2,13.5,5.21,13.5,5.21,1.06.62,1.07-.53.75-1.21-1.34-2.8-2.68-6.27-12.29-9.52C394.65,128,393.24,128.12,392.66,129.42Z" transform="translate(-63.01 -47.64)"/><path class="cls-29" d="M440.37,148.64c-.39,1,0,.1-.7,1.3a2.58,2.58,0,0,1-3.52.8c-3.17-1.61-13.07-6.21-13.07-6.21-1.17-.35-.35-1.14.37-1.38,2.94-1,6.38-2.37,15.36,2.37C440.07,146.18,440.92,147.32,440.37,148.64Z" transform="translate(-63.01 -47.64)"/><path class="cls-29" d="M387.66,166.28s5.63,7.16,13.45,5c0,0,.07,5.86,13.21,7.78l1.14-4.59s-8.45-4.5-9-4.16-8.59-2.15-10.12-2.44-6.76-4.37-6.76-4.37Z" transform="translate(-63.01 -47.64)"/><path class="cls-30" d="M461.12,163.19s-4.77,6.79-4,9.75c0,0,.18-1.72,4.57-1.69,0,0,2.83-3.95,1.41-6.9A1.77,1.77,0,0,0,461.12,163.19Z" transform="translate(-63.01 -47.64)"/><path class="cls-34" d="M423.53,150.8c-1.5,2.44-2.13,5.1.32,7a2.36,2.36,0,0,0,2.83-.29,9.32,9.32,0,0,0,2.15-3.15c1.67-3.17-3.39-6.72-5.3-3.6Z" transform="translate(-63.01 -47.64)"/><path class="cls-15" d="M423.94,152.22c-.4.64-.56,1.34.08,1.85a.62.62,0,0,0,.74-.08c.33-.31.24-.63.44-1a.74.74,0,0,0-1.26-.77Z" transform="translate(-63.01 -47.64)"/><path class="cls-34" d="M397.39,142c-1.24,1.89-1.79,4,.1,5.56a1.87,1.87,0,0,0,2.24-.16,8.24,8.24,0,0,0,1.71-2.73c1.39-2.47-2.47-5.09-4.05-2.67Z" transform="translate(-63.01 -47.64)"/><path class="cls-15" d="M397.68,143.1c-.32.5-.47,1,0,1.46a.5.5,0,0,0,.59,0c.26-.24.2-.5.36-.79a.58.58,0,0,0-1-.63Z" transform="translate(-63.01 -47.64)"/><path class="cls-27" d="M252.66,230.24S240.12,203.31,231.37,197c0,0-3.07.48-2.71,4.22s5.66,8.34,5.9,11.84-2.11,3-5,2.35-24.32-12.59-26.43-11.54.06,3.29,1.57,4.49,12.94,8.4,12.94,8.4-20.6-11.3-22.14-7.37c-1,2.54,18.15,12.38,18.15,12.38s-16.45-9.22-17.2-5.8c-.65,2.92,13.3,9.46,13.3,9.46s-8.62-4.51-9.27-2.53c-.82,2.51,11.15,9,14.62,11.27S227,240,230.35,240s5.83-.42,7.67,1.45" transform="translate(-63.01 -47.64)"/><path class="cls-15" d="M482.08,287.91,489,313.52H363.31c0-6.62-.35-14.52-.87-22.32l-27,16.56c-8.84-17.52-28.11-34.19-28.38-34.2,18.77-18.42,41.79-39.28,54.33-48,6-4.17,34.82-5.84,38.56-6.21a9.92,9.92,0,0,0,7.71-5.13s4,9.32,10.55,12.69c1.78.73,1.94,11.3,4.16,11.24.66,0,5.52-11.06,6.15-11.16,0,0,7.74-1.31,16.29-14.19l1.53,2.09A9.86,9.86,0,0,0,452,218.7a143.19,143.19,0,0,1,19.84,6.2c10.78,4.35,22.65,25,22.65,25l2.67,38-15.84-.72Z" transform="translate(-63.01 -47.64)"/><polygon class="cls-35" points="407.5 233.76 410.49 265.88 425.99 265.88 423.24 244.95 407.5 233.76"/><polyline class="cls-27" points="453.74 228.7 467.74 265.88 425.99 265.88 419.07 250.78"/><path class="cls-15" d="M455.61,219.6s32,4.63,41.56,14.15c4.77,4.75,8.68,13.85,14.66,27.5,9.8,22.34,14.41,34.5,14.41,34.5S502,312.59,477.75,307.59l-11.89-34.25Z" transform="translate(-63.01 -47.64)"/><ellipse class="cls-36" cx="399.78" cy="144.15" rx="10.12" ry="9.11" transform="translate(53.35 413.17) rotate(-68)"/><ellipse class="cls-36" cx="424.44" cy="154.16" rx="10.12" ry="9.11" transform="translate(59.49 442.3) rotate(-68)"/><path class="cls-36" d="M408.47,146.87s5.46-.58,7.53,3.88" transform="translate(-63.01 -47.64)"/><line class="cls-37" x1="370.22" y1="108.97" x2="398.24" y2="110.73"/><path class="cls-35" d="M370.17,313.52h-6.86c0-6.62-.35-14.52-.87-22.32l5.56-3.11S370.33,306.46,370.17,313.52Z" transform="translate(-63.01 -47.64)"/><path class="cls-38" d="M411.3,149.59s-7.3,5.65-8.09,8.6c-.47,1.75,2.46,3.67,2.46,3.67" transform="translate(-63.01 -47.64)"/><path class="cls-27" d="M210.16,346.32s3,10.45-8.24,10.44a9.13,9.13,0,0,1-4.08-1c-4.15-2-5.11-9-5.11-9,3.51-.9,2.28-6,2.28-6l12.48.29s-.62,3.26.29,4.19C209.37,347,210.16,346.32,210.16,346.32Z" transform="translate(-63.01 -47.64)"/><path class="cls-23" d="M193.43,346s-.71,9.26,8,9.26c7.9,0,8-6.14,7.41-9.52,9,.81,18.86,4.45,23.9,8.58,6,7.72,10.11,19.53,10.11,19.53a47.57,47.57,0,0,1-5.6,2.15,23.16,23.16,0,0,0-5.11,2.23L228.62,426H173.43l-.94-47.72s-3.63-.87-6.56-1.83a19,19,0,0,1-5.9-2.78,100.16,100.16,0,0,1,8.31-17.82C173.41,351.13,182.9,347.26,193.43,346Z" transform="translate(-63.01 -47.64)"/><path class="cls-27" d="M161,374.18s-5.26,18.61-4.78,27.5S177.74,423,177.74,423l2.75-9.38s-8.74-3.72-10-10.51,6-23.83,6-23.83-3.24-.95-7.67-2.16A46.45,46.45,0,0,1,161,374.18Z" transform="translate(-63.01 -47.64)"/><path class="cls-27" d="M242.22,374.18s5.26,18.61,4.78,27.5S225.49,423,225.49,423l-2.75-9.38s8.73-3.72,10-10.51-6.3-24.24-6.3-24.24,3.5-.78,7.93-2A64.27,64.27,0,0,0,242.22,374.18Z" transform="translate(-63.01 -47.64)"/><path class="cls-39" d="M235.35,426.73H167.16L165.61,384a2,2,0,0,1,2-2H235a2,2,0,0,1,2,2Z" transform="translate(-63.01 -47.64)"/><path class="cls-40" d="M229.89,436.51a6.67,6.67,0,0,1,4.83-1.81c2.19-.06,8.39,1.35,11.35,1.3s6-.7,7.73,1.82c2.88,4.29,1.63,8.15-3.22,8.73-2.63.32-4.81-1.42-9-1s-10.4-1-12.24-3.85" transform="translate(-63.01 -47.64)"/><path class="cls-27" d="M224.16,434.51a31.59,31.59,0,0,0,5.44,1.06c2.17.11,7-.43,9.24,1,2.38,1.49,1.5,5.55,0,6.51-2.44,1.55-4.41.75-8.87-.66a28,28,0,0,0-9.69-.87" transform="translate(-63.01 -47.64)"/><path class="cls-41" d="M230.81,444.25s-50.57-.91-64-2.68a63.78,63.78,0,0,1-15.42-3.78c-6-3.61-8.27-12.2-4.15-20.12,1.92-3.7,7.85-3,8.67-3h.32c16.4.64,31.33,4.83,48.22,11.57a194.69,194.69,0,0,0,27.72,8.88C233,441.55,230.81,444.25,230.81,444.25Z" transform="translate(-63.01 -47.64)"/><path class="cls-40" d="M243,438.71s-1.34-.75-1.79.06a11.72,11.72,0,0,0-.46,4.74c.42.95,2.39.61,2.39.61l1.6-4.33Z" transform="translate(-63.01 -47.64)"/><path class="cls-42" d="M173.6,436.58a7,7,0,0,0-5-1.89c-2.28-.07-8.72,1.36-11.79,1.3s-6.09-.73-8.05,1.33c-3.69,3.89-.26,8.77,4.78,9.39,2.73.34,3.54-1.24,7.89-.79s10.8-.95,12.73-4" transform="translate(-63.01 -47.64)"/><path class="cls-27" d="M179.55,434.53a32.55,32.55,0,0,1-5.65,1.07c-2.25.11-7.31-.46-9.6,1-2.48,1.55-1.58,5.77,0,6.77,2.52,1.62,4.57.8,9.21-.65a28.93,28.93,0,0,1,10.07-.86" transform="translate(-63.01 -47.64)"/><path class="cls-43" d="M252.42,437.61v0a62.4,62.4,0,0,1-16.3,4.09c-13.48,1.72-64.05,2.45-64.05,2.45s-2.2-2.73-1.29-9.17a194.22,194.22,0,0,0,27.76-8.76c16.53-6.52,31.19-10.64,47.14-11.37,3.12.31,6.73,1.69,9.28,7C258.35,429,255.72,436.37,252.42,437.61Z" transform="translate(-63.01 -47.64)"/><path class="cls-42" d="M162.84,437.1s1.71-1,2.27.08a14.9,14.9,0,0,1,.56,6.05c-.53,1.2-3,.76-3,.76l-2-5.52Z" transform="translate(-63.01 -47.64)"/><path class="cls-44" d="M215.91,316.57s4.68-.47-.63,11.66c-2,4.57-2.71,4.27-2.75,4.49a4.4,4.4,0,0,1-1.79-2.29c0-.77.07-6.77.15-7.08S215.91,316.57,215.91,316.57Z" transform="translate(-63.01 -47.64)"/><path class="cls-44" d="M188.29,319.35s-3.63-1-2.16,6.22a14.09,14.09,0,0,0,3.6,7.15,4.4,4.4,0,0,0,1.79-2.29c0-.77-.08-6.77-.15-7.08S188.29,319.35,188.29,319.35Z" transform="translate(-63.01 -47.64)"/><path class="cls-45" d="M189.28,328.4s-1.54-1.49-2,.5,1.18,7.12,3.22,5.14" transform="translate(-63.01 -47.64)"/><path class="cls-45" d="M213,328.4s1.54-1.49,2,.5-1.17,7.12-3.22,5.14" transform="translate(-63.01 -47.64)"/><path class="cls-27" d="M201.63,344.17h-.12c-1.42.09-14.12.21-12.52-22.87h24.2S216.12,342.79,201.63,344.17Z" transform="translate(-63.01 -47.64)"/><path class="cls-44" d="M209.89,308.36c4.55,1.35,7.5,7.11,5.25,11.67s-9.5,7.21-17.6,5.48c-4.76-1-6.3-2.93-9.16-2.78a5,5,0,0,1-5-3.3c-1-2.8-1.66-6.59,1.25-8.85C192.57,312.86,203.05,306.34,209.89,308.36Z" transform="translate(-63.01 -47.64)"/><path class="cls-46" d="M205.16,403a4.39,4.39,0,1,1-4.39-4.39A4.4,4.4,0,0,1,205.16,403Z" transform="translate(-63.01 -47.64)"/><path class="cls-47" d="M195.2,342.28a10.08,10.08,0,0,0,1.81.89,10.62,10.62,0,0,0,4.25.7,12.14,12.14,0,0,0,2.3-.33,14.67,14.67,0,0,0,1.95-.59,14,14,0,0,0,1.84-.84,8.34,8.34,0,0,1-1.69,1.15,11.36,11.36,0,0,1-2,.81,10.48,10.48,0,0,1-2.4.41,8.91,8.91,0,0,1-2.45-.24,9.18,9.18,0,0,1-2-.76A6.73,6.73,0,0,1,195.2,342.28Z" transform="translate(-63.01 -47.64)"/><path class="cls-34" d="M196.06,331.05c.09.83.16,1.8-.74,1.91a1,1,0,0,1-.92-.52,3,3,0,0,1-.11-1.18c0-1,1.65-1.26,1.77-.21Z" transform="translate(-63.01 -47.64)"/><path class="cls-15" d="M195.64,331.75c0,.21,0,.42-.21.49a.18.18,0,0,1-.19-.09c-.06-.12,0-.2,0-.32a.21.21,0,0,1,.42-.08Z" transform="translate(-63.01 -47.64)"/><path class="cls-34" d="M207.16,331.05c.09.83.16,1.8-.74,1.91a1,1,0,0,1-.92-.52,3,3,0,0,1-.11-1.18c0-1,1.65-1.26,1.77-.21Z" transform="translate(-63.01 -47.64)"/><path class="cls-15" d="M206.74,331.75c0,.21,0,.42-.21.49a.18.18,0,0,1-.19-.09c-.06-.12,0-.2,0-.32a.21.21,0,0,1,.42-.08Z" transform="translate(-63.01 -47.64)"/><path class="cls-29" d="M208.5,328c.07.2,0,0,.06.28s-.24.45-.61.46c-.92,0-3.72.15-3.72.15-.3,0-.25-.16-.14-.27.47-.43,1-1,3.59-1C208.05,327.63,208.4,327.74,208.5,328Z" transform="translate(-63.01 -47.64)"/><path class="cls-29" d="M193,328a1.09,1.09,0,0,0-.06.28c0,.28.24.45.61.46.92,0,3.72.15,3.72.15.3,0,.26-.16.14-.27-.46-.43-1-1-3.58-1C193.45,327.63,193.09,327.74,193,328Z" transform="translate(-63.01 -47.64)"/><path class="cls-48" d="M200.77,332.58s-1.06,2.34-.73,2.8,1.59.47,1.59.47" transform="translate(-63.01 -47.64)"/><path class="cls-49" d="M197.94,339.26s3.35,2,6.34-.16" transform="translate(-63.01 -47.64)"/><path class="cls-15" d="M458.37,440V350a.38.38,0,0,0-.37-.37h-2.18a.38.38,0,0,0-.37.37V440a1.27,1.27,0,0,0-1,1.23,1.3,1.3,0,0,0,1.29,1.3h2.34a1.3,1.3,0,0,0,1.29-1.3A1.27,1.27,0,0,0,458.37,440Z" transform="translate(-63.01 -47.64)"/><path class="cls-15" d="M637.1,440H637V349.58h-2.91V440H634a.93.93,0,0,0-.93.93v.73a.93.93,0,0,0,.93.93h3.06a.93.93,0,0,0,.92-.93v-.73A.93.93,0,0,0,637.1,440Z" transform="translate(-63.01 -47.64)"/><path class="cls-50" d="M659.77,350.48H430a2.71,2.71,0,0,1-2.71-2.71h0a2.71,2.71,0,0,1,2.71-2.71H659.77a2.71,2.71,0,0,1,2.71,2.71h0A2.71,2.71,0,0,1,659.77,350.48Z" transform="translate(-63.01 -47.64)"/><path class="cls-23" d="M552.5,342.05H486.18l-13.13-41.27a3.22,3.22,0,0,1,3.07-4.2h59.56a3.22,3.22,0,0,1,3.07,2.24Z" transform="translate(-63.01 -47.64)"/><path class="cls-15" d="M551.17,342.05H488.36l-13.2-41.92a1.21,1.21,0,0,1,1.14-1.58h60.17a1.36,1.36,0,0,1,1.3,1Z" transform="translate(-63.01 -47.64)"/><path class="cls-51" d="M511.59,305.08H482.66a.78.78,0,0,1-.78-.78h0a.78.78,0,0,1,.78-.78h28.93a.78.78,0,0,1,.78.78h0A.78.78,0,0,1,511.59,305.08Z" transform="translate(-63.01 -47.64)"/><path class="cls-51" d="M516.07,308.68H483.81a.77.77,0,0,1-.78-.78h0a.78.78,0,0,1,.78-.78h32.26a.78.78,0,0,1,.78.78h0A.77.77,0,0,1,516.07,308.68Z" transform="translate(-63.01 -47.64)"/><path class="cls-51" d="M513.08,312.29H485a.77.77,0,0,1-.78-.78h0a.77.77,0,0,1,.78-.78h28.09a.78.78,0,0,1,.78.78h0A.78.78,0,0,1,513.08,312.29Z" transform="translate(-63.01 -47.64)"/><path class="cls-51" d="M508.4,315.9H486.13a.78.78,0,0,1-.78-.78h0a.78.78,0,0,1,.78-.78H508.4a.78.78,0,0,1,.78.78h0A.78.78,0,0,1,508.4,315.9Z" transform="translate(-63.01 -47.64)"/><path class="cls-51" d="M519.57,319.51H487.31a.78.78,0,0,1-.78-.78h0a.78.78,0,0,1,.78-.78h32.26a.78.78,0,0,1,.78.78h0A.78.78,0,0,1,519.57,319.51Z" transform="translate(-63.01 -47.64)"/><path class="cls-51" d="M516.56,323.12h-28.1a.78.78,0,0,1-.78-.79h0a.78.78,0,0,1,.78-.78h28.1a.78.78,0,0,1,.78.78h0A.78.78,0,0,1,516.56,323.12Z" transform="translate(-63.01 -47.64)"/><path class="cls-51" d="M523,330.33H490.77a.78.78,0,0,1-.78-.78h0a.78.78,0,0,1,.78-.78H523a.78.78,0,0,1,.78.78h0A.78.78,0,0,1,523,330.33Z" transform="translate(-63.01 -47.64)"/><path class="cls-51" d="M524.2,333.94H491.94a.78.78,0,0,1-.78-.78h0a.78.78,0,0,1,.78-.78H524.2a.78.78,0,0,1,.78.78h0A.78.78,0,0,1,524.2,333.94Z" transform="translate(-63.01 -47.64)"/><path class="cls-51" d="M541.35,333.94H530.93a2.22,2.22,0,0,1-2.12-1.56l-8.69-27.49a2.23,2.23,0,0,1,2.13-2.9h10.42a2.22,2.22,0,0,1,2.12,1.56L543.48,331A2.23,2.23,0,0,1,541.35,333.94Z" transform="translate(-63.01 -47.64)"/><path class="cls-23" d="M558.06,345.06H485.94a2.13,2.13,0,0,1-2.13-2.13h0a2.13,2.13,0,0,1,2.13-2.14h72.12a2.13,2.13,0,0,1,2.13,2.14h0A2.13,2.13,0,0,1,558.06,345.06Z" transform="translate(-63.01 -47.64)"/><path class="cls-52" d="M565.22,289.92a1.6,1.6,0,0,1-1.37-.79l-2.09-3.68a1.57,1.57,0,0,1-.14-1.22,1.55,1.55,0,0,1,.77-1l5.82-3.07a1.58,1.58,0,0,1,2.12.64l2,3.64a1.53,1.53,0,0,1,.13,1.2,1.58,1.58,0,0,1-.76.94l-5.71,3.1A1.55,1.55,0,0,1,565.22,289.92Zm3.72-9.17a.81.81,0,0,0-.39.1l-5.82,3.07a.84.84,0,0,0-.34,1.17h0l2.09,3.68a.85.85,0,0,0,1.14.32l5.72-3.1a.87.87,0,0,0,.41-.51.89.89,0,0,0-.07-.64l-2-3.65A.85.85,0,0,0,568.94,280.75Z" transform="translate(-63.01 -47.64)"/><path class="cls-27" d="M554.27,322c-.47.59-.84,1-.84,1s-3.5-2.65-4.48-2.9-3.06.35-4.22.59c-1.91.39-1.12-1.16-1.12-1.16s-1.28.45-2.4.9c-1.28.52-2.62,1.59-3,1.69-.74.17-1.45-.19-.77-1.22a35.91,35.91,0,0,1,6.69-6.21c1.46-.69,3.44-1.7,5-1.11s6.77,4.47,6.77,4.47C556.08,319.35,555.05,321,554.27,322Z" transform="translate(-63.01 -47.64)"/><path class="cls-53" d="M552.89,323s17.16,15,30,16.53,34.48-22.83,34.48-22.83-1.36-13-9.36-11.44S589.26,326,584.62,326.94s-28.82-9.34-28.82-9.34a6.2,6.2,0,0,0-1.5,1.84A16.36,16.36,0,0,0,552.89,323Z" transform="translate(-63.01 -47.64)"/><path class="cls-27" d="M591,264.36c-4.09-4.68-10.14-5.19-14.81-4.67A15.46,15.46,0,0,0,563,270.41a13.71,13.71,0,0,0,.28,8.82c3.81,10.52,7.85,16.32,11,19.17,1.37,1.25,4.26-.45,7.16-1.47a.8.8,0,0,1,1,.38l1.65,3.05,12-2.44a41.56,41.56,0,0,1-2.52-6.93C595.05,289,598.52,272.93,591,264.36Z" transform="translate(-63.01 -47.64)"/><path class="cls-54" d="M569.29,279.37a3.08,3.08,0,0,1,3.13,1.83c.88,2.11,2.25,5.06,3.32,6a1.07,1.07,0,0,0,1.18,0,.9.9,0,0,0,.54-.91,24.65,24.65,0,0,0-1.24-4.2,2.82,2.82,0,0,1,2.12-3.91,4.85,4.85,0,0,1,1.75.11c3.18,1,1,6,.93,8.56,0,1.84,2.15,6.1,3.13,6.48,3.19,1.26,8,.12,10.61-3.05s3.13-13.79,1.72-20.14-6.48-9.93-8.16-10.34a5.94,5.94,0,0,0-2-.15,1.85,1.85,0,0,1-1.4-.46c-1.69-1.47-6.75-4.83-14.74-1.38a18.51,18.51,0,0,0-11.47,17.68c.11,2.72,2.24,2.52,3.72,2a2.47,2.47,0,0,1,2.34.51A6,6,0,0,0,569.29,279.37Z" transform="translate(-63.01 -47.64)"/><path class="cls-53" d="M582,302s-1.06-1.18-.66-1.91c.5-.9,5.92-5.18,12.25-5,1,0,2.18,0,3.36,2.6A18.69,18.69,0,0,1,598.4,302Z" transform="translate(-63.01 -47.64)"/><path class="cls-55" d="M610.18,378.51c-.39.1-.8.19-1.24.27a107,107,0,0,1-14.1,1.12c-17.21-.31-24.86-9.59-27.65-14.38a17.32,17.32,0,0,1-1.38-2.81,15.79,15.79,0,0,0,5.72-7.91c1.3-4.27-.06-14.45-2.29-18.33-1.22-2.13-4.84-6.45-7.12-11-1.86-3.75-2.83-7.65-.79-10.63a38.33,38.33,0,0,1,13-11.39s14.65-5.87,27.13-4.54c7.92.83,15,4.56,16.85,14.53C623.21,339.1,610.18,378.51,610.18,378.51Z" transform="translate(-63.01 -47.64)"/><path class="cls-27" d="M574.15,429.34a5.68,5.68,0,0,1-3.09,1.75,5.5,5.5,0,0,1-3.6-.67l-1-2.76,6.61-1.44Z" transform="translate(-63.01 -47.64)"/><path class="cls-27" d="M539.53,432.76A5.65,5.65,0,0,1,536.2,434a5.49,5.49,0,0,1-3.45-1.24l-.5-2.87H539Z" transform="translate(-63.01 -47.64)"/><path class="cls-52" d="M574.15,426.22c-.43.2-1.75.74-2.23.91a61.21,61.21,0,0,1-6,1.56c-5.68-12.28-14.94-43.17-14.94-43.17-1.29-5.46,2.59-7.67,6-7.88a7.13,7.13,0,0,1,3.14.46c3.27,1.38,8.06,10.61,8.06,10.61a57.63,57.63,0,0,1,3,9.79C572.64,405.08,574.15,426.22,574.15,426.22Z" transform="translate(-63.01 -47.64)"/><path class="cls-56" d="M587,379.05c0,3.1-.86,8.06-5.51,9.46-7,2.08-12.08.89-20.13-.5-6.74-1.15-17.39-5.1-20.65-6.34-.43-.16-.35.05-.26.5,1.54,7.52-1,48.19-1,48.19a18.9,18.9,0,0,1-2.29.53,8.88,8.88,0,0,1-1.33.12c-1.75,0-5-.33-5-.33S524.7,402,523.73,386s0-18.5,7.6-21.14c8.46-2.95,34.48-2.16,34.48-2.16h0a24.73,24.73,0,0,0,7.33,9.82A31,31,0,0,0,587,379.05Z" transform="translate(-63.01 -47.64)"/><path class="cls-57" d="M594.85,395.34v41.15a2.66,2.66,0,0,1-2.66,2.66,2.6,2.6,0,0,1-1.57-.52,2.64,2.64,0,0,1-1.09-2.14V395.34Z" transform="translate(-63.01 -47.64)"/><path class="cls-58" d="M594.85,397.13v39.25a2.84,2.84,0,0,1-2.29,2.74,2.63,2.63,0,0,1-1.7-.33c-.08-.16-.18-.34-.27-.5V398.22a1.09,1.09,0,0,1,1.09-1.09Z" transform="translate(-63.01 -47.64)"/><path class="cls-57" d="M598.21,394a2,2,0,0,1-.08.56,2.23,2.23,0,0,1-.59,1.05,2.27,2.27,0,0,1-1.62.68H588a2.3,2.3,0,0,1-2.29-2.29,2.3,2.3,0,0,1,2.29-2.29h7.91A2.28,2.28,0,0,1,598.21,394Z" transform="translate(-63.01 -47.64)"/><path class="cls-58" d="M598.13,394.52a2.23,2.23,0,0,1-.59,1.05,2.27,2.27,0,0,1-1.62.68h-7.57a2.27,2.27,0,0,1,.59-1.06,2.32,2.32,0,0,1,1.63-.67Z" transform="translate(-63.01 -47.64)"/><path class="cls-59" d="M626.39,322.16s0,0,0,.06c0,.24-.08.5-.14.79-.65,2.68-2.92,7.94-3.24,15.82-.22,4.84,0,17.69-.24,25.46h0c0,1.16-.08,2.2-.13,3.09-.42,6.88-2.76,17.07-9.94,22.22-7.29,5.48-22,4.53-30.85,4.33s-31-4.23-32.73-7.5a2.9,2.9,0,0,1-.42-1.9s0,0,0,0a2.29,2.29,0,0,1,.68-1.26,3.43,3.43,0,0,1,3.25-.81c3.6.9,14.29,3,19.11-3.14,5.82-7.39,5.09-15.93,7.59-33.92,2.36-17,7.67-22.25,16.46-25.64,9.39-3.62,24.48-2.07,28.26-.93A3.22,3.22,0,0,1,626.39,322.16Z" transform="translate(-63.01 -47.64)"/><path class="cls-58" d="M623,441.57a1,1,0,0,1-1,1H562.36a1,1,0,0,1-1-1,1,1,0,0,1,.81-1l30-4.86,7.54,1.22,22.44,3.64A1,1,0,0,1,623,441.57Z" transform="translate(-63.01 -47.64)"/><path class="cls-52" d="M532.75,432.76a10.88,10.88,0,0,0,3.43.72,8.15,8.15,0,0,0,3.37-.72s3.47,4.43,1.63,9.36a.67.67,0,0,1-.63.43H517.24a.52.52,0,0,1-.52-.51,1.94,1.94,0,0,1,1.63-1.92c2.16-.66,4.38-1,6-1.61s4.06-3,5.39-3.49A7.26,7.26,0,0,0,532.75,432.76Z" transform="translate(-63.01 -47.64)"/><path class="cls-52" d="M567.45,430.42a10.92,10.92,0,0,0,3.5.16,8.23,8.23,0,0,0,3.22-1.24s4.13,3.82,3.09,9a.66.66,0,0,1-.55.52s-12.3,2.76-16.46,3.35a58.17,58.17,0,0,1-6.55.37.56.56,0,0,1-.6-.44,1.94,1.94,0,0,1,1.31-2.15c2-1,4.15-1.71,5.7-2.55s3.52-3.65,4.77-4.3A7.27,7.27,0,0,0,567.45,430.42Z" transform="translate(-63.01 -47.64)"/><path class="cls-27" d="M520.67,342.81s-2.39-1-3.64-1.43a11.72,11.72,0,0,0-1.35-.39,6.93,6.93,0,0,0-1.64-.18H500.46a.71.71,0,0,1-.7-.72,1.53,1.53,0,0,1,.7-1.3l1.46-.94,4.35-2.82c2.16-1.39,3.73-1.47,6.29-1.25a21.91,21.91,0,0,1,2.67.94c2.55.84,3.1,1.22,4.79,1.82a10.82,10.82,0,0,0,1.42.43,1.45,1.45,0,0,0,.59.06A8.19,8.19,0,0,1,520.67,342.81Z" transform="translate(-63.01 -47.64)"/><path class="cls-55" d="M573.84,310.37c-1.78-1.08-7.16-4.07-14.1,6.75s-9.07,15.43-11.07,18.79c-2.43,1.46-26.88.84-26.88.84a22.13,22.13,0,0,0-1.77,6.06,89.09,89.09,0,0,0,30.22,7.67c13.35,0,27.1-26.08,27.72-29.34S578.09,313,573.84,310.37Z" transform="translate(-63.01 -47.64)"/><path class="cls-52" d="M562.59,287.43a.37.37,0,0,1-.33-.19.36.36,0,0,1,.16-.49l13.52-6.93c1.53-.78,4.66-2.39,7,1a.37.37,0,0,1-.1.51.36.36,0,0,1-.5-.1c-1.82-2.66-4-1.85-6-.8l-13.55,6.94A.32.32,0,0,1,562.59,287.43Z" transform="translate(-63.01 -47.64)"/><path class="cls-27" d="M575.91,280.53l1.78,5.7a1.82,1.82,0,0,0,2.73-.2c1.34-1.54,2.5-6.89.05-7.78S576.53,278.62,575.91,280.53Z" transform="translate(-63.01 -47.64)"/><path class="cls-60" d="M625.85,320.14a.06.06,0,0,1,0,0,3.32,3.32,0,0,0-1.77-1.28c-3.78-1.14-18.87-2.69-28.26.93-8.79,3.39-14.1,8.61-16.46,25.64-2.5,18-1.77,26.53-7.59,33.92-4.82,6.1-15.51,4-19.11,3.14a3.43,3.43,0,0,0-3.25.81,2.34,2.34,0,0,0-.7,1.28,2.9,2.9,0,0,0,.42,1.9c1.77,3.27,23.82,7.28,32.73,7.5s23.56,1.15,30.85-4.33c7.18-5.15,9.52-15.34,9.94-22.22,0-.89.09-1.93.13-3.09-.16.63-5.08,14.52-22.44,11.32-16.71-3.08-18.23-21.42-17.63-27.59.08-.67.15-1.32.23-1.92.15-1.15,1.07-6,2.21-10.21a20.48,20.48,0,0,1,6.57-10.21,10.76,10.76,0,0,1,1.6-1c.16-.1.35-.2.54-.3s.52-.26.82-.4l.87-.38c.21-.09.44-.18.66-.25,13.58-5.38,28.18-1.88,29.14-1.73S625.91,320.39,625.85,320.14Z" transform="translate(-63.01 -47.64)"/><path class="cls-61" d="M255.76,452.18l1.49-4s23.64,1.12,34.85,8.1l-21.33.4Z" transform="translate(-63.01 -47.64)"/><path class="cls-61" d="M328.43,452.18l-1.49-4s-23.64,1.12-34.84,8.1l21.32.4Z" transform="translate(-63.01 -47.64)"/><path class="cls-62" d="M292.1,456.31c-12.81-5-37.56-5.32-37.56-5.32v8.43h75.11V451S304.9,451.33,292.1,456.31Z" transform="translate(-63.01 -47.64)"/><rect class="cls-63" x="188.63" y="409.43" width="80.91" height="2.86"/><path class="cls-58" d="M496.92,151.27l7.12-4.68a9.5,9.5,0,0,0,5.13,1.51h34.34a9.54,9.54,0,0,0,9.54-9.54v-10.8a9.54,9.54,0,0,0-9.54-9.54H509.17a9.54,9.54,0,0,0-9.54,9.54v10.8a9.55,9.55,0,0,0,1.64,5.35ZM509.15,142a.85.85,0,0,1,.85-.85h33a.86.86,0,1,1,0,1.71H510A.85.85,0,0,1,509.15,142Zm33.86-3.6H525.57a.86.86,0,0,1-.85-.86.85.85,0,0,1,.85-.85H543a.86.86,0,1,1,0,1.71ZM509.15,133a.86.86,0,0,1,.85-.86h33a.86.86,0,1,1,0,1.71H510A.85.85,0,0,1,509.15,133ZM543,129.42H518.66a.86.86,0,0,1,0-1.71H543a.86.86,0,1,1,0,1.71Zm-33.86-5.32a.85.85,0,0,1,.85-.85h33a.86.86,0,1,1,0,1.71H510A.86.86,0,0,1,509.15,124.1Z" transform="translate(-63.01 -47.64)"/><line class="cls-64" x1="137.76" y1="190.18" x2="131.76" y2="190.18"/><path class="cls-65" d="M189.83,237.82H151.22a4,4,0,0,0-4,4V394.58a4.08,4.08,0,0,0,.25,1.4" transform="translate(-63.01 -47.64)"/><path class="cls-64" d="M149,397.9a4,4,0,0,0,2.27.7h3.59" transform="translate(-63.01 -47.64)"/><line class="cls-64" x1="486.09" y1="139.04" x2="492.09" y2="139.04"/><path class="cls-66" d="M560,186.68h83.9a7.07,7.07,0,0,1,7.07,7.07V317.58a7.08,7.08,0,0,1-7.07,7.08h-2.36" transform="translate(-63.01 -47.64)"/><line class="cls-64" x1="576.1" y1="277.02" x2="570.1" y2="277.02"/><path class="cls-67" d="M288.87,92.26H346a11.57,11.57,0,0,1,11.56,11.56v54.55" transform="translate(-63.01 -47.64)"/><path class="cls-15" d="M463.53,334.51s-6.64-3.88-8.08-11.5c0,0,6.25,1.29,9.38,11.5" transform="translate(-63.01 -47.64)"/><path class="cls-15" d="M466.14,334.51s6.64-3.88,8.07-11.5c0,0-6.24,1.29-9.38,11.5" transform="translate(-63.01 -47.64)"/><path class="cls-15" d="M464.14,333.89s-4.78-6-3.37-13.64c0,0,5.36,3.46,4.59,14.11" transform="translate(-63.01 -47.64)"/><path class="cls-15" d="M465.68,333.92s4.64-6.13,3.05-13.72c0,0-5.27,3.58-4.25,14.22" transform="translate(-63.01 -47.64)"/><rect class="cls-59" x="394.44" y="285.33" width="14.45" height="12.09"/><rect class="cls-60" x="394.44" y="285.33" width="4.3" height="12.09"/><g class="cls-68"><polyline class="cls-69" points="542.07 212.93 535.53 216.42 538.8 207.92"/><path class="cls-69" d="M625.36,249.7a13.82,13.82,0,1,1-13.82-13.81A13.82,13.82,0,0,1,625.36,249.7Z" transform="translate(-63.01 -47.64)"/></g><polyline class="cls-70" points="542.72 200.75 546.91 205.97 554.35 198.16"/><g class="cls-68"><polyline class="cls-69" points="113.36 258.34 119.9 261.83 116.63 253.33"/><path class="cls-69" d="M156.09,295.11A13.82,13.82,0,1,0,169.9,281.3,13.81,13.81,0,0,0,156.09,295.11Z" transform="translate(-63.01 -47.64)"/></g><polyline class="cls-70" points="101.08 246.16 105.27 251.38 112.71 243.57"/><rect class="cls-15" x="498.21" y="71.25" width="57.21" height="57.9" rx="1.77"/><g class="cls-68"><path class="cls-50" d="M604.71,144.81a16.38,16.38,0,0,1-1.49,6.86,16,16,0,0,1-1.68,2.89,16.38,16.38,0,0,1-1.48,1.74l0,0a15.72,15.72,0,0,1-1.42,1.3,16.38,16.38,0,0,1-2.36,1.61,14.38,14.38,0,0,1-2,1,15.94,15.94,0,0,1-5,1.11c-.33,0-.67,0-1,0a16.52,16.52,0,0,1-3.8-32.6l.15,0a13.7,13.7,0,0,1,1.6-.29,17.22,17.22,0,0,1,2.05-.13A16.51,16.51,0,0,1,602.74,137c.18.34.36.7.52,1.07A16.44,16.44,0,0,1,604.71,144.81Z" transform="translate(-63.01 -47.64)"/><g class="cls-71"><path class="cls-72" d="M592.35,159.44c.12.83-.89,1.32-1.7,1.52-.48.11-1,.23-1.45.33-.33,0-.67,0-1,0a16.42,16.42,0,0,1-10.4-3.69,3.15,3.15,0,0,1,0-.43,7.54,7.54,0,0,1,.36-1.87,9.39,9.39,0,0,0,.22-1.58.8.8,0,0,0-.12-.55,1.12,1.12,0,0,0-.44-.25,2.14,2.14,0,0,1-1.24-2.45c.8-2,3.62-1.33,1.76-6.26-.4-1.05.45-1.32.38-1.62-.16-.65-2.6-.47-3.27-.58a2.27,2.27,0,0,1-1.24-.41,1.68,1.68,0,0,1-.43-.68,9,9,0,0,1-.66-2.78,16.52,16.52,0,0,1,11.48-9.49l.05.54c-.17,1.88-.29,3.75-.36,5.63a2.94,2.94,0,0,1-.14,1,1.74,1.74,0,0,1-1.81.93,1.32,1.32,0,0,0-.79,0c-.38.22-.29.78-.34,1.22-.11.74-.78,1.26-1.23,1.87s-.64,1.63,0,2c.16.09.38.13.47.3s0,.5-.26.65a2.53,2.53,0,0,0-.64.42c-.33.39-.09,1,.28,1.35a10.89,10.89,0,0,1,1.18,1c.4.5.49,1.21.94,1.66,1.08,1.12,3.31-.05,4.41,1.06.57.56.57,1.51,1.07,2.13a5.19,5.19,0,0,0,1.21.91,3.92,3.92,0,0,1,1.63,2.95c.08,1.24-.39,2.69.47,3.6C591.25,158.43,592.24,158.66,592.35,159.44Z" transform="translate(-63.01 -47.64)"/></g><g class="cls-71"><path class="cls-72" d="M602.73,137a5.57,5.57,0,0,0-.83.07.43.43,0,0,0-.28.13c-.12.12-.09.31-.08.47a1.85,1.85,0,0,1-.62,1.45.66.66,0,0,1-.28.16c-.31.05-.52-.31-.63-.61-.31-.79-.61-1.58-.91-2.38a1.37,1.37,0,0,0-.4-.65c-.36-.28-.92-.16-1.31-.41s-.71-1.11-1.25-1-.45.73-.31,1.16.31,1,0,1.27-.94,0-1.22-.39-.5-.88-1-1.05c-.64-.24-1.3.34-1.66.94s-.67,1.29-1.32,1.52a6.17,6.17,0,0,0-1,.26c-.61.34-.59,1.22-.38,1.89a2.77,2.77,0,0,1,.21,2,.51.51,0,0,1-.27.29c-.27.1-.54-.16-.72-.38a24.78,24.78,0,0,1-2.59-4.09,1.7,1.7,0,0,1-.25-.9,3.81,3.81,0,0,1,.19-.57,11,11,0,0,0,.11-2.07c.14-1.17,1.1-2.27.72-3.38a7.48,7.48,0,0,0-.63-1.14,1,1,0,0,1,.07-1.2,17.19,17.19,0,0,1,2-.13A16.49,16.49,0,0,1,602.73,137Z" transform="translate(-63.01 -47.64)"/></g><g class="cls-71"><path class="cls-72" d="M604.71,144.81a16.34,16.34,0,0,1-3.18,9.75h0a.7.7,0,0,1,0-.32,3,3,0,0,1,.22-1.18c.12-.22.29-.41.42-.63a3.29,3.29,0,0,0,.18-1.87,1.54,1.54,0,0,0-.32-1c-.15-.15-.36-.24-.51-.4-.36-.37-.25-1-.17-1.48s0-1.16-.44-1.35a17.22,17.22,0,0,1-1.94,2.24.87.87,0,0,0-1.1-.88,1.25,1.25,0,0,0-.78,1.33c-.48,0-.58-.67-.52-1.14.12-.81.23-1.61.34-2.42-.53-.23-.91.61-1.47.73a.89.89,0,0,1-1-.84,2.6,2.6,0,0,1,.38-1.37c.25-.51.5-1,.74-1.52a3.42,3.42,0,0,1,1.34-1.68,3.74,3.74,0,0,1,2.59.09,2.63,2.63,0,0,0,2.51-.32,2.75,2.75,0,0,0,.6-1.42c.09-.44.22-.95.63-1.13h0A16.25,16.25,0,0,1,604.71,144.81Z" transform="translate(-63.01 -47.64)"/></g><path class="cls-73" d="M600.79,155.51c-.23.27-.48.54-.73.79l0,0a15.72,15.72,0,0,1-1.42,1.3,16.38,16.38,0,0,1-2.36,1.61,14.38,14.38,0,0,1-2,1,15.94,15.94,0,0,1-5,1.11c-.33,0-.67,0-1,0a16.52,16.52,0,0,1-3.8-32.6l.15,0a13.7,13.7,0,0,1,1.6-.29h.08a15.93,15.93,0,0,0-3.84,5.36A15.85,15.85,0,0,0,596.92,156l1,0A15.51,15.51,0,0,0,600.79,155.51Z" transform="translate(-63.01 -47.64)"/><path class="cls-63" d="M608.46,144.74a20.34,20.34,0,0,0-20.33-20.34,1.07,1.07,0,1,0,0,2.13A18.21,18.21,0,1,1,574,156.27a1.06,1.06,0,0,0-1.5-.15,1,1,0,0,0-.38.71,1,1,0,0,0,.23.78A20.28,20.28,0,0,0,586.88,165v3.55h-6.15a1.35,1.35,0,1,0,0,2.69h14.93a1.35,1.35,0,0,0,0-2.69h-6.15V165A20.34,20.34,0,0,0,608.46,144.74Z" transform="translate(-63.01 -47.64)"/></g><path class="cls-50" d="M300,400.92a5.57,5.57,0,1,1-6.24-4.8A5.56,5.56,0,0,1,300,400.92Z" transform="translate(-63.01 -47.64)"/><polyline class="cls-74" points="229.03 354.57 231.48 356.4 233.88 352.1"/><path class="cls-50" d="M315,108a5.57,5.57,0,1,1-7-3.56A5.56,5.56,0,0,1,315,108Z" transform="translate(-63.01 -47.64)"/><polyline class="cls-74" points="244.41 63.05 247.15 64.39 248.7 59.72"/><path class="cls-50" d="M614.46,211.15A8.51,8.51,0,1,1,606.6,202,8.5,8.5,0,0,1,614.46,211.15Z" transform="translate(-63.01 -47.64)"/><polyline class="cls-75" points="539.2 163.01 542.3 166.5 547.21 160.8"/><path class="cls-50" d="M588.34,210.23a2.05,2.05,0,1,1-2.05-2A2,2,0,0,1,588.34,210.23Z" transform="translate(-63.01 -47.64)"/><path class="cls-76" d="M519.39,69.39a2.05,2.05,0,1,1-2-2A2,2,0,0,1,519.39,69.39Z" transform="translate(-63.01 -47.64)"/><path class="cls-50" d="M185.82,256.11a3.27,3.27,0,1,1-3.27-3.27A3.26,3.26,0,0,1,185.82,256.11Z" transform="translate(-63.01 -47.64)"/><path class="cls-76" d="M682.58,289.19a5,5,0,1,1-5-5A5,5,0,0,1,682.58,289.19Z" transform="translate(-63.01 -47.64)"/><path class="cls-76" d="M133,219.77a5,5,0,1,1-5-5A5,5,0,0,1,133,219.77Z" transform="translate(-63.01 -47.64)"/><path class="cls-76" d="M641.29,334.51a3.27,3.27,0,1,1-3.27-3.26A3.26,3.26,0,0,1,641.29,334.51Z" transform="translate(-63.01 -47.64)"/><path class="cls-76" d="M386.25,81.22A3.27,3.27,0,1,1,383,78,3.27,3.27,0,0,1,386.25,81.22Z" transform="translate(-63.01 -47.64)"/><path class="cls-77" d="M447.08,64.82a3.27,3.27,0,1,1-3.27-3.26A3.26,3.26,0,0,1,447.08,64.82Z" transform="translate(-63.01 -47.64)"/><path class="cls-50" d="M124,175.53a.66.66,0,0,1-.66-.65v-4.61a.66.66,0,0,1,.66-.65.65.65,0,0,1,.65.65v4.61A.65.65,0,0,1,124,175.53Z" transform="translate(-63.01 -47.64)"/><path class="cls-50" d="M126.27,173.23h-4.61a.65.65,0,0,1-.65-.65.66.66,0,0,1,.65-.66h4.61a.67.67,0,0,1,.66.66A.66.66,0,0,1,126.27,173.23Z" transform="translate(-63.01 -47.64)"/><g class="cls-8"><path class="cls-50" d="M160.12,59.75a.66.66,0,0,1-.66-.65V54.49a.66.66,0,0,1,.66-.65.65.65,0,0,1,.65.65V59.1A.65.65,0,0,1,160.12,59.75Z" transform="translate(-63.01 -47.64)"/><path class="cls-50" d="M162.42,57.45h-4.61a.66.66,0,0,1-.65-.66.65.65,0,0,1,.65-.65h4.61a.65.65,0,0,1,.65.65A.66.66,0,0,1,162.42,57.45Z" transform="translate(-63.01 -47.64)"/></g><path class="cls-50" d="M543.43,114.89a.66.66,0,0,1-.66-.65v-4.61a.66.66,0,0,1,.66-.65.65.65,0,0,1,.65.65v4.61A.65.65,0,0,1,543.43,114.89Z" transform="translate(-63.01 -47.64)"/><path class="cls-50" d="M545.73,112.59h-4.61a.66.66,0,0,1-.65-.66.65.65,0,0,1,.65-.65h4.61a.65.65,0,0,1,.65.65A.66.66,0,0,1,545.73,112.59Z" transform="translate(-63.01 -47.64)"/><path class="cls-50" d="M685.53,358.1a.65.65,0,0,1-.65-.65v-4.61a.65.65,0,0,1,.65-.65.66.66,0,0,1,.66.65v4.61A.66.66,0,0,1,685.53,358.1Z" transform="translate(-63.01 -47.64)"/><path class="cls-50" d="M687.84,355.8h-4.61a.66.66,0,0,1-.65-.66.65.65,0,0,1,.65-.65h4.61a.65.65,0,0,1,.65.65A.66.66,0,0,1,687.84,355.8Z" transform="translate(-63.01 -47.64)"/><path class="cls-15" d="M531.82,173.83V209a1.08,1.08,0,0,1-1.08,1.08H496a1.07,1.07,0,0,1-1.07-1.08V173.83a1.07,1.07,0,0,1,1.07-1.06h34.75A1.07,1.07,0,0,1,531.82,173.83Z" transform="translate(-63.01 -47.64)"/><path class="cls-50" d="M531.82,202.39V209a1.08,1.08,0,0,1-1.08,1.08H513.5l.74-7.66,8.11-9Z" transform="translate(-63.01 -47.64)"/><path class="cls-78" d="M527,210.05H496a1.07,1.07,0,0,1-1.07-1.08v-6.58l12.14-12.74Z" transform="translate(-63.01 -47.64)"/><path class="cls-50" d="M526.94,182.86a4.28,4.28,0,1,1-4.28-4.28A4.28,4.28,0,0,1,526.94,182.86Z" transform="translate(-63.01 -47.64)"/><rect class="cls-15" x="431.91" y="165.18" width="36.89" height="3.26" rx="0.79"/><rect class="cls-15" x="431.91" y="170.99" width="36.89" height="3.26" rx="0.79"/></g></g></svg>