<svg id="Layer_1" data-name="Layer 1" xmlns="http://www.w3.org/2000/svg" viewBox="0 0 1618.58 1278.46"><defs><style>.cls-1{fill:#fae0b2;}.cls-2{fill:#466eb6;}.cls-3{fill:#355389;}.cls-4{fill:#f48c7f;}.cls-5{fill:#f47458;}.cls-6{fill:#f7cc7f;}.cls-7{fill:#fff;}.cls-8{fill:#13375b;}.cls-9{fill:#96d9c9;}.cls-10{fill:#86b1f2;}.cls-11{fill:#50bfa5;}.cls-12{fill:#f7a491;}.cls-13{fill:#3c8f7c;}.cls-14{fill:#184655;}.cls-15{fill:#b75742;}.cls-16{fill:#f8a492;}</style></defs><title>paid-freelancer</title><path class="cls-1" d="M660.92,1315.68l-16.38-9.29A91.72,91.72,0,0,1,629.15,1325a11.46,11.46,0,0,1-15.67-.22l-.53-.51a11.44,11.44,0,0,1,.3-16.78,66.72,66.72,0,0,0,13.83-16.88c5.57-9.82,5.59-18.7-1.3-22.61-6.55-3.72-13.82-.54-25.37,9.77-16.67,14.93-32.43,22.63-49.15,13.14-15.18-8.6-21-26-14.17-46.54L520.71,1235l9.58-16.9,15.18,8.61a84.1,84.1,0,0,1,11.19-14.45,11.44,11.44,0,0,1,16.09-.18h0a11.45,11.45,0,0,1,0,16.48A60.48,60.48,0,0,0,562,1242.52c-6.36,11.2-3.58,17.56,1.25,20.3,5.69,3.23,12.73-.75,26.56-12.28,18.88-16.41,33-19.31,48.57-10.51,15.35,8.7,22.29,27,14.49,48.78l17.59,10Z" transform="translate(-520.71 -360.77)"/><path class="cls-2" d="M1448.83,1578.62c41.3-55.59,74.48-56.08,74.48-56.08s15-97.67,3-139.21-66.33-5.12-66.33-5.12,72-141.16,42.48-157c-55-29.54-141.69,120.2-141.69,120.2s20.3-65.91-18.61-65.66c-58.67.36-63.75,151.48-63.75,151.48s-11.57-29.77-47.77-12.71c-39,18.37-49.55,129-51.77,214.51h205.55C1413.87,1611,1437.89,1593.34,1448.83,1578.62Z" transform="translate(-520.71 -360.77)"/><path class="cls-3" d="M1368,1329.35s2.42-75.1-36.49-74.85c-58.67.36-53.06,172.71-53.06,172.71s-24.51-48.76-60.71-31.7c-39.73,18.72-44.45,141-42.89,233.5h68.28l259.37-407.82C1447.48,1191.65,1368,1329.35,1368,1329.35Z" transform="translate(-520.71 -360.77)"/><path class="cls-2" d="M1687.5,1624.13s187.31,21.56,232.69,5.67,15.32-41.3,15.32-41.3,96-12.26,105.22-40.82-36.15-28.74-36.15-28.74,96.32-53.14,85.51-73.75c-20.14-38.38-128.22,14-128.22,14s37.31-30,14.85-45c-33.88-22.62-95.59,62.29-95.59,62.29s4.94-21.62-22.51-25.9C1809.37,1442.91,1687.5,1624.13,1687.5,1624.13Z" transform="translate(-520.71 -360.77)"/><path class="cls-3" d="M1858.57,1434.63c27.44,4.28,22.56,41.85,22.56,41.85s63.82-101.27,97.7-78.66c22.46,15-8.14,57.23-8.14,57.23s99.26-48.24,119.4-9.86l-384.65,166.93C1719.56,1590.89,1812.57,1427.47,1858.57,1434.63Z" transform="translate(-520.71 -360.77)"/><path class="cls-2" d="M1686.34,1626.85s170.45-118.59,195-170.73-22.44-47.79-22.44-47.79S1929,1316,1912.35,1284.1s-54.93,6.76-54.93,6.76,35.46-127,8.76-135c-49.73-15-98.38,145.77-98.38,145.77s-18.57-89-50.26-82.35c-47.79,10-.11,141.49-.11,141.49s-14.09-42.84-40.8-23C1628.71,1373.42,1686.34,1626.85,1686.34,1626.85Z" transform="translate(-520.71 -360.77)"/><path class="cls-3" d="M1630,1339.82c30.1-14.24,36.14-44.19,36.14-44.19s.2-74.37,48-84.34c31.69-6.61,53.87,53.14,53.87,53.14s48.45-123.63,98.18-108.61l-180.35,469C1679.54,1595,1594.16,1356.78,1630,1339.82Z" transform="translate(-520.71 -360.77)"/><path class="cls-4" d="M1633.79,1627.22H1290.08a19.85,19.85,0,0,1-19.85-19.85h0a19.85,19.85,0,0,1,19.85-19.84h343.71a19.85,19.85,0,0,1,19.85,19.84h0A19.85,19.85,0,0,1,1633.79,1627.22Z" transform="translate(-520.71 -360.77)"/><path class="cls-5" d="M1693.91,1588.71H1350.2a19.85,19.85,0,0,1-19.85-19.85h0A19.85,19.85,0,0,1,1350.2,1549h343.71a19.85,19.85,0,0,1,19.84,19.85h0A19.85,19.85,0,0,1,1693.91,1588.71Z" transform="translate(-520.71 -360.77)"/><path class="cls-4" d="M1645.81,1552.22H1302.1a19.85,19.85,0,0,1-19.84-19.85h0a19.84,19.84,0,0,1,19.84-19.84h343.71a19.85,19.85,0,0,1,19.85,19.84h0A19.85,19.85,0,0,1,1645.81,1552.22Z" transform="translate(-520.71 -360.77)"/><path class="cls-5" d="M1605.74,1512.69H1262a19.85,19.85,0,0,1-19.85-19.84h0A19.85,19.85,0,0,1,1262,1473h343.71a19.85,19.85,0,0,1,19.84,19.85h0A19.84,19.84,0,0,1,1605.74,1512.69Z" transform="translate(-520.71 -360.77)"/><circle class="cls-1" cx="1156.64" cy="1106.14" r="171.85"/><circle class="cls-6" cx="1677.35" cy="1466.91" r="144.21" transform="translate(-1066.69 1254.95) rotate(-45)"/><path class="cls-7" d="M1632.71,1559.5l8.21-22.63a116.61,116.61,0,0,1-26.69-15.43,14.66,14.66,0,0,1-3.07-19.8l.52-.77a14.63,14.63,0,0,1,21.22-3.21,85.31,85.31,0,0,0,24.23,13.82c13.58,4.93,24.77,3,28.23-6.48,3.28-9-2.27-17.53-17.74-29.88-22.38-17.82-35.46-36-27.08-59.14,7.6-21,28.33-32,55.64-27.81l8.2-22.63,23.35,8.46-7.6,21a108.15,108.15,0,0,1,20.6,11,14.63,14.63,0,0,1,3.67,20.25h0a14.64,14.64,0,0,1-20.76,3.56,77.64,77.64,0,0,0-19.86-10.56c-15.48-5.61-22.9-.76-25.32,5.91-2.85,7.86,3.67,15.89,21.16,30.86,24.72,20.28,31.41,37.53,23.63,59-7.69,21.2-29.26,33.87-58.38,28.7l-8.81,24.3Z" transform="translate(-520.71 -360.77)"/><path class="cls-3" d="M1057.59,1620.24s-267-131.68-313-200.35,21.58-72.57,21.58-72.57-119.17-115.9-102.4-164.7,79.33-2.16,79.33-2.16S665.66,1008,701.79,990.86c67.3-31.94,161.71,151.59,161.71,151.59s-20.29-79.73,26-77.14c69.89,3.91,67,184.26,67,184.26s7.9-69.15,50-46.69C1082.15,1243.18,1057.59,1620.24,1057.59,1620.24Z" transform="translate(-520.71 -360.77)"/><path class="cls-2" d="M1021.78,1175c-32.9-18.25-65.66,35.1-65.66,35.1s3.32-140.86-66.57-144.77c-46.34-2.59-26,77.14-26,77.14S769.09,958.92,701.79,990.86l356.1,626.45C1060.41,1573.56,1086.94,1211.14,1021.78,1175Z" transform="translate(-520.71 -360.77)"/><path class="cls-3" d="M1050.68,1621.87s-218.41,27.13-275,3-16-54-16-54-121.43-23.87-130.8-61.12,48.6-33.59,48.6-33.59S559.11,1400,574.68,1374.62c29-47.27,162.46,28.84,162.46,28.84s-45-41.48-15.09-58.7c45.18-26,116.66,87.71,116.66,87.71s-4.44-28,31-31.12C933.19,1395.77,1050.68,1621.87,1050.68,1621.87Z" transform="translate(-520.71 -360.77)"/><path class="cls-2" d="M871.1,1381c-35.4,3.1-32.39,51.48-32.39,51.48s-72.78-134.74-118-108.78c-30,17.22,5.49,73.76,5.49,73.76s-122.56-70.1-151.56-22.83l476.67,246C1035.14,1592.35,930.43,1375.78,871.1,1381Z" transform="translate(-520.71 -360.77)"/><path class="cls-8" d="M596.27,1633.09h0a6.14,6.14,0,0,0,6.14,6.14H2133.15a6.14,6.14,0,0,0,6.14-6.14h0a6.14,6.14,0,0,0-6.14-6.14H602.41A6.14,6.14,0,0,0,596.27,1633.09Z" transform="translate(-520.71 -360.77)"/><polygon class="cls-2" points="1146.96 204.38 1139.18 223.79 1106.56 214.72 1091.67 241.69 1066.16 238.89 1064.74 251.8 1098.87 255.56 1112.97 229.99 1146.9 239.44 1158.62 210.23 1146.96 204.38"/><path class="cls-9" d="M1783.67,1085.1l8-19.89a104,104,0,0,1-23.27-14.57,13.05,13.05,0,0,1-2.12-17.73l.49-.67a13,13,0,0,1,19-2.19,76.14,76.14,0,0,0,21.14,13.06c11.94,4.81,22,3.5,25.33-4.88,3.21-8-1.47-15.68-14.85-27.16-19.37-16.57-30.44-33.2-22.25-53.51,7.43-18.43,26.23-27.64,50.41-23l8-19.9,20.52,8.27-7.42,18.43a96.33,96.33,0,0,1,18,10.46,13,13,0,0,1,2.62,18.14h0a13,13,0,0,1-18.59,2.51,69.48,69.48,0,0,0-17.35-10c-13.61-5.48-20.37-1.39-22.73,4.47-2.78,6.91,2.77,14.26,17.87,28.14,21.38,18.83,26.79,34.4,19.19,53.24-7.51,18.64-27.11,29.24-52.88,23.72l-8.61,21.36Z" transform="translate(-520.71 -360.77)"/><path class="cls-1" d="M1343.2,1627H939.49a29.12,29.12,0,0,1-29.12-29.12h0a29.11,29.11,0,0,1,29.12-29.12H1343.2a29.12,29.12,0,0,1,29.13,29.12h0A29.13,29.13,0,0,1,1343.2,1627Z" transform="translate(-520.71 -360.77)"/><path class="cls-6" d="M1403.88,1569.34H1023.83a29.13,29.13,0,0,1-29.13-29.12h0a29.13,29.13,0,0,1,29.13-29.13h380.05a29.12,29.12,0,0,1,29.12,29.13h0A29.12,29.12,0,0,1,1403.88,1569.34Z" transform="translate(-520.71 -360.77)"/><rect class="cls-1" x="437.02" y="1092.03" width="420.47" height="58.27" rx="28.46"/><rect class="cls-6" x="435.44" y="1033.95" width="421.19" height="58.25" rx="27.97"/><path class="cls-1" d="M1361.41,1398.15H992.81A29.13,29.13,0,0,1,963.68,1369h0a29.13,29.13,0,0,1,29.13-29.12h368.6a29.12,29.12,0,0,1,29.12,29.12h0A29.13,29.13,0,0,1,1361.41,1398.15Z" transform="translate(-520.71 -360.77)"/><path class="cls-6" d="M1345.5,1340.63H976.9a29.11,29.11,0,0,1-29.12-29.12h0a29.12,29.12,0,0,1,29.12-29.12h368.6a29.12,29.12,0,0,1,29.12,29.12h0A29.12,29.12,0,0,1,1345.5,1340.63Z" transform="translate(-520.71 -360.77)"/><rect class="cls-6" x="461.64" y="809.1" width="410.16" height="58.25" rx="28.55"/><rect class="cls-1" x="507.68" y="865.1" width="395.24" height="58.25" rx="28.02"/><circle class="cls-4" cx="887.17" cy="1464.36" r="171" transform="translate(-1296.32 695.45) rotate(-45)"/><path class="cls-6" d="M984.45,1358.88a143.49,143.49,0,1,1-202.76,8.2A143.48,143.48,0,0,1,984.45,1358.88Z" transform="translate(-520.71 -360.77)"/><path class="cls-7" d="M981.28,1509.17a11.39,11.39,0,0,1-.55,14.47,112.14,112.14,0,0,1-33.32,24.8c-21.34,10.48-45.86,13.68-69,5.78-14.46-4.94-28.25-15-38.62-28.8l-12.61,6.19a8.66,8.66,0,0,1-11.58-3.95l-.16-.33a8.65,8.65,0,0,1,4-11.57l10.35-5.08c-2.08-3.4-3.51-5.5-4.46-7.44a85.58,85.58,0,0,1-4.59-11.8L810,1496.68a8.67,8.67,0,0,1-11.58-4h0a8.66,8.66,0,0,1,4-11.58l12.93-6.35c-3.74-16.62-3.14-33.38,1.8-47.84,8.4-24.6,26.9-43.31,49.22-54.27a97.5,97.5,0,0,1,32.95-9.94,11.66,11.66,0,0,1,12.8,9.92l0,.19a11.7,11.7,0,0,1-10,13.24,83.66,83.66,0,0,0-25.58,8.09c-14.23,7-26.24,18.51-32.16,35.06a51.9,51.9,0,0,0-.88,31.74l72.78-35.73a8.65,8.65,0,0,1,11.57,4h0a8.65,8.65,0,0,1-4,11.57l-76,37.32c1.42,3.72,2.84,7.43,4,9.7,1.43,2.91,2.85,5.82,5.08,9.54L933.07,1460a8.83,8.83,0,0,1,11.82,4h0a8.83,8.83,0,0,1-4,11.82l-72.93,35.8A54.94,54.94,0,0,0,892,1528.7c17.2,5.6,32.36,3.78,48.53-4.16a95.06,95.06,0,0,0,23.82-16.68,11.4,11.4,0,0,1,17,1.31Z" transform="translate(-520.71 -360.77)"/><path class="cls-10" d="M981.26,1005.48a9,9,0,0,1-1.55,11.38,89,89,0,0,1-28.21,17c-17.66,6.62-37.26,7.26-54.93-.76-11-5-21.14-14-28.27-25.71l-10.44,3.91a6.86,6.86,0,0,1-8.83-4l-.1-.27a6.86,6.86,0,0,1,4-8.83L861.5,995c-1.37-2.85-2.34-4.62-2.94-6.22a66.9,66.9,0,0,1-2.71-9.67L847,982.42a6.87,6.87,0,0,1-8.84-4h0a6.86,6.86,0,0,1,4-8.83l10.7-4c-1.68-13.41.09-26.59,5.11-37.63,8.52-18.77,24.57-32.12,43-39a77.5,77.5,0,0,1,26.77-5.31,9.25,9.25,0,0,1,9.34,8.82v.15a9.27,9.27,0,0,1-8.94,9.68,66.56,66.56,0,0,0-20.82,4.42c-11.78,4.42-22.14,12.58-28.09,25.2a41.09,41.09,0,0,0-3.14,25l60.21-22.6a6.86,6.86,0,0,1,8.83,4h0a6.86,6.86,0,0,1-4,8.83l-62.89,23.6c.84,3.05,1.68,6.09,2.38,8,.9,2.41,1.81,4.82,3.28,7.93l63-23.65a7,7,0,0,1,9,4.09h0a7,7,0,0,1-4.09,9l-60.34,22.65A43.49,43.49,0,0,0,909.25,1014c13.14,5.75,25.25,5.48,38.63.45A75.55,75.55,0,0,0,968,1003.15a9,9,0,0,1,13.29,2.33Z" transform="translate(-520.71 -360.77)"/><path class="cls-6" d="M1540.05,804.25l19.21-9.72,18.91,10.31a3,3,0,0,0,4.34-3.05l-3.32-21.28,15.65-14.79a3,3,0,0,0-1.56-5.07L1572,757.23l-9.23-19.46a3,3,0,0,0-5.3-.08l-9.83,19.16-21.35,2.77a3,3,0,0,0-1.72,5l15.18,15.27-4,21.16A3,3,0,0,0,1540.05,804.25Z" transform="translate(-520.71 -360.77)"/><polygon class="cls-11" points="633.77 53.02 613.91 55.03 607.14 23.44 577.75 22.81 568.82 0 557.27 4.52 569.22 35.03 597.07 35.63 604.11 68.49 633.99 65.46 633.77 53.02"/><path class="cls-1" d="M1562.43,887.13l21.24,7s33.68-10.91,37-17.77,4.25-23.52,9-24,14.06,1.11,16.26,12.51c1.6,8.27-10.51,32.18-8.62,34.73,1.18,1.59,13.28,6,22.16,9a16.55,16.55,0,0,1,11,13.36h0a9.12,9.12,0,0,1-5.69,9.8l-6.11,2.36,1.95,6.31a9.11,9.11,0,0,1-5.76,11.3l-4.73,1.59,1.51,3.84a9.1,9.1,0,0,1-5.88,12l-4.13,1.2.17,1.11a9.1,9.1,0,0,1-6.63,10.18l-4.1,1.07-56.57-18.67a40.23,40.23,0,0,1-14.34-8.32l-18.79-9.92a4.67,4.67,0,0,1-2.18-5.67l17.42-50.16A4.64,4.64,0,0,1,1562.43,887.13Z" transform="translate(-520.71 -360.77)"/><path class="cls-6" d="M881.41,818.67c-.28-.78-6.93-12.15-15.52-24.51-39.94-57.55-99.18-113-168.64-110.94l0-.42c31.41-3.44,62.18,4.92,89.19,19.83,44.57,24,88,69.8,111.74,105Z" transform="translate(-520.71 -360.77)"/><path class="cls-12" d="M1338.23,746.87s2-4.12,1.92-13.63c-.15-11.77-2.51-29.53-3-31.1-.85-2.84,37.2-14.76,37.2-14.76s61.05-3.13,70.14-9.94,16.73-9.63,12.49-2.56c-7.67,12.78-25.56,31.52-29.53,34.08s-51.4,14.48-52.25,14.48-.57,29.81-.57,29.81Z" transform="translate(-520.71 -360.77)"/><path class="cls-13" d="M1377.84,734.16s-39.53-6.72-40.25-2.77c-16,87.46-18.68,116.37-20.44,117.28-6,3.09-92.06-72.42-106.28-77.36-6.8-2.37-14.2-2-21.29-1.76-16.92.5-11.21.09-20.13.53v0l-.76,0,.09,15.91c19.06,17.15,62.69,276.85,66.36,276.67,4.11-.19,90.33,21.51,88.81,14.25-.25-1.18-58.46-48.82-75-117.57-5.55-23.07-8.28-47.92-11.29-69.67,19.16,9.6,94,46.43,105.85,41.56C1380.45,916.17,1377.84,734.16,1377.84,734.16Z" transform="translate(-520.71 -360.77)"/><path class="cls-12" d="M1526.34,1195.27s80.22,62.84,82.9,74c3.85,16,77.31-5,59.6-8.31-4.08-.75-17.12-4.06-18.19-4.64-5.74-3.06-77.12-89.08-77.12-89.08Z" transform="translate(-520.71 -360.77)"/><path class="cls-14" d="M1703.29,1260.94l-51.22-4.18s-14.64,12.12-42.78,12.69a65.55,65.55,0,0,0-2.36,27.88c.37,2.59.8,10.42,3.41,10.25,9.47-.65,34.68-6.92,63.41-12.67,0,0,38.61-8.17,60.91-21.51S1703.29,1260.94,1703.29,1260.94Z" transform="translate(-520.71 -360.77)"/><path class="cls-15" d="M1166.88,1037.64s58.75,9.87,123.72-5.33c75.18-17.59,158.32-33.85,182.67-19.69,19.61,11.4,142,196.4,142,196.4l-47.28,34.5-134.81-151s-172,63.46-210.62,56.42C1134.63,1133,1133.38,1062.72,1166.88,1037.64Z" transform="translate(-520.71 -360.77)"/><polygon class="cls-15" points="710.39 639.53 769.18 709.39 660.13 742.61 646.17 676.87 710.39 639.53"/><path class="cls-12" d="M1350.56,1319.39s-3.57,97-5.79,113.46,41.18,65.63,35.64,48.49c-1.28-3.94-4.56-17-4.57-18.21,0-6.5,16.09-117.19,16.09-117.19Z" transform="translate(-520.71 -360.77)"/><path class="cls-14" d="M1396.77,1511.65l-20.66-47.05s-17.62-7.12-31.49-31.61a65.63,65.63,0,0,0-25.65,11.17c-2.1,1.55-16.45,12-15.45,14.47,3.68,8.91,23.21,28,44.58,48.84,0,0,30.28,24.42,52.62,37.71S1396.77,1511.65,1396.77,1511.65Z" transform="translate(-520.71 -360.77)"/><path class="cls-5" d="M1445.78,1128.09c-20.54-27.39-186.34-53.41-186.34-53.41l-46.22-88.86-102.23,63s10.22,81.35,17.89,103.08c10.22,29,78.92,30.44,120.88,30,38.61-.39,109.13,7.48,109.13,7.48L1335,1399.85s46.88,10.67,60.06,8.94C1396.59,1408.6,1471.34,1162.17,1445.78,1128.09Z" transform="translate(-520.71 -360.77)"/><path class="cls-7" d="M1169.27,770.29l-57.68,3.16s-1.32.47-1.72.54c-4.7.87-.43,169,3.76,231.73s12.69,89.15,12.69,89.15,78.23-13.89,102.23-23.21c10-3.87,34.08-34,34.08-34s-24.64-33.12-37.05-86.92c-9.57-41.49-21.37-115-28.12-130.39C1181.94,785.08,1169.27,770.29,1169.27,770.29Z" transform="translate(-520.71 -360.77)"/><path class="cls-12" d="M1113.24,722.59l-1.64,50.92s37.34,64.34,56.5,55.37c16.09-7.52,1.81-56.46,1.81-56.46s-2.78-11.22-6.65-24.11c-2.7-9-4.94-18.76-4.77-25.92C1158.89,705,1113.24,722.59,1113.24,722.59Z" transform="translate(-520.71 -360.77)"/><path class="cls-14" d="M1157.84,606.44s19,28.69,20.45,52.82-3.69,40.61-3.69,40.61l-61.06-73Z" transform="translate(-520.71 -360.77)"/><path class="cls-4" d="M1184.61,654.32c.86,8.45-2.43,15.71-7.34,16.21s-9.59-5.94-10.45-14.39,2.42-15.71,7.34-16.21S1183.75,645.87,1184.61,654.32Z" transform="translate(-520.71 -360.77)"/><path class="cls-12" d="M1093.79,638.58c-1.4-.3-1.26,70,19.1,86.5s55.81,18,66.16,1.33c11.45-18.42.56-92.46-29.73-108.18S1093.79,638.58,1093.79,638.58Z" transform="translate(-520.71 -360.77)"/><path class="cls-14" d="M1088.63,595c-15.55,13.64-23.08,23.59-33.6,47.83-12.93,29.79,12.73,60.67,34.25,72.93s23.34,27.33,23.34,27.33l.85-9.37c.93-7.27-1.28-11.43-3.33-15.83-1.84-3.91-7.72-17.33-10-20.87-6.06-9.34-7.25-11.36-4.26-20.23,2.3-6.84-.37-21.9,3.19-33.16l29-6.24s18.12-4.36,27.27-14.92C1181.58,592.16,1129.63,558.35,1088.63,595Z" transform="translate(-520.71 -360.77)"/><path class="cls-12" d="M1102.76,684.48c3.56,7.72,2.82,15.65-1.66,17.72s-11-2.49-14.57-10.2-2.83-15.64,1.65-17.72S1099.19,676.78,1102.76,684.48Z" transform="translate(-520.71 -360.77)"/><path class="cls-6" d="M712.66,709.66,708,677.29l24-22.21a4.5,4.5,0,0,0-2.29-7.73l-32.24-5.53-13.71-29.69a4.49,4.49,0,0,0-8.06-.21l-15.22,28.94L628,644.73a4.5,4.5,0,0,0-2.69,7.6l22.83,23.43-6.36,32.08a4.5,4.5,0,0,0,6.4,4.9l29.33-14.47,28.55,16A4.49,4.49,0,0,0,712.66,709.66Z" transform="translate(-520.71 -360.77)"/><path class="cls-16" d="M905.39,490.67c3.29,13.53,9.23,34.9,9.23,34.9-.47,5.88-2.21,30.33-4.27,60.3l44-17.63s-.52-48.83,1.44-51.82c1.66-2.53,4.46.62,18-18.7,3.9-5.58,4.63-15.54,4.63-15.54s.8-12.27-1.95-13.41-5.92.69-6.91,2.81-.75,7.05-1.74,9.17-7.37,4.68-10.06,4.54.34-36.28.34-36.28,1.5-10.25,2.26-13.6c.64-2.87,3.25-11.25,3.25-11.25s3-12.17-.72-13.1c-2.23-.55-7.91,9.34-11.8,19.83-4.18,11.3-6.56,23.28-7.76,23.12-2.81-.38-1.32-20.2-1.32-20.2s2.8-9.08,2.73-13.36c2.65-5.25,4.41-15-.25-15.8-.87-.15-7,12.23-7,12.23s-2.41,8.71-3.82,12.78c-2.48,7.18-2.86,18.52-4.15,23.52-1.08,4.16-2,2.45-2.5,2.62s.26-5.6,1-13.49c.34-4-.11-8.55,1-13.08a94.08,94.08,0,0,0,1.88-13.8c.76-10.25-5.7-9.2-7.93.17-.85,3.57-1.74,7.47-2.63,11.42-3.47,15.37-3.37,30.17-5,30.3-2.15.16-.73-26.8-.73-26.8s-3.31-14.92-6.58-1.07a120.62,120.62,0,0,0-3.36,29.75C904.94,463.12,902.1,477.15,905.39,490.67Z" transform="translate(-520.71 -360.77)"/><path class="cls-13" d="M1111.52,773.54s-57.1-2.69-71.85-9.36c-9-4-82.42-63.25-82.42-63.25l.82-158.52-51.67-3.93s-26.79,175.21-17.51,194.39c9.58,19.81,117.13,101.34,138.64,136.72,12.39,20.39,38.23,297.6,42.14,300.1,27.83,14.48,113.76,29,111.74,20.16C1125.47,947.06,1111.52,773.54,1111.52,773.54Z" transform="translate(-520.71 -360.77)"/><circle class="cls-1" cx="846.13" cy="172.03" r="171.85"/><circle class="cls-6" cx="1366.84" cy="532.81" r="144.21" transform="translate(-497.12 761.79) rotate(-45)"/><path class="cls-7" d="M1322.2,625.4l8.2-22.64a116.94,116.94,0,0,1-26.68-15.42,14.67,14.67,0,0,1-3.07-19.81l.52-.76a14.63,14.63,0,0,1,21.22-3.22,85.33,85.33,0,0,0,24.23,13.83c13.58,4.92,24.77,3,28.22-6.48,3.29-9-2.26-17.54-17.73-29.89-22.38-17.81-35.46-36-27.08-59.14,7.6-21,28.33-32.05,55.64-27.81l8.2-22.63,23.35,8.47-7.6,21a108.13,108.13,0,0,1,20.6,11,14.62,14.62,0,0,1,3.67,20.24h0a14.63,14.63,0,0,1-20.76,3.56,78,78,0,0,0-19.86-10.56c-15.48-5.61-22.9-.75-25.32,5.92-2.85,7.86,3.67,15.88,21.16,30.85,24.72,20.28,31.41,37.53,23.63,59-7.69,21.21-29.26,33.87-58.38,28.7l-8.81,24.3Z" transform="translate(-520.71 -360.77)"/><path class="cls-12" d="M1362.44,705.55s15.9-6.82,20.16-8.24,17.89-4,17.89-4,21.16-21.73,26.55-22.29-12.35,23.71-12.35,23.71l-7.38,7.1s11.92-10.23,14.19-11.65,20.17-27.26,24.71-25.55-7.67,19.88-13.63,29.53-33.23,15.62-33.23,15.62Z" transform="translate(-520.71 -360.77)"/><path class="cls-6" d="M1552.49,775.7c0,4.26-96.6,5.44-116.62,91.07L1423,862.54c28.68-87,124.3-83.55,129-86.75.06,0,.09-.09.08-.09Z" transform="translate(-520.71 -360.77)"/><path class="cls-6" d="M1958.84,1326.6l3.32-11.42c17.56-3.32,32.67-15.27,37.65-32.4a101.51,101.51,0,0,0,3.51-16.32l-23.53-6.83,4.19-14.39,21.24,6.17c.85-7.18,2.06-16.49,4.65-25.39,7.84-27,31.44-39.16,56.79-31.79a60.59,60.59,0,0,1,17,7.62,8.34,8.34,0,0,1,2.27,11.46h0a8.38,8.38,0,0,1-11.45,2.53,50.71,50.71,0,0,0-12.5-5.4c-17.81-5.17-28.7,5-33.42,21.25-2.85,9.82-3.61,17.53-4.36,25.23l32.89,9.56-4.19,14.39-31-9c-1.84,8.88-3.91,17.69-8.35,25.31a49.63,49.63,0,0,1-22.93,20.09l-.13.45,60,17.45a8.36,8.36,0,0,1,5.7,10.37l-.18.6a8.36,8.36,0,0,1-10.37,5.7Z" transform="translate(-520.71 -360.77)"/></svg>