<svg xmlns="http://www.w3.org/2000/svg" viewBox="0 0 299.65 249.08"><defs><style>.cls-1{isolation:isolate;}.cls-2{fill:#01c7e2;}.cls-3{fill:#110239;}.cls-4{fill:#fefefe;}.cls-5{fill:#d0d1de;}.cls-6{fill:#b1b3c8;opacity:0.32;mix-blend-mode:multiply;}.cls-7{fill:#e45940;}.cls-8{fill:#fd425f;}.cls-9{fill:#e01f41;}.cls-10{fill:#f88667;}</style></defs><title>time-emails</title><g class="cls-1"><g id="Layer_1" data-name="Layer 1"><circle class="cls-2" cx="96.3" cy="112.55" r="96.3"/><circle class="cls-3" cx="305.56" cy="289.55" r="82.15" transform="translate(-255.16 344.24) rotate(-76.85)"/><rect class="cls-4" x="94.76" y="45.49" width="3.23" height="69.13" rx="1.6"/><path class="cls-4" d="M307.06,290.89l0,0a1.59,1.59,0,0,1-2.16.65l-39.08-21a1.59,1.59,0,0,1-.65-2.16v0a1.6,1.6,0,0,1,2.17-.65l39.08,21A1.6,1.6,0,0,1,307.06,290.89Z" transform="translate(-209.26 -177)"/><rect class="cls-5" x="124.32" y="115.95" width="175.33" height="108.52"/><polygon class="cls-3" points="211.99 175.02 299.65 120.76 299.65 115.95 124.32 115.95 124.32 120.76 211.99 175.02"/><polygon class="cls-5" points="211.99 170.21 124.32 115.95 299.65 115.95 211.99 170.21"/><polygon class="cls-6" points="124.32 224.48 277.82 224.48 277.82 137.78 277.82 132.97 277.82 132.97 124.32 132.97 124.32 224.48"/><rect class="cls-5" x="94.03" y="140.55" width="175.33" height="108.52"/><polygon class="cls-3" points="181.69 199.63 269.36 145.36 269.36 140.56 94.03 140.56 94.03 145.37 181.69 199.63"/><polygon class="cls-5" points="181.69 194.82 94.03 140.56 269.36 140.56 181.69 194.82"/><path class="cls-7" d="M429.56,197.66l6.28-.44,6.29-.44s3,17,6.43,18.79c0,0,5.47,19.94-9.94,21-18.66,1.31-12.8-19.43-12.8-19.43C429,214.91,429.56,197.66,429.56,197.66Z" transform="translate(-209.26 -177)"/><path class="cls-8" d="M466.38,293l6.81-37c-.95-16.68-3.22-33.13-3.22-33.13-8.74-5-21.41-7.35-21.41-7.35l-.11.09a19.31,19.31,0,0,1-22.49,1.6l-.14-.09s-13.38,4.15-21.33,10.33a86.66,86.66,0,0,0,1,21.06,192.81,192.81,0,0,0,7,28.33l5.4,16.12Z" transform="translate(-209.26 -177)"/><path class="cls-9" d="M466.38,293l6.81-37c-.2-3.48-.24-6.88-.19-10.1-9.64,14.5-21,28.69-39.26,24.06-11.28-2.86-18.9-16.66-27.12-23.78-.6-.53-1.19-1-1.78-1.52.28,1.46.56,3,.82,4.57a181,181,0,0,0,6.9,27.68L417.93,293Z" transform="translate(-209.26 -177)"/><path class="cls-10" d="M419.74,201.72c1.6-2.12,3.91.78,3.91.78s-3.67-11.12-1.15-16.29,12-3.21,12-3.21,9.14-3.26,12.36,1.5S448,200.78,448,200.78s1.87-3.2,3.75-1.32-2.37,7.26-3.37,7.94c0,0-5.83,13-11.22,13.39s-13-11.68-13-11.68C423.11,208.57,418.14,203.85,419.74,201.72Z" transform="translate(-209.26 -177)"/><path class="cls-3" d="M437.18,187.32s7.14.75,8.19,4.48a15,15,0,0,1,0,5.67c-.12,1-.43,6.18-.17,6.29a1.1,1.1,0,0,0,.91-.23,12.89,12.89,0,0,0,2.18-3c1.2-2.06,3.15-1.87,3.79-.67,0,0,.26-18.69-7.56-18.79S437.18,187.32,437.18,187.32Z" transform="translate(-209.26 -177)"/><path class="cls-3" d="M432.59,187.65s-7,1.73-7.48,5.58a15,15,0,0,0,.78,5.62c.24,1,1.28,6.05,1,6.19A1.08,1.08,0,0,1,426,205a12.76,12.76,0,0,1-2.58-2.71c-1.48-1.87-3.38-1.4-3.85-.12,0,0-2.88-18.47,4.85-19.67S432.59,187.65,432.59,187.65Z" transform="translate(-209.26 -177)"/><path class="cls-10" d="M453.4,325c-.57,1.06-3.21,2.53-2.44,4.09.38.78,2.77-.61,3.32-1.21.77-.85,6.25-8,7.19-10.1.74-1.65,1.44-3.27,2.24-4.77a24.55,24.55,0,0,1-4.54-4.29c-2.57.93-5.34,2.3-7.87,3.18-1.35.46-2.82.74-4.19,1.13-.87.24-2.7.55-2.87,1.67s1.65,1,2.37.93c1-.13,3-.95,3.64.28.91,1.8-2.45,3.52-3.62,4.6s-5,4-2.36,4.51c.56.1,4.62-2.84,5.25-3.23-.14.15-2.76,2.3-2.9,2.45-.69.8-2.66,2.41-2.19,3.33,1,2,5.42-2.63,6.08-3.23l-1.68,1.81c-1.42,1.36-2.33,2.54-1.28,3.09C448.88,329.9,452.09,326.1,453.4,325Z" transform="translate(-209.26 -177)"/><path class="cls-8" d="M454.08,309.74l8.8,6.69s30.63-32.8,28.39-45.74c-3.67-21.26-14.52-45.51-21-47.58-2.67-.86-5.72,10-2.17,25.34,0,0,6.31,22.6,5.91,25S454.08,309.74,454.08,309.74Z" transform="translate(-209.26 -177)"/><path class="cls-10" d="M420.86,343c.49,1.1,3,2.78,2.11,4.27-.45.75-2.72-.83-3.22-1.48-.7-.91-5.57-8.47-6.34-10.65-.6-1.71-1.16-3.37-1.83-4.94a24.83,24.83,0,0,0,4.87-3.9c2.49,1.14,5.13,2.74,7.58,3.81,1.31.58,2.76,1,4.09,1.47.84.32,2.64.77,2.72,1.9s-1.72.88-2.44.73c-1-.2-2.92-1.19-3.65,0-1.05,1.72,2.15,3.71,3.23,4.88s4.66,4.42,2,4.69c-.56.06-4.36-3.21-5-3.65.12.16,2.56,2.52,2.68,2.68.63.85,2.46,2.62,1.92,3.5-1.17,1.87-5.19-3.07-5.8-3.73,0,0,1.53,2,1.52,2,1.31,1.48,2.12,2.72,1,3.19C425,348.25,422.07,344.2,420.86,343Z" transform="translate(-209.26 -177)"/><path class="cls-8" d="M420.32,327.85,412,333.39S383.26,298,386.11,285.14c4.67-21.05,12.63-53.24,19.07-58.17,2.23-1.71,9.37,11.79,8.85,20.22,0,0-10.65,42-10.37,44.42S420.32,327.85,420.32,327.85Z" transform="translate(-209.26 -177)"/><path class="cls-3" d="M447.28,183.26a5.28,5.28,0,0,0-3.09-4.62,17.63,17.63,0,0,0-14.84,0c-5.12,2.56-6.67,3.14-8.17,2.28s-.55-1.7-.55-1.7-3.35,0-3.19,5.17,6.56,11.66,14.92,11.66C445.12,196.05,449.25,187.13,447.28,183.26Z" transform="translate(-209.26 -177)"/></g></g></svg>