<svg xmlns="http://www.w3.org/2000/svg" xmlns:xlink="http://www.w3.org/1999/xlink" viewBox="0 0 2897.18 2913.91"><defs><style>.cls-1{fill:none;}.cls-2{isolation:isolate;}.cls-3{fill:#f4f7fa;}.cls-4{fill:url(#linear-gradient);}.cls-5{clip-path:url(#clip-path);}.cls-6{fill:#fcfdfe;}.cls-7{clip-path:url(#clip-path-2);}.cls-8{fill:url(#linear-gradient-2);}.cls-9{fill:url(#linear-gradient-3);}.cls-10{fill:url(#linear-gradient-4);}.cls-11{fill:#d8dee8;opacity:0.5;}.cls-12{fill:#bfc8d6;}.cls-13{fill:url(#linear-gradient-5);}.cls-14{fill:url(#linear-gradient-6);}.cls-15{fill:url(#linear-gradient-7);}.cls-16{fill:url(#linear-gradient-8);}.cls-17{fill:url(#linear-gradient-9);}.cls-18,.cls-43{fill:#fff;}.cls-18{mix-blend-mode:soft-light;}.cls-19{fill:url(#linear-gradient-10);}.cls-20{fill:url(#linear-gradient-11);}.cls-21,.cls-30,.cls-35,.cls-44{opacity:0.3;}.cls-21,.cls-30,.cls-35,.cls-38,.cls-44{mix-blend-mode:multiply;}.cls-21{fill:url(#linear-gradient-12);}.cls-22{fill:url(#linear-gradient-13);}.cls-23{fill:url(#linear-gradient-14);}.cls-24{fill:url(#linear-gradient-15);}.cls-25{fill:url(#linear-gradient-16);}.cls-26{fill:url(#linear-gradient-17);}.cls-27{fill:url(#linear-gradient-18);}.cls-28{fill:url(#linear-gradient-19);}.cls-29{fill:url(#linear-gradient-20);}.cls-30{fill:url(#linear-gradient-21);}.cls-31{fill:url(#linear-gradient-22);}.cls-32{fill:url(#linear-gradient-23);}.cls-33{fill:url(#linear-gradient-24);}.cls-34{fill:url(#linear-gradient-25);}.cls-35{fill:url(#linear-gradient-26);}.cls-36{fill:url(#linear-gradient-27);}.cls-37{fill:url(#linear-gradient-28);}.cls-38{fill:url(#linear-gradient-29);}.cls-39{fill:url(#linear-gradient-30);}.cls-40{fill:url(#linear-gradient-31);}.cls-41{fill:url(#linear-gradient-32);}.cls-42{fill:url(#linear-gradient-33);}.cls-44{fill:url(#linear-gradient-34);}.cls-45{fill:url(#linear-gradient-35);}.cls-46{fill:url(#linear-gradient-36);}.cls-47{fill:url(#linear-gradient-37);}.cls-48{fill:url(#linear-gradient-38);}.cls-49{fill:url(#linear-gradient-39);}.cls-50{fill:url(#linear-gradient-40);}.cls-51{fill:url(#linear-gradient-41);}.cls-52{fill:url(#linear-gradient-42);}.cls-53{fill:url(#linear-gradient-43);}.cls-54{fill:url(#linear-gradient-44);}.cls-55{fill:url(#linear-gradient-45);}.cls-56{fill:url(#linear-gradient-46);}.cls-57{fill:url(#linear-gradient-47);}.cls-58{fill:#26264f;}.cls-59{fill:url(#linear-gradient-48);}.cls-60{fill:url(#linear-gradient-49);}.cls-61{fill:url(#linear-gradient-50);}</style><linearGradient id="linear-gradient" x1="-4127.89" y1="-2835.28" x2="-3663.78" y2="131.69" gradientTransform="matrix(-0.67, -0.75, -0.75, 0.67, -1586.51, 940.05)" gradientUnits="userSpaceOnUse"><stop offset="0" stop-color="#e38ddd"/><stop offset="1" stop-color="#9571f6"/></linearGradient><clipPath id="clip-path" transform="translate(-365.17 -341.09)"><path class="cls-1" d="M1952.41,2790.69c12.43,116.1,20.31,234.76,32.2,351.75,63.88,18.94,139.49,39.66,170.68-37.22,43.35-106.89,245.22-109.14,336.76-92.19,113.29,21,362.38,43.54,344.19-124.9-15.14-140.22-80.07-220.62,84.21-272.67s246.79-153.53,207.18-306.23c-41.69-160.69,142.4-327.81,21.41-450.29-210.81-213.4-483.76,170.88-516.3,405.87s-148.64,158.26-307.2,172.5c-216.47,19.44-82.78,243.62-176.63,318.4C2075.33,2814.33,2031.83,2791.65,1952.41,2790.69Z"/></clipPath><clipPath id="clip-path-2" transform="translate(-365.17 -341.09)"><path class="cls-1" d="M2325.84,3195.12Q2196.13,3176,2066.75,3151c-1.4,1.27-29.75-186.7,59.54-285.28,176.55-191,57.63-362.36,23.71-463.91-54.3-143.21-26.47-317.27,131.26-284.67,153.67,28.08,177-288.28,150.45-532-22.63-118.62,89.29-262.54,201-295.43,114-36.45,227.8,38.14,262.67,274.58,52.79,273.76-147,438.85-221,576.1-72.79,134.74,96.55,243.75-39.75,363.14-114.65,106.07-259.14,182.33-206.28,315.57C2482.64,2950.86,2469.64,3058.57,2325.84,3195.12Z"/></clipPath><linearGradient id="linear-gradient-2" x1="78.26" y1="-856.45" x2="-542.65" y2="908.23" gradientTransform="matrix(-0.87, -0.5, -0.5, 0.87, 2274.71, 2110.01)" gradientUnits="userSpaceOnUse"><stop offset="0" stop-color="#ff9085"/><stop offset="1" stop-color="#fb6fbb"/></linearGradient><linearGradient id="linear-gradient-3" x1="1849.53" y1="4524.06" x2="1867.83" y2="2199.78" gradientUnits="userSpaceOnUse"><stop offset="0" stop-color="#311944"/><stop offset="1" stop-color="#893976"/></linearGradient><linearGradient id="linear-gradient-4" x1="1983.13" y1="2718.56" x2="1586.93" y2="3826.11" xlink:href="#linear-gradient-3"/><linearGradient id="linear-gradient-5" x1="1499.89" y1="1313.68" x2="1467.67" y2="3947.1" gradientUnits="userSpaceOnUse"><stop offset="0" stop-color="#ffc444"/><stop offset="1" stop-color="#f36f56"/></linearGradient><linearGradient id="linear-gradient-6" x1="1856.61" y1="1448.05" x2="1835.05" y2="3210.41" xlink:href="#linear-gradient-5"/><linearGradient id="linear-gradient-7" x1="1966.14" y1="358.73" x2="1784.62" y2="2457.49" xlink:href="#linear-gradient-5"/><linearGradient id="linear-gradient-8" x1="1859.27" y1="2429.05" x2="1859.27" y2="2429.52" xlink:href="#linear-gradient-5"/><linearGradient id="linear-gradient-9" x1="1874.15" y1="2031.31" x2="1832.25" y2="5456.55" xlink:href="#linear-gradient-5"/><linearGradient id="linear-gradient-10" x1="1920.22" y1="2110.41" x2="1828.99" y2="821.77" xlink:href="#linear-gradient-3"/><linearGradient id="linear-gradient-11" x1="1957.54" y1="680.8" x2="1592.35" y2="1701.66" xlink:href="#linear-gradient-3"/><linearGradient id="linear-gradient-12" x1="1867.09" y1="2607.51" x2="1847.94" y2="4173.32" xlink:href="#linear-gradient-5"/><linearGradient id="linear-gradient-13" x1="-1950.86" y1="324.24" x2="-1278.47" y2="780.95" gradientTransform="matrix(-1, 0, 0, 1, 314.55, 0)" gradientUnits="userSpaceOnUse"><stop offset="0" stop-color="#311944"/><stop offset="1" stop-color="#6b3976"/></linearGradient><linearGradient id="linear-gradient-14" x1="2307.71" y1="102.97" x2="2321.96" y2="1906.58" gradientTransform="matrix(1, 0, 0, 1, 0, 0)" xlink:href="#linear-gradient-2"/><linearGradient id="linear-gradient-15" x1="-1690.27" y1="192.27" x2="-1591.45" y2="192.27" gradientTransform="matrix(-0.83, -0.56, -0.56, 0.83, 1250.59, 279.31)" xlink:href="#linear-gradient-13"/><linearGradient id="linear-gradient-16" x1="-2206.77" y1="1401.13" x2="-2045.52" y2="917.38" gradientTransform="matrix(-1, 0, 0, 1, 314.55, 0)" xlink:href="#linear-gradient-5"/><linearGradient id="linear-gradient-17" x1="-2233.81" y1="1178.99" x2="-2178.43" y2="1178.99" xlink:href="#linear-gradient-13"/><linearGradient id="linear-gradient-18" x1="-2265.91" y1="1331.05" x2="-2175.48" y2="1059.76" gradientTransform="matrix(-1, 0, 0, 1, 314.55, 0)" xlink:href="#linear-gradient-5"/><linearGradient id="linear-gradient-19" x1="-8618.01" y1="4657.84" x2="-8177.39" y2="4408.38" gradientTransform="matrix(-1, 0, 0, 1, 314.55, 0)" xlink:href="#linear-gradient"/><linearGradient id="linear-gradient-20" x1="2117.69" y1="732.39" x2="2231.08" y2="1215.13" gradientTransform="translate(84.26)" xlink:href="#linear-gradient"/><linearGradient id="linear-gradient-21" x1="-2059.22" y1="1336.13" x2="-1963.31" y2="1032.61" gradientTransform="matrix(-1, 0, 0, 1, 314.55, 0)" xlink:href="#linear-gradient"/><linearGradient id="linear-gradient-22" x1="-8593.64" y1="4700.87" x2="-8153.02" y2="4451.4" gradientTransform="matrix(-1, 0, 0, 1, 314.55, 0)" xlink:href="#linear-gradient"/><linearGradient id="linear-gradient-23" x1="2130.97" y1="103.42" x2="2145.07" y2="1887.72" gradientTransform="matrix(1, 0, 0, 1, 0, 0)" xlink:href="#linear-gradient-2"/><linearGradient id="linear-gradient-24" x1="3644.41" y1="166.28" x2="3650.38" y2="7.37" gradientTransform="translate(-1433.89 -244.24) rotate(10.28)" xlink:href="#linear-gradient-5"/><linearGradient id="linear-gradient-25" x1="3642.55" y1="25.99" x2="3639.99" y2="231.74" gradientTransform="translate(-1433.89 -244.24) rotate(10.28)" xlink:href="#linear-gradient-5"/><linearGradient id="linear-gradient-26" x1="1870.95" y1="822.11" x2="2234.64" y2="822.11" gradientTransform="translate(84.26)" xlink:href="#linear-gradient-2"/><linearGradient id="linear-gradient-27" x1="1963.06" y1="829.55" x2="2224.32" y2="829.55" gradientTransform="matrix(-1, 0, 0, 1, 4317.11, 0)" gradientUnits="userSpaceOnUse"><stop offset="0" stop-color="#444b8c"/><stop offset="1" stop-color="#3e4177"/></linearGradient><linearGradient id="linear-gradient-28" x1="1712.31" y1="759.88" x2="2070.91" y2="759.88" xlink:href="#linear-gradient-27"/><linearGradient id="linear-gradient-29" x1="1787.52" y1="762.22" x2="2070.91" y2="762.22" xlink:href="#linear-gradient-27"/><linearGradient id="linear-gradient-30" x1="2001.22" y1="104.45" x2="2015.33" y2="1888.75" gradientTransform="matrix(1, 0, 0, 1, 0, 0)" xlink:href="#linear-gradient-2"/><linearGradient id="linear-gradient-31" x1="2106.17" y1="778.03" x2="2019.33" y2="859.87" gradientTransform="translate(84.26)" xlink:href="#linear-gradient-5"/><linearGradient id="linear-gradient-32" x1="683.04" y1="1284.7" x2="943.32" y2="1703.15" xlink:href="#linear-gradient-3"/><linearGradient id="linear-gradient-33" x1="671.79" y1="1278.08" x2="931.18" y2="1695.11" gradientTransform="matrix(1, 0, 0, 1, 0, 0)" xlink:href="#linear-gradient-2"/><linearGradient id="linear-gradient-34" x1="500.35" y1="1383.19" x2="736.17" y2="1762.34" gradientTransform="matrix(1, 0, 0, 1, 0, 0)" xlink:href="#linear-gradient-2"/><linearGradient id="linear-gradient-35" x1="-980.13" y1="2411.14" x2="-1050.35" y2="2487.01" gradientTransform="matrix(-0.13, -0.99, -0.99, 0.13, 3033.63, 714.73)" xlink:href="#linear-gradient-5"/><linearGradient id="linear-gradient-36" x1="808.78" y1="1172.97" x2="710.01" y2="2451.04" gradientTransform="matrix(1, 0, 0, 1, 0, 0)" xlink:href="#linear-gradient"/><linearGradient id="linear-gradient-37" x1="954.51" y1="3131.77" x2="992.9" y2="3165.91" gradientTransform="matrix(-0.99, -0.14, -0.14, 0.99, 2088.28, 206.94)" gradientUnits="userSpaceOnUse"><stop offset="0" stop-color="#444b8c"/><stop offset="1" stop-color="#26264f"/></linearGradient><linearGradient id="linear-gradient-38" x1="66.22" y1="3165.96" x2="66.22" y2="3099.09" gradientTransform="matrix(-0.99, -0.14, -0.14, 0.99, 1172.07, 77.42)" xlink:href="#linear-gradient-5"/><linearGradient id="linear-gradient-39" x1="958.37" y1="3127.43" x2="996.76" y2="3161.57" xlink:href="#linear-gradient-37"/><linearGradient id="linear-gradient-40" x1="1009.08" y1="3195.61" x2="1047.47" y2="3229.75" gradientTransform="matrix(-1, 0, 0, 1, 1985.43, 0)" xlink:href="#linear-gradient-37"/><linearGradient id="linear-gradient-41" x1="120.74" y1="3229.82" x2="120.74" y2="3162.95" gradientTransform="matrix(-1, 0, 0, 1, 1060.12, 0)" xlink:href="#linear-gradient-5"/><linearGradient id="linear-gradient-42" x1="1232.84" y1="3260.48" x2="982.54" y2="2249.88" gradientTransform="translate(-290.31)" xlink:href="#linear-gradient-37"/><linearGradient id="linear-gradient-43" x1="944.02" y1="1166.85" x2="845.25" y2="2444.92" gradientTransform="matrix(1, 0, 0, 1, 0, 0)" xlink:href="#linear-gradient"/><linearGradient id="linear-gradient-44" x1="1012.94" y1="3191.27" x2="1051.32" y2="3225.41" gradientTransform="matrix(-1, 0, 0, 1, 1985.43, 0)" xlink:href="#linear-gradient-37"/><linearGradient id="linear-gradient-45" x1="-92.68" y1="1401.45" x2="-145.47" y2="1486.84" gradientTransform="matrix(-0.97, -0.24, -0.24, 0.97, 1065.22, 640.48)" xlink:href="#linear-gradient-5"/><linearGradient id="linear-gradient-46" x1="824.23" y1="1981.43" x2="874.32" y2="2433.22" xlink:href="#linear-gradient-5"/><linearGradient id="linear-gradient-47" x1="822.15" y1="1981.66" x2="872.24" y2="2433.45" xlink:href="#linear-gradient-5"/><linearGradient id="linear-gradient-48" x1="826.82" y1="1981.14" x2="876.91" y2="2432.94" xlink:href="#linear-gradient-5"/><linearGradient id="linear-gradient-49" x1="1771.78" y1="1331.04" x2="1819.23" y2="1371.43" gradientTransform="matrix(0.91, -0.42, 0.42, 0.91, -1359.3, 1493.84)" xlink:href="#linear-gradient-5"/><linearGradient id="linear-gradient-50" x1="1036.9" y1="1174.03" x2="938.13" y2="2452.1" gradientTransform="matrix(1, 0, 0, 1, 0, 0)" xlink:href="#linear-gradient"/></defs><title>urgency</title><g class="cls-2"><g id="Illustration"><path class="cls-3" d="M3219.74,1604.55c-78.53-514-400.49-1145.48-1036.55-1211.56,0,0-482.94-58.74-959,30.28C941.64,476.11,693.89,633.4,537.12,859.46S328,1361.18,391.54,1624c41.28,170.69,69.17,347.35,61.52,522.75C439.73,2452,447.4,2736.92,743.65,2919c264.51,162.55,597.41,305.91,915,331,215.83,17.07,457.87-10.55,665.89-66.74C3384.65,2896.88,3298.27,2118.55,3219.74,1604.55Z" transform="translate(-365.17 -341.09)"/><path class="cls-4" d="M2119.07,3125.46c-16-5.59-46-31.91-51-42-33.14-67.08-103.35-188.65-82.54-265,3.55-13,65.1-12.88,75.91-23.25,39.27-9.43,53.48-10.27,86.41-37.57,97.21-80.6-39.86-299.17,177.52-320.14,159.23-15.37,274.59,62.64,307.3-172.66S2938.18,1645.67,3149,1859c121,122.4-63.13,289.61-21.41,450.29,39.64,152.68-42.89,254.16-207.19,306.23s-99.27,132.35-84.22,272.69c18.08,168.58-230.54,145.48-344.41,125C2400.11,2996.72,2155.51,3016.64,2119.07,3125.46Z" transform="translate(-365.17 -341.09)"/><g class="cls-5"><path class="cls-6" d="M2027.47,2958l-.86-3.41c271.15-68.13,514.12-217.48,702.63-431.91,179.37-204,307.07-462.66,369.3-747.93l3.43.75c-62.35,285.86-190.32,545-370.08,749.51C2542.9,2740,2299.32,2889.73,2027.47,2958Z" transform="translate(-365.17 -341.09)"/><path class="cls-6" d="M2851.8,2957.32c-131.74-76.18-368.19-127.24-527-113.79l-.3-3.5c159.47-13.5,396.82,37.75,529.09,114.25Z" transform="translate(-365.17 -341.09)"/><path class="cls-6" d="M2133.08,2930.21l-1.76-3c71.63-41.68,119.44-118,142.1-226.76,16.61-79.76,19.57-174.81,8.78-282.51l3.5-.35c10.82,108.06,7.85,203.47-8.83,283.58C2254,2810.93,2205.62,2888,2133.08,2930.21Z" transform="translate(-365.17 -341.09)"/><path class="cls-6" d="M2756.29,2495l-1.93-3c130.95-85.48,295.35-81.14,410.21-62.44l-.56,3.47C3049.76,2414.5,2886.29,2410.14,2756.29,2495Z" transform="translate(-365.17 -341.09)"/><path class="cls-6" d="M2953.82,2196.44l-3.38-1c20.88-72.69,40.49-225.15-62.76-429.4l3.14-1.59C2994.61,1969.81,2974.84,2123.25,2953.82,2196.44Z" transform="translate(-365.17 -341.09)"/></g><g class="cls-7"><path class="cls-8" d="M2325.84,3195.12Q2196.13,3176,2066.75,3151c-1.4,1.27-29.75-186.7,59.54-285.28,176.55-191,57.63-362.36,23.71-463.91-53.75-143.1-25.48-298.07,120.17-300.36,161.54-5.7,190.82-273.08,161.54-516.3-22.63-118.62,89.29-262.54,201-295.43,114-36.45,227.8,38.14,262.67,274.58,52.79,273.76-147,438.85-221,576.1-72.79,134.74,96.55,243.75-39.75,363.14-114.65,106.07-259.14,182.33-206.28,315.57C2482.64,2950.86,2469.64,3058.57,2325.84,3195.12Z" transform="translate(-365.17 -341.09)"/><path class="cls-6" d="M2210.2,3206.28l-3.52-.05c0-1.68,82.63-397.15,225.11-782,19.67-62.32,41.05-125.17,61.73-185.95,55.36-162.76,112.6-331.06,139.79-498.63,30.39-187.31,19.56-356-33.1-515.75l3.34-1.1c52.84,160.28,63.71,329.53,33.24,517.41-27.24,167.86-84.53,336.3-139.94,499.2-20.67,60.77-42,123.6-61.73,186C2291.51,2813.27,2210.41,3204,2210.2,3206.28Z" transform="translate(-365.17 -341.09)"/><path class="cls-6" d="M2596.92,1923.74l-2.62-2.36c96.4-107.1,212.71-259.31,275.2-341.08,50.32-65.85,50.59-65.72,52.66-65.43l-.55,3.48.28-1.74.71,1.57c-2.54,1.75-23.62,29.34-50.3,64.25C2809.78,1664.25,2693.41,1816.53,2596.92,1923.74Z" transform="translate(-365.17 -341.09)"/><path class="cls-6" d="M2626.05,1776.83c-19.94-122.76-70.49-203.5-109.38-249.62-43-50.94-82.53-73.14-86.58-73.64a1.41,1.41,0,0,0,.84-.25l-2-2.93c.89-.58,1.91-.45,4.26.58,10.67,4.64,50.57,29.59,92.41,81.6,52.7,65.5,88.62,149.77,103.88,243.7Z" transform="translate(-365.17 -341.09)"/><path class="cls-6" d="M2350.5,2676l-3.49-.42c13.59-114.22-13-237.07-79.11-365.15-34.47-66.8-78.42-132.24-130.65-194.5-3.78-4.51-5.11-6.11-5.53-6.83l3-1.77c.31.52,2.47,3.09,5.19,6.34,52.39,62.46,96.49,128.12,131.08,195.14C2337.45,2437.54,2364.19,2561.08,2350.5,2676Z" transform="translate(-365.17 -341.09)"/><path class="cls-6" d="M2389.47,2555.76l-3-1.85c101.76-164.41,314.38-178.59,323.84-178.59h.31L2712,2377l-1.21,1.73-.55-1.65-.16,1.73h0C2706.52,2378.78,2491.52,2390.89,2389.47,2555.76Zm320.15-180.38.56,1.66Z" transform="translate(-365.17 -341.09)"/><path class="cls-6" d="M2224.64,3141.78l-3.52-.13c1.83-49.72-15.95-134.48-111-255.91-5.16-6.59-5.16-6.59-5-7.58l3.48.5-1.74-.25,1.61-.66c.28.5,2.21,3,4.45,5.82C2208.6,3005.84,2226.48,3091.47,2224.64,3141.78Z" transform="translate(-365.17 -341.09)"/><path class="cls-6" d="M2246.59,3048.11l-3.38-1c11-37.82,54.1-111.93,219.87-183.3,2.3-1,3.77-1.62,4.3-1.89l1.6,3.13c-.55.29-2.1,1-4.51,2C2300,2937.86,2257.38,3010.88,2246.59,3048.11Z" transform="translate(-365.17 -341.09)"/></g><path class="cls-9" d="M2603.55,3039.81l-381.41,11.84c-105.34-6.09-226.49-4.18-355.71-.44-129.6,3.75-251.79,9.46-358.48,21.76l-391.28,11.56V3164h0a.56.56,0,0,0,0,.23c0,50.76,337.92,81.34,751.19,68.52,409.35-12.69,737.71-65.94,736.93-115.81,0-.15-.06-3-.06-3Z" transform="translate(-365.17 -341.09)"/><path class="cls-10" d="M2603.58,3040.75c.78,49.78-327.33,100.07-736.35,112.38-412.92,12.43-750.56-18.52-750.56-69.19s337-101,749.13-112.58C2274.05,2959.93,2602.81,2991,2603.58,3040.75Z" transform="translate(-365.17 -341.09)"/><path class="cls-11" d="M2123,1868l-189.06,148.7,192.94,143.58c215.4,160,343.47,413.4,347.37,686.46l2.67,187.11c0,3.5-3.07,6.48-8.36,10l-582.66-13.7-39.25,1.11-591.58,47.83c-5.5-3.25-7.28-6.14-7.28-9.69l-.26-189.85c-.38-277,126.69-539.34,343.25-709.27l191-150.19-192.84-143.92c-216.78-161-343.36-414.09-343.73-682.95l-.27-192.84,587.29,24.91,38.73-.21,576.85-30.92,2.71,190.16C2454.29,1449.38,2333.5,1702.29,2123,1868Z" transform="translate(-365.17 -341.09)"/><path class="cls-12" d="M2476.15,3033.76c0,3.5-2.69,7-8,10.52-47.14,31.07-298,61.18-602.59,70.21-306.78,9.1-563-6.27-611.95-34.94-5.49-3.25-8.36-6.64-8.37-10.19,0-35.06,278.32-71.29,619.33-80.91C2202.93,2978.92,2475.66,2999.21,2476.15,3033.76Z" transform="translate(-365.17 -341.09)"/><polygon class="cls-13" points="1510.7 2128.91 1479.26 2129.61 1475.35 1620.42 1506.62 1619.91 1510.7 2128.91"/><path class="cls-14" d="M1855.5,1661.94,1493,1666.6l18.86,31.37s134.71,192.78,346.25,296.31C2067,1884.25,2196.91,1689,2196.91,1689l18.07-31.7Z" transform="translate(-365.17 -341.09)"/><path class="cls-15" d="M2214.91,1651.3c.22,19-160.22,36.48-359.18,39.1-199.89,2.64-362.67-10.73-362.75-29.87s162.46-36.64,362.2-39.11C2054,1619,2214.69,1632.34,2214.91,1651.3Z" transform="translate(-365.17 -341.09)"/><path class="cls-16" d="M1859.27,2429.19c-.14,0,0-.09,0-.09S1859.41,2429.15,1859.27,2429.19Z" transform="translate(-365.17 -341.09)"/><path class="cls-17" d="M2368.24,3036.63C2189,3076.69,1909.64,3089,1869,3090.2l-4.52.14-4.53.13c-21.61.63-111,2.11-217.69-1.11-94-2.91-201.27-9.36-287.1-23.33-.19,0,.43-.65.43-.7v-22.5c3.85-66.29,13.63-257.87,47-299.23,39.78-49.23,443.52-305.29,456.92-314.27,13.54,8.39,417.16,244.45,456.89,291.21,10.68,12.55,19.26,40.67,26.21,74.82,7.9,38.78,13.59,85.83,17.58,128C2366.06,2985.2,2368.24,3036.63,2368.24,3036.63Z" transform="translate(-365.17 -341.09)"/><path class="cls-18" d="M1511.46,1283.47c-4.28-119.53,6.07-206.32,6.07-206.32s-32.5-75.46-146.85-40.64c-29.9,88.25-41.62,173-40,248.49Z" transform="translate(-365.17 -341.09)"/><path class="cls-18" d="M1514.22,1336.68l-180.36,1.64c40.36,397,428,624.44,428,624.44l92-1.5C1599.89,1862.14,1529.7,1559,1514.22,1336.68Z" transform="translate(-365.17 -341.09)"/><path class="cls-18" d="M1525.8,3008.21l-163.09,4.62c-21.12-73.08-29.67-146.43-28.59-210.74l183.73-4.75C1514.59,2916.63,1525.32,3003.63,1525.8,3008.21Z" transform="translate(-365.17 -341.09)"/><path class="cls-18" d="M1520.19,2742.36,1337.12,2747c38.74-411.49,425.67-653.95,425.67-653.95l92.09-1.64C1601.65,2204.19,1533.91,2513.93,1520.19,2742.36Z" transform="translate(-365.17 -341.09)"/><path class="cls-19" d="M2571.63,994.44l-373.33,2.24c-103.09-8.22-221.65-9.35-348.1-8.71-126.81.64-246.37,3.23-350.75,12.57l-382.78,2.07v72.91h0s0,1.33,0,1.48c0,48.55,330.56,86.14,734.89,83.28,400.59-2.83,722-44.06,721.27-91.81,0-.14,0-.65,0-.65Z" transform="translate(-365.17 -341.09)"/><path class="cls-20" d="M2571.65,993.91c.74,47.67-320.42,88.33-720.69,90.81-404,2.49-734.29-34.8-734.29-83.28s329.67-89,732.92-90.71C2249.12,909.07,2570.91,946.29,2571.65,993.91Z" transform="translate(-365.17 -341.09)"/><path class="cls-21" d="M2368.24,3036.63C2189,3076.69,1909.64,3089,1869,3090.2l-4.52.14-4.53.13c-21.61.63-111,2.11-217.69-1.11-94-2.91-201.27-9.36-287.1-23.33-.19,0,.43-.65.43-.7v-.14c0-1.15-.64-9.26-.08-22.28,100.91.1,310.88-7.3,401.94-66.43,121.43-78.87,222.7-83.95,355.49-62.48,109,17.65,187.79-43.31,229.68-118.64,7.9,38.78,13.58,85.83,17.61,128C2366.07,2985.2,2368.24,3036.63,2368.24,3036.63Z" transform="translate(-365.17 -341.09)"/><path class="cls-22" d="M2228.46,567.17c12.65-8.2,1.13-32.06.45-83.3-.84-62.8,15.84-74.5,2.44-99.13-16.38-30.13-57.61-42.6-84.93-43.18-6-.13-7.43-3.42-57.91,9.65-90.94,23.55-113.71-1.7-154.43,23.52-39.35,24.37-22.12,51.06-60.33,79.63-61.93,46.32-127.06-3.76-171.32,35-41.87,36.65-42.83,130,1.2,181,49.93,57.76,139.95,40.41,200.28,28.95,12.7-2.41,76.82-15.87,143.58-65.15a382.19,382.19,0,0,0,78.42-77.82c3.79-4.26,9.69-9.42,17.49-10.25,9.37-1,16.89,4.73,20.51,7.24C2183,566.48,2216,575.23,2228.46,567.17Z" transform="translate(-365.17 -341.09)"/><path class="cls-23" d="M2142.92,503.43c16.26-14.82,109,17.26,147.49,55.17,45.18,44.53,41.71,80.63,81.15,135.95,19.6,27.5,53.21,64.53,112.77,97q-6.33,15.81-12.65,31.62c-28.8,1.73-85.33.71-138.06-33.73-36.64-23.92-55.49-55.62-91.7-118C2205.59,608.72,2122.59,522,2142.92,503.43Z" transform="translate(-365.17 -341.09)"/><path class="cls-24" d="M2532.85,1368.86l-18.49-39.29a34.07,34.07,0,0,0-11.85-13.78l-9.16-6.13s-21.89-.58-25.3,13.18c-.73,17.48,33.23,56.52,54.7,72,3.57,2.58,8.65,6,11.74,4.24C2539.72,1396.11,2536.05,1380,2532.85,1368.86Z" transform="translate(-365.17 -341.09)"/><path class="cls-25" d="M2498.1,1288.3c-2.91,16.85.77,25.64,4.74,30.56,2.8,3.47,25.48,40.86,16.16,46.9-4.2,2.73-33-33-35.81-38.54-2.53-5-4.18-3.79-4.32-17.32a70.26,70.26,0,0,0-3.34-20.55Z" transform="translate(-365.17 -341.09)"/><path class="cls-26" d="M2530.85,1154.73s20.47,24.42,17.14,51.2-39.18-12.37-44.18-25.6-10.83-32.08-10.83-32.08S2518.12,1132.61,2530.85,1154.73Z" transform="translate(-365.17 -341.09)"/><path class="cls-27" d="M2523,1116.51s-5.55,28.46,5,43.48c5.28,7.48,12.39,13.82,10.3,19.91-1.4,4.08-6.73,7-11.24,6.55-8.63-.89-13.42-14.13-16.79-23.46-5-13.79-7.77-43.3-7.77-43.3Z" transform="translate(-365.17 -341.09)"/><path class="cls-28" d="M2506.73,1140.5l18.89-6.88c9.82-22.43,21.8-59.27,17.8-104.06-10.3-115.16-116.81-176.19-128.65-182.72-29,14.56-58.41,35.1-59.48,61-1.33,32.5,42.95,49.69,84.58,97.22C2464.86,1033.59,2491.56,1076.11,2506.73,1140.5Z" transform="translate(-365.17 -341.09)"/><path class="cls-29" d="M2499.94,1301.47c20.8-81.25,15.49-147.55,9.49-185.75-9.07-57.73-27.52-175.16-105.92-219-17.12-9.56-41.6-18.12-71.43-44.71a252.83,252.83,0,0,1-50.29-62c-104.86-30.76-201.57-18.29-244.25,37.94-4.93,6.5-17.28,20.6-19.66,41.38-5.39,46.89,40.68,103.34,92.38,115.13,65.71,15,103.83-52.48,162-30,16.28,6.28,30.09,21.84,57.7,53a440,440,0,0,1,62.34,90.74c22.25,43.52,39.12,75.65,41.58,117.3.57,9.7.91,29.3,12.27,50.43a105.22,105.22,0,0,0,29.34,33.73Z" transform="translate(-365.17 -341.09)"/><path class="cls-30" d="M2017.88,869.38c2.38-20.78,14.73-34.88,19.66-41.38,42.68-56.23,139.39-68.7,244.25-37.94a252.83,252.83,0,0,0,50.29,62c29.83,26.59,54.31,35.15,71.43,44.71,47.88,26.74,73.37,80.93,88,132.23-21.78-33.77-40.42-42.75-54.85-42.91-20.65-.23-29.88,17.43-54.54,15-26.36-2.58-32.38-24.37-53.75-26.88-6.39-.75-14.26.24-23.71,5.27-12.62-13.2-22-21-32.41-25-58.21-22.44-96.33,45-162,30C2058.56,972.72,2012.49,916.27,2017.88,869.38Z" transform="translate(-365.17 -341.09)"/><path class="cls-31" d="M2445.62,933.11a346.41,346.41,0,0,0-52.19,1.18C2288.81,944.63,2260,996.39,2173.5,1009c-20.46,3-111.53,16.29-151-36.36-28.32-37.8-24-102.93,6.94-128.54,13.11-10.84,26.09-10.54,110.05-9.78,31.61.28,63.23.38,94.85.79,133.83,1.7,159.43-7.57,183.78,14.57C2429.5,860,2446.11,882.2,2445.62,933.11Z" transform="translate(-365.17 -341.09)"/><path class="cls-32" d="M2163.08,503.71s-105.64-30.81-152.17,21.86c-8.54,9.66-15.29,22.38-20.21,46.92-25,125.08,69.68,200.21,32.36,266.19-14.81,26.2-40.92,34.1-59.46,81.19-3.14,8-14.5,36.81-4.08,45.9,9.18,8,24.27-8.9,51.09-5.63,28.39,3.45,35,25.26,54.13,22.09,12.46-2.07,17.83-12.71,36.18-39.22,26.57-38.39,39.85-57.58,49.37-64.31,37.57-26.55,66.61,8.07,109.45-18.22,15.52-9.52,73-83.51,56.08-63.19-40.25-50.2-49.6-91.62-50.56-120.42-1.05-31.58,8-45.93,0-83.25,0,0-1.74-19.63-34.13-55.39C2226.48,533.1,2213.7,505.73,2163.08,503.71Z" transform="translate(-365.17 -341.09)"/><path class="cls-33" d="M2120.33,443.34c1.24,5.8,7.57,36.94-5.17,45-2.76,1.73-8.07,2.73-18.68,4.72-6.95,1.3-12.78,2.1-16.89,2.59a42.53,42.53,0,0,0,8.38,21.45c16.89,21.67,50.76,16.06,55.58,15.18,17-3.1,33.8-8.36,37.85-11.58,6.17-4.9,11-8.57,13.88-12.31-6.59-3.18-19.9-11.58-28.83-14.33a166.48,166.48,0,0,0-18.65-4.58q-1.4-9-2.81-18Z" transform="translate(-365.17 -341.09)"/><path class="cls-34" d="M2119.74,458.85s2.3,22.82,24.48,26.84c19.86,3.6,34.81-44.39,24.65-56.8-3.39-4.14-11.76-8.08-19-7.87-5.1.14-22.34,6.71-24.75,24-3.43-3.61-7.7-4.65-9.81-3.14-2.68,1.92-1.25,7.51-.92,8.78A16,16,0,0,0,2119.74,458.85Z" transform="translate(-365.17 -341.09)"/><path class="cls-35" d="M2315.82,797.29c-4.84-6-9.22-11.94-13.2-17.72a209.94,209.94,0,0,0-56.89-11c-34.94-1.69-54.07,6.53-77.86-7.78-27-16.25-22.21-38.8-48.27-51.39-27.41-13.25-46.8,1.72-73.18-3.11-15.93-2.92-35.33-13.58-55.13-44.65,15.16,74.82,59.26,128.4,31.77,177-14.81,26.2-40.92,34.1-59.46,81.19-3.14,8-14.5,36.81-4.08,45.9,9.18,8,24.27-8.9,51.09-5.63,28.39,3.45,35,25.26,54.13,22.09,12.46-2.07,17.83-12.71,36.18-39.22,26.57-38.39,39.85-57.58,49.37-64.31,37.57-26.55,66.61,8.07,109.45-18.22C2275.26,851,2332.73,777,2315.82,797.29Z" transform="translate(-365.17 -341.09)"/><path class="cls-36" d="M2347.65,810.13l-239,11.63a10,10,0,0,0-8,4.72L2094,837.1a7.76,7.76,0,0,0,6.88,11.86l253.19-9.65Z" transform="translate(-365.17 -341.09)"/><path class="cls-37" d="M2596.26,677l-246.94,4.79a20.71,20.71,0,0,0-17.61,10.47L2246.2,842.74,2507,832.35A21.23,21.23,0,0,0,2524.37,822l79.22-132.36A8.36,8.36,0,0,0,2596.26,677Z" transform="translate(-365.17 -341.09)"/><path class="cls-38" d="M2331.71,692.29a20.7,20.7,0,0,1,17.61-10.48l5.41-.1c.81,8,3.25,15.26,8.13,21.15,15.23,18.38,40.52,7,59.38,26.49,20.71,21.37,1.58,46.8,20.1,66.69,19.49,20.93,51,3.89,87.24,17.28l-5.21,8.72A21.23,21.23,0,0,1,2507,832.35l-260.8,10.39Z" transform="translate(-365.17 -341.09)"/><path class="cls-39" d="M2128.1,802.14l9.33-24.64c-34.38-9.43-81.94-23.36-130.71-40.79-7.64-2.73-16.72-6.11-19.69-14.15-8.34-22.55,44.68-45.92,65.3-95.15,19.06-45.54,8.57-108.73-13.56-116.2-46-15.53-209.3,187.69-151,273.35C1920.74,833,2022.36,840.7,2128.1,802.14Z" transform="translate(-365.17 -341.09)"/><path class="cls-40" d="M2137.43,777.5c21.59-11.47,47.43.28,49.09,1.07a64.64,64.64,0,0,1,18.63,13.35c.78,1.08,10.15,14.05,6.74,18.21-2.74,3.33-13.33.57-26-7.34a98.51,98.51,0,0,0-22.79-.56c-17.47,1.61-25.48,7.13-31.82,2.36-4.64-3.48-6.23-10.86-4.56-16.34C2128.47,782.36,2133.78,779.44,2137.43,777.5Z" transform="translate(-365.17 -341.09)"/><path class="cls-41" d="M1162.91,1384.4v291.42c0,42.15-35.24,76.22-78.94,76l-162.27-.65-21.43-.08-75.72,92.79c-5.74,4.47-19.49,4.66-24.12-.93l-11.23-14.83-58.75-77.72-5.43,0-148.39-.58c-16-.08-29.61-5.86-41-15.53-15.15-12.71-23.87-32.17-23.87-53.94V1416c0-38.23,28.8-71,65.87-73.18l31.47-1.89,475.75-28.16a76.17,76.17,0,0,1,32.81,5.16C1144.7,1328.49,1162.91,1353.77,1162.91,1384.4Z" transform="translate(-365.17 -341.09)"/><path class="cls-42" d="M1151.35,1376.89V1667.5c0,42-36.4,76-79.82,75.91l-153.47-.31-30.2-.08-75.35,88.47a13.33,13.33,0,0,1-20.51-.08l-2.76-3.27L725,1750.38l-6.4-7.75-153-.34a62.38,62.38,0,0,1-30.46-8c-21.2-11.56-35-34.64-35-61.19V1409.45c0-38.15,29.07-70.87,66-73.1l36.11-2.2,468.65-28.55c17.69-1.08,34.79,3.58,48,12.33C1138.14,1330.61,1151.35,1352,1151.35,1376.89Z" transform="translate(-365.17 -341.09)"/><path class="cls-43" d="M785.93,1587.48l26.29-.63c7.33-.17,13.39-6.44,13.77-13.81l9.63-185.19a12,12,0,0,0-3.8-9.55c-2.61-2.58-6.24-3.41-10-3.15l-45.27,3.16a13.82,13.82,0,0,0-9.8,4.38,14.05,14.05,0,0,0-3.68,10.1l9.36,181.82A13.4,13.4,0,0,0,785.93,1587.48Z" transform="translate(-365.17 -341.09)"/><path class="cls-43" d="M826.5,1632.72q-9.84-9.4-27.67-9.11-18.36.29-27.88,9.66t-9.49,27.32q0,17.34,9.71,26.85t27.66,9.54q17.59,0,27.56-9.87t10-27.11Q836.38,1642.15,826.5,1632.72Z" transform="translate(-365.17 -341.09)"/><path class="cls-44" d="M922,1751.19l-21.58-.08-75.79,92.79c-5.74,4.47-19.54,4.66-24.16-.93l-11.25-14.83L725,1750.38l-148.38-.58a63.86,63.86,0,0,1-41.48-15.53c-21.2-11.56-35-34.64-35-61.19V1409.45c0-38.15,29.07-70.87,66-73.1l36.11-2.2c2.27,2.16,4.34,4.39,6.46,6.78,24.2,26.63,41.28,65.9,38.16,123.77-9.21,172.12,105.16,200,208.5,232.27,32,10,51.16,27.21,62.33,46.13C919.28,1745.76,920.69,1748.45,922,1751.19Z" transform="translate(-365.17 -341.09)"/><path class="cls-45" d="M763.41,2003.51l14.81-21.21,30.24-12.45s-12.12-22.06-40.06-5.6c-8.82,9.35-21,31.12-34.4,41.42S763.41,2003.51,763.41,2003.51Z" transform="translate(-365.17 -341.09)"/><path class="cls-46" d="M654.05,2019.21c30.91-33.84,67.83-50.83,87.43-58.41,6,2.48,15.23,7.33,21,16.71,25.2,40.86-54.28,103.76-35,144,12.84,26.83,53.23,9.4,105.33,53.94,25,21.37,27.28,35.28,24.22,45.65-4.85,16.4-24.14,27.44-30,30.8-51,29.15-156.82,21.19-201.49-43.44C588.14,2154.34,603.37,2074.69,654.05,2019.21Z" transform="translate(-365.17 -341.09)"/><path class="cls-47" d="M693.88,3191.75c-1.1-6-20.53-11.47-30.15-3.41-4.78,4-8.07,12.12-5.31,15.78,1,1.34-3.11,3.68.84,3.73C672.35,3208,695,3197.73,693.88,3191.75Z" transform="translate(-365.17 -341.09)"/><path class="cls-48" d="M673.51,3193.94l-20-2.83c9.26-11.14,7.55-46.65,7.55-46.65l21.25,4.75s-2.42,9.74-6.54,24.12C674.37,3178.25,673.74,3186,673.51,3193.94Z" transform="translate(-365.17 -341.09)"/><path class="cls-49" d="M675.28,3191.48s-24.06-5.55-26.66-.77-4.63,17.55,10.64,17.14S676.64,3195.52,675.28,3191.48Z" transform="translate(-365.17 -341.09)"/><path class="cls-50" d="M968.1,3214.31c-1.92-5.8-21.93-8.48-30.33.85-4.17,4.63-6.29,13.13-3,16.37,1.18,1.18-2.57,4.07,1.35,3.57C949.06,3233.42,970,3220.08,968.1,3214.31Z" transform="translate(-365.17 -341.09)"/><path class="cls-51" d="M948.24,3219.33H928.05c7.61-12.33.94-47.24.94-47.24l21.71,1.72s-1,10-3.1,24.79C946.89,3203.67,947.35,3211.39,948.24,3219.33Z" transform="translate(-365.17 -341.09)"/><path class="cls-52" d="M1000.55,2456.05a933.71,933.71,0,0,1,31.29,143.23c24.52,178.34-27.59,184-17.86,381.65,3.11,63.08-54.65,208.55-59.74,211.76a61.63,61.63,0,0,1-8,.31,79.56,79.56,0,0,1-20.35-3.39c-9.15-1.58-42.13-90.92-34.49-144,5.41-37.6,3.85-78,.71-158.65-.51-13.07-34-254.4-34-254.4-10.18,89.33-21.88,165.22-32,224.07-32.6,189-138.59,303.48-144.12,305.32-1.09.44-11,4.05-19.17-1.31a13.18,13.18,0,0,1-4.85-5.46c-2.83-2.22.84-188.75,33.17-329.13,46.92-203.76,26.49-251.44,41.36-342.45C745.39,2404.81,1000.55,2456.05,1000.55,2456.05Z" transform="translate(-365.17 -341.09)"/><path class="cls-53" d="M1013.1,2486.82c-28.15,14.5-100.75,40.36-187.22,27.52a292.35,292.35,0,0,1-93.34-30.76c22.41-67.92,4.81-104.29-3.5-137.83-11.81-47.77-12-44.18-21.78-82.12-16.07-62.63-18.72-126.65-7.67-139.71,23-27.3,60.29-34.26,88.94-36.37,8.44-.63,16.12-.85,22.49-1,15.94-.5,42.52-3.6,70-1.8,26.13,1.8,53,8,72.24,25.37.67.58-7.41,4.94-3.41,9.56a261.6,261.6,0,0,1,27.83,40c8.35,14.86,15.85,32.14,23.44,57.92a496.38,496.38,0,0,1,18.45,101C1026.75,2413.32,1019.57,2457.1,1013.1,2486.82Z" transform="translate(-365.17 -341.09)"/><path class="cls-54" d="M949.65,3216.65s-24.6-2.13-26.51,3-2.12,18,12.94,15.48S951.56,3220.46,949.65,3216.65Z" transform="translate(-365.17 -341.09)"/><path class="cls-55" d="M831.48,2042c-4.42-2.64-7.78,3-5.7,8s9.07,8.06,13.31,5.11S837.42,2045.57,831.48,2042Z" transform="translate(-365.17 -341.09)"/><path class="cls-56" d="M886.22,2091.68c0,8.58-22.27,15.53-49.79,15.53s-49.74-6.95-49.74-15.53a6.06,6.06,0,0,1,1.84-4.13c8.44-.63,16.12-.85,22.49-1,15.94-.5,42.52-3.6,70-1.8C884.34,2086.83,886.22,2089.21,886.22,2091.68Z" transform="translate(-365.17 -341.09)"/><path class="cls-57" d="M849.81,2085l-8.64-19.44c2.52-2.47,19-14.8,18.66-28.76-.46-18.95-15.53-33.42-18.48-36.32-12.38-12.16-15-13.52-19.56-14.89l-6.23-1.62-.7,0c-3.73-.16-15.3,3-17.47,4.22-6.93,3.86-5.54,36.5,9.83,78.53.19,1.72.4,3.45.62,5.2,1.38,10.85,3.23,21.22,5.41,31.08C813.25,2103,841.62,2104.2,849.81,2085Z" transform="translate(-365.17 -341.09)"/><path class="cls-58" d="M834.2,1977.5c4,13.24-4.87,18.94-7.35,22.18a23.21,23.21,0,0,0-3.19,6.71,7,7,0,0,0-.27,1.8c-.34,9.23,15.94,15,14.52,19.49-1,3.28-11.15,2.43-11.5,5.1-.33,2.51,8.56,4.77,8.22,7.75-.25,2.26-5.42,1.86-7.39,5.8-1,2-.19,3-.3,8.15a43.92,43.92,0,0,1-.84,8c-2.19,9.17-14.28,16-17.72,13.64-1-.65-.59-1.56-2.19-4.25a24.39,24.39,0,0,0-4.32-5c-4-3.63-11.49-4.82-19.46-7.52-14.76-5-20.33-11.4-22.08-13.61-.63-.78-1.05-1.39-1.36-1.83-6.14-8.79-10.55-23.11-8.87-33.27,2.81-17,21.54-15.1,30.61-33.89,5.06-10.47,8.1-21.45,20.28-25.76,9.48-3.35,18.22,0,23.88,8.09A69.23,69.23,0,0,1,834.2,1977.5Z" transform="translate(-365.17 -341.09)"/><path class="cls-59" d="M832.2,2026c-4.61-3.46-9,2.48-7.29,8.26s9.17,10,14.24,7.25S838.41,2030.69,832.2,2026Z" transform="translate(-365.17 -341.09)"/><path class="cls-60" d="M874.57,1957.4l-20.5-12.64s-19-8.61-39.82,5.08-11.9,23.6-11.9,23.6l15.32-6.91s9.86-4.53,25.14,2.23c17.62,5.12,29.9,3.85,29.9,3.85Z" transform="translate(-365.17 -341.09)"/><path class="cls-61" d="M970.44,1939.55c-43.44-14.61-84-11.57-104.78-8.7-4,5.08-9.76,13.8-10.28,24.81-2.23,47.95,97.77,64.43,100.43,109,1.77,29.69-42,34-66,98.23-11.5,30.81-6.75,44.09.95,51.67,12.19,12,34.42,12.3,41.18,12.39,58.72.79,147.42-57.48,155.17-135.67C1093.61,2025.79,1041.67,1963.51,970.44,1939.55Z" transform="translate(-365.17 -341.09)"/></g></g></svg>