<svg id="Layer_1" data-name="Layer 1" xmlns="http://www.w3.org/2000/svg" viewBox="0 0 348.01 284.9"><defs><style>.cls-1{fill:#2cce6d;}</style></defs><title>video-icon</title><path class="cls-1" d="M423.81,627.13v16.09a4.43,4.43,0,0,0,4.43,4.43h12v9.82h-12a4.43,4.43,0,0,0-4.43,4.43v16.41a4.43,4.43,0,0,0,4.43,4.44h33.2v164.8h-33.2a4.42,4.42,0,0,0-4.43,4.42v16.09a4.42,4.42,0,0,0,4.43,4.43h12v9.82h-12a4.43,4.43,0,0,0-4.43,4.44v16.41a4.43,4.43,0,0,0,4.43,4.44H767.39a4.43,4.43,0,0,0,4.43-4.44V886.75a4.43,4.43,0,0,0-4.43-4.44H753.27v-9.82h14.12a4.42,4.42,0,0,0,4.43-4.43V852a4.42,4.42,0,0,0-4.43-4.42H730V682.75h37.43a4.43,4.43,0,0,0,4.43-4.44V661.9a4.43,4.43,0,0,0-4.43-4.43H753.27v-9.82h14.12a4.43,4.43,0,0,0,4.43-4.43V627.13a4.43,4.43,0,0,0-4.43-4.44H428.24A4.43,4.43,0,0,0,423.81,627.13Zm8.86,4.43H763v7.23h-14.1a4.43,4.43,0,0,0-4.44,4.43V661.9a4.43,4.43,0,0,0,4.44,4.43H763v7.56h-36.3a4.17,4.17,0,0,0-1.13-.16H698.84a4.1,4.1,0,0,0-1.12.16H496.83a4.23,4.23,0,0,0-1.13-.16H465.87a4,4,0,0,0-1.12.16H432.67v-7.56h12a4.43,4.43,0,0,0,4.43-4.43V643.22a4.43,4.43,0,0,0-4.43-4.43h-12Zm288.42,213.9H703.27V682.58h17.82ZM763,863.63h-14.1a4.43,4.43,0,0,0-4.44,4.43v18.69a4.43,4.43,0,0,0,4.44,4.42H763v7.56H432.67v-7.56h12a4.42,4.42,0,0,0,4.43-4.42V868.06a4.43,4.43,0,0,0-4.43-4.43h-12v-7.24H763Zm-292.65-181h21V845.46h-21Zm30.93,165V682.75H694.4v164.8Z" transform="translate(-423.81 -622.69)"/><path class="cls-1" d="M636.5,666.33h32.86a4.42,4.42,0,0,0,4.42-4.43V643.22a4.42,4.42,0,0,0-4.42-4.43H636.5a4.43,4.43,0,0,0-4.44,4.43V661.9A4.43,4.43,0,0,0,636.5,666.33Zm4.43-18.68h24v9.82h-24Z" transform="translate(-423.81 -622.69)"/><path class="cls-1" d="M580.33,666.33h32.85a4.43,4.43,0,0,0,4.44-4.43V643.22a4.43,4.43,0,0,0-4.44-4.43H580.33a4.43,4.43,0,0,0-4.43,4.43V661.9A4.43,4.43,0,0,0,580.33,666.33Zm4.43-18.68h24v9.82h-24Z" transform="translate(-423.81 -622.69)"/><path class="cls-1" d="M692.67,666.33h32.85A4.43,4.43,0,0,0,730,661.9V643.22a4.43,4.43,0,0,0-4.44-4.43H692.67a4.43,4.43,0,0,0-4.43,4.43V661.9A4.43,4.43,0,0,0,692.67,666.33Zm4.43-18.68h24v9.82h-24Z" transform="translate(-423.81 -622.69)"/><path class="cls-1" d="M465.87,666.33h32.85a4.43,4.43,0,0,0,4.44-4.43V643.22a4.43,4.43,0,0,0-4.44-4.43H465.87a4.43,4.43,0,0,0-4.43,4.43V661.9A4.43,4.43,0,0,0,465.87,666.33Zm4.43-18.68h24v9.82h-24Z" transform="translate(-423.81 -622.69)"/><path class="cls-1" d="M522,666.33h32.86a4.43,4.43,0,0,0,4.43-4.43V643.22a4.43,4.43,0,0,0-4.43-4.43H522a4.43,4.43,0,0,0-4.43,4.43V661.9A4.43,4.43,0,0,0,522,666.33Zm4.44-18.68h24v9.82h-24Z" transform="translate(-423.81 -622.69)"/><path class="cls-1" d="M498.72,863.63H465.87a4.43,4.43,0,0,0-4.43,4.43v18.69a4.42,4.42,0,0,0,4.43,4.42h32.85a4.43,4.43,0,0,0,4.44-4.42V868.06A4.44,4.44,0,0,0,498.72,863.63Zm-4.43,18.68h-24v-9.82h24Z" transform="translate(-423.81 -622.69)"/><path class="cls-1" d="M613.18,863.63H580.33a4.43,4.43,0,0,0-4.43,4.43v18.69a4.42,4.42,0,0,0,4.43,4.42h32.85a4.43,4.43,0,0,0,4.44-4.42V868.06A4.43,4.43,0,0,0,613.18,863.63Zm-4.43,18.68h-24v-9.82h24Z" transform="translate(-423.81 -622.69)"/><path class="cls-1" d="M688.24,868.06v18.69a4.42,4.42,0,0,0,4.43,4.42h32.85a4.43,4.43,0,0,0,4.44-4.42V868.06a4.43,4.43,0,0,0-4.44-4.43H692.67A4.43,4.43,0,0,0,688.24,868.06Zm32.85,14.25h-24v-9.82h24Z" transform="translate(-423.81 -622.69)"/><path class="cls-1" d="M554.89,863.63H522a4.44,4.44,0,0,0-4.43,4.43v18.69a4.43,4.43,0,0,0,4.43,4.42h32.86a4.42,4.42,0,0,0,4.43-4.42V868.06A4.43,4.43,0,0,0,554.89,863.63Zm-4.43,18.68h-24v-9.82h24Z" transform="translate(-423.81 -622.69)"/><path class="cls-1" d="M669.36,863.63H636.5a4.44,4.44,0,0,0-4.44,4.43v18.69a4.43,4.43,0,0,0,4.44,4.42h32.86a4.42,4.42,0,0,0,4.42-4.42V868.06A4.43,4.43,0,0,0,669.36,863.63Zm-4.44,18.68h-24v-9.82h24Z" transform="translate(-423.81 -622.69)"/><path class="cls-1" d="M659.25,758.2,566,695.35a4.43,4.43,0,0,0-6.91,3.66V824.75a4.42,4.42,0,0,0,2.36,3.91,4.32,4.32,0,0,0,2.07.51,4.44,4.44,0,0,0,2.48-.74l93.28-62.87a4.43,4.43,0,0,0,0-7.36Zm-91.33,58.21V707.35l80.93,54.53Z" transform="translate(-423.81 -622.69)"/></svg>