<svg id="Layer_1" data-name="Layer 1" xmlns="http://www.w3.org/2000/svg" viewBox="0 0 566.92 547.85"><defs><style>.cls-1{fill:none;stroke:#fff;stroke-linecap:round;stroke-linejoin:round;stroke-width:3.25px;}</style></defs><title>writing-content</title><polygon class="cls-1" points="420.14 143.55 420.14 1.62 565.3 143.55 420.14 143.55"/><path class="cls-1" d="M911.85,630.71V885.17a13.35,13.35,0,0,0,13.5,13.2H1306.8a13.35,13.35,0,0,0,13.5-13.2V495.69L1175.15,353.77H925.35a13.35,13.35,0,0,0-13.5,13.2v94.68" transform="translate(-755 -352.14)"/><line class="cls-1" x1="354.34" y1="454.33" x2="214.71" y2="454.33"/><line class="cls-1" x1="507.43" y1="454.33" x2="432.63" y2="454.33"/><line class="cls-1" x1="268.11" y1="394.19" x2="214.71" y2="394.19"/><line class="cls-1" x1="507.43" y1="394.19" x2="400.86" y2="394.19"/><line class="cls-1" x1="216.83" y1="334.06" x2="212.59" y2="334.06"/><line class="cls-1" x1="507.43" y1="334.06" x2="371.36" y2="334.06"/><line class="cls-1" x1="507.43" y1="273.93" x2="311.23" y2="273.93"/><line class="cls-1" x1="507.43" y1="213.79" x2="260.17" y2="213.79"/><line class="cls-1" x1="386.1" y1="153.66" x2="214.71" y2="153.66"/><line class="cls-1" x1="379.3" y1="93.53" x2="214.71" y2="93.53"/><polygon class="cls-1" points="356.87 351.42 408.45 458.8 304.12 401.31 1.62 81.47 54.38 31.58 356.87 351.42"/><line class="cls-1" x1="51.52" y1="134.23" x2="103.45" y2="85.12"/><line class="cls-1" x1="71.79" y1="155.66" x2="123.72" y2="106.55"/><polyline class="cls-1" points="304.12 401.31 318.8 364 356.87 351.42"/><line class="cls-1" x1="318.8" y1="364" x2="98.95" y2="131.54"/><line class="cls-1" x1="380.51" y1="439.16" x2="390.4" y2="429.8"/></svg>