<svg id="Layer_1" data-name="Layer 1" xmlns="http://www.w3.org/2000/svg" viewBox="0 0 78.39 61.43"><defs><style>.cls-1{fill:#fff;}</style></defs><title>built-in-traffic</title><path class="cls-1" d="M435.45,281.31a1.28,1.28,0,0,1-1.3-1.29l0-21h-3.92a1.16,1.16,0,0,1-.91-.38,1.25,1.25,0,0,1-.38-.91l0-15.69a8,8,0,0,1,8-8l11.32,0a8,8,0,0,1,8,8l0,15.69a1.34,1.34,0,0,1-.38.92,1.3,1.3,0,0,1-.92.38H451l.05,21a1.3,1.3,0,0,1-1.29,1.3l-14.32,0Zm-.06-24.85a1.28,1.28,0,0,1,1.29,1.29l.06,21,11.73,0-.05-21a1.28,1.28,0,0,1,1.29-1.3h3.91l0-14.39a5.41,5.41,0,0,0-5.41-5.4l-11.35,0a5.42,5.42,0,0,0-5.4,5.42l0,14.4Z" transform="translate(-403.67 -219.9)"/><path class="cls-1" d="M442.61,281.29a1.29,1.29,0,0,1-1.3-1.29l0-18.74a1.29,1.29,0,1,1,2.58,0l0,18.75a1.29,1.29,0,0,1-1.29,1.29Z" transform="translate(-403.67 -219.9)"/><path class="cls-1" d="M435.39,259.05a1.31,1.31,0,0,1-1.3-1.29l0-14a1.3,1.3,0,1,1,2.59,0l0,14a1.3,1.3,0,0,1-1.29,1.3Z" transform="translate(-403.67 -219.9)"/><path class="cls-1" d="M449.71,259a1.29,1.29,0,0,1-1.29-1.29l0-14a1.3,1.3,0,0,1,2.59,0l0,14a1.3,1.3,0,0,1-1.29,1.3Z" transform="translate(-403.67 -219.9)"/><path class="cls-1" d="M449.7,255.36a1.3,1.3,0,0,1,0-2.59h5.21a1.3,1.3,0,0,1,1.3,1.29,1.31,1.31,0,0,1-1.29,1.3H449.7Z" transform="translate(-403.67 -219.9)"/><path class="cls-1" d="M430.17,255.41a1.3,1.3,0,0,1,0-2.59h5.2a1.29,1.29,0,1,1,0,2.58l-5.2,0Z" transform="translate(-403.67 -219.9)"/><path class="cls-1" d="M442.63,233.27c-1.35,0-3.29-.62-4.8-3.44a10.87,10.87,0,0,1-1.19-5v-1.55a1.32,1.32,0,0,1,.18-.67,7.88,7.88,0,0,1,5.93-2.72,8.64,8.64,0,0,1,4.07,1c1,.52,2.11,1.37,2.11,2.46v1.41a10.73,10.73,0,0,1-1.17,5c-1.54,2.93-3.58,3.53-5,3.46Zm-3.4-9.48v1a8,8,0,0,0,.89,3.78c.74,1.4,1.61,2.11,2.65,2.07s2-.68,2.71-2.08a8.23,8.23,0,0,0,.87-3.79v-1.08a5.71,5.71,0,0,0-3.57-1.24A5.88,5.88,0,0,0,439.23,223.79Z" transform="translate(-403.67 -219.9)"/><path class="cls-1" d="M467,275.21a5.82,5.82,0,0,1-4.89-9,1.3,1.3,0,0,1,2.18,1.41,3.23,3.23,0,1,0,5.94,1.74,3.25,3.25,0,0,0-1-2.28,3.2,3.2,0,0,0-2.28-.94,3.75,3.75,0,0,0-.82.1,1.29,1.29,0,0,1-.65-2.5,5.57,5.57,0,0,1,1.46-.19,5.82,5.82,0,0,1,0,11.63Z" transform="translate(-403.67 -219.9)"/><path class="cls-1" d="M475.05,261a7,7,0,0,1-2.72-.54,1.3,1.3,0,0,1,1-2.39,4.37,4.37,0,0,0,1.72.35,4.43,4.43,0,0,0,3.11-7.57,4.15,4.15,0,0,0-3.13-1.29,4.43,4.43,0,0,0-4.12,6,1.3,1.3,0,0,1-2.42.93,7,7,0,1,1,6.57,4.5Z" transform="translate(-403.67 -219.9)"/><path class="cls-1" d="M463.36,245.49a5.12,5.12,0,0,1-3.63-8.74,5.13,5.13,0,0,1,8.76,3.6,4.86,4.86,0,0,1-.34,1.85,1.29,1.29,0,1,1-2.41-.93,2.53,2.53,0,0,0,.17-.91,2.55,2.55,0,0,0-5.09,0,2.54,2.54,0,0,0,.75,1.8,2.56,2.56,0,0,0,1.79.74,2.73,2.73,0,0,0,1-.2,1.29,1.29,0,1,1,1,2.38,4.94,4.94,0,0,1-2,.4Z" transform="translate(-403.67 -219.9)"/><path class="cls-1" d="M471.41,232.19a5.67,5.67,0,0,1-3.52-10.13,1.3,1.3,0,1,1,1.61,2,3.08,3.08,0,1,0,1.91-.67,1.3,1.3,0,0,1,0-2.59,5.67,5.67,0,0,1,5.69,5.66,5.68,5.68,0,0,1-5.66,5.7Z" transform="translate(-403.67 -219.9)"/><path class="cls-1" d="M454.85,232.23a1.3,1.3,0,0,1,0-2.59h4.32v-3.09a1.3,1.3,0,0,1,1.29-1.3H467a1.29,1.29,0,1,1,0,2.58l-5.28,0v3.09a1.31,1.31,0,0,1-1.29,1.3h-5.62Z" transform="translate(-403.67 -219.9)"/><path class="cls-1" d="M454.88,241.68a1.3,1.3,0,1,1,0-2.59h4.65a1.3,1.3,0,1,1,0,2.59Z" transform="translate(-403.67 -219.9)"/><path class="cls-1" d="M458.89,258.92a1.3,1.3,0,0,1,0-2.59h2.27V254a1.25,1.25,0,0,1,.37-.92,1.3,1.3,0,0,1,.92-.38l6.88,0a1.3,1.3,0,1,1,0,2.59h-5.59v2.29a1.25,1.25,0,0,1-.37.92,1.32,1.32,0,0,1-.92.38Z" transform="translate(-403.67 -219.9)"/><path class="cls-1" d="M453.51,270.72a1.29,1.29,0,1,1,0-2.58l9,0a1.3,1.3,0,0,1,0,2.59l-9,0Z" transform="translate(-403.67 -219.9)"/><path class="cls-1" d="M418.8,275.33a5.82,5.82,0,0,1,0-11.63,5.28,5.28,0,0,1,1.45.18,1.3,1.3,0,0,1-.64,2.51,2.25,2.25,0,0,0-.8-.1,3.22,3.22,0,0,0-2.28.95,3.23,3.23,0,0,0,2.28,5.5,3.23,3.23,0,0,0,3.23-3.23,3.18,3.18,0,0,0-.52-1.75,1.29,1.29,0,0,1,2.16-1.42,5.81,5.81,0,0,1-4.85,9Z" transform="translate(-403.67 -219.9)"/><path class="cls-1" d="M410.68,261.18a7,7,0,1,1,6.57-4.54,1.3,1.3,0,0,1-1.67.75,1.28,1.28,0,0,1-.75-1.66,4.74,4.74,0,0,0,.28-1.58,4.43,4.43,0,0,0-8.85,0,4.36,4.36,0,0,0,1.3,3.12,4.4,4.4,0,0,0,3.12,1.29,5.08,5.08,0,0,0,1.73-.35,1.29,1.29,0,0,1,1,2.38,6.91,6.91,0,0,1-2.73.56Z" transform="translate(-403.67 -219.9)"/><path class="cls-1" d="M422.29,245.6a5.09,5.09,0,0,1-2-.39,1.31,1.31,0,0,1-.7-1.7,1.29,1.29,0,0,1,1.69-.69,2.54,2.54,0,1,0-1.56-2.34,2.58,2.58,0,0,0,.17.91,1.29,1.29,0,1,1-2.41.94,5.07,5.07,0,0,1-.35-1.85,5.13,5.13,0,1,1,5.14,5.12Z" transform="translate(-403.67 -219.9)"/><path class="cls-1" d="M414.17,232.33a5.68,5.68,0,0,1-4-9.68,5.6,5.6,0,0,1,4-1.67,1.3,1.3,0,1,1,0,2.59,3.09,3.09,0,0,0-3.08,3.09,3.09,3.09,0,0,0,6.18,0,3.07,3.07,0,0,0-1.18-2.43,1.29,1.29,0,0,1,1.59-2,5.68,5.68,0,0,1-3.48,10.15Z" transform="translate(-403.67 -219.9)"/><path class="cls-1" d="M425.14,232.31a1.3,1.3,0,0,1-1.29-1.3v-3.08h-5.28a1.3,1.3,0,0,1,0-2.59l6.58,0a1.31,1.31,0,0,1,1.3,1.29v3.09h4.32a1.3,1.3,0,0,1,0,2.59l-5.61,0Z" transform="translate(-403.67 -219.9)"/><path class="cls-1" d="M426.13,241.75a1.29,1.29,0,0,1-1.3-1.29,1.31,1.31,0,0,1,1.29-1.3h4.65a1.31,1.31,0,0,1,1.3,1.29,1.3,1.3,0,0,1-1.29,1.3Z" transform="translate(-403.67 -219.9)"/><path class="cls-1" d="M423.29,259a1.29,1.29,0,0,1-.91-.37,1.34,1.34,0,0,1-.38-.92v-2.29h-5.58a1.29,1.29,0,1,1,0-2.58l6.88,0a1.63,1.63,0,0,1,.92.37,1.34,1.34,0,0,1,.38.92v2.29h2.27a1.3,1.3,0,1,1,0,2.59h-3.57Z" transform="translate(-403.67 -219.9)"/><path class="cls-1" d="M423.32,270.8a1.3,1.3,0,0,1,0-2.59l9,0a1.3,1.3,0,0,1,0,2.59l-9,0Z" transform="translate(-403.67 -219.9)"/><path class="cls-1" d="M428.24,281.33a1.3,1.3,0,0,1,0-2.59l29.37-.07a1.3,1.3,0,1,1,0,2.59l-29.36.07Z" transform="translate(-403.67 -219.9)"/></svg>