<svg xmlns="http://www.w3.org/2000/svg" viewBox="0 0 91.91 86.9"><defs><style>.cls-1{isolation:isolate;}.cls-2{fill:#fd425f;}.cls-3{fill:#e42244;}.cls-4{fill:#110239;}.cls-5{fill:#d0d1de;}.cls-6{fill:#453964;}.cls-7{fill:#f88667;}.cls-8{fill:#e45940;}.cls-9{fill:#00bad1;}.cls-10{fill:#00547a;opacity:0.32;mix-blend-mode:multiply;}.cls-11{fill:#bd1337;}</style></defs><title>enter-link</title><g class="cls-1"><g id="Layer_1" data-name="Layer 1"><path class="cls-2" d="M376.3,140.83s4.54,1,9.77,5.57l-6.28,11.45a13.36,13.36,0,0,0-6.43-3.44Z" transform="translate(-294.16 -133.2)"/><path class="cls-3" d="M377.43,148.09c.55-2.05,1-4.13,1.53-6.18a19,19,0,0,0-2.66-1.08l-2.94,13.58c1.64-1.43,2.08-.89,2.37-1C376.22,151.61,377,149.85,377.43,148.09Z" transform="translate(-294.16 -133.2)"/><path class="cls-2" d="M351.75,134.58s17.74-1.77,27.6,3.33l-3.62,15.46s-8.7-4.67-23.14-2.67Z" transform="translate(-294.16 -133.2)"/><rect class="cls-4" x="57.57" width="1.42" height="60.8"/><rect class="cls-4" x="56.49" y="58.97" width="3.59" height="2.85"/><rect class="cls-4" x="55.09" y="61.2" width="6.39" height="1.43"/><path class="cls-5" d="M326.34,160.1v10.14h2.53V163.1a1.31,1.31,0,0,1,1.31-1.31h10.87a1.3,1.3,0,0,1,1.3,1.31v7.14h2.53V160.1a1.3,1.3,0,0,0-1.3-1.3H327.65A1.31,1.31,0,0,0,326.34,160.1Z" transform="translate(-294.16 -133.2)"/><rect class="cls-4" y="33.6" width="82.91" height="53.3" rx="4.44"/><path class="cls-6" d="M377.07,181.65v-10.4a4.44,4.44,0,0,0-4.44-4.45h-74a4.44,4.44,0,0,0-4.44,4.45v10.4a11.44,11.44,0,0,0,11.44,11.44h60A11.44,11.44,0,0,0,377.07,181.65Z" transform="translate(-294.16 -133.2)"/><rect class="cls-5" x="38.82" y="57.49" width="5.27" height="5.99"/><rect class="cls-4" x="40.6" y="60.36" width="1.7" height="1.48"/><path class="cls-7" d="M314,140.41h-2.78s-.4,3.78-1.12,4.23c0,0-.89,4.47,2.51,4.47,4.12,0,2.51-4.47,2.51-4.47C314.39,144.19,314,140.41,314,140.41Z" transform="translate(-294.16 -133.2)"/><path class="cls-8" d="M314,140.41h-2.78s-.4,3.78-1.12,4.23c0,0-.89,4.47,2.51,4.47,4.12,0,2.51-4.47,2.51-4.47C314.39,144.19,314,140.41,314,140.41Z" transform="translate(-294.16 -133.2)"/><path class="cls-7" d="M316.21,141.15c-.39-.44-.85.23-.85.23s.64-2.5,0-3.59-2.69-.52-2.69-.52-2.06-.58-2.69.52,0,3.59,0,3.59-.46-.67-.85-.23.64,1.56.87,1.69c0,0,1.48,2.77,2.67,2.77s2.67-2.77,2.67-2.77C315.57,142.71,316.59,141.59,316.21,141.15Z" transform="translate(-294.16 -133.2)"/><path class="cls-4" d="M312.15,138.26s-1.56.27-1.73,1.11a3.51,3.51,0,0,0,.08,1.25,8.91,8.91,0,0,1,.14,1.37.23.23,0,0,1-.2,0,3,3,0,0,1-.53-.64c-.3-.43-.72-.36-.84-.08,0,0-.35-4.11,1.37-4.25S312.15,138.26,312.15,138.26Z" transform="translate(-294.16 -133.2)"/><path class="cls-4" d="M313.17,138.26s1.55.27,1.73,1.11a3.3,3.3,0,0,1-.09,1.25,7.66,7.66,0,0,0-.13,1.37.24.24,0,0,0,.2,0,3,3,0,0,0,.53-.64c.29-.43.72-.36.84-.08,0,0,.35-4.11-1.37-4.25S313.17,138.26,313.17,138.26Z" transform="translate(-294.16 -133.2)"/><path class="cls-4" d="M315.74,137.57a2,2,0,0,0-1.13-1.37,5.15,5.15,0,0,0-3.3-.19,2.15,2.15,0,0,0-1.39,3.48,2.69,2.69,0,0,0,2,.77C314.94,140.26,316.2,138.48,315.74,137.57Z" transform="translate(-294.16 -133.2)"/><path class="cls-9" d="M315.11,144.64c-.15,3.8-2.51,3.41-2.51,3.41s-2.37.39-2.51-3.41a25.5,25.5,0,0,0-5.62,2.28,36.72,36.72,0,0,1,.83,7l2.16,8.36,5.14.25,5.13-.25,2.16-8.36a36.25,36.25,0,0,1,.84-7A25.5,25.5,0,0,0,315.11,144.64Z" transform="translate(-294.16 -133.2)"/><path class="cls-10" d="M319.52,149.11c-2.35,1.25-3.49,4.13-5.77,5.54s-4-1.49-5.17-3a8.87,8.87,0,0,0-3.78-3,34.71,34.71,0,0,1,.5,5.29l2.16,8.36,5.14.25,5.13-.25,2.16-8.36a37,37,0,0,1,.49-5.21C320.09,148.84,319.79,149,319.52,149.11Z" transform="translate(-294.16 -133.2)"/><path class="cls-2" d="M322.12,165.67c0-2.94-3.64-4.87-3.64-4.87H306.25s-3.64,1.93-3.64,4.87a14,14,0,0,0,.3,2.26H307c-.17.3-.32.58-.44.81a2.12,2.12,0,0,1-.11.21h3c.22,0,.15.09.08-.24s-.38-.73-.09-1.22a2.81,2.81,0,0,1,1.75-.71h2.2a2.85,2.85,0,0,1,.72.12c.2,0,.82,0,1.08.33a1.34,1.34,0,0,1,.21.71,5.89,5.89,0,0,1-.11,1h3.7c-.28-.37-.51-.7-.71-1h3.62A14.94,14.94,0,0,0,322.12,165.67Z" transform="translate(-294.16 -133.2)"/><path class="cls-11" d="M322.12,165.67c0-2.94-3.64-4.87-3.64-4.87H306.25s-3.64,1.93-3.64,4.87a14,14,0,0,0,.3,2.26H307c-.17.3-.32.58-.44.81a2.12,2.12,0,0,1-.11.21h3c.22,0,.15.09.08-.24s-.38-.73-.09-1.22a2.81,2.81,0,0,1,1.75-.71h2.2a2.85,2.85,0,0,1,.72.12c.2,0,.82,0,1.08.33a1.34,1.34,0,0,1,.21.71,5.89,5.89,0,0,1-.11,1h3.7c-.28-.37-.51-.7-.71-1h3.62A14.94,14.94,0,0,0,322.12,165.67Z" transform="translate(-294.16 -133.2)"/><path class="cls-9" d="M304.47,146.92s-4.67,10.09-4.33,11.44c.08.33,5.77,3.76,8.44,3.27l1.09-.2S305.7,146.85,304.47,146.92Z" transform="translate(-294.16 -133.2)"/><path class="cls-9" d="M320.72,146.92s4.67,10.09,4.33,11.44c-.08.33-5.77,3.76-8.44,3.27l-1.09-.2S319.49,146.85,320.72,146.92Z" transform="translate(-294.16 -133.2)"/><path class="cls-10" d="M306.29,150.45a7.1,7.1,0,0,1-.18,1.47c-.41,1.83-1.06,3.73-.38,5.59a30.11,30.11,0,0,0,2.11,4.16,3,3,0,0,0,.74,0l1.09-.2S307.85,154.75,306.29,150.45Z" transform="translate(-294.16 -133.2)"/><path class="cls-10" d="M318.17,161.58a6.61,6.61,0,0,0,.51-2.69c-.06-1.86-.07-3.73,0-5.59,0-.81,0-1.59.08-2.35-1.51,4.29-3.2,10.48-3.2,10.48l1.09.2A4.63,4.63,0,0,0,318.17,161.58Z" transform="translate(-294.16 -133.2)"/><path d="M307.94,183.13a50.8,50.8,0,0,0-3.31,4.28c-.35.75.5,1.69,1.65,1.31s1.83-1.17,1.85-1.67.63-.77.9-.81,1.81-1.79,1.66-2.27a2.88,2.88,0,0,0-.93-1Z" transform="translate(-294.16 -133.2)"/><path d="M316.8,183.13a51,51,0,0,1,3.3,4.28c.35.75-.5,1.69-1.65,1.31s-1.83-1.17-1.85-1.67-.63-.77-.9-.81-1.81-1.79-1.66-2.27a2.88,2.88,0,0,1,.93-1Z" transform="translate(-294.16 -133.2)"/><path class="cls-2" d="M309,165.51c-.35-.84-.42-2.61-2.8-2.61-4.57,0-3.5,3.66-3.43,4.21.69,5.46,4,16.36,4,16.36h4.59s-1.67-13.35-1.93-15.41A13.37,13.37,0,0,0,309,165.51Z" transform="translate(-294.16 -133.2)"/><path class="cls-2" d="M315.77,165.51c.35-.84.42-2.61,2.8-2.61,4.58,0,3.5,3.66,3.43,4.21-.69,5.46-4,16.36-4,16.36h-4.58s1.66-13.35,1.92-15.41A15.17,15.17,0,0,1,315.77,165.51Z" transform="translate(-294.16 -133.2)"/><rect class="cls-4" x="11.71" y="28.35" width="13.46" height="0.8"/><path class="cls-4" d="M321.31,152.22H303.89a.8.8,0,0,0-.78,1c.16,1.05,2.36,8.39,2.8,8.39h13.38c.39,0,2.64-7.34,2.8-8.39A.8.8,0,0,0,321.31,152.22Z" transform="translate(-294.16 -133.2)"/><path class="cls-5" d="M313.32,157.29a.72.72,0,1,1-.72-.72A.73.73,0,0,1,313.32,157.29Z" transform="translate(-294.16 -133.2)"/><polygon class="cls-5" points="36.4 73.62 37.21 76.11 39.83 76.11 37.71 77.65 38.52 80.13 36.4 78.6 34.29 80.13 35.09 77.65 32.98 76.11 35.59 76.11 36.4 73.62"/><polygon class="cls-5" points="45.74 73.62 46.55 76.11 49.17 76.11 47.05 77.65 47.86 80.13 45.74 78.6 43.63 80.13 44.44 77.65 42.32 76.11 44.94 76.11 45.74 73.62"/><polygon class="cls-5" points="55.09 73.62 55.9 76.11 58.51 76.11 56.39 77.65 57.2 80.13 55.09 78.6 52.97 80.13 53.78 77.65 51.66 76.11 54.28 76.11 55.09 73.62"/><polygon class="cls-5" points="64.43 73.62 65.24 76.11 67.85 76.11 65.74 77.65 66.55 80.13 64.43 78.6 62.31 80.13 63.12 77.65 61.01 76.11 63.62 76.11 64.43 73.62"/><polygon class="cls-5" points="73.77 73.62 74.58 76.11 77.19 76.11 75.08 77.65 75.89 80.13 73.77 78.6 71.66 80.13 72.46 77.65 70.35 76.11 72.96 76.11 73.77 73.62"/></g></g></svg>