<svg id="Layer_1" data-name="Layer 1" xmlns="http://www.w3.org/2000/svg" viewBox="0 0 49.73 49.73"><defs><style>.cls-1{fill:#fff;}</style></defs><title>gears-moving</title><path class="cls-1" d="M320.93,206.36a.84.84,0,0,1-.75-.46.85.85,0,0,1,.37-1.14l2.14-1.1a19.91,19.91,0,0,1-8.51-5.07l-.08-.09-.11-.09a20.07,20.07,0,0,1-5.68-17.24.84.84,0,1,1,1.67.24,18.37,18.37,0,0,0,5.21,15.8l.1.09.08.09a18.27,18.27,0,0,0,9.9,5.14.85.85,0,0,1,.24,1.59l-4.19,2.15A.92.92,0,0,1,320.93,206.36Z" transform="translate(-303.53 -159.33)"/><path class="cls-1" d="M318.56,184.13h-5.27a.85.85,0,0,1-.84-.84v-2.48c-.16-.06-.33-.12-.48-.19l-1.75,1.74a.87.87,0,0,1-1.2,0l-3.72-3.72a.85.85,0,0,1,0-1.2l1.75-1.74c-.07-.16-.14-.32-.2-.49h-2.48a.85.85,0,0,1-.84-.84V169.1a.85.85,0,0,1,.84-.85h2.48c.06-.16.13-.32.2-.48L305.3,166a.83.83,0,0,1,0-1.19L309,161.1a.87.87,0,0,1,1.2,0l1.75,1.75.48-.2v-2.47a.85.85,0,0,1,.84-.85h5.27a.85.85,0,0,1,.85.85v2.47l.48.2,1.75-1.75a.86.86,0,0,1,1.19,0l3.73,3.73a.83.83,0,0,1,0,1.19l-1.75,1.75c.07.16.14.32.2.48h2.47a.85.85,0,0,1,.85.85v5.27a.85.85,0,0,1-.85.84H325c-.06.17-.13.33-.2.49l1.75,1.74a.85.85,0,0,1,0,1.2l-3.73,3.72a.82.82,0,0,1-.59.25.84.84,0,0,1-.6-.25l-1.75-1.74-.48.19v2.48a.86.86,0,0,1-.25.6A.87.87,0,0,1,318.56,184.13Zm-4.42-1.69h3.58v-2.23a.85.85,0,0,1,.59-.81,7.44,7.44,0,0,0,1.36-.55.83.83,0,0,1,1,.15l1.58,1.57,2.53-2.53-1.58-1.57a.85.85,0,0,1-.15-1,8.25,8.25,0,0,0,.56-1.36.85.85,0,0,1,.81-.6h2.23v-3.58h-2.23a.85.85,0,0,1-.81-.59A8.25,8.25,0,0,0,323,168a.85.85,0,0,1,.15-1l1.58-1.57-2.53-2.54-1.58,1.58a.85.85,0,0,1-1,.15,7.91,7.91,0,0,0-1.36-.56.84.84,0,0,1-.59-.8V161h-3.58v2.24a.83.83,0,0,1-.6.8,7.8,7.8,0,0,0-1.35.56.85.85,0,0,1-1-.15l-1.58-1.58-2.53,2.54,1.57,1.57a.84.84,0,0,1,.16,1,8.25,8.25,0,0,0-.56,1.36.85.85,0,0,1-.81.59h-2.23v3.58h2.23a.85.85,0,0,1,.81.6,9.2,9.2,0,0,0,.55,1.36.82.82,0,0,1-.15,1L307.09,178l2.53,2.53L311.2,179a.82.82,0,0,1,1-.15,7.34,7.34,0,0,0,1.35.55.85.85,0,0,1,.6.81Z" transform="translate(-303.53 -159.33)"/><path class="cls-1" d="M315.93,178.61a6.88,6.88,0,1,1,4.86-2A6.85,6.85,0,0,1,315.93,178.61Zm0-12.06a5.17,5.17,0,1,0,3.67,1.51A5.18,5.18,0,0,0,315.93,166.55Z" transform="translate(-303.53 -159.33)"/><path class="cls-1" d="M343.49,209.06h-5.26a.84.84,0,0,1-.85-.84v-2.48c-.16-.06-.33-.12-.48-.19l-1.75,1.74a.85.85,0,0,1-1.2,0l-3.72-3.72a.84.84,0,0,1-.25-.6.86.86,0,0,1,.25-.6l1.75-1.74c-.07-.16-.14-.32-.2-.49H329.3a.84.84,0,0,1-.84-.84V194a.85.85,0,0,1,.84-.85h2.48c.06-.16.13-.32.2-.48L330.23,191a.84.84,0,0,1,0-1.19L334,186a.89.89,0,0,1,1.2,0l1.75,1.75.48-.2v-2.47a.85.85,0,0,1,.85-.85h5.26a.85.85,0,0,1,.85.85v2.47l.48.2,1.75-1.75a.88.88,0,0,1,1.19,0l3.73,3.73a.84.84,0,0,1,0,1.19l-1.75,1.75c.07.16.14.32.2.48h2.47a.85.85,0,0,1,.85.85v5.27a.84.84,0,0,1-.85.84h-2.47c-.06.17-.13.33-.2.49l1.75,1.74a.86.86,0,0,1,.25.6.84.84,0,0,1-.25.6l-3.73,3.72a.84.84,0,0,1-1.19,0l-1.75-1.74-.48.19v2.48A.84.84,0,0,1,343.49,209.06Zm-4.42-1.69h3.58v-2.23a.85.85,0,0,1,.59-.81,7.16,7.16,0,0,0,1.36-.55.83.83,0,0,1,1,.15l1.58,1.57L349.7,203l-1.58-1.57a.86.86,0,0,1-.15-1,7.8,7.8,0,0,0,.56-1.35.85.85,0,0,1,.81-.6h2.23v-3.58h-2.23a.85.85,0,0,1-.81-.59,8.25,8.25,0,0,0-.56-1.36.85.85,0,0,1,.15-1l1.58-1.57-2.53-2.54-1.58,1.58a.85.85,0,0,1-1,.15,7.91,7.91,0,0,0-1.36-.56.84.84,0,0,1-.59-.8V186h-3.58v2.24a.84.84,0,0,1-.59.8,7.59,7.59,0,0,0-1.36.56.85.85,0,0,1-1-.15l-1.58-1.58L332,190.36l1.58,1.57a.85.85,0,0,1,.15,1,8.25,8.25,0,0,0-.56,1.36.85.85,0,0,1-.81.59h-2.23v3.58h2.23a.85.85,0,0,1,.81.6,7.8,7.8,0,0,0,.56,1.35.86.86,0,0,1-.15,1L332,203l2.53,2.53,1.58-1.57a.82.82,0,0,1,1-.15,7.16,7.16,0,0,0,1.36.55.85.85,0,0,1,.59.81Z" transform="translate(-303.53 -159.33)"/><path class="cls-1" d="M340.86,203.54a6.88,6.88,0,1,1,4.86-2A6.85,6.85,0,0,1,340.86,203.54ZM337.19,193a5.19,5.19,0,1,0,3.67-1.52,5.19,5.19,0,0,0-3.67,1.52Z" transform="translate(-303.53 -159.33)"/><path class="cls-1" d="M347.64,188h-.12a.84.84,0,0,1-.71-1,18.37,18.37,0,0,0-5.21-15.8.43.43,0,0,1-.1-.09l-.09-.09a18.34,18.34,0,0,0-9.89-5.14.83.83,0,0,1-.69-.7.85.85,0,0,1,.45-.88l4.19-2.15a.85.85,0,0,1,1.14.37.84.84,0,0,1-.37,1.13l-2.14,1.1a20.17,20.17,0,0,1,8.51,5.07l.08.1.09.08a20,20,0,0,1,5.7,17.25A.84.84,0,0,1,347.64,188Z" transform="translate(-303.53 -159.33)"/><path class="cls-1" d="M334.68,169.84a.82.82,0,0,1-.67-.33l-3-4a.85.85,0,0,1,1.35-1l3,4a.84.84,0,0,1-.16,1.18A.8.8,0,0,1,334.68,169.84Z" transform="translate(-303.53 -159.33)"/><path class="cls-1" d="M325.12,204.21a.84.84,0,0,1-.67-.33l-3-4a.83.83,0,0,1,.16-1.18.83.83,0,0,1,1.18.16l3,4a.84.84,0,0,1-.17,1.18A.87.87,0,0,1,325.12,204.21Z" transform="translate(-303.53 -159.33)"/></svg>