<svg id="Layer_1" data-name="Layer 1" xmlns="http://www.w3.org/2000/svg" viewBox="0 0 468 350.42"><defs><style>.cls-1{fill:#fff;}.cls-2{fill:#f7ad68;}.cls-3{fill:#ffcb80;}.cls-4{fill:#337d7f;}.cls-5{fill:#fdac29;}.cls-6{fill:#ea4336;}.cls-7{fill:#ff7364;}.cls-8{fill:#602929;}.cls-9{fill:#9b4e4e;}.cls-10{fill:#ffb15c;}.cls-11{fill:#ef8b46;}.cls-12{fill:#ffaf22;}.cls-13{fill:#ea8915;}.cls-14{fill:#ffe67b;}.cls-15{fill:#ffcd82;}.cls-16{fill:#ec8b37;}.cls-17{fill:#1b5e5e;}.cls-18{fill:#4f2d3d;}.cls-19{fill:#775763;}.cls-20{fill:#ff7e69;}.cls-21{fill:#d74b3c;}.cls-22{fill:#1c1938;}.cls-23{fill:#ffba97;}.cls-24{fill:#f1614d;}.cls-25{fill:#fab068;}.cls-26{fill:#ba4e46;}.cls-27{fill:#ed8c37;}.cls-28{fill:#299872;}.cls-29{fill:#00555e;}.cls-30{fill:#5b0d39;}.cls-31{fill:#ed8e40;}.cls-32{fill:#af4f08;}.cls-33{fill:#2d061d;}.cls-34{fill:#00afaf;}.cls-35{fill:#300c21;}.cls-36{fill:#299772;}.cls-37{fill:#106645;}.cls-38{fill:#18845d;}.cls-39{fill:#4bb2a1;}</style></defs><title>more-money-no-eff</title><rect class="cls-1" x="357.64" y="137.91" width="108.05" height="72.91" rx="4.45"/><path class="cls-2" d="M524.87,301.84H425.73a5.37,5.37,0,0,1-5.37-5.36v-64a5.37,5.37,0,0,1,5.37-5.36h99.14a5.37,5.37,0,0,1,5.37,5.36v64A5.37,5.37,0,0,1,524.87,301.84Zm-99.14-72.91a3.55,3.55,0,0,0-3.54,3.54v64a3.55,3.55,0,0,0,3.54,3.54h99.14a3.54,3.54,0,0,0,3.54-3.54v-64a3.54,3.54,0,0,0-3.54-3.54Z" transform="translate(-63.64 -90.11)"/><path class="cls-2" d="M362.33,137.91H461a4.69,4.69,0,0,1,4.69,4.69v6.75a0,0,0,0,1,0,0h-108a0,0,0,0,1,0,0V142.6A4.69,4.69,0,0,1,362.33,137.91Z"/><path class="cls-3" d="M509.26,233.74a1.83,1.83,0,1,1-1.83-1.83A1.83,1.83,0,0,1,509.26,233.74Z" transform="translate(-63.64 -90.11)"/><path class="cls-3" d="M501.73,233.74a1.84,1.84,0,1,1-1.84-1.83A1.84,1.84,0,0,1,501.73,233.74Z" transform="translate(-63.64 -90.11)"/><path class="cls-3" d="M516.8,233.74a1.83,1.83,0,1,1-1.83-1.83A1.83,1.83,0,0,1,516.8,233.74Z" transform="translate(-63.64 -90.11)"/><rect class="cls-4" x="368.6" y="193.79" width="2.79" height="11.19"/><rect class="cls-4" x="375.95" y="188.93" width="2.79" height="16.05"/><rect class="cls-4" x="383.3" y="196.57" width="2.79" height="8.41"/><rect class="cls-4" x="390.65" y="187.54" width="2.79" height="17.44"/><rect class="cls-4" x="397.99" y="199.34" width="2.79" height="5.64"/><rect class="cls-4" x="405.34" y="191.01" width="2.79" height="13.97"/><rect class="cls-4" x="412.69" y="181.98" width="2.79" height="23"/><rect class="cls-4" x="420.04" y="186.15" width="2.79" height="18.83"/><rect class="cls-4" x="427.39" y="188.23" width="2.79" height="16.75"/><rect class="cls-4" x="434.74" y="181.98" width="2.79" height="23"/><rect class="cls-4" x="442.09" y="179.9" width="2.79" height="25.08"/><rect class="cls-4" x="449.44" y="178.51" width="2.79" height="26.47"/><rect class="cls-5" x="368.6" y="178.92" width="2.79" height="12.97"/><rect class="cls-5" x="375.95" y="181.29" width="2.79" height="6.01"/><rect class="cls-5" x="383.3" y="184.45" width="2.79" height="10.6"/><rect class="cls-5" x="390.65" y="179.71" width="2.79" height="6.01"/><rect class="cls-5" x="397.99" y="182.87" width="2.79" height="15.34"/><rect class="cls-5" x="405.34" y="183.66" width="2.79" height="6.01"/><rect class="cls-5" x="412.69" y="171.21" width="2.79" height="8.17"/><rect class="cls-5" x="420.04" y="177.33" width="2.79" height="6.01"/><rect class="cls-5" x="427.39" y="182.87" width="2.79" height="3.64"/><rect class="cls-5" x="434.74" y="177.65" width="2.79" height="2.84"/><rect class="cls-5" x="442.09" y="172.28" width="2.79" height="5.84"/><rect class="cls-5" x="449.44" y="169.7" width="2.79" height="6.84"/><path class="cls-5" d="M460.39,266.55h-12L444.78,263H432.24a.24.24,0,0,1-.24-.24.23.23,0,0,1,.24-.23H445l3.59,3.59h11.62l13.64-13.64h13.74l7,7h7.51l5.89-5.89h10.41a.24.24,0,0,1,.24.24.23.23,0,0,1-.24.23H508.16l-5.89,5.9h-7.9l-7-7H474Z" transform="translate(-63.64 -90.11)"/><path class="cls-5" d="M445.51,262.72a.65.65,0,1,1-.65-.65A.65.65,0,0,1,445.51,262.72Z" transform="translate(-63.64 -90.11)"/><path class="cls-5" d="M449.15,266.31a.66.66,0,1,1-.65-.65A.66.66,0,0,1,449.15,266.31Z" transform="translate(-63.64 -90.11)"/><path class="cls-5" d="M460.94,266.31a.65.65,0,1,1-.65-.65A.65.65,0,0,1,460.94,266.31Z" transform="translate(-63.64 -90.11)"/><path class="cls-5" d="M474.6,252.67a.67.67,0,0,1-.66.66.66.66,0,0,1-.65-.66.65.65,0,0,1,.65-.65A.66.66,0,0,1,474.6,252.67Z" transform="translate(-63.64 -90.11)"/><path class="cls-5" d="M488.12,252.67a.65.65,0,1,1-1.3,0,.65.65,0,1,1,1.3,0Z" transform="translate(-63.64 -90.11)"/><circle class="cls-5" cx="430.76" cy="169.5" r="0.65"/><circle class="cls-5" cx="438.53" cy="169.5" r="0.65"/><path class="cls-5" d="M508.75,253.89a.65.65,0,0,1-.65.65.65.65,0,1,1,0-1.3A.65.65,0,0,1,508.75,253.89Z" transform="translate(-63.64 -90.11)"/><polygon class="cls-4" points="405.4 173.08 385.46 165.44 368.6 165.44 368.6 164.96 385.59 164.98 405.29 172.53 421.43 157.61 435.86 157.61 438.76 160.51 443.71 160.51 449.39 154.82 454.73 154.82 454.73 155.3 449.59 155.3 443.9 160.98 438.56 160.98 435.67 158.09 421.61 158.09 405.4 173.08"/><path class="cls-4" d="M450.05,255.4a.69.69,0,1,1-.69-.68A.68.68,0,0,1,450.05,255.4Z" transform="translate(-63.64 -90.11)"/><path class="cls-4" d="M469.66,262.92a.68.68,0,1,1-.68-.69A.68.68,0,0,1,469.66,262.92Z" transform="translate(-63.64 -90.11)"/><path class="cls-4" d="M485.82,248.08a.68.68,0,1,1-.68-.68A.67.67,0,0,1,485.82,248.08Z" transform="translate(-63.64 -90.11)"/><path class="cls-4" d="M500.12,248.08a.68.68,0,1,1-1.36,0,.68.68,0,1,1,1.36,0Z" transform="translate(-63.64 -90.11)"/><path class="cls-4" d="M503.09,250.85a.69.69,0,1,1-.68-.68A.69.69,0,0,1,503.09,250.85Z" transform="translate(-63.64 -90.11)"/><path class="cls-4" d="M508.13,250.85a.69.69,0,0,1-1.37,0,.69.69,0,0,1,1.37,0Z" transform="translate(-63.64 -90.11)"/><path class="cls-4" d="M513.76,245.17a.69.69,0,1,1-.69-.68A.68.68,0,0,1,513.76,245.17Z" transform="translate(-63.64 -90.11)"/><path class="cls-6" d="M315.74,249.87S300.48,226.51,265,235.23l21.49,38.62Z" transform="translate(-63.64 -90.11)"/><circle class="cls-7" cx="364.23" cy="321.85" r="97.45" transform="translate(-140.6 435.7) rotate(-66.28)"/><rect class="cls-7" x="186.58" y="219.74" width="58.09" height="46.56" rx="6.58"/><path class="cls-7" d="M285,361.27l-17.93,8.83a5,5,0,0,1-6.63-2.26h0a5,5,0,0,1,2.26-6.62l17.92-8.83a5,5,0,0,1,6.63,2.25h0A5,5,0,0,1,285,361.27Z" transform="translate(-63.64 -90.11)"/><path class="cls-7" d="M336.86,236.4s-16.34-25-54.36-15.67l23,41.35Z" transform="translate(-63.64 -90.11)"/><rect class="cls-7" x="250.9" y="282.86" width="30.24" height="61.93" rx="4.32"/><rect class="cls-7" x="324.35" y="282.86" width="30.24" height="61.93" rx="4.32"/><path class="cls-7" d="M473.2,355a14.88,14.88,0,1,1,14.88-14.88A14.89,14.89,0,0,1,473.2,355Zm0-24a9.12,9.12,0,1,0,9.12,9.12A9.13,9.13,0,0,0,473.2,331Z" transform="translate(-63.64 -90.11)"/><path class="cls-7" d="M477.52,371.54a3,3,0,0,1-1-.17c-22.72-8.2-18.21-31.62-18.16-31.85a2.88,2.88,0,1,1,5.64,1.14c-.16.8-3.49,18.81,14.48,25.29a2.88,2.88,0,0,1-1,5.59Z" transform="translate(-63.64 -90.11)"/><path class="cls-6" d="M294.76,307.34c1.56-5.55,6-9.58,11.33-9.58s9.76,4,11.32,9.58H321c-1.7-7.51-7.74-13.09-14.93-13.09s-13.24,5.58-14.94,13.09Z" transform="translate(-63.64 -90.11)"/><path class="cls-8" d="M499.46,352.71H423.89V327.49A10.14,10.14,0,0,1,434,317.36h55.31a10.14,10.14,0,0,1,10.13,10.13Zm-71.54-4h67.51V327.49a6.1,6.1,0,0,0-6.1-6.09H434a6.1,6.1,0,0,0-6.1,6.09Z" transform="translate(-63.64 -90.11)"/><path class="cls-9" d="M332.61,252.34H463.47a0,0,0,0,1,0,0v91.49a6.6,6.6,0,0,1-6.6,6.6H339.21a6.6,6.6,0,0,1-6.6-6.6V252.34A0,0,0,0,1,332.61,252.34Z"/><path class="cls-9" d="M334.86,249.2H461.22A6.78,6.78,0,0,1,468,256v57a0,0,0,0,1,0,0H328.08a0,0,0,0,1,0,0V256A6.78,6.78,0,0,1,334.86,249.2Z"/><rect class="cls-8" x="332.61" y="313.01" width="130.86" height="7.84"/><rect class="cls-10" x="347.75" y="307.73" width="15.64" height="16.9"/><rect class="cls-11" x="347.75" y="316.93" width="15.64" height="7.7"/><rect class="cls-10" x="432.69" y="307.73" width="15.64" height="16.9"/><rect class="cls-11" x="432.69" y="316.93" width="15.64" height="7.7"/><path class="cls-8" d="M526.33,398.35H397V347.71a2.84,2.84,0,0,1,2.84-2.84H523.49a2.84,2.84,0,0,1,2.84,2.84Zm-128.3-1H525.32V347.71a1.83,1.83,0,0,0-1.83-1.83H399.86a1.83,1.83,0,0,0-1.83,1.83Z" transform="translate(-63.64 -90.11)"/><rect class="cls-9" x="372.37" y="224.26" width="51.33" height="9.08"/><rect class="cls-12" x="86.61" y="422.51" width="73.42" height="9.56" rx="1.82" transform="translate(183.01 764.47) rotate(180)"/><path class="cls-13" d="M160,429.28v1a1.81,1.81,0,0,1-1.81,1.81H88.43a1.82,1.82,0,0,1-1.82-1.81v-1Z" transform="translate(-63.64 -90.11)"/><rect class="cls-14" x="99.49" y="422.51" width="19.09" height="6.77" transform="translate(154.43 761.68) rotate(180)"/><rect class="cls-12" x="86.61" y="412.95" width="73.42" height="9.56" rx="1.82" transform="translate(183.01 745.35) rotate(180)"/><path class="cls-13" d="M160,419.72v1a1.81,1.81,0,0,1-1.81,1.81H88.43a1.82,1.82,0,0,1-1.82-1.81v-1Z" transform="translate(-63.64 -90.11)"/><rect class="cls-14" x="99.49" y="412.95" width="19.09" height="6.77" transform="translate(154.43 742.56) rotate(180)"/><rect class="cls-12" x="86.61" y="403.39" width="73.42" height="9.56" rx="1.82" transform="translate(183.01 726.23) rotate(180)"/><path class="cls-13" d="M160,410.16v1a1.81,1.81,0,0,1-1.81,1.81H88.43a1.82,1.82,0,0,1-1.82-1.81v-1Z" transform="translate(-63.64 -90.11)"/><rect class="cls-14" x="99.49" y="403.39" width="19.09" height="6.77" transform="translate(154.43 723.44) rotate(180)"/><rect class="cls-12" x="86.61" y="393.83" width="73.42" height="9.56" rx="1.82" transform="translate(183.01 707.11) rotate(180)"/><path class="cls-13" d="M160,400.6v1a1.81,1.81,0,0,1-1.81,1.81H88.43a1.82,1.82,0,0,1-1.82-1.81v-1Z" transform="translate(-63.64 -90.11)"/><rect class="cls-14" x="99.49" y="393.83" width="19.09" height="6.77" transform="translate(154.43 704.32) rotate(180)"/><rect class="cls-12" x="86.61" y="384.27" width="73.42" height="9.56" rx="1.82" transform="translate(183.01 687.99) rotate(180)"/><path class="cls-13" d="M160,391v1a1.81,1.81,0,0,1-1.81,1.81H88.43A1.82,1.82,0,0,1,86.61,392v-1Z" transform="translate(-63.64 -90.11)"/><rect class="cls-14" x="99.49" y="384.27" width="19.09" height="6.77" transform="translate(154.43 685.2) rotate(180)"/><rect class="cls-15" x="86.61" y="374.71" width="73.42" height="9.56" rx="1.82" transform="translate(183.01 668.87) rotate(180)"/><path class="cls-13" d="M160,381.48v1a1.81,1.81,0,0,1-1.81,1.81H88.43a1.82,1.82,0,0,1-1.82-1.81v-1Z" transform="translate(-63.64 -90.11)"/><rect class="cls-14" x="99.49" y="374.71" width="19.09" height="6.77" transform="translate(154.43 666.08) rotate(180)"/><rect class="cls-15" x="86.61" y="365.15" width="73.42" height="9.56" rx="1.82" transform="translate(183.01 649.75) rotate(180)"/><path class="cls-16" d="M160,371.92v1a1.81,1.81,0,0,1-1.81,1.81H88.43a1.82,1.82,0,0,1-1.82-1.81v-1Z" transform="translate(-63.64 -90.11)"/><rect class="cls-14" x="99.49" y="365.15" width="19.09" height="6.77" transform="translate(154.43 646.96) rotate(180)"/><rect class="cls-15" x="86.61" y="355.59" width="73.42" height="9.56" rx="1.82" transform="translate(183.01 630.63) rotate(180)"/><path class="cls-16" d="M160,362.36v1a1.81,1.81,0,0,1-1.81,1.81H88.43a1.82,1.82,0,0,1-1.82-1.81v-1Z" transform="translate(-63.64 -90.11)"/><rect class="cls-1" x="99.49" y="355.59" width="19.09" height="6.77" transform="translate(154.43 627.84) rotate(180)"/><rect class="cls-15" x="86.61" y="346.03" width="73.42" height="9.56" rx="1.82" transform="translate(183.01 611.51) rotate(180)"/><path class="cls-16" d="M160,352.8v1a1.81,1.81,0,0,1-1.81,1.81H88.43a1.82,1.82,0,0,1-1.82-1.81v-1Z" transform="translate(-63.64 -90.11)"/><rect class="cls-1" x="99.49" y="346.03" width="19.09" height="6.77" transform="translate(154.43 608.72) rotate(180)"/><rect class="cls-15" x="86.61" y="336.47" width="73.42" height="9.56" rx="1.82" transform="translate(183.01 592.39) rotate(180)"/><path class="cls-16" d="M160,343.24v1a1.81,1.81,0,0,1-1.81,1.81H88.43a1.82,1.82,0,0,1-1.82-1.81v-1Z" transform="translate(-63.64 -90.11)"/><rect class="cls-1" x="99.49" y="336.47" width="19.09" height="6.77" transform="translate(154.43 589.6) rotate(180)"/><rect class="cls-15" x="86.61" y="326.91" width="73.42" height="9.56" rx="1.82" transform="translate(183.01 573.27) rotate(180)"/><path class="cls-16" d="M160,333.68v1a1.81,1.81,0,0,1-1.81,1.81H88.43a1.82,1.82,0,0,1-1.82-1.81v-1Z" transform="translate(-63.64 -90.11)"/><rect class="cls-1" x="99.49" y="326.91" width="19.09" height="6.77" transform="translate(154.43 570.48) rotate(180)"/><rect class="cls-15" x="86.61" y="317.35" width="73.42" height="9.56" rx="1.82" transform="translate(183.01 554.15) rotate(180)"/><path class="cls-16" d="M160,324.12v1a1.81,1.81,0,0,1-1.81,1.81H88.43a1.82,1.82,0,0,1-1.82-1.81v-1Z" transform="translate(-63.64 -90.11)"/><rect class="cls-1" x="99.49" y="317.35" width="19.09" height="6.77" transform="translate(154.43 551.36) rotate(180)"/><rect class="cls-15" x="86.61" y="307.79" width="73.42" height="9.56" rx="1.82" transform="translate(183.01 535.03) rotate(180)"/><path class="cls-16" d="M160,314.56v1a1.81,1.81,0,0,1-1.81,1.81H88.43a1.82,1.82,0,0,1-1.82-1.81v-1Z" transform="translate(-63.64 -90.11)"/><rect class="cls-1" x="99.49" y="307.79" width="19.09" height="6.77" transform="translate(154.43 532.24) rotate(180)"/><rect class="cls-15" x="86.61" y="298.23" width="73.42" height="9.56" rx="1.82" transform="translate(183.01 515.91) rotate(180)"/><path class="cls-16" d="M160,305v1a1.81,1.81,0,0,1-1.81,1.81H88.43A1.82,1.82,0,0,1,86.61,306v-1Z" transform="translate(-63.64 -90.11)"/><rect class="cls-1" x="99.49" y="298.23" width="19.09" height="6.77" transform="translate(154.43 513.12) rotate(180)"/><rect class="cls-16" x="138.04" y="298.23" width="14.34" height="133.81" transform="translate(226.78 640.16) rotate(180)"/><rect class="cls-16" x="126.8" y="298.23" width="6.2" height="133.81" transform="translate(196.16 640.16) rotate(180)"/><rect class="cls-15" x="147.68" y="422.51" width="73.42" height="9.56" rx="1.82" transform="translate(305.14 764.47) rotate(180)"/><path class="cls-16" d="M221.1,429.28v1a1.82,1.82,0,0,1-1.82,1.81H149.49a1.81,1.81,0,0,1-1.81-1.81v-1Z" transform="translate(-63.64 -90.11)"/><rect class="cls-1" x="160.55" y="422.51" width="19.09" height="6.77" transform="translate(276.56 761.68) rotate(180)"/><rect class="cls-15" x="147.68" y="412.95" width="73.42" height="9.56" rx="1.82" transform="translate(305.14 745.35) rotate(180)"/><path class="cls-16" d="M221.1,419.72v1a1.82,1.82,0,0,1-1.82,1.81H149.49a1.81,1.81,0,0,1-1.81-1.81v-1Z" transform="translate(-63.64 -90.11)"/><rect class="cls-1" x="160.55" y="412.95" width="19.09" height="6.77" transform="translate(276.56 742.56) rotate(180)"/><rect class="cls-15" x="147.68" y="403.39" width="73.42" height="9.56" rx="1.82" transform="translate(305.14 726.23) rotate(180)"/><path class="cls-16" d="M221.1,410.16v1a1.82,1.82,0,0,1-1.82,1.81H149.49a1.81,1.81,0,0,1-1.81-1.81v-1Z" transform="translate(-63.64 -90.11)"/><rect class="cls-1" x="160.55" y="403.39" width="19.09" height="6.77" transform="translate(276.56 723.44) rotate(180)"/><rect class="cls-15" x="147.68" y="393.83" width="73.42" height="9.56" rx="1.82" transform="translate(305.14 707.11) rotate(180)"/><path class="cls-16" d="M221.1,400.6v1a1.82,1.82,0,0,1-1.82,1.81H149.49a1.81,1.81,0,0,1-1.81-1.81v-1Z" transform="translate(-63.64 -90.11)"/><rect class="cls-1" x="160.55" y="393.83" width="19.09" height="6.77" transform="translate(276.56 704.32) rotate(180)"/><rect class="cls-15" x="147.68" y="384.27" width="73.42" height="9.56" rx="1.82" transform="translate(305.14 687.99) rotate(180)"/><path class="cls-16" d="M221.1,391v1a1.82,1.82,0,0,1-1.82,1.81H149.49a1.81,1.81,0,0,1-1.81-1.81v-1Z" transform="translate(-63.64 -90.11)"/><rect class="cls-1" x="160.55" y="384.27" width="19.09" height="6.77" transform="translate(276.56 685.2) rotate(180)"/><rect class="cls-15" x="147.68" y="374.71" width="73.42" height="9.56" rx="1.82" transform="translate(305.14 668.87) rotate(180)"/><path class="cls-16" d="M221.1,381.48v1a1.82,1.82,0,0,1-1.82,1.81H149.49a1.81,1.81,0,0,1-1.81-1.81v-1Z" transform="translate(-63.64 -90.11)"/><rect class="cls-1" x="160.55" y="374.71" width="19.09" height="6.77" transform="translate(276.56 666.08) rotate(180)"/><rect class="cls-15" x="147.68" y="365.15" width="73.42" height="9.56" rx="1.82" transform="translate(305.14 649.75) rotate(180)"/><path class="cls-16" d="M221.1,371.92v1a1.82,1.82,0,0,1-1.82,1.81H149.49a1.81,1.81,0,0,1-1.81-1.81v-1Z" transform="translate(-63.64 -90.11)"/><rect class="cls-1" x="160.55" y="365.15" width="19.09" height="6.77" transform="translate(276.56 646.96) rotate(180)"/><rect class="cls-15" x="147.68" y="355.59" width="73.42" height="9.56" rx="1.82" transform="translate(305.14 630.63) rotate(180)"/><path class="cls-16" d="M221.1,362.36v1a1.82,1.82,0,0,1-1.82,1.81H149.49a1.81,1.81,0,0,1-1.81-1.81v-1Z" transform="translate(-63.64 -90.11)"/><rect class="cls-1" x="160.55" y="355.59" width="19.09" height="6.77" transform="translate(276.56 627.84) rotate(180)"/><rect class="cls-15" x="147.68" y="346.03" width="73.42" height="9.56" rx="1.82" transform="translate(305.14 611.51) rotate(180)"/><path class="cls-16" d="M221.1,352.8v1a1.82,1.82,0,0,1-1.82,1.81H149.49a1.81,1.81,0,0,1-1.81-1.81v-1Z" transform="translate(-63.64 -90.11)"/><rect class="cls-1" x="160.55" y="346.03" width="19.09" height="6.77" transform="translate(276.56 608.72) rotate(180)"/><rect class="cls-15" x="147.68" y="336.47" width="73.42" height="9.56" rx="1.82" transform="translate(305.14 592.39) rotate(180)"/><path class="cls-16" d="M221.1,343.24v1a1.82,1.82,0,0,1-1.82,1.81H149.49a1.81,1.81,0,0,1-1.81-1.81v-1Z" transform="translate(-63.64 -90.11)"/><rect class="cls-1" x="160.55" y="336.47" width="19.09" height="6.77" transform="translate(276.56 589.6) rotate(180)"/><rect class="cls-15" x="147.68" y="326.91" width="73.42" height="9.56" rx="1.82" transform="translate(305.14 573.27) rotate(180)"/><path class="cls-16" d="M221.1,333.68v1a1.82,1.82,0,0,1-1.82,1.81H149.49a1.81,1.81,0,0,1-1.81-1.81v-1Z" transform="translate(-63.64 -90.11)"/><rect class="cls-1" x="160.55" y="326.91" width="19.09" height="6.77" transform="translate(276.56 570.48) rotate(180)"/><rect class="cls-15" x="147.68" y="317.35" width="73.42" height="9.56" rx="1.82" transform="translate(305.14 554.15) rotate(180)"/><path class="cls-16" d="M221.1,324.12v1a1.82,1.82,0,0,1-1.82,1.81H149.49a1.81,1.81,0,0,1-1.81-1.81v-1Z" transform="translate(-63.64 -90.11)"/><rect class="cls-1" x="160.55" y="317.35" width="19.09" height="6.77" transform="translate(276.56 551.36) rotate(180)"/><rect class="cls-16" x="199.1" y="317.49" width="14.34" height="114.55" transform="translate(348.92 659.42) rotate(180)"/><rect class="cls-16" x="187.86" y="317.49" width="6.2" height="114.55" transform="translate(318.29 659.42) rotate(180)"/><path class="cls-16" d="M96.55,430c-7.64-7.72-24.73-18.59-22.62-31.36a12.54,12.54,0,0,0,.15-2.86,75.45,75.45,0,0,1,2.18-8.48,8.09,8.09,0,0,0-2-8.7,41,41,0,1,1,61.94,53.43H98.1A10.14,10.14,0,0,0,96.55,430Z" transform="translate(-63.64 -90.11)"/><circle class="cls-15" cx="37.16" cy="309.79" r="37.16"/><path class="cls-1" d="M71.5,377.13a37.13,37.13,0,1,1,57.18,47.31Z" transform="translate(-63.64 -90.11)"/><circle class="cls-15" cx="100.81" cy="399.9" r="29.48" transform="translate(-371.98 361.55) rotate(-83.06)"/><path class="cls-16" d="M70.69,399.9A30.12,30.12,0,1,1,100.81,430,30.15,30.15,0,0,1,70.69,399.9Zm1.88,0a28.24,28.24,0,1,0,28.24-28.24A28.27,28.27,0,0,0,72.57,399.9Z" transform="translate(-63.64 -90.11)"/><path class="cls-1" d="M110.5,400.35c-2.11-2.27-5-3.17-7.87-3.84v-12a7,7,0,0,1,4.75,6.93,1.86,1.86,0,0,0,.51,1.32,1.78,1.78,0,0,0,1.28.58,1.84,1.84,0,0,0,1.9-1.79,11,11,0,0,0-4.95-9.43,10.66,10.66,0,0,0-3.49-1.45v-2.5a1.82,1.82,0,1,0-3.63,0v2.3a10.84,10.84,0,0,0-3.51,1,10.16,10.16,0,0,0-5.17,6.24,8.35,8.35,0,0,0,.77,6.81c1.83,3,5.14,4.22,7.91,4.95V415.1a9.69,9.69,0,0,1-4.2-1.61,5.63,5.63,0,0,1-2.5-4.37A4.05,4.05,0,0,1,93.55,406,1.85,1.85,0,0,0,91,403.35a7.79,7.79,0,0,0-2.4,5.93,9.26,9.26,0,0,0,4,7.21A13.26,13.26,0,0,0,99,418.82v2.85a1.82,1.82,0,1,0,3.63,0v-3a9.25,9.25,0,0,0,1-.23,13.25,13.25,0,0,0,8.44-7A10.35,10.35,0,0,0,110.5,400.35Zm-7.87,0a10.66,10.66,0,0,1,5.17,2.56,6.59,6.59,0,0,1,.92,7.06,9.52,9.52,0,0,1-6.09,5ZM99,384.17v11.42c-2.43-.76-4-1.73-4.76-3a4.69,4.69,0,0,1-.37-3.83,6.49,6.49,0,0,1,3.23-3.95A6.91,6.91,0,0,1,99,384.17Z" transform="translate(-63.64 -90.11)"/><path class="cls-17" d="M49.72,99.56H63.4a0,0,0,0,1,0,0v2.8A3.65,3.65,0,0,1,59.75,106H53.38a3.65,3.65,0,0,1-3.65-3.65v-2.8A0,0,0,0,1,49.72,99.56Z"/><path class="cls-16" d="M42.42,80.17H70.7a0,0,0,0,1,0,0V91.65a10.5,10.5,0,0,1-10.5,10.5H52.92a10.5,10.5,0,0,1-10.5-10.5V80.17A0,0,0,0,1,42.42,80.17Z"/><circle class="cls-15" cx="120.2" cy="152.66" r="25.69" transform="translate(-135.04 30.24) rotate(-42.21)"/><path class="cls-16" d="M120.2,179.42A26.76,26.76,0,1,1,147,152.66,26.79,26.79,0,0,1,120.2,179.42Zm0-51.38a24.62,24.62,0,1,0,24.62,24.62A24.65,24.65,0,0,0,120.2,128Z" transform="translate(-63.64 -90.11)"/><path class="cls-1" d="M124.08,171.23a.5.5,0,0,1-.5-.5V152.11H132l-8-8-3.71,4.78-4-5.07-7.93,7.93h7.85v19a.5.5,0,0,1-1,0v-18h-9.28l10.45-10.46,3.9,5,3.62-4.68,10.55,10.56h-9.88v17.61A.5.5,0,0,1,124.08,171.23Z" transform="translate(-63.64 -90.11)"/><path class="cls-15" d="M120.2,121.47a1.34,1.34,0,0,1-1.34-1.34V100.6a1.34,1.34,0,0,1,2.68,0v19.53A1.34,1.34,0,0,1,120.2,121.47Z" transform="translate(-63.64 -90.11)"/><path class="cls-15" d="M95.2,131.83a1.37,1.37,0,0,1-1-.39L80.44,117.63a1.35,1.35,0,0,1,0-1.9,1.33,1.33,0,0,1,1.9,0l13.81,13.81a1.34,1.34,0,0,1-1,2.29Z" transform="translate(-63.64 -90.11)"/><path class="cls-15" d="M84.85,156.83H65.32a1.35,1.35,0,0,1,0-2.69H84.85a1.35,1.35,0,0,1,0,2.69Z" transform="translate(-63.64 -90.11)"/><path class="cls-15" d="M175.08,156.83H155.55a1.35,1.35,0,0,1,0-2.69h19.53a1.35,1.35,0,0,1,0,2.69Z" transform="translate(-63.64 -90.11)"/><path class="cls-15" d="M145.2,131.83a1.34,1.34,0,0,1-.95-2.29l13.81-13.81a1.33,1.33,0,0,1,1.9,0,1.35,1.35,0,0,1,0,1.9l-13.81,13.81A1.35,1.35,0,0,1,145.2,131.83Z" transform="translate(-63.64 -90.11)"/><path class="cls-18" d="M220.32,436.94c-1.89,1-4.12,1-6.25,1l-16.13-.16c-2.94,0-6.2-.17-8.32-2.21a2.66,2.66,0,0,1-.77-1.17c-.33-1.26.86-2.38,2-3.06,3.26-2,7-3,10.67-4,5.11-1.38,10.31-2.77,15.6-2.6a8.18,8.18,0,0,1,4,.92,7.51,7.51,0,0,1,2.46,2.7c1,1.75.32,3.9-.48,5.6A6.49,6.49,0,0,1,220.32,436.94Z" transform="translate(-63.64 -90.11)"/><path class="cls-18" d="M250.4,408.55a8.7,8.7,0,0,1,3.19,2.63c1.13,1.75,1,4,.77,6.09a71.37,71.37,0,0,1-2.51,12.18c-.71,2.39-1.68,4.92-3.76,6.3a9.2,9.2,0,0,1-4,1.28,21.31,21.31,0,0,1-5.11,0c-1.32-.15-2.87-.64-3.21-1.92a3.17,3.17,0,0,1,.57-2.34c1.38-2.32,3.58-4.22,4.21-6.83s-.37-5.07-1.78-7.18c-1-1.53-2.34-3.11-2.16-4.94a6.31,6.31,0,0,1,1.6-3.13c.69-.86,1.4-1.71,2.12-2.54a17.41,17.41,0,0,1,2.12-2.25c1.39-1.09,3.27.27,4.58.89C248.19,407.37,249.31,407.94,250.4,408.55Z" transform="translate(-63.64 -90.11)"/><path class="cls-19" d="M242.9,400.75a41,41,0,0,0-13.05-17c3.85-21.92,7.32-47.1,11.17-69,2.7-15.37,1.41-31.26.84-46.86-.07-1.82-.25-3.86-1.64-5a6.78,6.78,0,0,0-4-1.16c-16.44-1.23-34.57-1.29-51-2.52-10.31,27.49-12.66,57.28-13.55,86.63-.18,5.91-.24,12.1,2.42,17.38a31.26,31.26,0,0,0,4.41,6.21,117.81,117.81,0,0,0,28.91,24.38,205.09,205.09,0,0,1-1.79,30.44,3.33,3.33,0,0,0,.1,1.88,3.17,3.17,0,0,0,1.66,1.34,35.76,35.76,0,0,0,18,3.27q1.32-9.87,1.82-19.83c2.49,2.26,4.91,4.48,8,5.79a1.67,1.67,0,0,0,2.37-.69,74.75,74.75,0,0,0,5.31-7.18,7.9,7.9,0,0,0,1.45-3.29C244.54,403.84,243.58,402.29,242.9,400.75Zm-35.44-70.16q0,6.51,0,13,0,7.26,0,14.54l-4-4.52c1.16-.56,1.44-2.13,1.11-3.38s-1.1-2.33-1.49-3.55a12.16,12.16,0,0,1-.1-5.27c.27-2.08,2.92-23.14,4.33-22.87.37.07.13,4.91.13,5.47Q207.45,327.3,207.46,330.59Z" transform="translate(-63.64 -90.11)"/><path class="cls-20" d="M214.37,148.67c5.5-.5,11.29-1,16.33,1.29s8.89,8.2,6.84,13.33c-.89,2.23-2.81,4.51-1.86,6.72.59,1.4,2.13,2.1,3.51,2.75a34.51,34.51,0,0,1,11.94,8.82c3.51,4.18,5.69,9.3,7.45,14.46a112.4,112.4,0,0,1,5.86,30.59c.11,2.24.1,4.69-1.28,6.46-1.57,2-4.41,2.51-7,2.4s-5.12-.64-7.61-.11a39.92,39.92,0,0,1,1.23,15,12.34,12.34,0,0,1-1.79,5.8,5.27,5.27,0,0,1-5.26,2.41c-.05,1.5-.3,3.4-.36,4.9a2.59,2.59,0,0,1-.55,1.81,2.54,2.54,0,0,1-1.58.54c-18.53,1.91-37.8,1.93-55.11-5a7.28,7.28,0,0,1-2-1c-1.86-1.52-1.86-4.31-1.71-6.71-4.46-2.18-6.16-7.22-6.33-12.18a5.87,5.87,0,0,0-.41-2.47c-1.12-2.15-4.22-1.68-6.62-2-4.23-.6-7.29-4.69-8-8.9s.32-8.51,1.49-12.62q1.9-6.71,4.21-13.3c1.43-4.09,3.09-8.33,6.38-11.16a14.36,14.36,0,0,0,2.12-1.92c1-1.26,1.31-2.91,1.91-4.41s1.23-2.41,2.83-2.54a16.64,16.64,0,0,0,2.24-.18,5.7,5.7,0,0,0,2.79-2.47c2.48-4.16,4.18-8.75,6.66-12.92C195.41,158.18,205.29,149.51,214.37,148.67Z" transform="translate(-63.64 -90.11)"/><path class="cls-21" d="M220.51,154.56a10,10,0,0,0-5.66-1.57c-5.84,0-11.25,3.45-15,7.9-1.51,1.77-2.88,4.05-2.27,6.29s2.92,3.46,5.14,3.56a14.53,14.53,0,0,0,6.4-1.68c2-.89,3.85-2,5.82-2.82a32.64,32.64,0,0,1,3.8-1.66,6,6,0,0,0,2.76-1.36,5.5,5.5,0,0,0,1.78-3.46A5.9,5.9,0,0,0,221,155C220.87,154.82,220.69,154.69,220.51,154.56Z" transform="translate(-63.64 -90.11)"/><path class="cls-22" d="M195.25,236.77H178.77a3.53,3.53,0,0,1-3-1.6l-21-32.17a1.73,1.73,0,0,1,1.45-2.67h16.47a3.55,3.55,0,0,1,3,1.6l21,32.16A1.73,1.73,0,0,1,195.25,236.77Z" transform="translate(-63.64 -90.11)"/><path class="cls-22" d="M176.19,135.66c-3.2-1-5.22-4.32-5.8-7.63a14.82,14.82,0,0,1,5.19-13.8,8,8,0,0,1,5.82-2c2.27.29,4.12,2,5.47,3.84a9.42,9.42,0,0,0,2.88,3.13,5.79,5.79,0,0,0,5-.22c1.57-.7,3-1.74,4.55-2.41a9.46,9.46,0,0,1,7.11-.21,7.58,7.58,0,0,1,4.63,5.26,7.51,7.51,0,0,0,.73,2.66c1,1.56,3.55,1.55,4.57,3.12a4.59,4.59,0,0,1,.51,2.64,27.19,27.19,0,0,1-1,7.06,37.88,37.88,0,0,0-1.22,4.15c-.39,2.15-.06,4.36-.13,6.55s-.66,4.54-2.39,5.88a6.24,6.24,0,0,1-4.89,1,15.78,15.78,0,0,1-4.77-1.88,27,27,0,0,1-4.76-3.13,26.22,26.22,0,0,1-3.95-4.4c-1.19-1.6-2.3-3.26-3.53-4.83a17.2,17.2,0,0,0-4.06-4.19,4.85,4.85,0,0,0-3.33-.43,17.86,17.86,0,0,1-5.79.08C176.71,135.81,176.45,135.74,176.19,135.66Z" transform="translate(-63.64 -90.11)"/><path class="cls-23" d="M183,135.76A95.21,95.21,0,0,0,185.63,149a40.64,40.64,0,0,0,2.57,8,12.86,12.86,0,0,0,3.41,4.54,9.42,9.42,0,0,0,10.63.56,6,6,0,0,1-3.6,7.1,30.11,30.11,0,0,0,7.55,11.29c1.54-1.36,2.17-3.43,3.09-5.26,2.29-4.6,6.53-7.88,10.62-11a17.43,17.43,0,0,1-9.76-11.44,9,9,0,0,1-.2-4.42c.47-1.86,1.82-3.47,2-5.38a3.88,3.88,0,0,0-1.78-3.67,3,3,0,0,0-3.84.74c-.64.93-.78,2.36-1.85,2.71s-2.21-1-2.59-2.25a29,29,0,0,0-1.72-5.14,5,5,0,0,0-4.26-2.89,14.39,14.39,0,0,0-3.38,1.06,6.2,6.2,0,0,1-3.57,0,3.25,3.25,0,0,1-1.65-1.32,2.5,2.5,0,0,0-1.33-1.13,2.4,2.4,0,0,0-2.54,1.06A5.67,5.67,0,0,0,183,135.76Z" transform="translate(-63.64 -90.11)"/><path class="cls-23" d="M190.46,176.59c1.73.16,3-1.48,4-2.93a3,3,0,0,0,.7-2.13,8.37,8.37,0,0,1-.23-.86c-.12-1.33,2.09-2.44,1.32-3.52a3.28,3.28,0,0,0,1.26-2.94c1.49,0,3,0,4.48,0a4.4,4.4,0,0,0,1.91-.32,1.55,1.55,0,0,0,.94-1.56c-.16-.85-1.16-1.22-2-1.42l-10.64-2.56a3.54,3.54,0,0,0-1.79-.13,3.33,3.33,0,0,0-1.34.82,27.63,27.63,0,0,0-4.14,4.44,10.51,10.51,0,0,0-1.82,3.37,18.23,18.23,0,0,0-.43,3.91,43.08,43.08,0,0,1-2.7,10.77,27.49,27.49,0,0,1,3.57.88c1.11.33,3.27,1.83,4.39,2.1.85.21.29-1.05.62-1.86.4-1,1-1.89,1.42-2.84A4.33,4.33,0,0,0,190.46,176.59Z" transform="translate(-63.64 -90.11)"/><path class="cls-23" d="M219.2,232.21c-9.93-2-20.22-3.91-30.1-1.67-3.32.75-6.64,2-10,1.62-4.35-.47-8-3.5-10.82-6.85-1.17-1.39-2.28-3.37-1.3-4.9a15.12,15.12,0,0,1-1-2.26,3.56,3.56,0,0,1-.33-2.32,1.49,1.49,0,0,1,1.81-1.1c-.57-.68.11-1.83.91-2.22a2.56,2.56,0,0,1,2.52.33,8.79,8.79,0,0,1,1.84,1.91c1.58,1.93,3.55,3.76,6,4.22a11.12,11.12,0,0,0,6.3-1.14,4.49,4.49,0,0,0,1.24-.71c1.2-1.07,1-3.09,0-4.42a23,23,0,0,0-3.52-3.3c-1.18-1.1-2.18-2.65-1.87-4.23,1.07-.73,2.48,0,3.69.52,2.56,1,5.67.65,7.86,2.32,2,1.51,2.58,4.22,4.2,6.12,2.39,2.82,6.47,3.34,10.16,3.66l9.61.84C217.59,223.05,218.22,227.75,219.2,232.21Z" transform="translate(-63.64 -90.11)"/><path class="cls-24" d="M191.54,155a.27.27,0,0,1-.27-.26c0-.16-.24-.3-.47-.36l-.15,0a1.57,1.57,0,0,1-.86-.45,1.6,1.6,0,0,1-.15-1.31,10.51,10.51,0,0,0-.21-4.53.27.27,0,1,1,.52-.14,11,11,0,0,1,.22,4.77c-.06.31-.12.67,0,.87a1,1,0,0,0,.58.27l.15,0c.53.15.85.47.87.86a.27.27,0,0,1-.25.28Z" transform="translate(-63.64 -90.11)"/><path class="cls-24" d="M183.91,165.44a.27.27,0,0,1-.15-.05.25.25,0,0,1-.07-.37,42.6,42.6,0,0,1,4.51-5.52,5,5,0,0,1,1.55-1.22,5.1,5.1,0,0,1,2.68-.21,39.74,39.74,0,0,1,10.34,2.66,3.57,3.57,0,0,1,1.54,1,1.51,1.51,0,0,1,.1,1.91,2,2,0,0,1-1.15.56,17.87,17.87,0,0,1-5.88.25.27.27,0,0,1,.07-.54,17,17,0,0,0,5.69-.24,1.49,1.49,0,0,0,.86-.38,1,1,0,0,0-.1-1.22,3.2,3.2,0,0,0-1.33-.82,38.38,38.38,0,0,0-10.2-2.62,4.62,4.62,0,0,0-2.4.16,4.75,4.75,0,0,0-1.39,1.1,43.91,43.91,0,0,0-4.45,5.45A.26.26,0,0,1,183.91,165.44Z" transform="translate(-63.64 -90.11)"/><path class="cls-24" d="M196.56,166.93l-.24-.11a26.66,26.66,0,0,0-4.26-1.52c-.19-.05-.24,0-.24,0a.27.27,0,0,1-.4-.36.77.77,0,0,1,.78-.14,27.48,27.48,0,0,1,4.11,1.45,7.65,7.65,0,0,0,.86-2.47,1.29,1.29,0,0,0-.06-.64,1.41,1.41,0,0,0-.74-.57,12.4,12.4,0,0,0-3.92-1,.27.27,0,1,1,.05-.53,12.67,12.67,0,0,1,4.09,1.06,1.86,1.86,0,0,1,1,.84,1.67,1.67,0,0,1,.1.92,8.68,8.68,0,0,1-1,2.88Z" transform="translate(-63.64 -90.11)"/><path class="cls-24" d="M194.7,170.29a.3.3,0,0,1-.16,0,.27.27,0,0,1-.06-.38l1.47-2a1.51,1.51,0,0,0,.22-.36.73.73,0,0,0-.34-.89.27.27,0,0,1-.12-.36.27.27,0,0,1,.36-.13,1.29,1.29,0,0,1,.6,1.59,2,2,0,0,1-.29.47l-1.47,2A.26.26,0,0,1,194.7,170.29Z" transform="translate(-63.64 -90.11)"/><path class="cls-24" d="M190.89,176.86h-.1a1.37,1.37,0,0,1-.63-.28,2.8,2.8,0,0,1-1.06-2.19,2.75,2.75,0,0,1,1.12-2.16A1.68,1.68,0,0,1,192,172a.27.27,0,1,1-.28.46,1.17,1.17,0,0,0-1.22.18,2.19,2.19,0,0,0,0,3.49.81.81,0,0,0,.36.18,1,1,0,0,0,.52-.18,10.78,10.78,0,0,0,2.91-3,2.88,2.88,0,0,0,.73-1.53c0-1-1-1.64-1.43-1.89-.2-.12-.42-.23-.63-.33a5.66,5.66,0,0,1-1.77-1.22.26.26,0,0,1,0-.38.28.28,0,0,1,.38,0,5,5,0,0,0,1.6,1.09l.66.34a2.83,2.83,0,0,1,1.7,2.37,3.38,3.38,0,0,1-.84,1.84,11.13,11.13,0,0,1-3.06,3.14A1.49,1.49,0,0,1,190.89,176.86Z" transform="translate(-63.64 -90.11)"/><path class="cls-24" d="M203.2,161.35a.25.25,0,0,1-.2-.09.26.26,0,0,1,0-.38,10.55,10.55,0,0,0,3.64-7.69.28.28,0,0,1,.28-.26.25.25,0,0,1,.26.27,11.09,11.09,0,0,1-3.84,8.09A.27.27,0,0,1,203.2,161.35Z" transform="translate(-63.64 -90.11)"/><path class="cls-24" d="M193.15,156.58a.27.27,0,0,1,0-.53,5,5,0,0,0,3.56-2.77.28.28,0,0,1,.36-.13.28.28,0,0,1,.13.36,5.54,5.54,0,0,1-4,3.07Z" transform="translate(-63.64 -90.11)"/><path class="cls-24" d="M196.23,157.18a.25.25,0,0,1-.2-.1.25.25,0,0,1,0-.37,5.58,5.58,0,0,0,.71-.75.26.26,0,0,1,.37-.05.27.27,0,0,1,.05.38,5.52,5.52,0,0,1-.78.82A.27.27,0,0,1,196.23,157.18Z" transform="translate(-63.64 -90.11)"/><path class="cls-24" d="M179.2,224.47h0a16,16,0,0,1-4.7-1,10.72,10.72,0,0,1-4.42-3.83,30.89,30.89,0,0,1-2.74-5.13.26.26,0,0,1,.13-.35.26.26,0,0,1,.36.13,30.49,30.49,0,0,0,2.69,5,10.11,10.11,0,0,0,4.2,3.65,15.56,15.56,0,0,0,4.54.94.28.28,0,0,1,.24.3A.27.27,0,0,1,179.2,224.47Z" transform="translate(-63.64 -90.11)"/><path class="cls-24" d="M177.59,227.82h-.06a19.8,19.8,0,0,1-6-2.33,20.32,20.32,0,0,1-4.78-5,.27.27,0,0,1,.43-.32,20.07,20.07,0,0,0,4.64,4.91,19.7,19.7,0,0,0,5.87,2.25.27.27,0,0,1-.07.53Z" transform="translate(-63.64 -90.11)"/><path class="cls-24" d="M207.24,143.19a2.23,2.23,0,0,1,.24-1.46,1.36,1.36,0,0,1,1.26-.68,1.43,1.43,0,0,1,1.14,1.06,3.22,3.22,0,0,1,0,1.63,4.44,4.44,0,0,1-.68,1.56,2.18,2.18,0,0,1-1.41.9A.81.81,0,0,1,207,146a.59.59,0,0,1-.09-.57,2.45,2.45,0,0,1,.31-.41,1.15,1.15,0,0,0,.2-.73A8.08,8.08,0,0,0,207.24,143.19Z" transform="translate(-63.64 -90.11)"/><path class="cls-22" d="M195.2,147.12c.22.78,0,1.53-.5,1.66s-1.07-.39-1.28-1.17,0-1.53.5-1.67S195,146.33,195.2,147.12Z" transform="translate(-63.64 -90.11)"/><path class="cls-22" d="M187.81,149.24c.19.68,0,1.33-.43,1.45s-.93-.34-1.11-1,0-1.33.43-1.45S187.63,148.56,187.81,149.24Z" transform="translate(-63.64 -90.11)"/><path class="cls-22" d="M196.64,141.15a2.85,2.85,0,0,1,.83.71.94.94,0,0,1,.2.47.45.45,0,0,1-.22.43.74.74,0,0,1-.63-.13,2.54,2.54,0,0,0-2.15-.27c-.48.2-.82.62-1.29.84a1.56,1.56,0,0,1-1.56-.13c-1.48-1.12.42-2.5,1.57-2.64a5.18,5.18,0,0,1,2.33.32A6.24,6.24,0,0,1,196.64,141.15Z" transform="translate(-63.64 -90.11)"/><path class="cls-22" d="M184.15,143.88a2.17,2.17,0,0,0-.11.84,1.34,1.34,0,0,0,.11.46.56.56,0,0,0,.29.34c.14,0,.21-.13.26-.27.18-.47.49-.87,1-.77.32.07.68.36,1,.45a.57.57,0,0,0,.74-.5c.26-1.36-1.3-2.14-1.94-2a1.82,1.82,0,0,0-1,.86A3,3,0,0,0,184.15,143.88Z" transform="translate(-63.64 -90.11)"/><path class="cls-21" d="M205.7,183.88a2.14,2.14,0,0,1-1.3-.4,3.64,3.64,0,0,1-1-1.55l-.16-.34c-1-2.09-2.8-3.53-4.7-5.06a26.9,26.9,0,0,1-3.28-2.94.83.83,0,0,1-.28-.65.48.48,0,0,1,.37-.39.36.36,0,0,1,.4.17.2.2,0,0,1-.35.21s0,0,0,.06.08.22.18.33a27,27,0,0,0,3.23,2.89c1.86,1.49,3.77,3,4.81,5.21a3.73,3.73,0,0,1,.16.35,3.32,3.32,0,0,0,.92,1.38,2.18,2.18,0,0,0,2.32,0,7,7,0,0,0,1.81-1.67l.09-.11a56.21,56.21,0,0,1,6.11-6,14.38,14.38,0,0,1,4.93-3,16.34,16.34,0,0,1,4.51-.49c.51,0,1,0,1.53,0a14.37,14.37,0,0,0,6.08-1.46,8.2,8.2,0,0,0,4.06-4.52.2.2,0,0,1,.26-.13.19.19,0,0,1,.12.25,8.59,8.59,0,0,1-4.26,4.76A14.74,14.74,0,0,1,226,172.2c-.51,0-1,0-1.54,0a16.35,16.35,0,0,0-4.41.48,14,14,0,0,0-4.78,2.91,53.65,53.65,0,0,0-6.06,6l-.1.11a7.63,7.63,0,0,1-1.91,1.76A3.07,3.07,0,0,1,205.7,183.88Z" transform="translate(-63.64 -90.11)"/><path class="cls-21" d="M236.75,214.72a.19.19,0,0,1-.16-.09c-3.7-4.94-4.71-11.3-5.37-16.87a49.43,49.43,0,0,1-.43-8.33,28,28,0,0,1,6.68-16.6.2.2,0,0,1,.28,0,.19.19,0,0,1,0,.28,27.67,27.67,0,0,0-6.58,16.36,48.82,48.82,0,0,0,.43,8.27c.65,5.51,1.65,11.8,5.29,16.67a.19.19,0,0,1,0,.28A.21.21,0,0,1,236.75,214.72Z" transform="translate(-63.64 -90.11)"/><path class="cls-21" d="M243.66,236.34a102.49,102.49,0,0,1-13.38-1.18,3.46,3.46,0,0,1-2.29-.93,3.51,3.51,0,0,1-.6-2.08,48.58,48.58,0,0,0-2-10.62c-.47-1.5-1-3.16-.29-4.6.87-1.77,3.13-2.24,4.87-2.32,1,0,1.94,0,2.89,0a25.9,25.9,0,0,0,5-.23,24.39,24.39,0,0,0,3.86-1.12c.6-.21,1.19-.41,1.79-.6a11.26,11.26,0,0,1,6-.49,5.17,5.17,0,0,1,4,4.19.76.76,0,0,1-.5.75.32.32,0,0,1-.38-.25.2.2,0,0,1,.14-.25.21.21,0,0,1,.21.07.45.45,0,0,0,.13-.28,4.76,4.76,0,0,0-3.72-3.84,10.89,10.89,0,0,0-5.73.49c-.6.18-1.18.39-1.77.59a19.52,19.52,0,0,1-9,1.38c-.95,0-1.92,0-2.87,0-1.64.08-3.75.5-4.52,2.1-.63,1.29-.14,2.87.29,4.26a48.46,48.46,0,0,1,2,10.75,3.16,3.16,0,0,0,.51,1.85,3.07,3.07,0,0,0,2,.79c6.09.81,12.39,1.65,18.59.87a.19.19,0,0,1,.22.17.2.2,0,0,1-.17.23A43,43,0,0,1,243.66,236.34Zm9.3-19.6-.19,0,.19,0Z" transform="translate(-63.64 -90.11)"/><path class="cls-21" d="M239.7,260.8a.2.2,0,0,1-.2-.17,5.11,5.11,0,0,1,1.16-3.79c.32-.44.67-.86,1-1.26a16.42,16.42,0,0,0,1.38-1.82,12.35,12.35,0,0,0,1.38-4.13,35.14,35.14,0,0,0-.13-13.48.21.21,0,0,1,.16-.24.2.2,0,0,1,.23.15,35.62,35.62,0,0,1,.14,13.65,12.72,12.72,0,0,1-1.44,4.26,16.34,16.34,0,0,1-1.41,1.87c-.34.4-.69.81-1,1.24a4.77,4.77,0,0,0-1.09,3.48.21.21,0,0,1-.17.24Z" transform="translate(-63.64 -90.11)"/><path class="cls-21" d="M188.81,206.74a.19.19,0,0,1-.2-.19,16.53,16.53,0,0,1,.2-2.65c.06-.46.12-.92.16-1.38a20.46,20.46,0,0,0-.2-4.59,32.49,32.49,0,0,0-1.16-5.17.2.2,0,0,1,.39-.12,33.24,33.24,0,0,1,1.17,5.23,20.68,20.68,0,0,1,.2,4.68c0,.47-.1.93-.16,1.4a15.93,15.93,0,0,0-.2,2.58.19.19,0,0,1-.19.21Z" transform="translate(-63.64 -90.11)"/><path class="cls-21" d="M216.1,217.72q1.62,7.23,2.66,14.57a3.56,3.56,0,0,0,.33,1.25,2.5,2.5,0,0,0,1.72,1.09c.68.14,1.39.12,2.08.2a9.82,9.82,0,0,0,2.58.21,5.89,5.89,0,0,0,1.77-.65.85.85,0,0,0,.45-.38.93.93,0,0,0,0-.37,60,60,0,0,0-2-11.45,22.85,22.85,0,0,1-.68-2.83c-.07-.51,0-1.24-.45-1.62a1.11,1.11,0,0,0-.74-.25c-.49,0-1,0-1.48,0-1,0-2,0-3,0C219.13,217.51,216.1,217.75,216.1,217.72Z" transform="translate(-63.64 -90.11)"/><path class="cls-21" d="M183.61,192.36a7,7,0,0,0,2.47.7,6.71,6.71,0,0,1,2.1,0q1.15-3.06,2.32-6.11a1.17,1.17,0,0,0,.1-.41c0-.32-1.77-1.83-2.25-2.25a9.14,9.14,0,0,0-1.86-.82L182.8,182a8.15,8.15,0,0,0-4.07-.92,2,2,0,0,0-1,.38,2.78,2.78,0,0,0-.79,1.21l-1.32,3.1-.66,1.54a3.36,3.36,0,0,0-.46,1.27c0,.42.73.51,1,.62l1.54.58c1,.38,2.06.78,3.08,1.19S182.46,191.87,183.61,192.36Z" transform="translate(-63.64 -90.11)"/><path class="cls-21" d="M191.33,253.57c17.09,3,34.38,6.9,51.61,4.86a55.28,55.28,0,0,1-.41,5.6,2.33,2.33,0,0,1-2.74,2.32c-3.81.4-7.66.06-11.48.37-2.05.16-4.08.51-6.13.67a64,64,0,0,1-10.17-.3l-7.75-.64c-2.28-.19-4.57-.38-6.83-.7A57.37,57.37,0,0,1,183.77,262a3.09,3.09,0,0,1-2.57-3.39c0-1.16,0-2.33.05-3.49,0-.64,0-1.51.51-2s1.63-.42,2.34-.41a27.8,27.8,0,0,1,3.42.24C188.8,253.13,190.06,253.35,191.33,253.57Z" transform="translate(-63.64 -90.11)"/><path class="cls-1" d="M215.11,209.65a.55.55,0,0,1-.42-.2c-1.44-1.75-2-4.39-1.48-7.42.19-1.21.51-2.4.81-3.55a31.93,31.93,0,0,0,.82-3.61,16.32,16.32,0,0,0-1.37-9.29c-.25-.52-.53-1-.8-1.55a18.24,18.24,0,0,1-1.37-2.93,5.85,5.85,0,0,1,.4-5.21.54.54,0,1,1,.88.62,5,5,0,0,0-.27,4.25,19.14,19.14,0,0,0,1.3,2.76c.28.52.57,1.06.83,1.6A17.42,17.42,0,0,1,215.9,195a32.56,32.56,0,0,1-.84,3.73c-.3,1.12-.6,2.29-.79,3.44-.25,1.58-.42,4.53,1.25,6.57a.53.53,0,0,1-.41.88Z" transform="translate(-63.64 -90.11)"/><path class="cls-1" d="M200.33,205.51a.53.53,0,0,1-.5-.34c-.83-2-.59-4.26-.35-6.4.08-.74.16-1.51.2-2.24a34.17,34.17,0,0,0-.49-6.3c-.16-1.13-.32-2.3-.42-3.46-.36-4.21.37-7.51,2.16-9.81a.54.54,0,0,1,.85.66c-1.62,2.08-2.28,5.13-1.94,9,.1,1.14.26,2.3.41,3.42a35,35,0,0,1,.5,6.49c0,.77-.12,1.55-.2,2.31-.23,2.1-.45,4.08.28,5.88a.54.54,0,0,1-.3.7A.51.51,0,0,1,200.33,205.51Z" transform="translate(-63.64 -90.11)"/><path class="cls-18" d="M224.75,378.28h0a.19.19,0,0,1-.18-.21c.89-13.95,3.22-28,5.48-41.54,1.75-10.48,3.56-21.32,4.68-32.06a69.75,69.75,0,0,0,.46-12.77,16.34,16.34,0,0,0-2.37-8.1,20.44,20.44,0,0,0-3.7-3.85c-.64-.57-1.31-1.16-1.94-1.78a22.15,22.15,0,0,1-5.89-10.29.21.21,0,0,1,.14-.25.21.21,0,0,1,.25.15,21.84,21.84,0,0,0,5.79,10.11c.61.6,1.28,1.19,1.92,1.75a21.61,21.61,0,0,1,3.77,3.93,17.3,17.3,0,0,1,2.43,8.3,70.45,70.45,0,0,1-.46,12.84c-1.12,10.75-2.93,21.6-4.68,32.09-2.26,13.55-4.59,27.56-5.48,41.49A.21.21,0,0,1,224.75,378.28Z" transform="translate(-63.64 -90.11)"/><path class="cls-18" d="M206.94,318.65h0a.2.2,0,0,1-.19-.21,88.77,88.77,0,0,0-.21-15.8c-.78-5.88-2.66-10.77-5.6-14.51a.2.2,0,0,1,.31-.25c3,3.8,4.9,8.75,5.69,14.71a89.48,89.48,0,0,1,.21,15.86A.2.2,0,0,1,206.94,318.65Z" transform="translate(-63.64 -90.11)"/><path class="cls-18" d="M244.73,405.78a.19.19,0,0,1-.19-.15,38.3,38.3,0,0,0-8.43-15.52c-1.72-1.91-3.66-3.68-5.54-5.39-1.3-1.18-2.64-2.4-3.9-3.66-2.18-2.19-4.21-4.59-6.17-6.91l-16.4-19.39a.2.2,0,0,1,0-.28.21.21,0,0,1,.29,0l16.38,19.38c2,2.32,4,4.72,6.16,6.89,1.26,1.26,2.59,2.47,3.89,3.65a77,77,0,0,1,5.57,5.43,38.72,38.72,0,0,1,8.52,15.68.2.2,0,0,1-.15.24Z" transform="translate(-63.64 -90.11)"/><path class="cls-18" d="M197.54,358.7a.21.21,0,0,1-.2-.19,2.42,2.42,0,0,1,.83-1.65,2.85,2.85,0,0,0,.74-1.18,1.36,1.36,0,0,0-.43-1.22,2.58,2.58,0,0,0-1.33-.71,7.75,7.75,0,0,0-1.61-.1,8.58,8.58,0,0,1-1.6-.08c-1.17-.2-2.34-1.14-2.2-2.31a2.1,2.1,0,0,1,1.5-1.63,6,6,0,0,1,2.17-.15c2.38.14,4.83.41,6.36,2.08a.2.2,0,0,1-.3.27c-1.43-1.56-3.79-1.82-6.08-1.95a5.47,5.47,0,0,0-2,.14,1.73,1.73,0,0,0-1.23,1.29c-.12.93.88,1.69,1.87,1.86a7.71,7.71,0,0,0,1.52.08,8.87,8.87,0,0,1,1.7.1,3,3,0,0,1,1.54.82,1.82,1.82,0,0,1,.54,1.59,3.12,3.12,0,0,1-.84,1.37,2.06,2.06,0,0,0-.72,1.36.22.22,0,0,1-.2.21Z" transform="translate(-63.64 -90.11)"/><path class="cls-18" d="M227.56,411a.2.2,0,0,1-.14-.06,152.71,152.71,0,0,0-19.66-17.06.2.2,0,1,1,.23-.33,152.18,152.18,0,0,1,19.72,17.11.22.22,0,0,1,0,.29A.24.24,0,0,1,227.56,411Z" transform="translate(-63.64 -90.11)"/><path class="cls-18" d="M221.63,430.65h0a.21.21,0,0,1-.17-.23c.85-6.15,2.08-17.54.75-24.67a.21.21,0,0,1,.16-.24.2.2,0,0,1,.23.16c1.34,7.19.11,18.63-.74,24.8A.2.2,0,0,1,221.63,430.65Z" transform="translate(-63.64 -90.11)"/><path class="cls-2" d="M239.83,421.17a.54.54,0,0,1-.21-1c.33-.14,3.29-1.38,4.78-1.31a.54.54,0,1,1-.06,1.07,14.3,14.3,0,0,0-4.29,1.23A.54.54,0,0,1,239.83,421.17Z" transform="translate(-63.64 -90.11)"/><path class="cls-2" d="M240.73,424.42a.53.53,0,0,1-.53-.49.53.53,0,0,1,.49-.58l3.63-.32a.53.53,0,0,1,.58.49.52.52,0,0,1-.48.58l-3.64.32Z" transform="translate(-63.64 -90.11)"/><path class="cls-2" d="M244.37,427.17h-4a.54.54,0,1,1,0-1.08h4a.54.54,0,0,1,0,1.08Z" transform="translate(-63.64 -90.11)"/><path class="cls-2" d="M205.48,431a.53.53,0,0,1-.48-.3L203.21,427a.53.53,0,0,1,.24-.72.54.54,0,0,1,.72.24l1.79,3.68a.53.53,0,0,1-.24.72A.52.52,0,0,1,205.48,431Z" transform="translate(-63.64 -90.11)"/><path class="cls-2" d="M202.49,431.88a.52.52,0,0,1-.48-.31l-1.8-3.67a.54.54,0,1,1,1-.47L203,431.1a.54.54,0,0,1-.24.72A.53.53,0,0,1,202.49,431.88Z" transform="translate(-63.64 -90.11)"/><path class="cls-2" d="M199.24,432.82a.53.53,0,0,1-.48-.3l-1.8-3.68a.54.54,0,0,1,1-.47l1.79,3.68a.54.54,0,0,1-.24.72A.69.69,0,0,1,199.24,432.82Z" transform="translate(-63.64 -90.11)"/><path class="cls-25" d="M494.88,160.32H423.25l-14.09,11.09V118.59a2.06,2.06,0,0,1,2.06-2.06h83.66a2.06,2.06,0,0,1,2.06,2.06v39.67A2.06,2.06,0,0,1,494.88,160.32Z" transform="translate(-63.64 -90.11)"/><rect class="cls-26" x="405" y="33.96" width="20.38" height="20.38"/><rect class="cls-26" x="405" y="56.03" width="20.38" height="2.23"/><rect class="cls-26" x="405" y="59.63" width="20.38" height="2.23"/><path class="cls-27" d="M459.25,132.25H419.3a1.38,1.38,0,0,1-1.38-1.38h0a1.37,1.37,0,0,1,1.38-1.37h39.95a1.37,1.37,0,0,1,1.37,1.37h0A1.37,1.37,0,0,1,459.25,132.25Z" transform="translate(-63.64 -90.11)"/><path class="cls-27" d="M446.76,126.83H419.3a1.38,1.38,0,0,1-1.38-1.38h0a1.38,1.38,0,0,1,1.38-1.38h27.46a1.38,1.38,0,0,1,1.38,1.38h0A1.38,1.38,0,0,1,446.76,126.83Z" transform="translate(-63.64 -90.11)"/><path class="cls-27" d="M459.25,137.67H419.3a1.37,1.37,0,0,1-1.38-1.37h0a1.38,1.38,0,0,1,1.38-1.38h39.95a1.37,1.37,0,0,1,1.37,1.38h0A1.37,1.37,0,0,1,459.25,137.67Z" transform="translate(-63.64 -90.11)"/><rect class="cls-27" x="354.29" y="52.22" width="42.7" height="10.38"/><circle class="cls-25" cx="282.93" cy="121.23" r="31.12" transform="translate(21.84 267.26) rotate(-73.29)"/><polygon class="cls-25" points="199.93 49.04 180.82 74.25 210.14 56.15 199.93 49.04"/><rect class="cls-28" x="261.35" y="106.75" width="43.16" height="28.96" rx="2.7" transform="translate(502.23 152.36) rotate(180)"/><path class="cls-25" d="M283,122.8a5.93,5.93,0,0,0,3.42-1.08l15.73-11a.53.53,0,0,0,.13-.74.52.52,0,0,0-.73-.13l-15.73,11a4.91,4.91,0,0,1-5.7,0l-15.05-10.93a.53.53,0,1,0-.62.85l15.05,10.94A5.93,5.93,0,0,0,283,122.8Z" transform="translate(-63.64 -90.11)"/><path class="cls-25" d="M301.84,133.57a.51.51,0,0,0,.45-.25.53.53,0,0,0-.17-.73l-13.36-8.22a.53.53,0,0,0-.56.9l13.36,8.23A.55.55,0,0,0,301.84,133.57Z" transform="translate(-63.64 -90.11)"/><path class="cls-25" d="M264.42,133.57a.55.55,0,0,0,.28-.07l13.36-8.23a.53.53,0,1,0-.56-.9l-13.36,8.22a.53.53,0,0,0-.17.73A.51.51,0,0,0,264.42,133.57Z" transform="translate(-63.64 -90.11)"/><path class="cls-23" d="M389.57,330.93c-1.83,2.64-3.92,5.26-6.82,6.65-.88.41-2,.67-2.74,0a2.57,2.57,0,0,1-.49-2.28,61.26,61.26,0,0,1,1.81-6.89,26.19,26.19,0,0,0-.79-15.35,8,8,0,0,1-.81-3.71c.3-2.28,2.65-3.59,4.41-5.08,4-3.37,5.6-8.76,7-13.82a61.31,61.31,0,0,1,10.11,1.38,23.75,23.75,0,0,0,2.5.56c.76.11,1.56-.08,2.3.07,1.57.33.73,2,.38,2.95-1.1,3-2.22,6-3.39,9s-2.39,5.93-3.7,8.85-2.68,5.75-4.19,8.55A94.37,94.37,0,0,1,390.2,330Q389.9,330.47,389.57,330.93Z" transform="translate(-63.64 -90.11)"/><path class="cls-23" d="M350.49,327c-2.12,2.52-4.25,5-6.57,7.38a22.56,22.56,0,0,1-4.3,3.56c-1,.6-2.29,1.07-3.28.44a2.44,2.44,0,0,1-.95-2.26,8,8,0,0,1,.75-2.46,41.63,41.63,0,0,0,3.11-16.31,35.82,35.82,0,0,1,.09-5.77,7.73,7.73,0,0,1,2.58-5,17.45,17.45,0,0,1,3.72-1.85c5.27-2.4,8.66-7.55,11.75-12.45a10.9,10.9,0,0,0,1.95-4.44s2.14.71,2.34.79c.77.3,1.53.63,2.28,1a28.77,28.77,0,0,1,8.06,5.85,3.49,3.49,0,0,1,1.11,1.65,2.74,2.74,0,0,1-.74,2q-1.59,2.36-3.25,4.66t-3.39,4.56q-1.72,2.26-3.5,4.48c-1.18,1.49-2.37,3-3.57,4.43s-2.41,2.91-3.62,4.36L351.38,326Z" transform="translate(-63.64 -90.11)"/><path class="cls-29" d="M326.79,209.82a19.47,19.47,0,0,0-2.21,15.61,20.47,20.47,0,0,0,10,12.26c4.07,2.16,8.71,2.9,13.27,3.51a179.51,179.51,0,0,0,19.23,1.71c2.76.08,6.11.42,7.27,2.92.75,1.63.21,3.54-.41,5.23-4.61,12.54-13,23.6-16.2,36.58a161.64,161.64,0,0,1,15.49,10.59q8.86-12.3,18.07-24.35a86.91,86.91,0,0,1-1.13,16.9c5,2.74,10.78,3.33,16.42,3.87a2.22,2.22,0,0,0,1.28-.13.76.76,0,0,0,.28-1.1,258.09,258.09,0,0,0,9.22-42.56c.66-5.26,1.15-10.62.31-15.85s-3.15-10.41-7.25-13.76c-4.68-3.83-11-4.83-16.69-6.76-10-3.36-18.76-9.78-28.94-12.38a80.2,80.2,0,0,0-9.76-1.66,48.52,48.52,0,0,0-9.77-.6C339,200.32,330.14,204.54,326.79,209.82Z" transform="translate(-63.64 -90.11)"/><path class="cls-30" d="M390.83,125.9,401.26,117a5.24,5.24,0,0,0,1.67-2,4.61,4.61,0,0,0-.31-3.27c-2.31-5.88-7.67-10-13-13.39-3.09-2-6.67-4-10.25-3.16-3.23.72-5.71,3.59-9,4.11-1.76.29-3.56-.15-5.34-.23a15.55,15.55,0,0,0-13,6.8,21.3,21.3,0,0,0-3.33,14.61c.44,3.77,1.68,7.7.33,11.24-1,2.62-3.28,4.52-5.56,6.16-3.12,2.23-7,3.45-10,5.77s-5.56,5.58-6.16,9.37a24.32,24.32,0,0,1-.7,4.61,7.33,7.33,0,0,1-4.16,4c-2.59,1.07-6,1.28-7.22,3.82-1.09,2.31.71,5.15,3.09,6.1s5.05.51,7.55,0a65.93,65.93,0,0,0,9.2-2.44,86.53,86.53,0,0,0,12.6-6.1c4.79-2.65,9.68-5.37,13.28-9.49,4.49-5.13,6.62-12,11.29-17C376.76,131.72,385.8,130.2,390.83,125.9Z" transform="translate(-63.64 -90.11)"/><path class="cls-31" d="M381.14,151.13a2.43,2.43,0,0,1,1.6.53c7.64,4.84,12.62,13.15,15,21.88,3.3,12.31,1.57,26.2-6,36.48a8.38,8.38,0,0,1-3.27,3,22.24,22.24,0,0,0-8.75-3.73,23.25,23.25,0,0,0-3.91-.21c-4.38,0-8.75-.2-13.12-.38L352,208.24c-3.21-.14-6.42-.27-9.62-.57-10-.93-19.89-3.46-30-3.71-3.44-.09-7.13-.8-8.35-4s-.12-7,2.12-9.62a8.85,8.85,0,0,0,1.3-1.69c.32-.65.41-1.4.7-2.08.58-1.4,1.89-2.35,2.77-3.58,1-1.45,1.46-3.24,2.19-4.87a26.6,26.6,0,0,1,5.2-7l8.07-8.64c5.68-6.09,11.73-12.41,19.66-14.94,8.41-2.68,17.52-.64,26.06,1.56C374.76,149.81,378.42,151.57,381.14,151.13Z" transform="translate(-63.64 -90.11)"/><path class="cls-1" d="M380.56,158a15.18,15.18,0,0,1-1.51,3.24,9.05,9.05,0,0,1-8.44,3.9c-1.44-.18-2.83-.71-4.28-.82-1.72-.13-3.44.33-5.16.21a10.1,10.1,0,0,1-6.28-3.15,28.41,28.41,0,0,1-4.19-5.82,15.2,15.2,0,0,1-1.59-3.27,15.58,15.58,0,0,1-.39-4.87.81.81,0,0,1,.12-.46.63.63,0,0,1,.32-.2,7.54,7.54,0,0,1,3-.56,15.28,15.28,0,0,1,3.48.6l10,2.55c1.54.39,3.09.79,4.65,1.12a43.84,43.84,0,0,0,4.7.77,25.67,25.67,0,0,0,4.72.07c.5-.05,1.22-.26,1.69,0a.64.64,0,0,1,.32.49,4.87,4.87,0,0,1,0,1.08,16.74,16.74,0,0,1-1,4.58Z" transform="translate(-63.64 -90.11)"/><path class="cls-23" d="M393.25,112.61a96.73,96.73,0,0,1-2,14c-.7,3.5-1.53,7.09-3.58,10s-5.6,5.07-9.12,4.44a14.69,14.69,0,0,1-3.31-1.18c-.67,2.06-.87,4.53.37,6.31a8.09,8.09,0,0,0,1.32,1.42,27.2,27.2,0,0,0,4.71,3.39,34.88,34.88,0,0,1-2,5.36,9.18,9.18,0,0,1-1.8,2.63A8.59,8.59,0,0,1,374,160.9a14.52,14.52,0,0,1-9.61-.49c-3.32-1.53-5.61-4.6-7.75-7.55a24.68,24.68,0,0,1-3.83-6.62,73.9,73.9,0,0,0,8.28-4.08,13.7,13.7,0,0,0,3-2.08c1.92-1.85,2.73-4.54,3.47-7.11a3.91,3.91,0,0,0,.15-2.54,6.68,6.68,0,0,0-1-1.37,5,5,0,0,1,.91-6.83c.65-.5,1.73-.75,2.2-.07.27.4.19.94.37,1.39a1.73,1.73,0,0,0,2.11.81,5,5,0,0,0,2-1.41C379.34,118,386.87,115.49,393.25,112.61Z" transform="translate(-63.64 -90.11)"/><path class="cls-23" d="M324.74,192.83l13.94,3.63c2.3.6,4.89,1.16,6.91-.12a9,9,0,0,0,2.07-2.07l2.66-3.3a6.51,6.51,0,0,1,2.23-2,2.14,2.14,0,0,1,2.68.66c.13-.78,1.07-1.06,1.83-1.18,1.25-.2,2.67-.35,3.65.46a5,5,0,0,1,3.74,0,6.71,6.71,0,0,0,.75.27c.43.09.87,0,1.3.11a4.25,4.25,0,0,1,2.16,1.23,17.36,17.36,0,0,1,3.93,5.32c.5,1.06.84,2.48,0,3.3a.84.84,0,0,1-.7.29,1.28,1.28,0,0,1-.52-.26l-1-.75c.08,0,.17.15.17.24a1.56,1.56,0,0,1-1.15,1.45,2.45,2.45,0,0,1-1.89-.34,7.64,7.64,0,0,1-1.49-1.3,2.46,2.46,0,0,1-.29,1.24c.87-.25,1.61.94,1.29,1.81a2.86,2.86,0,0,1-2.09,1.56c-1.87.49-3.85.24-5.74.65a51.27,51.27,0,0,0-5.13,1.93c-2.8.93-5.81.87-8.72,1.27-5.18.71-10.09,2.88-15.27,3.59a44.34,44.34,0,0,1-6.62.3c-3.09-.05-6.17-.24-9.24-.55a14,14,0,0,1-5.54-1.4,11.33,11.33,0,0,1-3.21-2.93,6.78,6.78,0,0,1-1.77-4.35c.1-2.15,1.83-3.79,3.48-5.1,2.61-2.07,5.47-4,8.73-4.58C318.6,191.43,322.07,192.14,324.74,192.83Z" transform="translate(-63.64 -90.11)"/><path class="cls-24" d="M375.45,140.1a.22.22,0,0,0,.19-.12.21.21,0,0,0-.1-.28,9,9,0,0,1-5.09-6.6.2.2,0,1,0-.4.07,9.38,9.38,0,0,0,5.32,6.91Z" transform="translate(-63.64 -90.11)"/><path class="cls-24" d="M384.84,134.3a.2.2,0,0,0,.2-.17.93.93,0,0,1,.62-.73l.14,0a1.31,1.31,0,0,0,.32-.1c.65-.34.52-1.23.46-1.71a6.56,6.56,0,0,1,.43-3.45.2.2,0,0,0-.11-.27.22.22,0,0,0-.27.11,7,7,0,0,0-.46,3.67c.08.56.11,1.11-.23,1.28l-.23.07-.17,0a1.32,1.32,0,0,0-.91,1.06.22.22,0,0,0,.18.23Z" transform="translate(-63.64 -90.11)"/><path class="cls-24" d="M383.28,135.65a3.34,3.34,0,0,0,.84-.11.21.21,0,0,0-.11-.4c-.82.22-1.82.08-2.15-.6a2.34,2.34,0,0,1,.24-1.85.2.2,0,0,0-.11-.26.2.2,0,0,0-.27.11,2.67,2.67,0,0,0-.23,2.18A1.89,1.89,0,0,0,383.28,135.65Z" transform="translate(-63.64 -90.11)"/><path class="cls-24" d="M381.24,135.94a.21.21,0,0,0,.19-.13.22.22,0,0,0-.11-.27,1.05,1.05,0,0,1-.62-.82.21.21,0,0,0-.23-.19.22.22,0,0,0-.18.23,1.45,1.45,0,0,0,.87,1.16Z" transform="translate(-63.64 -90.11)"/><path class="cls-24" d="M358.07,197.75a1.5,1.5,0,0,0,1.4-.67,2,2,0,0,0-.4-2l-3.81-5.82a.21.21,0,0,0-.35.22l3.81,5.83c.31.47.63,1.07.39,1.52s-.85.5-1.36.43a4.5,4.5,0,0,1-2.18-.89l-.45-.38a4.76,4.76,0,0,0-1.06-.76,1.56,1.56,0,0,0-1.94.35l-.06.09c-.05.08-.13.21-.18.21h0a.21.21,0,0,0-.2.19.2.2,0,0,0,.19.22c.29,0,.45-.23.56-.4l0-.08a1.16,1.16,0,0,1,1.42-.2,4.43,4.43,0,0,1,1,.69c.15.14.31.27.47.4a4.94,4.94,0,0,0,2.38,1Z" transform="translate(-63.64 -90.11)"/><path class="cls-24" d="M364.8,200.3a1.64,1.64,0,0,0,.67-.14,1.75,1.75,0,0,0,.84-1.8,4.68,4.68,0,0,0-.74-1.79l-4.67-7.93a.21.21,0,0,0-.29-.07.21.21,0,0,0-.07.28l4.68,7.93a4.35,4.35,0,0,1,.68,1.63,1.35,1.35,0,0,1-.61,1.38,1.59,1.59,0,0,1-1.12,0,7.43,7.43,0,0,1-2.37-1.51l-2.15-1.79a.21.21,0,1,0-.26.32l2.14,1.79a8,8,0,0,0,2.51,1.58A2.47,2.47,0,0,0,364.8,200.3Z" transform="translate(-63.64 -90.11)"/><path class="cls-24" d="M368.78,200.38a2.27,2.27,0,0,0,.62-.09,1.93,1.93,0,0,0,1.24-1.07c.46-1.08-.1-2.23-.78-3.31l-4.3-6.93a.21.21,0,1,0-.35.22l4.3,6.92c.62,1,1.14,2,.75,2.94a1.54,1.54,0,0,1-1,.84,1.56,1.56,0,0,1-1.28-.15.21.21,0,0,0-.23.35A1.85,1.85,0,0,0,368.78,200.38Z" transform="translate(-63.64 -90.11)"/><path class="cls-24" d="M347.72,203.52a5.66,5.66,0,0,0,.6,0,9.8,9.8,0,0,0,6.31-3.33,5.43,5.43,0,0,0,1.48-3.25.2.2,0,0,0-.19-.22.21.21,0,0,0-.22.2,5.15,5.15,0,0,1-1.38,3,9.36,9.36,0,0,1-6,3.18A3.24,3.24,0,0,1,347,203a1.87,1.87,0,0,1-1.24-1.58.2.2,0,0,0-.22-.19.21.21,0,0,0-.19.22,2.28,2.28,0,0,0,1.53,1.94A2.63,2.63,0,0,0,347.72,203.52Z" transform="translate(-63.64 -90.11)"/><path class="cls-24" d="M355.15,205.47h0a2.8,2.8,0,0,0,1.29-.81c2-1.84,3.94-3.72,5.89-5.59a.2.2,0,0,0,0-.29.21.21,0,0,0-.29,0c-1.95,1.87-3.93,3.74-5.89,5.58a2.44,2.44,0,0,1-1.09.71.21.21,0,0,0,0,.41Z" transform="translate(-63.64 -90.11)"/><path class="cls-24" d="M368.48,126.46c.14-.26.39-.45.55-.7a1.16,1.16,0,0,0,.17-.9.86.86,0,0,0-.62-.64,1.21,1.21,0,0,0-.7.07,1.36,1.36,0,0,0-.76.51,1.62,1.62,0,0,0-.17.87,4.6,4.6,0,0,0,.23,1.39,2.35,2.35,0,0,0,.44.75,1.18,1.18,0,0,0,.68.44c.42,0,.16-.68.11-.89A1.22,1.22,0,0,1,368.48,126.46Z" transform="translate(-63.64 -90.11)"/><path class="cls-30" d="M381.26,126.34c-.17.72,0,1.39.44,1.48s.88-.41,1-1.13,0-1.38-.43-1.48S381.43,125.62,381.26,126.34Z" transform="translate(-63.64 -90.11)"/><path class="cls-30" d="M388.58,128.83c-.15.64,0,1.24.39,1.33s.79-.37.95-1,0-1.24-.4-1.33S388.73,128.18,388.58,128.83Z" transform="translate(-63.64 -90.11)"/><path class="cls-30" d="M382.38,121.4a3.21,3.21,0,0,0-1.66,1c-.15.19-.26.46-.08.6a.55.55,0,0,0,.53,0c.18-.08.33-.2.51-.26a1.71,1.71,0,0,1,1.2.11,2,2,0,0,0,1.2.17c.6-.16,1.15-.91.93-1.41s-.89-.36-1.32-.37A5.3,5.3,0,0,0,382.38,121.4Z" transform="translate(-63.64 -90.11)"/><path class="cls-30" d="M391.7,123.73a1,1,0,0,1,.08,1,.7.7,0,0,1-.39.42.2.2,0,0,1-.26-.11c0-.09,0-.2-.06-.29s-.39-.19-.67-.18-.58,0-.7-.14.08-.85.55-1.14a.9.9,0,0,1,.9,0A1.28,1.28,0,0,1,391.7,123.73Z" transform="translate(-63.64 -90.11)"/><path class="cls-32" d="M331.26,194.38a.17.17,0,0,0,.1,0c1-.57,2.21-1.38,2.19-2.62a3.21,3.21,0,0,0-.16-.83,3.14,3.14,0,0,1-.14-.77c0-.92.9-1.45,1.83-2,.29-.18.6-.36.87-.55a8.51,8.51,0,0,0,2.22-2.81c4.91-8.79,6.61-18.41,4.79-27.09a13.1,13.1,0,0,0-2.7-6.11.21.21,0,1,0-.31.27,12.75,12.75,0,0,1,2.61,5.92c1.8,8.59.11,18.11-4.75,26.81a7.94,7.94,0,0,1-2.1,2.67c-.26.19-.54.36-.84.54-1,.59-2,1.2-2,2.35a3.26,3.26,0,0,0,.16.89,3.24,3.24,0,0,1,.14.73c0,1-1.05,1.74-2,2.25a.21.21,0,0,0,.1.39Z" transform="translate(-63.64 -90.11)"/><path class="cls-32" d="M309.89,190.94h.19a3.61,3.61,0,0,0,1.49-.74l.3-.21c2.55-1.73,5.92-1.44,8.3-.9a23.74,23.74,0,0,1,3.7,1.17l.14.06a4.87,4.87,0,0,0,1.8.49h0a1.75,1.75,0,0,0,1.72-1.1A1.64,1.64,0,0,0,327,188a3.51,3.51,0,0,0-1.54-.73.2.2,0,1,0-.1.39,3.05,3.05,0,0,1,1.36.65,1.27,1.27,0,0,1,.42,1.24,1.37,1.37,0,0,1-1.35.81,4.75,4.75,0,0,1-1.65-.46l-.15-.06a23.35,23.35,0,0,0-3.75-1.19c-2.46-.56-6-.85-8.63,1l-.31.21a3.15,3.15,0,0,1-1.31.67,1.07,1.07,0,0,1-.9-.31.58.58,0,0,1-.17-.5.2.2,0,0,0-.4-.08,1,1,0,0,0,.27.86A1.51,1.51,0,0,0,309.89,190.94Z" transform="translate(-63.64 -90.11)"/><path class="cls-32" d="M389.08,176h0a.21.21,0,0,0,.2-.21,40.4,40.4,0,0,0-2.1-10.21c-.21-.68-.41-1.36-.61-2a23.31,23.31,0,0,1-.87-4.08,12.53,12.53,0,0,1,.39-4.48.2.2,0,0,0-.14-.25.21.21,0,0,0-.25.14,12.91,12.91,0,0,0-.41,4.63,23,23,0,0,0,.89,4.15c.19.69.4,1.37.6,2.05a39.82,39.82,0,0,1,2.09,10.1A.2.2,0,0,0,389.08,176Z" transform="translate(-63.64 -90.11)"/><path class="cls-33" d="M399.87,114.31a.21.21,0,0,0,.17-.1,3.71,3.71,0,0,0,.64-1.87,2.27,2.27,0,0,0-.76-1.86,2.41,2.41,0,0,0-1.69-.48,5.43,5.43,0,0,0-1.64.42,20.65,20.65,0,0,0-3.84,1.94.2.2,0,0,0-.06.28.19.19,0,0,0,.28.06,20.49,20.49,0,0,1,3.77-1.9,5.24,5.24,0,0,1,1.52-.39,2,2,0,0,1,1.4.39,1.85,1.85,0,0,1,.61,1.52,3.36,3.36,0,0,1-.58,1.67.21.21,0,0,0,.07.29A.2.2,0,0,0,399.87,114.31Z" transform="translate(-63.64 -90.11)"/><path class="cls-33" d="M334.09,154.17a.2.2,0,0,0,.13,0,3.21,3.21,0,0,0,.9-2.17c0-.16.05-.33.08-.48.77-4.07,5.23-6.15,7.11-6.85,1.15-.43,2.36-.78,3.53-1.12a27.55,27.55,0,0,0,6.38-2.47,13.82,13.82,0,0,0,5.43-6,28.2,28.2,0,0,0,1.69-5.79,37.44,37.44,0,0,1,1-4c1-3,3.26-6.33,6.68-6.62a11.58,11.58,0,0,1,2.75.23,9.93,9.93,0,0,0,3.35.17c2.3-.42,3.87-2.28,5.39-4.07.25-.3.49-.59.74-.87a25.15,25.15,0,0,1,11.56-7.42.2.2,0,0,0,.14-.25.22.22,0,0,0-.26-.14A25.62,25.62,0,0,0,379,113.74l-.75.88c-1.47,1.74-3,3.54-5.14,3.93a9.46,9.46,0,0,1-3.21-.16,11.41,11.41,0,0,0-2.86-.24c-3.61.31-6,3.76-7,6.9a40.12,40.12,0,0,0-1,4.09,27.07,27.07,0,0,1-1.66,5.71,13.39,13.39,0,0,1-5.26,5.84,27.11,27.11,0,0,1-6.29,2.42c-1.18.34-2.39.7-3.56,1.14-1.94.72-6.56,2.88-7.36,7.15,0,.16-.06.33-.08.49a3,3,0,0,1-.76,1.92.21.21,0,0,0,0,.29A.2.2,0,0,0,334.09,154.17Z" transform="translate(-63.64 -90.11)"/><path class="cls-33" d="M335,146.2a.21.21,0,0,0,.16-.08,23,23,0,0,1,8-6.27c.74-.35,1.51-.67,2.27-1a23.82,23.82,0,0,0,4.49-2.24,11.63,11.63,0,0,0,4-4.86,23.65,23.65,0,0,0,1.23-4.14c.23-1,.46-2,.79-3a14.35,14.35,0,0,1,7.49-8.49,28.33,28.33,0,0,1,2.75-1c.58-.18,1.18-.38,1.77-.59a21.39,21.39,0,0,0,11.47-10.16.21.21,0,0,0-.37-.19,20.89,20.89,0,0,1-11.25,10c-.57.22-1.17.41-1.74.59a25.85,25.85,0,0,0-2.79,1,14.76,14.76,0,0,0-7.72,8.74,29.9,29.9,0,0,0-.8,3,23,23,0,0,1-1.21,4.07,11.16,11.16,0,0,1-3.86,4.69,21.84,21.84,0,0,1-4.41,2.19c-.76.31-1.54.63-2.29,1a23.39,23.39,0,0,0-8.12,6.38.21.21,0,0,0,0,.29A.21.21,0,0,0,335,146.2Z" transform="translate(-63.64 -90.11)"/><path class="cls-34" d="M326.59,223.52a16.4,16.4,0,0,0,3.2-.27c5.58-1.07,9.63-5.81,13.3-10.57,1.05-1.36,2.36-3.06,2.53-5.05a.21.21,0,0,0-.19-.22.19.19,0,0,0-.22.19c-.16,1.87-1.43,3.51-2.45,4.83-3.77,4.89-7.61,9.37-13.05,10.42a23.5,23.5,0,0,1-5.56.18.19.19,0,0,0-.21.2.19.19,0,0,0,.19.21C324.94,223.48,325.77,223.52,326.59,223.52Z" transform="translate(-63.64 -90.11)"/><path class="cls-34" d="M390.63,273.89a.22.22,0,0,0,.18-.12l11.26-22.16c2.24-4.41,5.31-10.45,4.22-16.36-1.25-6.82-7.59-11.54-13-14.89a.2.2,0,0,0-.28.07.21.21,0,0,0,.06.28c5.65,3.51,11.58,8,12.8,14.62,1.06,5.77-2,11.74-4.19,16.09l-11.26,22.17a.2.2,0,0,0,.09.27A.17.17,0,0,0,390.63,273.89Z" transform="translate(-63.64 -90.11)"/><path class="cls-34" d="M359.77,289.07a.22.22,0,0,0,.17-.1c7.14-11.38,13.82-23.22,19.87-35.2,1.86-3.68,3.7-8.37,1.43-12-1.86-2.94-5.63-3.78-9-4.52l-.12,0a92.6,92.6,0,0,1-26.62-10.43c-3.24-1.89-6.76-4.3-8.3-7.88a.21.21,0,1,0-.38.17c1.59,3.68,5.18,6.14,8.48,8.07a93.5,93.5,0,0,0,26.74,10.48l.11,0c3.25.73,6.94,1.55,8.7,4.34,2.16,3.41.36,8-1.45,11.54-6,12-12.72,23.81-19.85,35.17a.2.2,0,0,0,.07.28A.15.15,0,0,0,359.77,289.07Z" transform="translate(-63.64 -90.11)"/><path class="cls-25" d="M347.26,218.37h25.33a0,0,0,0,1,0,0v.84a3.9,3.9,0,0,1-3.9,3.9H347.26a0,0,0,0,1,0,0v-4.74A0,0,0,0,1,347.26,218.37Z" transform="translate(656.2 351.37) rotate(180)"/><polygon class="cls-25" points="304.02 133 360.34 133 373.25 86.96 316.93 86.96 304.02 133"/><polygon class="cls-21" points="306.37 133 362.69 133 375.61 86.96 319.28 86.96 306.37 133"/><path class="cls-25" d="M406.38,198.7c-.26,1.5.26,2.84,1.18,3s1.87-.92,2.14-2.42-.27-2.84-1.18-3S406.64,197.21,406.38,198.7Z" transform="translate(-63.64 -90.11)"/><path class="cls-35" d="M345.64,304.73s-2.69,19.83,3.68,23.69c0,0-6.35,8.41-10.86,10.29a2.08,2.08,0,0,1-3.08-1.71c-.57-2.9.93-4.08,1.47-5.83a51.88,51.88,0,0,0,2.13-17.9S338.33,306.19,345.64,304.73Z" transform="translate(-63.64 -90.11)"/><path class="cls-35" d="M383.58,304.73s2.46,20.1,7.47,24c0,0-5.54,10.06-10.34,9.28,0,0-2.71.23-.53-5.64s2.29-12.6-.13-20.62C380.05,311.73,377.93,307.7,383.58,304.73Z" transform="translate(-63.64 -90.11)"/><path class="cls-31" d="M380.74,131.12a3.06,3.06,0,0,1-2-1.79,4.45,4.45,0,0,1-.17-3h0a4.48,4.48,0,0,1,1.7-2.47,3.06,3.06,0,0,1,2.62-.5,3.1,3.1,0,0,1,2,1.79,4.51,4.51,0,0,1,.16,3,4,4,0,0,1-3.55,3.08A2.56,2.56,0,0,1,380.74,131.12Zm-.2-6.92a4,4,0,0,0-1.54,2.25h0a4,4,0,0,0,.14,2.71,2.7,2.7,0,0,0,1.71,1.57c1.57.44,3.28-.77,3.82-2.69a4.06,4.06,0,0,0-.15-2.72,2.68,2.68,0,0,0-1.71-1.57,2.5,2.5,0,0,0-.66-.09A2.85,2.85,0,0,0,380.54,124.2Z" transform="translate(-63.64 -90.11)"/><path class="cls-31" d="M388.74,133.53c-1.47-.42-2.21-2.4-1.64-4.43a4.64,4.64,0,0,1,1.48-2.36,2.45,2.45,0,0,1,2.23-.56c1.47.41,2.21,2.4,1.64,4.42-.5,1.78-1.83,3-3.15,3A2.15,2.15,0,0,1,388.74,133.53Zm.1-6.47a4.22,4.22,0,0,0-1.35,2.15c-.5,1.81.11,3.57,1.37,3.92s2.69-.83,3.2-2.64-.11-3.56-1.37-3.92a1.68,1.68,0,0,0-.45-.06A2.26,2.26,0,0,0,388.84,127.06Z" transform="translate(-63.64 -90.11)"/><path class="cls-31" d="M387,129.64l.35-.22c-.06-.1-.47-.65-2.67-1l-.07.41C386.66,129.15,387,129.63,387,129.64Z" transform="translate(-63.64 -90.11)"/><path class="cls-31" d="M378.89,126.31a.21.21,0,0,0,.16-.07.21.21,0,0,0,0-.29c-.34-.29-8.43-7-11.16-6.72a5.57,5.57,0,0,0-4.08,2.59.2.2,0,0,0,.08.28.21.21,0,0,0,.28-.08,5.22,5.22,0,0,1,3.76-2.38c2.58-.29,10.77,6.55,10.86,6.62A.15.15,0,0,0,378.89,126.31Z" transform="translate(-63.64 -90.11)"/><path class="cls-36" d="M144.7,227.81a2.83,2.83,0,0,1,2-1.21,17.29,17.29,0,0,0-.32-6.91,4.55,4.55,0,0,1-5.21-6.88,4.79,4.79,0,0,1,.82-.91,16.53,16.53,0,0,0-2.63-2.19,17.19,17.19,0,0,0-23.88,4.58h0a4.55,4.55,0,0,1-2.89,8.21,17.19,17.19,0,0,0,31.37,11.08,18.6,18.6,0,0,0,1.22-2.11A2.8,2.8,0,0,1,144.7,227.81Z" transform="translate(-63.64 -90.11)"/><path class="cls-37" d="M122.65,280.8h0a.3.3,0,0,1-.26-.34l7.35-57a.3.3,0,0,1,.33-.26.3.3,0,0,1,.27.34l-7.35,57A.3.3,0,0,1,122.65,280.8Z" transform="translate(-63.64 -90.11)"/><path class="cls-37" d="M115.26,233.58a.29.29,0,0,1-.25-.13.3.3,0,0,1,.08-.42l14.65-9.83a.3.3,0,1,1,.33.5l-14.64,9.83A.26.26,0,0,1,115.26,233.58Z" transform="translate(-63.64 -90.11)"/><path class="cls-37" d="M129.91,223.75a.32.32,0,0,1-.27-.16l-8.06-14.81a.29.29,0,0,1,.12-.4.3.3,0,0,1,.41.12l8.06,14.81a.29.29,0,0,1-.12.4A.23.23,0,0,1,129.91,223.75Z" transform="translate(-63.64 -90.11)"/><path class="cls-37" d="M130,223.81a.32.32,0,0,1-.14,0,.3.3,0,0,1-.13-.41l7.49-14.9a.3.3,0,1,1,.53.27l-7.48,14.91A.32.32,0,0,1,130,223.81Z" transform="translate(-63.64 -90.11)"/><path class="cls-37" d="M140.3,237.79a.3.3,0,0,1-.24-.12l-10.4-14a.3.3,0,0,1,.07-.42.3.3,0,0,1,.42.06l10.39,14a.3.3,0,0,1-.24.48Z" transform="translate(-63.64 -90.11)"/><path class="cls-37" d="M146.9,224.15h0l-16.9-.34a.3.3,0,0,1-.3-.31.31.31,0,0,1,.31-.29l16.9.33a.32.32,0,0,1,.3.31A.31.31,0,0,1,146.9,224.15Z" transform="translate(-63.64 -90.11)"/><path class="cls-38" d="M149.9,265.81a2.54,2.54,0,0,1,2.07-.5,15.91,15.91,0,0,0,1.63-6.1,4.16,4.16,0,0,1-2.62-7.43,4.52,4.52,0,0,1,1-.56,15.69,15.69,0,0,0-23.71-5.28h0a4.15,4.15,0,0,1-4.79,6.33,15.68,15.68,0,0,0,25.84,16.84A2.56,2.56,0,0,1,149.9,265.81Z" transform="translate(-63.64 -90.11)"/><path class="cls-37" d="M128.59,279.1a.31.31,0,0,1-.13,0,.3.3,0,0,1-.14-.4L138,257.86a.3.3,0,0,1,.4-.14.3.3,0,0,1,.15.4l-9.73,20.8A.3.3,0,0,1,128.59,279.1Z" transform="translate(-63.64 -90.11)"/><path class="cls-37" d="M122.79,262.7a.31.31,0,0,1-.29-.22.29.29,0,0,1,.21-.37l15.46-4.49a.3.3,0,0,1,.37.21.29.29,0,0,1-.2.37l-15.46,4.49Z" transform="translate(-63.64 -90.11)"/><path class="cls-37" d="M138.25,258.21a.31.31,0,0,1-.3-.24l-2.9-15.11a.3.3,0,0,1,.24-.35.3.3,0,0,1,.36.23l2.9,15.11a.31.31,0,0,1-.24.36Z" transform="translate(-63.64 -90.11)"/><path class="cls-37" d="M138.31,258.29a.3.3,0,0,1-.21-.09.29.29,0,0,1,0-.42l10.64-10.88a.31.31,0,0,1,.43,0,.3.3,0,0,1,0,.43L138.53,258.2A.31.31,0,0,1,138.31,258.29Z" transform="translate(-63.64 -90.11)"/><path class="cls-37" d="M143.39,273.3a.3.3,0,0,1-.28-.2L138,258a.29.29,0,0,1,.18-.38.31.31,0,0,1,.39.18l5.14,15.09a.31.31,0,0,1-.19.39Z" transform="translate(-63.64 -90.11)"/><path class="cls-37" d="M152.91,263.27h-.1l-14.6-5a.29.29,0,0,1-.18-.38.3.3,0,0,1,.38-.19l14.6,5a.3.3,0,0,1-.1.59Z" transform="translate(-63.64 -90.11)"/><path class="cls-36" d="M122.7,247.56a3.09,3.09,0,0,1,1.06-2.33,19.07,19.07,0,0,0-4.56-6.1,5,5,0,0,1-8.82-4.4,19.31,19.31,0,0,0-3.75-.37A18.94,18.94,0,0,0,87.68,253.3v0a5,5,0,0,1,2.43,9.27,18.95,18.95,0,0,0,35.46-9.29,19.63,19.63,0,0,0-.19-2.67A3.1,3.1,0,0,1,122.7,247.56Z" transform="translate(-63.64 -90.11)"/><path class="cls-37" d="M119.12,277.79a.31.31,0,0,1-.27-.17l-12.49-24.75a.3.3,0,0,1,.13-.41.32.32,0,0,1,.41.13l12.49,24.76a.29.29,0,0,1-.13.4A.23.23,0,0,1,119.12,277.79Z" transform="translate(-63.64 -90.11)"/><path class="cls-37" d="M99.23,271.05a.2.2,0,0,1-.11,0,.3.3,0,0,1-.17-.39l7.28-18a.3.3,0,0,1,.56.22l-7.28,18A.3.3,0,0,1,99.23,271.05Z" transform="translate(-63.64 -90.11)"/><path class="cls-37" d="M106.51,253a.32.32,0,0,1-.14,0l-16.51-8.52a.3.3,0,1,1,.28-.54l16.51,8.52a.32.32,0,0,1,.13.41A.32.32,0,0,1,106.51,253Z" transform="translate(-63.64 -90.11)"/><path class="cls-37" d="M106.63,253a.3.3,0,0,1-.3-.26l-2.39-18.22a.3.3,0,0,1,.26-.34.31.31,0,0,1,.34.26l2.39,18.22a.3.3,0,0,1-.26.34Z" transform="translate(-63.64 -90.11)"/><path class="cls-37" d="M124.67,259.41h-.1L106.41,253a.31.31,0,0,1-.19-.39.3.3,0,0,1,.39-.18l18.16,6.38a.29.29,0,0,1,.18.38A.3.3,0,0,1,124.67,259.41Z" transform="translate(-63.64 -90.11)"/><path class="cls-37" d="M106.63,253a.33.33,0,0,1-.26-.13.31.31,0,0,1,.09-.42l15.62-10.14a.3.3,0,1,1,.33.5L106.79,253A.25.25,0,0,1,106.63,253Z" transform="translate(-63.64 -90.11)"/><rect class="cls-15" x="47.7" y="185.58" width="24.88" height="22.46"/><path class="cls-39" d="M279.26,193.87a14.22,14.22,0,1,1,14.22-14.22A14.24,14.24,0,0,1,279.26,193.87Zm0-21a6.73,6.73,0,1,0,6.72,6.73A6.74,6.74,0,0,0,279.26,172.92Z" transform="translate(-63.64 -90.11)"/><path class="cls-39" d="M503.09,192.45a8.72,8.72,0,1,1,8.72-8.72A8.73,8.73,0,0,1,503.09,192.45Zm0-13.49a4.77,4.77,0,1,0,4.77,4.77A4.78,4.78,0,0,0,503.09,179Z" transform="translate(-63.64 -90.11)"/><path class="cls-20" d="M98.12,225.82,74.26,210.53l19.62-26.61ZM79.94,209.48l13.43,8.6L91,194.5Z" transform="translate(-63.64 -90.11)"/><path class="cls-20" d="M453.65,208.61l15.29-23.86,26.6,19.62ZM470,190.43l-8.61,13.43L485,201.48Z" transform="translate(-63.64 -90.11)"/><path class="cls-20" d="M282.9,407.91l-20.74-9.59L276,383.27ZM268.73,397l8,3.72-2.7-9.56Z" transform="translate(-63.64 -90.11)"/></svg>