<svg id="Layer_1" data-name="Layer 1" xmlns="http://www.w3.org/2000/svg" viewBox="0 0 34.68 34.68"><defs><style>.cls-1{fill:#fff;}</style></defs><title>offer-icon</title><path class="cls-1" d="M100.78,190.75H93.15a.6.6,0,0,1-.61-.6v-4a14.76,14.76,0,0,1-1.44-.61l-2.84,2.84a.6.6,0,0,1-.86,0L82,183a.6.6,0,0,1-.18-.43.58.58,0,0,1,.18-.43l2.84-2.84a12.07,12.07,0,0,1-.61-1.45h-4a.61.61,0,0,1-.61-.6V169.6a.61.61,0,0,1,.61-.61h4a12.66,12.66,0,0,1,.61-1.44L82,164.71a.6.6,0,0,1-.18-.43.58.58,0,0,1,.18-.43l5.39-5.39a.6.6,0,0,1,.86,0l2.84,2.84a11.94,11.94,0,0,1,1.44-.61v-4a.61.61,0,0,1,.61-.61h7.63a.61.61,0,0,1,.6.61v4a12.07,12.07,0,0,1,1.45.61l2.84-2.84a.62.62,0,0,1,.86,0l5.39,5.39a.6.6,0,0,1,0,.86l-2.84,2.84a14.76,14.76,0,0,1,.61,1.44h4a.6.6,0,0,1,.6.61v7.63a.6.6,0,0,1-.6.6h-4a14,14,0,0,1-.61,1.45l2.84,2.84a.62.62,0,0,1,.18.43.64.64,0,0,1-.18.43l-5.39,5.39a.6.6,0,0,1-.86,0l-2.84-2.84a14,14,0,0,1-1.45.61v4A.6.6,0,0,1,100.78,190.75Zm-7-1.21h6.42V185.7a.61.61,0,0,1,.43-.58,11.7,11.7,0,0,0,2.06-.86.62.62,0,0,1,.72.1l2.72,2.73,4.54-4.54-2.73-2.72a.62.62,0,0,1-.1-.72,12.51,12.51,0,0,0,.86-2.06.61.61,0,0,1,.58-.43h3.84V170.2h-3.84a.6.6,0,0,1-.58-.42,12.6,12.6,0,0,0-.86-2.07.61.61,0,0,1,.1-.71l2.73-2.72-4.54-4.54-2.72,2.72a.62.62,0,0,1-.72.11,11.39,11.39,0,0,0-2.06-.86.62.62,0,0,1-.43-.58v-3.84H93.75v3.84a.61.61,0,0,1-.42.58,11.79,11.79,0,0,0-2.07.86.61.61,0,0,1-.71-.11l-2.72-2.72-4.54,4.54L86,167a.61.61,0,0,1,.11.71,11.79,11.79,0,0,0-.86,2.07.61.61,0,0,1-.58.42H80.84v6.42h3.84a.62.62,0,0,1,.58.43,11.7,11.7,0,0,0,.86,2.06.62.62,0,0,1-.11.72l-2.72,2.72,4.54,4.54,2.72-2.73a.61.61,0,0,1,.71-.1,11.79,11.79,0,0,0,2.07.86.6.6,0,0,1,.42.58Z" transform="translate(-79.62 -156.07)"/><path class="cls-1" d="M97,184a10.62,10.62,0,1,1,10.62-10.62A10.63,10.63,0,0,1,97,184Zm0-20a9.41,9.41,0,1,0,9.41,9.4A9.41,9.41,0,0,0,97,164Z" transform="translate(-79.62 -156.07)"/><path class="cls-1" d="M97,180.2A3.82,3.82,0,0,1,93,176.5a.61.61,0,0,1,1.22,0A2.72,2.72,0,1,0,97,174a3.7,3.7,0,1,1,3.92-3.7.61.61,0,1,1-1.21,0A2.71,2.71,0,1,0,97,172.81a3.7,3.7,0,1,1,0,7.39Z" transform="translate(-79.62 -156.07)"/><path class="cls-1" d="M98.17,181.45a.6.6,0,0,1-.6-.61V166a.61.61,0,0,1,1.21,0v14.86A.61.61,0,0,1,98.17,181.45Z" transform="translate(-79.62 -156.07)"/><path class="cls-1" d="M95.75,181.45a.6.6,0,0,1-.6-.61V166a.61.61,0,0,1,1.21,0v14.86A.61.61,0,0,1,95.75,181.45Z" transform="translate(-79.62 -156.07)"/></svg>