<svg id="Layer_1" data-name="Layer 1" xmlns="http://www.w3.org/2000/svg" viewBox="0 0 92.61 81.36"><defs><style>.cls-1{fill:#110239;}.cls-2{fill:#fefefe;}.cls-3{fill:#9c9eb9;}.cls-4{fill:#d0d1de;}.cls-5{fill:#01c7e2;}.cls-6{fill:#fd425f;}.cls-7{fill:#fff;}.cls-8{fill:#f88667;}.cls-9{fill:#e5e6ed;}.cls-10{fill:#abadc4;}</style></defs><title>rev-growth</title><rect class="cls-1" x="13.73" y="58.11" width="65.14" height="9.56"/><rect class="cls-1" x="7.55" y="12.7" width="77.5" height="51.95" rx="3.99"/><rect class="cls-2" x="11.12" y="16.14" width="70.36" height="44.53"/><path class="cls-1" d="M418.05,215.36v1.42c0,.79.86,1.42,1.91,1.42h88.79c1.05,0,1.91-.63,1.91-1.42v-1.42Z" transform="translate(-418.05 -136.84)"/><path class="cls-1" d="M464.36,204.4h-38c-.12.14-6.1,5.49-7.92,9.46-.78,1.7-.27,2.6,1.18,2.6h89.51c1.46,0,2-.9,1.19-2.6-1.83-4-7.8-9.32-7.93-9.46Z" transform="translate(-418.05 -136.84)"/><polygon class="cls-3" points="87.8 77.58 6.81 77.58 12.42 69.27 82.19 69.27 87.8 77.58"/><path class="cls-4" d="M504.87,213l-.18-.26h-5.4l-1-2h5.05l-.18-.26h-5l-1-2h4.65l-.17-.26H497l-1-2h-.46l1,2h-5.79l-.81-2h-.46l.79,2h-5.79l-.6-2h-.47l.59,2h-5.78l-.4-2h-.47l.38,2h-5.78l-.19-2h-.47l.17,2H466v-2h-.51v2h-5.7l.18-2h-.47l-.19,2h-5.78l.38-2h-.47l-.4,2h-5.78l.59-2h-.47l-.61,2H441l.79-2h-.46l-.81,2h-5.79l1-2h-.47l-1,2h-5.11l-.17.26h5.15l-1,2h-5.5l-.18.26h5.55l-1,2H426l-.18.26h6l-.72,1.45h.53l.71-1.45h6.24l-.58,1.45h.53l.57-1.45h6.24l-.43,1.45h.53l.42-1.45h6.24l-.29,1.45h.54l.27-1.45h6.24l-.14,1.45h.53l.13-1.45h6.1v1.45H466V213h5.9l.13,1.45h.53l-.14-1.45h6.24l.27,1.45h.54l-.29-1.45h6.24l.42,1.45h.53L485.9,213h6.24l.57,1.45h.53l-.58-1.45h6.23l.72,1.45h.53l-.73-1.45Zm-64-4.56h5.81l-.6,2h-6Zm-6.3,0h5.81l-.8,2h-6Zm4.11,4.3h-6.22l1-2h6Zm6.73,0h-6.22l.79-2h6Zm6.73,0h-6.21l.58-2h6Zm.44-2.28h-6l.58-2H453Zm6.29,2.28h-6.21l.37-2h6Zm.21-2.28h-6l.38-2h5.81Zm6.39,2.28h-6.08l.17-2h5.91Zm0-2.28h-5.89l.17-2h5.72Zm.51-2h5.52l.17,2H466Zm0,4.3v-2h5.71l.17,2Zm30.7-4.3,1,2h-6l-.8-2Zm-6.3,0,.79,2h-6l-.6-2Zm-18.4,0h5.81l.38,2h-6Zm.4,4.3-.19-2h6l.37,2Zm5.9-4.3h5.81l.58,2h-6Zm.83,4.3-.39-2h6l.58,2Zm6.73,0-.59-2h6l.79,2Zm6.73,0-.8-2h6l1,2Z" transform="translate(-418.05 -136.84)"/><path class="cls-1" d="M464.36,216.46h-3.94a.78.78,0,0,0,.2.54.44.44,0,0,0,.3.11h6.88a.42.42,0,0,0,.29-.11.78.78,0,0,0,.2-.54Z" transform="translate(-418.05 -136.84)"/><rect class="cls-2" x="11.12" y="16.14" width="70.36" height="44.53"/><polygon class="cls-5" points="47.61 38.85 41.26 41.68 33.23 33.65 11.12 50.49 11.12 60.67 81.48 60.67 81.48 8.35 52.09 43.92 47.61 38.85"/><rect class="cls-2" x="25" y="47.08" width="2.25" height="1.7"/><rect class="cls-2" x="28.16" y="47.08" width="2.25" height="1.7"/><rect class="cls-6" x="31.33" y="47.08" width="2.25" height="1.7"/><rect class="cls-2" x="34.5" y="47.08" width="2.25" height="1.7"/><rect class="cls-2" x="37.66" y="47.08" width="2.25" height="1.7"/><rect class="cls-6" x="40.83" y="47.08" width="2.25" height="1.7"/><rect class="cls-2" x="25" y="49.98" width="2.25" height="1.7"/><rect class="cls-2" x="28.16" y="49.98" width="2.25" height="1.7"/><rect class="cls-2" x="31.33" y="49.98" width="2.25" height="1.7"/><rect class="cls-2" x="34.5" y="49.98" width="2.25" height="1.7"/><rect class="cls-6" x="37.66" y="49.98" width="2.25" height="1.7"/><rect class="cls-2" x="40.83" y="49.98" width="2.25" height="1.7"/><rect class="cls-2" x="25" y="52.89" width="2.25" height="1.7"/><rect class="cls-6" x="28.16" y="52.89" width="2.25" height="1.7"/><rect class="cls-2" x="31.33" y="52.89" width="2.25" height="1.7"/><rect class="cls-2" x="34.5" y="52.89" width="2.25" height="1.7"/><rect class="cls-2" x="37.66" y="52.89" width="2.25" height="1.7"/><rect class="cls-2" x="40.83" y="52.89" width="2.25" height="1.7"/><rect class="cls-2" x="25" y="55.8" width="2.25" height="1.7"/><rect class="cls-2" x="28.16" y="55.8" width="2.25" height="1.7"/><rect class="cls-6" x="31.33" y="55.8" width="2.25" height="1.7"/><rect class="cls-2" x="34.5" y="55.8" width="2.25" height="1.7"/><polygon class="cls-7" points="48.37 42.26 48.14 42.04 47.86 42.16 47.68 41.72 48.24 41.48 48.68 41.92 48.37 42.26"/><path class="cls-7" d="M461.3,180.94l-.18-.45.77-.32.18.44Zm1.54-.65-.18-.44.77-.33.18.45Zm1.54-.65-.18-.44.76-.32.18.44Z" transform="translate(-418.05 -136.84)"/><polygon class="cls-7" points="41.92 44.65 41.46 44.25 41.76 43.88 42 44.1 42.3 43.98 42.48 44.42 41.92 44.65"/><path class="cls-7" d="M458.83,180.49l-.68-.59.29-.36.69.59Zm-1.36-1.19-.69-.59.3-.36.68.59Zm-1.37-1.18-.68-.6.3-.36.68.59Zm-1.36-1.19-.68-.6.3-.36.68.6Zm-1.36-1.19-.68-.6.3-.36.68.6Z" transform="translate(-418.05 -136.84)"/><polygon class="cls-7" points="33.96 37.7 33.74 37.51 33.51 37.68 33.24 37.28 33.77 36.91 34.26 37.34 33.96 37.7"/><path class="cls-7" d="M430.76,189.13l-.27-.4.81-.58.28.41Zm1.63-1.15-.27-.4.82-.57.27.4Zm1.63-1.14-.27-.4.81-.57.27.4Zm1.63-1.14-.28-.4.81-.57.27.4Zm1.61-1.14-.27-.4.81-.56.27.4Zm1.61-1.13-.27-.4.81-.56.27.4Zm1.61-1.13-.27-.4.8-.56.27.4Zm1.6-1.12-.27-.4.8-.56.27.4Zm1.59-1.12-.27-.4.8-.56.27.4Zm1.59-1.12-.27-.39.79-.56.27.4Zm1.59-1.11-.27-.39.78-.56.27.4Zm1.57-1.11-.27-.39.79-.55.27.39Zm1.57-1.1-.27-.39.79-.55.27.39Z" transform="translate(-418.05 -136.84)"/><path class="cls-7" d="M471.88,182.21l-.34-.33.6-.7.35.32Zm1.21-1.41-.35-.32.6-.7.35.32Zm1.2-1.4-.35-.32.6-.7.35.32Zm1.2-1.39-.35-.32.6-.7.34.32Zm1.19-1.39-.35-.32.6-.69.34.32Zm1.19-1.39-.35-.32.6-.69.34.32Zm1.18-1.38-.34-.31.59-.69.34.32Zm1.18-1.37-.34-.32.59-.68.34.31Zm1.18-1.37-.34-.32.58-.68.34.32Zm1.17-1.37-.34-.31.58-.68.34.31Zm1.17-1.36-.34-.31.58-.68.34.31Zm1.16-1.35-.34-.32.58-.67.34.31Zm1.16-1.35-.34-.32.58-.67.34.31Zm1.16-1.35-.34-.31.57-.68.34.32Zm1.15-1.34-.34-.32.58-.67.33.32Zm1.15-1.34-.34-.31.57-.67.34.31Zm1.14-1.33-.34-.32.57-.66.34.31Zm1.14-1.33-.34-.31L492,158l.34.32Zm1.14-1.32-.34-.32.57-.66.33.32Zm1.13-1.32-.34-.32.57-.65.33.31Zm1.13-1.32-.34-.31.57-.65.33.31Zm1.12-1.31-.33-.31.56-.65.33.31Zm1.05-1.24-.33-.31.56-.65.33.31Zm1.05-1.24-.34-.31.56-.65.34.31Z" transform="translate(-418.05 -136.84)"/><polygon class="cls-7" points="52.77 46.6 52.26 46.1 52.57 45.76 52.73 45.91 52.88 45.74 53.23 46.07 52.77 46.6"/><path class="cls-7" d="M469.53,182.17l-.78-.77.32-.34.78.77ZM468,180.64l-.78-.77.31-.34.78.77Z" transform="translate(-418.05 -136.84)"/><path class="cls-6" d="M497.66,140l-27.42,34.77-4.44-5.36-6.5,3.08-8.25-8.8-21.88,17.78v2.14L451,165.88l8.13,8.68,6.46-3.07,4.69,5.67,28.47-36.08A9.91,9.91,0,0,1,497.66,140Z" transform="translate(-418.05 -136.84)"/><polygon class="cls-6" points="83.86 0 77.39 2.19 81.67 6.47 83.86 0"/><path class="cls-6" d="M437.64,158.65c1.46.11,2.8.74,2.81,2.2H438c0-.55-.59-.66-.94-.66s-.95,0-.95.45c0,1,4.49-.06,4.51,2.77,0,1.7-1.31,2.34-2.95,2.46l.12,1.81h-1.49l.08-1.82c-1.51-.15-2.93-.85-2.94-2.38l2.44,0v.06c0,.67.77.8,1.15.79s1.09,0,1.09-.52c0-1-4.49-.06-4.51-2.8,0-1.58,1.22-2.2,2.73-2.34l-.1-1.81h1.48Z" transform="translate(-418.05 -136.84)"/><path class="cls-1" d="M474.81,207.64s.1,2-.18,2.28-4.22.72-4.58.39-.22-1,.61-1.26,1.34-.11,1.89-.39.33-1.16.33-1.16Z" transform="translate(-418.05 -136.84)"/><path class="cls-1" d="M487.67,207.64s-.1,2,.19,2.28,4.21.72,4.58.39.21-1-.61-1.26-1.35-.11-1.9-.39-.33-1.16-.33-1.16Z" transform="translate(-418.05 -136.84)"/><path class="cls-6" d="M487.89,196.19a87.72,87.72,0,0,0-3.58-10.09c-.34-.12-.72-.23-1.1-.34.1-.46.17-.86.24-1.21-.67.18-1.37.27-2.09.49l-.32.1-.32-.1c-.72-.22-1.43-.31-2.09-.49.07.35.14.75.24,1.21-.38.11-.76.22-1.1.34a87.72,87.72,0,0,0-3.58,10.09c-.59,3-1.58,11.83-1.58,11.83l2.52.34s2.54-11.9,2.9-12.55c.65-1.19,1.33-2.23,1.94-3.16a1.28,1.28,0,0,1,2.14,0c.61.93,1.29,2,1.94,3.16.36.65,2.9,12.55,2.9,12.55l2.52-.34S488.48,199.17,487.89,196.19Z" transform="translate(-418.05 -136.84)"/><path class="cls-8" d="M488.58,159.39c-.15-1-.3-1.18-.64-1.39a1.28,1.28,0,0,1-.44-.32,2.67,2.67,0,0,0-.46-.42,1.08,1.08,0,0,1-.41-.46c-.08-.24.24-.18.45-.1s.65.7.9.62-.33-.81-.44-1c-.27-.34-.6-.29-1-.45s-.28-.19-.06-.33.39,0,.56,0a2.36,2.36,0,0,1,1,.61,2.5,2.5,0,0,0-.85-.66c-.18-.09-1-.35-.9-.65.24-.6,1.88.53,2.06.85a3.1,3.1,0,0,0-.81-.72c-.17-.12-.59-.4-.24-.54.53-.21,1.16.76,1.52,1.15a3.93,3.93,0,0,0-.61-.83c-.29-.35.07-.44.43-.13a4.55,4.55,0,0,1,.46.51,3.39,3.39,0,0,1,.7,2.08c0,.32,0,.84.14,1.76C490,159.58,489,159.3,488.58,159.39Z" transform="translate(-418.05 -136.84)"/><path class="cls-8" d="M464,173.71c-1-.36-1.09-.75-1.21-1.13a1.52,1.52,0,0,0-.23-.5,3.06,3.06,0,0,1-.31-.54,1,1,0,0,0-.36-.49c-.22-.14-.22.19-.19.41s.55.79.41,1-.72-.49-.84-.64c-.27-.33-.16-.64-.23-1-.05-.22-.14-.31-.32-.12a.7.7,0,0,0-.08.55,2.5,2.5,0,0,0,.38,1.08,3,3,0,0,1-.46-1c-.05-.2-.12-1.08-.44-1-.64.11.12,1.95.39,2.19a3.09,3.09,0,0,1-.52-.94c-.09-.2-.27-.67-.48-.35-.32.47.49,1.29.79,1.73a4.21,4.21,0,0,1-.67-.77c-.28-.36-.45,0-.22.39a4.82,4.82,0,0,0,.39.55,3.34,3.34,0,0,0,1.89,1.13,8.12,8.12,0,0,1,1.62.61C463.81,175.1,463.84,174.12,464,173.71Z" transform="translate(-418.05 -136.84)"/><path class="cls-8" d="M482.28,171.79a6.14,6.14,0,0,1-1.65.08,3,3,0,0,1-.58-.12,5.75,5.75,0,0,1-.46,2.93s.17.77,1.58.79,1.58-.79,1.58-.79A7.07,7.07,0,0,1,482.28,171.79Z" transform="translate(-418.05 -136.84)"/><path class="cls-9" d="M487.69,175.68a7.58,7.58,0,0,0-3.43-1.76,19.12,19.12,0,0,0-6,0,5.26,5.26,0,0,0-2.83,1c-.48.62.95,4.05,1.19,7.2.2,2.62.56,4.64.56,4.64.78,1.45,6.95,1.49,7.74,0,0,0,.15-2.24.57-4.68C486,178.94,488.18,176.3,487.69,175.68Z" transform="translate(-418.05 -136.84)"/><path class="cls-10" d="M477.79,181.39a9.52,9.52,0,0,0,0-3.15,4.37,4.37,0,0,0-2.39-2,45.1,45.1,0,0,1,1.17,5.9c.2,2.62.56,4.64.56,4.64a1.68,1.68,0,0,0,.93.65C477.19,185.72,477.71,183,477.79,181.39Z" transform="translate(-418.05 -136.84)"/><path class="cls-8" d="M484.18,168s-2.92-1.71-3.36-1.29-1.13,1.85-1.47,2.07-.85.43-.81.69.22.27.21.53-.61,1.5-.29,1.87a3.74,3.74,0,0,0,3.71.33C483.45,171.31,485.61,168.73,484.18,168Z" transform="translate(-418.05 -136.84)"/><path class="cls-1" d="M484.82,168.59l-2.45,0a5.09,5.09,0,0,1-1.51,2s.06.36.32.29a.8.8,0,0,0,.6-.38c.17-.27.7-1,1.06-.36s-.41.84-.73.84c0,0-1.12,1.35-.25,1.6a5,5,0,0,0,2.45-1.71C485.78,169.34,485.48,168.47,484.82,168.59Z" transform="translate(-418.05 -136.84)"/><path class="cls-1" d="M480.18,165.72s-1.19.73.19,2.18,4.63.69,4.63.69.34-1-.83-1.94a2.61,2.61,0,0,0-2.62-.77C480.24,166.49,480.18,165.72,480.18,165.72Z" transform="translate(-418.05 -136.84)"/><path class="cls-9" d="M463.7,173.24l-1,1.67a47.37,47.37,0,0,0,5.77,4.62c1.79,1.19,7.94-.72,8.89-1,1.36-.41,2.38-3.28.12-4.35-1.33-.63-6.65,3.42-8,2.73C467.85,176.06,463.7,173.24,463.7,173.24Z" transform="translate(-418.05 -136.84)"/><path class="cls-9" d="M488.13,159l2.07-.35s1.37,6,1.29,8.13-3.51,10-4.29,10.59c-.94.74-3.54-1.39-1.65-3.68s3.11-7,3.16-7.19S488.13,159,488.13,159Z" transform="translate(-418.05 -136.84)"/><rect class="cls-4" x="27.27" y="18.7" width="16.7" height="1.5"/><rect class="cls-4" x="27.27" y="21.08" width="16.7" height="1.5"/><rect class="cls-4" x="27.27" y="23.45" width="12.64" height="1.5"/></svg>