<svg id="Layer_1" data-name="Layer 1" xmlns="http://www.w3.org/2000/svg" viewBox="0 0 35.73 35.81"><defs><style>.cls-1{fill:#fff;}</style></defs><title>target-icon</title><path class="cls-1" d="M281.22,47.06a14.65,14.65,0,0,1-7.39-2,.62.62,0,0,1-.23-.83.61.61,0,0,1,.83-.22,13.6,13.6,0,1,0-4.73-4.59.61.61,0,0,1-.2.84.6.6,0,0,1-.83-.2,14.79,14.79,0,1,1,12.55,7Z" transform="translate(-262.37 -15.31)"/><path class="cls-1" d="M281.21,49.2A16.87,16.87,0,0,1,272.84,47a.61.61,0,0,1-.23-.83.62.62,0,0,1,.83-.23,15.74,15.74,0,0,0,23.1-10,.61.61,0,0,1,1.18.28,17,17,0,0,1-16.51,13Z" transform="translate(-262.37 -15.31)"/><path class="cls-1" d="M291.11,19.83a.63.63,0,0,1-.37-.12,16.17,16.17,0,0,0-1.7-1.13.6.6,0,0,1-.23-.82.62.62,0,0,1,.83-.23,16.17,16.17,0,0,1,1.83,1.22.61.61,0,0,1,.12.85A.62.62,0,0,1,291.11,19.83Z" transform="translate(-262.37 -15.31)"/><path class="cls-1" d="M297.5,31.23a.62.62,0,0,1-.61-.55,15.41,15.41,0,0,0-.64-3.16.59.59,0,0,1,.39-.76.6.6,0,0,1,.76.39,17.21,17.21,0,0,1,.7,3.41.61.61,0,0,1-.54.66Zm-2-6.37a.62.62,0,0,1-.53-.31,15.45,15.45,0,0,0-1.86-2.63.61.61,0,0,1,.06-.86.6.6,0,0,1,.85.06A17,17,0,0,1,296,24a.62.62,0,0,1-.23.83A.63.63,0,0,1,295.49,24.86Z" transform="translate(-262.37 -15.31)"/><path class="cls-1" d="M297.13,36.67H297a.61.61,0,0,1-.45-.73,15.34,15.34,0,0,0,.34-2,.61.61,0,0,1,1.21.12,17.56,17.56,0,0,1-.37,2.17A.61.61,0,0,1,297.13,36.67Z" transform="translate(-262.37 -15.31)"/><path class="cls-1" d="M267,41a.6.6,0,0,1-.52-.3,17,17,0,0,1,23.12-23.13.61.61,0,0,1,.22.83.59.59,0,0,1-.82.22,15.74,15.74,0,0,0-21.47,21.47.61.61,0,0,1-.23.83A.54.54,0,0,1,267,41Z" transform="translate(-262.37 -15.31)"/><path class="cls-1" d="M281.21,42.89a10.68,10.68,0,0,1-5.1-1.3.61.61,0,0,1,.59-1.07,9.47,9.47,0,0,0,11.21-1.6,9.43,9.43,0,0,0-13.34-13.34A9.47,9.47,0,0,0,273,36.79a.62.62,0,0,1-.24.83.6.6,0,0,1-.82-.24,10.64,10.64,0,0,1,16.85-12.65,10.64,10.64,0,0,1-7.55,18.16Z" transform="translate(-262.37 -15.31)"/><path class="cls-1" d="M281.24,37.69a5.24,5.24,0,0,1-1-.1.61.61,0,1,1,.23-1.19,4.22,4.22,0,1,0-3.17-2.72.61.61,0,0,1-.37.78.6.6,0,0,1-.77-.37,5.44,5.44,0,1,1,5.12,3.6Z" transform="translate(-262.37 -15.31)"/><path class="cls-1" d="M266.24,47.86a.61.61,0,0,1-.43-1l15-15a.6.6,0,0,1,.86,0,.61.61,0,0,1,0,.85l-15,15A.61.61,0,0,1,266.24,47.86Z" transform="translate(-262.37 -15.31)"/><path class="cls-1" d="M280.51,33.58a.6.6,0,0,1-.45-1l-.3.08a.62.62,0,0,1-.74-.43.61.61,0,0,1,.43-.74l2.47-.65a.6.6,0,0,1,.68.28.62.62,0,0,1-.1.73l-1.56,1.56A.63.63,0,0,1,280.51,33.58Z" transform="translate(-262.37 -15.31)"/><path class="cls-1" d="M281.42,34.49l-.15,0a.61.61,0,0,1-.44-.74l.08-.3a.6.6,0,0,1-.82-.88L281.64,31a.61.61,0,0,1,1,.59L282,34A.62.62,0,0,1,281.42,34.49Z" transform="translate(-262.37 -15.31)"/><path class="cls-1" d="M266.44,51.12a.49.49,0,0,1-.21,0,.58.58,0,0,1-.39-.53l-.17-2.73-2.73-.16a.61.61,0,0,1-.39-1l3.81-3.81a.61.61,0,0,1,.44-.17l3.38.08a.6.6,0,0,1,.59.59l.08,3.38a.58.58,0,0,1-.17.44l-3.81,3.81A.6.6,0,0,1,266.44,51.12Zm-2.08-4.59,1.92.12a.59.59,0,0,1,.56.56l.12,1.93,2.68-2.68-.06-2.54L267,43.86Z" transform="translate(-262.37 -15.31)"/></svg>