<svg id="Layer_1" data-name="Layer 1" xmlns="http://www.w3.org/2000/svg" viewBox="0 0 36.12 36.2"><defs><style>.cls-1{fill:#fff;}</style></defs><title>tools-icon</title><path class="cls-1" d="M391.8,144.63a7.1,7.1,0,0,1-1.82-.23.61.61,0,0,1-.28-1l2.14-2.14a2.8,2.8,0,0,0,0-4,2.81,2.81,0,0,0-4,0l-2.14,2.14a.61.61,0,0,1-.59.15.59.59,0,0,1-.42-.43,7.32,7.32,0,0,1,9.35-8.8l12.26-12.25a7.32,7.32,0,0,1,8.79-9.36.61.61,0,0,1,.28,1l-2.14,2.14a2.8,2.8,0,0,0,0,4,2.81,2.81,0,0,0,4,0l2.14-2.14a.61.61,0,0,1,.59-.16.63.63,0,0,1,.43.44,7.32,7.32,0,0,1-9.36,8.79l-12.25,12.26a7.31,7.31,0,0,1-7,9.58Zm-.41-1.22a6.1,6.1,0,0,0,6.12-8.3.63.63,0,0,1,.14-.65l12.8-12.8a.61.61,0,0,1,.64-.13,6.11,6.11,0,0,0,8.3-6.12l-1.3,1.3a4,4,0,0,1-5.67,0,4,4,0,0,1-1.18-2.83,4,4,0,0,1,1.18-2.84l1.3-1.3A6.1,6.1,0,0,0,407.6,118a.6.6,0,0,1-.14.65l-12.79,12.8a.63.63,0,0,1-.65.14,6.1,6.1,0,0,0-8.3,6.11l1.3-1.3a4,4,0,0,1,6.85,2.84,4,4,0,0,1-1.17,2.83Z" transform="translate(-384.5 -108.48)"/><path class="cls-1" d="M398.12,115.14a.6.6,0,0,1-.43-.18l-3.31-3.31a.6.6,0,0,1,0-.86l2.14-2.14a.62.62,0,0,1,.86,0l3.31,3.31a.62.62,0,0,1,.18.43.64.64,0,0,1-.18.43L398.54,115A.58.58,0,0,1,398.12,115.14Zm-2.46-3.92,2.46,2.46,1.28-1.29L397,109.93Z" transform="translate(-384.5 -108.48)"/><path class="cls-1" d="M388.19,129.33a.62.62,0,0,1-.56-.36c-3.07-7,.15-12.29,4.19-14.89A16.35,16.35,0,0,0,394.4,112l.57-.57a.62.62,0,0,1,.86,0l2,2a.61.61,0,0,1,.07.78l-1.58,2.29a1,1,0,0,0,.11,1.2l2.37,2.37a.6.6,0,0,1,0,.86l-4,4a.61.61,0,0,1-.85,0l-2.44-2.44a.87.87,0,0,0-.75-.28,1.2,1.2,0,0,0-.82.65c-1,1.94-1.15,5.9-1.15,5.94a.61.61,0,0,1-.49.58Zm7.21-16.66-.14.15a17.21,17.21,0,0,1-2.78,2.27,10,10,0,0,0-4.63,10.68,11.77,11.77,0,0,1,1-3.54,2.39,2.39,0,0,1,1.71-1.28,2,2,0,0,1,1.78.62l2,2,3.13-3.13-1.95-1.94a2.17,2.17,0,0,1-.25-2.74l1.3-1.89Z" transform="translate(-384.5 -108.48)"/><path class="cls-1" d="M398.19,127.7a.63.63,0,0,1-.43-.17l-3.24-3.24a.62.62,0,0,1,0-.86l3-2.94a.62.62,0,0,1,.86,0l3.23,3.23a.6.6,0,0,1,0,.86l-2.94,3A.61.61,0,0,1,398.19,127.7Zm-2.38-3.84,2.38,2.38,2.09-2.09-2.38-2.38Z" transform="translate(-384.5 -108.48)"/><path class="cls-1" d="M416,144.67a2.71,2.71,0,0,1-1.9-.78L401.6,131.37a.63.63,0,0,1-.17-.43.61.61,0,0,1,.17-.43l2.95-2.95a.62.62,0,0,1,.86,0l12.51,12.52a2.69,2.69,0,0,1-1.9,4.59Zm-13.13-13.73L415,143a1.47,1.47,0,0,0,2.09,0,1.49,1.49,0,0,0,0-2.09L405,128.85Z" transform="translate(-384.5 -108.48)"/><path class="cls-1" d="M405.1,134.61a.61.61,0,0,1-.43-1l2.94-2.94a.61.61,0,0,1,.86.86l-3,2.94A.58.58,0,0,1,405.1,134.61Z" transform="translate(-384.5 -108.48)"/></svg>