<svg id="Layer_1" data-name="Layer 1" xmlns="http://www.w3.org/2000/svg" viewBox="0 0 34.98 29.45"><defs><style>.cls-1{fill:#fff;}</style></defs><title>upload-icon</title><path class="cls-1" d="M473.78,133.51h-5.5a.61.61,0,1,1,0-1.21h5.5a6.21,6.21,0,1,0-3-11.64.6.6,0,0,1-.63,0,.59.59,0,0,1-.26-.57c0-.31.05-.55.05-.79a6.21,6.21,0,0,0-12.42,0,5.91,5.91,0,0,0,.06.79.61.61,0,0,1-.27.57.6.6,0,0,1-.63,0,6.21,6.21,0,1,0-3,11.64h5.5a.61.61,0,1,1,0,1.21h-5.5a7.42,7.42,0,1,1,2.65-14.36,7.42,7.42,0,0,1,14.84,0,7.42,7.42,0,1,1,2.65,14.36Z" transform="translate(-446.22 -111.85)"/><path class="cls-1" d="M469.61,123.29a.67.67,0,0,1-.3-.08.61.61,0,0,1-.22-.83,6.21,6.21,0,1,0-10.76,0,.59.59,0,0,1-.22.82.61.61,0,0,1-.83-.22,7.42,7.42,0,1,1,12.86,0A.6.6,0,0,1,469.61,123.29Z" transform="translate(-446.22 -111.85)"/><path class="cls-1" d="M466.3,141.3a.61.61,0,0,1-.61-.61V129.64a.61.61,0,0,1,.61-.61h1.27l-3.86-4.48L459.86,129h1.26a.61.61,0,0,1,.61.61v11.05a.61.61,0,1,1-1.21,0V130.25h-2a.59.59,0,0,1-.55-.36.58.58,0,0,1,.09-.64l5.17-6a.62.62,0,0,1,.92,0l5.18,6a.6.6,0,0,1,.09.64.61.61,0,0,1-.55.36h-2v10.44A.61.61,0,0,1,466.3,141.3Z" transform="translate(-446.22 -111.85)"/></svg>