<svg id="Layer_1" data-name="Layer 1" xmlns="http://www.w3.org/2000/svg" xmlns:xlink="http://www.w3.org/1999/xlink" viewBox="0 0 527.91 683.77"><defs><style>.cls-1{mask:url(#mask);}.cls-2,.cls-4,.cls-6,.cls-8{mix-blend-mode:multiply;}.cls-2{fill:url(#linear-gradient);}.cls-3{mask:url(#mask-2);}.cls-4{fill:url(#linear-gradient-2);}.cls-5{mask:url(#mask-3);}.cls-6{fill:url(#linear-gradient-3);}.cls-7{mask:url(#mask-4);}.cls-8{fill:url(#linear-gradient-4);}.cls-102,.cls-140,.cls-9{fill:#156a92;}.cls-10{fill:#254661;opacity:0.58;}.cls-11{fill:#267ea2;}.cls-12{fill:#99d8e0;}.cls-12,.cls-13{opacity:0.48;}.cls-14{fill:#258d9f;}.cls-14,.cls-68{opacity:0;}.cls-15{fill:#24899b;opacity:0.03;}.cls-16{fill:#238598;opacity:0.06;}.cls-17{fill:#218294;opacity:0.09;}.cls-18{fill:#207e91;opacity:0.12;}.cls-19{fill:#1f7a8e;opacity:0.15;}.cls-20{fill:#1d768a;opacity:0.19;}.cls-21{fill:#1c7287;opacity:0.22;}.cls-22{fill:#1a6f83;opacity:0.25;}.cls-23{fill:#196b80;opacity:0.28;}.cls-24{fill:#17677d;opacity:0.31;}.cls-25{fill:#166479;opacity:0.34;}.cls-26{fill:#146076;opacity:0.37;}.cls-27{fill:#135d73;opacity:0.4;}.cls-28{fill:#115970;opacity:0.43;}.cls-29{fill:#10566d;opacity:0.46;}.cls-30{fill:#0e5369;opacity:0.5;}.cls-31{fill:#0c4f66;opacity:0.53;}.cls-32{fill:#0a4c63;opacity:0.56;}.cls-33{fill:#094960;opacity:0.59;}.cls-34{fill:#07465d;opacity:0.62;}.cls-35{fill:#05425a;opacity:0.65;}.cls-36{fill:#033f57;opacity:0.68;}.cls-37{fill:#023c54;opacity:0.71;}.cls-38{fill:#003951;opacity:0.74;}.cls-39{fill:#00364e;opacity:0.77;}.cls-40{fill:#00334b;opacity:0.81;}.cls-41{fill:#003048;opacity:0.84;}.cls-42{fill:#002c45;opacity:0.87;}.cls-43{fill:#002942;opacity:0.9;}.cls-44{fill:#00263f;opacity:0.93;}.cls-45{fill:#00223c;opacity:0.96;}.cls-46{fill:#fcd497;}.cls-47{fill:url(#linear-gradient-5);}.cls-48{fill:#ccecfc;}.cls-134,.cls-48{opacity:0.49;}.cls-49{fill:url(#linear-gradient-6);}.cls-50{fill:url(#linear-gradient-7);}.cls-51{fill:url(#linear-gradient-8);}.cls-52{fill:#e78341;}.cls-53{fill:url(#linear-gradient-9);}.cls-54{fill:url(#linear-gradient-10);}.cls-55{fill:url(#linear-gradient-11);}.cls-56{fill:url(#linear-gradient-12);}.cls-118,.cls-57,.cls-59,.cls-60{fill:#fff;}.cls-58{fill:url(#linear-gradient-13);}.cls-59{opacity:0.35;}.cls-60,.cls-64{opacity:0.52;}.cls-61,.cls-62,.cls-63,.cls-64{fill:#156997;}.cls-62{opacity:0.71;}.cls-63{opacity:0.68;}.cls-65{fill:url(#linear-gradient-14);}.cls-66{fill:#f59658;}.cls-67{opacity:0.92;}.cls-68{fill:#935638;}.cls-69{fill:#8f5436;opacity:0.03;}.cls-70{fill:#8b5235;opacity:0.05;}.cls-71{fill:#874f34;opacity:0.08;}.cls-72{fill:#834d33;opacity:0.1;}.cls-73{fill:#804b32;opacity:0.13;}.cls-74{fill:#7d4930;opacity:0.15;}.cls-75{fill:#79472f;opacity:0.18;}.cls-76{fill:#76442e;opacity:0.21;}.cls-77{fill:#73422d;opacity:0.23;}.cls-78{fill:#6f402c;opacity:0.26;}.cls-79{fill:#6c3e2a;opacity:0.28;}.cls-80{fill:#693c29;opacity:0.31;}.cls-81{fill:#663a28;opacity:0.34;}.cls-82{fill:#633827;opacity:0.36;}.cls-83{fill:#603625;opacity:0.39;}.cls-84{fill:#5c3424;opacity:0.41;}.cls-85{fill:#593223;opacity:0.44;}.cls-86{fill:#563021;opacity:0.46;}.cls-87{fill:#532e20;opacity:0.49;}.cls-88{fill:#502c1f;opacity:0.52;}.cls-89{fill:#4d2a1d;opacity:0.54;}.cls-90{fill:#4a281c;opacity:0.57;}.cls-91{fill:#47261a;opacity:0.59;}.cls-92{fill:#452419;opacity:0.62;}.cls-93{fill:#422217;opacity:0.65;}.cls-94{fill:#3f2015;opacity:0.67;}.cls-95{fill:#3c1d14;opacity:0.7;}.cls-96{fill:#391b12;opacity:0.72;}.cls-97{fill:#361910;opacity:0.75;}.cls-98{fill:#33160e;opacity:0.77;}.cls-99{fill:#30140b;opacity:0.8;}.cls-100{fill:url(#linear-gradient-15);}.cls-101,.cls-140{opacity:0.67;}.cls-102{opacity:0.55;}.cls-103{fill:url(#linear-gradient-16);}.cls-104{fill:url(#linear-gradient-17);}.cls-105{fill:url(#linear-gradient-18);}.cls-106{fill:#e6947b;}.cls-107{fill:#3f6e82;opacity:0.43;}.cls-108{fill:url(#linear-gradient-19);}.cls-109{fill:url(#linear-gradient-20);}.cls-110{fill:url(#linear-gradient-21);}.cls-111{fill:url(#linear-gradient-22);}.cls-112{fill:url(#linear-gradient-23);}.cls-113{fill:url(#linear-gradient-24);}.cls-114{fill:url(#linear-gradient-25);}.cls-115{fill:url(#linear-gradient-26);}.cls-116{fill:url(#linear-gradient-27);}.cls-117{fill:url(#linear-gradient-28);}.cls-118{opacity:0.36;}.cls-119{fill:url(#linear-gradient-29);}.cls-120{fill:url(#linear-gradient-30);}.cls-121{fill:url(#linear-gradient-31);}.cls-122{fill:url(#linear-gradient-32);}.cls-123{mask:url(#mask-5);}.cls-124{mask:url(#mask-6);}.cls-125,.cls-129{opacity:0.79;}.cls-125{fill:url(#linear-gradient-33);}.cls-126{mask:url(#mask-7);}.cls-127{opacity:0.65;}.cls-128{mask:url(#mask-8);}.cls-129{fill:url(#linear-gradient-34);}.cls-130{fill:url(#linear-gradient-35);}.cls-131{fill:#618592;}.cls-132,.cls-134{fill:#739cab;}.cls-133{fill:#669aac;}.cls-135{fill:url(#linear-gradient-36);}.cls-136{fill:url(#linear-gradient-37);}.cls-137{fill:url(#linear-gradient-38);}.cls-138{fill:url(#linear-gradient-39);}.cls-139{opacity:0.51;}.cls-141{filter:url(#luminosity-noclip-8);}.cls-142{filter:url(#luminosity-noclip-7);}.cls-143{filter:url(#luminosity-noclip-6);}.cls-144{filter:url(#luminosity-noclip-5);}.cls-145{filter:url(#luminosity-noclip-4);}.cls-146{filter:url(#luminosity-noclip-3);}.cls-147{filter:url(#luminosity-noclip-2);}.cls-148{filter:url(#luminosity-noclip);}</style><filter id="luminosity-noclip" x="349.83" y="-8636" width="27.12" height="32766" filterUnits="userSpaceOnUse" color-interpolation-filters="sRGB"><feFlood flood-color="#fff" result="bg"/><feBlend in="SourceGraphic" in2="bg"/></filter><mask id="mask" x="349.83" y="-8636" width="27.12" height="32766" maskUnits="userSpaceOnUse"><g class="cls-148"/></mask><linearGradient id="linear-gradient" x1="757.14" y1="-112.2" x2="730.09" y2="-110.01" gradientTransform="translate(-355.67 529.71) rotate(-9.75)" gradientUnits="userSpaceOnUse"><stop offset="0" stop-color="#fff"/><stop offset="0.1" stop-color="#d8d8d8"/><stop offset="0.29" stop-color="#989898"/><stop offset="0.47" stop-color="#616161"/><stop offset="0.63" stop-color="#373737"/><stop offset="0.78" stop-color="#191919"/><stop offset="0.91" stop-color="#070707"/><stop offset="1"/></linearGradient><filter id="luminosity-noclip-2" x="361.12" y="-8636" width="18.13" height="32766" filterUnits="userSpaceOnUse" color-interpolation-filters="sRGB"><feFlood flood-color="#fff" result="bg"/><feBlend in="SourceGraphic" in2="bg"/></filter><mask id="mask-2" x="361.12" y="-8636" width="18.13" height="32766" maskUnits="userSpaceOnUse"><g class="cls-147"/></mask><linearGradient id="linear-gradient-2" x1="766.47" y1="-125.04" x2="739.38" y2="-122.84" xlink:href="#linear-gradient"/><filter id="luminosity-noclip-3" x="477.19" y="-8636" width="6.33" height="32766" filterUnits="userSpaceOnUse" color-interpolation-filters="sRGB"><feFlood flood-color="#fff" result="bg"/><feBlend in="SourceGraphic" in2="bg"/></filter><mask id="mask-3" x="477.19" y="-8636" width="6.33" height="32766" maskUnits="userSpaceOnUse"><g class="cls-146"/></mask><linearGradient id="linear-gradient-3" x1="6395.36" y1="330.19" x2="6368.31" y2="332.38" gradientTransform="matrix(-0.69, 0.05, 0.07, 1.13, 4881.92, -371.58)" xlink:href="#linear-gradient"/><filter id="luminosity-noclip-4" x="469.66" y="-8636" width="6.43" height="32766" filterUnits="userSpaceOnUse" color-interpolation-filters="sRGB"><feFlood flood-color="#fff" result="bg"/><feBlend in="SourceGraphic" in2="bg"/></filter><mask id="mask-4" x="469.66" y="-8636" width="6.43" height="32766" maskUnits="userSpaceOnUse"><g class="cls-145"/></mask><linearGradient id="linear-gradient-4" x1="6404.69" y1="317.35" x2="6377.6" y2="319.55" gradientTransform="matrix(-0.69, 0.05, 0.07, 1.13, 4881.92, -371.58)" xlink:href="#linear-gradient"/><linearGradient id="linear-gradient-5" x1="427.81" y1="765.38" x2="426.77" y2="798.19" gradientUnits="userSpaceOnUse"><stop offset="0" stop-color="#fac17d"/><stop offset="0.4" stop-color="#faa85f"/><stop offset="0.63" stop-color="#ed9853"/><stop offset="1" stop-color="#dc8443"/></linearGradient><linearGradient id="linear-gradient-6" x1="315.09" y1="397.95" x2="538.61" y2="397.95" gradientUnits="userSpaceOnUse"><stop offset="0" stop-color="#fac17d"/><stop offset="0.47" stop-color="#faa85f"/><stop offset="0.68" stop-color="#ed9853"/><stop offset="1" stop-color="#dc8443"/></linearGradient><linearGradient id="linear-gradient-7" x1="161.22" y1="278.56" x2="159.75" y2="443.34" gradientUnits="userSpaceOnUse"><stop offset="0" stop-color="#fac17d"/><stop offset="0.52" stop-color="#faa85f"/><stop offset="0.73" stop-color="#ee9552"/><stop offset="1" stop-color="#db773c"/></linearGradient><linearGradient id="linear-gradient-8" x1="158.63" y1="622.89" x2="162.14" y2="463.65" xlink:href="#linear-gradient-7"/><linearGradient id="linear-gradient-9" x1="368.68" y1="288.38" x2="368.48" y2="441.73" xlink:href="#linear-gradient-6"/><linearGradient id="linear-gradient-10" x1="368.39" y1="618.51" x2="368.78" y2="459.69" xlink:href="#linear-gradient-7"/><linearGradient id="linear-gradient-11" x1="405.11" y1="498.93" x2="407.67" y2="515.34" gradientUnits="userSpaceOnUse"><stop offset="0" stop-color="#92c9e0"/><stop offset="0.27" stop-color="#4995b5"/><stop offset="0.49" stop-color="#147096"/><stop offset="0.59" stop-color="#00618a"/><stop offset="1" stop-color="#00658c"/></linearGradient><linearGradient id="linear-gradient-12" x1="426.57" y1="499.77" x2="426.57" y2="587.86" gradientUnits="userSpaceOnUse"><stop offset="0" stop-color="#5eb0d5"/><stop offset="0.1" stop-color="#499fc5"/><stop offset="0.37" stop-color="#14759c"/><stop offset="0.51" stop-color="#00648c"/><stop offset="0.56" stop-color="#00618a"/><stop offset="1" stop-color="#00507c"/></linearGradient><linearGradient id="linear-gradient-13" x1="428.39" y1="667.51" x2="426.2" y2="759.59" gradientUnits="userSpaceOnUse"><stop offset="0" stop-color="#6fb0d4"/><stop offset="0.13" stop-color="#499cc0"/><stop offset="0.34" stop-color="#1481a4"/><stop offset="0.44" stop-color="#007699"/><stop offset="0.73" stop-color="#005d86"/><stop offset="1" stop-color="#004c79"/></linearGradient><linearGradient id="linear-gradient-14" x1="305.53" y1="418.66" x2="551.18" y2="418.66" xlink:href="#linear-gradient-6"/><linearGradient id="linear-gradient-15" x1="418.94" y1="204.61" x2="428.78" y2="268.84" gradientUnits="userSpaceOnUse"><stop offset="0" stop-color="#e8ecee"/><stop offset="0.15" stop-color="#e2e7e9"/><stop offset="0.36" stop-color="#cfd8dc"/><stop offset="0.6" stop-color="#b1bfc5"/><stop offset="0.87" stop-color="#889da6"/><stop offset="1" stop-color="#728b96"/></linearGradient><linearGradient id="linear-gradient-16" x1="248.43" y1="51.67" x2="249.89" y2="60.31" gradientUnits="userSpaceOnUse"><stop offset="0" stop-color="#0d2430"/><stop offset="0.02" stop-color="#0d232f"/><stop offset="0.65" stop-color="#030a0f"/><stop offset="1" stop-color="#000003"/></linearGradient><linearGradient id="linear-gradient-17" x1="7168.21" y1="-3073.01" x2="7184.22" y2="-3070.84" gradientTransform="matrix(-0.61, 0.79, 0.79, 0.61, 7145.95, -3613.79)" gradientUnits="userSpaceOnUse"><stop offset="0" stop-color="#f79672"/><stop offset="0.32" stop-color="#fab086"/><stop offset="0.76" stop-color="#fecf9d"/><stop offset="1" stop-color="#ffdaa6"/></linearGradient><linearGradient id="linear-gradient-18" x1="7176.05" y1="-3075.27" x2="7204.5" y2="-3075.27" gradientTransform="matrix(-0.61, 0.79, 0.79, 0.61, 7145.95, -3613.79)" gradientUnits="userSpaceOnUse"><stop offset="0" stop-color="#f79672"/><stop offset="0.14" stop-color="#f9a47d"/><stop offset="0.49" stop-color="#fcc293"/><stop offset="0.79" stop-color="#fed4a1"/><stop offset="1" stop-color="#ffdaa6"/></linearGradient><linearGradient id="linear-gradient-19" x1="147.88" y1="75.46" x2="167.26" y2="75.46" gradientUnits="userSpaceOnUse"><stop offset="0" stop-color="#bbced6"/><stop offset="0.03" stop-color="#bfd1d8"/><stop offset="0.27" stop-color="#dbe5e9"/><stop offset="0.51" stop-color="#eff3f5"/><stop offset="0.76" stop-color="#fbfcfd"/><stop offset="1" stop-color="#fff"/></linearGradient><linearGradient id="linear-gradient-20" x1="421.52" y1="220.63" x2="407.12" y2="193.26" gradientUnits="userSpaceOnUse"><stop offset="0.1" stop-color="#cb7f67"/><stop offset="1" stop-color="#edb480"/></linearGradient><linearGradient id="linear-gradient-21" x1="2045" y1="578.61" x2="2043.62" y2="630.36" gradientTransform="matrix(-0.97, 0.24, 0.24, 0.97, 2246.02, -901.13)" gradientUnits="userSpaceOnUse"><stop offset="0" stop-color="#9a6456"/><stop offset="0.37" stop-color="#e6977d"/><stop offset="0.5" stop-color="#e8a282"/><stop offset="0.79" stop-color="#ecb48a"/><stop offset="1" stop-color="#edbb8d"/></linearGradient><linearGradient id="linear-gradient-22" x1="2064.06" y1="596.98" x2="2057.82" y2="590.16" gradientTransform="matrix(-0.97, 0.24, 0.24, 0.97, 2246.02, -901.13)" gradientUnits="userSpaceOnUse"><stop offset="0" stop-color="#816458"/><stop offset="0.99" stop-color="#4f3832"/></linearGradient><linearGradient id="linear-gradient-23" x1="2021.94" y1="597.44" x2="2068.52" y2="597.44" gradientTransform="matrix(-0.97, 0.24, 0.24, 0.97, 2246.02, -901.13)" gradientUnits="userSpaceOnUse"><stop offset="0" stop-color="#4f3832"/><stop offset="0.08" stop-color="#543c36"/><stop offset="0.67" stop-color="#75594f"/><stop offset="1" stop-color="#816458"/></linearGradient><linearGradient id="linear-gradient-24" x1="248.37" y1="51.82" x2="258.93" y2="94.4" gradientUnits="userSpaceOnUse"><stop offset="0.34" stop-color="#f3fafe"/><stop offset="0.49" stop-color="#f0f7fc"/><stop offset="0.6" stop-color="#e6eef4"/><stop offset="0.71" stop-color="#d5dee8"/><stop offset="0.81" stop-color="#bdc8d7"/><stop offset="0.9" stop-color="#9eacc0"/><stop offset="1" stop-color="#798aa5"/><stop offset="1" stop-color="#7789a4"/></linearGradient><linearGradient id="linear-gradient-25" x1="421.23" y1="237.88" x2="427.78" y2="291.74" gradientUnits="userSpaceOnUse"><stop offset="0" stop-color="#b32226"/><stop offset="0.01" stop-color="#b02225"/><stop offset="0.21" stop-color="#8d1c1f"/><stop offset="0.4" stop-color="#71181a"/><stop offset="0.6" stop-color="#5e1416"/><stop offset="0.8" stop-color="#521314"/><stop offset="1" stop-color="#4e1213"/></linearGradient><linearGradient id="linear-gradient-26" x1="-84.02" y1="1151.66" x2="-83.32" y2="1134.07" gradientTransform="translate(94.79 -1046.09) rotate(-12.17)" gradientUnits="userSpaceOnUse"><stop offset="0" stop-color="#92181a"/><stop offset="0.3" stop-color="#a21d20"/><stop offset="0.66" stop-color="#af2124"/><stop offset="1" stop-color="#b32226"/></linearGradient><linearGradient id="linear-gradient-27" x1="340.48" y1="275.47" x2="586.19" y2="272.02" gradientUnits="userSpaceOnUse"><stop offset="0" stop-color="#192f50"/><stop offset="0.43" stop-color="#113a5c"/><stop offset="1" stop-color="#024e73"/></linearGradient><linearGradient id="linear-gradient-28" x1="317.82" y1="272.36" x2="350.36" y2="264.22" gradientUnits="userSpaceOnUse"><stop offset="0" stop-color="#192f50"/><stop offset="0.38" stop-color="#12385a"/><stop offset="1" stop-color="#024e73"/></linearGradient><linearGradient id="linear-gradient-29" x1="5300.3" y1="2108.32" x2="5300.78" y2="2155.61" gradientTransform="matrix(-1.01, -0.18, -0.18, 1.02, 6202.38, -726.97)" gradientUnits="userSpaceOnUse"><stop offset="0" stop-color="#0b213e"/><stop offset="1" stop-color="#274c77"/></linearGradient><linearGradient id="linear-gradient-30" x1="-2638.83" y1="713.63" x2="-2638.35" y2="760.92" gradientTransform="matrix(1.01, -0.18, 0.18, 1.02, 2931.5, -726.97)" xlink:href="#linear-gradient-29"/><linearGradient id="linear-gradient-31" x1="422.95" y1="388.77" x2="448.77" y2="333.09" gradientUnits="userSpaceOnUse"><stop offset="0.01" stop-color="#132446"/><stop offset="0.49" stop-color="#192f50"/><stop offset="0.71" stop-color="#183354"/><stop offset="0.93" stop-color="#143d60"/><stop offset="1" stop-color="#124265"/></linearGradient><linearGradient id="linear-gradient-32" x1="346.1" y1="403.82" x2="384.24" y2="392.75" xlink:href="#linear-gradient-31"/><filter id="luminosity-noclip-5" x="349.83" y="251.23" width="27.12" height="83.62" filterUnits="userSpaceOnUse" color-interpolation-filters="sRGB"><feFlood flood-color="#fff" result="bg"/><feBlend in="SourceGraphic" in2="bg"/></filter><mask id="mask-5" x="187.13" y="108.61" width="27.12" height="83.62" maskUnits="userSpaceOnUse"><g class="cls-144"><g transform="translate(-162.7 -142.62)"><g class="cls-1"><polygon class="cls-2" points="349.83 251.23 367.61 280.49 376.95 334.86 349.83 251.23"/></g></g></g></mask><filter id="luminosity-noclip-6" x="361.12" y="251.97" width="18.13" height="53.79" filterUnits="userSpaceOnUse" color-interpolation-filters="sRGB"><feFlood flood-color="#fff" result="bg"/><feBlend in="SourceGraphic" in2="bg"/></filter><mask id="mask-6" x="198.42" y="109.35" width="18.13" height="53.79" maskUnits="userSpaceOnUse"><g class="cls-143"><g transform="translate(-162.7 -142.62)"><g class="cls-3"><polygon class="cls-4" points="361.12 251.97 377.7 276.51 379.25 305.77 361.12 251.97"/></g></g></g></mask><linearGradient id="linear-gradient-33" x1="766.47" y1="-125.04" x2="739.38" y2="-122.84" gradientTransform="translate(-518.37 387.09) rotate(-9.75)" gradientUnits="userSpaceOnUse"><stop offset="0" stop-color="#000e2c"/><stop offset="0.16" stop-color="#001c3c"/><stop offset="0.5" stop-color="#01385a"/><stop offset="0.79" stop-color="#02486c"/><stop offset="1" stop-color="#024e73"/></linearGradient><filter id="luminosity-noclip-7" x="477.19" y="245.65" width="6.33" height="98.78" filterUnits="userSpaceOnUse" color-interpolation-filters="sRGB"><feFlood flood-color="#fff" result="bg"/><feBlend in="SourceGraphic" in2="bg"/></filter><mask id="mask-7" x="314.49" y="103.03" width="6.33" height="98.78" maskUnits="userSpaceOnUse"><g class="cls-142"><g transform="translate(-162.7 -142.62)"><g class="cls-5"><polygon class="cls-6" points="483.51 245.65 477.19 282.16 481.31 344.42 483.51 245.65"/></g></g></g></mask><filter id="luminosity-noclip-8" x="468.42" y="249.14" width="28.49" height="63.7" filterUnits="userSpaceOnUse" color-interpolation-filters="sRGB"><feFlood flood-color="#fff" result="bg"/><feBlend in="SourceGraphic" in2="bg"/></filter><mask id="mask-8" x="305.72" y="106.51" width="28.49" height="63.7" maskUnits="userSpaceOnUse"><g class="cls-141"><g transform="translate(-162.7 -142.62)"><g class="cls-7"><polygon class="cls-8" points="476.09 249.14 469.67 280.16 474.21 312.84 476.09 249.14"/></g></g></g></mask><linearGradient id="linear-gradient-34" x1="306.92" y1="146.99" x2="318.49" y2="143.45" gradientUnits="userSpaceOnUse"><stop offset="0" stop-color="#000e2c"/><stop offset="0.58" stop-color="#013254"/><stop offset="1" stop-color="#024e73"/></linearGradient><linearGradient id="linear-gradient-35" x1="4545.89" y1="-323.18" x2="4655.17" y2="-323.18" gradientTransform="matrix(-0.95, 0.31, 0.31, 0.95, 4816.35, -924.07)" gradientUnits="userSpaceOnUse"><stop offset="0" stop-color="#d2e4ec"/><stop offset="0.27" stop-color="#cfe2ea"/><stop offset="0.46" stop-color="#c6dbe4"/><stop offset="0.62" stop-color="#b7cfda"/><stop offset="0.77" stop-color="#a1bfcb"/><stop offset="0.9" stop-color="#85aab9"/><stop offset="1" stop-color="#6c97a8"/></linearGradient><linearGradient id="linear-gradient-36" x1="3543.75" y1="3280.25" x2="3559.53" y2="3280.25" gradientTransform="matrix(-0.86, -0.51, -0.51, 0.86, 5259.4, -702.62)" gradientUnits="userSpaceOnUse"><stop offset="0" stop-color="#e6977d"/><stop offset="0.19" stop-color="#e7a181"/><stop offset="0.67" stop-color="#eab388"/><stop offset="1" stop-color="#ebba8b"/></linearGradient><linearGradient id="linear-gradient-37" x1="3542.87" y1="3275.03" x2="3558.65" y2="3275.03" xlink:href="#linear-gradient-36"/><linearGradient id="linear-gradient-38" x1="3544.5" y1="3284.16" x2="3557.53" y2="3284.16" xlink:href="#linear-gradient-36"/><linearGradient id="linear-gradient-39" x1="3544.61" y1="3270.57" x2="3561.03" y2="3270.57" xlink:href="#linear-gradient-36"/></defs><title>urgency-clock-man</title><path class="cls-9" d="M515.66,758.45H442.74c-33.08-31.84-74.45-97.48,65.19-152C507.93,606.5,606.49,705,515.66,758.45Z" transform="translate(-162.7 -142.62)"/><path class="cls-9" d="M443.23,758.45c-33.23-32.39-75.89-99.52,64.7-152l-36.81,152Z" transform="translate(-162.7 -142.62)"/><polygon class="cls-10" points="317.44 585.41 312.83 605.03 379.51 592.89 311.99 608.64 310.3 615.83 306.3 615.83 308.2 608.32 247.75 558.64 309.11 604.75 314.03 585.35 251.78 533.23 314.85 582.12 320.24 560.88 266.28 511.35 320.86 558.41 326.61 535.77 286.26 494.03 327.39 532.66 333.62 508.14 309.25 479.89 334.29 505.48 344.8 464.04 345.23 463.88 345.81 464.47 336.43 504.44 368.7 493.31 335.83 507.01 329.95 532.05 381.75 516.6 329.23 535.13 323.83 558.16 389.96 541.56 323.25 560.63 318.2 582.16 390.34 567.9 317.44 585.41"/><path class="cls-11" d="M294.61,772.88h56.67c25.72-24.75,57.87-75.77-50.67-118.11C300.61,654.77,224,731.33,294.61,772.88Z" transform="translate(-162.7 -142.62)"/><path class="cls-11" d="M350.9,772.88c25.83-25.18,59-77.36-50.29-118.11l28.61,118.11Z" transform="translate(-162.7 -142.62)"/><polygon class="cls-12" points="159.51 606.61 163.09 621.87 111.26 612.43 163.75 624.67 165.06 630.25 168.17 630.25 166.69 624.42 213.68 585.8 165.99 621.64 162.16 606.56 210.55 566.06 161.53 604.05 157.34 587.55 199.28 549.05 156.85 585.63 152.39 568.03 183.75 535.59 151.77 565.61 146.94 546.55 165.88 524.59 146.41 544.49 138.24 512.27 137.91 512.15 137.46 512.61 144.75 543.68 119.67 535.03 145.22 545.67 149.78 565.13 109.53 553.13 150.35 567.53 154.54 585.43 103.14 572.53 155 587.35 158.92 604.08 102.84 593 159.51 606.61"/><g class="cls-13"><path class="cls-14" d="M690.61,793.41c0,17.9-117.74,32.67-263,33s-263.07-14-263.09-31.85,117.75-32.66,263-33S690.6,775.51,690.61,793.41Z" transform="translate(-162.7 -142.62)"/><path class="cls-15" d="M685.57,793.05c0,17.58-115.79,32.09-258.67,32.4s-258.7-13.68-258.73-31.26S284,762.1,426.84,761.78,685.56,775.47,685.57,793.05Z" transform="translate(-162.7 -142.62)"/><path class="cls-16" d="M680.53,792.69c0,17.26-113.84,31.51-254.3,31.83s-254.34-13.41-254.37-30.67S285.71,762.33,426.17,762,680.52,775.43,680.53,792.69Z" transform="translate(-162.7 -142.62)"/><path class="cls-17" d="M675.49,792.33c0,16.93-111.89,30.94-249.94,31.26s-250-13.15-250-30.08,111.89-30.94,249.94-31.27S675.48,775.39,675.49,792.33Z" transform="translate(-162.7 -142.62)"/><path class="cls-18" d="M670.45,792c0,16.61-109.93,30.36-245.58,30.69s-245.6-12.88-245.63-29.5,109.94-30.36,245.58-30.69S670.43,775.35,670.45,792Z" transform="translate(-162.7 -142.62)"/><path class="cls-19" d="M665.41,791.61c0,16.29-108,29.79-241.22,30.12S183,809.12,182.93,792.82s108-29.79,241.21-30.13S665.39,775.3,665.41,791.61Z" transform="translate(-162.7 -142.62)"/><path class="cls-20" d="M660.37,791.24c0,16-106,29.22-236.85,29.56s-236.88-12.35-236.9-28.32,106-29.22,236.84-29.56S660.35,775.26,660.37,791.24Z" transform="translate(-162.7 -142.62)"/><path class="cls-21" d="M655.32,790.88c0,15.66-104.07,28.64-232.48,29s-232.51-12.08-232.53-27.74,104.07-28.63,232.48-29S655.31,775.22,655.32,790.88Z" transform="translate(-162.7 -142.62)"/><path class="cls-22" d="M650.28,790.52c0,15.34-102.12,28.07-228.12,28.41S194,807.13,194,791.79s102.12-28.06,228.11-28.41S650.27,775.18,650.28,790.52Z" transform="translate(-162.7 -142.62)"/><path class="cls-23" d="M645.24,790.16c0,15-100.17,27.49-223.76,27.84s-223.77-11.54-223.79-26.55S297.86,764,421.44,763.6,645.23,775.14,645.24,790.16Z" transform="translate(-162.7 -142.62)"/><path class="cls-24" d="M640.2,789.8c0,14.7-98.21,26.92-219.4,27.27s-219.41-11.27-219.42-26,98.21-26.92,219.38-27.28S640.19,775.1,640.2,789.8Z" transform="translate(-162.7 -142.62)"/><path class="cls-25" d="M635.16,789.44c0,14.38-96.26,26.34-215,26.7s-215-11-215.07-25.38,96.27-26.33,215-26.7S635.15,775.06,635.16,789.44Z" transform="translate(-162.7 -142.62)"/><path class="cls-26" d="M630.12,789.08c0,14.06-94.31,25.76-210.67,26.13s-210.68-10.74-210.7-24.79,94.31-25.76,210.66-26.13S630.11,775,630.12,789.08Z" transform="translate(-162.7 -142.62)"/><path class="cls-27" d="M625.07,788.72c0,13.74-92.35,25.19-206.3,25.56s-206.31-10.47-206.33-24.2,92.36-25.19,206.3-25.57S625.06,775,625.07,788.72Z" transform="translate(-162.7 -142.62)"/><path class="cls-28" d="M620,788.36c0,13.41-90.4,24.61-201.94,25s-201.95-10.2-202-23.62,90.4-24.61,201.93-25S620,774.94,620,788.36Z" transform="translate(-162.7 -142.62)"/><path class="cls-29" d="M615,788c0,13.1-88.45,24-197.57,24.43s-197.59-9.94-197.6-23,88.45-24,197.57-24.42S615,774.9,615,788Z" transform="translate(-162.7 -142.62)"/><path class="cls-30" d="M610,787.63c0,12.78-86.49,23.47-193.21,23.86s-193.22-9.67-193.23-22.44S310,765.59,416.71,765.2,609.94,774.85,610,787.63Z" transform="translate(-162.7 -142.62)"/><path class="cls-31" d="M604.91,787.27c0,12.46-84.54,22.89-188.85,23.28s-188.85-9.39-188.86-21.84S311.74,765.82,416,765.42,604.9,774.81,604.91,787.27Z" transform="translate(-162.7 -142.62)"/><path class="cls-32" d="M599.87,786.91c0,12.14-82.59,22.32-184.49,22.71s-184.48-9.13-184.49-21.26,82.58-22.31,184.47-22.71S599.86,774.77,599.87,786.91Z" transform="translate(-162.7 -142.62)"/><path class="cls-33" d="M594.82,786.55c0,11.82-80.63,21.74-180.12,22.14S234.58,799.83,234.58,788s80.63-21.74,180.1-22.14S594.82,774.73,594.82,786.55Z" transform="translate(-162.7 -142.62)"/><path class="cls-34" d="M589.78,786.19c0,11.5-78.68,21.17-175.75,21.57s-175.76-8.59-175.77-20.08S317,766.52,414,766.11,589.78,774.69,589.78,786.19Z" transform="translate(-162.7 -142.62)"/><path class="cls-35" d="M584.74,785.83c0,11.18-76.73,20.59-171.39,21S242,798.5,242,787.33s76.73-20.58,171.38-21S584.74,774.65,584.74,785.83Z" transform="translate(-162.7 -142.62)"/><path class="cls-36" d="M579.7,785.47c0,10.86-74.77,20-167,20.43s-167-8.06-167-18.91,74.78-20,167-20.43S579.69,774.61,579.7,785.47Z" transform="translate(-162.7 -142.62)"/><path class="cls-37" d="M574.66,785.11c0,10.54-72.82,19.44-162.67,19.86s-162.65-7.79-162.66-18.32S322.15,767.21,412,766.79,574.65,774.57,574.66,785.11Z" transform="translate(-162.7 -142.62)"/><path class="cls-38" d="M569.62,784.74c0,10.23-70.87,18.87-158.3,19.3S253,796.51,253,786.3,323.89,767.44,411.31,767,569.61,774.53,569.62,784.74Z" transform="translate(-162.7 -142.62)"/><path class="cls-39" d="M564.57,784.38c0,9.9-68.91,18.3-153.93,18.73S256.71,795.85,256.71,786s68.91-18.28,153.92-18.72S564.57,774.49,564.57,784.38Z" transform="translate(-162.7 -142.62)"/><path class="cls-40" d="M559.53,784c0,9.58-67,17.72-149.57,18.16s-149.56-7-149.56-16.56,67-17.71,149.56-18.15S559.53,774.45,559.53,784Z" transform="translate(-162.7 -142.62)"/><path class="cls-41" d="M554.49,783.66c0,9.26-65,17.15-145.21,17.58s-145.19-6.72-145.19-16,65-17.14,145.19-17.58S554.49,774.4,554.49,783.66Z" transform="translate(-162.7 -142.62)"/><path class="cls-42" d="M549.45,783.3c0,8.94-63.05,16.57-140.85,17s-140.82-6.45-140.82-15.38,63.05-16.56,140.82-17S549.45,774.36,549.45,783.3Z" transform="translate(-162.7 -142.62)"/><path class="cls-43" d="M544.41,782.94c0,8.62-61.1,16-136.48,16.44s-136.47-6.18-136.47-14.79,61.1-16,136.47-16.44S544.41,774.32,544.41,782.94Z" transform="translate(-162.7 -142.62)"/><path class="cls-44" d="M539.37,782.58c0,8.3-59.15,15.42-132.12,15.87s-132.1-5.92-132.1-14.2,59.15-15.41,132.1-15.87S539.37,774.28,539.37,782.58Z" transform="translate(-162.7 -142.62)"/><path class="cls-45" d="M534.32,782.22c0,8-57.19,14.84-127.75,15.3s-127.73-5.65-127.73-13.62S336,769.07,406.58,768.61,534.32,774.24,534.32,782.22Z" transform="translate(-162.7 -142.62)"/></g><ellipse class="cls-46" cx="264.9" cy="617.56" rx="123.58" ry="14.49"/><path class="cls-47" d="M427.6,774.67c-68.25,0-123.58-6.48-123.58-14.48h0V784c0,8,55.33,14.48,123.58,14.48S551.18,792,551.18,784V760.19C551.16,768.19,495.84,774.67,427.6,774.67Z" transform="translate(-162.7 -142.62)"/><path class="cls-48" d="M464.43,635.86h0S435,616.93,433.6,595s34.65-45.8,34.65-45.8h0c31-21.33,52.55-61.47,52.55-104.52a128.29,128.29,0,0,0-.68-13.09h-186a128.29,128.29,0,0,0-.68,13.09c0,43.05,22.14,82.67,52.55,104.52h0S419.1,572,420,595.63c.89,22.75-30.3,40.23-30.3,40.23h0c-33.17,19.1-56.36,62.06-56.36,106.84,0,4.24.22,8.43.63,12.54a1.37,1.37,0,0,0-.12.55c0,6,41.69,10.92,93.11,10.92s93.11-4.89,93.11-10.92a128.29,128.29,0,0,0,.68-13.09C520.79,697.92,497.6,655,464.43,635.86Z" transform="translate(-162.7 -142.62)"/><ellipse class="cls-46" cx="265.65" cy="256.9" rx="122.82" ry="14.49"/><path class="cls-46" d="M531.86,386.1c0,4.5-47.24,9.22-105.51,9.22s-105.5-4.72-105.5-9.22S368.09,378,426.35,378,531.86,381.6,531.86,386.1Z" transform="translate(-162.7 -142.62)"/><path class="cls-49" d="M427.09,395.32c-61.73,0-106-4.8-106.24-9.22l-5.76,13.38c0,4.5,50.27,10.37,112,10.37S538.61,404,538.61,399.48L531.86,386C531.72,390.44,488.8,395.32,427.09,395.32Z" transform="translate(-162.7 -142.62)"/><rect class="cls-50" x="155.2" y="284.63" width="10.51" height="158.59" rx="4.6"/><rect class="cls-51" x="155.2" y="460.56" width="10.51" height="158.59" rx="4.6"/><circle class="cls-52" cx="323.16" cy="594.04" r="10.5" transform="translate(-365.43 26.26) rotate(-22.5)"/><rect class="cls-53" x="363.33" y="284.63" width="10.51" height="158.59" rx="4.6"/><rect class="cls-54" x="363.33" y="460.56" width="10.51" height="158.59" rx="4.6"/><circle class="cls-52" cx="531.28" cy="594.04" r="10.5" transform="translate(-331.63 832) rotate(-76.72)"/><path class="cls-55" d="M358.31,510.5s57.82-21.44,91.21-3.95-77.25,16.09-77.25,16.09Z" transform="translate(-162.7 -142.62)"/><path class="cls-56" d="M358.31,510.5s9.58,20.25,37,39.44c17.84,12.48,31.25,38.51,31.25,38.51s11.21-19.39,19.77-28.14c9.9-10.14,41.14-27.54,48.5-49.94,0,0-15.91-21.24-52.85-13.32C408.3,504.27,411.35,523.55,358.31,510.5Z" transform="translate(-162.7 -142.62)"/><path class="cls-57" d="M520.24,432.91s7.08,58-34.1,100.81c-28.25,29.36-52.32,33.46-51.95,65.44,0,0-5.53-7.92,8-27.7,11.12-16.2,39.14-27.62,58.46-60s14.79-78,14.79-78Z" transform="translate(-162.7 -142.62)"/><path class="cls-58" d="M342.7,752.3s83.22,18.2,167.7-.7c0,0,4.78-27.25-11.81-46.74-21.27-25-56.24-19-72-37.4,0,0-6,7-18.24,11.14C397.69,682.23,335.78,693.12,342.7,752.3Z" transform="translate(-162.7 -142.62)"/><path class="cls-57" d="M334,432.57s-5.3,44.63,18.4,79.69c0,0,10.68,19.32,29.34,33.76s37.77,30.56,38.21,53.14c0,0,5.62-16.76-19.75-41.25,0,0-27.39-19.07-39.7-37.36-9.78-14.53-25.18-43.82-21.13-87.27Z" transform="translate(-162.7 -142.62)"/><path class="cls-57" d="M443.74,617.3s11.34,12.34,21.87,19.26c11.28,7.39,62,40.56,54,120.31a9,9,0,0,1-5.34,2.72,127.54,127.54,0,0,0-3.73-62c-10.59-32.49-40.38-55.12-41.77-56.12S448.35,626.83,443.74,617.3Z" transform="translate(-162.7 -142.62)"/><path class="cls-57" d="M334.12,756.56s-7.2-42.95,19.71-85S392.9,642.74,414,614.2c0,0-9.39,15.77-24.34,23.61-13,6.83-59.41,46-49.94,121.78C339.69,759.59,334.69,757.79,334.12,756.56Z" transform="translate(-162.7 -142.62)"/><path class="cls-59" d="M498.67,435.18s5.27,53-21.78,86.83c-18.15,22.68-35,37.61-43.82,66.44,0,0-6.22-34.1,14-66.44,30.62-49.07,2.69-84.44,2.69-84.44Z" transform="translate(-162.7 -142.62)"/><path class="cls-60" d="M348.82,443.47s9.49,2.81,27,3.11a132.12,132.12,0,0,0,1.1,39.87s-12,.77-20.81-2.31C356.14,484.14,349.3,477,348.82,443.47Z" transform="translate(-162.7 -142.62)"/><path class="cls-59" d="M434.38,610.25s2.27,10,26.85,34.39c34,33.66,50.53,77.5,37.85,118.06a271.1,271.1,0,0,1-31.28,2.9s22.34-40.23-8.91-95.79C436.06,629.22,434.38,610.25,434.38,610.25Z" transform="translate(-162.7 -142.62)"/><path class="cls-59" d="M375,667.53s10.7.49,17,1.53c0,0-12.13,35-10.37,56.06l-23.56-2.93S357,703.24,375,667.53Z" transform="translate(-162.7 -142.62)"/><path class="cls-61" d="M427.46,587a2.27,2.27,0,1,1-2.21-2.32A2.26,2.26,0,0,1,427.46,587Z" transform="translate(-162.7 -142.62)"/><path class="cls-61" d="M430.28,592.66a1.52,1.52,0,1,1-1.48-1.55A1.52,1.52,0,0,1,430.28,592.66Z" transform="translate(-162.7 -142.62)"/><path class="cls-61" d="M427.67,596.28a1.5,1.5,0,1,1-1.47-1.53A1.51,1.51,0,0,1,427.67,596.28Z" transform="translate(-162.7 -142.62)"/><path class="cls-61" d="M429.67,600.29a1.5,1.5,0,0,1-1.53,1.47,1.5,1.5,0,1,1,.07-3A1.48,1.48,0,0,1,429.67,600.29Z" transform="translate(-162.7 -142.62)"/><path class="cls-62" d="M427.84,606.08a1,1,0,1,1-2-.05,1,1,0,0,1,2,.05Z" transform="translate(-162.7 -142.62)"/><path class="cls-62" d="M428.49,609.44a.83.83,0,1,1-.8-.84A.83.83,0,0,1,428.49,609.44Z" transform="translate(-162.7 -142.62)"/><path class="cls-63" d="M427.92,614.21a.54.54,0,0,1-.56.54.55.55,0,0,1-.53-.56.56.56,0,0,1,.56-.54A.55.55,0,0,1,427.92,614.21Z" transform="translate(-162.7 -142.62)"/><path class="cls-63" d="M427.37,618.17a.55.55,0,0,1-.48.61.56.56,0,0,1-.61-.48.55.55,0,0,1,.48-.61A.54.54,0,0,1,427.37,618.17Z" transform="translate(-162.7 -142.62)"/><path class="cls-64" d="M427.26,622.35a.43.43,0,0,1-.44.42.43.43,0,1,1,0-.86A.43.43,0,0,1,427.26,622.35Z" transform="translate(-162.7 -142.62)"/><path class="cls-62" d="M426.2,602.79a1,1,0,0,1-1,1,1,1,0,0,1,.05-2A1,1,0,0,1,426.2,602.79Z" transform="translate(-162.7 -142.62)"/><path class="cls-61" d="M425.56,591.53a1.13,1.13,0,1,1-1.1-1.15A1.13,1.13,0,0,1,425.56,591.53Z" transform="translate(-162.7 -142.62)"/><path class="cls-65" d="M428.35,414c-67.83,0-122.82-6.48-122.82-14.48h0V423.3c0,8,55,14.48,122.82,14.48s122.83-6.48,122.83-14.48V399.53C551.16,407.53,496.18,414,428.35,414Z" transform="translate(-162.7 -142.62)"/><path class="cls-66" d="M317.9,447.38l10.51,9.07V431.72l-9.78-1.91a6,6,0,0,0-.73,3.13Z" transform="translate(-162.7 -142.62)"/><path class="cls-66" d="M526,447.67l10.51,10.58,0-26.31c0-.44-.3-1.66-.53-1.66l-9.94,1.8s0,.61,0,2.66Z" transform="translate(-162.7 -142.62)"/><path class="cls-63" d="M426.48,616.08a.43.43,0,0,1-.86,0,.43.43,0,1,1,.86,0Z" transform="translate(-162.7 -142.62)"/><path class="cls-64" d="M428,620.28a.43.43,0,1,1-.42-.45A.43.43,0,0,1,428,620.28Z" transform="translate(-162.7 -142.62)"/><g class="cls-67"><path class="cls-68" d="M531.86,387c0,5-47.44,9.16-106,9.22s-106-4-106-9,47.44-9.16,106-9.22S531.85,381.93,531.86,387Z" transform="translate(-162.7 -142.62)"/><path class="cls-69" d="M531.18,386.85c0,4.94-48.09,9.21-105.64,9.26-58.64.05-104.6-4.11-104.62-9.05s47.49-8.9,105-9S531.17,381.91,531.18,386.85Z" transform="translate(-162.7 -142.62)"/><path class="cls-70" d="M530.51,386.74c0,4.85-48.74,9.26-105.3,9.31-58.74,0-103.18-4.25-103.2-9.1s47.52-8.66,104.08-8.72S530.5,381.89,530.51,386.74Z" transform="translate(-162.7 -142.62)"/><path class="cls-71" d="M529.83,386.63c0,4.76-49.38,9.31-105,9.35-58.83,0-101.77-4.38-101.78-9.14s47.56-8.41,103.12-8.47S529.82,381.87,529.83,386.63Z" transform="translate(-162.7 -142.62)"/><path class="cls-72" d="M529.16,386.52c0,4.67-50,9.36-104.6,9.39-58.94,0-100.36-4.51-100.37-9.18s47.59-8.16,102.16-8.23S529.15,381.85,529.16,386.52Z" transform="translate(-162.7 -142.62)"/><path class="cls-73" d="M528.48,386.41c0,4.58-50.67,9.41-104.25,9.44-59,0-98.94-4.66-99-9.24s47.63-7.9,101.21-8S528.47,381.83,528.48,386.41Z" transform="translate(-162.7 -142.62)"/><path class="cls-74" d="M527.81,386.3c0,4.49-51.32,9.46-103.91,9.48-59.13,0-97.52-4.79-97.54-9.28s47.67-7.65,100.26-7.72S527.8,381.81,527.81,386.3Z" transform="translate(-162.7 -142.62)"/><path class="cls-75" d="M527.13,386.19c0,4.4-52,9.51-103.56,9.53-59.22,0-96.11-4.93-96.12-9.33s47.71-7.4,99.3-7.48S527.12,381.79,527.13,386.19Z" transform="translate(-162.7 -142.62)"/><path class="cls-76" d="M526.45,386.08c0,4.31-52.6,9.56-103.2,9.57-59.33,0-94.7-5.06-94.71-9.37s47.74-7.15,98.34-7.23S526.45,381.77,526.45,386.08Z" transform="translate(-162.7 -142.62)"/><path class="cls-77" d="M525.78,386c0,4.22-53.25,9.61-102.86,9.62-59.42,0-93.28-5.21-93.29-9.43s47.78-6.89,97.38-7S525.77,381.75,525.78,386Z" transform="translate(-162.7 -142.62)"/><path class="cls-78" d="M525.1,385.86c0,4.13-53.89,9.66-102.51,9.66-59.52,0-91.86-5.34-91.87-9.47s47.81-6.64,96.42-6.72S525.1,381.73,525.1,385.86Z" transform="translate(-162.7 -142.62)"/><path class="cls-79" d="M524.43,385.75c0,4-54.54,9.71-102.17,9.7-59.61-.06-90.45-5.47-90.46-9.51s47.85-6.4,95.47-6.48S524.42,381.71,524.43,385.75Z" transform="translate(-162.7 -142.62)"/><path class="cls-80" d="M523.75,385.64c0,4-55.18,9.76-101.81,9.75-59.71-.08-89-5.61-89.05-9.57s47.89-6.14,94.52-6.22S523.74,381.69,523.75,385.64Z" transform="translate(-162.7 -142.62)"/><path class="cls-81" d="M523.08,385.53c0,3.87-55.84,9.81-101.47,9.79-59.81-.08-87.62-5.75-87.63-9.61s47.92-5.89,93.56-6S523.07,381.67,523.08,385.53Z" transform="translate(-162.7 -142.62)"/><path class="cls-82" d="M522.4,385.42c0,3.78-56.48,9.86-101.12,9.84-59.9-.1-86.2-5.89-86.21-9.66s48-5.64,92.6-5.73S522.39,381.65,522.4,385.42Z" transform="translate(-162.7 -142.62)"/><path class="cls-83" d="M521.72,385.31c0,3.69-57.12,9.91-100.77,9.88-60-.11-84.79-6-84.79-9.7s48-5.39,91.64-5.48S521.72,381.63,521.72,385.31Z" transform="translate(-162.7 -142.62)"/><path class="cls-84" d="M521.05,385.2c0,3.6-57.77,10-100.42,9.93-60.1-.12-83.38-6.17-83.39-9.76s48-5.13,90.69-5.22S521,381.61,521.05,385.2Z" transform="translate(-162.7 -142.62)"/><path class="cls-85" d="M520.37,385.1c0,3.5-58.41,10-100.07,10-60.2-.13-82-6.3-82-9.8s48.07-4.88,89.73-5S520.37,381.59,520.37,385.1Z" transform="translate(-162.7 -142.62)"/><path class="cls-86" d="M519.7,385c0,3.41-59.06,10.05-99.73,10-60.29-.14-80.54-6.43-80.55-9.84s48.11-4.63,88.77-4.73S519.69,381.57,519.7,385Z" transform="translate(-162.7 -142.62)"/><path class="cls-87" d="M519,384.88c0,3.32-59.7,10.1-99.38,10.05-60.39-.16-79.13-6.57-79.13-9.89s48.14-4.38,87.82-4.48S519,381.55,519,384.88Z" transform="translate(-162.7 -142.62)"/><path class="cls-88" d="M518.35,384.77c0,3.23-60.35,10.15-99,10.09-60.49-.16-77.72-6.71-77.73-9.94s48.19-4.13,86.87-4.22S518.34,381.53,518.35,384.77Z" transform="translate(-162.7 -142.62)"/><path class="cls-89" d="M517.67,384.66c0,3.14-61,10.21-98.68,10.14-60.59-.18-76.3-6.85-76.31-10s48.22-3.88,85.91-4S517.67,381.52,517.67,384.66Z" transform="translate(-162.7 -142.62)"/><path class="cls-90" d="M517,384.55c0,3.05-61.63,10.26-98.33,10.18-60.68-.19-74.88-7-74.89-10s48.26-3.63,85-3.73S517,381.5,517,384.55Z" transform="translate(-162.7 -142.62)"/><path class="cls-91" d="M516.32,384.44c0,3-62.28,10.31-98,10.22-60.78-.19-73.47-7.11-73.47-10.07s48.29-3.38,84-3.48S516.32,381.48,516.32,384.44Z" transform="translate(-162.7 -142.62)"/><path class="cls-92" d="M515.64,384.33c0,2.87-62.92,10.36-97.64,10.27-60.87-.21-72.05-7.26-72.05-10.13s48.33-3.12,83-3.23S515.64,381.46,515.64,384.33Z" transform="translate(-162.7 -142.62)"/><path class="cls-93" d="M515,384.22c0,2.78-63.57,10.41-97.29,10.31-61-.22-70.64-7.39-70.65-10.17s48.37-2.87,82.08-3S515,381.44,515,384.22Z" transform="translate(-162.7 -142.62)"/><path class="cls-94" d="M514.29,384.11c0,2.69-64.22,10.46-96.94,10.36-61.07-.23-69.23-7.53-69.23-10.22s48.41-2.62,81.12-2.73S514.29,381.42,514.29,384.11Z" transform="translate(-162.7 -142.62)"/><path class="cls-95" d="M513.62,384c0,2.6-64.87,10.51-96.6,10.4-61.16-.24-67.81-7.66-67.81-10.26s48.44-2.37,80.17-2.48S513.61,381.4,513.62,384Z" transform="translate(-162.7 -142.62)"/><path class="cls-96" d="M512.94,383.89c0,2.51-65.51,10.56-96.25,10.45-61.26-.26-66.39-7.81-66.39-10.32s48.48-2.11,79.21-2.23S512.94,381.38,512.94,383.89Z" transform="translate(-162.7 -142.62)"/><path class="cls-97" d="M512.27,383.78c0,2.42-66.16,10.61-95.9,10.49-61.36-.27-65-7.94-65-10.36s48.51-1.87,78.25-2S512.26,381.36,512.27,383.78Z" transform="translate(-162.7 -142.62)"/><path class="cls-98" d="M511.59,383.67c0,2.33-66.8,10.66-95.55,10.53-61.46-.27-63.57-8.07-63.57-10.4s48.55-1.62,77.3-1.73S511.59,381.34,511.59,383.67Z" transform="translate(-162.7 -142.62)"/><path class="cls-99" d="M510.91,383.56c0,2.24-67.44,10.71-95.2,10.58-61.55-.29-62.15-8.21-62.15-10.45s48.59-1.37,76.34-1.49S510.91,381.32,510.91,383.56Z" transform="translate(-162.7 -142.62)"/></g><path class="cls-62" d="M426.64,611.83a.82.82,0,1,1-.8-.84A.83.83,0,0,1,426.64,611.83Z" transform="translate(-162.7 -142.62)"/><path class="cls-9" d="M641.6,787.74H574.67c-.45-.23-.91-.46-1.37-.71,0,0,6.57-88.17,107.66-52.36C681,734.67,669,770.29,641.6,787.74Z" transform="translate(-162.7 -142.62)"/><path class="cls-9" d="M681,734.67,573.3,787S581.56,697.53,681,734.67Z" transform="translate(-162.7 -142.62)"/><polygon class="cls-12" points="455.65 623.85 492.12 634.03 491.71 634.44 467.47 627.96 481.53 643.08 481.1 643.39 465.28 627.68 453.49 625.01 414.01 645.12 411.98 645.12 410.6 644.41 410.74 643.19 430.6 633.52 436.64 621.24 434.13 596.8 434.72 596.3 437.86 619.59 456 585.58 456.93 585.34 432.92 632.38 470.97 613.85 480.22 600.59 478.56 583.39 479.1 583.41 481.11 599.16 491.43 584.38 491.97 584.47 473.69 612.53 517.43 591.71 518.26 592.05 499.75 601.28 513.09 604.11 512.9 604.49 497.87 602.24 455.65 623.85"/><path class="cls-9" d="M561.67,795.26c24.34-11.5,51.59-39,36.17-104.88,0,0-94,27.38-70.3,104.88Z" transform="translate(-162.7 -142.62)"/><path class="cls-11" d="M561.07,795.26c24.9-11.54,53.38-39.14,36.77-104.88L535.31,795.26Z" transform="translate(-162.7 -142.62)"/><polygon class="cls-10" points="393.05 615.73 370.17 652.64 373.85 652.64 381.47 639.89 395.04 633.95 420.35 637.72 420.95 637.11 396.91 632.72 434.67 614.77 435.02 613.78 382.92 637.45 406.79 597.49 421.76 588.16 439.59 590.68 439.63 590.11 423.36 587.26 440.05 576.85 440.02 576.27 408.48 594.62 435.4 548.66 435.14 547.76 423.31 567.19 421.9 552.77 421.49 552.96 422.09 569.16 394.51 613.46 388.1 573.93 387.62 574.35 391.59 600.62 377.38 584.87 377.01 585.32 391.63 602.97 393.05 615.73"/><path class="cls-11" d="M521.27,797.29c14.47-11.8,26.78-34.18,9.89-75.4,0,0-57.94,27.43-40.7,75.4Z" transform="translate(-162.7 -142.62)"/><path class="cls-11" d="M521,797.29c14.86-11.91,27.77-34.43,10.15-75.4l-30,75.4Z" transform="translate(-162.7 -142.62)"/><polygon class="cls-12" points="346.38 632.1 336.94 654.67 339.26 654.67 340.92 650.5 349.85 644.76 368.18 644.57 368.54 644.07 351.04 643.68 375.71 626.71 375.85 625.98 341.68 648.61 354.03 617.64 363.57 609.35 376.46 609.12 376.43 608.71 364.6 608.53 375.23 599.28 375.14 598.88 354.91 615.43 368.75 579.87 368.46 579.26 362.3 594.35 359.67 584.3 359.39 584.48 361.65 595.88 347.16 630.34 338.15 603.1 337.86 603.45 343.64 621.58 331.8 612.05 331.6 612.41 343.93 623.24 346.38 632.1"/><path class="cls-9" d="M221.67,794.05H321.94L324,793s-9.85-132.1-161.3-78.45C162.7,714.54,180.66,767.91,221.67,794.05Z" transform="translate(-162.7 -142.62)"/><path class="cls-9" d="M162.7,714.54,324,793S311.63,658.9,162.7,714.54Z" transform="translate(-162.7 -142.62)"/><polygon class="cls-10" points="93.8 619.57 39.16 634.81 39.77 635.43 76.09 625.72 55.02 648.38 55.66 648.83 79.37 625.29 97.04 621.3 156.18 651.43 159.22 651.43 161.3 650.37 161.08 648.54 131.33 634.04 122.27 615.65 126.05 579.04 125.16 578.28 120.46 613.17 93.27 562.22 91.88 561.87 127.85 632.35 70.85 604.57 56.99 584.71 59.47 558.94 58.66 558.98 55.65 582.57 40.19 560.42 39.39 560.57 66.76 602.61 1.23 571.41 0 571.92 27.73 585.74 7.74 589.98 8.03 590.55 30.55 587.18 93.8 619.57"/><path class="cls-100" d="M406.56,207.76l-37,19.29a3.3,3.3,0,0,0-1.51,3.87c1.94,6.53,7.9,23.73,20.35,38.43a3.34,3.34,0,0,1,.77,1.77c.82,6.95,5.88,45.32,5.7,58,0,.69,2.65,1.36,3.93,1.84,6.52,2.47,23.09,5.22,52.46.89,1.36-.2,3.14-.58,3.28-1.38,1.91-10.44,2.43-50.16,3.28-60.38a3.43,3.43,0,0,1,.46-1.45c1.77-3,9.45-16.44,18.94-38.46a3.34,3.34,0,0,0-1.47-4.3l-38.7-18.22a2.81,2.81,0,0,0-1.13-.25l-28.17.06A2.63,2.63,0,0,0,406.56,207.76Z" transform="translate(-162.7 -142.62)"/><g class="cls-101"><polygon class="cls-102" points="374.06 130.91 363.96 130.85 364.13 113.04 374.23 113.09 374.06 130.91"/><polygon class="cls-102" points="387.92 130.98 377.81 130.93 378.03 108.84 388.13 108.9 387.92 130.98"/><polygon class="cls-102" points="401.77 131.06 391.96 131 392.21 105.35 402.02 105.4 401.77 131.06"/><path class="cls-102" d="M526.67,247.31c17.21,1.18,29.16-4.93,40.3-10.43.86-.42-2.72-.09-3.07,0-1.8.41-6,.82-7.3,1.51-1.41.13-1.49.24-.26.32a4,4,0,0,0,2.75-.27c2.66-.41,5.25-1.2,7.73-1.83l-3.27.14a8.62,8.62,0,0,1-.68,4.8c0,.12,3.5.16,3.73-.37a8.62,8.62,0,0,0,.68-4.8c0-.38-2.94,0-3.27.13q-5.28,1.35-10.78,2.45c-2.26.45,1.29.38,2.08.25,3.9-.64,7.67-1.38,11.39-2.23l-3.07,0c-9.3,4.59-19.68,10.75-34.49,9.74-.73-.05-4.22.5-2.47.62Z" transform="translate(-162.7 -142.62)"/></g><polygon class="cls-103" points="230.49 57.42 231.68 55.68 263.07 47.74 267 49.65 267.87 56.04 231.85 62.85 230.49 57.42"/><path class="cls-104" d="M314,225l-2.76-14.2s-2.23-23.25-2.76-24.09c0,0,9.37-7.84,9.7-8.28s3.22-2.19,5.08.51a3.24,3.24,0,0,1,3.33,0,3.5,3.5,0,0,1,2,2.27s.78-1.33,3.11.11,1.9,2.95,1.9,2.95.49-.85,2.31.7a4.57,4.57,0,0,1,1.78,2.74l.43,4-4.91,3.93a.74.74,0,0,1-1-.51l0-3.39s.14,15.05-5.28,21.07l4.47,13.61Z" transform="translate(-162.7 -142.62)"/><path class="cls-105" d="M308.47,186.74s6.28-5.7,23.75,5.07c0,0,.78,13.69-4.74,20.36,0,0-8.11,8.23-15.57-.5Z" transform="translate(-162.7 -142.62)"/><path class="cls-106" d="M334,189.44a4.35,4.35,0,0,1,.19,1.16,6.62,6.62,0,0,1-1.9,1.24,18.64,18.64,0,0,0,1.45-1.18C333.93,190.34,333.9,189.65,334,189.44Z" transform="translate(-162.7 -142.62)"/><path class="cls-106" d="M323.18,179,316.42,185A47.79,47.79,0,0,0,323.18,179Z" transform="translate(-162.7 -142.62)"/><path class="cls-106" d="M328.53,181.35l-5.82,5.2A35.58,35.58,0,0,0,328.53,181.35Z" transform="translate(-162.7 -142.62)"/><path class="cls-106" d="M333.69,184.26,327.83,189A32.48,32.48,0,0,0,333.69,184.26Z" transform="translate(-162.7 -142.62)"/><path class="cls-107" d="M391.85,503.71c3.44-3.42,8.87-10.07,15.67-21.25a5,5,0,0,0,0-5l-5.68-10.62a5.23,5.23,0,0,1-.52-1.45l-14.89-69c-.66-3.3.8-5.5,4.16-5.44l75.05-.47c3.33.06,4.52,4.77,3.84,8.22l-24.8,85.86c-.14.62,1.39,2,1.05,2.54-1.15,1.79-5.12,7.43-4.17,11.78.86,4,5.23,13.14,12.72,22.46,3.28,4.09,10-.48,8.47-5.5l-5.83-19.77a5.26,5.26,0,0,1,0-3l28.64-94.61c.95-3.15,1.58-11.6-1.69-12l-109.37-7a5.28,5.28,0,0,0-5.68,6.65l23.09,83.41a5.26,5.26,0,0,1-.07,3.07L383.44,498C381.77,503.08,388.08,507.47,391.85,503.71Z" transform="translate(-162.7 -142.62)"/><polygon class="cls-108" points="147.88 71.92 147.88 79.01 167.26 78.6 166.44 72.15 147.88 71.92"/><path class="cls-109" d="M419.08,175.36l11.55,25.89s-7.62,51-32.07,16.39l-6.9-31.88Z" transform="translate(-162.7 -142.62)"/><path class="cls-110" d="M416.29,152.55,420.76,186s-8.46,12.18-10.37,14.24-5.27,3.22-8,1.85l-11.93-10.5L382.84,159S396.15,141.58,416.29,152.55Z" transform="translate(-162.7 -142.62)"/><path class="cls-111" d="M387.17,177.5s-3-3.62-10-23.58l7.93,4.07S382.35,158.15,387.17,177.5Z" transform="translate(-162.7 -142.62)"/><path class="cls-112" d="M411.14,142.64c4.3-.38,5.86,5.3,5.86,5.3s5.69,2.22,6,13.07a31.42,31.42,0,0,1-3.4,15.43s-4.25-16-4.92-23.34h0c-7-3.91-12.29,2.75-24.22,5a16.65,16.65,0,0,1-13.77-3.57c-3-2.4-3.57-3.89-3.57-3.89S406.37,143.07,411.14,142.64Z" transform="translate(-162.7 -142.62)"/><polygon class="cls-113" points="232.08 57.56 250.73 78.88 264.69 51.36 271.26 59.09 265.51 90.05 252.01 81.14 244.31 95.23 230.49 64.76 232.08 57.56"/><path class="cls-114" d="M419.07,291.92l17.19-1.44C434.7,270.91,427.87,250,422.73,239l-7.85,1.6C416.52,263.28,419.43,279.73,419.07,291.92Z" transform="translate(-162.7 -142.62)"/><polygon class="cls-115" points="252.05 81.28 247.61 89.41 252.18 98 260.03 96.4 259.97 86.51 252.05 81.28"/><path class="cls-116" d="M491.33,208.49,462.56,204,437.83,200l-8.48-7.25s5.33,36.22,4.42,57A132.91,132.91,0,0,1,425.13,290s-24.26-55.27-32.28-89.57l-2.56,7.25-40.81,22.74-9.55,49,10.61,36.26s17.08-26.41,20.31-34.79c0,0,7.32,21.77,8,25.3s3,40.09,3,40.09l90.52,8.85s41.14-4.35,48.59-50.09c0,0-15.64-23.55-15.13-24Z" transform="translate(-162.7 -142.62)"/><path class="cls-117" d="M308.7,221.63l22.42-.43s13.25,51,21.41,75.67c2.4,7.26,1.5,17.63-4.15,20.43-5.94,3-20.49,5.92-28.94-24.22S308.7,221.63,308.7,221.63Z" transform="translate(-162.7 -142.62)"/><path class="cls-118" d="M330,224.93a1.46,1.46,0,1,1-1.46-1.45A1.46,1.46,0,0,1,330,224.93Z" transform="translate(-162.7 -142.62)"/><path class="cls-118" d="M330.57,229a1.46,1.46,0,1,1-1.46-1.45A1.46,1.46,0,0,1,330.57,229Z" transform="translate(-162.7 -142.62)"/><path class="cls-119" d="M463.17,491.35l4,18.08s4.86,20.75-2.25,18.24c-9.09-3.22-13.89-16.53-13.89-16.53l-.36-6.14-2.85,1.23-3.68-6.79L450.81,486Z" transform="translate(-162.7 -142.62)"/><path class="cls-120" d="M383.89,471.55l-4,18.08s-4.85,20.75,2.25,18.24c9.1-3.21,13.9-16.53,13.9-16.53l.35-6.14,2.85,1.23,3.69-6.79-6.67-13.47Z" transform="translate(-162.7 -142.62)"/><path class="cls-121" d="M356.26,324.61s28.48,21.82,63.52,24.27c71.74,5,100.92,5,100.92,5s7.71,1,4,20c-4,20.08-59.14,119.05-59.14,119.05L448.2,485l27.89-92.61-13.25.47h-72a20.08,20.08,0,0,1-9.91-2.59c-8-4.52-23.73-24.88-31.06-38.38Z" transform="translate(-162.7 -142.62)"/><path class="cls-122" d="M371.3,343.55c-2.15-8.1-10.18-18.43-18.3-20.53-6.58-1.71-18.53-1-23.18,9.4-9.7,21.67,49.33,144,49.33,144l18.34-10.26S385.34,396.68,371.3,343.55Z" transform="translate(-162.7 -142.62)"/><g class="cls-123"><g class="cls-124"><polygon class="cls-125" points="198.42 109.35 215 133.89 216.55 163.15 198.42 109.35"/></g></g><g class="cls-126"><g class="cls-127"><g class="cls-128"><polygon class="cls-129" points="305.72 116.58 308.32 155.01 334.21 169.42 305.72 116.58"/></g></g></g><polygon class="cls-130" points="386.01 147.91 367.62 206.26 290.23 207.01 308.5 148.66 386.01 147.91"/><polygon class="cls-131" points="289.64 212.02 257.1 212.33 257.07 210.16 290.23 207.01 289.64 212.02"/><polygon class="cls-132" points="367.62 206.26 366.71 211.26 289.64 212.02 290.23 207.01 367.62 206.26"/><polygon class="cls-133" points="308.5 148.66 306.84 149.66 286.48 207.37 290.23 207.01 308.5 148.66"/><path class="cls-134" d="M499.6,320.9c-1.11,2.22-.57,4.74,1.22,5.63s4.13-.18,5.24-2.4.56-4.74-1.22-5.63S500.71,318.68,499.6,320.9Z" transform="translate(-162.7 -142.62)"/><path class="cls-135" d="M542.62,320.91s1.39,3.34-2.25,3.83-11.7-1.92-15.71-1.89c0,0,1.84-3,4.73-3.12A81.46,81.46,0,0,1,542.62,320.91Z" transform="translate(-162.7 -142.62)"/><path class="cls-136" d="M546,316.85s1.4,3.34-2.25,3.84-11.69-1.93-15.7-1.9c0,0,1.83-3,4.72-3.12A82.6,82.6,0,0,1,546,316.85Z" transform="translate(-162.7 -142.62)"/><path class="cls-137" d="M539.73,324.81a2.28,2.28,0,0,1-1.92,3.26c-3,.47-9.64-1.71-12.95-1.63,0,0,1.62-2.58,4-2.71A69.38,69.38,0,0,1,539.73,324.81Z" transform="translate(-162.7 -142.62)"/><path class="cls-138" d="M542.7,309.62s8,2.24,2.38,7.1c0,0-13.06-2.78-16.67-2.46a3.87,3.87,0,0,1,4-3.54,49.45,49.45,0,0,1,9.63.73Z" transform="translate(-162.7 -142.62)"/><path class="cls-57" d="M546.42,292.55l-.06-.12-4.81-.44,4.91-.87.06-.1L544.66,289l2.61,1.45.55-5.26.55,5.26.12,0,2.69-1.58-1.92,2.1.11.15,5.3.81-5.26.61a1.3,1.3,0,0,1-.1.15l1.47,2.35-2.25-1.78h0l-.72,5.45-.58-5.45-2.57,2.16Z" transform="translate(-162.7 -142.62)"/><g class="cls-139"><path class="cls-140" d="M592.31,298.87a8.62,8.62,0,1,0,8.19,9.21A8.71,8.71,0,0,0,592.31,298.87Zm-5.46,8.42a4.8,4.8,0,1,1,4.46,5A4.74,4.74,0,0,1,586.85,307.29Z" transform="translate(-162.7 -142.62)"/><path class="cls-140" d="M621.81,298.19l.17-2.73-1.32-.56a6.78,6.78,0,0,0-.41-1.2l.69-1.26-1.82-2.05-1.36.55a7.26,7.26,0,0,0-1.09-.52l-.41-1.42-2.74-.17-.58,1.37a6.1,6.1,0,0,0-1.14.38l-1.29-.71-2,1.82L609,293a5.71,5.71,0,0,0-.55,1.14l-1.37.4-.17,2.73,1.39.59a5.64,5.64,0,0,0,.4,1.06l-.75,1.36,1.81,2.05,1.59-.64a5.8,5.8,0,0,0,.8.37l.48,1.67,2.73.16.68-1.59a7.49,7.49,0,0,0,.84-.27l1.5.82,2-1.81-.59-1.45a5.31,5.31,0,0,0,.53-1Zm-4.16-1.58a3.21,3.21,0,1,1-3-3.33A3.19,3.19,0,0,1,617.65,296.61Z" transform="translate(-162.7 -142.62)"/><path class="cls-140" d="M594.68,290.4l-.89-.06.12-.32c.29,0,.6,0,.89.06Zm-2.1-.08c-.41,0-.82,0-1.22.06l.08-.33c.41,0,.83-.05,1.24-.05Zm-2.47.2c-.42.06-.85.14-1.26.23l0-.32c.42-.09.86-.17,1.29-.23Zm-2.54.55c-.42.13-.85.28-1.27.43l0-.3c.43-.16.87-.31,1.3-.44ZM585,292c-.41.2-.83.42-1.24.65l-.08-.28c.42-.23.85-.45,1.27-.66Zm-2.46,1.4c-.39.26-.79.54-1.17.84l-.14-.23c.39-.31.8-.6,1.2-.87Zm-2.29,1.78c-.36.32-.72.66-1.07,1L579,296c.36-.36.72-.71,1.09-1Zm-2.07,2.08q-.48.56-.93,1.14l-.23-.15c.31-.39.63-.78,1-1.15Zm-1.79,2.31-.35.51-.45.7-.26-.09c.15-.24.3-.48.46-.72l.35-.52Zm-2.13,3.71-.29,0s.21-.51.64-1.3l.27.07C574.5,302.83,574.3,303.32,574.29,303.32Z" transform="translate(-162.7 -142.62)"/><polygon class="cls-140" points="480.97 163.38 466.64 163.38 466.63 163.37 463.62 159.68 463.65 159.59 466.66 163.27 480.97 163.27 480.97 163.38"/><path class="cls-140" d="M626.5,302.26c0,.15-.07.26-.17.26s-.17-.11-.17-.26.08-.27.17-.27S626.5,302.11,626.5,302.26Z" transform="translate(-162.7 -142.62)"/><polygon class="cls-140" points="464.6 163.43 461.24 159.42 461.28 159.34 464.65 163.35 464.6 163.43"/><path class="cls-140" d="M624.1,302c0,.15-.07.27-.17.27s-.16-.12-.16-.27.07-.26.16-.26S624.1,301.85,624.1,302Z" transform="translate(-162.7 -142.62)"/><path class="cls-140" d="M627.51,306c0,.15-.07.27-.16.27s-.17-.12-.17-.27.08-.26.17-.26S627.51,305.86,627.51,306Z" transform="translate(-162.7 -142.62)"/><g class="cls-101"><path class="cls-9" d="M624.65,291.54c.09.19.13.3.13.3l-.26.06-.12-.28Z" transform="translate(-162.7 -142.62)"/><path class="cls-9" d="M617.2,286.06l.69.16-.07.23c-.22-.06-.44-.11-.67-.15Zm-.69-.12,0,.24c-.22,0-.45-.07-.68-.09l0-.24C616,285.87,616.28,285.9,616.51,285.94Zm2,.48.67.23-.1.23c-.21-.09-.43-.16-.65-.24Zm-3.45-.63V286l-.68,0v-.24Zm4.76,1.14.63.32-.14.2-.61-.31Zm-6.16-1.16,0,.24-.69,0,0-.24Zm7.39,1.83.57.39-.17.18c-.18-.13-.37-.25-.56-.37Zm1.11.82c.17.14.34.3.5.45l-.2.16c-.15-.15-.32-.3-.49-.44Zm1,.94c.15.16.29.34.43.51l-.22.13c-.13-.17-.28-.34-.42-.5Zm.82,1.05a5.6,5.6,0,0,1,.35.55l-.24.11a6.26,6.26,0,0,0-.34-.55Z" transform="translate(-162.7 -142.62)"/><path class="cls-9" d="M612.32,285.86l0,.24-.34,0,0-.24Z" transform="translate(-162.7 -142.62)"/></g><path class="cls-140" d="M605.57,309.73l.16-3.13-1.39-.36a13,13,0,0,0-.25-1.56l1.21-.78L604.16,301l-1.46.25a14,14,0,0,0-.86-1.26l.83-1.27-2.23-2.22-1.34.89a13.67,13.67,0,0,0-1.21-.76l.26-1.61-2.93-1.12-.92,1.43c-.44-.08-.89-.15-1.34-.19l-.44-1.66-3.14.17-.25,1.69c-.45.1-.89.21-1.32.35l-1.06-1.33-2.8,1.43.44,1.58a12.05,12.05,0,0,0-1.12.88l-1.43-.74-2,2.45,1,1.17a12.35,12.35,0,0,0-.71,1.35l-1.49-.09-.81,3,1.29.64a13.82,13.82,0,0,0-.09,1.58l-1.33.5.49,3.11,1.44.06a12.37,12.37,0,0,0,.59,1.46l-1,1,1.71,2.63,1.43-.56a13.14,13.14,0,0,0,1.08,1l-.57,1.46,2.64,1.71,1.15-1.18a10.41,10.41,0,0,0,1.32.48L588,321l3.1.48.59-1.59.69,0c.23,0,.46,0,.68-.06l.77,1.52,3-.82-.11-1.66a11.47,11.47,0,0,0,1.27-.62l1.27,1,2.44-2-.73-1.39a13.15,13.15,0,0,0,1-1.14l1.48.4,1.42-2.8-1.14-.91a12.45,12.45,0,0,0,.42-1.51Zm-13.33,7.43a9.7,9.7,0,1,1,9.37-10.22A9.81,9.81,0,0,1,592.24,317.16Z" transform="translate(-162.7 -142.62)"/><path class="cls-140" d="M628.29,320.22l.15-2.19-2.26-.74a8,8,0,0,0-.34-1.54l1.86-1.56-1-2-2.56.54a9.25,9.25,0,0,0-.92-1l.92-2.53L622.35,308,620.2,310a10.54,10.54,0,0,0-1-.33l-.51-2.86-2.19-.16-.9,2.77a9.91,9.91,0,0,0-1.09.18l-1.85-2.2-2,1,.55,2.64a9.25,9.25,0,0,0-1.05.82l-2.45-.89-1.23,1.82,1.62,1.8a8.47,8.47,0,0,0-.55,1.48l-2.34.42L605,318.6l2.26.73a8.62,8.62,0,0,0,.35,1.54l-1.86,1.56,1,2,2.56-.54a10.43,10.43,0,0,0,.93.95l-.92,2.54,1.82,1.23,2.14-1.93a9.15,9.15,0,0,0,1.05.33l.51,2.87L617,330l.9-2.77a9.36,9.36,0,0,0,1.08-.18l1.86,2.2,2-1-.56-2.64a10.46,10.46,0,0,0,1.05-.81l2.46.89,1.23-1.83-1.62-1.8a9,9,0,0,0,.55-1.48Zm-12,4.62a6.54,6.54,0,1,1,7.19-6.06A6.66,6.66,0,0,1,616.29,324.84Z" transform="translate(-162.7 -142.62)"/></g></svg>