<svg id="Layer_1" data-name="Layer 1" xmlns="http://www.w3.org/2000/svg" viewBox="0 0 266.41 266.41"><defs><style>.cls-1{fill:#fff;}</style></defs><title>check-icon</title><path class="cls-1" d="M244.49,33.59c-73.45,0-133.2,59.75-133.2,133.2S171,300,244.49,300,377.7,240.24,377.7,166.79,317.94,33.59,244.49,33.59Zm0,253.72A120.52,120.52,0,1,1,365,166.79,120.66,120.66,0,0,1,244.49,287.31Z" transform="translate(-111.29 -33.59)"/><path class="cls-1" d="M304.18,131.44,237.9,197.72,193.23,153a6.34,6.34,0,0,0-9,9l49.16,49.16a6.34,6.34,0,0,0,9,0,5.57,5.57,0,0,1,1.58-1.58l69.18-69.18a6.34,6.34,0,0,0-9-9Z" transform="translate(-111.29 -33.59)"/></svg>