<svg id="Layer_1" data-name="Layer 1" xmlns="http://www.w3.org/2000/svg" viewBox="0 0 118.92 131.63"><defs><style>.cls-1{fill:#fff;}</style></defs><title>coin-stack</title><path class="cls-1" d="M594.05,666.44a37.78,37.78,0,1,0,35.66,50.22c2.56.11,4.89.14,6.8.14,11.59,0,38.57-1.22,38.57-12.6V688.84a4.69,4.69,0,0,0,0-2V674.33a4.48,4.48,0,0,0,.11-1,4.53,4.53,0,0,0-.11-1v-13.9a4.48,4.48,0,0,0,.11-1,5,5,0,0,0-.31-1.69,6.75,6.75,0,0,0,.2-1.57V638.74a4.42,4.42,0,0,0,.11-1,4.53,4.53,0,0,0-.11-1v-13.9a4.42,4.42,0,0,0,.11-1,4.86,4.86,0,0,0-.33-1.75,4.78,4.78,0,0,0-2-2.76c-7.88-6.68-33-6.92-36.32-6.92s-28.45.24-36.33,6.92a4.78,4.78,0,0,0-2,2.75,5,5,0,0,0-.33,1.76,5,5,0,0,0,.11,1v13.9a4.53,4.53,0,0,0-.11,1,5,5,0,0,0,.11,1v15.37a6.75,6.75,0,0,0,.2,1.57,5,5,0,0,0-.31,1.69,5.1,5.1,0,0,0,.11,1v8.23A38.17,38.17,0,0,0,594.05,666.44Zm76.63,37.46a2.53,2.53,0,0,0,0,.27.62.62,0,0,0,0,.13c-.22,4.23-15.47,7.66-34.17,7.66-1.86,0-3.68,0-5.46-.1a37.81,37.81,0,0,0,.78-7.65c0-.66,0-1.33-.05-2,1.74,0,3.35.08,4.73.08,8.69,0,26-.7,34.17-5.83Zm0-14.51a2.62,2.62,0,0,0,0,.27.62.62,0,0,0,0,.13c-.22,4.23-15.47,7.66-34.17,7.66-1.81,0-3.58,0-5.32-.1a37.52,37.52,0,0,0-4-11.25c3.53.21,6.79.27,9.31.27,8.69,0,26-.69,34.17-5.82Zm0-35.59a2.72,2.72,0,0,0,0,.28.53.53,0,0,0,0,.12c-.22,4.24-15.47,7.67-34.17,7.67s-34-3.43-34.18-7.67a2.09,2.09,0,0,0,0-.24.92.92,0,0,0,0-.16V645c8.13,5.14,25.48,5.83,34.18,5.83s26-.69,34.17-5.82Zm-34.17-37.87c19.39,0,31.42,3.6,33.45,5.85-2,2.25-14.05,5.85-33.45,5.85s-31.43-3.6-33.46-5.85C605.08,619.53,617.11,615.93,636.51,615.93Zm0,17.27c3.07,0,24.64-.19,34.17-5.46v10.14a2.53,2.53,0,0,0,0,.27.62.62,0,0,0,0,.13c-.22,4.23-15.47,7.66-34.17,7.66s-34-3.43-34.18-7.66a2.09,2.09,0,0,0,0-.24.86.86,0,0,0,0-.16V627.74C611.85,633,633.43,633.2,636.51,633.2Zm0,35.59c3.07,0,24.64-.2,34.17-5.46v10.14a2.53,2.53,0,0,0,0,.27.62.62,0,0,0,0,.13c-.22,4.23-15.47,7.66-34.17,7.66-4.49,0-8.78-.2-12.71-.56a37.85,37.85,0,0,0-21.47-13.61v-4C611.85,668.59,633.43,668.79,636.51,668.79ZM627,704.21a32.94,32.94,0,1,1-32.94-32.93A33,33,0,0,1,627,704.21Z" transform="translate(-556.28 -610.35)"/><path class="cls-1" d="M568.6,704.21a25.46,25.46,0,1,0,25.45-25.45A25.49,25.49,0,0,0,568.6,704.21Zm47.68,0A22.23,22.23,0,1,1,594.05,682,22.25,22.25,0,0,1,616.28,704.21Z" transform="translate(-556.28 -610.35)"/><path class="cls-1" d="M590.94,688.16v2.73a9,9,0,0,0-3.4,2.23,8.21,8.21,0,0,0-2.2,5.65,7.73,7.73,0,0,0,.64,3.16,8.42,8.42,0,0,0,2.93,3.47,19.39,19.39,0,0,0,4.13,2.12,6.79,6.79,0,0,1,2.27,1.29,1.11,1.11,0,0,1,.27.38,1,1,0,0,1,.07.39.81.81,0,0,1-.31.7,2.52,2.52,0,0,1-1.6.45,6.9,6.9,0,0,1-3.94-1.18l-1-.63a1.58,1.58,0,0,0-1.4-.19,1.63,1.63,0,0,0-1,1l-1.5,4.2a1.59,1.59,0,0,0,.58,1.85l.55.4a10.87,10.87,0,0,0,3.27,1.51q.66.2,1.35.33v2.39a1.61,1.61,0,0,0,1.61,1.61h4.13A1.61,1.61,0,0,0,598,720.4v-2.84a9.2,9.2,0,0,0,3.75-2.56,8.61,8.61,0,0,0,2.11-5.66,9.21,9.21,0,0,0-.5-3.08,8.54,8.54,0,0,0-2.66-3.68,15.74,15.74,0,0,0-4.06-2.31l-.16-.07a11.12,11.12,0,0,1-2.73-1.42,1,1,0,0,1-.21-.24.62.62,0,0,1,0-.21.5.5,0,0,1,.13-.36,2,2,0,0,1,1.29-.32,6.49,6.49,0,0,1,2.14.33,6.78,6.78,0,0,1,1.28.59l.91.52a1.64,1.64,0,0,0,1.35.13,1.61,1.61,0,0,0,1-1l1.57-4.14a1.61,1.61,0,0,0-.69-2l-.65-.38a11.8,11.8,0,0,0-3.58-1.36v-2.27a1.61,1.61,0,0,0-1.62-1.61h-4.08A1.61,1.61,0,0,0,590.94,688.16Zm3.23,3.92v-2.31H595v2a1.61,1.61,0,0,0,1.46,1.61,9,9,0,0,1,3.18.87l-.41,1.09a8.81,8.81,0,0,0-1.13-.46,9.93,9.93,0,0,0-3.17-.5,4.88,4.88,0,0,0-3.52,1.24,3.68,3.68,0,0,0-1.12,2.67,3.57,3.57,0,0,0,.33,1.58,3.72,3.72,0,0,0,1,1.28,13.5,13.5,0,0,0,3.72,2h0a12.56,12.56,0,0,1,3.32,1.85,5.25,5.25,0,0,1,1.67,2.28,5.93,5.93,0,0,1,.32,2,5.37,5.37,0,0,1-1.32,3.54h0a6.41,6.41,0,0,1-3.31,1.92,1.59,1.59,0,0,0-1.23,1.56v2.42h-.91v-2.18a1.6,1.6,0,0,0-1.47-1.61,11.86,11.86,0,0,1-2.2-.42,8.49,8.49,0,0,1-1.84-.75l.4-1.13a10.77,10.77,0,0,0,4.93,1.25,5.4,5.4,0,0,0,3.69-1.2,4.06,4.06,0,0,0,1.47-3.15,4.2,4.2,0,0,0-.33-1.68,4.4,4.4,0,0,0-.94-1.38,10,10,0,0,0-3.38-2,15.5,15.5,0,0,1-3.44-1.75,5.2,5.2,0,0,1-1.86-2.13,4.65,4.65,0,0,1-.36-1.87,4.88,4.88,0,0,1,1.33-3.44,6.09,6.09,0,0,1,3-1.69A1.6,1.6,0,0,0,594.17,692.08Z" transform="translate(-556.28 -610.35)"/></svg>