<svg id="Layer_1" data-name="Layer 1" xmlns="http://www.w3.org/2000/svg" viewBox="0 0 320.23 281.33"><defs><style>.cls-1{fill:#9ea2ba;}.cls-2{fill:#d0d1de;}.cls-3{fill:#fefefe;}.cls-4{fill:#9c9eb9;}.cls-5{fill:#110239;}.cls-6{fill:#01c7e2;}.cls-7{fill:#fd425f;}.cls-8{fill:#fff;}.cls-9{fill:#f88667;}.cls-10{fill:#e5e6ed;}.cls-11{fill:#abadc4;}</style></defs><title>computer-growth</title><rect class="cls-1" x="47.49" y="200.92" width="225.24" height="33.07"/><rect class="cls-2" x="26.12" y="43.9" width="267.99" height="179.64" rx="13.81"/><rect class="cls-3" x="38.46" y="55.8" width="243.31" height="153.98"/><path class="cls-1" d="M190.43,321.17v4.91c0,2.72,3,4.92,6.61,4.92h307c3.65,0,6.61-2.2,6.61-4.92v-4.91Z" transform="translate(-190.43 -49.67)"/><path class="cls-2" d="M350.55,283.28H219.11c-.44.47-21.11,19-27.42,32.71-2.7,5.87-.93,9,4.09,9H505.31c5,0,6.79-3.09,4.09-9-6.31-13.74-27-32.24-27.42-32.71Z" transform="translate(-190.43 -49.67)"/><polygon class="cls-4" points="303.6 268.26 23.54 268.26 42.95 239.53 284.19 239.53 303.6 268.26"/><path class="cls-2" d="M490.62,312.89l-.6-.9H471.33l-3.48-7h17.46l-.61-.9H467.4l-3.48-7H480l-.6-.9H463.47L460,289.2h-1.62l3.47,7.05h-20L439,289.2h-1.62l2.75,7.05h-20L418,289.2h-1.62l2,7.05h-20l-1.37-7.05h-1.62l1.32,7.05h-20l-.65-7.05h-1.62l.6,7.05h-19V289.2h-1.78v7.05H334.64l.6-7.05h-1.62l-.65,7.05H313l1.32-7.05h-1.62l-1.37,7.05h-20l2-7.05H291.7l-2.09,7.05h-20l2.75-7.05h-1.62l-2.8,7.05h-20l3.47-7.05h-1.62l-3.52,7.05H228.61l-.6.9h17.8l-3.48,7h-19l-.61.9h19.19l-3.48,7H218l-.6.9H238l-2.51,5h1.84l2.47-5h21.57l-2,5h1.84l2-5h21.57l-1.49,5H285l1.45-5h21.57l-1,5h1.83l.95-5h21.56l-.47,5h1.84l.43-5h21.1v5h1.78v-5h20.41l.43,5h1.84l-.47-5h21.56l.95,5h1.84l-1-5h21.57l1.46,5h1.84l-1.5-5h21.57l2,5h1.84l-2-5H470l2.47,5h1.84l-2.51-5ZM269.26,297.15h20.09l-2.07,7H266.54Zm-21.77,0h20.09l-2.77,7H244.06ZM261.68,312H240.2l3.42-7h20.83ZM285,312H263.47l2.72-7H287Zm23.28,0H286.75l2-7h20.83Zm1.53-7.87H289l2-7h20.09ZM331.51,312H310l1.3-7h20.83Zm.73-7.87H311.49l1.3-7h20.1ZM354.32,312h-21l.59-7h20.43Zm0-7.87H334l.59-7h19.76Zm1.78-7h19.07l.59,7H356.1Zm0,14.84v-7h19.74l.59,7Zm106.14-14.84,3.43,7H444.92l-2.77-7Zm-21.77,0,2.72,7H422.45l-2.07-7Zm-63.63,0h20.1l1.3,7H377.49ZM378.22,312l-.64-7h20.83l1.3,7Zm20.39-14.84H418.7l2,7H400ZM401.5,312l-1.36-7H421l2,7Zm23.28,0-2.07-7h20.83l2.72,7Zm23.27,0-2.77-7h20.83l3.42,7Z" transform="translate(-190.43 -49.67)"/><path class="cls-5" d="M350.55,325H336.94a2.85,2.85,0,0,0,.68,1.88,1.52,1.52,0,0,0,1,.38h23.79a1.51,1.51,0,0,0,1-.38,2.85,2.85,0,0,0,.68-1.88Z" transform="translate(-190.43 -49.67)"/><rect class="cls-3" x="38.46" y="55.81" width="243.29" height="153.97"/><polygon class="cls-6" points="164.62 134.35 142.67 144.12 114.9 116.35 38.46 174.6 38.46 209.78 281.75 209.78 281.75 28.86 180.1 151.87 164.62 134.35"/><rect class="cls-3" x="86.44" y="162.78" width="7.77" height="5.89"/><rect class="cls-3" x="97.38" y="162.78" width="7.77" height="5.89"/><rect class="cls-7" x="108.33" y="162.78" width="7.76" height="5.89"/><rect class="cls-3" x="119.28" y="162.78" width="7.77" height="5.89"/><rect class="cls-3" x="130.23" y="162.78" width="7.77" height="5.89"/><rect class="cls-7" x="141.18" y="162.78" width="7.77" height="5.89"/><rect class="cls-3" x="86.44" y="172.83" width="7.77" height="5.89"/><rect class="cls-3" x="97.38" y="172.83" width="7.77" height="5.89"/><rect class="cls-3" x="108.33" y="172.83" width="7.76" height="5.89"/><rect class="cls-3" x="119.28" y="172.83" width="7.77" height="5.89"/><rect class="cls-7" x="130.23" y="172.83" width="7.77" height="5.89"/><rect class="cls-3" x="141.18" y="172.83" width="7.77" height="5.89"/><rect class="cls-3" x="86.44" y="182.89" width="7.77" height="5.89"/><rect class="cls-7" x="97.38" y="182.89" width="7.77" height="5.89"/><rect class="cls-3" x="108.33" y="182.89" width="7.76" height="5.89"/><rect class="cls-3" x="119.28" y="182.89" width="7.77" height="5.89"/><rect class="cls-3" x="130.23" y="182.89" width="7.77" height="5.89"/><rect class="cls-3" x="141.18" y="182.89" width="7.77" height="5.89"/><rect class="cls-3" x="86.44" y="192.94" width="7.77" height="5.89"/><rect class="cls-3" x="97.38" y="192.94" width="7.77" height="5.89"/><rect class="cls-7" x="108.33" y="192.94" width="7.76" height="5.89"/><rect class="cls-3" x="119.28" y="192.94" width="7.77" height="5.89"/><polygon class="cls-8" points="167.25 146.13 166.47 145.36 165.48 145.77 164.86 144.25 166.8 143.43 168.34 144.95 167.25 146.13"/><path class="cls-8" d="M340,202.14l-.62-1.54,2.66-1.11.63,1.53Zm5.32-2.24-.62-1.53,2.66-1.12.62,1.53Zm5.31-2.24-.62-1.52,2.65-1.12.62,1.53Z" transform="translate(-190.43 -49.67)"/><polygon class="cls-8" points="144.96 154.4 143.35 152.99 144.38 151.74 145.24 152.49 146.27 152.06 146.89 153.59 144.96 154.4"/><path class="cls-8" d="M331.43,200.61l-2.35-2.06,1-1.25,2.35,2Zm-4.71-4.12-2.35-2.05,1-1.25,2.35,2.05ZM322,192.38l-2.35-2.06,1-1.24,2.35,2Zm-4.71-4.11-2.36-2.06,1-1.25,2.35,2.06Zm-4.71-4.12-2.36-2.05,1-1.25,2.35,2.06Z" transform="translate(-190.43 -49.67)"/><polygon class="cls-8" points="117.44 130.37 116.68 129.71 115.86 130.28 114.94 128.92 116.77 127.63 118.48 129.13 117.44 130.37"/><path class="cls-8" d="M234.37,230.47l-.94-1.4,2.83-2,.94,1.39Zm5.66-4-.95-1.39,2.82-2,.94,1.39Zm5.63-4-.95-1.39,2.82-2,.94,1.39Zm5.61-3.94-.94-1.39,2.8-2,.94,1.38Zm5.59-3.93-.94-1.38,2.79-2,.94,1.38Zm5.58-3.91-.94-1.39,2.77-1.94,1,1.38Zm5.55-3.9-.94-1.38,2.77-1.95.94,1.38Zm5.53-3.89-.94-1.38,2.76-1.93.94,1.37ZM279,199.1l-.93-1.37,2.74-1.93.94,1.37Zm5.5-3.86-.94-1.37,2.74-1.92.94,1.37ZM290,191.4l-.94-1.37,2.73-1.92.94,1.37Zm5.45-3.83-.93-1.37,2.72-1.91.93,1.37Zm5.44-3.82-.93-1.36,2.7-1.91.94,1.37Z" transform="translate(-190.43 -49.67)"/><path class="cls-8" d="M376.57,206.52l-1.19-1.11,2.08-2.43,1.2,1.11Zm4.17-4.85-1.19-1.11,2.08-2.42,1.19,1.11Zm4.15-4.84-1.19-1.11,2.07-2.41,1.19,1.11ZM389,192l-1.19-1.11,2.07-2.4,1.18,1.1Zm4.12-4.81L392,186.1l2.06-2.4,1.18,1.11Zm4.11-4.79-1.18-1.1,2.05-2.38,1.18,1.1Zm4.1-4.77-1.18-1.1,2-2.37,1.18,1.09Zm4.08-4.75-1.18-1.1,2-2.37,1.17,1.1Zm4.07-4.74-1.18-1.09,2-2.36,1.17,1.09Zm4.05-4.72-1.18-1.09,2-2.36,1.18,1.09Zm4-4.7-1.18-1.09,2-2.35,1.17,1.09Zm4-4.69L420.45,153l2-2.34,1.17,1.09Zm4-4.68-1.17-1.08,2-2.33,1.17,1.08Zm4-4.65-1.17-1.09,2-2.32,1.17,1.08Zm4-4.64L432.45,139l2-2.31,1.16,1.09Zm4-4.63-1.16-1.08,2-2.3,1.16,1.08Zm4-4.6-1.16-1.09,2-2.29,1.16,1.08Zm3.94-4.6-1.16-1.08,2-2.29,1.15,1.08Zm3.93-4.57-1.16-1.08,2-2.28,1.16,1.07Zm3.91-4.57L452.17,116l1.95-2.27,1.15,1.07Zm3.9-4.54-1.15-1.07,1.95-2.27,1.15,1.07Zm3.89-4.53L460,107l1.94-2.26,1.15,1.07Zm3.62-4.29-1.15-1.08,1.94-2.25,1.15,1.07Zm3.62-4.29-1.15-1.08,1.94-2.25,1.15,1.07Z" transform="translate(-190.43 -49.67)"/><polygon class="cls-8" points="182.47 161.13 180.7 159.39 181.78 158.21 182.35 158.77 182.85 158.18 184.05 159.29 182.47 161.13"/><path class="cls-8" d="M368.45,206.41l-2.69-2.66,1.08-1.18,2.69,2.66Zm-5.39-5.31-2.69-2.65,1.09-1.18,2.69,2.65Z" transform="translate(-190.43 -49.67)"/><path class="cls-7" d="M465.72,60.55,370.88,180.77l-15.35-18.52-22.46,10.66-28.53-30.45L228.89,204v7.39l75.37-61.27,28.11,30,22.33-10.6,16.24,19.6L469.36,64.32A38,38,0,0,1,465.72,60.55Z" transform="translate(-190.43 -49.67)"/><polygon class="cls-7" points="289.98 0 267.6 7.58 282.4 22.38 289.98 0"/><path class="cls-7" d="M258.17,125.08c5.06.38,9.67,2.54,9.7,7.6l-8.43,0c-.05-1.92-2-2.31-3.25-2.31-.77,0-3.27,0-3.27,1.57,0,3.46,15.53-.23,15.59,9.56,0,5.88-4.55,8.09-10.19,8.53l.4,6.24-5.15,0,.28-6.29c-5.24-.52-10.13-2.95-10.16-8.23l8.43-.05V142c.06,2.32,2.66,2.76,4,2.75s3.78-.11,3.77-1.79c0-3.6-15.54-.23-15.59-9.7,0-5.47,4.19-7.59,9.43-8.08l-.36-6.28,5.15,0Z" transform="translate(-190.43 -49.67)"/><path class="cls-5" d="M386.7,294.49s.35,6.85-.64,7.86-14.56,2.5-15.83,1.35-.75-3.31,2.1-4.35c3.07-1.12,4.67-.39,6.56-1.36s1.14-4,1.14-4Z" transform="translate(-190.43 -49.67)"/><path class="cls-5" d="M431.17,294.49s-.35,6.85.65,7.86,14.56,2.5,15.83,1.35.74-3.31-2.11-4.35c-3.06-1.12-4.66-.39-6.56-1.36s-1.13-4-1.13-4Z" transform="translate(-190.43 -49.67)"/><path class="cls-7" d="M431.92,254.87c-1.48-7.47-9.43-27.83-12.38-34.9-1.18-.4-2.48-.79-3.79-1.17.34-1.59.57-3,.83-4.16-2.31.61-4.76.91-7.24,1.7l-1.1.33-1.11-.33c-2.48-.79-4.93-1.09-7.23-1.7.25,1.2.48,2.57.83,4.16-1.32.38-2.61.77-3.8,1.17C394,227,386,247.4,384.56,254.87c-2.05,10.32-5.47,40.93-5.47,40.93l8.73,1.15s8.76-41.12,10-43.4c2.25-4.09,4.61-7.7,6.71-10.9a4.42,4.42,0,0,1,7.4,0c2.1,3.2,4.46,6.81,6.7,10.9,1.25,2.28,10,43.4,10,43.4l8.73-1.15S434,265.19,431.92,254.87Z" transform="translate(-190.43 -49.67)"/><path class="cls-9" d="M434.32,127.63c-.51-3.55-1-4.1-2.23-4.79a4.57,4.57,0,0,1-1.5-1.13,10.59,10.59,0,0,0-1.59-1.45,3.75,3.75,0,0,1-1.42-1.58c-.28-.85.83-.62,1.55-.36s2.26,2.44,3.09,2.15-1.12-2.81-1.52-3.31c-.93-1.17-2-1-3.29-1.55-.72-.31-1-.68-.17-1.14a2.35,2.35,0,0,1,1.92.13,8.12,8.12,0,0,1,3.35,2.09,9.58,9.58,0,0,0-2.92-2.27c-.63-.32-3.55-1.22-3.13-2.25.83-2.07,6.51,1.84,7.13,2.93a11.25,11.25,0,0,0-2.8-2.47c-.6-.42-2.06-1.38-.83-1.87,1.81-.73,4,2.64,5.25,4a12.43,12.43,0,0,0-2.11-2.85c-1-1.22.24-1.53,1.48-.46a18.16,18.16,0,0,1,1.6,1.75c2,2.5,2.05,4.17,2.4,7.21.13,1.1.16,2.88.52,6.06C439.3,128.28,435.85,127.33,434.32,127.63Z" transform="translate(-190.43 -49.67)"/><path class="cls-9" d="M349.39,177.14c-3.36-1.25-3.77-2.6-4.19-3.91a4.68,4.68,0,0,0-.78-1.71,9.64,9.64,0,0,1-1.08-1.86,3.94,3.94,0,0,0-1.24-1.73c-.77-.45-.79.69-.68,1.45s1.9,2.72,1.43,3.47-2.51-1.7-2.9-2.19c-.94-1.16-.55-2.21-.81-3.54-.16-.78-.46-1.09-1.09-.42a2.39,2.39,0,0,0-.27,1.91,8,8,0,0,0,1.32,3.72,9.54,9.54,0,0,1-1.59-3.34c-.18-.69-.43-3.73-1.53-3.54-2.21.37.4,6.75,1.34,7.59a11.2,11.2,0,0,1-1.82-3.26c-.29-.68-.9-2.31-1.65-1.22-1.1,1.62,1.72,4.48,2.75,6a13.29,13.29,0,0,1-2.33-2.68c-1-1.23-1.54-.09-.76,1.35a16.09,16.09,0,0,0,1.37,1.94c2,2.46,3.63,2.9,6.53,3.89a28,28,0,0,1,5.58,2.11C348.65,182,348.77,178.58,349.39,177.14Z" transform="translate(-190.43 -49.67)"/><path class="cls-9" d="M412.54,170.51a20.89,20.89,0,0,1-5.72.27,8.4,8.4,0,0,1-2-.42c.09,2.37.09,7.89-1.59,10.16,0,0,.6,2.66,5.45,2.73s5.47-2.73,5.47-2.73A24.64,24.64,0,0,1,412.54,170.51Z" transform="translate(-190.43 -49.67)"/><path class="cls-10" d="M431.24,184c-1.33-1.69-7.61-5.41-11.87-6.08a66.41,66.41,0,0,0-20.87,0c-4.25.67-8.49,1.75-9.81,3.44-1.66,2.12,3.3,14,4.13,24.9.69,9,1.92,16,1.92,16,2.72,5,24,5.15,26.77.14,0,0,.51-7.73,2-16.16C425.42,195.23,432.92,186.1,431.24,184Z" transform="translate(-190.43 -49.67)"/><path class="cls-11" d="M397,203.7c.13-2.94,1.1-8.19,0-10.88-1.54-3.85-5-5.29-8.26-7,1,4.92,3.49,12.88,4.06,20.43.69,9,1.92,16,1.92,16a5.9,5.9,0,0,0,3.23,2.25C394.94,218.68,396.73,209.42,397,203.7Z" transform="translate(-190.43 -49.67)"/><path class="cls-9" d="M419.09,157.27s-10.08-5.92-11.6-4.47-3.92,6.42-5.08,7.17-3,1.48-2.8,2.37.74.95.7,1.84-2.09,5.2-1,6.47,8.43,4.06,12.83,1.13S424.05,159.92,419.09,157.27Z" transform="translate(-190.43 -49.67)"/><path class="cls-5" d="M421.31,159.45l-8.49.13a17.31,17.31,0,0,1-5.21,6.89s.2,1.25,1.11,1a2.84,2.84,0,0,0,2.07-1.31c.61-1,2.44-3.43,3.68-1.26s-1.41,2.92-2.53,2.9c0,0-3.86,4.68-.86,5.56,0,0,3.36-.5,8.46-5.91S423.59,159,421.31,159.45Z" transform="translate(-190.43 -49.67)"/><path class="cls-5" d="M405.26,149.53s-4.12,2.51.65,7.52,16,2.38,16,2.38,1.19-3.27-2.87-6.7c-3-2.57-6.37-3.87-9-2.64C405.47,152.18,405.26,149.53,405.26,149.53Z" transform="translate(-190.43 -49.67)"/><path class="cls-10" d="M348.28,175.54l-3.61,5.74a163.73,163.73,0,0,0,19.95,16c6.21,4.12,27.48-2.47,30.76-3.45,4.7-1.41,8.23-11.35.39-15-4.58-2.16-23,11.82-27.5,9.46C362.62,185.26,348.28,175.54,348.28,175.54Z" transform="translate(-190.43 -49.67)"/><path class="cls-10" d="M432.76,126.14l7.16-1.2s4.73,20.67,4.45,28.12-12.12,34.5-14.82,36.62c-3.25,2.54-12.25-4.81-5.73-12.73s10.75-24.22,10.93-24.89S432.76,126.14,432.76,126.14Z" transform="translate(-190.43 -49.67)"/><rect class="cls-2" x="94.29" y="64.68" width="57.75" height="5.19"/><rect class="cls-2" x="94.29" y="72.88" width="57.75" height="5.19"/><rect class="cls-2" x="94.29" y="81.09" width="43.71" height="5.19"/></svg>