<svg xmlns="http://www.w3.org/2000/svg" viewBox="0 0 418.13 371.26"><defs><style>.cls-1,.cls-5{fill:#d1c7ff;}.cls-1{opacity:0.46;}.cls-2{fill:#adc4a9;opacity:0.51;}.cls-3{fill:#aca7c4;}.cls-4{fill:#5d41d4;}.cls-6{fill:#ab96ff;}.cls-7{opacity:0.19;}.cls-8{fill:#330ec9;}.cls-9{fill:#4929cf;}.cls-10{fill:#fff;}.cls-11{fill:#24004d;}.cls-12{fill:#310f57;}.cls-13{fill:#fbd437;}.cls-14{fill:#401671;}.cls-15{fill:#fe9b88;}.cls-16{fill:#fe8d77;}.cls-17{opacity:0.15;}</style></defs><title>designer-guy</title><g id="BACKGROUND"><path class="cls-1" d="M355.07,77.09C415.44,107.2,461.36,162.26,459,233c-.6,17.7-8,35.8-22.37,46.15-17.46,12.59-40.79,11.63-62.09,14.7-66.91,9.66-119.86,61.91-184.37,82.11-26.2,8.2-55.14,10.81-80.86,1.2-31.6-11.82-54.68-41.34-63.56-73.89C32,252.75,49.67,196.46,75.7,152.74c24.47-41.1,63-74,108.05-90.35C236.44,43.28,301.45,50.35,355.07,77.09Z" transform="translate(-40.94 -51.59)"/><ellipse class="cls-2" cx="209.06" cy="357.33" rx="209.05" ry="13.93"/></g><g id="OBJECTS"><rect class="cls-3" x="136.65" y="144.8" width="37.99" height="28.35"/><rect class="cls-4" x="121.05" y="173.15" width="69.18" height="5.3"/><rect class="cls-5" x="142.5" y="144.8" width="37.99" height="28.35"/><rect class="cls-6" x="126.9" y="173.15" width="69.18" height="5.3"/><g class="cls-7"><rect x="136.54" y="156.23" width="43.95" height="5.49"/></g><rect class="cls-8" x="71.99" y="44.86" width="164.08" height="112.18" rx="6.42"/><path class="cls-3" d="M277,186.68v15.54a6.42,6.42,0,0,1-6.42,6.41H119.34a6.41,6.41,0,0,1-6.41-6.41V186.68Z" transform="translate(-40.94 -51.59)"/><rect class="cls-9" x="76.53" y="44.86" width="164.08" height="112.18" rx="6.42"/><rect class="cls-10" x="83" y="50.16" width="151.03" height="85.02"/><rect class="cls-11" x="83" y="50.17" width="151.27" height="10.2"/><circle class="cls-9" cx="95.25" cy="55.27" r="2.14"/><rect class="cls-12" x="202.05" y="60.37" width="32.22" height="74.71"/><path class="cls-9" d="M269.6,108.8a.46.46,0,0,1-.33-.13l-3-3a.47.47,0,1,1,.66-.66l3,3a.48.48,0,0,1,0,.67A.46.46,0,0,1,269.6,108.8Z" transform="translate(-40.94 -51.59)"/><path class="cls-9" d="M266.64,108.8a.46.46,0,0,1-.33-.13.48.48,0,0,1,0-.67l3-3a.47.47,0,1,1,.66.66l-3,3A.46.46,0,0,1,266.64,108.8Z" transform="translate(-40.94 -51.59)"/><rect class="cls-11" x="207.4" y="66.12" width="21.26" height="11.28"/><rect class="cls-11" x="207.67" y="122.22" width="21.26" height="5.64"/><rect class="cls-9" x="207.4" y="106.43" width="21.26" height="11.28"/><rect class="cls-11" x="207.4" y="81.91" width="21.26" height="20.01"/><circle class="cls-9" cx="133.22" cy="88.7" r="20.14"/><polygon class="cls-13" points="180.85 123.85 153.36 68.87 125.87 123.85 180.85 123.85"/><path class="cls-6" d="M194.3,140.29a20.08,20.08,0,0,0-3.94-12l-16.05,32.09A20.14,20.14,0,0,0,194.3,140.29Z" transform="translate(-40.94 -51.59)"/><rect class="cls-14" x="152.31" y="116.44" width="3.29" height="3.29" transform="translate(-79.34 91.86) rotate(-45)"/><rect class="cls-14" x="152.31" y="138.55" width="3.29" height="3.29" transform="translate(-94.98 98.34) rotate(-45)"/><rect class="cls-14" x="152.31" y="160.66" width="3.29" height="3.29" transform="translate(-110.61 104.81) rotate(-45)"/><path class="cls-14" d="M154,161.7a.64.64,0,0,1-.64-.65V119.52a.64.64,0,0,1,.64-.64.65.65,0,0,1,.65.64v41.53A.65.65,0,0,1,154,161.7Z" transform="translate(-40.94 -51.59)"/><rect class="cls-9" x="178.5" y="66.47" width="8.82" height="8.82"/><rect class="cls-13" x="188.94" y="66.47" width="8.82" height="8.82"/><rect class="cls-13" x="178.5" y="77.22" width="8.82" height="8.82"/><rect class="cls-9" x="188.94" y="77.22" width="8.82" height="8.82"/><rect class="cls-9" x="178.5" y="87.96" width="8.82" height="8.82"/><rect class="cls-13" x="188.94" y="87.96" width="8.82" height="8.82"/><path class="cls-9" d="M263.85,108.83h-3.94v-3.94h3.94Zm-3-.94h2.06v-2.06h-2.06Z" transform="translate(-40.94 -51.59)"/><rect class="cls-11" x="176.32" y="98.78" width="23.11" height="3.14"/><rect class="cls-11" x="83" y="129.98" width="151.27" height="5.1"/><rect class="cls-12" x="88.48" y="66.12" width="13.54" height="57.73"/><path class="cls-5" d="M281.55,186.68v15.54a6.42,6.42,0,0,1-6.42,6.41H123.88a6.41,6.41,0,0,1-6.41-6.41V186.68Z" transform="translate(-40.94 -51.59)"/><path class="cls-3" d="M203.53,197.16a4.08,4.08,0,1,1-4.08-4.08A4.08,4.08,0,0,1,203.53,197.16Z" transform="translate(-40.94 -51.59)"/><rect class="cls-9" x="173.79" y="247.66" width="72.15" height="8.67" transform="translate(378.8 452.4) rotate(180)"/><rect class="cls-8" x="150.4" y="247.66" width="23.4" height="8.67" transform="translate(283.26 452.4) rotate(180)"/><rect class="cls-5" x="150.4" y="249.88" width="19.24" height="4" transform="translate(279.1 452.18) rotate(180)"/><rect class="cls-6" x="173.79" y="238.85" width="72.15" height="8.67" transform="translate(378.8 434.79) rotate(180)"/><rect class="cls-4" x="150.4" y="238.85" width="23.4" height="8.67" transform="translate(283.26 434.79) rotate(180)"/><rect class="cls-5" x="150.4" y="241.08" width="19.24" height="4" transform="translate(279.1 434.57) rotate(180)"/><rect class="cls-9" x="173.79" y="230.05" width="72.15" height="8.67" transform="translate(378.8 417.17) rotate(180)"/><rect class="cls-8" x="150.4" y="230.05" width="23.4" height="8.67" transform="translate(283.26 417.17) rotate(180)"/><rect class="cls-5" x="150.4" y="232.27" width="19.24" height="4" transform="translate(279.1 416.95) rotate(180)"/><rect class="cls-14" x="228.32" y="252.95" width="72.1" height="3.28" transform="translate(487.8 457.59) rotate(180)"/><path class="cls-14" d="M262.91,247.53h2.91v-26.6a1.45,1.45,0,0,0-1.45-1.46h0a1.46,1.46,0,0,0-1.46,1.46Z" transform="translate(-40.94 -51.59)"/><rect class="cls-14" x="142.5" y="198.66" width="60.94" height="5.98"/><path class="cls-15" d="M289.81,385.77l7.54-6.09-14.83-22.77-11.06,8.93,12.86,19.35A3.9,3.9,0,0,0,289.81,385.77Z" transform="translate(-40.94 -51.59)"/><path class="cls-11" d="M284.5,373.21h12.95a0,0,0,0,1,0,0v2a4.75,4.75,0,0,1-4.75,4.75h-3.45a4.75,4.75,0,0,1-4.75-4.75v-2A0,0,0,0,1,284.5,373.21Z" transform="translate(714.13 430.34) rotate(140.48)"/><path class="cls-12" d="M276.43,391h0L294,376.82a4.26,4.26,0,0,1,6,.64l6.72,8.32-20.92,16.9-8,6.44-3-3.68A10.25,10.25,0,0,1,276.43,391Z" transform="translate(-40.94 -51.59)"/><path class="cls-11" d="M282.92,385.85v-.05l.57-.46h0l13.88-11.2,9.4,11.64L292.89,397l-7.05,5.69-.92.74-3-3.67A10.23,10.23,0,0,1,282.92,385.85Z" transform="translate(-40.94 -51.59)"/><path class="cls-11" d="M271.38,376.06,241,327.9c-8.34-14.68-5.2-24.63-1.09-30.39,6.73-9.46,20.52-13.72,42.17-13.05a195.22,195.22,0,0,1,26.24,2.75l-4.44,24a174.21,174.21,0,0,0-21.4-2.31c-13.63-.55-20.07,1.32-22.17,2.48a16.86,16.86,0,0,0,1.79,4.22L292,363Z" transform="translate(-40.94 -51.59)"/><path class="cls-15" d="M215,398.46l9.69,0,5.12-27.05-14.22.08-4.52,23.14A3.9,3.9,0,0,0,215,398.46Z" transform="translate(-40.94 -51.59)"/><path class="cls-11" d="M215.31,388.63h12.83a0,0,0,0,1,0,0v4.14a2.6,2.6,0,0,1-2.6,2.6h-7.64a2.6,2.6,0,0,1-2.6-2.6v-4.14A0,0,0,0,1,215.31,388.63Z" transform="translate(408.77 728.8) rotate(179.08)"/><path class="cls-12" d="M201.28,394.23h0l22.63-.13a4.27,4.27,0,0,1,4.29,4.24l.06,10.7-26.9.15-10.24.06,0-4.72A10.24,10.24,0,0,1,201.28,394.23Z" transform="translate(-40.94 -51.59)"/><path class="cls-11" d="M209.58,394.22l0,0h.74l17.83-.1.09,15-17.83.1-9.07.05h-1.18l0-4.72A10.23,10.23,0,0,1,209.58,394.22Z" transform="translate(-40.94 -51.59)"/><path class="cls-12" d="M232.43,386.75l-24.14-3.68,9.45-61.95a42,42,0,0,1,43.63-35.78c12.86-.16,41.92-.52,43.87-.46l-.79,24.41h.11c-2.06,0-27.64.28-43.26.48h-.43l-.43,0a17.7,17.7,0,0,0-18.56,15.05Z" transform="translate(-40.94 -51.59)"/><path class="cls-14" d="M372.6,261.25,328.51,409h6.22l.12-.42,10-33.35h61.81L416.7,409h6.23l-.23-.75-43.87-147,.7-2.34h-7.62l.22.75Zm3.12,10.42,28.73,96.26H347Z" transform="translate(-40.94 -51.59)"/><path class="cls-14" d="M77.07,409H83.3l.12-.42,10-33.35h61.81L165.27,409h6.22l-.22-.75-43.87-147,.69-2.34h-7.62l.23.75.47,1.59Zm18.48-41,28.73-96.26L153,367.93Z" transform="translate(-40.94 -51.59)"/><rect class="cls-9" x="77.07" y="256.44" width="345.85" height="6.1" transform="translate(459.06 467.39) rotate(180)"/><path class="cls-16" d="M290.06,147.24H293V133.71l-2.83,2c-.87,1.31-1.73,2.62-2.63,3.92a7.61,7.61,0,0,0-1.44,3.17,4,4,0,0,0,3.58,4.46Z" transform="translate(-40.94 -51.59)"/><path class="cls-15" d="M300.43,170.73H314.9v-50.1H288.57c-.45,0,.64,33.39,1,36.45C290.36,163.21,293,170.73,300.43,170.73Z" transform="translate(-40.94 -51.59)"/><rect class="cls-15" x="306.25" y="141.37" width="22.89" height="44.54" transform="translate(633.01 140.3) rotate(157.28)"/><path class="cls-15" d="M316,170.63h0a20.71,20.71,0,0,0,20.71-20.7v-2.69H316Z" transform="translate(-40.94 -51.59)"/><path class="cls-16" d="M308.21,170.62l.83-1.14a2,2,0,0,1,3.64.75c1.05,4.73,2.4,12,1.58,14.84Z" transform="translate(-40.94 -51.59)"/><path class="cls-15" d="M295.77,170.73h7.71a1.26,1.26,0,0,0,1.26-1.27V153.37a1.26,1.26,0,0,0-1.26-1.27l-9-1.46c-6,0-9,7.43-7.88,12.48A9.39,9.39,0,0,0,295.77,170.73Z" transform="translate(-40.94 -51.59)"/><g class="cls-17"><path class="cls-10" d="M289.34,153c-.47-9.7-1.14-32.36-.77-32.36H314.9v.55H290.79c-.37,0,.31,22.66.77,32.36a11.89,11.89,0,0,0-2.69,10.13,9.69,9.69,0,0,0,5.8,7,9.45,9.45,0,0,1-8-7.54A11.86,11.86,0,0,1,289.34,153Z" transform="translate(-40.94 -51.59)"/></g><path class="cls-12" d="M315.72,163.64h17.69a10.09,10.09,0,0,0,10.09-10.09l1.88-32.07a10.1,10.1,0,0,0-10.09-10.1H313.85c-5.57,0-11.84,4.52-11.84,10.1l3.62,32.07A10.09,10.09,0,0,0,315.72,163.64Z" transform="translate(-40.94 -51.59)"/><path class="cls-12" d="M295.54,125.57H334v-16.5a10.77,10.77,0,0,0-10.77-10.76H295.54a13.63,13.63,0,0,0-13.63,13.63h0A13.63,13.63,0,0,0,295.54,125.57Z" transform="translate(-40.94 -51.59)"/><path class="cls-12" d="M327.24,119.27h0A2.66,2.66,0,0,0,331,119l8.15-9.18a2.66,2.66,0,0,0-.23-3.75h0a2.65,2.65,0,0,0-3.75.22L327,115.52A2.66,2.66,0,0,0,327.24,119.27Z" transform="translate(-40.94 -51.59)"/><rect class="cls-15" x="298.75" y="133.26" width="12.07" height="13.97" rx="5.25" transform="translate(568.64 228.91) rotate(180)"/><path class="cls-16" d="M305.08,146.34a.94.94,0,1,1,0-1.87c.67,0,1.93,0,1.93-2.9v-2.64c0-2.9-1.46-2.9-1.93-2.9a.94.94,0,1,1,0-1.87c2.38,0,3.8,1.78,3.8,4.77v2.64C308.88,145.72,306.5,146.34,305.08,146.34Z" transform="translate(-40.94 -51.59)"/><path class="cls-12" d="M300.54,141.5h0a3.71,3.71,0,0,0,3.71-3.71V118.4h-7.42v19.39A3.71,3.71,0,0,0,300.54,141.5Z" transform="translate(-40.94 -51.59)"/><g class="cls-17"><path class="cls-10" d="M295.54,98.31h5.18a13.63,13.63,0,0,0-13.63,13.63h0a13.63,13.63,0,0,0,13.63,13.63H302v5.37c0,.15,0,.3,0,.45-.05,3.27-5,3.43-5.15.17,0-.2,0-.41,0-.62v-5.37h-1.29a13.63,13.63,0,0,1-13.63-13.63h0A13.63,13.63,0,0,1,295.54,98.31Z" transform="translate(-40.94 -51.59)"/></g><rect class="cls-12" x="287" y="128.99" width="3.1" height="1.76" rx="0.88" transform="translate(536.16 208.15) rotate(180)"/><path class="cls-16" d="M290.58,254.82c-9,0-18.35-2.77-25.18-7.83a5.72,5.72,0,0,0-1.36-.7h0a7.5,7.5,0,0,1-5.51-13.95,16.79,16.79,0,0,1,15.8,2.6c6.07,4.49,16.11,6.16,23.36,3.87,3.81-1.2,6.23-3.29,7.21-6.22a7.5,7.5,0,0,1,14.23,4.76c-2.52,7.52-8.53,13.12-16.93,15.77A38.75,38.75,0,0,1,290.58,254.82Z" transform="translate(-40.94 -51.59)"/><path class="cls-15" d="M266,261.57a27.87,27.87,0,0,1-10.33-2.07c-2.5-1-5-1.91-7.68-2.87a149.63,149.63,0,0,1-15.86-6.46,23.61,23.61,0,0,0-4.74-.1,9.94,9.94,0,0,1-4.47-.52A7.56,7.56,0,0,1,226.29,235l.53,0c3.91-.15,8.37-.16,11.83,1.57a135.53,135.53,0,0,0,14.49,5.89c2.65,1,5.4,2,8.11,3,12.11,4.81,19.43-10.39,20.78-13.49,4.89-11.27,8.79-22,13.31-34.41l.59-1.63a7.56,7.56,0,0,1,14.21,5.17l-.6,1.62c-4.6,12.65-8.57,23.58-13.65,35.27C290.34,250.77,279.49,261.57,266,261.57Zm-37.53-26.08h0Zm0,0h0Z" transform="translate(-40.94 -51.59)"/><path class="cls-13" d="M298.68,238.84l-19.44-7.74c.09-.23,9.31-23.4,14-36.18l19.67,7.16C308.11,215.16,299.07,237.88,298.68,238.84Z" transform="translate(-40.94 -51.59)"/><path class="cls-13" d="M301.13,292.51l71.4-1.58-7.7-96.17a21,21,0,0,0-22.6-19.25l-30.37,2.43a21,21,0,0,0-19.26,22.6Z" transform="translate(-40.94 -51.59)"/><rect class="cls-9" x="310.29" y="327.8" width="6.08" height="81.11" transform="translate(585.45 685.36) rotate(-179.96)"/><path class="cls-6" d="M256.46,327.76l108.33.08,8.27-1.65,3.21-18.68-105.5-.08a14.29,14.29,0,0,0-14.3,14.28Z" transform="translate(-40.94 -51.59)"/><path class="cls-6" d="M296.68,309.07l74.57.06,15.58-89.61-58.64-.05a18.94,18.94,0,0,0-18.66,15.69Z" transform="translate(-40.94 -51.59)"/><polygon class="cls-9" points="271.08 257.49 345.65 257.55 361.23 167.94 286.65 167.88 271.08 257.49"/><polygon class="cls-6" points="283.2 357.33 277.05 357.32 261.61 267.69 267.76 267.69 283.2 357.33"/><polygon class="cls-6" points="335.25 357.37 329.1 357.37 313.66 267.73 319.82 267.74 335.25 357.37"/><path class="cls-9" d="M386.76,307.52l-.82,4.79a18.71,18.71,0,0,1-18.45,15.53l-95.06-.07,3.49-20.33Z" transform="translate(-40.94 -51.59)"/><rect class="cls-9" x="256.43" y="327.76" width="6.08" height="81.11" transform="translate(477.72 685.24) rotate(-179.96)"/><path class="cls-5" d="M282.37,319.26h0a3,3,0,0,0,3.05-3v-25.4h-6.08l0,25.41A3,3,0,0,0,282.37,319.26Z" transform="translate(-40.94 -51.59)"/><path class="cls-6" d="M282.39,299.85h0a16.14,16.14,0,0,0,16.15-16.12v-1.94l-32.28,0v1.93A16.13,16.13,0,0,0,282.39,299.85Z" transform="translate(-40.94 -51.59)"/><path class="cls-9" d="M268.39,286.7h28a4.58,4.58,0,0,0,4.58-4.58h0a4.58,4.58,0,0,0-4.58-4.59h-28a4.58,4.58,0,0,0-4.58,4.59h0A4.58,4.58,0,0,0,268.39,286.7Z" transform="translate(-40.94 -51.59)"/><polygon class="cls-11" points="62.68 174 81.3 174 80.23 170.07 63.76 170.07 62.68 174"/><polygon class="cls-5" points="64.74 204.75 79.24 204.75 82.82 176.65 61.16 176.65 64.74 204.75"/><polygon class="cls-3" points="82.95 182.34 81.17 196.3 62.81 196.3 61.04 182.34 82.95 182.34"/><rect class="cls-12" x="101.62" y="225.12" width="22.62" height="3.94" transform="translate(184.92 402.58) rotate(180)"/></g></svg>