<svg xmlns="http://www.w3.org/2000/svg" viewBox="0 0 361.83 363.25"><defs><style>.cls-1{isolation:isolate;}.cls-2{fill:#b3dcff;}.cls-3{fill:#484e7d;}.cls-4{fill:#eea886;}.cls-5{fill:#5b639e;}.cls-6{fill:#292c47;}.cls-7{fill:#ff7e55;}.cls-8{fill:#323657;}.cls-9{fill:#807066;}.cls-10{fill:#d88a51;}.cls-11{fill:#a77860;}.cls-12{fill:#d6c5bf;}.cls-13{fill:#869135;}.cls-14{fill:#48753a;}.cls-15{fill:#78c2ff;}.cls-16{fill:#d6d6d6;}.cls-17{fill:#e8e8e8;}.cls-18{fill:#c2c2c2;}.cls-19{fill:#e3f2ff;}.cls-20{fill:#4da8f2;}.cls-21{opacity:0.83;}.cls-22{fill:#e0f1ff;}.cls-23{fill:#1a598c;}.cls-24{fill:#2273b5;}.cls-25,.cls-33{opacity:0.78;}.cls-26{fill:#5377b3;}.cls-27{fill:#5b83c2;}.cls-28{fill:#2f4563;}.cls-29{fill:#354c70;}.cls-30{fill:#2b3b57;}.cls-31{fill:#353a3d;}.cls-32{fill:#e55353;}.cls-33{mix-blend-mode:multiply;}.cls-34{fill:#eddad3;}.cls-35{fill:#c9b9b3;}.cls-36{fill:#ba5c3d;}.cls-37{fill:#dbcac3;}.cls-38{fill:#c2bebc;}.cls-39{opacity:0.74;}</style></defs><title>fiverr-integration</title><g class="cls-1"><g id="Слой_1" data-name="Слой 1"><path class="cls-2" d="M358.69,366.28H154.28a14.53,14.53,0,0,1-14.51-14.51V198.27a14.53,14.53,0,0,1,14.51-14.51H358.69a14.53,14.53,0,0,1,14.51,14.51v153.5A14.53,14.53,0,0,1,358.69,366.28ZM154.28,184.66a13.62,13.62,0,0,0-13.6,13.61v153.5a13.62,13.62,0,0,0,13.6,13.61H358.69a13.62,13.62,0,0,0,13.6-13.61V198.27a13.62,13.62,0,0,0-13.6-13.61Z" transform="translate(-62.99 -64.11)"/><path class="cls-3" d="M403.9,204s3.73,1.68,5.4,2.27,7.76-.08,8.44.45.71,2.5-.28,2.84-8.26,2.15-10.8,1.89-7,1.46-8.08,1.24-1.16-6.22-.94-7.6S403.9,204,403.9,204Z" transform="translate(-62.99 -64.11)"/><path class="cls-4" d="M403,201.6l.86,2.4s-4.49,1.6-6.26,1.09l-.59-2.45Z" transform="translate(-62.99 -64.11)"/><path class="cls-5" d="M393.85,206.13s3.52,2.15,5.1,2.94,7.72.92,8.34,1.52.42,2.58-.59,2.8-8.44,1.07-10.94.5-7.12.55-8.16.2-.46-6.32-.09-7.67S393.85,206.13,393.85,206.13Z" transform="translate(-62.99 -64.11)"/><path class="cls-4" d="M393.32,203.64l.53,2.49s-4.64,1-6.34.29l-.31-2.5Z" transform="translate(-62.99 -64.11)"/><path class="cls-6" d="M358.07,158.7s16,.14,18,.42c2.13.3,10.48.57,11.49,2.1,10.17,15.44,16.8,40.71,16.8,40.71l-8,1.58s-7.78-15.06-11-22.89c-2.93-7-5.43-8.83-11.57-8.68s-25.77-1.19-37.09-2.6Z" transform="translate(-62.99 -64.11)"/><path class="cls-7" d="M356.37,121.52s4.76,10.25,4.38,14S356.27,149.92,356,152s1.78,6.31,1.78,6.31l-21.43,9.92a59.5,59.5,0,0,1,0-13.5c.87-7.22,1.5-15,2.46-19.07C342,121.78,350.63,116,350.63,116Z" transform="translate(-62.99 -64.11)"/><path class="cls-8" d="M357.76,158.35s16,.14,18,.42c2.14.3,10.67.44,11.49,2.1,5.82,11.76,7.13,43.18,7.13,43.18l-7.49.9s-3.19-16-4.84-23.53c-.88-4-4.2-8.81-8.74-8.54-6.13.35-30.18,6.3-37-4.61Z" transform="translate(-62.99 -64.11)"/><path class="cls-4" d="M343.91,131.2c0-2,1.2-10.54,6-10s4.27,6.38,3.82,10.75c-.47,4.57-2.84,15.78-2.09,16.35s6.49,2.3,7.72,2.55,8.65,2.06,9.27,2.23-.6,3.06-.6,3.06-20.57-.6-24-2.23S343.91,131.2,343.91,131.2Z" transform="translate(-62.99 -64.11)"/><path class="cls-4" d="M368.66,153.12a19.49,19.49,0,0,0,2.26.45c.74.06,4.22-1.33,5.31-1.13a79.14,79.14,0,0,1,8.37,3.81c.32.23-.18.7-.18.7l-16.36-.6Z" transform="translate(-62.99 -64.11)"/><rect class="cls-9" x="361.87" y="156.48" width="27.23" height="2.49" transform="translate(-56.32 -79.15) rotate(2.31)"/><rect class="cls-9" x="378.86" y="145.04" width="27.23" height="2.49" transform="translate(59.16 402.11) rotate(-70.25)"/><path class="cls-4" d="M368.85,105.4s.51,4.2-.63,4.38c-.94.14-.6,4.2-.6,4.84s-1.77.42-2.25.65-3.22,4.23-4.6,3.85-6.52-4.8-7.49-7.12.69-10.47,3-13.27S367.92,98,368.85,105.4Z" transform="translate(-62.99 -64.11)"/><path class="cls-4" d="M358.12,116.14s-.14.37-.34.94-.34,1-.53,1.53a21.78,21.78,0,0,0-1.14,4.39c-.08,1.74-5.48-7-5.48-7a83.45,83.45,0,0,0,3.15-11.4C355,98.45,358.12,116.14,358.12,116.14Z" transform="translate(-62.99 -64.11)"/><path class="cls-10" d="M368.93,106.29a5.73,5.73,0,0,0,1-7.14c-2.39-4.14-10.7-1.76-11.5-1.86s-4.94-1.41-5.74,6.58-.3,6.79-.3,6.79,2-3.43,3.49-2.87a20.87,20.87,0,0,0,4,.82s.05-3.74,2.14-3.45S367.27,104.82,368.93,106.29Z" transform="translate(-62.99 -64.11)"/><path class="cls-7" d="M343.54,131.57l11,.4s1.71-11.47-4.63-11.25S343.54,131.57,343.54,131.57Z" transform="translate(-62.99 -64.11)"/><path class="cls-4" d="M358.57,105.94c0-.51.21-2.64-1.88-2.16s-.83,5.14-.56,5.3S358.52,110.25,358.57,105.94Z" transform="translate(-62.99 -64.11)"/><path class="cls-4" d="M350.63,116s9.46,17.1,9.22,14.67c-.2-1.89-4.29-11-4.29-11Z" transform="translate(-62.99 -64.11)"/><path class="cls-11" d="M357.78,117.08c-.15.42-.34,1-.53,1.53a31,31,0,0,1-3.62-5.89C354.41,114.13,357.78,117.08,357.78,117.08Z" transform="translate(-62.99 -64.11)"/><polygon class="cls-12" points="294.77 94.23 273.7 106.96 273.34 104.15 294.77 94.23"/><path class="cls-13" d="M300.22,150.39s2.78,21.39-12.68,37.82-50.3,10.56-50.3,10.56,5.76-19.41,18.39-27.41S293.09,160.61,300.22,150.39Z" transform="translate(-62.99 -64.11)"/><path class="cls-14" d="M282.24,109.83S295,133.81,284,160s-54.62,34.74-54.62,34.74-1.8-25.44,9.55-40.46S278.36,125,282.24,109.83Z" transform="translate(-62.99 -64.11)"/><rect class="cls-15" x="32.27" y="143.73" width="82.43" height="1"/><polygon class="cls-16" points="21.23 185.88 4.74 160.12 13.11 163.91 21.23 185.88"/><polygon class="cls-17" points="21.23 185.88 20.22 170.35 14.23 166.94 21.23 185.88"/><polygon class="cls-18" points="8.53 166.04 6.47 168.76 21.23 185.88 8.53 166.04"/><rect class="cls-19" x="87.21" y="106.99" width="232.52" height="181.62" rx="14.06"/><path class="cls-20" d="M382.73,185.16v4H150.21v-4a14.06,14.06,0,0,1,14.06-14.06h204.4A14.07,14.07,0,0,1,382.73,185.16Z" transform="translate(-62.99 -64.11)"/><rect class="cls-2" x="108.2" y="149.22" width="76.48" height="28.06" rx="5.43"/><path class="cls-2" d="M242.24,279.11H176.62a5.89,5.89,0,0,1-5.88-5.89V256a5.89,5.89,0,0,1,5.88-5.89h65.62a5.89,5.89,0,0,1,5.88,5.89v17.19A5.89,5.89,0,0,1,242.24,279.11Zm-65.62-28.06a5,5,0,0,0-5,5v17.19a5,5,0,0,0,5,5h65.62a5,5,0,0,0,5-5V256a5,5,0,0,0-5-5Z" transform="translate(-62.99 -64.11)"/><rect class="cls-2" x="201.88" y="223.74" width="62.3" height="4.53" rx="1.41"/><path class="cls-2" d="M203.29,240.18h59.47a1.41,1.41,0,0,1,1.41,1.41v1.7a1.42,1.42,0,0,1-1.42,1.42H203.29a1.41,1.41,0,0,1-1.41-1.41v-1.7A1.41,1.41,0,0,1,203.29,240.18Z"/><path class="cls-2" d="M354.21,279.11H272.6a8.19,8.19,0,0,1-8.18-8.19V221.07a8.2,8.2,0,0,1,8.18-8.19h81.61a8.2,8.2,0,0,1,8.18,8.19v49.85A8.19,8.19,0,0,1,354.21,279.11ZM272.6,213.79a7.29,7.29,0,0,0-7.28,7.28v49.85a7.28,7.28,0,0,0,7.28,7.28h81.61a7.29,7.29,0,0,0,7.28-7.28V221.07a7.29,7.29,0,0,0-7.28-7.28Z" transform="translate(-62.99 -64.11)"/><path class="cls-20" d="M350.71,293.81l-5.17-4.51a1,1,0,0,1,1.34-1.53l3.66,3.19,5.21-5.82a1,1,0,0,1,1.52,1.36Z" transform="translate(-62.99 -64.11)"/><path class="cls-20" d="M350.71,311.27l-5.17-4.51a1,1,0,0,1,1.34-1.53l3.66,3.19,5.21-5.82a1,1,0,0,1,1.52,1.36Z" transform="translate(-62.99 -64.11)"/><rect class="cls-2" x="201.88" y="257.65" width="62.3" height="4.52" rx="1.41"/><path class="cls-20" d="M350.71,328.73l-5.17-4.51a1,1,0,0,1,1.34-1.53l3.66,3.19,5.21-5.82a1,1,0,0,1,1.52,1.36Z" transform="translate(-62.99 -64.11)"/><g class="cls-21"><rect class="cls-22" x="37.74" y="36.96" width="145.74" height="94.37" rx="11.57"/></g><path class="cls-15" d="M128,155.92a21.94,21.94,0,0,0,29-20.5q0-.73,0-1.47a21.59,21.59,0,0,0-1.28-6.3A21.94,21.94,0,1,0,128,155.92Zm-9.41-21a16.44,16.44,0,0,1,31.9-5.41h0a16.44,16.44,0,0,1,1,4.72c0,.36,0,.73,0,1.1a16.44,16.44,0,1,1-32.88-.42Z" transform="translate(-62.99 -64.11)"/><path class="cls-23" d="M148.07,145.21l4.34,3.36A22,22,0,0,1,128,155.92l1.76-5.2a16.48,16.48,0,0,0,18.27-5.51Z" transform="translate(-62.99 -64.11)"/><path class="cls-24" d="M155.69,127.65l-5.16,1.87h0a16.48,16.48,0,0,1-2.46,15.68l4.34,3.36a22,22,0,0,0,3.28-20.92Z" transform="translate(-62.99 -64.11)"/><path class="cls-20" d="M121.88,117.62a21.94,21.94,0,0,1,33.81,10l-5.16,1.88h0a16.44,16.44,0,0,0-25.44-7.45Z" transform="translate(-62.99 -64.11)"/><path class="cls-19" d="M194,227.47c0-.13,0-.27,0-.41v-.13a8,8,0,0,0-.48-2.35,8.15,8.15,0,1,0-10.27,10.51h0a8.17,8.17,0,0,0,5.35,0,8.15,8.15,0,0,0,5.38-6.93C194,227.91,194,227.69,194,227.47Zm-14.26-.18a6.12,6.12,0,0,1,11.86-2h0a6,6,0,0,1,.35,1.76h0c0,.13,0,.27,0,.41a6.13,6.13,0,0,1-1.81,4.26,6.1,6.1,0,0,1-4.38,1.77,6.26,6.26,0,0,1-1.31-.17q-.28-.06-.57-.15A6.12,6.12,0,0,1,179.73,227.29Z" transform="translate(-62.99 -64.11)"/><rect class="cls-15" x="108.2" y="49.09" width="62.11" height="69.48" rx="10.18"/><rect class="cls-2" x="50.84" y="102.56" width="45.3" height="4.92" rx="2.31"/><rect class="cls-2" x="50.84" y="113.65" width="45.3" height="4.92" rx="2.31"/><g class="cls-25"><rect class="cls-20" x="250.64" y="146.4" width="97.07" height="65.32" rx="7.73"/></g><rect class="cls-19" x="260.42" y="154.21" width="32.61" height="27.67" rx="2.92"/><rect class="cls-19" x="298.5" y="154.21" width="41.97" height="7.38" rx="1.71"/><rect class="cls-19" x="298.5" y="165.75" width="41.97" height="7.38" rx="1.71"/><rect class="cls-19" x="322.49" y="198.97" width="17.97" height="3.81" rx="1.55"/><path class="cls-4" d="M392,291.71s-1.55-2.71.91-10a7.32,7.32,0,0,1,13.21-1.88c2.62,4.5,1.74,7.29-2.11,12.38S393.62,294,392,291.71Z" transform="translate(-62.99 -64.11)"/><path class="cls-4" d="M411.13,416.73s.4,3,.45,3.43,4.53-.26,4.53-.26l.37-3.55S411.69,416.31,411.13,416.73Z" transform="translate(-62.99 -64.11)"/><path class="cls-26" d="M411.54,419.78a12.31,12.31,0,0,1-2.79,2.58c-1.38.79-3.53,1.1-4.34,1.91-.59.59-2.14,3.11,3.56,3.06s8.45.35,9.06-.62-.88-7.13-.88-7.13A15.85,15.85,0,0,1,411.54,419.78Z" transform="translate(-62.99 -64.11)"/><path class="cls-4" d="M380.13,416.73s.4,3,.45,3.43,4.53-.26,4.53-.26l.36-3.55S380.69,416.31,380.13,416.73Z" transform="translate(-62.99 -64.11)"/><path class="cls-27" d="M380.54,419.78a12.31,12.31,0,0,1-2.79,2.58c-1.38.79-6.42,1.43-7.24,2.24-.58.59-1.56,2.95,6.46,2.73,5.7-.16,8.45.35,9.06-.62s-.89-7.13-.89-7.13A22.94,22.94,0,0,1,380.54,419.78Z" transform="translate(-62.99 -64.11)"/><path class="cls-28" d="M409.62,342.42s2.3,7.14,2,13.29,1.19,12.87,1.8,19.29c.68,7.16,3.46,24.11,3.56,27.94s-.44,16.06-.44,16.06l-5.56.13s-4.67-29.63-5.87-32.65-7.21-24.58-7.41-27S409.62,342.42,409.62,342.42Z" transform="translate(-62.99 -64.11)"/><path class="cls-29" d="M386.57,341.68s-3.38,18.86-3.78,22.63-.67,18.2-.88,20.56-1.34,30.77-2.41,34.26h6.2s6.36-20.66,6.36-30.43S396.28,367.44,399,361s8.95-6.6,10.62-18.57C409.62,342.42,388.83,337.88,386.57,341.68Z" transform="translate(-62.99 -64.11)"/><path class="cls-4" d="M394.27,293.63a5.4,5.4,0,0,1,0,3.49c-.7,1.45,8.93.58,8.93.58a10.39,10.39,0,0,1,.83-5.47C405.29,289.76,394.27,293.63,394.27,293.63Z" transform="translate(-62.99 -64.11)"/><path class="cls-30" d="M410.07,344s-3.47,3.56-23.81-.56l.31-1.74,23.13.87Z" transform="translate(-62.99 -64.11)"/><path class="cls-4" d="M392.81,297.59s-3.56.36-4.57.56-7.86-1.23-9.27-1.37-7.39-4.25-7.58-4.74-3.64-9.21-3.84-11.1-3.36-.91-3.09.39c.51,2.43,1.16,8.34,1.52,10.05s1.42,6,2,6.56a41.82,41.82,0,0,0,11.25,6.35,45.2,45.2,0,0,1,9.25,4.31h26S424.6,294.14,424.82,292s-7.06-16.65-8.52-18.47-3.55.59-3.55.59,4.35,12.77,4.93,14.59-5.06,9.79-6.61,9.81-5.53-.48-7.29-.55a12.2,12.2,0,0,1-3.63-.85Z" transform="translate(-62.99 -64.11)"/><path class="cls-7" d="M381.6,307.25a8.38,8.38,0,0,1,3.48,5.75,75.28,75.28,0,0,0,2,11.32c.58,2-.51,16.2-.65,17.22s20.12,3.43,23.24,1c0,0,.87-13.29,1.23-17.06s2.11-12.93,2.69-14.16,7.62-11.12,7.91-12.42c0,0-3.64-5.81-6.26-5.88,0,0-4.15,4.86-5.5,5.08s-9.65-1.3-9.66-1.32-.9,1.24-5.72-.22c0,0-5.73.65-6.66.77-1.13.14-9-1-9-1s-3.15,5.32-2.6,8Z" transform="translate(-62.99 -64.11)"/><path class="cls-4" d="M367.73,282.08s-.71-3.37.15-4.34a26.15,26.15,0,0,0,1.76-2.22c.11-.21,1.37-.93,1.37-1.28s-1.23-.78-2.3.21-1.74,1.21-2.17,1.1-1-3.66-1.1-4.55-.39-3.21-.94-3.05-.53,1.18-.53,1.18-.64-1.77-1.07-1.42-.37,1.21-.37,1.21-.8-1-1-.27a2.53,2.53,0,0,0,0,1.36s-.83-.45-.88.67a17.09,17.09,0,0,0,.83,5.59c.59,1.18,2.79,4.26,3.05,5.46S367.73,282.08,367.73,282.08Z" transform="translate(-62.99 -64.11)"/><path class="cls-4" d="M413.46,276.17s-2.42-4.07-3.24-4.43a14,14,0,0,1-3-1.3c-1-.73-2.36-1.33-2.28-1.57s1.27-.15,2.55.41,1.85.29,2,0a7.64,7.64,0,0,0-1.07-2.83c-.39-.48-3.15-3.26-2.69-3.67s2.25,1.11,2.54,1.43c0,0-1.43-3-.87-3.15s1.6.92,1.6.92-.12-2.57,2.64,1.6c0,0-.58-1.38.26-.92s1.67,3,1.94,4.35,1.47,5.48,2.5,6.48S413.46,276.17,413.46,276.17Z" transform="translate(-62.99 -64.11)"/><path class="cls-31" d="M404,292.23a11,11,0,0,1-4-.83c-2.71-.93-2.91-5.67-3.5-5.11a1.72,1.72,0,0,1-2.78-.32s1.33-1.75.71-2.59a6.4,6.4,0,0,0-1.61-1.45s1.91-9.19,10.59-5C413.61,281.83,404,292.23,404,292.23Z" transform="translate(-62.99 -64.11)"/><path class="cls-7" d="M394.27,297.12l.31-1.33a71.86,71.86,0,0,1,8.56.32l.31,1.59S399.58,299.46,394.27,297.12Z" transform="translate(-62.99 -64.11)"/><path class="cls-4" d="M395.64,285.13c.5-.84,2.36-1.4,2.58,1,.17,1.84-3.33,3.85-3.36,2.13A5.09,5.09,0,0,1,395.64,285.13Z" transform="translate(-62.99 -64.11)"/><path class="cls-32" d="M367.6,281.31a5.51,5.51,0,0,0-3,.93,2,2,0,0,0,.17,1,12.23,12.23,0,0,1,3.06-1A2,2,0,0,0,367.6,281.31Z" transform="translate(-62.99 -64.11)"/><path class="cls-31" d="M365.25,281.81a.86.86,0,1,0,1.12-.46A.85.85,0,0,0,365.25,281.81Z" transform="translate(-62.99 -64.11)"/><g class="cls-33"><rect class="cls-20" x="68.34" y="190.09" width="76.48" height="28.06" rx="5.43"/></g><path class="cls-4" d="M71.9,336.9s.3,1.64,1.22,1.89A5.3,5.3,0,0,1,75,340.08c.36.34,1.84,1,1.42,1.44s-2.5-.94-3-1.15.21,2.08,0,2.6-4,1.47-4.35-.15.44-3.56.33-3.83a9.92,9.92,0,0,1-.26-1.17Z" transform="translate(-62.99 -64.11)"/><path class="cls-4" d="M73.49,342.57s.6,5,.36,5.4-.52.39-.6-.08L72.54,343s-.3,6.08-.43,6.42-.6.27-.67,0-.12-6.28-.12-6.28-.28,5.67-.47,5.92a.39.39,0,0,1-.68-.26c0-.42,0-5.69,0-5.69s-.46,4.11-.75,4.23-.64.14-.49-.91.26-3.59.26-3.59Z" transform="translate(-62.99 -64.11)"/><path class="cls-4" d="M125.9,275.21a13.52,13.52,0,0,0,1.11-2.78,7.08,7.08,0,0,1,2.45-3.25c.62-.39,5.16-3.64,5.68-3.64s.22,1-.23,1.3-4.14,3.16-4.14,3.16,4.59-3.16,5.07-3.07.81.69.3,1.32a.86.86,0,0,1,0,1.52l-2.17,1.68s1.28-.67.8.36c-.25.54-2.92,2.13-3.34,2.62a28.59,28.59,0,0,1-3.79,2.12Z" transform="translate(-62.99 -64.11)"/><path class="cls-4" d="M99,416.14h1.14s-.38-4.29.68-4.34,3.66,3.5,5.21,4.05,9.56,1,9.6-.47-3.07-2.06-4-2.48-5.68-5-6.52-5.56-2.24-3.32-2.24-3.32H98.57s-.47,2.33-.74,4.21a16.49,16.49,0,0,0-.18,1.77C97.6,411.59,99,416.14,99,416.14Z" transform="translate(-62.99 -64.11)"/><path class="cls-4" d="M79.29,415.29h.94v-4c.79.07,3.44,2.58,4.26,3.31s2,.69,5.41.91,3.78-1.85,3.23-2.55-2.31-1-3.23-1.46S85.35,407,84.38,406s-1.56-3.74-1.56-3.74l-4,.35a24.62,24.62,0,0,1-.43,4.67h0c0,.19-.08.37-.13.54C77.61,410,79.29,415.29,79.29,415.29Z" transform="translate(-62.99 -64.11)"/><path class="cls-4" d="M88.74,281.74s-2,4.16-.92,7.56c0,0-6.07-.82-6.25-1.53s.76-7.09.06-9S88.74,281.74,88.74,281.74Z" transform="translate(-62.99 -64.11)"/><path class="cls-7" d="M88.88,287.93s3.51,1.5,5.11,2,4.9,2.28,4.19,8.17a120.23,120.23,0,0,1-2.64,13.45,52.1,52.1,0,0,0-.42,12.18,47,47,0,0,1-18.79-1.36s2.19-5.23,2.24-6.62-5.08-13.22-5.22-15-.77-9.85,2.08-11.41,5-1.16,6.26-1.87S87.24,287.24,88.88,287.93Z" transform="translate(-62.99 -64.11)"/><path class="cls-7" d="M88.86,297.09S87.52,290,94.37,290c6,0,11.73-1.13,12.68-1.66s4.65-2.34,6.58-4.33,12.43-10,12.43-10L129,277s-11.07,12-12.85,13.19-16.77,9.54-18.67,9.8S90.2,301.7,88.86,297.09Z" transform="translate(-62.99 -64.11)"/><path class="cls-7" d="M67.31,319c-.2,2.49,1.15,19.69,1.15,19.69l4.88.56s-.35-17-.62-20.91a20,20,0,0,1,.6-4.84h0c.27-1.22.59-2.5.93-3.72.92-3.37,1.91-6.29,1.91-6.29s5.47-14.21-1.39-13.64a16.61,16.61,0,0,0-3.62,6.94,84.92,84.92,0,0,0-2.36,13.33C68.74,312.64,67.46,317.11,67.31,319Z" transform="translate(-62.99 -64.11)"/><path class="cls-34" d="M93.94,323.56a41.56,41.56,0,0,1,1.72,4.66c.13.94,5.07,13.23,5.41,16.82s1.39,13.33,1.76,14.72-.83,7.59-1,9-.09,24.08,1.58,35.28c0,0-3.89,1.67-6.85,0,0,0-4.91-17.5-4.63-27.59s1.55-14.35,0-18.43-10.73-16.29-11.66-17.59S73.51,332,79,324.19,93.94,323.56,93.94,323.56Z" transform="translate(-62.99 -64.11)"/><path class="cls-34" d="M75,356.71c.48,3.24,0,7.5-1,19.35s1.79,26.2,1.79,26.2a14.24,14.24,0,0,0,7.56,0c-.09-.83,0-28.89,0-31.39s.72-5.33.91-8.2a57,57,0,0,1,2.06-9.25c.3-1.1.62-2.21.93-3.28h0l.51-1.77c1.44-5,3.38-24.3,3.38-24.3s-10.75-8.66-16-.51-2.54,14.07-2.36,15.09S74.5,353.47,75,356.71Z" transform="translate(-62.99 -64.11)"/><path class="cls-7" d="M95.81,309s-1,15.34,1.9,24c0,0-11.35,1.89-25.82-3,0,0,4-10.31,3.84-11.92s-4.33-20.39-2.31-24.59S95.1,295.23,95.81,309Z" transform="translate(-62.99 -64.11)"/><path class="cls-4" d="M86.54,264.64c2.6-.1,9.22.9,8,10.88s-4.84,9.12-8.41,7.8-7.35-9.4-7.2-11.48S79.14,264.94,86.54,264.64Z" transform="translate(-62.99 -64.11)"/><path class="cls-31" d="M94.49,270.91s-3.17,3.49-6.15,4.16c0,0-2.53,3.85-6.52,4.59,0,0-7.77-8.59-.31-14.08S94.76,267.85,94.49,270.91Z" transform="translate(-62.99 -64.11)"/><path class="cls-4" d="M89,273.73a1.26,1.26,0,0,0-2.22-.58c-1,1.18.47,4.21,1.12,4.26S89.21,275.83,89,273.73Z" transform="translate(-62.99 -64.11)"/><path class="cls-35" d="M79.44,339.29c.09.19,5.44,12.07,6.82,14.13.3-1.1.62-2.21.93-3.28h0S79.62,339.56,79.44,339.29Z" transform="translate(-62.99 -64.11)"/><path class="cls-36" d="M73.08,301.27a87.71,87.71,0,0,0,.24,12.18c.27-1.22.59-2.5.93-3.72C74.22,309.56,73.18,302.46,73.08,301.27Z" transform="translate(-62.99 -64.11)"/><path class="cls-31" d="M84.54,264s-9-.2-7.67,15.31c1,11.92-3.34,17.81-2.72,19.55s2.73,4.64,7.47,2,1.62-16.28,4.17-21.6,8.13-7.78,8.13-7.78S92.94,262.44,84.54,264Z" transform="translate(-62.99 -64.11)"/><path class="cls-7" d="M96.72,295.4l2.56,9.1c.63,2.26-2.32,6.52-4.94,5.21S96.72,295.4,96.72,295.4Z" transform="translate(-62.99 -64.11)"/><path class="cls-37" d="M79.29,415.29h.94v-4c.79.07,3.44,2.58,4.26,3.31s2,.69,5.41.91,3.78-1.85,3.23-2.55-2.31-1-3.23-1.46c-3.7.2-8.21-5-10.38-5-1.15,0-1.14.65-1.17.77h0c0,.19-.08.37-.13.54C77.61,410,79.29,415.29,79.29,415.29Z" transform="translate(-62.99 -64.11)"/><path class="cls-37" d="M99,416.14h1.14s-.38-4.29.68-4.34,3.66,3.5,5.21,4.05,9.56,1,9.6-.47-3.07-2.06-4-2.48c-3.3,0-8.66-3.64-10.33-4.37a6,6,0,0,0-3.46-.3,16.49,16.49,0,0,0-.18,1.77C97.6,411.59,99,416.14,99,416.14Z" transform="translate(-62.99 -64.11)"/><path class="cls-38" d="M330.35,107.67l-.2-.88a20.93,20.93,0,0,0,2.43-.7l.34.84A21.69,21.69,0,0,1,330.35,107.67Z" transform="translate(-62.99 -64.11)"/><path class="cls-38" d="M69.31,214.94c-.56-1.56-1.09-3.22-1.59-4.93l.87-.25c.49,1.69,1,3.33,1.57,4.87ZM66.41,205c-.39-1.64-.75-3.34-1.07-5.06l.89-.17c.32,1.7.68,3.39,1.06,5Zm-1.93-10.15c-.25-1.69-.47-3.41-.66-5.13l.9-.1c.19,1.71.41,3.42.65,5.09Zm-1.12-10.27c-.12-1.71-.22-3.44-.28-5.16l.91,0c.06,1.7.15,3.43.27,5.12Zm.54-10.33H63c0-1.71,0-3.45.1-5.16l.9,0C63.93,170.83,63.9,172.56,63.9,174.26ZM64.27,164l-.9-.07c.12-1.72.28-3.45.47-5.15l.9.11C64.55,160.58,64.4,162.3,64.27,164Zm1.14-10.2-.9-.14c.26-1.71.55-3.42.87-5.1l.89.18C66,150.41,65.66,152.11,65.41,153.81Zm1.93-10.09-.88-.2c.39-1.68.83-3.37,1.29-5l.87.24C68.16,140.38,67.73,142.05,67.34,143.72Zm2.77-9.87-.86-.29c.55-1.64,1.13-3.28,1.74-4.87l.85.33C71.23,130.59,70.65,132.22,70.11,133.85Zm3.68-9.58-.83-.36c.7-1.58,1.44-3.16,2.21-4.68l.81.41C75.21,121.15,74.48,122.71,73.79,124.27Zm4.61-9.15-.78-.45c.85-1.5,1.76-3,2.69-4.42l.76.5C80.15,112.17,79.25,113.64,78.4,115.12ZM320,108.82v-.91c1.75,0,3.47-.12,5.1-.3l.09.9C323.56,108.69,321.82,108.79,320,108.82Zm-5.18-.14c-1.68-.11-3.41-.28-5.15-.52l.12-.89c1.71.23,3.43.4,5.09.51Zm-10.26-1.36c-1.66-.33-3.35-.71-5-1.15l.22-.87c1.68.43,3.36.81,5,1.13ZM84,106.53l-.73-.54c1-1.39,2.09-2.76,3.18-4.08l.7.58C86.05,103.79,85,105.15,84,106.53Zm210.6-1.77c-1.61-.5-3.26-1.05-4.9-1.65l.31-.85c1.63.59,3.26,1.14,4.86,1.64Zm-9.71-3.51c-1.57-.65-3.16-1.34-4.74-2.06l.38-.83c1.57.72,3.15,1.41,4.7,2ZM90.5,98.64,89.84,98c1.17-1.25,2.4-2.49,3.64-3.67l.62.65C92.88,96.17,91.66,97.4,90.5,98.64Zm185-1.69c-1.52-.76-3.05-1.57-4.57-2.4l.43-.8c1.51.83,3,1.63,4.54,2.39Zm-9.06-5c-.59-.35-1.19-.7-1.79-1.07-.84-.5-1.73-1-2.64-1.55l.45-.79c.92.53,1.81,1.06,2.66,1.57l1.78,1.06Zm-168.5-.41-.59-.69c.91-.76,1.84-1.52,2.77-2.24l1.28-1,.55.72-1.27,1C99.73,90.09,98.81,90.84,97.92,91.59Zm159.56-4.68c-1.48-.78-3-1.57-4.58-2.33l.4-.81c1.57.76,3.12,1.55,4.61,2.34ZM106.09,85.4l-.51-.74c1.41-1,2.87-1.93,4.32-2.84l.48.77C108.94,83.49,107.5,84.44,106.09,85.4Zm142.17-3c-1.54-.7-3.12-1.4-4.7-2.08l.36-.83c1.58.68,3.17,1.38,4.72,2.09ZM114.78,80l-.44-.79c1.49-.84,3-1.66,4.55-2.44l.41.81C117.79,78.32,116.27,79.13,114.78,80Zm124-1.64c-1.58-.63-3.2-1.25-4.8-1.84l.31-.85c1.61.59,3.23,1.22,4.82,1.85Zm-114.88-3-.37-.82c1.56-.71,3.16-1.39,4.76-2l.33.84C127.07,74,125.48,74.64,123.93,75.34Zm105.24-.57c-1.62-.56-3.26-1.09-4.89-1.6l.27-.86c1.63.51,3.28,1,4.91,1.6Zm-9.81-3.07c-1.65-.47-3.32-.92-5-1.34l.22-.88c1.65.42,3.33.88,5,1.35Zm-85.9-.14-.3-.85c1.62-.56,3.28-1.09,4.93-1.58l.25.87C136.71,70.48,135.06,71,133.46,71.56Zm75.94-2.4c-1.67-.38-3.36-.74-5-1.07l.17-.89c1.67.33,3.37.69,5,1.07Zm-66.11-.51-.22-.87c1.66-.42,3.36-.8,5-1.14l.18.89C146.62,67.87,144.94,68.25,143.29,68.65Zm56-1.47c-1.69-.29-3.4-.54-5.07-.77l.12-.9c1.68.23,3.4.49,5.1.77Zm-46-.56-.14-.9c1.68-.27,3.4-.5,5.11-.71l.11.9C156.72,66.11,155,66.35,153.34,66.62Zm35.81-.81c-1.71-.18-3.43-.32-5.12-.44l.06-.9c1.7.11,3.43.26,5.15.44Zm-25.63-.39-.07-.9c1.7-.14,3.44-.24,5.16-.3l0,.9C166.93,65.19,165.21,65.29,163.52,65.42Zm15.38-.32c-1.64,0-3.3-.08-4.92-.08h-.21v-.91H174c1.63,0,3.3,0,5,.09Z" transform="translate(-62.99 -64.11)"/><path class="cls-38" d="M72.36,222.1c-.38-.75-.77-1.54-1.13-2.36l.82-.37c.36.8.74,1.59,1.11,2.32Z" transform="translate(-62.99 -64.11)"/><rect class="cls-15" x="102.81" y="237.74" width="6.96" height="25.28"/><rect class="cls-15" x="112.71" y="235.19" width="6.96" height="27.83"/><rect class="cls-15" x="122.75" y="240.49" width="6.96" height="22.54"/><rect class="cls-15" x="132.78" y="230.04" width="6.96" height="32.98"/><rect class="cls-15" x="143.32" y="233.33" width="6.96" height="29.7"/><rect class="cls-15" x="153.99" y="237.74" width="6.96" height="25.28"/><rect class="cls-15" x="163.89" y="235.19" width="6.96" height="27.83"/><rect class="cls-15" x="173.93" y="240.49" width="6.96" height="22.54"/><path class="cls-19" d="M155.07,267.34v-.11a8.32,8.32,0,0,0-.47-2.35,8.16,8.16,0,0,0-7.56-5.36,8.16,8.16,0,0,0-8.26,8,8.16,8.16,0,0,0,5.54,7.83h0a8,8,0,0,0,2.51.43,8.16,8.16,0,0,0,8.22-7.36q0-.34,0-.69A3.12,3.12,0,0,0,155.07,267.34Zm-14.25.25a6.12,6.12,0,0,1,11.86-2h0a6.4,6.4,0,0,1,.36,1.76h0c0,.13,0,.27,0,.41a6,6,0,0,1-.26,1.7,6.29,6.29,0,0,1-1,2,7.7,7.7,0,0,1-.54.6,6.1,6.1,0,0,1-4.38,1.77,7,7,0,0,1-1.31-.16l-.57-.16A6.12,6.12,0,0,1,140.82,267.59Z" transform="translate(-62.99 -64.11)"/><g class="cls-39"><rect class="cls-20" x="210.59" y="269.9" width="68.39" height="53.46" rx="6.95"/></g><rect class="cls-19" x="241.98" y="275.37" width="32.91" height="41.54" rx="4.25"/><path class="cls-19" d="M220.23,275.37h12.5a2.61,2.61,0,0,1,2.61,2.61v.71a2.6,2.6,0,0,1-2.6,2.6h-12.5a2.6,2.6,0,0,1-2.6-2.6V278A2.61,2.61,0,0,1,220.23,275.37Z"/><rect class="cls-19" x="217.63" y="286.43" width="17.71" height="5.92" rx="2.6"/></g></g></svg>