<svg id="Layer_1" data-name="Layer 1" xmlns="http://www.w3.org/2000/svg" viewBox="0 0 344.28 239.5"><defs><style>.cls-1{fill:#2cce6d;}</style></defs><title>members</title><path class="cls-1" d="M905.19,1007.21c0-.13,0-.25-.07-.38s-.12-.42-.19-.61l-.14-.36a6.48,6.48,0,0,0-.34-.64,2.55,2.55,0,0,1-.14-.24,5.09,5.09,0,0,0-.63-.76l-.2-.17a4.32,4.32,0,0,0-.57-.47,3.87,3.87,0,0,0-.34-.21,3.48,3.48,0,0,0-.38-.23l-42-20.78V794.79a5.54,5.54,0,0,0-5.55-5.55H610.3a5.56,5.56,0,0,0-5.56,5.55V982.41L564,1003.18a2.33,2.33,0,0,0-.34.2l-.34.21c-.19.14-.36.29-.53.44s-.16.13-.23.21a5.23,5.23,0,0,0-.64.77.53.53,0,0,1-.06.1,5.68,5.68,0,0,0-.41.77c-.05.11-.08.23-.13.34s-.14.41-.19.62,0,.25-.07.38a4.89,4.89,0,0,0-.07.68c0,.07,0,.14,0,.22v15.08a5.54,5.54,0,0,0,5.55,5.55H899.73a5.54,5.54,0,0,0,5.55-5.55v-15.08a1.79,1.79,0,0,0,0-.23A5.23,5.23,0,0,0,905.19,1007.21Zm-315.52-4.65,22-11.2h241.7l22.65,11.2Zm26.19-202.22H849.08V980.26H615.86Zm278.32,217.3H572.1v-4H894.18Z" transform="translate(-561 -789.24)"/><path class="cls-1" d="M825.27,812.19H639.66a5.56,5.56,0,0,0-5.56,5.55V942.87a5.56,5.56,0,0,0,5.56,5.55H825.27a5.56,5.56,0,0,0,5.56-5.55V817.74A5.56,5.56,0,0,0,825.27,812.19Zm-5.55,125.13H645.21v-114H819.72Z" transform="translate(-561 -789.24)"/><path class="cls-1" d="M734.69,951.57a11.94,11.94,0,1,0,11.93,11.94A12,12,0,0,0,734.69,951.57Zm0,17.21a5.28,5.28,0,1,1,5.27-5.27A5.28,5.28,0,0,1,734.69,968.78Z" transform="translate(-561 -789.24)"/></svg>