<svg xmlns="http://www.w3.org/2000/svg" xmlns:xlink="http://www.w3.org/1999/xlink" viewBox="0 0 2815.7 3024.87"><defs><style>.cls-1{fill:none;}.cls-2{isolation:isolate;}.cls-3{fill:#f4f7fa;}.cls-4,.cls-54{fill:#d8dee8;}.cls-41,.cls-5{fill:#fff;}.cls-6{fill:url(#linear-gradient);}.cls-7{fill:#bfc8d6;}.cls-31,.cls-41,.cls-8{opacity:0.5;}.cls-41,.cls-8{mix-blend-mode:soft-light;}.cls-9{clip-path:url(#clip-path);}.cls-10{fill:url(#linear-gradient-2);}.cls-11{fill:url(#linear-gradient-3);}.cls-12,.cls-18,.cls-26,.cls-29,.cls-42,.cls-51,.cls-52,.cls-54,.cls-60,.cls-63,.cls-70,.cls-74,.cls-83{opacity:0.3;}.cls-12,.cls-18,.cls-26,.cls-29,.cls-42,.cls-51,.cls-52,.cls-54,.cls-60,.cls-63,.cls-70,.cls-83{mix-blend-mode:multiply;}.cls-12{fill:url(#linear-gradient-4);}.cls-13{fill:url(#linear-gradient-5);}.cls-14{fill:url(#linear-gradient-6);}.cls-15{fill:url(#linear-gradient-7);}.cls-16{fill:url(#linear-gradient-8);}.cls-17{fill:url(#linear-gradient-9);}.cls-18{fill:url(#linear-gradient-10);}.cls-19{fill:url(#linear-gradient-11);}.cls-20{fill:url(#linear-gradient-12);}.cls-21{fill:url(#linear-gradient-13);}.cls-22{fill:url(#linear-gradient-14);}.cls-23{fill:url(#linear-gradient-15);}.cls-24{fill:url(#linear-gradient-16);}.cls-25{fill:url(#linear-gradient-17);}.cls-26{fill:url(#linear-gradient-18);}.cls-27{fill:#552d63;}.cls-28{fill:url(#linear-gradient-19);}.cls-29{fill:url(#linear-gradient-20);}.cls-30{fill:url(#linear-gradient-21);}.cls-32{fill:url(#linear-gradient-22);}.cls-33{fill:url(#linear-gradient-23);}.cls-34{fill:url(#linear-gradient-24);}.cls-35{fill:url(#linear-gradient-25);}.cls-36{fill:url(#linear-gradient-26);}.cls-37{fill:url(#linear-gradient-27);}.cls-38{fill:url(#linear-gradient-28);}.cls-39{fill:url(#linear-gradient-29);}.cls-40{fill:url(#linear-gradient-30);}.cls-42{fill:url(#linear-gradient-31);}.cls-43{fill:url(#linear-gradient-32);}.cls-44{fill:url(#linear-gradient-33);}.cls-45{fill:url(#linear-gradient-34);}.cls-46{fill:url(#linear-gradient-35);}.cls-47{fill:url(#linear-gradient-36);}.cls-48{fill:url(#linear-gradient-37);}.cls-49{fill:url(#linear-gradient-38);}.cls-50{fill:url(#linear-gradient-39);}.cls-51{fill:url(#linear-gradient-40);}.cls-52{fill:url(#linear-gradient-41);}.cls-53{fill:url(#linear-gradient-42);}.cls-55{fill:#a2a7ae;}.cls-56{fill:url(#linear-gradient-43);}.cls-57{fill:url(#linear-gradient-44);}.cls-58{fill:url(#linear-gradient-45);}.cls-59{fill:url(#linear-gradient-46);}.cls-60{fill:url(#linear-gradient-47);}.cls-61{fill:url(#linear-gradient-48);}.cls-62{fill:url(#linear-gradient-49);}.cls-63{fill:url(#linear-gradient-50);}.cls-64{fill:url(#linear-gradient-51);}.cls-65{fill:url(#linear-gradient-52);}.cls-66{fill:url(#linear-gradient-53);}.cls-67{fill:url(#linear-gradient-54);}.cls-68{fill:url(#linear-gradient-55);}.cls-69{fill:url(#linear-gradient-56);}.cls-70{fill:url(#linear-gradient-57);}.cls-71{fill:url(#linear-gradient-58);}.cls-72{fill:url(#linear-gradient-59);}.cls-73{fill:url(#linear-gradient-60);}.cls-74{mix-blend-mode:color-burn;fill:url(#linear-gradient-61);}.cls-75{fill:url(#linear-gradient-62);}.cls-76{fill:url(#linear-gradient-63);}.cls-77{fill:url(#linear-gradient-64);}.cls-78{fill:url(#linear-gradient-65);}.cls-79{fill:url(#linear-gradient-66);}.cls-80{fill:url(#linear-gradient-67);}.cls-81{fill:url(#linear-gradient-68);}.cls-82{fill:url(#linear-gradient-69);}.cls-83{fill:url(#linear-gradient-70);}.cls-84{fill:url(#linear-gradient-71);}.cls-85{fill:url(#linear-gradient-72);}</style><linearGradient id="linear-gradient" x1="872.09" y1="1731.61" x2="2703.15" y2="1731.61" gradientUnits="userSpaceOnUse"><stop offset="0" stop-color="#fff"/><stop offset="1" stop-color="#ebeff2"/></linearGradient><clipPath id="clip-path" transform="translate(-447.15 -455)"><polygon class="cls-1" points="1388.65 2344.36 2354.64 2288.61 3113.14 1430.41 2627.6 663 965.71 895.39 940.34 2273.83 1388.65 2344.36"/></clipPath><linearGradient id="linear-gradient-2" x1="1178.23" y1="246.47" x2="1115.96" y2="493.91" gradientTransform="matrix(-0.4, -0.92, -0.92, 0.4, 3664.42, 2400.71)" gradientUnits="userSpaceOnUse"><stop offset="0" stop-color="#ffc444"/><stop offset="1" stop-color="#f36f56"/></linearGradient><linearGradient id="linear-gradient-3" x1="2789" y1="1186.78" x2="2355.94" y2="1622.89" gradientUnits="userSpaceOnUse"><stop offset="0" stop-color="#aa80f9"/><stop offset="1" stop-color="#6165d7"/></linearGradient><linearGradient id="linear-gradient-4" x1="2421.21" y1="1788.14" x2="2504.72" y2="1595.18" xlink:href="#linear-gradient-3"/><linearGradient id="linear-gradient-5" x1="864.61" y1="3541.13" x2="997.09" y2="3541.13" gradientTransform="matrix(-1, 0.09, 0.09, 1, 2456.55, -160.45)" gradientUnits="userSpaceOnUse"><stop offset="0" stop-color="#444b8c"/><stop offset="1" stop-color="#26264f"/></linearGradient><linearGradient id="linear-gradient-6" x1="445.34" y1="3486.71" x2="505.7" y2="3361.79" gradientTransform="matrix(-1, 0.07, 0.07, 1, 2040.62, -60.67)" xlink:href="#linear-gradient-2"/><linearGradient id="linear-gradient-7" x1="381.95" y1="3643.91" x2="523.09" y2="3643.91" gradientTransform="matrix(-0.98, 0.21, 0.21, 0.98, 1968.05, -210.66)" xlink:href="#linear-gradient-5"/><linearGradient id="linear-gradient-8" x1="209.69" y1="3583.31" x2="271.44" y2="3455.51" gradientTransform="matrix(-0.99, 0.15, 0.15, 0.99, 1974.58, -128.67)" xlink:href="#linear-gradient-2"/><linearGradient id="linear-gradient-9" x1="2750.2" y1="3064.1" x2="2359.38" y2="2183.12" gradientTransform="translate(-237.58 -19.3) rotate(3.06)" gradientUnits="userSpaceOnUse"><stop offset="0" stop-color="#311944"/><stop offset="1" stop-color="#893976"/></linearGradient><linearGradient id="linear-gradient-10" x1="2691.68" y1="3089.66" x2="2300.99" y2="2208.95" xlink:href="#linear-gradient-9"/><linearGradient id="linear-gradient-11" x1="2072.19" y1="3287.92" x2="1682.67" y2="2409.84" gradientTransform="translate(-160.89 92.99) rotate(-3.98)" xlink:href="#linear-gradient-9"/><linearGradient id="linear-gradient-12" x1="1616.83" y1="2211.34" x2="2211.92" y2="836.33" xlink:href="#linear-gradient-3"/><linearGradient id="linear-gradient-13" x1="2155.7" y1="634.38" x2="2170.88" y2="230.03" gradientTransform="translate(171.03 -183) rotate(26.56)" gradientUnits="userSpaceOnUse"><stop offset="0" stop-color="#ffc444"/><stop offset="0.46" stop-color="#ffc244"/><stop offset="0.63" stop-color="#febb46"/><stop offset="0.75" stop-color="#fcb048"/><stop offset="0.84" stop-color="#fa9f4c"/><stop offset="0.93" stop-color="#f78951"/><stop offset="1" stop-color="#f36f56"/></linearGradient><linearGradient id="linear-gradient-14" x1="-318.78" y1="1202.06" x2="-422.16" y2="939.49" gradientTransform="matrix(-0.95, -0.31, -0.31, 0.95, 1860.29, -28.94)" gradientUnits="userSpaceOnUse"><stop offset="0" stop-color="#311944"/><stop offset="1" stop-color="#6b3976"/></linearGradient><linearGradient id="linear-gradient-15" x1="1854.42" y1="1077.64" x2="1849.63" y2="1463.31" gradientTransform="translate(410.64 -444.92) rotate(14.42)" xlink:href="#linear-gradient-2"/><linearGradient id="linear-gradient-16" x1="1553.18" y1="1926.92" x2="1580.79" y2="2011.19" gradientTransform="matrix(1, 0, 0, 1, 0, 0)" xlink:href="#linear-gradient-2"/><linearGradient id="linear-gradient-17" x1="1178.35" y1="2010.41" x2="1768.47" y2="646.86" xlink:href="#linear-gradient-3"/><linearGradient id="linear-gradient-18" x1="1724.43" y1="2257.79" x2="2319.86" y2="881.98" xlink:href="#linear-gradient-3"/><linearGradient id="linear-gradient-19" x1="2113.31" y1="840.67" x2="2843.93" y2="840.67" gradientTransform="matrix(1, 0, 0, 1, 0, 0)" xlink:href="#linear-gradient-2"/><linearGradient id="linear-gradient-20" x1="2166.72" y1="681.51" x2="2733.64" y2="1428.14" gradientTransform="matrix(1, 0, 0, 1, 0, 0)" xlink:href="#linear-gradient-2"/><linearGradient id="linear-gradient-21" x1="-4048.77" y1="2017.66" x2="-4335.74" y2="4239.33" gradientTransform="translate(3256.45 -1846.5) rotate(-37.05)" xlink:href="#linear-gradient-2"/><linearGradient id="linear-gradient-22" x1="-3096.05" y1="2322.41" x2="-3383.02" y2="4544.07" gradientTransform="matrix(-0.8, -0.6, -0.6, 0.8, 2163.15, -1846.5)" gradientUnits="userSpaceOnUse"><stop offset="0" stop-color="#ff9085"/><stop offset="1" stop-color="#fb6fbb"/></linearGradient><linearGradient id="linear-gradient-23" x1="3666.64" y1="2678.43" x2="3431.2" y2="3471.49" gradientTransform="translate(-1675.05)" gradientUnits="userSpaceOnUse"><stop offset="0" stop-color="#40447e"/><stop offset="1" stop-color="#3c3b6b"/></linearGradient><linearGradient id="linear-gradient-24" x1="2110.62" y1="2968.13" x2="3133.18" y2="2968.13" gradientTransform="matrix(1, 0, 0, 1, 0, 0)" xlink:href="#linear-gradient-22"/><linearGradient id="linear-gradient-25" x1="3762.38" y1="2970.07" x2="4827.28" y2="2970.07" xlink:href="#linear-gradient-23"/><linearGradient id="linear-gradient-26" x1="3262.05" y1="2680.25" x2="3845.6" y2="2680.25" gradientTransform="translate(-1675.05)" xlink:href="#linear-gradient-22"/><linearGradient id="linear-gradient-27" x1="3222.42" y1="2675.64" x2="3479.25" y2="2678.44" gradientTransform="translate(-1675.05)" xlink:href="#linear-gradient-3"/><linearGradient id="linear-gradient-28" x1="3785.67" y1="2673.06" x2="4808.22" y2="2673.06" gradientTransform="translate(-2122.19 -455)" xlink:href="#linear-gradient-22"/><linearGradient id="linear-gradient-29" x1="3762.38" y1="2567.82" x2="4827.28" y2="2567.82" gradientTransform="translate(-1675.05)" xlink:href="#linear-gradient-3"/><linearGradient id="linear-gradient-30" x1="3762.38" y1="2779.03" x2="4827.28" y2="2779.03" gradientTransform="translate(-1675.05)" xlink:href="#linear-gradient-3"/><linearGradient id="linear-gradient-31" x1="3449.9" y1="2850.09" x2="3401.2" y2="2777.99" gradientTransform="translate(-1675.05)" xlink:href="#linear-gradient-2"/><linearGradient id="linear-gradient-32" x1="3437.88" y1="2832.29" x2="3369.11" y2="2730.48" gradientTransform="translate(-1675.05)" xlink:href="#linear-gradient-3"/><linearGradient id="linear-gradient-33" x1="1742.98" y1="2975.96" x2="1822.88" y2="2975.96" gradientTransform="matrix(-1, 0, 0, 1, 4217.3, 0)" xlink:href="#linear-gradient-9"/><linearGradient id="linear-gradient-34" x1="1965.77" y1="2858.68" x2="1786.61" y2="2632.52" gradientTransform="matrix(-1, 0, 0, 1, 4217.3, 0)" xlink:href="#linear-gradient-2"/><linearGradient id="linear-gradient-35" x1="1704.65" y1="2983.03" x2="1805.75" y2="2983.03" gradientTransform="matrix(-1, 0, 0, 1, 4217.3, 0)" xlink:href="#linear-gradient-9"/><linearGradient id="linear-gradient-36" x1="1807.15" y1="2811.33" x2="1956.94" y2="3243.08" gradientTransform="matrix(-1, 0, 0, 1, 4217.3, 0)" xlink:href="#linear-gradient-2"/><linearGradient id="linear-gradient-37" x1="1720.51" y1="1994.18" x2="1770.44" y2="2378.93" gradientTransform="matrix(-1, 0, 0, 1, 4217.3, 0)" gradientUnits="userSpaceOnUse"><stop offset="0" stop-color="#e38ddd"/><stop offset="1" stop-color="#9571f6"/></linearGradient><linearGradient id="linear-gradient-38" x1="1490.81" y1="2104.55" x2="1568.64" y2="1918.05" xlink:href="#linear-gradient-37"/><linearGradient id="linear-gradient-39" x1="1541.38" y1="2820.19" x2="1778.31" y2="2463.83" gradientTransform="matrix(-1, 0, 0, 1, 4217.3, 0)" xlink:href="#linear-gradient-9"/><linearGradient id="linear-gradient-40" x1="1717.88" y1="1994.52" x2="1767.81" y2="2379.27" xlink:href="#linear-gradient-37"/><linearGradient id="linear-gradient-41" x1="1508.34" y1="2798.22" x2="1745.26" y2="2441.86" gradientTransform="matrix(-1, 0, 0, 1, 4217.3, 0)" xlink:href="#linear-gradient-9"/><linearGradient id="linear-gradient-42" x1="2413.02" y1="2260.64" x2="2953.42" y2="2260.64" xlink:href="#linear-gradient"/><linearGradient id="linear-gradient-43" x1="1478.37" y1="1961.23" x2="1596.45" y2="1961.23" gradientTransform="matrix(-1, 0, 0, 1, 4217.3, 0)" xlink:href="#linear-gradient-2"/><linearGradient id="linear-gradient-44" x1="4527.28" y1="2128.09" x2="4525.13" y2="2301.04" gradientTransform="matrix(-0.98, -0.18, -0.18, 0.98, 7487.66, 658.77)" xlink:href="#linear-gradient-2"/><linearGradient id="linear-gradient-45" x1="2224.96" y1="2380.73" x2="2494.49" y2="2380.73" gradientTransform="translate(142.82)" xlink:href="#linear-gradient-23"/><linearGradient id="linear-gradient-46" x1="2052.6" y1="2210.71" x2="2229.31" y2="2386.01" gradientTransform="translate(142.82)" xlink:href="#linear-gradient-23"/><linearGradient id="linear-gradient-47" x1="2052.6" y1="2210.71" x2="2229.31" y2="2386.01" gradientTransform="translate(142.82)" xlink:href="#linear-gradient-23"/><linearGradient id="linear-gradient-48" x1="2575.89" y1="2310.67" x2="2571.94" y2="2354.44" gradientTransform="matrix(1, 0, 0, 1, 0, 0)" xlink:href="#linear-gradient-2"/><linearGradient id="linear-gradient-49" x1="2875.29" y1="2190.93" x2="2543.66" y2="2747.93" gradientTransform="matrix(1, 0, 0, 1, 0, 0)" xlink:href="#linear-gradient-37"/><linearGradient id="linear-gradient-50" x1="2958.81" y1="2098.01" x2="2496.95" y2="2873.73" gradientTransform="matrix(1, 0, 0, 1, 0, 0)" xlink:href="#linear-gradient-37"/><linearGradient id="linear-gradient-51" x1="2205.01" y1="2008.72" x2="2376.59" y2="2081.9" gradientTransform="matrix(-1.02, 0.14, 0.12, 0.87, 3285.64, -95.1)" xlink:href="#linear-gradient-22"/><linearGradient id="linear-gradient-52" x1="-1306.47" y1="3427.48" x2="-1215.16" y2="3427.48" gradientTransform="matrix(-1, 0.09, 0.09, 1, -661.04, -160.45)" xlink:href="#linear-gradient-5"/><linearGradient id="linear-gradient-53" x1="-1745.56" y1="3329.64" x2="-1705.5" y2="3246.73" gradientTransform="matrix(-1, 0.07, 0.07, 1, -1076.96, -60.67)" xlink:href="#linear-gradient-2"/><linearGradient id="linear-gradient-54" x1="-1645.85" y1="3768.95" x2="-1548.85" y2="3768.95" gradientTransform="matrix(-0.98, 0.21, 0.21, 0.98, -1149.53, -210.66)" xlink:href="#linear-gradient-5"/><linearGradient id="linear-gradient-55" x1="-1847.98" y1="3567.38" x2="-1807.07" y2="3482.71" gradientTransform="matrix(-0.99, 0.15, 0.15, 0.99, -1143, -128.67)" xlink:href="#linear-gradient-2"/><linearGradient id="linear-gradient-56" x1="4746.38" y1="2731.31" x2="4487.65" y2="2148.08" gradientTransform="translate(-3355.16 -19.3) rotate(3.06)" gradientUnits="userSpaceOnUse"><stop offset="0" stop-color="#ab316d"/><stop offset="1" stop-color="#792d3d"/></linearGradient><linearGradient id="linear-gradient-57" x1="4706.26" y1="2749.11" x2="4447.53" y2="2165.87" xlink:href="#linear-gradient-56"/><linearGradient id="linear-gradient-58" x1="4159.95" y1="3196.88" x2="3901.22" y2="2613.63" gradientTransform="translate(-3278.48 92.99) rotate(-3.98)" xlink:href="#linear-gradient-56"/><linearGradient id="linear-gradient-59" x1="4786.13" y1="1765.9" x2="4457.82" y2="2329.82" gradientTransform="matrix(0.99, 0.13, -0.13, 0.99, -3460.42, -378.4)" xlink:href="#linear-gradient-22"/><linearGradient id="linear-gradient-60" x1="4761.05" y1="1751.3" x2="4432.74" y2="2315.22" gradientTransform="matrix(0.99, 0.13, -0.13, 0.99, -3460.42, -378.4)" xlink:href="#linear-gradient-22"/><linearGradient id="linear-gradient-61" x1="4786.14" y1="1765.91" x2="4457.83" y2="2329.82" gradientTransform="matrix(0.99, 0.13, -0.13, 0.99, -3460.42, -378.4)" xlink:href="#linear-gradient-22"/><linearGradient id="linear-gradient-62" x1="3900.31" y1="1744.36" x2="4066.4" y2="1744.36" gradientTransform="translate(-3117.58)" xlink:href="#linear-gradient-2"/><linearGradient id="linear-gradient-63" x1="8530.75" y1="120.04" x2="8527.26" y2="401.64" gradientTransform="translate(-7622.73 2194.34) rotate(-4.32)" xlink:href="#linear-gradient-2"/><linearGradient id="linear-gradient-64" x1="-2484.17" y1="1723.89" x2="-2481.13" y2="1757.35" gradientTransform="matrix(-1, 0, 0, 1, -1566.34, 0)" xlink:href="#linear-gradient-2"/><linearGradient id="linear-gradient-65" x1="2972.79" y1="2391.6" x2="2926.3" y2="2259.87" gradientTransform="translate(-2374.38 -455)" xlink:href="#linear-gradient-23"/><linearGradient id="linear-gradient-66" x1="2769.68" y1="2200.74" x2="2786.73" y2="2318.53" gradientTransform="translate(-1927.23)" xlink:href="#linear-gradient-23"/><linearGradient id="linear-gradient-67" x1="841.65" y1="2219.23" x2="938" y2="2219.23" gradientTransform="matrix(1, 0, 0, 1, 0, 0)" xlink:href="#linear-gradient-2"/><linearGradient id="linear-gradient-68" x1="3107.47" y1="2211.06" x2="3016.83" y2="2082.34" gradientTransform="translate(-1927.23)" xlink:href="#linear-gradient-23"/><linearGradient id="linear-gradient-69" x1="2933.6" y1="2424.08" x2="3131.97" y2="2021.13" gradientTransform="translate(-1927.23)" xlink:href="#linear-gradient-23"/><linearGradient id="linear-gradient-70" x1="2836.69" y1="2165.46" x2="3272.5" y2="2165.46" gradientTransform="translate(-1927.23)" xlink:href="#linear-gradient-37"/><linearGradient id="linear-gradient-71" x1="1296.37" y1="2265.18" x2="1352.04" y2="2265.18" gradientTransform="matrix(1, 0, 0, 1, 0, 0)" xlink:href="#linear-gradient-2"/><linearGradient id="linear-gradient-72" x1="-76.88" y1="1562.05" x2="-394.28" y2="3083.82" gradientTransform="translate(881.64)" xlink:href="#linear-gradient-22"/></defs><title>online-education</title><g class="cls-2"><g id="Illustration"><path class="cls-3" d="M3221.44,1651C3145.12,1151.42,2832.22,537.7,2214,473.48c0,0-469.35-57.09-932,29.43-274.6,51.35-515.38,204.22-667.74,423.92s-203.25,487.61-141.49,743c40.12,165.89,67.22,337.58,59.78,508-12.94,296.68-5.49,573.6,282.42,750.53,257.08,158,580.61,297.31,889.27,321.71,209.76,16.59,445-10.25,647.16-64.86C3381.71,2907,3297.76,2150.51,3221.44,1651Z" transform="translate(-447.15 -455)"/><path class="cls-4" d="M2705.29,1133.19c0-45.8-29.71-84.73-69-94.54-1.4-.36-3-.67-4.39-.94a80.18,80.18,0,0,0-13.22-1.42l-841.18-20.77L917.65,994.29c-1.83,0-3.67,0-5.49,0a104.28,104.28,0,0,0-61.85,22.13l-.94.73c-2.45,2-4.82,4-7.08,6.22l-.16.15c-1.34,1.29-2.63,2.63-3.9,4a102.89,102.89,0,0,0-27.49,70.35v76.19h0V2369.73a102.83,102.83,0,0,0,3.38,26.34,98.6,98.6,0,0,0,81.8,72.58,106.9,106.9,0,0,0,21.71.91l1303.72-77.78h0l397.55-23.7c47.67-2.84,86.39-47.58,86.39-99.92v-1067h0Z" transform="translate(-447.15 -455)"/><path class="cls-5" d="M2644.47,1036.16l-1699.81-42c-58.83-1.45-106.82,44.9-106.82,103.54V2369.14c0,58.63,48,103.31,106.82,99.79l1699.81-101.42c47.64-2.84,86.06-47.55,86.06-99.88V1133C2730.53,1080.71,2692.11,1037.34,2644.47,1036.16Z" transform="translate(-447.15 -455)"/><path class="cls-6" d="M944.66,2435.24c-39.94,2.31-72.57-28.17-72.57-67.94v-1269a70.52,70.52,0,0,1,72.57-70.48l1699.81,38.71c32.41.74,58.68,30.32,58.68,65.94V2269.1c0,35.62-26.27,66.12-58.68,68Z" transform="translate(-447.15 -455)"/><path class="cls-4" d="M2644.47,1036.16l-1699.81-42c-58.83-1.45-106.82,44.9-106.82,103.54v76.16L2730.53,1201v-68C2730.53,1080.71,2692.12,1037.34,2644.47,1036.16Z" transform="translate(-447.15 -455)"/><path class="cls-5" d="M1027.49,1091.07A33.71,33.71,0,0,1,993,1124.85a35.31,35.31,0,0,1-34.63-35.11A33.72,33.72,0,0,1,993,1056,35.33,35.33,0,0,1,1027.49,1091.07Z" transform="translate(-447.15 -455)"/><path class="cls-5" d="M1147.54,1093.38a33.36,33.36,0,0,1-34,33.55,34.94,34.94,0,0,1-34.15-34.86,33.36,33.36,0,0,1,34.15-33.55A35,35,0,0,1,1147.54,1093.38Z" transform="translate(-447.15 -455)"/><path class="cls-5" d="M1266,1095.66A33,33,0,0,1,1232.4,1129a34.6,34.6,0,0,1-33.68-34.62,33,33,0,0,1,33.68-33.32C1251,1061.44,1266,1076.94,1266,1095.66Z" transform="translate(-447.15 -455)"/><polygon class="cls-7" points="2182.91 1818.47 515.16 1907.97 515.16 910.92 2182.91 916.66 2182.91 1818.47"/><polygon class="cls-4" points="1425.39 816.18 515.16 807.67 515.16 861.53 1425.39 867.23 1425.39 816.18"/><polygon class="cls-4" points="2090.58 822.4 2090.58 871.4 2182.91 871.98 2182.91 823.26 2090.58 822.4"/><g class="cls-8"><path class="cls-5" d="M1996.07,1679.75c-197.85-286.33-543.67-188.14-764.67-508.52-40-58-67.24-117.33-85.92-172.1l-200.82-5c-58.83-1.45-106.82,44.9-106.82,103.54V2369.14c0,58.63,48,103.31,106.82,99.8l1302.82-77.74a1043.25,1043.25,0,0,1-103-183.37C2029.82,1944.87,2114.75,1851.52,1996.07,1679.75Z" transform="translate(-447.15 -455)"/></g><g class="cls-9"><path class="cls-10" d="M2860.81,1487.78s18.71-23.18,53.8-24.64,82.78-23.31,103.26-25.4c4.94-.5,7.39-2,7.8-3.85.87-3.82-21.86-9.17-42-9.65-35.79-.87-56.68,13.46-61.51,6.25-5.4-8.07,17.72-30.45,13.49-35.37-3.28-3.82-19,8.68-35.85,16.38-11.95,5.47-58.75,63.41-58.75,63.41Z" transform="translate(-447.15 -455)"/><path class="cls-11" d="M2886.35,1478.64c-2.87,139.13-70.32,265.51-178.33,327.73q-6.7,3.87-13.65,7.42c-197.35,100.76-395.11-69.74-418.9-90.94-6.16-5.47-35.61-32.43-66.33-77.16-34.62-50.32-70.82-123.19-77.07-213.09-2.55-36.79-10.32-149,47.85-183,59.87-35,155.15,32.89,193.86,60.46,163.68,116.63,167.62,259.8,257.64,274.34,40.34,6.51,104.44-11.79,200.72-142.2Z" transform="translate(-447.15 -455)"/><path class="cls-12" d="M2708,1806.37q-6.7,3.87-13.65,7.42c-197.35,100.76-395.11-69.74-418.9-90.94-6.16-5.47-35.61-32.43-66.33-77.16,9.55-43.25,22.54-100.56,22.54-100.56s84.69-10.52,124.86,89.85c14.52,36.27,32.05,71.6,61.73,97,29.94,25.71,53.1,21.79,90.84,15.91,34.72-5.39,71,21.08,101.09,33.84C2641.33,1795,2673.63,1808.58,2708,1806.37Z" transform="translate(-447.15 -455)"/><path class="cls-13" d="M1789.08,3422.16c-6.88,6.4-7.32,21.71-7.6,31.72-.13,4.47-.19,6.7.38,8.26,4.17,11.33,25.69,11.66,59.54,13.85,53.54,3.46,69.63,7.16,73.31-1.22,3.45-7.86-6.74-20.08-7.88-21.42-6.16-7.24-13.34-9.67-27.18-13.74-25.6-7.54-42.83-11.53-48-12.74C1799,3419.32,1793.6,3418,1789.08,3422.16Z" transform="translate(-447.15 -455)"/><path class="cls-14" d="M1826.6,3367.7l2.08,63.15c-1.67,2.91-20.15,10.6-34,1.7l-10.49-62.7Z" transform="translate(-447.15 -455)"/><path class="cls-15" d="M2240.83,3423.33c-9.25,9.28-12.19,27.46-5.06,37.07,7,9.46,18.57,3.67,50.36,7.11,34.07,3.69,42.55,12.7,66.09,7.89,9.52-1.94,26.41-7.15,26.45-14.08,0-4.87-8.27-8-35.92-19.93-39.22-16.89-39-17.63-47.41-19.73C2274.23,3416.38,2253,3411.08,2240.83,3423.33Z" transform="translate(-447.15 -455)"/><path class="cls-16" d="M2265.65,3367.61l14.07,60c-1.46,3-19.4,12.22-34,4.41l-22.45-58.94Z" transform="translate(-447.15 -455)"/><path class="cls-17" d="M2180.25,2070.39a5718.35,5718.35,0,0,0,101,1315.58l-66.41,13.14c-52.56-57.51-118-146.65-145.47-267.61-17.07-75.05-8.16-112.29-16.73-203.66-13.63-145.47-52.4-224-90.48-343.16-34.21-107.07-73.09-263.31-87.61-469.47Z" transform="translate(-447.15 -455)"/><path class="cls-18" d="M2149.71,2993.38c-24.34-100.13-71.2-127.34-72.87-221.42-1.18-66.54,21.93-71.58,20.39-135.29-2.32-96.63-57-148.15-84.47-209.32-29-64.57-40.09-167.73,38-338l-176.3,25.84c14.52,206.15,53.4,362.4,87.61,469.46,38.08,119.2,76.85,197.7,90.48,343.17,8.57,91.37-.34,128.61,16.73,203.66,27.51,121,92.91,210.1,145.47,267.61l16.89-3.34c-56.84-71.34-76.88-134.37-82-185.28C2141.42,3127.69,2174.26,3094.37,2149.71,2993.38Z" transform="translate(-447.15 -455)"/><path class="cls-19" d="M1959.52,2055.11q-39.37,374.54-72,763.21-24.4,291.55-43.58,575.88l-66.94,3.37a839.08,839.08,0,0,1-59.75-190.5c-18.58-100-10.1-157.86-15.22-260.39-5.75-115-21.36-141.1-43.86-287.23-45.64-296.45-68.45-444.62,3.92-530.77C1685.55,2100.69,1758.34,2031.4,1959.52,2055.11Z" transform="translate(-447.15 -455)"/><path class="cls-20" d="M1382.68,1272.61c120-41.25,303.37-86.65,528.26-75.29,130.56,6.6,256.16,21.88,345.33,48.44,12.06,69.83,11,148.51,23.06,218.37a2575.18,2575.18,0,0,1-3.94,276.58c-7.6,111.83-15,113.43-32.46,271.19-28.39,257.13-16.52,324.58-66.58,354.75-32.55,19.62-44.31-4.84-210.15-24.36-111-13.06-167.6-19.21-223.72-.37-76.35,25.63-101.88,70.2-133.35,55.08-30.16-14.49-34-68.58-37.64-162.82-5.62-145.38-5.27-244.13-5.79-279.49-2.38-162.22-41.94-286.48-92.58-445.55A2216.75,2216.75,0,0,0,1382.68,1272.61Z" transform="translate(-447.15 -455)"/><path class="cls-21" d="M1896,1036.19a491.64,491.64,0,0,1-13.15,94.87c-6.07,25.11-9.85,31.46-14.5,36.5-7,7.61-17.36,13.7-74.57,24.64-31.12,5.94-35.06,5.48-35.9,8.59-4.1,15.19,76.95,73,164.23,65.86,53.46-4.38,103.38-32.65,101.27-49.29s-55.62-11.22-69.88-42.18c-9.91-21.52,3.93-50.33,19.76-73.92C1960.59,1073,1908.71,1064.41,1896,1036.19Z" transform="translate(-447.15 -455)"/><path class="cls-22" d="M1995.76,1078.92c17.24-12.38,27.3-40.76,19.48-63.48-6.72-19.54-24.56-28-35.23-33.09-30.93-14.69-76-14.43-100.17,11.55-14.29,15.39-8.52,59.32-7.91,67.08.71,8.78,5.66,13.38,9.15,21,4.82,10.58,12.32,27.35,24.39,55.25a147.12,147.12,0,0,1,14.69-20.2c2.44-2.8,12.13-13.7,23.95-21.47C1967.8,1080,1979.43,1090.65,1995.76,1078.92Z" transform="translate(-447.15 -455)"/><path class="cls-23" d="M1884.16,1110s9.42,43.16,52.45,54.56c38.55,10.2,72.68-75.75,54.64-102.51-6-8.93-21.27-16.94-35.6-17.55-8.46-.36-12.16,2.09-26,1.23-12.74-.8-15.61-3.26-20.14-1.37-5.68,2.38-12,10.75-13,38.9-4.73-10-12.41-15.8-19.5-14.87a13.55,13.55,0,0,0-6.67,3.38C1861.86,1080,1866.51,1095.8,1884.16,1110Z" transform="translate(-447.15 -455)"/><path class="cls-24" d="M1493.36,1953.91l39.75-1.8s43.58-37.3,63.42-34.69,49.54,17.27,53.16,20.31-10.86,19.66-25.35,17.84-46.79,5.88-52.57,19-30.84,20.83-35.1,13l-53.43,10.32Z" transform="translate(-447.15 -455)"/><path class="cls-25" d="M1505.39,1939.62c2.78,33.89-4.32,56.79-16.17,72.4-52.51,69.17-230.69,38.24-336.39-56.57-78.16-70.1-119.51-177.87-118-274,3-187.53,170.08-369.86,419.3-431.38q55.42,172.58,110.92,345.29c-154,.84-247.34,120.25-233.5,206.34C1341.88,1865.88,1413.77,1924.38,1505.39,1939.62Z" transform="translate(-447.15 -455)"/><path class="cls-26" d="M2111.81,2281.18c-81.59-37.2-81.12-111.71-157.25-143.86-108.51-45.82-228.21,55.45-246.89,26.66-19.43-29.95,123.5-119.08,104.47-209.17-15.12-71.57-114.87-60.15-168.24-158.43-50.6-93.17-1.55-178.24-46.35-210.89-16.06-11.7-44.39-16.54-98.07,7.42,37.43,121.75,64.28,229.08,66.22,361.78.52,35.36.17,134.11,5.79,279.49,3.64,94.24,7.48,148.33,37.64,162.82,31.47,15.12,57-29.45,133.35-55.08,56.12-18.84,112.71-12.69,223.72.37,165.84,19.52,177.6,44,210.15,24.36,21.2-12.77,31.28-32.32,38-70.06C2181.07,2299.81,2145.75,2296.66,2111.81,2281.18Z" transform="translate(-447.15 -455)"/></g><path class="cls-5" d="M1637.4,2181.28c0,36.58-29.91,67.66-67,69.43-37.22,1.78-67.52-26.67-67.52-63.55s30.3-68,67.52-69.45C1607.49,2116.24,1637.4,2144.7,1637.4,2181.28Z" transform="translate(-447.15 -455)"/><path class="cls-5" d="M1904.6,2169.6c0,36-28.94,66.52-64.78,68.24-36,1.72-65.31-26.28-65.31-62.55s29.31-66.84,65.31-68.27C1875.66,2105.6,1904.6,2133.62,1904.6,2169.6Z" transform="translate(-447.15 -455)"/><path class="cls-5" d="M2163.15,2158.29c0,35.4-28,65.43-62.7,67.09s-63.19-25.91-63.19-61.58,28.35-65.73,63.19-67.11S2163.15,2122.9,2163.15,2158.29Z" transform="translate(-447.15 -455)"/><path class="cls-27" d="M2463.37,562.53c-79.56,0-153.18,19.37-213.16,52.24-92.15,50.48-152.15,132.86-152.15,225.89,0,52.83,19.33,102.21,52.93,144.28l-35.24,93.69a12.15,12.15,0,0,0,9.06,16.19h0l.27,0a11,11,0,0,0,1.64.16c3.62.33,11.56.87,16.59,0-.45-.82-.92-1.66-1.4-2.51,33.12-6.14,83.44-15.38,117.33-21.16,58.27,30,128.51,47.46,204.14,47.46,110.9,0,210.27-37.62,277.27-97,54.88-48.64,88-111.91,88-181.1C2828.68,687.05,2665.12,562.53,2463.37,562.53Z" transform="translate(-447.15 -455)"/><path class="cls-28" d="M2843.93,840.66c0,69.19-33.16,132.46-88,181.1-67,59.42-166.37,97-277.27,97-75.63,0-145.88-17.49-204.14-47.46-38.53,6.57-98.34,17.62-129.9,23.5a12.14,12.14,0,0,1-13.58-16.21l35.24-93.69c-33.6-42.07-52.93-91.45-52.93-144.28,0-93,60-175.41,152.15-225.89,60-32.87,133.59-52.24,213.16-52.24C2680.37,562.53,2843.93,687.05,2843.93,840.66Z" transform="translate(-447.15 -455)"/><path class="cls-29" d="M2755.89,1021.76c-67,59.42-166.37,97-277.27,97-75.63,0-145.88-17.49-204.14-47.46-38.53,6.57-98.34,17.62-129.9,23.5a12.14,12.14,0,0,1-13.58-16.21l35.24-93.69c-33.6-42.07-52.93-91.45-52.93-144.28,0-93,60-175.41,152.15-225.89,48.19,6.55,90,23.3,115.43,56.93,55.89,74-7.15,177.92,51.2,230.48,57.93,52.13,150.53-22.6,234.74,12.8C2698.49,928.27,2731,958,2755.89,1021.76Z" transform="translate(-447.15 -455)"/><polygon class="cls-5" points="2023.4 251.03 1781.75 324.69 2023.4 398.34 2265.06 324.69 2023.4 251.03"/><path class="cls-5" d="M2470.55,879.59l-152.09-46.36v105.9a36.82,36.82,0,0,0,29.16,36c81.68,17.32,160.22,17.86,235.42.57a36.74,36.74,0,0,0,28.4-35.85V836.64Z" transform="translate(-447.15 -455)"/><path class="cls-5" d="M2284.87,923.1q-19.82,8.8-34.66.37a7.75,7.75,0,0,1-3.68-8.29L2268,808.24l21.34,106.13A7.86,7.86,0,0,1,2284.87,923.1Z" transform="translate(-447.15 -455)"/><polygon class="cls-5" points="2023.4 313.77 1817.76 335.63 1817.76 371.3 1823.85 371.3 1824.48 340.03 2023.4 313.77"/><path class="cls-30" d="M1671.42,3047.9c-30.89,19.69-74.28,39.74-127.73,43.36-57.82,3.92-147.51-10-159.1-52.74-4.32-15.94,1.91-37.1,15.1-45.49,19.49-12.4,40.89,11.51,93.75,15.18,9.77.68,60.28,4.18,68.69-16.2,4.17-10.13-2.89-24.12-11.19-32.55-24.25-24.66-60.84-3.63-115.34-9-55.24-5.45-122-37.35-133.18-84.49-6.46-27.09,5-61,23.91-68.17,8.09-3.07,16.38-.83,69.32,27.45,43.45,23.21,55,30.84,68.17,26.18,13.59-4.79,27.33-22,25.65-37.71-4.36-40.86-108.6-27.34-174.64-101-29.59-33-59.51-92.5-36-127.82,15.87-23.87,55.36-35.53,81.43-24.11,23.5,10.28,21.47,32.91,59.4,67.25,11.51,10.42,35.2,31.86,46.27,25.56,13-7.39,2.11-49.32-.7-59.4-21.18-75.95-70.32-86.12-70.06-130.94.19-34.95,30.32-71.68,68-82.52,32.94-9.49,72.61.56,93.9,25.93,21.68,25.82,19.27,69.62,14.47,157.22-2.28,41.54-6.4,71.55,13.61,96,9.75,11.93,27.67,25.54,37.67,20.47,22.06-11.18-27.44-96.63,9.48-143.48,18.9-24,57.36-33.93,86.27-22.41,35.42,14.13,52.71,59,47.54,93.35-6.73,44.83-47.76,45.6-75.86,109.51-12.47,28.35-27,79.6-6,97.07,9.13,7.6,25.64,9.34,37.18,2.52,25.86-15.28,4.25-60.25,29.59-106.32,18.26-33.19,57.41-60.66,78.22-51.94,29.38,12.31,21.59,96.48,14.07,136.75C1834.14,2844.09,1803.41,2946.6,1671.42,3047.9Z" transform="translate(-447.15 -455)"/><g class="cls-31"><path class="cls-5" d="M1673.66,3026.7C1620.33,2964.09,1563,2798,1547,2711.21c-15.63-84.59-59.6-204-60-205.2l5.78-2.14c.45,1.2,44.6,121.1,60.33,206.22,15.92,86.16,72.66,250.77,125.34,312.61Z" transform="translate(-447.15 -455)"/></g><path class="cls-32" d="M2804.18,2717c30.88,19.69,74.27,39.74,127.72,43.36,57.82,3.92,147.52-10,159.1-52.74,4.33-15.94-1.91-37.1-15.1-45.49-19.48-12.4-40.89,11.51-93.75,15.18-9.77.68-60.28,4.18-68.68-16.2-4.18-10.13,2.89-24.12,11.18-32.55,24.26-24.66,60.85-3.63,115.34-9,55.25-5.44,122-37.35,133.19-84.49,6.45-27.09-5-61-23.92-68.17-8.08-3.07-16.37-.83-69.31,27.45-43.45,23.21-55,30.84-68.18,26.18-13.59-4.79-27.33-22-25.65-37.71,4.36-40.86,108.6-27.34,174.64-101,29.59-33,59.51-92.5,36-127.82-15.87-23.87-55.36-35.52-81.44-24.11-23.5,10.28-21.47,32.91-59.4,67.25-11.51,10.42-35.19,31.86-46.26,25.56-13-7.39-2.12-49.32.69-59.4,21.18-75.95,70.32-86.12,70.07-130.94-.2-34.95-30.33-71.68-68-82.52-32.94-9.49-72.61.56-93.91,25.93-21.67,25.82-19.27,69.62-14.46,157.22,2.28,41.54,6.39,71.55-13.62,96-9.75,11.93-27.67,25.54-37.67,20.47-22-11.18,27.45-96.63-9.47-143.48-18.9-24-57.37-33.93-86.27-22.41-35.42,14.13-52.71,59-47.55,93.35,6.73,44.83,47.76,45.6,75.87,109.51,12.47,28.35,27,79.6,6,97.07-9.14,7.61-25.65,9.34-37.19,2.52-25.86-15.28-4.25-60.25-29.59-106.32-18.25-33.19-57.41-60.66-78.22-51.94-29.38,12.31-21.59,96.48-14.07,136.75C2641.45,2513.2,2672.18,2615.71,2804.18,2717Z" transform="translate(-447.15 -455)"/><g class="cls-31"><path class="cls-5" d="M2801.93,2695.81c53.34-62.61,110.67-228.67,126.71-315.49,15.63-84.59,59.61-204,60.05-205.2l-5.79-2.14c-.44,1.2-44.6,121.1-60.33,206.22-15.91,86.16-72.65,250.77-125.34,312.61Z" transform="translate(-447.15 -455)"/></g><path class="cls-33" d="M2202.12,3146.1,1676,3131.43c-60-2.74-107.78-77.88-107.78-167.55v-1c0-89.68,47.77-163.61,107.78-164.83l562.92-19Z" transform="translate(-447.15 -455)"/><path class="cls-34" d="M3133.18,3102l-873.72,34.45c-81.74,3.22-148.84-56.51-148.84-133.45v-52.2c0-76.94,67.1-140.1,148.84-141.05l873.72-10.15Z" transform="translate(-447.15 -455)"/><path class="cls-35" d="M3141.64,3117.82l-924.13,37.81c-71.42,2.92-130.18-76.46-130.18-177v-1.11c0-100.53,58.76-182.92,130.18-183.65l924.13-9.44c5.85-.06,10.59,7.1,10.59,16s-4.74,16.16-10.59,16.24l-924.13,12.19c-57.5.76-104.71,67.16-104.71,148V2978c0,80.86,47.21,144.85,104.71,142.67l924.13-35.07c5.85-.22,10.59,6.8,10.59,15.69S3147.49,3117.58,3141.64,3117.82Z" transform="translate(-447.15 -455)"/><path class="cls-36" d="M2170.55,2785.07l-500.81,11.28c-46,1-82.73-35.4-82.73-81.38v-31.18c0-46,36.7-85.54,82.73-88.41l500.81-31.26Z" transform="translate(-447.15 -455)"/><path class="cls-37" d="M2100.08,2795.08,1676,2806.94c-60,1.23-107.78-46.38-107.78-106.11v-.65c0-59.72,47.77-111.39,107.78-115.25l424.06-33.17c7.44-.47,93.71,5.11,93.71,11.65s-80.58,11.48-88,11.92L1676,2606.39c-48.48,2.92-87.24,44.58-87.24,92.92v.65c0,48.34,38.76,86.72,87.24,85.52l424.06-13.92c7.39-.19,93.71,6.45,93.71,13S2107.51,2794.92,2100.08,2795.08Z" transform="translate(-447.15 -455)"/><polygon class="cls-38" points="2686.03 2318.78 1663.47 2328.23 1663.47 2107.89 2686.03 2117.39 2686.03 2318.78"/><path class="cls-39" d="M3141.64,2583.87l-1041.56-8.58c-7-.06-12.75-5.38-12.75-11.88s5.71-11.72,12.75-11.65l1041.56,10.65a10.79,10.79,0,0,1,10.59,10.83A10.55,10.55,0,0,1,3141.64,2583.87Z" transform="translate(-447.15 -455)"/><path class="cls-40" d="M3141.64,2784.44l-1041.56,10.64c-7,.08-12.75-5.14-12.75-11.64s5.71-11.82,12.75-11.88L3141.64,2763a10.55,10.55,0,0,1,10.59,10.64A10.79,10.79,0,0,1,3141.64,2784.44Z" transform="translate(-447.15 -455)"/><path class="cls-41" d="M2061.12,3105.3l-111.83-6.38c-27-77-25-151.33,0-241.71l111.83.34C2038.7,2949.82,2042.11,3031.42,2061.12,3105.3Z" transform="translate(-447.15 -455)"/><path class="cls-42" d="M1829.32,2805.21l-3.56-139.48L1697.39,2807s-69.36,37.39-57.45,103l79.35-31.57,70.49,24.42S1791.55,2834,1829.32,2805.21Z" transform="translate(-447.15 -455)"/><path class="cls-43" d="M1683,2674.46l142.8-8.73s-67.16,51-36,237.2c0,0-61-19.39-87.6-52.59l-62.24,59.74S1601.94,2744.55,1683,2674.46Z" transform="translate(-447.15 -455)"/><path class="cls-44" d="M2438.76,2932.81c-2.93-.2,2.93,11.74-11.75,26.43s-29.37,29.37-32.31,47,17.62,14.69,32.31,5.88,32.31-29.37,41.12-44.06S2482.81,2935.74,2438.76,2932.81Z" transform="translate(-447.15 -455)"/><path class="cls-45" d="M2195,2577.43s55.81,258.45,249.65,364.19c0,0,5.88,8.81,20.56,0,0,0-2.94-99.86-38.18-158.6s-35.24-105.74-17.62-149.79S2195,2577.43,2195,2577.43Z" transform="translate(-447.15 -455)"/><path class="cls-46" d="M2503.37,2944.55s11.75,8.82,8.81,23.5-38.18,38.18-64.61,49.93-44.06-8.81-32.31-17.62a74.26,74.26,0,0,1,6.79-4.64,49.32,49.32,0,0,0,13.41-11.64l29.73-36.59Z" transform="translate(-447.15 -455)"/><path class="cls-47" d="M2365.33,2553.93s-47,73.42-26.43,161.54,126.29,237.9,126.29,237.9,19.09,8.81,36-5.88c0,0,11-23.5,16.89-70.49s-8.81-49.93-26.44-102.79,5.88-146.86,5.88-146.86Z" transform="translate(-447.15 -455)"/><path class="cls-48" d="M2591.48,1987.08c-97,40.71-154.46,96.52-185,132.17-33.73,39.34-67.87,80.36-58.74,129.23,5.62,30.1,26.57,57.33,52.87,70.49,59.64,29.84,147.39-12.42,179.16-70.49,9.24-16.91,11.32-30.72,11.74-173.29C2591.59,2039.66,2591.55,2009.55,2591.48,1987.08Z" transform="translate(-447.15 -455)"/><path class="cls-49" d="M2817.63,1990c-9.48-23.2-70.56-20.61-141-17.62-62.5,2.65-74.95,13.34-79.3,17.62-35.56,34.94-22.87,125.25,17.62,146.85C2680.91,2172,2835.12,2032.79,2817.63,1990Z" transform="translate(-447.15 -455)"/><path class="cls-50" d="M2855.82,2459.94c-6.6,45.53-23.94,70.54-41.12,85.18-43.76,37.28-87.9,8.52-182.1,44.05-29.3,11.06-86.89,32.78-94,73.43-3.9,22.33,9.91,37.26,0,49.93-13.49,17.23-53.87,11.76-82.24,0-56.43-23.4-58.7-68.92-94-70.49s-42.49,43.63-85.18,44.06c-31.17.3-38.85-23.68-82.24-26.44-32.14-2-39.7,10.39-52.86,2.94-30-17-20.09-98.34,0-152.73,8.75-23.69,25.82-69.9,70.49-105.73,57.6-46.21,104.44-29.69,199.71-64.61A507.5,507.5,0,0,0,2541.55,2269c25.26-.76,189-3.2,276.08,114.54A251.26,251.26,0,0,1,2855.82,2459.94Z" transform="translate(-447.15 -455)"/><path class="cls-51" d="M2469.6,2223.51c4.94-14.15,26.41-75.68,5.87-91-11.85-8.87-41-4.76-119.1,57.07,11.39-24.75,30.79-47.8,50.08-70.29,30.57-35.65,88.06-91.46,185-132.17.07,22.47.11,52.58,0,88.11-.42,142.57-2.5,156.38-11.74,173.29-30.84,56.35-114.39,97.81-173.81,72.93C2428.6,2299.56,2454.25,2267.48,2469.6,2223.51Z" transform="translate(-447.15 -455)"/><path class="cls-52" d="M2362.4,2568.61c57.42-5.56,96.84,46.95,138,26.44,38.15-19,15.83-69.75,52.86-129.23,55.51-89.16,165.91-72,205.79-138.6a246.74,246.74,0,0,1,58.54,56.36,251.26,251.26,0,0,1,38.19,76.36c-6.6,45.53-23.94,70.54-41.12,85.18-43.76,37.28-87.9,8.52-182.1,44.05-29.3,11.06-86.89,32.78-94,73.43-3.9,22.33,9.91,37.26,0,49.93-13.49,17.23-53.87,11.76-82.24,0-56.43-23.4-58.7-68.92-94-70.49s-42.49,43.63-85.18,44.06c-14.83.14-24.34-5.21-34.91-11.16C2286.5,2595.86,2328.3,2571.92,2362.4,2568.61Z" transform="translate(-447.15 -455)"/><path class="cls-53" d="M2885.19,2307.22c6.93,61.62-.32,79.67,17.62,105.73,20.35,29.56,45.26,29,49.93,52.87,5.16,26.42-20,54.28-38.18,67.55-44.82,32.72-105.22,14.87-146.86,2.94-36.24-10.39-141.1-40.44-164.47-117.48-13.29-43.84,4.89-86.08-8.81-91-8.64-3.14-17.05,13.25-55.8,44-33.39,26.54-47.83,8.54-59.57,11.3-13.34,3.13-38.23,8.21-52.52-2.4-14.76-11-15.51-11.2-11.27-29.46,9.24-39.77,69.1-29.61,102.8-76.36,9.08-12.6,12.91-53.43,20.56-135.1,3.37-36,5.38-68.7,20.56-111.61a346.94,346.94,0,0,1,14.68-35.24l44.06-14.69a291.5,291.5,0,0,0-5.88,73.43c.79,16.59,3.86,81.25,23.5,85.17,7,1.4,16-4.91,67.55-85.17,35.85-55.81,46.9-79.41,70.49-82.24,10.19-1.22,22.46,3.1,47,11.75a348.14,348.14,0,0,1,47,20.56c-18.11,14-42.35,37.65-47,70.49-5.17,36.58,18.7,51.27,41.12,120.42C2877.6,2241.74,2883,2288.18,2885.19,2307.22Z" transform="translate(-447.15 -455)"/><path class="cls-54" d="M2855.82,2533.37c-24.1-13.6-19.54-37.7-44.06-52.87-36.63-22.65-70,16.82-111.61,0-52.87-21.34-60.7-109.81-61.67-123.35-1.84-25.55-5.59-77.87,26.43-105.73,40.41-35.16,102.42-.6,123.35-32.31,11.87-18-6-32.21-2.93-76.36,2.2-32,15.6-82.88,44.61-98.68a85.12,85.12,0,0,0-9.37,28.19c-5.17,36.58,18.7,51.27,41.12,120.42,15.91,49.06,21.35,95.5,23.5,114.54,6.93,61.62-.32,79.67,17.62,105.73,20.35,29.56,45.26,29,49.93,52.87,5.16,26.42-20,54.28-38.18,67.55-1.4,1-2.82,2-4.25,2.92C2891.28,2541.52,2871.87,2542.43,2855.82,2533.37Z" transform="translate(-447.15 -455)"/><path class="cls-55" d="M2642.36,1936.64c27.54,9.81,23.88,25.19,49.19,34.2,21.25,7.56,53.73,7.38,69.09-11.6,14.21-17.56,8.61-44.85,8-47.78-4-18.16-13.63-22.63-11-33.61,3.69-15.42,24.56-14.21,28.7-29.16,3.84-13.88-8.76-34.46-24.48-39.46-16.95-5.39-26.62,10.77-47.08,5.15-12.62-3.46-11.51-10.32-25.76-14.4-20.23-5.79-38.17,3.53-40.52,4.8-4.34,2.34-18.36,9.9-23.66,25s2.62,24.56-3.63,30.44c-7.15,6.74-19-4.37-32.78,1.76-11.56,5.15-19.39,20.19-17.92,33.85,1.65,15.32,14.51,24.16,19.91,27.87C2608.56,1936.15,2619.46,1928.49,2642.36,1936.64Z" transform="translate(-447.15 -455)"/><path class="cls-56" d="M2650.22,1925.41c2.94,2.93,14.69,26.43,32.31,41.11,9.3,7.76,44.06,11.75,52.87,11.75s2.93,8.81-38.18,14.69-67.56,5.87-76.37-2.94c0,0,29.37-5.87,20.56-26.43S2650.22,1925.41,2650.22,1925.41Z" transform="translate(-447.15 -455)"/><path class="cls-57" d="M2657.09,1943.16s-8.65,17.23-27.28,13.73c-16.67-3.13-14-45.3-2.3-52,3.91-2.23,11.66-2.81,17.3-.47,4,1.65,15.52,12,12.23,26.24,3.78-1.81,7.45-1.35,8.66.48,1.52,2.31-1.28,6.26-1.92,7.16A13.48,13.48,0,0,1,2657.09,1943.16Z" transform="translate(-447.15 -455)"/><path class="cls-58" d="M2374.39,2360.7l246.59,12a10.33,10.33,0,0,1,8.28,4.86l6.83,11a8,8,0,0,1-7.11,12.23l-261.19-9.95Z" transform="translate(-447.15 -455)"/><path class="cls-59" d="M2117.91,2223.38l254.76,4.94a21.34,21.34,0,0,1,18.16,10.8l88.22,155.21L2210,2383.61a21.89,21.89,0,0,1-17.92-10.63l-81.73-136.55A8.62,8.62,0,0,1,2117.91,2223.38Z" transform="translate(-447.15 -455)"/><path class="cls-60" d="M2390.83,2239.12a21.34,21.34,0,0,0-18.16-10.8l-5.59-.11c-.83,8.22-3.35,15.74-8.38,21.82-15.71,19-41.81,7.26-61.26,27.33-21.37,22-1.63,48.28-20.74,68.8-20.1,21.59-52.62,4-90,17.83l5.38,9a21.89,21.89,0,0,0,17.92,10.63l269.05,10.72Z" transform="translate(-447.15 -455)"/><path class="cls-61" d="M2613,2349.54s-35.11-29.29-48.79-22.32-44.07,41.32-30.4,42.08,24.47-16.57,30.55-11.86,18.85,5.75,28.73,3.26,14.13,2.82,14.13,2.82Z" transform="translate(-447.15 -455)"/><path class="cls-62" d="M2969.81,2350.39c-58.69,82.36-148.82,97.42-166.11,99.94-2.95.44-5.91.8-8.79,1.09a215.37,215.37,0,0,1-43.29.4l-6.31-.65a212.93,212.93,0,0,1-51.58-12.84c-5.1-1.9-10-4-14.73-6.2-.11-.08-.26-.11-.37-.19-45.81-21.3-75.61-53.1-86.81-65.65a5.77,5.77,0,0,1,.62-8.32c6.06-5.07,7.22-7.8,15.18-13.75a5.43,5.43,0,0,1,3.13-1.13c50.16-2.59,118.07-15.35,178.62-60.29,24.88-18.42,60.11-44.57,58.69-78-.48-11.13-5-21.67-12.41-32.54s-17.9-22-30.3-34.39c0,0-68.8-89.07-2.92-129.82,18.27-11.3,36.91-13.24,54-10.5a108.23,108.23,0,0,1,20.39,5.51c1.31.54,2.62,1.13,3.9,1.71,2.63,1.17,5.25,2.45,7.92,3.76,1.31.66,2.62,1.31,4,2,2.56,1.39,5.15,2.81,7.74,4.31a2.39,2.39,0,0,1,.43.25c1.28.77,2.56,1.53,3.83,2.33s2.7,1.68,4,2.56c14.08,9.74,20.83,17.36,15.21,10.83,1.61,1.24,3.18,2.48,4.71,3.76s3.1,2.59,4.63,3.9,3.06,2.66,4.56,4,3,2.74,4.45,4.16c2.92,2.81,5.8,5.72,8.61,8.72s5.58,6,8.2,9.19,5.22,6.38,7.74,9.7c1.24,1.64,2.48,3.32,3.68,5s2.41,3.39,3.57,5.1,2.3,3.43,3.43,5.15a.25.25,0,0,1,.08.14c1,1.61,2,3.25,3.06,4.89a6.9,6.9,0,0,1,.47.77c1,1.64,2,3.31,2.92,5s2,3.54,3,5.36q5,9.3,9.19,19.15c1,2.3,1.94,4.63,2.81,7,.51,1.21,1,2.41,1.39,3.61.77,2,1.5,4.09,2.19,6.13,1.35,4,2.59,8.1,3.72,12.22.33,1.17.65,2.34.95,3.54.44,1.6.84,3.25,1.2,4.89a.44.44,0,0,1,.07.22c.52,2.15,1,4.3,1.43,6.45a4.45,4.45,0,0,1,.14.69c.4,2,.77,4,1.13,6.06.08.33.11.66.19,1,.25,1.57.51,3.1.69,4.67.22,1.28.4,2.56.55,3.83.29,2.15.54,4.38.76,6.57.44,4.41.77,8.86.95,13.31C3017.12,2274.48,2987,2326.28,2969.81,2350.39Z" transform="translate(-447.15 -455)"/><path class="cls-63" d="M2969.81,2350.39c-58.69,82.36-148.82,97.42-166.11,99.94-2.95.44-5.91.8-8.79,1.09a218.36,218.36,0,0,1-43.29.4l-6.31-.65a219.12,219.12,0,0,1-51.58-12.84q-7.61-2.91-14.73-6.2c-.11-.08-.26-.11-.37-.19,58.25,9.12,91.81-3,112.38-18.67,25-19.08,22.07-36.66,59.27-71.53,56.28-52.67,97.72-45.08,105.09-75.76,8.46-35.3-45.23-50.88-61.43-120.91-11.45-49.46,9.34-67.7-.11-100.23-4.37-15-14.77-31.52-37.42-47.31a108.23,108.23,0,0,1,20.39,5.51c1.31.54,2.59,1.09,3.9,1.71,2.63,1.17,5.25,2.45,7.92,3.76,1.31.66,2.62,1.31,4,2,2.56,1.39,5.15,2.81,7.74,4.31a2.39,2.39,0,0,1,.43.25c1.28.77,2.56,1.53,3.83,2.33s2.7,1.68,4,2.56c.48.29,1,.58,1.42.91,4.71,3.1,9.31,6.38,13.79,9.92,1.61,1.24,3.18,2.48,4.71,3.76s3.1,2.59,4.63,3.9,3.06,2.66,4.56,4,3,2.74,4.45,4.16c3,2.81,5.84,5.69,8.61,8.72s5.58,6,8.2,9.19,5.22,6.38,7.74,9.7c1.24,1.64,2.48,3.32,3.68,5s2.41,3.39,3.57,5.1,2.3,3.43,3.43,5.15a.25.25,0,0,1,.08.14c1,1.61,2,3.25,3.06,4.89a6.9,6.9,0,0,1,.47.77c1,1.64,2,3.31,2.92,5s2,3.54,3,5.36q5,9.3,9.19,19.15c1,2.3,1.94,4.63,2.81,7,.51,1.21,1,2.41,1.39,3.61.77,2,1.5,4.09,2.19,6.13,1.35,4,2.59,8.1,3.72,12.22.33,1.17.65,2.34.95,3.54.44,1.6.84,3.25,1.2,4.89a.44.44,0,0,1,.07.22c.52,2.15,1,4.3,1.43,6.45a4.45,4.45,0,0,1,.14.69c.4,2,.77,4,1.13,6.06.08.33.11.66.19,1,.25,1.57.51,3.1.69,4.67.22,1.28.4,2.56.55,3.83.29,2.15.54,4.38.76,6.57.44,4.41.77,8.86.95,13.31C3017.12,2274.48,2987,2326.28,2969.81,2350.39Z" transform="translate(-447.15 -455)"/><path class="cls-64" d="M976.31,1773.22c7.7,2.91,78,21,91.58,28.88,92.42,53.21,102.76,149.31,131.89,224.6,21.16,54.69,44.56,97.7,145.49,177.41-4.86,15.11-9.58,52.37-14.44,67.48-61.43-5.68-166.1-14.43-225.65-98.93-14.76-20.94-20.94-39.37-25.72-55C1061.87,2060,979.07,1941.21,976.31,1773.22Z" transform="translate(-447.15 -455)"/><path class="cls-65" d="M862.28,3122.62c-4.74,4.35-5,14.53-5.23,21.18-.09,3-.13,4.45.26,5.48,2.87,7.46,17.68,7.36,41,8.31,36.81,1.51,47.87,3.73,50.4-1.89,2.37-5.27-4.63-13.22-5.42-14.1-4.23-4.71-9.16-6.22-18.68-8.72-17.6-4.62-29.45-7-33-7.75C869.14,3120.59,865.39,3119.76,862.28,3122.62Z" transform="translate(-447.15 -455)"/><path class="cls-66" d="M888.1,3085.92l1.43,41.89c-1.15,2-13.86,7.34-23.43,1.63L858.88,3088Z" transform="translate(-447.15 -455)"/><path class="cls-67" d="M1172.31,3116.83c-6.33,6.28-8.34,18.36-3.46,24.62s12.71,2.16,34.45,4c23.3,1.94,29.1,7.78,45.19,4.25,6.5-1.43,18-5.12,18.07-9.7,0-3.23-5.65-5.2-24.55-12.67-26.81-10.61-26.67-11.1-32.41-12.37C1195.16,3111.74,1180.67,3108.54,1172.31,3116.83Z" transform="translate(-447.15 -455)"/><path class="cls-68" d="M1189.29,3079.57l9.62,39.55c-1,2.05-13.26,8.38-23.24,3.42l-15.36-38.71Z" transform="translate(-447.15 -455)"/><path class="cls-69" d="M1130.84,2221.44a3652.47,3652.47,0,0,0,69.09,870.06l-45.43,9.66c-36-37.34-80.82-95.49-99.68-175.3-11.7-49.53-5.6-74.34-11.47-134.81-9.35-96.28-36-147.88-62.11-226.51-23.49-70.66-50.21-173.95-60.19-310.64Z" transform="translate(-447.15 -455)"/><path class="cls-70" d="M1109.92,2833.27c-16.68-66-48.81-83.51-50-145.85-.81-44.1,15-47.7,14-89.91-1.59-64-39.09-97.59-57.94-137.86-19.9-42.53-27.52-110.85,26.11-224.48L921.05,2253.9c10,136.69,36.7,240,60.19,310.64,26.15,78.63,52.76,130.23,62.11,226.51,5.87,60.47-.23,85.28,11.47,134.81,18.86,79.8,63.68,138,99.68,175.3l11.55-2.45c-38.91-46.45-52.64-87.93-56.13-121.58C1104.24,2922.37,1126.73,2899.86,1109.92,2833.27Z" transform="translate(-447.15 -455)"/><path class="cls-71" d="M979.46,2213.26q-27,248.85-49.5,507.17-16.79,193.82-30,382.83l-46.06,3.21a533.38,533.38,0,0,1-41.14-125.71c-12.8-66.17-7-104.75-10.49-172.81-4-76.34-14.72-93.5-30.22-190.35-31.48-196.58-47.21-294.86,2.7-352.82C791,2246,841.12,2199.28,979.46,2213.26Z" transform="translate(-447.15 -455)"/><path class="cls-72" d="M729.67,1811.45c-48,43.29-55.76,103.38-63.46,163.28-12.86,100.09,9.66,198.13,17.42,231.9,11.35,49.45,21.47,70.62,17.09,111.17-5.43,50.34-27.57,78.41-12.59,99.63,10.24,14.5,31.06,16.26,68,16.38,80.4.28,105.64-8.85,164.82-10.32,38.88-1,82.78-2,138.92,9.77,45.12,9.5,78.28,23.15,108.26,5.9,21-12.08,29.87-33.2,32.15-38.77,14.36-34.95.8-70.79-4.67-86.24-7.44-21-19.86-101.54-44.68-262.59-7.28-47.24-11.9-85.27-29-139.93-12.15-38.78-18.23-58.16-29.6-73.82-50.47-69.5-155.72-70.72-193.46-71.16C847.14,1766,780.92,1765.27,729.67,1811.45Z" transform="translate(-447.15 -455)"/><path class="cls-73" d="M643.9,1845.7c-98.76,67.1-29.4,60.35-37.1,120.26-12.86,100.09,69.07,206.9,76.83,240.67,11.35,49.45,21.47,70.62,17.09,111.17-5.43,50.34-27.57,78.41-12.59,99.63,10.24,14.5,31.06,16.26,68,16.38,80.4.28,105.64-8.85,164.82-10.32,38.88-1,82.78-2,138.92,9.77,45.12,9.5,78.28,23.15,108.26,5.9,21-12.08,29.87-33.2,32.15-38.77,14.36-34.95.8-70.79-4.67-86.24-7.44-21-19.86-101.54-44.68-262.59-7.28-47.24-11.9-85.27-29-139.93-12.15-38.78-18.23-58.16-29.6-73.82-50.47-69.5-155.72-70.72-193.46-71.16C847.14,1766,782.73,1751.37,643.9,1845.7Z" transform="translate(-447.15 -455)"/><path class="cls-74" d="M1190.56,2294.51a290,290,0,0,1-64.32-47.52c-73.47-72.22-71.38-149.33-141.57-173.62-67.72-23.43-111.22,34-164.82,10.32-28.22-12.44-77.69-134.28-96.29-266.39-42.58,42.77-50,100.17-57.35,157.43-12.86,100.09,9.66,198.13,17.42,231.9,11.35,49.45,21.47,70.62,17.09,111.17-5.43,50.34-27.57,78.41-12.59,99.63,10.24,14.5,31.06,16.26,68,16.38,80.4.28,105.64-8.85,164.82-10.32,38.88-1,82.78-2,138.92,9.77,45.12,9.5,78.28,23.15,108.26,5.9,21-12.08,29.87-33.2,32.15-38.77,14.36-34.95.8-70.79-4.67-86.24A173.38,173.38,0,0,1,1190.56,2294.51Z" transform="translate(-447.15 -455)"/><path class="cls-75" d="M864.29,1707.35c3.26,20.8,5,34.73-.45,43.7-3.62,5.92-10,11.22-54.07,23.17-23,6.22-27.07,6.37-27,7.73.14,5.36,64.29,8.35,127.46,0,0,0,38.75-5.13,38.63-11.59-.1-5.23-27.18-2.52-38.63-19.31-10.36-15.21,1-33.36-7.72-38.63C895.09,1708,862.14,1693.7,864.29,1707.35Z" transform="translate(-447.15 -455)"/><path class="cls-55" d="M937.89,1679.09c9.84-12.32,11.6-36.19-1.3-47.82-7.64-6.89-20.27-9.35-29.64-5.47-10.39,4.29-9.68,13.43-20.57,17.06-8.81,2.93-11.77-2.22-23.18,0-3,.58-15.58,3-21.44,12.69-8.2,13.54,4.14,31.33,8.85,41.48,2.33,5,6.65,6.6,10.63,10.31,5.5,5.13,14.11,13.3,28.15,27A91.37,91.37,0,0,1,895,1719a85.86,85.86,0,0,1,11.61-18.2C919.61,1685.82,929.34,1689.79,937.89,1679.09Z" transform="translate(-447.15 -455)"/><path class="cls-76" d="M869.25,1723.18A50.67,50.67,0,0,0,894.16,1741c6.24,2,14.09,5,22,2.19,15.47-5.41,19.29-27.94,20.44-34.7,4.39-25.9-6-53.44-15.45-54.08-4.41-.29-5.61,5.41-15.45,7.73a36,36,0,0,1-15.45,0c-6.26-1.59-7.44-4.09-11.59-3.86-6.26.34-10.64,6.41-11.58,7.72-6.39,8.84-4.13,24,4.91,38.48-5.31-4.81-11.74-6.46-16.33-4.28a10.08,10.08,0,0,0-3.8,3.54C847.82,1710.62,854.3,1718.87,869.25,1723.18Z" transform="translate(-447.15 -455)"/><path class="cls-55" d="M937.63,1701.76s-1,18.34-8.77,14.48-15.44-7.72-23.17,0-40.8-24.46-40.8-24.46l-5.55,5.15s15.45,7.73,15.45,15.45,14.37,32.74,19.31,42.49c6,11.87,34.42,28.71,50.21-7.73C949.85,1734.36,937.63,1701.76,937.63,1701.76Z" transform="translate(-447.15 -455)"/><path class="cls-77" d="M931.45,1723.52s-14.81,7.93-27.5,3.43C904,1727,923.52,1742,931.45,1723.52Z" transform="translate(-447.15 -455)"/><polygon class="cls-78" points="733.5 1777.7 349.15 1771.97 451.35 1821.29 734.48 1802.76 733.5 1777.7"/><path class="cls-79" d="M782.73,2237.18h0A17.12,17.12,0,0,0,794,2253.26L916.8,2301.4l.56-33.37L796.3,2227A10.62,10.62,0,0,0,782.73,2237.18Z" transform="translate(-447.15 -455)"/><path class="cls-80" d="M841.92,2214.44c-2.36-.53,11.49-28.12,22.36-24.94s64.05,34,68.89,46.7l4.83,12.69s-23.2,1.81-37.58-3S861.1,2218.72,841.92,2214.44Z" transform="translate(-447.15 -455)"/><path class="cls-81" d="M927.56,2033.83,900.47,2280.5c-.94,8.51,11,21.19,19.53,20.79l397.44-24.4a13.93,13.93,0,0,0,13.07-11.56l49.89-238.24c1.48-8.67-14.1-17.63-22.9-17.38L941,2021.42A13.93,13.93,0,0,0,927.56,2033.83Z" transform="translate(-447.15 -455)"/><path class="cls-82" d="M936.64,2041l-27.09,246.67a13.93,13.93,0,0,0,14.51,15.44l402.46-19.05a13.94,13.94,0,0,0,13.08-11.56l41.11-239.33a13.93,13.93,0,0,0-14.12-16.29L950.1,2028.61A13.94,13.94,0,0,0,936.64,2041Z" transform="translate(-447.15 -455)"/><path class="cls-83" d="M1173,2226.28c-35.14-14.89-22.74-43.3-64.24-78.69C1054,2100.9,998.19,2121.15,978.65,2085c-6.08-11.27-9-28.81,1.61-57.2l-30.16.85A13.94,13.94,0,0,0,936.64,2041l-27.09,246.67a13.94,13.94,0,0,0,14.51,15.44l402.46-19.05a13.94,13.94,0,0,0,13.08-11.56l5.67-33a151.73,151.73,0,0,0-43.83-16.43C1242.4,2211.09,1213.43,2243.43,1173,2226.28Z" transform="translate(-447.15 -455)"/><path class="cls-84" d="M1351.9,2249a2.69,2.69,0,0,0-2.42-3.55c-7.28-.37-24.18-.52-33.51,5.19-12.12,7.43-27.79,21-14.59,27.81l12.32,6.38a2.68,2.68,0,0,0,1.8.25c4.38-1,22.81-5.05,24.82-6.07C1342.16,2278.05,1349.18,2257.2,1351.9,2249Z" transform="translate(-447.15 -455)"/><path class="cls-85" d="M769.37,1827.82c-31.68-26-95.37,3.44-112.4,11.31C562,1883.05,476.78,2001.4,497.9,2126.47c3.17,18.76,17.86,106.49,92.15,149,67,38.36,157.54,28.49,230.07-25.83q14.85-13.2,29.73-26.39l29.25-31.62a235,235,0,0,0-77.94-42.94c-48.22-15.56-83.33,12.36-105.7-8.87-15.44-14.64-15.48-40.52-11.67-56.2,7.69-31.61,35.55-40.49,58.8-62.93C797.23,1968,807.29,1859,769.37,1827.82Z" transform="translate(-447.15 -455)"/></g></g></svg>