<svg xmlns="http://www.w3.org/2000/svg" xmlns:xlink="http://www.w3.org/1999/xlink" viewBox="0 0 2942.43 2800"><defs><style>.cls-1{fill:none;}.cls-2{fill:#d8dee8;}.cls-3{isolation:isolate;}.cls-4{fill:#f4f7fa;}.cls-5{fill:url(#linear-gradient);}.cls-6{clip-path:url(#clip-path);}.cls-7{opacity:0.8;}.cls-25,.cls-7{mix-blend-mode:soft-light;}.cls-8{fill:#fff;}.cls-9{clip-path:url(#clip-path-2);}.cls-10{fill:url(#linear-gradient-2);}.cls-11{fill:url(#linear-gradient-3);}.cls-12,.cls-27,.cls-41{opacity:0.3;}.cls-12,.cls-16,.cls-27,.cls-31,.cls-36,.cls-41,.cls-43,.cls-48{mix-blend-mode:multiply;}.cls-12{fill:url(#linear-gradient-4);}.cls-13{fill:url(#linear-gradient-5);}.cls-14{fill:url(#linear-gradient-6);}.cls-15{fill:url(#linear-gradient-7);}.cls-16{opacity:0.2;}.cls-17{fill:url(#linear-gradient-8);}.cls-18{fill:url(#linear-gradient-9);}.cls-19{fill:url(#linear-gradient-10);}.cls-20{fill:url(#linear-gradient-11);}.cls-21{fill:url(#linear-gradient-12);}.cls-22{fill:url(#linear-gradient-13);}.cls-23{fill:url(#linear-gradient-14);}.cls-24{fill:url(#linear-gradient-15);}.cls-25,.cls-36,.cls-43,.cls-48{opacity:0.4;}.cls-26{fill:url(#linear-gradient-16);}.cls-27{fill:url(#linear-gradient-17);}.cls-28{fill:url(#linear-gradient-18);}.cls-29{fill:url(#linear-gradient-19);}.cls-30{fill:url(#linear-gradient-20);}.cls-31{opacity:0.25;fill:url(#linear-gradient-21);}.cls-32{fill:url(#linear-gradient-22);}.cls-33{fill:url(#linear-gradient-23);}.cls-34{fill:url(#linear-gradient-24);}.cls-35{fill:url(#linear-gradient-25);}.cls-36{fill:url(#linear-gradient-26);}.cls-37{fill:url(#linear-gradient-27);}.cls-38{fill:url(#linear-gradient-28);}.cls-39{fill:url(#linear-gradient-29);}.cls-40{fill:url(#linear-gradient-30);}.cls-41{fill:url(#linear-gradient-31);}.cls-42{fill:url(#linear-gradient-32);}.cls-43{fill:url(#linear-gradient-33);}.cls-44{fill:url(#linear-gradient-34);}.cls-45{fill:url(#linear-gradient-35);}.cls-46{fill:url(#linear-gradient-36);}.cls-47{fill:url(#linear-gradient-37);}.cls-48{fill:url(#linear-gradient-38);}</style><linearGradient id="linear-gradient" x1="67.86" y1="1533.62" x2="1047.76" y2="1533.62" gradientTransform="translate(-100.71 604.65) rotate(-20.74)" gradientUnits="userSpaceOnUse"><stop offset="0" stop-color="#ff9085"/><stop offset="1" stop-color="#fb6fbb"/></linearGradient><clipPath id="clip-path" transform="translate(-334.26 -455)"><path class="cls-1" d="M1340.7,2008.65c-45.44-313.15-102-1248-619.73-1008.28-333.38,154.37,6.11,370.85-186.73,551.16s-121.07,468.9,317,709.44,880.8,225.29,880.8,225.29S1386.14,2321.8,1340.7,2008.65Z"/></clipPath><clipPath id="clip-path-2" transform="translate(-334.26 -455)"><path class="cls-2" d="M1485,2609.45c-105.28-161.72-98.76-227.49-241-454.56C1083.52,1898.74,986.1,1749,808.43,1750.47c-121.13,1-263.38,72.07-324.91,164.49-103,154.66,27.9,357.32,72.61,426.58,74.94,116.06,151.09,151.41,147.42,260-3.1,91.62-59,115.93-60.13,184.48-3.17,194.59,442.85,279.15,515.05,292.84,282.92,53.64,556,17.21,764.45-34.73C1694.2,2889.05,1563.14,2729.48,1485,2609.45Z"/></clipPath><linearGradient id="linear-gradient-2" x1="1927.59" y1="263.25" x2="2559.63" y2="869.6" gradientUnits="userSpaceOnUse"><stop offset="0" stop-color="#ab316d"/><stop offset="1" stop-color="#792d3d"/></linearGradient><linearGradient id="linear-gradient-3" x1="2456.46" y1="215" x2="1727.76" y2="1309.76" gradientUnits="userSpaceOnUse"><stop offset="0" stop-color="#ffc444"/><stop offset="1" stop-color="#f36f56"/></linearGradient><linearGradient id="linear-gradient-4" x1="2491.45" y1="181.71" x2="2272.53" y2="487.86" xlink:href="#linear-gradient-3"/><linearGradient id="linear-gradient-5" x1="2078.11" y1="-168.36" x2="2408.02" y2="714.27" xlink:href="#linear-gradient-3"/><linearGradient id="linear-gradient-6" x1="1879.36" y1="1571.01" x2="2536.31" y2="-199.63" gradientUnits="userSpaceOnUse"><stop offset="0" stop-color="#ebeff2"/><stop offset="1" stop-color="#fff"/></linearGradient><linearGradient id="linear-gradient-7" x1="2876.06" y1="632.5" x2="2485.27" y2="1418.51" xlink:href="#linear-gradient-3"/><linearGradient id="linear-gradient-8" x1="2112.39" y1="101.37" x2="2532.11" y2="883.83" gradientTransform="matrix(1, 0, 0, 1, 0, 0)" xlink:href="#linear-gradient"/><linearGradient id="linear-gradient-9" x1="2483.83" y1="536.42" x2="2903.56" y2="1318.88" gradientTransform="matrix(1, 0, 0, 1, 0, 0)" xlink:href="#linear-gradient"/><linearGradient id="linear-gradient-10" x1="2329.9" y1="619" x2="2749.63" y2="1401.45" gradientTransform="matrix(1, 0, 0, 1, 0, 0)" xlink:href="#linear-gradient"/><linearGradient id="linear-gradient-11" x1="1441.31" y1="1846.43" x2="975.36" y2="1897.26" gradientUnits="userSpaceOnUse"><stop offset="0" stop-color="#444b8c"/><stop offset="1" stop-color="#26264f"/></linearGradient><linearGradient id="linear-gradient-12" x1="1851.85" y1="671.92" x2="699.7" y2="4594.32" xlink:href="#linear-gradient-11"/><linearGradient id="linear-gradient-13" x1="714.35" y1="478.99" x2="2067.63" y2="1703.39" gradientUnits="userSpaceOnUse"><stop offset="0" stop-color="#aa80f9"/><stop offset="1" stop-color="#6165d7"/></linearGradient><linearGradient id="linear-gradient-14" x1="826.1" y1="1288.34" x2="2143.77" y2="2480.53" xlink:href="#linear-gradient-13"/><linearGradient id="linear-gradient-15" x1="938.35" y1="2092.11" x2="2218.06" y2="3249.94" xlink:href="#linear-gradient-13"/><linearGradient id="linear-gradient-16" x1="2980.49" y1="1381.98" x2="2746.2" y2="2529.43" gradientTransform="matrix(1, 0, 0, 1, 0, 0)" xlink:href="#linear-gradient"/><linearGradient id="linear-gradient-17" x1="2698.4" y1="1694.87" x2="3069.49" y2="2030.62" gradientTransform="matrix(1, 0, 0, 1, 0, 0)" xlink:href="#linear-gradient"/><linearGradient id="linear-gradient-18" x1="609.91" y1="3189.16" x2="683.8" y2="3189.16" gradientTransform="matrix(-1, -0.05, -0.05, 1, 3470.46, 20.4)" xlink:href="#linear-gradient-13"/><linearGradient id="linear-gradient-19" x1="751" y1="3210.62" x2="824.89" y2="3210.62" gradientTransform="matrix(-1, -0.05, -0.05, 1, 3470.46, 20.4)" xlink:href="#linear-gradient-13"/><linearGradient id="linear-gradient-20" x1="489" y1="2658.91" x2="938.21" y2="2658.91" gradientTransform="matrix(-1, -0.05, -0.05, 1, 3470.46, 20.4)" xlink:href="#linear-gradient-11"/><linearGradient id="linear-gradient-21" x1="547.15" y1="2660.35" x2="981.09" y2="2660.35" gradientTransform="matrix(-1, 0.07, 0.07, 1, 3226.02, -76.94)" xlink:href="#linear-gradient-11"/><linearGradient id="linear-gradient-22" x1="2850.93" y1="2226.53" x2="2008.05" y2="1782.35" gradientTransform="matrix(-0.97, 0.25, 0.25, 0.97, 4268.38, -821.98)" gradientUnits="userSpaceOnUse"><stop offset="0" stop-color="#311944"/><stop offset="1" stop-color="#6b3976"/></linearGradient><linearGradient id="linear-gradient-23" x1="2841.57" y1="2244.7" x2="1998.57" y2="1800.46" xlink:href="#linear-gradient-22"/><linearGradient id="linear-gradient-24" x1="2679.49" y1="2308.49" x2="2119.74" y2="1676.11" gradientTransform="matrix(1, 0, 0, 1, 0, 0)" xlink:href="#linear-gradient"/><linearGradient id="linear-gradient-25" x1="2427.57" y1="1627.8" x2="2441" y2="1270.14" gradientTransform="matrix(1, 0.09, -0.09, 1, 362.45, -81.79)" xlink:href="#linear-gradient-3"/><linearGradient id="linear-gradient-26" x1="721.9" y1="1700.51" x2="732.9" y2="1407.61" gradientTransform="matrix(-1, 0, 0, 1, 3364.65, 0)" xlink:href="#linear-gradient-3"/><linearGradient id="linear-gradient-27" x1="750.54" y1="1779.8" x2="746.92" y2="2071.55" gradientTransform="matrix(0.97, -0.25, 0.26, 1.01, 1478.64, -154.4)" xlink:href="#linear-gradient-3"/><linearGradient id="linear-gradient-28" x1="2869.46" y1="2191.37" x2="2026.62" y2="1747.21" xlink:href="#linear-gradient-22"/><linearGradient id="linear-gradient-29" x1="582.53" y1="319.82" x2="540.86" y2="260.64" gradientTransform="matrix(0.23, -0.97, -0.8, -0.19, 3179.12, 2455.27)" xlink:href="#linear-gradient-11"/><linearGradient id="linear-gradient-30" x1="501.93" y1="427.94" x2="601.17" y2="226.36" gradientTransform="matrix(0.23, -0.97, -0.8, -0.19, 3179.12, 2455.27)" gradientUnits="userSpaceOnUse"><stop offset="0" stop-color="#311944"/><stop offset="1" stop-color="#893976"/></linearGradient><linearGradient id="linear-gradient-31" x1="445.75" y1="295.04" x2="662.17" y2="295.04" xlink:href="#linear-gradient-30"/><linearGradient id="linear-gradient-32" x1="3010.25" y1="1734.16" x2="3210.87" y2="1915.67" xlink:href="#linear-gradient-3"/><linearGradient id="linear-gradient-33" x1="1979.82" y1="1774.21" x2="2851.48" y2="2562.85" gradientTransform="matrix(1, 0, 0, 1, 0, 0)" xlink:href="#linear-gradient"/><linearGradient id="linear-gradient-34" x1="2729.9" y1="1952.36" x2="2527.19" y2="2359.59" xlink:href="#linear-gradient-3"/><linearGradient id="linear-gradient-35" x1="2576.53" y1="1676.36" x2="2859.06" y2="3490.86" gradientTransform="matrix(1, 0, 0, 1, 0, 0)" xlink:href="#linear-gradient"/><linearGradient id="linear-gradient-36" x1="3067.66" y1="1449.07" x2="3041.35" y2="1732.52" xlink:href="#linear-gradient-3"/><linearGradient id="linear-gradient-37" x1="2965.5" y1="1575.21" x2="3278.66" y2="1291.02" xlink:href="#linear-gradient-3"/><linearGradient id="linear-gradient-38" x1="2903.19" y1="1523.77" x2="3165.46" y2="1523.77" xlink:href="#linear-gradient-3"/></defs><title>pinterest-marketing</title><g class="cls-3"><g id="Illustration"><path class="cls-4" d="M3155.82,1255.06c74.92-682.42-586.68-919.5-1055.71-744.77-472.83,176.14-582.44-115.85-1247.32-32.42C179.57,562.34,521.38,1619.12,521.38,1619.12s107.12,918.94,234,1342.52c126.22,421.29,1334.43,268.87,1628.34,256.3,292.22-12.5,546.15,11.62,800.4-451C3437.93,2305.27,3081.14,1935.22,3155.82,1255.06Z" transform="translate(-334.26 -455)"/><path class="cls-5" d="M1340.7,2008.65C1295.26,1695.5,1231.91,746.5,721,1000.37c-343.82,170.83,6.11,370.85-186.73,551.16s-121.07,468.9,317,709.44,880.8,225.29,880.8,225.29S1386.14,2321.8,1340.7,2008.65Z" transform="translate(-334.26 -455)"/><g class="cls-6"><g class="cls-7"><path class="cls-8" d="M1798.58,2498.76a4.46,4.46,0,0,1-2,.26c-691.28-70.53-842.51-707.89-932.87-1088.7-10.63-44.78-20.66-87.07-30.49-123.6-47-174.62-114.52-248.27-162.94-279.31-52-33.37-93.65-25.85-94.07-25.77a4.38,4.38,0,0,1-1.69-8.6c1.81-.36,44.9-8.34,99.78,26.53,50,31.74,119.54,106.93,167.39,284.87,9.86,36.66,19.91,79,30.55,123.86,89.82,378.53,240.16,1012.09,925.23,1082a4.39,4.39,0,0,1,1.11,8.47Z" transform="translate(-334.26 -455)"/><path class="cls-8" d="M923.19,1625.42a4.36,4.36,0,0,1-4.18-.58c-.73-.54-74-54.61-171.77-92.58-89.75-34.84-219.19-62.87-326.11,1.49a4.39,4.39,0,0,1-4.52-7.52c87.08-52.42,202.58-53.13,334-2.07,98.85,38.41,172.91,93.1,173.65,93.65a4.39,4.39,0,0,1,.9,6.13A4.33,4.33,0,0,1,923.19,1625.42Z" transform="translate(-334.26 -455)"/><path class="cls-8" d="M1086.36,2033.16a4.39,4.39,0,0,1-3.67-.26c-.92-.51-93-50.91-215.79-79.9-112.94-26.66-275.78-40.16-410.17,47a4.39,4.39,0,1,1-4.77-7.36c137.05-88.86,302.51-75.21,417.17-48.11,123.92,29.29,216.88,80.2,217.8,80.71a4.38,4.38,0,0,1-.57,7.94Z" transform="translate(-334.26 -455)"/><path class="cls-8" d="M868.08,1411.81a4.32,4.32,0,0,1-2.45.19,4.38,4.38,0,0,1-3.39-5.19c.19-.9,19.45-90.93,68.07-185.17C995,1096.34,1082,1020.38,1181.91,1002a4.39,4.39,0,1,1,1.59,8.63c-122.73,22.59-201.14,129.33-245.3,214.88-48.12,93.21-67.19,182.24-67.38,183.13A4.38,4.38,0,0,1,868.08,1411.81Z" transform="translate(-334.26 -455)"/><path class="cls-8" d="M1019.74,1900.72a4.39,4.39,0,0,1-5.88-4.78c.16-1,17-106.27,69.56-205.62,31-58.58,68.14-103.75,110.44-134.27,53.11-38.31,114.4-53.46,182.16-45a4.38,4.38,0,1,1-1.09,8.7c-119.14-14.82-214.61,44-283.75,174.7-51.87,98.07-68.49,201.84-68.65,202.88A4.4,4.4,0,0,1,1019.74,1900.72Z" transform="translate(-334.26 -455)"/><path class="cls-8" d="M1230.24,2233.7a4.39,4.39,0,0,1-5.89-4.78c.17-1.05,17-106.27,69.57-205.63,31-58.58,68.13-103.75,110.43-134.26,53.11-38.31,114.4-53.47,182.16-45a4.39,4.39,0,0,1-1.08,8.71c-119.15-14.83-214.61,44-283.76,174.69-51.87,98.08-68.49,201.85-68.65,202.88A4.39,4.39,0,0,1,1230.24,2233.7Z" transform="translate(-334.26 -455)"/></g></g><path class="cls-2" d="M1485,2609.45c-105.28-161.72-98.76-227.49-241-454.56C1083.52,1898.74,986.1,1749,808.43,1750.47c-121.13,1-263.38,72.07-324.91,164.49-103,154.66,27.9,357.32,72.61,426.58,74.94,116.06,151.09,151.41,147.42,260-3.1,91.62-59,115.93-60.13,184.48-3.17,194.59,442.85,279.15,515.05,292.84,282.92,53.64,556,17.21,764.45-34.73C1694.2,2889.05,1563.14,2729.48,1485,2609.45Z" transform="translate(-334.26 -455)"/><g class="cls-9"><g class="cls-7"><path class="cls-8" d="M1967.18,3057a4.4,4.4,0,0,1-.8-.07c-245.54-40.45-471.77-130.2-672.39-266.77-160.47-109.24-305-248.5-429.57-413.9-212.06-281.56-293.78-545-294.58-547.68a4.9,4.9,0,1,1,9.38-2.86c.79,2.62,82.13,264.71,293.25,544.93C1067.15,2629,1415.25,2956.16,1968,3047.21a4.9,4.9,0,0,1-.79,9.74Z" transform="translate(-334.26 -455)"/><path class="cls-8" d="M875.49,2387.6a4.9,4.9,0,0,1-4.3-7.24c1.31-2.43,131.41-246.77,103.55-583.27a4.9,4.9,0,0,1,9.77-.8c28.11,339.54-103.38,586.29-104.71,588.75A4.91,4.91,0,0,1,875.49,2387.6Z" transform="translate(-334.26 -455)"/><path class="cls-8" d="M859,2386.88c-27.57,0-85.92-2.23-159.3-17.63C605,2349.38,465.07,2302.88,336,2194.19a4.9,4.9,0,0,1,6.32-7.5c127.39,107.28,265.56,153.24,359,172.9,101.4,21.32,173.59,17.18,174.3,17.14a4.9,4.9,0,1,1,.61,9.78C876.06,2386.52,870,2386.88,859,2386.88Z" transform="translate(-334.26 -455)"/><path class="cls-8" d="M964.21,2765.09c-117,0-298.94-33.79-552.25-172.78a4.9,4.9,0,0,1,4.71-8.6c283.36,155.48,476.14,178.34,588,170.14,120.82-8.87,175.57-54.9,176.11-55.37a4.9,4.9,0,0,1,6.41,7.42c-2.27,2-57.09,48.32-180.71,57.64C993.45,2764.52,979.37,2765.09,964.21,2765.09Z" transform="translate(-334.26 -455)"/><path class="cls-8" d="M773.06,3237.77a4.9,4.9,0,0,1-.48-9.78c322.33-32.46,494.26-123.15,581.74-193.53,94.09-75.69,112.74-144,112.92-144.7a4.9,4.9,0,0,1,9.49,2.47c-.76,2.91-19.67,72.17-116.27,149.87-88.51,71.21-262.18,163-586.9,195.65A4.18,4.18,0,0,1,773.06,3237.77Z" transform="translate(-334.26 -455)"/><path class="cls-8" d="M1207.66,2725.92a4.91,4.91,0,0,1-3.54-8.3c.46-.48,46.07-48.62,78.15-140.69,29.6-85,53.41-225.88-1.28-414.53a4.9,4.9,0,1,1,9.41-2.73c55.5,191.42,31.14,334.62.93,421-32.83,93.91-78.23,141.73-80.14,143.72A4.92,4.92,0,0,1,1207.66,2725.92Z" transform="translate(-334.26 -455)"/></g></g><path class="cls-10" d="M2936.4,891.84c.46,208.07-110.14,377.87-307.1,383.45-3.05.09-53.31,0-56.38,0-201.21.49-364.69-170.39-365.16-381.68s162.27-383,363.47-383.45c4.71,0,48.87.42,53.54.6C2819.48,518,2935.94,685.49,2936.4,891.84Z" transform="translate(-334.26 -455)"/><ellipse class="cls-11" cx="2305.93" cy="441.15" rx="364.32" ry="382.57"/><ellipse class="cls-12" cx="2305.93" cy="441.15" rx="355.14" ry="372.93"/><ellipse class="cls-13" cx="2305.93" cy="441.15" rx="344.42" ry="361.67"/><ellipse class="cls-14" cx="2298.57" cy="441.15" rx="337.06" ry="353.94"/><path class="cls-15" d="M2668.41,886l256.75,99.56A312.26,312.26,0,0,0,2938,896.51c0-159.72-119.42-290.15-269.62-298.2Z" transform="translate(-334.26 -455)"/><g class="cls-16"><path class="cls-2" d="M2548.2,888.12c-26.66-86.33,69.71-148.63,54.52-249.25-6.71-44.4-32.8-80.78-64.88-110-151.7,46.54-262.35,193.85-262,368.13.47,211.29,164,382.17,365.16,381.68a348.16,348.16,0,0,0,139.22-29.32c-6.21-122.1-43.67-191.08-83.5-232.63C2635.36,952.71,2568.52,953.94,2548.2,888.12Z" transform="translate(-334.26 -455)"/></g><ellipse class="cls-17" cx="2297.62" cy="446.69" rx="21.43" ry="22.5"/><path class="cls-18" d="M2631.88,722.35c-7.48,0-13.54,6.37-13.54,14.22v151.7c0,7.85,6.06,14.22,13.54,14.22s13.54-6.37,13.54-14.22V736.57C2645.42,728.72,2639.36,722.35,2631.88,722.35Z" transform="translate(-334.26 -455)"/><path class="cls-19" d="M2630.39,905h0a7.65,7.65,0,0,0-11.18-.64l-182.37,175.22a8.62,8.62,0,0,0-.61,11.75,7.66,7.66,0,0,0,11.18.64l182.37-175.23A8.6,8.6,0,0,0,2630.39,905Z" transform="translate(-334.26 -455)"/><path class="cls-20" d="M1997.67,672.49l283.87,2359.42c4.25,35.37-20.13,67.08-54.29,70.47l-1182.32,129.8c-72.43,4.51-112.08-32.49-116.55-70.11l-298-2508.45c-4.44-37.41,31.09-71.29,103.83-71.29l1193.08,25.13C1961.8,608,1993.44,637.3,1997.67,672.49Z" transform="translate(-334.26 -455)"/><path class="cls-21" d="M2050.89,668.43l285.42,2371.22c4.28,35.55-20.19,67.43-54.47,70.84l-1225.74,122c-38.43,3.82-73.64-24-78.14-61.79L678.26,649.33c-4.46-37.6,23.76-67.83,62.61-67.17L1980.2,603.07C2014.86,603.65,2046.63,633.07,2050.89,668.43Z" transform="translate(-334.26 -455)"/><path class="cls-2" d="M2027.63,799.23l264.55,2198.58c4,33.22-18.92,62.94-51,66.06L1088.41,3175.93c-35.73,3.47-68.46-22.48-72.65-57.67l-277-2329.2c-4.17-35,22-63.34,58.12-63l1164.6,12.4C1993.94,738.85,2023.65,766.17,2027.63,799.23Z" transform="translate(-334.26 -455)"/><path class="cls-8" d="M1409.45,666.8c1.51,12.63-7.54,22.73-20.24,22.57s-24.26-10.54-25.77-23.19,7.58-22.75,20.29-22.57S1407.94,654.18,1409.45,666.8Z" transform="translate(-334.26 -455)"/><path class="cls-22" d="M1924.61,779.3,866,766.14c-15.67-.19-26.83,12.71-24.9,28.82l79.19,663.27c1.92,16,16.1,28.73,31.66,28.39l1051.5-23.23c14-.31,23.94-12.86,22.19-28l-72.3-628.11C1951.55,792,1938.71,779.48,1924.61,779.3Z" transform="translate(-334.26 -455)"/><path class="cls-23" d="M2013.56,1551.39,963,1579.29c-15.54.41-26.61,13.73-24.7,29.74l79.16,663c1.9,15.92,16,28.06,31.41,27.11l1043.49-64c13.9-.86,23.75-13.78,22-28.86l-72.29-628C2040.31,1563,2027.56,1551,2013.56,1551.39Z" transform="translate(-334.26 -455)"/><path class="cls-24" d="M2102,2318.89l-1042.62,68.46c-15.43,1-26.41,14.73-24.51,30.64l78.66,658.81c1.89,15.82,15.86,27.4,31.18,25.86L2180.28,2998.5c13.8-1.38,23.58-14.66,21.85-29.66l-71.86-624.3C2128.53,2329.46,2115.88,2318,2102,2318.89Z" transform="translate(-334.26 -455)"/><path class="cls-8" d="M1292.35,1047.76c6.62,56.25,84.57,189.29,138.48,275.75,22.38,35.88,70.27,37.53,84.35,3,33.84-83.13,80.71-211,74.18-266.91-10.07-86.4-84.53-159.29-166.51-162.77C1340.64,893.3,1282.12,960.91,1292.35,1047.76Zm69,2.74c-5.47-46.57,25.89-82.85,70-81s84.07,40.94,89.49,87.37-25.78,82.68-69.76,81S1366.86,1097.05,1361.39,1050.5Z" transform="translate(-334.26 -455)"/><path class="cls-8" d="M1412.33,1812.84l30,254.93c1.92,16.35,16.28,25.87,26.74,17.77l184.86-142.9c11.42-8.82,8.69-32.22-4.57-39.15l-214.88-112.23C1422.3,1784.89,1410.4,1796.46,1412.33,1812.84Z" transform="translate(-334.26 -455)"/><path class="cls-8" d="M1554,2935.75l2.65-112-48.85,5.32-6.71-57,58.49-6,1.48-69.78-51.15,4.78-6.77-57.52,59.58-5.15,2.38-108,52.75-3.86-2.3,107.3,53.32-4.61,2.79-106.63,51.38-3.76-2.7,105.94,45.72-3.94,6.49,55.69-53.71,5-1.31,68.43,47.51-4.85,6.43,55.15-56.1,6.11-1.78,109.74-52.31,6.41,1.87-110.46-53.49,5.83-2,111.2Zm112-180.45,1.37-68.87-53.37,5-1.43,69.32Z" transform="translate(-334.26 -455)"/><g class="cls-25"><path class="cls-8" d="M1828.33,2275.06c-236-436.33-588.54-566.93-694.69-1016.61-57.37-243.07-18.28-475.72,47.56-668.86l-440.33-7.43c-38.85-.66-67.07,29.57-62.61,67.17L978,3170.74c4.49,37.81,39.71,65.61,78.14,61.79l963.55-95.94C2026.78,2745.63,1933.52,2469.55,1828.33,2275.06Z" transform="translate(-334.26 -455)"/></g><path class="cls-26" d="M3093.1,1861.7c-4.06,24.83-20.69,108.83-85.17,143.79-105.53,57.23-290.23-46.91-314.29-184.16-.18-.95-.37-1.89-.5-2.84-16.81-105.93,64.17-220,108.91-213.45,56.19,8.2,30.82,202.91,141.44,259.1,44.43,22.53,95.13,14.82,134,2.79C3083,1865.26,3088.14,1863.51,3093.1,1861.7Z" transform="translate(-334.26 -455)"/><path class="cls-27" d="M3093.1,1861.7c-4.06,24.83-20.69,108.83-85.17,143.79-105.53,57.23-290.23-46.91-314.29-184.16,32.75-33.79,80-62.09,148-70,0,0,23.43,3.83,23.43,113.1s90.12,108.14,141.94,63.08c31-26.9,55.6-47.94,70.47-60.56C3083,1865.26,3088.14,1863.51,3093.1,1861.7Z" transform="translate(-334.26 -455)"/><path class="cls-28" d="M2639,3141.34a99.76,99.76,0,0,0-14.59,32.74,98.61,98.61,0,0,0-2.54,17.2c3.14,6.72,19.05,30.6,44.23,39.9,15.58,5.75,43.84-3.68,17.26-26.83s-30.28-28.29-14-74c4.18-11.75,4-16.32,2.25-17.48C2667.47,3110.17,2651.79,3126.72,2639,3141.34Z" transform="translate(-334.26 -455)"/><path class="cls-29" d="M2497,3155.49a99.35,99.35,0,0,0-14.59,32.74,97.76,97.76,0,0,0-2.55,17.2c3.15,6.71,19.06,30.6,44.23,39.9,15.58,5.75,43.84-3.68,17.27-26.83s-30.29-28.29-14-74c4.18-11.75,4-16.32,2.24-17.48C2525.45,3124.32,2509.78,3140.87,2497,3155.49Z" transform="translate(-334.26 -455)"/><path class="cls-30" d="M2446.37,2171.9q-17.91,89.61-35.83,179.23A1704.83,1704.83,0,0,1,2463,2538.77c53.35,243.69,44.69,460.83,21,625.94l37.87,20.95a1566.23,1566.23,0,0,0,114.28-378.45c32.14-192.07,19.95-343.49,28.85-343.72,8.54-.22,27.66,138.68,22.31,296.38a1588.18,1588.18,0,0,1-64.49,396.18l47.71,10.58c64.71-118.75,132.94-281.72,162.61-481.67,20.6-138.86,45.62-323.4-41.16-517.64-8.66-19.4-39.74-62.86-45.48-73.53C2638.8,2110.57,2554.09,2155.12,2446.37,2171.9Z" transform="translate(-334.26 -455)"/><path class="cls-31" d="M2463,2538.77a1704.83,1704.83,0,0,0-52.48-187.64q17.91-89.62,35.83-179.23c107.72-16.78,192.43-61.33,300.15-78.11,5.74,10.67,36.82,54.13,45.48,73.53a691.73,691.73,0,0,1,54.06,191.74c-207-9.32-268.35,31.66-286.2,70.75-28.42,62.24,49.24,129,16.61,255.78-9.81,38.14-23.15,56.64-26.29,104.73-4.12,63.1,16.33,69.93,17.36,134.29,1.13,70.43-22.29,128.22-41.51,175.64a615.24,615.24,0,0,1-33.27,69.3l-8.74-4.84C2507.71,2999.6,2516.37,2782.46,2463,2538.77Z" transform="translate(-334.26 -455)"/><path class="cls-32" d="M2584.55,1369.58c-5.28,9.74,6.21,20.06,14.47,62.57a304.77,304.77,0,0,1,5.41,47.9c1.18,10.6,2,20.47,2.48,29.24.32,6.43.41,11.48.27,16.88a204.21,204.21,0,0,1-2.95,29.9,1.25,1.25,0,0,0,.92,1.43l.11,0a1.26,1.26,0,0,0,1.46-1,206.51,206.51,0,0,0,3-30.26c.14-5.48.05-10.59-.28-17.09-.24-4.62-.59-9.56-1-14.73a136.2,136.2,0,0,1,4,48.76c-5.69,62.56,47.15,95.38,84.41,91.5,43-4.47,66.93-42.51,74.26-54.88,29.51-49.88,25.76-123.49-16-171.56C2700.38,1345.26,2597.48,1345.73,2584.55,1369.58Z" transform="translate(-334.26 -455)"/><path class="cls-33" d="M2701.09,1411.78c-2.83-6.48-15.15-32.79-42.94-46.32-52.72-25.66-125.63,12-164,57-40.12,47.16-16.85,72.24-55.53,123.73-42,55.93-79.65,39.78-141.08,96.89-24.17,22.47-89.29,83-82.67,161.45,5.71,67.79,63.22,128,125.28,145.36,106.25,29.69,219.42-68.11,267.57-149.78,46.19-78.33,5.54-89.82,66-236.85C2695.55,1510.13,2722.17,1460.21,2701.09,1411.78Z" transform="translate(-334.26 -455)"/><path class="cls-34" d="M2883.65,2333.67c-24,24.28-71.28-20.6-206.42-27.85-32.94-1.76-104.09-5-186.91,16.72-105,27.57-107.6,63.62-198,80.74-41.72,7.89-136.93,25.87-200.83-25.05-55.7-44.43-37.54-101.25-94.85-136.08-62.1-37.72-126.4,2.93-137.26-18.88C1843.08,2190.69,1963.7,2054,2108.17,2047c70.88-3.47,86.83,27.21,147.84,13.92,108-23.52,167.08-143.29,175.73-161.45a323.91,323.91,0,0,0,24.47-71.47c23.57-108.23-14.64-191.55,42.49-240.3,32.49-27.76,79.9-23.3,147.85-19.51a458.19,458.19,0,0,1,155.5,36.9c18.88,37,40.65,92.92,39.74,160.73-1.12,85.3-36.22,114.73-52.81,181.41-34.11,137,63.49,260.59,93.64,333.14C2892.4,2303.93,2895,2322.18,2883.65,2333.67Z" transform="translate(-334.26 -455)"/><path class="cls-35" d="M2654.07,1473.65c8.28,22.33,14.38,49.84,1,66.47-8.17,10.14-20.45,15-32.55,19.5-28.58,10.67-40.63,3.89-46.85,11.51-13.68,16.78,12.63,88.92,66.57,100.53,53.68,11.55,109-42.41,103.36-68.19-5-23.26-59.22-21.73-65.82-51.15-3.32-14.81,7.13-29.8,16-39.77l6.34,1.22Z" transform="translate(-334.26 -455)"/><path class="cls-36" d="M2575.65,1571.13c6.22-7.62,18.27-.84,46.85-11.51,12.1-4.51,24.38-9.36,32.55-19.5,13.4-16.64,7.3-44.14-1-66.47l48,40.12-6.34-1.21c-7,7.9-14.94,19-16.3,30.62a45,45,0,0,0-10,7.25,118.19,118.19,0,0,1,6.6,38.2c.06,13.49.11,23.52-6.6,32.29-7.32,9.56-18.39,12-28.07,14.2-21.49,4.81-40.67.49-53.11-3.88C2572.9,1607.43,2568,1580.55,2575.65,1571.13Z" transform="translate(-334.26 -455)"/><path class="cls-37" d="M2660.13,1510.65s9.4,25.84,35.74,19.26c32.46-8.1,14.28-94.36,5.16-97.23-10.59-3.32-15.05,12.57-37.55,13.17-9.48.25-20.15-9.27-21.53,4.27-1.57,15.42,9.16,39.26,9.16,39.26s-9.32-4.37-8.56,3.55C2643.55,1503.31,2652.64,1507.63,2660.13,1510.65Z" transform="translate(-334.26 -455)"/><path class="cls-38" d="M2687.74,1404.83c13,7.85,23.81,26.71,19.29,38.74-6.51,17.27-40.7,9.69-48.51,30.79-3.43,9.25-.33,20.09-3.19,20.63-2.37.45-5.68-6.77-8.61-12.65-16.16-32.42-25.71-34.08-25.6-44.57C2621.33,1416.45,2661.14,1388.73,2687.74,1404.83Z" transform="translate(-334.26 -455)"/><path class="cls-39" d="M3103.65,1947.1l-105,11.15c-4,.43-8.59-5.25-7.45-9.31l56.32-190.26a7,7,0,0,1,6.64-5.31l100.38-2.07c3.26.08,4.75,7.64,3.72,11.47l-48.57,178.7C3108.86,1944.41,3106.3,1946.81,3103.65,1947.1Z" transform="translate(-334.26 -455)"/><path class="cls-40" d="M3101.91,1943.18,2996.33,1954c-4,.42-6.7-2.88-5.55-7l54.56-193.42a7,7,0,0,1,6.67-5.31l100.34,2.37c3.28.08,5.35,3.74,4.31,7.57L3108,1937.55C3107.15,1940.5,3104.58,1942.91,3101.91,1943.18Z" transform="translate(-334.26 -455)"/><path class="cls-41" d="M3053.2,1831.63c2.43,17.25,15.76,12.89,25.69,33.44,12.6,26.08-1.41,50.29,10.72,59.49,3.7,2.81,10.08,4.31,21.83.16l-3.49,12.83c-.8,3-3.37,5.36-6,5.63L2996.33,1954c-4,.41-6.7-2.88-5.55-7l54.56-193.42a7,7,0,0,1,6.67-5.31l15.07.35a78.59,78.59,0,0,1,2,22.42C3067.49,1799.9,3050.34,1811.43,3053.2,1831.63Z" transform="translate(-334.26 -455)"/><path class="cls-42" d="M3144.49,1806c-9.21-3.56-26.29,9-30.67,23.34-3.94,12.94,4.47,20.61,2.92,39.16-.11,1.32-.26,2.62-.45,3.88a13.43,13.43,0,0,0,22,12.25c.87-.74,1.72-1.53,2.56-2.36C3164.75,1858.56,3158.59,1811.48,3144.49,1806Z" transform="translate(-334.26 -455)"/><path class="cls-43" d="M2883.65,2333.67c-24,24.28-71.28-20.6-206.42-27.85-32.94-1.76-104.09-5-186.91,16.72-105,27.57-107.6,63.62-198,80.74-41.72,7.89-136.93,25.87-200.83-25.05-55.7-44.43-37.54-101.25-94.85-136.08-62.1-37.72-126.4,2.93-137.26-18.88C1843.08,2190.69,1963.7,2054,2108.17,2047c70.88-3.47,86.83,27.21,147.84,13.92,108-23.52,167.08-143.29,175.73-161.45a323.91,323.91,0,0,0,24.47-71.47L2746,1908.34s2.71,176.86-98,176.86-177.44,96.12-76,84.13,170.6-67.59,199.17,10.5c26.63,72.86-8.2,122.2,111.39,100.49C2892.4,2303.93,2895,2322.18,2883.65,2333.67Z" transform="translate(-334.26 -455)"/><path class="cls-44" d="M2760.63,1839.37s11.19-30.4,20.63-33.54,57.43-8.47,48.58-1.94a67,67,0,0,1-17.12,9.21s10.72,18.6-7.32,22.49-23.27,4-30.84,13.59S2758,1857.54,2760.63,1839.37Z" transform="translate(-334.26 -455)"/><path class="cls-45" d="M2787,1848.91c-43.53,111.93-125.54,192.5-202.73,189-72.45-3.29-131.75-80.08-158.16-169.61-.22-.68-.31-1-.31-1-17.26-59.16-20.15-123.73-3-176.32,19-58.22,70.93-124.91,109.77-117.61,10.77,2,23.84,10.37,40.42,45.06,49.52,103.64-9.51,192,26.95,228.73,16.22,16.31,54.43,25.55,155.59-17.26q11.76,7.09,23.43,14.2C2781.64,1845.66,2784.34,1847.29,2787,1848.91Z" transform="translate(-334.26 -455)"/><path class="cls-46" d="M3071.17,1291.13c-1.74,0-3.5,0-5.2.09a184.38,184.38,0,0,0-103,34.84,181.78,181.78,0,0,0-16.9,13.76c-35.11,32.3-57.23,77.89-57.23,128.42,0,84.64,62,152.13,143.15,165.41l30,69.48a6.42,6.42,0,0,0,5.75,3.88c2.52.06,17.64.66,18.75-1.6l23.32-75.81a183.94,183.94,0,0,0,61.81-30.06c40.3-30,67.42-75.7,71.63-126.58.41-4.63.59-9.31.59-14C3243.82,1366.25,3167.66,1291.13,3071.17,1291.13Z" transform="translate(-334.26 -455)"/><path class="cls-47" d="M3258.18,1459c0,4.7-.18,9.4-.61,14-4.2,50.91-31.33,96.62-71.62,126.62a180.5,180.5,0,0,1-20.49,13.24,183.39,183.39,0,0,1-41.33,16.79l-36.13,73.8a6.39,6.39,0,0,1-5.92,3.63,6.51,6.51,0,0,1-5.78-3.88l-30-69.5c-81.12-13.27-143.15-80.76-143.15-165.4,0-50.16,21.81-95.51,56.51-127.73.25-.25.46-.47.71-.68a178.81,178.81,0,0,1,16.9-13.78,184.43,184.43,0,0,1,103-34.84c1.69-.07,3.45-.07,5.2-.07C3182,1291.14,3258.18,1366.27,3258.18,1459Z" transform="translate(-334.26 -455)"/><path class="cls-4" d="M3168.75,1524.74c-4.8-7.51-9.61-17.51-14.42-21h0c-1-24.49-1.85-45-2.81-66.71-1.55-34.7-26.24-63.7-57.38-65.59l0-16.28c0-6.28-5.08-11.74-10.72-11.92l-.45-.06a11.13,11.13,0,0,0-11.09,11.08l.05,16.06c-31.91.36-57.54,29.24-59,65-.9,22.36-1.55,44-2.44,68.46h0c-5.13,3.5-10.24,14.55-15.38,22.46a8.82,8.82,0,0,0-.6,8.57,7.43,7.43,0,0,0,6.78,4.5q83-1.14,161.88-2.31a6.72,6.72,0,0,0,6.25-4.14A8.41,8.41,0,0,0,3168.75,1524.74Z" transform="translate(-334.26 -455)"/><path class="cls-4" d="M3113.21,1545.09c-4,15.18-15.65,22.29-29.46,22.58s-25.78-6.44-30-21.67Z" transform="translate(-334.26 -455)"/><path class="cls-8" d="M3213.46,1459.53a63.8,63.8,0,0,0-27.55-31.92,6.67,6.67,0,0,0-9.56,3.65l0,.06a7.57,7.57,0,0,0,3.27,9.23,49.43,49.43,0,0,1,21.28,24.64,52.47,52.47,0,0,1,2,33,7.34,7.34,0,0,0,4,8.74l.07,0a6.72,6.72,0,0,0,9-4.7A67.71,67.71,0,0,0,3213.46,1459.53Z" transform="translate(-334.26 -455)"/><path class="cls-8" d="M3177.59,1451.24a6.75,6.75,0,0,0-10.16,3.36v0a8.07,8.07,0,0,0,2.9,9.43,24.75,24.75,0,0,1,8.63,11,26.07,26.07,0,0,1,1.55,14.1,7.86,7.86,0,0,0,4.44,8.66l0,0a6.86,6.86,0,0,0,9.29-5.37,41.63,41.63,0,0,0-2.32-23.25A39.32,39.32,0,0,0,3177.59,1451.24Z" transform="translate(-334.26 -455)"/><path class="cls-8" d="M2945.19,1458.35a66.41,66.41,0,0,1,30.53-33.24,7.62,7.62,0,0,1,10.51,4.06l0,.07a7.61,7.61,0,0,1-3.52,9.58,51.37,51.37,0,0,0-23.36,25.62,52.46,52.46,0,0,0-2.06,35,7.7,7.7,0,0,1-4.42,9.31l-.07,0a7.64,7.64,0,0,1-10.23-4.87A67.75,67.75,0,0,1,2945.19,1458.35Z" transform="translate(-334.26 -455)"/><path class="cls-8" d="M2985,1450a7.54,7.54,0,0,1,11.06,3.63l0,0a8.12,8.12,0,0,1-3.09,9.78,25.67,25.67,0,0,0-9.32,11.4,26.1,26.1,0,0,0-1.61,14.75,8.17,8.17,0,0,1-4.82,9.11h0a7.59,7.59,0,0,1-10.3-5.55,41.75,41.75,0,0,1,2.42-24.48A40.88,40.88,0,0,1,2985,1450Z" transform="translate(-334.26 -455)"/><path class="cls-48" d="M3165.46,1612.8a183.39,183.39,0,0,1-41.33,16.79l-36.13,73.8a6.39,6.39,0,0,1-5.92,3.63,6.51,6.51,0,0,1-5.78-3.88l-30-69.5c-81.12-13.27-143.15-80.76-143.15-165.4,0-50.16,21.81-95.51,56.51-127.73.57.22,1.14.4,1.72.61,41.55,14.82,82.31,44.92,101.32,104.55,32.76,102.69,61.35,147.83,100.64,166.2C3164.06,1612.19,3164.75,1612.51,3165.46,1612.8Z" transform="translate(-334.26 -455)"/></g></g></svg>