<svg id="Layer_1" data-name="Layer 1" xmlns="http://www.w3.org/2000/svg" viewBox="0 0 662.79 738.72"><defs><style>.cls-1,.cls-2{fill:none;stroke:#fff;stroke-linecap:round;stroke-linejoin:round;}.cls-1{stroke-width:3.31px;}.cls-2{stroke-width:2.88px;}</style></defs><title>research-icon</title><circle class="cls-1" cx="390.1" cy="466.03" r="147.12"/><circle class="cls-1" cx="390.1" cy="466.03" r="108.41"/><polyline class="cls-1" points="478.39 585.8 525.62 633.03 557.1 601.54 509.88 554.32"/><rect class="cls-1" x="1039.98" y="773.67" width="71.63" height="133.57" transform="translate(-766.41 830.92) rotate(-45)"/><line class="cls-1" x1="561.21" y1="687.78" x2="609.8" y2="639.19"/><line class="cls-1" x1="538.62" y1="665.2" x2="587.21" y2="616.6"/><polygon class="cls-2" points="420.7 144.31 420.7 1.44 566.82 144.31 420.7 144.31"/><path class="cls-2" d="M1040.44,725.63A13.44,13.44,0,0,0,1054,712.34V320.26L907.91,177.38H656.44a13.45,13.45,0,0,0-13.6,13.29V712.34a13.45,13.45,0,0,0,13.6,13.29h66" transform="translate(-487.21 -175.94)"/><path class="cls-2" d="M642.84,228.78H605a13.44,13.44,0,0,0-13.59,13.29V763.74A13.44,13.44,0,0,0,605,777H754.72" transform="translate(-487.21 -175.94)"/><path class="cls-2" d="M591.45,280.18H553.64a13.44,13.44,0,0,0-13.59,13.29V815.14a13.44,13.44,0,0,0,13.59,13.29h384a13.45,13.45,0,0,0,13.6-13.29v-9.27" transform="translate(-487.21 -175.94)"/><path class="cls-2" d="M540.05,331.57H502.24a13.44,13.44,0,0,0-13.59,13.29V866.53a13.45,13.45,0,0,0,13.59,13.3h384a13.45,13.45,0,0,0,13.59-13.3v-38.1" transform="translate(-487.21 -175.94)"/><line class="cls-2" x1="219.75" y1="457.17" x2="213.88" y2="457.17"/><line class="cls-2" x1="227.5" y1="396.64" x2="213.88" y2="396.64"/><line class="cls-2" x1="275.25" y1="336.1" x2="213.88" y2="336.1"/><line class="cls-2" x1="508.57" y1="336.1" x2="501.09" y2="336.1"/><line class="cls-2" x1="508.57" y1="275.56" x2="213.88" y2="275.56"/><line class="cls-2" x1="508.57" y1="215.03" x2="213.88" y2="215.03"/><line class="cls-2" x1="386.43" y1="154.49" x2="213.88" y2="154.49"/><line class="cls-2" x1="379.57" y1="93.95" x2="213.88" y2="93.95"/></svg>