<svg id="Layer_1" data-name="Layer 1" xmlns="http://www.w3.org/2000/svg" viewBox="0 0 423.7 474.87"><defs><style>.cls-1{fill:#2cce6d;}</style></defs><title>software click</title><path class="cls-1" d="M690.9,607.67a18.9,18.9,0,0,0,18.88-18.88v-68a18.88,18.88,0,0,0-37.76,0v68A18.9,18.9,0,0,0,690.9,607.67Zm-7.55-86.84a7.55,7.55,0,1,1,15.1,0v68a7.55,7.55,0,1,1-15.1,0Z" transform="translate(-538.73 -501.96)"/><path class="cls-1" d="M672,787.41a18.88,18.88,0,0,0,37.76,0v-68a18.88,18.88,0,0,0-37.76,0Zm11.33-68a7.55,7.55,0,1,1,15.1,0v68a7.55,7.55,0,1,1-15.1,0Z" transform="translate(-538.73 -501.96)"/><path class="cls-1" d="M785.15,541a18.77,18.77,0,0,0-13.35,5.55l-48,48.05a18.88,18.88,0,0,0,26.7,26.69l48-48A18.9,18.9,0,0,0,785.15,541Zm-53.39,72.29a7.56,7.56,0,0,1,0-10.68l48-48.05a7.56,7.56,0,0,1,12.9,5.34,7.53,7.53,0,0,1-2.22,5.34l-48.06,48A7.73,7.73,0,0,1,731.76,613.27Z" transform="translate(-538.73 -501.96)"/><path class="cls-1" d="M663.58,700.32A18.88,18.88,0,0,0,631.35,687L583.3,735A18.87,18.87,0,1,0,610,761.71l48.06-48.05A18.69,18.69,0,0,0,663.58,700.32ZM650,705.65l-48,48.08a7.79,7.79,0,0,1-10.69,0,7.57,7.57,0,0,1,0-10.7l48.06-48a7.55,7.55,0,0,1,12.88,5.34A7.41,7.41,0,0,1,650,705.65Z" transform="translate(-538.73 -501.96)"/><path class="cls-1" d="M737.35,654.13A18.91,18.91,0,0,0,756.23,673h68a18.89,18.89,0,0,0,0-37.78h-68A18.92,18.92,0,0,0,737.35,654.13Zm94.39,0a7.55,7.55,0,0,1-7.55,7.54h-68a7.55,7.55,0,1,1,0-15.1h68A7.55,7.55,0,0,1,831.74,654.13Z" transform="translate(-538.73 -501.96)"/><path class="cls-1" d="M557.61,673h67.95a18.89,18.89,0,0,0,0-37.78H557.61a18.89,18.89,0,0,0,0,37.78Zm0-26.44h67.95a7.55,7.55,0,1,1,0,15.1H557.61a7.55,7.55,0,1,1,0-15.1Z" transform="translate(-538.73 -501.96)"/><path class="cls-1" d="M631.35,621.27a18.88,18.88,0,1,0,26.7-26.69l-48-48.05a18.89,18.89,0,0,0-26.7,0,18.88,18.88,0,0,0,0,26.7Zm-40-66.73a7.53,7.53,0,0,1,10.68,0l48,48.05a7.56,7.56,0,0,1,0,10.68,7.73,7.73,0,0,1-10.67,0l-48.07-48a7.56,7.56,0,0,1-2.21-5.34A7.46,7.46,0,0,1,591.31,554.54Z" transform="translate(-538.73 -501.96)"/><path class="cls-1" d="M961.26,787.93a7.57,7.57,0,0,0-4.5-6L735.64,686.24a7.56,7.56,0,0,0-10.5,7.89l30.3,239a7.55,7.55,0,0,0,4.55,6,7.47,7.47,0,0,0,7.48-.92l55.36-41.6,58,77.18a7.56,7.56,0,0,0,6.05,3,7.66,7.66,0,0,0,4.54-1.51l68-51.1a7.55,7.55,0,0,0,1.51-10.58l-58-77.18,55.37-41.6A7.54,7.54,0,0,0,961.26,787.93Zm-73.44,41a7.49,7.49,0,0,0-2.94,5,7.58,7.58,0,0,0,1.44,5.62l58,77.18-55.95,42-58-77.17a7.51,7.51,0,0,0-6-3A7.59,7.59,0,0,0,819.8,880l-51,38.32-27-213,197,85.23Z" transform="translate(-538.73 -501.96)"/></svg>