<svg id="Layer_1" data-name="Layer 1" xmlns="http://www.w3.org/2000/svg" viewBox="0 0 98.03 101.65"><defs><style>.cls-1{fill:#fd425f;}.cls-2{fill:#fff;}.cls-3{fill:#f88667;}.cls-4{fill:#00bad1;}.cls-5{fill:#dad8e5;}.cls-6{fill:#e45940;}.cls-7{fill:#110239;}.cls-8{fill:#d0d1de;}.cls-9{fill:#abadc4;}.cls-10{fill:#00a7cc;}</style></defs><title>target-profit</title><circle class="cls-1" cx="42.73" cy="51.82" r="42.73"/><circle class="cls-2" cx="73.85" cy="171.49" r="32.39" transform="translate(-136.5 104.17) rotate(-82.98)"/><circle class="cls-1" cx="73.85" cy="171.49" r="23.14" transform="translate(-68.54 -98.11) rotate(-13.28)"/><path class="cls-2" d="M89.77,171.49a15.92,15.92,0,1,1-15.92-15.92A15.92,15.92,0,0,1,89.77,171.49Z" transform="translate(-31.12 -119.67)"/><path class="cls-1" d="M81.2,171.49a7.35,7.35,0,1,1-7.35-7.35A7.35,7.35,0,0,1,81.2,171.49Z" transform="translate(-31.12 -119.67)"/><path class="cls-3" d="M92.87,152.4s-.62,1.51-.59,1.46a5,5,0,0,0-1-.45,7.53,7.53,0,0,1-1.19-.08,1.85,1.85,0,0,1-.69-.36c-.12-.07-.32-.3-.14-.35s.33.16.43.21a2.27,2.27,0,0,0,.46,0l-.39-.17a4.47,4.47,0,0,1-.88-.4c-.09-.09-.07-.29.17-.24a3.11,3.11,0,0,1,.62.21l.52.18s-.4-.15-.55-.22-.6-.24-.88-.37-.21-.43,0-.41a7.87,7.87,0,0,1,.9.38c.1,0,.52.23.52.23s-.51-.23-.59-.29-.66-.27-.73-.44a.17.17,0,0,1,.21-.22,2.94,2.94,0,0,1,.71.25,7.38,7.38,0,0,0,1.11.46c.17,0,.34,0,.35-.22l.28-.51s.18.09.28.56C91.88,151.9,92.31,152.22,92.87,152.4Z" transform="translate(-31.12 -119.67)"/><path class="cls-4" d="M109.84,158.41a2.56,2.56,0,0,0-2.22-2.48c-2-.31-5.82-.89-7-1.15-1.59-.37-8.07-2.53-8.07-2.53L91.88,154s7.05,3.54,8.32,3.82,7.78,2.58,9,1.86A1.33,1.33,0,0,0,109.84,158.41Z" transform="translate(-31.12 -119.67)"/><polygon class="cls-5" points="83.88 55.7 83.47 54.48 65.16 54.48 65.55 55.7 83.88 55.7"/><polygon class="cls-5" points="86.05 62.23 85.64 60.99 67.23 60.99 67.63 62.23 86.05 62.23"/><polygon class="cls-5" points="81.12 49.18 80.71 47.95 62.4 47.95 62.79 49.18 81.12 49.18"/><polygon class="cls-5" points="88.25 68.83 87.83 67.58 69.33 67.58 69.73 68.83 88.25 68.83"/><polygon class="cls-5" points="90.47 75.5 90.05 74.23 71.45 74.23 71.85 75.5 90.47 75.5"/><polygon class="cls-5" points="92.72 82.23 92.3 80.96 73.59 80.96 74 82.23 92.72 82.23"/><polygon class="cls-5" points="94.99 89.05 94.56 87.76 75.75 87.76 76.17 89.05 94.99 89.05"/><path class="cls-5" d="M128.21,218.52h.09a.84.84,0,0,0,.8-1.11L111.91,165.9a.86.86,0,0,0-.81-.58h-1.18l17.49,52.62A.84.84,0,0,0,128.21,218.52Z" transform="translate(-31.12 -119.67)"/><path class="cls-5" d="M109.59,218.52h.09a.85.85,0,0,0,.81-1.1L94.05,165.91a.85.85,0,0,0-.81-.59h0a.85.85,0,0,0-.81,1.11l16.36,51.5A.85.85,0,0,0,109.59,218.52Z" transform="translate(-31.12 -119.67)"/><path class="cls-3" d="M109.55,150.34a1.31,1.31,0,0,1-.11.12,8,8,0,0,1-1.16,1c-.26.17-.67.28-.89.46a2.83,2.83,0,0,1-.28.2,21.23,21.23,0,0,1,.4,3.37s2.32-.16,3.17-1.1A23.63,23.63,0,0,1,109.55,150.34Z" transform="translate(-31.12 -119.67)"/><path class="cls-6" d="M108.3,154.22a3.45,3.45,0,0,1,1.06-1.75,4.46,4.46,0,0,1,.56-.41,10.7,10.7,0,0,1-.37-1.72,1.31,1.31,0,0,1-.11.12,8,8,0,0,1-1.16,1c-.26.17-.67.28-.89.46a2.83,2.83,0,0,1-.28.2,21.23,21.23,0,0,1,.4,3.37,9.34,9.34,0,0,0,.93-.13A1.77,1.77,0,0,1,108.3,154.22Z" transform="translate(-31.12 -119.67)"/><path class="cls-7" d="M108.26,191.71s-.06,2.31-.42,2.63-5,.45-5.36,0-.16-1.13.83-1.4,1.57,0,2.24-.29.48-1.32.48-1.32Z" transform="translate(-31.12 -119.67)"/><path class="cls-7" d="M119.67,191.63s.35,2.26,0,2.58-5,.7-5.44.3-.21-1.13.77-1.44,1.55-.12,2.22-.37.18-1.26.18-1.26Z" transform="translate(-31.12 -119.67)"/><path class="cls-8" d="M116.27,178.68a69.28,69.28,0,0,0-1-12.86,5.89,5.89,0,0,0-2.3.45c-1.4.64-2.81,1.25-4.22,1.86a91.41,91.41,0,0,1,3.95,11.72c.38,2,4.58,12.28,4.58,12.28l2.55-.32C119.83,190.16,116.26,179.23,116.27,178.68Z" transform="translate(-31.12 -119.67)"/><path class="cls-9" d="M111.05,167.18a21.3,21.3,0,0,1-2.28.92,95.21,95.21,0,0,1,3.64,10.47c.36-1.08,2.08-3.69,2.75-6.54a15.2,15.2,0,0,0,.21-5.82v0A10.9,10.9,0,0,0,111.05,167.18Z" transform="translate(-31.12 -119.67)"/><path class="cls-8" d="M113,166.83c-1,.34-2.8.82-4.16,1.3-1,2.4-3.76,8.07-3.9,10.63-.16,2.82.81,13.52.81,13.52h2.92s.27-12.06.68-12.84c1.34-2.55,2.83-4.58,3.67-6.17a19.79,19.79,0,0,0,2.15-5.63c.11-.55.59-2.4-.34-3C114,164.88,113.78,166.55,113,166.83Z" transform="translate(-31.12 -119.67)"/><path class="cls-4" d="M107.73,168.71a11.81,11.81,0,0,0,4.85.76,9.14,9.14,0,0,0,3.75-.76s-1.11-8.7-2.4-11.44a5.78,5.78,0,0,0-3.4-3.27,7.25,7.25,0,0,1-3,.95s0,5.34.14,7.48S107.73,168.71,107.73,168.71Z" transform="translate(-31.12 -119.67)"/><path class="cls-10" d="M107.61,161.65c0-.24,0-.49,0-.75v-.1c0-.25,0-.51,0-.77v-.14c0-.29,0-.59,0-.9h0a1.83,1.83,0,0,0,.33,0,7.6,7.6,0,0,0,2.33-1.08l.38-.2a10.14,10.14,0,0,1-.59,3.45,19.81,19.81,0,0,0-.42,8.12,12.37,12.37,0,0,1-1.85-.54s0-4.15-.09-6.28c0-.19,0-.41,0-.65Z" transform="translate(-31.12 -119.67)"/><path class="cls-3" d="M110.75,148.18s-1-2.07-2.31-2-2.16.3-2.34.81a14.68,14.68,0,0,1-.8,2.43c-.34.52-1.07,1.2-1,1.43s.77.32.81.41a7.71,7.71,0,0,0,.72,2,5.45,5.45,0,0,0,3.2-1.56C109.37,150.94,110.86,149.51,110.75,148.18Z" transform="translate(-31.12 -119.67)"/><path class="cls-7" d="M108.06,148.37a3,3,0,0,0-.39.12l-.59.08a2.32,2.32,0,0,1-1.17,0c-.57-.19-.39-.75-.65-1.15-.13-.19-.4-.19-.54-.41a1.43,1.43,0,0,1-.17-.73c0-.61.6-.66,1.06-.78s.57-.43.83-.84c.64-1,1.54.39,2.25.31.36-.05.74-.28,1.09-.08a2.32,2.32,0,0,1,.69.74c.22.29.43.17.74.29a2,2,0,0,1,.64.49,2,2,0,0,1,.48,1.58c-.09.47-.47.72-.48,1.21a3,3,0,0,1-.19,1.22c-.27.52-.88.58-1.29.93a1.73,1.73,0,0,1-1.47.46c-.06-.37,0-1,.3-1.16a2.49,2.49,0,0,0,.48-.25.57.57,0,0,0-.54-1c-.41.06-.6,1.19-1,1s.07-.71.16-.91.19-.91,0-1.13A.23.23,0,0,0,108.06,148.37Z" transform="translate(-31.12 -119.67)"/><path class="cls-3" d="M97,168.76a2.92,2.92,0,0,0-.34,0,1.33,1.33,0,0,1-.75-.09,2.84,2.84,0,0,0-1.26-.3c-.21,0-1.47.33-1.16.85,0,.07.19.18.24.16l.49-.18a1.74,1.74,0,0,0-.33.15s-.15.07-.18.12a.32.32,0,0,0,.15.38c.11,0,.19-.07.28-.12h0c-.09.07-.28.12-.16.39s.22.11.35.08l.13-.06a2.2,2.2,0,0,0-.26.15c-.12.1.14.45.38.42s.48-.22.57-.2a1.43,1.43,0,0,0,.29,0,1.67,1.67,0,0,0,.85-.17,5,5,0,0,0,.48-.21,3.81,3.81,0,0,0,.7-.48C97.3,169.28,97,169.19,97,168.76Z" transform="translate(-31.12 -119.67)"/><path class="cls-4" d="M97.46,170.35l-1-2a58.1,58.1,0,0,0,6.93-5.12c1.86-1.87,3.86-5.68,5.28-5.92s2.83.54,2,2.51-5,4.58-5.81,5.44A81.19,81.19,0,0,1,97.46,170.35Z" transform="translate(-31.12 -119.67)"/><path class="cls-1" d="M111.55,122.39c-.91-.39-3.8-1.89-6.12,3.59-2.21,5.22-4.55,12.3-4.55,12.3s5.75-4.74,9.82-8.69C115,125.45,112.39,122.93,111.55,122.39Z" transform="translate(-31.12 -119.67)"/><path class="cls-7" d="M106.61,126.58l-5.53,5.69a39.52,39.52,0,0,0-4.51,5.57L74,171.49l25.59-27.71a39.77,39.77,0,0,0,7-10.56l2.16-4.76A6.76,6.76,0,0,1,106.61,126.58Z" transform="translate(-31.12 -119.67)"/><path class="cls-1" d="M100,138.71s-3.72-10.37-.24-17.09,8,6.07,8,6.07Z" transform="translate(-31.12 -119.67)"/><path class="cls-1" d="M99.92,138.65s11,0,16.16-5.57-8.43-5.49-8.43-5.49Z" transform="translate(-31.12 -119.67)"/><path class="cls-3" d="M91.69,152.43c-.09,0-.17.19-.26.17l0-.26c0-.22-.88-.28-1.07-.38-.57-.29-.34-.65-.08-.57s.57.17.72.24a3.06,3.06,0,0,0,.59.07,4.44,4.44,0,0,1,.74.51C92.64,152.4,92,152.56,91.69,152.43Z" transform="translate(-31.12 -119.67)"/><path class="cls-4" d="M51.85,185.13a26.05,26.05,0,0,0-8,3.66c-3.41,2.53-7,10.36-7.64,15.85s-2.09,9.79,0,12.6,8.84,3.38,14.65,3.95,13.83-.82,15.44-2.84,1.48-17.32-1.55-23.09S56.27,185,51.85,185.13Z" transform="translate(-31.12 -119.67)"/><path class="cls-10" d="M59.59,218a10,10,0,0,1-3.33-1.6,7.69,7.69,0,0,0-5.91-2.19c-2.35,0-4.63,0-6.65-1.32A6.13,6.13,0,0,1,41.32,207,9.39,9.39,0,0,1,43,203a5.47,5.47,0,0,0,1.1-5.22,14.27,14.27,0,0,1,.13-7.48,6.76,6.76,0,0,1,2.39-3.2,19.48,19.48,0,0,0-2.77,1.68c-3.41,2.53-7,10.36-7.64,15.85s-2.09,9.79,0,12.6,8.84,3.38,14.65,3.95,13.83-.82,15.44-2.84a6,6,0,0,0,.73-2.51C65.05,217.83,62.44,219,59.59,218Z" transform="translate(-31.12 -119.67)"/><path class="cls-4" d="M51.21,186.27s-4.87-1.19-5.54-4.88,1.28-5,2.77-4.12,1.73.39,2.77-.26,2.56.4,3.32,1.49.9-.19,2.7-.33,2.42,1.51,1.47,3.69S56.85,186.36,51.21,186.27Z" transform="translate(-31.12 -119.67)"/><path class="cls-10" d="M56.5,184.19c-1.26.32-.51-1.31-.72-1.88-.33,0-.45.57-.56.81a1.49,1.49,0,0,1-1.35.85c-.78,0-.89-.87-1.23-1.4-.14-.22-.21-.21-.29.05s0,.64-.28.87c-.51.42-1.35-.06-1.74-.4s-.6-1-1.06-1.34a.62.62,0,0,0-.14.32c-.11.53-.08,1.54-1,1.36s-1.22-1.36-1.46-2a6.82,6.82,0,0,1-.53-2.3,6.46,6.46,0,0,1,.07-1,2.67,2.67,0,0,1,.18-.74h0c-.7.61-1.12,1.92-.76,3.95.57,3.14,4.18,4.47,5.25,4.79a1.84,1.84,0,0,0,.57.09c4.44,0,5.82-1.54,6.69-3.28h0A8.52,8.52,0,0,1,56.5,184.19Z" transform="translate(-31.12 -119.67)"/><path class="cls-2" d="M53.27,197.24c2.39.24,4.55,1.31,4.51,3.71l-4-.07c0-.91-.93-1.12-1.52-1.13-.36,0-1.55,0-1.56.71,0,1.64,7.36.06,7.27,4.7,0,2.79-2.24,3.78-4.92,3.93l.12,3-2.44,0,.2-3c-2.47-.3-4.76-1.51-4.72-4l4,.07v.08c0,1.11,1.23,1.34,1.86,1.35s1.79,0,1.8-.81c0-1.7-7.35-.28-7.27-4.77,0-2.59,2.07-3.54,4.55-3.71l-.09-3,2.43,0Z" transform="translate(-31.12 -119.67)"/><path class="cls-7" d="M47.66,184.51l-.44,2.33S48.47,188,51.86,188a10.13,10.13,0,0,0,5.23-1.2l-.22-2.09A19.25,19.25,0,0,1,47.66,184.51Z" transform="translate(-31.12 -119.67)"/></svg>