<svg xmlns="http://www.w3.org/2000/svg" xmlns:xlink="http://www.w3.org/1999/xlink" viewBox="0 0 2820.83 2799.66"><defs><style>.cls-1{fill:url(#linear-gradient);}.cls-2{fill:url(#linear-gradient-2);}.cls-3{isolation:isolate;}.cls-4,.cls-56,.cls-65,.cls-70{fill:#f4f7fa;}.cls-26,.cls-5{fill:#d8dee8;}.cls-25,.cls-44,.cls-46,.cls-6{fill:#fff;}.cls-7{fill:url(#linear-gradient-3);}.cls-8{fill:url(#linear-gradient-4);}.cls-9{fill:url(#linear-gradient-5);}.cls-10{fill:url(#linear-gradient-6);}.cls-11{fill:url(#linear-gradient-7);}.cls-12,.cls-18{fill:#26264f;}.cls-13{fill:url(#linear-gradient-8);}.cls-14{fill:url(#linear-gradient-9);}.cls-15{fill:url(#linear-gradient-10);}.cls-16{fill:#444b8c;}.cls-17{fill:url(#linear-gradient-11);}.cls-18,.cls-37,.cls-41,.cls-59,.cls-61,.cls-69,.cls-87,.cls-96{opacity:0.3;}.cls-102,.cls-18,.cls-37,.cls-41,.cls-42,.cls-59,.cls-61,.cls-69,.cls-82,.cls-87,.cls-88,.cls-96,.cls-98{mix-blend-mode:multiply;}.cls-19{fill:url(#linear-gradient-12);}.cls-20{fill:url(#linear-gradient-13);}.cls-21{fill:url(#linear-gradient-14);}.cls-22{fill:url(#linear-gradient-15);}.cls-23{fill:#b7c0ce;}.cls-24{fill:#eff2f6;}.cls-25{opacity:0.48;}.cls-25,.cls-26,.cls-44,.cls-65,.cls-70{mix-blend-mode:soft-light;}.cls-26{opacity:0.47;}.cls-27{fill:url(#linear-gradient-16);}.cls-28{fill:url(#linear-gradient-17);}.cls-29{fill:url(#linear-gradient-18);}.cls-30{fill:url(#linear-gradient-19);}.cls-31{fill:url(#linear-gradient-20);}.cls-32{fill:url(#linear-gradient-21);}.cls-33{fill:url(#linear-gradient-22);}.cls-34{fill:url(#linear-gradient-23);}.cls-35{fill:url(#linear-gradient-24);}.cls-36{fill:url(#linear-gradient-25);}.cls-37{fill:url(#linear-gradient-26);}.cls-38{fill:url(#linear-gradient-27);}.cls-39{fill:url(#linear-gradient-28);}.cls-40{fill:url(#linear-gradient-29);}.cls-41{fill:url(#linear-gradient-30);}.cls-42,.cls-88{opacity:0.65;}.cls-42{fill:url(#linear-gradient-31);}.cls-43{fill:url(#linear-gradient-32);}.cls-44{opacity:0.26;}.cls-45{mask:url(#mask);}.cls-46{opacity:0.82;}.cls-47{fill:#6567d9;}.cls-48{fill:url(#linear-gradient-33);}.cls-49{fill:url(#linear-gradient-34);}.cls-50{fill:#726bdf;}.cls-51{fill:url(#linear-gradient-35);}.cls-52{mask:url(#mask-2);}.cls-53{fill:url(#linear-gradient-36);}.cls-54{fill:url(#linear-gradient-37);}.cls-55{fill:url(#linear-gradient-38);}.cls-56{opacity:0.75;}.cls-57{fill:url(#linear-gradient-39);}.cls-58{fill:url(#linear-gradient-40);}.cls-59{fill:url(#linear-gradient-41);}.cls-60{fill:url(#linear-gradient-42);}.cls-61{fill:url(#linear-gradient-43);}.cls-62{fill:url(#linear-gradient-44);}.cls-63{fill:url(#linear-gradient-45);}.cls-64{fill:url(#linear-gradient-46);}.cls-65{opacity:0.5;}.cls-66{fill:url(#linear-gradient-47);}.cls-67{fill:url(#linear-gradient-48);}.cls-68{fill:url(#linear-gradient-49);}.cls-69{fill:url(#linear-gradient-50);}.cls-70{opacity:0.44;}.cls-71{fill:url(#linear-gradient-51);}.cls-72{fill:url(#linear-gradient-52);}.cls-73{fill:url(#linear-gradient-53);}.cls-74{fill:url(#linear-gradient-54);}.cls-75{fill:url(#linear-gradient-55);}.cls-76{fill:url(#linear-gradient-56);}.cls-77{fill:url(#linear-gradient-57);}.cls-78{fill:url(#linear-gradient-58);}.cls-79{fill:url(#linear-gradient-59);}.cls-80{fill:url(#linear-gradient-60);}.cls-81{fill:url(#linear-gradient-61);}.cls-82{opacity:0.6;fill:url(#linear-gradient-62);}.cls-83{fill:url(#linear-gradient-63);}.cls-84{fill:url(#linear-gradient-64);}.cls-85{fill:url(#linear-gradient-65);}.cls-86{fill:url(#linear-gradient-66);}.cls-87{fill:url(#linear-gradient-67);}.cls-88{fill:url(#linear-gradient-68);}.cls-89{fill:url(#linear-gradient-69);}.cls-90{fill:url(#linear-gradient-70);}.cls-91{fill:url(#linear-gradient-71);}.cls-92{fill:url(#linear-gradient-72);}.cls-93{fill:url(#linear-gradient-73);}.cls-94{fill:url(#linear-gradient-74);}.cls-95{fill:url(#linear-gradient-75);}.cls-96{fill:url(#linear-gradient-76);}.cls-97{fill:url(#linear-gradient-77);}.cls-98{opacity:0.2;}.cls-99{fill:url(#linear-gradient-78);}.cls-100{fill:url(#linear-gradient-79);}.cls-101{fill:url(#linear-gradient-80);}.cls-102{opacity:0.1;fill:url(#linear-gradient-81);}.cls-103{fill:url(#linear-gradient-82);}.cls-104{fill:url(#linear-gradient-83);}</style><linearGradient id="linear-gradient" x1="2545.56" y1="1616.35" x2="2545.56" y2="1026.04" gradientUnits="userSpaceOnUse"><stop offset="0.3"/><stop offset="0.36" stop-color="#070707"/><stop offset="0.45" stop-color="#1b1b1b"/><stop offset="0.56" stop-color="#3b3b3b"/><stop offset="0.68" stop-color="#686868"/><stop offset="0.81" stop-color="#a2a2a2"/><stop offset="0.95" stop-color="#e7e7e7"/><stop offset="1" stop-color="#fff"/></linearGradient><linearGradient id="linear-gradient-2" x1="1098.13" y1="1656.84" x2="1098.13" y2="1066.53" xlink:href="#linear-gradient"/><linearGradient id="linear-gradient-3" x1="2589.31" y1="1229.16" x2="2262.52" y2="2795.95" gradientTransform="translate(-767.88)" gradientUnits="userSpaceOnUse"><stop offset="0" stop-color="#aa80f9"/><stop offset="1" stop-color="#6165d7"/></linearGradient><linearGradient id="linear-gradient-4" x1="-121.73" y1="2906.13" x2="-23.87" y2="2906.13" gradientTransform="matrix(-1, 0.03, 0.03, 1, 1437.79, -31.24)" gradientUnits="userSpaceOnUse"><stop offset="0" stop-color="#444b8c"/><stop offset="1" stop-color="#26264f"/></linearGradient><linearGradient id="linear-gradient-5" x1="4141.98" y1="2839.33" x2="4177.06" y2="2839.33" gradientTransform="matrix(-1, 0, 0, 1, 5722.28, 0)" gradientUnits="userSpaceOnUse"><stop offset="0" stop-color="#ffc444"/><stop offset="1" stop-color="#f36f56"/></linearGradient><linearGradient id="linear-gradient-6" x1="318.68" y1="3181.61" x2="422.66" y2="3181.61" gradientTransform="matrix(-0.96, 0.27, 0.27, 0.96, 1424.97, -308.92)" xlink:href="#linear-gradient-4"/><linearGradient id="linear-gradient-7" x1="3829.16" y1="2827.75" x2="3872.49" y2="2827.75" xlink:href="#linear-gradient-5"/><linearGradient id="linear-gradient-8" x1="2476.16" y1="1205.56" x2="2149.37" y2="2772.35" xlink:href="#linear-gradient-3"/><linearGradient id="linear-gradient-9" x1="2195.12" y1="2545.53" x2="2319.15" y2="1956.42" xlink:href="#linear-gradient-3"/><linearGradient id="linear-gradient-10" x1="2252.3" y1="1158.86" x2="1925.51" y2="2725.66" xlink:href="#linear-gradient-3"/><linearGradient id="linear-gradient-11" x1="4081.6" y1="1837.55" x2="4191.18" y2="1837.55" xlink:href="#linear-gradient-5"/><linearGradient id="linear-gradient-12" x1="3631.11" y1="1888.44" x2="3705.03" y2="1888.44" xlink:href="#linear-gradient-5"/><linearGradient id="linear-gradient-13" x1="4164.12" y1="1365.11" x2="4160.23" y2="1635.05" xlink:href="#linear-gradient-5"/><linearGradient id="linear-gradient-14" x1="4089.03" y1="1331.11" x2="4183.85" y2="1331.11" xlink:href="#linear-gradient-5"/><linearGradient id="linear-gradient-15" x1="4098.15" y1="1347.4" x2="4118.99" y2="1347.4" xlink:href="#linear-gradient-5"/><linearGradient id="linear-gradient-16" x1="3011.94" y1="2807.63" x2="3030.7" y2="3046.38" gradientTransform="translate(-626.26)" gradientUnits="userSpaceOnUse"><stop offset="0" stop-color="#26264f"/><stop offset="1" stop-color="#444b8c"/></linearGradient><linearGradient id="linear-gradient-17" x1="2094.16" y1="2656.68" x2="2090.22" y2="2371.11" gradientTransform="translate(820.66 -36.2) rotate(9.85)" xlink:href="#linear-gradient-5"/><linearGradient id="linear-gradient-18" x1="2777.31" y1="2791.66" x2="2796.07" y2="3030.42" xlink:href="#linear-gradient-16"/><linearGradient id="linear-gradient-19" x1="1860.25" y1="2681.07" x2="1856.32" y2="2395.5" gradientTransform="translate(820.66 -36.2) rotate(9.85)" xlink:href="#linear-gradient-5"/><linearGradient id="linear-gradient-20" x1="2852.58" y1="2300.64" x2="2745.46" y2="2460.02" gradientUnits="userSpaceOnUse"><stop offset="0" stop-color="#893976"/><stop offset="1" stop-color="#311944"/></linearGradient><linearGradient id="linear-gradient-21" x1="2173.06" y1="2651.56" x2="2941.85" y2="2651.56" xlink:href="#linear-gradient-20"/><linearGradient id="linear-gradient-22" x1="2584.16" y1="2074.62" x2="2926.35" y2="2401.38" gradientUnits="userSpaceOnUse"><stop offset="0" stop-color="#ff9085"/><stop offset="1" stop-color="#fb6fbb"/></linearGradient><linearGradient id="linear-gradient-23" x1="2174.97" y1="2177.35" x2="2167.16" y2="2212.96" gradientTransform="matrix(1, 0, 0, 1, 0, 0)" xlink:href="#linear-gradient-5"/><linearGradient id="linear-gradient-24" x1="5866.25" y1="1148.36" x2="6079.67" y2="1416.86" gradientTransform="translate(-2744.34 -923.84) rotate(14.93)" xlink:href="#linear-gradient-5"/><linearGradient id="linear-gradient-25" x1="5876.47" y1="1134.85" x2="6114.74" y2="1434.63" gradientTransform="translate(-2744.34 -923.84) rotate(14.93)" xlink:href="#linear-gradient-5"/><linearGradient id="linear-gradient-26" x1="2490.52" y1="2172.63" x2="2832.63" y2="2499.31" xlink:href="#linear-gradient-22"/><linearGradient id="linear-gradient-27" x1="2505.9" y1="2134.31" x2="2894" y2="2504.9" xlink:href="#linear-gradient-22"/><linearGradient id="linear-gradient-28" x1="2073.32" y1="1402.98" x2="2174.11" y2="1892.09" gradientTransform="matrix(1, 0, 0, 1, 0, 0)" xlink:href="#linear-gradient-3"/><linearGradient id="linear-gradient-29" x1="2511.95" y1="3055.49" x2="3031.92" y2="3055.49" gradientTransform="matrix(1, 0, 0, 1, 0, 0)" xlink:href="#linear-gradient-3"/><linearGradient id="linear-gradient-30" x1="2669.34" y1="3029.99" x2="3106.25" y2="3029.99" gradientTransform="translate(-74.33)" xlink:href="#linear-gradient-3"/><linearGradient id="linear-gradient-31" x1="2817.36" y1="2828.06" x2="2875.17" y2="2828.06" gradientTransform="translate(-74.33)" xlink:href="#linear-gradient-3"/><linearGradient id="linear-gradient-32" x1="3133.26" y1="2766.59" x2="3027.26" y2="2628.47" gradientTransform="translate(-74.33)" gradientUnits="userSpaceOnUse"><stop offset="0" stop-color="#311944"/><stop offset="1" stop-color="#893976"/></linearGradient><mask id="mask" x="1623.63" y="571.04" width="954.69" height="590.31" maskUnits="userSpaceOnUse"><g transform="translate(-444.58 -455)"><polygon class="cls-1" points="2424.1 1026.04 2068.22 1616.35 3022.9 1616.35 2683.99 1038.23 2424.1 1026.04"/></g></mask><linearGradient id="linear-gradient-33" x1="2433.06" y1="919.72" x2="2638.85" y2="1091.56" gradientUnits="userSpaceOnUse"><stop offset="0" stop-color="#e38ddd"/><stop offset="1" stop-color="#9571f6"/></linearGradient><linearGradient id="linear-gradient-34" x1="1971.61" y1="484.92" x2="2177.39" y2="656.77" xlink:href="#linear-gradient-33"/><linearGradient id="linear-gradient-35" x1="2493.72" y1="944.59" x2="2605.99" y2="944.59" gradientTransform="matrix(1, 0, 0, 1, 0, 0)" xlink:href="#linear-gradient-3"/><mask id="mask-2" x="176.2" y="611.53" width="954.69" height="590.31" maskUnits="userSpaceOnUse"><g transform="translate(-444.58 -455)"><polygon class="cls-2" points="976.67 1066.53 620.78 1656.84 1575.47 1656.84 1236.56 1078.72 976.67 1066.53"/></g></mask><linearGradient id="linear-gradient-36" x1="985.64" y1="960.2" x2="1191.42" y2="1132.05" xlink:href="#linear-gradient-33"/><linearGradient id="linear-gradient-37" x1="524.18" y1="525.41" x2="729.96" y2="697.26" xlink:href="#linear-gradient-33"/><linearGradient id="linear-gradient-38" x1="1046.29" y1="985.08" x2="1158.56" y2="985.08" gradientTransform="matrix(1, 0, 0, 1, 0, 0)" xlink:href="#linear-gradient-3"/><linearGradient id="linear-gradient-39" x1="1524.65" y1="1005.99" x2="1528.58" y2="974.56" gradientTransform="matrix(1, 0, 0, 1, 0, 0)" xlink:href="#linear-gradient-16"/><linearGradient id="linear-gradient-40" x1="1953.08" y1="1432.35" x2="1992.37" y2="1361.62" gradientTransform="matrix(1, 0, 0, 1, 0, 0)" xlink:href="#linear-gradient-16"/><linearGradient id="linear-gradient-41" x1="1908.64" y1="1398.83" x2="2039.05" y2="1398.83" gradientTransform="matrix(1, 0, 0, 1, 0, 0)" xlink:href="#linear-gradient-16"/><linearGradient id="linear-gradient-42" x1="1956.82" y1="1413.02" x2="1995.62" y2="1338.36" gradientTransform="matrix(1, 0, 0, 1, 0, 0)" xlink:href="#linear-gradient-16"/><linearGradient id="linear-gradient-43" x1="1902.8" y1="1376.85" x2="2044.83" y2="1376.85" gradientTransform="matrix(1, 0, 0, 1, 0, 0)" xlink:href="#linear-gradient-16"/><linearGradient id="linear-gradient-44" x1="1900.69" y1="1351.19" x2="2046.99" y2="1351.19" gradientTransform="matrix(1, 0, 0, 1, 0, 0)" xlink:href="#linear-gradient-16"/><linearGradient id="linear-gradient-45" x1="1970.21" y1="1340.15" x2="1984.62" y2="1272.7" gradientTransform="matrix(1, 0, 0, 1, 0, 0)" xlink:href="#linear-gradient-16"/><linearGradient id="linear-gradient-46" x1="1942.54" y1="963.79" x2="2228.37" y2="1417.58" gradientUnits="userSpaceOnUse"><stop offset="0" stop-color="#fcb148"/><stop offset="0.05" stop-color="#fdba46"/><stop offset="0.14" stop-color="#ffc244"/><stop offset="0.32" stop-color="#ffc444"/><stop offset="0.48" stop-color="#fdb946"/><stop offset="0.78" stop-color="#f99c4d"/><stop offset="0.87" stop-color="#f8924f"/><stop offset="1" stop-color="#f8924f"/></linearGradient><linearGradient id="linear-gradient-47" x1="1890.33" y1="1313.2" x2="1948.61" y2="1142.94" gradientUnits="userSpaceOnUse"><stop offset="0.49" stop-color="#ebeff2"/><stop offset="1" stop-color="#fff"/></linearGradient><linearGradient id="linear-gradient-48" x1="1946.05" y1="1332.28" x2="2004.33" y2="1162.01" xlink:href="#linear-gradient-47"/><linearGradient id="linear-gradient-49" x1="1870.03" y1="1306.26" x2="1928.31" y2="1135.99" xlink:href="#linear-gradient-47"/><linearGradient id="linear-gradient-50" x1="1952.57" y1="861.5" x2="1895.6" y2="1331.03" xlink:href="#linear-gradient-46"/><linearGradient id="linear-gradient-51" x1="1821.99" y1="3389.84" x2="1821.99" y2="3307.06" gradientTransform="matrix(-1, 0.05, 0.05, 1, 2810.88, -528.79)" xlink:href="#linear-gradient-5"/><linearGradient id="linear-gradient-52" x1="220.69" y1="2419.95" x2="-54.67" y2="2616.63" gradientTransform="matrix(-1, 0, 0, 1, 975.4, 0)" xlink:href="#linear-gradient-4"/><linearGradient id="linear-gradient-53" x1="2074.18" y1="3025.77" x2="2121.7" y2="3068.03" gradientTransform="matrix(-0.99, -0.14, -0.14, 0.99, 3687.33, 206.94)" xlink:href="#linear-gradient-4"/><linearGradient id="linear-gradient-54" x1="2078.96" y1="3020.4" x2="2126.47" y2="3062.66" gradientTransform="matrix(-0.99, -0.14, -0.14, 0.99, 3687.33, 206.94)" xlink:href="#linear-gradient-4"/><linearGradient id="linear-gradient-55" x1="2225.82" y1="2941.35" x2="2273.34" y2="2983.62" gradientTransform="matrix(-1, 0, 0, 1, 3584.48, 0)" xlink:href="#linear-gradient-4"/><linearGradient id="linear-gradient-56" x1="2034.82" y1="3236.92" x2="2034.82" y2="3154.13" gradientTransform="matrix(-0.98, 0.19, 0.19, 0.98, 2684.26, -582.01)" xlink:href="#linear-gradient-5"/><linearGradient id="linear-gradient-57" x1="2230.59" y1="2935.98" x2="2278.11" y2="2978.25" gradientTransform="matrix(-1, 0, 0, 1, 3584.48, 0)" xlink:href="#linear-gradient-4"/><linearGradient id="linear-gradient-58" x1="-272.88" y1="2052.87" x2="-301.93" y2="2185.47" gradientTransform="matrix(-1, 0, 0, 1, 975.4, 0)" xlink:href="#linear-gradient-5"/><linearGradient id="linear-gradient-59" x1="5754.98" y1="-4756.64" x2="6731.14" y2="-5974.14" gradientTransform="matrix(-1, 0, 0, 1, 975.4, 0)" xlink:href="#linear-gradient-46"/><linearGradient id="linear-gradient-60" x1="3395.95" y1="1802.83" x2="3605.49" y2="2066.46" gradientTransform="matrix(-0.97, 0.26, 0.26, 0.97, 3719.74, -923.84)" xlink:href="#linear-gradient-5"/><linearGradient id="linear-gradient-61" x1="3405.98" y1="1789.56" x2="3639.94" y2="2083.91" gradientTransform="matrix(-0.97, 0.26, 0.26, 0.97, 3719.74, -923.84)" xlink:href="#linear-gradient-5"/><linearGradient id="linear-gradient-62" x1="-134.44" y1="2171.33" x2="201.47" y2="2492.09" gradientTransform="matrix(-1, 0, 0, 1, 975.4, 0)" xlink:href="#linear-gradient-46"/><linearGradient id="linear-gradient-63" x1="5541.92" y1="-4927.45" x2="6518.08" y2="-6144.95" gradientTransform="matrix(-1, 0, 0, 1, 975.4, 0)" xlink:href="#linear-gradient-46"/><linearGradient id="linear-gradient-64" x1="-373.19" y1="2660.79" x2="308.71" y2="2660.79" gradientTransform="matrix(-1, 0, 0, 1, 975.4, 0)" xlink:href="#linear-gradient-4"/><linearGradient id="linear-gradient-65" x1="159.21" y1="1717.04" x2="262.29" y2="2217.29" gradientTransform="matrix(1, 0, 0, 1, 0, 0)" xlink:href="#linear-gradient-3"/><linearGradient id="linear-gradient-66" x1="541.71" y1="3074.99" x2="1052.27" y2="3074.99" gradientTransform="matrix(1, 0, 0, 1, 0, 0)" xlink:href="#linear-gradient-3"/><linearGradient id="linear-gradient-67" x1="-459.14" y1="3049.94" x2="-30.14" y2="3049.94" gradientTransform="matrix(-1, 0, 0, 1, 511.58, 0)" xlink:href="#linear-gradient-3"/><linearGradient id="linear-gradient-68" x1="-313.8" y1="2851.68" x2="-257.03" y2="2851.68" gradientTransform="matrix(-1, 0, 0, 1, 511.58, 0)" xlink:href="#linear-gradient-3"/><linearGradient id="linear-gradient-69" x1="-3.62" y1="2791.31" x2="-107.69" y2="2655.7" gradientTransform="matrix(-1, 0, 0, 1, 511.58, 0)" xlink:href="#linear-gradient-32"/><linearGradient id="linear-gradient-70" x1="1353.17" y1="2805.85" x2="1389.31" y2="2805.85" gradientTransform="matrix(1, 0, 0, 1, 0, 0)" xlink:href="#linear-gradient-5"/><linearGradient id="linear-gradient-71" x1="1295.44" y1="2879.24" x2="1304.11" y2="2750.1" gradientUnits="userSpaceOnUse"><stop offset="0.1" stop-color="#311944"/><stop offset="0.27" stop-color="#371b47"/><stop offset="0.48" stop-color="#462150"/><stop offset="0.72" stop-color="#612a5f"/><stop offset="0.97" stop-color="#853774"/><stop offset="1" stop-color="#893976"/></linearGradient><linearGradient id="linear-gradient-72" x1="1246.81" y1="2786.2" x2="1346.02" y2="2839.39" xlink:href="#linear-gradient-71"/><linearGradient id="linear-gradient-73" x1="1212.69" y1="2808.5" x2="1244.57" y2="2808.5" gradientTransform="matrix(1, 0, 0, 1, 0, 0)" xlink:href="#linear-gradient-5"/><linearGradient id="linear-gradient-74" x1="1105.8" y1="2952.25" x2="1049.1" y2="2433.9" gradientUnits="userSpaceOnUse"><stop offset="0.1" stop-color="#311944"/><stop offset="0.69" stop-color="#6d2f66"/><stop offset="1" stop-color="#893976"/></linearGradient><linearGradient id="linear-gradient-75" x1="1352.52" y1="3167.34" x2="977" y2="2958.24" gradientTransform="matrix(1, 0, 0, 1, 0, 0)" xlink:href="#linear-gradient-32"/><linearGradient id="linear-gradient-76" x1="1013.66" y1="2876.41" x2="1126.9" y2="3066.31" gradientTransform="matrix(1, 0, 0, 1, 0, 0)" xlink:href="#linear-gradient-32"/><linearGradient id="linear-gradient-77" x1="857.62" y1="2194.88" x2="898.92" y2="2749.19" xlink:href="#linear-gradient-74"/><linearGradient id="linear-gradient-78" x1="1228.83" y1="2963.67" x2="1532.95" y2="3197.99" gradientTransform="matrix(1, 0, 0, 1, 0, 0)" xlink:href="#linear-gradient-32"/><linearGradient id="linear-gradient-79" x1="1150.49" y1="2931.88" x2="1278.56" y2="2926.9" xlink:href="#linear-gradient-74"/><linearGradient id="linear-gradient-80" x1="1349.82" y1="3361.44" x2="1305.36" y2="2861.71" xlink:href="#linear-gradient-71"/><linearGradient id="linear-gradient-81" x1="1371.5" y1="3477.36" x2="1296.08" y2="2787.95" gradientTransform="matrix(1, 0, 0, 1, 0, 0)" xlink:href="#linear-gradient-32"/><linearGradient id="linear-gradient-82" x1="1477.85" y1="3114.06" x2="1250.43" y2="2995.18" gradientTransform="matrix(1, 0, 0, 1, 0, 0)" xlink:href="#linear-gradient-5"/><linearGradient id="linear-gradient-83" x1="1273.97" y1="3013.47" x2="1506.06" y2="3096.53" gradientTransform="matrix(1, 0, 0, 1, 0, 0)" xlink:href="#linear-gradient-5"/></defs><title>workplace</title><g class="cls-3"><g id="Illustration"><path class="cls-4" d="M3218.54,1650.82c-76.31-499.48-389.18-1113.13-1007.29-1177.35,0,0-469.29-57.08-931.91,29.44C1004.77,554.25,764,707.1,611.68,926.78S408.46,1414.32,470.21,1669.7c40.11,165.87,67.22,337.54,59.78,508-13,296.64-5.5,573.53,282.38,750.44,257.05,158,580.54,297.27,889.16,321.67,209.73,16.58,444.94-10.25,647.08-64.86C3378.78,2906.65,3294.84,2150.3,3218.54,1650.82Z" transform="translate(-444.58 -455)"/><path class="cls-5" d="M1413.37,1968.42c26.82,13.53,60.44,1,75.1-28.07s4.79-63.56-22-77.09c-1.39-.7-2.81-1.29-4.23-1.85a340,340,0,0,0,11.13-48.43c1.53,0,3.07,0,4.64-.18,30.55-2.8,54.74-30.94,54-62.86s-26.07-55.52-56.62-52.72c-1.6.15-3.17.4-4.72.68a313.84,313.84,0,0,0-13.2-46.19c1.4-.82,2.8-1.67,4.16-2.64,26.1-18.38,34.37-54.55,18.48-80.79s-49.95-32.61-76-14.23c-1.34.94-2.59,2-3.84,3a276,276,0,0,0-34-31.57c.86-1.41,1.7-2.84,2.46-4.35,14.65-29,33.82-60.77,6.79-73.88-62.52-30.33-89.26-4.17-103.91,24.87-.76,1.5-1.41,3-2,4.56a275.74,275.74,0,0,0-45.58-8.58c.09-1.62.16-3.23.12-4.87-.72-31.91,8.71-49.21-22-49.73-66.9-1.14-89.4,28-88.68,59.87,0,1.66.18,3.29.35,4.91a311.11,311.11,0,0,0-45,16.83c-.7-1.43-1.42-2.84-2.25-4.21-15.9-26.24-49.95-32.61-76-14.23s-34.37,54.55-18.47,80.79c.81,1.35,1.71,2.61,2.61,3.85A339.39,339.39,0,0,0,942.27,1599c-1.3-.8-2.61-1.6-4-2.3-26.82-13.53-60.44-1-75.1,28.08s-4.79,63.55,22,77.08c1.39.7,2.81,1.29,4.23,1.85a340.27,340.27,0,0,0-11.13,48.43c-1.53,0-3.07,0-4.64.18-30.55,2.8-54.74,30.94-54,62.86s26.07,55.52,56.62,52.72c1.6-.15,3.16-.4,4.72-.68a313.14,313.14,0,0,0,13.2,46.19c-1.4.82-2.8,1.68-4.16,2.64-26.1,18.38-34.38,54.55-18.48,80.79s68.35,38.32,94.45,19.94c1.34-.94-15.81-7.67-14.56-8.7a276,276,0,0,0,34,31.57c-.86,1.41-1.7,2.85-2.46,4.35-14.65,29-4.79,63.55,22,77.09s60.44,1,75.09-28.08c.76-1.5,1.41-3,2-4.56a276.8,276.8,0,0,0,45.58,8.59c-.09,1.61-.16,3.23-.12,4.86.72,31.92,26.06,55.52,56.62,52.72s54.74-30.94,54-62.85c0-1.67-.18-3.3-.35-4.92a311.68,311.68,0,0,0,45-16.82c.7,1.42,1.43,2.83,2.26,4.2,15.9,26.24,49.94,32.61,76.05,14.23s34.37-54.55,18.47-80.79c-.82-1.35-1.71-2.6-2.61-3.84a340.42,340.42,0,0,0,32.35-37.72C1410.67,1966.93,1412,1967.72,1413.37,1968.42Zm-333.89,5c-97.37-49.14-133.18-174.44-80-279.88s175.28-151.07,272.65-101.93,133.18,174.45,80,279.88S1176.85,2022.61,1079.48,1973.47Z" transform="translate(-444.58 -455)"/><path class="cls-5" d="M1478,1812.8c30.55-2.8,54.74-30.94,54-62.86s-26.07-55.52-56.62-52.72c-1.6.15-3.17.4-4.72.68a313.49,313.49,0,0,0-13.2-46.19c1.4-.82,2.8-1.67,4.16-2.64,26.1-18.38,58.34-62.71,39.84-87.18-35.13-46.45-71.31-26.22-97.41-7.84-1.34.94-2.59,2-3.84,3a276,276,0,0,0-34-31.57c.86-1.41,1.7-2.84,2.46-4.35a60.87,60.87,0,0,0,3.31-48q-37.73,66.76-74.31,134.14c77.72,56.66,102.7,168.64,54.44,264.27-40.9,81-122.48,126.69-202.26,121.19-3.53,9.24-7,18.52-10.79,27.67-10.28,24.82-22,49.14-33.67,73.43q11.1,2.05,22.28,3.22c-.09,1.61-.16,3.23-.12,4.86.72,31.92,20.16,59,75.54,55.91,30.63-1.7,35.82-34.13,35.1-66,0-1.67-.18-3.3-.35-4.92a311.68,311.68,0,0,0,45-16.82c.7,1.42,1.43,2.83,2.26,4.2,15.9,26.24,70.86,37.27,97,18.89s13.46-59.21-2.44-85.45c-.82-1.35-1.71-2.6-2.61-3.84a340.42,340.42,0,0,0,32.35-37.72c1.3.81,2.61,1.6,4,2.3,26.82,13.53,60.44,1,75.1-28.08s4.79-63.55-22-77.08c-1.39-.7-2.81-1.29-4.23-1.85a340,340,0,0,0,11.13-48.43C1474.87,1813,1476.41,1812.94,1478,1812.8Z" transform="translate(-444.58 -455)"/><path class="cls-6" d="M1442.19,1971.62c26.82,13.54,60.44,1,75.09-28.07s4.79-63.55-22-77.08c-1.39-.7-2.81-1.29-4.23-1.86a339.6,339.6,0,0,0,11.12-48.43c1.54,0,3.08,0,4.64-.18,30.56-2.8,54.74-30.94,54-62.85s-26.07-55.52-56.62-52.72c-1.6.14-3.17.4-4.73.68a310.72,310.72,0,0,0-13.2-46.19c1.41-.82,2.81-1.68,4.17-2.64,26.1-18.38,34.37-54.55,18.47-80.79s-49.94-32.62-76-14.23c-1.34.94-2.6,2-3.84,3a276.64,276.64,0,0,0-34-31.57c.85-1.42,1.69-2.85,2.45-4.35,14.66-29,4.8-63.55-22-77.09s-60.44-1-75.09,28.08c-.76,1.5-1.42,3-2.05,4.56a276.41,276.41,0,0,0-45.58-8.59c.09-1.61.17-3.23.13-4.86-.72-31.92-26.07-55.52-56.62-52.72s-54.74,30.94-54,62.85c0,1.67.18,3.3.35,4.92a312.24,312.24,0,0,0-45,16.82c-.7-1.42-1.42-2.83-2.25-4.2-15.9-26.24-49.95-32.62-76-14.23s-34.37,54.55-18.47,80.79c.81,1.34,1.7,2.6,2.61,3.84a340.42,340.42,0,0,0-32.35,37.72c-1.3-.81-2.61-1.6-4-2.3-26.82-13.54-60.44-1-75.1,28.07s-4.79,63.55,22,77.09c1.38.7,2.8,1.29,4.23,1.85a338.29,338.29,0,0,0-11.13,48.43c-1.54,0-3.08,0-4.64.18-30.55,2.8-54.74,30.94-54,62.86s26.07,55.51,56.62,52.72c1.59-.15,3.16-.41,4.72-.69a310.72,310.72,0,0,0,13.2,46.19c-1.41.83-2.8,1.68-4.17,2.64-26.1,18.38-34.37,54.56-18.47,80.8s49.94,32.61,76,14.23c1.34-.94,2.6-2,3.84-3a275.93,275.93,0,0,0,34,31.56c-.86,1.42-1.7,2.85-2.46,4.36-14.66,29-4.79,63.55,22,77.08s60.44,1,75.1-28.07c.76-1.51,1.41-3,2-4.56a275.54,275.54,0,0,0,45.58,8.58c-.09,1.61-.16,3.23-.13,4.87.72,31.91,26.07,55.51,56.62,52.72s54.74-30.94,54-62.86c0-1.67-.18-3.3-.35-4.92a311.06,311.06,0,0,0,45-16.82c.7,1.42,1.43,2.84,2.26,4.21,15.9,26.24,49.94,32.61,76,14.23s34.37-54.56,18.48-80.8c-.82-1.34-1.71-2.6-2.61-3.84a337.47,337.47,0,0,0,32.34-37.72C1439.48,1970.13,1440.8,1970.92,1442.19,1971.62Zm-333.9,5.05c-97.37-49.13-133.17-174.44-80-279.87s175.28-151.07,272.65-101.93,133.17,174.44,80,279.88S1205.67,2025.81,1108.29,1976.67Z" transform="translate(-444.58 -455)"/><path class="cls-5" d="M2366.33,1505.75c32.6,16.45,73.46,1.17,91.27-34.12s5.83-77.24-26.77-93.69c-1.68-.85-3.41-1.57-5.14-2.25a413,413,0,0,0,13.53-58.86c1.86,0,3.74,0,5.64-.22,37.13-3.41,66.53-37.61,65.66-76.4s-31.69-67.48-68.82-64.08c-1.94.18-3.85.49-5.74.84a378.65,378.65,0,0,0-16-56.14c1.7-1,3.4-2,5.06-3.21,31.72-22.34,41.77-66.31,22.45-98.2s-60.7-39.63-92.42-17.29c-1.63,1.14-3.16,2.38-4.67,3.63a335.76,335.76,0,0,0-41.3-38.37c1-1.72,2.06-3.46,3-5.29,17.81-35.29,41.1-73.85,8.25-89.79-76-36.86-108.48-5.07-126.29,30.23-.92,1.82-1.72,3.68-2.48,5.54a337.24,337.24,0,0,0-55.4-10.44c.11-2,.19-3.92.15-5.91-.87-38.79,10.59-59.81-26.7-60.44-81.3-1.38-108.64,34-107.77,72.76,0,2,.22,4,.42,6a378.75,378.75,0,0,0-54.68,20.44c-.86-1.72-1.74-3.44-2.75-5.11-19.32-31.89-60.7-39.63-92.42-17.29s-41.78,66.3-22.45,98.19c1,1.64,2.07,3.16,3.17,4.67a412.41,412.41,0,0,0-39.32,45.85c-1.58-1-3.18-2-4.86-2.8-32.6-16.45-73.46-1.18-91.27,34.12s-5.83,77.24,26.77,93.69c1.68.85,3.41,1.56,5.14,2.25A413,413,0,0,0,1716,1242.9c-1.86,0-3.74,0-5.64.22-37.13,3.4-66.53,37.6-65.65,76.39s31.68,67.48,68.81,64.08c1.94-.18,3.85-.49,5.74-.83a379.34,379.34,0,0,0,16,56.14c-1.7,1-3.4,2-5.06,3.21-31.72,22.34-41.77,66.3-22.45,98.19s83.07,46.58,114.79,24.24c1.63-1.14-19.21-9.32-17.7-10.57a335.68,335.68,0,0,0,41.3,38.36c-1,1.72-2.06,3.46-3,5.29-17.82,35.3-5.83,77.24,26.76,93.69s73.46,1.17,91.27-34.12c.92-1.83,1.72-3.68,2.48-5.54a336.17,336.17,0,0,0,55.4,10.43c-.11,2-.19,3.93-.15,5.91.87,38.79,31.68,67.48,68.82,64.08s66.52-37.6,65.65-76.39c0-2-.22-4-.42-6a377.92,377.92,0,0,0,54.68-20.45c.86,1.73,1.74,3.45,2.75,5.11,19.32,31.9,60.7,39.64,92.42,17.3s41.78-66.3,22.46-98.2c-1-1.63-2.08-3.16-3.18-4.66a413.32,413.32,0,0,0,39.32-45.85C2363.05,1503.94,2364.65,1504.9,2366.33,1505.75Zm-405.81,6.14c-118.34-59.73-161.86-212-97.19-340.17s213-183.6,331.38-123.88,161.86,212,97.19,340.16S2078.87,1571.61,1960.52,1511.89Z" transform="translate(-444.58 -455)"/><path class="cls-5" d="M2444.86,1316.61c37.13-3.41,66.53-37.61,65.66-76.4s-31.69-67.48-68.82-64.08c-1.94.18-3.85.49-5.74.84a379,379,0,0,0-16-56.14c1.7-1,3.4-2,5.06-3.21,31.72-22.34,70.9-76.23,48.41-106-42.69-56.45-86.66-31.86-118.38-9.52-1.63,1.14-3.16,2.38-4.67,3.63a335.76,335.76,0,0,0-41.3-38.37c1-1.72,2.06-3.46,3-5.28a74,74,0,0,0,4-58.33q-45.84,81.13-90.31,163c94.46,68.86,124.81,205,66.16,321.19-49.71,98.5-148.86,154-245.82,147.29-4.3,11.23-8.52,22.52-13.12,33.64-12.49,30.17-26.7,59.72-40.92,89.24q13.49,2.5,27.08,3.91c-.11,2-.19,3.93-.15,5.91.87,38.79,24.5,71.69,91.81,68,37.23-2.07,43.53-41.48,42.66-80.27,0-2-.22-4-.42-6a377.92,377.92,0,0,0,54.68-20.45c.86,1.73,1.74,3.45,2.75,5.11,19.32,31.9,86.11,45.31,117.84,23s16.36-72-3-103.86c-1-1.63-2.08-3.16-3.18-4.67a412.3,412.3,0,0,0,39.32-45.84c1.58,1,3.18,2,4.86,2.8,32.6,16.45,73.46,1.17,91.27-34.12s5.83-77.24-26.77-93.69c-1.68-.85-3.41-1.57-5.14-2.25a413,413,0,0,0,13.53-58.86C2441.08,1316.82,2443,1316.78,2444.86,1316.61Z" transform="translate(-444.58 -455)"/><path class="cls-6" d="M2401.36,1509.65c32.59,16.44,73.46,1.17,91.27-34.13s5.82-77.23-26.77-93.68c-1.69-.86-3.41-1.57-5.14-2.26a412.67,412.67,0,0,0,13.52-58.86c1.87,0,3.74,0,5.64-.22,37.14-3.4,66.53-37.6,65.66-76.39s-31.68-67.48-68.82-64.08c-1.94.18-3.84.49-5.74.83a379.34,379.34,0,0,0-16-56.14c1.71-1,3.41-2,5.06-3.21,31.73-22.33,41.78-66.3,22.46-98.19s-60.71-39.64-92.43-17.3c-1.62,1.15-3.15,2.38-4.66,3.64a335.8,335.8,0,0,0-41.31-38.37c1-1.72,2.07-3.46,3-5.29,17.81-35.29,5.83-77.24-26.77-93.69s-73.46-1.17-91.27,34.12c-.92,1.83-1.71,3.69-2.48,5.55a335,335,0,0,0-55.4-10.44c.11-2,.2-3.92.16-5.91-.88-38.79-31.69-67.48-68.82-64.08s-66.53,37.61-65.66,76.4c0,2,.22,4,.43,6a378.48,378.48,0,0,0-54.69,20.45c-.85-1.73-1.73-3.45-2.74-5.11-19.32-31.9-60.71-39.64-92.43-17.3s-41.77,66.31-22.45,98.2c1,1.63,2.07,3.16,3.17,4.67a413.13,413.13,0,0,0-39.31,45.84c-1.58-1-3.18-1.94-4.87-2.8-32.59-16.45-73.46-1.17-91.27,34.13s-5.82,77.23,26.77,93.68c1.69.86,3.41,1.57,5.14,2.26A412.67,412.67,0,0,0,1751,1246.8c-1.87,0-3.74,0-5.64.22-37.14,3.4-66.53,37.6-65.66,76.39s31.68,67.48,68.82,64.08c1.94-.18,3.84-.49,5.74-.83a378.13,378.13,0,0,0,16,56.14c-1.71,1-3.41,2-5.07,3.21-31.72,22.33-41.77,66.3-22.45,98.19s60.7,39.64,92.43,17.3c1.62-1.15,3.15-2.38,4.66-3.64a335.08,335.08,0,0,0,41.31,38.37c-1,1.72-2.07,3.46-3,5.29-17.81,35.29-5.83,77.24,26.77,93.69s73.45,1.17,91.27-34.12c.92-1.83,1.71-3.69,2.48-5.55a334.77,334.77,0,0,0,55.4,10.44c-.11,2-.2,3.92-.16,5.91.88,38.79,31.69,67.48,68.82,64.08s66.53-37.61,65.66-76.4c0-2-.22-4-.43-6a379.66,379.66,0,0,0,54.69-20.45c.85,1.73,1.73,3.45,2.74,5.11,19.32,31.89,60.7,39.64,92.43,17.3s41.77-66.31,22.45-98.2c-1-1.63-2.07-3.16-3.17-4.67a414.2,414.2,0,0,0,39.31-45.84C2398.07,1507.83,2399.67,1508.79,2401.36,1509.65Zm-405.81,6.13c-118.35-59.72-161.86-212-97.19-340.16s213-183.61,331.37-123.88,161.86,212,97.19,340.16S2113.89,1575.51,1995.55,1515.78Z" transform="translate(-444.58 -455)"/><path class="cls-7" d="M1894.37,1678.34c28.44-30.36-50.27-144.4-92.4-194.36-36.8-43.66-74.63-88.53-121.08-82.85-40.78,5-80.46,48-82.84,89.22C1591.65,1601.24,1854,1721.49,1894.37,1678.34Z" transform="translate(-444.58 -455)"/><path class="cls-8" d="M1553,2850.19c-5.35,4.35-6.33,15.22-7,22.32-.29,3.17-.43,4.76-.07,5.88,2.58,8.17,18.43,9,43.29,11.57,39.28,4,51,7.1,54,1.26,2.88-5.48-4.09-14.45-4.88-15.44-4.22-5.31-9.4-7.25-19.41-10.54-18.53-6.1-31-9.44-34.85-10.45C1560.48,2848.47,1556.53,2847.34,1553,2850.19Z" transform="translate(-444.58 -455)"/><path class="cls-9" d="M1576.37,2814.31l3.93,44.76c-1.11,2.16-14.42,8.64-25,3.08l-10.1-44Z" transform="translate(-444.58 -455)"/><path class="cls-10" d="M1864.51,2844.44c-6.41,7.08-7.87,20.13-2.29,26.55s13.72,1.58,37.1,2.28c25,.75,31.59,6.66,48.61,2,6.87-1.9,19-6.51,18.79-11.42-.16-3.45-6.35-5.24-27-12.16-29.31-9.81-29.18-10.35-35.4-11.38C1888.68,2837.69,1873,2835.09,1864.51,2844.44Z" transform="translate(-444.58 -455)"/><path class="cls-11" d="M1880.56,2803.59l12.56,41.79c-.95,2.24-13.72,9.72-24.68,5l-18.65-40.56Z" transform="translate(-444.58 -455)"/><path class="cls-12" d="M1769,1888.44a3914.89,3914.89,0,0,0,123.69,927.32l-48.08,12.93c-40.67-37.91-92-97.59-116.71-181.94-15.36-52.34-10.24-79.24-20-143.63-15.51-102.52-46.94-156.23-79.42-238.9-29.18-74.29-63.68-183.31-82.18-329Z" transform="translate(-444.58 -455)"/><path class="cls-12" d="M1624.28,1875q-14.71,267.9-24,545.68-6.88,208.4-10.2,411.47l-49.11,6.07a572.25,572.25,0,0,1-51.23-132.2c-17.48-70.09-13.43-111.72-21.1-184.37-8.6-81.48-21.09-99.23-43.23-202-44.92-208.6-67.38-312.9-17.27-377.78C1424.42,1920.83,1475.41,1868,1624.28,1875Z" transform="translate(-444.58 -455)"/><path class="cls-13" d="M1385.68,1426.17A762.08,762.08,0,0,1,1549,1398.89c98.14-5.55,147.22-8.33,182,15,80.32,54,18.14,178.57,51,487.43,4.69,44.1,5.75,88.52,9.15,132.75,5.63,73.22,6.91,77.2,1.81,84.62-32,46.53-151.15-23.65-325.86,4.09-97.76,15.52-142.09,51.28-168.88,25.49-31.23-30.08-4.44-111,18.62-180.64,26.48-79.94,42.83-81,57.85-141.18,15.71-62.93,6.21-95.33,3.76-194.57A1757.33,1757.33,0,0,1,1385.68,1426.17Z" transform="translate(-444.58 -455)"/><path class="cls-14" d="M1623.27,2006c-45.67-3.58-75.29,22.24-114.71,2.12-54-27.59-71.42-113.43-68-174.18,5.24-92.31,58-116.64,48.86-176.31-4.91-32.27-28-75.11-110.67-118.88-1.1,36.84-.89,68.24-.28,93.18,2.45,99.24,12,131.64-3.76,194.57-15,60.21-31.37,61.24-57.85,141.18-23.06,69.65-49.85,150.56-18.62,180.64,26.79,25.79,71.12-10,168.88-25.49,150.54-23.91,259.81,24.83,307.62,9C1717,2036.39,1664.59,2009.23,1623.27,2006Z" transform="translate(-444.58 -455)"/><path class="cls-15" d="M1448,1432.5c-32.61-26.8-98.19,3.54-115.72,11.65-97.75,45.21-185.52,167.06-163.78,295.83,3.26,19.31,18.39,109.64,94.88,153.41,69,39.49,162.2,29.33,236.87-26.6l30.61-27.16,30.12-32.56a241.79,241.79,0,0,0-80.25-44.21c-49.65-16-85.79,12.73-108.83-9.13-15.89-15.08-15.93-41.72-12-57.87,7.91-32.54,36.59-41.69,60.54-64.78C1476.66,1576.81,1487,1464.59,1448,1432.5Z" transform="translate(-444.58 -455)"/><polygon class="cls-16" points="1466.2 1396.84 1071.32 1390.94 1176.32 1441.62 1467.21 1422.59 1466.2 1396.84"/><path class="cls-12" d="M1502,1856.44h0a17.59,17.59,0,0,0,11.57,16.52l126.18,49.46.58-34.29-124.39-42.19A10.93,10.93,0,0,0,1502,1856.44Z" transform="translate(-444.58 -455)"/><path class="cls-17" d="M1531.4,1832.1c-2.69-.6,13.07-32,25.43-28.37s72.85,38.68,78.35,53.11l5.5,14.44s-26.38,2.06-42.75-3.44S1553.21,1837,1531.4,1832.1Z" transform="translate(-444.58 -455)"/><path class="cls-12" d="M1650.76,1647.51,1622.93,1901c-1,8.74,11.28,21.77,20.07,21.35l408.33-25.06a14.31,14.31,0,0,0,13.43-11.88L2116,1640.58c1.52-8.9-14.49-18.1-23.52-17.85l-427.91,12A14.31,14.31,0,0,0,1650.76,1647.51Z" transform="translate(-444.58 -455)"/><path class="cls-12" d="M1660.09,1654.9l-27.83,253.44a14.32,14.32,0,0,0,14.91,15.86l413.49-19.57a14.33,14.33,0,0,0,13.44-11.88l42.24-245.9a14.31,14.31,0,0,0-14.51-16.73l-427.91,12A14.32,14.32,0,0,0,1660.09,1654.9Z" transform="translate(-444.58 -455)"/><path class="cls-18" d="M1902.9,1845.24c-36.11-15.3-23.36-44.49-66-80.85-56.24-48-113.57-27.16-133.64-64.35-6.25-11.58-9.24-29.6,1.65-58.76l-31,.87a14.32,14.32,0,0,0-13.83,12.75l-27.83,253.44a14.32,14.32,0,0,0,14.91,15.86l413.49-19.57a14.33,14.33,0,0,0,13.44-11.88l5.83-33.93a156.36,156.36,0,0,0-45-16.88C1974.23,1829.63,1944.47,1862.86,1902.9,1845.24Z" transform="translate(-444.58 -455)"/><path class="cls-19" d="M2091,1866.9a3.58,3.58,0,0,0-3.21-4.71c-9.68-.49-32.12-.69-44.5,6.9-16.09,9.85-36.9,27.84-19.38,36.91l16.36,8.48a3.51,3.51,0,0,0,2.4.33c5.81-1.28,30.28-6.71,33-8.06C2078.05,1905.53,2087.38,1877.84,2091,1866.9Z" transform="translate(-444.58 -455)"/><path class="cls-20" d="M1556.35,1291.65a339.71,339.71,0,0,1-6.07,68c-3.52,18.11-6,22.79-9.29,26.58-4.87,5.72-12.25,10.51-53.94,20.85-22.69,5.62-25.61,5.47-26.11,7.72-2.45,11,59.42,48.42,123.35,39.4,39.12-5.52,74.71-27.84,72.52-39.56s-41.27-5.47-52.92-26.81c-8.1-14.84,1-35.92,11.72-53.37C1605.21,1315,1566.75,1311.14,1556.35,1291.65Z" transform="translate(-444.58 -455)"/><path class="cls-12" d="M1629,1303.16c9.23-12.27,9.8-33.68-.83-47.21-9.16-11.65-23.56-13.31-32.19-14.31-25-2.88-56.53,7.55-67.49,30.55-6.5,13.64,7.56,42,9.76,47,2.49,5.76,7,7.73,11.19,12.09,5.8,6,14.87,15.64,29.68,31.69a102.84,102.84,0,0,1,5.68-17,91,91,0,0,1,11.86-19.93C1609.65,1310.25,1620.21,1314.78,1629,1303.16Z" transform="translate(-444.58 -455)"/><path class="cls-21" d="M1558,1349.52s16.43,27,49.15,24.83c29.28-1.91,33.57-67.59,14.87-81.53-6.24-4.65-18.74-6.58-28.91-3.73-6,1.68-8,4.17-17.89,6.73-9.1,2.36-11.67,1.35-14.42,3.66-3.43,2.89-6,10-.21,29.18-5.59-5.66-12.3-7.83-17-5.58a9.93,9.93,0,0,0-3.9,3.8C1535.49,1334.38,1542.35,1344,1558,1349.52Z" transform="translate(-444.58 -455)"/><path class="cls-12" d="M1559.43,1295.55c1.41,1.06-2.91,6.33-3.23,13.79-.63,14.47,14,31.85,29,33.33,8.84.87,11.27-4.46,25.88-6a66.62,66.62,0,0,1,21.31,1.23c4.59,15.88.27,31.71-10.34,39-11.43,7.91-26,3.11-32.12,1.11-4.09-1.35-17.17-5.62-24-17.62-7.12-12.5-.13-20-8.3-28.49-4.12-4.26-9.54-6.11-14.81-14.37a39.91,39.91,0,0,1-3-5.56C1547.38,1304,1557.38,1294,1559.43,1295.55Z" transform="translate(-444.58 -455)"/><path class="cls-22" d="M1621.74,1343.78s-6.33,3.31-17.26,2.69c-.53,0-1.11.13-1.18.4-.25,1,6.76,5.69,13.22,3.87,4.59-1.29,8.16-5.63,7.54-6.74C1623.8,1343.54,1622.76,1343.6,1621.74,1343.78Z" transform="translate(-444.58 -455)"/><path class="cls-23" d="M2159.3,2932.29a4.17,4.17,0,0,1-4.15-3.79l-75.72-818.27a4.18,4.18,0,1,1,8.32-.77l67.38,728.17v-745.9a4.18,4.18,0,0,1,8.36,0v836.39a4.18,4.18,0,0,1-4,4.17Z" transform="translate(-444.58 -455)"/><polygon class="cls-5" points="2559.03 1726.24 1728.38 1635.23 132.56 1707.77 968.35 1807.85 2559.03 1726.24"/><polygon class="cls-23" points="968.35 1807.85 2559.03 1726.24 2559.03 1765.66 968.35 1847.27 132.56 1747.18 132.56 1707.77 968.35 1807.85"/><path class="cls-23" d="M1418.58,3217.69h-.16a4.18,4.18,0,0,1-4-4.17V2292.68a4.18,4.18,0,0,1,8.36,0V3106.5l63.66-814.15a4.18,4.18,0,0,1,8.33.65l-72,920.84A4.17,4.17,0,0,1,1418.58,3217.69Z" transform="translate(-444.58 -455)"/><path class="cls-23" d="M586.28,3054.11h-.17a4.17,4.17,0,0,1-4-4.17V2200a4.18,4.18,0,1,1,8.35,0v743.35l58.39-743.68a4.18,4.18,0,0,1,8.33.66l-66.73,849.92A4.17,4.17,0,0,1,586.28,3054.11Z" transform="translate(-444.58 -455)"/><path class="cls-23" d="M2995.75,3054.11a4.19,4.19,0,0,1-4.17-3.83l-70.86-849.92a4.18,4.18,0,0,1,8.33-.7l62.52,749.89V2220.66a4.18,4.18,0,0,1,8.36,0v829.27a4.18,4.18,0,0,1-4,4.17Z" transform="translate(-444.58 -455)"/><path class="cls-12" d="M2539.82,2191.85l-570.73-4.25v12.57A6.9,6.9,0,0,0,1975,2207l161.39,24.75a26.06,26.06,0,0,0,5.79.23l391.49-28.21a6.68,6.68,0,0,0,6.2-6.67Z" transform="translate(-444.58 -455)"/><path class="cls-16" d="M2332.71,2171.08l-357.72,23c-6.4.42-11.6-4-11.6-9.76V1951.75c0-5.8,5.2-10.51,11.6-10.51h357.72a9.52,9.52,0,0,1,9.54,9.5V2161A10.3,10.3,0,0,1,2332.71,2171.08Z" transform="translate(-444.58 -455)"/><path class="cls-12" d="M2338.41,2171.08l-357.71,23c-6.41.42-11.61-4-11.61-9.76V1951.75c0-5.8,5.2-10.51,11.61-10.51h357.71a9.52,9.52,0,0,1,9.54,9.5V2161A10.3,10.3,0,0,1,2338.41,2171.08Z" transform="translate(-444.58 -455)"/><path class="cls-24" d="M2327.27,2156.26l-333.18,20c-5.21.32-9.44-3.27-9.44-8v-203.6c0-4.73,4.23-8.59,9.44-8.61l333.18-1.26a7.81,7.81,0,0,1,7.87,7.79V2148A8.45,8.45,0,0,1,2327.27,2156.26Z" transform="translate(-444.58 -455)"/><path class="cls-6" d="M2172.19,1947.6a4.13,4.13,0,1,1-4.12-3.91A4,4,0,0,1,2172.19,1947.6Z" transform="translate(-444.58 -455)"/><path class="cls-25" d="M2253.67,2107.41c-27.71-13.5-49.51,3.61-70.54-13.27-12.75-10.24-6.49-17.87-22.18-33.16-17.38-16.94-28.7-11.25-46.16-26.49-22.08-19.28-11-34.28-30.06-48.12-23.08-16.79-48-1.25-69.93-17.35-9.48-6.94-14.68-17-17.39-27.78h-21.49c-3.77,0-6.83,2.77-6.83,6.18v241.22c0,3.41,3.06,6,6.83,5.73l366.43-23.55a6,6,0,0,0,4.42-2.44c-26.83-.89-43.31-9-53.84-17.44C2272.32,2134.47,2275.9,2118.24,2253.67,2107.41Z" transform="translate(-444.58 -455)"/><path class="cls-12" d="M2352.67,2170.43l-383.58,24.2,167.25,25.65a26.06,26.06,0,0,0,5.79.23l397.69-28.66-181.05-21.25A34.53,34.53,0,0,0,2352.67,2170.43Z" transform="translate(-444.58 -455)"/><polygon class="cls-26" points="1580.48 1739.84 1899.82 1719.39 1998.65 1730.9 1682.06 1752.76 1580.48 1739.84"/><path class="cls-27" d="M2425.32,2926.46s-83.9,5.83-85.13,11.31,56.95,26.65,77.27,27.44,37.06-5.22,35.22-13.83-9-30.26-9-30.26Z" transform="translate(-444.58 -455)"/><path class="cls-28" d="M2421.36,2889.18l-1.49,39.6s12.76,7.2,22.89,3.06l11.27-41.75Z" transform="translate(-444.58 -455)"/><path class="cls-29" d="M2190.68,2910.49s-83.89,5.83-85.13,11.31,56.95,26.65,77.28,27.44,37.05-5.21,35.21-13.82-9-30.27-9-30.27Z" transform="translate(-444.58 -455)"/><path class="cls-30" d="M2186.72,2873.22l-1.49,39.59s12.76,7.2,22.9,3.07l11.26-41.76Z" transform="translate(-444.58 -455)"/><path class="cls-31" d="M2412.44,2894.78l47,5.22c21.18-23.47,52.79-64.39,69.68-121.92,32.57-110.94-14.6-190.88,15.68-210.77,42.85-28.16,135.72,134,284.8,129.79,61.16-1.71,141-31.66,171.68-96.9,4.63-9.85,27.39-61.4,5.23-109.74-22.88-49.9-136.37-71.61-362.43-113-97-17.77-146-26.64-165.72-17.24C2338.87,2426.82,2397.05,2803.43,2412.44,2894.78Z" transform="translate(-444.58 -455)"/><path class="cls-32" d="M2173.08,2895.45l48.65,8.46c19.7-29,49.5-74.46,82.84-132.14,69.48-120.23,68.22-144.64,100.33-160.12,68-32.75,119.32,55.73,287.4,80.13,55,8,177.06,25.7,226.45-40.07,20-26.66,31.52-71.6,15.67-109.73-28.41-68.37-122-60.16-430.24-120.19-120.21-23.42-136.6-27.59-165.72-17.24C2175.84,2462.38,2172.67,2816.47,2173.08,2895.45Z" transform="translate(-444.58 -455)"/><path class="cls-33" d="M2509.85,1954c16-39.14,50.36-61.64,68.17-73.31a148.87,148.87,0,0,1,25.51-13.64c64.51-26.33,128.91-24.52,140.4-23.66,27.86,2.09,96.66,7.24,147.64,51.41,24.68,21.38,44.4,51.23,73.16,219.47,40.11,234.64,7.56,210.59,39.19,305.7,16.74,50.33,42.82,108.07,15.24,144.94-8.91,11.91-21.64,15.33-47.59,27-96.93,43.61-183.83,36.1-236.64,30.87-58.12-5.76-87.49-9-102.9-29.59-24.61-32.79.73-74.48,5.15-146.61,3.17-51.79-8.6-92.84-32.15-174.92C2550.27,2080.8,2479.19,2028.92,2509.85,1954Z" transform="translate(-444.58 -455)"/><path class="cls-34" d="M2236.73,2187.6l-61.93-11.91a37.52,37.52,0,0,0-13.49-.13l-53.57,9.21s34.83,14,64.45,9.62,62,12.26,62,12.26Z" transform="translate(-444.58 -455)"/><path class="cls-35" d="M2646.86,1800c-10.41-15.73,5.18-46,11.35-58,.21-.41.48-1,1.06-2,9.47-17.48,11.9-19.87,16.42-22.9l6.28-3.88.75-.28c4-1.43,17.78-1.85,20.56-1.25,8.89,1.9,18.36,38.13,15.66,89.35q.55,2.94,1.07,5.91,2.1,12.13,3.37,23.77c.83,7.42,11.34,7.25,18.79,6.78,30.22-1.93,45,.64,46.3,5.14,2.41,8.43-33.44,36-77.71,42.21-59.41.45-107.73-5.88-102.54-15.24,2.31-4.15,48.34-16.18,61.28-28.1,11.86-10.91,10.89-22.18,11.87-30.25C2675.24,1811.54,2654.8,1812,2646.86,1800Z" transform="translate(-444.58 -455)"/><path class="cls-12" d="M2663.54,1698.63c-4.88,10.77,7,32.4,11.34,35.54a26.23,26.23,0,0,1,5.75,6.28,7.76,7.76,0,0,1,.9,1.87c3.48,10-12.42,21.77-9.35,26.25,2.22,3.25,13-1.09,14.32,1.71,1.21,2.64-7.78,8.11-6.4,11.27,1,2.38,6.57.2,10.05,3.86,2.7,2.83,3,6.83,3.07,8.83.43,14.22-31.81,65.57-38.53,88.74-7.12,24.57,5.62,48,51.91,112.58,65.84,91.93,98.76,137.89,117.06,151,89.45,64.21,194.63,56.34,237.76,49.64,51.82-8,158.87-24.67,193.35-107.12,39.63-94.77-38.39-224.45-118.45-246.47-36.6-10.07-56.09,5.22-103.64-11.32-52.5-18.28-46.14-50.59-94.75-69.67-64.84-25.45-106.68,20-150.85-13.08-24-18-20.07-37.81-49.64-52.25C2708.27,1682.08,2669.94,1684.51,2663.54,1698.63Z" transform="translate(-444.58 -455)"/><path class="cls-36" d="M2677.88,1764.84c3.89-5.34,10.73-.32,10.77,6.59s-6.66,14.11-13.16,12.74S2672.65,1772,2677.88,1764.84Z" transform="translate(-444.58 -455)"/><path class="cls-37" d="M2785.08,2554.57c-17.09-34,24.8-79.29-2.57-131.18-23.24-44.08-65.47-34.2-84.88-74.6-23.45-48.79,27.55-85.25,25.72-159.48-2.18-88.73-78.53-177.56-123.47-169.77-29.07,5-32.81,48.41-53.26,95.9,18.1,39.68,39.25,89.41,58.41,156.18,23.55,82.08,35.32,123.12,32.15,174.92-4.42,72.14-29.76,113.82-5.15,146.62,15.41,20.53,44.78,23.82,102.9,29.58,52.81,5.22,139.71,12.74,236.64-30.87,12.27-5.52,21.46-9.66,28.95-13.74C2849.08,2600.88,2798.64,2581.57,2785.08,2554.57Z" transform="translate(-444.58 -455)"/><path class="cls-38" d="M2221,2205.67q2.64-11.85,5.27-23.71c119,21.33,171-2.61,196.17-30.59,23.07-25.68,13.23-38.95,50.15-137,35.17-93.37,75.08-117.36,95.18-126.05,11.23-4.84,19-8.06,28.29-5.78,42.87,10.47,57.05,122.19,45,205.78-6.78,47.09-20.07,139.44-95.82,183.27-1.39.81-3.6,2.08-6.51,3.64-9.54,5.1-47.44,23.33-122.1,9.87C2328.58,2269.25,2242.7,2218.8,2221,2205.67Z" transform="translate(-444.58 -455)"/><ellipse class="cls-39" cx="2327.35" cy="2635.77" rx="259.99" ry="106.11"/><path class="cls-40" d="M3031.92,3078.33c0,55.32-116.4,100.16-260,100.16s-260-44.84-260-100.16,116.4-145.83,260-145.83S3031.92,3023,3031.92,3078.33Z" transform="translate(-444.58 -455)"/><path class="cls-41" d="M3031.92,3078.33c0-55.32-116.4-145.83-260-145.83-66.3,0-126.77,19.31-172.7,45.53-3.21,6.74-4.71,13.43-4.1,19.79,3,31.12,53.74,50.26,82.88,56.57,73.38,15.89,109.21-28,169.71-26.31,37.4,1,89.23,19.82,150.71,99.4C3019.72,3113,3031.92,3096.2,3031.92,3078.33Z" transform="translate(-444.58 -455)"/><path class="cls-6" d="M2786.17,2982.74a58.79,58.79,0,0,1-29.19.17,18.79,18.79,0,0,1-13.95-18.29V2671.46h57.81v292.82A19.13,19.13,0,0,1,2786.17,2982.74Z" transform="translate(-444.58 -455)"/><path class="cls-42" d="M2786.17,2982.74a58.79,58.79,0,0,1-29.19.17,18.79,18.79,0,0,1-13.95-18.29V2671.46h57.81v292.82A19.13,19.13,0,0,1,2786.17,2982.74Z" transform="translate(-444.58 -455)"/><path class="cls-43" d="M2466.46,2548.08l88.32-55.83c3.67-20.85,45.3-239,214.32-307.55,68.73-27.86,142.69-24.55,183.28-22.74,81,3.62,138.83,6.2,166.63,44.85,35.7,49.64-24.17,94.65-11.78,236.62,5.06,57.89,17.92,83.6,1.9,122-19.18,45.94-63.67,71.41-98.25,85.74-41.35,24-113.34,58.23-208.42,66.56-160.16,14-279.73-54.67-320.85-81A52.92,52.92,0,0,1,2445.7,2597,46.68,46.68,0,0,1,2466.46,2548.08Z" transform="translate(-444.58 -455)"/><path class="cls-44" d="M2507.07,2587.84c3.27-19.63,58-3.36,109.74-41.81,77.37-57.47,37.21-154.82,104.51-248.21,61.76-85.71,186.1-129.33,224.7-96.67,51.38,43.47-74.37,206,0,310.92,36.12,50.95,91.16,48.5,91.45,78.38.45,47.23-136.53,101.67-266.51,99.29C2631.24,2687.18,2501.89,2619,2507.07,2587.84Z" transform="translate(-444.58 -455)"/><g class="cls-45"><polygon class="cls-46" points="1979.52 571.04 1623.63 1161.35 2578.32 1161.35 2239.4 583.24 1979.52 571.04"/></g><path class="cls-47" d="M2549.8,722.79a1.87,1.87,0,0,1-1.87-1.87V693.31a1.87,1.87,0,1,1,3.74,0v27.61A1.87,1.87,0,0,1,2549.8,722.79Z" transform="translate(-444.58 -455)"/><path class="cls-47" d="M2549.8,920.21a1.87,1.87,0,0,1-1.87-1.87V720.92a1.87,1.87,0,1,1,3.74,0V918.34A1.87,1.87,0,0,1,2549.8,920.21Z" transform="translate(-444.58 -455)"/><path class="cls-47" d="M2549.8,947.82a1.87,1.87,0,0,1-1.87-1.87V918.34a1.87,1.87,0,1,1,3.74,0V946A1.87,1.87,0,0,1,2549.8,947.82Z" transform="translate(-444.58 -455)"/><path class="cls-47" d="M2549.8,637.8a1.87,1.87,0,0,1-1.87-1.87V608.32a1.87,1.87,0,1,1,3.74,0v27.61A1.87,1.87,0,0,1,2549.8,637.8Z" transform="translate(-444.58 -455)"/><path class="cls-47" d="M2549.8,642.41a1.88,1.88,0,0,1-1.87-1.88v-4.6a1.87,1.87,0,1,1,3.74,0v4.6A1.87,1.87,0,0,1,2549.8,642.41Z" transform="translate(-444.58 -455)"/><path class="cls-47" d="M2549.8,670a1.87,1.87,0,0,1-1.87-1.87V640.53a1.87,1.87,0,1,1,3.74,0v27.62A1.87,1.87,0,0,1,2549.8,670Z" transform="translate(-444.58 -455)"/><path class="cls-47" d="M2549.8,588.8a1.88,1.88,0,0,1-1.87-1.88v-16a1.87,1.87,0,1,1,3.74,0v16A1.87,1.87,0,0,1,2549.8,588.8Z" transform="translate(-444.58 -455)"/><path class="cls-48" d="M2691.81,1053.16v-43.35a61.47,61.47,0,0,0-61.29-61.29H2469.08a61.46,61.46,0,0,0-61.28,61.29v43.35Z" transform="translate(-444.58 -455)"/><ellipse class="cls-49" cx="2105.42" cy="596.66" rx="142.21" ry="28.15"/><path class="cls-50" d="M2550,1015.29c-61.2,0-112.6-8.37-125-20.35a1.11,1.11,0,1,1,1.55-1.6c11.81,11.43,63.73,19.72,123.44,19.72,55.5,0,105.23-7.29,120.94-17.74a1.11,1.11,0,0,1,1.23,1.85C2655.88,1008,2606.79,1015.29,2550,1015.29Z" transform="translate(-444.58 -455)"/><path class="cls-51" d="M2605.87,950.71a24.27,24.27,0,0,0-24.19-23.84h-63.76a24.28,24.28,0,0,0-24.2,24.21h0a.45.45,0,0,0,0,.11c0,6.14,25.13,11.11,56.13,11.11s56.14-5,56.14-11.11A2.81,2.81,0,0,0,2605.87,950.71Z" transform="translate(-444.58 -455)"/><g class="cls-52"><polygon class="cls-46" points="532.09 611.53 176.2 1201.84 1130.89 1201.84 791.97 623.73 532.09 611.53"/></g><path class="cls-47" d="M1102.37,686.09a1.87,1.87,0,0,1-1.87-1.87V656.61a1.87,1.87,0,1,1,3.74,0v27.61A1.87,1.87,0,0,1,1102.37,686.09Z" transform="translate(-444.58 -455)"/><path class="cls-47" d="M1102.37,960.7a1.87,1.87,0,0,1-1.87-1.87V684.22a1.87,1.87,0,1,1,3.74,0V958.83A1.87,1.87,0,0,1,1102.37,960.7Z" transform="translate(-444.58 -455)"/><path class="cls-47" d="M1102.37,988.31a1.87,1.87,0,0,1-1.87-1.87V958.83a1.87,1.87,0,1,1,3.74,0v27.61A1.87,1.87,0,0,1,1102.37,988.31Z" transform="translate(-444.58 -455)"/><path class="cls-47" d="M1102.37,638a1.87,1.87,0,0,1-1.87-1.87v-43.8a1.87,1.87,0,1,1,3.74,0v43.8A1.87,1.87,0,0,1,1102.37,638Z" transform="translate(-444.58 -455)"/><path class="cls-47" d="M1102.37,576.19a1.87,1.87,0,0,1-1.87-1.87V556a1.87,1.87,0,1,1,3.74,0v18.34A1.87,1.87,0,0,1,1102.37,576.19Z" transform="translate(-444.58 -455)"/><path class="cls-53" d="M1244.38,1093.65V1050.3A61.47,61.47,0,0,0,1183.09,989H1021.65a61.46,61.46,0,0,0-61.28,61.29v43.35Z" transform="translate(-444.58 -455)"/><ellipse class="cls-54" cx="657.99" cy="637.15" rx="142.21" ry="28.15"/><path class="cls-50" d="M1102.57,1055.78c-61.2,0-112.6-8.37-125-20.35a1.11,1.11,0,0,1,0-1.58,1.13,1.13,0,0,1,1.58,0c11.81,11.43,63.73,19.73,123.44,19.73,55.5,0,105.23-7.29,120.94-17.74a1.11,1.11,0,0,1,1.23,1.85C1208.45,1048.5,1159.36,1055.78,1102.57,1055.78Z" transform="translate(-444.58 -455)"/><path class="cls-55" d="M1158.44,991.2a24.27,24.27,0,0,0-24.19-23.84h-63.76a24.28,24.28,0,0,0-24.2,24.21h0s0,.07,0,.11c0,6.14,25.13,11.11,56.13,11.11s56.14-5,56.14-11.11A2.81,2.81,0,0,0,1158.44,991.2Z" transform="translate(-444.58 -455)"/><path class="cls-56" d="M2195.08,1007.65c0-116.34-99-210.66-221.24-210.66s-221.23,94.32-221.23,210.66c0,70.6,36.48,133.09,92.48,171.31a86.91,86.91,0,0,1,38.16,71.7v16.12a63.41,63.41,0,0,0,63.42,63.42H2001a63.41,63.41,0,0,0,63.42-63.42v-16.12a86.91,86.91,0,0,1,38.16-71.7C2158.59,1140.74,2195.08,1078.25,2195.08,1007.65Z" transform="translate(-444.58 -455)"/><ellipse class="cls-57" cx="1529.26" cy="969.13" rx="49.08" ry="25.98"/><path class="cls-58" d="M1908.64,1377.71v26.54a23.31,23.31,0,0,0,13.21,21.06c11.25,5.37,30,11.25,57.13,10.56,22-.57,36.43-4.17,45.58-7.95a23.7,23.7,0,0,0,14.49-22v-14.68Z" transform="translate(-444.58 -455)"/><path class="cls-59" d="M1908.64,1401a25.65,25.65,0,0,0,6.87,4.81c12.62,6,95.29,19.46,115.23,12a26.77,26.77,0,0,0,7-3.84,24.17,24.17,0,0,0,1.35-7.92v-14.68l-130.41-13.58Z" transform="translate(-444.58 -455)"/><path class="cls-60" d="M1914.43,1359.66a12.46,12.46,0,0,0-13.74,12.38v.75a26.16,26.16,0,0,0,14.82,23.64c12.62,6,95.29,19.46,115.23,12,10-3.77,16.25-12.39,16.25-23.11v-.61a12.44,12.44,0,0,0-11.15-12.38Z" transform="translate(-444.58 -455)"/><path class="cls-61" d="M2035.84,1372.3l-121.41-12.64a12.42,12.42,0,0,0-11.63,5.48,26,26,0,0,0,12.71,13.34c12.62,6,98.81,21.22,115.23,13.48a28.51,28.51,0,0,0,14.09-14.28A12.49,12.49,0,0,0,2035.84,1372.3Z" transform="translate(-444.58 -455)"/><path class="cls-62" d="M1909.68,1316.67a9,9,0,0,0-9,9v20.78a26.14,26.14,0,0,0,14.82,23.63c12.62,6,98.81,21.22,115.23,13.49,9.7-4.58,16.25-13.9,16.25-24.62v-33.28a9,9,0,0,0-9-9Z" transform="translate(-444.58 -455)"/><path class="cls-63" d="M2045.18,1323.14c0,9.32-31.94,16.87-71.34,16.87s-71.34-7.55-71.34-16.87,31.94-16.86,71.34-16.86S2045.18,1313.83,2045.18,1323.14Z" transform="translate(-444.58 -455)"/><path class="cls-64" d="M2195.08,1007.65c0-116.34-99-210.66-221.24-210.66s-221.23,94.32-221.23,210.66c0,70.6,36.48,133.09,92.48,171.31a86.91,86.91,0,0,1,38.16,71.7v16.12a63.41,63.41,0,0,0,63.42,63.42H2001a63.41,63.41,0,0,0,63.42-63.42v-16.12a86.91,86.91,0,0,1,38.16-71.7C2158.59,1140.74,2195.08,1078.25,2195.08,1007.65Z" transform="translate(-444.58 -455)"/><ellipse class="cls-65" cx="1529.26" cy="854.84" rx="52.2" ry="12.34"/><path class="cls-66" d="M1960.24,1317.38a3,3,0,0,1-3-2.63l-38.4-298.65a3,3,0,0,1,6-.77L1963.24,1314a3,3,0,0,1-2.61,3.38A2.55,2.55,0,0,1,1960.24,1317.38Z" transform="translate(-444.58 -455)"/><path class="cls-67" d="M1984.09,1317.38a2.68,2.68,0,0,1-.39,0,3,3,0,0,1-2.6-3.38l38.4-298.65a3,3,0,0,1,6,.77l-38.41,298.65A3,3,0,0,1,1984.09,1317.38Z" transform="translate(-444.58 -455)"/><path class="cls-68" d="M2015.37,1015.86a3,3,0,0,1-2.52-1.36l-10.6-16.08a.49.49,0,0,0-.43-.24.48.48,0,0,0-.41.26l-7,11.72a6.52,6.52,0,0,1-11,.27L1973.76,996a.47.47,0,0,0-.41-.24.51.51,0,0,0-.4.22l-8.44,12.2a6.52,6.52,0,0,1-5.35,2.82h0a6.51,6.51,0,0,1-5.36-2.81l-12.17-17.43a.57.57,0,0,0-.43-.23.5.5,0,0,0-.41.26l-11.1,19.18a3,3,0,1,1-5.22-3l11.1-19.17a6.52,6.52,0,0,1,11-.46l12.16,17.43a.51.51,0,0,0,.42.23h0a.47.47,0,0,0,.4-.22l8.44-12.2a6.51,6.51,0,0,1,10.79.1l9.61,14.41c.11.16.27.3.43.23a.47.47,0,0,0,.41-.25l7-11.72a6.48,6.48,0,0,1,5.45-3.19,6.55,6.55,0,0,1,5.61,3l10.6,16.08a3,3,0,0,1-.86,4.18A3,3,0,0,1,2015.37,1015.86Z" transform="translate(-444.58 -455)"/><path class="cls-69" d="M1977.86,1173.8c4.74-81.19,141.61-100.19,141-172.7-.36-44.66-54.75-77.83-66.37-84.47-85.58-49-190.92,7.58-212.67-32.43-5.42-10-2.88-20.8-1.43-27,2.18-9.33,7.13-18,14.47-26-60.38,37.61-100.28,102.56-100.28,176.4,0,70.6,36.48,133.09,92.48,171.31a86.91,86.91,0,0,1,38.16,71.7v16.12a63.41,63.41,0,0,0,63.42,63.42H2001a63.41,63.41,0,0,0,63.42-63.42V1253.9c-7.48,5.73-16.07,9.73-25.49,9.65C2006.26,1263.28,1975.5,1214.21,1977.86,1173.8Z" transform="translate(-444.58 -455)"/><ellipse class="cls-70" cx="1532.8" cy="560.86" rx="190.38" ry="183.6"/><path class="cls-71" d="M1170.2,2934.21l-25,1.24c8.65-15.72-1.75-58.47-1.75-58.47l27,.79s-.66,12.41-2.31,30.85C1167.57,2914.93,1168.61,2924.44,1170.2,2934.21Z" transform="translate(-444.58 -455)"/><path class="cls-72" d="M1186.51,2880.4q-23.1,2.55-46.18,5.13c-20.79-23.05-51.83-63.23-68.41-119.72-31.78-108.23,18-179.26-15.4-206.95-38.46-31.93-114.45,54.32-282.2,78.67-54,7.84-173.84,25.24-222.33-39.33-19.66-26.18-31-70.31-15.4-107.75,27.9-67.13,119.77-59.07,422.45-118,116.59-22.71,135-30.15,162.71-16.92C1258.75,2420.91,1201.62,2790.71,1186.51,2880.4Z" transform="translate(-444.58 -455)"/><path class="cls-73" d="M1196.5,2934.17c-1.35-7.45-25.4-14.2-37.32-4.22-5.91,5-10,15-6.56,19.54,1.24,1.64-3.86,4.55,1,4.6C1169.86,2954.28,1197.85,2941.57,1196.5,2934.17Z" transform="translate(-444.58 -455)"/><path class="cls-74" d="M1173.48,2933.83s-29.78-6.86-33-.95-5.73,21.72,13.17,21.21S1175.16,2938.84,1173.48,2933.83Z" transform="translate(-444.58 -455)"/><path class="cls-75" d="M1348.45,2964.51c-2.38-7.19-27.15-10.5-37.55,1-5.16,5.73-7.79,16.25-3.76,20.26,1.46,1.46-3.18,5,1.66,4.42C1324.88,2988.16,1350.81,2971.65,1348.45,2964.51Z" transform="translate(-444.58 -455)"/><path class="cls-76" d="M1319.18,2971.43l-24.52,4.81c6.31-16.79-10.12-57.61-10.12-57.61l26.79-3.09s1.12,12.38,2.14,30.86C1313.82,2952.73,1316.21,2962,1319.18,2971.43Z" transform="translate(-444.58 -455)"/><path class="cls-77" d="M1325.61,2967.4s-30.46-2.63-32.82,3.67-2.63,22.32,16,19.17S1328,2972.12,1325.61,2967.4Z" transform="translate(-444.58 -455)"/><path class="cls-12" d="M1195.33,2221.15l105.22-246.49a21.66,21.66,0,0,0-14.81-29.56L1093,1898.29a21.66,21.66,0,0,0-25.17,12.86L971,2148.06A21.66,21.66,0,0,0,984.75,2177l184.31,56.39A21.67,21.67,0,0,0,1195.33,2221.15Z" transform="translate(-444.58 -455)"/><path class="cls-24" d="M1190.56,2209.3l98.29-230.24a20.25,20.25,0,0,0-13.84-27.62l-180-43.72a20.24,20.24,0,0,0-23.51,12L981.06,2141a20.23,20.23,0,0,0,12.81,27L1166,2220.7A20.23,20.23,0,0,0,1190.56,2209.3Z" transform="translate(-444.58 -455)"/><path class="cls-78" d="M1251.24,2141.61l3.16-29,16.74-31.9a30.34,30.34,0,0,0,3.47-14.09V2034.9l-20.21,46.73s-13.26-12-18.31-14.52-4.42,7.57-.63,11.36-1.9,34.73,1.89,37.89l-1.26,18.94Z" transform="translate(-444.58 -455)"/><path class="cls-79" d="M1090.86,1956.61c-15.71-38.42-49.44-60.52-66.93-72-41.38-27.12-67.87-22.17-162.9-36.62-126.65-19.27-141.81-37.53-184.37-22.73-55.92,19.43-85.12,70.19-98.51,93.44-67.47,117.26,11.42,176.86-8.84,410.42-8.27,95.39-29.47,178.29,21.47,227.31,10.73,10.33,22.73,15.72,46.73,26.52,95.17,42.83,180.5,35.45,232.36,30.31,57.06-5.65,85.9-8.88,101-29,24.17-32.21-.71-73.13-5-144-3.11-50.85,8.45-91.15,31.57-171.74C1051.17,2081.16,1121,2030.22,1090.86,1956.61Z" transform="translate(-444.58 -455)"/><path class="cls-80" d="M878.88,1778.89c5.76-20.54-4.32-39.57-6.54-43.66-9.3-17.17-11.69-19.51-16.12-22.48l-6.17-3.81-.74-.28c-4-1.4-17.45-1.81-20.18-1.23-8.74,1.86-18,37.44-15.38,87.74q-.54,2.88-1,5.8-2.07,11.91-3.31,23.34c-.81,7.28-11.14,7.11-18.45,6.65-29.67-1.9-44.2.63-45.46,5-2.37,8.28,32.83,35.36,76.3,41.45,58.33.43,105.78-5.78,100.68-15-2.26-4.08-47.46-15.89-60.17-27.6-11.64-10.72-10.69-21.78-11.65-29.7C854.17,1803.37,874.63,1794,878.88,1778.89Z" transform="translate(-444.58 -455)"/><path class="cls-12" d="M868.15,1694.65c-.06,15.59-7.4,32.23-11.14,34.9a26.18,26.18,0,0,0-5.64,6.17,7.51,7.51,0,0,0-.89,1.84c-3.41,9.82,12.2,21.37,9.19,25.77-2.19,3.19-12.8-1.07-14.06,1.68-1.19,2.59,7.63,8,6.28,11.06-1,2.35-6.45.2-9.87,3.79-1.71,1.79-1.21,3.21-3,8.68a49,49,0,0,1-3.56,8.35c-5.38,9.15-20.63,12.5-23.57,8.83-.82-1-.11-1.87-1-5.3a27.24,27.24,0,0,0-3-6.84c-3.16-5.24-10.77-9-18.46-14.53-14.23-10.24-18.1-19-19.26-21.93-.41-1-.67-1.85-.85-2.42-3.7-11.48-3.72-28.35,1.44-38.73,8.65-17.38,28.17-9.13,44.14-26.35,18.43-19.87,7.45-47,17.45-50C843.42,1636.29,868.24,1665.84,868.15,1694.65Z" transform="translate(-444.58 -455)"/><path class="cls-81" d="M854.06,1759.67c-3.82-5.25-10.53-.32-10.57,6.47s6.54,13.85,12.93,12.51S859.2,1766.73,854.06,1759.67Z" transform="translate(-444.58 -455)"/><path class="cls-82" d="M820.62,2546.35c16.78-33.42-24.35-77.85,2.52-128.81,22.83-43.27,64.29-33.58,83.35-73.24,23-47.91-27-83.71-25.26-156.59,2.15-87.13,77.12-174.35,121.24-166.7,28.54,5,32.21,47.54,52.29,94.16-17.77,39-38.53,87.79-57.35,153.36-23.12,80.59-34.68,120.89-31.57,171.74,4.34,70.84,29.22,111.76,5,144-15.12,20.16-44,23.39-101,29C818,2618.42,732.68,2625.8,637.51,2583c-12-5.42-21.07-9.48-28.42-13.48C757.78,2591.82,807.3,2572.86,820.62,2546.35Z" transform="translate(-444.58 -455)"/><path class="cls-83" d="M1256.93,2135.93l-27.79-12c-15.65,16-35.61,31.58-52.4,26.52-25-7.53-18.78-53.58-49.25-134.49-34.54-91.67-73.72-115.23-93.45-123.76-11-4.75-18.64-7.91-27.79-5.68-42.09,10.29-56,120-44.2,202.05,6.66,46.25,19.71,136.92,94.09,180,10.56,6.11,68.72,39.77,126.28,13.26C1231.59,2259.14,1262,2201,1256.93,2135.93Z" transform="translate(-444.58 -455)"/><path class="cls-84" d="M1323.9,2923.93l-46.18,5.13c-20.79-23-51.82-63.22-68.41-119.72-31.78-108.22,18-179.26-15.39-207-38.47-31.92-114.46,54.33-282.2,78.68-54,7.84-173.85,25.24-222.34-39.34-19.66-26.18-31-70.3-15.39-107.75,27.89-67.12,119.77-59.06,422.44-118,116.59-22.71,135-30.14,162.72-16.92C1396.14,2464.45,1339,2834.24,1323.9,2923.93Z" transform="translate(-444.58 -455)"/><ellipse class="cls-85" cx="352.41" cy="2654.63" rx="255.28" ry="104.19"/><path class="cls-86" d="M541.71,3097.41c0,54.31,114.29,98.35,255.28,98.35s255.28-44,255.28-98.35S938,2954.22,797,2954.22,541.71,3043.09,541.71,3097.41Z" transform="translate(-444.58 -455)"/><path class="cls-87" d="M541.71,3097.41c0-54.32,114.29-143.19,255.28-143.19a346.4,346.4,0,0,1,169.56,44.71c3.16,6.61,4.63,13.19,4,19.43-2.93,30.56-52.77,49.35-81.38,55.54-72,15.61-107.23-27.48-166.63-25.83-36.73,1-87.62,19.46-148,97.6C553.69,3131.41,541.71,3115,541.71,3097.41Z" transform="translate(-444.58 -455)"/><path class="cls-6" d="M783,3003.55a57.89,57.89,0,0,0,28.67.17,18.45,18.45,0,0,0,13.69-18V2697.91H768.61v287.51A18.79,18.79,0,0,0,783,3003.55Z" transform="translate(-444.58 -455)"/><path class="cls-88" d="M783,3003.55a57.89,57.89,0,0,0,28.67.17,18.45,18.45,0,0,0,13.69-18V2697.91H768.61v287.51A18.79,18.79,0,0,0,783,3003.55Z" transform="translate(-444.58 -455)"/><path class="cls-89" d="M1096.93,2576.77,1010.21,2522c-3.61-20.48-44.48-234.71-210.43-302-67.49-27.35-140.11-24.11-180-22.33-79.56,3.56-136.31,6.09-163.61,44-35.05,48.74,23.74,92.93,11.56,232.33-5,56.84-17.58,82.09-1.86,119.75,18.84,45.11,62.52,70.12,96.48,84.19C603,2701.53,673.66,2735.12,767,2743.3c157.26,13.78,274.66-53.68,315-79.49a52,52,0,0,0,35.26-39A45.82,45.82,0,0,0,1096.93,2576.77Z" transform="translate(-444.58 -455)"/><path class="cls-44" d="M1057.05,2615.81c-3.2-19.28-56.93-3.3-107.74-41-76-56.43-36.54-152-102.62-243.72-60.65-84.15-182.73-127-220.63-94.92-50.45,42.68,73,202.29,0,305.29-35.47,50-89.51,47.62-89.79,77-.44,46.37,134.06,99.83,261.67,97.49C935.14,2713.34,1062.14,2646.4,1057.05,2615.81Z" transform="translate(-444.58 -455)"/><path class="cls-90" d="M1355.59,2775.49s30.49,10.23,33.72,60.72c-5-.45-16.58-.18-16.58-.18s2.15-36.7-19.56-44.14C1354.92,2787.63,1355.59,2775.49,1355.59,2775.49Z" transform="translate(-444.58 -455)"/><path class="cls-91" d="M1242.52,2770.67q1.15,13.95,2.32,27.9c15.34-4,32.08-8.55,50-9.18a227.9,227.9,0,0,1,63.35,6.75,20.35,20.35,0,0,0,3.43-8.46,28.61,28.61,0,0,0-1.3-14.52,195.06,195.06,0,0,0-31.2-8.65C1297,2758.42,1267.73,2763.46,1242.52,2770.67Z" transform="translate(-444.58 -455)"/><path class="cls-92" d="M1241.07,2778.7c0-3.36.3-7.55,1.45-8s2.53,2.62,3.15,4.31c.26.71.83,2.42,1.19,7.84.46,7-.08,10.41-.57,12.52-.3,1.27-.76,3.19-1.45,3.23s-1-1.19-1.75-3.56A53.29,53.29,0,0,1,1241.07,2778.7Z" transform="translate(-444.58 -455)"/><path class="cls-93" d="M1212.69,2837.09c6.47,1.28,22.16,5,22.16,5s-10.23-32.78,9.05-47.59a34.17,34.17,0,0,0,.4-11.08,33.7,33.7,0,0,0-2.3-8.59C1233.82,2779.35,1216,2794.58,1212.69,2837.09Z" transform="translate(-444.58 -455)"/><path class="cls-94" d="M1077.5,2844.36s.81-17.34,28.29-17c4.31,3.2,4.53,17.36,4.53,17.36Z" transform="translate(-444.58 -455)"/><path class="cls-95" d="M1053,3185.82l75.22,44.37,45.16-167.58-74.58-224.3-21.3,6.05-32.45,323.8C1044.31,3175.51,1047.49,3182.57,1053,3185.82Z" transform="translate(-444.58 -455)"/><path class="cls-96" d="M1173.38,3062.61l-74.58-224.3-21.3,6.05c5.25,19.91,7.77,52.27,9,70.28,5,76.6,21.73,97.86,13.65,151.27-6.73,44.45-21.45,50.63-20.16,80.53,1.4,32.55,20.33,59.5,42.76,80.5l5.52,3.25Z" transform="translate(-444.58 -455)"/><polygon class="cls-97" points="654.22 2383.31 1054.28 2387.5 1115.08 2732.06 683.63 2775.19 654.22 2383.31"/><g class="cls-98"><path class="cls-99" d="M1498.87,2842.5l-132.06-1.38a243.17,243.17,0,0,1-11.7,28.15c-60,122-199.61,137.78-197.06,158.13,3.8,30.39,310.32-13.64,318,27.13,3.69,19.66-59.74,65.1-126.68,82.95-81.08,21.61-141.3-3.66-181.66,43.5-13.72,16-19.79,34.68-22.75,47.28l414.74-41.2Z" transform="translate(-444.58 -455)"/></g><path class="cls-100" d="M1105.79,2827.33c-4.65,0-11.15-.71-18.22,3.38a28.19,28.19,0,0,0-4,2.82l3.26-1.13c5.24-1.48,12.46.65,15.16,5.95,3.3,6.5,4.5,21.5,5.22,28.92,2.06,21.12,14.68,152.38,14.68,152.38,1,11.06,9.29,19.4,19.14,19.14l370.59-21.14a12.79,12.79,0,0,0,7.7-2.76c4.7-3.75,6.82-10.24,5.73-16.39l-18.24-151.67c-1.54-8.73-8.17-15.07-15.86-15.15Z" transform="translate(-444.58 -455)"/><path class="cls-101" d="M1109.89,2827.38c-4.64-.06-10.15-.76-16.3.83-1.66.43-4.31,1.22-5.48,2.2,0,0,13-3,18,8,3,6.69,4.5,21.49,5.22,28.92,2,21.11,14.67,152.33,14.67,152.33,1,11.05,9.29,19.39,19.13,19.13l374.42-9.85a12.81,12.81,0,0,0,7.68-2.77c4.7-3.75,6.82-10.24,5.73-16.39l-22.27-162.89c-1.54-8.73-8.16-15.06-15.85-15.15Z" transform="translate(-444.58 -455)"/><path class="cls-102" d="M1532.92,3009.76l-22.27-162.89c-1.54-8.73-8.16-15.06-15.85-15.15l-384.91-4.34c-4.64-.06-10.15-.76-16.3.83-1.66.43-4.31,1.22-5.48,2.2,0,0,13-3,18,8a28.91,28.91,0,0,1,1.31,3.72c37.55,1.88,74.89,1.18,112,4,72.8,5.36,145.59,6.06,212.8,36.07,21.36,9.53,36,43.27,30.18,58.8-4.16,11.21-18.4,10.29-23.37,25-5.24,15.51,7.31,26,2,36.92-5.52,11.41-22.31,6-49.58,14.26a130.09,130.09,0,0,0-33.91,16l161.94-4.26a12.81,12.81,0,0,0,7.68-2.77C1531.89,3022.4,1534,3015.91,1532.92,3009.76Z" transform="translate(-444.58 -455)"/><path class="cls-103" d="M1356.79,3060.27l-46.89,11.81-5,.44c-5,.46-9.33-3.91-9.55-9.71l-2.07-54.82c-.22-5.8,3.75-10.62,8.78-10.7l5-.09,47.15,6c4.49-.07,8.27-2.52,8.47,2.89l1.92,51.15C1364.83,3062.67,1361.26,3059.87,1356.79,3060.27Z" transform="translate(-444.58 -455)"/><path class="cls-104" d="M1360.34,3067.8l-51.94,4.7c-5,.45-9.33-3.92-9.54-9.71l-2.07-54.81c-.22-5.8,3.75-10.61,8.77-10.7l52.1-.87c4.48-.08,8.29,4.29,8.49,9.7l1.92,51.13C1368.27,3062.64,1364.81,3067.4,1360.34,3067.8Z" transform="translate(-444.58 -455)"/></g></g></svg>