<svg id="OBJECTS" xmlns="http://www.w3.org/2000/svg" xmlns:xlink="http://www.w3.org/1999/xlink" viewBox="0 0 401.72 455.74"><defs><style>.cls-1{fill:none;}.cls-2{fill:#ebe6f4;}.cls-3{fill:#3e3047;}.cls-4{fill:#737a75;}.cls-5,.cls-9{fill:#fff;}.cls-6{fill:url(#linear-gradient);}.cls-7{fill:#212023;}.cls-8{fill:#5b5a60;}.cls-17,.cls-9{opacity:0.1;}.cls-10,.cls-48,.cls-50{opacity:0.5;}.cls-11{fill:#e3d6e8;}.cls-12{fill:#c00;}.cls-13{fill:#dbd8e5;}.cls-14{fill:url(#linear-gradient-2);}.cls-15{fill:url(#linear-gradient-3);}.cls-16{fill:url(#linear-gradient-4);}.cls-17{fill:#020202;}.cls-18{fill:#ad1e00;}.cls-19{fill:#fc9b7a;}.cls-20{fill:#070707;opacity:0.05;}.cls-21{fill:#ffae8a;}.cls-22{fill:#c14884;}.cls-23{fill:#ffd180;}.cls-24{fill:#f9b950;}.cls-25{fill:#423f3e;}.cls-26{fill:#262322;}.cls-27{fill:#605a58;}.cls-28{fill:#a7dbcd;}.cls-29{clip-path:url(#clip-path);}.cls-30{fill:#c5eae0;}.cls-31{fill:#f9a5c7;}.cls-32,.cls-34{fill:#fcb9d7;}.cls-33{fill:#ef5098;}.cls-34,.cls-44,.cls-52{opacity:0.4;}.cls-35{fill:#f4804d;}.cls-36{fill:#e37df4;}.cls-37{fill:#c0acd1;}.cls-38{fill:#541e84;}.cls-39{fill:#814baa;}.cls-40{fill:#b4e4ef;}.cls-41{fill:#82c5d8;}.cls-42{clip-path:url(#clip-path-2);}.cls-43{fill:#def8fc;}.cls-44{fill:url(#linear-gradient-5);}.cls-45{fill:url(#linear-gradient-6);}.cls-46{opacity:0.3;fill:url(#linear-gradient-7);}.cls-47{fill:url(#linear-gradient-8);}.cls-48{fill:url(#linear-gradient-9);}.cls-49{fill:url(#linear-gradient-10);}.cls-50{fill:url(#linear-gradient-11);}.cls-51{fill:url(#linear-gradient-12);}.cls-52{fill:url(#linear-gradient-13);}.cls-53{fill:url(#linear-gradient-14);}</style><linearGradient id="linear-gradient" x1="52.03" y1="149.95" x2="236.09" y2="149.95" gradientUnits="userSpaceOnUse"><stop offset="0" stop-color="#ff7c73"/><stop offset="0.03" stop-color="#ff7a75"/><stop offset="1" stop-color="#f92fbf"/></linearGradient><linearGradient id="linear-gradient-2" x1="182.97" y1="267.71" x2="230.66" y2="267.71" gradientUnits="userSpaceOnUse"><stop offset="0" stop-color="#ff7a75"/><stop offset="1" stop-color="#a572d2"/></linearGradient><linearGradient id="linear-gradient-3" x1="182.97" y1="307.03" x2="230.66" y2="307.03" gradientUnits="userSpaceOnUse"><stop offset="0" stop-color="#ff7a75"/><stop offset="1" stop-color="#f97251"/></linearGradient><linearGradient id="linear-gradient-4" x1="182.97" y1="346.36" x2="230.66" y2="346.36" gradientUnits="userSpaceOnUse"><stop offset="0" stop-color="#ff7a75"/><stop offset="1" stop-color="#ff93bf"/></linearGradient><clipPath id="clip-path" transform="translate(-49.14 -25.2)"><rect class="cls-1" x="171.25" y="135.21" width="31.79" height="24.18"/></clipPath><clipPath id="clip-path-2" transform="translate(-49.14 -25.2)"><rect class="cls-1" x="331.1" y="165.5" width="38.44" height="24.82"/></clipPath><linearGradient id="linear-gradient-5" x1="314.42" y1="96.03" x2="279.69" y2="130.75" gradientTransform="translate(12.84 -28.48) rotate(5.68)" gradientUnits="userSpaceOnUse"><stop offset="0" stop-color="#e67b18"/><stop offset="1" stop-color="#ed1556"/></linearGradient><linearGradient id="linear-gradient-6" x1="310.42" y1="96.03" x2="275.69" y2="130.75" xlink:href="#linear-gradient-5"/><linearGradient id="linear-gradient-7" x1="231.83" y1="55.75" x2="309.08" y2="55.75" xlink:href="#linear-gradient-4"/><linearGradient id="linear-gradient-8" x1="227.93" y1="55.75" x2="305.17" y2="55.75" xlink:href="#linear-gradient-4"/><linearGradient id="linear-gradient-9" x1="103.99" y1="47.43" x2="74.92" y2="76.5" gradientUnits="userSpaceOnUse"><stop offset="0" stop-color="#ffa918"/><stop offset="0.99" stop-color="#edb956"/></linearGradient><linearGradient id="linear-gradient-10" x1="100.64" y1="47.43" x2="71.57" y2="76.5" xlink:href="#linear-gradient-9"/><linearGradient id="linear-gradient-11" x1="270.08" y1="234.57" x2="329.2" y2="234.57" xlink:href="#linear-gradient-9"/><linearGradient id="linear-gradient-12" x1="315.73" y1="213.66" x2="273.92" y2="255.47" xlink:href="#linear-gradient-9"/><linearGradient id="linear-gradient-13" x1="118.26" y1="227.19" x2="76.52" y2="268.93" gradientTransform="translate(-82.53 16.72) rotate(-17.04)" xlink:href="#linear-gradient-5"/><linearGradient id="linear-gradient-14" x1="113.45" y1="227.19" x2="71.71" y2="268.93" gradientTransform="translate(-82.53 16.72) rotate(-17.04)" xlink:href="#linear-gradient-5"/></defs><title>youtube-marketing</title><ellipse class="cls-2" cx="202.72" cy="432.92" rx="199" ry="22.83"/><rect class="cls-3" x="40.43" y="46.81" width="208.09" height="378.1" rx="14.24"/><path class="cls-4" d="M193.2,410A16.16,16.16,0,1,1,177,426.13,16.17,16.17,0,0,1,193.2,410Z" transform="translate(-49.14 -25.2)"/><path class="cls-4" d="M223.76,84.48a2.93,2.93,0,0,1,2.93,2.93h0a2.93,2.93,0,0,1-2.93,2.93H163.48a2.93,2.93,0,0,1-2.93-2.93h0a2.93,2.93,0,0,1,2.93-2.93Z" transform="translate(-49.14 -25.2)"/><rect class="cls-5" x="52.03" y="72.93" width="184.06" height="299.87"/><rect class="cls-6" x="52.03" y="75.09" width="184.06" height="149.72"/><rect class="cls-7" x="52.03" y="207.3" width="184.06" height="17.51"/><rect class="cls-8" x="52.03" y="71.46" width="184.06" height="13.34"/><rect class="cls-5" x="57.02" y="75.77" width="6.01" height="0.66"/><rect class="cls-5" x="57.02" y="77.92" width="6.01" height="0.66"/><rect class="cls-5" x="57.02" y="80.08" width="6.01" height="0.66"/><path class="cls-9" d="M248.79,103.62a3.34,3.34,0,0,1-3.33,3.33H140.94a3.33,3.33,0,0,1-3.33-3.33h0a3.33,3.33,0,0,1,3.33-3.33H245.46a3.34,3.34,0,0,1,3.33,3.33Z" transform="translate(-49.14 -25.2)"/><polygon class="cls-5" points="69.47 215.68 69.47 221.08 73.46 218.38 69.47 215.68"/><polygon class="cls-5" points="81.93 220.4 84.92 218.38 81.93 216.36 81.93 220.4"/><polygon class="cls-5" points="84.92 216.36 84.92 218.38 84.92 220.4 85.67 220.4 85.67 216.36 84.92 216.36"/><polygon class="cls-5" points="96.23 215.88 94.74 217.29 93.27 217.29 93.27 219.43 94.74 219.43 96.23 220.84 96.23 215.88"/><path class="cls-5" d="M145.9,242.2V245a1.38,1.38,0,0,0,0-2.75Z" transform="translate(-49.14 -25.2)"/><g class="cls-10"><polygon class="cls-11" points="231.66 211.29 56.66 211.29 56.66 210.56 231.63 210.56 231.66 211.29"/></g><g class="cls-10"><rect class="cls-11" x="56.66" y="210.56" width="74.11" height="0.73"/></g><path class="cls-12" d="M181.48,236.13a1.57,1.57,0,1,1-1.57-1.56A1.56,1.56,0,0,1,181.48,236.13Z" transform="translate(-49.14 -25.2)"/><rect class="cls-13" x="59.47" y="230.31" width="67.43" height="3.5"/><rect class="cls-13" x="59.47" y="239.31" width="40.5" height="3.5"/><rect class="cls-13" x="218.97" y="239.31" width="11.69" height="3.5"/><rect class="cls-13" x="197.97" y="239.31" width="11.69" height="3.5"/><path class="cls-11" d="M118.5,278a5.17,5.17,0,1,1-5.17-5.17A5.17,5.17,0,0,1,118.5,278Z" transform="translate(-49.14 -25.2)"/><rect class="cls-11" x="72.34" y="251.25" width="58.13" height="3.58"/><path class="cls-11" d="M118.5,295a5.17,5.17,0,1,1-5.17-5.17A5.17,5.17,0,0,1,118.5,295Z" transform="translate(-49.14 -25.2)"/><rect class="cls-11" x="72.34" y="269.25" width="98.12" height="1.58"/><path class="cls-11" d="M118.5,308a5.17,5.17,0,1,1-5.17-5.17A5.17,5.17,0,0,1,118.5,308Z" transform="translate(-49.14 -25.2)"/><rect class="cls-11" x="72.34" y="282.25" width="98.12" height="1.58"/><path class="cls-11" d="M118.5,321a5.17,5.17,0,1,1-5.17-5.17A5.17,5.17,0,0,1,118.5,321Z" transform="translate(-49.14 -25.2)"/><rect class="cls-11" x="72.34" y="295.25" width="98.12" height="1.58"/><path class="cls-11" d="M118.5,334a5.17,5.17,0,1,1-5.17-5.17A5.17,5.17,0,0,1,118.5,334Z" transform="translate(-49.14 -25.2)"/><rect class="cls-11" x="72.34" y="308.25" width="98.12" height="1.58"/><path class="cls-11" d="M118.5,347a5.17,5.17,0,1,1-5.17-5.17A5.17,5.17,0,0,1,118.5,347Z" transform="translate(-49.14 -25.2)"/><rect class="cls-11" x="72.34" y="321.25" width="98.12" height="1.58"/><path class="cls-11" d="M118.5,360a5.17,5.17,0,1,1-5.17-5.17A5.17,5.17,0,0,1,118.5,360Z" transform="translate(-49.14 -25.2)"/><rect class="cls-11" x="72.34" y="334.25" width="98.12" height="1.58"/><path class="cls-11" d="M118.5,373a5.17,5.17,0,1,1-5.17-5.17A5.17,5.17,0,0,1,118.5,373Z" transform="translate(-49.14 -25.2)"/><rect class="cls-11" x="72.34" y="347.25" width="98.12" height="1.58"/><path class="cls-11" d="M118.5,386a5.17,5.17,0,1,1-5.17-5.17A5.17,5.17,0,0,1,118.5,386Z" transform="translate(-49.14 -25.2)"/><rect class="cls-11" x="72.34" y="360.25" width="98.12" height="1.58"/><rect class="cls-14" x="182.97" y="253.04" width="47.69" height="29.34"/><rect class="cls-11" x="182.97" y="285.47" width="41.84" height="1.88"/><rect class="cls-15" x="182.97" y="292.36" width="47.69" height="29.34"/><rect class="cls-11" x="182.97" y="324.79" width="41.84" height="1.88"/><rect class="cls-16" x="182.97" y="331.69" width="47.69" height="29.34"/><rect class="cls-11" x="182.97" y="364.12" width="41.84" height="1.88"/><path class="cls-17" d="M242.14,156.82l-13.72,5.79v0L243,156.41a37.05,37.05,0,0,0-13.21-20.69l-.41-.65-.24.15a40,40,0,0,0-5.21-3.37,77.28,77.28,0,0,1,.93-12.55h0c1.11-6.4,2.08-13,2.92-20.79,1.81-16.92-1.49-28.87-9.56-47S193.4,17.39,162.36,29.31c0,0-24.46,9-25.57,38.25-.87,23.08,4.2,35.1,2,51.74-1.28,9.78.81,16,4.36,21.29a35.92,35.92,0,0,0-8.12,15.82l.95.41s-15.9,59.56-6.4,70.31c0,0,13.3,3.34,28.54-20.64v26h61.78V208.79c16.4,25,29.58,20.77,29.58,20.77a17,17,0,0,0,.09-4.05C256.72,211.45,242.14,156.82,242.14,156.82Zm-97.22,32.06,4.94-26.22c-1.14,7.93,1.61,12.94,4.24,15.82C151.16,181.55,148,185.08,144.92,188.88Zm75-7.2a11.43,11.43,0,0,0,2.69-1.87,53.3,53.3,0,0,1,2.92,7.59c-1.95-2-3.85-3.77-5.61-5.37Zm7.66,7.81c1.94-6.55,1.86-16.17,1-25.32l6.29,33.38C232.49,194.71,230,192,227.59,189.49Z" transform="translate(-49.14 -25.2)"/><path class="cls-18" d="M157.36,29.31s-24.46,9-25.57,38.25c-.87,23.08,4.2,35.1,2,51.74s5.39,22.86,13.38,32.25.75,22.8,8.72,28.23,54.67-11.46,58.28-30.66,6.55-31.39,8.61-50.61c1.81-16.92-1.49-28.87-9.56-47S188.4,17.39,157.36,29.31Z" transform="translate(-49.14 -25.2)"/><path class="cls-19" d="M188.3,188.38l32-48.48L206,128.38s-12.36-6.6-15.7-14.84H178.13c-3.34,8.24-15.71,14.84-15.71,14.84L148.15,139.9l32,48.48,3.7,1.19.39-.6.39.6Z" transform="translate(-49.14 -25.2)"/><path class="cls-20" d="M193.52,118.58a19,19,0,0,1-3.21-5H178.13a17.24,17.24,0,0,1-2.17,3.73c2.46,1.89,6.72,4.85,9.85,5.37C188.51,123.1,191.49,120.69,193.52,118.58Z" transform="translate(-49.14 -25.2)"/><path class="cls-21" d="M168.42,44.16c-33.94,7.73-22,47.73-19.32,56.56s12.33,11.9,22.1,15.63,14.31,2.87,14.31,2.87,4.46-1.2,11.65-8.78,14.55-14.52,13.17-23.66S202.38,36.44,168.42,44.16Z" transform="translate(-49.14 -25.2)"/><path class="cls-21" d="M148.21,91.72S141.66,86,139.4,90s4.35,10.65,10.21,7.91Z" transform="translate(-49.14 -25.2)"/><path class="cls-21" d="M207,78.33s3.44-8,7.17-5.4.69,11.48-5.77,11.55Z" transform="translate(-49.14 -25.2)"/><path class="cls-18" d="M163.44,89.23c.48,2.1-.06,4-1.2,4.28s-2.46-1.23-2.94-3.33.06-4,1.21-4.29S163,87.13,163.44,89.23Z" transform="translate(-49.14 -25.2)"/><path class="cls-18" d="M198,81.36c.48,2.1-.07,4-1.21,4.28s-2.46-1.23-2.94-3.33.06-4,1.2-4.29S197.53,79.26,198,81.36Z" transform="translate(-49.14 -25.2)"/><path class="cls-19" d="M178.63,83.07s-1.1,15.24,3.24,14.25S178.63,83.07,178.63,83.07Z" transform="translate(-49.14 -25.2)"/><path class="cls-22" d="M183.57,107.38c5.56-1.27,9.33-5.56,8.42-9.57l-20.15,4.59C172.75,106.41,178,108.64,183.57,107.38Z" transform="translate(-49.14 -25.2)"/><path class="cls-5" d="M173.16,104.92l18.72-4.26a5.63,5.63,0,0,0,.11-2.85l-20.15,4.59A5.68,5.68,0,0,0,173.16,104.92Z" transform="translate(-49.14 -25.2)"/><path class="cls-18" d="M188.81,75a1.73,1.73,0,0,1,.24-.41,4.45,4.45,0,0,1,.84-.92,3.54,3.54,0,0,1,.67-.5c.25-.15.51-.33.8-.47a7.75,7.75,0,0,1,2-.56l1-.07a3.78,3.78,0,0,1,1,.12c.32.06.62.14.91.22a2.11,2.11,0,0,1,.76.34,7,7,0,0,1,1.39,1,9.38,9.38,0,0,1-1.65,0,11.33,11.33,0,0,0-1.53,0,5.81,5.81,0,0,0-.83,0l-.86.12a3.07,3.07,0,0,0-.85.13c-.27.07-.56.09-.83.14-.53.17-1.07.25-1.51.38Z" transform="translate(-49.14 -25.2)"/><path class="cls-18" d="M163.79,80.58a2.06,2.06,0,0,0-.39-.26,4.69,4.69,0,0,0-1.16-.47,3.41,3.41,0,0,0-.82-.16,8.72,8.72,0,0,0-.93-.08,7.47,7.47,0,0,0-2,.33l-1,.38a3.55,3.55,0,0,0-.85.55,9.06,9.06,0,0,0-.74.58,2.33,2.33,0,0,0-.54.64,7.28,7.28,0,0,0-.83,1.49,10,10,0,0,0,1.49-.71,11.59,11.59,0,0,1,1.4-.64,4.68,4.68,0,0,1,.76-.32l.82-.27a3,3,0,0,1,.82-.24c.29-.06.55-.16.82-.23.55-.08,1.07-.24,1.52-.3Z" transform="translate(-49.14 -25.2)"/><path class="cls-23" d="M238,156.41s-4.24-25.13-35.43-29.87c0,0-4.92,6.27-18.56,15.83-13.63-9.56-18.55-15.83-18.55-15.83-31.2,4.74-35.43,29.87-35.43,29.87l14.8,6.25c-2,14.13,8.29,19,8.29,19V232.5h61.78V181.68s9.69-4.34,8.29-19Z" transform="translate(-49.14 -25.2)"/><path class="cls-24" d="M155.79,180.81l2.46.23,6.41.6,4.26.36,2.32.2,2.42.17c1.64.15,3.33.21,5.05.33s3.46.14,5.2.23,3.49.07,5.2.07,3.4,0,5-.1l2.4-.12,1.17,0,1.13-.11,2.17-.19c.7-.07,1.4-.07,2-.2,1.29-.2,2.49-.36,3.56-.49s2-.38,2.74-.51c1.53-.29,2.44-.43,2.44-.43s-.77.46-2.18,1.18a24.48,24.48,0,0,1-2.58,1.23c-1,.39-2.2.83-3.5,1.27s-2.73.74-4.25,1.12a21.89,21.89,0,0,1-2.36.45l-2.49.37a24,24,0,0,1-2.57.27c-.88.07-1.76.13-2.65.18-1.79.1-3.6,0-5.41.05s-3.61-.17-5.38-.36-3.5-.38-5.17-.68c-.83-.15-1.65-.27-2.45-.43l-2.32-.5c-1.52-.31-2.93-.73-4.23-1.07a63.14,63.14,0,0,1-6.17-2.09C156.6,181.23,155.79,180.81,155.79,180.81Z" transform="translate(-49.14 -25.2)"/><path class="cls-18" d="M167.27,33c-41.64,9.9-27.87,57-27.87,57l6.76.26s14.76-9.77,23.55-26.3a49.06,49.06,0,0,1-4.6,12.14s11.72-11.69,13.23-24.8a29.53,29.53,0,0,1,13.78,10.26,53.9,53.9,0,0,0,16.09,14.59l6-3.18S208.9,23.11,167.27,33Z" transform="translate(-49.14 -25.2)"/><path class="cls-18" d="M219.89,119.3s-2.35,13.26.39,24.59,6.41,36.82,1.41,48.08c0,0-2.55-14.77-12.28-23.59s-21.83-23.89-18-52.66Z" transform="translate(-49.14 -25.2)"/><path class="cls-19" d="M131,156.82s-15.9,59.56-6.4,70.31l9.79-8.94,10.46-55.53Z" transform="translate(-49.14 -25.2)"/><path class="cls-21" d="M161.57,166.62s-42.39,35.51-37,60.51c0,0,23.51,5.91,43.84-54.35,0,0,7.79-5.26,9.24-10.33s.91-13.58.91-13.58-10.51-2.72-13,0S161.57,166.62,161.57,166.62Z" transform="translate(-49.14 -25.2)"/><path class="cls-19" d="M237.14,156.82s15.9,59.56,6.4,70.31l-9.79-8.94-10.46-55.53Z" transform="translate(-49.14 -25.2)"/><path class="cls-21" d="M210.31,178s1.36-1.52,1.09-2.7-26.72,0-26.72,0-.73,1,5.34,3.08,10.38,3.43,11.76,4.84l.08.05c21.84,53.05,42.65,46.34,42.65,46.34C247.07,212.53,221.51,187.37,210.31,178Z" transform="translate(-49.14 -25.2)"/><rect class="cls-25" x="117.58" y="108.09" width="36.68" height="28.85"/><rect class="cls-26" x="119.75" y="108.09" width="36.68" height="28.85"/><polygon class="cls-27" points="154.26 136.94 117.58 136.94 133.88 151.42 168.39 149.41 154.26 136.94"/><polygon class="cls-26" points="156.44 136.94 119.75 136.94 133.88 149.41 170.57 149.41 156.44 136.94"/><rect class="cls-25" x="133.88" y="149.41" width="36.68" height="2"/><rect class="cls-28" x="122.11" y="110.01" width="31.79" height="24.18"/><g class="cls-29"><rect class="cls-30" x="150.96" y="134.23" width="59.6" height="5.8" transform="translate(-94.44 92.51) rotate(-32.28)"/><rect class="cls-30" x="156.3" y="141.84" width="59.6" height="3.4" transform="translate(-97.04 96.35) rotate(-32.28)"/><rect class="cls-30" x="161.71" y="147.54" width="59.6" height="2.35" transform="matrix(0.85, -0.53, 0.53, 0.85, -98.96, 100.04)"/><rect class="cls-30" x="170.97" y="150.53" width="59.6" height="5.8" transform="translate(-100.05 105.71) rotate(-32.28)"/></g><path class="cls-31" d="M189.53,165c-.06,1.31-3.29,2.23-7.22,2.06s-7.06-1.36-7-2.67,3.29-2.23,7.22-2.06S189.59,163.73,189.53,165Z" transform="translate(-49.14 -25.2)"/><path class="cls-32" d="M180.68,162.37c-3.05.14-5.33,1-5.38,2.06-.05,1.3,3,2.49,6.95,2.67,3.05-.14,5.33-1,5.38-2.06C187.68,163.74,184.58,162.55,180.68,162.37Z" transform="translate(-49.14 -25.2)"/><path class="cls-33" d="M206.75,165c-.06,1.31-3.29,2.23-7.22,2.06s-7.07-1.36-7-2.67,3.29-2.23,7.22-2.06S206.8,163.73,206.75,165Z" transform="translate(-49.14 -25.2)"/><path class="cls-34" d="M197.89,162.37c-3,.14-5.32,1-5.37,2.06-.06,1.3,3,2.49,6.95,2.67,3.05-.14,5.33-1,5.38-2.06C204.9,163.74,201.79,162.55,197.89,162.37Z" transform="translate(-49.14 -25.2)"/><path class="cls-35" d="M196.46,170.75c-.06,1.3-3.29,2.23-7.22,2.06s-7.06-1.37-7-2.67,3.29-2.23,7.22-2.07S196.52,169.44,196.46,170.75Z" transform="translate(-49.14 -25.2)"/><path class="cls-34" d="M187.61,168.08c-3.05.14-5.33,1-5.38,2.06,0,1.3,3.05,2.49,7,2.66,3-.14,5.33-1,5.38-2.05C194.61,169.45,191.51,168.26,187.61,168.08Z" transform="translate(-49.14 -25.2)"/><path class="cls-36" d="M213.68,170.75c-.06,1.3-3.29,2.23-7.22,2.06s-7.07-1.37-7-2.67,3.29-2.23,7.21-2.07S213.73,169.44,213.68,170.75Z" transform="translate(-49.14 -25.2)"/><path class="cls-34" d="M204.82,168.08c-3,.14-5.32,1-5.37,2.06-.06,1.3,3.05,2.49,7,2.66,3-.14,5.33-1,5.38-2.05C211.83,169.45,208.72,168.26,204.82,168.08Z" transform="translate(-49.14 -25.2)"/><polygon class="cls-37" points="365 437.84 313.1 238.15 313.09 238.15 313.09 238.15 307.72 238.15 306.72 238.21 255.83 436.88 261.27 439.76 307.72 258.81 307.72 439.76 313.09 439.76 313.09 258.72 359.56 439.76 365 437.84"/><rect class="cls-37" x="304.64" y="180.19" width="9.89" height="61.94"/><rect class="cls-38" x="301.45" y="236.76" width="16.26" height="5.36"/><rect class="cls-38" x="300.45" y="173.74" width="18.26" height="8.36"/><circle class="cls-38" cx="279.65" cy="152.68" r="12.83"/><path class="cls-38" d="M389.75,156.88c0,1-.56,1.84-1.24,1.84h-4.05c-.68,0-1.24-.82-1.24-1.84h0c0-1,.56-1.84,1.24-1.84h4.05c.68,0,1.24.83,1.24,1.84Z" transform="translate(-49.14 -25.2)"/><path class="cls-38" d="M332.91,156.88c0,1-.55,1.84-1.23,1.84h-4.05c-.69,0-1.24-.82-1.24-1.84h0c0-1,.55-1.84,1.24-1.84h4.05c.68,0,1.23.83,1.23,1.84Z" transform="translate(-49.14 -25.2)"/><path class="cls-39" d="M363.7,148.1a2,2,0,0,0-1.54-.85h-20a2,2,0,0,0-1.52.86L334,159c-.28.47-.07.85.48.85h35.7c.55,0,.76-.38.46-.84Z" transform="translate(-49.14 -25.2)"/><path class="cls-40" d="M359.38,152.26a2.78,2.78,0,0,1-2.79,2.78h-8.93a2.78,2.78,0,0,1-2.78-2.78h0a2.79,2.79,0,0,1,2.78-2.79h8.93a2.79,2.79,0,0,1,2.79,2.79Z" transform="translate(-49.14 -25.2)"/><path class="cls-38" d="M381,156.88a1.84,1.84,0,0,1-1.84,1.84h-6a1.84,1.84,0,0,1-1.84-1.84h0a1.84,1.84,0,0,1,1.84-1.84h6a1.84,1.84,0,0,1,1.84,1.84Z" transform="translate(-49.14 -25.2)"/><rect class="cls-39" x="272.66" y="131.68" width="73.84" height="42.06" rx="5.71"/><rect class="cls-41" x="279.38" y="137.98" width="43.59" height="29.47"/><rect class="cls-40" x="281.96" y="140.3" width="38.44" height="24.82"/><g class="cls-42"><rect class="cls-43" x="297.76" y="157.23" width="91.25" height="3.88" transform="translate(-61.12 264.23) rotate(-45)"/><rect class="cls-43" x="303.97" y="165.43" width="91.25" height="9.61" transform="translate(-67.12 271.86) rotate(-45)"/><rect class="cls-43" x="310.13" y="177.04" width="91.25" height="2.57" transform="translate(-71.04 278.59) rotate(-45)"/><rect class="cls-43" x="325.15" y="182.55" width="91.25" height="3.88" transform="translate(-71 291.02) rotate(-45)"/></g><path class="cls-38" d="M390.37,180.67a7.19,7.19,0,1,1-7.19-7.19A7.19,7.19,0,0,1,390.37,180.67Z" transform="translate(-49.14 -25.2)"/><path class="cls-39" d="M383.68,180.67l4.8-4.84a4.64,4.64,0,0,0-.5-.49l-4.8,4.83-4.84-4.81-.5.5,4.84,4.81-4.81,4.84c.16.17.33.34.5.5l4.81-4.84L388,186c.17-.16.34-.33.49-.5Z" transform="translate(-49.14 -25.2)"/><path class="cls-39" d="M386.49,180.67a3.31,3.31,0,1,1-3.31-3.31A3.31,3.31,0,0,1,386.49,180.67Z" transform="translate(-49.14 -25.2)"/><path class="cls-38" d="M380.38,191.14a1.5,1.5,0,1,1-1.5-1.5A1.5,1.5,0,0,1,380.38,191.14Z" transform="translate(-49.14 -25.2)"/><path class="cls-38" d="M389,191.14a1.51,1.51,0,1,1-1.51-1.5A1.51,1.51,0,0,1,389,191.14Z" transform="translate(-49.14 -25.2)"/><path class="cls-37" d="M382.11,164.06a1,1,0,0,1-1,1h-3.42a1,1,0,0,1-1-1h0a1,1,0,0,1,1-1.05h3.42a1,1,0,0,1,1,1.05Z" transform="translate(-49.14 -25.2)"/><path class="cls-37" d="M389.74,164.06a1,1,0,0,1-1,1h-3.41a1,1,0,0,1-1.05-1h0a1,1,0,0,1,1.05-1.05h3.41a1,1,0,0,1,1,1.05Z" transform="translate(-49.14 -25.2)"/><path class="cls-38" d="M382.11,167.06a1,1,0,0,1-1,1h-3.42a1,1,0,0,1-1-1h0a1,1,0,0,1,1-1.05h3.42a1,1,0,0,1,1,1.05Z" transform="translate(-49.14 -25.2)"/><path class="cls-38" d="M389.74,167.06a1,1,0,0,1-1,1h-3.41a1,1,0,0,1-1.05-1h0a1,1,0,0,1,1.05-1.05h3.41a1,1,0,0,1,1,1.05Z" transform="translate(-49.14 -25.2)"/><path class="cls-37" d="M380.38,171.14a1.5,1.5,0,1,1-1.5-1.5A1.5,1.5,0,0,1,380.38,171.14Z" transform="translate(-49.14 -25.2)"/><path class="cls-37" d="M389,171.14a1.51,1.51,0,1,1-1.51-1.5A1.51,1.51,0,0,1,389,171.14Z" transform="translate(-49.14 -25.2)"/><path class="cls-44" d="M321.66,116.16a24.56,24.56,0,1,1-22-26.86A24.56,24.56,0,0,1,321.66,116.16Z" transform="translate(-49.14 -25.2)"/><path class="cls-45" d="M317.67,115.77a24.55,24.55,0,1,1-22-26.87A24.55,24.55,0,0,1,317.67,115.77Z" transform="translate(-49.14 -25.2)"/><path class="cls-5" d="M309.16,105.36c-6.55-6.9-15.69,5.68-15.69,5.68S287,96.91,279.2,102.38s12.55,25.91,12.55,25.91S315.71,112.26,309.16,105.36Z" transform="translate(-49.14 -25.2)"/><path class="cls-46" d="M299.7,29H241.21a9.38,9.38,0,0,0-9.38,9.37V54.73a9.38,9.38,0,0,0,9.38,9.38h4.58V82.48l15.54-18.37H299.7a9.38,9.38,0,0,0,9.38-9.38V38.39A9.38,9.38,0,0,0,299.7,29Z" transform="translate(-49.14 -25.2)"/><path class="cls-47" d="M295.79,29H237.3a9.38,9.38,0,0,0-9.37,9.37V54.73a9.38,9.38,0,0,0,9.37,9.38h4.58V82.48l15.54-18.37h38.37a9.38,9.38,0,0,0,9.38-9.38V38.39A9.38,9.38,0,0,0,295.79,29Z" transform="translate(-49.14 -25.2)"/><path class="cls-5" d="M253.58,46.47a2.66,2.66,0,1,1-2.66-2.66A2.66,2.66,0,0,1,253.58,46.47Z" transform="translate(-49.14 -25.2)"/><path class="cls-5" d="M269.21,46.47a2.66,2.66,0,1,1-2.66-2.66A2.66,2.66,0,0,1,269.21,46.47Z" transform="translate(-49.14 -25.2)"/><path class="cls-5" d="M284.84,46.47a2.67,2.67,0,1,1-2.66-2.66A2.66,2.66,0,0,1,284.84,46.47Z" transform="translate(-49.14 -25.2)"/><path class="cls-48" d="M110,62A20.56,20.56,0,1,1,89.46,41.41,20.55,20.55,0,0,1,110,62Z" transform="translate(-49.14 -25.2)"/><path class="cls-49" d="M106.66,62A20.56,20.56,0,1,1,86.11,41.41,20.55,20.55,0,0,1,106.66,62Z" transform="translate(-49.14 -25.2)"/><polygon class="cls-5" points="36.97 24.69 40.89 32.64 49.66 33.91 43.31 40.1 44.81 48.84 36.97 44.71 29.12 48.84 30.62 40.1 24.27 33.91 33.04 32.64 36.97 24.69"/><path class="cls-11" d="M101.92,140a3,3,0,0,0-3.33-2.53,2.78,2.78,0,0,0,2.22-3.33,3,3,0,0,0-3.3-2.43l-13,2.46a47.38,47.38,0,0,0,.37-7.25c-.18-2.9-3.69-6.46-3.69-6.46a4.16,4.16,0,0,0-5.15,1l1.35,7.18c-.53,3.79-3.11,8.22-4.7,10.65l3.55,18.82,0-.07a4.17,4.17,0,0,1,1.45.35c3.06,1.62,5.11,2,5.91,1.87l17.83-3.36a3.15,3.15,0,0,0,2.71-3.87c-.5-2.62-3.46-2.61-3.46-2.61s3-1.18,2.44-4a3.37,3.37,0,0,0-3.52-2.68A3.3,3.3,0,0,0,101.92,140Z" transform="translate(-49.14 -25.2)"/><path class="cls-11" d="M67.63,139.13l-4.92.93a2.51,2.51,0,0,0-2,2.93l3,15.9a2.5,2.5,0,0,0,2.93,2l4.92-.93a2.51,2.51,0,0,0,2-2.93l-3-15.9A2.52,2.52,0,0,0,67.63,139.13Z" transform="translate(-49.14 -25.2)"/><path class="cls-11" d="M362.4,85.27A1.87,1.87,0,0,0,361.18,83a1.75,1.75,0,0,0,2.13-1.31,1.88,1.88,0,0,0-1.23-2.24l-8-2a29.55,29.55,0,0,0,2.1-4c.66-1.68-.39-4.62-.39-4.62a2.59,2.59,0,0,0-3.16-.8l-1.12,4.42a18.49,18.49,0,0,1-5.45,4.78l-2.92,11.56.05,0a2.59,2.59,0,0,1,.73.58,7.29,7.29,0,0,0,2.84,2.6l11,2.77a2,2,0,0,0,2.54-1.48A2.17,2.17,0,0,0,359,90.82a2.36,2.36,0,0,0,2.43-1.62,2.11,2.11,0,0,0-1.29-2.44A2.05,2.05,0,0,0,362.4,85.27Z" transform="translate(-49.14 -25.2)"/><path class="cls-11" d="M343.25,75.82l-3-.77a1.56,1.56,0,0,0-1.89,1.14L335.86,86a1.57,1.57,0,0,0,1.13,1.9l3,.76a1.55,1.55,0,0,0,1.89-1.13l2.47-9.77A1.56,1.56,0,0,0,343.25,75.82Z" transform="translate(-49.14 -25.2)"/><path class="cls-11" d="M416.31,108.47a2.7,2.7,0,0,0-3.33-1.69,2.51,2.51,0,0,0,1.42-3.29,2.7,2.7,0,0,0-3.3-1.61L400,106.14a41.71,41.71,0,0,0-.84-6.44c-.61-2.53-4.28-5.09-4.28-5.09a3.72,3.72,0,0,0-4.38,1.68l2.35,6.1c.14,3.42-1.42,7.73-2.43,10.13l6.14,16,0-.07a3.77,3.77,0,0,1,1.33.08c2.95.93,4.82,1,5.5.7l15.15-5.82a2.82,2.82,0,0,0,1.76-3.84c-.86-2.23-3.46-1.74-3.46-1.74s2.43-1.51,1.51-3.91a3,3,0,0,0-3.53-1.79A3,3,0,0,0,416.31,108.47Z" transform="translate(-49.14 -25.2)"/><path class="cls-11" d="M386,113.23l-4.19,1.6a2.26,2.26,0,0,0-1.29,2.9l5.19,13.51a2.26,2.26,0,0,0,2.9,1.29l4.19-1.61a2.26,2.26,0,0,0,1.29-2.9l-5.19-13.51A2.25,2.25,0,0,0,386,113.23Z" transform="translate(-49.14 -25.2)"/><path class="cls-50" d="M329.2,234.57A29.56,29.56,0,1,1,299.64,205,29.56,29.56,0,0,1,329.2,234.57Z" transform="translate(-49.14 -25.2)"/><path class="cls-51" d="M324.39,234.57A29.57,29.57,0,1,1,294.82,205,29.57,29.57,0,0,1,324.39,234.57Z" transform="translate(-49.14 -25.2)"/><path class="cls-5" d="M305.8,243.87h-1.35l-1.79-11a7.43,7.43,0,0,0-3.64-6.41,4.75,4.75,0,0,0-3.78-7.63,4.78,4.78,0,0,0-4.78,4.76,4.73,4.73,0,0,0,1,2.85,7.42,7.42,0,0,0-3.66,6.39l-1.84,11h-1.35a1.21,1.21,0,0,0,0,2.41l21.24.05a1.21,1.21,0,1,0,0-2.41Zm-13.39-20.24a2.82,2.82,0,1,1,5.63,0,2.79,2.79,0,0,1-.9,2.05,7.6,7.6,0,0,0-1.92-.26,7.52,7.52,0,0,0-1.91.25A2.79,2.79,0,0,1,292.41,223.63Z" transform="translate(-49.14 -25.2)"/><path class="cls-5" d="M292.09,247.58a3.11,3.11,0,0,0,6.18,0Z" transform="translate(-49.14 -25.2)"/><path class="cls-5" d="M308.1,227.62a10.1,10.1,0,0,1,0,11.9c-.44.65.61,1.27,1.05.62a11.23,11.23,0,0,0,0-13.13c-.46-.62-1.53,0-1,.61Z" transform="translate(-49.14 -25.2)"/><path class="cls-5" d="M311.32,224.87c4,5.27,3.56,12.1,0,17.42-.44.65.62,1.27,1.05.62,3.82-5.64,4.26-13,0-18.66-.46-.62-1.52,0-1.05.62Z" transform="translate(-49.14 -25.2)"/><path class="cls-5" d="M282.05,227.57a10.1,10.1,0,0,0,0,11.9c.44.65-.62,1.26-1.06.61A11.25,11.25,0,0,1,281,227c.47-.62,1.53,0,1.05.62Z" transform="translate(-49.14 -25.2)"/><path class="cls-5" d="M278.84,224.8c-4,5.25-3.61,12.09,0,17.42.44.66-.61,1.27-1.05.62-3.79-5.66-4.21-13.06,0-18.66.47-.62,1.53,0,1,.62Z" transform="translate(-49.14 -25.2)"/><path class="cls-52" d="M111.48,216.7a29.52,29.52,0,1,1-36.87-19.57A29.53,29.53,0,0,1,111.48,216.7Z" transform="translate(-49.14 -25.2)"/><path class="cls-53" d="M106.88,218.11A29.52,29.52,0,1,1,70,198.54,29.53,29.53,0,0,1,106.88,218.11Z" transform="translate(-49.14 -25.2)"/><polygon class="cls-5" points="11.46 195.27 29.52 201.56 41.69 186.8 11.46 195.27"/><polygon class="cls-5" points="30.51 205.1 12.45 198.81 17.36 216.32 47.59 207.85 42.68 190.34 30.51 205.1"/><path class="cls-11" d="M444.72,76.61a1.89,1.89,0,0,0-1.22-2.3,1.74,1.74,0,0,0,2.13-1.3,1.89,1.89,0,0,0-1.24-2.24l-8-2a29.13,29.13,0,0,0,2.11-4c.66-1.69-.39-4.62-.39-4.62a2.59,2.59,0,0,0-3.17-.8l-1.11,4.41a18.66,18.66,0,0,1-5.45,4.79l-2.92,11.56,0,0a2.46,2.46,0,0,1,.73.58,7.27,7.27,0,0,0,2.85,2.61L440,86a2,2,0,0,0,2.54-1.47,2.18,2.18,0,0,0-1.28-2.38,2.37,2.37,0,0,0,2.43-1.63,2.09,2.09,0,0,0-1.29-2.43A2.06,2.06,0,0,0,444.72,76.61Z" transform="translate(-49.14 -25.2)"/><path class="cls-11" d="M425.57,67.15l-3-.76a1.57,1.57,0,0,0-1.9,1.13l-2.47,9.77a1.58,1.58,0,0,0,1.14,1.9l3,.76a1.57,1.57,0,0,0,1.9-1.13l2.47-9.77A1.57,1.57,0,0,0,425.57,67.15Z" transform="translate(-49.14 -25.2)"/><path class="cls-5" d="M263.63,89.31c0,3.19-3.18,4.23-3.18,4.23s3.18,1,3.18,4.23c0-3.19,3.19-4.23,3.19-4.23S263.63,92.5,263.63,89.31Z" transform="translate(-49.14 -25.2)"/><path class="cls-5" d="M237.49,127.8c0,3.87-3.86,5.13-3.86,5.13s3.86,1.26,3.86,5.12c0-3.86,3.86-5.12,3.86-5.12S237.49,131.67,237.49,127.8Z" transform="translate(-49.14 -25.2)"/><path class="cls-5" d="M268.81,151.69c0,8.05-8.05,10.68-8.05,10.68s8.05,2.63,8.05,10.68c0-8.05,8.05-10.68,8.05-10.68S268.81,159.74,268.81,151.69Z" transform="translate(-49.14 -25.2)"/><path class="cls-5" d="M258.8,195.83c0,3.19-3.19,4.23-3.19,4.23s3.19,1,3.19,4.23c0-3.19,3.19-4.23,3.19-4.23S258.8,199,258.8,195.83Z" transform="translate(-49.14 -25.2)"/><path class="cls-5" d="M118.5,118.47c0,3.19-3.18,4.23-3.18,4.23s3.18,1,3.18,4.23c0-3.19,3.19-4.23,3.19-4.23S118.5,121.66,118.5,118.47Z" transform="translate(-49.14 -25.2)"/><path class="cls-5" d="M101.17,170.13c0,8.06-8,10.68-8,10.68s8,2.63,8,10.68c0-8.05,8-10.68,8-10.68S101.17,178.19,101.17,170.13Z" transform="translate(-49.14 -25.2)"/></svg>