<svg xmlns="http://www.w3.org/2000/svg" xmlns:xlink="http://www.w3.org/1999/xlink" preserveAspectRatio="xMidYMid" width="15" height="14" viewBox="0 0 15 14">
  <defs>
    <style>
      .cls-1 {
        fill: #fff;
        fill-rule: evenodd;
      }
    </style>
  </defs>
  <path d="M14.161,4.644 L9.320,9.239 C8.584,9.934 7.609,10.317 6.574,10.317 L4.970,10.317 C4.504,10.317 4.124,9.957 4.124,9.514 L4.124,7.992 C4.124,7.009 4.527,6.084 5.259,5.387 L10.107,0.786 C10.657,0.263 11.396,-0.016 12.189,0.001 C12.938,0.015 13.638,0.297 14.160,0.792 C15.279,1.855 15.279,3.583 14.161,4.644 ZM9.560,3.575 L6.456,6.521 C6.043,6.914 5.815,7.436 5.815,7.992 L5.815,8.712 L6.574,8.712 C7.159,8.712 7.710,8.496 8.125,8.103 L11.228,5.158 L9.560,3.575 ZM12.965,1.927 C12.742,1.716 12.446,1.600 12.131,1.600 C12.131,1.600 12.131,1.600 12.130,1.600 C11.815,1.600 11.519,1.716 11.296,1.927 L10.756,2.440 L12.424,4.023 L12.965,3.510 C13.424,3.074 13.424,2.363 12.965,1.927 ZM6.438,2.447 L2.277,2.447 C1.954,2.447 1.691,2.697 1.691,3.004 L1.691,11.838 C1.691,12.145 1.954,12.395 2.277,12.395 L10.154,12.395 C10.478,12.395 10.741,12.145 10.741,11.838 L10.741,9.704 C10.741,9.261 11.120,8.901 11.586,8.901 C12.052,8.901 12.432,9.261 12.432,9.704 L12.432,11.838 C12.432,13.030 11.410,14.000 10.154,14.000 L2.277,14.000 C1.021,14.000 -0.000,13.030 -0.000,11.838 L-0.000,3.004 C-0.000,1.812 1.021,0.842 2.277,0.842 L6.438,0.842 C6.904,0.842 7.283,1.202 7.283,1.645 C7.283,2.088 6.904,2.447 6.438,2.447 Z" class="cls-1"/>
</svg>
