<svg xmlns="http://www.w3.org/2000/svg" xmlns:xlink="http://www.w3.org/1999/xlink" preserveAspectRatio="xMidYMid" width="15.938" height="15.937" viewBox="0 0 15.938 15.937">
  <defs>
    <style>
      .cls-1 {
        fill: #3f3f59;
        fill-rule: evenodd;
      }
    </style>
  </defs>
  <path d="M7.976,15.941 L0.864,15.941 C0.390,15.941 0.004,15.556 0.004,15.081 L0.004,7.970 C0.004,3.574 3.580,-0.002 7.976,-0.002 C12.371,-0.002 15.947,3.574 15.947,7.970 C15.947,12.365 12.371,15.941 7.976,15.941 ZM7.976,1.718 C4.529,1.718 1.724,4.522 1.724,7.970 L1.724,14.222 L7.976,14.222 C11.423,14.222 14.228,11.417 14.228,7.970 C14.228,4.522 11.423,1.718 7.976,1.718 ZM9.095,8.332 C8.607,8.715 8.607,8.928 8.607,9.442 C8.607,9.604 8.543,10.130 7.730,10.130 C6.994,10.130 6.894,9.644 6.894,9.169 C6.894,8.177 7.347,7.672 7.688,7.378 C7.755,7.321 7.829,7.264 7.908,7.203 C8.215,6.967 8.533,6.723 8.533,6.386 C8.533,5.973 8.052,5.929 7.845,5.929 C7.361,5.929 7.240,6.108 7.099,6.315 C6.978,6.493 6.813,6.737 6.437,6.737 C6.007,6.737 5.550,6.437 5.550,5.882 C5.550,5.211 6.289,4.217 7.877,4.217 C9.322,4.217 10.371,5.054 10.371,6.207 C10.371,6.726 10.150,7.517 9.095,8.332 ZM7.740,10.341 C8.328,10.341 8.806,10.819 8.806,11.407 C8.806,11.995 8.328,12.473 7.740,12.473 C7.157,12.473 6.684,11.995 6.684,11.407 C6.684,10.819 7.157,10.341 7.740,10.341 Z" class="cls-1"/>
</svg>
