<svg xmlns="http://www.w3.org/2000/svg" xmlns:xlink="http://www.w3.org/1999/xlink" preserveAspectRatio="xMidYMid" width="14" height="14" viewBox="0 0 14 14">
  <defs>
    <style>
      .cls-1 {
        fill: #fff;
        fill-rule: evenodd;
      }
    </style>
  </defs>
  <path d="M5.903,6.508 L5.903,1.081 C5.903,0.482 6.393,-0.004 6.996,-0.004 C7.597,-0.004 8.087,0.482 8.087,1.081 L8.087,6.508 C8.087,7.108 7.597,7.592 6.996,7.592 C6.393,7.592 5.903,7.108 5.903,6.508 L5.903,6.508 ZM11.325,1.586 C10.971,1.310 10.456,1.369 10.175,1.720 C9.894,2.075 9.957,2.587 10.311,2.866 C11.612,3.885 12.357,5.407 12.357,7.052 C12.357,9.987 9.952,12.376 6.996,12.376 C4.039,12.376 1.637,9.987 1.637,7.052 C1.637,5.410 2.379,3.885 3.679,2.866 C4.033,2.587 4.095,2.078 3.815,1.723 C3.535,1.372 3.019,1.310 2.662,1.589 C0.968,2.917 -0.004,4.909 -0.004,7.052 C-0.004,10.885 3.135,14.003 6.996,14.003 C10.855,14.003 13.994,10.885 13.994,7.052 C13.994,4.907 13.022,2.917 11.325,1.586 L11.325,1.586 Z" class="cls-1"/>
</svg>
