<svg xmlns="http://www.w3.org/2000/svg" xmlns:xlink="http://www.w3.org/1999/xlink" preserveAspectRatio="xMidYMid" width="60" height="60" viewBox="0 0 60 60">
  <defs>
    <style>
      .cls-1 {
        fill: #f2f5fa;
      }

      .cls-2 {
        fill: #7a8ebe;
        fill-rule: evenodd;
      }
    </style>
  </defs>
  <g>
    <circle cx="30" cy="30" r="30" class="cls-1"/>
    <path d="M42.190,35.864 C41.013,37.165 39.430,37.944 37.737,38.066 L33.562,38.066 C33.145,38.066 32.812,37.733 32.812,37.316 C32.812,36.898 33.145,36.565 33.562,36.565 L37.654,36.565 C40.330,36.359 42.501,33.956 42.501,31.192 C42.501,28.584 40.635,26.298 38.165,25.875 C37.831,25.820 37.576,25.547 37.543,25.208 C37.232,21.949 34.528,19.490 31.252,19.490 C28.814,19.490 26.572,20.914 25.533,23.122 C25.367,23.472 24.961,23.639 24.595,23.506 C24.295,23.395 23.973,23.339 23.646,23.339 C22.113,23.339 20.864,24.591 20.864,26.125 C20.864,26.465 20.919,26.782 21.030,27.082 C21.153,27.427 21.020,27.811 20.703,27.994 C19.343,28.789 18.499,30.258 18.499,31.832 C18.499,34.268 20.409,36.431 22.680,36.570 L27.432,36.570 C27.849,36.570 28.182,36.904 28.182,37.321 C28.182,37.738 27.849,38.072 27.432,38.072 L22.613,38.072 C21.103,37.988 19.687,37.271 18.615,36.059 C17.571,34.874 17.000,33.378 17.000,31.837 C17.000,29.930 17.927,28.139 19.454,27.026 C19.398,26.737 19.365,26.442 19.365,26.136 C19.365,23.773 21.286,21.848 23.646,21.848 C23.923,21.848 24.201,21.876 24.467,21.926 C25.084,20.847 25.955,19.930 27.005,19.251 C28.265,18.434 29.736,18.000 31.247,18.000 C33.201,18.000 35.077,18.728 36.521,20.052 C37.820,21.242 38.670,22.811 38.958,24.529 C41.868,25.297 43.994,28.072 44.000,31.192 C44.000,32.916 43.361,34.573 42.190,35.864 ZM26.533,32.772 C26.344,32.772 26.150,32.694 26.005,32.549 C25.711,32.254 25.711,31.782 26.005,31.487 L29.975,27.510 C30.114,27.366 30.308,27.288 30.502,27.288 C30.697,27.288 30.891,27.371 31.030,27.510 L35.000,31.487 C35.294,31.782 35.294,32.254 35.000,32.549 C34.706,32.844 34.233,32.844 33.945,32.549 L31.252,29.852 L31.252,42.249 C31.252,42.666 30.919,43.000 30.502,43.000 C30.086,43.000 29.753,42.666 29.753,42.249 L29.753,29.852 L27.060,32.549 C26.916,32.699 26.721,32.772 26.533,32.772 Z" class="cls-2"/>
  </g>
</svg>
