<svg id="Layer_1" data-name="Layer 1" xmlns="http://www.w3.org/2000/svg" viewBox="0 0 476.38 394.35"><defs><style>.cls-1{fill:#299772;}.cls-2{fill:#106645;}.cls-3{fill:#4bc99b;}.cls-4{fill:#4bb2a1;}.cls-5{fill:#ff7e69;}.cls-6{fill:#fab068;}.cls-7{fill:#299872;}.cls-8{fill:#f7ad68;}.cls-9{fill:#d84a2e;}.cls-10{fill:#f37453;}.cls-11{fill:#fff;}.cls-12{fill:#ead4a7;}.cls-13{fill:#252528;}.cls-14{fill:#5b1721;}.cls-15{fill:#f1614d;}.cls-16{fill:#7a222b;}.cls-17{fill:#ffba97;}.cls-18{fill:#00555e;}.cls-19{fill:#00afaf;}.cls-20{fill:#ed8e40;}.cls-21{fill:#9b1e24;}.cls-22{fill:#d3404e;}.cls-23{fill:#35201e;}.cls-24{fill:#ffcd82;}.cls-25{fill:#1c1938;}.cls-26{fill:none;}.cls-27{fill:#289799;}.cls-28{fill:#136c7a;}.cls-29{fill:#d74b3c;}.cls-30{fill:#ff8c5a;}.cls-31{fill:#ffcb80;}.cls-32{fill:#337d7f;}.cls-33{fill:#fdac29;}.cls-34{fill:#ffaf22;}.cls-35{fill:#ea8915;}.cls-36{fill:#ffe67b;}.cls-37{fill:#fff0dc;}.cls-38{fill:#6b97dd;}.cls-39{fill:#607fbe;}.cls-40{fill:#d94b3c;}.cls-41{fill:#a1e2a3;}</style></defs><title>1k-daily-sales</title><rect class="cls-1" x="336.12" y="79.46" width="54.87" height="96.05" transform="translate(50.28 -204.79) rotate(25.87)"/><path class="cls-2" d="M365.83,176.36,323.78,156l37.51-77.35,42,20.39Zm-38.16-21.78,36.84,17.86,34.94-72L362.61,82.53Z" transform="translate(-41.78 -58.94)"/><path class="cls-2" d="M358.22,170.71s2.85-5.41,10.84-3.87l-4,7Z" transform="translate(-41.78 -58.94)"/><path class="cls-2" d="M394.15,96.45s-2.48,5.58,3.67,10.91l3-7.45Z" transform="translate(-41.78 -58.94)"/><path class="cls-2" d="M329.57,148s5.3,2.8,3.67,10.91L326.42,155Z" transform="translate(-41.78 -58.94)"/><path class="cls-2" d="M358,88.11s5.49,2.42,10.84-3.88l-7.31-2.92Z" transform="translate(-41.78 -58.94)"/><path class="cls-2" d="M353.33,148.59a4.36,4.36,0,1,1-5.75,2A4.31,4.31,0,0,1,353.33,148.59Z" transform="translate(-41.78 -58.94)"/><rect class="cls-2" x="337.19" y="147.65" width="12.03" height="1.74" transform="translate(18.04 333.6) rotate(-64.13)"/><rect class="cls-2" x="353.63" y="155.62" width="12.03" height="1.75" transform="translate(20.14 352.88) rotate(-64.13)"/><path class="cls-2" d="M377.59,98.55a4.36,4.36,0,1,1-5.74,2A4.31,4.31,0,0,1,377.59,98.55Z" transform="translate(-41.78 -58.94)"/><rect class="cls-2" x="361.46" y="97.61" width="12.03" height="1.74" transform="translate(76.75 327.22) rotate(-64.13)"/><rect class="cls-2" x="377.9" y="105.58" width="12.03" height="1.75" transform="translate(78.84 346.51) rotate(-64.13)"/><path class="cls-3" d="M370.22,113.76c8.25,4,12,13.39,8.29,21s-13.35,10.48-21.61,6.48-12-13.4-8.29-21S362,109.75,370.22,113.76Z" transform="translate(-41.78 -58.94)"/><path class="cls-1" d="M366.43,122.12a9.3,9.3,0,0,0-4.26,3.32l-6.64-3.22a4.37,4.37,0,0,1,.7-.54,4.5,4.5,0,0,1,4.33-.14,1.21,1.21,0,0,0,1.62-.51,1.14,1.14,0,0,0,.08-.92,1.16,1.16,0,0,0-.59-.71,7,7,0,0,0-6.69.22,6.76,6.76,0,0,0-1.71,1.5l-1.38-.67a1.24,1.24,0,0,0-1.08,2.23l1.26.61a6.76,6.76,0,0,0-.37,2.16,6.37,6.37,0,0,0,2.11,4.63,5.28,5.28,0,0,0,4.07,1.44,7.79,7.79,0,0,0,4.9-3l8.7,4.22a5.89,5.89,0,0,1-2,1.81,3.45,3.45,0,0,1-3.08.21,2.53,2.53,0,0,1-1.37-1.51,1.17,1.17,0,0,0-.59-.7,1.18,1.18,0,0,0-.92-.08,1.21,1.21,0,0,0-.78,1.51,4.93,4.93,0,0,0,2.7,3,5.85,5.85,0,0,0,5.19-.3,8.35,8.35,0,0,0,3-2.88l1.58.77a1.23,1.23,0,0,0,1.08-2.22l-1.65-.8c0-.19.1-.37.13-.55a8.34,8.34,0,0,0-1.64-6.68A6.52,6.52,0,0,0,366.43,122.12Zm-2,4.4a6.43,6.43,0,0,1,2.73-2.1,4.08,4.08,0,0,1,4.16,1.39,5.87,5.87,0,0,1,1.13,4.61Zm-6.77,2.6a2.88,2.88,0,0,1-2.21-.82,4,4,0,0,1-1.32-2.85,4.22,4.22,0,0,1,.15-1.1l6.26,3A4.82,4.82,0,0,1,357.64,129.12Z" transform="translate(-41.78 -58.94)"/><rect class="cls-1" x="349.39" y="107.5" width="54.87" height="96.05" transform="translate(282.11 -307.62) rotate(60.11)"/><path class="cls-2" d="M351.2,197.21l-23.29-40.52,74.54-42.84,23.28,40.52Zm-19.29-39.48,20.4,35.5,69.42-39.9-20.4-35.5Z" transform="translate(-41.78 -58.94)"/><path class="cls-2" d="M348.09,188.25s5.4-2.86,11.14,2.9L352,194.66Z" transform="translate(-41.78 -58.94)"/><path class="cls-2" d="M419.58,147.08s-5.19,3.23-3.11,11.09l6.67-4.47Z" transform="translate(-41.78 -58.94)"/><path class="cls-2" d="M337.16,153.39s2.8,5.3-3.11,11.08l-3.42-7.09Z" transform="translate(-41.78 -58.94)"/><path class="cls-2" d="M356.49,167.22a4.35,4.35,0,1,1-5.91-1.54A4.31,4.31,0,0,1,356.49,167.22Z" transform="translate(-41.78 -58.94)"/><rect class="cls-2" x="342.15" y="160.59" width="12.03" height="1.74" transform="translate(-75.93 136.03) rotate(-29.89)"/><rect class="cls-2" x="351.25" y="176.43" width="12.03" height="1.74" transform="translate(-82.61 142.66) rotate(-29.89)"/><path class="cls-2" d="M404.71,139.5A4.36,4.36,0,1,1,398.8,138,4.32,4.32,0,0,1,404.71,139.5Z" transform="translate(-41.78 -58.94)"/><rect class="cls-2" x="390.37" y="132.88" width="12.03" height="1.74" transform="translate(-55.71 156.37) rotate(-29.89)"/><rect class="cls-2" x="399.47" y="148.72" width="12.03" height="1.75" transform="translate(-62.39 163.02) rotate(-29.89)"/><path class="cls-3" d="M390.05,147.92c4.57,8,2.36,17.81-4.95,22s-16.93,1.16-21.51-6.8-2.35-17.81,5-22S385.48,140,390.05,147.92Z" transform="translate(-41.78 -58.94)"/><path class="cls-1" d="M382.21,152.71a9.29,9.29,0,0,0-5.39.34l-3.67-6.39a4.44,4.44,0,0,1,.88-.06,4.51,4.51,0,0,1,3.66,2.32,1.19,1.19,0,0,0,1.63.49,1.14,1.14,0,0,0,.58-.71,1.18,1.18,0,0,0-.09-.92,7,7,0,0,0-5.65-3.58,6.5,6.5,0,0,0-2.26.28l-.77-1.33a1.23,1.23,0,1,0-2.14,1.23l.7,1.21a6.55,6.55,0,0,0-1.53,1.58,6.38,6.38,0,0,0-.86,5,5.24,5.24,0,0,0,2.56,3.47,7.8,7.8,0,0,0,5.76.25l4.82,8.38a5.9,5.9,0,0,1-2.64.4,3.5,3.5,0,0,1-2.67-1.56,2.52,2.52,0,0,1-.28-2,1.21,1.21,0,0,0-.81-1.5,1.22,1.22,0,0,0-1.5.81,5,5,0,0,0,.55,4,5.84,5.84,0,0,0,4.46,2.66,8.26,8.26,0,0,0,4.09-.69l.88,1.52a1.23,1.23,0,0,0,2.14-1.23l-.92-1.59a3.76,3.76,0,0,0,.41-.38,8.32,8.32,0,0,0,2.41-6.45A6.52,6.52,0,0,0,382.21,152.71Zm-4.15,2.5a6.31,6.31,0,0,1,3.45-.2,4.05,4.05,0,0,1,2.65,3.49,5.86,5.86,0,0,1-1.65,4.44ZM371,153.55a2.91,2.91,0,0,1-1.37-1.93,4,4,0,0,1,.51-3.1,4.8,4.8,0,0,1,.75-.82l3.47,6A4.82,4.82,0,0,1,371,153.55Z" transform="translate(-41.78 -58.94)"/><path class="cls-4" d="M391.43,236.45a17.83,17.83,0,1,1,17.83-17.83A17.84,17.84,0,0,1,391.43,236.45Zm0-26.26a8.43,8.43,0,1,0,8.43,8.43A8.44,8.44,0,0,0,391.43,210.19Z" transform="translate(-41.78 -58.94)"/><path class="cls-4" d="M242.85,122.41a9.33,9.33,0,1,1,9.33-9.33A9.34,9.34,0,0,1,242.85,122.41Zm0-14.43a5.11,5.11,0,1,0,5.11,5.1A5.11,5.11,0,0,0,242.85,108Z" transform="translate(-41.78 -58.94)"/><path class="cls-5" d="M196,277.8l-25.52-16.35,21-28.46Zm-19.45-17.48L191,269.53l-2.56-25.22Z" transform="translate(-41.78 -58.94)"/><path class="cls-5" d="M394.09,301.23,371.91,291l14.76-16.09Zm-15.16-11.66,8.61,4-2.88-10.23Z" transform="translate(-41.78 -58.94)"/><path class="cls-5" d="M270.12,98.31,233,78.18l54.54-19.24ZM243.34,79l24.77,13.42L279.7,66.17Z" transform="translate(-41.78 -58.94)"/><circle class="cls-6" cx="451.77" cy="130.97" r="24.61"/><path class="cls-7" d="M491.19,202a3.05,3.05,0,0,1-2.1-.84l-10.36-9.79a2.82,2.82,0,1,1,3.87-4.1l8.35,7.89,13.29-16.24a2.82,2.82,0,1,1,4.37,3.57l-15.05,18.39a3.08,3.08,0,0,1-2.18,1.11Z" transform="translate(-41.78 -58.94)"/><polygon class="cls-6" points="436.45 145.14 421.34 165.08 444.53 150.77 436.45 145.14"/><path class="cls-8" d="M137.1,167.8c-9.7,6.62-29,0-29,0s.88-20.39,10.58-27,19.45-4.42,24.54,3S146.79,161.18,137.1,167.8Z" transform="translate(-41.78 -58.94)"/><path class="cls-9" d="M138.38,161c-6.8,4.63-20.32,0-20.32,0s.62-14.28,7.41-18.92,13.62-3.1,17.19,2.12S145.17,156.36,138.38,161Z" transform="translate(-41.78 -58.94)"/><polygon class="cls-10" points="95.83 55.18 83.32 48.66 62.28 53.84 75.17 59.73 84.86 71.66 95.83 55.18"/><polygon class="cls-9" points="95.59 55.03 75.17 59.73 84.53 71.24 86.97 70.28 95.59 55.03"/><polygon class="cls-10" points="127.07 100.94 128.58 114.97 116.09 132.67 115.3 118.52 107.72 105.15 127.07 100.94"/><polygon class="cls-9" points="127.12 101.21 115.3 118.52 107.99 105.61 109.78 103.69 127.12 101.21"/><path class="cls-11" d="M139.54,146.54,209.25,99c-12-12-44.41-5.29-62.74,7.22a52,52,0,0,0-19,22.81Z" transform="translate(-41.78 -58.94)"/><path class="cls-12" d="M151.44,164.06a52,52,0,0,0,28-9.36c18.33-12.51,36.33-40.25,29.58-55.8L139.4,146.42Z" transform="translate(-41.78 -58.94)"/><path class="cls-10" d="M190.73,111.43,178.57,93.62s22-4.84,30.88,5Z" transform="translate(-41.78 -58.94)"/><path class="cls-9" d="M190.71,111.4l12.17,17.83s12.47-18.77,6.55-30.62Z" transform="translate(-41.78 -58.94)"/><path class="cls-9" d="M178.19,93.88a.47.47,0,0,1,.12-.64.46.46,0,0,1,.64.12L203.26,129a.45.45,0,1,1-.75.51Z" transform="translate(-41.78 -58.94)"/><circle class="cls-12" cx="169.57" cy="125.93" r="16.38" transform="translate(-68.9 143.98) rotate(-57.98)"/><path class="cls-11" d="M177.3,137.26a13.71,13.71,0,1,1,3.59-19.06A13.71,13.71,0,0,1,177.3,137.26Z" transform="translate(-41.78 -58.94)"/><circle class="cls-4" cx="169.57" cy="125.93" r="11.84" transform="translate(-67.31 -13.92) rotate(-14.08)"/><rect class="cls-13" x="116.33" y="145.5" width="42.5" height="4.7" transform="translate(140.34 -108.08) rotate(55.68)"/><rect class="cls-10" x="122.9" y="146.04" width="27.91" height="4.45" rx="1.72" transform="translate(-101.55 44.03) rotate(-34.32)"/><path class="cls-14" d="M419.52,441s-12.54,2.74-7.69,6.37,25.05.26,25.47-1.44a8.1,8.1,0,0,0-1.61-7.36Z" transform="translate(-41.78 -58.94)"/><path class="cls-15" d="M427.74,433.43s.91,5.42-2.76,6-9.58,2.62-4.81,3.38,15.5,2.29,16.23-2.2a96.22,96.22,0,0,0,.9-10.49Z" transform="translate(-41.78 -58.94)"/><path class="cls-16" d="M427.47,442.71s-12.53,2.74-7.69,6.38,25.05.25,25.47-1.44a8.1,8.1,0,0,0-1.6-7.36Z" transform="translate(-41.78 -58.94)"/><path class="cls-17" d="M435.69,435.12s.92,5.42-2.76,6-9.57,2.62-4.8,3.39,15.49,2.28,16.22-2.2a96.51,96.51,0,0,0,.9-10.5Z" transform="translate(-41.78 -58.94)"/><path class="cls-18" d="M456.7,286.51a5.1,5.1,0,0,0-1.63-2.28,5.31,5.31,0,0,0-3.16-.55q-10.7.42-21.38,1.41c-3.2.29-6.4.66-9.61.92-2.52.2-3.47,3-4.61,4.9A181.74,181.74,0,0,0,395.14,345c-.16.75-.31,1.49-.46,2.23-.83,4.12-1.52,8.33-1,12.5a41.4,41.4,0,0,0,2.21,8.36A407.67,407.67,0,0,0,423.75,431a5.79,5.79,0,0,0,1.8,2.25,5.69,5.69,0,0,0,1.94.64l14.77,3c1.08.22,2.35.39,3.16-.36a3.49,3.49,0,0,0,.85-1.73C450,421.15,452,407.07,454,393.05l5.82-41.6C462.83,329.69,465.7,306.56,456.7,286.51Zm-32.93,84.15c-1.3-2.74-2.64-5.61-2.59-8.64.05-3.71,2-7.67,3.85-10.82.74-1.29,4.15-7,5.08-8.3.78-1.07.53,9.49.56,10.69,0,2.09.07,4.18.11,6.26l.24,12.52.26,14Q427.53,378.54,423.77,370.66Z" transform="translate(-41.78 -58.94)"/><path class="cls-19" d="M430.14,342.3h0a.17.17,0,0,1-.16-.19c.38-6.17.52-12.45.41-18.64a23.46,23.46,0,0,0-.75-6.55,8.34,8.34,0,0,0-3.84-5.08.17.17,0,1,1,.16-.3,8.66,8.66,0,0,1,4,5.28,23.79,23.79,0,0,1,.78,6.65c.1,6.2,0,12.48-.42,18.66A.18.18,0,0,1,430.14,342.3Z" transform="translate(-41.78 -58.94)"/><path class="cls-19" d="M434.85,435.73a.17.17,0,0,1-.17-.16l-3.84-50.42a.17.17,0,0,1,.34,0L435,435.55a.17.17,0,0,1-.15.18Z" transform="translate(-41.78 -58.94)"/><path class="cls-19" d="M444.35,436.75h0a.18.18,0,0,1-.17-.18l1.25-30.46c.33-7.92.7-16.89,4.93-24.33.09-.15.17-.3.26-.44a8.74,8.74,0,0,0,1.24-2.88,8.59,8.59,0,0,0-.29-3.14c-.09-.43-.19-.87-.26-1.31a22.26,22.26,0,0,1,.73-8l0-.17c1.76-8.23,3.22-16.63,4.34-25,1-7.8,1.87-16.76-1.44-24.5-.59-1.38-1.32-2.72-2-4a47.1,47.1,0,0,1-2.17-4.39c-1-2.45-1.91-6.05-.51-9.28a16.1,16.1,0,0,1,1.87-3,22.37,22.37,0,0,0,1.44-2.15c1-1.72,1.33-4.1,0-5.54a.17.17,0,0,1,.25-.23c1.43,1.57,1,4.11,0,5.93a22.16,22.16,0,0,1-1.47,2.2,15.89,15.89,0,0,0-1.83,2.94c-1.35,3.12-.46,6.62.52,9a47.67,47.67,0,0,0,2.15,4.36c.71,1.31,1.44,2.66,2,4.06,3.35,7.81,2.51,16.83,1.47,24.67-1.12,8.36-2.58,16.77-4.35,25l0,.17a21.89,21.89,0,0,0-.73,7.86c.07.43.16.86.25,1.28a8.87,8.87,0,0,1,.3,3.28,9.11,9.11,0,0,1-1.28,3l-.26.44c-4.19,7.36-4.56,16.3-4.88,24.18l-1.26,30.45A.18.18,0,0,1,444.35,436.75Z" transform="translate(-41.78 -58.94)"/><path class="cls-16" d="M418.66,278.76c-.19.55-1.92,7.33-.91,8.16s17.6,4.9,38.53-1.31v-9.45Z" transform="translate(-41.78 -58.94)"/><path class="cls-8" d="M455.42,229.18c6.61,2.83,12.16,7.74,16.69,13.32s8.12,11.86,11.7,18.1c2.53,4.42,5.14,9.17,4.86,14.26-.26,4.8-3.13,9.13-6.69,12.35-3,2.74-6.41,5.1-9.65,7.61a30,30,0,0,1-8.3-10.19,41.08,41.08,0,0,0,5.83-5.59,2.83,2.83,0,0,0,.88-1.8c0-.68-.51-1.31-.4-2,.14-.85,1.14-1.29,1.46-2.08.5-1.27-.89-2.43-2.08-3.09-2.56-1.41-3.89-4.44-5.45-6.91a15.19,15.19,0,0,1-.19,10,7.66,7.66,0,0,1-2.89,3.93,9.77,9.77,0,0,1-4,1.13,126.3,126.3,0,0,1-16.94,1c-2.52.26-5,.54-7.57.75-6.09.51-12.61.81-17.91-2.24a6.39,6.39,0,0,1-1.85-1.49,6,6,0,0,1-1.07-2.76,12.28,12.28,0,0,1,.13-4.64c.25-.1.17-.61-.1-.68a1,1,0,0,0-.74.24c-1.9,1.28-3.7,2.78-5.85,3.57s-4.82.71-6.44-.91-1.69-3.79-1.8-5.88c-.08-1.34-.16-2.68-.23-4-.11-1.88-.16-3.94,1-5.42a13.12,13.12,0,0,1,2.09-1.84,19.35,19.35,0,0,0,2.89-3.36A161.87,161.87,0,0,1,414,237.07a16.54,16.54,0,0,1,5.65-4.48c4.1-1.67,8.75-.08,13.16-.38a30.68,30.68,0,0,0,6.13-1.29l7.93-2.24c1.95-.56,3.87-.13,5.89.07A14.76,14.76,0,0,1,455.42,229.18Z" transform="translate(-41.78 -58.94)"/><path class="cls-20" d="M435.23,252.69l-7.28-7.6c-1.15-1.2-2.29-2.39-3.33-3.68a56.92,56.92,0,0,1-5.39-8.68,9.88,9.88,0,0,1,5.14-3.19,9.75,9.75,0,0,1,3-.29,3.16,3.16,0,0,1,.76.07c.34.11.31.26.4.62s.25,1,.37,1.47c1.09,4.28,2.48,8.49,3.75,12.72l1.29,4.28.66,2.18.32,1C435,251.9,435.05,252.51,435.23,252.69Z" transform="translate(-41.78 -58.94)"/><path class="cls-21" d="M452.74,190.87a8.49,8.49,0,0,1,4.83,3.91,8.17,8.17,0,0,1,.72,6.16c-.36,1.26-1,2.58-.57,3.8.38,1,1.36,1.53,2.06,2.31a4.54,4.54,0,0,1,.68,4.93c-.6,1.24-1.77,2.16-2.24,3.46a3.71,3.71,0,0,0,.48,3.4c.37.49.87,1.14.49,1.62a1.14,1.14,0,0,1-.67.34,34.74,34.74,0,0,1-5.38.91c-2.18.2-4.38.19-6.58.19-7.07,0-14.39-.09-20.82-3a1.27,1.27,0,0,1-.62-.44,1.4,1.4,0,0,1-.16-.71c-.11-2.35-.21-4.69-.32-7a10.87,10.87,0,0,1,.2-3.37c.67-2.41,2.91-4.1,3.69-6.47a27.69,27.69,0,0,0,.61-3.53A9.88,9.88,0,0,1,442,189.77a7.68,7.68,0,0,1,1.64.71,3.14,3.14,0,0,0,1.05.56,5.73,5.73,0,0,0,1.73-.27c.66-.12,1.32-.22,2-.28A11.15,11.15,0,0,1,452.74,190.87Z" transform="translate(-41.78 -58.94)"/><path class="cls-17" d="M434.23,197.51a20.68,20.68,0,0,0-3.84,17.6,5.21,5.21,0,0,0,1.64,3,4.7,4.7,0,0,0,3.87.53,10.3,10.3,0,0,1-.72,3.49,3.54,3.54,0,0,1-2.64,2.17c-.31,0-.67,0-.87.28a.92.92,0,0,0-.19.49,16.54,16.54,0,0,0-.27,3,14,14,0,0,1-.21,3.61c-.36,1.31-1.28,2.58-.94,3.9,1.42,5.58,2.43,11.23,5.13,16.32a16.65,16.65,0,0,0,2.22-3.95c3.45-7.29,9-13.55,11.46-21.24a.86.86,0,0,0-.41-1.25L446.25,224a3.32,3.32,0,0,1-1.44-1.48,3.35,3.35,0,0,1-.12-1.09,49.28,49.28,0,0,1,.44-6.07,2.82,2.82,0,0,1,.67-1.75c.57-.53,1.45-.52,2.16-.82a4.7,4.7,0,0,0,2.21-2.88c.31-.8.51-1.87-.18-2.39a1.75,1.75,0,0,0-1.74,0,6.42,6.42,0,0,1-1.68.74c-.6.09-1.34-.26-1.37-.87a1.51,1.51,0,0,1,.21-.74c.55-1.16.52-1.91,1.07-3.06,1-2,.33-4.6-1-6.42a6.45,6.45,0,0,0-5.8-2.69A8.15,8.15,0,0,0,434.23,197.51Z" transform="translate(-41.78 -58.94)"/><path class="cls-17" d="M421.37,253.82q2.91-7,5.83-14.09a25.09,25.09,0,0,1,1.6-3.4c.85-1.4,2-2.66,2.43-4.25.56-2.1-.22-4.51.85-6.41a19.12,19.12,0,0,0,1.05-1.65c.65-1.5-.22-3.28-1.49-4.31a1.82,1.82,0,0,0-1.8-2.21,1.62,1.62,0,0,0-1.93-1,4.59,4.59,0,0,0-2,1.25,6.29,6.29,0,0,1,1-4,18.07,18.07,0,0,1,2.6-3.26c.4-.43.83-1,.57-1.55a1,1,0,0,0-1.11-.45,3.06,3.06,0,0,0-1.13.62c-1,.74-1.92,1.49-2.84,2.29a8.68,8.68,0,0,0-1.74,1.89,10.31,10.31,0,0,0-1.08,2.69,20.84,20.84,0,0,0-1.28,7.58c.18,2.21,1.06,4.35.94,6.56a14.7,14.7,0,0,1-1.61,5.16.57.57,0,0,0,.16-.51c-2.91,4.42-5.08,9.93-8.83,13.67A37.33,37.33,0,0,0,421.37,253.82Z" transform="translate(-41.78 -58.94)"/><path class="cls-17" d="M458.09,296.5a8.56,8.56,0,0,1-3.28,2.32,11.7,11.7,0,0,1-4.26.18,5.94,5.94,0,0,0-4.08.93,9.22,9.22,0,0,0-1.85,2.57,12.2,12.2,0,0,1-2.12,2.58,16.71,16.71,0,0,0-1.78,1.69A3,3,0,0,0,440,309a1.1,1.1,0,0,0,.26.58.94.94,0,0,0,1,.1,3.22,3.22,0,0,0,.86-.7,8.29,8.29,0,0,1,3.6-2.23,5,5,0,0,1,4.1.6,6.41,6.41,0,0,1,1.75,2.05,29.14,29.14,0,0,1,2.39,5.84c3.84-2,6.12-6,8.49-9.58a82.17,82.17,0,0,1,9.16-11.54,35.42,35.42,0,0,1-2.81-3c-.44-.54-.85-1.1-1.24-1.68s-1.9-2.55-1.9-2.55a3.48,3.48,0,0,1-.49.86c-.43.56-.79,1.19-1.2,1.77-.83,1.16-1.71,2.3-2.62,3.39s-1.88,2.16-2.89,3.18C458.35,296.25,458.22,296.38,458.09,296.5Z" transform="translate(-41.78 -58.94)"/><path class="cls-15" d="M435.73,219.11a.22.22,0,0,1-.22-.18.22.22,0,0,1,.17-.27c.34-.08.75-.14,1.19-.2a10.47,10.47,0,0,0,1.73-.33,9.42,9.42,0,0,0,4.92-3.84.22.22,0,0,1,.31-.07.23.23,0,0,1,.08.31,9.88,9.88,0,0,1-5.15,4,10.15,10.15,0,0,1-1.82.35c-.44.06-.84.12-1.16.19Z" transform="translate(-41.78 -58.94)"/><path class="cls-15" d="M424.29,218.82a.26.26,0,0,1-.19-.1.23.23,0,0,1,.06-.32,19.11,19.11,0,0,1,2.65-1.58,3.9,3.9,0,0,1,1.65-.51,1.68,1.68,0,0,1,1.57.9.23.23,0,1,1-.42.18,1.22,1.22,0,0,0-1.14-.62,3.52,3.52,0,0,0-1.46.46,17.92,17.92,0,0,0-2.59,1.55A.33.33,0,0,1,424.29,218.82Z" transform="translate(-41.78 -58.94)"/><path class="cls-15" d="M426.6,219.83a.23.23,0,0,1-.17-.07.22.22,0,0,1,0-.32,11.25,11.25,0,0,1,2-1.49,3.92,3.92,0,0,1,1.29-.52,1.76,1.76,0,0,1,1.42.33,2.2,2.2,0,0,1,.66,1.54.23.23,0,0,1-.21.25.23.23,0,0,1-.25-.2,1.77,1.77,0,0,0-.5-1.24,1.3,1.3,0,0,0-1.05-.23,3.54,3.54,0,0,0-1.13.46,11.76,11.76,0,0,0-1.93,1.43A.25.25,0,0,1,426.6,219.83Z" transform="translate(-41.78 -58.94)"/><path class="cls-15" d="M429.4,235.63a.23.23,0,0,1-.17-.08.22.22,0,0,1,0-.32,7.1,7.1,0,0,0,1.92-4.61c0-.42.08-.84.11-1.26l0-.47c.05-.74.1-1.5.21-2.24l0-.22a3.74,3.74,0,0,1,.22-1,.76.76,0,0,1,.31-.33l.18-.08.11-.05a1.39,1.39,0,0,0,.64-.72,3.9,3.9,0,0,0-.16-3c-.32-.88-.72-1.37-1.24-1.49a1.66,1.66,0,0,0-.67,0,7.94,7.94,0,0,0-3,1.55.21.21,0,0,1-.31,0,.23.23,0,0,1,.05-.32,8.12,8.12,0,0,1,3.22-1.63,2,2,0,0,1,.85,0c.67.16,1.18.74,1.56,1.78a4.35,4.35,0,0,1,.15,3.32,2,2,0,0,1-.86,1l-.14,0-.13.06a.25.25,0,0,0-.11.12,3.12,3.12,0,0,0-.19.85l0,.23c-.1.73-.15,1.48-.2,2.21l0,.47c0,.43-.07.86-.12,1.28a7.54,7.54,0,0,1-2.06,4.9A.22.22,0,0,1,429.4,235.63Z" transform="translate(-41.78 -58.94)"/><path class="cls-15" d="M433.25,211.54h-.06a.23.23,0,0,1-.16-.28,1,1,0,0,0-.19-.89.93.93,0,0,0-.13-.15,1.1,1.1,0,0,1-.35-.63c-.05-.4.27-.7.5-.92a4.88,4.88,0,0,0,1.42-2.68.23.23,0,1,1,.45.07,5.27,5.27,0,0,1-1.54,2.92c-.2.19-.4.38-.38.56a.75.75,0,0,0,.24.37l.15.17a1.53,1.53,0,0,1,.27,1.29A.22.22,0,0,1,433.25,211.54Z" transform="translate(-41.78 -58.94)"/><path class="cls-15" d="M433.54,213.46a.23.23,0,0,1,0-.45,3.45,3.45,0,0,0,2.75-1.65.23.23,0,1,1,.39.23,3.87,3.87,0,0,1-3.12,1.87Z" transform="translate(-41.78 -58.94)"/><path class="cls-15" d="M435.73,214.44a.23.23,0,0,1-.14-.41l.43-.35a.23.23,0,0,1,.29.36l-.44.35A.24.24,0,0,1,435.73,214.44Z" transform="translate(-41.78 -58.94)"/><path class="cls-15" d="M447.92,209.41a1,1,0,0,1,.25-.3.85.85,0,0,1,.49-.14.59.59,0,0,1,.3,0c.25.09.32.42.29.68a1.69,1.69,0,0,1-.55,1,1.66,1.66,0,0,1-1.09.42A1,1,0,0,1,447,211a.35.35,0,0,1-.15-.35c.05-.15.22-.21.35-.28a1.24,1.24,0,0,0,.23-.17,1.12,1.12,0,0,0,.19-.24C447.7,209.75,447.81,209.58,447.92,209.41Z" transform="translate(-41.78 -58.94)"/><path class="cls-21" d="M439.41,206.58c-.2.65-.68,1.08-1.07,1s-.53-.75-.33-1.4.68-1.09,1.07-1S439.61,205.92,439.41,206.58Z" transform="translate(-41.78 -58.94)"/><path class="cls-21" d="M432.7,205.8c-.19.59-.62,1-1,.87s-.48-.67-.3-1.26.61-1,1-.87S432.88,205.22,432.7,205.8Z" transform="translate(-41.78 -58.94)"/><path class="cls-21" d="M442.19,205c-.31.43-.87-.11-1.76-1.29s-2.37-1.08-2.05-1.51a1.53,1.53,0,0,1,2.24-.26C441.67,202.66,442.5,204.53,442.19,205Z" transform="translate(-41.78 -58.94)"/><path class="cls-21" d="M432.12,201.89c-.08.53.34.49,1.13.17s1.23.73,1.31.19.06-1.58-.62-1.68A2.13,2.13,0,0,0,432.12,201.89Z" transform="translate(-41.78 -58.94)"/><path class="cls-22" d="M456.17,219.43l-.08,0c-1.36-.75-1.55-2.64-1-4a11.5,11.5,0,0,1,1.24-2.26,17.23,17.23,0,0,0,.89-1.49c.59-1.17.9-2.8,0-3.86a4.35,4.35,0,0,0-1.11-.85,4.53,4.53,0,0,1-1.31-1.08,3.4,3.4,0,0,1-.17-3.07c.16-.43.36-.86.55-1.26a11.86,11.86,0,0,0,.63-1.52,6.15,6.15,0,0,0-2.94-6.79,8.42,8.42,0,0,0-7.72-.09.17.17,0,0,1-.23-.09.17.17,0,0,1,.08-.22,8.75,8.75,0,0,1,8,.11,6.5,6.5,0,0,1,3.1,7.18,11.92,11.92,0,0,1-.65,1.56c-.19.4-.39.82-.54,1.23a3.06,3.06,0,0,0,.13,2.76,4.14,4.14,0,0,0,1.22,1,4.76,4.76,0,0,1,1.18.92c1,1.19.71,3,.07,4.23a16.75,16.75,0,0,1-.92,1.53,11,11,0,0,0-1.19,2.18c-.46,1.27-.31,3,.88,3.62a.16.16,0,0,1,.07.23A.16.16,0,0,1,456.17,219.43Z" transform="translate(-41.78 -58.94)"/><path class="cls-22" d="M451.33,219.87a.2.2,0,0,1-.14-.06,4.65,4.65,0,0,1-.6-4.87A9.23,9.23,0,0,1,452,213a10.69,10.69,0,0,0,.69-.82,3.52,3.52,0,0,0,.91-3,4.63,4.63,0,0,0-1.66-2,4.14,4.14,0,0,1-1.78-2.46,4.09,4.09,0,0,1,.48-2.13c.12-.3.25-.61.34-.91a5.1,5.1,0,0,0-1.22-4.76,7.65,7.65,0,0,0-4.55-2.27.18.18,0,0,1-.14-.2.16.16,0,0,1,.19-.14,8,8,0,0,1,4.76,2.38,5.48,5.48,0,0,1,1.29,5.09,8.26,8.26,0,0,1-.36.94,3.82,3.82,0,0,0-.45,2,3.89,3.89,0,0,0,1.66,2.24,4.76,4.76,0,0,1,1.77,2.21,3.86,3.86,0,0,1-1,3.28c-.22.28-.46.56-.7.83a8.76,8.76,0,0,0-1.33,1.82,4.26,4.26,0,0,0,.56,4.5.17.17,0,0,1,0,.24A.17.17,0,0,1,451.33,219.87Z" transform="translate(-41.78 -58.94)"/><path class="cls-22" d="M425.91,209.4a.17.17,0,0,1-.18-.15,5.91,5.91,0,0,1,1.52-4c.2-.27.41-.53.62-.79a10.83,10.83,0,0,0,1.75-2.71,10.49,10.49,0,0,0,.56-2.48,11.18,11.18,0,0,1,.62-2.66c1.12-2.66,4.07-3.94,6.35-4.54s4.11-.49,5.34.41a.19.19,0,0,1,0,.24.18.18,0,0,1-.24,0c-1.15-.84-2.8-1-5.05-.36s-5.06,1.81-6.12,4.34a10.76,10.76,0,0,0-.6,2.58,10.9,10.9,0,0,1-.58,2.56,11.39,11.39,0,0,1-1.8,2.79c-.21.26-.42.52-.61.78a5.51,5.51,0,0,0-1.45,3.8.18.18,0,0,1-.16.18Z" transform="translate(-41.78 -58.94)"/><path class="cls-20" d="M437.12,234.13a3.08,3.08,0,0,1-.75-.09c-3.52-.94-3.94-8.27-4-8.58a.18.18,0,0,1,.16-.18.17.17,0,0,1,.18.16c0,.08.43,7.39,3.71,8.27,2.49.66,6-2.47,10.41-9.3a.17.17,0,0,1,.23,0,.18.18,0,0,1,.06.24C443.06,230.93,439.69,234.13,437.12,234.13Z" transform="translate(-41.78 -58.94)"/><path class="cls-20" d="M434.84,253a143.24,143.24,0,0,1,10.87-20.38c1.4-2.17,1.81-4.85,3-7.15a26.28,26.28,0,0,1,7.58,3.6c-1.35,2.51-1.69,5.51-3.34,7.83-1.4,2-3.58,3.23-5.6,4.57A52.17,52.17,0,0,0,434.84,253Z" transform="translate(-41.78 -58.94)"/><path class="cls-20" d="M433.19,280.33a.21.21,0,0,1-.15-.07c-1.28-1.9-.93-4.24-.59-6.49a12.92,12.92,0,0,0,.09-5.1,11.73,11.73,0,0,0-.48-1.37,7.49,7.49,0,0,1-.65-2.33,7.37,7.37,0,0,1,.38-2.35l2.31-8.45c.42-1.56,1-3.06,2.4-3.53a.17.17,0,1,1,.11.33c-1.24.41-1.78,1.83-2.18,3.29l-2.31,8.45a7.14,7.14,0,0,0-.36,2.24,7,7,0,0,0,.62,2.22,13.87,13.87,0,0,1,.5,1.41,13.23,13.23,0,0,1-.09,5.24c-.35,2.29-.67,4.46.54,6.24a.18.18,0,0,1-.05.24Z" transform="translate(-41.78 -58.94)"/><path class="cls-20" d="M456.68,278.12a.16.16,0,0,1-.12,0,.18.18,0,0,1,0-.25c1.71-1.85,3.64-3.94,4.25-6.57a15.67,15.67,0,0,0,.23-3.75c0-.43,0-.85,0-1.28a13.37,13.37,0,0,1,.93-4.52,1.84,1.84,0,0,0,.09-1.27,3.59,3.59,0,0,0-.44-.75l0-.07a7.3,7.3,0,0,1-1.65-4.57,8.84,8.84,0,0,1,.46-2.11A22.79,22.79,0,0,1,469.47,241a.19.19,0,0,1,.24.05.18.18,0,0,1,0,.24,22.41,22.41,0,0,0-9,11.75,8.38,8.38,0,0,0-.45,2,7,7,0,0,0,1.58,4.35l.06.07a3.46,3.46,0,0,1,.48.84,2.15,2.15,0,0,1-.08,1.49,13,13,0,0,0-.92,4.42c0,.42,0,.84,0,1.26a16,16,0,0,1-.24,3.84c-.63,2.71-2.68,4.94-4.33,6.73A.18.18,0,0,1,456.68,278.12Z" transform="translate(-41.78 -58.94)"/><path class="cls-20" d="M477.93,278.93a1.34,1.34,0,0,1-.68-.19,2.46,2.46,0,0,1-.61-.64,3,3,0,0,0-.3-.38,2.51,2.51,0,0,0-2.31-.49l-.34.08a3.62,3.62,0,0,1-.93.15,2.22,2.22,0,0,1-2.16-1.78,1.75,1.75,0,0,1,.14-1.1,2.53,2.53,0,0,1,2-1,15.94,15.94,0,0,1,4.14,0,.17.17,0,0,1,.15.19.19.19,0,0,1-.19.15,15.69,15.69,0,0,0-4.05,0,2.25,2.25,0,0,0-1.74.86,1.51,1.51,0,0,0-.11.88,1.91,1.91,0,0,0,1.81,1.5h0a3.68,3.68,0,0,0,.85-.14l.35-.08a2.87,2.87,0,0,1,2.62.58,2.72,2.72,0,0,1,.34.42,2,2,0,0,0,.51.54c.77.48,1.77-.36,2.3-.9a.17.17,0,0,1,.24,0,.18.18,0,0,1,0,.25A3.1,3.1,0,0,1,477.93,278.93Z" transform="translate(-41.78 -58.94)"/><path class="cls-20" d="M476,291a.21.21,0,0,1-.11,0,25.28,25.28,0,0,1-7.48-10.48.17.17,0,1,1,.32-.12,24.83,24.83,0,0,0,7.38,10.33.18.18,0,0,1,0,.25A.16.16,0,0,1,476,291Z" transform="translate(-41.78 -58.94)"/><path class="cls-20" d="M412.23,268.06a.29.29,0,0,1-.29-.26c0-.2.18-.33.25-.38,4.82-3.22,8-8.43,10.28-12.67A46.34,46.34,0,0,1,412,248.83a2.08,2.08,0,0,0-1.37-.6,1.9,1.9,0,0,0-.93.48,17.64,17.64,0,0,0-3.53,3.79l-.09.13a4.64,4.64,0,0,1-.94,1.09,4.46,4.46,0,0,1-1.79.66,7.31,7.31,0,0,0-.95.23,3.91,3.91,0,0,0-2.56,4,.17.17,0,0,1-.16.19.17.17,0,0,1-.19-.15,4.29,4.29,0,0,1,2.8-4.39,8.44,8.44,0,0,1,1-.25,4.17,4.17,0,0,0,1.65-.59,4.52,4.52,0,0,0,.87-1l.08-.13a18.36,18.36,0,0,1,3.61-3.86,2.3,2.3,0,0,1,1.11-.56,2.43,2.43,0,0,1,1.6.67,46.4,46.4,0,0,0,10.59,6l.18.07-.09.17c-2.28,4.29-5.52,9.63-10.46,12.94a.15.15,0,0,1,.07.14.22.22,0,0,1-.23.23Zm-.1-.23Z" transform="translate(-41.78 -58.94)"/><path class="cls-20" d="M417.75,262.43l-.1,0a53.74,53.74,0,0,1-10.26-9.61.17.17,0,0,1,.26-.22,53.39,53.39,0,0,0,10.2,9.55.16.16,0,0,1,0,.24A.17.17,0,0,1,417.75,262.43Z" transform="translate(-41.78 -58.94)"/><path class="cls-20" d="M417.08,239.75a.19.19,0,0,1-.16-.1,12,12,0,0,0-1.9-3.12.17.17,0,1,1,.26-.22,12.24,12.24,0,0,1,2,3.2.17.17,0,0,1-.09.23Z" transform="translate(-41.78 -58.94)"/><path class="cls-8" d="M435.92,289.33h-7.15a2.08,2.08,0,0,1-2.08-2.08v-5.32a2.09,2.09,0,0,1,2.08-2.09h7.15a2.1,2.1,0,0,1,2.09,2.09v5.32A2.09,2.09,0,0,1,435.92,289.33Zm-7.15-8.57a1.17,1.17,0,0,0-1.17,1.17v5.32a1.17,1.17,0,0,0,1.17,1.17h7.15a1.17,1.17,0,0,0,1.17-1.17v-5.32a1.17,1.17,0,0,0-1.17-1.17Z" transform="translate(-41.78 -58.94)"/><rect class="cls-8" x="390.95" y="225.19" width="8.29" height="0.91"/><path class="cls-23" d="M58.06,447.09a1.67,1.67,0,0,0,.23.94,1.69,1.69,0,0,0,.87.52A30.48,30.48,0,0,0,65.9,450c-.45-.48.28-1.28.93-1.19a4.27,4.27,0,0,1,1.7,1,7.5,7.5,0,0,0,4.35.86l10.55-.07a9,9,0,0,0,4.22-.71,3.1,3.1,0,0,0,1.72-3.56c-.51-1.39-2.17-1.91-3.62-2.25l-5.57-1.31c-2.5-.58-5.19-1.29-6.8-3.29a13.11,13.11,0,0,0-1.53-1.93,5.65,5.65,0,0,0-2.78-1,31.07,31.07,0,0,0-4.52-.36,11.12,11.12,0,0,0-4,.32c-.76.3-1,1-1.21,1.72a30.88,30.88,0,0,0-1,4A24.86,24.86,0,0,0,58.06,447.09Z" transform="translate(-41.78 -58.94)"/><path class="cls-23" d="M100.07,445.14a1.8,1.8,0,0,0,.23.94,1.73,1.73,0,0,0,.88.51,31,31,0,0,0,6.73,1.47c-.45-.49.28-1.29.94-1.2a4.43,4.43,0,0,1,1.69,1,7.5,7.5,0,0,0,4.35.86l10.56-.07a9.13,9.13,0,0,0,4.22-.7,3.12,3.12,0,0,0,1.71-3.57c-.51-1.39-2.17-1.91-3.61-2.25l-5.58-1.31c-2.5-.58-5.19-1.28-6.8-3.29a12.48,12.48,0,0,0-1.53-1.93,5.62,5.62,0,0,0-2.77-1,31.2,31.2,0,0,0-4.53-.36,11.61,11.61,0,0,0-4,.32c-.76.3-1,1-1.21,1.72a30.85,30.85,0,0,0-1,4A24.92,24.92,0,0,0,100.07,445.14Z" transform="translate(-41.78 -58.94)"/><path class="cls-5" d="M76.77,300.34A375.18,375.18,0,0,0,69.34,356c-.14,2.41-.34,5-2,6.83-.67.74-1.62,1.46-1.53,2.44.13,1.43,2.38,2.32,1.86,3.64-.26.67-1.08.87-1.72,1.21-1.7.91-2.24,3.05-2.59,4.94a262,262,0,0,0-3.89,62,27.75,27.75,0,0,0,13.78,1.46q1.91-13.36,4.51-26.62a103.19,103.19,0,0,1,7.37-22.49c3.43-7.67,5.27-16,8-23.92a91.92,91.92,0,0,1,1.09,11.37c.07,1.07.15,2.14.22,3.21.16,2.38.33,4.76.43,7.14.35,8.43-.11,16.88.47,25.3s1.07,16.75,5.33,24c2.71.15,6.44.68,9.15.83a10.32,10.32,0,0,0,5.44-.7c.84-14.41,1.73-28.88,2.57-43.3.55-9.32,1.09-18.66,2.51-27.89,2.26-14.8,1.47-30,1.22-44.93-.12-7.8-.48-15.67-2.5-23.2C105.08,295.31,90.48,296.82,76.77,300.34Z" transform="translate(-41.78 -58.94)"/><path class="cls-24" d="M53.62,272.78,49.45,275a3.41,3.41,0,0,0-1.66,4.09A79.66,79.66,0,0,0,52,289.35,3.42,3.42,0,0,0,56.3,291l3.16-1.29Z" transform="translate(-41.78 -58.94)"/><path class="cls-4" d="M80.37,229c-8,3.26-14.59,9.59-19,17.07a60.94,60.94,0,0,0-7.52,24.66,43.22,43.22,0,0,0,.79,15.55,9.32,9.32,0,0,0,2.41,4.59A8.48,8.48,0,0,0,63,292.69a17.54,17.54,0,0,0,10.26-3.55,3.56,3.56,0,0,0,1,3.74A14.15,14.15,0,0,0,73,297.07a4.77,4.77,0,0,0,1.38,4,6.77,6.77,0,0,0,3.84,1.28,106.77,106.77,0,0,0,35.29-1.82c2.73-.6,5.7-1.5,7.15-3.89,1.19-1.95,1-4.4.86-6.68,4-7.23,3.27-16.21,2.07-24.4,3.56,2.72,7.86,5.59,12.17,4.38,3-.85,5.09-3.46,7-5.93l17.52-22.9a5.71,5.71,0,0,0,1-1.66,3,3,0,0,0-1.69-3.53c-1.59-.61-3.33.29-4.8,1.15-8.77,5.18-17.58,10.37-25.56,16.7-.33-2.77-.8-5.62-1.36-8.36a23.39,23.39,0,0,0-2.18-6.7,17.87,17.87,0,0,0-7.32-6.78,53.19,53.19,0,0,0-9.43-3.61c-3.13-1-6.19-1.62-9.39-2.33a3.55,3.55,0,0,0-2.74.25c-1.09.36-3.31.79-4.36,1.26a10,10,0,0,1-3.08.62C87,228.32,82.63,228.1,80.37,229Z" transform="translate(-41.78 -58.94)"/><path class="cls-25" d="M97.93,188.5a6.3,6.3,0,0,0-2.6-4.31,1.68,1.68,0,0,0-1.59-.23c-.85.44-.57,1.68-1,2.52-.58,1.16-2.35,1.21-3.54.6s-2.08-1.63-3.28-2.2a7.27,7.27,0,0,0-5.69.17,12.77,12.77,0,0,0-7.72,8.9,4.33,4.33,0,0,1-.45,1.37,3.85,3.85,0,0,1-1.17,1c-1.36.86-2.84,1.8-3.32,3.29a6,6,0,0,0-.2,2c0,1.23.1,2.46.23,3.68.23,2.34.72,4.83,2.48,6.46,2.39,2.21,6.36,2.12,8.82,4.26,1,.91,1.81,2.21,3.13,2.7a4.18,4.18,0,0,0,3-.18,8.69,8.69,0,0,0,4.57-5.15,39,39,0,0,0,1.51-6.79,45.13,45.13,0,0,1,1.16-4.72,6.43,6.43,0,0,1,.64-1.64,4.43,4.43,0,0,1,.87-.86,12.32,12.32,0,0,0,2.58-2.91,11.79,11.79,0,0,0,1.49-3.62A11,11,0,0,0,98,189C98,188.82,98,188.66,97.93,188.5Z" transform="translate(-41.78 -58.94)"/><path class="cls-17" d="M88,194c2.46.41,4.3,2.45,5.69,4.51a32.66,32.66,0,0,1,4.61,10.33,10.43,10.43,0,0,1,.41,3.37,6.42,6.42,0,0,1-6,5.7,12.78,12.78,0,0,0,1.24,4.84,6.14,6.14,0,0,0,3.7,3.19A10.45,10.45,0,0,1,92.2,232a11.23,11.23,0,0,1-8,.66,7,7,0,0,1-2.07-.93,9.72,9.72,0,0,1-1.6-1.54l-1-1.08a11.65,11.65,0,0,0,2.94-13.58,3,3,0,0,0-.66-1,4.41,4.41,0,0,0-1.9-.67,6.53,6.53,0,0,1-2.44-1.19,3.28,3.28,0,0,1-1.21-1.64,1.7,1.7,0,0,1,.57-1.85c1.06-.72,2.47.31,3.74.12a2,2,0,0,0,.6-3.67c-2.15-1.1-2.76-4.39-2-6.7a6.26,6.26,0,0,1,1.06-2,8.18,8.18,0,0,1,6.33-3.12A5.49,5.49,0,0,1,88,194Z" transform="translate(-41.78 -58.94)"/><path class="cls-26" d="M106.84,192.92h.09" transform="translate(-41.78 -58.94)"/><path class="cls-15" d="M92.45,218.17a11.76,11.76,0,0,1-8.26-3.43.24.24,0,0,1,0-.33.23.23,0,0,1,.32,0,11.27,11.27,0,0,0,9,3.24.22.22,0,0,1,.25.2.21.21,0,0,1-.2.25A10.51,10.51,0,0,1,92.45,218.17Z" transform="translate(-41.78 -58.94)"/><path class="cls-15" d="M96.07,209.72a.23.23,0,0,1-.18-.09,1.64,1.64,0,0,1-.38-.82.91.91,0,0,1,.4-.91l.1-.06.1-.05s0-.17,0-.25a1,1,0,0,0-.37-.24l-.06,0A5.54,5.54,0,0,1,93,204.54a.23.23,0,0,1,.12-.3.24.24,0,0,1,.3.12,5.14,5.14,0,0,0,2.39,2.5l0,0a1.32,1.32,0,0,1,.53.36.65.65,0,0,1,0,.87.8.8,0,0,1-.21.13l-.07,0a.47.47,0,0,0-.18.47,1.15,1.15,0,0,0,.29.59.23.23,0,0,1,0,.32A.24.24,0,0,1,96.07,209.72Z" transform="translate(-41.78 -58.94)"/><path class="cls-15" d="M78.82,210.46a.92.92,0,0,0-.82-.24.7.7,0,0,0-.39.86,1.4,1.4,0,0,0,.68.76,2.86,2.86,0,0,0,.89.31,1.75,1.75,0,0,0,1-.1,1,1,0,0,0,.51-.49c.07-.14.16-.41,0-.53s-.33-.06-.46-.05a1.7,1.7,0,0,1-.71,0A2.74,2.74,0,0,1,78.82,210.46Z" transform="translate(-41.78 -58.94)"/><path class="cls-25" d="M89.74,205.25c.23.54.15,1.09-.16,1.22s-.76-.19-1-.73-.15-1.09.17-1.22S89.52,204.71,89.74,205.25Z" transform="translate(-41.78 -58.94)"/><path class="cls-25" d="M95.51,203.2c.19.44.13.89-.13,1s-.62-.16-.81-.6-.12-.89.14-1S95.33,202.76,95.51,203.2Z" transform="translate(-41.78 -58.94)"/><path class="cls-25" d="M88.54,201.26c.33.41-.52.5-1.43,1.25s-1.55,1.86-1.88,1.46.27-2,1.18-2.73A1.49,1.49,0,0,1,88.54,201.26Z" transform="translate(-41.78 -58.94)"/><path class="cls-25" d="M92.1,200.07c.14.45.35,0,.91-.23s1.24.06,1.1-.39a1.57,1.57,0,0,0-1.6-.78C92,198.84,92,199.62,92.1,200.07Z" transform="translate(-41.78 -58.94)"/><path class="cls-15" d="M96.27,210.38a1.72,1.72,0,0,1,.48-.17.49.49,0,0,1,.46.17.63.63,0,0,1,.05.43,2.9,2.9,0,0,1-1.4,2.05,3.51,3.51,0,0,1-2.48.41,2.9,2.9,0,0,1-1.6-.86c-.56-.64-.82-2.07.26-2.35.35-.09.67.15,1,.29a3.59,3.59,0,0,0,1.51.35A4,4,0,0,0,96.27,210.38Z" transform="translate(-41.78 -58.94)"/><path class="cls-11" d="M96.53,210.28a.74.74,0,0,1,.63,0,.47.47,0,0,1,.1.57,1.11,1.11,0,0,1-.47.41,4.33,4.33,0,0,1-4.62-.28,2,2,0,0,1-.34-.3.44.44,0,0,1-.12-.45A.43.43,0,0,1,92,210a2.49,2.49,0,0,1,1.24.36,3.1,3.1,0,0,0,.66.19l.61.09a3.77,3.77,0,0,0,.58,0q.36,0,.69-.12l.68-.19Z" transform="translate(-41.78 -58.94)"/><path class="cls-15" d="M93.49,214.63a1.88,1.88,0,0,1-.9-.23.23.23,0,0,1-.09-.31.23.23,0,0,1,.31-.09,1.42,1.42,0,0,0,1.24.06.23.23,0,0,1,.3.11.22.22,0,0,1-.12.3A1.73,1.73,0,0,1,93.49,214.63Z" transform="translate(-41.78 -58.94)"/><path class="cls-27" d="M83.9,231.78a10.69,10.69,0,0,0,7.94-.12,8.81,8.81,0,0,0,3.74-2.43,12,12,0,0,0,1.88-3.68,14.79,14.79,0,0,1,3.78.73.94.94,0,0,1,.47.28.85.85,0,0,1,.09.59,13.58,13.58,0,0,1-4,8,12.94,12.94,0,0,1-5.16,3.42,13.15,13.15,0,0,1-7.9-.12A18.88,18.88,0,0,1,75,231.65a8.42,8.42,0,0,1,.79-.71c.28-.22.57-.44.86-.64a14.18,14.18,0,0,1,1.86-1.06,4.62,4.62,0,0,1,.93-.37.69.69,0,0,1,.66.23c.55.49,1.1,1,1.68,1.42a11.27,11.27,0,0,0,1.84,1.14Z" transform="translate(-41.78 -58.94)"/><path class="cls-27" d="M161.82,238a.58.58,0,0,1,.22.83,5.42,5.42,0,0,1-.76,1.26c-1.14,1.58-2.29,3.17-3.53,4.69a.7.7,0,0,1-.41.31.69.69,0,0,1-.46-.17,7.35,7.35,0,0,1-1-.81,17.92,17.92,0,0,1-1.47-1.77l-2.67-3.57c1.79-.94,3.51-2,5.23-3.07l.54-.34a1.43,1.43,0,0,1,.45-.21c.3,0,.56.22.77.39l2,1.58Z" transform="translate(-41.78 -58.94)"/><path class="cls-27" d="M74.34,292.89a9.33,9.33,0,0,0,4.4,1.63c7.93,1.34,16.05.84,24.08.3a70,70,0,0,0,7.66-.81,35,35,0,0,0,11.12-4,16.5,16.5,0,0,1,0,5,5.72,5.72,0,0,1-2.79,4c-12.85,6.46-28.44,5.45-42.64,3.17a4,4,0,0,1-3-2.62,7.24,7.24,0,0,1-.09-4.1A8.25,8.25,0,0,1,74.34,292.89Z" transform="translate(-41.78 -58.94)"/><path class="cls-27" d="M73.13,289.23a.18.18,0,0,1,0-.35c5.93-.23,11.59-2.28,17.06-4.27a32.83,32.83,0,0,0,3.22-1.3,16,16,0,0,0,7.51-7.73.18.18,0,0,1,.23-.08.17.17,0,0,1,.08.22,16.39,16.39,0,0,1-7.67,7.9,34.48,34.48,0,0,1-3.25,1.31c-5.5,2-11.19,4.06-17.17,4.3Z" transform="translate(-41.78 -58.94)"/><path class="cls-27" d="M62.56,273.26a.18.18,0,0,1-.17-.17,3.06,3.06,0,0,1,1.92-2.57c2.23-1.12,4.84-.85,7.31-.48a.17.17,0,0,1,.15.19.18.18,0,0,1-.2.15c-2.42-.37-5-.63-7.1.45a2.8,2.8,0,0,0-1.74,2.26.17.17,0,0,1-.17.17Z" transform="translate(-41.78 -58.94)"/><path class="cls-25" d="M130.1,253.36A181.77,181.77,0,0,1,148,241.27c2.67-1.58,5.38-3.09,8-4.81,2.16-1.44,4.22-3,6.38-4.46,6-3.95,12.65-6.7,19-10s12.55-7.4,16.66-13.27c.87-1.25,1.53-3.23.26-4.08a2.93,2.93,0,0,0-1.33-.38c-4.93-.47-9.82,1-14.46,2.7-15.17,5.63-29.49,14.52-43.7,22.25-7.18,3.91-13,7.42-20.05,10.6-13.63,6.15-26.25,14.32-39.85,20.53l-.3,8.61a32.81,32.81,0,0,0,8.21-1.24c2.17-.73,4.16-1.9,6.29-2.71a9.57,9.57,0,0,1,6.69-.44c.5.19,1,.45,1.48.62a10.22,10.22,0,0,0,2.05.42c2,.27,4.27.51,6.07-.51C116.34,261.12,123.73,258.23,130.1,253.36Z" transform="translate(-41.78 -58.94)"/><path class="cls-17" d="M109,263.62a20.94,20.94,0,0,0,1.84-3.05c2-3.44,4.91-6.17,7.83-8.84.49-.45,1.22-.93,1.77-.55a1.19,1.19,0,0,1,.39,1.14,6.36,6.36,0,0,1-1.81,3,12.23,12.23,0,0,0-1.52,2.39,2.57,2.57,0,0,0-.35,1.28,1.06,1.06,0,0,0,.75,1,1.54,1.54,0,0,0,.76-.11c4.28-1.44,7.84-4.4,11.64-6.83a1.45,1.45,0,0,1,.76-.31,8.74,8.74,0,0,1-1.24,3.06c-1.81,3.26-3.28,6.83-6,9.36-3,2.76-7.06,3.91-11,5L106,272.05s-.23-2.22-.24-2.43a22.08,22.08,0,0,1,0-2.44,3,3,0,0,1,.32-1.44,2.26,2.26,0,0,1,1.09-.7A4.77,4.77,0,0,0,109,263.62Z" transform="translate(-41.78 -58.94)"/><path class="cls-27" d="M106.58,275.45a8.5,8.5,0,0,1-6.21,1.27,27.15,27.15,0,0,1-.24-5.63l.15-6a.93.93,0,0,1,.19-.65.9.9,0,0,1,.49-.2,14.24,14.24,0,0,1,3.26-.22,14.92,14.92,0,0,1,1.64.16c.16,0,.45,0,.51.21a2,2,0,0,1-.06.69c-.13,1.11-.21,2.21-.24,3.32s0,2.21.07,3.32a33.11,33.11,0,0,0,.37,3.29C106.53,275.18,106.55,275.31,106.58,275.45Z" transform="translate(-41.78 -58.94)"/><path class="cls-27" d="M62.45,280.17a.15.15,0,0,1-.09,0,.17.17,0,0,1-.06-.23c1.66-3,3.54-6.33,6.6-8.37s7-2.47,10.66-2.83a33.85,33.85,0,0,0,7.91-1.43c1-.38,2.06-.87,3-1.34a26,26,0,0,1,3.68-1.55c2.81-.88,5.46-.51,7.08,1a.18.18,0,0,1,0,.25.17.17,0,0,1-.24,0c-1.53-1.41-4.05-1.75-6.75-.91a27.59,27.59,0,0,0-3.63,1.53,31.58,31.58,0,0,1-3.08,1.36,33.52,33.52,0,0,1-8,1.45c-3.83.37-7.45.73-10.51,2.77s-4.85,5.32-6.49,8.26A.19.19,0,0,1,62.45,280.17Z" transform="translate(-41.78 -58.94)"/><path class="cls-27" d="M78.45,269h0a.17.17,0,0,1-.15-.19,55.53,55.53,0,0,0,.31-8.65A27.25,27.25,0,0,0,78,255.3c-1.29-5.72-5.49-11.05-11.83-15a.18.18,0,0,1,0-.24.17.17,0,0,1,.23-.05c6.42,4,10.67,9.41,12,15.22a26.75,26.75,0,0,1,.57,4.89,56.3,56.3,0,0,1-.31,8.71A.16.16,0,0,1,78.45,269Z" transform="translate(-41.78 -58.94)"/><path class="cls-17" d="M157.34,235.52a115.21,115.21,0,0,1,13-8.39,8.29,8.29,0,0,0,1.33-.81,9.15,9.15,0,0,0,1.83-2.22c.74-1.1,1.52-2.16,2.35-3.19a1.49,1.49,0,0,1,.81-.62c.34,0,.74.29.6.61a35.65,35.65,0,0,0-1.72,3.78s0,.13,0,.16.09-.09,0-.08c2.69-1.72,5.37-2.31,8.07-4-.77,2.19-2.33,3.48-3.85,5.22a9.59,9.59,0,0,1-2.22,2.05,13.54,13.54,0,0,1-2.16.87c-2.72,1-5.11,2.76-7.8,3.86a11.7,11.7,0,0,0-2.91,1.41,8.69,8.69,0,0,0-1.92,2.52L162,238.1C160.56,237.19,158.73,236.43,157.34,235.52Z" transform="translate(-41.78 -58.94)"/><path class="cls-24" d="M178.33,208.57s2.15,7.85,5.33,12.15c0,0,16.56-8.19,15.31-15.58C199,205.14,196.29,200.3,178.33,208.57Z" transform="translate(-41.78 -58.94)"/><path class="cls-24" d="M127.44,235.44a54.37,54.37,0,0,0,7.92,14.05l-4.28,3.28s-7.13-9.71-8.34-14.89Z" transform="translate(-41.78 -58.94)"/><path class="cls-24" d="M148.33,221.3a3.9,3.9,0,0,0-2.34.28,123.54,123.54,0,0,0-17.24,8.1l-13.58,7.26c-2.21,1.19-4.43,2.37-6.52,3.76-2.8,1.85-5.36,4-8.17,5.87a39.45,39.45,0,0,1-9.67,4.62c-1.37.44-3,.78-4.14-.05a3.67,3.67,0,0,1-1.34-2.31,3.4,3.4,0,0,1,.64-3.14c.8-.78,2.43-.65,2.76.42.08.22.08.47.14.7a2.45,2.45,0,0,0,2.7,1.58A7.32,7.32,0,0,0,94.65,247a496.71,496.71,0,0,1,49.76-29.09,11.92,11.92,0,0,1,3.47-1.33,6.27,6.27,0,0,1,6.67,3.84,8.46,8.46,0,0,1-1.51.8l-1.54.82c-.52.28-1,.59-1.57.83s-.44-.19-.57-.57A1.6,1.6,0,0,0,148.33,221.3Z" transform="translate(-41.78 -58.94)"/><path class="cls-24" d="M44.42,281.09H52a0,0,0,0,1,0,0v8.37a0,0,0,0,1,0,0H44.42a2,2,0,0,1-2-2v-4.29A2,2,0,0,1,44.42,281.09Z" transform="translate(-145.33 -20.42) rotate(-22.03)"/><path class="cls-28" d="M77,233.79a.17.17,0,0,1-.13,0,.17.17,0,0,1,0-.24c1.2-1.07,2.45-2.14,3.7-3.16a.17.17,0,1,1,.22.26c-1.25,1-2.49,2.09-3.7,3.15A.15.15,0,0,1,77,233.79Z" transform="translate(-41.78 -58.94)"/><path class="cls-28" d="M80,236.3l-.09,0a.16.16,0,0,1-.06-.23,36.82,36.82,0,0,1,2.93-4.1.17.17,0,1,1,.26.22,37.41,37.41,0,0,0-2.9,4.06A.17.17,0,0,1,80,236.3Z" transform="translate(-41.78 -58.94)"/><path class="cls-28" d="M83.78,238.08h0a.17.17,0,0,1-.13-.2c.39-1.67.86-3.35,1.38-5a.18.18,0,0,1,.22-.11.16.16,0,0,1,.11.21c-.53,1.63-1,3.29-1.38,5A.17.17,0,0,1,83.78,238.08Z" transform="translate(-41.78 -58.94)"/><path class="cls-28" d="M88.17,239h0a.18.18,0,0,1-.16-.18c.08-1.84.12-3.71.12-5.56a.17.17,0,0,1,.17-.17h0a.18.18,0,0,1,.17.17c0,1.86,0,3.73-.12,5.58A.17.17,0,0,1,88.17,239Z" transform="translate(-41.78 -58.94)"/><path class="cls-28" d="M93.09,238.35a.17.17,0,0,1-.16-.13l-1.5-5.39a.18.18,0,0,1,.12-.21.17.17,0,0,1,.21.12l1.5,5.39a.17.17,0,0,1-.12.21Z" transform="translate(-41.78 -58.94)"/><path class="cls-28" d="M97.33,235.67a.17.17,0,0,1-.14-.08c-.93-1.41-1.94-2.79-3-4.11a.17.17,0,0,1,0-.24.16.16,0,0,1,.24,0c1.06,1.33,2.08,2.72,3,4.14a.16.16,0,0,1,0,.23A.19.19,0,0,1,97.33,235.67Z" transform="translate(-41.78 -58.94)"/><path class="cls-28" d="M99.76,232.48a.16.16,0,0,1-.12,0l-1.47-1.37a19.71,19.71,0,0,1-1.71-1.71.17.17,0,1,1,.26-.22,19,19,0,0,0,1.68,1.68l1.47,1.37a.17.17,0,0,1,0,.24A.15.15,0,0,1,99.76,232.48Z" transform="translate(-41.78 -58.94)"/><path class="cls-28" d="M101.43,228.61a.13.13,0,0,1-.08,0c-1-.49-2-1-3-1.4a1.94,1.94,0,0,1-1-.66.18.18,0,0,1,.06-.24.16.16,0,0,1,.23.06,1.76,1.76,0,0,0,.79.53c1,.43,2.05.91,3.05,1.41a.17.17,0,0,1-.08.32Z" transform="translate(-41.78 -58.94)"/><path class="cls-28" d="M105.33,266.06h0a11.3,11.3,0,0,0-4.22,0,.17.17,0,0,1-.2-.13.17.17,0,0,1,.14-.2,11.78,11.78,0,0,1,4.35,0,.17.17,0,0,1,0,.34Z" transform="translate(-41.78 -58.94)"/><path class="cls-28" d="M101,268.49h-.35a.17.17,0,0,1-.17-.17.18.18,0,0,1,.17-.17,30.1,30.1,0,0,0,4.65-.3.18.18,0,0,1,.2.15.18.18,0,0,1-.15.19A31.7,31.7,0,0,1,101,268.49Z" transform="translate(-41.78 -58.94)"/><path class="cls-28" d="M100.89,271.29h-.42a.18.18,0,0,1-.17-.17.17.17,0,0,1,.18-.17h0a12.75,12.75,0,0,0,4.8-.61.16.16,0,0,1,.22.09.16.16,0,0,1-.09.22A11.92,11.92,0,0,1,100.89,271.29Z" transform="translate(-41.78 -58.94)"/><path class="cls-28" d="M100.6,274.79a.16.16,0,0,1-.13-.06.17.17,0,0,1,0-.24.64.64,0,0,1,.46-.13,11.56,11.56,0,0,0,4.64-.9.16.16,0,0,1,.22.09.16.16,0,0,1-.09.22,11.84,11.84,0,0,1-4.77.94.33.33,0,0,0-.23,0A.16.16,0,0,1,100.6,274.79Z" transform="translate(-41.78 -58.94)"/><path class="cls-28" d="M153.63,240.55a.19.19,0,0,1-.15-.08.18.18,0,0,1,.06-.24,25.44,25.44,0,0,0,4.22-3.38.17.17,0,0,1,.24.24,24.87,24.87,0,0,1-4.28,3.43Z" transform="translate(-41.78 -58.94)"/><path class="cls-28" d="M155.33,242.78a.16.16,0,0,1-.13-.06.16.16,0,0,1,0-.24,25.45,25.45,0,0,0,4.39-4.41.16.16,0,0,1,.24,0,.18.18,0,0,1,0,.24,25.79,25.79,0,0,1-4.45,4.47A.23.23,0,0,1,155.33,242.78Z" transform="translate(-41.78 -58.94)"/><path class="cls-28" d="M76.42,301.83a.17.17,0,0,1-.14-.08,4.35,4.35,0,0,1-.55-1.59,10.15,10.15,0,0,1,.42-5.21.17.17,0,0,1,.21-.1.18.18,0,0,1,.11.22,9.75,9.75,0,0,0-.4,5,4.06,4.06,0,0,0,.5,1.48.17.17,0,0,1-.06.23Z" transform="translate(-41.78 -58.94)"/><path class="cls-28" d="M79.82,302.4a.17.17,0,0,1-.17-.13,17.76,17.76,0,0,1-.17-6.62.18.18,0,0,1,.2-.14.19.19,0,0,1,.14.2A17.08,17.08,0,0,0,80,302.2a.17.17,0,0,1-.13.2Z" transform="translate(-41.78 -58.94)"/><path class="cls-28" d="M83.86,302.72a.18.18,0,0,1-.17-.14,16.33,16.33,0,0,1-.14-4c0-.82.08-1.66,0-2.49a.18.18,0,0,1,.16-.18.18.18,0,0,1,.18.17c0,.84,0,1.69,0,2.52a15.58,15.58,0,0,0,.14,3.92.17.17,0,0,1-.13.2Z" transform="translate(-41.78 -58.94)"/><path class="cls-28" d="M87.84,303a.16.16,0,0,1-.17-.15,24.27,24.27,0,0,1-.14-6.54.17.17,0,0,1,.19-.15.18.18,0,0,1,.15.19,24,24,0,0,0,.13,6.45.16.16,0,0,1-.14.19Z" transform="translate(-41.78 -58.94)"/><path class="cls-28" d="M91.66,303.24a.17.17,0,0,1-.17-.16L91,296.4a.17.17,0,0,1,.16-.18.18.18,0,0,1,.18.16l.47,6.68a.18.18,0,0,1-.16.18Z" transform="translate(-41.78 -58.94)"/><path class="cls-28" d="M95.66,303.28a.17.17,0,0,1-.17-.17c0-2.21-.08-4.45-.18-6.67a.17.17,0,0,1,.17-.17h0a.18.18,0,0,1,.18.17c.09,2.21.15,4.46.17,6.68a.16.16,0,0,1-.16.17Z" transform="translate(-41.78 -58.94)"/><path class="cls-28" d="M100.06,303.24h0a.19.19,0,0,1-.15-.2,48.35,48.35,0,0,0,.38-6.91.17.17,0,0,1,.16-.18h0a.18.18,0,0,1,.17.17,49.27,49.27,0,0,1-.38,7A.17.17,0,0,1,100.06,303.24Z" transform="translate(-41.78 -58.94)"/><path class="cls-28" d="M104.62,302.66h-.05a.16.16,0,0,1-.11-.21,19.68,19.68,0,0,0,1-6.93.17.17,0,0,1,.16-.18.19.19,0,0,1,.18.17,19.9,19.9,0,0,1-1.06,7.05A.16.16,0,0,1,104.62,302.66Z" transform="translate(-41.78 -58.94)"/><path class="cls-28" d="M109.18,301.85h-.06a.18.18,0,0,1-.1-.22,16.82,16.82,0,0,0,1.21-6.38.18.18,0,0,1,.17-.18c.11,0,.17.08.17.17a17.27,17.27,0,0,1-1.23,6.51A.17.17,0,0,1,109.18,301.85Z" transform="translate(-41.78 -58.94)"/><path class="cls-28" d="M113.34,300.52h-.07a.19.19,0,0,1-.09-.23,14.43,14.43,0,0,0,1.23-6.42.17.17,0,0,1,.17-.17.15.15,0,0,1,.17.16,15,15,0,0,1-1.25,6.57A.16.16,0,0,1,113.34,300.52Z" transform="translate(-41.78 -58.94)"/><path class="cls-28" d="M117.68,298.78l-.08,0a.17.17,0,0,1-.07-.23,12.74,12.74,0,0,0,1.43-6.26V292h.19a.21.21,0,0,1,.19.22.2.2,0,0,1,0,.11,12.85,12.85,0,0,1-1.47,6.38A.18.18,0,0,1,117.68,298.78Zm1.44-6.71Z" transform="translate(-41.78 -58.94)"/><path class="cls-29" d="M93,366.27h0a.18.18,0,0,1-.13-.21l6.75-31.13a46.33,46.33,0,0,1,3-10.14,15.61,15.61,0,0,1,7.17-7.64.18.18,0,0,1,.23.08.17.17,0,0,1-.09.23,15.19,15.19,0,0,0-7,7.48,45.3,45.3,0,0,0-3,10.06l-6.74,31.14A.17.17,0,0,1,93,366.27Z" transform="translate(-41.78 -58.94)"/><path class="cls-29" d="M78.89,322.61c-.24,0-.47,0-.7,0a.17.17,0,0,1-.16-.19.18.18,0,0,1,.19-.15,9,9,0,0,0,3.68-.5,15.89,15.89,0,0,0,8.22-6.7,26.57,26.57,0,0,0,3.6-10.18.17.17,0,1,1,.34.06,27,27,0,0,1-3.65,10.3,16.27,16.27,0,0,1-8.4,6.85A10,10,0,0,1,78.89,322.61Z" transform="translate(-41.78 -58.94)"/><path class="cls-29" d="M62.91,438.44h0a.16.16,0,0,1-.16-.17C63,421.53,64,404.62,65.88,388c.57-5,1.23-9.87,3.07-14.29.13-.32.27-.64.42-1a14.4,14.4,0,0,0,1.27-3.87c0-.38,0-.78.07-1.17a9.54,9.54,0,0,1,.17-1.76,9.31,9.31,0,0,1,.5-1.49c.08-.2.16-.4.23-.6a22,22,0,0,0,1-4.89v0c2.41-18.52,5.44-37.2,9-55.53a.17.17,0,1,1,.33.06c-3.57,18.33-6.61,37-9,55.51V359a23,23,0,0,1-1,5c-.07.2-.15.4-.23.6a9.4,9.4,0,0,0-.49,1.44,9.69,9.69,0,0,0-.16,1.7c0,.4,0,.8-.08,1.2a14.1,14.1,0,0,1-1.29,4l-.42,1c-1.82,4.38-2.48,9.22-3,14.19-1.87,16.62-2.93,33.53-3.14,50.26A.17.17,0,0,1,62.91,438.44Z" transform="translate(-41.78 -58.94)"/><path class="cls-25" d="M198.58,204.73s4.22-1.93.45.86Z" transform="translate(-41.78 -58.94)"/><path class="cls-30" d="M249.42,450.67h0a2.52,2.52,0,0,1-2.51-2.51V338.25h5V448.16A2.51,2.51,0,0,1,249.42,450.67Z" transform="translate(-41.78 -58.94)"/><path class="cls-30" d="M321.41,450.67h0a2.52,2.52,0,0,1-2.51-2.51V338.25h5V448.16A2.51,2.51,0,0,1,321.41,450.67Z" transform="translate(-41.78 -58.94)"/><rect class="cls-30" x="207.1" y="298.67" width="71.59" height="4.18"/><rect class="cls-11" x="168.64" y="84.26" width="150" height="196.5" rx="8.57"/><path class="cls-8" d="M351.84,342.14H219a11,11,0,0,1-11-11V151.77a11,11,0,0,1,11-11H351.84a11,11,0,0,1,11,11V331.13A11,11,0,0,1,351.84,342.14ZM219,145.64a6.14,6.14,0,0,0-6.13,6.13V331.13a6.15,6.15,0,0,0,6.13,6.14H351.84a6.15,6.15,0,0,0,6.14-6.14V151.77a6.15,6.15,0,0,0-6.14-6.13Z" transform="translate(-41.78 -58.94)"/><path class="cls-31" d="M260.6,188.44v-32.8a32.81,32.81,0,0,0-32,25.67Z" transform="translate(-41.78 -58.94)"/><path class="cls-5" d="M259.09,191.65l-31.82-7.09a33.2,33.2,0,0,0-.79,7.09,32.6,32.6,0,0,0,6.16,19.08Z" transform="translate(-41.78 -58.94)"/><path class="cls-8" d="M261,194.87l-26.58,19.42a32.7,32.7,0,0,0,36.73,12.12Z" transform="translate(-41.78 -58.94)"/><path class="cls-4" d="M263.55,160.34h-.2l0,31.42v0l0,0,10.45,32.52a32.8,32.8,0,0,0-10.26-63.95Z" transform="translate(-41.78 -58.94)"/><rect class="cls-31" x="238.06" y="176.56" width="3.8" height="15.92"/><rect class="cls-5" x="248.33" y="168.12" width="3.8" height="24.36"/><rect class="cls-5" x="258.6" y="159.68" width="3.8" height="32.8"/><rect class="cls-31" x="268.86" y="149.56" width="3.8" height="42.92"/><rect class="cls-8" x="279.13" y="159.68" width="3.8" height="32.8"/><rect class="cls-8" x="289.39" y="144.49" width="3.8" height="47.99"/><rect class="cls-31" x="299.66" y="137.74" width="3.8" height="54.74"/><path class="cls-4" d="M260.37,244.36H228a1.47,1.47,0,0,1-1.47-1.46h0a1.47,1.47,0,0,1,1.47-1.47h32.42a1.46,1.46,0,0,1,1.46,1.47h0A1.46,1.46,0,0,1,260.37,244.36Z" transform="translate(-41.78 -58.94)"/><path class="cls-4" d="M245.68,237.3H228a1.47,1.47,0,0,1-1.47-1.47h0a1.47,1.47,0,0,1,1.47-1.46h17.73a1.46,1.46,0,0,1,1.46,1.46h0A1.46,1.46,0,0,1,245.68,237.3Z" transform="translate(-41.78 -58.94)"/><path class="cls-4" d="M269.55,251.42H228a1.47,1.47,0,0,1-1.47-1.46h0a1.47,1.47,0,0,1,1.47-1.47h41.6A1.47,1.47,0,0,1,271,250h0A1.47,1.47,0,0,1,269.55,251.42Z" transform="translate(-41.78 -58.94)"/><rect class="cls-32" x="184.15" y="252.86" width="3.86" height="15.46"/><rect class="cls-32" x="194.3" y="246.15" width="3.86" height="22.18"/><rect class="cls-32" x="204.45" y="256.7" width="3.86" height="11.62"/><rect class="cls-32" x="214.6" y="244.23" width="3.86" height="24.09"/><rect class="cls-32" x="224.76" y="260.54" width="3.86" height="7.79"/><rect class="cls-32" x="234.91" y="249.03" width="3.86" height="19.3"/><rect class="cls-32" x="245.06" y="236.56" width="3.86" height="31.77"/><rect class="cls-32" x="255.21" y="242.31" width="3.86" height="26.01"/><rect class="cls-32" x="265.36" y="245.19" width="3.86" height="23.14"/><rect class="cls-32" x="275.51" y="236.56" width="3.86" height="31.77"/><rect class="cls-32" x="285.67" y="233.68" width="3.86" height="34.65"/><rect class="cls-32" x="295.82" y="231.76" width="3.86" height="36.57"/><rect class="cls-33" x="184.15" y="232.32" width="3.86" height="17.92"/><rect class="cls-33" x="194.3" y="235.6" width="3.86" height="8.3"/><rect class="cls-33" x="204.45" y="239.97" width="3.86" height="14.64"/><rect class="cls-33" x="214.6" y="233.41" width="3.86" height="8.3"/><rect class="cls-33" x="224.76" y="237.78" width="3.86" height="21.19"/><rect class="cls-33" x="234.91" y="238.87" width="3.86" height="8.3"/><rect class="cls-33" x="245.06" y="221.68" width="3.86" height="11.29"/><rect class="cls-33" x="255.21" y="230.13" width="3.86" height="8.3"/><rect class="cls-33" x="265.36" y="237.78" width="3.86" height="5.02"/><rect class="cls-33" x="275.51" y="230.57" width="3.86" height="3.93"/><rect class="cls-33" x="285.67" y="223.15" width="3.86" height="8.07"/><rect class="cls-33" x="295.82" y="219.59" width="3.86" height="9.44"/><path class="cls-33" d="M264.81,287.83H248.22l-5-5H225.93a.32.32,0,0,1-.33-.32.33.33,0,0,1,.33-.33h17.6l5,5h16.05l18.84-18.84h19L312,278H322.4l8.13-8.14h14.38a.33.33,0,0,1,0,.66h-14.1l-8.14,8.13H311.75L302.09,269H283.65Z" transform="translate(-41.78 -58.94)"/><path class="cls-33" d="M244.27,282.54a.91.91,0,1,1-.91-.9A.9.9,0,0,1,244.27,282.54Z" transform="translate(-41.78 -58.94)"/><path class="cls-33" d="M249.29,287.51a.9.9,0,1,1-1.8,0,.9.9,0,0,1,1.8,0Z" transform="translate(-41.78 -58.94)"/><path class="cls-33" d="M265.58,287.51a.9.9,0,0,1-1.8,0,.9.9,0,0,1,1.8,0Z" transform="translate(-41.78 -58.94)"/><path class="cls-33" d="M284.44,268.66a.9.9,0,1,1-.9-.9A.9.9,0,0,1,284.44,268.66Z" transform="translate(-41.78 -58.94)"/><path class="cls-33" d="M303.13,268.66a.9.9,0,1,1-.9-.9A.9.9,0,0,1,303.13,268.66Z" transform="translate(-41.78 -58.94)"/><path class="cls-33" d="M312.69,278.25a.9.9,0,1,1-.9-.91A.9.9,0,0,1,312.69,278.25Z" transform="translate(-41.78 -58.94)"/><path class="cls-33" d="M323.43,278.25a.9.9,0,1,1-.9-.91A.9.9,0,0,1,323.43,278.25Z" transform="translate(-41.78 -58.94)"/><circle class="cls-33" cx="288.94" cy="211.41" r="0.9"/><polygon class="cls-32" points="234.98 224.25 207.45 213.7 184.15 213.7 184.15 213.04 207.63 213.06 234.83 223.49 257.12 202.89 277.07 202.89 281.07 206.89 287.9 206.89 295.76 199.04 303.13 199.04 303.13 199.69 296.03 199.69 288.18 207.54 280.8 207.54 276.8 203.55 257.38 203.55 234.98 224.25"/><path class="cls-32" d="M250.53,272.43a.94.94,0,1,1-.94-.94A.94.94,0,0,1,250.53,272.43Z" transform="translate(-41.78 -58.94)"/><path class="cls-32" d="M277.63,282.81a.95.95,0,1,1-.94-.94A.94.94,0,0,1,277.63,282.81Z" transform="translate(-41.78 -58.94)"/><path class="cls-32" d="M300,262.32a.94.94,0,1,1-.94-.94A.94.94,0,0,1,300,262.32Z" transform="translate(-41.78 -58.94)"/><path class="cls-32" d="M319.71,262.32a.95.95,0,1,1-.94-.94A.94.94,0,0,1,319.71,262.32Z" transform="translate(-41.78 -58.94)"/><path class="cls-32" d="M323.8,266.14a.94.94,0,1,1-.94-.94A.94.94,0,0,1,323.8,266.14Z" transform="translate(-41.78 -58.94)"/><path class="cls-32" d="M330.76,266.14a.94.94,0,1,1-.94-.94A.94.94,0,0,1,330.76,266.14Z" transform="translate(-41.78 -58.94)"/><path class="cls-32" d="M338.54,258.3a.95.95,0,1,1-.94-.94A.95.95,0,0,1,338.54,258.3Z" transform="translate(-41.78 -58.94)"/><path class="cls-1" d="M183.85,367.73c2-5.31,4.45-10.42,6.22-15.8s2.82-11.15,1.78-16.72c-.45-2.38-1.27-4.67-1.69-7.06A27.38,27.38,0,0,1,192,313.42a54.52,54.52,0,0,1,7.67-12.87c2.53-3.31,5.4-6.57,9.23-8.2a7.33,7.33,0,0,1,6-.27,7.43,7.43,0,0,1,3.56,5c1.56,6.07-1,12.38-3.84,18s-6,11.37-5.84,17.64c.12,3.6,1.38,7.1,1.32,10.71-.12,6.71-4.74,12.48-9.65,17.06s-10.5,8.76-13.61,14.72a7.74,7.74,0,0,1-2,2.85,2,2,0,0,1-2.5.19,2.81,2.81,0,0,1-.56-2.54,26.08,26.08,0,0,1,.76-3.82C182.88,370.47,183.35,369.1,183.85,367.73Z" transform="translate(-41.78 -58.94)"/><path class="cls-1" d="M191,338.69c-1-2.75-2.77-5.15-3.73-7.89-1.39-3.94-1-8.28-.16-12.38s2-8.16,2-12.34-1.14-8.61-4.32-11.32a11.06,11.06,0,0,1-2.45-2.27c-1.21-1.91-.42-4.53-1.36-6.59-1-2.23-3.87-3.17-6.26-2.6a11.25,11.25,0,0,0-5.85,4.22c-3.83,4.77-5.75,10.87-6.27,17a66.31,66.31,0,0,0,1.49,18.24,27.42,27.42,0,0,0,1.83,6.36c2.57,5.62,8.39,9.51,10,15.48,1,3.51.29,7.22,0,10.84A48.67,48.67,0,0,0,180.28,379c.28.61.91,1.33,1.47,1a1.14,1.14,0,0,0,.4-.64,4.26,4.26,0,0,1,.35-1l.4-1.12.78-2.21,1.55-4.37,3.12-8.83a33,33,0,0,0,1.54-5.92c.42-2.57,1.25-5.05,1.66-7.62a20.3,20.3,0,0,0-.24-8.57C191.22,339.36,191.11,339,191,338.69Z" transform="translate(-41.78 -58.94)"/><path class="cls-1" d="M169.77,368.06c-1.48-3.86-1-8.26-2.48-12.11-2.38-6.1-9-9.21-13.65-13.82-5.73-5.68-8.51-13.87-8.8-21.94-.21-6.13,1-12.47,4.41-17.56a10.8,10.8,0,0,1,5.28-4.52c2.24-.74,5.05-.12,6.28,1.9a6.74,6.74,0,0,1,.81,3.06c.32,4.58-1.21,9.07-1.6,13.64A28,28,0,0,0,167.43,338a39.19,39.19,0,0,1,3,3.21c2.65,3.44,3.24,8,3.42,12.35s.07,8.8,1.62,12.86a43.28,43.28,0,0,0,2.64,5.22c.48.86.95,1.73,1.35,2.64a8.61,8.61,0,0,1,.92,2.65c0,.65-.54.81-1.09.74a4.67,4.67,0,0,1-2.05-1.08,28.32,28.32,0,0,1-4.16-3.48A15.08,15.08,0,0,1,169.77,368.06Z" transform="translate(-41.78 -58.94)"/><path class="cls-2" d="M183.19,379.68l-.28-.53c-3.16-6-2.71-12.76-1.78-17.4l.27-1.31c1.09-5.34,2.21-10.86.73-16a34.08,34.08,0,0,0-1.33-3.58,17.38,17.38,0,0,1-1.92-8c0-.6,0-1.21-.09-1.81-.35-4.1-2.19-7.92-4-11.61-1.6-3.33-3.27-6.76-3.87-10.43-1.21-7.34,1.93-14.82,4.45-20.83a.19.19,0,1,1,.34.15c-2.5,6-5.61,13.38-4.42,20.62.59,3.61,2.24,7,3.84,10.32,1.8,3.73,3.66,7.58,4,11.75.05.61.07,1.23.09,1.82a21.81,21.81,0,0,0,.19,2.68,22.5,22.5,0,0,0,1.69,5.23,32.52,32.52,0,0,1,1.34,3.61c1.52,5.28.38,10.84-.72,16.22l-.26,1.31c-.9,4.45-1.34,10.88,1.46,16.61a55.26,55.26,0,0,1,9.23-24.14c.63-.91,1.3-1.84,1.95-2.73,2.86-3.93,5.81-8,6.22-12.75a25.94,25.94,0,0,0-.74-7.28c-.28-1.45-.58-2.95-.72-4.43-.47-5,.69-10.29,3.45-15.83a88.81,88.81,0,0,1,9-13.6.19.19,0,0,1,.26,0,.2.2,0,0,1,0,.27,87.84,87.84,0,0,0-9,13.54c-2.72,5.48-3.87,10.73-3.41,15.62.14,1.47.44,3,.72,4.39a27,27,0,0,1,.75,7.4c-.43,4.86-3.41,9-6.3,12.93-.65.89-1.32,1.81-1.95,2.73a54.83,54.83,0,0,0-9.23,24.57Z" transform="translate(-41.78 -58.94)"/><path class="cls-2" d="M180.43,378.13a.21.21,0,0,1-.13-.05,26.53,26.53,0,0,1-8.39-14,56.82,56.82,0,0,1-.9-5.8c-.51-4.19-1-8.53-3.58-11.85a23,23,0,0,0-3.57-3.48c-.47-.4-.94-.8-1.4-1.21a32.37,32.37,0,0,1-7-39.21.2.2,0,0,1,.26-.08.19.19,0,0,1,.07.26,32,32,0,0,0,6.91,38.75c.46.41.93.81,1.4,1.21a23.62,23.62,0,0,1,3.61,3.53c2.62,3.41,3.15,7.79,3.66,12a55.4,55.4,0,0,0,.9,5.77,26.07,26.07,0,0,0,8.27,13.78.18.18,0,0,1,0,.26A.21.21,0,0,1,180.43,378.13Z" transform="translate(-41.78 -58.94)"/><path class="cls-2" d="M206.67,304.9a.18.18,0,0,1-.17-.11c-1.14-2.54-2.39-5.07-3.72-7.52a.18.18,0,0,1,.07-.25.18.18,0,0,1,.25.07c1.34,2.46,2.6,5,3.74,7.55a.19.19,0,0,1-.1.25Z" transform="translate(-41.78 -58.94)"/><path class="cls-2" d="M203.18,310.45a.2.2,0,0,1-.17-.09.19.19,0,0,1,.08-.26,20.92,20.92,0,0,1,6.15-1.8c.7-.13,1.42-.26,2.11-.41a30.73,30.73,0,0,0,6.79-2.37.18.18,0,0,1,.25.09.2.2,0,0,1-.09.25,30.74,30.74,0,0,1-6.87,2.39c-.7.15-1.42.29-2.12.42a20.59,20.59,0,0,0-6,1.76A.15.15,0,0,1,203.18,310.45Z" transform="translate(-41.78 -58.94)"/><path class="cls-2" d="M199.23,322.45a.18.18,0,0,1-.17-.11.19.19,0,0,1,.09-.25c5-2.3,10.09-4.48,15.19-6.49a.18.18,0,0,1,.24.11.19.19,0,0,1-.1.24c-5.1,2-10.2,4.19-15.17,6.48Z" transform="translate(-41.78 -58.94)"/><path class="cls-2" d="M199.62,328.23l-.09,0a24.38,24.38,0,0,1-9.62-8.45.18.18,0,0,1,.05-.26.2.2,0,0,1,.26.05,24,24,0,0,0,9.48,8.32.19.19,0,0,1,.08.25A.17.17,0,0,1,199.62,328.23Z" transform="translate(-41.78 -58.94)"/><path class="cls-2" d="M200.68,338.69a.18.18,0,0,1-.15-.08.19.19,0,0,1,0-.26l8-5.63a.19.19,0,1,1,.21.31l-8,5.63A.23.23,0,0,1,200.68,338.69Z" transform="translate(-41.78 -58.94)"/><path class="cls-2" d="M197.29,347.65a.17.17,0,0,1-.15-.07c-1.55-2.16-3.21-4.28-4.93-6.3a.18.18,0,0,1,0-.26.19.19,0,0,1,.27,0c1.72,2,3.38,4.16,4.94,6.32a.19.19,0,0,1,0,.26A.2.2,0,0,1,197.29,347.65Z" transform="translate(-41.78 -58.94)"/><path class="cls-2" d="M192.66,354.38a.18.18,0,0,1-.18-.17.18.18,0,0,1,.16-.2,10.92,10.92,0,0,0,2.5-.69l.36-.14c1.22-.44,2.5-.82,3.73-1.2,3.52-1.06,7.17-2.17,9.87-4.64a.19.19,0,0,1,.27,0,.19.19,0,0,1,0,.26c-2.76,2.53-6.45,3.65-10,4.73-1.23.37-2.5.76-3.71,1.2l-.37.13a10.71,10.71,0,0,1-2.58.71Z" transform="translate(-41.78 -58.94)"/><path class="cls-2" d="M189,361a.19.19,0,0,1-.19-.17.2.2,0,0,1,.18-.2,67.87,67.87,0,0,0,12.66-2.17.19.19,0,1,1,.1.36A67.9,67.9,0,0,1,189,361Z" transform="translate(-41.78 -58.94)"/><path class="cls-2" d="M182.51,378.88a.18.18,0,0,1-.18-.16c-1-6.4,1.23-12.79,3.56-18.2.45-1.06.92-2.12,1.4-3.18,2-4.58,4.15-9.31,4.9-14.31a.18.18,0,0,1,.21-.16.18.18,0,0,1,.16.21c-.76,5.05-2.88,9.81-4.93,14.42-.47,1.05-.94,2.11-1.4,3.17-2.3,5.36-4.52,11.69-3.53,18a.18.18,0,0,1-.16.21Z" transform="translate(-41.78 -58.94)"/><path class="cls-2" d="M171.81,299a.18.18,0,0,1-.14-.06L166,292.48a.19.19,0,0,1,0-.27.19.19,0,0,1,.26,0l5.68,6.48a.19.19,0,0,1,0,.27A.17.17,0,0,1,171.81,299Z" transform="translate(-41.78 -58.94)"/><path class="cls-2" d="M171,304.27a.21.21,0,0,1-.16-.08.19.19,0,0,1,.05-.26c4-2.68,7.88-5.55,11.63-8.54l1.21-1a.17.17,0,0,1,.26,0,.19.19,0,0,1,0,.26l-1.21,1c-3.75,3-7.67,5.88-11.65,8.56A.19.19,0,0,1,171,304.27Z" transform="translate(-41.78 -58.94)"/><path class="cls-2" d="M190.61,357.28a.21.21,0,0,1-.13,0,8.73,8.73,0,0,1-1.57-2.05.18.18,0,1,1,.32-.18,8.41,8.41,0,0,0,1.51,2,.19.19,0,0,1,0,.26A.16.16,0,0,1,190.61,357.28Z" transform="translate(-41.78 -58.94)"/><path class="cls-2" d="M172.59,313.31h-.06a46.18,46.18,0,0,1-9.62-4.59.18.18,0,0,1-.06-.26.18.18,0,0,1,.26-.06,46.19,46.19,0,0,0,9.54,4.56.18.18,0,0,1,.12.23A.19.19,0,0,1,172.59,313.31Z" transform="translate(-41.78 -58.94)"/><path class="cls-2" d="M175.34,319.47a.18.18,0,0,1-.16-.09.19.19,0,0,1,.06-.26,14.82,14.82,0,0,0,1.34-.89c.91-.67,1.77-1.45,2.6-2.2l9.55-8.62a.19.19,0,0,1,.25.28l-9.55,8.62a33.15,33.15,0,0,1-2.63,2.22c-.44.33-.9.63-1.36.91A.19.19,0,0,1,175.34,319.47Z" transform="translate(-41.78 -58.94)"/><path class="cls-2" d="M177,323.66a.18.18,0,0,1-.15-.07.19.19,0,0,1,0-.26l5.94-4.38a.19.19,0,1,1,.22.3l-5.94,4.38A.2.2,0,0,1,177,323.66Z" transform="translate(-41.78 -58.94)"/><path class="cls-2" d="M185.11,317.26a.18.18,0,0,1-.14-.06.2.2,0,0,1,0-.27l2.24-2a.18.18,0,0,1,.26,0,.19.19,0,0,1,0,.26l-2.24,2A.18.18,0,0,1,185.11,317.26Z" transform="translate(-41.78 -58.94)"/><path class="cls-2" d="M178.46,329.81h0a65.82,65.82,0,0,1-13.51-4.24.19.19,0,0,1-.09-.25.18.18,0,0,1,.24-.09,65.87,65.87,0,0,0,13.43,4.22.19.19,0,0,1,0,.37Z" transform="translate(-41.78 -58.94)"/><path class="cls-2" d="M179.35,336.16h-.06L174,334.31a.18.18,0,0,1-.12-.23.19.19,0,0,1,.24-.12l5.28,1.84a.19.19,0,0,1,.12.24A.2.2,0,0,1,179.35,336.16Z" transform="translate(-41.78 -58.94)"/><path class="cls-2" d="M171.32,333.49a6.5,6.5,0,0,1-2.7-.59.19.19,0,0,1,.16-.34,6.11,6.11,0,0,0,2.86.54.19.19,0,0,1,.19.18.19.19,0,0,1-.17.2Z" transform="translate(-41.78 -58.94)"/><path class="cls-2" d="M182.67,345.59a.17.17,0,0,1-.14-.06.18.18,0,0,1,0-.26,65.39,65.39,0,0,0,7.41-7.66.2.2,0,0,1,.27,0,.19.19,0,0,1,0,.27,66.88,66.88,0,0,1-7.45,7.7A.19.19,0,0,1,182.67,345.59Z" transform="translate(-41.78 -58.94)"/><path class="cls-2" d="M182.71,356.33a.2.2,0,0,1-.11,0l-2.43-1.61a.19.19,0,0,1,0-.26.19.19,0,0,1,.26-.05l2.43,1.61a.19.19,0,0,1,.05.26A.18.18,0,0,1,182.71,356.33Z" transform="translate(-41.78 -58.94)"/><path class="cls-2" d="M181.43,362.4a.17.17,0,0,1-.1,0l-5-3.07a.18.18,0,0,1-.06-.25.19.19,0,0,1,.26-.07l5,3.07a.2.2,0,0,1,.06.26A.22.22,0,0,1,181.43,362.4Z" transform="translate(-41.78 -58.94)"/><path class="cls-2" d="M200.56,315.44a.16.16,0,0,1-.13-.06l-3.32-3.31a.2.2,0,0,1,0-.27.19.19,0,0,1,.26,0l3.32,3.32a.19.19,0,0,1,0,.26A.18.18,0,0,1,200.56,315.44Z" transform="translate(-41.78 -58.94)"/><path class="cls-2" d="M196.11,310.85a.21.21,0,0,1-.15-.07l-1.65-2a.18.18,0,0,1,0-.26.19.19,0,0,1,.26,0l1.65,2a.19.19,0,0,1,0,.27A.21.21,0,0,1,196.11,310.85Z" transform="translate(-41.78 -58.94)"/><path class="cls-2" d="M200.06,331.48a.2.2,0,0,1-.14-.06.19.19,0,0,1,0-.27,17.6,17.6,0,0,1,3.64-2.39.18.18,0,0,1,.25.09.18.18,0,0,1-.09.24,17.15,17.15,0,0,0-3.56,2.35A.16.16,0,0,1,200.06,331.48Z" transform="translate(-41.78 -58.94)"/><path class="cls-2" d="M206.07,327.89a.17.17,0,0,1-.14-.07.18.18,0,0,1,0-.26,38.44,38.44,0,0,1,3.76-2.7.17.17,0,0,1,.25.06.18.18,0,0,1-.05.25,40.9,40.9,0,0,0-3.73,2.68A.17.17,0,0,1,206.07,327.89Z" transform="translate(-41.78 -58.94)"/><path class="cls-2" d="M172.29,364.34a.18.18,0,0,1-.12,0,31.18,31.18,0,0,0-3.42-2.61.19.19,0,0,1-.05-.26.19.19,0,0,1,.26-.05,32.91,32.91,0,0,1,3.46,2.64.19.19,0,0,1,0,.26A.19.19,0,0,1,172.29,364.34Z" transform="translate(-41.78 -58.94)"/><path class="cls-2" d="M171.41,358.53h0a.19.19,0,0,1-.13-.23,12.87,12.87,0,0,1,2.15-4.26.19.19,0,1,1,.29.23,12.37,12.37,0,0,0-2.08,4.13A.18.18,0,0,1,171.41,358.53Z" transform="translate(-41.78 -58.94)"/><path class="cls-2" d="M169.62,350.06l-.07,0a12,12,0,0,0-3.27-.92.18.18,0,0,1-.16-.21.18.18,0,0,1,.21-.16,12,12,0,0,1,3.37.95.18.18,0,0,1,.09.24A.19.19,0,0,1,169.62,350.06Z" transform="translate(-41.78 -58.94)"/><path class="cls-2" d="M163.89,348.69h0a19.58,19.58,0,0,1-2.39-.52.18.18,0,0,1-.13-.23.19.19,0,0,1,.23-.13,21,21,0,0,0,2.35.52.18.18,0,0,1,.15.21A.18.18,0,0,1,163.89,348.69Z" transform="translate(-41.78 -58.94)"/><path class="cls-2" d="M165.34,344h0a.19.19,0,0,1-.18-.2,39.13,39.13,0,0,1,.84-6.46.19.19,0,0,1,.22-.15.2.2,0,0,1,.15.23,38.28,38.28,0,0,0-.84,6.4A.18.18,0,0,1,165.34,344Z" transform="translate(-41.78 -58.94)"/><path class="cls-2" d="M161.7,340.37h0a102.83,102.83,0,0,1-10.93-1.62.19.19,0,0,1-.15-.22.18.18,0,0,1,.22-.15A100,100,0,0,0,161.72,340a.19.19,0,0,1,.17.21A.19.19,0,0,1,161.7,340.37Z" transform="translate(-41.78 -58.94)"/><path class="cls-2" d="M157.73,335.83a.12.12,0,0,1-.08,0,.18.18,0,0,1-.09-.24,8.16,8.16,0,0,1,1.25-2,.19.19,0,0,1,.26,0,.18.18,0,0,1,0,.26,8.16,8.16,0,0,0-1.19,1.93A.18.18,0,0,1,157.73,335.83Z" transform="translate(-41.78 -58.94)"/><path class="cls-2" d="M159.84,332.73a.19.19,0,0,1-.1,0,.18.18,0,0,1-.05-.26,17.27,17.27,0,0,0,1.64-2.74.19.19,0,0,1,.25-.08.17.17,0,0,1,.09.24,18.82,18.82,0,0,1-1.67,2.8A.2.2,0,0,1,159.84,332.73Z" transform="translate(-41.78 -58.94)"/><path class="cls-2" d="M155.06,331.05H155l-5.35-1.46a.19.19,0,0,1-.13-.23.19.19,0,0,1,.23-.13l5.35,1.46a.18.18,0,0,1,.13.23A.17.17,0,0,1,155.06,331.05Z" transform="translate(-41.78 -58.94)"/><path class="cls-2" d="M148.23,329.07h0l-2-.61a.19.19,0,0,1,.11-.36l2,.61a.19.19,0,0,1,.13.23A.19.19,0,0,1,148.23,329.07Z" transform="translate(-41.78 -58.94)"/><path class="cls-2" d="M152.51,323.43a.19.19,0,0,1-.1,0,.19.19,0,0,1-.06-.25,29.57,29.57,0,0,1,7.4-8.24.19.19,0,0,1,.26,0,.2.2,0,0,1,0,.27,29.26,29.26,0,0,0-7.31,8.13A.18.18,0,0,1,152.51,323.43Z" transform="translate(-41.78 -58.94)"/><path class="cls-2" d="M152,316.65a.19.19,0,0,1-.1,0l-3.14-2a.18.18,0,0,1-.05-.25.18.18,0,0,1,.26-.06l3.14,2a.19.19,0,0,1,.05.26A.18.18,0,0,1,152,316.65Z" transform="translate(-41.78 -58.94)"/><path class="cls-2" d="M147.52,313.53a.19.19,0,0,1-.1,0l-2-1.29a.18.18,0,0,1,0-.25.17.17,0,0,1,.25-.06l2,1.28a.18.18,0,0,1,.06.26A.17.17,0,0,1,147.52,313.53Z" transform="translate(-41.78 -58.94)"/><path class="cls-2" d="M152.93,309.44a.28.28,0,0,1-.12,0,.19.19,0,0,1,0-.26,15,15,0,0,1,8.51-5.49.18.18,0,0,1,.22.14.19.19,0,0,1-.14.23,14.56,14.56,0,0,0-8.29,5.34A.21.21,0,0,1,152.93,309.44Z" transform="translate(-41.78 -58.94)"/><polygon class="cls-30" points="152.05 363.2 128.07 363.2 120.53 317.11 159.59 317.11 152.05 363.2"/><path class="cls-31" d="M199,391.64h0c-6.16-1-12.36-2.33-18.43-3.84-5.65-1.4-12.13-3.21-17.53-6.91a.2.2,0,0,1-.05-.26.2.2,0,0,1,.26-.05c5.35,3.66,11.79,5.46,17.41,6.86,6.06,1.5,12.25,2.79,18.41,3.83a.19.19,0,0,1,.15.22A.19.19,0,0,1,199,391.64Z" transform="translate(-41.78 -58.94)"/><path class="cls-31" d="M164.33,388.32a.19.19,0,0,1,0-.37,259.87,259.87,0,0,0,36.09-7.52.19.19,0,0,1,.23.13.19.19,0,0,1-.13.23,261.75,261.75,0,0,1-36.14,7.53Z" transform="translate(-41.78 -58.94)"/><path class="cls-31" d="M188.12,397a3,3,0,0,1-.52,0,6.63,6.63,0,0,1-2-.71,8.1,8.1,0,0,0-1.61-.62,7.76,7.76,0,0,0-3.55.3,9.53,9.53,0,0,1-3.31.4,9.8,9.8,0,0,1-2.43-.76,8.22,8.22,0,0,0-2.48-.75,8.37,8.37,0,0,0-2.53.32l-.91.2a4.27,4.27,0,0,1-3.54-.52.19.19,0,0,1,.23-.3,3.89,3.89,0,0,0,3.24.45c.3-.05.6-.12.89-.19a8.76,8.76,0,0,1,2.65-.33,8.61,8.61,0,0,1,2.59.77,9,9,0,0,0,2.33.74,9.44,9.44,0,0,0,3.19-.39,8.24,8.24,0,0,1,3.72-.31,8.38,8.38,0,0,1,1.68.66,6.48,6.48,0,0,0,1.89.67,6.56,6.56,0,0,0,2.94-.51,7.49,7.49,0,0,1,2.87-.56,9.57,9.57,0,0,1,1.48.26c1.06.24,2.06.47,2.79-.15a.18.18,0,1,1,.24.28c-.87.75-2,.49-3.11.23a9.43,9.43,0,0,0-1.42-.25,7.46,7.46,0,0,0-2.73.54A8.3,8.3,0,0,1,188.12,397Z" transform="translate(-41.78 -58.94)"/><path class="cls-31" d="M196.17,408.64h0a73.5,73.5,0,0,1-30-6.89.19.19,0,0,1-.09-.25.2.2,0,0,1,.25-.09,72.92,72.92,0,0,0,29.83,6.85.18.18,0,0,1,.18.19A.19.19,0,0,1,196.17,408.64Z" transform="translate(-41.78 -58.94)"/><path class="cls-31" d="M167.78,410.62a.19.19,0,0,1-.19-.16.19.19,0,0,1,.16-.21A110.52,110.52,0,0,0,197,402a.19.19,0,0,1,.25.1.18.18,0,0,1-.1.24,110.9,110.9,0,0,1-29.33,8.28Z" transform="translate(-41.78 -58.94)"/><rect class="cls-34" x="270.65" y="445.48" width="39.44" height="5.14" rx="0.98" transform="translate(538.96 837.15) rotate(180)"/><path class="cls-35" d="M310.09,449.11v.53a1,1,0,0,1-1,1H271.63a1,1,0,0,1-1-1v-.53Z" transform="translate(-41.78 -58.94)"/><rect class="cls-36" x="277.57" y="445.48" width="10.26" height="3.64" transform="translate(523.61 835.65) rotate(180)"/><rect class="cls-34" x="270.65" y="440.34" width="39.44" height="5.14" rx="0.98" transform="translate(538.96 826.88) rotate(180)"/><path class="cls-35" d="M310.09,444v.52a1,1,0,0,1-1,1H271.63a1,1,0,0,1-1-1V444Z" transform="translate(-41.78 -58.94)"/><rect class="cls-36" x="277.57" y="440.34" width="10.26" height="3.64" transform="translate(523.61 825.38) rotate(180)"/><rect class="cls-34" x="270.65" y="435.21" width="39.44" height="5.14" rx="0.98" transform="translate(538.96 816.61) rotate(180)"/><path class="cls-35" d="M310.09,438.84v.53a1,1,0,0,1-1,1H271.63a1,1,0,0,1-1-1v-.53Z" transform="translate(-41.78 -58.94)"/><rect class="cls-36" x="277.57" y="435.21" width="10.26" height="3.64" transform="translate(523.61 815.11) rotate(180)"/><rect class="cls-34" x="270.65" y="430.07" width="39.44" height="5.14" rx="0.98" transform="translate(538.96 806.34) rotate(180)"/><path class="cls-35" d="M310.09,433.71v.52a1,1,0,0,1-1,1H271.63a1,1,0,0,1-1-1v-.52Z" transform="translate(-41.78 -58.94)"/><rect class="cls-36" x="277.57" y="430.07" width="10.26" height="3.64" transform="translate(523.61 804.84) rotate(180)"/><rect class="cls-34" x="270.65" y="424.93" width="39.44" height="5.14" rx="0.98" transform="translate(538.96 796.06) rotate(180)"/><path class="cls-35" d="M310.09,428.57v.52a1,1,0,0,1-1,1H271.63a1,1,0,0,1-1-1v-.52Z" transform="translate(-41.78 -58.94)"/><rect class="cls-36" x="277.57" y="424.93" width="10.26" height="3.64" transform="translate(523.61 794.56) rotate(180)"/><rect class="cls-31" x="270.65" y="419.8" width="39.44" height="5.14" rx="0.98" transform="translate(538.96 785.79) rotate(180)"/><path class="cls-35" d="M310.09,423.43V424a1,1,0,0,1-1,1H271.63a1,1,0,0,1-1-1v-.53Z" transform="translate(-41.78 -58.94)"/><rect class="cls-36" x="277.57" y="419.8" width="10.26" height="3.64" transform="translate(523.61 784.29) rotate(180)"/><rect class="cls-31" x="270.65" y="414.66" width="39.44" height="5.14" rx="0.98" transform="translate(538.96 775.52) rotate(180)"/><path class="cls-30" d="M310.09,418.3v.52a1,1,0,0,1-1,1H271.63a1,1,0,0,1-1-1v-.52Z" transform="translate(-41.78 -58.94)"/><rect class="cls-36" x="277.57" y="414.66" width="10.26" height="3.64" transform="translate(523.61 774.02) rotate(180)"/><rect class="cls-31" x="270.65" y="409.53" width="39.44" height="5.14" rx="0.98" transform="translate(538.96 765.25) rotate(180)"/><path class="cls-30" d="M310.09,413.16v.53a1,1,0,0,1-1,1H271.63a1,1,0,0,1-1-1v-.53Z" transform="translate(-41.78 -58.94)"/><rect class="cls-37" x="277.57" y="409.53" width="10.26" height="3.64" transform="translate(523.61 763.75) rotate(180)"/><rect class="cls-31" x="270.65" y="404.39" width="39.44" height="5.14" rx="0.98" transform="translate(538.96 754.98) rotate(180)"/><path class="cls-30" d="M310.09,408v.52a1,1,0,0,1-1,1H271.63a1,1,0,0,1-1-1V408Z" transform="translate(-41.78 -58.94)"/><rect class="cls-37" x="277.57" y="404.39" width="10.26" height="3.64" transform="translate(523.61 753.48) rotate(180)"/><rect class="cls-31" x="270.65" y="399.26" width="39.44" height="5.14" rx="0.98" transform="translate(538.96 744.71) rotate(180)"/><path class="cls-30" d="M310.09,402.89v.53a1,1,0,0,1-1,1H271.63a1,1,0,0,1-1-1v-.53Z" transform="translate(-41.78 -58.94)"/><rect class="cls-37" x="277.57" y="399.26" width="10.26" height="3.64" transform="translate(523.61 743.21) rotate(180)"/><rect class="cls-31" x="270.65" y="394.12" width="39.44" height="5.14" rx="0.98" transform="translate(538.96 734.44) rotate(180)"/><path class="cls-30" d="M310.09,397.76v.52a1,1,0,0,1-1,1H271.63a1,1,0,0,1-1-1v-.52Z" transform="translate(-41.78 -58.94)"/><rect class="cls-37" x="277.57" y="394.12" width="10.26" height="3.64" transform="translate(523.61 732.94) rotate(180)"/><rect class="cls-31" x="270.65" y="388.98" width="39.44" height="5.14" rx="0.98" transform="translate(538.96 724.16) rotate(180)"/><path class="cls-30" d="M310.09,392.62v.52a1,1,0,0,1-1,1H271.63a1,1,0,0,1-1-1v-.52Z" transform="translate(-41.78 -58.94)"/><rect class="cls-37" x="277.57" y="388.98" width="10.26" height="3.64" transform="translate(523.61 722.66) rotate(180)"/><rect class="cls-31" x="270.65" y="383.85" width="39.44" height="5.14" rx="0.98" transform="translate(538.96 713.89) rotate(180)"/><path class="cls-30" d="M310.09,387.48V388a1,1,0,0,1-1,1H271.63a1,1,0,0,1-1-1v-.53Z" transform="translate(-41.78 -58.94)"/><rect class="cls-37" x="277.57" y="383.85" width="10.26" height="3.64" transform="translate(523.61 712.39) rotate(180)"/><rect class="cls-31" x="270.65" y="378.71" width="39.44" height="5.14" rx="0.98" transform="translate(538.96 703.62) rotate(180)"/><path class="cls-30" d="M310.09,382.35v.52a1,1,0,0,1-1,1H271.63a1,1,0,0,1-1-1v-.52Z" transform="translate(-41.78 -58.94)"/><rect class="cls-37" x="277.57" y="378.71" width="10.26" height="3.64" transform="translate(523.61 702.12) rotate(180)"/><rect class="cls-30" x="298.28" y="378.71" width="7.71" height="71.88" transform="translate(562.48 770.37) rotate(180)"/><rect class="cls-30" x="292.24" y="378.71" width="3.33" height="71.88" transform="translate(546.03 770.37) rotate(180)"/><rect class="cls-31" x="303.45" y="445.48" width="39.44" height="5.14" rx="0.98" transform="translate(604.57 837.15) rotate(180)"/><path class="cls-30" d="M342.9,449.11v.53a1,1,0,0,1-1,1H304.43a1,1,0,0,1-1-1v-.53Z" transform="translate(-41.78 -58.94)"/><rect class="cls-37" x="310.37" y="445.48" width="10.26" height="3.64" transform="translate(589.22 835.65) rotate(180)"/><rect class="cls-31" x="303.45" y="440.34" width="39.44" height="5.14" rx="0.98" transform="translate(604.57 826.88) rotate(180)"/><path class="cls-30" d="M342.9,444v.52a1,1,0,0,1-1,1H304.43a1,1,0,0,1-1-1V444Z" transform="translate(-41.78 -58.94)"/><rect class="cls-37" x="310.37" y="440.34" width="10.26" height="3.64" transform="translate(589.22 825.38) rotate(180)"/><rect class="cls-31" x="303.45" y="435.21" width="39.44" height="5.14" rx="0.98" transform="translate(604.57 816.61) rotate(180)"/><path class="cls-30" d="M342.9,438.84v.53a1,1,0,0,1-1,1H304.43a1,1,0,0,1-1-1v-.53Z" transform="translate(-41.78 -58.94)"/><rect class="cls-37" x="310.37" y="435.21" width="10.26" height="3.64" transform="translate(589.22 815.11) rotate(180)"/><rect class="cls-31" x="303.45" y="430.07" width="39.44" height="5.14" rx="0.98" transform="translate(604.57 806.34) rotate(180)"/><path class="cls-30" d="M342.9,433.71v.52a1,1,0,0,1-1,1H304.43a1,1,0,0,1-1-1v-.52Z" transform="translate(-41.78 -58.94)"/><rect class="cls-37" x="310.37" y="430.07" width="10.26" height="3.64" transform="translate(589.22 804.84) rotate(180)"/><rect class="cls-31" x="303.45" y="424.93" width="39.44" height="5.14" rx="0.98" transform="translate(604.57 796.06) rotate(180)"/><path class="cls-30" d="M342.9,428.57v.52a1,1,0,0,1-1,1H304.43a1,1,0,0,1-1-1v-.52Z" transform="translate(-41.78 -58.94)"/><rect class="cls-37" x="310.37" y="424.93" width="10.26" height="3.64" transform="translate(589.22 794.56) rotate(180)"/><rect class="cls-31" x="303.45" y="419.8" width="39.44" height="5.14" rx="0.98" transform="translate(604.57 785.79) rotate(180)"/><path class="cls-30" d="M342.9,423.43V424a1,1,0,0,1-1,1H304.43a1,1,0,0,1-1-1v-.53Z" transform="translate(-41.78 -58.94)"/><rect class="cls-37" x="310.37" y="419.8" width="10.26" height="3.64" transform="translate(589.22 784.29) rotate(180)"/><rect class="cls-31" x="303.45" y="414.66" width="39.44" height="5.14" rx="0.98" transform="translate(604.57 775.52) rotate(180)"/><path class="cls-30" d="M342.9,418.3v.52a1,1,0,0,1-1,1H304.43a1,1,0,0,1-1-1v-.52Z" transform="translate(-41.78 -58.94)"/><rect class="cls-37" x="310.37" y="414.66" width="10.26" height="3.64" transform="translate(589.22 774.02) rotate(180)"/><rect class="cls-31" x="303.45" y="409.53" width="39.44" height="5.14" rx="0.98" transform="translate(604.57 765.25) rotate(180)"/><path class="cls-30" d="M342.9,413.16v.53a1,1,0,0,1-1,1H304.43a1,1,0,0,1-1-1v-.53Z" transform="translate(-41.78 -58.94)"/><rect class="cls-37" x="310.37" y="409.53" width="10.26" height="3.64" transform="translate(589.22 763.75) rotate(180)"/><rect class="cls-31" x="303.45" y="404.39" width="39.44" height="5.14" rx="0.98" transform="translate(604.57 754.98) rotate(180)"/><path class="cls-30" d="M342.9,408v.52a1,1,0,0,1-1,1H304.43a1,1,0,0,1-1-1V408Z" transform="translate(-41.78 -58.94)"/><rect class="cls-37" x="310.37" y="404.39" width="10.26" height="3.64" transform="translate(589.22 753.48) rotate(180)"/><rect class="cls-31" x="303.45" y="399.26" width="39.44" height="5.14" rx="0.98" transform="translate(604.57 744.71) rotate(180)"/><path class="cls-30" d="M342.9,402.89v.53a1,1,0,0,1-1,1H304.43a1,1,0,0,1-1-1v-.53Z" transform="translate(-41.78 -58.94)"/><rect class="cls-37" x="310.37" y="399.26" width="10.26" height="3.64" transform="translate(589.22 743.21) rotate(180)"/><rect class="cls-31" x="303.45" y="394.12" width="39.44" height="5.14" rx="0.98" transform="translate(604.57 734.44) rotate(180)"/><path class="cls-30" d="M342.9,397.76v.52a1,1,0,0,1-1,1H304.43a1,1,0,0,1-1-1v-.52Z" transform="translate(-41.78 -58.94)"/><rect class="cls-37" x="310.37" y="394.12" width="10.26" height="3.64" transform="translate(589.22 732.94) rotate(180)"/><rect class="cls-31" x="303.45" y="388.98" width="39.44" height="5.14" rx="0.98" transform="translate(604.57 724.16) rotate(180)"/><path class="cls-30" d="M342.9,392.62v.52a1,1,0,0,1-1,1H304.43a1,1,0,0,1-1-1v-.52Z" transform="translate(-41.78 -58.94)"/><rect class="cls-37" x="310.37" y="388.98" width="10.26" height="3.64" transform="translate(589.22 722.66) rotate(180)"/><rect class="cls-30" x="331.08" y="389.06" width="7.71" height="61.54" transform="translate(628.09 780.72) rotate(180)"/><rect class="cls-30" x="325.04" y="389.06" width="3.33" height="61.54" transform="translate(611.64 780.72) rotate(180)"/><path class="cls-30" d="M276,449.52c-4.11-4.15-13.29-10-12.15-16.85a7.18,7.18,0,0,0,.08-1.53,40.17,40.17,0,0,1,1.17-4.56,4.33,4.33,0,0,0-1.1-4.67,22,22,0,1,1,33.28,28.7H276.82A5.43,5.43,0,0,0,276,449.52Z" transform="translate(-41.78 -58.94)"/><circle class="cls-31" cx="278.27" cy="433.33" r="19.96" transform="translate(-277.59 404.96) rotate(-60.7)"/><circle class="cls-31" cx="278.28" cy="433.33" r="15.84" transform="translate(-92.45 -21.85) rotate(-6.99)"/><path class="cls-30" d="M262.1,433.33a16.18,16.18,0,1,1,16.18,16.18A16.19,16.19,0,0,1,262.1,433.33Zm1,0a15.17,15.17,0,1,0,15.17-15.17A15.18,15.18,0,0,0,263.11,433.33Z" transform="translate(-41.78 -58.94)"/><path class="cls-37" d="M283.48,433.57a8,8,0,0,0-4.23-2.06v-6.46a3.7,3.7,0,0,1,.8.38,3.94,3.94,0,0,1,1.76,3.34,1,1,0,0,0,.27.71,1,1,0,0,0,.69.31,1.05,1.05,0,0,0,.71-.27,1,1,0,0,0,.31-.69,5.94,5.94,0,0,0-2.66-5.07,5.67,5.67,0,0,0-1.88-.78v-1.34a1,1,0,1,0-1.94,0v1.24a5.65,5.65,0,0,0-1.89.53,5.46,5.46,0,0,0-2.78,3.35,4.5,4.5,0,0,0,.42,3.66,6.78,6.78,0,0,0,4.25,2.66v8.41a5.18,5.18,0,0,1-2.26-.86,3,3,0,0,1-1.34-2.35,2.14,2.14,0,0,1,.67-1.65,1,1,0,0,0-1.37-1.45,4.22,4.22,0,0,0-1.29,3.19,5,5,0,0,0,2.17,3.87,7,7,0,0,0,3.42,1.25V445a1,1,0,1,0,1.94,0v-1.6l.55-.12a7.15,7.15,0,0,0,4.54-3.77A5.57,5.57,0,0,0,283.48,433.57Zm-4.23,0a5.74,5.74,0,0,1,2.78,1.37,3.55,3.55,0,0,1,.5,3.8,5.13,5.13,0,0,1-3.28,2.67Zm-1.94-8.67V431a4.28,4.28,0,0,1-2.56-1.63,2.54,2.54,0,0,1-.2-2.06,3.46,3.46,0,0,1,1.73-2.12A3.53,3.53,0,0,1,277.31,424.88Z" transform="translate(-41.78 -58.94)"/><path class="cls-38" d="M163.16,421.5h53.31a7.23,7.23,0,0,1,7,7.47h0a7.24,7.24,0,0,1-7,7.48H163.16" transform="translate(-41.78 -58.94)"/><path class="cls-11" d="M110.52,363.1h51.82a6.68,6.68,0,0,1,6.68,6.68v.57a6.68,6.68,0,0,1-6.68,6.68H110.52a0,0,0,0,1,0,0V363.1A0,0,0,0,1,110.52,363.1Z"/><path class="cls-39" d="M203.83,436.49H150.52a.53.53,0,0,1,0-1.05h53.31a6.44,6.44,0,1,0,0-12.87H150.52A.52.52,0,0,1,150,422a.52.52,0,0,1,.52-.52h53.31a7.49,7.49,0,0,1,0,15Z" transform="translate(-41.78 -58.94)"/><path class="cls-5" d="M205.91,436.45H152.6a7.24,7.24,0,0,0-7,7.48h0a7.24,7.24,0,0,0,7,7.48h53.31" transform="translate(-41.78 -58.94)"/><path class="cls-11" d="M182.35,437H210.1a6.68,6.68,0,0,1,6.68,6.68v.57a6.68,6.68,0,0,1-6.68,6.68H182.35a0,0,0,0,1,0,0V437A0,0,0,0,1,182.35,437Z" transform="translate(357.35 828.98) rotate(180)"/><path class="cls-40" d="M218.55,451.44H189.31a7.49,7.49,0,0,1,0-15h29.24a.53.53,0,0,1,.53.53.52.52,0,0,1-.53.52H189.31a6.44,6.44,0,0,0,0,12.88h29.24a.52.52,0,1,1,0,1Z" transform="translate(-41.78 -58.94)"/><path class="cls-4" d="M290.21,312.87h45.28a4,4,0,0,1,4,4v73a4,4,0,0,1-4,4H290.21a4,4,0,0,1-4-4v-73A4,4,0,0,1,290.21,312.87Z"/><rect class="cls-18" x="291.36" y="324.06" width="42.98" height="16.79"/><rect class="cls-32" x="291.36" y="322.21" width="42.98" height="16.15"/><polygon class="cls-11" points="309.97 338.36 294.82 338.36 305.21 322.21 320.35 322.21 309.97 338.36"/><polygon class="cls-11" points="317.75 338.36 314.73 338.36 325.11 322.21 328.14 322.21 317.75 338.36"/><rect class="cls-18" x="291.36" y="345.5" width="7.01" height="7.01" rx="0.54"/><rect class="cls-18" x="303.35" y="345.5" width="7.01" height="7.01" rx="0.54"/><rect class="cls-18" x="315.34" y="345.5" width="7.01" height="7.01" rx="0.54"/><rect class="cls-34" x="327.33" y="345.5" width="7.01" height="7.01" rx="0.54"/><rect class="cls-18" x="291.36" y="356.32" width="7.01" height="7.01" rx="0.54"/><rect class="cls-18" x="303.35" y="356.32" width="7.01" height="7.01" rx="0.54"/><rect class="cls-18" x="315.34" y="356.32" width="7.01" height="7.01" rx="0.54"/><rect class="cls-10" x="327.33" y="356.32" width="7.01" height="7.01" rx="0.54"/><rect class="cls-18" x="291.36" y="367.14" width="7.01" height="7.01" rx="0.54"/><rect class="cls-18" x="303.35" y="367.14" width="7.01" height="7.01" rx="0.54"/><rect class="cls-18" x="315.34" y="367.14" width="7.01" height="7.01" rx="0.54"/><rect class="cls-18" x="291.36" y="377.96" width="7.01" height="7.01" rx="0.54"/><rect class="cls-18" x="303.35" y="377.96" width="7.01" height="7.01" rx="0.54"/><rect class="cls-18" x="315.34" y="377.96" width="7.01" height="7.01" rx="0.54"/><rect class="cls-41" x="327.33" y="367.14" width="7.01" height="17.83" rx="0.54"/></svg>