<svg id="Layer_1" data-name="Layer 1" xmlns="http://www.w3.org/2000/svg" viewBox="0 0 35.95 35.95"><defs><style>.cls-1{fill:#fff;}</style></defs><title>globe-icon</title><path class="cls-1" d="M35.75,51.19a18,18,0,1,1,18-18A18,18,0,0,1,35.75,51.19Zm0-34.74A16.77,16.77,0,1,0,52.51,33.21,16.78,16.78,0,0,0,35.75,16.45Z" transform="translate(-17.78 -15.24)"/><path class="cls-1" d="M35.75,51.19a18,18,0,1,1,18-18A18,18,0,0,1,35.75,51.19Zm0-34.74A16.77,16.77,0,1,0,52.51,33.21,16.78,16.78,0,0,0,35.75,16.45Z" transform="translate(-17.78 -15.24)"/><path class="cls-1" d="M35.75,51.19a18.06,18.06,0,0,1-4.84-.67l-.22-.06-.12-.19c-2.5-3.8-4-10.18-4-17.06s1.49-13.25,4-17l.12-.19.22-.06a17.88,17.88,0,0,1,9.68,0l.22.06.12.19c2.5,3.8,4,10.18,4,17.05s-1.49,13.26-4,17.06l-.12.19-.22.06A18.06,18.06,0,0,1,35.75,51.19Zm-4.29-1.78a16.64,16.64,0,0,0,8.58,0c2.3-3.63,3.66-9.66,3.66-16.2S42.34,20.65,40,17a16.86,16.86,0,0,0-8.58,0c-2.3,3.64-3.66,9.67-3.66,16.2S29.16,45.78,31.46,49.41Z" transform="translate(-17.78 -15.24)"/><rect class="cls-1" x="17.37" y="0.61" width="1.21" height="34.73"/><rect class="cls-1" x="0.61" y="17.37" width="34.73" height="1.21"/><path class="cls-1" d="M35.75,42.38c-6.88,0-13.25-1.49-17.06-4l-.19-.13-.06-.22a18.08,18.08,0,0,1,0-9.68l.06-.22.19-.12c3.81-2.49,10.18-4,17.06-4S49,25.54,52.81,28l.19.12.06.22a18.08,18.08,0,0,1,0,9.68l-.06.22-.19.13C49,40.89,42.63,42.38,35.75,42.38Zm-16.2-4.87c3.64,2.29,9.67,3.66,16.2,3.66S48.31,39.8,52,37.51a16.75,16.75,0,0,0,0-8.59c-3.64-2.29-9.67-3.66-16.2-3.66s-12.56,1.37-16.2,3.66a16.75,16.75,0,0,0,0,8.59Z" transform="translate(-17.78 -15.24)"/></svg>