<svg xmlns="http://www.w3.org/2000/svg" viewBox="0 0 433.88 433.88"><defs><style>.cls-1{fill:#56bcbf;}.cls-2{fill:#44403e;}.cls-3{fill:#f47747;}.cls-4{fill:#f6b968;}.cls-5{fill:#eeaa59;}.cls-6{fill:#33302f;}.cls-7{fill:#22201f;}.cls-8{fill:#ffcc90;}.cls-9{fill:#ffe0bc;}.cls-10{fill:#c1e4ea;}.cls-11{fill:#2a7b6d;}.cls-12{fill:#f2ebec;}.cls-13{fill:#a83a48;}.cls-14{fill:#702730;}</style></defs><title>handing-money</title><g id="borrow_money" data-name="borrow money"><path class="cls-1" d="M441.94,225c0,119.81-97.13,216.94-216.94,216.94S8.06,344.81,8.06,225,105.19,8.06,225,8.06,441.94,105.19,441.94,225Z" transform="translate(-8.06 -8.06)"/><path class="cls-2" d="M356,183.21l82.35,2.41c-7.9-42.29-27.43-80.24-56-110H356Z" transform="translate(-8.06 -8.06)"/><path class="cls-3" d="M130.72,280.68l-120.79-27A216.07,216.07,0,0,0,54.44,359.07l54,19.18Z" transform="translate(-8.06 -8.06)"/><path class="cls-4" d="M217.88,175.31c-.38,3.86,3.15,7.38,7.88,7.85h0c4.73.46,8.87-2.29,9.26-6.16l6.08-61.39c.38-3.87-3.15-7.38-7.88-7.85h0c-4.73-.47-8.88,2.28-9.26,6.15Z" transform="translate(-8.06 -8.06)"/><path class="cls-5" d="M218.13,175.51l0-64c.2-2.08,7.61-4.52,9.49-5.63l-5.78,70.63c-.08.85-1.11,4-.93,4.82A6.62,6.62,0,0,1,218.13,175.51Z" transform="translate(-8.06 -8.06)"/><path class="cls-4" d="M201.67,185c-.22,3.88,3.44,7.26,8.19,7.53h0c4.75.28,8.78-2.64,9-6.52l4-62.51c.23-3.87-3.8-6.33-8.54-6.61h0c-4.75-.27-8.78,2.64-9,6.53Z" transform="translate(-8.06 -8.06)"/><path class="cls-5" d="M201.69,184.72l3.46-63.13c.2-2.07,4.13-2.07,6-3.18L204.26,188a8,8,0,0,0,.19,2.49A6.65,6.65,0,0,1,201.69,184.72Z" transform="translate(-8.06 -8.06)"/><path class="cls-4" d="M184.34,186.41c-.24,3.88,3.43,7.26,8.18,7.54h0c4.75.28,8.79-2.65,9-6.53l3.6-61.58c.24-3.89-3.43-7.26-8.18-7.53h0c-4.74-.28-8.78,2.64-9,6.52Z" transform="translate(-8.06 -8.06)"/><path class="cls-6" d="M388.2,168.64a5.36,5.36,0,0,1,2.12-1.2l.3-5.09a1.9,1.9,0,1,1,3.79.22l-.3,5.08a5.47,5.47,0,1,1-6.2,8.73A5.47,5.47,0,0,1,388.2,168.64Z" transform="translate(-8.06 -8.06)"/><path class="cls-6" d="M406.53,167.19l.3-5.09a1.9,1.9,0,1,1,3.79.22l-.3,5.08a5.47,5.47,0,1,1-5.92,1A5.53,5.53,0,0,1,406.53,167.19Z" transform="translate(-8.06 -8.06)"/><path class="cls-6" d="M423,166.88l.3-5.1a1.9,1.9,0,0,1,3.79.23l-.3,5.07a5.75,5.75,0,0,1,1.82,1.28,5.48,5.48,0,1,1-7.74-.28A5.28,5.28,0,0,1,423,166.88Z" transform="translate(-8.06 -8.06)"/><path class="cls-7" d="M411.47,169.27a5.41,5.41,0,1,1-7.64-.28A5.41,5.41,0,0,1,411.47,169.27Z" transform="translate(-8.06 -8.06)"/><path class="cls-7" d="M427.77,169.07a5.42,5.42,0,1,1-7.64-.28A5.42,5.42,0,0,1,427.77,169.07Z" transform="translate(-8.06 -8.06)"/><path class="cls-7" d="M395.31,169.48a5.41,5.41,0,1,1-7.64-.29A5.4,5.4,0,0,1,395.31,169.48Z" transform="translate(-8.06 -8.06)"/><path class="cls-8" d="M242.39,88.39c-4.8,1.7-61.12,32.06-62.68,40.18-1.33,6.9-.83,49.79-.47,61.58,0,.37,0,1.48,0,1.48,0,4.68,4.29,8.47,9.6,8.47s9.6-3.79,9.6-8.47V142.37a8.07,8.07,0,0,1,1.6-3.15c3.27-2.82,30.66-15.66,43.79-16.53l16.34-18.2L243,88.27A4.55,4.55,0,0,0,242.39,88.39Z" transform="translate(-8.06 -8.06)"/><path class="cls-9" d="M185.75,192.63a7.55,7.55,0,0,1-2.94.65h0a7.83,7.83,0,0,1-3-.6c-.19-4-.5-10,.54-12.29a1.88,1.88,0,0,1,1.8-1.34h0s0,0,0,0h0a2.08,2.08,0,0,1,1.93,1.31C185.34,182.65,185.56,188.63,185.75,192.63Z" transform="translate(-8.06 -8.06)"/><path class="cls-9" d="M181.37,126.73a.66.66,0,0,0,.2.89L185,130a.61.61,0,0,0,.87-.16h0a.65.65,0,0,0-.21-.89l-3.41-2.34a.62.62,0,0,0-.87.17Z" transform="translate(-8.06 -8.06)"/><path class="cls-9" d="M180,128.91a.69.69,0,0,0,.2.91l3.41,2.33a.63.63,0,0,0,.88-.16h0a.66.66,0,0,0-.21-.89l-3.42-2.34a.6.6,0,0,0-.86.15Z" transform="translate(-8.06 -8.06)"/><rect class="cls-10" x="170.79" y="104.33" width="82.92" height="182.01" transform="matrix(0.18, -0.98, 0.98, 0.18, -25.85, 361.3)"/><path class="cls-11" d="M287.92,244.82,124,215.13l12.55-69.28,163.88,29.69ZM131.39,210l151.43,27.44,10.3-56.84L141.69,153.19Z" transform="translate(-8.06 -8.06)"/><path class="cls-11" d="M171.14,187.88a10.64,10.64,0,1,1-8.58-12.36A10.64,10.64,0,0,1,171.14,187.88Z" transform="translate(-8.06 -8.06)"/><path class="cls-11" d="M274.31,206.58a10.64,10.64,0,1,1-8.57-12.37A10.64,10.64,0,0,1,274.31,206.58Z" transform="translate(-8.06 -8.06)"/><path class="cls-11" d="M236.69,199.76a24.83,24.83,0,1,1-20-28.86A24.84,24.84,0,0,1,236.69,199.76Z" transform="translate(-8.06 -8.06)"/><path class="cls-8" d="M243,88.27l.85,34.42c2.72-.18,4.84.14,6,1.18,8.8,8,7.84,14.48,1.51,24.66-3.7,5.95-8.7,11.81-14.69,23-13.21,24.7-4.22,25.64.38,28.57,8.28,5.27,22.09-25.43,33.51-33.88,15.45-11.42,36-25.59,36-25.59H356V88.39S252.75,86.78,243,88.27Z" transform="translate(-8.06 -8.06)"/><path class="cls-9" d="M243,195.34a28.78,28.78,0,0,1-5.1-3.13h0l0,0,0,0h0a28.12,28.12,0,0,1-4.34-4.12c2.43-3.18,6-8,9.24-8.41a5.07,5.07,0,0,1,3.77,1.22h0s0,0,0,0h0a5.06,5.06,0,0,1,2.16,3.33C249.14,187.47,245.42,192.16,243,195.34Z" transform="translate(-8.06 -8.06)"/><path class="cls-9" d="M252.37,161.35c-.19.29.14.83.75,1.23l7,4.51c.6.39,1.24.47,1.43.19h0c.19-.29-.15-.84-.76-1.23l-7-4.52c-.61-.39-1.25-.47-1.44-.18Z" transform="translate(-8.06 -8.06)"/><path class="cls-9" d="M251,163.52c-.19.3.15.85.75,1.24l7,4.51c.61.39,1.25.48,1.44.19h0c.18-.29-.16-.84-.76-1.24l-7-4.51c-.6-.39-1.25-.48-1.43-.19Z" transform="translate(-8.06 -8.06)"/><rect class="cls-12" x="320.79" y="70.4" width="27.09" height="82.57"/><path class="cls-4" d="M244.59,320.51a7.15,7.15,0,0,1-9.81,2.4h0a7.14,7.14,0,0,1-2.4-9.82l14.08-23.2a7.15,7.15,0,0,1,9.81-2.41h0a7.15,7.15,0,0,1,2.4,9.81Z" transform="translate(-8.06 -8.06)"/><path class="cls-4" d="M215.34,334.71c-3.63,1.54-17,3.67-18.55,0l-3.16-3.37c-1.54-3.63-6.51-15.39-3.27-13.14,16.49,11.44,44.42-7.25,44.42-7.25a7.14,7.14,0,0,1,9.36,3.81h0a7.13,7.13,0,0,1-3.79,9.35Z" transform="translate(-8.06 -8.06)"/><path class="cls-5" d="M223.32,328.38l23.52-13a6.88,6.88,0,0,0,2-1.68,6.53,6.53,0,0,0,1.77-2.28l8.27-20.94c.57-1.19-11.68,19-11.68,19L211,331.79A41.07,41.07,0,0,0,223.32,328.38Z" transform="translate(-8.06 -8.06)"/><path class="cls-4" d="M262.16,317.8a7.13,7.13,0,0,1-9.46,3.54h0a7.13,7.13,0,0,1-3.54-9.46l11.23-24.71a7.14,7.14,0,0,1,9.45-3.55h0a7.15,7.15,0,0,1,3.56,9.46Z" transform="translate(-8.06 -8.06)"/><path class="cls-4" d="M234.8,335.37c-3.43,2-16.46,5.65-18.42,2.23l-3.54-3c-2-3.43,1.48-4.32,4.91-6.28l33.55-18.83a7.13,7.13,0,0,1,9.74,2.66h0a7.12,7.12,0,0,1-2.66,9.74Z" transform="translate(-8.06 -8.06)"/><path class="cls-5" d="M235,329.14l23.53-13a7.22,7.22,0,0,0,2-1.68,7,7,0,0,0,1.76-2.29l11.3-23.72a6.61,6.61,0,0,0,.58-3.63l-15.29,25.46-36.22,22.28A41,41,0,0,0,235,329.14Z" transform="translate(-8.06 -8.06)"/><path class="cls-4" d="M274.52,317.93a7.14,7.14,0,0,1-9.45,3.55h0a7.15,7.15,0,0,1-3.56-9.46l11.24-24.71a7.13,7.13,0,0,1,9.46-3.55h0a7.14,7.14,0,0,1,3.55,9.46Z" transform="translate(-8.06 -8.06)"/><path class="cls-4" d="M247.17,335.5c-3.43,2-16.46,5.66-18.42,2.23l-3.54-3c-2-3.42,1.48-4.33,4.9-6.27l33.55-18.84a7.14,7.14,0,0,1,9.74,2.66h0a7.14,7.14,0,0,1-2.66,9.75Z" transform="translate(-8.06 -8.06)"/><path class="cls-8" d="M267.84,337.56c-3.76,3.1-9.79,2-13.47-2.48h0a9.11,9.11,0,0,1,1-13.15l31.3-24c4.68-3.11,11-5.25,14.19-1.13,4.12,5.33-.6,11-5.91,16Z" transform="translate(-8.06 -8.06)"/><path class="cls-8" d="M255.33,321.93c-4,2-40.75,9-45.13,2.5-5.75-8.54-3.58-13.82,3.88-21.07,4.36-4.24,9.8-8.13,17.19-16.3,16.29-18,9.34-21.26,5.65-24.15-6.71-5.24-23.91,16.81-35.31,21.53-15.4,6.38-35.63,14-35.63,14l-35.26-8.32-9.51,44s83.43,22.11,87.83,21.69c4-.37,47.32-10.28,58.67-18.2L256.32,321A3.55,3.55,0,0,1,255.33,321.93Z" transform="translate(-8.06 -8.06)"/><rect class="cls-12" x="95.46" y="310.95" width="76.77" height="25.19" transform="translate(-219.45 373.81) rotate(-77.12)"/><path class="cls-13" d="M95.09,357.32a5.07,5.07,0,0,0-1.57-1.65l1.12-4.6a1.77,1.77,0,1,0-3.44-.83l-1.11,4.59a5.16,5.16,0,0,0-2,.65,5.09,5.09,0,1,0,7,1.84Z" transform="translate(-8.06 -8.06)"/><path class="cls-13" d="M79.18,351.05l1.12-4.61a1.77,1.77,0,0,0-3.44-.83l-1.11,4.6a5.08,5.08,0,1,0,5,2.49A5,5,0,0,0,79.18,351.05Z" transform="translate(-8.06 -8.06)"/><path class="cls-13" d="M64.65,346.31l1.12-4.6a1.76,1.76,0,1,0-3.43-.83l-1.11,4.59a4.83,4.83,0,0,0-2,.65,5.14,5.14,0,1,0,5.39.19Z" transform="translate(-8.06 -8.06)"/><path class="cls-14" d="M74.22,351.56a5,5,0,1,0,6.87,1.82A5,5,0,0,0,74.22,351.56Z" transform="translate(-8.06 -8.06)"/><path class="cls-14" d="M59.78,347a5,5,0,1,0,6.88,1.83A5,5,0,0,0,59.78,347Z" transform="translate(-8.06 -8.06)"/><path class="cls-14" d="M88.53,356.13A5,5,0,1,0,95.4,358,5,5,0,0,0,88.53,356.13Z" transform="translate(-8.06 -8.06)"/><path class="cls-9" d="M237.69,272a22.2,22.2,0,0,0-3-3.52h0l0,0h0a21.83,21.83,0,0,0-3.68-2.81c-2.13,2.25-5.35,5.58-5.29,8.1a3.85,3.85,0,0,0,1.4,2.73h0s0,0,0,0l0,0h0a3.89,3.89,0,0,0,2.81,1.24C232.43,277.69,235.56,274.27,237.69,272Z" transform="translate(-8.06 -8.06)"/><path class="cls-9" d="M300.11,305.76a9,9,0,0,0-1.78-2.29h0s0,0,0,0h0a9,9,0,0,0-2.45-1.6c-2.15,2.23-5.39,5.55-5.81,7.6a1.92,1.92,0,0,0,.62,1.95h0a0,0,0,0,0,0,0v0h0a2,2,0,0,0,2,.48C294.79,311.37,298,308,300.11,305.76Z" transform="translate(-8.06 -8.06)"/><path class="cls-9" d="M211.69,284.17c.24-.21.79,0,1.24.51l5.18,5.73c.45.5.62,1.07.38,1.29h0c-.23.21-.79,0-1.24-.51l-5.18-5.73c-.45-.49-.62-1.08-.38-1.29Z" transform="translate(-8.06 -8.06)"/><path class="cls-9" d="M213.48,282.56c.24-.21.8,0,1.24.5l5.18,5.73c.45.5.62,1.08.39,1.29h0c-.24.22-.8,0-1.25-.51l-5.18-5.73c-.45-.49-.62-1.08-.38-1.28Z" transform="translate(-8.06 -8.06)"/><path class="cls-9" d="M260.81,331.78c.27-.16.71,0,1,.45l3.14,4.82c.27.42.27.9,0,1.07h0c-.27.18-.71,0-1-.45l-3.14-4.81c-.28-.42-.27-.9,0-1.08Z" transform="translate(-8.06 -8.06)"/><path class="cls-9" d="M262.85,330.5c.28-.17.72,0,1,.45l3.14,4.82c.27.42.27.9,0,1.06h0c-.27.18-.71,0-1-.44l-3.14-4.82c-.28-.42-.28-.9,0-1.07Z" transform="translate(-8.06 -8.06)"/></g></svg>