<svg id="_Layer_" data-name="&lt;Layer&gt;" xmlns="http://www.w3.org/2000/svg" viewBox="0 0 1363.86 1176.15"><defs><style>.cls-1{fill:#a8d29f;}.cls-13,.cls-2{fill:#82b378;}.cls-3{fill:#4c85d8;}.cls-4{fill:#699ff0;}.cls-5{fill:#719e67;}.cls-6{fill:#ee9849;}.cls-7{fill:#e58638;}.cls-8{fill:#ffb973;}.cls-9{fill:#d86713;}.cls-10{fill:#e2810e;}.cls-11{fill:#ffb93e;}.cls-12{fill:#ffa412;}.cls-13{opacity:0.5;}.cls-14{fill:#2c3a64;}.cls-15{fill:#afcdfb;}.cls-16{fill:#2b478b;}.cls-17{fill:#233862;}.cls-18{fill:#ffb27d;}.cls-19{fill:#ed985f;}.cls-20{fill:#f99746;}.cls-21{fill:#ed7d2b;}.cls-22{fill:#c94c43;}.cls-23{fill:#b23b38;}.cls-24{fill:#ed975d;}.cls-25{fill:#a9453d;}.cls-26{fill:#1e3d70;}.cls-27{fill:#2a4e96;}</style></defs><title>money-tree</title><path class="cls-1" d="M2616.46,1777s84.71-77.94,275.23-73.58,118.94-84.49,258.23-52.2c44.71,10.36,120.65,89,197.32,76.33s131.87,10.22,151.53,49.45Z" transform="translate(-2262.52 -600.87)"/><path class="cls-1" d="M3622.18,1776h-84.49c-4.53-3.84,3.13-12.56,11.14-13.15,3.47-.26,7.87.47,12.89,1.53,1.17-15.44,7.81-84.86,32.83-82.07,28.14,3.12,0,30.57-8,46.82-5.9,12-12.11,29.3-14.95,37.44,2.28.5,4.65,1,7.06,1.43,3.73-11.45,17.61-50,35.25-47.72,20.72,2.62,12.39,18.07-2.29,27.23-10.77,6.74-24,16.32-30.29,21a89.8,89.8,0,0,0,16.52,1.33C3612.38,1769.44,3619.44,1773.71,3622.18,1776Z" transform="translate(-2262.52 -600.87)"/><path class="cls-1" d="M2791.73,1724.25c3.45-1,31.89-80.34-8.64-109S2791.73,1724.25,2791.73,1724.25Z" transform="translate(-2262.52 -600.87)"/><path class="cls-1" d="M2790.06,1726.24s-28.6-60.31-55.26-64.46S2790.06,1726.24,2790.06,1726.24Z" transform="translate(-2262.52 -600.87)"/><path class="cls-1" d="M3101.14,1680.29s-47.18-158,.79-180.87S3101.14,1680.29,3101.14,1680.29Z" transform="translate(-2262.52 -600.87)"/><path class="cls-1" d="M3119.73,1677.24c-1.43-2.28,13.93-96.11,51.74-101.5S3119.73,1677.24,3119.73,1677.24Z" transform="translate(-2262.52 -600.87)"/><path class="cls-2" d="M2698.26,1596.7l-3.34,1.09c-13.17-29-33.41-50.53-53.11-68.57-21.09-19.33-62.91-43.32-115.7-40.07a200.54,200.54,0,0,0-45.78,7.91l-1.64-3.86c102.7-40.29,161.79,7,192.27,50.1A206.49,206.49,0,0,1,2698.26,1596.7Z" transform="translate(-2262.52 -600.87)"/><path class="cls-1" d="M2815.09,1536.71l-116.83,60c-8.49-18.32-21.47-35.47-32.33-48a267.16,267.16,0,0,0-19.59-20.58c-69.55-63.78-167.65-34.88-167.65-34.88l85.83-86.49c51.77-17.46,97.16-8.27,134.58,11.55C2772.4,1457.08,2815.09,1536.71,2815.09,1536.71Z" transform="translate(-2262.52 -600.87)"/><path class="cls-2" d="M2701.94,1587.4c-.07-.34-9.16-30.37-37.22-60.74a146.4,146.4,0,0,0-59.69-39.09c-29-10.2-63-12.55-101.09-7l-5.86.86,69.75-68.91.32-.14c.9-.41,22.37-9.88,55.7-8.51a169.34,169.34,0,0,1,58.09,13.12c23.71,9.85,46.64,25.17,68.14,45.55,1.68,1.56,43.22,42.69,53.79,70.67h0Zm1-4.36,95.55-52.37c-4.23-11.18-14.39-26-29.38-42.84-11.39-12.8-21.61-22.32-21.72-22.41-21.13-20-43.61-35.08-66.83-44.75a165.72,165.72,0,0,0-56.68-12.87,142.92,142.92,0,0,0-46,5.32,30.41,30.41,0,0,0-12.69,7.49l-48.34,47.76a3.77,3.77,0,0,0,3,6.44c32.13-2.87,61.18.19,86.56,9.13a150.26,150.26,0,0,1,61.27,40.22A165.94,165.94,0,0,1,2697,1569C2700.89,1577.93,2702.06,1579.69,2703,1583Z" transform="translate(-2262.52 -600.87)"/><path class="cls-2" d="M2699.41,1451c7.5,17.7,1.66,32.8-16,40.29s-40.57,4.57-48.07-13.14-2.17-32.45,15.53-40S2691.92,1433.3,2699.41,1451Z" transform="translate(-2262.52 -600.87)"/><path class="cls-3" d="M2776.09,1393.68s-5.84,41.25.83,67.48h-99.34s46.7-171,142.35-268.85c27.45-28.09,52.71-68.11,77.09-112.09,60.52-109.2,115.59-242.88,185.35-279.35,0,0-137.81,202.49-164.5,319.25S2797.78,1233.55,2776.09,1393.68Z" transform="translate(-2262.52 -600.87)"/><path class="cls-4" d="M2885,1120.12a345.62,345.62,0,0,1,12-39.9c-24.38,44-49.64,84-77.09,112.09a398.24,398.24,0,0,0-39.09,47.23c-.07-.58-4.33-37.75-19.46-75.5-15-37.53-40.79-75.63-83.8-78.94,0,0,104.13,79.78,51.29,243.37-34.36,70.69-51.29,132.69-51.29,132.69H2744c-6.67-26.23-.83-67.48-.83-67.48C2764.9,1233.55,2858.31,1236.89,2885,1120.12Z" transform="translate(-2262.52 -600.87)"/><path class="cls-3" d="M2780.84,1239.56l-.4.67c-2.73,4.56-18.43,30.29-17,14.46,1.54-17.31-17.94-82.57-17.94-82.57l15.9-8.08C2776.63,1202.09,2780.84,1239.56,2780.84,1239.56Z" transform="translate(-2262.52 -600.87)"/><path class="cls-2" d="M3252.88,942.63s0,0,0,0l-2.89,4.4A252,252,0,0,0,3195.26,927c-48.18-11.9-92.23-3.63-124.09,9.29a178.37,178.37,0,0,0-27.83,14.09c-28.39,17.84-58.24,39.83-81.05,72.71l-3.88-2.11-107.87-82.86-22.87-17.56s15.31-19.23,41.71-42.95c30.3-27.24,75.18-60.39,128.24-77.18,30.6-9.69,63.92-13.93,98.71-8.46a211.63,211.63,0,0,1,70.08,24.54l86.49,126.17Z" transform="translate(-2262.52 -600.87)"/><path class="cls-2" d="M2743.76,1592.86l3,1.05c12.42-26,31.1-45.07,49.23-61,19.41-17.09,57.63-38,105.28-34.11a181.82,181.82,0,0,1,41.23,8l1.55-3.45c-92.08-38.26-146.34,3.43-174.66,41.8A186.83,186.83,0,0,0,2743.76,1592.86Z" transform="translate(-2262.52 -600.87)"/><path class="cls-1" d="M2639.27,1536.54l104.5,56.32c8-16.4,20-31.67,30.08-42.84a243.81,243.81,0,0,1,18.07-18.24c64-56.39,152.14-28.5,152.14-28.5l-76-79.71c-46.46-16.72-87.65-9.23-121.83,8C2679.29,1465.35,2639.27,1536.54,2639.27,1536.54Z" transform="translate(-2262.52 -600.87)"/><path class="cls-2" d="M2649.47,1533.61h0c10.06-25.09,48.34-61.51,49.88-62.89,19.81-18,40.8-31.47,62.41-39.94a153.15,153.15,0,0,1,52.73-10.8c30.15-.64,49.38,8.31,50.18,8.69l.29.14,61.79,63.53-5.28-.89c-34.29-5.73-65.06-4.23-91.48,4.47a132.28,132.28,0,0,0-54.65,34.25c-25.91,26.94-34.66,53.91-34.73,54.22Zm96,34.26a150.15,150.15,0,0,1,27.24-40,135.93,135.93,0,0,1,56.1-35.23c23.09-7.62,49.41-9.86,78.39-6.69a3.41,3.41,0,0,0,2.82-5.77l-42.82-44a27.34,27.34,0,0,0-11.33-7,129.41,129.41,0,0,0-41.48-5.64,149.62,149.62,0,0,0-51.46,10.61c-21.16,8.32-41.75,21.51-61.21,39.23-.09.09-9.5,8.51-20,19.87-13.85,15-23.29,28.15-27.32,38.18l85.4,49C2740.64,1577.42,2741.73,1575.85,2745.45,1567.87Z" transform="translate(-2262.52 -600.87)"/><path class="cls-2" d="M2745.35,1461.18c-7.09,15.86-2.08,29.61,13.78,36.7s36.58,4.86,43.68-11,2.55-29.28-13.32-36.38S2752.45,1445.31,2745.35,1461.18Z" transform="translate(-2262.52 -600.87)"/><path class="cls-5" d="M3071.17,936.25a178.37,178.37,0,0,0-27.83,14.09c-28.39,17.84-58.24,39.83-81.05,72.71l-3.88-2.11-107.87-82.86a518.55,518.55,0,0,1,18.84-60.51c30.3-27.24,75.18-60.39,128.24-77.18,30.6-9.69,63.92-13.93,98.71-8.46,1.17.75,1.79,1.18,1.79,1.18S3043.86,859,3071.17,936.25Z" transform="translate(-2262.52 -600.87)"/><path class="cls-2" d="M2931.54,904.24,2767.75,923l-4.41-.2a212,212,0,0,0-7.22-42.33c-6.15-22.5-15.29-43-24.8-61.74a188.41,188.41,0,0,0-26-38,201.1,201.1,0,0,0-92.15-60.25,251.86,251.86,0,0,0-57.27-11l-.22-5.26h0l139.11-63.6a212.13,212.13,0,0,1,70.17,14c33.83,13.17,61,34.41,82.8,59.1,31.82,36,52.12,79.42,64.75,115.69C2927.23,871.67,2931.54,904.24,2931.54,904.24Z" transform="translate(-2262.52 -600.87)"/><path class="cls-5" d="M2912.5,829.42c-2.36,30.42-17.85,55.24-49.84,64.3-35,9.89-73.58,2-106.54-13.27-6.15-22.5-15.29-43-24.8-61.74a188.41,188.41,0,0,0-26-38c72.41-16.93,59.65-126,59.65-126,33.83,13.17,61,34.41,82.8,59.1C2879.57,749.78,2899.87,793.15,2912.5,829.42Z" transform="translate(-2262.52 -600.87)"/><path class="cls-2" d="M2719.82,810.61s-3-31-61-18.49C2658.86,792.12,2681.77,820.16,2719.82,810.61Z" transform="translate(-2262.52 -600.87)"/><path class="cls-2" d="M3167.22,1110.55l0,0L3080.77,984.4c-60-33.24-118.1-32.13-168.79-16.09C2812.71,999.73,2742,1088.44,2742,1088.44l130.74,100.42h0l3.89,2.1c22.8-32.87,52.65-54.87,81.05-72.71,30.4-19.11,87.45-39.3,151.91-23.38a252.52,252.52,0,0,1,54.75,20.09l2.89-4.4Z" transform="translate(-2262.52 -600.87)"/><path class="cls-5" d="M2529.45,968.85l0,0,86.48-126.17c60-33.24,118.11-32.13,168.8-16.09C2884,858,2954.64,946.74,2954.64,946.74L2823.9,1047.16h0l-3.88,2.1c-22.81-32.87-52.66-54.87-81.06-72.71-30.4-19.11-87.45-39.3-151.91-23.38a252.52,252.52,0,0,0-54.75,20.09l-2.89-4.4Z" transform="translate(-2262.52 -600.87)"/><path class="cls-6" d="M2422.22,1461.16c0,165.47,134.13,299.59,299.59,299.59a300.87,300.87,0,0,0,48.43-3.9c142.44-23.14,251.17-146.72,251.17-295.69Z" transform="translate(-2262.52 -600.87)"/><path class="cls-7" d="M2794.13,1461.16H2422.22c0,165.47,134.13,299.59,299.59,299.59a300.87,300.87,0,0,0,48.43-3.9,120.6,120.6,0,0,0-12.44-6c-119-50-152.71-149.26-124.56-208.64s192.67-71.9,192.67-71.9Z" transform="translate(-2262.52 -600.87)"/><path class="cls-8" d="M2796.89,1705.74h0c110.19-38.91,188-133.76,188-244.58h-64.74C2920.16,1572,2885.62,1657.07,2796.89,1705.74Z" transform="translate(-2262.52 -600.87)"/><path class="cls-6" d="M2488.2,1776h463.58c0-10.21-3.16-19.44-8.26-26.13s-12.16-10.83-19.94-10.83H2516.4C2500.83,1739,2488.2,1755.59,2488.2,1776Z" transform="translate(-2262.52 -600.87)"/><rect class="cls-9" x="2415.4" y="1461.16" width="615.86" height="9.19" transform="translate(3184.14 2330.64) rotate(180)"/><path class="cls-8" d="M2262.52,1438.08c0,.05.07.09.2.12C2262.59,1438.07,2262.52,1438,2262.52,1438.08Z" transform="translate(-2262.52 -600.87)"/><path class="cls-7" d="M2720,1760.75c-.31-15.24,10.19-21.71,10.19-21.71H2516.4c-15.57,0-28.2,16.55-28.2,37h242S2720.29,1776,2720,1760.75Z" transform="translate(-2262.52 -600.87)"/><path class="cls-2" d="M2811.38,902.78l-3.91-2.06c14.53-37.27,16.1-74.31,15-107.83-1.12-35.9-16.24-94.5-65.44-139.07-20.29-18.38-38.17-29.25-47.25-34.2l2-4.86c126.24,57,135.53,151.52,123.56,216.66C2827.76,873.13,2811.38,902.78,2811.38,902.78Z" transform="translate(-2262.52 -600.87)"/><path class="cls-1" d="M2967.71,955.14l-156.33-52.37c9-23.68,13-50.39,14.83-71.17a337.66,337.66,0,0,0,1.31-35.64c-3.69-118.41-115.65-181.2-115.65-181.2l153,1.28c61.08,31.19,92.62,80,107.62,131C3001.81,847,2967.71,955.14,2967.71,955.14Z" transform="translate(-2262.52 -600.87)"/><path class="cls-2" d="M2823,897.93c.23-.37,19.24-34.86,21.93-86.7a183.92,183.92,0,0,0-17.21-87.9c-16.29-35-44-67.63-82.38-96.92l-5.92-4.51,123.07,2.25.41.16c1.15.45,28.48,11.43,56.48,42.59a212.79,212.79,0,0,1,39.14,63.68c11.94,29.94,18.27,64,18.82,101.16.07,2.88-.46,76.25-16.32,110.29h0Zm4.82-2.9L2958.61,935c6.33-13.6,10.73-35.71,12.72-63.94,1.52-21.46,1.11-39,1.1-39.17-.53-36.55-6.72-69.94-18.4-99.28a207.65,207.65,0,0,0-38.13-62.2,179.16,179.16,0,0,0-45.12-36.67,38,38,0,0,0-17.85-4.84l-85.29-1.56a4.74,4.74,0,0,0-3.16,8.35c30.75,26.35,53.47,55.13,67.69,85.77a188.72,188.72,0,0,1,17.59,90.3,208.06,208.06,0,0,1-14.66,65.62C2830.55,888.68,2830,891.28,2827.79,895Z" transform="translate(-2262.52 -600.87)"/><path class="cls-2" d="M2912.18,721.2c-22.26-9.33-40.18-1.19-49.51,21.07s8.08,45.38,30.34,54.71,40.94,1.35,50.27-20.91S2934.44,730.54,2912.18,721.2Z" transform="translate(-2262.52 -600.87)"/><path class="cls-2" d="M2730.08,1069.35l-4.2,1.37c-16.53-36.43-41.94-63.43-66.67-86.08-26.47-24.27-79-54.38-145.24-50.3a252.62,252.62,0,0,0-57.47,9.93l-2.05-4.85c128.92-50.57,203.09,8.83,241.36,62.89C2720.31,1036.93,2730.08,1069.35,2730.08,1069.35Z" transform="translate(-2262.52 -600.87)"/><path class="cls-1" d="M2876.74,994.05l-146.66,75.3c-10.66-23-27-44.53-40.58-60.32a336.41,336.41,0,0,0-24.6-25.83c-87.31-80.06-210.45-43.79-210.45-43.79L2562.2,830.84c65-21.93,122-10.39,168.93,14.5C2823.14,894.09,2876.74,994.05,2876.74,994.05Z" transform="translate(-2262.52 -600.87)"/><path class="cls-2" d="M2734.7,1057.67c-.09-.42-11.5-38.12-46.72-76.24A184,184,0,0,0,2613,932.35c-36.44-12.8-79.13-15.74-126.9-8.73l-7.36,1.08,87.57-86.5.4-.18c1.13-.51,28.08-12.41,69.92-10.68a212.55,212.55,0,0,1,72.92,16.46c29.76,12.36,58.54,31.61,85.54,57.19,2.11,2,54.25,53.59,67.53,88.71h0Zm1.3-5.47,119.93-65.74c-5.3-14-18-32.62-36.87-53.77-14.3-16.07-27.13-28-27.26-28.14-26.53-25.14-54.76-44-83.91-56.17a207.82,207.82,0,0,0-71.15-16.16A179.37,179.37,0,0,0,2579,838.9a37.87,37.87,0,0,0-15.93,9.4l-60.69,60a4.74,4.74,0,0,0,3.77,8.09c40.33-3.6,76.8.24,108.66,11.46a188.73,188.73,0,0,1,76.91,50.48,208.38,208.38,0,0,1,36.73,56.32C2733.38,1045.79,2734.85,1048,2736,1052.2Z" transform="translate(-2262.52 -600.87)"/><path class="cls-2" d="M2731.53,886.46c-9.42-22.23-38.77-25.47-61-16.06s-28.91,27.92-19.5,50.14,38.12,25.92,60.34,16.5S2740.94,908.69,2731.53,886.46Z" transform="translate(-2262.52 -600.87)"/><path class="cls-2" d="M2973.35,955.1l4.41.25c6.75-39.43,24.48-72,42.65-100.18,19.46-30.18,62.6-72.62,127.73-85.49a252.75,252.75,0,0,1,58.11-5l.76-5.21c-137.54-16.21-194.21,60.06-217.51,122.06C2974.58,921.25,2973.35,955.1,2973.35,955.1Z" transform="translate(-2262.52 -600.87)"/><path class="cls-1" d="M2812.39,919.46l161,35.63c4.48-24.94,14.78-49.9,24-68.63a333.46,333.46,0,0,1,17.24-31.23c64.14-99.6,192.46-95.74,192.46-95.74L3075.24,681.8c-68.41-4.73-120.61,20.89-159.73,56.88C2838.87,809.17,2812.39,919.46,2812.39,919.46Z" transform="translate(-2262.52 -600.87)"/><path class="cls-2" d="M2824.91,911.68h0c3.93-37.34,41.27-100.51,42.81-102.93,19.62-31.6,42.58-57.51,68.23-77a212.53,212.53,0,0,1,66.36-34.42c40-12.29,69.13-7.62,70.35-7.42l.43.08,106.64,61.46-7.39.82c-48,5.33-88.53,19-120.53,40.64a184,184,0,0,0-60,66.48c-24.39,45.81-25.86,85.17-25.85,85.6Zm141.22,9.39a208.59,208.59,0,0,1,21.23-63.8A188.82,188.82,0,0,1,3049,788.94c28-18.94,62.28-31.91,102.2-38.66a4.74,4.74,0,0,0,1.59-8.78l-73.91-42.59a38,38,0,0,0-17.79-5.06,179.44,179.44,0,0,0-57.56,8.2,207.71,207.71,0,0,0-64.72,33.67c-25.12,19.14-47.63,44.57-66.91,75.62-.1.15-9.48,15-19.23,34.13-12.84,25.23-20.46,46.45-22,61.37L2963.28,940C2963.33,935.66,2964.19,933.14,2966.13,921.07Z" transform="translate(-2262.52 -600.87)"/><path class="cls-2" d="M2980.48,747.54c-23.88-3.46-51.46,7.13-54.92,31s8.44,40.36,32.32,43.82,50.72-7.38,54.19-31.27S3004.37,751,2980.48,747.54Z" transform="translate(-2262.52 -600.87)"/><circle class="cls-10" cx="2929.23" cy="932.5" r="111.02" transform="translate(-2063.95 1743.54) rotate(-45)"/><circle class="cls-11" cx="2919.82" cy="930.21" r="111.02" transform="translate(-1484.78 2520.73) rotate(-63.32)"/><path class="cls-12" d="M2919.7,1032.68a101.88,101.88,0,0,1-24.07-2.89,100.69,100.69,0,1,1,24.07,2.89Zm-.36-196.35a95.28,95.28,0,1,0,22.62,2.73A94.48,94.48,0,0,0,2919.34,836.33Z" transform="translate(-2262.52 -600.87)"/><path class="cls-12" d="M2926.11,963.31a16.77,16.77,0,0,0,1.16-5.77,12.27,12.27,0,0,0-1.26-5.32,23.07,23.07,0,0,0-3.8-5.44,60.45,60.45,0,0,0-6.46-6,161.57,161.57,0,0,1-12-10.94,50.21,50.21,0,0,1-8.29-10.92,29.62,29.62,0,0,1-3.61-11.72,33.4,33.4,0,0,1,8.59-23.93,28.21,28.21,0,0,1,9.67-6.61,34.88,34.88,0,0,1,12.17-2.54,47,47,0,0,1,14,1.73l5.86-15.73,12.66,4.71-5.94,16a42,42,0,0,1,11,8.2,31.73,31.73,0,0,1,9,23,42.3,42.3,0,0,1-2.84,14.05l-22.88-8.52q3.29-8.82,1-14.66a14.3,14.3,0,0,0-8.86-8.27,18,18,0,0,0-6.51-1.29,12.19,12.19,0,0,0-5.24,1.14,11.37,11.37,0,0,0-4,3.17,17,17,0,0,0-2.68,4.77,15.67,15.67,0,0,0-1,5.22,11.4,11.4,0,0,0,1.21,5.1,23.15,23.15,0,0,0,3.83,5.45,80.5,80.5,0,0,0,6.68,6.38q6.61,5.73,11.78,11.08a50.74,50.74,0,0,1,8.22,11,30.15,30.15,0,0,1,3.6,11.76,33.56,33.56,0,0,1-8.69,24.06,27.72,27.72,0,0,1-9.68,6.53,34,34,0,0,1-12.18,2.33,50.71,50.71,0,0,1-14-1.88l-5.44,14.63-12.59-4.68,5.42-14.56a56.89,56.89,0,0,1-11.64-7.6,35.78,35.78,0,0,1-8.51-10.41,32.06,32.06,0,0,1-3.7-13.31,39.1,39.1,0,0,1,2.79-16.2l22.88,8.51a24.06,24.06,0,0,0-1.78,9.26,15.59,15.59,0,0,0,1.83,7,15.21,15.21,0,0,0,4.49,5,25.5,25.5,0,0,0,6.06,3.21,21.44,21.44,0,0,0,6.88,1.48,14.6,14.6,0,0,0,5.7-.89,11.6,11.6,0,0,0,4.34-3A13.94,13.94,0,0,0,2926.11,963.31Z" transform="translate(-2262.52 -600.87)"/><rect class="cls-1" x="2420.3" y="1015.55" width="433.01" height="181.59" transform="translate(-2463.93 157.18) rotate(-15.77)"/><path class="cls-2" d="M2431.89,1086.89l39.34,139.34,368.08-103.91L2800,983Zm394.62,10.2a22.28,22.28,0,0,1-15.39,27.51l-316.91,89.47a20,20,0,0,1-24.63-13.78l-25-88.47a22,22,0,0,1,15.18-27.13l315.71-89.14A21.52,21.52,0,0,1,2802,1010.4Z" transform="translate(-2262.52 -600.87)"/><path class="cls-2" d="M2679.64,1092.17a45.08,45.08,0,1,0-31.13,55.63A45.07,45.07,0,0,0,2679.64,1092.17Z" transform="translate(-2262.52 -600.87)"/><path class="cls-13" d="M2820.49,960.14l49.34,174.76-325.8,92c15.07-9.45,153.11-54.89,181.53-117.88,34.48-76.44,7.44-118.33,8.17-124.37Z" transform="translate(-2262.52 -600.87)"/><rect class="cls-1" x="2872.41" y="1010.1" width="433.01" height="181.59" transform="translate(-2267.31 -587.35) rotate(-0.25)"/><path class="cls-2" d="M2896.67,1027.33l.63,144.79,382.47-1.67-.64-144.79Zm377.51,115.39A22.27,22.27,0,0,1,3252,1165.1l-329.29,1.44a19.94,19.94,0,0,1-20-19.86l-.41-91.93a22,22,0,0,1,21.88-22.08l328.06-1.43a21.51,21.51,0,0,1,21.6,21.41Z" transform="translate(-2262.52 -600.87)"/><path class="cls-2" d="M3088.7,1053.81a45.08,45.08,0,1,0,45.28,44.88A45.09,45.09,0,0,0,3088.7,1053.81Z" transform="translate(-2262.52 -600.87)"/><path class="cls-13" d="M3305,1009.15l.79,181.59-338.54,1.48c17.06-5.07,162.22-11.92,206.44-65,53.68-64.43,38.83-112,41.15-117.65Z" transform="translate(-2262.52 -600.87)"/><path class="cls-10" d="M3041.45,1140.59a111,111,0,1,0-43.63,150.83A111,111,0,0,0,3041.45,1140.59Z" transform="translate(-2262.52 -600.87)"/><circle class="cls-11" cx="2935.74" cy="1198.86" r="111.02" transform="translate(-2461.13 1079.37) rotate(-30.94)"/><path class="cls-12" d="M2936.52,1301.21a101.22,101.22,0,1,1,48.69-12.61A101.48,101.48,0,0,1,2936.52,1301.21Zm-.28-196.36a95.41,95.41,0,1,0,26.56,3.79A94.63,94.63,0,0,0,2936.24,1104.85Z" transform="translate(-2262.52 -600.87)"/><path class="cls-12" d="M2962.74,1219a16.79,16.79,0,0,0-3-5,12.25,12.25,0,0,0-4.53-3.07,23.06,23.06,0,0,0-6.47-1.44,60.58,60.58,0,0,0-8.82-.06,159.6,159.6,0,0,1-16.22,0,50.53,50.53,0,0,1-13.48-2.44,29.68,29.68,0,0,1-10.58-6.2,33.39,33.39,0,0,1-9.84-23.45,28.08,28.08,0,0,1,2.66-11.41,35.12,35.12,0,0,1,7.25-10.1,46.92,46.92,0,0,1,11.49-8.18l-6.32-15.55,12.53-5.09,6.4,15.78a41.89,41.89,0,0,1,13.65-1.4,31.78,31.78,0,0,1,22.18,10.94,42.48,42.48,0,0,1,7.4,12.28l-22.62,9.18q-3.54-8.71-9.17-11.47a14.34,14.34,0,0,0-12.13-.12,18.42,18.42,0,0,0-5.66,3.45,12.33,12.33,0,0,0-3.1,4.39,11.45,11.45,0,0,0-.78,5,16.58,16.58,0,0,0,1.25,5.33,15.56,15.56,0,0,0,2.76,4.55,11.38,11.38,0,0,0,4.34,2.94,23,23,0,0,0,6.5,1.42,76.21,76.21,0,0,0,9.24.19q8.74-.24,16.17.21a50.85,50.85,0,0,1,13.47,2.53,28.64,28.64,0,0,1,18,17.45,30.62,30.62,0,0,1,2.43,12.39,27.82,27.82,0,0,1-2.73,11.36,33.89,33.89,0,0,1-7.4,9.95,50.87,50.87,0,0,1-11.61,8.1l5.87,14.46-12.44,5.06-5.85-14.4a56.31,56.31,0,0,1-13.71,2.27,35.8,35.8,0,0,1-13.31-1.92,32.14,32.14,0,0,1-11.72-7.31,39,39,0,0,1-8.9-13.83l22.62-9.18a24,24,0,0,0,4.95,8,15.44,15.44,0,0,0,6.11,3.95,15.07,15.07,0,0,0,6.7.67,25.88,25.88,0,0,0,6.64-1.72A21.62,21.62,0,0,0,2959,1234a14.56,14.56,0,0,0,3.6-4.5,11.45,11.45,0,0,0,1.2-5.11A13.9,13.9,0,0,0,2962.74,1219Z" transform="translate(-2262.52 -600.87)"/><path class="cls-10" d="M2830,1038.57a83.42,83.42,0,1,0-75.92,90.3A83.42,83.42,0,0,0,2830,1038.57Z" transform="translate(-2262.52 -600.87)"/><path class="cls-11" d="M2822.71,1039.2a83.42,83.42,0,1,0-75.92,90.3A83.42,83.42,0,0,0,2822.71,1039.2Z" transform="translate(-2262.52 -600.87)"/><path class="cls-12" d="M2739.63,1123.38a76.11,76.11,0,0,1-75.67-69.46h0a76,76,0,1,1,82.28,69.18C2744,1123.29,2741.81,1123.38,2739.63,1123.38Zm-71.15-69.85a71.47,71.47,0,1,0,65-77.36,71.55,71.55,0,0,0-65,77.36Z" transform="translate(-2262.52 -600.87)"/><path class="cls-12" d="M2752,1068.45a12.7,12.7,0,0,0-.56-4.38,9.06,9.06,0,0,0-2.18-3.49,17,17,0,0,0-4-3,44.57,44.57,0,0,0-6-2.73,119.89,119.89,0,0,1-11.14-4.93,37.52,37.52,0,0,1-8.52-5.78,22.45,22.45,0,0,1-5.38-7.49,23,23,0,0,1-1.68-10,22.75,22.75,0,0,1,2.07-9.07,21,21,0,0,1,5.3-7,26.45,26.45,0,0,1,8-4.73,35.42,35.42,0,0,1,10.39-2.12l.4-12.61,10.15.33-.41,12.78a31.87,31.87,0,0,1,9.81,3.2,23.82,23.82,0,0,1,11.89,14.27,31.59,31.59,0,0,1,1.34,10.69l-18.33-.58q.23-7.07-2.8-10.68a10.73,10.73,0,0,0-8.29-3.77,13.56,13.56,0,0,0-4.94.64,9.28,9.28,0,0,0-3.47,2.07,8.8,8.8,0,0,0-2.07,3.21,12.83,12.83,0,0,0-.76,4,11.41,11.41,0,0,0,.51,4,8.55,8.55,0,0,0,2.08,3.34,17.46,17.46,0,0,0,4,3,59,59,0,0,0,6.29,2.94q6.09,2.51,11.05,5.07a38.18,38.18,0,0,1,8.48,5.85,22.49,22.49,0,0,1,5.38,7.51,25.28,25.28,0,0,1-.42,19.22,20.82,20.82,0,0,1-5.33,7,25.46,25.46,0,0,1-8.12,4.58,37.79,37.79,0,0,1-10.44,2l-.38,11.72-10.08-.32.37-11.66a43,43,0,0,1-10.11-2.62,27.17,27.17,0,0,1-8.56-5.38,24.27,24.27,0,0,1-5.82-8.59,29.5,29.5,0,0,1-1.9-12.21l18.34.58a18,18,0,0,0,.95,7,11.74,11.74,0,0,0,3,4.58,11.35,11.35,0,0,0,4.4,2.5,19.5,19.5,0,0,0,5.09.84,16.38,16.38,0,0,0,5.25-.6,10.77,10.77,0,0,0,3.84-2,8.63,8.63,0,0,0,2.39-3.14A10.55,10.55,0,0,0,2752,1068.45Z" transform="translate(-2262.52 -600.87)"/><path class="cls-10" d="M2805.6,814.28a43.6,43.6,0,1,0-15,59.82A43.61,43.61,0,0,0,2805.6,814.28Z" transform="translate(-2262.52 -600.87)"/><path class="cls-11" d="M2802.33,816.24a43.6,43.6,0,1,0-14.95,59.81A43.59,43.59,0,0,0,2802.33,816.24Z" transform="translate(-2262.52 -600.87)"/><path class="cls-12" d="M2765.28,878.82a39.74,39.74,0,0,1-34.13-19.28h0a39.75,39.75,0,1,1,34.13,19.28Zm-32.1-20.49A37.35,37.35,0,1,0,2746,807.08a37.4,37.4,0,0,0-12.82,51.25Z" transform="translate(-2262.52 -600.87)"/><path class="cls-12" d="M2775.83,846.18a6.45,6.45,0,0,0-1.26-1.93,4.75,4.75,0,0,0-1.83-1.14,8.85,8.85,0,0,0-2.55-.47,23.54,23.54,0,0,0-3.47.1,59.24,59.24,0,0,1-6.36.24,19.85,19.85,0,0,1-5.32-.76,11.81,11.81,0,0,1-4.25-2.28,12,12,0,0,1-3.08-4.33,11.78,11.78,0,0,1-1.11-4.73,11,11,0,0,1,.87-4.52,14.28,14.28,0,0,1,2.7-4.07,18.47,18.47,0,0,1,4.4-3.37l-2.7-6,4.84-2.18,2.74,6.1a16.21,16.21,0,0,1,5.33-.74,12.67,12.67,0,0,1,4.82,1.07,12.9,12.9,0,0,1,4,2.9,16.64,16.64,0,0,1,3.08,4.71L2768,828.7a8.11,8.11,0,0,0-3.76-4.37,5.6,5.6,0,0,0-4.76.13,7.11,7.11,0,0,0-2.18,1.43,4.94,4.94,0,0,0-1.15,1.77,4.55,4.55,0,0,0-.24,2,6.68,6.68,0,0,0,.57,2.07,6,6,0,0,0,1.15,1.75,4.39,4.39,0,0,0,1.74,1.09,9.15,9.15,0,0,0,2.58.47,32.59,32.59,0,0,0,3.62-.06q3.43-.23,6.35-.15a19.55,19.55,0,0,1,5.33.8,11.75,11.75,0,0,1,4.25,2.29,13.21,13.21,0,0,1,4.2,9.12,10.84,10.84,0,0,1-.9,4.5,13.35,13.35,0,0,1-2.76,4,20.18,20.18,0,0,1-4.45,3.35l2.52,5.59-4.81,2.16-2.5-5.56a22.49,22.49,0,0,1-5.35,1.08,14.25,14.25,0,0,1-5.26-.56,12.8,12.8,0,0,1-4.7-2.7,15.4,15.4,0,0,1-3.69-5.3l8.75-3.93a9.38,9.38,0,0,0,2,3.08,6.07,6.07,0,0,0,2.46,1.46,5.88,5.88,0,0,0,2.64.17,10.22,10.22,0,0,0,2.58-.77,8.5,8.5,0,0,0,2.33-1.49,5.71,5.71,0,0,0,1.35-1.82,4.71,4.71,0,0,0,.4-2A5.48,5.48,0,0,0,2775.83,846.18Z" transform="translate(-2262.52 -600.87)"/><path class="cls-10" d="M2962.74,660.59A43.6,43.6,0,1,0,2994,713.73,43.6,43.6,0,0,0,2962.74,660.59Z" transform="translate(-2262.52 -600.87)"/><path class="cls-11" d="M2959.06,659.63a43.6,43.6,0,1,0,31.27,53.14A43.61,43.61,0,0,0,2959.06,659.63Z" transform="translate(-2262.52 -600.87)"/><path class="cls-12" d="M2948,742.07a39.73,39.73,0,0,1-38.45-49.69h0A39.72,39.72,0,1,1,2948,742.07Zm-.06-77.1a37.42,37.42,0,0,0-36.1,28h0a37.36,37.36,0,1,0,45.53-26.79A37.53,37.53,0,0,0,2947.93,665Z" transform="translate(-2262.52 -600.87)"/><path class="cls-12" d="M2950.4,714.87a6.56,6.56,0,0,0,.48-2.26,4.63,4.63,0,0,0-.46-2.09,9,9,0,0,0-1.45-2.16,24.7,24.7,0,0,0-2.51-2.4c-1.74-1.49-3.28-3-4.63-4.36a19.84,19.84,0,0,1-3.19-4.34,11.6,11.6,0,0,1-1.35-4.62,13.18,13.18,0,0,1,3.52-9.35,11.15,11.15,0,0,1,3.84-2.54,13.93,13.93,0,0,1,4.79-.92,18.38,18.38,0,0,1,5.49.76l2.39-6.14,4.94,1.93-2.42,6.23a16.53,16.53,0,0,1,4.27,3.28,12.53,12.53,0,0,1,3.38,9.1,16.91,16.91,0,0,1-1.2,5.51l-8.93-3.48q1.33-3.45.47-5.75a5.6,5.6,0,0,0-3.43-3.31,7,7,0,0,0-2.54-.54,4.76,4.76,0,0,0-2.07.41,4.67,4.67,0,0,0-1.58,1.22,7.09,7.09,0,0,0-1.08,1.86,6.05,6.05,0,0,0-.44,2.05,4.43,4.43,0,0,0,.45,2,9,9,0,0,0,1.47,2.16,31.41,31.41,0,0,0,2.58,2.54c1.71,1.53,3.23,3,4.56,4.43a19.47,19.47,0,0,1,3.16,4.35,11.74,11.74,0,0,1,1.35,4.64,13.23,13.23,0,0,1-3.56,9.4,11,11,0,0,1-3.84,2.5,13.2,13.2,0,0,1-4.79.84,19.57,19.57,0,0,1-5.5-.82l-2.23,5.72-4.91-1.92,2.21-5.68a22.18,22.18,0,0,1-4.52-3.06,13.83,13.83,0,0,1-3.28-4.13,12.61,12.61,0,0,1-1.38-5.25,15.46,15.46,0,0,1,1.19-6.35l8.93,3.48a9.61,9.61,0,0,0-.75,3.63,6.09,6.09,0,0,0,.68,2.77,6,6,0,0,0,1.73,2,10.25,10.25,0,0,0,2.36,1.3,8.55,8.55,0,0,0,2.7.62,5.59,5.59,0,0,0,2.24-.32,4.41,4.41,0,0,0,1.72-1.13A5.52,5.52,0,0,0,2950.4,714.87Z" transform="translate(-2262.52 -600.87)"/><path class="cls-10" d="M3047.71,1027.91a34.33,34.33,0,1,1,47.11,11.78A34.33,34.33,0,0,1,3047.71,1027.91Z" transform="translate(-2262.52 -600.87)"/><path class="cls-11" d="M3045.14,1029.46a34.34,34.34,0,1,1,47.11,11.77A34.34,34.34,0,0,1,3045.14,1029.46Z" transform="translate(-2262.52 -600.87)"/><path class="cls-12" d="M3074.85,1043.41a31.29,31.29,0,0,1-26.88-15.18h0a31.3,31.3,0,1,1,26.88,15.18Zm-25.28-16.14a29.41,29.41,0,1,0,10.09-40.36,29.44,29.44,0,0,0-10.09,40.36Z" transform="translate(-2262.52 -600.87)"/><path class="cls-12" d="M3083.16,1017.71a5.08,5.08,0,0,0-1-1.52,4,4,0,0,0-1.43-.9,7.28,7.28,0,0,0-2-.37,18.78,18.78,0,0,0-2.73.08,49.24,49.24,0,0,1-5,.19,15.92,15.92,0,0,1-4.19-.6,9.09,9.09,0,0,1-3.34-1.8,9.46,9.46,0,0,1-2.43-3.4,9.36,9.36,0,0,1-.88-3.73,8.72,8.72,0,0,1,.69-3.56,11.17,11.17,0,0,1,2.13-3.2,14.61,14.61,0,0,1,3.46-2.66l-2.13-4.74,3.81-1.71,2.16,4.8a13.07,13.07,0,0,1,4.21-.58,9.78,9.78,0,0,1,7,3.13,13,13,0,0,1,2.43,3.71l-6.89,3.09a6.35,6.35,0,0,0-3-3.44,4.44,4.44,0,0,0-3.75.1,5.47,5.47,0,0,0-1.71,1.13,3.84,3.84,0,0,0-.91,1.39,3.57,3.57,0,0,0-.19,1.56,5.58,5.58,0,0,0,.45,1.64,4.88,4.88,0,0,0,.91,1.37,3.45,3.45,0,0,0,1.37.86,7.08,7.08,0,0,0,2,.37,23.53,23.53,0,0,0,2.85,0c1.8-.11,3.47-.16,5-.12a16,16,0,0,1,4.2.63,8.86,8.86,0,0,1,5.76,5.19,9.53,9.53,0,0,1,.9,3.8,8.56,8.56,0,0,1-.72,3.54,10.45,10.45,0,0,1-2.17,3.16,16.05,16.05,0,0,1-3.5,2.64l2,4.4-3.79,1.7-2-4.38a17.5,17.5,0,0,1-4.21.86,11.05,11.05,0,0,1-4.14-.45,9.91,9.91,0,0,1-3.7-2.12,12.21,12.21,0,0,1-2.91-4.18l6.89-3.09a7.45,7.45,0,0,0,1.62,2.43,4.86,4.86,0,0,0,1.93,1.15,4.71,4.71,0,0,0,2.08.13,8.49,8.49,0,0,0,2-.61,6.46,6.46,0,0,0,1.84-1.17,4.54,4.54,0,0,0,1.06-1.43,3.55,3.55,0,0,0,.31-1.6A4.27,4.27,0,0,0,3083.16,1017.71Z" transform="translate(-2262.52 -600.87)"/><path class="cls-12" d="M2655.79,994.57s-23.94-16.86-41.87-13.55-37.36,26.39-37.36,26.39,35.82,4,49.09-1.06S2655.79,994.57,2655.79,994.57Z" transform="translate(-2262.52 -600.87)"/><path class="cls-2" d="M3050.44,959.82s40.84-22.2,56.41-14.85,23.85,24.82,23.85,24.82-18.89,1.89-33.52,1.19S3072.63,957.16,3050.44,959.82Z" transform="translate(-2262.52 -600.87)"/><path class="cls-12" d="M3115.59,789.51s27.29-13.5,39.53-10.35,24.61,10.35,24.61,10.35-15.2,9.16-30,8.53S3115.59,789.51,3115.59,789.51Z" transform="translate(-2262.52 -600.87)"/><path class="cls-12" d="M2937.62,650.44s-14.09-17.47-9.17-30.22,9.17-19.35,9.17-19.35,12.89,14.63,12.35,24.78S2937.62,650.44,2937.62,650.44Z" transform="translate(-2262.52 -600.87)"/><path class="cls-2" d="M2995.42,681.23s-3.3-22,6.9-28.28,26.56-6.29,26.56-6.29-2.51,18.57-9.44,22.66S2998.46,675.65,2995.42,681.23Z" transform="translate(-2262.52 -600.87)"/><path class="cls-2" d="M2838.22,1267s13.79,19.51,14.42,26.43-19.46,24.55-19.46,24.55-6.5-17-3.67-25.49S2838.22,1267,2838.22,1267Z" transform="translate(-2262.52 -600.87)"/><path class="cls-2" d="M2812.57,1155.5s-20.5,6.92-23.33,18.25-1.89,19.44-1.89,19.44S2817,1178.79,2812.57,1155.5Z" transform="translate(-2262.52 -600.87)"/><path class="cls-2" d="M2818.82,1155.5s6.33,7.24,6.47,12.27-3.23,9.43-3.23,9.43S2814.59,1171.19,2818.82,1155.5Z" transform="translate(-2262.52 -600.87)"/><path class="cls-14" d="M3200.73,1095.48c.06-1.66,1.34-19.53,28.57-20.46,0,0-13.39,1.59-15.7,7.48,0,0,9.11-7.27,16.53-4.94s11.79,15.35,11.83,19.63-4.08,18.06-8.79,19.24a14.44,14.44,0,0,1-5.71,0,62.55,62.55,0,0,1,3.66,6.53c10.86,22.3-.34,44.09-9.54,41.69-5.89-1.55-7.56,8.51-7.56,8.51l-57.31-46.38S3177.76,1083.22,3200.73,1095.48Z" transform="translate(-2262.52 -600.87)"/><path class="cls-15" d="M2926.92,1439l-1.32,8.41c-1.37,3.11-3.43,10.47-4.43,13.76h-12.29C2917.88,1450.14,2926.92,1439,2926.92,1439Z" transform="translate(-2262.52 -600.87)"/><path class="cls-16" d="M3180.78,1752.43,3193,1757s52.87-73.33,59.37-137.84c1.17-11.51.78-22.67-1.74-33,0,0,.52-3,1.43-8.17.41-2.43.93-5.36,1.52-8.72,1.72-9.85,4.08-23.32,6.78-38.67,6.22-35.3,14.28-80.44,20.54-113.62l-3.28-1-35.48-11.45-7.34-23.29-26.42-7s-5.9,11.55-11.18,66.09c-1,7.16-1.86,15-2.52,23.61a466.76,466.76,0,0,0,2.51,95.54q1.83,14.22,4.64,29.32c1.4,7.38,1.6,17.43,1,29C3200.13,1670.47,3180.78,1752.43,3180.78,1752.43Z" transform="translate(-2262.52 -600.87)"/><path class="cls-17" d="M3194.63,1463.91,3252,1578c.41-2.43.93-5.36,1.52-8.72,1.72-9.85,4.08-23.32,6.78-38.67,6.22-35.3,14.28-80.44,20.54-113.62l-3.28-1-35.48-11.45-7.34-23.29-26.42-7s-5.9,11.55-11.18,66.09C3196.18,1447.46,3195.29,1455.35,3194.63,1463.91Z" transform="translate(-2262.52 -600.87)"/><path class="cls-16" d="M3219.87,1388.85l1.33-11.39c22.25,5.91,81.71-16.51,81.71-16.51s21.56,18.94,18.73,64.37c-1.39,22.17-3.91,116.38-6.55,144.26-1,10.1-1.78,17.29-2.12,20.17v0a4,4,0,0,0,.65,2.47,130.87,130.87,0,0,1,9.72,20.46c25.87,68.94-4,153.83-4,153.83l-7.75-3.12s-17-94.48-30.79-136.22c-2.34-7.08-4.59-12.64-6.65-16-6-9.69-11.57-25.52-16.62-44.34-9.56-35.59-17.25-81.89-22.37-117.63C3234.47,1449.29,3219.87,1388.85,3219.87,1388.85Z" transform="translate(-2262.52 -600.87)"/><path class="cls-18" d="M3189.36,1247.92a38.62,38.62,0,0,0-6.82-13.63,7,7,0,0,0-1.29-1.56,31.78,31.78,0,0,0-8.75-7.46c-2.21-.93-4.61.18-7.09,2.85v.09a42.09,42.09,0,0,0-6.36,9.4c-.09.09-.18.18-.18.28-.46.82-.92,1.75-1.48,2.76a2.64,2.64,0,0,0-.37.64q-1.51,3.18-3,6.63c-11.32,24.69-23.39,62.09-33.43,73.23-4.33,4.79-24.14,14.19-39.89,21.19-11.33,5-20.54,8.66-20.54,8.66s-11.35-2.22-13.95,0-14.91,14.72-12.27,18.83,15.28-3.4,17.9-4.11,10-3.58,10-3.58.74,0,2-.09c4.05-.28,13.91-.83,25.05-2,16.77-1.65,36.66-4.6,44.58-9.48,12.07-7.37,31.87-29.94,44.77-52.51a15.14,15.14,0,0,0,.92-1.65c6.73-12,11.42-23.86,11.79-33.35A47.78,47.78,0,0,0,3189.36,1247.92Z" transform="translate(-2262.52 -600.87)"/><path class="cls-18" d="M3177.36,1250.7a69.51,69.51,0,0,0,25.63,6c38.25,2.09,46.94-31.44,48.52-53.7a32,32,0,0,0-13.13-1.66c-2.71.15-5.54.43-7.88.71-4.68-2.44-13.08-14.32-17.95-34.18l-1.64.77-27.61,13s2.93,9,5.1,17.58c1.69,6.73,2.9,13.23,1.89,15-2.18.88-3.48,1.44-3.48,1.44v0A189.18,189.18,0,0,0,3177.36,1250.7Z" transform="translate(-2262.52 -600.87)"/><path class="cls-19" d="M3183.3,1181.62s2.93,9,5.1,17.58c16.13-4.51,21-21.47,22.51-30.56Z" transform="translate(-2262.52 -600.87)"/><path class="cls-18" d="M3179.9,1191.12s38.61-8.93,32.67-32.89-4.94-41.24-29.84-36.55-27.41,15-27.37,23.49S3169.71,1192.83,3179.9,1191.12Z" transform="translate(-2262.52 -600.87)"/><path class="cls-14" d="M3153.19,1131.57c4.15-8.68,9-8.22,12.09-6.68,18.14-16.78,35.93-3.07,35.93-3.07a47.16,47.16,0,0,0,21.69,23.3s-5.93,6.08-23.12,5.94c-5.25,0-10.53-2.45-15.33-5.77a92.37,92.37,0,0,0,20.12,15c-21.51-4.12-35.94-29-37.42-31.67-1.82,2.69-5.31,8.42-5.6,13.26-.4,6.57,1.86,19.34-1.9,19.83C3159.65,1161.72,3147,1144.59,3153.19,1131.57Z" transform="translate(-2262.52 -600.87)"/><path class="cls-20" d="M3287.78,1317a34.93,34.93,0,0,1-3.62-4.87,34.1,34.1,0,0,1-4.89-14.27c-2.11-20.06-1.31-38.86-1.49-50.29h0c-2.1-1.56-4.14-3-6-4.38a53.41,53.41,0,0,1-7.35-6.1c-2.08-2.18-3.38-4.42-3.53-6.94a36.79,36.79,0,0,1,.15-5.83c.09-.92.21-1.85.35-2.77a79,79,0,0,1,5.54-18.51c-10.26-4.16-28.52-1.68-28.52-1.68s0,1,0,2.67c.06,6.67,0,23.79-2.13,27-2.68,4-51.58,21.71-54.16,16.24s4.42-30.62,4.68-31.57v0c-16.32,6.4-22.19,11.78-22.23,11.82h0s-9.3,16.21-10.69,20.39c0,0,6.9-.27,12.37,3.62-1.05,7.58-1.58,16,1.53,24.29.29.76.6,1.51.95,2.27,9.69,20.87,27.63,107.31,27.63,107.31-2.56,15.54,116.8-3.05,117.11-17.2C3317.68,1353.18,3298.56,1329.07,3287.78,1317Z" transform="translate(-2262.52 -600.87)"/><path class="cls-21" d="M3228.5,1356.34c23.54-.25,43.48-24.7,55.66-44.23a34.1,34.1,0,0,1-4.89-14.27c-2.11-20.06-1.31-38.86-1.49-50.29h0c-2.1-1.56-4.14-3-6-4.38a53.41,53.41,0,0,1-7.35-6.1C3245.11,1269.66,3196.59,1356.67,3228.5,1356.34Z" transform="translate(-2262.52 -600.87)"/><path class="cls-17" d="M3274.31,1772.86h61.3s1.47-9.34-1.73-16.43c-3.07-6.8-7.87-9.89-6.72-18.12-3.9,4-10.25,8.5-19.11,7.31-1.09,1.76-7,11.18-10.64,13.78C3293.41,1762.28,3275.54,1761.26,3274.31,1772.86Z" transform="translate(-2262.52 -600.87)"/><path class="cls-17" d="M3142.69,1772.86H3204s2.29-9.78-1.73-16.43c-3.57-5.89-2.2-9.24.44-14.11a23.88,23.88,0,0,1-10.33,1.94,21.52,21.52,0,0,1-9.12-3.21c-2.63,3-13.93,15.82-17.46,18.35C3161.78,1762.28,3143.92,1761.26,3142.69,1772.86Z" transform="translate(-2262.52 -600.87)"/><path class="cls-22" d="M3135.88,1423.77l-14.57-35.54a9.85,9.85,0,0,0-11.71-5.74,60.71,60.71,0,0,0-19-21.62c-7.95-5.47-16.86-8.48-25.66-8.44a36.24,36.24,0,0,0-13.69,2.71c-20.71,8.49-30,34.66-22.39,60.36l-1.14.46s-3.54-.25-9.48-.25c-18.76,0-61.4,2.5-91.32,23.28a8.28,8.28,0,0,0-2,5.06,7.9,7.9,0,0,0,.63,3.35s48-31.1,92.46.86c2.73,2,5.37,3.77,7.95,5.45l4,9.72a31.77,31.77,0,0,0,41.33,17.3l40.68-16.68,8.48-3.47A28.29,28.29,0,0,0,3135.88,1423.77ZM3057,1395l-16.57,6.8a9.71,9.71,0,0,0-5.71,11.34l-1.77.73c-6.75-23.42,1.48-47,20-54.61a31.12,31.12,0,0,1,8-2.11c8.52-1.12,17.39,1.17,25.37,6.15a55.85,55.85,0,0,1,19.21,20.83l-2.44,1a9.72,9.72,0,0,0-12-4.07l-16.58,6.79a8.2,8.2,0,0,0-7.6-5.07,8.1,8.1,0,0,0-3.07.6l-2.29.94A8.2,8.2,0,0,0,3057,1395Z" transform="translate(-2262.52 -600.87)"/><path class="cls-23" d="M3026,1453.71c-2.58-1.68-5.22-3.5-7.95-5.45-44.43-32-92.46-.86-92.46-.86a7.9,7.9,0,0,1-.63-3.35c6.72-4.43,31.92-19.16,63.15-14.13C3024.69,1435.82,3031.31,1440.91,3026,1453.71Z" transform="translate(-2262.52 -600.87)"/><path class="cls-23" d="M3120.47,1460.58l-8.48,3.47c12.71-6.93-3-36.25-12.24-55.61s-23.13-10.5-23.13-10.5a11.07,11.07,0,0,0-10-6.14c-.35-6.25-5.12-7.51-5.12-7.51l2.29-.94a8.1,8.1,0,0,1,3.07-.6,8.2,8.2,0,0,1,7.6,5.07L3091,1381a9.72,9.72,0,0,1,12,4.07l2.44-1a55.85,55.85,0,0,0-19.21-20.83c-8-5-16.85-7.27-25.37-6.15a18.09,18.09,0,0,0,4.05-4.68c8.8,0,17.71,3,25.66,8.44a60.71,60.71,0,0,1,19,21.62,9.85,9.85,0,0,1,11.71,5.74l14.57,35.54A28.29,28.29,0,0,1,3120.47,1460.58Z" transform="translate(-2262.52 -600.87)"/><path class="cls-18" d="M3280.36,1233.37c-.18-26.71-13.45-30.39-13.45-30.39a7.93,7.93,0,0,0-.92-.28c-2.3-.37-4.7,1.2-7.18,4.24-3.14,3.77-6.45,9.94-9.86,17.4-5.25,11.89-10.78,27.27-15.93,42.56-2.86,8.38-5.62,16.76-8.39,24.5-1.56,4.7-3.13,9.12-4.6,13.17-2.86,7.74-5.44,14-7.74,18-1.47,2.58-5.71,6.18-11.33,10.23-9.76,7.09-24,15.66-36.48,22.66-5.15,2.95-10,5.62-14.09,7.83-3.41.73-20.72,4.42-28.83,2.58-9.12-2.12-24.41,8.84-24.41,8.84s-1.66,3.5,4.24,5.89,14.18,11.15,27.45,5.9a207.38,207.38,0,0,1,24.41-7.46c1.93-.37,3-.65,3-.65,5.16-1,11.33-2.39,18.05-3.87h.09c11.52-2.76,24.41-6.07,35.28-9.76,7.65-2.67,14.28-5.52,18.79-8.38a11.43,11.43,0,0,0,1.29-.92c10.78-7.83,23.58-30.86,33.53-55.54,1.38-3.41,2.67-6.82,4-10.14a251.15,251.15,0,0,0,10.5-35,99.65,99.65,0,0,0,2.49-16.67A41.73,41.73,0,0,0,3280.36,1233.37Z" transform="translate(-2262.52 -600.87)"/><path class="cls-20" d="M3249,1224.38c17.74-4.89,31.41,9,31.41,9-.22-26.67-13.49-30.32-13.49-30.32C3261.56,1200.81,3255.37,1210.06,3249,1224.38Z" transform="translate(-2262.52 -600.87)"/><path class="cls-18" d="M2564.14,1159.45s22.36,24.21,47.49,14.42c0,0,2.78-13.87,2.86-23.51,0-1.19,0-2.34,0-3.43.13-10.85.5-16.94.5-16.94h0c-1.14-.47-38.41-15.78-38.38-14.5C2577.26,1144.83,2564.14,1159.45,2564.14,1159.45Z" transform="translate(-2262.52 -600.87)"/><path class="cls-24" d="M2580.36,1122.47c3.6,6.67,15.93,19.7,34.17,24.46.13-10.85.5-16.94.5-16.94h0C2614,1129.71,2579.29,1120.51,2580.36,1122.47Z" transform="translate(-2262.52 -600.87)"/><path class="cls-18" d="M2622.83,1128.86s-41.91,9.85-47.65-16.34-15-42.57,11.52-50,33.92,1.46,38,9.73S2633.59,1125.62,2622.83,1128.86Z" transform="translate(-2262.52 -600.87)"/><path class="cls-25" d="M2576.62,1119.65c-.57.37-9.59,3.14-26.67-30.88-2.68-5.34-4.51-16.9,1.74-27.11s28.41-18.23,46.82-21.73,22.83,6.87,27.17,17.28c4.55,10.93,17.7,19.93,17.7,19.93-15.88,8.87-35-3.81-41.63-1.73s-9,12.53-9.46,15.87-1.26,6.13-9.59,3.14-3.77,11.81-2.43,14.64C2580.27,1109.06,2581.4,1116.59,2576.62,1119.65Z" transform="translate(-2262.52 -600.87)"/><path class="cls-14" d="M2468.65,1772.93h-25.38c-5.32,0-11.23-5.33-12.71-15.08s-12.42-15.08-14.79-23.07,9.76-19.22,9.76-19.22l2-2.6,2.11-2.72,20.1,4.73s.5,4.79.81,10.88c.21,4.41.33,9.5.08,14-.59,10.65,3,22.11,12.44,24.18S2468.65,1772.93,2468.65,1772.93Z" transform="translate(-2262.52 -600.87)"/><path class="cls-14" d="M2645.33,1772.93h-67.28a6,6,0,0,1-1.42-.42c-4.5-2.25-3.09-19.44-2.55-24.76.1-1,.18-1.56.18-1.56s23.65-18.92,26.91-4.43c.1.45.22.9.35,1.33h0c4.1,13.56,22.46,19.71,33.06,21.43C2642.69,1765.85,2644.79,1770.57,2645.33,1772.93Z" transform="translate(-2262.52 -600.87)"/><path class="cls-16" d="M2631.77,1385s-3.6,44.82-7.82,98.7c-5.74,73.2-12.64,163.1-13.32,180.13-1.18,29.58-5.92,76.88-5.92,76.88s-11.23,11.24-33.71,6.51c0,0-20-67.54-25.75-139-.09-1.17-.17-2.35-.26-3.53-5.33-72.74-13.6-225.91-13.6-225.91Z" transform="translate(-2262.52 -600.87)"/><path class="cls-17" d="M2631.77,1385s-3.6,44.82-7.82,98.7l-78.7,124.53c-.09-1.17-.17-2.35-.26-3.53-5.33-72.74-13.6-225.91-13.6-225.91Z" transform="translate(-2262.52 -600.87)"/><path class="cls-16" d="M2615.36,1390.3s-64.75,162.34-107.33,238.62-55.89,97.58-55.89,97.58-24.39-9.76-26.61-16.41c0,0,16.28-147.28,44.8-183.18,16.11-20.28,35-81.16,35.92-102.45S2512,1361,2512,1361Z" transform="translate(-2262.52 -600.87)"/><path class="cls-18" d="M2467.68,1360.81l-.68,10.44s6.88,18.55-12.41,28.06c0,0-8.26,3.33-8.59-3.1s.72-4,.05-13.06,2.89-17.61,8.88-20.49l4.91-5.67Z" transform="translate(-2262.52 -600.87)"/><path class="cls-26" d="M2460.15,1368.41c7.17,2.3,8.31,1.78,8.31,1.78s34.89-63.51,38.42-69.32,74.07-71.23,74.07-71.23l-18.12-67.59s-80.23,103.88-88.89,118.79c-14.32,24.64-22.71,81.85-22.71,81.85A21,21,0,0,0,2460.15,1368.41Z" transform="translate(-2262.52 -600.87)"/><path class="cls-27" d="M2645.44,1256.18c-.25,13.88-1.06,29.49-2.15,45.33-.06.94-.13,1.88-.2,2.82-.69,9.82-1.45,19.66-2.31,29.26q-.53,5.78-1.11,11.39l-.05.5c0,1.4-.21,2.92-.36,4.3-3.54,35.94-7.24,64.34-7.93,64.78a4,4,0,0,1-2.76.7c-9.43-1.18-37.55,1-60.58-4-19.43-4.1-36.16-11.87-53.89-22.35-2.35-1.39-7.72-5.07-7.28-7.83.43-3,1.22-7.4,2.23-12.89,3.49-19.12,9.52-52,11.58-90.5q.6-10.76,1.74-21.22a321,321,0,0,1,9.39-50.66c7.89-28.43,23.81-49.73,38.36-58.25,1.9-1.07,7.82,5,17.22,11a41.44,41.44,0,0,0,26.7,6.33l7.82,8.65c9.48,11,19.56,25.67,22.31,46.5q.32,2.31.54,4.92A307.6,307.6,0,0,1,2645.44,1256.18Z" transform="translate(-2262.52 -600.87)"/><path class="cls-26" d="M2645.44,1256.18c-.25,13.88-1.06,29.49-2.15,45.33-.06.94-.13,1.88-.2,2.82C2589.25,1270.63,2581,1209,2581,1209c26.49,1.16,47.54,7.25,63.76,16A307.6,307.6,0,0,1,2645.44,1256.18Z" transform="translate(-2262.52 -600.87)"/><path class="cls-24" d="M2804.54,1196.83l9.8-5s6.32-20.86,30-17.87c0,0,9.61,2,5.59,7.94s-3.34,3.19-8.83,11.76-14.43,14.15-21.72,13.16l-8.2,2.16Z" transform="translate(-2262.52 -600.87)"/><path class="cls-27" d="M2814.13,1199.55c-2.77-7.51-7.09-7-7.09-7s-80.06,20-87.24,20.81-86.21-30.86-86.21-30.86-31.11-14-45.68-1.21c-12.66,11.08-13.23,25.11-10.27,36.89a35.23,35.23,0,0,0,29.77,26.25c32.24,4.1,96.57,11.83,110.05,9.95,30-4.17,98-43.42,98-43.42A25.25,25.25,0,0,0,2814.13,1199.55Z" transform="translate(-2262.52 -600.87)"/></svg>