<svg xmlns="http://www.w3.org/2000/svg" xmlns:xlink="http://www.w3.org/1999/xlink" viewBox="0 0 479.96 497.81"><defs><style>.cls-1{mask:url(#mask);}.cls-2,.cls-22,.cls-25,.cls-27,.cls-34,.cls-4,.cls-6,.cls-8{mix-blend-mode:multiply;}.cls-2{fill:url(#linear-gradient);}.cls-3{mask:url(#mask-2);}.cls-4{fill:url(#linear-gradient-2);}.cls-5{mask:url(#mask-3);}.cls-6{fill:url(#linear-gradient-3);}.cls-7{mask:url(#mask-4);}.cls-8{fill:url(#linear-gradient-4);}.cls-9{isolation:isolate;}.cls-10{mask:url(#mask-5);}.cls-11{fill:url(#linear-gradient-5);}.cls-12{fill:url(#linear-gradient-6);}.cls-13{fill:none;stroke:#b0c8ea;stroke-miterlimit:10;}.cls-14{fill:#b0c8ea;}.cls-15{mask:url(#mask-6);}.cls-16{fill:url(#linear-gradient-7);}.cls-17{fill:#ebf1fa;}.cls-18{mask:url(#mask-7);}.cls-19{fill:url(#linear-gradient-8);}.cls-20{fill:#ffcb0e;}.cls-21{fill:#fbb807;}.cls-22{fill:#f1f2f2;}.cls-23{fill:#1d4683;}.cls-24{fill:#feb204;}.cls-25,.cls-28{fill:#d1d3d4;}.cls-26{fill:#fff1d6;}.cls-29,.cls-30{fill:#fff;}.cls-30{opacity:0.3;}.cls-31{fill:#0c3879;}.cls-32{fill:#f1354e;}.cls-33{fill:#b54070;}.cls-34{fill:#e6e7e8;}.cls-35{mask:url(#mask-8);}.cls-36{fill:url(#linear-gradient-9);}.cls-37{fill:#e2aa8a;}.cls-38{fill:#f2b694;}.cls-39{fill:#d93046;}.cls-40{fill:#14315c;}.cls-41{fill:#2767c6;}.cls-42{opacity:0.28;}.cls-43{fill:#ed1c24;}.cls-44{filter:url(#luminosity-noclip-8);}.cls-45{filter:url(#luminosity-noclip-7);}.cls-46{filter:url(#luminosity-noclip-6);}.cls-47{filter:url(#luminosity-noclip-5);}.cls-48{filter:url(#luminosity-noclip-4);}.cls-49{filter:url(#luminosity-noclip-3);}.cls-50{filter:url(#luminosity-noclip-2);}.cls-51{filter:url(#luminosity-noclip);}</style><filter id="luminosity-noclip" x="193.03" y="-8490" width="458.2" height="32766" filterUnits="userSpaceOnUse" color-interpolation-filters="sRGB"><feFlood flood-color="#fff" result="bg"/><feBlend in="SourceGraphic" in2="bg"/></filter><mask id="mask" x="193.03" y="-8490" width="458.2" height="32766" maskUnits="userSpaceOnUse"><g class="cls-51"/></mask><linearGradient id="linear-gradient" x1="65.05" y1="510.21" x2="759.1" y2="120.78" gradientTransform="translate(-48.78 512.95) rotate(-65.23)" gradientUnits="userSpaceOnUse"><stop offset="0"/><stop offset="1" stop-color="#fff"/></linearGradient><filter id="luminosity-noclip-2" x="525.21" y="-8490" width="89.52" height="32766" filterUnits="userSpaceOnUse" color-interpolation-filters="sRGB"><feFlood flood-color="#fff" result="bg"/><feBlend in="SourceGraphic" in2="bg"/></filter><mask id="mask-2" x="525.21" y="-8490" width="89.52" height="32766" maskUnits="userSpaceOnUse"><g class="cls-50"/></mask><linearGradient id="linear-gradient-2" x1="742.52" y1="508.54" x2="653.67" y2="477.9" gradientTransform="matrix(-0.98, 0.22, 0.22, 0.98, 1109.74, -107.44)" xlink:href="#linear-gradient"/><filter id="luminosity-noclip-3" x="205.5" y="-8490" width="105.15" height="32766" filterUnits="userSpaceOnUse" color-interpolation-filters="sRGB"><feFlood flood-color="#fff" result="bg"/><feBlend in="SourceGraphic" in2="bg"/></filter><mask id="mask-3" x="205.5" y="-8490" width="105.15" height="32766" maskUnits="userSpaceOnUse"><g class="cls-49"/></mask><linearGradient id="linear-gradient-3" x1="1244.57" y1="352.7" x2="1128.09" y2="312.53" gradientTransform="translate(-638.87 -284.16) rotate(25.01)" xlink:href="#linear-gradient"/><filter id="luminosity-noclip-4" x="347.61" y="-8490" width="178.27" height="32766" filterUnits="userSpaceOnUse" color-interpolation-filters="sRGB"><feFlood flood-color="#fff" result="bg"/><feBlend in="SourceGraphic" in2="bg"/></filter><mask id="mask-4" x="347.61" y="-8490" width="178.27" height="32766" maskUnits="userSpaceOnUse"><g class="cls-48"/></mask><linearGradient id="linear-gradient-4" x1="431.95" y1="127.39" x2="282.83" y2="250.82" gradientTransform="matrix(1, 0, 0, 1, 0, 0)" xlink:href="#linear-gradient"/><filter id="luminosity-noclip-5" x="193.03" y="49.87" width="458.2" height="484.58" filterUnits="userSpaceOnUse" color-interpolation-filters="sRGB"><feFlood flood-color="#fff" result="bg"/><feBlend in="SourceGraphic" in2="bg"/></filter><mask id="mask-5" x="11.45" y="0" width="458.2" height="484.58" maskUnits="userSpaceOnUse"><g class="cls-47"><g transform="translate(-181.57 -49.87)"><g class="cls-1"><path class="cls-2" d="M220.89,483.66C210.32,494,199.42,512.1,193,534.45H595.26a563.07,563.07,0,0,0,31-73.75q2.61-7.72,5-15.51c1.38-4.48,2.68-9,3.9-13.51.37-1.36.75-2.72,1.11-4.08q4.62-17.5,7.91-35.07,1.67-8.94,2.95-17.89c.1-.59.17-1.17.26-1.75q1.82-13,2.81-25.88a359.19,359.19,0,0,0,.83-42.68q-.42-9.85-1.41-19.56a270.75,270.75,0,0,0-13.1-60.72q-2.92-8.55-6.3-16.67C608.53,154.85,575,116.11,536,90.23c-111.27-74-266.7-43.42-314,68.9C156.44,314.79,341.24,366.37,220.89,483.66Z"/></g></g></g></mask><linearGradient id="linear-gradient-5" x1="65.05" y1="510.21" x2="759.1" y2="120.78" gradientTransform="translate(-48.78 512.95) rotate(-65.23)" gradientUnits="userSpaceOnUse"><stop offset="0" stop-color="#fff"/><stop offset="1" stop-color="#7fc0ff"/></linearGradient><linearGradient id="linear-gradient-6" x1="170.81" y1="482.61" x2="650.77" y2="482.61" gradientUnits="userSpaceOnUse"><stop offset="0" stop-color="#7fc0ff"/><stop offset="0.06" stop-color="#8cc6ff"/><stop offset="0.26" stop-color="#b5dbff"/><stop offset="0.47" stop-color="#d5eaff"/><stop offset="0.66" stop-color="#ecf6ff"/><stop offset="0.84" stop-color="#fafdff"/><stop offset="1" stop-color="#fff"/></linearGradient><filter id="luminosity-noclip-6" x="525.21" y="483.83" width="89.52" height="48.64" filterUnits="userSpaceOnUse" color-interpolation-filters="sRGB"><feFlood flood-color="#fff" result="bg"/><feBlend in="SourceGraphic" in2="bg"/></filter><mask id="mask-6" x="343.64" y="433.96" width="89.52" height="48.64" maskUnits="userSpaceOnUse"><g class="cls-46"><g transform="translate(-181.57 -49.87)"><g class="cls-3"><path class="cls-4" d="M525.21,531.93s3.6-10.7,17.94-16c0,0,4.3-1.84,4.6-10.17s7.32-13.36,14.87-10.65,7.84,7.5,13.79.1,31.09-18.53,36.87-5.18-6.93,19.16-15,20.05-21.53,1.78-23,9.09-10.63-1.13-16.76.76-9.21,11.6-13,12.43S534.65,527.67,525.21,531.93Z"/></g></g></g></mask><linearGradient id="linear-gradient-7" x1="742.52" y1="508.54" x2="653.67" y2="477.9" gradientTransform="matrix(-0.98, 0.22, 0.22, 0.98, 1109.74, -107.44)" xlink:href="#linear-gradient-5"/><filter id="luminosity-noclip-7" x="205.5" y="443.96" width="105.15" height="83.6" filterUnits="userSpaceOnUse" color-interpolation-filters="sRGB"><feFlood flood-color="#fff" result="bg"/><feBlend in="SourceGraphic" in2="bg"/></filter><mask id="mask-7" x="23.93" y="394.1" width="105.15" height="83.6" maskUnits="userSpaceOnUse"><g class="cls-45"><g transform="translate(-181.57 -49.87)"><g class="cls-5"><path class="cls-6" d="M310.65,527.56s-1.64-14.7-18.53-25.45c0,0-5-3.55-3.07-14.31S283.39,468.65,273,470s-12.13,7.42-17.71-3.7-34.67-32.39-45.78-16.89S213,475.9,223.15,479.3s27.09,8.25,27,18S264,498.84,271.36,503s8.57,17.41,13.17,19.52S299.75,519.48,310.65,527.56Z"/></g></g></g></mask><linearGradient id="linear-gradient-8" x1="1244.57" y1="352.7" x2="1128.09" y2="312.53" gradientTransform="translate(-638.87 -284.16) rotate(25.01)" xlink:href="#linear-gradient-5"/><filter id="luminosity-noclip-8" x="347.61" y="50.17" width="178.27" height="115.21" filterUnits="userSpaceOnUse" color-interpolation-filters="sRGB"><feFlood flood-color="#fff" result="bg"/><feBlend in="SourceGraphic" in2="bg"/></filter><mask id="mask-8" x="166.04" y="0.3" width="178.27" height="115.21" maskUnits="userSpaceOnUse"><g class="cls-44"><g transform="translate(-181.57 -49.87)"><g class="cls-7"><polygon class="cls-8" points="347.61 153.56 414.55 50.17 525.88 141.26 360.26 165.38 347.61 153.56"/></g></g></g></mask><linearGradient id="linear-gradient-9" x1="250.38" y1="77.52" x2="101.26" y2="200.95" gradientUnits="userSpaceOnUse"><stop offset="0" stop-color="#fff"/><stop offset="1" stop-color="#fff"/></linearGradient></defs><title>passive-income-concept</title><g class="cls-9"><g id="Layer_1" data-name="Layer 1"><g class="cls-10"><path class="cls-11" d="M220.89,483.66C210.32,494,199.42,512.1,193,534.45H595.26a563.07,563.07,0,0,0,31-73.75q2.61-7.72,5-15.51c1.38-4.48,2.68-9,3.9-13.51.37-1.36.75-2.72,1.11-4.08q4.62-17.5,7.91-35.07,1.67-8.94,2.95-17.89c.1-.59.17-1.17.26-1.75q1.82-13,2.81-25.88a359.19,359.19,0,0,0,.83-42.68q-.42-9.85-1.41-19.56a270.75,270.75,0,0,0-13.1-60.72q-2.92-8.55-6.3-16.67C608.53,154.85,575,116.11,536,90.23c-111.27-74-266.7-43.42-314,68.9C156.44,314.79,341.24,366.37,220.89,483.66Z" transform="translate(-181.57 -49.87)"/></g><ellipse class="cls-12" cx="239.98" cy="482.61" rx="239.98" ry="15.2"/><path class="cls-13" d="M526.68,529s-5-12.06,3.41-27.65c0,0,2.35-4.9-3.76-12.37s-3.84-17.23,4.81-20.67,12.56.5,12.1-10.5,12.92-40,28.16-32.8,8.61,22,2.24,29-17.41,18.07-13.11,25.56-10.12,7.17-14,13.53.85,17.14-1.81,20.76S531.64,518.07,526.68,529Z" transform="translate(-181.57 -49.87)"/><path class="cls-14" d="M526.26,528.9q3-10.47,5.89-19.52l-.31-.51.57-.32c3.31-10.36,6.5-19.37,9.52-27.22a22.36,22.36,0,0,0-5.28-9.18l.62-.62a22.83,22.83,0,0,1,5.17,8.49,278.88,278.88,0,0,1,12.11-27.27c-.1-1.07-.94-9.81-2.93-12.34l.68-.54c1.78,2.25,2.66,8.59,3,11.48,1.52-2.87,2.93-5.36,4.22-7.49,8.43-14,13.63-16.73,13.84-16.84l.4.78s-5,2.67-12.86,15.47c2.45-.37,9-1.25,12.14-.52l-.19.85c-3.34-.77-11.21.43-12.54.64l-.16.26A203.58,203.58,0,0,0,548.32,468c2.49-1.11,8.72-3.71,12-3.61l0,.88c-3.51-.12-11.21,3.35-12.44,3.92-2.44,5.68-5,12.17-7.73,19.59a24.31,24.31,0,0,1,9.26-3.1l.07.88c-4.5.35-9,3-9.8,3.51q-3,8.19-6.09,17.9c2-1,5.33-2.47,7.39-2l-.19.85c-2.08-.48-5.9,1.41-7.58,2.34q-3,9.26-6,20Z" transform="translate(-181.57 -49.87)"/><g class="cls-15"><path class="cls-16" d="M525.21,531.93s3.6-10.7,17.94-16c0,0,4.3-1.84,4.6-10.17s7.32-13.36,14.87-10.65,7.84,7.5,13.79.1,31.09-18.53,36.87-5.18-6.93,19.16-15,20.05-21.53,1.78-23,9.09-10.63-1.13-16.76.76-9.21,11.6-13,12.43S534.65,527.67,525.21,531.93Z" transform="translate(-181.57 -49.87)"/></g><path class="cls-17" d="M563.89,500.82l.75-.06a19.69,19.69,0,0,1-1.38,8.48,241.54,241.54,0,0,1,23.21-11.05c.51-.72,4.89-6.95,5-9.74l.75,0c-.1,2.48-3.08,7.14-4.48,9.2q3.88-1.53,7-2.53c13.35-4.41,18.29-3.29,18.49-3.24l-.17.73s-4.75-1-17.08,2.9c1.8,1.13,6.58,4.26,8.22,6.5l-.61.44c-1.75-2.39-7.59-6-8.55-6.64l-.25.09a175.18,175.18,0,0,0-20.88,8.73c2.26.68,7.78,2.48,9.83,4.37l-.51.56c-2.22-2.06-9.2-4.12-10.33-4.44-4.77,2.35-10.1,5.15-16,8.49a20.81,20.81,0,0,1,7.79,3.18l-.45.61a21.25,21.25,0,0,0-8.37-3.21c-4.35,2.47-9,5.22-14,8.3,1.89.45,4.87,1.38,6,2.85l-.61.45c-1.08-1.48-4.64-2.39-6.26-2.74q-7.12,4.41-15.16,9.7l-.41-.63c5.22-3.45,10.14-6.59,14.79-9.47l.09-.5.55.1c8-4.92,15.11-9,21.48-12.47A19.21,19.21,0,0,0,563.89,500.82Z" transform="translate(-181.57 -49.87)"/><path class="cls-13" d="M309.58,523.42s9.82-14,3.32-36.37c0,0-1.65-6.93,8.26-14.8s9.71-21-.41-27.82-16.24-2.86-12.59-16.82-5.43-54.79-27-49.85-17.14,25.75-10.92,36.48,17.27,28,9.69,36.39,11,12,14.19,21.23-5.85,21.72-3.45,27.1S306.27,508,309.58,523.42Z" transform="translate(-181.57 -49.87)"/><path class="cls-14" d="M310.15,523.39q-.91-14.25-2.11-26.65l.53-.56c-.05-.05-.27-.26-.64-.58-1.36-14.19-2.94-26.62-4.62-37.51a29.22,29.22,0,0,1,9.32-10.3l-.62-1a29.8,29.8,0,0,0-9,9.43,367.75,367.75,0,0,0-7.93-38.3c.42-1.34,3.93-12.31,7.18-15l-.72-.89c-2.9,2.39-5.8,10.27-7,13.87-1.14-4.09-2.26-7.66-3.32-10.76-6.91-20.25-12.8-25.23-13.05-25.43l-.73.89c.06.05,5.62,4.81,12.17,23.4-3-1.16-11.2-4.1-15.41-4l0,1.14c4.49-.06,14.24,3.67,15.88,4.32,0,.12.09.24.13.37a264.41,264.41,0,0,1,8.6,33.36c-2.88-2.11-10.14-7.18-14.31-7.94l-.2,1.13c4.53.82,13.42,7.41,14.84,8.48,1.54,7.95,3,17,4.45,27.25a31.93,31.93,0,0,0-11-6.55l-.33,1.1C298,464.38,303,469,303.85,469.9c1,7.55,2,15.74,2.83,24.63-2.28-1.87-6.14-4.65-8.92-4.61l0,1.14c2.79,0,7.15,3.45,9.06,5.1.81,8.47,1.54,17.55,2.17,27.3Z" transform="translate(-181.57 -49.87)"/><g class="cls-18"><path class="cls-19" d="M310.65,527.56s-1.64-14.7-18.53-25.45c0,0-5-3.55-3.07-14.31S283.39,468.65,273,470s-12.13,7.42-17.71-3.7-34.67-32.39-45.78-16.89S213,475.9,223.15,479.3s27.09,8.25,27,18S264,498.84,271.36,503s8.57,17.41,13.17,19.52S299.75,519.48,310.65,527.56Z" transform="translate(-181.57 -49.87)"/></g><path class="cls-17" d="M269.75,476.94l-.94-.28a25.86,25.86,0,0,0-.59,11.25,315.66,315.66,0,0,0-26.66-20.61c-.45-1.07-4.33-10.27-3.7-13.87l-1-.17c-.56,3.2,2,10,3.2,13q-4.58-3-8.21-5.18c-15.87-9.36-22.52-9.3-22.79-9.29l0,1c.07,0,6.37,0,21.08,8.46-2.63,1-9.63,3.62-12.35,6l.66.74c2.91-2.58,11.4-5.64,12.81-6.13l.29.17a228.82,228.82,0,0,1,24.32,17c-3.08.24-10.66,1-13.81,2.87l.5.85c3.42-2,12.93-2.71,14.47-2.81,5.46,4.33,11.51,9.41,18.18,15.33a27.47,27.47,0,0,0-10.87,1.91l.41.91c4.65-2.07,10.53-1.85,11.61-1.79q7.34,6.56,15.66,14.53c-2.54.06-6.63.42-8.42,2l.65.74c1.81-1.6,6.62-1.77,8.79-1.76q7.91,7.62,16.72,16.64l.7-.69c-5.73-5.88-11.16-11.27-16.31-16.26l0-.66c-.06,0-.33,0-.74,0-8.84-8.52-16.85-15.78-24.05-21.95A25.41,25.41,0,0,1,269.75,476.94Z" transform="translate(-181.57 -49.87)"/><path class="cls-20" d="M411.15,351.41s12.52,81.5-25.54,124.23l32.63-14.51s8.49-62.79,3.66-95.22S411.15,351.41,411.15,351.41Z" transform="translate(-181.57 -49.87)"/><path class="cls-21" d="M508.68,465.71S456,486,425,452.87c-14.95-15.95-73.85-18.8-96.28,18.55l44.52,30.45h66.7S513.74,488.91,508.68,465.71Z" transform="translate(-181.57 -49.87)"/><path class="cls-20" d="M508.68,465.71s-52,43.06-76.14-10.77V436.3H422.19s-35.2,61.27-93.52,35.12c0,0-10,27.69,0,43.56H511.18S518.43,492.09,508.68,465.71Z" transform="translate(-181.57 -49.87)"/><path class="cls-20" d="M327.58,255s19.2,73.4,73.14,103.09c0,0,23.93-8,2.22,61.09l21.37-.85-.64-36.45L422,360.53s105.78-77.9,73.34-85.95C495.34,274.58,341.32,271.77,327.58,255Z" transform="translate(-181.57 -49.87)"/><path class="cls-21" d="M327.58,255s96,52.15,159.48,36.83c29.91-7.21,24.58-36.53-43.48-30.65C374.2,267.17,353.81,261.42,327.58,255Z" transform="translate(-181.57 -49.87)"/><path class="cls-22" d="M324.63,533.39l-.93-4.83A194.6,194.6,0,0,1,320.27,492c0-24.59,9.66-50.06,28.72-75.7C364.8,395,383.93,378,397.19,367.38a2,2,0,0,0,.49-1.47,2,2,0,0,0-.49-1.48c-13.26-10.56-32.39-27.63-48.2-48.89-19.06-25.64-28.72-51.11-28.72-75.7a194.6,194.6,0,0,1,3.43-36.59l.93-4.83H509.41l.93,4.84a194.41,194.41,0,0,1,3.43,36.58c0,24.59-9.66,50.06-28.72,75.7-15.81,21.26-34.94,38.33-48.2,48.9a1.94,1.94,0,0,0-.5,1.47,2,2,0,0,0,.5,1.47c13.26,10.57,32.39,27.63,48.2,48.89,19.06,25.64,28.72,51.11,28.72,75.7a194.6,194.6,0,0,1-3.43,36.59l-.93,4.83Zm175.09-12A183,183,0,0,0,502.08,492c0-50-45.37-93.58-72.41-115.13a14.45,14.45,0,0,1,0-21.86c27-21.55,72.41-65.17,72.41-115.14a183,183,0,0,0-2.36-29.44H334.31A184.15,184.15,0,0,0,332,239.84c0,50,45.36,93.59,72.41,115.14a14.44,14.44,0,0,1,0,21.85C377.32,398.39,332,442,332,492a184.06,184.06,0,0,0,2.35,29.44Z" transform="translate(-181.57 -49.87)"/><circle class="cls-23" cx="524.68" cy="361.75" r="10.34" transform="translate(-98.26 771.61) rotate(-80.75)"/><circle class="cls-23" cx="314.18" cy="361.75" r="10.34" transform="translate(-345.35 278.25) rotate(-45)"/><path class="cls-24" d="M411.18,301.1A18.72,18.72,0,1,1,386.72,291,18.73,18.73,0,0,1,411.18,301.1Z" transform="translate(-181.57 -49.87)"/><path class="cls-25" d="M400.39,323.22A15.84,15.84,0,1,1,409,302.53,15.84,15.84,0,0,1,400.39,323.22ZM389.11,296a13.63,13.63,0,1,0,17.81,7.37A13.65,13.65,0,0,0,389.11,296Z" transform="translate(-181.57 -49.87)"/><path class="cls-26" d="M400,322.9a15.84,15.84,0,1,1,8.57-20.69A15.84,15.84,0,0,1,400,322.9Zm-11.28-27.21a13.62,13.62,0,1,0,17.81,7.36A13.62,13.62,0,0,0,388.68,295.69Z" transform="translate(-181.57 -49.87)"/><g class="cls-27"><path class="cls-28" d="M394.68,307.69a6.09,6.09,0,0,1,3.58-.06,3.69,3.69,0,0,1,1.87,2,4.41,4.41,0,0,1,.24,3.15,4.1,4.1,0,0,1-2.19,2.51l.63,1.37-.94.44-.62-1.35q-3.78,1.26-5.64-2.1l1.71-.79a2.73,2.73,0,0,0,3.31,1.55l-2.28-4.93q-3.9.93-5.18-1.84a3.7,3.7,0,0,1-.2-2.95,4.52,4.52,0,0,1,2.1-2.31l-.63-1.36.95-.43.62,1.35c2.17-.8,3.81-.27,4.93,1.61l-1.72.8a2,2,0,0,0-2.59-1.07Zm-1,.24-2-4.26a2.2,2.2,0,0,0-.86,3,2,2,0,0,0,1.18,1.2A3.49,3.49,0,0,0,393.65,307.93Zm3.92,6c1.28-.8,1.57-1.94.88-3.44a2.3,2.3,0,0,0-1.06-1.21,3.43,3.43,0,0,0-2-.07Z" transform="translate(-181.57 -49.87)"/></g><path class="cls-26" d="M394.22,307.57a6.15,6.15,0,0,1,3.57-.06,3.68,3.68,0,0,1,1.87,2,4.38,4.38,0,0,1,.24,3.14,4.1,4.1,0,0,1-2.19,2.51l.64,1.37-1,.44-.62-1.35q-3.78,1.26-5.63-2.1l1.71-.79a2.72,2.72,0,0,0,3.3,1.55l-2.28-4.93c-2.6.62-4.32,0-5.18-1.83a3.72,3.72,0,0,1-.19-3,4.54,4.54,0,0,1,2.09-2.31l-.62-1.36.94-.43.63,1.35c2.16-.8,3.81-.27,4.92,1.61l-1.72.8a2,2,0,0,0-2.58-1.07Zm-1,.24-2-4.26a2.21,2.21,0,0,0-.86,3,2,2,0,0,0,1.18,1.2A3.49,3.49,0,0,0,393.18,307.81Zm3.92,6a2.4,2.4,0,0,0,.89-3.43,2.3,2.3,0,0,0-1.07-1.22,3.42,3.42,0,0,0-2-.07Z" transform="translate(-181.57 -49.87)"/><path class="cls-24" d="M390.74,216.48a18.72,18.72,0,1,1-24.46-10.12A18.72,18.72,0,0,1,390.74,216.48Z" transform="translate(-181.57 -49.87)"/><path class="cls-25" d="M380,238.61a15.84,15.84,0,1,1,8.56-20.7A15.86,15.86,0,0,1,380,238.61Zm-11.29-27.22a13.63,13.63,0,1,0,17.81,7.37A13.65,13.65,0,0,0,368.67,211.39Z" transform="translate(-181.57 -49.87)"/><path class="cls-26" d="M379.53,238.29a15.84,15.84,0,1,1,8.56-20.7A15.86,15.86,0,0,1,379.53,238.29Zm-11.29-27.22a13.63,13.63,0,1,0,17.81,7.37A13.65,13.65,0,0,0,368.24,211.07Z" transform="translate(-181.57 -49.87)"/><g class="cls-27"><path class="cls-28" d="M374.25,223.08a6.08,6.08,0,0,1,3.57-.07,3.68,3.68,0,0,1,1.87,2,4.3,4.3,0,0,1,.24,3.15,4.16,4.16,0,0,1-2.18,2.51l.63,1.37-.95.43-.62-1.35q-3.78,1.28-5.63-2.09l1.71-.79a2.71,2.71,0,0,0,3.3,1.54l-2.27-4.93c-2.61.63-4.33,0-5.18-1.83a3.68,3.68,0,0,1-.2-3,4.5,4.5,0,0,1,2.1-2.3l-.63-1.36.94-.44.63,1.36q3.26-1.22,4.93,1.61l-1.72.79a2,2,0,0,0-2.59-1.06Zm-1,.24-2-4.26a2.2,2.2,0,0,0-.86,3,2,2,0,0,0,1.18,1.2A3.62,3.62,0,0,0,373.22,223.32Zm3.92,6a2.41,2.41,0,0,0,.88-3.44,2.34,2.34,0,0,0-1.07-1.22,3.49,3.49,0,0,0-2-.06Z" transform="translate(-181.57 -49.87)"/></g><path class="cls-26" d="M373.78,223a6.11,6.11,0,0,1,3.58-.07,3.63,3.63,0,0,1,1.86,2,4.36,4.36,0,0,1,.25,3.15,4.18,4.18,0,0,1-2.19,2.51l.63,1.37-.94.43-.63-1.35c-2.52.85-4.39.15-5.63-2.09l1.71-.79a2.72,2.72,0,0,0,3.31,1.54l-2.28-4.93q-3.9.94-5.18-1.83a3.72,3.72,0,0,1-.2-3,4.5,4.5,0,0,1,2.1-2.3l-.63-1.36.95-.44.62,1.36q3.25-1.22,4.93,1.61l-1.72.79a2,2,0,0,0-2.59-1.06Zm-1,.24-2-4.26a2.2,2.2,0,0,0-.86,3,2,2,0,0,0,1.18,1.2A3.62,3.62,0,0,0,372.75,223.2Zm3.92,6a2.41,2.41,0,0,0,.88-3.44,2.33,2.33,0,0,0-1.06-1.22,3.54,3.54,0,0,0-2-.06Z" transform="translate(-181.57 -49.87)"/><path class="cls-24" d="M364.85,209.38a18.72,18.72,0,1,1-24.46-10.12A18.72,18.72,0,0,1,364.85,209.38Z" transform="translate(-181.57 -49.87)"/><path class="cls-25" d="M354.07,231.51a15.84,15.84,0,1,1,8.56-20.7A15.86,15.86,0,0,1,354.07,231.51Zm-11.29-27.22a13.63,13.63,0,1,0,17.81,7.37A13.65,13.65,0,0,0,342.78,204.29Z" transform="translate(-181.57 -49.87)"/><path class="cls-26" d="M353.64,231.19a15.84,15.84,0,1,1,8.56-20.7A15.86,15.86,0,0,1,353.64,231.19ZM342.35,204a13.63,13.63,0,1,0,17.81,7.37A13.65,13.65,0,0,0,342.35,204Z" transform="translate(-181.57 -49.87)"/><g class="cls-27"><path class="cls-28" d="M348.36,216a6.08,6.08,0,0,1,3.57-.07,3.68,3.68,0,0,1,1.87,2A4.36,4.36,0,0,1,354,221a4.15,4.15,0,0,1-2.19,2.51l.64,1.37-.95.43-.62-1.35q-3.78,1.27-5.63-2.09l1.71-.79a2.71,2.71,0,0,0,3.3,1.54L348,217.73c-2.6.63-4.32,0-5.18-1.83a3.72,3.72,0,0,1-.19-3,4.52,4.52,0,0,1,2.09-2.3l-.62-1.36.94-.44.63,1.36c2.16-.81,3.81-.27,4.92,1.61l-1.72.79a2,2,0,0,0-2.58-1.06Zm-1,.24-2-4.26a2.21,2.21,0,0,0-.87,3,2,2,0,0,0,1.18,1.2A3.63,3.63,0,0,0,347.32,216.22Zm3.92,6a2.41,2.41,0,0,0,.89-3.44,2.34,2.34,0,0,0-1.07-1.22,3.53,3.53,0,0,0-2-.06Z" transform="translate(-181.57 -49.87)"/></g><path class="cls-26" d="M347.89,215.86a6.11,6.11,0,0,1,3.58-.07,3.67,3.67,0,0,1,1.86,2,4.36,4.36,0,0,1,.25,3.15,4.18,4.18,0,0,1-2.19,2.51l.63,1.37-.94.43-.63-1.35q-3.78,1.27-5.63-2.09l1.71-.79a2.71,2.71,0,0,0,3.3,1.54l-2.27-4.93q-3.9.94-5.18-1.83a3.72,3.72,0,0,1-.2-3,4.5,4.5,0,0,1,2.1-2.3l-.63-1.36.94-.44.63,1.36q3.25-1.22,4.93,1.61l-1.72.79a2,2,0,0,0-2.59-1.06Zm-1,.24-2-4.26a2.2,2.2,0,0,0-.86,3,2,2,0,0,0,1.18,1.2A3.62,3.62,0,0,0,346.86,216.1Zm3.92,6a2.41,2.41,0,0,0,.88-3.44,2.34,2.34,0,0,0-1.07-1.22,3.49,3.49,0,0,0-2-.06Z" transform="translate(-181.57 -49.87)"/><path class="cls-24" d="M370.45,246.36A18.72,18.72,0,1,1,346,236.24,18.72,18.72,0,0,1,370.45,246.36Z" transform="translate(-181.57 -49.87)"/><path class="cls-25" d="M359.67,268.49a15.84,15.84,0,1,1,8.56-20.7A15.87,15.87,0,0,1,359.67,268.49Zm-11.29-27.22a13.62,13.62,0,1,0,17.81,7.36A13.63,13.63,0,0,0,348.38,241.27Z" transform="translate(-181.57 -49.87)"/><path class="cls-26" d="M359.24,268.17a15.84,15.84,0,1,1,8.56-20.7A15.86,15.86,0,0,1,359.24,268.17ZM348,241a13.62,13.62,0,1,0,17.81,7.37A13.64,13.64,0,0,0,348,241Z" transform="translate(-181.57 -49.87)"/><g class="cls-27"><path class="cls-28" d="M354,253a6.15,6.15,0,0,1,3.57-.06,3.68,3.68,0,0,1,1.87,2,4.32,4.32,0,0,1,.24,3.14,4.11,4.11,0,0,1-2.18,2.51l.63,1.37-.95.44-.62-1.35q-3.78,1.26-5.63-2.1l1.71-.79a2.72,2.72,0,0,0,3.3,1.55l-2.28-4.93c-2.6.62-4.32,0-5.18-1.83a3.72,3.72,0,0,1-.19-3,4.54,4.54,0,0,1,2.09-2.31l-.62-1.36.94-.43.63,1.35c2.16-.8,3.81-.27,4.92,1.61l-1.72.8a2,2,0,0,0-2.58-1.06Zm-1,.24-2-4.26a2.21,2.21,0,0,0-.87,3,2,2,0,0,0,1.18,1.2A3.5,3.5,0,0,0,352.92,253.19Zm3.92,6a2.4,2.4,0,0,0,.89-3.43,2.3,2.3,0,0,0-1.07-1.22,3.51,3.51,0,0,0-2-.07Z" transform="translate(-181.57 -49.87)"/></g><path class="cls-26" d="M353.49,252.83a6.18,6.18,0,0,1,3.58-.06,3.67,3.67,0,0,1,1.86,2,4.33,4.33,0,0,1,.25,3.14,4.2,4.2,0,0,1-2.19,2.52l.63,1.36-.94.44-.63-1.35q-3.78,1.26-5.63-2.1l1.71-.79a2.72,2.72,0,0,0,3.3,1.55l-2.27-4.93q-3.9.93-5.18-1.83a3.72,3.72,0,0,1-.2-3,4.52,4.52,0,0,1,2.1-2.31l-.63-1.36.94-.43.63,1.36q3.26-1.22,4.93,1.6l-1.72.8a2,2,0,0,0-2.59-1.06Zm-1,.24-2-4.26a2.2,2.2,0,0,0-.86,3,2,2,0,0,0,1.18,1.2A3.49,3.49,0,0,0,352.46,253.07Zm3.92,6a2.4,2.4,0,0,0,.88-3.43,2.34,2.34,0,0,0-1.07-1.22,3.41,3.41,0,0,0-2-.06Z" transform="translate(-181.57 -49.87)"/><path class="cls-24" d="M386.28,279.31a18.72,18.72,0,1,1-24.46-10.12A18.72,18.72,0,0,1,386.28,279.31Z" transform="translate(-181.57 -49.87)"/><path class="cls-25" d="M375.5,301.44a15.84,15.84,0,1,1,8.56-20.7A15.86,15.86,0,0,1,375.5,301.44Zm-11.29-27.22A13.63,13.63,0,1,0,382,281.59,13.65,13.65,0,0,0,364.21,274.22Z" transform="translate(-181.57 -49.87)"/><path class="cls-26" d="M375.06,301.12a15.84,15.84,0,1,1,8.57-20.7A15.85,15.85,0,0,1,375.06,301.12ZM363.78,273.9a13.63,13.63,0,1,0,17.81,7.37A13.65,13.65,0,0,0,363.78,273.9Z" transform="translate(-181.57 -49.87)"/><g class="cls-27"><path class="cls-28" d="M369.78,285.9a6.18,6.18,0,0,1,3.58-.06,3.68,3.68,0,0,1,1.87,2,4.38,4.38,0,0,1,.24,3.14,4.14,4.14,0,0,1-2.19,2.52l.63,1.36-.94.44-.62-1.35c-2.52.84-4.4.15-5.63-2.09l1.71-.79a2.7,2.7,0,0,0,3.3,1.54l-2.28-4.93c-2.6.63-4.33,0-5.18-1.83a3.72,3.72,0,0,1-.19-3,4.58,4.58,0,0,1,2.09-2.31l-.62-1.35.94-.44.63,1.36q3.24-1.22,4.92,1.61l-1.72.79a2,2,0,0,0-2.58-1.06Zm-1,.25-2-4.26a2.2,2.2,0,0,0-.86,3,2.07,2.07,0,0,0,1.18,1.2A3.62,3.62,0,0,0,368.75,286.15Zm3.92,6a2.41,2.41,0,0,0,.89-3.44,2.39,2.39,0,0,0-1.07-1.22,3.53,3.53,0,0,0-2-.06Z" transform="translate(-181.57 -49.87)"/></g><path class="cls-26" d="M369.32,285.78a6.14,6.14,0,0,1,3.57-.06,3.68,3.68,0,0,1,1.87,2,4.33,4.33,0,0,1,.24,3.14,4.15,4.15,0,0,1-2.18,2.52l.63,1.37-.95.43-.62-1.35q-3.78,1.28-5.63-2.09l1.71-.79a2.71,2.71,0,0,0,3.3,1.54L369,287.54c-2.6.63-4.32,0-5.18-1.83a3.72,3.72,0,0,1-.19-3,4.56,4.56,0,0,1,2.1-2.31l-.63-1.35.94-.44.63,1.36c2.16-.81,3.81-.27,4.93,1.61l-1.72.79a2,2,0,0,0-2.59-1.06Zm-1,.25-2-4.26a2.2,2.2,0,0,0-.87,3,2,2,0,0,0,1.18,1.2A3.63,3.63,0,0,0,368.28,286Zm3.92,6a2.41,2.41,0,0,0,.89-3.44,2.34,2.34,0,0,0-1.07-1.22,3.5,3.5,0,0,0-2-.06Z" transform="translate(-181.57 -49.87)"/><path class="cls-24" d="M442.93,322.22a24.22,24.22,0,1,1-31.65-13.09A24.23,24.23,0,0,1,442.93,322.22Z" transform="translate(-181.57 -49.87)"/><path class="cls-25" d="M429,350.85a20.49,20.49,0,1,1,11.08-26.78A20.51,20.51,0,0,1,429,350.85Zm-14.61-35.22a17.64,17.64,0,1,0,23.05,9.53A17.65,17.65,0,0,0,414.37,315.63Z" transform="translate(-181.57 -49.87)"/><path class="cls-26" d="M428.42,350.43a20.49,20.49,0,1,1,11.08-26.77A20.51,20.51,0,0,1,428.42,350.43Zm-14.6-35.21a17.63,17.63,0,1,0,23,9.53A17.65,17.65,0,0,0,413.82,315.22Z" transform="translate(-181.57 -49.87)"/><g class="cls-27"><path class="cls-28" d="M421.59,330.75a7.84,7.84,0,0,1,4.62-.08,4.76,4.76,0,0,1,2.42,2.56,5.63,5.63,0,0,1,.31,4.07,5.33,5.33,0,0,1-2.83,3.25l.82,1.77-1.22.56-.81-1.74q-4.89,1.64-7.28-2.72l2.21-1c1.05,1.83,2.47,2.49,4.27,2L421.16,333c-3.37.81-5.6,0-6.71-2.37a4.83,4.83,0,0,1-.25-3.83,5.91,5.91,0,0,1,2.71-3l-.81-1.76,1.22-.56.82,1.76q4.2-1.57,6.37,2.08l-2.23,1a2.63,2.63,0,0,0-3.34-1.37Zm-1.34.31-2.54-5.51a2.85,2.85,0,0,0-1.12,3.91,2.56,2.56,0,0,0,1.53,1.55A4.57,4.57,0,0,0,420.25,331.06Zm5.07,7.78c1.66-1,2-2.52,1.15-4.45a3.09,3.09,0,0,0-1.38-1.58,4.63,4.63,0,0,0-2.59-.08Z" transform="translate(-181.57 -49.87)"/></g><path class="cls-26" d="M421,330.59a8,8,0,0,1,4.63-.08,4.75,4.75,0,0,1,2.41,2.56,5.63,5.63,0,0,1,.32,4.07,5.34,5.34,0,0,1-2.83,3.25l.82,1.77-1.22.57L424.3,341q-4.89,1.63-7.29-2.71l2.21-1q1.57,2.73,4.28,2l-2.95-6.38c-3.36.81-5.6,0-6.7-2.37a4.79,4.79,0,0,1-.25-3.83,5.88,5.88,0,0,1,2.71-3l-.81-1.75,1.22-.57.81,1.76c2.8-1,4.93-.35,6.37,2.08l-2.22,1a2.62,2.62,0,0,0-3.35-1.37Zm-1.33.32-2.55-5.51a2.84,2.84,0,0,0-1.12,3.9,2.58,2.58,0,0,0,1.53,1.55A4.61,4.61,0,0,0,419.65,330.91Zm5.07,7.77c1.65-1,2-2.51,1.14-4.44a3,3,0,0,0-1.38-1.58,4.5,4.5,0,0,0-2.58-.08Z" transform="translate(-181.57 -49.87)"/><path class="cls-24" d="M474.6,298.94A18.84,18.84,0,1,1,450,288.76,18.84,18.84,0,0,1,474.6,298.94Z" transform="translate(-181.57 -49.87)"/><path class="cls-25" d="M463.75,321.21a15.94,15.94,0,1,1,8.62-20.83A16,16,0,0,1,463.75,321.21Zm-11.36-27.39a13.71,13.71,0,1,0,17.92,7.41A13.72,13.72,0,0,0,452.39,293.82Z" transform="translate(-181.57 -49.87)"/><path class="cls-26" d="M463.32,320.89a15.94,15.94,0,1,1,8.61-20.83A16,16,0,0,1,463.32,320.89ZM452,293.5a13.71,13.71,0,1,0,17.92,7.41A13.73,13.73,0,0,0,452,293.5Z" transform="translate(-181.57 -49.87)"/><g class="cls-27"><path class="cls-28" d="M458,305.58a6.18,6.18,0,0,1,3.6-.07,3.72,3.72,0,0,1,1.88,2,4.41,4.41,0,0,1,.25,3.17,4.19,4.19,0,0,1-2.21,2.53l.64,1.37-1,.44-.63-1.36q-3.79,1.28-5.66-2.1l1.72-.8a2.73,2.73,0,0,0,3.32,1.56l-2.29-5c-2.62.62-4.36,0-5.21-1.85a3.73,3.73,0,0,1-.2-3,4.56,4.56,0,0,1,2.11-2.32l-.63-1.36.95-.44.63,1.36q3.27-1.22,5,1.62l-1.73.8a2.06,2.06,0,0,0-2.61-1.07Zm-1,.24-2-4.29a2.22,2.22,0,0,0-.86,3,2,2,0,0,0,1.18,1.21A3.67,3.67,0,0,0,457,305.82Zm4,6.05a2.43,2.43,0,0,0,.89-3.46,2.37,2.37,0,0,0-1.07-1.23,3.57,3.57,0,0,0-2-.06Z" transform="translate(-181.57 -49.87)"/></g><path class="cls-26" d="M457.53,305.46a6.18,6.18,0,0,1,3.6-.07,3.72,3.72,0,0,1,1.88,2,4.41,4.41,0,0,1,.25,3.17,4.19,4.19,0,0,1-2.21,2.53l.64,1.37-.95.44-.63-1.36q-3.8,1.28-5.66-2.1l1.72-.8a2.73,2.73,0,0,0,3.32,1.56l-2.29-5c-2.62.62-4.36,0-5.21-1.85a3.73,3.73,0,0,1-.2-3,4.56,4.56,0,0,1,2.11-2.32l-.63-1.36,1-.44.63,1.36q3.27-1.22,5,1.62l-1.73.8a2.05,2.05,0,0,0-2.61-1.07Zm-1,.24-2-4.29a2.22,2.22,0,0,0-.86,3,2,2,0,0,0,1.18,1.21A3.67,3.67,0,0,0,456.49,305.7Zm3.95,6.05a2.43,2.43,0,0,0,.89-3.46,2.33,2.33,0,0,0-1.07-1.23,3.57,3.57,0,0,0-2-.06Z" transform="translate(-181.57 -49.87)"/><path class="cls-24" d="M447.38,302.48A18.83,18.83,0,1,1,433.08,280,18.83,18.83,0,0,1,447.38,302.48Z" transform="translate(-181.57 -49.87)"/><path class="cls-25" d="M425.71,314.48a15.94,15.94,0,1,1,19-12.1A16,16,0,0,1,425.71,314.48Zm6.43-29a13.72,13.72,0,1,0,10.42,16.36A13.74,13.74,0,0,0,432.14,285.53Z" transform="translate(-181.57 -49.87)"/><path class="cls-26" d="M425.54,314a15.94,15.94,0,1,1,19-12.11A15.95,15.95,0,0,1,425.54,314ZM432,285a13.72,13.72,0,1,0,10.42,16.36A13.73,13.73,0,0,0,432,285Z" transform="translate(-181.57 -49.87)"/><g class="cls-27"><path class="cls-28" d="M430,298.38a6.19,6.19,0,0,1,3,2,3.7,3.7,0,0,1,.39,2.7,4.38,4.38,0,0,1-1.61,2.74,4.14,4.14,0,0,1-3.26.8l-.27,1.5-1-.19.27-1.47q-3.85-1.14-3.43-5l1.86.33a2.75,2.75,0,0,0,1.83,3.19l1-5.38q-3.75-1.49-3.2-4.5a3.75,3.75,0,0,1,1.54-2.56,4.57,4.57,0,0,1,3.06-.68l.27-1.48,1,.18-.27,1.48c2.25.59,3.3,2,3.13,4.17l-1.87-.34a2.05,2.05,0,0,0-1.52-2.37Zm-1-.4.84-4.64a2.21,2.21,0,0,0-2.45,2,2,2,0,0,0,.28,1.67A3.55,3.55,0,0,0,429,298Zm-.24,7.22a2.43,2.43,0,0,0,2.72-2.32,2.34,2.34,0,0,0-.18-1.62,3.55,3.55,0,0,0-1.61-1.2Z" transform="translate(-181.57 -49.87)"/></g><path class="cls-26" d="M429.67,298a6.2,6.2,0,0,1,3,2,3.72,3.72,0,0,1,.4,2.71,4.44,4.44,0,0,1-1.62,2.73,4.19,4.19,0,0,1-3.26.81l-.26,1.49-1-.19.26-1.47c-2.56-.76-3.71-2.42-3.43-5l1.87.34a2.73,2.73,0,0,0,1.83,3.18l1-5.38c-2.51-1-3.57-2.49-3.21-4.5a3.69,3.69,0,0,1,1.55-2.55,4.51,4.51,0,0,1,3.06-.69l.27-1.48,1,.18-.26,1.48q3.38.89,3.13,4.17l-1.88-.33a2,2,0,0,0-1.52-2.37Zm-1-.39.84-4.65a2.22,2.22,0,0,0-2.46,2,2,2,0,0,0,.28,1.67A3.72,3.72,0,0,0,428.68,297.62Zm-.24,7.21c1.51.08,2.41-.69,2.71-2.32a2.42,2.42,0,0,0-.17-1.62,3.61,3.61,0,0,0-1.61-1.2Z" transform="translate(-181.57 -49.87)"/><path class="cls-24" d="M419,266.29a18.83,18.83,0,1,1-14.3-22.47A18.83,18.83,0,0,1,419,266.29Z" transform="translate(-181.57 -49.87)"/><path class="cls-25" d="M397.36,278.29a15.94,15.94,0,1,1,19-12.1A16,16,0,0,1,397.36,278.29Zm6.42-29A13.72,13.72,0,1,0,414.2,265.7,13.74,13.74,0,0,0,403.78,249.34Z" transform="translate(-181.57 -49.87)"/><path class="cls-26" d="M397.19,277.78a15.94,15.94,0,1,1,19-12.11A16,16,0,0,1,397.19,277.78Zm6.42-28.95A13.72,13.72,0,1,0,414,265.19,13.73,13.73,0,0,0,403.61,248.83Z" transform="translate(-181.57 -49.87)"/><g class="cls-27"><path class="cls-28" d="M401.63,262.19a6.2,6.2,0,0,1,3,2,3.67,3.67,0,0,1,.39,2.71,4.38,4.38,0,0,1-1.61,2.73,4.19,4.19,0,0,1-3.26.81l-.27,1.49-1-.19.27-1.47c-2.56-.76-3.71-2.42-3.43-5l1.87.33a2.75,2.75,0,0,0,1.82,3.19l1-5.38q-3.76-1.49-3.21-4.5a3.69,3.69,0,0,1,1.55-2.55,4.49,4.49,0,0,1,3.06-.69l.26-1.48,1,.18-.27,1.48q3.39.89,3.13,4.17l-1.87-.34a2,2,0,0,0-1.52-2.37Zm-1-.39.84-4.65a2.21,2.21,0,0,0-2.45,2,2,2,0,0,0,.28,1.67A3.68,3.68,0,0,0,400.63,261.8Zm-.24,7.21a2.43,2.43,0,0,0,2.72-2.32,2.34,2.34,0,0,0-.18-1.62,3.5,3.5,0,0,0-1.61-1.2Z" transform="translate(-181.57 -49.87)"/></g><path class="cls-26" d="M401.31,261.82a6.15,6.15,0,0,1,3,2,3.72,3.72,0,0,1,.4,2.71,4.4,4.4,0,0,1-1.62,2.73,4.16,4.16,0,0,1-3.25.81l-.27,1.49-1-.19.26-1.47q-3.84-1.14-3.43-5l1.87.34a2.73,2.73,0,0,0,1.83,3.18l1-5.38q-3.75-1.49-3.21-4.5a3.72,3.72,0,0,1,1.55-2.55,4.52,4.52,0,0,1,3.06-.69l.27-1.48,1,.18-.27,1.48q3.38.89,3.13,4.18l-1.88-.34a2,2,0,0,0-1.52-2.37Zm-1-.39.84-4.65a2.22,2.22,0,0,0-2.46,2,2,2,0,0,0,.28,1.67A3.61,3.61,0,0,0,400.32,261.43Zm-.24,7.21c1.51.09,2.42-.69,2.71-2.32a2.42,2.42,0,0,0-.17-1.62,3.61,3.61,0,0,0-1.61-1.2Z" transform="translate(-181.57 -49.87)"/><path class="cls-29" d="M512.15,531H326.7l-.57-2.91A187.37,187.37,0,0,1,322.65,492c0-24.06,9.74-49,29-74.25,16-21.06,35.48-38,49-48.46a4.65,4.65,0,0,0,0-6.71c-13.48-10.48-32.92-27.4-49-48.46-19.22-25.21-29-50.19-29-74.25a187.19,187.19,0,0,1,3.48-36.12l.57-2.91H512.15l.58,2.91a188,188,0,0,1,3.47,36.12c0,24.06-9.74,49-29,74.25-16.05,21.06-35.49,38-49,48.46a4.67,4.67,0,0,0,0,6.71h0c13.48,10.48,32.92,27.4,49,48.46,19.21,25.21,29,50.19,29,74.25a188.16,188.16,0,0,1-3.47,36.13ZM332.66,523.8H506.2A181.57,181.57,0,0,0,509,492c0-51-47.07-95.2-75.13-117h0a11.82,11.82,0,0,1,0-18.09c28.06-21.82,75.13-66,75.13-117A181.37,181.37,0,0,0,506.2,208H332.66a180.42,180.42,0,0,0-2.8,31.82c0,51,47.08,95.2,75.14,117A11.82,11.82,0,0,1,405,375c-28.06,21.82-75.14,66-75.14,117A180.62,180.62,0,0,0,332.66,523.8Z" transform="translate(-181.57 -49.87)"/><rect class="cls-23" x="338.9" y="144.91" width="7.29" height="327.22"/><rect class="cls-23" x="128.96" y="144.91" width="7.29" height="327.22"/><path class="cls-30" d="M351.74,201s-38.5,60.2,59.41,150.42c0,0-77.12-78.54-51.07-150.42Z" transform="translate(-181.57 -49.87)"/><path class="cls-30" d="M484.05,199.61s38.5,60.21-59.4,150.43c0,0,77.11-78.55,51.06-150.43Z" transform="translate(-181.57 -49.87)"/><rect class="cls-31" x="132.61" y="144.91" width="210.5" height="12.42"/><rect class="cls-23" x="119.72" y="135.3" width="236.28" height="12.42"/><path class="cls-32" d="M358.8,452.1c0-.13-.05-.25-.08-.38,2.19-24.69,28.66-42.15,54-42.28a73.78,73.78,0,0,1,28.83,6.25L456,404.44a.51.51,0,0,1,.81.48l-2.23,18c7.53,5.28,13.61,11.89,16.88,19.48h.06l6.74,0h.16a3.37,3.37,0,0,1,3.23,3.35l.09,17.53a3.38,3.38,0,0,1-3.36,3.39h-.08l-6.58,0c-4.57,11.6-15.36,21.54-27.89,28.06l2.34,9.65a3.11,3.11,0,0,1-2.29,3.74l-9,2.18a3.09,3.09,0,0,1-3.74-2.28l-1.81-7.5A61.38,61.38,0,0,1,413.19,503a53.74,53.74,0,0,1-14-1.84l-1.6,5.93a3.11,3.11,0,0,1-3.8,2.19l-9-2.43a3.09,3.09,0,0,1-2.18-3.8l2.11-7.84c-13.87-7.92-24.51-21.17-26-36.45h-.12A28.67,28.67,0,0,0,358.8,452.1Z" transform="translate(-181.57 -49.87)"/><path class="cls-25" d="M454.05,438.73a5.84,5.84,0,1,1-5.87-5.82A5.84,5.84,0,0,1,454.05,438.73Z" transform="translate(-181.57 -49.87)"/><path class="cls-32" d="M451.36,438.74a3.15,3.15,0,1,1-3.17-3.13A3.15,3.15,0,0,1,451.36,438.74Z" transform="translate(-181.57 -49.87)"/><path class="cls-25" d="M395.39,420.36s9.22-5.14,25.74-1.18C421.13,419.18,413.39,405.4,395.39,420.36Z" transform="translate(-181.57 -49.87)"/><path class="cls-32" d="M354.49,464.66a6,6,0,0,1-1.77-.79,3.82,3.82,0,0,1-1.82-3,6,6,0,0,1,.15-1.87,8.1,8.1,0,0,0-1.3-.49,13,13,0,0,0-9.13.9,1.37,1.37,0,0,1-1.37-2.37,15.52,15.52,0,0,1,11.27-1.16,11.87,11.87,0,0,1,1.52.55,10.27,10.27,0,0,1,2-2.63,9.15,9.15,0,0,1,9.47-1.62,1.37,1.37,0,1,1-1.05,2.53,6.48,6.48,0,0,0-6.59,1.13,7.53,7.53,0,0,0-1.47,2.05,7.84,7.84,0,0,1,1.86,2.32c1.22,2.33.77,3.48.17,4A2,2,0,0,1,354.49,464.66Z" transform="translate(-181.57 -49.87)"/><path class="cls-25" d="M451.36,420.36l1.33-4.64a1.64,1.64,0,0,0-2.57-1.76l-5.06,3.83S449.76,417.76,451.36,420.36Z" transform="translate(-181.57 -49.87)"/><path class="cls-33" d="M481.14,444.6s-1.78,5.16-.14,20.15C481,464.75,482.1,446.58,481.14,444.6Z" transform="translate(-181.57 -49.87)"/><path class="cls-34" d="M471.75,466.68a7.83,7.83,0,0,1-6.41-.16s-7.67,19.39-21.48,28.22C443.86,494.74,465.44,484.4,471.75,466.68Z" transform="translate(-181.57 -49.87)"/><path class="cls-30" d="M485,529.63s38.5-60.21-59.4-150.43c0,0,77.11,78.55,51.07,150.43Z" transform="translate(-181.57 -49.87)"/><path class="cls-30" d="M352.65,531s-38.5-60.21,59.4-150.43c0,0-77.11,78.54-51.07,150.43Z" transform="translate(-181.57 -49.87)"/><rect class="cls-31" x="132.61" y="463.31" width="210.5" height="12.42"/><rect class="cls-23" x="119.72" y="472.13" width="236.28" height="12.42"/><path class="cls-20" d="M410.17,391.4s-11.08,24.11-17,30.84c0,0,13.3-7.29,28.72-4.37,0,0-.23-22.19-1.65-37.11S410.17,391.4,410.17,391.4Z" transform="translate(-181.57 -49.87)"/><path class="cls-25" d="M453.36,185.17s33.44,20.35,60.41,0Z" transform="translate(-181.57 -49.87)"/><path class="cls-24" d="M394.82,425h26.24a14.82,14.82,0,1,0-26.81-1.21C394.42,424.21,394.62,424.61,394.82,425Z" transform="translate(-181.57 -49.87)"/><path class="cls-25" d="M397.66,425h2.13a10.54,10.54,0,0,1-1.47-2.5,10.79,10.79,0,1,1,18.47,2.5h2.13a12.54,12.54,0,1,0-22.22-1.83A12.2,12.2,0,0,0,397.66,425Z" transform="translate(-181.57 -49.87)"/><path class="cls-26" d="M397.47,425h2.17a10.79,10.79,0,1,1,16.61,0h2.17a12.54,12.54,0,1,0-22.06-2.08A13.31,13.31,0,0,0,397.47,425Z" transform="translate(-181.57 -49.87)"/><g class="cls-27"><path class="cls-28" d="M408.31,419.05l1.8,3.9a2.16,2.16,0,0,1-2.62-1.22l-1.35.62A3.34,3.34,0,0,0,410.6,424l.46,1h.2l.58-.27-.5-1.08a3.23,3.23,0,0,0,1.73-2,3.42,3.42,0,0,0-.19-2.49,2.93,2.93,0,0,0-1.48-1.57,4.92,4.92,0,0,0-2.83,0L407,414.14A1.61,1.61,0,0,1,409,415l1.36-.63a2.89,2.89,0,0,0-3.9-1.27L406,412l-.75.35.5,1.08a3.54,3.54,0,0,0-1.66,1.82,2.92,2.92,0,0,0,.15,2.34C404.88,419.06,406.25,419.54,408.31,419.05Zm2.4-.13a2.22,2.22,0,0,1,.15,3.68l-1.73-3.73A2.73,2.73,0,0,1,410.71,418.92Zm-4.52-4.45,1.56,3.38a2.67,2.67,0,0,1-1.3,0,1.54,1.54,0,0,1-.94-.95A1.74,1.74,0,0,1,406.19,414.47Z" transform="translate(-181.57 -49.87)"/></g><path class="cls-26" d="M408.2,417.56a4.83,4.83,0,0,1,2.83-.05,2.86,2.86,0,0,1,1.48,1.57,3.41,3.41,0,0,1,.19,2.49,3.26,3.26,0,0,1-1.73,2l.5,1.08-.75.35-.49-1.07a3.36,3.36,0,0,1-4.46-1.66l1.35-.63a2.16,2.16,0,0,0,2.62,1.23l-1.8-3.91c-2.06.5-3.43,0-4.11-1.45a2.92,2.92,0,0,1-.15-2.34,3.6,3.6,0,0,1,1.66-1.83l-.5-1.07.75-.35.5,1.08a2.89,2.89,0,0,1,3.9,1.27l-1.36.63a1.61,1.61,0,0,0-2.05-.84Zm-.82.19-1.56-3.37a1.74,1.74,0,0,0-.68,2.39,1.57,1.57,0,0,0,.94,1A2.81,2.81,0,0,0,407.38,417.75Zm3.11,4.76a1.91,1.91,0,0,0,.7-2.72,1.89,1.89,0,0,0-.85-1,2.82,2.82,0,0,0-1.58-.05Z" transform="translate(-181.57 -49.87)"/><path class="cls-24" d="M421.9,375.39A8.09,8.09,0,1,1,411.33,371,8.08,8.08,0,0,1,421.9,375.39Z" transform="translate(-181.57 -49.87)"/><path class="cls-25" d="M417.24,385a6.84,6.84,0,1,1,3.7-8.94A6.86,6.86,0,0,1,417.24,385Zm-4.87-11.76a5.88,5.88,0,1,0,7.69,3.18A5.89,5.89,0,0,0,412.37,373.19Z" transform="translate(-181.57 -49.87)"/><path class="cls-26" d="M417.06,384.81a6.84,6.84,0,1,1,3.69-8.94A6.85,6.85,0,0,1,417.06,384.81Zm-4.88-11.76a5.89,5.89,0,1,0,7.69,3.18A5.9,5.9,0,0,0,412.18,373.05Z" transform="translate(-181.57 -49.87)"/><g class="cls-27"><path class="cls-28" d="M414.78,378.24a2.68,2.68,0,0,1,1.54,0,1.61,1.61,0,0,1,.81.85,1.89,1.89,0,0,1,.1,1.36,1.79,1.79,0,0,1-.94,1.09l.27.59-.41.19-.27-.59a1.81,1.81,0,0,1-2.43-.9l.74-.34a1.16,1.16,0,0,0,1.42.66l-1-2.12c-1.12.27-1.87,0-2.24-.8a1.62,1.62,0,0,1-.08-1.27,1.9,1.9,0,0,1,.91-1l-.28-.59.41-.18.27.58a1.57,1.57,0,0,1,2.13.7l-.74.34a.88.88,0,0,0-1.12-.46Zm-.45.1-.85-1.84a1,1,0,0,0-.37,1.31.85.85,0,0,0,.51.51A1.52,1.52,0,0,0,414.33,378.34Zm1.69,2.6a1,1,0,0,0,.38-1.49,1,1,0,0,0-.46-.52,1.46,1.46,0,0,0-.86,0Z" transform="translate(-181.57 -49.87)"/></g><path class="cls-26" d="M414.57,378.18a2.61,2.61,0,0,1,1.55,0,1.56,1.56,0,0,1,.8.85,1.89,1.89,0,0,1,.11,1.36,1.83,1.83,0,0,1-.95,1.09l.28.59-.41.18-.27-.58a1.82,1.82,0,0,1-2.43-.9l.74-.34a1.17,1.17,0,0,0,1.42.66l-1-2.13c-1.12.27-1.87,0-2.24-.79a1.64,1.64,0,0,1-.08-1.28,1.94,1.94,0,0,1,.9-1l-.27-.59.41-.19.27.59a1.57,1.57,0,0,1,2.13.7l-.74.34a.88.88,0,0,0-1.12-.46Zm-.44.11-.85-1.84a.94.94,0,0,0-.37,1.3.85.85,0,0,0,.5.52A1.56,1.56,0,0,0,414.13,378.29Zm1.69,2.59a1.22,1.22,0,0,0-.08-2,1.57,1.57,0,0,0-.86,0Z" transform="translate(-181.57 -49.87)"/><path class="cls-24" d="M431.16,393.25a8.08,8.08,0,1,1-8-8.16A8.07,8.07,0,0,1,431.16,393.25Z" transform="translate(-181.57 -49.87)"/><path class="cls-25" d="M423.13,400.21a6.84,6.84,0,1,1,6.91-6.77A6.84,6.84,0,0,1,423.13,400.21Zm.13-12.72a5.89,5.89,0,1,0,5.83,5.95A5.89,5.89,0,0,0,423.26,387.49Z" transform="translate(-181.57 -49.87)"/><path class="cls-26" d="M423,400a6.84,6.84,0,1,1,6.91-6.77A6.84,6.84,0,0,1,423,400Zm.13-12.72a5.89,5.89,0,1,0,5.83,5.94A5.89,5.89,0,0,0,423.14,387.29Z" transform="translate(-181.57 -49.87)"/><g class="cls-27"><path class="cls-28" d="M423.49,393.08a2.63,2.63,0,0,1,1.44.58,1.58,1.58,0,0,1,.4,1.1,1.87,1.87,0,0,1-.43,1.29,1.82,1.82,0,0,1-1.3.63l0,.65h-.45l0-.64a1.83,1.83,0,0,1-1.88-1.79l.81,0a1.18,1.18,0,0,0,1.05,1.17l-.07-2.34c-1.13-.2-1.72-.73-1.74-1.61a1.58,1.58,0,0,1,.42-1.21,2,2,0,0,1,1.23-.56l0-.64.45,0v.65a1.59,1.59,0,0,1,1.69,1.47l-.82,0a.87.87,0,0,0-.85-.86ZM423,393l-.06-2a1,1,0,0,0-.85,1,.89.89,0,0,0,.26.68A1.56,1.56,0,0,0,423,393Zm.54,3.05a1,1,0,0,0,.94-1.22,1,1,0,0,0-.22-.66,1.57,1.57,0,0,0-.78-.37Z" transform="translate(-181.57 -49.87)"/></g><path class="cls-26" d="M423.33,393a2.59,2.59,0,0,1,1.43.58,1.61,1.61,0,0,1,.41,1.1,1.88,1.88,0,0,1-.44,1.29,1.8,1.8,0,0,1-1.29.63v.65H423l0-.64a1.84,1.84,0,0,1-1.89-1.79l.82,0a1.16,1.16,0,0,0,1.05,1.17l-.07-2.34c-1.14-.19-1.72-.73-1.75-1.61a1.6,1.6,0,0,1,.43-1.2,1.86,1.86,0,0,1,1.22-.56l0-.65h.45l0,.64a1.57,1.57,0,0,1,1.68,1.48l-.81,0a.88.88,0,0,0-.85-.86Zm-.45-.08-.06-2a1,1,0,0,0-.86,1.06.84.84,0,0,0,.27.67A1.51,1.51,0,0,0,422.88,392.87Zm.54,3.05a1,1,0,0,0,.93-1.21,1,1,0,0,0-.22-.67,1.49,1.49,0,0,0-.78-.36Z" transform="translate(-181.57 -49.87)"/><path class="cls-24" d="M412.79,395.52a6.64,6.64,0,1,1-6.57-6.7A6.65,6.65,0,0,1,412.79,395.52Z" transform="translate(-181.57 -49.87)"/><path class="cls-25" d="M406.19,401.23a5.62,5.62,0,1,1,5.67-5.55A5.62,5.62,0,0,1,406.19,401.23Zm.11-10.44a4.83,4.83,0,1,0,4.78,4.88A4.84,4.84,0,0,0,406.3,390.79Z" transform="translate(-181.57 -49.87)"/><path class="cls-26" d="M406.09,401.07a5.62,5.62,0,1,1,5.68-5.56A5.62,5.62,0,0,1,406.09,401.07Zm.11-10.45A4.84,4.84,0,1,0,411,395.5,4.85,4.85,0,0,0,406.2,390.62Z" transform="translate(-181.57 -49.87)"/><g class="cls-27"><path class="cls-28" d="M406.49,395.37a2.21,2.21,0,0,1,1.18.48,1.31,1.31,0,0,1,.33.91,1.53,1.53,0,0,1-.36,1.05,1.45,1.45,0,0,1-1.06.52v.53h-.37v-.52a1.51,1.51,0,0,1-1.55-1.47l.67,0a1,1,0,0,0,.86,1l-.05-1.92q-1.41-.24-1.44-1.32a1.35,1.35,0,0,1,.35-1,1.59,1.59,0,0,1,1-.46l0-.53h.37v.53a1.3,1.3,0,0,1,1.39,1.21l-.67,0a.73.73,0,0,0-.7-.71Zm-.37-.06-.05-1.66a.78.78,0,0,0-.7.86.73.73,0,0,0,.22.56A1.3,1.3,0,0,0,406.12,395.31Zm.44,2.5a.85.85,0,0,0,.77-1,.88.88,0,0,0-.18-.55,1.36,1.36,0,0,0-.64-.3Z" transform="translate(-181.57 -49.87)"/></g><path class="cls-26" d="M406.35,395.27a2.14,2.14,0,0,1,1.18.48,1.28,1.28,0,0,1,.33.9,1.51,1.51,0,0,1-.36,1.06,1.45,1.45,0,0,1-1.06.52l0,.53h-.37l0-.53a1.49,1.49,0,0,1-1.54-1.46l.67,0a1,1,0,0,0,.86,1L406,395.8c-.93-.16-1.41-.6-1.43-1.32a1.29,1.29,0,0,1,.35-1,1.54,1.54,0,0,1,1-.46l0-.53h.37l0,.53a1.28,1.28,0,0,1,1.38,1.2l-.67,0a.72.72,0,0,0-.7-.7Zm-.37-.07,0-1.66a.79.79,0,0,0-.71.87.7.7,0,0,0,.22.55A1.23,1.23,0,0,0,406,395.2Zm.45,2.51a.85.85,0,0,0,.76-1,.73.73,0,0,0-.18-.54,1.15,1.15,0,0,0-.64-.3Z" transform="translate(-181.57 -49.87)"/><path class="cls-24" d="M427.67,357.69a8.09,8.09,0,1,1-10.57-4.37A8.08,8.08,0,0,1,427.67,357.69Z" transform="translate(-181.57 -49.87)"/><path class="cls-25" d="M423,367.24a6.84,6.84,0,1,1,3.7-8.94A6.84,6.84,0,0,1,423,367.24Zm-4.87-11.75a5.88,5.88,0,1,0,7.69,3.18A5.89,5.89,0,0,0,418.14,355.49Z" transform="translate(-181.57 -49.87)"/><path class="cls-26" d="M422.82,367.11a6.84,6.84,0,1,1,3.7-8.94A6.85,6.85,0,0,1,422.82,367.11ZM418,355.35a5.88,5.88,0,1,0,7.69,3.18A5.88,5.88,0,0,0,418,355.35Z" transform="translate(-181.57 -49.87)"/><g class="cls-27"><path class="cls-28" d="M420.54,360.53a2.61,2.61,0,0,1,1.55,0,1.53,1.53,0,0,1,.8.85,1.84,1.84,0,0,1,.11,1.36,1.81,1.81,0,0,1-.94,1.09l.27.59-.41.18-.27-.58a1.82,1.82,0,0,1-2.43-.9l.74-.34a1.17,1.17,0,0,0,1.42.66l-1-2.13c-1.12.27-1.87,0-2.24-.79a1.64,1.64,0,0,1-.08-1.28,1.94,1.94,0,0,1,.9-1l-.27-.59.41-.19.27.59a1.57,1.57,0,0,1,2.13.69l-.74.35a.87.87,0,0,0-1.12-.46Zm-.44.11-.85-1.84a.94.94,0,0,0-.37,1.3.84.84,0,0,0,.51.52A1.52,1.52,0,0,0,420.1,360.64Zm1.69,2.59a1,1,0,0,0,.38-1.48,1,1,0,0,0-.46-.53,1.57,1.57,0,0,0-.86,0Z" transform="translate(-181.57 -49.87)"/></g><path class="cls-26" d="M420.34,360.48a2.61,2.61,0,0,1,1.55,0,1.53,1.53,0,0,1,.8.85,1.89,1.89,0,0,1,.11,1.36,1.79,1.79,0,0,1-.95,1.08l.28.59-.41.19-.27-.58A1.83,1.83,0,0,1,419,363l.74-.34a1.17,1.17,0,0,0,1.42.67l-1-2.13c-1.12.27-1.87,0-2.24-.79a1.6,1.6,0,0,1-.08-1.28,1.94,1.94,0,0,1,.9-1l-.27-.59.41-.19.27.59a1.57,1.57,0,0,1,2.13.69l-.74.35a.88.88,0,0,0-1.12-.46Zm-.44.11-.85-1.84a.94.94,0,0,0-.38,1.3.89.89,0,0,0,.51.52A1.56,1.56,0,0,0,419.9,360.59Zm1.69,2.59a1,1,0,0,0,.38-1.48,1,1,0,0,0-.46-.53,1.48,1.48,0,0,0-.86,0Z" transform="translate(-181.57 -49.87)"/><polygon class="cls-25" points="243.98 375.14 205.67 374.92 223.72 377.15 243.98 375.14"/><g class="cls-35"><polygon class="cls-36" points="166.04 103.69 232.98 0.3 344.31 91.4 178.69 115.51 166.04 103.69"/></g><path class="cls-37" d="M391.91,147l-16.78,27.18-18-10.6-2.22,2.22s16.57,16.44,20.24,16.52,11.76-9.22,17.69-21.31Z" transform="translate(-181.57 -49.87)"/><path class="cls-32" d="M395.31,145.7s4.71,10.69,8.16-.16h8.09s14.59,25.64,21.49,27.61L429.85,186l-28.6-10.36s-11.09,1.24-9.36-11.34L391.7,147Z" transform="translate(-181.57 -49.87)"/><path class="cls-38" d="M477.1,138.44s-.17-7.2-3.38-6.21-5.67.25-3.45-3.45,3.52-6.41,3-10.35,1.45-2.71,2.19,0-.5,5.66.74,8.75,4.93,7.76,4.93,7.76Z" transform="translate(-181.57 -49.87)"/><path class="cls-38" d="M525.88,137s8.4-2.29,7.52-5.53-.08-5.67,3.55-3.34,6.3,3.71,10.26,3.3,2.66,1.53-.07,2.19-5.65-.67-8.77.47a18.26,18.26,0,0,0-5.49,3.35Z" transform="translate(-181.57 -49.87)"/><path class="cls-39" d="M459.43,168.46l40.67,4.44s.74-25.39,30.07-38l2.71,2.47-27.11,45.35L486.29,186l-21.44-1.24s-9.12-5.42-10.11-5.67-8.87-2.71-8.87-2.71Z" transform="translate(-181.57 -49.87)"/><path class="cls-32" d="M430.59,174.63a22.68,22.68,0,0,0,10.84-8.88c4.19-6.65,16-6.9,25.14,5.43l28.35,3.45s-16-7.4-18-38.46l4.19-1.23,31.74,46.45a3.11,3.11,0,0,1-1.16,4.55c-6,3-22.39,7.51-60.41-1.95a91.88,91.88,0,0,0-21.44,2Z" transform="translate(-181.57 -49.87)"/><path class="cls-29" d="M497.64,181.77c3.22,0,5.55-.33,6.45-1.13a1.3,1.3,0,0,0,.48-1.07c-.1-1.82-3-5.48-7-10.54-7.37-9.35-17.45-22.15-18.22-33.51l-.56,0c.78,11.54,10.93,24.42,18.34,33.82,3.78,4.8,6.77,8.58,6.85,10.23a.75.75,0,0,1-.29.62c-3.52,3.12-32.21-1.76-46-4.1l-1.7-.29c-14.47-2.45-24.62,3.46-24.72,3.52l.28.47c.1,0,10.08-5.86,24.35-3.44l1.7.29C468.94,178.59,487.61,181.77,497.64,181.77Z" transform="translate(-181.57 -49.87)"/><polygon class="cls-25" points="251.48 123.28 248.28 136.1 245.88 135.23 251.48 123.28"/><polygon class="cls-25" points="320.28 115.42 327.58 127.23 329.94 123.28 320.28 115.42"/><path class="cls-29" d="M506.27,171.44c7.26-21.91,25.15-35,25.33-35.12l-.33-.45c-.18.13-18.21,13.31-25.53,35.4Z" transform="translate(-181.57 -49.87)"/><polygon class="cls-25" points="283.3 119.19 287.85 123.28 285.58 119.44 283.3 119.19"/><path class="cls-25" d="M409.82,171.93c.71-1.13,1.56-2.46,2.56-4.06a16.19,16.19,0,0,0,1.42-14.15l-11.32,22.34,4,1L429.85,186Z" transform="translate(-181.57 -49.87)"/><polygon class="cls-25" points="210.95 125.03 211.35 128.67 212.13 123.11 210.95 125.03"/><path class="cls-23" d="M388.07,143.73c-.44.23.29.5.7.35s.43.53,0,.76-.22.42.18.52.61.24.54.76-.18,2.62,1.61,1.6a5.41,5.41,0,0,1,4.61-.45,13.26,13.26,0,0,1,2.36,3.34c1.31-.74,2.62-1.5,3.9-2.3.74-.45,1.47-.92,2.19-1.4l-.54-.2a5.79,5.79,0,0,0-.38-.66,4.55,4.55,0,0,0-1.5-1.41l.29-.31c1.35-1.48,3.7-4.4,3.74-6.72a9.82,9.82,0,0,0-3.51-7.7V129c1.91-.43,5.07-.46,6.45,3.48,0,0-.32-5-6.46-4.35v0c3.43-1.25,8.5-2.69,7.47,9.95-1.14,14.21,12.56,8.62,12.56,8.62-13.07-5.68,2.75-12.86-7.55-24-8.92-9.68-15.35,3.93-15.35,3.93l-1.11,2.24c-3.71-.09-7.17,0-8.74,2.89a5.58,5.58,0,0,0-.79,4.83,9.06,9.06,0,0,0,.37,1.25s-.44,2.3-1.94,2.88.07,1.18.52,1.21S388.37,143.57,388.07,143.73Zm14.83,2.89-.95.3-.86-1.62.24-.25a4.52,4.52,0,0,1,1.7,1.35l.12.15h0Z" transform="translate(-181.57 -49.87)"/><path class="cls-38" d="M388.07,143.73c-.44.23.29.5.7.35s.43.53,0,.76-.22.42.18.52.61.24.54.76-.18,2.62,1.61,1.6a5.41,5.41,0,0,1,4.61-.45,10.53,10.53,0,0,1,1.86,2.47,3.79,3.79,0,0,0,1.52,1.45c2.55,1.28,2.88.07,3.63-.92l.65-1.38.3-1,.14-.71.2-1.29-2-1.52-1.52-1.1L398.64,142l.83-1.79c1.18-2.23,0-2.86-.9-3.57s-2,1.23-2,1.23c2.08,6.31-1.46,8.38-1.46,8.38,2.75-3.76-1.28-11.2-1.28-11.2l-.45,2.06-4.65-.58a9.06,9.06,0,0,0,.37,1.25s-.44,2.3-1.94,2.88.07,1.18.52,1.21S388.37,143.57,388.07,143.73Z" transform="translate(-181.57 -49.87)"/><polygon class="cls-40" points="172.99 101.76 174.15 102.36 180.34 118.56 172.21 120.37 172.99 101.76"/><polygon class="cls-23" points="166.04 103.69 172.99 101.76 179.78 118.56 172.21 120.37 166.04 103.69"/><path class="cls-37" d="M349.41,158l2.45,1.4,1.58-.7,1.68,4.74-2.86,1.22-2-1.22A5.71,5.71,0,0,1,349.41,158Z" transform="translate(-181.57 -49.87)"/><polygon class="cls-25" points="193.55 124.27 194.06 127.23 194.06 123.45 193.55 124.27"/><path class="cls-41" d="M329.3,185h40.08l-.06-.32c-2.13-10.79-10.13-18.45-16.82-21.79s-39.14,0-39.14,0C312.69,179,329.3,185,329.3,185Z" transform="translate(-181.57 -49.87)"/><path class="cls-25" d="M329.3,185h40.08s1.73-.15-.06-.32c-1.54-.16-5.63-.33-15.53-.46-21.54-.28-40.43-21.33-40.43-21.33C312.69,179,329.3,185,329.3,185Z" transform="translate(-181.57 -49.87)"/><path class="cls-25" d="M394.13,147l1.08-.51a3.23,3.23,0,0,1,4.31,1.62l1.57,3.57s-1.85,2.16-4.46-3.29C396.63,148.34,396.35,147,394.13,147Z" transform="translate(-181.57 -49.87)"/><path class="cls-38" d="M406,152.85a4.38,4.38,0,0,1,5.33-1.84c1.57.64,3,2.28,3,6.12,0,6.71-12.83,20.28-18.53,26a3.62,3.62,0,0,1-5.2-.09L370,160.11l-6.73-2.93-.75-3.89,1.53-1.44-4.78-.58s-3.53-2.13,2.58-1.21l4.74.71,5.38,7.1,20.6,17Z" transform="translate(-181.57 -49.87)"/><g class="cls-42"><rect class="cls-43" x="137.63" y="75.36" width="4.7" height="7.59"/><rect class="cls-31" x="176.97" y="78.15" width="4.7" height="4.8"/><rect class="cls-31" x="145.58" y="80.35" width="4.7" height="13.29"/><rect class="cls-43" x="153.03" y="66.36" width="4.7" height="17.69"/><rect class="cls-31" x="161.98" y="63.57" width="4.7" height="11.39"/><rect class="cls-43" x="184.74" y="73.36" width="4.7" height="9.49"/><rect class="cls-31" x="192.2" y="83.25" width="4.7" height="4"/><rect class="cls-43" x="198.72" y="68.46" width="4.7" height="14.49"/><rect class="cls-43" x="167.95" y="75.16" width="4.7" height="22.28"/><rect class="cls-43" x="139.77" y="70.16" width="0.4" height="17.49"/><rect class="cls-31" x="147.73" y="76.16" width="0.4" height="20.78"/><rect class="cls-43" x="155.18" y="66.96" width="0.4" height="20.78"/><rect class="cls-31" x="163.98" y="63.87" width="0.4" height="13.49"/><rect class="cls-43" x="170.1" y="85.75" width="0.4" height="13.49"/><rect class="cls-31" x="178.97" y="76.26" width="0.4" height="8.39"/><rect class="cls-43" x="186.89" y="70.66" width="0.4" height="14.89"/><rect class="cls-31" x="194.35" y="81.55" width="0.4" height="7.59"/><rect class="cls-43" x="200.87" y="66.06" width="0.4" height="7.59"/></g></g></g></svg>