<svg id="Layer_1" data-name="Layer 1" xmlns="http://www.w3.org/2000/svg" viewBox="0 0 33.42 33.42"><defs><style>.cls-1{fill:#fff;}</style></defs><title>puzzle-piece</title><path class="cls-1" d="M467.85,33.82h-4.14a.6.6,0,0,1-.6-.61V27.53a1.2,1.2,0,0,1,.57-1,1.24,1.24,0,0,1,1.22-.06,2.54,2.54,0,0,0,3-.68,2.5,2.5,0,0,0-1.4-4,2.46,2.46,0,0,0-1.63.19,1.24,1.24,0,0,1-1.21-.06,1.21,1.21,0,0,1-.58-1.05v-3.7a.61.61,0,0,1,.6-.61h14.2A2.52,2.52,0,0,1,480.42,19v2.05a.61.61,0,1,1-1.21,0V19a1.3,1.3,0,0,0-1.3-1.3H464.32v3.09a4,4,0,0,1,2.46-.27,3.72,3.72,0,0,1-.8,7.35,3.76,3.76,0,0,1-1.61-.37l-.05,5.09h3.53a.61.61,0,1,1,0,1.21Z" transform="translate(-447 -16.5)"/><path class="cls-1" d="M479.82,31.37a.6.6,0,0,1-.61-.6V28.65a.61.61,0,1,1,1.21,0v2.12A.6.6,0,0,1,479.82,31.37Z" transform="translate(-447 -16.5)"/><path class="cls-1" d="M479.82,23.8a.61.61,0,0,1-.61-.61V21.07a.61.61,0,0,1,1.21,0v2.12A.6.6,0,0,1,479.82,23.8Z" transform="translate(-447 -16.5)"/><path class="cls-1" d="M479.82,33.82h-3.39a.61.61,0,0,1,0-1.21h2.78V30.77a.61.61,0,1,1,1.21,0v2.44A.6.6,0,0,1,479.82,33.82Z" transform="translate(-447 -16.5)"/><path class="cls-1" d="M477.91,49.92h-14.2a.6.6,0,0,1-.6-.6V45.24a.61.61,0,1,1,1.21,0v3.47h13.59a1.3,1.3,0,0,0,1.3-1.3V33.82H475.8a4,4,0,0,1,.3,2.48,3.72,3.72,0,0,1-6,2.11,3.72,3.72,0,0,1-1-4.54l-4.82,0v3.41a.61.61,0,1,1-1.21,0v-4a.6.6,0,0,1,.6-.6h5.41a1.23,1.23,0,0,1,1.05.58,1.25,1.25,0,0,1,.05,1.23,2.5,2.5,0,0,0,.66,3A2.51,2.51,0,0,0,473,38a2.48,2.48,0,0,0,1.91-1.91,2.43,2.43,0,0,0-.21-1.64,1.23,1.23,0,0,1,.05-1.22,1.22,1.22,0,0,1,1.05-.59h4a.6.6,0,0,1,.6.6v14.2A2.51,2.51,0,0,1,477.91,49.92Z" transform="translate(-447 -16.5)"/><path class="cls-1" d="M463.71,49.92h-14.2A2.51,2.51,0,0,1,447,47.41V33.21a.6.6,0,0,1,.61-.6h2.47a.61.61,0,0,1,0,1.21h-1.87V47.41a1.3,1.3,0,0,0,1.3,1.3h13.6V44.34a4,4,0,0,1-2.86.58,3.71,3.71,0,0,1-2.18-6,3.7,3.7,0,0,1,5-.72l0-4.39h-4.7a.61.61,0,1,1,0-1.21h5.31a.6.6,0,0,1,.61.6v5a1.24,1.24,0,0,1-2,1,2.42,2.42,0,0,0-1.4-.44,2.51,2.51,0,1,0,1.4,4.57,1.24,1.24,0,0,1,2,1v5A.6.6,0,0,1,463.71,49.92Z" transform="translate(-447 -16.5)"/><path class="cls-1" d="M463.71,33.82h-6.5a1.28,1.28,0,0,1-1.09-.62,1.2,1.2,0,0,1,0-1.2,2.41,2.41,0,0,0,.31-1.2,2.5,2.5,0,0,0-5-.5,2.46,2.46,0,0,0,.26,1.67,1.27,1.27,0,0,1,0,1.25,1.24,1.24,0,0,1-1.06.6h-3a.61.61,0,0,1-.61-.61V19a2.52,2.52,0,0,1,2.51-2.52h14.2a.61.61,0,0,1,.61.61v3.05a.61.61,0,0,1-1.21,0V17.72h-13.6a1.3,1.3,0,0,0-1.3,1.3V32.61h2.43a4,4,0,0,1-.37-2.53,3.71,3.71,0,0,1,6-2.17,3.68,3.68,0,0,1,1.37,2.89,3.63,3.63,0,0,1-.47,1.79l5.95,0V28.19a.61.61,0,1,1,1.21,0v5A.61.61,0,0,1,463.71,33.82Z" transform="translate(-447 -16.5)"/></svg>