<svg xmlns="http://www.w3.org/2000/svg" viewBox="0 0 1652.36 1337.25"><defs><style>.cls-1{fill:#e5e5ff;opacity:0.4;}.cls-2{fill:#9192ff;}.cls-3{fill:#fff;}.cls-4{fill:#3335cf;}.cls-5,.cls-6{fill:#d1d1ff;}.cls-5{opacity:0.5;}.cls-7{fill:#ebebff;}.cls-8{fill:#1b1b43;}.cls-13,.cls-9{fill:#fe5b52;}.cls-10{fill:#be443d;}.cls-11{fill:#ffbc96;}.cls-12{fill:#d28572;}.cls-13{opacity:0.2;}.cls-14{fill:#ffa121;}.cls-15{fill:#26289c;}</style></defs><title>revenue-chart</title><g id="OBJECTS"><circle class="cls-1" cx="1757.69" cy="1157.72" r="82.5" transform="translate(-491.64 1311.92) rotate(-45)"/><circle class="cls-1" cx="400.16" cy="581.89" r="125.85" transform="translate(-482.08 183.35) rotate(-45)"/><circle class="cls-1" cx="647.65" cy="125.25" r="65.61"/><path class="cls-2" d="M741.55,427.72a78.94,78.94,0,0,1-12.18-1l.39-2.47a76.38,76.38,0,0,0,11.79.92H742l0,2.5Zm13.12-1.1-.42-2.47a77.27,77.27,0,0,0,11.91-3l.8,2.37A80.78,80.78,0,0,1,754.67,426.62ZM717,423.81a79.9,79.9,0,0,1-11.7-4.9l1.14-2.22a77.59,77.59,0,0,0,11.34,4.74Zm61.57-5.35-1.17-2.2a76.67,76.67,0,0,0,10.35-6.62l1.51,2A80,80,0,0,1,778.61,418.46Zm-84-6.25a78.17,78.17,0,0,1-9.56-8.33l1.79-1.75a75.54,75.54,0,0,0,9.25,8.07Zm104.18-9-1.81-1.72a77.14,77.14,0,0,0,7.71-9.56l2.06,1.41A79.56,79.56,0,0,1,798.75,403.17Zm-121.84-9.06a78.66,78.66,0,0,1-6.41-10.94l2.25-1.09a76.92,76.92,0,0,0,6.21,10.6ZM813,382.28l-2.27-1.06A76.67,76.67,0,0,0,815,369.71l2.4.69A80.07,80.07,0,0,1,813,382.28ZM665.91,371.34a77.68,77.68,0,0,1-2.65-12.41l2.47-.32a77.37,77.37,0,0,0,2.57,12Zm154-13.38-2.49-.29a75.78,75.78,0,0,0,.53-8.9c0-1.12,0-2.26-.08-3.38l2.5-.11c.05,1.15.08,2.33.08,3.49A78.42,78.42,0,0,1,819.94,358Zm-154.8-11.62-2.5-.08a78.67,78.67,0,0,1,1.43-12.61l2.45.48A77.11,77.11,0,0,0,665.14,346.34ZM816.36,333.2a76.72,76.72,0,0,0-3.47-11.78l2.33-.9a79.58,79.58,0,0,1,3.59,12.17ZM669.85,322.3l-2.34-.86a80,80,0,0,1,5.33-11.51l2.18,1.23A77.61,77.61,0,0,0,669.85,322.3Zm142.81-1.47a77.68,77.68,0,0,0-5.38-11l2.15-1.27a80.09,80.09,0,0,1,5.56,11.4ZM681.9,301l-2-1.56a79.16,79.16,0,0,1,8.7-9.23l1.68,1.85A76.53,76.53,0,0,0,681.9,301Zm118.29-1.22a76.5,76.5,0,0,0-8.61-8.75l1.63-1.89a78.33,78.33,0,0,1,8.9,9ZM700.07,284.58l-1.36-2.11a80,80,0,0,1,11.18-6l1,2.29A77.08,77.08,0,0,0,700.07,284.58Zm81.6-.83a76.13,76.13,0,0,0-10.94-5.59l1-2.31A79.47,79.47,0,0,1,783,281.62Zm-59.16-9-.62-2.42a78,78,0,0,1,12.5-2.17l.22,2.49A76.78,76.78,0,0,0,722.51,274.76Zm36.53-.37a76.75,76.75,0,0,0-12.14-1.86l.17-2.49A79.6,79.6,0,0,1,759.62,272Z" transform="translate(-187.82 -270.04)"/><path class="cls-2" d="M1529.15,1301.42l0-2.5c4.14-.07,8.32-.24,12.42-.5l.16,2.49C1537.55,1301.18,1533.33,1301.35,1529.15,1301.42Zm-12.56-.07c-4.16-.12-8.38-.34-12.53-.66l.19-2.49c4.11.31,8.29.53,12.42.65Zm37.61-1.53-.28-2.49c4.11-.45,8.25-1,12.33-1.66l.39,2.47C1562.53,1298.79,1558.34,1299.36,1554.2,1299.82Zm-62.63-.36c-4.13-.51-8.31-1.13-12.42-1.83l.42-2.46c4.08.69,8.22,1.3,12.3,1.8Zm87.42-3.58-.51-2.45c4-.84,8.12-1.79,12.11-2.82l.62,2.42C1587.19,1294.07,1583.08,1295,1579,1295.88Zm-112.16-.66c-4.07-.89-8.18-1.9-12.2-3l.66-2.41c4,1.08,8,2.07,12.07,3Zm136.46-5.61-.74-2.39c4-1.22,7.92-2.55,11.79-4l.86,2.35C1611.28,1287,1607.28,1288.38,1603.29,1289.61Zm-160.69-.94c-4-1.28-8-2.67-11.89-4.14l.88-2.34c3.88,1.45,7.85,2.83,11.77,4.1Zm184.27-7.59-1-2.31c3.79-1.57,7.6-3.27,11.34-5l1.07,2.26C1634.55,1277.78,1630.69,1279.49,1626.87,1281.08ZM1419,1279.83c-3.84-1.65-7.68-3.42-11.43-5.25l1.1-2.25c3.71,1.82,7.52,3.57,11.32,5.2Zm230.47-9.45-1.17-2.21c3.64-1.94,7.28-4,10.83-6.09l1.27,2.15C1656.86,1266.36,1653.19,1268.42,1649.51,1270.38Zm-253.07-1.58c-3.65-2-7.31-4.12-10.87-6.3l1.3-2.13c3.53,2.16,7.16,4.26,10.78,6.24Zm274.63-11.22-1.38-2.09c3.46-2.28,6.89-4.66,10.21-7.08l1.48,2C1678,1252.87,1674.56,1255.28,1671.07,1257.58ZM1375,1255.7c-3.44-2.33-6.88-4.79-10.23-7.29l1.5-2c3.31,2.48,6.72,4.91,10.13,7.22Zm316.34-12.9-1.56-2c3.21-2.58,6.41-5.28,9.5-8l1.66,1.87C1697.81,1237.47,1694.58,1240.19,1691.34,1242.8Zm-336.45-2.15c-3.22-2.66-6.42-5.42-9.5-8.22l1.68-1.85c3,2.77,6.22,5.51,9.41,8.14Zm355.26-14.46-1.74-1.8c3-2.87,5.89-5.85,8.72-8.86l1.82,1.71C1716.1,1220.28,1713.14,1223.29,1710.15,1226.19Zm-373.86-2.4c-3-3-5.89-6-8.69-9.06l1.84-1.69c2.78,3,5.68,6.06,8.61,9Zm391-15.91-1.9-1.62c2.69-3.15,5.33-6.39,7.86-9.65l2,1.53C1732.71,1201.43,1730,1204.71,1727.33,1207.88Zm-408-2.61c-2.66-3.2-5.29-6.51-7.8-9.82l2-1.51c2.48,3.28,5.08,6.56,7.73,9.73ZM1742.73,1188l-2-1.44c2.38-3.38,4.71-6.86,6.92-10.34l2.11,1.34C1747.48,1181.11,1745.13,1184.63,1742.73,1188Zm-438.51-2.78c-2.35-3.43-4.65-7-6.84-10.51l2.12-1.31c2.17,3.51,4.45,7,6.78,10.41Zm452-18.43-2.17-1.24c2-3.58,4-7.26,5.92-10.95l2.22,1.13C1760.28,1159.5,1758.27,1163.22,1756.21,1166.83Zm-465.17-2.9c-2-3.64-4-7.37-5.82-11.1l2.24-1.1c1.82,3.69,3.76,7.39,5.76,11Zm476.59-19.49-2.28-1c1.71-3.78,3.34-7.64,4.86-11.47l2.33.92C1771,1136.73,1769.35,1140.62,1767.63,1144.44Zm-487.7-3c-1.67-3.82-3.26-7.72-4.75-11.6l2.34-.89c1.47,3.84,3,7.71,4.7,11.48Zm497-20.43-2.37-.81c1.33-3.9,2.59-7.89,3.74-11.86l2.41.7C1779.5,1113.08,1778.23,1117.11,1776.89,1121.05Zm-505.91-3c-1.3-4-2.52-8-3.63-12l2.41-.67c1.1,4,2.31,8,3.6,11.9Zm512.89-21.11-2.43-.58c1-4,1.83-8.1,2.6-12.16l2.46.46C1785.72,1088.76,1784.84,1092.89,1783.87,1096.94Zm-519.58-3.08c-.92-4-1.75-8.19-2.48-12.31l2.46-.43c.72,4.08,1.55,8.18,2.46,12.19Zm524.25-21.58-2.47-.35c.57-4.08,1.06-8.23,1.44-12.36l2.49.24C1789.61,1064,1789.12,1068.16,1788.54,1072.28Zm-528.63-3.13c-.53-4.12-1-8.32-1.31-12.49l2.49-.2c.34,4.12.78,8.29,1.3,12.37Zm531-21.87-2.49-.11c.19-4.11.28-8.29.28-12.43h2.5C1791.16,1038.92,1791.07,1043.14,1790.87,1047.28Zm-533-3.15c-.11-3.1-.17-6.26-.17-9.39,0-1.06,0-2.11,0-3.17l2.5,0c0,1.05,0,2.09,0,3.14,0,3.1.06,6.23.16,9.3Zm530.71-15.54c-.09-4.13-.28-8.31-.57-12.42l2.49-.18c.29,4.15.49,8.37.58,12.55Zm-527.93-9.42-2.49-.14c.24-4.17.58-8.38,1-12.51l2.48.26C1261.24,1010.87,1260.9,1015,1260.66,1019.17Zm526.21-15.38c-.48-4.09-1.06-8.24-1.73-12.32l2.47-.4c.67,4.11,1.26,8.3,1.74,12.43Zm-523.61-9.34-2.47-.38c.63-4.12,1.37-8.28,2.19-12.36l2.46.49C1264.62,986.24,1263.89,990.36,1263.26,994.45Zm519.57-15.2c-.86-4-1.83-8.1-2.89-12.09l2.42-.64c1.06,4,2,8.14,2.91,12.21Zm-514.65-9.18-2.42-.61c1-4,2.14-8.11,3.35-12.09l2.39.72C1270.31,962,1269.19,966.07,1268.18,970.07Zm508.31-14.86c-1.25-3.94-2.6-7.9-4-11.77l2.34-.86c1.44,3.91,2.81,7.9,4.06,11.88Zm-501.1-9-2.35-.83c1.4-3.94,2.91-7.89,4.49-11.75l2.31.94C1278.28,938.43,1276.78,942.34,1275.39,946.24Zm492.52-14.33c-1.6-3.79-3.32-7.59-5.11-11.32l2.26-1.08c1.8,3.76,3.53,7.6,5.15,11.42Zm-483.07-8.72-2.26-1.06c1.76-3.77,3.64-7.56,5.58-11.27l2.21,1.17C1288.45,915.7,1286.59,919.45,1284.84,923.19Zm472.33-13.66c-2-3.62-4-7.25-6.15-10.79l2.15-1.29c2.15,3.58,4.24,7.24,6.2,10.89Zm-460.75-8.39-2.15-1.26c2.11-3.6,4.34-7.19,6.62-10.69l2.09,1.37C1300.72,894,1298.51,897.58,1296.42,901.14Zm447.95-12.89c-2.29-3.43-4.69-6.85-7.14-10.17l2-1.49c2.47,3.36,4.89,6.81,7.2,10.27Zm-434.35-8-2-1.46c2.43-3.37,5-6.74,7.58-10l2,1.56C1315,873.61,1312.44,877,1310,880.29Zm419.6-12c-2.6-3.2-5.31-6.39-8.06-9.46l1.87-1.67c2.77,3.11,5.51,6.32,8.13,9.55Zm-404.11-7.43-1.88-1.64c2.75-3.14,5.6-6.26,8.49-9.26l1.8,1.74C1331.06,854.63,1328.23,857.71,1325.51,860.82Zm387.55-11.11c-2.89-3-5.89-5.87-8.91-8.68l1.7-1.83c3.05,2.83,6.07,5.78,9,8.76Zm-370.31-6.82-1.72-1.81c3-2.87,6.16-5.7,9.31-8.42l1.63,1.9C1348.85,837.25,1345.75,840.05,1342.75,842.89Zm352.08-10.1c-3.14-2.66-6.4-5.29-9.69-7.81l1.52-2c3.32,2.54,6.61,5.19,9.79,7.88Zm-333.26-6.13-1.54-2c3.28-2.57,6.66-5.09,10-7.5l1.45,2C1368.17,821.61,1364.82,824.12,1361.57,826.66Zm313.52-9c-3.39-2.36-6.89-4.67-10.38-6.86l1.33-2.12c3.52,2.21,7,4.54,10.48,6.93Zm-293.26-5.38-1.36-2.1c3.51-2.25,7.11-4.45,10.71-6.53l1.25,2.17C1388.86,807.86,1385.3,810,1381.83,812.26ZM1654,804.41c-3.6-2-7.3-4-11-5.86l1.12-2.23c3.73,1.87,7.46,3.86,11.1,5.91Zm-250.68-4.57-1.15-2.22c3.69-1.91,7.48-3.75,11.26-5.49l1,2.27C1410.74,796.12,1407,798,1403.33,799.84Zm228.43-6.62c-3.78-1.69-7.65-3.3-11.5-4.8l.9-2.33c3.89,1.52,7.8,3.14,11.61,4.84Zm-205.88-3.72-.93-2.32c3.87-1.55,7.83-3,11.76-4.4l.82,2.36C1433.64,786.49,1429.72,788,1425.88,789.5Zm182.66-5.32c-3.92-1.32-7.92-2.55-11.88-3.68l.68-2.4c4,1.13,8,2.38,12,3.71Zm-159.17-2.85-.71-2.4c4-1.18,8.06-2.28,12.12-3.27l.59,2.42C1457.36,779.07,1453.32,780.16,1449.37,781.33Zm135.24-3.94c-4-.93-8.11-1.78-12.17-2.53l.45-2.46c4.1.75,8.24,1.61,12.29,2.56Zm-111.09-2L1473,773c4.09-.8,8.25-1.51,12.37-2.11l.37,2.47C1481.69,773.92,1477.57,774.62,1473.52,775.41Zm86.64-2.5c-4.09-.56-8.25-1-12.36-1.38L1548,769c4.15.36,8.35.83,12.47,1.39Zm-62-1.1-.25-2.49c4.14-.41,8.35-.73,12.52-1l.13,2.5C1506.39,771.09,1502.22,771.4,1498.12,771.81Zm37.27-1.08c-3.63-.14-7.32-.22-11-.22H1523V768h1.5c3.67,0,7.39.08,11,.23Z" transform="translate(-187.82 -270.04)"/><path class="cls-2" d="M442.33,1009c-4.19,0-8.42-.2-12.57-.51l.19-2.5c4.09.32,8.26.49,12.4.51Zm12.58-.37-.16-2.49c4.1-.27,8.26-.69,12.34-1.25l.34,2.48C463.29,1007.91,459.08,1008.33,454.91,1008.6Zm-37.65-1.55c-4.14-.62-8.3-1.39-12.37-2.3l.54-2.44c4,.9,8.12,1.66,12.2,2.27Zm62.56-1.87-.51-2.44c4-.85,8.07-1.86,12-3l.69,2.4C488,1003.3,483.91,1004.32,479.82,1005.18Zm-87.1-3.62c-4-1.2-8-2.57-11.93-4.06l.89-2.34c3.85,1.47,7.81,2.82,11.76,4ZM504,998.23l-.86-2.35c3.85-1.42,7.71-3,11.46-4.7l1,2.28C511.82,995.18,507.9,996.79,504,998.23Zm-134.8-5.64c-3.79-1.77-7.56-3.7-11.22-5.74l1.22-2.18c3.6,2,7.32,3.91,11.05,5.65Zm157.69-4.71-1.19-2.2c3.62-2,7.21-4.08,10.68-6.3l1.35,2.11C534.2,983.74,530.55,985.89,526.88,987.88ZM347.2,980.33c-3.49-2.29-6.95-4.73-10.27-7.27l1.52-2c3.27,2.5,6.68,4.91,10.12,7.17Zm200.87-6-1.49-2c3.3-2.46,6.56-5.07,9.68-7.75l1.63,1.89C554.73,969.21,551.42,971.85,548.07,974.35ZM327.2,965.07c-3.13-2.76-6.2-5.68-9.13-8.66l1.78-1.75c2.89,2.94,5.92,5.81,9,8.54Zm239.93-7.13-1.76-1.78c2.92-2.9,5.77-5.95,8.48-9l1.88,1.64C573,951.9,570.09,955,567.13,957.94ZM309.58,947.13c-2.71-3.19-5.34-6.51-7.81-9.87l2-1.48c2.43,3.31,5,6.59,7.69,9.73ZM583.66,939l-2-1.51c2.48-3.29,4.87-6.71,7.11-10.17l2.1,1.36C588.61,932.17,586.18,935.64,583.66,939Zm-289-12.11c-2.23-3.54-4.35-7.2-6.32-10.88l2.21-1.18c1.93,3.63,4,7.24,6.22,10.72Zm302.65-9-2.19-1.2c2-3.62,3.86-7.35,5.58-11.09l2.27,1C601.26,910.4,599.35,914.19,597.34,917.85ZM282.85,904.7c-1.7-3.82-3.28-7.74-4.69-11.66l2.35-.85c1.39,3.86,2.95,7.73,4.62,11.49Zm325-9.73-2.34-.87c1.45-3.86,2.77-7.82,3.93-11.77l2.4.71C610.65,887,609.31,891.06,607.84,895ZM274.31,881.06c-1.13-4-2.13-8.14-3-12.23l2.45-.5c.83,4,1.81,8.08,2.93,12Zm340.63-10.21-2.44-.53c.88-4,1.61-8.13,2.2-12.21l2.47.35C616.58,862.6,615.83,866.77,614.94,870.85ZM269.26,856.42c-.54-4.14-.94-8.35-1.19-12.52l2.5-.15c.24,4.11.64,8.27,1.17,12.34ZM618.51,846l-2.5-.17c.29-4.1.44-8.27.44-12.4H619C619,837.57,618.8,841.8,618.51,846ZM270.27,831.34l-2.5,0c.05-4.19.25-8.42.59-12.57l2.49.2C270.52,823.05,270.32,827.22,270.27,831.34Zm346-6.28c-.19-4.13-.54-8.29-1-12.36l2.48-.3c.49,4.14.84,8.35,1,12.54ZM272.32,806.64l-2.47-.38c.64-4.14,1.44-8.29,2.37-12.36l2.44.56C273.73,798.47,273,802.57,272.32,806.64Zm341-6.2c-.78-4-1.72-8.11-2.78-12.09l2.41-.64c1.09,4,2,8.16,2.83,12.26Zm-335.45-18-2.39-.74c1.23-4,2.62-8,4.13-11.9l2.33.91C280.45,774.59,279.08,778.54,277.87,782.48Zm329-6c-1.35-3.88-2.86-7.77-4.49-11.55l2.3-1c1.65,3.84,3.18,7.78,4.55,11.72Zm-320-17.16-2.26-1.07c1.79-3.77,3.74-7.54,5.8-11.18l2.18,1.23C290.54,751.91,288.62,755.62,286.85,759.34Zm310.24-5.58c-1.9-3.66-4-7.29-6.1-10.79l2.13-1.31c2.18,3.56,4.27,7.24,6.19,11Zm-298-16L297,736.36c2.31-3.48,4.78-6.92,7.33-10.23l2,1.53C303.77,730.92,301.34,734.31,299.06,737.74Zm285.07-5.1c-2.4-3.35-5-6.65-7.58-9.82l1.92-1.59c2.67,3.21,5.26,6.56,7.69,9.95ZM314.22,718.11l-1.86-1.66c2.78-3.12,5.71-6.17,8.71-9.08l1.74,1.79C319.86,712,317,715,314.22,718.11Zm254.07-4.54c-2.86-3-5.85-5.88-8.91-8.64l1.68-1.85c3.1,2.8,6.14,5.75,9,8.76ZM332,700.84l-1.61-1.91c3.19-2.69,6.53-5.29,9.91-7.75l1.47,2C338.45,695.63,335.16,698.2,332,700.84Zm217.87-3.9c-3.25-2.54-6.63-5-10-7.29l1.4-2.07c3.47,2.33,6.89,4.82,10.19,7.39ZM352.07,686.29l-1.32-2.13c3.55-2.2,7.22-4.31,10.91-6.25l1.17,2.21C359.19,682,355.57,684.11,352.07,686.29Zm177.24-3.19c-3.58-2.05-7.28-4-11-5.78l1.08-2.26c3.77,1.82,7.52,3.79,11.15,5.87ZM374,674.74l-1-2.29c3.82-1.67,7.75-3.22,11.69-4.62l.83,2.36C381.64,671.56,377.76,673.1,374,674.74Zm133-2.4c-3.83-1.52-7.77-2.91-11.7-4.14l.74-2.39c4,1.25,8,2.67,11.88,4.2Zm-109.59-5.87-.67-2.41c4-1.11,8.15-2.08,12.25-2.9l.48,2.45C405.37,664.42,401.31,665.38,397.35,666.47Zm85.93-1.56c-4-.94-8.1-1.75-12.17-2.41l.4-2.47c4.12.67,8.28,1.49,12.34,2.45Zm-61.62-3.28-.31-2.48c4.13-.51,8.35-.89,12.53-1.11l.13,2.5C429.89,660.75,425.74,661.12,421.66,661.63ZM458.8,661c-4.09-.37-8.26-.58-12.38-.66l0-2.5c4.18.08,8.41.3,12.56.67Z" transform="translate(-187.82 -270.04)"/><path class="cls-2" d="M1146.47,412.44a42.19,42.19,0,1,1,42.18-42.18A42.23,42.23,0,0,1,1146.47,412.44Zm0-82.49a40.31,40.31,0,1,0,40.31,40.31A40.35,40.35,0,0,0,1146.47,330Z" transform="translate(-187.82 -270.04)"/><path class="cls-3" d="M1585.38,563.88v760.17a28.64,28.64,0,0,1-28.63,28.65H452.05a28.65,28.65,0,0,1-28.65-28.65V563.88a28.66,28.66,0,0,1,28.65-28.66h1104.7A28.65,28.65,0,0,1,1585.38,563.88Z" transform="translate(-187.82 -270.04)"/><path class="cls-2" d="M1556.75,1354H452.05a29.93,29.93,0,0,1-29.9-29.9V563.88a29.93,29.93,0,0,1,29.9-29.9h1104.7a29.93,29.93,0,0,1,29.88,29.9v760.17A29.93,29.93,0,0,1,1556.75,1354ZM452.05,536.48a27.43,27.43,0,0,0-27.4,27.4v760.17a27.43,27.43,0,0,0,27.4,27.4h1104.7a27.42,27.42,0,0,0,27.38-27.4V563.88a27.42,27.42,0,0,0-27.38-27.4Z" transform="translate(-187.82 -270.04)"/><path class="cls-3" d="M1585.38,563.88V609H423.4V563.88a28.66,28.66,0,0,1,28.65-28.66h1104.7A28.65,28.65,0,0,1,1585.38,563.88Z" transform="translate(-187.82 -270.04)"/><path class="cls-2" d="M1586.63,610.23H422.15V563.88a29.93,29.93,0,0,1,29.9-29.9h1104.7a29.93,29.93,0,0,1,29.88,29.9Zm-1162-2.5H1584.13V563.88a27.42,27.42,0,0,0-27.38-27.4H452.05a27.43,27.43,0,0,0-27.4,27.4Z" transform="translate(-187.82 -270.04)"/><circle class="cls-4" cx="300.09" cy="302.06" r="13.33"/><path class="cls-4" d="M538.75,558.77a13.33,13.33,0,1,0,13.33,13.33A13.35,13.35,0,0,0,538.75,558.77Z" transform="translate(-187.82 -270.04)"/><path class="cls-2" d="M589.58,585.43a13.33,13.33,0,1,1,13.34-13.33A13.35,13.35,0,0,1,589.58,585.43Zm0-24.16a10.83,10.83,0,1,0,10.84,10.83A10.84,10.84,0,0,0,589.58,561.27Z" transform="translate(-187.82 -270.04)"/><path class="cls-2" d="M917.66,586.94H669.84a14.84,14.84,0,0,1,0-29.68H917.66a14.84,14.84,0,0,1,0,29.68ZM669.84,559.76a12.34,12.34,0,0,0,0,24.68H917.66a12.34,12.34,0,0,0,0-24.68Z" transform="translate(-187.82 -270.04)"/><path class="cls-2" d="M1232.79,962.72c0,119.7-97,216.75-216.72,216.75s-216.75-97-216.75-216.75c0-112.29,85.42-204.65,194.82-215.65l7.23,71.13a145.16,145.16,0,1,0,154.22,104.2l68.73-19.85A216.47,216.47,0,0,1,1232.79,962.72Z" transform="translate(-187.82 -270.04)"/><circle class="cls-3" cx="828.24" cy="692.68" r="175"/><circle class="cls-5" cx="828.24" cy="692.68" r="175"/><ellipse class="cls-3" cx="828.24" cy="692.68" rx="123.95" ry="123.99"/><path class="cls-2" d="M1030.21,1023.69v18.85h-24v-18c-17-1-33.44-5.61-43.63-11.88l12.9-29.22a81.44,81.44,0,0,0,39.22,10.87c11.38,0,15.46-2.38,15.46-6.46,0-14.94-65.71-2.88-65.71-47.21,0-19.19,13.92-35.32,41.76-39.23V882.9h24v18.17c12.55,1.19,24.78,4.42,34.46,9.86l-12.05,29c-11.73-6-22.76-8.83-33.11-8.83-11.73,0-15.46,3.39-15.46,7.46,0,14.27,65.71,2.38,65.71,46.2C1069.76,1003.14,1056.52,1019.11,1030.21,1023.69Z" transform="translate(-187.82 -270.04)"/><rect class="cls-3" x="1128.28" y="116.89" width="471.51" height="288.31"/><path class="cls-2" d="M1788.86,676.49h-474V385.68h474ZM1317.35,674h469V388.18h-469Z" transform="translate(-187.82 -270.04)"/><rect class="cls-6" x="1187.64" y="313.43" width="27.14" height="49.84"/><rect class="cls-6" x="1241.91" y="290.66" width="27.14" height="72.61"/><rect class="cls-6" x="1296.19" y="309.28" width="27.14" height="53.99"/><rect class="cls-6" x="1350.47" y="271.28" width="27.14" height="91.98"/><rect class="cls-6" x="1404.74" y="246.98" width="27.14" height="116.29"/><rect class="cls-6" x="1459.02" y="212.28" width="27.14" height="150.99"/><rect class="cls-6" x="1513.29" y="158.83" width="27.14" height="204.44"/><rect class="cls-6" x="1187.64" y="183.09" width="21.57" height="24.42"/><rect class="cls-6" x="1242.53" y="194.39" width="146.06" height="6.26"/><path class="cls-7" d="M1363.34,821.42l-29.86-82.49A87.72,87.72,0,1,0,1441.19,781Z" transform="translate(-187.82 -270.04)"/><path class="cls-2" d="M1452.85,749.76a87.73,87.73,0,0,0-107.7-42.08L1375,790.17Z" transform="translate(-187.82 -270.04)"/><rect class="cls-7" x="1092.18" y="832.46" width="207.5" height="197.5"/><rect class="cls-3" x="1124.68" y="884.96" width="116.25" height="8.34"/><rect class="cls-3" x="1124.68" y="909.96" width="116.25" height="8.34"/><rect class="cls-7" x="327.18" y="454.96" width="180.44" height="305"/><rect class="cls-3" x="354.68" y="499.13" width="118.33" height="108.33"/><rect class="cls-7" x="600.42" y="743.12" width="2.5" height="160.43" transform="translate(-599.71 441.12) rotate(-47.53)"/><rect class="cls-7" x="521.45" y="822.08" width="160.43" height="2.5" transform="translate(-585.92 352.42) rotate(-42.48)"/><rect class="cls-3" x="1.19" y="579.53" width="412.71" height="271.93"/><path class="cls-2" d="M602.92,1122.69H187.82V848.38h415.1Zm-412.71-2.38H600.53V850.76H190.21Z" transform="translate(-187.82 -270.04)"/><polyline class="cls-3" points="44.68 785.79 71.34 735.79 126.34 787.46 163.01 680.79 231.34 755.79 276.34 737.46 358.01 630.79"/><polygon class="cls-2" points="126.9 789.7 71.68 737.82 45.78 786.38 43.57 785.21 71.01 733.76 125.79 785.23 162.51 678.39 231.68 754.31 275.56 736.43 357.02 630.03 359 631.55 277.13 738.49 231.01 757.28 230.42 756.64 163.51 683.2 126.9 789.7"/><circle class="cls-2" cx="71.55" cy="735.59" r="6.87"/><circle class="cls-2" cx="125.93" cy="786.21" r="6.87"/><circle class="cls-2" cx="163.43" cy="681.21" r="6.87"/><line class="cls-3" x1="120.05" y1="624.13" x2="295.05" y2="624.13"/><rect class="cls-2" x="120.05" y="622.88" width="175" height="2.5"/><path class="cls-2" d="M1170.28,1506.87a211.2,211.2,0,0,1,140.55-231.73c-26.28,18.39-42.32,48.13-53.52,78.19s-18.53,61.62-32.35,90.58-35.58,56-65.78,66.84Z" transform="translate(-187.82 -270.04)"/><path class="cls-2" d="M1163,1507.27a485,485,0,0,0-32-164.19c-7.12-18.58-15.67-37.12-29.57-51.37s-34.1-23.62-53.69-20.14c24.39,18.26,37,48.3,44.15,77.93s9.86,60.39,19.88,89.17,29.19,56.52,57.88,66.81Z" transform="translate(-187.82 -270.04)"/><path class="cls-6" d="M1159.19,1511c-14-37.57-29.11-76.08-57.16-104.7s-72.5-45-109.23-29a135.67,135.67,0,0,1,75.88,48c13.84,17.58,23.14,38.42,37.37,55.68s35.94,31.17,57.93,27Z" transform="translate(-187.82 -270.04)"/><path class="cls-6" d="M1154.73,1508.38c-5.71-41.23-11.43-83.12-5.41-124.3s25.5-82.3,60.39-105c-19.31,18.94-25.76,47.62-25.77,74.67s5.47,53.85,5.93,80.9-4.91,55.77-23.2,75.7Z" transform="translate(-187.82 -270.04)"/><path class="cls-6" d="M1174,1502.37c13.37-34.07,27.62-69.44,54.85-93.9a118.92,118.92,0,0,1,63-29.15c-16.33,13-26.55,32.12-35,51.21s-15.8,39-28.08,55.87-30.72,30.8-51.59,31.7Z" transform="translate(-187.82 -270.04)"/><polygon class="cls-3" points="1054.12 1336 903.93 1336 880.78 1220.47 1077.27 1220.47 1054.12 1336"/><path class="cls-2" d="M1243,1607.29H1090.73l-23.65-118h199.54Zm-150.18-2.5h148.14l22.65-113H1070.13Z" transform="translate(-187.82 -270.04)"/><polygon class="cls-6" points="1322.99 1266.53 1322.99 1336 1232.89 1336 1274.14 1302.35 1276.31 1260.02 1322.99 1266.53"/><rect class="cls-8" x="1469.31" y="1568.7" width="2.5" height="23.74" transform="translate(-876.01 1286.74) rotate(-46.43)"/><rect class="cls-8" x="1283.42" y="1284.96" width="30.83" height="2.5"/><polygon class="cls-6" points="1428.28 1269.79 1431.54 1336 1341.44 1336 1379.43 1303.44 1379.43 1263.27 1428.28 1269.79"/><rect class="cls-8" x="1573" y="1570.32" width="2.5" height="18.67" transform="translate(-839.69 1443.65) rotate(-48.54)"/><rect class="cls-8" x="1389.67" y="1286.21" width="30.42" height="2.5"/><path class="cls-9" d="M1519.88,1137.24q2.32,207.65,35,408.55h75.91c-15.79-102.4-22.93-226.75-14.1-391.62l-54.82-44.9Z" transform="translate(-187.82 -270.04)"/><path class="cls-9" d="M1459.87,1155.55l-34.35,152.78a272.88,272.88,0,0,0-1.69,111.68L1448,1544.8h75.92l-23-163.83,54.94-249.73Z" transform="translate(-187.82 -270.04)"/><path class="cls-10" d="M1525,1302c-.19-3.15-4.51-73.41-5-82.31l-19.84-7.22.85-2.34,21.45,7.79v.88c0,1.54,3.27,55,5,83Z" transform="translate(-187.82 -270.04)"/><path class="cls-11" d="M1689.37,810.63l4.06-9.69s-14.68-30.94-10-35,12.19,7.5,12.19,7.5-2.19-37.5,5-37.81c6.06-.27,5.63,10.62,6.25,26.87,0,0,3.75-5,10.65.17,3.1-5.17,9.66-1.73,11.54,1.39,2.19-2.5,11.25-1.87,10,8.75-1.59,13.48-7.81,38.44-7.81,38.44l-20,16.56Z" transform="translate(-187.82 -270.04)"/><path class="cls-4" d="M1528.75,940l30.41-.24c53.34-4.76,95-48.09,95-48.09l35.2-81,41.88.62-24.58,95.25a69.74,69.74,0,0,1-21.81,35.22l-87.36,75.78Z" transform="translate(-187.82 -270.04)"/><polygon class="cls-4" points="1257.57 738.92 1272.05 885.51 1428.84 884.13 1423.42 707.46 1340.92 669.96 1283.84 694.13 1257.57 738.92"/><path class="cls-11" d="M1348.29,1023.2a15.74,15.74,0,0,0-9.19-3.94c-17.33-1.45-71.52-5.63-71-1.43.62,5,41.87,23.75,41.87,23.75l26.47,29.78,24.24-37.16Z" transform="translate(-187.82 -270.04)"/><path class="cls-4" d="M1466.48,954.11a36,36,0,0,0-25.91,19.15l-46.21,90.82-33.67-29.88-24.24,37.16,8.84,10c13.09,14.73,28.36,34.53,48.8,38.82,10.41,2.18,20.11-2.14,27.57-9.31a88.91,88.91,0,0,0,14.27-18.25l18.43-30.37L1513.11,946Z" transform="translate(-187.82 -270.04)"/><rect class="cls-6" x="1448.53" y="1008.75" width="2.5" height="90.63" transform="translate(-283.09 -124.68) rotate(-5.56)"/><polygon class="cls-8" points="1424.36 734.34 1409.67 747.46 1425.3 773.4 1424.36 734.34"/><path class="cls-12" d="M1712.29,781.15c-5.9,0-6.35-7.73-6.36-18.65h1.88c0,12.85,1,16.77,4.48,16.77a2.36,2.36,0,0,0,1.8-.84c1.67-1.79,2.32-6,2.52-9.73-.13-2.72-.07-5.09,0-6.07l1.88,0a58.6,58.6,0,0,1,0,5.87c.26,5.09,1.11,10.12,2.81,10.63a2.7,2.7,0,0,0,2.52-.37c2-1.46,3.16-5.58,3.75-9.26a45.78,45.78,0,0,1,.55-5.55l1.87.17a48.15,48.15,0,0,1-.48,5c-.13,3.9.31,7.68,1.89,8.34a3.07,3.07,0,0,0,2.94,0c2.15-1.31,2.93-5.73,3.05-7.32l1.87.14c0,.27-.54,6.7-3.94,8.78a4.9,4.9,0,0,1-4.65.14c-.44-.19-1.82-1-2.59-3.91a10.2,10.2,0,0,1-3.17,5,4.55,4.55,0,0,1-4.15.65c-1.65-.5-2.67-2.6-3.29-5.23a9.84,9.84,0,0,1-2,4A4.22,4.22,0,0,1,1712.29,781.15Z" transform="translate(-187.82 -270.04)"/><path class="cls-11" d="M1515.52,975.57a24.17,24.17,0,0,1-26-22.14l-.27-3.38-3.8-47.15,29.37-2.35,18.85-1.53,4.05,50.5A24.17,24.17,0,0,1,1515.52,975.57Z" transform="translate(-187.82 -270.04)"/><path class="cls-8" d="M1524.17,916.45c-9.15,16.12-22.25,27.73-35,33.6l-3.8-47.15,29.37-2.35Z" transform="translate(-187.82 -270.04)"/><path class="cls-11" d="M1533.75,867.07l-5.83,49.18s-18.75,17.93-46.25,17.07c-10-.3-15.92-9.8-19.37-21.87a112.4,112.4,0,0,1-3.13-16,222.16,222.16,0,0,1-1.25-35.88l42.5-14.14Z" transform="translate(-187.82 -270.04)"/><path class="cls-8" d="M1527.29,887.29c-4.43-15.77-12.38-23.71-23.13-25.41-34.16,18.54-56.35,7.5-72.5-13.13,39.59,7.71,56.88-48.54,94.8-11,28.12,8.54,27.6,35.42,11.67,57.29Z" transform="translate(-187.82 -270.04)"/><ellipse class="cls-11" cx="1533.28" cy="891.04" rx="13.69" ry="11.87" transform="translate(176.96 1954.99) rotate(-78.95)"/><path class="cls-8" d="M1537.66,886c-2,.33-3.23,1.82-4.18,3.5a18.87,18.87,0,0,0-1.91,5.67l-.73,0a7.76,7.76,0,0,1-.13-3.39,9.74,9.74,0,0,1,1.15-3.24,7.51,7.51,0,0,1,2.37-2.62,4.35,4.35,0,0,1,3.48-.7Z" transform="translate(-187.82 -270.04)"/><path class="cls-8" d="M1468.12,889.27c0,2.13-1,3.86-2.29,3.86s-2.29-1.73-2.29-3.86,1-3.85,2.29-3.85S1468.12,887.14,1468.12,889.27Z" transform="translate(-187.82 -270.04)"/><path class="cls-8" d="M1487.06,887.7c0,2.31-1.11,4.18-2.48,4.18s-2.48-1.87-2.48-4.18,1.11-4.18,2.48-4.18S1487.06,885.39,1487.06,887.7Z" transform="translate(-187.82 -270.04)"/><path class="cls-8" d="M1473.33,892.4a4.18,4.18,0,0,1-.65,2.09,10.06,10.06,0,0,1-1.27,1.64,6.85,6.85,0,0,0-1.9,2.78,3.22,3.22,0,0,0,.84,2.8,30.38,30.38,0,0,0,2.66,2.67l-.4.61a11,11,0,0,1-3.48-2.17,5.61,5.61,0,0,1-1.29-1.89,4.1,4.1,0,0,1-.15-2.45,5.16,5.16,0,0,1,1.11-2.07,13.05,13.05,0,0,1,1.49-1.42,6.94,6.94,0,0,0,2.31-2.7Z" transform="translate(-187.82 -270.04)"/><path class="cls-8" d="M1475.13,913.23a22.8,22.8,0,0,0,7.27-2.79,23.87,23.87,0,0,0,3.12-2.3c1-.86,1.94-1.78,2.93-2.73l.59.43a14.84,14.84,0,0,1-5.67,6.2,13.47,13.47,0,0,1-8.2,1.92Z" transform="translate(-187.82 -270.04)"/><path class="cls-8" d="M1481.57,877.35c-.54,2.82,8.33,3.73,9.92,4,1.32.23,3.19.38,3.46-1.61.35-2.47-2.34-2.73-3.86-3.06S1482.08,874.69,1481.57,877.35Z" transform="translate(-187.82 -270.04)"/><path class="cls-8" d="M1469.24,879.09c0,2.72-7.1,3-8.39,3.16-1.06.13-2.54.14-2.43-1.77.14-2.38,2.27-2.45,3.51-2.66S1469.28,876.51,1469.24,879.09Z" transform="translate(-187.82 -270.04)"/><circle class="cls-13" cx="1314.52" cy="626.05" r="9.06"/><path class="cls-13" d="M1466,904.23a8.92,8.92,0,0,1-3.65,7.22,112.4,112.4,0,0,1-3.13-16A9.08,9.08,0,0,1,1466,904.23Z" transform="translate(-187.82 -270.04)"/><rect class="cls-2" x="458.27" y="926.2" width="173.92" height="11.71"/><polygon class="cls-3" points="632.18 926.21 485.3 926.21 540.93 790.59 687.8 790.59 632.18 926.21"/><path class="cls-2" d="M820.84,1197.5H671.26l56.65-138.12H877.49ZM675,1195H819.16l54.6-133.12H729.59Z" transform="translate(-187.82 -270.04)"/><polygon class="cls-7" points="619.5 914.81 504.07 914.81 547.78 808.23 663.21 808.23 619.5 914.81"/><rect class="cls-8" x="571.2" y="941.66" width="2.5" height="394.98"/><rect class="cls-6" x="432.18" y="937.92" width="280.55" height="22.31"/><rect class="cls-8" x="203.28" y="1107.57" width="2.5" height="229.07"/><path class="cls-6" d="M461,1388.23H323.74a30.06,30.06,0,0,1,29.43-23.91h78.36A30.07,30.07,0,0,1,461,1388.23Z" transform="translate(-187.82 -270.04)"/><path class="cls-6" d="M184.59,1320.28h39.87A15.68,15.68,0,0,1,240.15,1336v0a0,0,0,0,1,0,0H168.91a0,0,0,0,1,0,0v0a15.68,15.68,0,0,1,15.68-15.68Z"/><path class="cls-12" d="M498.21,1037.74c3.51,5,8.54,12.18,9.1,18.43.81,9.08-13.72,2.71-13.89,3.5Z" transform="translate(-187.82 -270.04)"/><rect class="cls-11" x="242.28" y="778.38" width="45.92" height="67.3"/><path class="cls-8" d="M476,1060v48c-14.47-9.09-27-22.59-37.79-38.17Z" transform="translate(-187.82 -270.04)"/><path class="cls-11" d="M501.84,1041.82c-1.43,23.25-10.37,49.55-34.78,43.06-19.18-5.09-40.28-21.24-40.28-44.53s16.12-42.18,36-42.18c12.43,0,28.08,6,35.45,17.69C502.65,1022.85,502.47,1031.68,501.84,1041.82Z" transform="translate(-187.82 -270.04)"/><path class="cls-8" d="M461.2,1035.08c6.5-17.25,21.38-18.94,21.38-18.94S517,1050.22,514.9,1015c-1.69-28-29-25.34-29-25.34-13.36-17.39-34.79-10.59-42.6-.5s-5.05,4.28-23.45,10.84-8.57,34.53-11.85,36.55c-24.45,0-19.91,24.2-19.91,24.2l57.89,18.88,13.94-38.06Z" transform="translate(-187.82 -270.04)"/><ellipse class="cls-11" cx="458.59" cy="1042.04" rx="9.98" ry="12.96" transform="translate(-647.41 98.87) rotate(-30)"/><path class="cls-8" d="M459.84,1044.52a15.81,15.81,0,0,0-2.59-4.17,7.81,7.81,0,0,0-1.87-1.36c-.71-.38-1.5-.7-2.31-1.08l.13-.66a7.31,7.31,0,0,1,2.76.37,6.15,6.15,0,0,1,2.49,1.55,6.87,6.87,0,0,1,1.52,2.47,8.85,8.85,0,0,1,.52,2.72Z" transform="translate(-187.82 -270.04)"/><ellipse class="cls-8" cx="437.23" cy="981.78" rx="19.45" ry="21.08" transform="translate(-233.8 -248.25) rotate(-2.71)"/><circle class="cls-13" cx="294.05" cy="784.96" r="8.75"/><path class="cls-14" d="M516.25,1281.25,369.18,1262.5l27.72-146.18a32.07,32.07,0,0,1,43.25-23.84l50.12,22.27a29.75,29.75,0,0,1,17.5,23.83l2.83,47.74,3.23,54.13Z" transform="translate(-187.82 -270.04)"/><path class="cls-11" d="M650.83,1176.25l38.93-11.44a9.85,9.85,0,0,1,8.26,1.24c10.65,7.07,39,27.09,31.86,35.27-3.58,4.09-36.13-5.49-36.13-5.49L646.62,1209Z" transform="translate(-187.82 -270.04)"/><path class="cls-8" d="M513.83,1240.45c-12.26-15.6-19.53-36.2-22-61.7l18.72,7.57Z" transform="translate(-187.82 -270.04)"/><path class="cls-14" d="M485.83,1112.92l5.86,2.52a92.06,92.06,0,0,1,31.71,22.65l48.27,53.16,79.16-15,10.42,42.5-99.47,31.09a23.33,23.33,0,0,1-21.28-7.19l-71.75-78.07Z" transform="translate(-187.82 -270.04)"/><path class="cls-8" d="M570.75,1192.1c-.24-.26-23.79-25.9-44.18-48.77-20.17-22.6-50.9-33.59-51.21-33.7l.83-2.36c.31.11,31.64,11.3,52.24,34.4,20.39,22.85,43.92,48.48,44.16,48.73Z" transform="translate(-187.82 -270.04)"/><rect class="cls-8" x="505.87" y="1160.24" width="2.5" height="95.93" transform="translate(-885.6 423.24) rotate(-44.09)"/><polygon class="cls-6" points="323.1 1232.31 291.37 1294.11 371.52 1335.26 350.19 1286.48 367.59 1247.83 323.1 1232.31"/><rect class="cls-8" x="514.76" y="1558.62" width="23.74" height="2.5" transform="translate(-606.87 -57.84) rotate(-16.4)"/><path class="cls-15" d="M560.83,1543l-72.61-27.09L538,1361.15c8.54-22.91,34.87-34.24,58.81-25.31h0c23.93,8.92,36.4,34.74,27.85,57.64Z" transform="translate(-187.82 -270.04)"/><polygon class="cls-6" points="443.43 1262.46 450.51 1336 540.61 1336 499.36 1302.35 489.68 1259.96 443.43 1262.46"/><rect class="cls-8" x="664.32" y="1577.03" width="24.38" height="2.5" transform="translate(-865.73 252.69) rotate(-28.87)"/><path class="cls-4" d="M696.25,1541.25l-78.75,12.5-53.93-158.58-9.82-28.92-133.93,1.08a55.23,55.23,0,0,1-56.22-60.63l5.58-44.2,132.5,16.67,87.07,9.58c36.25,6.25,47.38,28.2,54.92,56.4Z" transform="translate(-187.82 -270.04)"/><path class="cls-8" d="M563.57,1395.17l-9.82-28.92,18.13-.62C573.55,1376.52,569.23,1388.7,563.57,1395.17Z" transform="translate(-187.82 -270.04)"/><rect class="cls-8" x="53.43" y="1334.75" width="1517.5" height="2.5"/></g></svg>