<svg xmlns="http://www.w3.org/2000/svg" xmlns:xlink="http://www.w3.org/1999/xlink" viewBox="0 0 500 500"><defs><style>.cls-1,.cls-12,.cls-3,.cls-4,.cls-5,.cls-7{fill:none;}.cls-2{fill:#fff;}.cls-3,.cls-4,.cls-5,.cls-7{stroke:#1695a4;stroke-width:1.4px;}.cls-12,.cls-3,.cls-4,.cls-5,.cls-7{stroke-miterlimit:10;}.cls-4{stroke-dasharray:4.78 5.73;}.cls-5{stroke-dasharray:5.46 6.55;}.cls-6{fill:#15b0bf;}.cls-7{stroke-dasharray:5 6;}.cls-8{fill:#1695a4;}.cls-9{fill:#d1ecfb;}.cls-10,.cls-16{fill:#2c5871;}.cls-11{fill:#f99b1c;}.cls-12{stroke:#fff;stroke-width:2px;}.cls-13{fill:#1d4759;}.cls-14{fill:#fec00f;}.cls-15{fill:#ffd637;}.cls-16{font-size:1.96px;font-family:Montserrat-Regular, Montserrat;}.cls-17{letter-spacing:0.01em;}.cls-18{letter-spacing:-0.01em;}.cls-19{clip-path:url(#clip-path);}</style><clipPath id="clip-path"><circle class="cls-1" cx="204.33" cy="112.48" r="32.83"/></clipPath></defs><title>scarcity-concept</title><g id="BACKGROUND"><rect class="cls-2" width="500" height="500"/></g><g id="OBJECTS"><line class="cls-3" x1="252.71" y1="374" x2="252.71" y2="376.5"/><line class="cls-4" x1="252.71" y1="382.23" x2="252.71" y2="410.89"/><polyline class="cls-3" points="252.71 413.76 252.71 416.26 250.21 416.26"/><line class="cls-5" x1="243.66" y1="416.26" x2="198.9" y2="416.26"/><line class="cls-3" x1="195.62" y1="416.26" x2="193.12" y2="416.26"/><circle class="cls-6" cx="252.71" cy="272.77" r="88.99" transform="translate(-71.66 454.56) rotate(-76.46)"/><circle class="cls-7" cx="252.71" cy="272.77" r="96.22" transform="translate(-118.86 258.58) rotate(-45)"/><circle class="cls-8" cx="252.71" cy="272.77" r="79.59" transform="translate(-118.86 258.58) rotate(-45)"/><circle class="cls-2" cx="252.71" cy="272.77" r="75.06" transform="translate(-71.52 454.8) rotate(-76.5)"/><path class="cls-9" d="M252.71,205.41a75.06,75.06,0,0,1,74.94,70.88c.07-1.38.12-2.77.12-4.18a75.06,75.06,0,1,0-150.12,0c0,1.41,0,2.8.12,4.18A75.06,75.06,0,0,1,252.71,205.41Z"/><path class="cls-10" d="M261.07,272.77a8.36,8.36,0,1,1-8.36-8.36A8.36,8.36,0,0,1,261.07,272.77Z"/><path class="cls-10" d="M252.71,275.9a3.14,3.14,0,0,1-3.14-3.13V221.83a3.14,3.14,0,1,1,6.27,0v50.94A3.13,3.13,0,0,1,252.71,275.9Z"/><path class="cls-10" d="M219.73,294.94a3.13,3.13,0,0,1-1.57-5.85l33-19a3.14,3.14,0,0,1,3.14,5.43l-33,19A3.11,3.11,0,0,1,219.73,294.94Z"/><path class="cls-2" d="M257.5,272.77a4.79,4.79,0,1,1-4.79-4.79A4.79,4.79,0,0,1,257.5,272.77Z"/><path class="cls-8" d="M252.71,211.35a2.08,2.08,0,0,1-2.09-2.09V197.05a2.09,2.09,0,1,1,4.18,0v12.21A2.09,2.09,0,0,1,252.71,211.35Z"/><path class="cls-8" d="M252.71,350.57a2.09,2.09,0,0,1-2.09-2.09V336.27a2.09,2.09,0,0,1,4.18,0v12.21A2.1,2.1,0,0,1,252.71,350.57Z"/><path class="cls-8" d="M328.42,274.85H316.21a2.09,2.09,0,1,1,0-4.17h12.21a2.09,2.09,0,1,1,0,4.17Z"/><path class="cls-8" d="M189.2,274.85H177a2.09,2.09,0,1,1,0-4.17H189.2a2.09,2.09,0,1,1,0,4.17Z"/><path class="cls-8" d="M221,219.86a2.09,2.09,0,0,1-1.81-1.05L213,208.24a2.09,2.09,0,1,1,3.62-2.09l6.11,10.57a2.1,2.1,0,0,1-1.81,3.14Z"/><path class="cls-8" d="M290.57,340.43a2.09,2.09,0,0,1-1.81-1.05l-6.11-10.57a2.09,2.09,0,1,1,3.62-2.09l6.11,10.57a2.1,2.1,0,0,1-1.81,3.14Z"/><path class="cls-8" d="M307.71,243.1a2.09,2.09,0,0,1-1-3.9l10.57-6.1a2.09,2.09,0,1,1,2.09,3.62l-10.57,6.1A2.08,2.08,0,0,1,307.71,243.1Z"/><path class="cls-8" d="M187.14,312.71a2.09,2.09,0,0,1-1-3.9l10.58-6.1a2.09,2.09,0,0,1,2.09,3.62l-10.58,6.1A2.08,2.08,0,0,1,187.14,312.71Z"/><path class="cls-8" d="M197.71,243.1a2.08,2.08,0,0,1-1-.28l-10.58-6.1a2.09,2.09,0,0,1,2.09-3.62l10.58,6.1a2.09,2.09,0,0,1-1,3.9Z"/><path class="cls-8" d="M318.28,312.71a2.09,2.09,0,0,1-1-.28l-10.57-6.1a2.09,2.09,0,1,1,2.09-3.62l10.57,6.1a2.09,2.09,0,0,1-1,3.9Z"/><path class="cls-8" d="M284.46,219.86a2.09,2.09,0,0,1-1.81-3.14l6.11-10.57a2.09,2.09,0,1,1,3.62,2.09l-6.11,10.57A2.1,2.1,0,0,1,284.46,219.86Z"/><path class="cls-8" d="M214.85,340.43a2.06,2.06,0,0,1-1-.28,2.1,2.1,0,0,1-.77-2.86l6.11-10.57A2.08,2.08,0,0,1,222,326a2.1,2.1,0,0,1,.77,2.86l-6.11,10.57A2.1,2.1,0,0,1,214.85,340.43Z"/><rect class="cls-11" x="267.82" y="266.07" width="2.09" height="45.69" transform="translate(-125.55 274.74) rotate(-45)"/><path class="cls-11" d="M255.94,272.77a3.23,3.23,0,1,1-3.23-3.23A3.23,3.23,0,0,1,255.94,272.77Z"/><path class="cls-10" d="M187.68,420.89V413.4a3.45,3.45,0,0,0-3.44-3.45h-.17a3.5,3.5,0,0,1-3.26-2.33c-.29-.8-.61-1.58-1-2.34a3.48,3.48,0,0,1,.65-4l.12-.12a3.45,3.45,0,0,0,0-4.87l-5.3-5.3a3.43,3.43,0,0,0-4.87,0l-.13.12a3.48,3.48,0,0,1-4,.65c-.76-.36-1.53-.68-2.33-1a3.49,3.49,0,0,1-2.33-3.26v-.17a3.46,3.46,0,0,0-3.45-3.45h-7.5a3.45,3.45,0,0,0-3.44,3.45v.17a3.49,3.49,0,0,1-2.34,3.26c-.79.29-1.57.61-2.33,1a3.48,3.48,0,0,1-4-.65l-.12-.12a3.45,3.45,0,0,0-4.88,0l-5.3,5.3a3.45,3.45,0,0,0,0,4.87l.12.12a3.48,3.48,0,0,1,.65,4c-.35.76-.68,1.54-1,2.34a3.48,3.48,0,0,1-3.26,2.33h-.16a3.45,3.45,0,0,0-3.45,3.45v7.49a3.44,3.44,0,0,0,3.45,3.45h.16a3.48,3.48,0,0,1,3.26,2.34c.29.79.62,1.57,1,2.33a3.48,3.48,0,0,1-.65,4l-.12.12a3.45,3.45,0,0,0,0,4.87l5.3,5.3a3.45,3.45,0,0,0,4.88,0l.12-.12a3.48,3.48,0,0,1,4-.64c.76.35,1.54.68,2.33,1a3.48,3.48,0,0,1,2.34,3.26v.16a3.44,3.44,0,0,0,3.44,3.45h7.5a3.45,3.45,0,0,0,3.45-3.45v-.16a3.47,3.47,0,0,1,2.33-3.26c.8-.29,1.57-.62,2.33-1a3.5,3.5,0,0,1,4,.64l.12.12a3.43,3.43,0,0,0,4.87,0l5.3-5.3a3.45,3.45,0,0,0,0-4.87l-.12-.12a3.48,3.48,0,0,1-.65-4c.36-.76.68-1.54,1-2.33a3.48,3.48,0,0,1,3.26-2.34h.17A3.44,3.44,0,0,0,187.68,420.89Z"/><circle class="cls-12" cx="154.48" cy="417.15" r="21.26"/><circle class="cls-8" cx="154.48" cy="417.15" r="11.35" transform="translate(-290.08 401.61) rotate(-67.68)"/><circle class="cls-2" cx="154.48" cy="417.15" r="16.24" transform="translate(-289.96 398.39) rotate(-67.26)"/><circle class="cls-13" cx="154.48" cy="417.15" r="11.35" transform="translate(-290.08 401.61) rotate(-67.68)"/><path class="cls-14" d="M148.51,388.24v-5.83a2.68,2.68,0,0,0-2.68-2.69h-.13a2.71,2.71,0,0,1-2.54-1.82c-.22-.62-.48-1.22-.75-1.81a2.74,2.74,0,0,1,.5-3.1l.09-.09a2.67,2.67,0,0,0,0-3.79L138.88,365a2.69,2.69,0,0,0-3.8,0l-.09.09a2.71,2.71,0,0,1-3.09.51c-.6-.28-1.2-.53-1.82-.76a2.71,2.71,0,0,1-1.82-2.54v-.13a2.68,2.68,0,0,0-2.68-2.68h-5.84a2.68,2.68,0,0,0-2.68,2.68v.13a2.71,2.71,0,0,1-1.82,2.54c-.62.23-1.23.48-1.82.76a2.71,2.71,0,0,1-3.09-.51l-.09-.09a2.69,2.69,0,0,0-3.8,0l-4.13,4.13a2.69,2.69,0,0,0,0,3.79l.1.09a2.74,2.74,0,0,1,.5,3.1,19.13,19.13,0,0,0-.75,1.81,2.73,2.73,0,0,1-2.54,1.82h-.13a2.69,2.69,0,0,0-2.69,2.69v5.83a2.7,2.7,0,0,0,2.69,2.69h.13a2.73,2.73,0,0,1,2.54,1.82c.22.61.47,1.22.75,1.81a2.72,2.72,0,0,1-.5,3.09l-.1.1a2.69,2.69,0,0,0,0,3.79l4.13,4.13a2.69,2.69,0,0,0,3.8,0l.09-.09a2.71,2.71,0,0,1,3.09-.51c.59.28,1.2.53,1.82.76a2.71,2.71,0,0,1,1.82,2.54v.13a2.68,2.68,0,0,0,2.68,2.68h5.84a2.68,2.68,0,0,0,2.68-2.68v-.13a2.71,2.71,0,0,1,1.82-2.54c.62-.23,1.22-.48,1.82-.76a2.71,2.71,0,0,1,3.09.51l.09.09a2.69,2.69,0,0,0,3.8,0l4.12-4.13a2.67,2.67,0,0,0,0-3.79l-.09-.1a2.72,2.72,0,0,1-.5-3.09c.27-.59.53-1.2.75-1.81a2.71,2.71,0,0,1,2.54-1.82h.13A2.69,2.69,0,0,0,148.51,388.24Z"/><path class="cls-2" d="M122.66,402.64A17.32,17.32,0,1,1,140,385.32,17.34,17.34,0,0,1,122.66,402.64Zm0-33.11a15.8,15.8,0,1,0,15.79,15.79A15.81,15.81,0,0,0,122.66,369.53Z"/><circle class="cls-8" cx="122.66" cy="385.32" r="8.84" transform="translate(-280.35 352.08) rotate(-67.63)"/><path class="cls-2" d="M122.66,398a12.65,12.65,0,1,1,12.65-12.65A12.66,12.66,0,0,1,122.66,398Z"/><circle class="cls-11" cx="122.66" cy="385.32" r="8.84" transform="translate(-280.35 352.08) rotate(-67.63)"/><polygon class="cls-9" points="90.58 229.32 90.58 181.88 90.58 158.1 107.63 141.06 155.16 141.06 155.16 158.67 155.16 181.88 155.16 229.32 90.58 229.32"/><polygon class="cls-6" points="107.63 158.1 90.58 158.1 107.63 141.06 107.63 158.1"/><rect class="cls-10" x="107.62" y="172.94" width="37.87" height="1.49"/><rect class="cls-10" x="100.24" y="177.42" width="45.26" height="1.49"/><rect class="cls-10" x="107.62" y="214.75" width="37.87" height="1.49"/><rect class="cls-10" x="100.24" y="219.23" width="45.26" height="1.49"/><rect class="cls-10" x="100.24" y="181.91" width="45.26" height="1.49"/><rect class="cls-10" x="100.24" y="186.39" width="45.26" height="1.49"/><rect class="cls-10" x="107.87" y="193.62" width="16.76" height="1.49"/><rect class="cls-10" x="107.87" y="200.72" width="16.76" height="1.49"/><rect class="cls-10" x="107.87" y="207.82" width="16.76" height="1.49"/><polygon class="cls-6" points="105 190.58 102.95 194.28 102.22 192.95 101.39 193.41 102.95 196.23 105.82 191.04 105 190.58"/><polygon class="cls-6" points="105 197.68 102.95 201.38 102.22 200.05 101.39 200.51 102.95 203.33 105.82 198.14 105 197.68"/><polygon class="cls-6" points="105 204.78 102.95 208.48 102.22 207.15 101.39 207.61 102.95 210.43 105.82 205.24 105 204.78"/><rect class="cls-6" x="129.59" y="193.4" width="15.91" height="15.91"/><rect class="cls-10" x="130.82" y="163.68" width="6.66" height="3.28" transform="translate(-31.17 299.47) rotate(-90)"/><rect class="cls-10" x="132.27" y="160.27" width="13.48" height="3.28" transform="translate(-22.91 300.92) rotate(-90)"/><rect class="cls-10" x="139.4" y="162.56" width="8.91" height="3.28" transform="translate(-20.34 308.06) rotate(-90)"/><polyline class="cls-7" points="122.87 233.94 122.87 311.35 158.04 311.35"/><rect class="cls-10" x="289.56" y="152.73" width="21.65" height="10.85" transform="translate(142.23 458.54) rotate(-90)"/><rect class="cls-11" x="297.69" y="146.95" width="33.21" height="10.85" transform="translate(161.92 466.68) rotate(-90)"/><rect class="cls-6" x="314.76" y="150.11" width="26.9" height="10.85" transform="translate(172.68 483.75) rotate(-90)"/><rect class="cls-11" x="321.03" y="142.46" width="42.2" height="10.85" transform="translate(194.25 490.01) rotate(-90)"/><rect class="cls-6" x="327.42" y="134.93" width="57.26" height="10.85" transform="translate(215.69 496.4) rotate(-90)"/><polygon class="cls-10" points="300.69 140.85 300.08 140.31 314.21 124.38 328.12 131.88 355.74 100.51 356.35 101.05 328.31 132.91 314.39 125.41 300.69 140.85"/><path class="cls-10" d="M302.27,140.58a1.89,1.89,0,1,1-1.89-1.89A1.89,1.89,0,0,1,302.27,140.58Z"/><circle class="cls-11" cx="314.3" cy="124.89" r="1.89"/><path class="cls-6" d="M330.11,132.39a1.9,1.9,0,1,1-1.9-1.89A1.89,1.89,0,0,1,330.11,132.39Z"/><path class="cls-6" d="M357.94,100.78a1.89,1.89,0,1,1-1.89-1.89A1.89,1.89,0,0,1,357.94,100.78Z"/><path class="cls-11" d="M344,116.59a1.89,1.89,0,1,1-1.89-1.89A1.89,1.89,0,0,1,344,116.59Z"/><polyline class="cls-7" points="366.07 153.92 399.73 153.92 399.73 205.1 326.32 205.1"/><path class="cls-13" d="M339.09,423.31a2.72,2.72,0,0,1-3.86,0l-3.41-3.52a2.72,2.72,0,0,1,0-3.86h0a2.74,2.74,0,0,1,3.87,0l3.4,3.52a2.72,2.72,0,0,1,0,3.86Z"/><path class="cls-10" d="M361.37,445.57h0a5.48,5.48,0,0,1-7.74,0L336.93,428.8a5.47,5.47,0,0,1,0-7.73h0a5.47,5.47,0,0,1,7.74,0l16.69,16.76a5.48,5.48,0,0,1,0,7.73Z"/><path class="cls-6" d="M334.63,418.67h0a21.34,21.34,0,1,1,6.27-15.07,21.28,21.28,0,0,1-6.27,15.07Z"/><path class="cls-1" d="M332.82,416.86"/><path class="cls-2" d="M308.26,392.31a15.91,15.91,0,1,0,22.5,22.49h0a15.91,15.91,0,1,0-22.5-22.49Z"/><path class="cls-9" d="M304.68,408.16a15.92,15.92,0,0,1,30.69-5.9,15.92,15.92,0,1,0-30.63,7.21C304.71,409,304.68,408.61,304.68,408.16Z"/><polyline class="cls-7" points="274.36 372.68 274.36 436.12 334.25 436.12"/><path class="cls-14" d="M405.21,330.94a19.41,19.41,0,1,0-29.49,0h0l0,0a17,17,0,0,0,1.23,1.31c1.65,1.93,4.33,5.76,4.33,10.3h18.33c0-4.54,2.68-8.37,4.33-10.3a17,17,0,0,0,1.23-1.31l0,0Z"/><path class="cls-10" d="M395.62,332.84c-.54,0-.78-.53-.95-.91-.07-.16-.22-.5-.3-.5s-.23.34-.3.5c-.17.38-.41.91-.95.91s-.78-.53-.95-.91c-.07-.16-.22-.5-.3-.5s-.23.34-.3.5c-.18.38-.41.91-.95.91s-.78-.53-.95-.91c-.07-.16-.22-.5-.3-.5s-.24.34-.31.5c-.17.38-.4.91-.95.91s-.77-.53-.95-.91c-.07-.16-.22-.5-.3-.5s-.24.34-.31.5c-.17.38-.4.91-.95.91v-.7c.09,0,.24-.34.31-.5.17-.38.41-.91.95-.91s.78.53.95.91c.07.16.22.5.3.5s.24-.34.31-.5c.17-.38.4-.91.95-.91s.77.53.94.91c.07.16.22.5.31.5s.23-.34.3-.5c.17-.38.41-.91.95-.91s.78.53.95.91c.07.16.22.5.3.5s.23-.34.3-.5c.17-.38.41-.91.95-.91s.78.53.95.91c.07.16.22.5.3.5v.7Z"/><path class="cls-13" d="M399.63,342.57v4.21a9.16,9.16,0,0,1-9.16,9.16h0a9.15,9.15,0,0,1-9.15-9.15v-4.22Z"/><path class="cls-10" d="M390.47,355.94a9.15,9.15,0,0,0,7.12-3.4H383.36A9.14,9.14,0,0,0,390.47,355.94Z"/><path class="cls-15" d="M390.46,293.12a.47.47,0,0,1-.47-.47v-9.9a.47.47,0,0,1,.94,0v9.9a.47.47,0,0,1-.47.47Z"/><path class="cls-15" d="M377.85,296.5a.46.46,0,0,1-.4-.24l-4.95-8.56a.47.47,0,0,1,.17-.64.46.46,0,0,1,.64.17l4.95,8.56a.48.48,0,0,1-.17.65.53.53,0,0,1-.24.06Z"/><path class="cls-15" d="M368.63,305.73a.42.42,0,0,1-.24-.07l-8.56-4.94a.47.47,0,1,1,.47-.81l8.56,4.94a.46.46,0,0,1,.17.64.47.47,0,0,1-.4.24Z"/><path class="cls-15" d="M365.25,318.34h-9.89a.47.47,0,0,1,0-.94h9.89a.47.47,0,1,1,0,.94Z"/><path class="cls-10" d="M400.59,346.54H380.73a.94.94,0,0,1,0-1.88h19.86a.94.94,0,0,1,0,1.88Z"/><path class="cls-10" d="M400.59,350.21H380.73a.95.95,0,0,1,0-1.89h19.86a.95.95,0,0,1,0,1.89Z"/><path class="cls-15" d="M360.07,335.89a.49.49,0,0,1-.41-.24.47.47,0,0,1,.17-.64l8.57-4.95a.46.46,0,0,1,.64.18.47.47,0,0,1-.17.64l-8.57,4.94a.39.39,0,0,1-.23.07Z"/><path class="cls-15" d="M372.92,348.73a.47.47,0,0,1-.41-.7l4.95-8.57a.47.47,0,0,1,.64-.17.46.46,0,0,1,.17.64l-4.94,8.57a.48.48,0,0,1-.41.23Z"/><path class="cls-15" d="M408,348.72a.45.45,0,0,1-.4-.23l-4.95-8.57a.47.47,0,0,1,.17-.64.46.46,0,0,1,.64.18l4.95,8.56a.47.47,0,0,1-.17.64.53.53,0,0,1-.24.06Z"/><path class="cls-15" d="M420.87,335.87a.53.53,0,0,1-.24-.06l-8.56-4.95a.46.46,0,0,1-.17-.64.47.47,0,0,1,.64-.17L421.1,335a.46.46,0,0,1-.23.87Z"/><path class="cls-15" d="M425.57,318.32h-9.89a.47.47,0,0,1,0-.94h9.89a.47.47,0,0,1,0,.94Z"/><path class="cls-15" d="M412.3,305.71a.47.47,0,0,1-.41-.23.47.47,0,0,1,.17-.64l8.57-4.95a.47.47,0,0,1,.64.17.47.47,0,0,1-.17.64l-8.57,4.95a.49.49,0,0,1-.23.06Z"/><path class="cls-15" d="M403.06,296.49a.46.46,0,0,1-.23-.06.47.47,0,0,1-.17-.64l4.94-8.57a.47.47,0,0,1,.64-.17.46.46,0,0,1,.17.64l-4.94,8.57a.47.47,0,0,1-.41.23Z"/><path class="cls-15" d="M390.46,293.12a.47.47,0,0,1-.47-.47v-9.9a.47.47,0,0,1,.94,0v9.9a.47.47,0,0,1-.47.47Z"/><rect class="cls-10" x="385.02" y="329.4" width="1.67" height="13.17"/><rect class="cls-10" x="394.24" y="329.4" width="1.67" height="13.17"/><polyline class="cls-7" points="317.13 351.54 352.63 387.04 390.46 387.04 390.46 358.93"/><path class="cls-6" d="M426.87,275.31V268a32.12,32.12,0,0,1-13.1-3.31l2.31-9a27.28,27.28,0,0,0,12.78,3.38c4.47,0,7.47-1.77,7.47-4.76s-2.46-4.79-8.24-6.71c-8.24-2.78-13.86-6.62-13.86-14.09,0-6.85,4.78-12.17,13-13.7v-7.32h7.54v6.78A28.07,28.07,0,0,1,446,221.8l-2.32,8.7a23.8,23.8,0,0,0-11.09-2.7c-5,0-6.62,2.23-6.62,4.39,0,2.46,2.7,4.16,9.32,6.54,9.16,3.24,12.78,7.48,12.78,14.48,0,6.85-4.77,12.71-13.63,14.17v7.93Z"/><rect class="cls-10" x="53.04" y="256.71" width="48.8" height="91.43" rx="6.99"/><rect class="cls-9" x="55.2" y="260.95" width="44.46" height="83.88" rx="3.17"/><path class="cls-13" d="M83.44,259.61H76.36a.47.47,0,0,1-.47-.48h0a.47.47,0,0,1,.47-.47h7.08a.47.47,0,0,1,.47.47h0A.47.47,0,0,1,83.44,259.61Z"/><path class="cls-13" d="M74.88,259.13a1,1,0,1,1-.95-.94A.95.95,0,0,1,74.88,259.13Z"/><path class="cls-10" d="M74.32,259.13a.4.4,0,1,1-.39-.39A.4.4,0,0,1,74.32,259.13Z"/><path class="cls-13" d="M71.92,259.13a.48.48,0,0,1-.48.48.47.47,0,0,1-.48-.48.48.48,0,0,1,.48-.48A.49.49,0,0,1,71.92,259.13Z"/><path class="cls-10" d="M87.82,341.46H67a.52.52,0,0,1-.52-.52h0a.52.52,0,0,1,.52-.52H87.82a.52.52,0,0,1,.52.52h0A.52.52,0,0,1,87.82,341.46Z"/><path class="cls-10" d="M101.83,278.72h0V272.3h0a1.15,1.15,0,0,1,1.15,1.14v4.14A1.15,1.15,0,0,1,101.83,278.72Z"/><path class="cls-10" d="M53,278.72h0a1.14,1.14,0,0,1-1.15-1.14v-4.14A1.14,1.14,0,0,1,53,272.3h0Z"/><path class="cls-10" d="M101.83,287.1h0v-6.43h0a1.16,1.16,0,0,1,1.15,1.15V286A1.15,1.15,0,0,1,101.83,287.1Z"/><path class="cls-6" d="M94.06,286.89A6.76,6.76,0,0,0,85,280.51a7.92,7.92,0,0,0-15.63,1.65,5.76,5.76,0,0,0-1.18-.12,5.82,5.82,0,0,0-1.68,11.39,4.81,4.81,0,0,0,1.53.25H87.61a4.8,4.8,0,0,0,1.7-.32A6.79,6.79,0,0,0,94.06,286.89Z"/><path class="cls-10" d="M83.89,289.18l-2.21-2.35-.84-.89-2.22-2.35a.56.56,0,0,0-.84,0l-2.21,2.35-.84.89-2.21,2.35c-.24.24-.15.45.19.45H75.4v8.43a.61.61,0,0,0,.61.61H80.4a.61.61,0,0,0,.61-.61v-8.43H83.7C84,289.63,84.12,289.42,83.89,289.18Z"/><path class="cls-10" d="M68.31,336.75l-1.85-1.07,1.85-1.07ZM67,335.68l1.11.64V335Z"/><path class="cls-10" d="M78.78,336.66H76.56v-1l1.11-1,1.11,1Zm-2-.25h1.72v-.67l-.86-.75-.86.75Z"/><path class="cls-10" d="M87.43,336.66a1,1,0,1,1,1-1A1,1,0,0,1,87.43,336.66Zm0-1.71a.73.73,0,1,0,.73.73A.73.73,0,0,0,87.43,335Z"/><text class="cls-16" transform="translate(93.06 263.99)">1<tspan class="cls-17" x="0.71" y="0">2</tspan><tspan class="cls-18" x="1.84" y="0">.</tspan><tspan x="2.24" y="0">00</tspan></text><path class="cls-10" d="M87.72,262.94a0,0,0,0,0-.06,0s0,0,0,.06a.31.31,0,0,1,.1.25.3.3,0,0,1-.12.26,0,0,0,0,0,0,.06l0,0h0a.38.38,0,0,0,.17-.34A.37.37,0,0,0,87.72,262.94Zm.33-.42s0,0-.06,0a0,0,0,0,0,0,.06h0a.84.84,0,0,1,.28.65.79.79,0,0,1-.34.69,0,0,0,0,0,0,.06.05.05,0,0,0,0,0h0a.88.88,0,0,0,.39-.77A.92.92,0,0,0,88.05,262.52Zm.06.73a.62.62,0,0,0-.22-.5,0,0,0,0,0-.06,0s0,.05,0,.06h0a.54.54,0,0,1,.18.43.5.5,0,0,1-.22.45s0,0,0,.06a0,0,0,0,0,0,0h0A.59.59,0,0,0,88.11,263.25Zm-1.57-.3v.67H87l.58.48v-1.64l-.59.49Z"/><path class="cls-10" d="M89.73,262.6v.19l.79.51h.14a.28.28,0,0,0,.15,0l.77-.53v-.16Zm.93.91h0a.61.61,0,0,1-.22-.05h0l-.71-.46v1h1.85v-1l-.67.45A.41.41,0,0,1,90.66,263.51Z"/><path class="cls-10" d="M64,262.93a.34.34,0,1,1-.34.34.34.34,0,0,1,.34-.34m0-.17a.51.51,0,1,0,0,1,.51.51,0,0,0,0-1Z"/><path class="cls-10" d="M62.45,262.93a.34.34,0,1,1,0,.67.34.34,0,1,1,0-.67m0-.17a.51.51,0,0,0,0,1,.51.51,0,1,0,0-1Z"/><path class="cls-10" d="M61.45,263.27a.51.51,0,1,1-.51-.51A.51.51,0,0,1,61.45,263.27Z"/><path class="cls-10" d="M59.94,263.27a.5.5,0,0,1-.5.5.51.51,0,1,1,0-1A.5.5,0,0,1,59.94,263.27Z"/><path class="cls-10" d="M58.44,263.27a.51.51,0,0,1-.51.5.51.51,0,0,1,0-1A.51.51,0,0,1,58.44,263.27Z"/><line class="cls-7" x1="104.56" y1="337.36" x2="173.12" y2="337.36"/><line class="cls-7" x1="352.39" y1="247.3" x2="415.29" y2="247.3"/><polyline class="cls-7" points="241.61 111.73 271.08 111.73 271.08 155.53 204.33 155.53 204.33 182.65"/><circle class="cls-9" cx="204.33" cy="112.48" r="32.83"/><g class="cls-19"><polygon class="cls-10" points="196.54 140.12 195.07 137.96 202.33 126.95 204.39 126.24 204.93 123.59 206.18 122.43 206.18 121.3 200.98 119.46 200.4 118.27 198.69 117.71 195.91 115.88 193.22 115.88 190.93 120.72 192.86 124.04 194.97 125.52 194.29 132.79 193.35 138.49 195.51 140.12 196.54 140.12"/><polygon class="cls-10" points="192.63 117.12 191.06 116.85 190.93 114.96 189.24 114.84 189.9 113.26 188.88 113.14 188.01 114.25 186.25 112.72 186.73 110.6 190.17 110.24 191.51 111.79 191.93 109.58 193.16 108.56 193.91 106.65 196.75 104.23 198.33 104.34 196.99 103.21 195.91 103.06 195.52 102.49 196.87 102.07 197.91 102.25 199.38 101.53 199.38 100.28 197.53 98.99 196.84 96.55 195.76 97.94 194.92 96.3 192.81 95.22 192.23 97.53 193.01 98.87 192.08 99.89 192.32 101.59 191.16 100.55 190.5 99.29 187.87 98.24 187.12 96.55 188.82 94.3 190.11 93.7 191.39 92.14 191.09 90.08 189.48 91.58 187.6 88.02 186.49 91.39 184.37 91.19 185.5 89.87 184.72 88.02 184.37 86.19 181.53 86.58 180.09 85.35 178.29 85.11 177.46 87.45 180.18 88.61 180.15 90.17 176.56 89.33 174.94 90.56 167.71 88.28 165.47 91.28 166.45 92.95 165.47 95.49 165.97 97.17 168.34 98.42 169.74 97.53 170.4 96.12 173.75 96.69 175.19 99.53 177.34 100.55 178.77 103.09 178.21 106.26 180.15 109.31 182.3 110.74 183.92 113.26 185.38 114.31 185.89 115.05 187.96 115.26 189.09 116.31 189.93 116.49 190.93 117.68 192.17 118.1 192.63 117.12"/><path class="cls-10" d="M189.63,85.77l-.83,2.76,1,1.1,2-.27s1.55,1.53,1.62,1.55a16.24,16.24,0,0,1,.13,1.82L196.27,96l.4-1.12-1.07-2.06,1.43.29.7-.63-2.2-1.75-.31-1.66-2.2-2-.27-1.1Z"/><polygon class="cls-10" points="194.53 79.65 194.06 81.23 195.43 83.32 197.73 83.76 199.68 87.39 199.98 92.89 202.43 96.96 205.54 92.77 209.67 89.78 209.67 86.13 211.04 83.26 210.15 79.65 194.53 79.65"/><polygon class="cls-10" points="219.55 107.58 213.59 109.28 212.46 111.93 210.76 114.39 212.1 118.1 215.16 118.84 218.3 118.27 219.55 119.73 219.15 121.26 220.54 122.67 219.28 125.56 222.06 131.2 225.61 130.05 227.22 126.06 229.38 123.84 228.75 120.47 232.29 116.08 229.51 116.08 227.18 112.51 227.09 110.04 222.92 109.23 222.29 110 219.86 109.23 219.55 107.58"/><polygon class="cls-10" points="229.76 124.98 229.76 125.99 229.53 127.18 230.25 128.01 230.84 127.18 231.66 124.13 231.35 123.3 229.76 124.98"/><path class="cls-10" d="M248,117.86l-3.41-4.77-2.15,1.57-1.35,2.07-2.65-2.47-3-2.69h-3.14l2.6,2-4,1.89-3.72-2.92-.09-2.47.7-1.81-3.32-.48s-2.81-1.67-2.94-1.76-1.16-1.29-1.16-1.29l-3.31,1.08-1.35,1.56-2,.41-.63-1.7a13,13,0,0,1,1.55-1.14c.12,0,1.41.06,1.41.06l-.66-1.67-.54-.69,2.69-1.11.93-1.58,2.66.39.06-1.17-2-.9-1.83-.8.24-1.92,2.75-2.15,1.77-3.23.84-1.38,3.14.27,2.18,2.19,1.47.06,3.73-.3,3.17-2,2.52-3.14h2.18s1.79-1.76,2-1.85S246,82.51,246,82.51l2.3-1.1,2.18.86,1.2,1.35L250,85.35l2,.81,3.38.18.47,1.68,1.8.35,1.76-1.13,2.07,0,2.3.75,1.32,1.1,2.12.06,2.51.51,1.95,1,2.15,1.55.54.9-1.56,1.47L271.76,94l-1.17,1.1-.75,1.05-2,.75-1.59-.12-3.38,0-2.72.81-1.67,1.7,1.28,1.65-1.46,3.7,1.55-1.28,1.26-.06-1,1,.21.86-.66,1.17s-.09,1.08-.09,1.29-1.43,1.28-1.43,1.28l-1.35.51-.75,1-.77,1.1-.12-.78.3-1.7,2-1,1.29-1,.41-1.89-2.24.3-1.13.75-.15,1.32-.72.86-.39-.68-.36-1-1-.09-.45,1.11.63,1.94-.06,2.53-2.63.91-1.49.15-.51,1.1,1,1.23-.12,1.5Z"/><polygon class="cls-10" points="252.88 126.06 251.18 126.95 250.49 127.82 251.3 129.2 251.27 130.93 252.11 131.53 256.29 130.01 259.07 132.13 259.91 133 262.21 132.07 262.48 130.54 263.41 129.53 263.2 127.46 261.47 126.06 259.94 123.16 259.43 123.58 259.17 125.28 257.79 124.32 258.27 123.58 255.91 123.46 255.55 124.68 254.95 124.11 253.69 125.19 253.42 125.97 252.88 126.06"/><polygon class="cls-10" points="269.26 131.06 269.26 132.61 267.71 134.74 266.93 135.52 267.17 136.29 269.26 134.67 270.87 132.56 270.56 131.72 269.26 131.06"/><path class="cls-10" d="M244.63,117l2,3.68,1.86.89.81.83,4.21.73,3-1-3.14-.09s-2.69-.06-2.87-.12-2.09-1.64-2.09-1.64Z"/><polygon class="cls-10" points="249.38 119.54 251.96 117.86 252.71 118.27 252.26 118.7 252.71 119.54 251.81 121.18 249.86 120.72 249.38 119.54"/><polygon class="cls-10" points="254.35 119.18 252.91 120.09 252.71 121.47 253.3 121.47 253.41 121.06 254.11 121.47 254.35 121.24 253.84 120.47 254.35 119.18"/><polygon class="cls-10" points="256.17 119.79 257.36 120.32 257.44 120.85 258.51 120.47 260.93 121.24 261.42 122.26 262.78 122.67 261.92 122.96 260.68 122.23 259.99 122.67 258.69 122.53 257.77 121.29 256.76 121.11 256.29 120.32 255.77 120.09 256.17 119.79"/><polygon class="cls-10" points="255.1 119.05 254.74 120.32 255.38 120.79 255.62 119.3 255.1 119.05"/><polygon class="cls-10" points="253.32 114.02 252.71 115.05 253.01 116.08 252.15 117.37 252.35 117.55 253.53 116.49 253.77 117.34 253.26 118.18 254.19 117.74 254.57 118.18 255.28 117.56 254.35 115.47 253.71 115.22 253.89 114.29 253.32 114.02"/></g></g></svg>