<svg xmlns="http://www.w3.org/2000/svg" xmlns:xlink="http://www.w3.org/1999/xlink" viewBox="0 0 376.87 334.42"><defs><style>.cls-1{isolation:isolate;}.cls-2{fill:url(#linear-gradient);}.cls-3{fill:url(#linear-gradient-2);}.cls-4{fill:url(#linear-gradient-3);}.cls-5{fill:url(#linear-gradient-4);}.cls-6{fill:#374faa;}.cls-7{fill:#fff;}.cls-8{fill:url(#linear-gradient-5);}.cls-9{fill:url(#linear-gradient-6);}.cls-10{fill:url(#linear-gradient-7);}.cls-11{fill:url(#linear-gradient-8);}.cls-12{fill:url(#linear-gradient-9);}.cls-13{fill:url(#linear-gradient-10);}.cls-14{fill:url(#linear-gradient-11);}.cls-15{fill:url(#linear-gradient-12);}.cls-16{fill:url(#linear-gradient-13);}.cls-17{fill:url(#linear-gradient-14);}.cls-18{fill:#b9d9ef;}.cls-19{fill:url(#linear-gradient-15);}.cls-20{fill:url(#linear-gradient-16);}.cls-21{fill:url(#linear-gradient-17);}.cls-22{fill:url(#linear-gradient-18);}.cls-23{fill:url(#linear-gradient-19);}.cls-24{fill:url(#linear-gradient-20);}.cls-25{fill:url(#linear-gradient-21);}.cls-26{fill:url(#linear-gradient-22);}.cls-27{fill:url(#linear-gradient-23);}.cls-28,.cls-29,.cls-30{fill:none;stroke:#293e9e;stroke-linecap:round;stroke-miterlimit:10;stroke-width:0.67px;}.cls-29{stroke-dasharray:2.37 3.55;}.cls-30{stroke-dasharray:2.24 3.37;}.cls-31{fill:#f4af9f;}.cls-32{fill:url(#linear-gradient-24);}.cls-33{fill:url(#linear-gradient-25);}.cls-34{fill:url(#linear-gradient-26);}.cls-35{fill:#dce8ef;mix-blend-mode:multiply;}.cls-36{fill:url(#linear-gradient-27);}.cls-37{fill:#f7d2ba;}.cls-38{fill:url(#linear-gradient-28);}.cls-39{fill:url(#linear-gradient-29);}.cls-40{fill:#62cacd;}.cls-41{fill:url(#linear-gradient-30);}.cls-42{fill:#d9eafe;}.cls-43{fill:url(#linear-gradient-31);}.cls-44{fill:url(#linear-gradient-32);}.cls-45{opacity:0.8;}.cls-46{fill:url(#linear-gradient-33);}.cls-47{fill:url(#linear-gradient-34);}.cls-48{fill:url(#linear-gradient-35);}.cls-49{fill:url(#linear-gradient-36);}.cls-50{fill:url(#linear-gradient-37);}.cls-51{fill:url(#linear-gradient-38);}.cls-52{fill:url(#linear-gradient-39);}</style><linearGradient id="linear-gradient" x1="74.28" y1="340.9" x2="437.05" y2="340.9" gradientUnits="userSpaceOnUse"><stop offset="0" stop-color="#e2f4ff"/><stop offset="1" stop-color="#d7ecff"/></linearGradient><linearGradient id="linear-gradient-2" x1="84.92" y1="221.54" x2="102.55" y2="221.54" gradientUnits="userSpaceOnUse"><stop offset="0" stop-color="#8ad3ff"/><stop offset="1" stop-color="#5f9cff"/></linearGradient><linearGradient id="linear-gradient-3" x1="62.69" y1="236.59" x2="99.36" y2="236.59" xlink:href="#linear-gradient-2"/><linearGradient id="linear-gradient-4" x1="102.71" y1="243.94" x2="119.96" y2="243.94" xlink:href="#linear-gradient-2"/><linearGradient id="linear-gradient-5" x1="392.32" y1="168.03" x2="439.56" y2="168.03" xlink:href="#linear-gradient-2"/><linearGradient id="linear-gradient-6" x1="401.85" y1="168.03" x2="430.03" y2="168.03" xlink:href="#linear-gradient-2"/><linearGradient id="linear-gradient-7" x1="411.27" y1="168.03" x2="420.61" y2="168.03" gradientUnits="userSpaceOnUse"><stop offset="0" stop-color="#9972ff"/><stop offset="1" stop-color="#7f85ff"/></linearGradient><linearGradient id="linear-gradient-8" x1="1723.77" y1="157.4" x2="1748.22" y2="157.4" gradientTransform="matrix(-1, 0, 0, 1, 2078.62, -49.43)" gradientUnits="userSpaceOnUse"><stop offset="0" stop-color="#294698"/><stop offset="1" stop-color="#0e4ba6"/></linearGradient><linearGradient id="linear-gradient-9" x1="326.4" y1="105.21" x2="326.4" y2="42.86" xlink:href="#linear-gradient"/><linearGradient id="linear-gradient-10" x1="263.71" y1="55.78" x2="263.71" y2="-6.58" xlink:href="#linear-gradient"/><linearGradient id="linear-gradient-11" x1="359.39" y1="106.4" x2="359.39" y2="44.04" xlink:href="#linear-gradient"/><linearGradient id="linear-gradient-12" x1="296.7" y1="56.96" x2="296.7" y2="-5.4" xlink:href="#linear-gradient"/><linearGradient id="linear-gradient-13" x1="61.32" y1="165.26" x2="312.91" y2="165.26" xlink:href="#linear-gradient-7"/><linearGradient id="linear-gradient-14" x1="61.32" y1="74.59" x2="312.91" y2="74.59" gradientTransform="matrix(1, 0, 0, 1, 0, 0)" xlink:href="#linear-gradient-8"/><linearGradient id="linear-gradient-15" x1="128.71" y1="110.93" x2="169.46" y2="110.93" xlink:href="#linear-gradient"/><linearGradient id="linear-gradient-16" x1="128.71" y1="118.38" x2="169.46" y2="118.38" xlink:href="#linear-gradient"/><linearGradient id="linear-gradient-17" x1="128.71" y1="125.83" x2="169.46" y2="125.83" xlink:href="#linear-gradient"/><linearGradient id="linear-gradient-18" x1="204.77" y1="162.92" x2="245.51" y2="162.92" xlink:href="#linear-gradient"/><linearGradient id="linear-gradient-19" x1="204.77" y1="170.37" x2="245.51" y2="170.37" xlink:href="#linear-gradient"/><linearGradient id="linear-gradient-20" x1="204.77" y1="177.82" x2="245.51" y2="177.82" xlink:href="#linear-gradient"/><linearGradient id="linear-gradient-21" x1="128.71" y1="214.93" x2="169.46" y2="214.93" xlink:href="#linear-gradient"/><linearGradient id="linear-gradient-22" x1="128.71" y1="222.38" x2="169.46" y2="222.38" xlink:href="#linear-gradient"/><linearGradient id="linear-gradient-23" x1="128.71" y1="229.83" x2="169.46" y2="229.83" xlink:href="#linear-gradient"/><linearGradient id="linear-gradient-24" x1="273.98" y1="353.74" x2="299.44" y2="353.74" gradientTransform="matrix(1, 0, 0, 1, 0, 0)" xlink:href="#linear-gradient-8"/><linearGradient id="linear-gradient-25" x1="249.81" y1="339.31" x2="269.69" y2="339.31" gradientTransform="matrix(1, 0, 0, 1, 0, 0)" xlink:href="#linear-gradient-8"/><linearGradient id="linear-gradient-26" x1="291.3" y1="314.44" x2="408.26" y2="314.44" gradientTransform="matrix(1, 0, 0, 1, 0, 0)" xlink:href="#linear-gradient-8"/><linearGradient id="linear-gradient-27" x1="270.43" y1="324.06" x2="416.4" y2="324.06" gradientTransform="matrix(1, 0, 0, 1, 0, 0)" xlink:href="#linear-gradient-8"/><linearGradient id="linear-gradient-28" x1="360.1" y1="264.79" x2="369.32" y2="258.17" xlink:href="#linear-gradient-2"/><linearGradient id="linear-gradient-29" x1="378.83" y1="239.23" x2="401.67" y2="239.23" xlink:href="#linear-gradient"/><linearGradient id="linear-gradient-30" x1="362.59" y1="214.19" x2="396.42" y2="214.19" gradientUnits="userSpaceOnUse"><stop offset="0.09" stop-color="#374492"/><stop offset="1" stop-color="#014dae"/></linearGradient><linearGradient id="linear-gradient-31" x1="257.1" y1="246.93" x2="309" y2="246.93" xlink:href="#linear-gradient-2"/><linearGradient id="linear-gradient-32" x1="416.04" y1="267.62" x2="412.73" y2="248.23" xlink:href="#linear-gradient-2"/><linearGradient id="linear-gradient-33" x1="29.46" y1="74.22" x2="95.93" y2="74.22" xlink:href="#linear-gradient-2"/><linearGradient id="linear-gradient-34" x1="125.39" y1="120.5" x2="146.32" y2="120.5" gradientTransform="matrix(1, 0, 0, 1, 0, 0)" xlink:href="#linear-gradient-8"/><linearGradient id="linear-gradient-35" x1="153.71" y1="51.21" x2="153.71" y2="13.88" xlink:href="#linear-gradient"/><linearGradient id="linear-gradient-36" x1="169.24" y1="51.21" x2="169.24" y2="13.88" xlink:href="#linear-gradient"/><linearGradient id="linear-gradient-37" x1="184.78" y1="51.21" x2="184.78" y2="13.88" xlink:href="#linear-gradient"/><linearGradient id="linear-gradient-38" x1="230.13" y1="100.64" x2="230.13" y2="63.32" xlink:href="#linear-gradient"/><linearGradient id="linear-gradient-39" x1="186.17" y1="51.21" x2="186.17" y2="13.88" xlink:href="#linear-gradient"/></defs><title>schedule concept</title><g class="cls-1"><g id="obj"><path class="cls-2" d="M168.37,302.94a75.46,75.46,0,0,1-9.92.36c-13.73-.16-27.46-.85-41.19-.86-11.68,0-24.83-1.61-36,2.7-6.57,2.54-10.71,11.22-2.22,14.39,7.89,3,16.85,3.1,25.15,3.82q14.69,1.27,29.41,1.68,21.7.6,43.39-.71c4.27-.25,8.6-.72,12.94-1.1,2.17-.19,4.35-.36,6.52-.47,6.48-1.38,13.19.85,19.34,1.57a36.88,36.88,0,0,1,5.31,1.87,24,24,0,0,1,14.34,20.23c.58,9.35-6.36,19.5.64,27.88,3,3.62,7.37,4.57,11.72,5.69,20,5.19,45.49,7.35,61.81-7.94,6.12-5.73,10.14-13.23,17.47-17.73,8.52-5.23,19.08-4.23,28.61-3.34,25,2.34,60.31,11.39,77.53-13.38,8.76-12.61,1.58-29.19-12.92-33s-29.92-.47-44.75-2.5c-2.34-.14-4.67-.32-7-.49-21.51.78-43.85-2.57-64.57-.63-2.72.14-5.45.26-8.18.34a139.14,139.14,0,0,1-24.94-1.19c-2.85-.17-5.7-.38-8.53-.61-5.68-.47-11.33-1-16.91-1.57-2.3.16-4.61.31-6.91.45-20.76,1.23-41.58.79-62.45,6.2a40.66,40.66,0,0,1-8.09.54,22.39,22.39,0,0,1-7.48-1.55" transform="translate(-62.69 -49.43)"/><path class="cls-3" d="M98.72,194.8c-1.78-8.48-3.63-17.25-4-25.54l-.06-1.46-1,1.06a17.8,17.8,0,0,0-4.54,11.51c0,1.83.11,3.46.23,5,.29,4,.54,7.39-1.43,11.87-2.82,6.42-4.67,12-.94,20.78l1.09,2.54c2.83,6.55,4,9.25,2.93,14.49-1.24,6,2.83,15.16,10,18.13-.27,11.9-.62,21.79-.62,22l1.24,0c0-.45,1.58-45.29.65-59.21C101.81,209.48,100.31,202.35,98.72,194.8Z" transform="translate(-62.69 -49.43)"/><path class="cls-4" d="M64.67,198.34l-.65-.5-.31.75c-.13.3-3,7.3,1.54,12.91,1.93,2.38,2.33,5.39,2.79,8.87.53,4,1.12,8.44,4.3,12.65a29.34,29.34,0,0,0,7.59,6.84c2.85,1.94,4.91,3.35,5.4,6.84.08.62.16,1.21.23,1.77.7,5.52,1.09,8.58,9.12,11.31,2.33,9.06,3.42,15.38,3.45,15.57l1.23-.21C99.26,274.57,89.54,217.82,64.67,198.34Z" transform="translate(-62.69 -49.43)"/><path class="cls-5" d="M119.81,214.1l-.19-.88-.76.49c-19.13,12.29-16,59-15.88,61l1.24-.09c0-.15-.29-4.45-.2-10.74.6-.93,2.93-4.49,4.7-7.24,1.2-1.88.87-3.53.53-5.27a13.25,13.25,0,0,1-.13-5.78,10.45,10.45,0,0,1,2.67-5.36,16.89,16.89,0,0,0,2.9-4.59,15.07,15.07,0,0,0,1-6.48c0-2.29,0-4.27,1.64-6.17A10.78,10.78,0,0,0,119.81,214.1Z" transform="translate(-62.69 -49.43)"/><polygon class="cls-6" points="49.79 263.83 27.66 263.83 21.54 223.88 55.92 223.88 49.79 263.83"/><path class="cls-7" d="M415.94,146.11A21.93,21.93,0,1,0,437.87,168a21.94,21.94,0,0,0-21.93-21.92Z" transform="translate(-62.69 -49.43)"/><path class="cls-8" d="M415.94,149.31A18.73,18.73,0,1,1,397.22,168a18.75,18.75,0,0,1,18.72-18.72m0-4.9A23.62,23.62,0,1,0,439.56,168a23.65,23.65,0,0,0-23.62-23.62Z" transform="translate(-62.69 -49.43)"/><path class="cls-9" d="M401.85,168a14.09,14.09,0,1,0,14.09-14.09A14.09,14.09,0,0,0,401.85,168Zm4.75,0a9.34,9.34,0,1,1,9.34,9.34A9.34,9.34,0,0,1,406.6,168Z" transform="translate(-62.69 -49.43)"/><path class="cls-10" d="M411.27,168a4.67,4.67,0,1,0,4.67-4.67A4.67,4.67,0,0,0,411.27,168Z" transform="translate(-62.69 -49.43)"/><polygon class="cls-11" points="334.8 100.15 335.68 95.75 338.41 98.47 337.75 101.78 338.63 102.66 338.63 102.66 352.98 117 354.84 115.3 354.84 115.3 354.84 120.19 349.95 120.19 349.95 120.19 351.65 118.33 337.31 103.98 337.31 103.98 336.43 103.1 333.13 103.76 330.4 101.03 334.8 100.15"/><path class="cls-12" d="M304.15,79.38v6.23a1.3,1.3,0,0,0,1.3,1.29h2.34a.69.69,0,0,1,.66.51,17.91,17.91,0,0,0,2.13,4.76h0l-2,2a1.3,1.3,0,0,0,0,1.84l4.4,4.4a1.3,1.3,0,0,0,1.83,0l2-2h0a18.31,18.31,0,0,0,5.32,2.13h0v2.77a1.3,1.3,0,0,0,1.3,1.3h6.22a1.3,1.3,0,0,0,1.3-1.3v-2.86h0a18.46,18.46,0,0,0,5.27-2.26h0l2,2a1.3,1.3,0,0,0,1.83,0l4.4-4.4a1.3,1.3,0,0,0,0-1.84l-1.66-1.66a.68.68,0,0,1-.11-.82A17.83,17.83,0,0,0,344.45,87a.69.69,0,0,1,.67-.53h2.24a1.29,1.29,0,0,0,1.29-1.29V79a1.29,1.29,0,0,0-1.29-1.29H345a.68.68,0,0,1-.66-.51,18,18,0,0,0-1.84-4.3.68.68,0,0,1,.1-.84l1.58-1.58a1.3,1.3,0,0,0,0-1.84l-4.4-4.4a1.3,1.3,0,0,0-1.83,0l-2,2h0a18.31,18.31,0,0,0-4.8-2,.69.69,0,0,1-.52-.67V61.34a1.3,1.3,0,0,0-1.3-1.3h-6.22a1.3,1.3,0,0,0-1.3,1.3v2.34a.68.68,0,0,1-.51.66,18.46,18.46,0,0,0-4.3,1.84.68.68,0,0,1-.84-.1l-1.58-1.58a1.3,1.3,0,0,0-1.83,0l-4.4,4.4a1.3,1.3,0,0,0,0,1.84L310,72.4a.68.68,0,0,1,.1.82,18.24,18.24,0,0,0-1.74,4.34.69.69,0,0,1-.66.53h-2.24A1.3,1.3,0,0,0,304.15,79.38Zm13.32-2.59a8.33,8.33,0,0,1,3.37-3.39c9.8-5.25,19.69,4.59,14.48,14.41a8.2,8.2,0,0,1-3.39,3.39C322.14,96.4,312.3,86.59,317.47,76.79Z" transform="translate(-62.69 -49.43)"/><circle class="cls-13" cx="263.71" cy="32.85" r="6.54"/><path class="cls-14" d="M346.8,60.39v3.52a.74.74,0,0,0,.73.74h1.32a.39.39,0,0,1,.38.28,10.4,10.4,0,0,0,1.2,2.7h0l-1.11,1.11a.75.75,0,0,0,0,1l2.49,2.49a.73.73,0,0,0,1,0L354,71.12h0a10.56,10.56,0,0,0,3,1.21h0V73.9a.74.74,0,0,0,.74.73h3.52a.74.74,0,0,0,.74-.73V72.27h0A10.39,10.39,0,0,0,365,71h0l1.11,1.11a.75.75,0,0,0,1,0l2.49-2.5a.73.73,0,0,0,0-1l-.94-.94a.38.38,0,0,1-.06-.46,10.11,10.11,0,0,0,1-2.46.41.41,0,0,1,.38-.3h1.27a.73.73,0,0,0,.73-.73V60.15a.73.73,0,0,0-.73-.73h-1.33a.38.38,0,0,1-.37-.29,10.32,10.32,0,0,0-1.05-2.43.39.39,0,0,1,.06-.48l.9-.89a.75.75,0,0,0,0-1L367,51.8a.72.72,0,0,0-1,0l-1.15,1.14h0a10.7,10.7,0,0,0-2.72-1.13.39.39,0,0,1-.3-.37V50.17a.73.73,0,0,0-.73-.74h-3.52a.74.74,0,0,0-.74.74V51.5a.4.4,0,0,1-.28.37,10.19,10.19,0,0,0-2.44,1,.41.41,0,0,1-.48,0l-.89-.9a.73.73,0,0,0-1,0l-2.49,2.49a.73.73,0,0,0,0,1l.94.94a.39.39,0,0,1,.06.47,10.39,10.39,0,0,0-1,2.46.38.38,0,0,1-.37.29h-1.27A.74.74,0,0,0,346.8,60.39Zm7.54-1.47A4.65,4.65,0,0,1,356.25,57a6,6,0,0,1,8.19,8.16,4.67,4.67,0,0,1-1.92,1.92A6,6,0,0,1,354.34,58.92Z" transform="translate(-62.69 -49.43)"/><circle class="cls-15" cx="296.7" cy="12.6" r="3.71"/><rect class="cls-16" x="61.32" y="66.69" width="251.59" height="197.15" rx="6.68"/><path class="cls-17" d="M68,66.69H306.22a6.68,6.68,0,0,1,6.68,6.68v9.12a0,0,0,0,1,0,0H61.32a0,0,0,0,1,0,0V73.37A6.68,6.68,0,0,1,68,66.69Z"/><path class="cls-7" d="M329.11,124.63a2.23,2.23,0,1,1-2.23-2.23A2.23,2.23,0,0,1,329.11,124.63Z" transform="translate(-62.69 -49.43)"/><path class="cls-7" d="M343.85,124.63a2.23,2.23,0,1,1-2.23-2.23A2.23,2.23,0,0,1,343.85,124.63Z" transform="translate(-62.69 -49.43)"/><path class="cls-7" d="M358.58,124.63a2.23,2.23,0,1,1-2.22-2.23A2.22,2.22,0,0,1,358.58,124.63Z" transform="translate(-62.69 -49.43)"/><polygon class="cls-7" points="185.46 112.06 185.46 136.39 112.7 136.39 112.7 100.32 173.73 100.32 185.46 112.06"/><polygon class="cls-18" points="173.73 112.06 185.47 112.06 173.73 100.33 173.73 112.06"/><rect class="cls-19" x="128.71" y="110.64" width="40.74" height="0.59"/><rect class="cls-20" x="128.71" y="118.09" width="40.74" height="0.59"/><rect class="cls-21" x="128.71" y="125.53" width="40.74" height="0.59"/><polygon class="cls-7" points="185.46 216.08 185.46 240.41 112.7 240.41 112.7 204.34 173.73 204.34 185.46 216.08"/><polygon class="cls-18" points="173.73 216.08 185.47 216.08 173.73 204.35 173.73 216.08"/><polygon class="cls-7" points="261.51 164.07 261.51 188.4 188.76 188.4 188.76 152.33 249.79 152.33 261.51 164.07"/><polygon class="cls-18" points="249.78 164.06 261.52 164.06 249.78 152.34 249.78 164.06"/><rect class="cls-22" x="204.77" y="162.62" width="40.74" height="0.59"/><rect class="cls-23" x="204.77" y="170.07" width="40.74" height="0.59"/><rect class="cls-24" x="204.77" y="177.52" width="40.74" height="0.59"/><rect class="cls-25" x="128.71" y="214.63" width="40.74" height="0.59"/><rect class="cls-26" x="128.71" y="222.08" width="40.74" height="0.59"/><rect class="cls-27" x="128.71" y="229.53" width="40.74" height="0.59"/><line class="cls-28" x1="187.71" y1="122.28" x2="188.92" y2="122.28"/><line class="cls-29" x1="192.47" y1="122.28" x2="220.27" y2="122.28"/><polyline class="cls-28" points="222.05 122.28 223.26 122.28 223.26 123.49"/><line class="cls-30" x1="223.26" y1="126.85" x2="223.26" y2="147.61"/><line class="cls-28" x1="223.26" y1="149.3" x2="223.26" y2="150.51"/><line class="cls-28" x1="187.71" y1="219.8" x2="188.92" y2="219.8"/><line class="cls-29" x1="192.47" y1="219.8" x2="220.27" y2="219.8"/><polyline class="cls-28" points="222.05 219.8 223.26 219.8 223.26 218.59"/><line class="cls-30" x1="223.26" y1="215.22" x2="223.26" y2="194.46"/><line class="cls-28" x1="223.26" y1="192.78" x2="223.26" y2="191.57"/><polygon class="cls-31" points="238.66 292.47 235.81 301.35 228.78 299.65 230.44 291.08 238.66 292.47"/><path class="cls-32" d="M292,346.63A48.33,48.33,0,0,1,282.2,352c-6.49,2.78-7.7,1.53-8.21,3s22.62,5.88,22.62,5.88l2.83-12.81S292.08,346.3,292,346.63Z" transform="translate(-62.69 -49.43)"/><polygon class="cls-31" points="213.22 294.59 204.23 297.05 201.81 290.24 209.9 286.94 213.22 294.59"/><path class="cls-33" d="M266.85,338.76a48.22,48.22,0,0,1-9.83-5.28c-5.88-3.92-5.48-5.62-7-5.22s7.42,22.16,7.42,22.16l12.28-4.62S267.17,338.65,266.85,338.76Z" transform="translate(-62.69 -49.43)"/><path class="cls-34" d="M407.25,309a22,22,0,0,1-4.88,5.9c-7.24,6.48-9.63,12.92-19.92,16-7.4,2.23-19.21,2.18-26.45-1.18-3.38-1.56-10.63-7.29-18.4-14.33-2.72-2.43-5.5-5-8.2-7.66-1.16-1.14-2.3-2.26-3.41-3.39-1.09,2.16-2.21,4.23-3.3,6.19-2.89,5.19-5.75,9.74-8.22,13.71s-4.79,7.53-6.33,10.4a67.5,67.5,0,0,1-6.53,10.49L291.3,342.9c1.58-5.5,3.1-10.49,4.54-15,.76-2.4,1.5-4.68,2.21-6.82,11-32.66,17.69-37.05,27-37.25,10.27-.25,41.49,16.2,41.49,16.2S415.87,292.59,407.25,309Z" transform="translate(-62.69 -49.43)"/><path class="cls-35" d="M322.69,310.44v0c-2.89,5.19-5.75,9.74-8.22,13.71l-18.63,3.67c.76-2.4,1.5-4.68,2.21-6.82C305.49,317.84,322.45,310.53,322.69,310.44Z" transform="translate(-62.69 -49.43)"/><path class="cls-35" d="M385.59,308l-48,7.31c-2.72-2.43-5.5-5-8.2-7.66,11.81-3.37,55-.33,55-.33Z" transform="translate(-62.69 -49.43)"/><path class="cls-36" d="M416.4,323.77c1,30-85.16,7.85-85.16,7.85s-14.34,4-27.36,8.31c-10.37,3.42-30.08,5.89-30.08,5.89l-3.37-10c25.4-11.28,54.78-26.17,59.63-26.9,11.67-1.75,42.56-1.91,55.23-1.81,1.71,0,5.32-4,6.68-4.57.39-.18.61-.26.61-.26l1.23.18a53.51,53.51,0,0,1,11.95,3.14,15.13,15.13,0,0,1,7.93,6.5C415.36,314.94,416.24,318.7,416.4,323.77Z" transform="translate(-62.69 -49.43)"/><path class="cls-35" d="M416.4,323.77c1,30-85.16,7.85-85.16,7.85s-14.34,4-27.36,8.31c-10.37,3.42-30.08,5.89-30.08,5.89l-3.37-10c9.88,9.66,20.55,4.82,32,1.52s23.72-8.27,29.36-9.62,64.17,10.1,71,2.9-18.87-22.94-18.87-22.94l29.76,4.42C415.36,314.94,416.24,318.7,416.4,323.77Z" transform="translate(-62.69 -49.43)"/><path class="cls-37" d="M399.74,261.76a2.94,2.94,0,0,0-3.1,2.55,45.52,45.52,0,0,0-.51,6.62c.05,5.45-.16,10.51,1.62,11.36s3.64-2.46,4.16-7.84c.48-4.87,2.18-10.81,1-11.72A8.8,8.8,0,0,0,399.74,261.76Z" transform="translate(-62.69 -49.43)"/><path class="cls-31" d="M376.81,240.2a5.75,5.75,0,0,1,2,5.72c-1.88,9.49-9.52,47.46-16.58,46.47-8.31-1.17.22-35.18,3.47-42.91C368.39,243,372.64,237,376.81,240.2Z" transform="translate(-62.69 -49.43)"/><path class="cls-38" d="M360.74,265.14,375,270.3,381.8,247l-10-6.78s-4,2.14-6.85,10.55S360.74,265.14,360.74,265.14Z" transform="translate(-62.69 -49.43)"/><polygon class="cls-31" points="296.16 229.54 293.13 256.15 304.19 258.04 305.74 234.87 296.16 229.54"/><path class="cls-7" d="M418.48,320.54a2.68,2.68,0,0,1-4,2.43c-2.16-1.2-5.05-2.79-8.43-4.56-4.68-2.45-10.3-5.26-16.22-7.87C378,305.31,366.49,300,366.49,300s1.9-53.1,3.81-58.07c1.05-2.76,5.48-3.54,8.53-3.76,1.63-.11,2.87,0,3,0s1.39-.16,1.34,0c0,0,16.34-1.38,16.4-1.42h0s.8-.05,2.06-.05c4.49,0,14.8.76,15.07,7,.18,4.05.55,15.26.28,26.6-.06,2.55.1,9.6.35,17.84.2,6.81.47,14.44.69,21C418.23,313.62,418.37,317.62,418.48,320.54Z" transform="translate(-62.69 -49.43)"/><path class="cls-39" d="M401.67,236.63a14.07,14.07,0,0,1-10.86,5.18,19.75,19.75,0,0,1-12-3.65c1.63-.11,2.87,0,3,0s1.39-.16,1.34,0c0,0,16.34-1.38,16.4-1.42h0S400.41,236.63,401.67,236.63Z" transform="translate(-62.69 -49.43)"/><path class="cls-31" d="M399.64,236.76c-7,6.28-16.92,1.76-17.74,1.37h0l-.05,0c3.49-1.18,3.62-5.7,3.62-5.7-5.77,1.26-10.54-10.7-11.46-13.38s-3.95-12.62,8.83-14.21,12.86,13.78,13.11,19.83S400.21,236.24,399.64,236.76Z" transform="translate(-62.69 -49.43)"/><path class="cls-40" d="M411.88,238.61" transform="translate(-62.69 -49.43)"/><path class="cls-41" d="M394.49,209.71q-.51-1.17-1.08-2.31c-1.36-2.74-3.37-5.65-6.13-6.13-2.22-.38-4.14.95-6.11,1.78a14.74,14.74,0,0,1-10.3.3c-1.49-.49-3-1.21-4.49-1-2,.29-3.3,2.24-3.66,4.33a10.4,10.4,0,0,0,3.44,9.27,8.43,8.43,0,0,0,9,1.49,21.43,21.43,0,0,1,6.09-2.14,4.48,4.48,0,0,1,3.33.57,8,8,0,0,1,2.11,2.87,8,8,0,0,0,2.43,3.07c1,.53.45-1.1.36-1.65-.18-1.13-.38-2.25-.59-3.37-.11-.61-.56-2,0-2.44a.51.51,0,0,1,.3-.09,3.61,3.61,0,0,1,2.7,1.39c1.69,1.92,1.37,4,2,6.2.42,1.54.4,5.65,2.32,5.31C397.07,227,395.39,211.79,394.49,209.71Z" transform="translate(-62.69 -49.43)"/><path class="cls-31" d="M367.76,300.62a22.4,22.4,0,0,1,2.78-2.13c2.07-1.35,4.57-2.31,5.86-.31s1.07,3.31.08,5.37-4.86,5.71-5.82,4.78,1.56-4,1.13-4.07l-.15.06c-1,.58-6.08,5.58-7,4.57S365.09,303,367.76,300.62Z" transform="translate(-62.69 -49.43)"/><rect class="cls-42" x="344.19" y="307.15" width="42.74" height="2.09" transform="translate(678.98 553.98) rotate(178)"/><polygon class="cls-42" points="270.38 260.94 310.13 259.55 297.96 232.85 258.22 234.24 270.38 260.94"/><polygon class="cls-43" points="269.26 260.98 309 259.59 296.84 232.89 257.1 234.28 269.26 260.98"/><path class="cls-42" d="M346.68,296a2.59,2.59,0,1,1-3.55-1.83A2.85,2.85,0,0,1,346.68,296Z" transform="translate(-62.69 -49.43)"/><path class="cls-31" d="M407.17,246.74s2.12,13,2.44,18.81c.26,4.5,1.66,14.15-2,19.52-1.06,1.56-4.31,3.43-6.38,4.09-9,2.85-26.58,7.8-26.58,7.8l2.18,5.19s26.41-2.1,33.68-3.93c9.74-2.46,12.66-15,12.33-24.89-.26-7.78-2.26-20.58-3.27-25.65-.47-2.36-2.11-4.22-3.84-5.88a6.31,6.31,0,0,0-3.86-1.93C407.9,239.66,407.17,246.74,407.17,246.74Z" transform="translate(-62.69 -49.43)"/><path class="cls-44" d="M408.44,269.07s-6.33-28.16,3.06-29.91,12,27.19,12,27.19Z" transform="translate(-62.69 -49.43)"/><g class="cls-45"><rect class="cls-46" x="29.46" y="40.98" width="66.48" height="66.48" rx="3.31"/><path class="cls-7" d="M125.39,102.72a20.94,20.94,0,1,0,20.93,20.94A20.94,20.94,0,0,0,125.39,102.72Zm0,34.63a13.69,13.69,0,1,1,13.69-13.69A13.69,13.69,0,0,1,125.39,137.35Z" transform="translate(-62.69 -49.43)"/><path class="cls-47" d="M146.32,123.66a20.83,20.83,0,0,1-6,14.62l-5.12-5.12A13.68,13.68,0,0,0,125.39,110v-7.25A20.94,20.94,0,0,1,146.32,123.66Z" transform="translate(-62.69 -49.43)"/></g><rect class="cls-48" x="148.26" y="45.32" width="10.91" height="10.44" rx="1.11"/><rect class="cls-49" x="163.79" y="37.73" width="10.91" height="18.03" rx="1.11"/><rect class="cls-50" x="179.32" y="27.93" width="10.91" height="27.83" rx="1.11"/><path class="cls-51" d="M211.63,87.49a.91.91,0,0,1-.14-1.8c.24,0,23.82-4,36.41-21.35a.9.9,0,0,1,1.26-.21.91.91,0,0,1,.21,1.27c-13,18-37.35,22-37.59,22.08Z" transform="translate(-62.69 -49.43)"/><polygon class="cls-52" points="189.38 11.11 182.97 13.62 188.35 17.91 189.38 11.11"/></g></g></svg>