<svg xmlns="http://www.w3.org/2000/svg" xmlns:xlink="http://www.w3.org/1999/xlink" viewBox="0 0 388.43 314.47"><defs><style>.cls-1{isolation:isolate;}.cls-2{fill:url(#linear-gradient);}.cls-3{fill:#fff;}.cls-4{fill:url(#linear-gradient-2);}.cls-5{fill:url(#linear-gradient-3);}.cls-6{fill:url(#linear-gradient-4);}.cls-7{fill:url(#linear-gradient-5);}.cls-11,.cls-12,.cls-8{mix-blend-mode:screen;}.cls-8{fill:url(#linear-gradient-6);}.cls-9{fill:url(#linear-gradient-7);}.cls-10{fill:url(#linear-gradient-8);}.cls-11{fill:url(#linear-gradient-9);}.cls-12{fill:url(#linear-gradient-10);}.cls-13,.cls-45{fill:none;stroke-miterlimit:10;}.cls-13{stroke:#daebfe;stroke-width:1.19px;}.cls-14{fill:url(#linear-gradient-11);}.cls-15{fill:url(#linear-gradient-12);}.cls-16{fill:url(#linear-gradient-13);}.cls-17{fill:url(#linear-gradient-14);}.cls-18{fill:#f4af9f;}.cls-19{fill:url(#linear-gradient-15);}.cls-20{fill:url(#linear-gradient-16);}.cls-21{fill:url(#linear-gradient-17);}.cls-22{fill:url(#linear-gradient-18);}.cls-23{fill:url(#linear-gradient-19);}.cls-24{fill:url(#linear-gradient-20);}.cls-25{fill:url(#linear-gradient-21);}.cls-26{fill:url(#linear-gradient-22);}.cls-27{fill:url(#linear-gradient-23);}.cls-28{opacity:0.3;fill:url(#linear-gradient-24);}.cls-28,.cls-47{mix-blend-mode:multiply;}.cls-29{fill:#edbeab;}.cls-30{fill:url(#linear-gradient-25);}.cls-31{fill:url(#linear-gradient-26);}.cls-32{fill:url(#linear-gradient-27);}.cls-33{fill:url(#linear-gradient-28);}.cls-34{fill:url(#linear-gradient-29);}.cls-35{fill:url(#linear-gradient-30);}.cls-36{fill:url(#linear-gradient-31);}.cls-37{fill:url(#linear-gradient-32);}.cls-38{fill:#c5dfef;}.cls-39{fill:url(#linear-gradient-33);}.cls-40{fill:url(#linear-gradient-34);}.cls-41{fill:#73a2fd;}.cls-42{fill:url(#linear-gradient-35);}.cls-43{fill:url(#linear-gradient-36);}.cls-44{fill:url(#linear-gradient-37);}.cls-45{stroke:#7fb2ef;stroke-linecap:round;stroke-width:0.57px;}.cls-46{fill:url(#linear-gradient-38);}.cls-47{fill:#dbe7ee;}.cls-48{fill:url(#linear-gradient-39);}.cls-49{fill:url(#linear-gradient-40);}.cls-50{fill:url(#linear-gradient-41);}.cls-51{fill:url(#linear-gradient-42);}.cls-52{fill:url(#linear-gradient-43);}.cls-53{fill:url(#linear-gradient-44);}.cls-54{fill:url(#linear-gradient-45);}.cls-55{fill:url(#linear-gradient-46);}.cls-56{fill:url(#linear-gradient-47);}.cls-57{fill:url(#linear-gradient-48);}</style><linearGradient id="linear-gradient" x1="85.57" y1="202.11" x2="402.04" y2="202.11" gradientUnits="userSpaceOnUse"><stop offset="0" stop-color="#e2f4ff"/><stop offset="1" stop-color="#d7ecff"/></linearGradient><linearGradient id="linear-gradient-2" x1="79.64" y1="135.78" x2="148.8" y2="135.78" gradientUnits="userSpaceOnUse"><stop offset="0" stop-color="#9972ff"/><stop offset="1" stop-color="#7f85ff"/></linearGradient><linearGradient id="linear-gradient-3" x1="71.15" y1="135.25" x2="157.68" y2="135.25" xlink:href="#linear-gradient"/><linearGradient id="linear-gradient-4" x1="56.44" y1="90.27" x2="301.53" y2="90.27" gradientUnits="userSpaceOnUse"><stop offset="0" stop-color="#8ad3ff"/><stop offset="1" stop-color="#5f9cff"/></linearGradient><linearGradient id="linear-gradient-5" x1="83.51" y1="127.86" x2="152.44" y2="127.86" xlink:href="#linear-gradient-2"/><linearGradient id="linear-gradient-6" x1="103.98" y1="127.83" x2="131.97" y2="127.83" xlink:href="#linear-gradient-2"/><linearGradient id="linear-gradient-7" x1="144.67" y1="160.72" x2="213.61" y2="160.72" gradientUnits="userSpaceOnUse"><stop offset="0" stop-color="#294698"/><stop offset="1" stop-color="#0e4ba6"/></linearGradient><linearGradient id="linear-gradient-8" x1="162.08" y1="193.58" x2="254.86" y2="193.58" xlink:href="#linear-gradient-4"/><linearGradient id="linear-gradient-9" x1="165.14" y1="160.72" x2="193.13" y2="160.72" xlink:href="#linear-gradient-7"/><linearGradient id="linear-gradient-10" x1="194.48" y1="193.58" x2="222.47" y2="193.58" xlink:href="#linear-gradient-4"/><linearGradient id="linear-gradient-11" x1="444.73" y1="134.88" x2="511.6" y2="134.88" gradientTransform="matrix(-1, 0, 0, 1, 785.13, 0)" xlink:href="#linear-gradient-2"/><linearGradient id="linear-gradient-12" x1="458.22" y1="134.88" x2="498.11" y2="134.88" gradientTransform="matrix(-1, 0, 0, 1, 785.13, 0)" xlink:href="#linear-gradient-2"/><linearGradient id="linear-gradient-13" x1="471.56" y1="134.88" x2="484.78" y2="134.88" gradientTransform="matrix(-1, 0, 0, 1, 785.13, 0)" xlink:href="#linear-gradient-2"/><linearGradient id="linear-gradient-14" x1="322.88" y1="119.83" x2="357.49" y2="119.83" gradientTransform="translate(-84.73 -50.89)" xlink:href="#linear-gradient-7"/><linearGradient id="linear-gradient-15" x1="-1567.67" y1="359.31" x2="-1547.72" y2="359.31" gradientTransform="matrix(-1, 0, 0, 1, -1205.4, 0)" xlink:href="#linear-gradient-7"/><linearGradient id="linear-gradient-16" x1="-411.14" y1="359.89" x2="-401.23" y2="359.89" gradientTransform="translate(784.77)" xlink:href="#linear-gradient-7"/><linearGradient id="linear-gradient-17" x1="-528.04" y1="307.58" x2="-559.7" y2="307.58" gradientTransform="matrix(-1, 0, 0, 1, -176.94, 0)" xlink:href="#linear-gradient-7"/><linearGradient id="linear-gradient-18" x1="-536.15" y1="230.13" x2="-530.6" y2="236.33" gradientTransform="matrix(-1, 0, 0, 1, -176.94, 0)" xlink:href="#linear-gradient-2"/><linearGradient id="linear-gradient-19" x1="-544.93" y1="248.4" x2="-544.93" y2="225.7" gradientTransform="matrix(-1, 0, 0, 1, -176.94, 0)" xlink:href="#linear-gradient-2"/><linearGradient id="linear-gradient-20" x1="-424.18" y1="203.56" x2="-409.03" y2="203.56" gradientTransform="translate(784.77)" xlink:href="#linear-gradient-7"/><linearGradient id="linear-gradient-21" x1="-557.91" y1="248.4" x2="-557.91" y2="225.7" gradientTransform="matrix(-1, 0, 0, 1, -176.94, 0)" xlink:href="#linear-gradient-2"/><linearGradient id="linear-gradient-22" x1="-527.37" y1="228.3" x2="-506.01" y2="228.3" gradientTransform="matrix(-1, 0, 0, 1, -243.49, -50.89)" xlink:href="#linear-gradient-7"/><linearGradient id="linear-gradient-23" x1="160.56" y1="289.64" x2="160.56" y2="357.16" gradientTransform="matrix(-1, 0, 0, 1, 284.36, 0)" xlink:href="#linear-gradient-2"/><linearGradient id="linear-gradient-24" x1="103.32" y1="319.86" x2="180.87" y2="319.86" gradientTransform="matrix(-1, 0, 0, 1, 284.36, 0)" xlink:href="#linear-gradient-2"/><linearGradient id="linear-gradient-25" x1="84.34" y1="359.57" x2="99.1" y2="359.57" gradientTransform="matrix(-1, 0, 0, 1, 284.36, 0)" xlink:href="#linear-gradient-7"/><linearGradient id="linear-gradient-26" x1="94.47" y1="330.85" x2="164.86" y2="330.85" gradientTransform="matrix(-1, 0, 0, 1, 284.36, 0)" xlink:href="#linear-gradient-7"/><linearGradient id="linear-gradient-27" x1="67.18" y1="358.08" x2="80.68" y2="358.08" gradientTransform="matrix(-1, 0, 0, 1, 284.36, 0)" xlink:href="#linear-gradient-7"/><linearGradient id="linear-gradient-28" x1="81.55" y1="341.85" x2="173.86" y2="341.85" gradientTransform="matrix(-1, 0, 0, 1, 284.36, 0)" xlink:href="#linear-gradient-7"/><linearGradient id="linear-gradient-29" x1="137.63" y1="276.92" x2="137.63" y2="312.25" xlink:href="#linear-gradient-4"/><linearGradient id="linear-gradient-30" x1="121.39" y1="276.92" x2="121.39" y2="312.25" xlink:href="#linear-gradient-4"/><linearGradient id="linear-gradient-31" x1="128.42" y1="326.38" x2="159.87" y2="326.38" gradientTransform="matrix(-1, 0, 0, 1, 217.81, -50.89)" xlink:href="#linear-gradient"/><linearGradient id="linear-gradient-32" x1="111.94" y1="317.17" x2="149.47" y2="317.17" gradientTransform="matrix(-1, 0, 0, 1, 217.81, -50.89)" xlink:href="#linear-gradient"/><linearGradient id="linear-gradient-33" x1="465.11" y1="267.39" x2="492.08" y2="267.39" gradientTransform="translate(-357.35)" xlink:href="#linear-gradient-7"/><linearGradient id="linear-gradient-34" x1="396.5" y1="317.67" x2="396.5" y2="326.77" xlink:href="#linear-gradient-4"/><linearGradient id="linear-gradient-35" x1="421.52" y1="321.05" x2="421.52" y2="335.68" xlink:href="#linear-gradient-4"/><linearGradient id="linear-gradient-36" x1="405.32" y1="296.35" x2="401.51" y2="301.89" xlink:href="#linear-gradient-4"/><linearGradient id="linear-gradient-37" x1="418.57" y1="297.41" x2="418.57" y2="319.93" xlink:href="#linear-gradient-4"/><linearGradient id="linear-gradient-38" x1="-864.42" y1="354.68" x2="-845.61" y2="354.68" gradientTransform="matrix(-1, 0, 0, 1, -445.42, 0)" xlink:href="#linear-gradient"/><linearGradient id="linear-gradient-39" x1="-865.57" y1="347.37" x2="-844.44" y2="347.37" gradientTransform="matrix(1, -0.01, -0.01, -1, 1267.6, 687.24)" xlink:href="#linear-gradient-7"/><linearGradient id="linear-gradient-40" x1="414.45" y1="204.26" x2="414.45" y2="148.81" xlink:href="#linear-gradient"/><linearGradient id="linear-gradient-41" x1="414.45" y1="204.26" x2="414.45" y2="148.81" xlink:href="#linear-gradient"/><linearGradient id="linear-gradient-42" x1="443.79" y1="205.31" x2="443.79" y2="149.86" xlink:href="#linear-gradient"/><linearGradient id="linear-gradient-43" x1="377.23" y1="154.41" x2="377.23" y2="98.97" xlink:href="#linear-gradient"/><linearGradient id="linear-gradient-44" x1="140.54" y1="42.8" x2="140.54" y2="2.96" xlink:href="#linear-gradient"/><linearGradient id="linear-gradient-45" x1="157.12" y1="42.8" x2="157.12" y2="2.96" xlink:href="#linear-gradient"/><linearGradient id="linear-gradient-46" x1="173.7" y1="42.8" x2="173.7" y2="2.96" xlink:href="#linear-gradient"/><linearGradient id="linear-gradient-47" x1="221.74" y1="93.69" x2="221.74" y2="53.85" xlink:href="#linear-gradient"/><linearGradient id="linear-gradient-48" x1="175.18" y1="42.8" x2="175.18" y2="2.96" xlink:href="#linear-gradient"/></defs><title>schedule-two</title><g class="cls-1"><g id="obj"><path class="cls-2" d="M138.69,191.94c14.45-5.79,25.62-12.59,31.1-27.92,5.12-14.31,3-31.7,15.57-42.57,17.76-15.39,40.56-12.23,61.81-7.86,16.25,3.34,33,4.78,49.48,2.38,22.5-3.27,45.23-22.8,68.53-16.49,22.89,6.21,24.35,29.64,21.87,49.51-2.91,23.4-6.3,44.57,7.82,64.94,10.95,15.8,9,37.08-3.44,51.47-18.91,21.89-49.77,15.88-75.06,15.39-31.85-.61-64.31,4.5-95.54,12.15-30.67,7.52-62.12,20.42-93.4,7.61-22.72-9.31-40.72-33.74-41.82-58.42-1-22.27,14.5-34.34,33.18-42.51C124.4,197.16,131.54,194.81,138.69,191.94Z" transform="translate(-66.55 -50.89)"/><circle class="cls-3" cx="114.42" cy="135.25" r="35.82" transform="translate(-68.62 -49.12) rotate(-0.88)"/><path class="cls-4" d="M131.5,165.72a34.57,34.57,0,1,1,12.66-47.22A34.57,34.57,0,0,1,131.5,165.72Z" transform="translate(-66.55 -50.89)"/><path class="cls-5" d="M156.19,124.06A43.26,43.26,0,0,0,114.45,92v0h0A43.42,43.42,0,0,0,77,113.63a43.25,43.25,0,0,0,37.42,64.87,43.25,43.25,0,0,0,41.81-54.44Zm-9.69,29.71a37.05,37.05,0,1,1-13.56-50.6A37,37,0,0,1,146.5,153.77Z" transform="translate(-66.55 -50.89)"/><path class="cls-3" d="M114.42,108.12a.93.93,0,0,1-.93-.92v-5.79a.93.93,0,1,1,1.85,0v5.79A.92.92,0,0,1,114.42,108.12Z" transform="translate(-66.55 -50.89)"/><path class="cls-3" d="M86.37,136.18h-5.8a.93.93,0,0,1,0-1.86h5.8a.93.93,0,0,1,0,1.86Z" transform="translate(-66.55 -50.89)"/><path class="cls-3" d="M114.42,170a.93.93,0,0,1-.93-.93V163.3a.93.93,0,1,1,1.85,0v5.79A.93.93,0,0,1,114.42,170Z" transform="translate(-66.55 -50.89)"/><path class="cls-3" d="M148.26,136.18h-5.79a.93.93,0,0,1,0-1.86h5.79a.93.93,0,0,1,0,1.86Z" transform="translate(-66.55 -50.89)"/><path class="cls-3" d="M114.35,136h0L96,135.9a1.06,1.06,0,0,1,0-2.11h0l18.37.13a1.06,1.06,0,0,1,0,2.11Z" transform="translate(-66.55 -50.89)"/><path class="cls-3" d="M120,135" transform="translate(-66.55 -50.89)"/><path class="cls-3" d="M114.27,136.27a.62.62,0,0,1-.32-.09.66.66,0,0,1-.27-.91l11-19.93a.67.67,0,1,1,1.18.65l-11,19.93A.67.67,0,0,1,114.27,136.27Z" transform="translate(-66.55 -50.89)"/><path class="cls-3" d="M115.59,137.28a2.35,2.35,0,1,1,.86-3.2A2.35,2.35,0,0,1,115.59,137.28Z" transform="translate(-66.55 -50.89)"/><path class="cls-3" d="M115,136.29a1.2,1.2,0,1,1,.44-1.64A1.21,1.21,0,0,1,115,136.29Z" transform="translate(-66.55 -50.89)"/><rect class="cls-3" x="56.44" y="82.58" width="245.09" height="156.29" rx="6.51"/><path class="cls-6" d="M62.95,82.58H295a6.51,6.51,0,0,1,6.51,6.51V98a0,0,0,0,1,0,0H56.44a0,0,0,0,1,0,0V89.09a6.51,6.51,0,0,1,6.51-6.51Z"/><circle class="cls-3" cx="254.07" cy="90.86" r="2.17"/><circle class="cls-3" cx="268.42" cy="90.86" r="2.17"/><circle class="cls-3" cx="282.78" cy="90.86" r="2.17"/><rect class="cls-7" x="83.51" y="123.17" width="68.94" height="9.39" rx="4.55"/><rect class="cls-8" x="103.98" y="127.37" width="27.99" height="0.93"/><rect class="cls-9" x="144.67" y="156.03" width="68.94" height="9.39" rx="4.55"/><rect class="cls-10" x="162.08" y="188.88" width="92.78" height="9.39" rx="4.55"/><rect class="cls-11" x="165.14" y="160.25" width="27.99" height="0.93"/><rect class="cls-12" x="194.48" y="193.11" width="27.99" height="0.93"/><line class="cls-13" x1="81.25" y1="142.01" x2="279.74" y2="142.01"/><line class="cls-13" x1="81.25" y1="176.41" x2="279.74" y2="176.41"/><line class="cls-13" x1="81.25" y1="210.82" x2="279.74" y2="210.82"/><path class="cls-3" d="M307,103.84a31,31,0,1,0,31,31,31.08,31.08,0,0,0-31-31Z" transform="translate(-66.55 -50.89)"/><path class="cls-14" d="M307,108.38a26.51,26.51,0,1,1-26.5,26.5,26.53,26.53,0,0,1,26.5-26.5m0-6.94a33.44,33.44,0,1,0,33.44,33.44A33.47,33.47,0,0,0,307,101.44Z" transform="translate(-66.55 -50.89)"/><path class="cls-15" d="M307,114.94a19.94,19.94,0,1,0,20,19.94A19.94,19.94,0,0,0,307,114.94Zm0,33.16a13.22,13.22,0,1,1,13.23-13.22A13.22,13.22,0,0,1,307,148.1Z" transform="translate(-66.55 -50.89)"/><path class="cls-16" d="M313.58,134.88a6.62,6.62,0,1,1-6.62-6.61A6.62,6.62,0,0,1,313.58,134.88Z" transform="translate(-66.55 -50.89)"/><polygon class="cls-17" points="266.52 57.87 265.28 51.64 261.42 55.5 262.35 60.18 261.1 61.42 261.1 61.42 240.8 81.73 238.15 79.31 238.15 79.31 238.15 86.25 245.08 86.25 245.08 86.25 242.67 83.6 262.97 63.29 262.97 63.29 264.22 62.05 268.89 62.98 272.76 59.12 266.52 57.87"/><path class="cls-18" d="M363.2,262.26c9.07.34,4.52,8.77,2.74,16.19-3.22,11.65-1.57,26.81-6.29,28.42C347.06,310.58,351.5,266,355,264,356.65,263.06,360.14,262.54,363.2,262.26Z" transform="translate(-66.55 -50.89)"/><path class="cls-18" d="M354.61,302.94c8.87-6.25,7.79,36,5.33,47.8s-4.88,3.78-6.44-15.19S351.12,305.4,354.61,302.94Z" transform="translate(-66.55 -50.89)"/><polygon class="cls-18" points="294.74 298.67 294.99 303.1 287.73 303.28 287.94 298.99 294.74 298.67"/><path class="cls-19" d="M354.13,354.08s-1.38,2.66-5.94,6.14-5.76,2.72-5.87,4,19.95.17,19.95.17l-.63-10.64S354.13,353.8,354.13,354.08Z" transform="translate(-66.55 -50.89)"/><path class="cls-18" d="M372.89,262.48c8.91-1.78,8.81,7.83,8.81,15.46C381.28,290,384,304,379.82,306.69c-11.39,6.53-14.62-39.3-11.68-42.07C369.53,263.34,370,263.46,372.89,262.48Z" transform="translate(-66.55 -50.89)"/><path class="cls-18" d="M375.1,302.94c8.87-6.25,7.79,36,5.33,47.8s-4.88,3.78-6.44-15.19S371.61,305.4,375.1,302.94Z" transform="translate(-66.55 -50.89)"/><polygon class="cls-18" points="314.98 300.01 315 304.35 308.04 304.4 308.15 300.14 314.98 300.01"/><path class="cls-20" d="M381.62,355.18c.09,1.72,1.88,7.58,1.92,9.07-11.06.28-10.75,2.51-9-9Z" transform="translate(-66.55 -50.89)"/><path class="cls-21" d="M380.1,262.81s2.9,5,2.65,21.19c-.3,18.48-.13,22.81-.13,24.17s-.1,43.56-.1,43.56-6.91,1.42-8.58,0c-.87-.75-7.48-67.19-7.48-67.19s-1.49,15.74-1.94,21.71c-.39,5.17-.49,40.7-2.36,44.33-1.92,1.56-8.92.75-9,.65-1-1.1-3.78-74.09-.43-87.42Z" transform="translate(-66.55 -50.89)"/><path class="cls-18" d="M359,222.7c5,3.24-1.76,33.19-5.6,31.58C346.66,254.73,350,219.1,359,222.7Z" transform="translate(-66.55 -50.89)"/><path class="cls-22" d="M364.74,218c-13.85,1.6-13.59,13.75-14.8,22.4l9.69,1.41Z" transform="translate(-66.55 -50.89)"/><path class="cls-18" d="M353.08,254.92c-5.8-1-19.2-25-17.86-26.41C336.26,225.86,364.53,255,353.08,254.92Z" transform="translate(-66.55 -50.89)"/><path class="cls-23" d="M373.4,217.08c18.54,2.55,5.44,13.15,7.33,46.1,0,2.36-28.38,3.2-28.22.75,3.34-25.94-5.44-43.06,12.26-46.06" transform="translate(-66.55 -50.89)"/><path class="cls-18" d="M364.75,215.46v4.9c.35,4.51,7.46-.28,8.27-2.12.56-1.19-.24-1.8-.24-4.31v-2.79c8.56-13.32-5.45-18.91-10.92-9.45C361.77,209.44,359.68,216.73,364.75,215.46Z" transform="translate(-66.55 -50.89)"/><path class="cls-24" d="M372.78,211.14c-.19,0,1.17-4.85.1-4.9-.84,0-1.21,1.32-1.37,2.62l-1.19-.31c3.88-14.32-11.55,1.68-9.54-10.7,3-3,5.65-1.57,9.9-1.32C378.65,196.32,375.49,209.63,372.78,211.14Z" transform="translate(-66.55 -50.89)"/><path class="cls-18" d="M382.51,222.77c5.48,1.78,7.39,33,3.38,32.47C379.67,257.39,373.12,221.69,382.51,222.77Z" transform="translate(-66.55 -50.89)"/><path class="cls-18" d="M386.65,255a3,3,0,0,1-2.79.93c-8-1.38-32.32-20.87-30.25-22C354.65,232.59,391.72,249,386.65,255Z" transform="translate(-66.55 -50.89)"/><path class="cls-25" d="M373.23,217.08s9.95.52,11.88,3.72,3.61,17.32,3.61,17.32l-10.82,1.1-1-6.28" transform="translate(-66.55 -50.89)"/><polygon class="cls-26" points="272.95 167.76 283.88 185.74 273.36 187.06 262.52 168.68 272.95 167.76"/><path class="cls-18" d="M334,229a1,1,0,0,1,.87-1.07c1.6-.27,4.88-.57,5.49,1.29.83,2.47-2.25,5.09-3.8,4A7.12,7.12,0,0,1,334,229Z" transform="translate(-66.55 -50.89)"/><path class="cls-18" d="M352.79,231.31c-.29,1.16-1.79,1.94-.6,4.16s5.23,2.8,5.23,2.8l1.74-3.06a5.46,5.46,0,0,1-.77-1.44,5.52,5.52,0,0,0-2.89-3.5c-2-.93-5.15-1.89-5.55-1.31S353,230.4,352.79,231.31Z" transform="translate(-66.55 -50.89)"/><polygon class="cls-18" points="292.61 184.32 314.67 194.38 314.62 199.9 291.57 186 292.61 184.32"/><path class="cls-27" d="M70.92,327.43c2.09,8.7,3.75,18.38,10.16,25.11,8.33,8.73,20.91,10.75,32.33,11.32,12.9.64,26-.32,38.78.64,9,.69,21.58,3.24,27.59-5.76a13.1,13.1,0,0,0,.74-1.84,12.29,12.29,0,0,0-4.06-13.1,30,30,0,0,0-2.22-2.15c-.79-.69-1.61-1.33-2.48-1.95-4.47-5.05-10.72-6.83-17-7.49-.87-.11-1.74-.21-2.62-.29-6.13-.55-12.49-.42-18.62-1.6a11.79,11.79,0,0,1-5.62-4,26.68,26.68,0,0,1-3.39-6.72c-3-7.65-5.61-15.43-8.91-22.95-1.88-4.28-3.85-9.51-6.59-13.84a24.17,24.17,0,0,0-4.06-5C98.66,272,88.14,272.16,80.56,275c-8.35,3.16-13.18,11.63-13.84,20.16C65.88,306.09,68.4,316.9,70.92,327.43Z" transform="translate(-66.55 -50.89)"/><path class="cls-28" d="M108.91,310.63c-1.12,7.33-5.91,14-5.38,21.58.51,7.24,6.39,12.73,12.87,15.19,8.73,3.31,18.57,1.74,27.66,1.7,9.75,0,19.45.62,28.45,4.66.79.35,7.86,3.61,8,3.14a12.29,12.29,0,0,0-4.06-13.1,30,30,0,0,0-2.22-2.15c-.79-.69-1.61-1.33-2.48-1.95-4.47-5.05-10.72-6.83-17-7.49-.87-.11-1.74-.21-2.62-.29-6.13-.55-12.49-.42-18.62-1.6a11.79,11.79,0,0,1-5.62-4,26.68,26.68,0,0,1-3.39-6.72c-3-7.65-5.61-15.43-8.91-22.95-1.88-4.28-3.85-9.51-6.59-13.84-1.86.78-3.84,2.15-4.19,3.94-.4,2,1.74,4.76,2.39,6.61A35.94,35.94,0,0,1,108.91,310.63Z" transform="translate(-66.55 -50.89)"/><path class="cls-29" d="M143.56,316.64c14.3-5.16,26.79-7,27.91-4s-9.57,9.51-23.87,14.67-26.79,6.95-27.9,4S129.27,321.8,143.56,316.64Z" transform="translate(-66.55 -50.89)"/><path class="cls-29" d="M167.41,312.41c5.78-7.94,19.87,30.35,21.65,40.75s-4,.93-11.73-14S165.13,315.54,167.41,312.41Z" transform="translate(-66.55 -50.89)"/><polygon class="cls-29" points="116.47 301.04 118.75 305.57 123.38 304.48 122 299.71 116.47 301.04"/><path class="cls-30" d="M189.94,355.4a17.52,17.52,0,0,0,5.31,3.11c3.77,1.57,4.46.84,4.76,1.71s-13,3.54-13,3.54l-1.72-7.38A38.88,38.88,0,0,1,189.94,355.4Z" transform="translate(-66.55 -50.89)"/><path class="cls-31" d="M131.09,319.51s28.86-13.73,39.32-10c8.79,3.13,19.48,40.78,19.48,40.78l-7.36,2.53-15.89-30s-17.53,8.4-33.9,13.18-12.94-10.47-12.94-10.47Z" transform="translate(-66.55 -50.89)"/><path class="cls-29" d="M139.71,326.34c15.15,1.77,27.12,5.73,26.74,8.85s-13,4.2-28.11,2.42-27.12-5.74-26.74-8.85S124.57,324.56,139.71,326.34Z" transform="translate(-66.55 -50.89)"/><path class="cls-29" d="M162,334c0-9.82,34,13.36,41.53,20.84s-2.69,3.05-17.72-4.65S162,337.84,162,334Z" transform="translate(-66.55 -50.89)"/><polygon class="cls-29" points="132.47 306.96 137.21 308.73 139.87 304.8 135.29 302.07 132.47 306.96"/><path class="cls-32" d="M206.45,355.71a17.37,17.37,0,0,0,6-1.32c3.84-1.4,3.85-2.41,4.66-2S210,363.85,210,363.85l-6.27-4.25A39.19,39.19,0,0,1,206.45,355.71Z" transform="translate(-66.55 -50.89)"/><path class="cls-33" d="M111.48,325.22s-6.59,16.79,14.35,18.12a268.23,268.23,0,0,0,35.05.15c1.19,0,38.29,15,38.29,15l3.65-6.27s-29-21.18-38.67-23.12-29.56-3.41-29.56-3.41Z" transform="translate(-66.55 -50.89)"/><path class="cls-29" d="M133.86,275.6a3.71,3.71,0,0,0-1.27,3.69c1.22,6.14,6.15,30.67,10.72,30,5.37-.75-.14-22.73-2.25-27.72C139.31,277.43,136.56,273.55,133.86,275.6Z" transform="translate(-66.55 -50.89)"/><polygon class="cls-29" points="70.95 248.27 75.36 267.69 82.54 266.57 77.83 242.32 70.95 248.27"/><path class="cls-34" d="M144.63,293.45,135.9,299l-5.26-19,6-4.91s3,1.91,4.86,7.35S144.63,293.45,144.63,293.45Z" transform="translate(-66.55 -50.89)"/><path class="cls-29" d="M121,266.94l-.37,6,7.87.38-.42-2.55-.24-1.47a6.09,6.09,0,0,0,2-.1c2.33-.55,5.38-7.43,4.39-13.68s-10.47-5.39-14.16-1.32S121,266.94,121,266.94Z" transform="translate(-66.55 -50.89)"/><path class="cls-29" d="M108.54,283.72c1.51,8.78,5.72,19.54,5.61,26.53s-2.77,15-2,15.3,26.52.89,27.73-.21-4-10.33-4.31-17.21,4.48-9.82,5.33-18.14-3.12-14-5.11-15.37-7-1.44-7-1.44l-9.33-.45s-6.78-.16-10,3.06C107.86,277.43,107.87,279.81,108.54,283.72Z" transform="translate(-66.55 -50.89)"/><path class="cls-29" d="M128.09,270.75l-4.51-2.88a21.52,21.52,0,0,0,4.26,1.41Z" transform="translate(-66.55 -50.89)"/><path class="cls-29" d="M113.07,275.86a3.7,3.7,0,0,1,1.14,3.74c-1.45,6.08-7.28,30.42-11.82,29.61-5.34-.95,1-22.71,3.27-27.62C107.56,277.49,110.45,273.72,113.07,275.86Z" transform="translate(-66.55 -50.89)"/><path class="cls-35" d="M137.63,299.94A17.88,17.88,0,0,0,136,308c0,4.94,4.94,16,4.38,17.58-.43,1.26-17.27,1-25.08.56a27.41,27.41,0,0,1-3.88-.33c-.72-.45,1.5-10.32,2.11-15.32.28-2.28-.28-5.77-1-8.88s-1.6-6.43-1.84-7.25c0-.06,0-.12,0-.15h0l0,0L110,296l-8.54-2.1c2.54-10.82,5-15,7.43-17.87s7.56-3.11,7.56-3.11,3.22,6.85,10.44,6.59,3.86-6.26,3.86-6.26,3.2,0,5,1.12,3.39,3.6,4.41,6.63a20.59,20.59,0,0,1,.94,10C140.72,294.29,138.61,297.76,137.63,299.94Z" transform="translate(-66.55 -50.89)"/><path class="cls-29" d="M100.46,306.22a4.24,4.24,0,0,0,2.27,3.45c6,3.32,27.34,15,29.69,13.19,2.72-2.09-27.47-20.43-29.12-19.64C102.07,303.81,100.39,304.23,100.46,306.22Z" transform="translate(-66.55 -50.89)"/><path class="cls-29" d="M133.33,321.23a13.5,13.5,0,0,0-1.8-1.31c-1.33-.82-2.93-1.39-3.72-.11a3,3,0,0,0,0,3.41c.65,1.29,3.18,3.55,3.77,2.95s-1.05-2.52-.78-2.57l.09,0c.62.36,4,3.45,4.49,2.8S135.06,322.69,133.33,321.23Z" transform="translate(-66.55 -50.89)"/><rect class="cls-36" x="57.93" y="274.72" width="31.45" height="1.53"/><polygon class="cls-37" points="97.61 276.25 68.34 276.25 76.6 256.3 105.86 256.3 97.61 276.25"/><polygon class="cls-38" points="98.43 276.25 69.17 276.25 77.42 256.3 106.69 256.3 98.43 276.25"/><path class="cls-3" d="M156.83,318.16c-.53,1.32-1.67,2.1-2.54,1.75s-1.15-1.7-.63-3,1.67-2.1,2.54-1.75S157.36,316.84,156.83,318.16Z" transform="translate(-66.55 -50.89)"/><path class="cls-39" d="M132.55,250.52a4.06,4.06,0,0,0-2.19-2.34,10.09,10.09,0,0,0-10,.33c-3.54,2.11-5.07,6.11-6.09,9.91,0,.19-.09.39-.14.59-.51,2.22-.77,4.82-2.29,6.57-1,1.16-2.37,2-3.25,3.27-1.27,1.86-.77,4.18-.51,6.25.33,2.65.8,5.37.34,8-.22,1.24-1,3,.09,4a2.81,2.81,0,0,0,1.8.57c6.61.41,17.49-2.52,15.09-11.24-.55-2-2-3.53-2.9-5.31a19.51,19.51,0,0,1-1.45-4.18c0-.35-.7-6.73,3.63-8.31a30.79,30.79,0,0,0,3.9-1.73,15.88,15.88,0,0,0,3.84-2.89c1.93.48,2.09,3.41,2.09,3.41C135.55,252.81,132.55,250.52,132.55,250.52Z" transform="translate(-66.55 -50.89)"/><path class="cls-40" d="M406.85,333.93c-.11.22-.23.34-.37.35h-.12c-3.83-.09-10.57-19.82-20.28-18.69l-.32,0s9.23-4.4,13.89-2C406.86,317.39,408,331.53,406.85,333.93Z" transform="translate(-66.55 -50.89)"/><path class="cls-41" d="M406.85,333.93c-.11.22-.23.34-.37.35h-.12c-3.83-.09-10.57-19.82-20.28-18.69,0,0,10.71-4.24,15.74,4.45A42.15,42.15,0,0,1,406.85,333.93Z" transform="translate(-66.55 -50.89)"/><path class="cls-41" d="M407.07,346.21h0a.24.24,0,0,1-.22-.25c0-.31,1.81-28.83-13.66-30.95a.24.24,0,0,1-.2-.27.23.23,0,0,1,.27-.2c15.89,2.19,14.08,31.13,14.06,31.45A.24.24,0,0,1,407.07,346.21Z" transform="translate(-66.55 -50.89)"/><path class="cls-42" d="M432.25,322.38h0c-9.81-1.48-16.62,18.4-20.48,18.65h-.18a.3.3,0,0,1-.2-.1c-1.39-1.42-.49-16.62,7-20.52C422.91,318.07,431.75,322.14,432.25,322.38Z" transform="translate(-66.55 -50.89)"/><path class="cls-41" d="M432.21,322.37c-9.81-1.48-16.62,18.4-20.48,18.65h-.18a.3.3,0,0,1-.2-.1c.67-3.44,1.88-10.44,5.94-15.42C422.75,318.79,431.57,322.15,432.21,322.37Z" transform="translate(-66.55 -50.89)"/><path class="cls-41" d="M411,353a.24.24,0,0,1-.24-.22c0-.32-1.83-29.27,14.07-31.45a.23.23,0,0,1,.26.2.24.24,0,0,1-.2.27c-15.47,2.12-13.68,30.64-13.66,30.95a.24.24,0,0,1-.22.25Z" transform="translate(-66.55 -50.89)"/><path class="cls-43" d="M407.71,321v0a.62.62,0,0,0,0,.09l-.13-.1c-.79-.7-5.27-5-7.42-15-3-13.81-8.33-17-8.66-17.16h0l-.31-.16.31-.05c7.46-1.38,13.11,2.24,15.26,10.9C409.12,309.16,407.87,319.78,407.71,321Z" transform="translate(-66.55 -50.89)"/><path class="cls-41" d="M407.57,321c-.79-.7-5.27-5-7.42-15-3-13.81-8.33-17-8.66-17.16a17.42,17.42,0,0,1,13.1,13.48A125.23,125.23,0,0,1,407.57,321Z" transform="translate(-66.55 -50.89)"/><path class="cls-41" d="M408.72,351.54h0a.24.24,0,0,1-.24-.23v-.17c.17-5.73,1.34-53.92-12.13-59.84a.24.24,0,0,1-.13-.31.25.25,0,0,1,.32-.12c13.46,5.92,12.7,50.88,12.41,60.28v.16A.23.23,0,0,1,408.72,351.54Z" transform="translate(-66.55 -50.89)"/><path class="cls-44" d="M427.08,295.2l-.07,0-.26.13s-5.57,2.9-8.66,17.18c-2.32,10.71-7.3,14.9-7.54,15.08a2.59,2.59,0,0,1-.05-.34h0c-.24-2-1.27-12.07,1-21.23,2.18-8.77,7.94-12.37,15.53-10.85Z" transform="translate(-66.55 -50.89)"/><path class="cls-41" d="M427,295.2l0,0-.26.13s-5.57,2.9-8.66,17.18c-2.32,10.71-7.3,14.9-7.54,15.08a2.59,2.59,0,0,1-.05-.34h0c1.57-13.93,4-20.83,6.28-25.11C419.54,296.89,427,295.2,427,295.2Z" transform="translate(-66.55 -50.89)"/><path class="cls-41" d="M409.41,352.1a.23.23,0,0,1-.23-.24c-.1-15.35.93-49.39,12.51-54.48a.23.23,0,0,1,.31.12.23.23,0,0,1-.12.31c-11.33,5-12.33,38.79-12.23,54.05a.24.24,0,0,1-.24.24Z" transform="translate(-66.55 -50.89)"/><path class="cls-45" d="M410.46,343" transform="translate(-66.55 -50.89)"/><path class="cls-46" d="M400.19,345.7l.15,1.68,1.3,14.75a1.56,1.56,0,0,0,1.54,1.43l12.52.11a1.56,1.56,0,0,0,1.57-1.4l1.4-13.27v0l.33-3.12Z" transform="translate(-66.55 -50.89)"/><path class="cls-47" d="M400.34,347.38l1.3,14.75a1.56,1.56,0,0,0,1.54,1.43l6,.05c-5.42-2.16-6.74-7-5.64-10.65,1.2-4,13.83-4,15.17-4h.12l-.11,0-12-2.52Z" transform="translate(-66.55 -50.89)"/><rect class="cls-48" x="399.03" y="345.78" width="21.11" height="3.19" rx="0.62" transform="translate(749.55 647.43) rotate(-179.5)"/><path class="cls-49" d="M394.67,181.29v5.53a1.14,1.14,0,0,0,1.15,1.15h2.08a.63.63,0,0,1,.59.45,16.2,16.2,0,0,0,1.89,4.24h0l-1.75,1.74a1.15,1.15,0,0,0,0,1.63l3.92,3.92a1.15,1.15,0,0,0,1.63,0l1.8-1.81h0a16.29,16.29,0,0,0,4.73,1.9h0v2.46a1.16,1.16,0,0,0,1.16,1.16h5.53a1.15,1.15,0,0,0,1.15-1.16V200h0a16.44,16.44,0,0,0,4.69-2h0l1.74,1.74a1.15,1.15,0,0,0,1.63,0l3.92-3.91a1.16,1.16,0,0,0,0-1.64l-1.48-1.47a.61.61,0,0,1-.1-.73,16.41,16.41,0,0,0,1.55-3.86.61.61,0,0,1,.59-.47h2a1.15,1.15,0,0,0,1.15-1.15v-5.54a1.14,1.14,0,0,0-1.15-1.15H431a.61.61,0,0,1-.58-.45,16.51,16.51,0,0,0-1.64-3.83.61.61,0,0,1,.09-.74l1.41-1.41a1.15,1.15,0,0,0,0-1.63l-3.92-3.91a1.15,1.15,0,0,0-1.63,0l-1.8,1.8h0a16.41,16.41,0,0,0-4.27-1.78.61.61,0,0,1-.46-.59v-2a1.15,1.15,0,0,0-1.16-1.15H411.5a1.14,1.14,0,0,0-1.15,1.15v2.08a.61.61,0,0,1-.45.59,16.51,16.51,0,0,0-3.83,1.64.62.62,0,0,1-.75-.09l-1.4-1.41a1.15,1.15,0,0,0-1.63,0L398.38,172a1.14,1.14,0,0,0,0,1.63l1.47,1.47a.62.62,0,0,1,.1.74,15.67,15.67,0,0,0-1.55,3.86.62.62,0,0,1-.59.46h-2A1.15,1.15,0,0,0,394.67,181.29ZM406.51,179a7.31,7.31,0,0,1,3-3c8.71-4.68,17.51,4.08,12.87,12.81a7.32,7.32,0,0,1-3,3C410.66,196.42,401.91,187.7,406.51,179Z" transform="translate(-66.55 -50.89)"/><path class="cls-50" d="M414.45,178.05a5.82,5.82,0,1,1-5.82,5.82A5.83,5.83,0,0,1,414.45,178.05Z" transform="translate(-66.55 -50.89)"/><path class="cls-51" d="M432.58,164.4v3.13a.66.66,0,0,0,.66.65h1.17a.36.36,0,0,1,.34.26,8.87,8.87,0,0,0,1.07,2.39h0l-1,1a.67.67,0,0,0,0,.93l2.22,2.21a.64.64,0,0,0,.92,0l1-1h0a9.23,9.23,0,0,0,2.68,1.07h0v1.4a.65.65,0,0,0,.65.65h3.14a.65.65,0,0,0,.65-.65V175h0a9.49,9.49,0,0,0,2.65-1.14h0l1,1a.64.64,0,0,0,.92,0l2.22-2.21a.66.66,0,0,0,0-.92l-.84-.84a.35.35,0,0,1-.05-.42,8.79,8.79,0,0,0,.87-2.18.34.34,0,0,1,.34-.26h1.13a.66.66,0,0,0,.65-.66v-3.13a.65.65,0,0,0-.65-.65h-1.19a.36.36,0,0,1-.33-.26,9.7,9.7,0,0,0-.92-2.17.32.32,0,0,1,.05-.42l.79-.79a.65.65,0,0,0,0-.93l-2.21-2.21a.65.65,0,0,0-.93,0l-1,1h0a9.18,9.18,0,0,0-2.41-1,.35.35,0,0,1-.27-.33v-1.13a.65.65,0,0,0-.65-.65h-3.13a.66.66,0,0,0-.66.65v1.18a.33.33,0,0,1-.25.33,9.11,9.11,0,0,0-2.17.93.35.35,0,0,1-.42-.05l-.8-.8a.66.66,0,0,0-.92,0l-2.22,2.22a.66.66,0,0,0,0,.92l.84.84a.33.33,0,0,1,.05.41,9.27,9.27,0,0,0-.87,2.19.35.35,0,0,1-.34.26h-1.12A.66.66,0,0,0,432.58,164.4Zm6.71-1.31a4.18,4.18,0,0,1,1.7-1.71,5.3,5.3,0,0,1,7.29,7.26,4.26,4.26,0,0,1-1.71,1.71A5.3,5.3,0,0,1,439.29,163.09Z" transform="translate(-66.55 -50.89)"/><circle class="cls-52" cx="377.23" cy="114.97" r="3.3"/><rect class="cls-53" x="134.71" y="36.51" width="11.64" height="11.14" rx="1.18"/><rect class="cls-54" x="151.29" y="28.41" width="11.64" height="19.24" rx="1.18"/><rect class="cls-55" x="167.87" y="17.95" width="11.64" height="29.7" rx="1.18"/><path class="cls-56" d="M202,79.66a1,1,0,0,1-1-.82,1,1,0,0,1,.81-1.11c.25,0,25.42-4.22,38.85-22.79a1,1,0,0,1,1.36-.21,1,1,0,0,1,.21,1.35c-13.91,19.23-39.86,23.52-40.12,23.56Z" transform="translate(-66.55 -50.89)"/><polygon class="cls-57" points="178.6 0 171.76 2.68 177.5 7.26 178.6 0"/></g></g></svg>