<svg id="Layer_1" data-name="Layer 1" xmlns="http://www.w3.org/2000/svg" viewBox="0 0 129.34 88.95"><defs><style>.cls-1{fill:#d0d1de;}.cls-2{fill:#fff;}.cls-3{fill:#110239;}.cls-4{fill:#fd425f;}.cls-5{fill:#01c7e2;}.cls-6{fill:#e5e6ed;}.cls-7{fill:#f88667;}.cls-8{fill:#e42244;}.cls-9{fill:#e45940;}.cls-10{fill:#b8b9cd;}.cls-11{fill:#e01f41;}.cls-12{fill:#00a7cc;}</style></defs><title>slice-of-the-pie</title><path class="cls-1" d="M139.44,327.06H45.6a4.48,4.48,0,0,1-4.7-4.22V251.6a4.48,4.48,0,0,1,4.7-4.22h93.84a4.47,4.47,0,0,1,4.69,4.22v71.24A4.47,4.47,0,0,1,139.44,327.06Z" transform="translate(-22.16 -247.38)"/><rect class="cls-2" x="23.43" y="5.01" width="93.84" height="69.67"/><circle class="cls-3" cx="93.58" cy="287.07" r="30.81" transform="translate(-155.95 -158.98) rotate(-30.8)"/><path class="cls-4" d="M89.14,256.59a30.81,30.81,0,0,1,8.84,61Z" transform="translate(-22.16 -247.38)"/><path class="cls-5" d="M91.42,317.85h-.15l2.15-30.69,25.73-17.21a30.81,30.81,0,0,1-27.73,47.91Z" transform="translate(-22.16 -247.38)"/><path class="cls-6" d="M89.51,317.61a31.62,31.62,0,0,0,5.3.25l-1.23-30.8L63,283A30.82,30.82,0,0,0,89.51,317.61Z" transform="translate(-22.16 -247.38)"/><path class="cls-5" d="M81.11,294.77l-28.58-15a32.19,32.19,0,0,0-.81,28.33Z" transform="translate(-22.16 -247.38)"/><path class="cls-4" d="M96.67,290.11l31-5.62a31.24,31.24,0,0,1-3.08,20.26Z" transform="translate(-22.16 -247.38)"/><path class="cls-7" d="M53.23,279.12a4,4,0,0,0-2.19.75,8.09,8.09,0,0,1-1.92.71,6.23,6.23,0,0,1,.14,1.14s1.07-.19,1.19-.23c.36-.11.64-.39,1.06-.28a2.66,2.66,0,0,1,.56.28c.22.11.75.65,1,.54s-.25-.61-.32-.74-.07-.53.22-.46,1.09.59,1.52.39-1.15-.74-1.43-.92c.45.23,2,.69,2.08.43.24-.51-1.36-.77-1.8-1a2.24,2.24,0,0,0,1.26.27C55.19,279.81,53.55,279.26,53.23,279.12Z" transform="translate(-22.16 -247.38)"/><path class="cls-7" d="M51.59,308.53a4,4,0,0,1-2.08-1,9.13,9.13,0,0,0-1.83-.92A7.47,7.47,0,0,0,48,305.5l1.15.35c.35.16.59.47,1,.41a2.44,2.44,0,0,0,.59-.21c.24-.09.83-.56,1.08-.43s-.32.58-.41.7-.13.53.17.48,1.15-.45,1.56-.2-1.23.6-1.54.74c.49-.18,2-.46,2.13-.18.17.53-1.44.61-1.91.77a2.22,2.22,0,0,1,1.28-.11C53.61,308.08,51.93,308.44,51.59,308.53Z" transform="translate(-22.16 -247.38)"/><path class="cls-4" d="M33,292.56a3,3,0,0,0,3.9-.17c1.79-1.61,5.13-4.6,6.22-5.43,1.51-1.16,8.29-5.41,8.29-5.41l-1-1.91s-8.45,3.73-9.64,4.67-8.13,5.11-8.41,6.79A1.55,1.55,0,0,0,33,292.56Z" transform="translate(-22.16 -247.38)"/><path class="cls-8" d="M33,292.56a3,3,0,0,0,3.9-.17c1.79-1.61,5.13-4.6,6.22-5.43,1.51-1.16,8.29-5.41,8.29-5.41l-1-1.91s-8.45,3.73-9.64,4.67-8.13,5.11-8.41,6.79A1.55,1.55,0,0,0,33,292.56Z" transform="translate(-22.16 -247.38)"/><path class="cls-7" d="M34.25,284.26l.12.15a10.09,10.09,0,0,0,1.36,1.18c.31.2.78.33,1,.54a1.5,1.5,0,0,0,.33.23,24,24,0,0,0-.47,4s-2.72-.2-3.71-1.29A27.77,27.77,0,0,0,34.25,284.26Z" transform="translate(-22.16 -247.38)"/><path class="cls-9" d="M37,287.21c.06-.34.11-.64.15-.85a1.5,1.5,0,0,1-.33-.23c-.26-.21-.73-.34-1-.54a10.09,10.09,0,0,1-1.36-1.18l-.12-.15A27.77,27.77,0,0,1,32.92,289a3.6,3.6,0,0,0,1.54.86A3.11,3.11,0,0,1,37,287.21Z" transform="translate(-22.16 -247.38)"/><path class="cls-3" d="M35.75,332.7s.07,2.7.5,3.07,5.8.53,6.27,0,.19-1.33-1-1.65-1.84,0-2.62-.33-.57-1.54-.57-1.54Z" transform="translate(-22.16 -247.38)"/><path class="cls-3" d="M22.4,332.6s-.42,2.64,0,3,5.89.81,6.38.34.24-1.32-.9-1.68-1.82-.15-2.61-.44c-.62-.22-.2-1.48-.2-1.48Z" transform="translate(-22.16 -247.38)"/><path class="cls-1" d="M26.38,317.43a80.51,80.51,0,0,1,1.12-15,6.77,6.77,0,0,1,2.69.52c1.64.74,3.3,1.46,4.95,2.18a104.67,104.67,0,0,0-4.63,13.72c-.44,2.36-5.37,14.38-5.37,14.38l-3-.38C22.21,330.88,26.39,318.08,26.38,317.43Z" transform="translate(-22.16 -247.38)"/><path class="cls-10" d="M32.49,304c.87.42,1.76.75,2.66,1.08a113.79,113.79,0,0,0-4.25,12.25c-.42-1.27-2.44-4.32-3.22-7.66a17.74,17.74,0,0,1-.25-6.81v0A12.62,12.62,0,0,1,32.49,304Z" transform="translate(-22.16 -247.38)"/><path class="cls-1" d="M30.26,303.57c1.17.39,3.28.95,4.88,1.52,1.11,2.81,4.39,9.44,4.56,12.44.19,3.31-1,15.84-1,15.84H35.33s-.31-14.13-.79-15c-1.58-3-3.32-5.36-4.31-7.22a23.48,23.48,0,0,1-2.51-6.59c-.13-.65-.69-2.81.4-3.49C29,301.29,29.29,303.24,30.26,303.57Z" transform="translate(-22.16 -247.38)"/><path class="cls-4" d="M36.38,305.77a13.9,13.9,0,0,1-5.69.89c-2.09-.2-3.17-.24-4.39-.89,0,0,1.31-10.19,2.81-13.4a6.72,6.72,0,0,1,4-3.82,8.53,8.53,0,0,0,3.55,1.11s0,6.25-.16,8.75S36.38,305.77,36.38,305.77Z" transform="translate(-22.16 -247.38)"/><path class="cls-8" d="M36.51,297.5c0-.28,0-.57,0-.88v-.11c0-.29,0-.6,0-.91v-.16c0-.34,0-.7,0-1.05h0l-.38,0a8.8,8.8,0,0,1-2.73-1.26,3.17,3.17,0,0,0-.45-.23,11.9,11.9,0,0,0,.69,4,22.92,22.92,0,0,1,.49,9.51,14.58,14.58,0,0,0,2.18-.63s0-4.86.1-7.36c0-.22,0-.48,0-.75Z" transform="translate(-22.16 -247.38)"/><path class="cls-4" d="M48.39,307.69l1.2-2.37s-5.94-3.81-8.11-6-4.52-6.65-6.18-6.93-3.32.64-2.36,2.94,5.81,5.36,6.8,6.38A98.26,98.26,0,0,0,48.39,307.69Z" transform="translate(-22.16 -247.38)"/><path class="cls-7" d="M33.43,279.64s4.38-.51,4.69.23.37,2.81.65,3.25.8,1,.61,1.25-.41.21-.53.53-.07,2.11-.65,2.38-3.53.11-4.6-1.57S31.31,279.79,33.43,279.64Z" transform="translate(-22.16 -247.38)"/><path class="cls-3" d="M32.33,280.05l2.91,1.34a6.58,6.58,0,0,0,.74,3.18s-.26.4-.53.17a1.06,1.06,0,0,1-.52-.77c-.06-.42-.32-1.55-1.08-1s0,1.22.43,1.38c0,0,.62,2.21-.55,2.05,0,0-1.08-.68-2-3.33S31.61,279.55,32.33,280.05Z" transform="translate(-22.16 -247.38)"/><path class="cls-3" d="M39.39,279.08s1,1.5-1.38,2.5-5.89-1.64-5.89-1.64.09-1.31,2-1.87c1.44-.42,2.79-.36,3.52.48C38.91,280,39.39,279.08,39.39,279.08Z" transform="translate(-22.16 -247.38)"/><path class="cls-7" d="M142.73,285.25a1.79,1.79,0,0,1-.13.14,8.34,8.34,0,0,1-1.27,1.18c-.29.2-.73.34-1,.55a2.26,2.26,0,0,1-.31.23,24.25,24.25,0,0,1,.57,3.79s2.6-.26,3.52-1.35A25.78,25.78,0,0,1,142.73,285.25Z" transform="translate(-22.16 -247.38)"/><path class="cls-9" d="M142.78,285.63l-.12.14a8.34,8.34,0,0,1-1.27,1.18c-.29.2-.74.34-1,.55a3.55,3.55,0,0,1-.31.23c0,.18.09.42.14.69h0a3.09,3.09,0,0,1,3.12,2.34,2.52,2.52,0,0,0,.79-.59A26.41,26.41,0,0,1,142.78,285.63Z" transform="translate(-22.16 -247.38)"/><path class="cls-3" d="M138.76,332.3s.13,2.6-.25,3-5.53.95-6,.51-.28-1.26.8-1.65,1.77-.15,2.49-.52.43-1.52.43-1.52Z" transform="translate(-22.16 -247.38)"/><path class="cls-3" d="M151,332.25s.72,2.47.38,2.89-5.52,1.5-6,1.11-.39-1.23.65-1.72,1.75-.3,2.43-.73.3-1.56.3-1.56Z" transform="translate(-22.16 -247.38)"/><path class="cls-4" d="M150.62,317.22a76.94,76.94,0,0,0-.71-14.49,6.56,6.56,0,0,0-2.59.43c-1.6.68-3.21,1.33-4.82,2a101.65,101.65,0,0,1,4.11,13.31c.37,2.27,1.95,14.74,1.95,14.74l2.94-.1C151.5,331.22,150.59,317.85,150.62,317.22Z" transform="translate(-22.16 -247.38)"/><path class="cls-11" d="M145.07,304.13a26.73,26.73,0,0,1-2.58,1,107.88,107.88,0,0,1,4.11,13.28c.43-1.2,2.13-5.48,3-8.67a17.15,17.15,0,0,0,.41-6.54v0A12.5,12.5,0,0,0,145.07,304.13Z" transform="translate(-22.16 -247.38)"/><path class="cls-4" d="M147.35,302.64c-1.12.35-3.16.86-4.71,1.38-1.12,2.68-4.13,10.41-4.7,13.24-.77,3.92-2.07,15.54-2.07,15.54l3.31.44s3.33-15.61,3.8-16.48c1.57-2.85,3.29-5.1,4.27-6.87a21.8,21.8,0,0,0,2.85-7.9C149.22,302.23,148.29,302.34,147.35,302.64Z" transform="translate(-22.16 -247.38)"/><path class="cls-7" d="M127.28,282.9c.31,0,1,.9,1.38,1.55a7.82,7.82,0,0,0,1.2,1.4,6.1,6.1,0,0,0-.61.83s-.76-.62-.83-.7c-.24-.25-.33-.59-.71-.69a3.44,3.44,0,0,0-.56,0c-.23,0-.88.18-1,0s.46-.37.58-.44.28-.39,0-.46-1.11,0-1.36-.37,1.22-.07,1.53-.09c-.46,0-1.85-.31-1.83-.57,0-.51,1.41,0,1.85,0a2,2,0,0,1-1.1-.34C125.44,282.58,127,282.87,127.28,282.9Z" transform="translate(-22.16 -247.38)"/><path class="cls-5" d="M147.4,294.58a2.91,2.91,0,0,0-2-3.15c-2.21-.7-6.31-2-7.53-2.51-1.7-.69-8.53-4.24-8.53-4.24l-1.09,1.78s7.22,5.18,8.58,5.72,8.19,4.25,9.72,3.66A1.47,1.47,0,0,0,147.4,294.58Z" transform="translate(-22.16 -247.38)"/><path class="cls-5" d="M147.4,294.58a2.91,2.91,0,0,0-2-3.15c-2.21-.7-6.31-2-7.53-2.51-1.7-.69-8.53-4.24-8.53-4.24l-1.09,1.78s7.22,5.18,8.58,5.72,8.19,4.25,9.72,3.66A1.47,1.47,0,0,0,147.4,294.58Z" transform="translate(-22.16 -247.38)"/><path class="cls-5" d="M141.28,306a23,23,0,0,0,5.37,0c2-.25,3.83-1,4.25-1.75,0,0-1.47-8.33-3-11.38a6.47,6.47,0,0,0-3.94-3.56,8.12,8.12,0,0,1-3.37,1.16s.21,6,.4,8.42S141.28,306,141.28,306Z" transform="translate(-22.16 -247.38)"/><path class="cls-12" d="M143.6,297.38a11.54,11.54,0,0,0,.54-3.9c-.14.08-.29.15-.42.24a8.58,8.58,0,0,1-2.59,1.28,1.5,1.5,0,0,1-.37,0c.07,1.46.15,2.94.22,3.88.19,2.4.3,7.07.3,7.07s.75.11,1.85.16C142.45,303.43,143,300.23,143.6,297.38Z" transform="translate(-22.16 -247.38)"/><path class="cls-7" d="M143.91,282.51s-1.21-2.28-2.69-2.13-2.91.59-3.09,1.17,0,1.85-.32,2.44-1.06,1.43-.83,1.66a7.67,7.67,0,0,1,.67.61,8.74,8.74,0,0,0,.91,2.19c.32.19,3.12-1,3.52-1.91S144.1,284,143.91,282.51Z" transform="translate(-22.16 -247.38)"/><path class="cls-3" d="M141.67,280.45s-1.19,3.3-4.14,3a2.54,2.54,0,0,1,0-2.39A3.29,3.29,0,0,1,141.67,280.45Z" transform="translate(-22.16 -247.38)"/><path class="cls-3" d="M150.9,292.51a5.26,5.26,0,0,0-2.15-3.65,8.78,8.78,0,0,1-2.84-4.43c-.48-1.69-.24-3.32-1.87-4.5a3.67,3.67,0,0,0-3.93.25,1,1,0,0,1,0,.18s-1.1,1,.66,2.52a3.78,3.78,0,0,1,1,1.53,1.24,1.24,0,0,1,.37-.42.41.41,0,0,1,.62.05c.35.36-.17,1-.5,1.06-.06,0-.14.09-.22.19a20.29,20.29,0,0,1,.77,4.45,3.41,3.41,0,0,0,.85,1.83c.5.62.85.64,1.14,1.38s-.32,2.69,1.19,3.58a4.75,4.75,0,0,0,2.61.19C150.61,296,151.08,294.54,150.9,292.51Z" transform="translate(-22.16 -247.38)"/><path class="cls-7" d="M127.07,302.86a2.39,2.39,0,0,1-1.2.18,1.34,1.34,0,0,0-.56-.05,2.9,2.9,0,0,1-.66,0,1.14,1.14,0,0,0-.63.07c-.24.14.06.31.28.4s1-.1,1.13.13-.82.41-1,.44c-.45.08-.67-.18-1.06-.3-.22-.08-.35,0-.27.22s.29.28.47.35a2.34,2.34,0,0,0,1.17.2,2.61,2.61,0,0,1-1.11-.07c-.21-.05-1.05-.43-1.16-.12-.23.64,1.84.89,2.2.77a3.3,3.3,0,0,1-1.13,0c-.22,0-.74-.1-.56.26.26.52,1.43.2,2,.15a3.84,3.84,0,0,1-1,.22c-.47.08-.25.4.25.4a5.46,5.46,0,0,0,.71-.07,3.65,3.65,0,0,0,2.08-1.1c.25-.22.93-.37,1-.65C128,303.74,127.36,303.23,127.07,302.86Z" transform="translate(-22.16 -247.38)"/><path class="cls-5" d="M127.16,305.05l-1-2.17s6.14-3.55,8.56-5.45,5.32-6,7-6.07,3.21,1.05,2,3.21-6.44,4.57-7.55,5.44A96,96,0,0,1,127.16,305.05Z" transform="translate(-22.16 -247.38)"/></svg>