<svg xmlns="http://www.w3.org/2000/svg" viewBox="0 0 1598.75 1608.93"><defs><style>.cls-1{fill:#ffe6e6;}.cls-2{fill:#7690d9;}.cls-3{fill:#8ba9ff;}.cls-4{fill:#fff;}.cls-5{fill:#040a3a;}.cls-6{fill:#ec9ea4;}.cls-7{fill:#ec7d84;}.cls-8{fill:#f3a154;}.cls-9{fill:#f3bc54;}.cls-10,.cls-11,.cls-12,.cls-13,.cls-14{fill:none;}.cls-11{stroke:#1d255c;stroke-width:2.94px;}.cls-11,.cls-12,.cls-13,.cls-14{stroke-linecap:round;stroke-linejoin:round;}.cls-12{stroke:#ec6f78;}.cls-12,.cls-13,.cls-14{stroke-width:5.88px;}.cls-13{stroke:#4b528a;}.cls-14{stroke:#f38454;}.cls-15{fill:#dee5ef;}</style></defs><title>thinking-guy</title><g id="Layer_3" data-name="Layer 3"><path class="cls-1" d="M1502.66,1578a1089.22,1089.22,0,0,0,160.53-169.17c34-44.54,64.13-94.92,88.14-145.54,17.74-37.46,26.15-77,26.92-118.32.93-50.35,1.77-116.74-22.38-162.51-68.18-129.16-252.83-110.92-333.3-223.87-14-19.59-21-41.56-15.19-65.3,7.89-32.52,31.48-51,47.93-78.47,38.9-65,44.57-145.88-37.89-174.59-20.17-7-42.67-10.53-63.92-12.31-30.9-2.58-62.85-2.93-93.66.14-43.89,4.37-87.61,10-130.63,19.82-70.15,16.07-139.53,31.79-206.91,57.62C837,538.18,742.74,576.37,677.58,642.83,654.91,666,623.24,706.4,648.36,739c20.47,26.54,88.51,39.44,63.63,84.84-24.17,44.1-116.67,81-158,107.61-82.48,53.06-174,110-231,191.61-72.2,103.38-37.57,316.39,89.45,365.81C792.52,1642.65,1224.41,1747.21,1502.66,1578Z" transform="translate(-200.62 -195.54)"/><path class="cls-1" d="M1544.73,669.49c-30.08,8.69-61.23,50.06-37.39,79.52,19.15,23.65,53.77,31.68,82.82,26,35.32-6.91,60.47-52.27,35.5-82.68-17.52-21.35-43.22-32.28-80.84-22.67" transform="translate(-200.62 -195.54)"/><path class="cls-1" d="M645.71,620c9.07-10.89,18.92-21.7,27.11-33.26,2.89-4.09,8.37-11.87,6.74-17.34-2.69-9-13.78-9.89-21.55-8.47-16.92,3.1-32.36,17.19-42.07,30.65-11.59,16.07-21.39,35.19-22.58,55.3-.79,13.23,9.35,21.65,20.93,12.65C614.29,659.5,635.51,632.22,645.71,620Z" transform="translate(-200.62 -195.54)"/><path class="cls-2" d="M674.26,1656.34c-1.11-.06-17.06,3.57-18.18,3.51-47.07-41.72-106.53-62.28-167.23-47.71-32.78,7.87-54.38,25.28-88.69,21.63-53.94-5.81-25.39-52.29-71.1-61.87-35.43-7.34-96,10.87-122-21.21-26.5-32.73,35.43-72.68,62-78.21,29.61-6.11,56.93,4.76,85.84,1.12,18.69-2.41,25.09-21.5,42.37-27.09,25.62-8.34,47.89-.41,67.51,13.52-12.16,19.33-25.74,39.72,3.23,63.34C504.28,1552.87,631.55,1611.15,674.26,1656.34Z" transform="translate(-200.62 -195.54)"/><path class="cls-3" d="M700.56,1645.32a2.93,2.93,0,0,1-1.86-.67C588.16,1554,438.2,1514.74,253,1528.11a3,3,0,0,1-3.14-2.72,2.92,2.92,0,0,1,2.71-3.14c186.8-13.48,338.16,26.17,449.91,117.86a2.94,2.94,0,0,1-1.87,5.21Z" transform="translate(-200.62 -195.54)"/><path class="cls-4" d="M1752.52,1051.52c3.68,42.1-55,94.34-80.25,123.2-53.67,61.25-93,123.84-136.75,192.93-19.2,30.41-83,155.1-95.18,189.19l1.39.8a932.44,932.44,0,0,0-48.45,100.1v.16l-65.25,3.2-4.38-104c4.54-122.29,49.62-231.35,111-335.12,26.52-44.82,52.77-90,90.44-126.72,43-41.93,95.45-81.31,156.43-90.33C1714.37,1000,1749.21,1014.44,1752.52,1051.52Z" transform="translate(-200.62 -195.54)"/><path class="cls-2" d="M1672.21,1327.47c59.4-14.39,154.12-3.94,119.92,82.61-20.21,51.24-77.09,80.27-123.63,103.83-68.21,34.49-141.31,67-196.6,120.81-6.58,6.4-13,13.16-19,20.27l-65.67.21s30.7-75.37,49.44-108.68C1508.61,1418.6,1609.16,1342.75,1672.21,1327.47Z" transform="translate(-200.62 -195.54)"/><path class="cls-3" d="M1347.25,1652.82a3.15,3.15,0,0,1-.61-.06,3,3,0,0,1-2.27-3.49c48-227,136.33-373.69,202-456.74,71.24-90.14,132.06-127,132.66-127.41a2.94,2.94,0,0,1,3,5c-.6.36-60.69,36.88-131.29,126.29-65.17,82.54-152.88,228.31-200.61,454A2.94,2.94,0,0,1,1347.25,1652.82Z" transform="translate(-200.62 -195.54)"/><path class="cls-3" d="M1407.83,1646.76a2.86,2.86,0,0,1-1.75-.59,2.94,2.94,0,0,1-.6-4.11c136.57-182.63,290.89-243.11,292.43-243.7a2.94,2.94,0,1,1,2.1,5.49c-1.53.58-154.34,60.55-289.82,241.73A3,3,0,0,1,1407.83,1646.76Z" transform="translate(-200.62 -195.54)"/><path class="cls-4" d="M464.85,1460c8.34-13.22,16-26,9.11-39-19.22-36.66-107.82-64.46-79.44-118.34,21.5-40.83,72.21-34.66,103.35-8.69,19.45,16.21,32.67,36.78,47,57.35,9,12.92,15.28,28,27.91,37.95,23.91,18.81,61.87,9.76,81.2,35.37,15.22,20.1,13.81,46.72,20.69,69.81,10.28,34.49,64.51,22.8,86.55,51.29,13.22,17.22,11.4,42.08,22.56,60.7,8.87,14.69,24.5,23.56,38.25,33.79,9.87,7.22,19.45,16.45,24.21,27.38q-85.94-5.64-171.93-11.34c-42.71-45.19-170-103.47-206.18-133C439.11,1499.75,452.69,1479.36,464.85,1460Z" transform="translate(-200.62 -195.54)"/><path class="cls-3" d="M735.22,1665.26a2.94,2.94,0,0,1-2.45-1.31,2032.19,2032.19,0,0,0-284-338.81,2.94,2.94,0,1,1,4.07-4.24,2038.19,2038.19,0,0,1,284.86,339.79,2.93,2.93,0,0,1-.82,4.07A2.86,2.86,0,0,1,735.22,1665.26Z" transform="translate(-200.62 -195.54)"/><path class="cls-5" d="M933.8,489.82c10.28-1.76,20.15,6.29,22.15,17.92s-4.7,22.51-15,24.27-20.15-6.35-22.09-18S923.57,491.58,933.8,489.82Z" transform="translate(-200.62 -195.54)"/><path class="cls-4" d="M933.8,489.82c-10.23,1.76-16.93,12.57-14.93,24.21s11.87,19.68,22.09,18,17-12.64,15-24.27S944.08,488.06,933.8,489.82Zm8.46,47.89c-10.81,2.82-25.62,5.58-36.14.11C894.78,532,893,516.38,899.78,506.1l-.24-.18c11.63-17.75,36.9-21.27,55.17-12.22l-.17.35c4.4,4,5.64,10.17,6.23,15.81.82,7.16.94,14.39-3.94,20.33C953.13,534.71,947.72,536.3,942.26,537.71Z" transform="translate(-200.62 -195.54)"/><path class="cls-5" d="M934,454.68c-12.28-1.64-22-3.93-34.49-.64-3.94,1-9.22,2.35-11.87,5.7-3.58,4.46-8.81,2.52-6-3.82,1.53-3.29,4.7-6.41,7.46-8.64,11.69-9.46,28.32-11.81,42.54-7.64,4.41,1.23,12.28,3.06,13.22,8.64S937.67,455.15,934,454.68Z" transform="translate(-200.62 -195.54)"/><path class="cls-5" d="M1001,283.05c16,.59,31.26,18.92,37.43,31.85l0,.94c-1.52.12-3,.17-4.52.29-12.4.82-25.38,1.18-38.19,2.35,0,.06-.06,0-.06,0-9-6.87-22.21-11.87-33.32-8.64l-.64-.64c10.87-10.93,24.15-21.27,38.48-27.91Z" transform="translate(-200.62 -195.54)"/><path class="cls-5" d="M1078.75,307.08l-.94,1.35c-11.22,6.06-26.44,6.7-39.37,7.41l0-.94c-6.17-12.93-21.45-31.26-37.43-31.85l-.77-1.76a78.18,78.18,0,0,1,23-6.94C1046.38,271.36,1073.05,282.82,1078.75,307.08Z" transform="translate(-200.62 -195.54)"/><path class="cls-5" d="M995.67,318.48c-21.39,2.06-42.37,6.47-59.88,19.33l-.17-.11c7.17-7.64,13.92-15.57,21-23.33,1.59-1.76,3.29-3.53,5.06-5.17l.64.64C973.46,306.61,986.68,311.61,995.67,318.48Z" transform="translate(-200.62 -195.54)"/><path class="cls-6" d="M1104.19,826.56l-.35.12c-6-16.63-13.75-32.73-20.8-49,11.93,7,25.38,12.58,38.37,15,7.76,11.63,17.92,21.15,30.91,27,3.46,1.58,11.34,3.52,22.56,6.11-11.28,22.79-28.5,42.18-49.12,57.17C1118.18,865.11,1110.89,846.36,1104.19,826.56Z" transform="translate(-200.62 -195.54)"/><path class="cls-6" d="M988.62,873c4.23,15.51,9.22,30.79,16.33,44.65l-.12.06c-30.43-2.41-59.75-13.39-83.55-34.49-12.28-11-24.09-23.27-31.67-38.07a288.39,288.39,0,0,0,44.3-26.39,15.71,15.71,0,0,0,3.41,7.88c1.18,1.47,2.18,2.94,3.41,4.29-.29,3.17-.41,6.34-.59,9.52-.53,11.22-5.11,27,6.64,34.25,8.29,5.11,23.68,13.63,34.08,11.46,6.76-1.41,8.7-7.4,7.29-13Z" transform="translate(-200.62 -195.54)"/><path class="cls-7" d="M1100.67,714.27c-.06,26.21,5.93,56.12,20.74,78.39-13-2.41-26.44-8-38.37-15-3.7-8.57-7.23-17.27-10.22-26.08-2.29-6.88-4.35-13.93-6.58-20.86A123.44,123.44,0,0,0,1100.67,714.27Z" transform="translate(-200.62 -195.54)"/><path class="cls-5" d="M1089.15,475c10.28-1.76,20.16,6.29,22.15,17.93s-4.76,22.5-15,24.2-20.15-6.28-22.15-17.92S1078.93,476.66,1089.15,475Z" transform="translate(-200.62 -195.54)"/><path class="cls-4" d="M1096.32,517.08c10.22-1.7,16.92-12.57,15-24.2s-11.87-19.69-22.15-17.93-16.92,12.58-15,24.21S1086.1,518.85,1096.32,517.08Zm1.29,5.76c-10.81,2.82-25.62,5.52-36.13.12-11.34-5.88-13.22-21.45-6.41-31.73l-.17-.12c11.51-17.8,36.84-21.33,55.17-12.34l-.18.41c4.41,4,5.64,10.11,6.23,15.81.77,7.17.88,14.4-3.93,20.33C1108.48,519.79,1103.08,521.43,1097.61,522.84Z" transform="translate(-200.62 -195.54)"/><path class="cls-5" d="M799.24,542.35c-9.28-19.33-18.1-39-20.68-60.4v-1.71a63.06,63.06,0,0,1-15.57-7.4c-36.14-23.74-14.93-77.56,5.7-104.3,13-16.92,30.26-30.32,42.19-48.18,20.21-30.2,33.72-64.57,63.1-87.9,42.31-33.55,103.41-41.66,155.94-34.55,75,10.23,88.85,50.83,95,63.87,23.2,8.52,37.48,29.61,53.17,47.89,9.81,11.34,23.68,18.21,33,30.26,24,31.32,18.87,68.63-5.58,97.54,3.76,20.09,3.94,45.12-2.17,64.51a37.5,37.5,0,0,0-11.75,15.4c-1.06,2.88-4.23,16.21-9.17,16.21a2.89,2.89,0,0,1-.65-.05c-1.88-.47-1.93-4.82-2.11-6.23-.94-6.64-1.94-13.16-4.64-19.33-14.16-32.91-4.47-70.4-13.69-104.89-11.93-9.22-26.33-15.92-36.84-28.32-16.93-19.92-24.15-51.47-46.36-66.16l-.3-.18.94-1.35c-5.7-24.26-32.37-35.72-55.52-32.73a78.18,78.18,0,0,0-23,6.94c-14.33,6.64-27.61,17-38.48,27.91-1.77,1.64-3.47,3.41-5.06,5.17-7.11,7.76-13.86,15.69-21,23.33-1.35,1.46-2.76,2.93-4.17,4.4-9.52,9.7-18.92,20.92-30.62,28.15-8,4.93-16.74,8.11-25.67,10.81-.06-.06-.06-.06-.12.06-14.51,9.52-21.57,27.14-29.73,41.77a171,171,0,0,1-14.87,22.74c.71,7.94,3.82,16,5.17,23.8,1.76,9.87,1.94,20.62,1.53,30.67-.59,13.52-8.58,25.09-9.28,38.72-.42,8,2.11,15.81,3.35,23.62.64,3.76,1.29,8.52-1.59,11.52-8.4,8.81-19.21-8.46-21.92-14.1C804.94,554,802.06,548.23,799.24,542.35Z" transform="translate(-200.62 -195.54)"/><path class="cls-6" d="M1235.11,501.81c25,29.61,7.11,74.44-22.21,94.42-8.17,5.52-18.45,11.16-28.68,11.16l-2.41-.58a210,210,0,0,0,5.41-35.67c.7-9.69,1.94-19.27.94-29l-5.76-8.58c4.94,0,8.11-13.33,9.17-16.21a37.5,37.5,0,0,1,11.75-15.4C1213,494.23,1225.88,491,1235.11,501.81Z" transform="translate(-200.62 -195.54)"/><path class="cls-6" d="M1037,680.55c16.22,12.87,23.27,31.26,29.21,50.18a109.33,109.33,0,0,1-22.21,4.34l-13.64,4.53c-3.11-.76-6.28-1.53-9.46-2.23l.06-.18c-7.17-18.16-8.81-33.14-28.85-40.72-12.45-4.7-39.25,11.75-44.36-8.46-2.7-10.87,12.34-15,19.33-18.92,6.7-3.76,13.34-7.93,21-9.34C1004.72,656.63,1024.64,670.73,1037,680.55Z" transform="translate(-200.62 -195.54)"/><path class="cls-7" d="M962.29,734.66a38.8,38.8,0,0,0-10.45,10.11c-.06-4.58-.18-9.23-.24-13.81C955.18,732.25,958.77,733.49,962.29,734.66Z" transform="translate(-200.62 -195.54)"/><path class="cls-5" d="M1106.84,433.35c-12.81-1.47-22.15,2.12-34.08,5.47-3.59,1-11.75.76-11.64-4.82s7.64-8.52,11.81-10.4c13.52-6.11,30.32-6.11,43.25,1.59,3,1.82,6.64,4.46,8.58,7.52,3.7,5.87-1.23,8.52-5.41,4.58C1116.24,434.41,1110.83,433.82,1106.84,433.35Z" transform="translate(-200.62 -195.54)"/><path class="cls-8" d="M1179.64,1356.85c-32.22-75.8-63.82-164.79-88.7-239.63,5,47.06,18.89,147.48,53.41,249.26C1156.12,1363.44,1167.83,1359.69,1179.64,1356.85Z" transform="translate(-200.62 -195.54)"/><path class="cls-9" d="M807.64,1328.88c4.47,18.33,5.94,40.54,18.75,55.47,21,24.5,72.39,19.51,101.18,17.21,68.27-5.34,137.55-18.86,204.59-32.25,4.08-.82,8.14-1.78,12.19-2.83-34.52-101.78-48.42-202.2-53.41-249.26-26.68-80.23-45.62-144.18-49.21-158-16.86-10.4-28.32-25-36.78-41.55l-.12.06c-30.43-2.41-59.75-13.39-83.55-34.49-12.28-11-24.09-23.27-31.67-38.07-55.53,27.38-118.81,43.18-166.23,80-101.53,79-110.4,214.59-134.49,330.11v.29c4.64-.35,12-.71,21.15-1,47.83-1.7,146.31-3.41,182-10.16C796.48,1272.77,800.89,1301,807.64,1328.88Z" transform="translate(-200.62 -195.54)"/><path class="cls-8" d="M1350.69,1638.72c-1.35-24.25-1.89-48.23-1.89-71.87-34.31-10.87-66.16-34.43-90.43-63.28-2.23-2.65-4.46-5.47-6.75-8.52-12.18,7.34-24.87,13.73-37.65,20C1249.08,1569.09,1293.8,1614.1,1350.69,1638.72Z" transform="translate(-200.62 -195.54)"/><path class="cls-7" d="M1214,1515c12.78-6.26,25.47-12.65,37.65-20-22.51-30.26-47.42-80.38-72-138.2-11.81,2.84-23.52,6.59-35.29,9.63C1161.78,1417.91,1184.49,1469.65,1214,1515Z" transform="translate(-200.62 -195.54)"/><path class="cls-8" d="M932.39,1619c-17.4,3.93-36.84,7-54.59,10a166.48,166.48,0,0,1-59.4-.58c0,12.73-.07,25.47-.15,38.21,158.12-5.35,264.62-72.31,314.87-112.69C1047.4,1590.37,949.49,1615.15,932.39,1619Z" transform="translate(-200.62 -195.54)"/><path class="cls-9" d="M1353.91,1680.49c-1.47-14-2.44-27.93-3.22-41.77C1293.8,1614.1,1249.08,1569.09,1214,1515c-8.5,4.17-17,8.29-25.52,12.56-17.09,9.33-35.9,18.16-55.33,26.41-50.25,40.38-156.75,107.34-314.87,112.69,0,4.59-.07,9.19-.09,13.79Z" transform="translate(-200.62 -195.54)"/><path class="cls-10" d="M1109.89,479.18l.18-.41c-18.33-9-43.66-5.46-55.17,12.34l.17.12c-6.81,10.28-4.93,25.85,6.41,31.73,10.51,5.4,25.32,2.7,36.13-.12,5.47-1.41,10.87-3.05,14.57-7.52,4.82-5.93,4.71-13.16,3.94-20.33C1115.53,489.29,1114.3,483.18,1109.89,479.18Z" transform="translate(-200.62 -195.54)"/><path class="cls-10" d="M954.54,494.05l.17-.35c-18.27-9.05-43.54-5.53-55.17,12.22l.24.18c-6.82,10.28-5,25.85,6.34,31.72,10.52,5.47,25.33,2.71,36.14-.11,5.46-1.41,10.87-3,14.57-7.52,4.88-5.94,4.76-13.17,3.94-20.33C960.18,504.22,958.94,498.05,954.54,494.05Z" transform="translate(-200.62 -195.54)"/><path class="cls-10" d="M934,454.68c3.64.47,11.75-.94,10.87-6.4s-8.81-7.41-13.22-8.64c-14.22-4.17-30.85-1.82-42.54,7.64-2.76,2.23-5.93,5.35-7.46,8.64-2.82,6.34,2.41,8.28,6,3.82,2.65-3.35,7.93-4.71,11.87-5.7C912,450.75,921.75,453,934,454.68Z" transform="translate(-200.62 -195.54)"/><path class="cls-10" d="M1116.18,425.19c-12.93-7.7-29.73-7.7-43.25-1.59-4.17,1.88-11.69,4.82-11.81,10.4s8.05,5.82,11.64,4.82c11.93-3.35,21.27-6.94,34.08-5.47,4,.47,9.4,1.06,12.51,3.94,4.18,3.94,9.11,1.29,5.41-4.58C1122.82,429.65,1119.18,427,1116.18,425.19Z" transform="translate(-200.62 -195.54)"/><path class="cls-7" d="M862.89,414.34c3.15-5.91,6.68-11.92,12.18-15.75,6.24-4.36,14.18-5.34,21.27-8.14,13.29-5.24,23.13-16.72,30.79-28.78,6.15-9.69,11.36-20,17.72-29.53a81.37,81.37,0,0,0-9.06,5.67l-.17-.11c-1.35,1.46-2.76,2.93-4.17,4.4-9.52,9.7-18.92,20.92-30.62,28.15-8,4.93-16.74,8.11-25.67,10.81-.06-.06-.06-.06-.12.06-14.51,9.52-21.57,27.14-29.73,41.77a171,171,0,0,1-14.87,22.74c.52,5.78,2.3,11.63,3.76,17.4a102.29,102.29,0,0,0,6.41-8.32C849.36,442.06,855.64,427.91,862.89,414.34Z" transform="translate(-200.62 -195.54)"/><path class="cls-6" d="M1188.16,542.17l-5.76-8.58a2.89,2.89,0,0,1-.65-.05c-1.88-.47-1.93-4.82-2.11-6.23-.94-6.64-1.94-13.16-4.64-19.33-14.16-32.91-4.47-70.4-13.69-104.89-11.93-9.22-26.33-15.92-36.84-28.32-16.93-19.92-24.15-51.47-46.36-66.16l-.3-.18c-11.22,6.06-26.44,6.7-39.37,7.41-1.52.12-3,.17-4.52.29-12.4.82-25.38,1.18-38.19,2.35,0,.06-.06,0-.06,0-17.83,1.72-35.34,5.14-50.82,13.66-6.36,9.52-11.57,19.84-17.72,29.53-7.66,12.06-17.5,23.54-30.79,28.78-7.09,2.8-15,3.78-21.27,8.14-5.5,3.83-9,9.84-12.18,15.75-7.25,13.57-13.53,27.72-22.28,40.37A102.29,102.29,0,0,1,834.2,463c.54,2.14,1,4.28,1.41,6.4,1.77,9.87,1.94,20.62,1.53,30.67-.59,13.52-8.58,25.09-9.28,38.72-.42,8,2.11,15.81,3.35,23.62.64,3.76,1.29,8.52-1.59,11.52-8.4,8.81-19.21-8.46-21.92-14.1-2.76-5.82-5.64-11.63-8.46-17.51-11-6.76-25.21-8.46-32.79,4.29C746.65,580,771.8,621.2,804,636c8.93,4.11,24.56,7.7,34.61,6h.06c23,42.48,68.16,72.27,112.93,88.9,3.58,1.29,7.17,2.53,10.69,3.7a21.15,21.15,0,0,1,3.59-1.88c4.93-2,11.46-1.47,16.57-1.35,12.69.3,25.85,2.94,38.48,5.94l.06-.18c-7.17-18.16-8.81-33.14-28.85-40.72-12.45-4.7-39.25,11.75-44.36-8.46-2.7-10.87,12.34-15,19.33-18.92,6.7-3.76,13.34-7.93,21-9.34,16.57-3.12,36.49,11,48.88,20.8,16.22,12.87,23.27,31.26,29.21,50.18a123.44,123.44,0,0,0,34.43-16.46,189,189,0,0,0,31.49-26.91c10.76-11.28,22-22.79,30.44-36a151.81,151.81,0,0,0,19.21-44.54,209.86,209.86,0,0,0,5.41-35.67C1187.92,561.45,1189.16,551.87,1188.16,542.17ZM881.68,455.92c1.53-3.29,4.7-6.41,7.46-8.64,11.69-9.46,28.32-11.81,42.54-7.64,4.41,1.23,12.28,3.06,13.22,8.64s-7.23,6.87-10.87,6.4c-12.28-1.64-22-3.93-34.49-.64-3.94,1-9.22,2.35-11.87,5.7C884.09,464.2,878.86,462.26,881.68,455.92Zm75.15,74.27c-3.7,4.52-9.11,6.11-14.57,7.52-10.81,2.82-25.62,5.58-36.14.11C894.78,532,893,516.38,899.78,506.1l-.24-.18c11.63-17.75,36.9-21.27,55.17-12.22l-.17.35c4.4,4,5.64,10.17,6.23,15.81C961.59,517,961.71,524.25,956.83,530.19Zm155.35-14.87c-3.7,4.47-9.1,6.11-14.57,7.52-10.81,2.82-25.62,5.52-36.13.12-11.34-5.88-13.22-21.45-6.41-31.73l-.17-.12c11.51-17.8,36.84-21.33,55.17-12.34l-.18.41c4.41,4,5.64,10.11,6.23,15.81C1116.89,502.16,1117,509.39,1112.18,515.32Zm7.17-78c-3.11-2.88-8.52-3.47-12.51-3.94-12.81-1.47-22.15,2.12-34.08,5.47-3.59,1-11.75.76-11.64-4.82s7.64-8.52,11.81-10.4c13.52-6.11,30.32-6.11,43.25,1.59,3,1.82,6.64,4.46,8.58,7.52C1128.46,438.58,1123.53,441.23,1119.35,437.29Z" transform="translate(-200.62 -195.54)"/><path class="cls-6" d="M783.65,570.22a49.06,49.06,0,0,1,8.43,5.58c4.48,3.44,9.29,7.41,10.18,13,.41,2.55-.07,5.16.19,7.72s1.59,5.35,4.08,6q1.32-7.74,2.65-15.47a12.31,12.31,0,0,0,.12-5.33c-.6-2.14-2.3-3.77-3.93-5.28-3.68-3.41-7.37-6.83-11.29-10-3-2.39-6.26-4.67-10-5.33-4.06-.71-11.9,1.85-10.18,7.38A19.13,19.13,0,0,1,783.65,570.22Z" transform="translate(-200.62 -195.54)"/><path class="cls-6" d="M1222.24,519.35c-3.77.66-7,2.95-10,5.34-2.38,1.9-4.66,3.91-6.92,6-2,3.22-4,6.44-5.8,9.74a10.4,10.4,0,0,0-1.78,5.2c0,2.08,1.28,3.91,2.25,5.76a25.45,25.45,0,0,1,2.5,7.3,8.63,8.63,0,0,0,1.38-3.92c.26-2.56-.22-5.17.19-7.72.89-5.57,5.7-9.55,10.17-13a48.37,48.37,0,0,1,8.44-5.58,19,19,0,0,1,9.79-1.71C1234.15,521.2,1226.31,518.64,1222.24,519.35Z" transform="translate(-200.62 -195.54)"/><path class="cls-9" d="M1547.68,1126.39c-6.38-39.45-14.61-80.19-26.42-115.86l-.12.06C1475.46,912.07,1334.36,864.88,1240,841c-26.41-6.69-49.15-11.54-65.12-15.19-11.28,22.79-28.5,42.18-49.12,57.17,21,49.35,44.36,91.78,65.81,129.56,56.7,100,102.18,174,162.64,253.6.94-17.39,2.11-38.37,3.23-58,41,5.17,139.2,3.18,183,1.3,8.87-.36,15.51-.71,19-1.06C1556,1183.4,1552.35,1155.24,1547.68,1126.39Z" transform="translate(-200.62 -195.54)"/><path class="cls-7" d="M792,1244.45c-35.66,6.75-134.14,8.46-182,10.16-.09,6.55-.09,13.06,0,19.48a1025.46,1025.46,0,0,0,182.47-26.65Z" transform="translate(-200.62 -195.54)"/><path class="cls-6" d="M1144.35,1366.48c-4,1-8.11,2-12.19,2.83-67,13.39-136.32,26.91-204.59,32.25-28.79,2.3-80.15,7.29-101.18-17.21-12.81-14.93-14.28-37.14-18.75-55.47-6.52-26.87-10.85-54.12-15.15-81.44A1025.46,1025.46,0,0,1,610,1274.09c.22,21.31,1.23,41.48,2.31,58,2.88,41.66,10.34,84.09,24.27,123.57,27.85,79,97.42,156.88,181.8,172.87a166.48,166.48,0,0,0,59.4.58c17.75-3,37.19-6.11,54.59-10,21-4.76,163.58-41,256.06-91.43,8.48-4.27,17-8.39,25.52-12.56C1184.49,1469.65,1161.78,1417.91,1144.35,1366.48Z" transform="translate(-200.62 -195.54)"/><path class="cls-7" d="M1412.88,1211.17c-22-.4-41.87-1.33-55.44-3-1.12,19.63-2.29,40.61-3.23,58l-1.6-2.13a852.43,852.43,0,0,0,75.11,115.27A436.27,436.27,0,0,1,1412.88,1211.17Z" transform="translate(-200.62 -195.54)"/><path class="cls-6" d="M1412.88,1211.17a436.27,436.27,0,0,0,14.84,168.1A852.43,852.43,0,0,1,1352.61,1264c-59.66-78.75-104.85-152.42-161-251.47-21.45-37.78-44.84-80.21-65.81-129.56-7.58-17.86-14.87-36.61-21.57-56.41l-.35.12c-6-16.63-13.75-32.73-20.8-49-3.7-8.57-7.23-17.27-10.22-26.08-2.29-6.88-4.35-13.93-6.58-20.86a109.33,109.33,0,0,1-22.21,4.34l-13.64,4.53c-3.11-.76-6.28-1.53-9.46-2.23-12.63-3-25.79-5.64-38.48-5.94-5.11-.12-11.64-.64-16.57,1.35a21.15,21.15,0,0,0-3.59,1.88,38.8,38.8,0,0,0-10.45,10.11c0,.06-.06.06-.06.12-2.24,3.11-4.29,6.34-6.35,9.57-8.11,12.7-23.15,34.2-10.22,48.3a23.08,23.08,0,0,0,1.94,1.71c-2.41,4.58-3.82,9.58-3.24,14.33a15.71,15.71,0,0,0,3.41,7.88c1.18,1.47,2.18,2.94,3.41,4.29-.29,3.17-.41,6.34-.59,9.52-.53,11.22-5.11,27,6.64,34.25,8.29,5.11,23.68,13.63,34.08,11.46,6.76-1.41,8.7-7.4,7.29-13l.47-.12c4.23,15.51,9.22,30.79,16.33,44.65,8.46,16.57,19.92,31.15,36.78,41.55,6.94,26.67,71.16,240.55,137.91,397.61,24.56,57.82,49.47,107.94,72,138.2,2.29,3,4.52,5.87,6.75,8.52,24.27,28.85,56.12,52.41,90.43,63.28,36.73,11.63,76.27,8.7,112.23-18.1a111.31,111.31,0,0,0,28.56-31.84c25.2-42.54,32.43-95.6,38.37-143.61,4.81-38.6,11.39-119.34,12.45-163.87C1511.12,1210.68,1457.47,1212,1412.88,1211.17Z" transform="translate(-200.62 -195.54)"/><path class="cls-11" d="M896.25,512.15c9.42-23.16,38.35-28.48,58.64-18.42" transform="translate(-200.62 -195.54)"/><path class="cls-11" d="M1051.6,497.27c9.41-23.15,38.35-28.47,58.63-18.41" transform="translate(-200.62 -195.54)"/><path class="cls-12" d="M991,574.34c12.33,11.92,32.82,11.41,42.7-3.08" transform="translate(-200.62 -195.54)"/><path class="cls-12" d="M976.5,625.4c7-3.62,14.27-5.41,21.82-7.32a134.06,134.06,0,0,1,62.57-.59" transform="translate(-200.62 -195.54)"/><path class="cls-13" d="M1160.88,402.8c8.82,6.76,16.36,14.86,20.11,27.6" transform="translate(-200.62 -195.54)"/><path class="cls-13" d="M1173,352.42c18.5,16,31.37,44.71,34.21,68.74" transform="translate(-200.62 -195.54)"/><path class="cls-13" d="M941.38,331.45c5.11-5.68,10.11-11.43,15.29-17.06,17-18.43,41.06-36.75,66.53-40.05,23.16-3,49.87,8.47,55.54,32.72" transform="translate(-200.62 -195.54)"/><path class="cls-13" d="M818.25,404.62c13.48-11.77,30.16-16.18,46.74-20.72" transform="translate(-200.62 -195.54)"/><path class="cls-13" d="M1038.6,312.65c-6.19-12.91-21.46-31.26-37.42-31.82" transform="translate(-200.62 -195.54)"/><path class="cls-13" d="M1001.86,314.71c-9-7.76-26.9-10.35-38.87-6.9" transform="translate(-200.62 -195.54)"/><path class="cls-13" d="M790.71,476.54c14.74-5.26,26.7-15.14,36.6-27" transform="translate(-200.62 -195.54)"/><path class="cls-12" d="M1231.15,527.13c-9.92-9.75-24.2,5.52-29.29,13.22-1.5,2.27-3.93,5.14-4.1,7.93-.33,5.11,5.75,9.85,5.87,15.75.11,4.62-2.4,8.57-5.07,12.25" transform="translate(-200.62 -195.54)"/><path class="cls-14" d="M762.21,1052.3c3.86,45.68,11.9,91.41,20.48,136.45,3.59,18.86,6.53,37.83,9.5,56.8" transform="translate(-200.62 -195.54)"/><path class="cls-12" d="M773.75,568.72c8.08-11.18,24.83,1.65,31.19,8.43,1.88,2,4.78,4.46,5.43,7.18,1.22,5-4,10.62-3,16.46.71,4.57,3.87,8.07,7.14,11.28" transform="translate(-200.62 -195.54)"/><path class="cls-12" d="M1030.42,739.58c-15.4-3.67-32.11-7.78-48-8.13-5.14-.11-11.67-.65-16.57,1.35-5.84,2.38-10.45,7.11-14.11,12.09-2.27,3.09-4.32,6.35-6.38,9.59-8.06,12.7-23.14,34.21-10.18,48.29a10.21,10.21,0,0,0,1.47,1.29" transform="translate(-200.62 -195.54)"/><path class="cls-12" d="M1018.21,777.18c-27.09-4.86-50.18-3.06-71.44,15.29-8.72,7.52-18.33,23.08-9.44,34.23,1.06,1.33,1.94,2.65,3,3.85" transform="translate(-200.62 -195.54)"/><path class="cls-12" d="M1002.81,803c-16.09.93-37.09-3.61-51.3,6.09-4.14,2.83-6.9,7.35-8.62,12-2.34,6.33-2.41,12.8-2.73,19.43-.53,11.18-5.14,27,6.61,34.23,8.32,5.13,23.67,13.63,34.07,11.46,8.91-1.87,9.5-11.5,5.11-18.05-4.5-6.71-11.94-8.54-18.67-11.91" transform="translate(-200.62 -195.54)"/><path class="cls-12" d="M976.49,859.61a37.18,37.18,0,0,0-4.26-14.84" transform="translate(-200.62 -195.54)"/><path class="cls-12" d="M978.22,858.49c3-3.19,6.08-6.07,8.35-9.88" transform="translate(-200.62 -195.54)"/><path class="cls-12" d="M988.64,873c4.13,15,8.94,29.9,15.7,43.47" transform="translate(-200.62 -195.54)"/><path class="cls-12" d="M1125.37,882.11c-8.18-19.33-21.51-55.45-21.51-55.45-9.31-25.38-22.37-49.51-31-75.07s-13.57-53.39-35.82-71c-12.39-9.81-32.27-23.91-48.86-20.81-7.67,1.44-14.32,5.59-21.06,9.34-7,3.89-22,8.08-19.29,18.92,5.1,20.21,31.89,3.77,44.33,8.47,20,7.56,21.69,22.53,28.88,40.68" transform="translate(-200.62 -195.54)"/><path class="cls-14" d="M1372.35,993.67c-5.32,57.31-8.42,114.56-12.33,171.93-.78,11.52-1.69,26.76-2.61,42.92" transform="translate(-200.62 -195.54)"/><path class="cls-15" d="M1517.28,1637.2c-42.75-2.64-88.21-9-130.94-3.6-55,7-107.41,26.83-162.72,32.11-121.08,11.58-244.15,6.57-365.13-4-33.12-2.87-66.62-.51-99.62-3.57-63.33-5.85-126.2-16.26-189.87-18.55-15.9-.57-87.88,1.08-84.81,28.5,2.64,23.66,44.38,26.63,61.88,28.11,63.23,5.33,131.2-.4,192.08,20.6,24.25,8.38,23,26.86,38.17,44.16,15.4,17.6,37.5,28.29,60,34,94.13,23.76,179.12-2.51,271.11-20.09,51.61-9.86,104.36-12.54,156.78-14.45a838.73,838.73,0,0,1,105.51,3c42.77,3.85,87.65,16.16,130,2.32,50.13-16.39-6.26-55.25-25.51-69.83-5.46-4.16-17.11-13.43-13.43-21.6,5.49-12.17,23.74-10.92,34.67-9.66,25,2.88,66.2,16.71,89.11.11,17.59-12.72-25.51-20.66-29.69-21.48C1542.88,1641,1517.28,1637.2,1517.28,1637.2Z" transform="translate(-200.62 -195.54)"/><path class="cls-15" d="M1628.34,1692.2c-8.88-2.83-18.49-4.08-27.66-5.6-15.72-2.63-31.7-5.31-47.69-4.75-1.79.05-3.57.21-5.34.36-5.24.46-21.88,2.43-14.81,11.51a17.14,17.14,0,0,0,2.6,2.58,27.23,27.23,0,0,0,5.51,3.54c8.22,4,17.47,6.16,26.24,8.55,17.66,4.82,36.25,8.37,54.61,8.42,6.1,0,14-.22,19.37-3.53,7.58-4.65,4.28-13.68-1.26-16.48C1637.21,1695.41,1628.34,1692.2,1628.34,1692.2Z" transform="translate(-200.62 -195.54)"/><path class="cls-15" d="M690,1731.08c-10.75-1.28-21.59-.8-32.33.13-6.23.53-14.7.87-20.24,4.22-5.27,3.17-2.92,9.41,1.12,12.59,6.77,5.29,17.49,7.21,25.88,8.12,13,1.41,28.86,2.72,41.56-1.44,8.31-2.71,18.75-9.38,8.57-15.88-7.1-4.52-14.63-5.42-24.57-7.7Z" transform="translate(-200.62 -195.54)"/></g></svg>