<svg id="OBJECTS" xmlns="http://www.w3.org/2000/svg" xmlns:xlink="http://www.w3.org/1999/xlink" viewBox="0 0 459.39 451.32"><defs><style>.cls-1{fill:#00a2fa;}.cls-2{fill:#ff4d41;}.cls-3{fill:#e8332e;}.cls-4{fill:#fff;}.cls-5{fill:#3660a3;}.cls-6{fill:#224d8c;}.cls-7{fill:#ffc348;}.cls-8{fill:#eaaa39;}.cls-9{fill:#ffebc7;}.cls-10{fill:#e5322e;}.cls-11{fill:#00b0f3;}.cls-12{fill:#1353a0;}.cls-13{fill:url(#linear-gradient);}.cls-14{fill:#755926;}.cls-15{fill:#4f3912;}.cls-16{fill:#e9ba9c;}.cls-17{fill:#471544;}.cls-18{opacity:0.1;}.cls-19{fill:#e2f1fd;}.cls-20{fill:#ffa031;}.cls-21{fill:#ffbe45;}.cls-22{fill:#ffcf83;}.cls-23{fill:#f2f2f2;}.cls-24{fill:#d7edf9;}.cls-25{fill:#1f8ddf;}</style><linearGradient id="linear-gradient" x1="381.36" y1="128.3" x2="381.36" y2="61.9" gradientTransform="translate(2.28 -9.21)" gradientUnits="userSpaceOnUse"><stop offset="0" stop-color="#ffd38b"/><stop offset="0.48" stop-color="#e248a7"/><stop offset="1" stop-color="#7461c7"/></linearGradient></defs><title>traffic-concept-two</title><path class="cls-1" d="M382.06,386.69a16.71,16.71,0,1,1,11.88,4.71A16.61,16.61,0,0,1,382.06,386.69Zm18.62-19.2a10,10,0,1,0,3.05,7.06A10,10,0,0,0,400.68,367.49Z" transform="translate(-25.14 -39.15)"/><path class="cls-1" d="M363.8,406.65h0a3.45,3.45,0,0,1-.16-4.89l17.78-19a3.45,3.45,0,0,1,4.88-.17h0a3.46,3.46,0,0,1,.17,4.89l-17.79,19A3.46,3.46,0,0,1,363.8,406.65Z" transform="translate(-25.14 -39.15)"/><path class="cls-1" d="M140,267.36h0a4.48,4.48,0,0,0-6.09,1.79l-11.49,21-8-4.39a4.48,4.48,0,0,0-6.09,1.79h0a4.48,4.48,0,0,0,1.79,6.09l15.82,8.64h0l.1.06,15.79-28.91A4.48,4.48,0,0,0,140,267.36Z" transform="translate(-25.14 -39.15)"/><circle class="cls-2" cx="409.53" cy="193.11" r="18.58" transform="translate(70.22 480.02) rotate(-71.31)"/><rect class="cls-3" x="401.73" y="192.41" width="3.99" height="11.97" transform="translate(-70.12 127.28) rotate(-22.1)"/><path class="cls-3" d="M406,191.8h0a30.79,30.79,0,0,1,1.22-5.13c.59-1.4-.14-3.76-.33-4.35a.15.15,0,0,1,.08-.19h0a2.11,2.11,0,0,1,2.75,1.16l1.78,4.4,3.86-1.57a2.5,2.5,0,0,1,3.24,1.37l3,7.43a2.48,2.48,0,0,1-1.36,3.24l-10,4.06a1,1,0,0,1-1.33-.56l-3.47-8.53A1,1,0,0,1,406,191.8Z" transform="translate(-25.14 -39.15)"/><rect class="cls-4" x="400.74" y="191.46" width="3.99" height="11.97" transform="translate(-69.83 126.84) rotate(-22.1)"/><path class="cls-4" d="M405,190.85h0a30.38,30.38,0,0,1,1.23-5.14c.58-1.39-.14-3.76-.34-4.34a.14.14,0,0,1,.09-.19h0a2.1,2.1,0,0,1,2.74,1.16l1.78,4.4,3.86-1.57a2.48,2.48,0,0,1,3.24,1.36l3,7.44a2.48,2.48,0,0,1-1.37,3.23l-10,4.07a1,1,0,0,1-1.33-.56l-3.46-8.53A1,1,0,0,1,405,190.85Z" transform="translate(-25.14 -39.15)"/><circle class="cls-5" cx="200.23" cy="140.76" r="12.07" transform="translate(25.67 295.48) rotate(-87.48)"/><rect class="cls-6" x="194.41" y="134.53" width="2.59" height="7.77" transform="matrix(0.67, 0.74, -0.74, 0.67, 140.7, -138.57)"/><path class="cls-6" d="M200.23,138.29h0a19.92,19.92,0,0,1,3.4-.41,4.86,4.86,0,0,0,2.57-1.19.12.12,0,0,1,.14,0h0a1.38,1.38,0,0,1-.09,1.94L204,140.72l1.83,2a1.62,1.62,0,0,1-.1,2.28l-3.85,3.52a1.62,1.62,0,0,1-2.28-.1l-4.74-5.19a.66.66,0,0,1,0-.94l4.42-4A.66.66,0,0,1,200.23,138.29Z" transform="translate(-25.14 -39.15)"/><rect class="cls-4" x="194.77" y="133.71" width="2.59" height="7.77" transform="matrix(0.67, 0.74, -0.74, 0.67, 140.22, -139.1)"/><path class="cls-4" d="M200.58,137.47h0a20.08,20.08,0,0,1,3.41-.41,4.86,4.86,0,0,0,2.57-1.18.09.09,0,0,1,.13,0h0a1.37,1.37,0,0,1-.08,1.93l-2.28,2.08,1.83,2a1.6,1.6,0,0,1-.11,2.27l-3.84,3.52a1.61,1.61,0,0,1-2.28-.1l-4.74-5.19a.65.65,0,0,1,0-.93l4.41-4A.66.66,0,0,1,200.58,137.47Z" transform="translate(-25.14 -39.15)"/><path class="cls-5" d="M89.25,382.58a12.06,12.06,0,1,1-17,.59A12.05,12.05,0,0,1,89.25,382.58Z" transform="translate(-25.14 -39.15)"/><rect class="cls-6" x="77.75" y="392.21" width="2.59" height="7.77" transform="translate(-289.63 144.52) rotate(-46.98)"/><path class="cls-6" d="M78.56,391.6h0a19,19,0,0,1-.68-3.36,4.88,4.88,0,0,0-1.39-2.46.1.1,0,0,1,0-.14h0a1.37,1.37,0,0,1,1.93-.07l2.26,2.11,1.84-2a1.61,1.61,0,0,1,2.28-.08l3.81,3.56a1.6,1.6,0,0,1,.08,2.27l-4.79,5.14a.66.66,0,0,1-.94,0l-4.37-4.08A.66.66,0,0,1,78.56,391.6Z" transform="translate(-25.14 -39.15)"/><rect class="cls-4" x="76.9" y="391.92" width="2.59" height="7.77" transform="translate(-289.69 143.81) rotate(-46.98)"/><path class="cls-4" d="M77.71,391.31h0A20,20,0,0,1,77,388a5,5,0,0,0-1.38-2.47.09.09,0,0,1,0-.13h0a1.37,1.37,0,0,1,1.93-.07l2.25,2.11,1.85-2a1.61,1.61,0,0,1,2.28-.08l3.81,3.55a1.61,1.61,0,0,1,.08,2.28l-4.79,5.14a.66.66,0,0,1-.94,0l-4.37-4.08A.66.66,0,0,1,77.71,391.31Z" transform="translate(-25.14 -39.15)"/><path class="cls-5" d="M475.47,325.41a10.29,10.29,0,1,1-5.5-13.48A10.28,10.28,0,0,1,475.47,325.41Z" transform="translate(-25.14 -39.15)"/><rect class="cls-6" x="460.53" y="317.9" width="2.21" height="6.63" transform="translate(135.52 -193.01) rotate(22.81)"/><path class="cls-6" d="M465.09,319.51h0a16.64,16.64,0,0,1,2.49-1.54,4.15,4.15,0,0,0,1.57-1.84.08.08,0,0,1,.11,0h0a1.17,1.17,0,0,1,.62,1.53l-1,2.43,2.13.89a1.38,1.38,0,0,1,.74,1.8l-1.73,4.1a1.38,1.38,0,0,1-1.8.74l-5.53-2.33a.56.56,0,0,1-.3-.74l2-4.7A.55.55,0,0,1,465.09,319.51Z" transform="translate(-25.14 -39.15)"/><rect class="cls-4" x="460.51" y="317.14" width="2.21" height="6.63" transform="translate(135.22 -193.06) rotate(22.81)"/><path class="cls-4" d="M465.08,318.75h0a16.64,16.64,0,0,1,2.49-1.54,4.28,4.28,0,0,0,1.57-1.84.07.07,0,0,1,.1,0h0a1.17,1.17,0,0,1,.63,1.53l-1,2.43,2.13.89a1.37,1.37,0,0,1,.73,1.8l-1.72,4.1a1.39,1.39,0,0,1-1.81.74l-5.52-2.33a.55.55,0,0,1-.3-.74l2-4.7A.57.57,0,0,1,465.08,318.75Z" transform="translate(-25.14 -39.15)"/><path class="cls-2" d="M73.84,98.25a12.79,12.79,0,1,1-8.46-16A12.8,12.8,0,0,1,73.84,98.25Z" transform="translate(-25.14 -39.15)"/><rect class="cls-3" x="54.85" y="90.66" width="2.74" height="8.23" transform="translate(5.19 -51.49) rotate(17.09)"/><path class="cls-3" d="M60.28,92.23h0A21.78,21.78,0,0,1,63.17,90a5.2,5.2,0,0,0,1.71-2.47A.11.11,0,0,1,65,87.5h0a1.46,1.46,0,0,1,1,1.81l-1,3.12,2.74.85a1.7,1.7,0,0,1,1.13,2.13l-1.62,5.28a1.71,1.71,0,0,1-2.14,1.13L58,99.63a.71.71,0,0,1-.47-.88l1.86-6A.71.71,0,0,1,60.28,92.23Z" transform="translate(-25.14 -39.15)"/><rect class="cls-4" x="54.74" y="89.72" width="2.74" height="8.23" transform="matrix(0.96, 0.29, -0.29, 0.96, 4.91, -51.49)"/><path class="cls-4" d="M60.17,91.3h0a20.89,20.89,0,0,1,2.89-2.21,5.18,5.18,0,0,0,1.71-2.46.11.11,0,0,1,.13-.07h0a1.47,1.47,0,0,1,1,1.82l-1,3.12,2.74.84a1.71,1.71,0,0,1,1.13,2.13l-1.63,5.28A1.7,1.7,0,0,1,65,100.88L57.9,98.7a.71.71,0,0,1-.47-.88l1.86-6.06A.7.7,0,0,1,60.17,91.3Z" transform="translate(-25.14 -39.15)"/><circle class="cls-2" cx="433.65" cy="442.46" r="12.78" transform="translate(-200.49 289.57) rotate(-35)"/><rect class="cls-3" x="428.84" y="442.5" width="2.74" height="8.23" transform="translate(-191.48 238.12) rotate(-30.22)"/><path class="cls-3" d="M431.09,441.91h0a20.74,20.74,0,0,1,.34-3.62,5.22,5.22,0,0,0-.65-2.92.1.1,0,0,1,0-.14h0a1.45,1.45,0,0,1,2,.52l1.64,2.82,2.48-1.44a1.7,1.7,0,0,1,2.33.62l2.78,4.77a1.7,1.7,0,0,1-.61,2.33L435,448.6a.71.71,0,0,1-1-.25l-3.19-5.48A.7.7,0,0,1,431.09,441.91Z" transform="translate(-25.14 -39.15)"/><rect class="cls-4" x="428.07" y="441.95" width="2.74" height="8.23" transform="translate(-191.31 237.67) rotate(-30.22)"/><path class="cls-4" d="M430.33,441.36h0a21.45,21.45,0,0,1,.33-3.62,5.16,5.16,0,0,0-.65-2.93.09.09,0,0,1,0-.13h0a1.44,1.44,0,0,1,2,.52l1.65,2.82,2.47-1.44a1.71,1.71,0,0,1,2.34.61l2.78,4.78a1.7,1.7,0,0,1-.62,2.33l-6.43,3.75a.71.71,0,0,1-1-.26l-3.19-5.47A.7.7,0,0,1,430.33,441.36Z" transform="translate(-25.14 -39.15)"/><ellipse class="cls-7" cx="142.3" cy="179.11" rx="30.77" ry="20.23" transform="translate(-65.43 2.16) rotate(-14.49)"/><polygon class="cls-7" points="102.44 156.09 97.8 180.92 116.17 156.56 102.44 156.09"/><path class="cls-8" d="M134.64,181.63a5.2,5.2,0,1,1-6.33-3.74A5.19,5.19,0,0,1,134.64,181.63Z" transform="translate(-25.14 -39.15)"/><path class="cls-8" d="M148.68,178a5.2,5.2,0,1,1-6.34-3.73A5.19,5.19,0,0,1,148.68,178Z" transform="translate(-25.14 -39.15)"/><path class="cls-8" d="M162.71,174.37a5.2,5.2,0,1,1-6.33-3.73A5.2,5.2,0,0,1,162.71,174.37Z" transform="translate(-25.14 -39.15)"/><path class="cls-9" d="M134,181.25a5.2,5.2,0,1,1-6.33-3.73A5.2,5.2,0,0,1,134,181.25Z" transform="translate(-25.14 -39.15)"/><path class="cls-9" d="M148.05,177.62a5.2,5.2,0,1,1-6.34-3.73A5.22,5.22,0,0,1,148.05,177.62Z" transform="translate(-25.14 -39.15)"/><path class="cls-9" d="M162.08,174a5.2,5.2,0,1,1-6.34-3.74A5.19,5.19,0,0,1,162.08,174Z" transform="translate(-25.14 -39.15)"/><ellipse class="cls-7" cx="464.24" cy="380.7" rx="15.91" ry="24.21" transform="translate(-159.57 386.73) rotate(-43.67)"/><polygon class="cls-7" points="422.37 337.62 403.53 343.96 427.31 347.24 422.37 337.62"/><path class="cls-8" d="M459.57,376.4a4.09,4.09,0,1,1,.14-5.78A4.09,4.09,0,0,1,459.57,376.4Z" transform="translate(-25.14 -39.15)"/><path class="cls-8" d="M467.45,384.65a4.09,4.09,0,1,1,.13-5.78A4.1,4.1,0,0,1,467.45,384.65Z" transform="translate(-25.14 -39.15)"/><path class="cls-8" d="M475.32,392.9a4.09,4.09,0,1,1,.14-5.78A4.09,4.09,0,0,1,475.32,392.9Z" transform="translate(-25.14 -39.15)"/><path class="cls-9" d="M459.59,375.82a4.09,4.09,0,1,1,.13-5.78A4.1,4.1,0,0,1,459.59,375.82Z" transform="translate(-25.14 -39.15)"/><path class="cls-9" d="M467.46,384.07a4.09,4.09,0,1,1,.14-5.78A4.09,4.09,0,0,1,467.46,384.07Z" transform="translate(-25.14 -39.15)"/><path class="cls-9" d="M475.34,392.32a4.09,4.09,0,1,1,.13-5.78A4.1,4.1,0,0,1,475.34,392.32Z" transform="translate(-25.14 -39.15)"/><path class="cls-2" d="M300.82,45.88a13.24,13.24,0,1,1-18-5A13.23,13.23,0,0,1,300.82,45.88Z" transform="translate(-25.14 -39.15)"/><path class="cls-10" d="M295.72,47.35c-1.74-2.74-5.08-2.92-6.73-1a4.26,4.26,0,0,0-1.12,2.75,4.36,4.36,0,0,0-2.95-.42c-2.49.44-4,3.41-2.55,6.3,1.39,2.69,5.84,3.63,10.32,4.11a1.33,1.33,0,0,0,1.35-.77C295.89,54.22,297.34,49.91,295.72,47.35Z" transform="translate(-25.14 -39.15)"/><path class="cls-4" d="M295.13,47.09c-1.73-2.74-5.08-2.92-6.72-1a4.34,4.34,0,0,0-1.13,2.75,4.34,4.34,0,0,0-2.94-.42c-2.5.44-4,3.41-2.55,6.3,1.39,2.69,5.83,3.63,10.31,4.11a1.32,1.32,0,0,0,1.35-.77C295.31,54,296.75,49.65,295.13,47.09Z" transform="translate(-25.14 -39.15)"/><circle class="cls-2" cx="122.94" cy="243.44" r="9.87" transform="translate(-156.48 302.89) rotate(-84.4)"/><path class="cls-10" d="M128.88,244.79c.77-2.3-.7-4.32-2.59-4.36a3.26,3.26,0,0,0-2.13.64,3.18,3.18,0,0,0-1.14-1.9c-1.43-1.24-3.87-.73-4.84,1.49-.91,2.07.64,5.08,2.47,7.9a1,1,0,0,0,1.09.42C125,248.12,128.16,246.93,128.88,244.79Z" transform="translate(-25.14 -39.15)"/><path class="cls-4" d="M128.75,244.33a3.12,3.12,0,0,0-2.59-4.36,3.22,3.22,0,0,0-2.12.64,3.18,3.18,0,0,0-1.14-1.9,3.13,3.13,0,0,0-4.85,1.49c-.9,2.07.65,5.08,2.48,7.9a1,1,0,0,0,1.08.42C124.86,247.66,128,246.47,128.75,244.33Z" transform="translate(-25.14 -39.15)"/><circle class="cls-2" cx="342.32" cy="418.24" r="8.68" transform="translate(-79.11 11.58) rotate(-7.86)"/><path class="cls-10" d="M347.24,416.14a2.72,2.72,0,0,0-5.27-.22,2.84,2.84,0,0,0-1.8-.76,2.74,2.74,0,0,0-2.68,3.55c.42,1.94,3.08,3.29,5.83,4.35a.87.87,0,0,0,1-.26C346.18,420.52,347.83,418,347.24,416.14Z" transform="translate(-25.14 -39.15)"/><path class="cls-4" d="M346.91,415.87a2.74,2.74,0,0,0-4.09-1.76,2.8,2.8,0,0,0-1.18,1.55,2.78,2.78,0,0,0-1.79-.77,2.75,2.75,0,0,0-2.69,3.56c.43,1.94,3.08,3.29,5.84,4.35a.87.87,0,0,0,1-.26C345.86,420.26,347.5,417.77,346.91,415.87Z" transform="translate(-25.14 -39.15)"/><circle class="cls-2" cx="334.6" cy="148.11" r="8.68" transform="translate(160.84 443.34) rotate(-89.91)"/><path class="cls-10" d="M339.92,148.68a2.76,2.76,0,0,0-2.71-3.54,2.88,2.88,0,0,0-1.79.78,2.81,2.81,0,0,0-1.19-1.54,2.74,2.74,0,0,0-4.08,1.79c-.58,1.9,1.08,4.38,3,6.65a.87.87,0,0,0,1,.25C336.86,152,339.51,150.63,339.92,148.68Z" transform="translate(-25.14 -39.15)"/><path class="cls-4" d="M339.76,148.29a2.75,2.75,0,0,0-2.71-3.54,2.84,2.84,0,0,0-1.78.78,2.81,2.81,0,0,0-1.19-1.54,2.74,2.74,0,0,0-4.08,1.79c-.58,1.9,1.08,4.38,3,6.65a.87.87,0,0,0,1,.25C336.7,151.6,339.35,150.24,339.76,148.29Z" transform="translate(-25.14 -39.15)"/><rect class="cls-11" x="107.6" y="52.8" width="69.39" height="69.39" rx="9.37" transform="translate(-43.49 2.57) rotate(-15.68)"/><path class="cls-4" d="M119,93.78s7.84,4.4,13.73-2.2,3.14-14.64,9.14-20.85c7.58-7.84,20.53.86,15.14,16.44C150.17,107,132.06,109.42,119,93.78Z" transform="translate(-25.14 -39.15)"/><path class="cls-4" d="M154.44,75.46l7.85-2.2c.91-.26,1.59.54,1,1.21l-6,7.14Z" transform="translate(-25.14 -39.15)"/><path class="cls-4" d="M142.64,80.17s-11.06,2.61-18.86.83A1.56,1.56,0,0,0,122,83.17a16.38,16.38,0,0,0,12,9.59C144.68,94.7,142.64,80.17,142.64,80.17Z" transform="translate(-25.14 -39.15)"/><rect class="cls-12" x="366.59" y="249.63" width="62.86" height="62.86" rx="8.49" transform="translate(-99.71 123.28) rotate(-21.14)"/><path class="cls-4" d="M418.75,306.75l-6.89,2.66-14.57-37.68a10.57,10.57,0,0,1,6-13.65l6.56-2.54,2.66,6.89L406,265a3.18,3.18,0,0,0-1.82,4.1Z" transform="translate(-25.14 -39.15)"/><rect class="cls-4" x="391.9" y="276.9" width="26.34" height="7.38" transform="translate(-99.07 125.79) rotate(-21.14)"/><rect class="cls-13" x="350.45" y="52.7" width="66.4" height="66.4" rx="8.96" transform="translate(-6.16 -100.16) rotate(9.32)"/><path class="cls-4" d="M391.69,110l-23.4-3.84a9.87,9.87,0,0,1-8.13-11.33L364,71.43a9.87,9.87,0,0,1,11.33-8.13l23.39,3.84a9.87,9.87,0,0,1,8.13,11.33L403,101.86A9.87,9.87,0,0,1,391.69,110ZM374.47,68.54a4.56,4.56,0,0,0-5.23,3.75L365.4,95.68a4.56,4.56,0,0,0,3.75,5.23l23.4,3.84a4.55,4.55,0,0,0,5.22-3.75l3.84-23.39a4.55,4.55,0,0,0-3.75-5.23Z" transform="translate(-25.14 -39.15)"/><path class="cls-4" d="M381.78,97.16A10.66,10.66,0,1,1,394,88.37,10.66,10.66,0,0,1,381.78,97.16Zm2.59-15.79a5.35,5.35,0,1,0,4.41,6.14A5.36,5.36,0,0,0,384.37,81.37Z" transform="translate(-25.14 -39.15)"/><path class="cls-4" d="M398,77.82a2.43,2.43,0,1,1-2-2.8A2.43,2.43,0,0,1,398,77.82Z" transform="translate(-25.14 -39.15)"/><rect class="cls-2" x="35.1" y="288.15" width="67.48" height="67.48" rx="9.11" transform="translate(-210.19 73.24) rotate(-38.4)"/><path class="cls-4" d="M48.66,312.34l30.59-3.57c2.69-.31,5.66,3.43,4.74,6l-10.46,29c-.75,2.06-3.61,1.78-5.45-.54L47.94,317.77C46.1,315.44,46.48,312.59,48.66,312.34Z" transform="translate(-25.14 -39.15)"/><circle class="cls-7" cx="263.54" cy="113.58" r="20.64" transform="translate(7.22 244.46) rotate(-59.65)"/><path class="cls-2" d="M260.94,108.16c-.68-2.6-3.27-3.58-5.05-2.47a3.55,3.55,0,0,0-1.58,1.88,3.61,3.61,0,0,0-2.21-1.07c-2.08-.28-4,1.68-3.6,4.33.41,2.47,3.68,4.33,7.09,5.83a1.1,1.1,0,0,0,1.26-.27C259.35,113.63,261.57,110.59,260.94,108.16Z" transform="translate(-25.14 -39.15)"/><path class="cls-2" d="M276.15,105c-.67-2.6-3.27-3.58-5-2.47a3.57,3.57,0,0,0-1.58,1.88,3.52,3.52,0,0,0-2.21-1.07c-2.08-.28-4,1.67-3.6,4.32.42,2.47,3.69,4.33,7.1,5.84a1.11,1.11,0,0,0,1.26-.27C274.56,110.46,276.79,107.43,276.15,105Z" transform="translate(-25.14 -39.15)"/><path class="cls-14" d="M254.78,121.11A10.11,10.11,0,0,0,274.57,117Z" transform="translate(-25.14 -39.15)"/><circle class="cls-7" cx="48.83" cy="170.1" r="16.42" transform="translate(-139.56 62.63) rotate(-51.27)"/><path class="cls-15" d="M47.69,167.8a.41.41,0,0,1-.11-.57,4.35,4.35,0,0,0-7.22-4.84.42.42,0,0,1-.57.12.42.42,0,0,1-.11-.57,5.16,5.16,0,1,1,8.57,5.75A.41.41,0,0,1,47.69,167.8Z" transform="translate(-25.14 -39.15)"/><path class="cls-15" d="M58.94,175.34a.39.39,0,0,1-.11-.56,4.35,4.35,0,1,0-7.22-4.84.39.39,0,0,1-.56.11.42.42,0,0,1-.12-.57,5.16,5.16,0,0,1,8.58,5.75A.41.41,0,0,1,58.94,175.34Z" transform="translate(-25.14 -39.15)"/><path class="cls-15" d="M42.79,170.58a.4.4,0,0,1,.11.57A4.34,4.34,0,0,0,50.12,176a.41.41,0,0,1,.56-.11.41.41,0,0,1,.11.57,5.16,5.16,0,0,1-8.57-5.75A.41.41,0,0,1,42.79,170.58Z" transform="translate(-25.14 -39.15)"/><path class="cls-7" d="M472.85,222.47A19.41,19.41,0,1,1,447.91,211,19.41,19.41,0,0,1,472.85,222.47Z" transform="translate(-25.14 -39.15)"/><path class="cls-14" d="M447.56,237.43a9.51,9.51,0,0,0,17.83-6.59Z" transform="translate(-25.14 -39.15)"/><path class="cls-15" d="M451.65,228.71a.48.48,0,0,1-.62-.29A5.14,5.14,0,1,0,441.4,232a.48.48,0,0,1-.28.62.5.5,0,0,1-.63-.29,6.1,6.1,0,1,1,11.45-4.23A.49.49,0,0,1,451.65,228.71Z" transform="translate(-25.14 -39.15)"/><path class="cls-15" d="M466.67,223.15a.47.47,0,0,1-.62-.28,5.13,5.13,0,1,0-9.63,3.56.49.49,0,0,1-.91.34A6.1,6.1,0,0,1,467,222.53.49.49,0,0,1,466.67,223.15Z" transform="translate(-25.14 -39.15)"/><path class="cls-11" d="M441.58,234.58s-9.07,9.27-4.53,11.12C441.94,247.7,441.58,234.58,441.58,234.58Z" transform="translate(-25.14 -39.15)"/><path class="cls-11" d="M438.18,231.71s-15.33-5.35-15,.77C423.51,239.09,438.18,231.71,438.18,231.71Z" transform="translate(-25.14 -39.15)"/><path class="cls-11" d="M437.47,226s-7.14-10.83-9.91-6.79C424.57,223.57,437.47,226,437.47,226Z" transform="translate(-25.14 -39.15)"/><path class="cls-11" d="M468.47,224.63s12.93,1.13,10.69,5.49C476.74,234.82,468.47,224.63,468.47,224.63Z" transform="translate(-25.14 -39.15)"/><path class="cls-11" d="M469.19,220.23s8.16-14,11.9-9.18C485.13,216.28,469.19,220.23,469.19,220.23Z" transform="translate(-25.14 -39.15)"/><path class="cls-11" d="M466,215.44s-1.63-12.88,3.11-11.61C474.22,205.2,466,215.44,466,215.44Z" transform="translate(-25.14 -39.15)"/><circle class="cls-7" cx="295.84" cy="429.67" r="16.43" transform="translate(-218.33 208.88) rotate(-35.07)"/><path class="cls-15" d="M289.87,430.79a.41.41,0,0,1,.18.55,4.34,4.34,0,1,0,7.68,4.05.41.41,0,0,1,.56-.17.41.41,0,0,1,.17.55,5.16,5.16,0,0,1-9.14-4.81A.4.4,0,0,1,289.87,430.79Z" transform="translate(-25.14 -39.15)"/><path class="cls-15" d="M293.58,422.89a2.58,2.58,0,1,1-1.08-3.49A2.59,2.59,0,0,1,293.58,422.89Z" transform="translate(-25.14 -39.15)"/><path class="cls-15" d="M307,429.94a2.58,2.58,0,1,1-1.08-3.48A2.57,2.57,0,0,1,307,429.94Z" transform="translate(-25.14 -39.15)"/><path class="cls-16" d="M184.45,255.58Z" transform="translate(-25.14 -39.15)"/><path class="cls-16" d="M248.6,426.93Z" transform="translate(-25.14 -39.15)"/><path class="cls-16" d="M193.09,206.31c.17.17.34.35.5.54A2.59,2.59,0,0,0,193.09,206.31Z" transform="translate(-25.14 -39.15)"/><path class="cls-16" d="M172.15,490.44Z" transform="translate(-25.14 -39.15)"/><path class="cls-16" d="M172.15,490.44a1.83,1.83,0,0,1-.18-.19s0,0,0,.05S172.09,490.39,172.15,490.44Z" transform="translate(-25.14 -39.15)"/><path class="cls-17" d="M324.23,168.73V393.39A12.22,12.22,0,0,1,312,405.6H210.82a12.21,12.21,0,0,1-12.21-12.21V168.73a12.21,12.21,0,0,1,12.21-12.21H312A12.22,12.22,0,0,1,324.23,168.73Z" transform="translate(-25.14 -39.15)"/><rect class="cls-4" x="178.67" y="124.58" width="115.2" height="234.65" rx="11.35"/><path class="cls-18" d="M324.23,360.64v29.21a17.41,17.41,0,0,1-4.71-3.34,8.64,8.64,0,0,1-1.77-2.26,10.45,10.45,0,0,1-.78-3.34c-.33-2.75-.67-5.51-1-8.27a23.69,23.69,0,0,1-.21-6.29,8.2,8.2,0,0,1,2.88-5.44C320.81,359.28,322.67,359.47,324.23,360.64Z" transform="translate(-25.14 -39.15)"/><path class="cls-19" d="M285.17,293.93h0l-.11,0c-.36-.16-.74-.3-1.12-.44,5.08-30.85,1.29-52-4.26-65.85-.2-.49-.4-1-.6-1.43l0-.07c-5.34-12.52-12-18.63-14-20.26h0c-.39-.32-.61-.47-.61-.47s-8.78,6.18-15.22,22.22c-5.54,13.82-9.33,35-4.26,65.79-.44.15-.87.32-1.28.5l-.12,0h0c-24.39,10.59-14.32,57.45-14.32,57.45,5.17-16.91,18.53-20.8,23.51-21.68.28-.05.69-.11,1.14-.15l0,.1c1,3,2,6,3.09,9.12-5.84,17.94-3.72,29.53-.28,36.56,3.26,6.66,7.71,9.23,7.71,9.23s4.45-2.57,7.7-9.23c3.44-7,5.56-18.62-.27-36.54,1.1-3.12,2.14-6.16,3.09-9.14l0-.09,1,.14c5,.88,18.34,4.77,23.51,21.68C299.5,351.38,309.57,304.52,285.17,293.93Z" transform="translate(-25.14 -39.15)"/><path class="cls-20" d="M255.76,330.58c.48-1.24,1-2.5,1.57-3.8h7.52c.56,1.3,1.08,2.56,1.56,3.8,8.37,21.31,6.18,34.64,2.38,42.4-3.26,6.67-7.71,9.24-7.71,9.24s-4.44-2.57-7.7-9.24C249.58,365.22,247.39,351.89,255.76,330.58Z" transform="translate(-25.14 -39.15)"/><path class="cls-21" d="M257.21,337.09c.35-.91.73-1.83,1.14-2.77h5.47c.41.94.79,1.86,1.15,2.77,6.08,15.51,4.49,25.21,1.73,30.87a16.24,16.24,0,0,1-5.62,6.72,16.27,16.27,0,0,1-5.61-6.72C252.71,362.3,251.12,352.6,257.21,337.09Z" transform="translate(-25.14 -39.15)"/><path class="cls-22" d="M258.26,341.39c.26-.66.54-1.33.83-2h4c.29.68.57,1.35.83,2,4.43,11.28,3.27,18.35,1.26,22.46a11.82,11.82,0,0,1-4.08,4.89,11.8,11.8,0,0,1-4.09-4.89C255,359.74,253.83,352.67,258.26,341.39Z" transform="translate(-25.14 -39.15)"/><path class="cls-2" d="M270.71,289.47v37.64s19,1,25.42,21.93C296.13,349,308.93,289.47,270.71,289.47Z" transform="translate(-25.14 -39.15)"/><path class="cls-18" d="M281.8,291.58s.22,20.84-8.8,35.85a11.1,11.1,0,0,0-3.34-.2l9.65-36.6Z" transform="translate(-25.14 -39.15)"/><path class="cls-2" d="M251.31,289.47v37.64s-19,1-25.42,21.93C225.89,349,213.08,289.47,251.31,289.47Z" transform="translate(-25.14 -39.15)"/><path class="cls-18" d="M240.21,291.58s-.21,20.84,8.8,35.85a11.18,11.18,0,0,1,3.35-.2l-9.66-36.6Z" transform="translate(-25.14 -39.15)"/><path class="cls-23" d="M271.6,327.31q-1.44,4.47-3.09,9.15H253.66q-1.65-4.68-3.09-9.15c-16.51-51.29-12.2-83.37-4.7-102.06,6.44-16,15.22-22.22,15.22-22.22s8.77,6.18,15.21,22.22C283.8,243.94,288.11,276,271.6,327.31Z" transform="translate(-25.14 -39.15)"/><path class="cls-2" d="M276.3,225.25H245.87c6.44-16,15.22-22.22,15.22-22.22S269.86,209.21,276.3,225.25Z" transform="translate(-25.14 -39.15)"/><circle class="cls-2" cx="261.08" cy="264.23" r="13.39" transform="translate(-80.95 418.91) rotate(-76.79)"/><path class="cls-24" d="M269.37,264.24a8.29,8.29,0,0,1-8.29,8.28l-.63,0a8.14,8.14,0,0,1-3-.81c-.14-.07-.28-.14-.41-.22a8.26,8.26,0,0,1-3.63-4.06,8.51,8.51,0,0,1-.62-3.16,8.29,8.29,0,0,1,8.28-8.29h.22a8.16,8.16,0,0,1,5.09,1.93,3.38,3.38,0,0,1,.35.31,8.12,8.12,0,0,1,1.83,2.5A8.28,8.28,0,0,1,269.37,264.24Z" transform="translate(-25.14 -39.15)"/><path class="cls-4" d="M266.39,257.88l-9.34,13.58a8.26,8.26,0,0,1-3.63-4.06L261.3,256A8.16,8.16,0,0,1,266.39,257.88Z" transform="translate(-25.14 -39.15)"/><path class="cls-4" d="M268.57,260.69l-8.12,11.8a8.14,8.14,0,0,1-3-.81l9.28-13.49A8.12,8.12,0,0,1,268.57,260.69Z" transform="translate(-25.14 -39.15)"/><path class="cls-25" d="M271.6,327.31q-1.44,4.47-3.09,9.15H253.66q-1.65-4.68-3.09-9.15Z" transform="translate(-25.14 -39.15)"/><path class="cls-18" d="M276.31,225.25c-5.44-13.55-12.54-20.06-14.62-21.76,5.48,26.75,16.85,97.82-8,133h14.84q1.65-4.68,3.09-9.15C288.12,276,283.81,243.94,276.31,225.25Z" transform="translate(-25.14 -39.15)"/><rect class="cls-19" x="188.07" y="132.56" width="98.35" height="8.1"/><rect class="cls-19" x="188.07" y="145.87" width="98.35" height="8.1"/></svg>