<svg xmlns="http://www.w3.org/2000/svg" xmlns:xlink="http://www.w3.org/1999/xlink" viewBox="0 0 449.86 334.24"><defs><style>.cls-1{isolation:isolate;}.cls-2{fill:url(#linear-gradient);}.cls-3{fill:#d1d6e8;}.cls-4{fill:url(#linear-gradient-2);}.cls-5{opacity:0.2;}.cls-6{fill:url(#linear-gradient-3);}.cls-13,.cls-26,.cls-47,.cls-7,.cls-8{fill:none;}.cls-7{stroke:#83c1ea;}.cls-26,.cls-47,.cls-7,.cls-8{stroke-miterlimit:10;}.cls-7,.cls-8{stroke-width:0.75px;}.cls-47,.cls-8{stroke:#004594;}.cls-9{fill:url(#linear-gradient-4);}.cls-10{fill:url(#linear-gradient-5);}.cls-11{fill:#fcd55b;}.cls-12,.cls-28{fill:#ffd53c;}.cls-14{fill:url(#linear-gradient-6);}.cls-15{fill:url(#linear-gradient-7);}.cls-16{fill:url(#linear-gradient-8);}.cls-17{fill:#1a425b;}.cls-18{fill:#214f95;}.cls-19{fill:url(#linear-gradient-9);}.cls-20{fill:#4861d8;}.cls-21{fill:url(#linear-gradient-10);}.cls-22{fill:url(#linear-gradient-11);}.cls-23{fill:url(#linear-gradient-12);}.cls-24{fill:url(#linear-gradient-13);}.cls-25{fill:#fff;}.cls-26{stroke:#000;stroke-width:1.24px;}.cls-26,.cls-47{stroke-linecap:round;}.cls-27{fill:#f2bc97;}.cls-28,.cls-41{opacity:0.5;}.cls-28,.cls-32,.cls-41{mix-blend-mode:multiply;}.cls-29{fill:#234f70;}.cls-30{fill:#131214;}.cls-31{fill:#7b8bff;}.cls-32,.cls-38{fill:#e8e9ea;}.cls-33{fill:url(#linear-gradient-14);}.cls-34{fill:url(#linear-gradient-15);}.cls-35{fill:url(#linear-gradient-16);}.cls-36{fill:#62cacd;}.cls-37{fill:#cacbcc;}.cls-39{fill:url(#linear-gradient-17);}.cls-40{fill:url(#linear-gradient-18);}.cls-41{fill:url(#linear-gradient-19);}.cls-42{fill:#d5d7e2;}.cls-43{fill:#dfe1ea;}.cls-44{fill:url(#linear-gradient-20);}.cls-45{fill:#6ebaad;}.cls-46{fill:url(#linear-gradient-21);}.cls-47{stroke-dasharray:3 5;}.cls-48{fill:#3a3aba;}.cls-49{fill:#5a5ae2;}.cls-50{fill:url(#linear-gradient-22);}.cls-51{fill:url(#linear-gradient-23);}</style><linearGradient id="linear-gradient" x1="249.2" y1="369.93" x2="249.2" y2="58.51" gradientUnits="userSpaceOnUse"><stop offset="0" stop-color="#dcdcf4"/><stop offset="1" stop-color="#f9fbfc"/></linearGradient><linearGradient id="linear-gradient-2" x1="228.13" y1="302.69" x2="228.13" y2="385.26" xlink:href="#linear-gradient"/><linearGradient id="linear-gradient-3" x1="384.48" y1="332.37" x2="444.96" y2="332.37" gradientUnits="userSpaceOnUse"><stop offset="0.04" stop-color="#7b8bff"/><stop offset="1" stop-color="#6f80ff"/></linearGradient><linearGradient id="linear-gradient-4" x1="356.8" y1="194.96" x2="424.16" y2="194.96" gradientUnits="userSpaceOnUse"><stop offset="0.03" stop-color="#214f95"/><stop offset="1" stop-color="#0e408c"/></linearGradient><linearGradient id="linear-gradient-5" x1="355.74" y1="314.68" x2="423.1" y2="314.68" xlink:href="#linear-gradient-4"/><linearGradient id="linear-gradient-6" x1="42.14" y1="319.36" x2="135.05" y2="319.36" gradientUnits="userSpaceOnUse"><stop offset="0" stop-color="#cbcbef"/><stop offset="1" stop-color="#b1b0d8"/></linearGradient><linearGradient id="linear-gradient-7" x1="36.14" y1="246.99" x2="95.85" y2="246.99" gradientUnits="userSpaceOnUse"><stop offset="0" stop-color="#dcdcf4"/><stop offset="1" stop-color="#b1b0d8"/></linearGradient><linearGradient id="linear-gradient-8" x1="33.02" y1="340.2" x2="112.81" y2="340.2" xlink:href="#linear-gradient-7"/><linearGradient id="linear-gradient-9" x1="235.54" y1="448.96" x2="235.54" y2="211.8" xlink:href="#linear-gradient"/><linearGradient id="linear-gradient-10" x1="226.41" y1="252.78" x2="272.07" y2="252.78" gradientTransform="translate(231.65 -107.16) rotate(45)" xlink:href="#linear-gradient-3"/><linearGradient id="linear-gradient-11" x1="257.58" y1="266.32" x2="303.67" y2="266.32" gradientTransform="translate(231.65 -107.16) rotate(45)" xlink:href="#linear-gradient-3"/><linearGradient id="linear-gradient-12" x1="244.67" y1="259.8" x2="285.41" y2="259.8" gradientTransform="translate(231.65 -107.16) rotate(45)" xlink:href="#linear-gradient-4"/><linearGradient id="linear-gradient-13" x1="145.04" y1="249.74" x2="240.54" y2="249.74" xlink:href="#linear-gradient-3"/><linearGradient id="linear-gradient-14" x1="687.65" y1="319.62" x2="687.65" y2="321.85" gradientTransform="translate(-379.62 -77.01)" gradientUnits="userSpaceOnUse"><stop offset="0.04" stop-color="#7b8bff"/><stop offset="1" stop-color="#6a7cff"/></linearGradient><linearGradient id="linear-gradient-15" x1="678.07" y1="319.62" x2="678.07" y2="321.85" gradientTransform="translate(-379.62 -77.01)" gradientUnits="userSpaceOnUse"><stop offset="0" stop-color="#3197ff"/><stop offset="1" stop-color="#55aeff"/></linearGradient><linearGradient id="linear-gradient-16" x1="696.4" y1="319.62" x2="696.4" y2="321.85" xlink:href="#linear-gradient-15"/><linearGradient id="linear-gradient-17" x1="281.14" y1="305.24" x2="290.23" y2="305.24" gradientTransform="matrix(-1, 0, 0, 1, 678.48, 0)" xlink:href="#linear-gradient-4"/><linearGradient id="linear-gradient-18" x1="258.34" y1="302.42" x2="265.97" y2="302.42" gradientTransform="matrix(-1, 0, 0, 1, 678.48, 0)" xlink:href="#linear-gradient-4"/><linearGradient id="linear-gradient-19" x1="238.16" y1="243.82" x2="259.6" y2="243.82" gradientTransform="matrix(-1, 0, 0, 1, 678.48, 0)" xlink:href="#linear-gradient-3"/><linearGradient id="linear-gradient-20" x1="240.77" y1="205.66" x2="242.33" y2="205.66" gradientTransform="matrix(-1, 0, 0, 1, 678.48, 0)" gradientUnits="userSpaceOnUse"><stop offset="0.04" stop-color="#ffce3c"/><stop offset="1" stop-color="#ffbd3c"/></linearGradient><linearGradient id="linear-gradient-21" x1="276.92" y1="282.77" x2="276.92" y2="282.78" gradientTransform="translate(-159.65)" gradientUnits="userSpaceOnUse"><stop offset="0.06" stop-color="#e38204"/><stop offset="1" stop-color="#e35802"/></linearGradient><linearGradient id="linear-gradient-22" x1="240.62" y1="13.95" x2="289.05" y2="13.95" xlink:href="#linear-gradient-3"/><linearGradient id="linear-gradient-23" x1="257.42" y1="22.67" x2="289.05" y2="22.67" xlink:href="#linear-gradient-3"/></defs><title>upgrade-icon</title><g class="cls-1"><g id="obj"><path class="cls-2" d="M428.26,382.38c11.11-.72,16-17.59,19.23-26,5.66-14.79,12.68-29,17.14-44.24,8.92-30.52,12.72-64.47,6.29-95.85-6.84-33.33-32.26-57.09-64.46-66.41-22.26-6.45-44.45-13.67-65.2-24.12-20-10.1-36.77-26.06-56.71-35.94A124.24,124.24,0,0,0,219.2,77.46C196.65,79.4,175.12,88.08,156.66,101c-18.17,12.74-29.79,31.77-46.06,46.47-17,15.41-40.58,21.28-59.11,34.84-23.68,17.33-30.16,47.54-26.08,75.48,2.47,16.89,11.09,31.88,19.82,46.5,2.91,4.87,5.84,9.71,8.55,14.55,14.29,19.1,17.67,40.46,12,64.06,38.21-1.12,76.43-1.12,114.64-2.68,5.57-.37,11.14-.65,16.72-.87,44.61-1.72,89.57.92,134.1,1.24l16.81.12c9.61-.14,18.87.39,28.17.82s18.64.77,28.4.26C419.21,382.21,428.24,382.38,428.26,382.38Z" transform="translate(-24.28 -77.01)"/><path class="cls-3" d="M94.26,227.4h12.83a1.32,1.32,0,0,0,1.32-1.32v-6a32.09,32.09,0,0,0,9.24-4h0l4.12,4.12a1.33,1.33,0,0,0,1.87,0l9.07-9.07a1.32,1.32,0,0,0,0-1.87l-4.24-4.24h0a31.83,31.83,0,0,0,3.73-9.33H138a1.34,1.34,0,0,0,1.33-1.33V181.58a1.33,1.33,0,0,0-1.33-1.32h-6a32.22,32.22,0,0,0-4-9.24h0l4.11-4.12a1.32,1.32,0,0,0,0-1.87L123.13,156a1.32,1.32,0,0,0-1.87,0L117,160.2a31.77,31.77,0,0,0-9.33-3.73v-5.83a1.32,1.32,0,0,0-1.32-1.32H93.54a1.32,1.32,0,0,0-1.32,1.32v6a31.83,31.83,0,0,0-9.24,4l-4.12-4.12a1.32,1.32,0,0,0-1.87,0l-9.08,9.07a1.33,1.33,0,0,0,0,1.87l4.24,4.23h0A32.52,32.52,0,0,0,68.41,181H62.59a1.32,1.32,0,0,0-1.32,1.32v12.83a1.33,1.33,0,0,0,1.32,1.33h6a32.22,32.22,0,0,0,4,9.24l-4.12,4.12a1.32,1.32,0,0,0,0,1.86l9.08,9.08a1.32,1.32,0,0,0,1.86,0l4.24-4.24h0a32,32,0,0,0,9.34,3.75v5.81A1.32,1.32,0,0,0,94.26,227.4Zm-.1-21.87a17.4,17.4,0,0,1-11-10.91,18.28,18.28,0,0,1,23.32-23.41,17.39,17.39,0,0,1,10.95,10.95A18.28,18.28,0,0,1,94.16,205.53Z" transform="translate(-24.28 -77.01)"/><path class="cls-3" d="M48.59,151.67h5.74a1.33,1.33,0,0,0,1.32-1.33v-2.63a17.33,17.33,0,0,0,5-2.15h0l1.8,1.8a1.32,1.32,0,0,0,1.87,0l4.06-4.06a1.32,1.32,0,0,0,0-1.87l-1.87-1.86h0a17,17,0,0,0,2-5.05H71.1a1.32,1.32,0,0,0,1.32-1.32v-5.74a1.32,1.32,0,0,0-1.32-1.32H68.46a17.55,17.55,0,0,0-2.15-5h0l1.8-1.8a1.32,1.32,0,0,0,0-1.87l-4.06-4.06a1.3,1.3,0,0,0-1.86,0l-1.87,1.87a17.21,17.21,0,0,0-5.06-2v-2.55a1.32,1.32,0,0,0-1.32-1.32H48.2a1.32,1.32,0,0,0-1.32,1.32v2.64a17.33,17.33,0,0,0-5,2.15l-1.8-1.81a1.33,1.33,0,0,0-1.87,0l-4.06,4.06a1.32,1.32,0,0,0,0,1.87L36,121.46a17.75,17.75,0,0,0-2,5.06H31.43a1.32,1.32,0,0,0-1.32,1.32v5.74a1.32,1.32,0,0,0,1.32,1.32h2.64a17.73,17.73,0,0,0,2.15,5l-1.8,1.8a1.32,1.32,0,0,0,0,1.87l4,4.06a1.33,1.33,0,0,0,1.87,0l1.87-1.87h0a17.48,17.48,0,0,0,5.06,2v2.54A1.33,1.33,0,0,0,48.59,151.67Zm-.66-11.86A9.39,9.39,0,0,1,42,133.9a9.9,9.9,0,0,1,12.63-12.68,9.41,9.41,0,0,1,5.93,5.93A9.9,9.9,0,0,1,47.93,139.81Z" transform="translate(-24.28 -77.01)"/><ellipse class="cls-4" cx="228.13" cy="314.8" rx="210.25" ry="19.45"/><g class="cls-5"><path class="cls-6" d="M387.16,390.41s-8.14-21.32,3.95-32.75,19.35-14.29,19.34-25.29-7.25-13.85-19.34-25.28-3.95-32.75-3.95-32.75h55.12s8.14,21.32-3.95,32.75S419,321.37,419,332.37s7.25,13.86,19.34,25.29,3.95,32.75,3.95,32.75Z" transform="translate(-24.28 -77.01)"/></g><path class="cls-7" d="M442.28,274.34s8.14,21.32-3.95,32.75S419,321.37,419,332.37s7.25,13.86,19.34,25.29,3.95,32.75,3.95,32.75" transform="translate(-24.28 -77.01)"/><path class="cls-8" d="M387.16,274.34s-8.14,21.32,3.95,32.75,19.35,14.28,19.34,25.28-7.25,13.86-19.34,25.29-3.95,32.75-3.95,32.75" transform="translate(-24.28 -77.01)"/><path class="cls-8" d="M442.28,274.34s8.14,21.32-3.95,32.75S419,321.37,419,332.37s7.25,13.86,19.34,25.29,3.95,32.75,3.95,32.75" transform="translate(-24.28 -77.01)"/><rect class="cls-9" x="356.8" y="192.49" width="67.37" height="4.95" rx="1.12"/><rect class="cls-10" x="355.74" y="312.2" width="67.37" height="4.95" rx="1.12"/><path class="cls-11" d="M439,304.05l0,.07a17.24,17.24,0,0,1-1.7,1.85c-1.44,1.37-2.83,2.61-4.13,3.76A58.69,58.69,0,0,1,397.73,305C424.54,297.88,437.26,303.22,439,304.05Z" transform="translate(-24.28 -77.01)"/><path class="cls-12" d="M416.89,364.69a14.78,14.78,0,0,1,6.79,3.64c6.51,6.69,16,18.53,18.82,15.43a44.88,44.88,0,0,1-1.65,6.1H388.59a46.88,46.88,0,0,1-2.2-9.44c5.18,5.87,16.93-8.59,20.14-11.65a29.24,29.24,0,0,1,5.72-4.39l.34,0-.9-28.25h0a21.56,21.56,0,0,0,.3-3.72c0-9.13-4.58-13.07-12.18-19.61-2.27-1.94-4.82-4.14-7.64-6.8a18.31,18.31,0,0,1-4.68-7.28A51.16,51.16,0,0,0,397.73,305a58.69,58.69,0,0,0,35.41,4.77q-1.86,1.63-3.51,3c-7.6,6.54-12.19,10.48-12.18,19.6a23.79,23.79,0,0,0,.17,2.89Z" transform="translate(-24.28 -77.01)"/><path class="cls-13" d="M388.59,389.86h52.26a44.88,44.88,0,0,0,1.65-6.1" transform="translate(-24.28 -77.01)"/><path class="cls-13" d="M417.62,335.26a23.79,23.79,0,0,1-.17-2.89c0-9.12,4.58-13.06,12.18-19.6q1.65-1.41,3.51-3c1.3-1.15,2.69-2.39,4.13-3.76a17.24,17.24,0,0,0,1.7-1.85" transform="translate(-24.28 -77.01)"/><path class="cls-13" d="M388.59,389.86h0a46.88,46.88,0,0,1-2.2-9.44" transform="translate(-24.28 -77.01)"/><path class="cls-13" d="M387.44,298.55l.05.14a18.31,18.31,0,0,0,4.68,7.28c2.82,2.66,5.37,4.86,7.64,6.8,7.6,6.54,12.19,10.48,12.18,19.61a21.56,21.56,0,0,1-.3,3.72" transform="translate(-24.28 -77.01)"/><path class="cls-13" d="M387.19,298.44l.3.25A51.16,51.16,0,0,0,397.73,305a58.69,58.69,0,0,0,35.41,4.77h.06" transform="translate(-24.28 -77.01)"/><path class="cls-13" d="M439.21,304.15l-.21-.1c-1.74-.83-14.46-6.17-41.27.91l-.28.07" transform="translate(-24.28 -77.01)"/><polyline class="cls-13" points="393.37 257.44 393.34 258.25 392.61 287.68 392.51 291.76"/><polyline class="cls-13" points="387.4 258.62 387.42 259.09 387.42 259.1 388.32 287.35 388.41 290.3"/><path class="cls-13" d="M416.79,364.67l.1,0a14.78,14.78,0,0,1,6.79,3.64c6.51,6.69,16,18.53,18.82,15.43a2.68,2.68,0,0,0,.52-.92" transform="translate(-24.28 -77.01)"/><path class="cls-13" d="M412.25,364.38a29.24,29.24,0,0,0-5.72,4.39c-3.21,3.06-15,17.52-20.14,11.65a.52.52,0,0,1-.1-.11" transform="translate(-24.28 -77.01)"/><path class="cls-14" d="M83.45,362.43c30,9.39,31.87,29.74,39.79,25.86a5.58,5.58,0,0,0,1.07-.67c5.31-4.38-5.12-16.43,2.49-45.48,4.79-18.39,14.63-52.14,2.23-58.79-10.61-5.68-13.87,23.09-29.29,16.08-11.21-5.08,9.9-22.46.53-29.32-10.37-7.61-15.86,14.79-24,6.13s-6.21-29.06-16.42-26c-.16,0-.32.1-.46.15-9.56,3.39-4.38,18.36-.5,28,3.94,9.8,5.78,12.51,2.67,13.47s-17.74-5.23-19.31,4.73S66.9,311.55,72.3,323.93s-18.3.82-16,13.93C57.6,345.39,68.54,357.77,83.45,362.43Z" transform="translate(-24.28 -77.01)"/><polygon class="cls-15" points="43.55 262.69 75.43 268.66 60.4 236.53 60.39 236.57 36.14 225.76 59.13 233.81 41.57 196.29 52.92 217.75 63.95 205.51 53.98 219.77 71.3 252.51 95.85 227.6 72.31 254.42 93.96 295.73 90.03 297.69 76.53 271 43.55 262.69"/><path class="cls-16" d="M50.06,322.81c-3.9-1.62-21.17-9.24-16.13-15.18,4.5-5.28,12.49,7.41,15.61,12.91-1.48-7.35-.62-11.85-.42-12.7-2.89-5.15-10-19.11-3-20.65s5.38,14.55,4.57,20.36a.82.82,0,0,1,.06.56c0,.06-1.11,4.55.46,12.29,1.12-5.93,4.6-20.86,10.87-17.63,6.94,3.59-7.32,16.65-10.47,19.42a58.84,58.84,0,0,0,3.26,9.55c.5,1.15,1.07,2.37,1.71,3.63,1.09-5.49,4.84-21.41,11.25-18,6.79,3.64-7.2,16.18-10.64,19.14a97,97,0,0,0,9.58,14.54c.94-4.94,4.7-22,11.32-18.49,6.87,3.68-7.49,16.48-10.73,19.25A141.86,141.86,0,0,0,77.86,363.5c.43-4.95,2.44-22.43,9.4-19.57,7.22,3-5.81,17.17-8.74,20.23,3.24,3.2,6.86,6.51,10.91,9.91.14-4.53,1.18-22.88,8.43-20.32,7.47,2.65-5.37,17.93-7.86,20.8,3.67,3.07,7.67,6.21,12.07,9.42.15-4.61,1.21-22.82,8.43-20.27,7.42,2.62-5.18,17.7-7.8,20.73,2.86,2.07,5.87,4.18,9.06,6.31a.81.81,0,0,1,.29,1,.54.54,0,0,1-.07.13.82.82,0,0,1-1.13.22q-4.77-3.19-9.06-6.32c-3,1.94-19.86,12.47-21.91,4.76-2-7.39,16.45-5.82,21.14-5.31-4.46-3.26-8.53-6.46-12.26-9.59-4.25,2.68-19.32,11.59-21.25,4.34-1.82-6.87,13.92-6,19.94-5.44-3.65-3.1-6.94-6.13-9.92-9.07-4.24,1-22.55,4.68-21.88-3,.6-7,14.78-1.07,20.39,1.56a142.51,142.51,0,0,1-10-11.13c-4.48.33-22.91,1.23-21.11-6.26,1.6-6.69,14.27.84,19.63,4.37a96.12,96.12,0,0,1-8.86-13.63c-4.7-.81-22.32-4.33-18.84-11.08,3-5.86,12.78,3.36,17.43,8.29-.38-.8-.74-1.59-1.06-2.34A60.8,60.8,0,0,1,50.06,322.81Z" transform="translate(-24.28 -77.01)"/><polygon class="cls-17" points="386.61 302.16 35.92 302.16 64.37 291.69 358.16 291.69 386.61 302.16"/><path class="cls-18" d="M385.84,189.94V366.12a4.45,4.45,0,0,1-4.68,4.18H89.91a4.44,4.44,0,0,1-4.67-4.18V189.94a4.44,4.44,0,0,1,4.67-4.18H381.16A4.45,4.45,0,0,1,385.84,189.94Z" transform="translate(-24.28 -77.01)"/><path class="cls-19" d="M376.87,360.3H94.22V195.75H376.87Z" transform="translate(-24.28 -77.01)"/><path class="cls-20" d="M398.84,394.33H72.24A13.36,13.36,0,0,1,58.88,381h0a2.37,2.37,0,0,1,2.37-2.37H409.83A2.37,2.37,0,0,1,412.2,381h0A13.36,13.36,0,0,1,398.84,394.33Z" transform="translate(-24.28 -77.01)"/><path class="cls-21" d="M234.52,232.41a31.39,31.39,0,0,1,12.41,3.23l-3.42,4.52L266.25,243l-8.91-21.13-3.45,4.57a41.49,41.49,0,0,0-19.66-3,39.4,39.4,0,0,0-21.92,9.16,38,38,0,0,0-12.26,19.29,36.93,36.93,0,0,0,.94,21.95,35.47,35.47,0,0,1,1.9-21,33.43,33.43,0,0,1,13-15.42A31.7,31.7,0,0,1,234.52,232.41Z" transform="translate(-24.28 -77.01)"/><path class="cls-22" d="M271.1,275.39a37,37,0,0,0-1.4-22.7,35.41,35.41,0,0,1-1.45,21.77,33.35,33.35,0,0,1-13.43,16,32,32,0,0,1-19.37,4.77,31.24,31.24,0,0,1-11.91-3.43l3.29-4.4-22.77-2.71,9,21.07,3.67-4.9a41.4,41.4,0,0,0,18.66,3.37,39.55,39.55,0,0,0,22.92-8.92A37.9,37.9,0,0,0,271.1,275.39Z" transform="translate(-24.28 -77.01)"/><path class="cls-23" d="M223.19,247.32l-4.74,4.73a.69.69,0,0,0,0,1l2.21,2.2a17,17,0,0,0-1.95,4.88h-3a.69.69,0,0,0-.69.69v6.69a.69.69,0,0,0,.69.69h3.12a16.39,16.39,0,0,0,2.07,4.82h0l-2.15,2.15a.69.69,0,0,0,0,1l4.73,4.73a.69.69,0,0,0,1,0l2.2-2.21h0a16.63,16.63,0,0,0,4.87,2h0v3a.69.69,0,0,0,.69.69h6.69a.69.69,0,0,0,.69-.69v-3.13a16.43,16.43,0,0,0,4.82-2.07l2.15,2.15a.69.69,0,0,0,1,0l4.73-4.73a.68.68,0,0,0,0-1l-2.21-2.22A16.63,16.63,0,0,0,252,267.8h3a.69.69,0,0,0,.69-.69v-6.69a.69.69,0,0,0-.69-.69h-3.12a16.94,16.94,0,0,0-2.07-4.82l2.15-2.15a.69.69,0,0,0,0-1l-4.74-4.73a.68.68,0,0,0-1,0l-2.21,2.21a16.74,16.74,0,0,0-4.87-1.95v-3a.69.69,0,0,0-.69-.69h-6.7a.69.69,0,0,0-.69.69v3.13h0a16.91,16.91,0,0,0-4.82,2.06l-2.15-2.14A.68.68,0,0,0,223.19,247.32Zm8.1,8a9.05,9.05,0,0,1,8.07,0,9.53,9.53,0,0,1,0,17.24,9.08,9.08,0,0,1-8.08,0A9.54,9.54,0,0,1,231.29,255.35Z" transform="translate(-24.28 -77.01)"/><rect class="cls-3" x="145.04" y="247.26" width="132.45" height="4.95" rx="2.27"/><rect class="cls-24" x="145.04" y="247.26" width="95.5" height="4.95" rx="2.36"/><path class="cls-3" d="M197.83,159.62a24.08,24.08,0,1,1,20.87-12A24,24,0,0,1,197.83,159.62Z" transform="translate(-24.28 -77.01)"/><circle class="cls-25" cx="197.85" cy="135.54" r="22.16" transform="translate(22.79 245.03) rotate(-85.46)"/><circle class="cls-25" cx="173.46" cy="58.86" r="21.38"/><path class="cls-3" d="M223.69,128.62a26.76,26.76,0,0,0-25.81-19.83v0h0A26.75,26.75,0,0,0,172,142.47a26.76,26.76,0,0,0,25.81,19.83A26.86,26.86,0,0,0,221,148.92,26.59,26.59,0,0,0,223.69,128.62Zm-6,18.38a22.92,22.92,0,1,1-8.39-31.3A22.92,22.92,0,0,1,217.7,147Z" transform="translate(-24.28 -77.01)"/><path class="cls-3" d="M197.85,118.77a.58.58,0,0,1-.57-.58v-3.58a.58.58,0,0,1,1.15,0v3.58A.58.58,0,0,1,197.85,118.77Z" transform="translate(-24.28 -77.01)"/><path class="cls-3" d="M180.5,136.12h-3.58a.58.58,0,0,1,0-1.15h3.58a.58.58,0,1,1,0,1.15Z" transform="translate(-24.28 -77.01)"/><path class="cls-3" d="M197.85,157.05a.58.58,0,0,1-.57-.58v-3.58a.58.58,0,0,1,1.15,0v3.58A.58.58,0,0,1,197.85,157.05Z" transform="translate(-24.28 -77.01)"/><path class="cls-3" d="M218.78,136.12H215.2a.58.58,0,0,1,0-1.15h3.58a.58.58,0,1,1,0,1.15Z" transform="translate(-24.28 -77.01)"/><path class="cls-3" d="M197.81,136h0L186.45,136a.66.66,0,0,1-.65-.66.65.65,0,0,1,.65-.65h0l11.36.08a.65.65,0,0,1,0,1.3Z" transform="translate(-24.28 -77.01)"/><path class="cls-26" d="M201.28,135.37" transform="translate(-24.28 -77.01)"/><path class="cls-3" d="M197.76,136.17a.39.39,0,0,1-.2,0,.41.41,0,0,1-.16-.56l6.78-12.33a.42.42,0,0,1,.73.4L198.13,136A.42.42,0,0,1,197.76,136.17Z" transform="translate(-24.28 -77.01)"/><path class="cls-3" d="M198.58,136.8a1.45,1.45,0,1,1,.53-2A1.45,1.45,0,0,1,198.58,136.8Z" transform="translate(-24.28 -77.01)"/><path class="cls-25" d="M198.23,136.19a.76.76,0,0,1-1-.27.74.74,0,0,1,.27-1,.75.75,0,0,1,1,.27A.76.76,0,0,1,198.23,136.19Z" transform="translate(-24.28 -77.01)"/><path class="cls-27" d="M324,285.67a2.83,2.83,0,0,0-2.12,2.07c-1.26,4.56-5.24,19.91-1.94,21,3.89,1.3,6.61-12.51,6.89-16.6C327,288.75,326.48,285.2,324,285.67Z" transform="translate(-24.28 -77.01)"/><path class="cls-12" d="M323.82,285.07s-2.11,1.11-3,5.42-5.19,27.27-5.19,27.27,8.55,1.66,8.77.11S323.82,285.07,323.82,285.07Z" transform="translate(-24.28 -77.01)"/><polygon class="cls-28" points="297.58 219.45 294.5 241.52 300.66 240.03 297.58 219.45"/><path class="cls-27" d="M344.06,284.88a2.81,2.81,0,0,1,2.06,2.13c1.13,4.59,4.69,20,1.35,21.06-3.92,1.18-6.25-12.7-6.42-16.79C340.92,287.87,341.55,284.33,344.06,284.88Z" transform="translate(-24.28 -77.01)"/><path class="cls-27" d="M337.41,295.85a1.45,1.45,0,0,0-1.53,1.27,21.55,21.55,0,0,0-.26,3.28c0,2.69-.08,5.21.81,5.63s1.8-1.23,2.06-3.89c.23-2.41,1.08-5.36.5-5.81A4.48,4.48,0,0,0,337.41,295.85Z" transform="translate(-24.28 -77.01)"/><path class="cls-25" d="M320.46,318.87l4.74,1.2,8.67,0,1.28-1.92,2.53-1,6-.61,1.68-.18,0-.4s0-.74.1-2c0-.86.1-2,.15-3.21.13-3,.28-6.82.37-10.59.13-5.62.12-11-.3-13-1-4.66-8.33-3.64-8.33-3.64h0l-8.87.64s-4.78-.08-5.57,2C322,288.57,320.46,318.87,320.46,318.87Z" transform="translate(-24.28 -77.01)"/><path class="cls-27" d="M330.69,322c2.6.48,4.31,3.35,3.75,6.22a76.42,76.42,0,0,1-3.55,11.43c-3.75,9.1-6.78,17.74-10.5,18.06s-4.76-6.41-2.06-15.77c2.43-8.45,3.43-19.49,6.11-20.28C325.79,321.27,328.43,321.59,330.69,322Z" transform="translate(-24.28 -77.01)"/><path class="cls-27" d="M337.6,321.17c2.47-.41,5,1.69,5.53,4.55a80.35,80.35,0,0,1,.91,11.79c-.1,9.7.29,18.73-2.89,20.24s-6.49-4.39-7.42-14c-.84-8.66-3.87-19.25-1.78-20.86C333,322.09,335.45,321.52,337.6,321.17Z" transform="translate(-24.28 -77.01)"/><path class="cls-27" d="M318.7,353.37c7-1.36-.95,31-4.08,37.42s-3.13,1.92-2-9.86S315.94,353.9,318.7,353.37Z" transform="translate(-24.28 -77.01)"/><polygon class="cls-27" points="286.8 309.09 286.11 317.95 289.69 318.02 292.3 308.73 286.8 309.09"/><path class="cls-29" d="M310.29,392.26a24.88,24.88,0,0,1-4.67,4c-3.24,2.26-4,1.71-4.14,2.6s13,.63,13,.63l.35-7.31A36.7,36.7,0,0,0,310.29,392.26Z" transform="translate(-24.28 -77.01)"/><path class="cls-27" d="M339.21,354.13c5.66-4.51,11.87,28.29,11.86,35.53s-3.57-5-7.66-16.12S337,355.91,339.21,354.13Z" transform="translate(-24.28 -77.01)"/><polygon class="cls-27" points="322.56 308.81 326.09 316.97 329.28 315.36 327.25 305.93 322.56 308.81"/><path class="cls-29" d="M349.06,391.62A24.5,24.5,0,0,1,346,397c-2.28,3.22-3.22,3-3,3.84s12.48-3.78,12.48-3.78l-2.12-7A36.71,36.71,0,0,0,349.06,391.62Z" transform="translate(-24.28 -77.01)"/><path class="cls-30" d="M344.74,387" transform="translate(-24.28 -77.01)"/><path class="cls-31" d="M353,386.9,350.18,388l-2.55,1s-10.75-26.9-12.1-30.86S331.84,340,331.84,340L323,359.19a165.62,165.62,0,0,1-6.76,29.62c0,.05-2.44-.28-4.09-.5l-1.53-.22s2.9-26.95,3.8-34,7.42-33.53,7.42-33.53l19.72.54,1.41,0c3.05,8.37,1,34.63,1,34.63C348.48,363.51,353,386.9,353,386.9Z" transform="translate(-24.28 -77.01)"/><path class="cls-32" d="M350.18,388c1.71-5.51-.57-8.95-1.37-11.48a97.91,97.91,0,0,1-2.19-10.94c-.78-4.51-3.95-6.77-4.37-9.8s.56-12.08.7-15.75a96.77,96.77,0,0,0-.5-12.38c-.43-4.47-3.31-5.87-3.31-5.87l2.37-.69,1.41,0c3.05,8.37,1,34.63,1,34.63,4.56,7.72,9,31.11,9,31.11Z" transform="translate(-24.28 -77.01)"/><rect class="cls-18" x="297.13" y="242.77" width="22.15" height="2.19" rx="0.21"/><rect class="cls-33" x="307.71" y="242.57" width="0.64" height="2.49" rx="0.19"/><rect class="cls-34" x="298.14" y="242.57" width="0.64" height="2.49" rx="0.14"/><rect class="cls-35" x="316.47" y="242.57" width="0.64" height="2.49" rx="0.19"/><path class="cls-32" d="M331.84,340,323,359.19a165.62,165.62,0,0,1-6.76,29.62c0,.05-2.44-.28-4.09-.5,5.41-2.56,4.81-5.83,6.08-10.91a188.48,188.48,0,0,0,3.31-19c.36-3.18,9.4-22.52,9.4-22.52Z" transform="translate(-24.28 -77.01)"/><path class="cls-12" d="M346,300.11v.17c-.05,2-.11,4-.17,5.81-.06,1.66-.13,3.23-.19,4.61a1.41,1.41,0,0,1,0,.2c-.05,1.15,0,2-.09,2.81,0,.42,0,.81-.06,1.14a17.19,17.19,0,0,0,0,2c.09,1.92.09,6.16-1.53,7.78-.49.49-4.05-.41-6.89-1.22h0c-1-.3-2-.58-2.63-.79a1.36,1.36,0,0,1-1-1.35c0-1.83.2-5.07.26-6.8,0-.64,0-1.29.08-2,.17-4.24.45-9.22.73-13,.9-12.26,2.89-16.07,2.89-16.07h0s7.34-1,8.34,3.64C346.13,289.07,346.13,294.49,346,300.11Z" transform="translate(-24.28 -77.01)"/><path class="cls-28" d="M344.34,312.77s.69.74-1.24,1.46-7.2,2.59-7.15,2.52S344.34,312.77,344.34,312.77Z" transform="translate(-24.28 -77.01)"/><path class="cls-28" d="M345.48,314.85a17.19,17.19,0,0,0,0,2c.09,1.92.09,6.16-1.53,7.78-.49.49-4.05-.41-6.89-1.22a14.66,14.66,0,0,0,5.41.23c2.2-.62,2.23-5.11,2.09-7.27s-.1-4.21-.1-4.21.58-.64,1.2-1.29c-.05,1.15,0,2-.09,2.81C345.52,314.13,345.5,314.52,345.48,314.85Z" transform="translate(-24.28 -77.01)"/><path class="cls-12" d="M328.56,284.14l.05-.11h-.12c-.2,0-4.84-.06-5.64,2s-2.06,24.93-2.38,31.23c-.06,1,0,2.31-.06,3.67V321c0,.32.09,3.14.46,3.42.56.44,3.72-1.37,4.9-2.07a.86.86,0,0,0,.43-.78l-.11-3.21v-.08c-.27-4,.16-12.74.49-17.78C326.83,296.39,328.41,284.56,328.56,284.14Z" transform="translate(-24.28 -77.01)"/><path class="cls-28" d="M347.77,303.92l-1.94,2.17c-1.31,1.44-2.8,3.1-2.88,3.16s-9.23,5.39-9.23,5.39l-.06-.15c0-.63,0-1.29.08-2,2-1.44,7.68-5.62,9-6.85,1.62-1.48,1.05-9.93,1.05-9.93l2.21,4.54Z" transform="translate(-24.28 -77.01)"/><path class="cls-27" d="M337.36,283.46c.29-.26-1.71-3-1.83-6s-.17-10.62-6.5-9.83-4.83,5.71-4.37,7,2.82,7.26,5.68,6.64c0,0-.07,2.24-1.79,2.82C328.55,284.13,333.75,286.71,337.36,283.46Z" transform="translate(-24.28 -77.01)"/><path class="cls-36" d="M343.43,284.38" transform="translate(-24.28 -77.01)"/><path class="cls-27" d="M349.71,307.2a2.81,2.81,0,0,1-1.4,2.18c-3.85,2.31-17.86,10.6-19.46,9.45-1.86-1.33,17.79-14.2,18.91-13.71C348.62,305.5,349.8,305.74,349.71,307.2Z" transform="translate(-24.28 -77.01)"/><path class="cls-27" d="M330.46,316.84a7.54,7.54,0,0,0-3.37-.29c-1.27.22-2.94,2-2.78,2.72s.88.55,2.29-.24,1.28.63,2.68.32,1.62-1.05,1.62-1.05" transform="translate(-24.28 -77.01)"/><path class="cls-12" d="M343.43,284.38a8.66,8.66,0,0,1,4.87,5.84c1.71,5.75,3.67,15.63,2.62,17.89-1.61,3.45-14.81,8.42-14.81,8.42l-2-3.56s10.62-7.48,10.62-7.7-1-8.73-1-8.73Z" transform="translate(-24.28 -77.01)"/><path class="cls-25" d="M334.44,312.57c.1,0,2.33,3.75,2.33,3.75l-.82.43a.08.08,0,0,1-.09,0l-2.17-3.54a.08.08,0,0,1,0-.1S334.22,312.52,334.44,312.57Z" transform="translate(-24.28 -77.01)"/><path class="cls-18" d="M334.8,270.07c-.17-.39-.34-.78-.53-1.16-.66-1.36-1.67-2.79-3.18-3-1.2-.13-2.3.61-3.41,1.1a8.8,8.8,0,0,1-5.68.47,5.72,5.72,0,0,0-2.44-.37,3,3,0,0,0-2.14,2.33,4.66,4.66,0,0,0,1.6,4.65,4.74,4.74,0,0,0,4.89.49,13.53,13.53,0,0,1,3.41-1.29,2.54,2.54,0,0,1,1.82.19,3.56,3.56,0,0,1,1.07,1.41c.25.48.52,1.31,1.06,1.55s.46-.63.43-.91c-.07-.57-.14-1.14-.22-1.71-.05-.31-.25-1,.07-1.25a.31.31,0,0,1,.16-.06,1.81,1.81,0,0,1,1.45.64c.86.93.47,2.33.74,3.46.19.78.74,2.29,1.81,2,.51-.11.5-.87.51-1.26,0-.71.07-1.41,0-2.11a10.4,10.4,0,0,0-.41-2.07A21.78,21.78,0,0,0,334.8,270.07Z" transform="translate(-24.28 -77.01)"/><path class="cls-37" d="M305,305.23l5.32,13.89s14.49,1.15,14.58,1.27l-5.72-14.87S304.75,305.21,305,305.23Z" transform="translate(-24.28 -77.01)"/><polygon class="cls-38" points="311.19 242.73 300.55 243.32 300.21 242.43 299.82 241.42 311.08 240.8 311.14 241.77 311.19 242.73"/><polygon class="cls-38" points="294.86 228.51 295.4 228.56 301 243.3 300.56 243.32 294.86 228.51"/><path class="cls-38" d="M335.47,319.74l-10.64.59-.35-.89c2.71-.16,9-.53,10.94-.66Z" transform="translate(-24.28 -77.01)"/><ellipse class="cls-38" cx="314.28" cy="312.41" rx="0.94" ry="1.16" transform="translate(-112.53 50.1) rotate(-20.11)"/><path class="cls-27" d="M420.36,268.15c-10.48,1.73-19.29,1.22-19.67-1.12s7.79-5.65,18.27-7.37,19.29-1.22,19.68,1.12S430.84,266.43,420.36,268.15Z" transform="translate(-24.28 -77.01)"/><path class="cls-27" d="M402.57,266.42c-7.4-3.49-10.09,28.85-8.45,35.88s6-5,8.09-16.39S405.48,267.79,402.57,266.42Z" transform="translate(-24.28 -77.01)"/><path class="cls-39" d="M394.21,302.73a18.67,18.67,0,0,1-3.16,3c-2.17,1.69-2.75,1.33-2.8,1.95s9.09,0,9.09,0l-.18-5.09A22.45,22.45,0,0,0,394.21,302.73Z" transform="translate(-24.28 -77.01)"/><path class="cls-27" d="M411,264.67c-10.27,3.25-19.17,4.05-19.88,1.78s7-6.74,17.28-10,19.16-4,19.88-1.79S421.3,261.41,411,264.67Z" transform="translate(-24.28 -77.01)"/><path class="cls-27" d="M393.69,265.25c-8.64,2.49,13.45,29.19,19.9,33.81s.47-6.47-6-17.44S397.09,264.27,393.69,265.25Z" transform="translate(-24.28 -77.01)"/><path class="cls-40" d="M414,299.35a21,21,0,0,1-.46,4.75c-.58,3-1.31,3.1-.9,3.64s7.51-6.59,7.51-6.59l-3.85-4.08A23.57,23.57,0,0,0,414,299.35Z" transform="translate(-24.28 -77.01)"/><path class="cls-31" d="M395.16,277.21c.76,1.21,1.59,2.45,2.45,3.68a204.22,204.22,0,0,0,13.47,16.86l4.67-4.21s-12.29-23.09-11.82-24,27.63-5.45,28.87-14.47S419,252.84,419,252.84s-27.57,6-28.22,13.53C390.53,268.88,392.43,272.89,395.16,277.21Z" transform="translate(-24.28 -77.01)"/><path class="cls-32" d="M395.16,277.21c.76,1.21,1.59,2.45,2.45,3.68l6.32-11.37,4.94-8.93c-.79.25-10.18.43-12.19,6.53A43.54,43.54,0,0,0,395.16,277.21Z" transform="translate(-24.28 -77.01)"/><path class="cls-31" d="M392.53,300.7h6s.35-1.32.93-3.39c2.07-7.5,6.94-24.89,7.55-25.62.78-.93,23-.47,29.69-2.64s4-14.46,4-14.46l-8.45.35h0l-5,.19s-24.57,4.36-28.77,11.28S392.61,300.7,392.53,300.7Z" transform="translate(-24.28 -77.01)"/><path class="cls-32" d="M399.45,297.31c2.07-7.5,6.94-24.89,7.55-25.62.78-.93,23-.47,29.69-2.64s4-14.46,4-14.46l-8.45.35c2,1.8,5,5.87,2.32,9.62-3.24,4.57-26.75-.06-29.68,6.16C402.69,275.31,400.47,289.93,399.45,297.31Z" transform="translate(-24.28 -77.01)"/><path class="cls-27" d="M426.55,220.26c-1.19.11-2.93-.5-3.31.64-1.69,5.14-7.45,20-3.6,21.22,3,.93,5.88-11.09,7.36-17.17C427.93,221.11,429.43,220,426.55,220.26Z" transform="translate(-24.28 -77.01)"/><path class="cls-27" d="M421.8,238.94a3,3,0,0,0-2.94-.39c-4.61,1.68-21,7.78-21.12,9.9-.15,2.46,24-5.29,24.36-6.55C422.35,241,422.92,239.84,421.8,238.94Z" transform="translate(-24.28 -77.01)"/><path class="cls-27" d="M400.74,247.35c-.57-1.6-3.21-.31-4.09.17-1.44.77-2.54,2.76-2.25,3.34s3.47-1.38,3.65-1.3-1.27,1.17-.94,1.68,2.44-.69,3.09-1.5A2.15,2.15,0,0,0,400.74,247.35Z" transform="translate(-24.28 -77.01)"/><path class="cls-12" d="M425.84,234.56s2.62-13.68-1.79-14.29c-4.76-.66-5.49,13.53-5.49,13.53Z" transform="translate(-24.28 -77.01)"/><path class="cls-12" d="M419,252.84l.31.19a11,11,0,0,0,1.93.87c7.16,2.57,19.45.69,19.45.69-.16-1.47-.25-3.93-.34-6.89s-.15-6.39-.29-9.87a100.77,100.77,0,0,0-1.41-15.3c-.31-1.44-.54-2.34-3-3.32-2.83-1.12-9.16-.87-12.3.95-1.83,1.05-3.44,5-3.27,8.89s1.93,4.78,2.05,10.73c.08,4-1.35,8.44-2.31,11-.27.73-.5,1.29-.66,1.65Z" transform="translate(-24.28 -77.01)"/><path class="cls-41" d="M418.88,251.2l.27,1.22.13.61.27,1.22,1.66-.35c4.54-1,17-3.75,18.9-5.94a2.65,2.65,0,0,0,.21-.26c-.08-2.95-.15-6.39-.29-9.87l-3.82-4.45-2.7,1.29,1.23,9.26-14.93,6.84Z" transform="translate(-24.28 -77.01)"/><path class="cls-27" d="M433,213.18v6a3.82,3.82,0,0,1-3.44,2.16,3,3,0,0,1-3.15-2.27v-3.44s-3.21,1.22-4.55.17-2-2.15-2.16-6.35-.05-7.12,2.69-8.11,11.48-3.09,13.23,1.58S433,213.18,433,213.18Z" transform="translate(-24.28 -77.01)"/><polygon class="cls-27" points="402.17 138.62 405.48 137.43 402.17 140.53 402.17 138.62"/><path class="cls-25" d="M413.12,254.31,408.17,242l-18,.88H390l6.73,15.79,16,.65,2.43.1Zm-12.27-5.12c.58-.25,1.34.21,1.72,1s.21,1.7-.37,2-1.34-.21-1.71-1A1.49,1.49,0,0,1,400.85,249.19Z" transform="translate(-24.28 -77.01)"/><path class="cls-42" d="M400.86,249.2c-.57.26-.74,1.13-.37,2s1.14,1.28,1.71,1,.74-1.13.37-2S401.43,248.94,400.86,249.2Z" transform="translate(-24.28 -77.01)"/><polygon class="cls-43" points="388.84 177.3 390.86 182.36 400.46 177.13 388.84 177.3"/><path class="cls-42" d="M415.14,259.36l-18.43-.74.12.85,18.42.71s-.13-.83-.11-.82l.11.82,9.61-5.23-.12-.82" transform="translate(-24.28 -77.01)"/><path class="cls-27" d="M435,220.62a3,3,0,0,0-1.62,2.9c.17,5.41,1.05,24,5.07,23.83,3.11-.15,1.71-12.43,1-18.65C439,224.78,437.56,219.38,435,220.62Z" transform="translate(-24.28 -77.01)"/><path class="cls-27" d="M439.45,244.41a2.86,2.86,0,0,0-2.77-.4c-4.38,1.52-20,7.08-20.11,9.08-.17,2.33,22.78-4.69,23.12-5.88C440,246.32,440.5,245.28,439.45,244.41Z" transform="translate(-24.28 -77.01)"/><path class="cls-27" d="M440.32,242.24s.19,3.95-.5,5.07-6.85,2.6-6.85,2.6,5.4-6.2,5.42-6.26S440.32,242.24,440.32,242.24Z" transform="translate(-24.28 -77.01)"/><path class="cls-27" d="M419.42,252.09c-.51-1.52-3-.33-3.87.11-1.37.71-2.43,2.57-2.16,3.12s3.3-1.25,3.46-1.18-1.22,1.09-.91,1.58,2.32-.62,2.94-1.37A2,2,0,0,0,419.42,252.09Z" transform="translate(-24.28 -77.01)"/><path class="cls-12" d="M440.58,233.93s-.37-14.64-4.8-14.36c-5.82.37-2.27,15.1-2.27,15.1Z" transform="translate(-24.28 -77.01)"/><path class="cls-18" d="M433,213.86s-4.88-1-3.94-3.75c.37-1.12,1.89-3.93-.22-4.53s-2.14,5.62-2.14,5.62-1.08-5.15-1.24-5.47-1.76-3.09-5.48-.71c-.53.34-.26-7.56,7.76-7.71,5.86-.11,9.52,2.56,9.15,7.23S435.62,211.45,433,213.86Z" transform="translate(-24.28 -77.01)"/><path class="cls-18" d="M436,202.43s6.71-3.19,9.27.67-2.56,14.76,4.23,15.91c0,0-7,4-10.43-.85s-1.44-9.57-3.45-9.42" transform="translate(-24.28 -77.01)"/><path class="cls-44" d="M436.69,202.15a22.82,22.82,0,0,1-.5,6.79s-.2.59.39.58,1.53-6.06,1-7.62C437.42,201.58,436.69,202.15,436.69,202.15Z" transform="translate(-24.28 -77.01)"/><path class="cls-18" d="M187.9,234.58l-13.18,16.78-14.17-11.14,13.18-16.77a20.22,20.22,0,0,0-20.24,32l.1.12-53.74,66.6a6.12,6.12,0,1,0,9.62,7.56l52-68,.13.06a20.22,20.22,0,0,0,26.29-27.22Zm-80.34,93a3.29,3.29,0,1,1-.56-4.62A3.31,3.31,0,0,1,107.56,327.56Z" transform="translate(-24.28 -77.01)"/><path class="cls-27" d="M111.59,321.64l16.7-.7.74-28.57-1.16-7.18-7.71-2.83-5,.94a5.84,5.84,0,0,0-4.73,5.94l1.81,20.22Z" transform="translate(-24.28 -77.01)"/><path class="cls-27" d="M117.21,277.89v5.75a8.56,8.56,0,0,0,4.05.72c1.53,0,1.88-.72,1.88-.72v-2.13Z" transform="translate(-24.28 -77.01)"/><path class="cls-27" d="M116.54,273.61c0,.21,0,.4,0,.59v.21c-.14,3.4,2,7,5.34,7.55h.19c.7.09,3.25.3,4.18-.73a8.64,8.64,0,0,0,2.07-4.93,19.1,19.1,0,0,0-.28-2.49c0-.47.26-2,.26-2.61,0-3-2-6.06-5.66-6.06C117.22,265.16,116.39,269.94,116.54,273.61Z" transform="translate(-24.28 -77.01)"/><path class="cls-45" d="M124.22,284.38" transform="translate(-24.28 -77.01)"/><path class="cls-27" d="M100.83,303c1.5,1.23,9.48-6.79,12.62-10.44s5-7.1,3.12-8.61-4.86.92-7.86,4.69S99.34,301.73,100.83,303Z" transform="translate(-24.28 -77.01)"/><path class="cls-27" d="M97.19,323.68c1.68.37,4.84-11.9,5.6-15.39s1.31-7.23-.57-7.64-3,3.22-3.71,6.71S95.51,323.32,97.19,323.68Z" transform="translate(-24.28 -77.01)"/><path class="cls-27" d="M98,320.5c-2-.58-2.58,3-2.75,4.19-.28,2,1.37,4.31,2.14,4.43s1.06-4.42,1.26-4.55-.2,2.3.54,2.34,1.07-2.93.75-4.16A2.6,2.6,0,0,0,98,320.5Z" transform="translate(-24.28 -77.01)"/><path class="cls-12" d="M111.45,295.48c-2.19,2.2-4.06,3.79-4.06,3.79l-1.21-1.07-2.87-2.54s8.41-15.1,13.78-12.17C120.57,285.39,115.47,291.45,111.45,295.48Z" transform="translate(-24.28 -77.01)"/><path class="cls-28" d="M111.45,295.48c-2.19,2.2-4.06,3.79-4.06,3.79l-1.21-1.07c.71-.68,3.28-3.36,3.52-6.79.28-4,1.69-5.81,1.69-5.81S111.44,292,111.45,295.48Z" transform="translate(-24.28 -77.01)"/><path class="cls-27" d="M121.93,319.67c-1.67.74-2.6,3.86-2,6.75a47.4,47.4,0,0,0,2.62,8.71c3.46,8.63,6.13,20.17,8.59,20.13s3.26-7.2.86-16.52c-2.17-8.43-4.16-19.48-6-20C125.08,318.43,123.38,319,121.93,319.67Z" transform="translate(-24.28 -77.01)"/><path class="cls-27" d="M131.91,353.42c-6.66-2.4-3.64,29.11-1.41,35.85s3.08-4.8,3.48-16.44S134.54,354.36,131.91,353.42Z" transform="translate(-24.28 -77.01)"/><path class="cls-27" d="M128.28,376.83c.07.12,1,14.48,1,14.48s4.25.35,4.25,0,.22-14.19.22-14.19Z" transform="translate(-24.28 -77.01)"/><path class="cls-27" d="M113.77,380.83c.07.12.55,10.48.55,10.48s4.25.35,4.25,0,.33-9.35.33-9.35Z" transform="translate(-24.28 -77.01)"/><path class="cls-27" d="M113.82,319.53c-1.76.35-3.18,3.19-3.1,6.16a50.11,50.11,0,0,0,1.13,9.15c2,9.25,2.7,21.18,5.11,21.7s4.39-6.32,3.57-16c-.74-8.76-.88-20.06-2.56-21C117.12,319,115.35,319.23,113.82,319.53Z" transform="translate(-24.28 -77.01)"/><path class="cls-27" d="M117.89,354.23c-6.56-2.79-4.73,28.87-2.78,35.73s3.12-4.62,4-16.22S120.47,355.33,117.89,354.23Z" transform="translate(-24.28 -77.01)"/><path class="cls-31" d="M129.15,319.53s5.64,29.32,5.51,34.58-.92,31.37-.92,31.37-5.12-.12-5.13-.15c-.09-.42-2.05-11.55-2.59-20.26-.33-5.5.72-9.76.56-10.62-.4-2.23-5.56-15.23-5.56-15.23s-.19,12.48-.19,15.52-2.08,30.74-2.08,30.74l-4.73,0s-2.21-16.73-2.21-20.68,1.14-10.13,1.09-10.94-7.42-26.42-2.36-34.11C117.19,309.69,129.15,319.53,129.15,319.53Z" transform="translate(-24.28 -77.01)"/><path class="cls-12" d="M130,322l-20.66.14s.49-18.88.5-23.12c0-12.09.92-14.12,3.78-15.47a9.68,9.68,0,0,1,3.48-.8h0c.42.12,1.53,1.21,5.78.35a12.06,12.06,0,0,1,4.7,1.49c1,.94,1.4,2.68,1.61,5.7,0,.42.07.86.09,1.33,0,.32.07.74.14,1.28a48.45,48.45,0,0,1,.27,6.51C129.52,306.15,129.22,321.31,130,322Z" transform="translate(-24.28 -77.01)"/><path class="cls-28" d="M129.39,292.94c-4.93-.86-6.38-4.15-6.38-4.15l3.41,0s1.37.72,2.74,1.57c0,.42.07.86.09,1.33C129.27,292,129.32,292.4,129.39,292.94Z" transform="translate(-24.28 -77.01)"/><path class="cls-27" d="M149.32,287.92c0-1.92-11.19-2.91-16-3s-8.55.73-8.54,3.08,3.79,3.12,8.56,3S149.33,289.85,149.32,287.92Z" transform="translate(-24.28 -77.01)"/><path class="cls-27" d="M158.14,268c-1.5-.82-7.95,10-9.65,13.07s-3.27,6.51-1.6,7.43,3.71-2.24,5.41-5.34S159.63,268.83,158.14,268Z" transform="translate(-24.28 -77.01)"/><path class="cls-27" d="M140.89,285.53l5.12-.19,3.68-6.26,3.4,2.56s-2.7,5.73-3.74,6.77-8.41,2.12-8.41,2.12Z" transform="translate(-24.28 -77.01)"/><path class="cls-12" d="M123,288.79s-3.31-5.69,8-4.49l9.89,1,.27,5.31S127.5,294.52,123,288.79Z" transform="translate(-24.28 -77.01)"/><path class="cls-18" d="M133.61,390.26s.44,1.53,3.15,3.52,3.42,1.56,3.48,2.3-11.25.13-11.25.13l.17-6.12A41.47,41.47,0,0,1,133.61,390.26Z" transform="translate(-24.28 -77.01)"/><path class="cls-18" d="M118.6,390.09a13.79,13.79,0,0,0,2.34,3.36c1.61,1.84,3,1.44,2.9,2.1s-9.69.22-9.69.22v-5.68Z" transform="translate(-24.28 -77.01)"/><path class="cls-27" d="M155.4,270.49a2.24,2.24,0,0,0,.28-1.77,12.27,12.27,0,0,1,0-2,1,1,0,0,1,.32-.78,1.1,1.1,0,0,1,.92.05,1.62,1.62,0,0,0,1.76-.27c.33-.4.77-1.39,1.22-1.64.09-.05.28-.31.61-.1.84.56.37,1.73.17,2.61a5,5,0,0,1-2,3.35,8.37,8.37,0,0,0-2.16,2" transform="translate(-24.28 -77.01)"/><path class="cls-18" d="M115.88,269.42c0-.35.05-.71.09-1.07.11-1.35.26-3.21,1.68-3.84a6,6,0,0,1,1.61-.37c2.67-.35,6.46-2.05,8.77.17.92.89,2.44,6-.87,6.62-1.68.34-.19,2.6-1.28,3.08s-1.15-1.16-1.52-1.83c-.18-.32-.33-.8-.8-.56-.3.16-.24.72-.27,1a34.28,34.28,0,0,1-.09,3.51c-.37,1.84-3.44,2.46-5.1,2.48-1.45,0-1.79-1.91-2-3A24.46,24.46,0,0,1,115.88,269.42Z" transform="translate(-24.28 -77.01)"/><path class="cls-46" d="M117.2,282.77h0Z" transform="translate(-24.28 -77.01)"/><path class="cls-47" d="M274.06,115.76a115.6,115.6,0,0,0-13.77,11.09c-2.67,2.51-5.39,5.49-5.56,9.15-.39,8.1,11.37,12.64,11.4,20.75,0,2.89-1.54,5.53-3.05,8-3.53,5.79-7.1,11.63-11.83,16.48" transform="translate(-24.28 -77.01)"/><polygon class="cls-48" points="251.23 37.63 266.6 26.36 259.19 22.96 252.75 30.35 251.23 37.63"/><polygon class="cls-49" points="247.77 20.81 251.23 37.63 257.42 28.21 289.05 7.09 247.77 20.81"/><polygon class="cls-50" points="240.62 14.79 247.77 20.81 289.05 7.09 240.62 14.79"/><polygon class="cls-51" points="257.42 28.21 267.76 38.25 289.05 7.09 257.42 28.21"/><path class="cls-25" d="M322.27,135.69a10.55,10.55,0,0,1,4.21,1.1l-1.16,1.53,7.72,1-3-7.17-1.17,1.55a14,14,0,0,0-6.67-1,13.3,13.3,0,0,0-7.43,3.11,12.82,12.82,0,0,0-4.16,6.54,12.43,12.43,0,0,0,.32,7.45,12,12,0,0,1,.64-7.12,11.35,11.35,0,0,1,4.41-5.24A10.82,10.82,0,0,1,322.27,135.69Z" transform="translate(-24.28 -77.01)"/><path class="cls-25" d="M334.68,150.27a12.55,12.55,0,0,0-.47-7.7,12.08,12.08,0,0,1-.49,7.39,11.38,11.38,0,0,1-4.56,5.43,10.9,10.9,0,0,1-6.57,1.62,10.78,10.78,0,0,1-4-1.17l1.12-1.49-7.72-.92,3.07,7.15,1.24-1.66a14,14,0,0,0,6.33,1.14,13.4,13.4,0,0,0,7.78-3A12.84,12.84,0,0,0,334.68,150.27Z" transform="translate(-24.28 -77.01)"/><path class="cls-25" d="M46.76,222.22a7.66,7.66,0,0,1,3,.78l-.83,1.1,5.5.68-2.15-5.11-.84,1.11A10.15,10.15,0,0,0,46.7,220a9.59,9.59,0,0,0-5.31,2.22,9.2,9.2,0,0,0-3,4.67,9.05,9.05,0,0,0,.23,5.31,8.6,8.6,0,0,1,.46-5.08,8.14,8.14,0,0,1,3.15-3.74A7.68,7.68,0,0,1,46.76,222.22Z" transform="translate(-24.28 -77.01)"/><path class="cls-25" d="M55.62,232.62a8.94,8.94,0,0,0-.34-5.49,8.61,8.61,0,0,1-.35,5.27,8.09,8.09,0,0,1-3.25,3.87A7.71,7.71,0,0,1,47,237.42a7.49,7.49,0,0,1-2.88-.83l.79-1.06-5.5-.66,2.18,5.1.89-1.19a9.87,9.87,0,0,0,4.52.82,9.56,9.56,0,0,0,5.54-2.16A9.15,9.15,0,0,0,55.62,232.62Z" transform="translate(-24.28 -77.01)"/><path class="cls-3" d="M384,108.48a7.54,7.54,0,0,1,3,.78l-.83,1.09,5.5.69-2.15-5.11-.84,1.11a9.92,9.92,0,0,0-4.76-.74,9.56,9.56,0,0,0-5.3,2.22,9.15,9.15,0,0,0-3,4.66,8.92,8.92,0,0,0,.23,5.32,8.6,8.6,0,0,1,.46-5.08,8.09,8.09,0,0,1,3.15-3.74A7.68,7.68,0,0,1,384,108.48Z" transform="translate(-24.28 -77.01)"/><path class="cls-3" d="M392.85,118.88a9,9,0,0,0-.34-5.49,8.64,8.64,0,0,1-.35,5.26,8.17,8.17,0,0,1-3.25,3.88,7.87,7.87,0,0,1-4.69,1.15,7.44,7.44,0,0,1-2.88-.83l.79-1.07-5.51-.65,2.19,5.1.89-1.19a10.07,10.07,0,0,0,4.51.82,9.59,9.59,0,0,0,5.55-2.16A9.25,9.25,0,0,0,392.85,118.88Z" transform="translate(-24.28 -77.01)"/></g></g></svg>