<svg xmlns="http://www.w3.org/2000/svg" xmlns:xlink="http://www.w3.org/1999/xlink" viewBox="0 0 2880.06 2800"><defs><style>.cls-1{isolation:isolate;}.cls-2{fill:#f4f7fa;}.cls-3{fill:#26264f;}.cls-4{fill:url(#linear-gradient);}.cls-5{fill:url(#linear-gradient-2);}.cls-19,.cls-30,.cls-6,.cls-7{fill:#fff;}.cls-7{opacity:0.48;}.cls-19,.cls-7{mix-blend-mode:soft-light;}.cls-8{fill:url(#linear-gradient-3);}.cls-9{opacity:0.67;}.cls-10{fill:url(#linear-gradient-4);}.cls-11{fill:#ebeff2;}.cls-12{fill:#d8dee8;}.cls-13{fill:url(#linear-gradient-5);}.cls-14{fill:url(#linear-gradient-6);}.cls-15{fill:url(#linear-gradient-7);}.cls-16{fill:url(#linear-gradient-8);}.cls-17{fill:url(#linear-gradient-9);}.cls-18{fill:url(#linear-gradient-10);}.cls-19,.cls-29{opacity:0.3;}.cls-20{fill:url(#linear-gradient-11);}.cls-21{fill:url(#linear-gradient-12);}.cls-22{opacity:0.4;fill:url(#linear-gradient-13);}.cls-22,.cls-29{mix-blend-mode:multiply;}.cls-23{fill:url(#linear-gradient-14);}.cls-24{fill:url(#linear-gradient-15);}.cls-25{fill:url(#linear-gradient-16);}.cls-26{fill:url(#linear-gradient-17);}.cls-27{fill:url(#linear-gradient-18);}.cls-28{fill:url(#linear-gradient-19);}.cls-29{fill:url(#linear-gradient-20);}.cls-30{opacity:0.68;}.cls-31{fill:url(#linear-gradient-21);}.cls-32{fill:url(#linear-gradient-22);}.cls-33{fill:url(#linear-gradient-23);}.cls-34{fill:url(#linear-gradient-24);}.cls-35{fill:url(#linear-gradient-25);}.cls-36{fill:url(#linear-gradient-26);}.cls-37{fill:url(#linear-gradient-27);}.cls-38{fill:url(#linear-gradient-28);}.cls-39{fill:url(#linear-gradient-29);}</style><linearGradient id="linear-gradient" x1="593.38" y1="2272.25" x2="2288.79" y2="2272.25" gradientUnits="userSpaceOnUse"><stop offset="0" stop-color="#444b8c"/><stop offset="1" stop-color="#26264f"/></linearGradient><linearGradient id="linear-gradient-2" x1="663.01" y1="2261.11" x2="2231.45" y2="2261.11" gradientUnits="userSpaceOnUse"><stop offset="0" stop-color="#aa80f9"/><stop offset="1" stop-color="#6165d7"/></linearGradient><linearGradient id="linear-gradient-3" x1="593.38" y1="2924.14" x2="3147.44" y2="2924.14" xlink:href="#linear-gradient"/><linearGradient id="linear-gradient-4" x1="1680.79" y1="1938.5" x2="2385.8" y2="1244.18" gradientUnits="userSpaceOnUse"><stop offset="0" stop-color="#e38ddd"/><stop offset="1" stop-color="#9571f6"/></linearGradient><linearGradient id="linear-gradient-5" x1="2000.83" y1="1284.94" x2="2209.59" y2="1284.94" gradientUnits="userSpaceOnUse"><stop offset="0" stop-color="#40447e"/><stop offset="1" stop-color="#3c3b6b"/></linearGradient><linearGradient id="linear-gradient-6" x1="2626.32" y1="1899.33" x2="2797.74" y2="1899.33" gradientTransform="translate(3937.45 -1176.53) rotate(76.72)" xlink:href="#linear-gradient-5"/><linearGradient id="linear-gradient-7" x1="2159.34" y1="848.12" x2="2422.32" y2="848.12" gradientUnits="userSpaceOnUse"><stop offset="0" stop-color="#ffc444"/><stop offset="1" stop-color="#f36f56"/></linearGradient><linearGradient id="linear-gradient-8" x1="1599.03" y1="1207.69" x2="2765.42" y2="1207.69" gradientUnits="userSpaceOnUse"><stop offset="0" stop-color="#fcb148"/><stop offset="0.05" stop-color="#fdba46"/><stop offset="0.14" stop-color="#ffc244"/><stop offset="0.32" stop-color="#ffc444"/><stop offset="0.48" stop-color="#fdb946"/><stop offset="0.78" stop-color="#f99c4d"/><stop offset="0.87" stop-color="#f8924f"/><stop offset="1" stop-color="#f8924f"/></linearGradient><linearGradient id="linear-gradient-9" x1="1803.86" y1="1833.84" x2="2560.58" y2="1833.84" xlink:href="#linear-gradient-8"/><linearGradient id="linear-gradient-10" x1="1944.12" y1="1307.37" x2="2633.16" y2="1307.37" xlink:href="#linear-gradient"/><linearGradient id="linear-gradient-11" x1="1116.66" y1="846.84" x2="1379.63" y2="846.84" xlink:href="#linear-gradient-7"/><linearGradient id="linear-gradient-12" x1="1086.64" y1="846.84" x2="1201.63" y2="846.84" xlink:href="#linear-gradient-7"/><linearGradient id="linear-gradient-13" x1="1803.86" y1="1833.84" x2="2307.87" y2="1833.84" xlink:href="#linear-gradient-8"/><linearGradient id="linear-gradient-14" x1="1655.72" y1="2036.98" x2="1728.63" y2="1472.86" gradientUnits="userSpaceOnUse"><stop offset="0" stop-color="#fcb148"/><stop offset="0.05" stop-color="#fdba46"/><stop offset="0.14" stop-color="#ffc244"/><stop offset="0.32" stop-color="#ffc444"/><stop offset="0.4" stop-color="#fec045"/><stop offset="0.71" stop-color="#faa34b"/><stop offset="0.87" stop-color="#f8924f"/><stop offset="1" stop-color="#f8924f"/></linearGradient><linearGradient id="linear-gradient-15" x1="1333.09" y1="1284.94" x2="1541.85" y2="1284.94" xlink:href="#linear-gradient-5"/><linearGradient id="linear-gradient-16" x1="1958.58" y1="1899.33" x2="2129.99" y2="1899.33" gradientTransform="translate(1941.79 -889.23) rotate(45)" xlink:href="#linear-gradient-5"/><linearGradient id="linear-gradient-17" x1="2255.99" y1="1903.2" x2="2386.42" y2="1903.2" xlink:href="#linear-gradient-5"/><linearGradient id="linear-gradient-18" x1="2093.91" y1="1976.99" x2="2584.37" y2="1976.99" xlink:href="#linear-gradient-2"/><linearGradient id="linear-gradient-19" x1="2381.58" y1="1863.51" x2="3073.94" y2="1863.51" xlink:href="#linear-gradient-2"/><linearGradient id="linear-gradient-20" x1="2381.58" y1="1863.51" x2="2916.94" y2="1863.51" xlink:href="#linear-gradient-2"/><linearGradient id="linear-gradient-21" x1="2622.5" y1="2138.62" x2="2123.45" y2="2954.46" gradientUnits="userSpaceOnUse"><stop offset="0" stop-color="#ff9085"/><stop offset="1" stop-color="#fb6fbb"/></linearGradient><linearGradient id="linear-gradient-22" x1="1789.24" y1="2147.37" x2="1673.86" y2="2507.41" xlink:href="#linear-gradient-21"/><linearGradient id="linear-gradient-23" x1="1882.59" y1="2262.28" x2="1818.21" y2="2463.18" xlink:href="#linear-gradient-21"/><linearGradient id="linear-gradient-24" x1="1985.47" y1="2313.86" x2="1945.26" y2="2439.33" xlink:href="#linear-gradient-21"/><linearGradient id="linear-gradient-25" x1="2154.06" y1="1986.28" x2="1977.62" y2="2536.87" xlink:href="#linear-gradient-21"/><linearGradient id="linear-gradient-26" x1="2255.39" y1="2027.59" x2="2098.72" y2="2516.53" xlink:href="#linear-gradient-21"/><linearGradient id="linear-gradient-27" x1="2376.63" y1="1947.86" x2="2188.48" y2="2535.01" xlink:href="#linear-gradient-21"/><linearGradient id="linear-gradient-28" x1="2461.9" y1="2061.41" x2="2323.99" y2="2491.77" xlink:href="#linear-gradient-21"/><linearGradient id="linear-gradient-29" x1="2543.65" y1="2186" x2="2460.62" y2="2445.11" xlink:href="#linear-gradient-21"/></defs><title>auto-bot</title><g class="cls-1"><g id="Illustration"><path class="cls-2" d="M1901.84,455.64C1164.56,433.87,525.92,968.84,429.43,1670.79c-105.5,767.48,475.14,1458,1189.58,1568.64,888.66,137.57,1750.6-658.29,1673.2-1521.69C3233.9,1067.25,2651.31,477.77,1901.84,455.64Z" transform="translate(-417 -455)"/><path class="cls-3" d="M3147.44,2905.56,593.38,2883.79v64.42c0,17.48,11.14,32.35,26.23,35l722.21,126.84a100.92,100.92,0,0,0,25.91,1.19l1752-144.62c15.65-1.29,27.76-16.2,27.76-34.17Z" transform="translate(-417 -455)"/><path class="cls-3" d="M2220.58,2802.34,619.79,2920.18c-28.64,2.1-51.93-20.3-51.93-50.06V1678.06c0-29.75,23.29-53.87,51.93-53.87H2220.58c23.6,0,42.68,21.8,42.68,48.7v1077.6C2263.26,2777.39,2244.18,2800.6,2220.58,2802.34Z" transform="translate(-417 -455)"/><path class="cls-4" d="M2246.11,2802.34,645.32,2920.18c-28.65,2.1-51.94-20.3-51.94-50.06V1678.06c0-29.75,23.29-53.87,51.94-53.87H2246.11c23.6,0,42.68,21.8,42.68,48.7v1077.6C2288.79,2777.39,2269.71,2800.6,2246.11,2802.34Z" transform="translate(-417 -455)"/><path class="cls-5" d="M2196.24,2726.36l-1491,102.36c-23.31,1.6-42.26-16.79-42.26-41.08V1744c0-24.29,19-44.06,42.26-44.16l1491-6.43c19.46-.09,35.21,17.78,35.21,39.91v950.58C2231.45,2706,2215.7,2725,2196.24,2726.36Z" transform="translate(-417 -455)"/><path class="cls-6" d="M1502.25,1656.79c0,11.08-8.24,20.08-18.42,20.12s-18.45-8.94-18.45-20.05,8.27-20.1,18.45-20.11S1502.25,1645.72,1502.25,1656.79Z" transform="translate(-417 -455)"/><path class="cls-7" d="M645.31,2920.18,2238,2802.93l8.11-.59c10.82-.8,20.67-6.15,28.19-14.27-114.61-6.28-185.8-47-231.72-89-92.22-84.39-76.22-167.62-175.67-223.11-124-69.22-221.57,18.49-315.7-68.05-57.06-52.46-29-91.58-99.26-170-77.77-86.83-128.4-57.64-206.56-135.79-98.82-98.82-49.4-175.69-134.52-246.64-103.27-86.06-214.64-6.41-312.95-88.94-42.4-35.6-65.66-87.36-77.81-142.4H645.32c-28.65,0-51.94,24.12-51.94,53.87V2870.12C593.38,2899.88,616.67,2922.28,645.31,2920.18Z" transform="translate(-417 -455)"/><path class="cls-8" d="M2309.91,2795.8l-1716.53,124,748.44,131.45a101.82,101.82,0,0,0,25.91,1.19l1779.71-146.92-810.23-108.92A132.6,132.6,0,0,0,2309.91,2795.8Z" transform="translate(-417 -455)"/><polygon class="cls-3" points="426.85 2465.9 1855.91 2361.1 2298.19 2420.08 881.44 2532.11 426.85 2465.9"/><g class="cls-9"><path class="cls-6" d="M1218,2148.34c30.45-59.19,87.34-102.25,153.81-112l4.63-286.87c-189.94,9.47-354.92,132.53-429.23,305.61Z" transform="translate(-417 -455)"/><path class="cls-6" d="M1588.39,2266c-16,95.4-96.07,171.34-193.4,176.1a189.51,189.51,0,0,1-81.26-13.76l-149.15,254c69.07,33.91,147.64,50.51,230.41,45.15,244.26-15.82,440.08-217.8,462-460.74Z" transform="translate(-417 -455)"/><path class="cls-6" d="M1118.3,2656.21l149.9-254.45c-45-35.66-73.91-91.73-73.91-156a212.26,212.26,0,0,1,4.9-45.33L927.83,2108a509.93,509.93,0,0,0-22.14,148.72C905.69,2427.32,990.35,2573.44,1118.3,2656.21Z" transform="translate(-417 -455)"/></g><path class="cls-10" d="M1424.66,2035.88c88.84,11.37,157.63,84,165.82,176.34l442.73,2.64c0-.2,0-.41,0-.61,0-349.6-260.87-635-600.89-654.49Z" transform="translate(-417 -455)"/><path class="cls-11" d="M570.14,766v720.51c0,23.92,19.78,43.31,44.16,43.31H2097a42.47,42.47,0,0,0,42.49-42.46V780.89Z" transform="translate(-417 -455)"/><path class="cls-12" d="M2097,690.76,614.3,675c-24.38-.26-44.16,18.92-44.16,42.84v73.83l1569.37,14.44V733.68A43,43,0,0,0,2097,690.76Z" transform="translate(-417 -455)"/><path class="cls-12" d="M932.23,1151l81.71-280.24c123.65,40.26,213,154.89,213.71,289.6Z" transform="translate(-417 -455)"/><path class="cls-6" d="M1151.28,1177.76c-4.59,64.07-35.84,120.81-82.92,159.53L940.11,1170.84Z" transform="translate(-417 -455)"/><path class="cls-6" d="M914,1141.35c-49.48-46.89-109.15-103.56-156.59-148.82a233.8,233.8,0,0,1,161.48-62.38,237.91,237.91,0,0,1,55,6.83Z" transform="translate(-417 -455)"/><path class="cls-6" d="M903.64,1158.88,724.21,1287.81a227.31,227.31,0,0,1,19.2-281.14q19.71,18.78,43.75,41.66C835.65,1094.44,884.36,1140.62,903.64,1158.88Z" transform="translate(-417 -455)"/><path class="cls-6" d="M908.84,1179.63,905.37,1390a235.73,235.73,0,0,1-169.24-86.24Z" transform="translate(-417 -455)"/><path class="cls-6" d="M928.72,1188.61l123.79,160.61a234,234,0,0,1-127.11,41.11Z" transform="translate(-417 -455)"/><polygon class="cls-6" points="1612.31 554.55 852.49 549.53 852.49 478.27 1612.31 483.97 1612.31 554.55"/><polygon class="cls-6" points="1612.31 682.27 852.49 678.49 852.49 607.22 1612.31 611.69 1612.31 682.27"/><polygon class="cls-6" points="1612.31 809.99 852.49 807.44 852.49 736.18 1612.31 739.41 1612.31 809.99"/><polygon class="cls-6" points="1612.31 937.71 852.49 936.39 852.49 865.13 1612.31 867.13 1612.31 937.71"/><path class="cls-6" d="M671.52,733.27a19.19,19.19,0,0,1-19.6,19,19.66,19.66,0,0,1-19.6-19.43,19.19,19.19,0,0,1,19.6-19A19.65,19.65,0,0,1,671.52,733.27Z" transform="translate(-417 -455)"/><rect class="cls-6" x="2588.41" y="1673.27" width="100.96" height="330.03" transform="translate(-760.97 2585.6) rotate(-56.81)"/><circle class="cls-13" cx="2105.21" cy="1284.94" r="104.38"/><circle class="cls-14" cx="2712.03" cy="1899.33" r="85.71" transform="translate(-176.59 3647.43) rotate(-76.72)"/><ellipse class="cls-15" cx="2290.83" cy="848.12" rx="131.49" ry="184.78"/><path class="cls-16" d="M2306,855.38H2058.49c-253.76,0-459.46,205.7-459.46,459.46h0c0,135.4,109.76,245.17,245.17,245.17h676.05c135.4,0,245.17-109.77,245.17-245.17h0C2765.42,1061.09,2559.71,855.38,2306,855.38Z" transform="translate(-417 -455)"/><path class="cls-17" d="M2262.5,2062.41H2102c-164.63,0-298.09-133.45-298.09-298.08h0a159.06,159.06,0,0,1,159.06-159.06h438.61a159.05,159.05,0,0,1,159,159.06h0C2560.58,1929,2427.13,2062.41,2262.5,2062.41Z" transform="translate(-417 -455)"/><path class="cls-18" d="M2530.59,1460.91H2060.18c-63.75,0-116.06-48.87-116.06-109.15v-92.43c0-60.28,52.31-107.47,116.06-105.44l470.41,15c56.94,1.81,102.57,48.68,102.57,104.69v85.89C2633.16,1415.5,2587.53,1460.91,2530.59,1460.91Z" transform="translate(-417 -455)"/><path class="cls-6" d="M2210.9,1300.64c0,40.26-34.27,72.46-76.89,71.92-43-.54-78.14-34.16-78.14-75.07s35.14-73.1,78.14-71.89C2176.63,1226.79,2210.9,1260.39,2210.9,1300.64Z" transform="translate(-417 -455)"/><path class="cls-6" d="M2528.8,1307.1c0,38.91-32,70-71.79,69.54-40.13-.51-72.92-33-72.92-72.48s32.79-70.64,72.92-69.51C2496.8,1235.76,2528.8,1268.2,2528.8,1307.1Z" transform="translate(-417 -455)"/><path class="cls-19" d="M2352.94,1495.56c-70-82.2-38.88-147.94-130.34-259.33C2096.75,1083,1949.94,1100.3,1916.31,996.34c-9.32-28.81-10.39-68.34,14.6-123-191.68,55.29-331.88,232-331.88,441.5h0c0,135.4,109.76,245.17,245.17,245.17h589.17C2398.08,1540.77,2372.29,1518.3,2352.94,1495.56Z" transform="translate(-417 -455)"/><ellipse class="cls-20" cx="1248.15" cy="846.84" rx="131.49" ry="184.78"/><ellipse class="cls-21" cx="1144.13" cy="846.84" rx="57.5" ry="80.8"/><path class="cls-22" d="M2302,1898.31c-22-103.44-265.68-101-272.3-168.57-5.11-52.12,134.78-103.73,152.36-110.21,15-5.55,30-10.24,44.73-14.26H1962.92a159.06,159.06,0,0,0-159.06,159.06h0c0,164.63,133.46,298.08,298.09,298.08H2262.5a300.21,300.21,0,0,0,45.37-3.43c-14-17.32-23.08-36.26-25.28-56.93C2277.71,1956.22,2310.58,1938.4,2302,1898.31Z" transform="translate(-417 -455)"/><ellipse class="cls-23" cx="1769.18" cy="1159.13" rx="253.57" ry="30.7"/><rect class="cls-6" x="1920.66" y="1673.27" width="100.96" height="330.03" transform="translate(-1063.23 2026.76) rotate(-56.81)"/><circle class="cls-24" cx="1437.47" cy="1284.94" r="104.38"/><polygon class="cls-6" points="1675.9 1415.81 1917.67 1415.81 1908.07 1515.85 1671.1 1507.92 1675.9 1415.81"/><circle class="cls-25" cx="2044.29" cy="1899.33" r="85.71" transform="translate(-1161.27 1546.83) rotate(-45)"/><path class="cls-26" d="M2355.75,1868c-14.65-8.2-35.34-14-64.45-12.91a28.08,28.08,0,0,0-26.88,24.74L2256,1951.4h124.73l4.07-17.09A60,60,0,0,0,2355.75,1868Z" transform="translate(-417 -455)"/><path class="cls-27" d="M2576,1953.1l-449.93-7.77a18.85,18.85,0,0,0-15.65,7.86l-13.72,19.1a14.59,14.59,0,0,0,11.45,23.11l476.24,13.25Z" transform="translate(-417 -455)"/><path class="cls-28" d="M3058.92,1734.14,2595,1712.54a39,39,0,0,0-34.34,17.47l-179.08,271.71,490.63,12.79a39.91,39.91,0,0,0,33.87-17.19l165-238.53A15.72,15.72,0,0,0,3058.92,1734.14Z" transform="translate(-417 -455)"/><path class="cls-29" d="M2560.66,1730a39,39,0,0,1,34.34-17.47l10.16.47c.53,15.06,4.22,29,12.64,40.69,26.29,36.38,75.16,18.24,108.13,57.07,36.22,42.65-2.83,88,29.45,127.61,34,41.69,95.24,13.62,161.56,43.23l-10.86,15.71a39.91,39.91,0,0,1-33.87,17.19l-490.63-12.79Z" transform="translate(-417 -455)"/><path class="cls-30" d="M1971.14,2310.48v601.05c0,20,14.92,35.35,33.28,34.38l1056.67-55.48c15.83-.83,28.64-16.48,28.64-34.95V2299Z" transform="translate(-417 -455)"/><path class="cls-31" d="M3061.09,2228.55,2004.42,2234c-18.36.1-33.28,16.35-33.28,36.3v61.59l1118.59-13v-57C3089.73,2243.38,3076.92,2228.47,3061.09,2228.55Z" transform="translate(-417 -455)"/><path class="cls-6" d="M2047.37,2281.74c0,8.82-6.57,16-14.69,16.12s-14.71-7-14.71-15.88,6.59-16.06,14.71-16.12S2047.37,2272.91,2047.37,2281.74Z" transform="translate(-417 -455)"/><polygon class="cls-6" points="1782.28 2402.9 1699.14 2406.83 1699.14 1960.06 1782.28 1958.62 1782.28 2402.9"/><polygon class="cls-32" points="1782.28 2402.9 1699.14 2406.83 1699.14 2194.71 1782.28 2191.97 1782.28 2402.9"/><polygon class="cls-6" points="1896.44 2397.5 1814.57 2401.37 1814.57 1958.06 1896.44 1956.64 1896.44 2397.5"/><polygon class="cls-33" points="1896.44 2397.5 1814.57 2401.37 1814.57 2296.14 1896.44 2292.85 1896.44 2397.5"/><polygon class="cls-6" points="2008.85 2392.19 1928.23 2396 1928.23 1956.09 2008.85 1954.69 2008.85 2392.19"/><polygon class="cls-34" points="2008.85 2392.19 1928.23 2396 1928.23 2341.18 2008.85 2337.67 2008.85 2392.19"/><polygon class="cls-6" points="2119.56 2386.96 2040.15 2390.71 2040.15 1954.15 2119.56 1952.77 2119.56 2386.96"/><polygon class="cls-35" points="2119.56 2386.96 2040.15 2390.71 2040.15 2048.71 2119.56 2046.82 2119.56 2386.96"/><polygon class="cls-6" points="2228.6 2381.8 2150.39 2385.5 2150.39 1952.24 2228.6 1950.88 2228.6 2381.8"/><polygon class="cls-36" points="2228.6 2381.8 2150.39 2385.5 2150.39 2084.66 2228.6 2082.59 2228.6 2381.8"/><polygon class="cls-6" points="2336.02 2376.73 2258.97 2380.37 2258.97 1950.35 2336.02 1949.02 2336.02 2376.73"/><polygon class="cls-37" points="2336.02 2376.73 2258.97 2380.37 2258.97 2012.88 2336.02 2011.21 2336.02 2376.73"/><polygon class="cls-6" points="2441.84 2371.72 2365.94 2375.31 2365.94 1948.5 2441.84 1947.18 2441.84 2371.72"/><polygon class="cls-38" points="2441.84 2371.72 2365.94 2375.31 2365.94 2113.14 2441.84 2110.95 2441.84 2371.72"/><polygon class="cls-6" points="2546.11 2366.8 2471.33 2370.33 2471.33 1946.67 2546.11 1945.38 2546.11 2366.8"/><polygon class="cls-39" points="2546.11 2366.8 2471.33 2370.33 2471.33 2223.24 2546.11 2220.49 2546.11 2366.8"/></g></g></svg>