<svg xmlns="http://www.w3.org/2000/svg" xmlns:xlink="http://www.w3.org/1999/xlink" viewBox="0 0 2755.41 2765.18"><defs><style>.cls-1{fill:none;}.cls-2{isolation:isolate;}.cls-3{fill:#f4f7fa;}.cls-4{fill:url(#linear-gradient);}.cls-5{clip-path:url(#clip-path);}.cls-6{opacity:0.8;}.cls-13,.cls-6{mix-blend-mode:soft-light;}.cls-7{fill:#fcfdfe;}.cls-8{clip-path:url(#clip-path-2);}.cls-9{fill:url(#linear-gradient-2);}.cls-10{fill:#bfc8d6;}.cls-11,.cls-13{fill:#fff;}.cls-12{fill:#d8dee8;}.cls-13{opacity:0.48;}.cls-14{fill:url(#linear-gradient-3);}.cls-15{clip-path:url(#clip-path-3);}.cls-16{fill:url(#linear-gradient-4);}.cls-17{fill:url(#linear-gradient-5);}.cls-18{fill:url(#linear-gradient-6);}.cls-19{fill:url(#linear-gradient-7);}.cls-20{fill:url(#linear-gradient-8);}.cls-21{fill:url(#linear-gradient-9);}.cls-22{fill:url(#linear-gradient-10);}.cls-23{fill:url(#linear-gradient-11);}.cls-24{fill:url(#linear-gradient-12);}.cls-25,.cls-27,.cls-30,.cls-35,.cls-39,.cls-43,.cls-53,.cls-56,.cls-91{opacity:0.3;}.cls-25,.cls-27,.cls-30,.cls-35,.cls-39,.cls-43,.cls-53,.cls-56,.cls-73,.cls-82,.cls-91{mix-blend-mode:multiply;}.cls-25{fill:url(#linear-gradient-13);}.cls-26{fill:url(#linear-gradient-14);}.cls-27{fill:url(#linear-gradient-15);}.cls-28{fill:url(#linear-gradient-16);}.cls-29{fill:url(#linear-gradient-17);}.cls-30{fill:url(#linear-gradient-18);}.cls-31{fill:url(#linear-gradient-19);}.cls-32{fill:url(#linear-gradient-20);}.cls-33{clip-path:url(#clip-path-4);}.cls-34{fill:url(#linear-gradient-21);}.cls-35{fill:url(#linear-gradient-22);}.cls-36{fill:url(#linear-gradient-23);}.cls-37{fill:url(#linear-gradient-24);}.cls-38{fill:url(#linear-gradient-25);}.cls-39{fill:url(#linear-gradient-26);}.cls-40{fill:url(#linear-gradient-27);}.cls-41{fill:url(#linear-gradient-28);}.cls-42{fill:url(#linear-gradient-29);}.cls-44{fill:url(#linear-gradient-30);}.cls-45{fill:url(#linear-gradient-31);}.cls-46{fill:url(#linear-gradient-32);}.cls-47{fill:url(#linear-gradient-33);}.cls-48{fill:url(#linear-gradient-34);}.cls-49{fill:url(#linear-gradient-35);}.cls-50{fill:url(#linear-gradient-36);}.cls-51{fill:url(#linear-gradient-37);}.cls-52{fill:url(#linear-gradient-38);}.cls-53{fill:url(#linear-gradient-39);}.cls-54{fill:url(#linear-gradient-40);}.cls-55{fill:url(#linear-gradient-41);}.cls-56{fill:url(#linear-gradient-42);}.cls-57{fill:url(#linear-gradient-43);}.cls-58{fill:url(#linear-gradient-44);}.cls-59{fill:url(#linear-gradient-45);}.cls-60{fill:url(#linear-gradient-46);}.cls-61{fill:url(#linear-gradient-47);}.cls-62{fill:url(#linear-gradient-48);}.cls-63{fill:url(#linear-gradient-49);}.cls-64{fill:url(#linear-gradient-50);}.cls-65{fill:url(#linear-gradient-51);}.cls-66{fill:url(#linear-gradient-52);}.cls-67{fill:url(#linear-gradient-53);}.cls-68{fill:url(#linear-gradient-54);}.cls-69{fill:url(#linear-gradient-55);}.cls-70{fill:#26264f;}.cls-71{fill:url(#linear-gradient-56);}.cls-72{fill:url(#linear-gradient-57);}.cls-73{opacity:0.4;fill:url(#linear-gradient-58);}.cls-74{fill:url(#linear-gradient-59);}.cls-75{fill:url(#linear-gradient-60);}.cls-76{fill:url(#linear-gradient-61);}.cls-77{fill:url(#linear-gradient-62);}.cls-78{fill:url(#linear-gradient-63);}.cls-79{fill:url(#linear-gradient-64);}.cls-80{fill:url(#linear-gradient-65);}.cls-81{fill:url(#linear-gradient-66);}.cls-82{opacity:0.25;fill:url(#linear-gradient-67);}.cls-83{fill:#444b8c;}.cls-84{fill:url(#linear-gradient-68);}.cls-85{fill:url(#linear-gradient-69);}.cls-86{fill:url(#linear-gradient-70);}.cls-87{fill:url(#linear-gradient-71);}.cls-88{fill:url(#linear-gradient-72);}.cls-89{fill:url(#linear-gradient-73);}.cls-90{fill:url(#linear-gradient-74);}.cls-91{fill:url(#linear-gradient-75);}</style><linearGradient id="linear-gradient" x1="-4426.48" y1="-5211.35" x2="-3932.52" y2="-2053.52" gradientTransform="matrix(0.58, -0.81, 0.81, 0.58, 7198.02, 659.31)" gradientUnits="userSpaceOnUse"><stop offset="0" stop-color="#aa80f9"/><stop offset="1" stop-color="#6165d7"/></linearGradient><clipPath id="clip-path" transform="translate(-430.69 -433.3)"><path class="cls-1" d="M1858.42,1763.09c-.14,124.29,4.84,250.76,5.38,375.92-65.49,27.21-143.19,57.62-184.82-20.25-57.88-108.27-271.8-88-366.78-59.79-117.55,34.9-378.66,86.74-378.31-93.58.29-150.11,60-242.49-119.72-279.14s-278.44-134.82-253.64-300.88c26.09-174.75-187.51-331-73.19-474.18,199.19-249.53,531.19,126.58,592,371.64s175.08,150.83,344.5,148.11c231.29-3.72,115,248.56,222.68,317.18C1731,1801.91,1774.46,1773,1858.42,1763.09Z"/></clipPath><clipPath id="clip-path-2" transform="translate(-430.69 -433.3)"><path class="cls-1" d="M1485.89,2220.24q142-17.28,283.63-40c1.53,1.14,32.56-169.16-65.18-258.48-193.27-173-63.09-328.31-25.95-420.32,59.43-129.75,29-287.46-143.7-257.92C1366.48,1269,1341,982.37,1370,761.55c24.78-107.47-97.73-237.87-220-267.67-124.82-33-249.37,34.56-287.54,248.79-57.79,248,160.92,397.61,241.9,522,79.69,122.07-105.68,220.84,43.52,329,125.5,96.11,283.67,165.2,225.81,285.92C1314.24,1998.93,1328.48,2096.52,1485.89,2220.24Z"/></clipPath><linearGradient id="linear-gradient-2" x1="-849.25" y1="-2317.37" x2="-1418.83" y2="-698.57" gradientTransform="translate(3060.89 2110.01) rotate(-29.84)" gradientUnits="userSpaceOnUse"><stop offset="0" stop-color="#ffc444"/><stop offset="1" stop-color="#f36f56"/></linearGradient><linearGradient id="linear-gradient-3" x1="682.15" y1="2204.59" x2="3017.93" y2="2204.59" gradientUnits="userSpaceOnUse"><stop offset="0.49" stop-color="#ebeff2"/><stop offset="1" stop-color="#fff"/></linearGradient><clipPath id="clip-path-3" transform="translate(-430.69 -433.3)"><path class="cls-1" d="M1044.43,2095.05l855.7-60.12L2924.9,1668l42-933.91H660S560.21,1998.08,1044.43,2095.05Z"/></clipPath><linearGradient id="linear-gradient-4" x1="-3156.47" y1="2096.09" x2="-2796.4" y2="1264.11" gradientTransform="translate(4861.85)" gradientUnits="userSpaceOnUse"><stop offset="0" stop-color="#ff9085"/><stop offset="1" stop-color="#fb6fbb"/></linearGradient><linearGradient id="linear-gradient-5" x1="-3569.03" y1="1958.73" x2="-3037.2" y2="729.89" xlink:href="#linear-gradient-4"/><linearGradient id="linear-gradient-6" x1="-2570.46" y1="2815.82" x2="-2556.77" y2="2451.14" gradientTransform="translate(5032.88 -183) rotate(26.56)" xlink:href="#linear-gradient-2"/><linearGradient id="linear-gradient-7" x1="4929.66" y1="1351.2" x2="4836.84" y2="1115.45" gradientTransform="matrix(-0.96, -0.28, -0.28, 0.96, 6578.9, 1144.6)" gradientUnits="userSpaceOnUse"><stop offset="0" stop-color="#444b8c"/><stop offset="1" stop-color="#26264f"/></linearGradient><linearGradient id="linear-gradient-8" x1="-3404.46" y1="923.73" x2="-3408.73" y2="1267.66" gradientTransform="translate(5118.04 771.11) rotate(12.76)" xlink:href="#linear-gradient-2"/><linearGradient id="linear-gradient-9" x1="4901.3" y1="1362.49" x2="4808.39" y2="1126.5" xlink:href="#linear-gradient-7"/><linearGradient id="linear-gradient-10" x1="4810.37" y1="1220.29" x2="4815.2" y2="1263.37" gradientTransform="matrix(-0.96, -0.28, -0.28, 0.96, 6578.9, 1144.6)" gradientUnits="userSpaceOnUse"><stop offset="0" stop-color="#ffc444"/><stop offset="1" stop-color="#f36f56"/></linearGradient><linearGradient id="linear-gradient-11" x1="-3630.46" y1="1703.69" x2="-3605.77" y2="1779.04" gradientTransform="translate(4861.85)" xlink:href="#linear-gradient-2"/><linearGradient id="linear-gradient-12" x1="-3976.56" y1="1782.36" x2="-3444.73" y2="553.51" xlink:href="#linear-gradient-4"/><linearGradient id="linear-gradient-13" x1="-3471.27" y1="2001.04" x2="-2939.44" y2="772.18" xlink:href="#linear-gradient-4"/><linearGradient id="linear-gradient-14" x1="-4999.07" y1="1402.48" x2="-5256.18" y2="1705.7" gradientTransform="matrix(0.97, 0.24, -0.24, 0.97, 7414.69, 1080.45)" gradientUnits="userSpaceOnUse"><stop offset="0" stop-color="#311944"/><stop offset="1" stop-color="#893976"/></linearGradient><linearGradient id="linear-gradient-15" x1="-5031" y1="1375.41" x2="-5297.47" y2="1689.68" xlink:href="#linear-gradient-14"/><linearGradient id="linear-gradient-16" x1="-2604.99" y1="1232.74" x2="-2752.53" y2="1406.73" gradientTransform="translate(3311.12 3771.91) rotate(90)" gradientUnits="userSpaceOnUse"><stop offset="0" stop-color="#e38ddd"/><stop offset="1" stop-color="#9571f6"/></linearGradient><linearGradient id="linear-gradient-17" x1="-4999.05" y1="863.25" x2="-4776.56" y2="2093.91" gradientTransform="matrix(0.97, 0.24, -0.24, 0.97, 7414.69, 1080.45)" xlink:href="#linear-gradient"/><linearGradient id="linear-gradient-18" x1="-5061.18" y1="938.03" x2="-4853.98" y2="2084.12" gradientTransform="matrix(0.97, 0.24, -0.24, 0.97, 7414.69, 1080.45)" xlink:href="#linear-gradient"/><linearGradient id="linear-gradient-19" x1="4194.03" y1="1040.18" x2="3723.32" y2="1595.3" gradientTransform="matrix(0, -1, -1, 0, 3936.4, 5205.11)" xlink:href="#linear-gradient-16"/><linearGradient id="linear-gradient-20" x1="4339.51" y1="1308.04" x2="3693.73" y2="1324.49" gradientTransform="matrix(-0.97, -0.24, -0.24, 0.97, 6778.39, 921.96)" xlink:href="#linear-gradient-14"/><clipPath id="clip-path-4" transform="translate(-430.69 -433.3)"><path class="cls-1" d="M2525.16,1623.32c34.47,8.56,70.63,7.77,107.46-2.35,37.49-10.3,73.89-29.62,108.18-57.44,72.07-58.48,125.76-147,151.16-249.28s19.39-205.64-16.95-291c-17.28-40.63-40.41-74.74-68.72-101.38-27.82-26.18-59.41-43.79-93.87-52.35s-70.63-7.78-107.46,2.34c-37.5,10.3-73.89,29.62-108.18,57.44-72.07,58.48-125.76,147-151.16,249.29s-19.39,205.64,17,291c17.28,40.63,40.41,74.74,68.72,101.38C2459.11,1597.14,2490.7,1614.76,2525.16,1623.32Z"/></clipPath><linearGradient id="linear-gradient-21" x1="-4849.89" y1="931.95" x2="-4708.51" y2="1713.97" gradientTransform="matrix(0.97, 0.24, -0.24, 0.97, 7414.69, 1080.45)" xlink:href="#linear-gradient-2"/><linearGradient id="linear-gradient-22" x1="-4750.51" y1="1033.84" x2="-4646.6" y2="1608.56" gradientTransform="matrix(0.97, 0.24, -0.24, 0.97, 7414.69, 1080.45)" xlink:href="#linear-gradient-2"/><linearGradient id="linear-gradient-23" x1="-2016.7" y1="1727.83" x2="-1923.89" y2="1949.04" gradientTransform="translate(4799.89 1225.7) rotate(35.99)" xlink:href="#linear-gradient-2"/><linearGradient id="linear-gradient-24" x1="1009.16" y1="1323.14" x2="1046.55" y2="1337.02" gradientTransform="translate(83.12)" xlink:href="#linear-gradient-7"/><linearGradient id="linear-gradient-25" x1="904.43" y1="1451.64" x2="1008.59" y2="1626.29" gradientTransform="translate(83.12)" xlink:href="#linear-gradient"/><linearGradient id="linear-gradient-26" x1="920.54" y1="1442.03" x2="1024.69" y2="1616.69" gradientTransform="translate(83.12)" xlink:href="#linear-gradient"/><linearGradient id="linear-gradient-27" x1="1085.74" y1="1521.99" x2="1378.97" y2="1747.92" gradientTransform="translate(-347.57 -433.3)" xlink:href="#linear-gradient"/><linearGradient id="linear-gradient-28" x1="1077.3" y1="1428.87" x2="1082.12" y2="1430.66" gradientTransform="translate(1417.97 -352.9) rotate(45)" xlink:href="#linear-gradient-7"/><linearGradient id="linear-gradient-29" x1="1143.36" y1="1258.7" x2="1173.27" y2="1449.39" gradientTransform="translate(83.12)" xlink:href="#linear-gradient-7"/><linearGradient id="linear-gradient-30" x1="1089.53" y1="1517.07" x2="1382.76" y2="1743" gradientTransform="translate(83.12)" xlink:href="#linear-gradient"/><linearGradient id="linear-gradient-31" x1="1233.04" y1="1427.76" x2="1237.85" y2="1429.55" gradientTransform="translate(1462.8 -463.35) rotate(45)" xlink:href="#linear-gradient-7"/><linearGradient id="linear-gradient-32" x1="1201.45" y1="1713.04" x2="1280.22" y2="1773.73" gradientTransform="matrix(1, 0, 0, 1, 0, 0)" xlink:href="#linear-gradient-2"/><linearGradient id="linear-gradient-33" x1="2356.68" y1="2118.12" x2="2419.11" y2="2234.55" gradientUnits="userSpaceOnUse"><stop offset="0" stop-color="#ffc444"/><stop offset="0.46" stop-color="#ffc244"/><stop offset="0.63" stop-color="#febb46"/><stop offset="0.75" stop-color="#fcb048"/><stop offset="0.84" stop-color="#fa9f4c"/><stop offset="0.93" stop-color="#f78951"/><stop offset="1" stop-color="#f36f56"/></linearGradient><linearGradient id="linear-gradient-34" x1="2038.65" y1="2955.76" x2="1985.45" y2="2780.36" gradientTransform="matrix(-0.99, 0.12, 0.12, 0.99, 4409.11, -89.7)" xlink:href="#linear-gradient-7"/><linearGradient id="linear-gradient-35" x1="1992.79" y1="2921.6" x2="1992.79" y2="2639.82" gradientTransform="matrix(-0.99, 0.12, 0.12, 0.99, 4409.11, -89.7)" xlink:href="#linear-gradient-2"/><linearGradient id="linear-gradient-36" x1="2096.54" y1="2921.6" x2="2096.54" y2="2639.82" gradientTransform="matrix(-0.99, 0.12, 0.12, 0.99, 3978.42, -523)" xlink:href="#linear-gradient-2"/><linearGradient id="linear-gradient-37" x1="2116.13" y1="2932.26" x2="2062.94" y2="2756.86" gradientTransform="matrix(-0.99, 0.12, 0.12, 0.99, 4409.11, -89.7)" xlink:href="#linear-gradient-7"/><linearGradient id="linear-gradient-38" x1="1968.43" y1="2313.58" x2="1942.55" y2="2895.83" gradientTransform="matrix(-0.99, 0.12, 0.12, 0.99, 4409.11, -89.7)" gradientUnits="userSpaceOnUse"><stop offset="0" stop-color="#311944"/><stop offset="1" stop-color="#a03976"/></linearGradient><linearGradient id="linear-gradient-39" x1="1968.43" y1="2313.58" x2="1942.55" y2="2895.83" gradientTransform="matrix(-0.99, 0.12, 0.12, 0.99, 4409.11, -89.7)" xlink:href="#linear-gradient-4"/><linearGradient id="linear-gradient-40" x1="2362.92" y1="2561.27" x2="1888.49" y2="2539.71" xlink:href="#linear-gradient-38"/><linearGradient id="linear-gradient-41" x1="5705.46" y1="2070.59" x2="5993.54" y2="2607.9" gradientTransform="matrix(-1, 0, 0, 1, 8611.21, 0)" xlink:href="#linear-gradient-4"/><linearGradient id="linear-gradient-42" x1="593.07" y1="1741.28" x2="855.83" y2="2281.61" gradientTransform="translate(1409.03 536.33) rotate(-16.77)" xlink:href="#linear-gradient-4"/><linearGradient id="linear-gradient-43" x1="2031.46" y1="1753.04" x2="1970.77" y2="1851.21" gradientTransform="matrix(-0.99, 0.12, 0.12, 0.99, 4409.11, -89.7)" xlink:href="#linear-gradient-33"/><linearGradient id="linear-gradient-44" x1="5988.62" y1="1918.78" x2="6276.69" y2="2456.09" gradientTransform="matrix(-1, 0, 0, 1, 8611.21, 0)" xlink:href="#linear-gradient-4"/><linearGradient id="linear-gradient-45" x1="-156.59" y1="1791.59" x2="26.15" y2="2255.94" gradientTransform="translate(2911.92)" xlink:href="#linear-gradient-7"/><linearGradient id="linear-gradient-46" x1="-4026.74" y1="2368.26" x2="-3943.88" y2="2036.85" gradientTransform="translate(6113.78)" xlink:href="#linear-gradient"/><linearGradient id="linear-gradient-47" x1="-4216.77" y1="2361.84" x2="-4177.47" y2="2396.8" gradientTransform="translate(6010.94 206.94) rotate(-8.05)" xlink:href="#linear-gradient-7"/><linearGradient id="linear-gradient-48" x1="-5104.17" y1="2396.84" x2="-5104.17" y2="2328.38" gradientTransform="translate(6927.14 77.42) rotate(-8.05)" xlink:href="#linear-gradient-2"/><linearGradient id="linear-gradient-49" x1="-4212.82" y1="2357.4" x2="-4173.51" y2="2392.35" gradientTransform="translate(6010.94 206.94) rotate(-8.05)" xlink:href="#linear-gradient-7"/><linearGradient id="linear-gradient-50" x1="-4225.81" y1="3157.71" x2="-4186.51" y2="3192.67" gradientTransform="translate(6113.78)" xlink:href="#linear-gradient-7"/><linearGradient id="linear-gradient-51" x1="-5113.26" y1="3192.74" x2="-5113.26" y2="3124.27" gradientTransform="translate(7039.09)" xlink:href="#linear-gradient-2"/><linearGradient id="linear-gradient-52" x1="6466.92" y1="3224.14" x2="6210.63" y2="2189.37" gradientTransform="matrix(-1, 0, 0, 1, 8389.53, 0)" xlink:href="#linear-gradient-7"/><linearGradient id="linear-gradient-53" x1="6896.63" y1="2452.71" x2="6248.58" y2="2002.02" gradientTransform="matrix(-1, 0, 0, 1, 8611.21, 0)" xlink:href="#linear-gradient"/><linearGradient id="linear-gradient-54" x1="-4221.86" y1="3153.27" x2="-4182.55" y2="3188.23" gradientTransform="translate(6113.78)" xlink:href="#linear-gradient-7"/><linearGradient id="linear-gradient-55" x1="-4082.95" y1="2173.07" x2="-3870.11" y2="2440.86" gradientTransform="matrix(1, 0.07, -0.07, 1, 6154.53, 20.52)" xlink:href="#linear-gradient-2"/><linearGradient id="linear-gradient-56" x1="-4073.97" y1="2165.94" x2="-3861.13" y2="2433.72" gradientTransform="matrix(1, 0.07, -0.07, 1, 6154.53, 20.52)" xlink:href="#linear-gradient-2"/><linearGradient id="linear-gradient-57" x1="6447.53" y1="2296.8" x2="6486.67" y2="2296.8" gradientTransform="matrix(-1, 0, 0, 1, 8611.21, 0)" gradientUnits="userSpaceOnUse"><stop offset="0" stop-color="#6165d7"/><stop offset="1" stop-color="#aa80f9"/></linearGradient><linearGradient id="linear-gradient-58" x1="6475.61" y1="2357.55" x2="6770.54" y2="2357.55" gradientTransform="matrix(-1, 0, 0, 1, 8611.21, 0)" xlink:href="#linear-gradient"/><linearGradient id="linear-gradient-59" x1="6998.27" y1="2158.43" x2="7057.08" y2="2232.41" gradientTransform="matrix(-1, 0, 0, 1, 8611.21, 0)" xlink:href="#linear-gradient-2"/><linearGradient id="linear-gradient-60" x1="-3850.97" y1="2488.58" x2="-4470.31" y2="2057.85" gradientTransform="translate(6113.78)" xlink:href="#linear-gradient"/><linearGradient id="linear-gradient-61" x1="3198.52" y1="1785.01" x2="3166.09" y2="1837.46" gradientTransform="matrix(-1, 0, 0, 1, 4550.28, 0)" xlink:href="#linear-gradient-2"/><linearGradient id="linear-gradient-62" x1="3660.38" y1="2405.83" x2="3673.48" y2="2432.76" gradientTransform="matrix(-1, 0, 0, 1, 4119.59, -433.3)" xlink:href="#linear-gradient-2"/><linearGradient id="linear-gradient-63" x1="2377.48" y1="3091.5" x2="2377.48" y2="3007.03" gradientTransform="matrix(-1, 0, 0, 1, 3300.72, 0)" xlink:href="#linear-gradient-2"/><linearGradient id="linear-gradient-64" x1="2120.02" y1="3115.57" x2="2120.02" y2="3013.77" gradientTransform="matrix(-1, 0, 0, 1, 3300.72, 0)" xlink:href="#linear-gradient-2"/><linearGradient id="linear-gradient-65" x1="2063.07" y1="2715.69" x2="2396.12" y2="2715.69" gradientTransform="matrix(-1, 0, 0, 1, 3300.72, 0)" xlink:href="#linear-gradient-14"/><linearGradient id="linear-gradient-66" x1="2052.48" y1="2467.41" x2="2292.43" y2="2870.43" gradientTransform="matrix(-1, 0, 0, 1, 3300.72, 0)" xlink:href="#linear-gradient-14"/><linearGradient id="linear-gradient-67" x1="2146.94" y1="2411.18" x2="2386.89" y2="2814.19" gradientTransform="matrix(-1, 0, 0, 1, 3300.72, 0)" xlink:href="#linear-gradient-14"/><linearGradient id="linear-gradient-68" x1="-1251.87" y1="-3292.26" x2="-997.76" y2="-2769.71" gradientTransform="matrix(0.99, -0.14, -0.14, -0.99, 1758.96, -1269.08)" xlink:href="#linear-gradient-2"/><linearGradient id="linear-gradient-69" x1="3346.11" y1="2034.52" x2="3603.47" y2="2563.74" gradientTransform="matrix(-1, 0, 0, 1, 4550.28, 0)" xlink:href="#linear-gradient-2"/><linearGradient id="linear-gradient-70" x1="2208.63" y1="1968.3" x2="2257.81" y2="2046.47" gradientTransform="matrix(-1, 0, 0, 1, 3300.72, 0)" xlink:href="#linear-gradient-4"/><linearGradient id="linear-gradient-71" x1="2268.01" y1="1956.31" x2="2213.96" y2="2043.74" gradientTransform="matrix(-1, 0, 0, 1, 3300.72, 0)" xlink:href="#linear-gradient-2"/><linearGradient id="linear-gradient-72" x1="1600.08" y1="1730.75" x2="1547.77" y2="1815.37" gradientTransform="matrix(-0.97, -0.24, -0.24, 0.97, 3015.5, 640.48)" xlink:href="#linear-gradient-2"/><linearGradient id="linear-gradient-73" x1="3482.37" y1="1582.84" x2="3935.37" y2="2302.85" gradientTransform="matrix(-1, 0, 0, 1, 4550.28, 0)" xlink:href="#linear-gradient-7"/><linearGradient id="linear-gradient-74" x1="3317.47" y1="2046.86" x2="3570.59" y2="2567.37" gradientTransform="matrix(-1, 0, 0, 1, 4550.28, 0)" xlink:href="#linear-gradient-2"/><linearGradient id="linear-gradient-75" x1="3308.94" y1="2052.59" x2="3566.3" y2="2581.82" gradientTransform="matrix(-1, 0, 0, 1, 4550.28, 0)" xlink:href="#linear-gradient-2"/></defs><title>battle-tested-prod</title><g class="cls-2"><g id="Illustration"><path class="cls-3" d="M2911.79,1063.07C2336,360.3,972.93,321,572.12,878.42c-220.84,307.13-128.55,766.23-83,992.75,83.79,416.86,290.42,685.22,335.53,742.15,109.48,138.12,375.4,473.64,775.5,550.33,683.62,131,1536.64-536.16,1583.9-1288.91C3211.27,1440.75,2961.57,1123.82,2911.79,1063.07Z" transform="translate(-430.69 -433.3)"/><path class="cls-4" d="M1719.58,2136.12c16.35-7.72,45.1-38.94,49.24-50.17,27.55-74.72,88.23-211.26,57.64-289.69-5.22-13.4-70.35-6.33-83-16.1-42.62-5.57-57.75-4.86-95.66-30.06-111.94-74.4,8.62-321.12-223.82-318.93-170.25,1.61-283.59,97.11-344.61-148.26S686.59,661.8,487.34,911.19c-114.35,143.13,99.32,299.45,73.19,474.19-24.83,166,73.91,264.2,253.65,300.88s119.91,128.94,119.73,279.16c-.22,180.46,260.33,128.12,378.56,93.69C1407.68,2031.39,1668.81,2025,1719.58,2136.12Z" transform="translate(-430.69 -433.3)"/><g class="cls-5"><g class="cls-6"><path class="cls-7" d="M1797.77,1948.44A1454.15,1454.15,0,0,1,1365.83,1817c-130.45-63.31-252.28-146.67-362.1-247.75C790.55,1373,626,1113.09,528,817.56l3.19-1.06c207,623.74,680.63,1045.65,1267.08,1128.62Z" transform="translate(-430.69 -433.3)"/><path class="cls-7" d="M925.08,2040.22l-2-2.72c131.39-95.78,376.8-176.64,547.07-180.25l.07,3.36C1300.55,1864.2,1056,1944.78,925.08,2040.22Z" transform="translate(-430.69 -433.3)"/><path class="cls-7" d="M1682.92,1930.86c-81.46-36.51-141.27-112.62-177.78-226.22-26.64-82.9-40.49-183.52-41.16-299.08l3.36,0c.67,115.21,14.46,215.5,41,298.08,36.21,112.65,95.41,188.07,176,224.18Z" transform="translate(-430.69 -433.3)"/><path class="cls-7" d="M974.5,1540.17c-147.19-75.27-319.77-52.32-438.63-19.81l-.89-3.24c119.44-32.67,292.91-55.71,441,20.06Z" transform="translate(-430.69 -433.3)"/><path class="cls-7" d="M732,1246.43c-70.94-174.93-19-365.88,18.21-464.13l3.15,1.19c-37.08,97.79-88.76,287.81-18.24,461.67Z" transform="translate(-430.69 -433.3)"/></g></g><g class="cls-8"><path class="cls-9" d="M1485.89,2220.24q142-17.28,283.63-40c1.53,1.14,32.56-169.16-65.18-258.48-193.27-173-63.09-328.31-25.95-420.32,58.84-129.66,27.89-270.06-131.55-272.13-176.84-5.17-208.9-247.43-176.85-467.8,24.78-107.47-97.73-237.87-220-267.67-124.82-33-249.37,34.56-287.54,248.79-57.79,248,160.92,397.61,241.9,522,79.69,122.07-105.68,220.84,43.52,329,125.5,96.11,283.67,165.2,225.81,285.92C1314.24,1998.93,1328.48,2096.52,1485.89,2220.24Z" transform="translate(-430.69 -433.3)"/><g class="cls-6"><path class="cls-7" d="M1612.66,2230.34c-1.17-11-96.61-373.11-246.19-707.49-21.59-56.57-45-113.5-67.61-168.56-60.65-147.58-123.37-300.19-153.18-452.27-33.36-170.2-21.46-323.52,36.38-468.72l3.32.9c-128.44,322.45-9.32,612.29,116.79,919.16,22.63,55.07,46,112,67.61,168.55,156,348.81,246.41,706.88,246.37,708.39l-3.49-.05,1.75,0Z" transform="translate(-430.69 -433.3)"/><path class="cls-7" d="M1189.28,1068.22c-105.63-97.13-233-235.11-301.46-309.24-29.25-31.69-52.36-56.72-55.09-58.23l.75-.94-.34-1.79c2.34-.28,4.57,1.92,57.46,59.2,68.41,74.09,195.74,212,301.28,309.07Z" transform="translate(-430.69 -433.3)"/><path class="cls-7" d="M1156.13,939.07l-2.5-4.34c16.7-85.08,56-161.41,113.7-220.75,45.79-47.1,89.41-69.68,101.08-73.88,2.5-.89,3.58-1,4.49-.52l-2,2.4a1.52,1.52,0,0,0,.8.21c-4.37.38-47.44,20.24-94.75,66.63C1234.36,750.63,1178,827.73,1156.13,939.07Z" transform="translate(-430.69 -433.3)"/><path class="cls-7" d="M1459.07,1749.88c-15-104.09,14.29-216,87-332.58,37.85-60.72,86.12-120.2,143.47-176.79,3-3,5.37-5.3,5.7-5.76l3,1.45c-.46.65-2.08,2.27-6,6.17-79.68,78.63-261.55,285.44-229.66,507.17Z" transform="translate(-430.69 -433.3)"/><path class="cls-7" d="M1416.39,1640.88c-112.07-149.86-347-160.42-351-160.42h0l-.15-1.43-.55,1.37-1.21-1.42,1.31-1.36c2-.46,241.17,10,354.65,161.73Z" transform="translate(-430.69 -433.3)"/><path class="cls-7" d="M1596.86,2171.9c-2-45.56,17.55-123.11,122.3-233.85,2.46-2.6,4.58-4.85,4.87-5.29l1.28.57,2.06-.25c.15.83.15.83-5.46,6.76-104.09,110-123.55,186.88-121.55,232Z" transform="translate(-430.69 -433.3)"/><path class="cls-7" d="M1572.82,2087c-27.54-78.63-161.31-136.58-238.61-164.12-2.63-.94-4.33-1.55-4.93-1.81l1.6-2.57c.58.24,2.2.82,4.72,1.72,77.86,27.74,212.65,86.2,240.58,166Z" transform="translate(-430.69 -433.3)"/></g></g><path class="cls-10" d="M3017.93,2187.07,682.15,2166.54v60.75c0,16.49,10.18,30.51,24,33l660.49,119.62a89.71,89.71,0,0,0,23.7,1.12l1602.23-136.38c14.3-1.22,25.38-15.28,25.38-32.22Z" transform="translate(-430.69 -433.3)"/><path class="cls-10" d="M2170.28,2088.6l-1464,111.13c-26.2,2-47.5-19.14-47.5-47.2V1028.39c0-28.06,21.3-50.81,47.5-50.81h1464c21.59,0,39,20.56,39,45.93v1016.2C2209.32,2065.08,2191.87,2087,2170.28,2088.6Z" transform="translate(-430.69 -433.3)"/><path class="cls-11" d="M2193.63,2088.6l-1464,111.13c-26.19,2-47.49-19.14-47.49-47.2V1028.39c0-28.06,21.3-50.81,47.49-50.81h1464c21.58,0,39,20.56,39,45.93v1016.2C2232.66,2065.08,2215.21,2087,2193.63,2088.6Z" transform="translate(-430.69 -433.3)"/><path class="cls-12" d="M2148,2017,784.47,2113.49c-21.32,1.51-38.64-15.84-38.64-38.74V1090.56c0-22.91,17.32-41.56,38.64-41.65L2148,1042.85c17.8-.08,32.2,16.77,32.2,37.63V1976.9C2180.22,1997.76,2165.82,2015.7,2148,2017Z" transform="translate(-430.69 -433.3)"/><path class="cls-11" d="M1513.34,1008.33c0,10.44-7.54,18.94-16.84,19s-16.88-8.44-16.88-18.9,7.56-19,16.88-19S1513.34,997.88,1513.34,1008.33Z" transform="translate(-430.69 -433.3)"/><path class="cls-13" d="M1840.9,1780.29c-112.86-65.23-201.6,17.42-287.24-64.12-51.92-49.44-26.43-86.31-90.32-160.19-70.76-81.82-116.83-54.32-187.94-128-89.92-93.12-45-165.57-122.4-232.43-94-81.1-195.3-6-284.75-83.82-38.57-33.54-59.74-82.32-70.79-134.19H709.94c-15.34,0-27.79,13.35-27.79,29.82V2172.67c0,16.47,12.45,28.87,27.79,27.71l1492-113.76c7.32-.56,13.81-5.15,18-11.81-109.22-4.28-176.32-43.6-219.22-84.26C1916.83,1911,1931.39,1832.58,1840.9,1780.29Z" transform="translate(-430.69 -433.3)"/><path class="cls-14" d="M2252,2083.56l-1569.83,117,684.47,124a90.13,90.13,0,0,0,23.7,1.12l1627.61-138.55-741-102.71A117.87,117.87,0,0,0,2252,2083.56Z" transform="translate(-430.69 -433.3)"/><polygon class="cls-12" points="480.52 1770.18 1787.45 1671.35 2191.93 1726.96 896.26 1832.61 480.52 1770.18"/><g class="cls-15"><path class="cls-16" d="M1868.46,1097.6s376.39,209.64,363.52,387.66-390,101.18-390,101.18Z" transform="translate(-430.69 -433.3)"/><path class="cls-17" d="M1072.57,1120.07c111.49-37.8,281.6-79.69,489.65-71.11a1338.92,1338.92,0,0,1,306.24,48.64l33.3,186.25a2217.86,2217.86,0,0,1-3.62,246.19c-7,99.62-13.84,101.12-29.86,241.75-26.12,229.28-15.19,289.18-61.27,316.72-30,17.91-40.32,16-193.26.85-102.55-10.17-145.81-11.88-197.75,5.69-70.72,23.93-104,41.38-133.12,28.31-28-12.54-31.54-60.84-34.92-145.05-5.21-129.9-4.89-218.19-5.37-249.8-2.21-145-38.93-255.72-85.95-397.52A1920.56,1920.56,0,0,0,1072.57,1120.07Z" transform="translate(-430.69 -433.3)"/><path class="cls-18" d="M1548.45,905.3A426.75,426.75,0,0,1,1536.3,990c-5.62,22.44-9.11,28.13-13.41,32.67-6.48,6.83-16.05,12.34-69,22.5-28.79,5.53-32.44,5.14-33.22,7.93-3.79,13.59,71.19,64.62,151.85,57.59,49.37-4.3,95.44-29.87,93.49-44.69s-51.33-9.61-64.5-37.12c-9.15-19.13,3.64-44.92,18.25-66.06C1608.08,937.76,1560.17,930.4,1548.45,905.3Z" transform="translate(-430.69 -433.3)"/><path class="cls-19" d="M1647.23,935.12c15.47-11.46,23.77-37,15.79-57.07-6.86-17.27-23.6-24.39-33.62-28.66-29-12.36-70.66-11-92,12.72-12.67,14.08-5.84,53.15-5,60.06,1,7.81,5.68,11.8,9.16,18.52,4.82,9.32,12.31,24.1,24.41,48.68A129.55,129.55,0,0,1,1578.79,971c2.16-2.56,10.73-12.53,21.37-19.74C1621.48,936.78,1632.57,946,1647.23,935.12Z" transform="translate(-430.69 -433.3)"/><path class="cls-20" d="M1545.33,965.61s10.17,38.27,50.27,47.35c35.9,8.13,64.43-69.34,46.9-92.76-5.86-7.81-20.2-14.58-33.44-14.78-7.82-.11-11.15,2.17-23.92,1.73-11.78-.39-14.51-2.52-18.64-.72-5.16,2.26-10.7,9.88-10.64,35-4.71-8.8-12-13.79-18.51-12.79a12.54,12.54,0,0,0-6,3.18C1523.71,939.41,1528.54,953.37,1545.33,965.61Z" transform="translate(-430.69 -433.3)"/><path class="cls-21" d="M1566.31,901.23c1.32,1.77-5.75,6.57-8.79,15.43-5.9,17.19,5.54,43.31,23,50.4,10.32,4.19,15.14-1.35,33.26,2a84,84,0,0,1,25.2,9.07c-.13,20.73-11,38.23-26.34,43.29-16.55,5.44-32.4-5.52-39-10.11-4.43-3.07-18.64-12.86-22.6-29.72-4.11-17.57,7-24.15.15-37.22-3.44-6.6-9.29-10.75-12.69-22.55a50.62,50.62,0,0,1-1.59-7.75C1548.8,907.12,1564.39,898.67,1566.31,901.23Z" transform="translate(-430.69 -433.3)"/><path class="cls-22" d="M1624.09,981.41s-8.79,1.73-21.71-2.91c-.63-.22-1.39-.24-1.57.07-.67,1.15,6.11,9.24,14.52,9.36,6,.08,11.82-3.88,11.47-5.43C1626.65,981.85,1625.38,981.56,1624.09,981.41Z" transform="translate(-430.69 -433.3)"/><path class="cls-23" d="M1175.44,1728.63l36.91-2.06s40.43-33.84,58.84-31.73,45.94,14.89,49.29,17.57-10.07,17.68-23.5,16.22-43.4,5.79-48.76,17.62-28.62,19-32.57,12l-49.61,9.84Z" transform="translate(-430.69 -433.3)"/><path class="cls-24" d="M1186.6,1715.72c2.59,30.28-4,50.84-15,64.94-48.78,62.51-214.57,36.95-313.1-46.77-72.94-62-111.55-158.2-110.13-244.43,2.79-168.25,158.71-333.11,390.65-390.07q51.49,154,103,307.9c-143,2.18-202.08,104.77-189.19,181.73C1062.41,1646.34,1101.48,1703.11,1186.6,1715.72Z" transform="translate(-430.69 -433.3)"/><path class="cls-25" d="M1747.56,2013.23c-75.22-32.09-74.79-98.52-145-126.24-100.26-39.56-211,52.34-228.32,26.86-18-26.52,114.3-107.83,96.7-188-14-63.73-106.33-52.44-155.79-139.67-46.92-82.76-1.43-159.27-43-188-14.89-10.32-41.18-14.39-91,7.54,34.75,108.52,59.66,204.21,61.47,322.83.48,31.61.16,119.9,5.37,249.8,3.38,84.21,6.94,132.51,34.92,145.05,29.17,13.07,62.4-4.38,133.12-28.31,51.94-17.57,94.71-35.58,197.26-25.41,152.94,15.16,163.78,36.78,193.75,18.87,19.52-11.67,28.8-29.21,35-62.9C1811.36,2028.91,1778.83,2026.58,1747.56,2013.23Z" transform="translate(-430.69 -433.3)"/><path class="cls-26" d="M2051.14,1661.52c-24.71-12.51-43.21-42.16-45.61-76.8L1973.22,1119c-2.8-40.4,21.44-79.66,54.9-88.29,34.35-8.85,78.58,20,82.29,62.38l42.93,490.47c4.26,48.72-24.17,88.94-62.53,89.29C2081.48,1672.94,2059.38,1665.7,2051.14,1661.52Z" transform="translate(-430.69 -433.3)"/><path class="cls-27" d="M2028.12,1030.71c34.35-8.85,78.58,20,82.29,62.38l39.09,446.6c-22-16.19-50-25.63-69.16-63.63-31.23-61.89,4.75-115.09-15.92-179-9.3-28.75-31-62.1-84.75-85.22l-6.45-92.88C1970.42,1078.6,1994.66,1039.34,2028.12,1030.71Z" transform="translate(-430.69 -433.3)"/><ellipse class="cls-28" cx="1991.47" cy="1093.1" rx="115.71" ry="111.73" transform="translate(19.84 2329.03) rotate(-76.05)"/><path class="cls-29" d="M2012.43,982c-43.61,68.22-61.69,141-55,221.58L2513.64,1635,2715.7,856.23Z" transform="translate(-430.69 -433.3)"/><path class="cls-30" d="M2374.69,1348.45c-56.63-44.71-51-149.77-119.9-170.13-51.73-15.28-81.47,38.77-128.53,19.74-46.43-18.78-39-82.66-85.33-116.17-20.48-14.79-44.42-18.25-68.79-15.26-13.83,43-18.75,88.42-14.74,137L2513.64,1635l20.44-277.45C2450.54,1381.16,2403.08,1370.86,2374.69,1348.45Z" transform="translate(-430.69 -433.3)"/><ellipse class="cls-31" cx="2618.79" cy="1246.39" rx="402.02" ry="302.91" transform="translate(347.16 3054.19) rotate(-76.05)"/><path class="cls-32" d="M2525.16,1623.32c34.47,8.56,70.63,7.77,107.46-2.35,37.49-10.3,73.89-29.62,108.18-57.44,72.07-58.48,125.76-147,151.16-249.28s19.39-205.64-16.95-291c-17.28-40.63-40.41-74.74-68.72-101.38-27.82-26.18-59.41-43.79-93.87-52.35s-70.63-7.78-107.46,2.34c-37.5,10.3-73.89,29.62-108.18,57.44-30.13,24.45-57.05,54.16-80,87.93-32,47,9.9,114.74-4.89,174.25-15.71,63.28-85.64,114.09-77.56,173.69a406.24,406.24,0,0,0,28.28,104.46c17.28,40.63,40.41,74.74,68.72,101.38C2459.11,1597.14,2490.7,1614.76,2525.16,1623.32Z" transform="translate(-430.69 -433.3)"/><g class="cls-33"><path class="cls-34" d="M2641.71,1257.52c-24.55,98.85-128.43,156.38-230.55,128.89-100.54-27.07-161.56-126.61-137.69-222.71s124.14-154.54,225.36-130.21C2601.63,1058.21,2666.27,1158.67,2641.71,1257.52Z" transform="translate(-430.69 -433.3)"/><path class="cls-35" d="M2625.9,1251.88c-18.23,73.41-73.82,121.48-123.45,107.57-48.87-13.69-73.56-82.48-55.83-153.84s71.55-119.89,120.92-108.22C2617.68,1109.23,2644.13,1178.48,2625.9,1251.88Z" transform="translate(-430.69 -433.3)"/></g><path class="cls-36" d="M2177.94,1505s-4.52-45.7-43.61-74.09-4.67,10.75-4.54,51.69l.12,41s-1.37,43,15.92,43S2177.94,1505,2177.94,1505Z" transform="translate(-430.69 -433.3)"/></g><path class="cls-37" d="M1292,1427.19a4.28,4.28,0,0,1-4.25-3.87c-3.74-39.26-16.55-76.56-36-105-17.27-25.22-37.84-40.28-55-40.28h-.06c-62.59.13-75.68,143.83-75.81,145.28a4.27,4.27,0,1,1-8.51-.73c.53-6.25,13.94-153,84.3-153.09h.08c20.3,0,42.92,16,62.07,44,20.31,29.65,33.63,68.38,37.5,109.06a4.27,4.27,0,0,1-3.84,4.66Z" transform="translate(-430.69 -433.3)"/><path class="cls-38" d="M1031.28,1722.93l82.39,41.72,49.92-153.2-82.26-205.37L1058,1411.8l-35.39,295A16,16,0,0,0,1031.28,1722.93Z" transform="translate(-430.69 -433.3)"/><path class="cls-39" d="M1163.59,1611.45l-82.26-205.37-13.75,3.37a448,448,0,0,0,.22,66.42c5.52,69.92,23.83,89.38,15,138.16-7.38,40.56-23.49,46.07-22.08,73.36,1.53,29.72,22.26,54.61,46.91,74.18l6.08,3.07Z" transform="translate(-430.69 -433.3)"/><polygon class="cls-40" points="650.64 972.78 957.85 972.78 1059.52 1301.01 682.98 1331.35 650.64 972.78"/><circle class="cls-41" cx="1176.53" cy="1434.85" r="11.94" transform="translate(-1100.69 818.9) rotate(-45)"/><path class="cls-11" d="M1174.31,1520h0a52.16,52.16,0,0,1,50.67-37.22c30.91.1,57.37,25.48,59.75,56.53-2.38-31,19.72-56.26,48.74-56.16,21.8.08,41.11,14.47,49.79,34.56h0c31.92,70.3-89.12,144-89.12,144S1148.27,1599,1174.31,1520Z" transform="translate(-430.69 -433.3)"/><path class="cls-42" d="M1176.5,1434.21a4.29,4.29,0,0,1-4.16-3.3c-.87-3.72-21-91.67,7.41-134.83,8.15-12.37,19.55-19.93,33.87-22.45,73.57-13,118.86,145,120.76,151.78a4.27,4.27,0,1,1-8.23,2.31c-.44-1.57-45-157.33-111.05-145.68-12.08,2.13-21.31,8.26-28.22,18.74-26.45,40.12-6.42,127.3-6.21,128.18a4.29,4.29,0,0,1-3.19,5.14A4.75,4.75,0,0,1,1176.5,1434.21Z" transform="translate(-430.69 -433.3)"/><g class="cls-43"><path class="cls-44" d="M1388.54,1406.08h-152.4c-7.52,7.64-12.85,16.45-13.36,26.34-2.4,46.44,104.36,61.69,114.66,125.34,7.42,45.92-38.28,98.89-79,122.5-43,24.86-72.08,12.27-101.13,39.88-12.77,12.13-20.54,27.3-25.17,43l358.12-28.86Z" transform="translate(-430.69 -433.3)"/></g><circle class="cls-45" cx="1332.27" cy="1433.75" r="11.94" transform="translate(-1054.29 928.69) rotate(-45)"/><path class="cls-46" d="M1167.92,1749.88s-.84,31.93,58,25.21,102.45-39.09,85.25-50.21S1169.81,1731.63,1167.92,1749.88Z" transform="translate(-430.69 -433.3)"/><path class="cls-47" d="M2400.1,2182.81s0-17-9.66-27.1-17.23-29-17-18.7,3.15,23.32,3.15,23.32-11.77,3.57-3.15,16.17S2403.73,2200.38,2400.1,2182.81Z" transform="translate(-430.69 -433.3)"/><path class="cls-48" d="M2774.1,2994.81c6.57,10.47,5.55,15.38,4.42,17.61-3.31,6.54-13.43,1.75-38,7.28a42.11,42.11,0,0,1-15.46,1.08c-6.09-.78-13.43-3.21-13.3-4.84,0-.59,1.09-.93,1.48-1.06,6.73-2.19,48.49-19.94,48.49-19.94Z" transform="translate(-430.69 -433.3)"/><path class="cls-49" d="M2774.88,2970.18l-1.28,25.09s-9.82,8.61-13.55-.2c-2.69-6.34-4.48-24-4.48-24Z" transform="translate(-430.69 -433.3)"/><polygon class="cls-50" points="2220.25 2562.2 2233.63 2589.53 2248.51 2585.54 2242.25 2559.59 2220.25 2562.2"/><path class="cls-51" d="M2670.67,3038c6.42-9.45,13-9.35,13.73-15.46.55-4.8-2.93-10.25-7.49-12-6.41-2.44-13.29,3.13-14.85,4.39-10.55,8.55-6.26,19.74-16.42,25.84-2,1.24-5.34,2.66-8.58,6.4-1.37,1.58-4.78,5.52-3.64,7.86,1.32,2.71,8,1.91,14.43,1.15,7.67-.91,11.51-1.37,15-4.06C2667.59,3048.4,2665.72,3045.29,2670.67,3038Z" transform="translate(-430.69 -433.3)"/><path class="cls-52" d="M2794.1,2371.21a819.78,819.78,0,0,1-5.07,148.53c-5.57,44-10.28,52-10.66,82.12-.81,65.64,21,73.23,30.9,146.52,11,80.93-5.26,147.32-11.71,172.67a467.73,467.73,0,0,1-16.83,52.76c-6.91,7.12-18.51,5.57-30.73,4.12-10.53-73.36-21.8-142.28-32.34-215.64q-35.2-164.58-70.4-329.16Z" transform="translate(-430.69 -433.3)"/><path class="cls-53" d="M2750,2977.93c-10.53-73.36-21.8-142.28-32.34-215.64q-35.2-164.58-70.4-329.16l146.84-61.92c.21,3.82.32,7.51.48,11.27-65.5,67.15-75.29,116.85-71.86,149.92,4.17,40.1,27.79,58.19,28.32,116.79.39,41.9-11.52,50.28-8.4,87.86,4,48.39,27,73.87,39.47,101,12,26.21,18.67,64.21,4.3,120.22-2,5.83-3.94,11.05-5.68,15.54C2773.82,2980.93,2762.22,2979.38,2750,2977.93Z" transform="translate(-430.69 -433.3)"/><path class="cls-54" d="M2709.62,2434.06c-31.81,65.52-48.28,116.38-56.92,147.66-5.27,19.08-9.83,38.89-9.17,64.3A198.48,198.48,0,0,0,2659.3,2718a382.76,382.76,0,0,1,25.25,71.18c21.7,88.07,7,164.5-5.81,208.81l-26,12.16a1483.7,1483.7,0,0,1-82.45-230.93c-14.21-53.33-25.16-95.17-29.7-149.09-4.79-56.88-4.16-147.52,33.47-258.87Z" transform="translate(-430.69 -433.3)"/><path class="cls-55" d="M2648.14,1943.41c-56,14.48-98.49,28.23-115.35,59.61-17.81,33.15,16.61,54.14,31.15,122.42,22.28,104.54-35.2,149-8.9,254a275.76,275.76,0,0,0,33.1,77.85,290.4,290.4,0,0,0,91.29,42.07c59.32,15.39,86.79,1.31,164.73-.69,127.49-3.27,149.54,32,205,4.58,56-27.68,92.85-92.95,78.37-118.34-8.67-15.21-31.06-3.41-66-20.06-45-21.47-40.6-56.22-77.84-82.64-53.5-37.93-98.08,8.55-143.88-24.5-46.33-33.43-59-123-45-178.13,9.11-36,6.18-74.09,12.11-110.74a23.07,23.07,0,0,0-1.62-13.1c-8.8-20-46.9-20.88-75.68-21.24C2685.75,1933.94,2652.75,1942.22,2648.14,1943.41Z" transform="translate(-430.69 -433.3)"/><path class="cls-56" d="M3039.17,2463.72c-18.54-10.25-11.77-44.23-39.25-59.69-25.51-14.35-42.57,8.6-79.06.64-46.81-10.21-48.07-54.36-93-64.76-32.29-7.48-40.12,13.39-85.42,18s-106.15-9.15-147.73-54a162.13,162.13,0,0,1-34.92-59.83c-8.87,40.13-18.89,79-4.77,135.38a275.76,275.76,0,0,0,33.1,77.85,290.4,290.4,0,0,0,91.29,42.07c59.32,15.39,86.79,1.31,164.73-.69,127.49-3.27,149.54,32,205,4.58,35.81-17.69,63.69-50.71,75.43-78.88C3077.46,2465,3052.62,2471.16,3039.17,2463.72Z" transform="translate(-430.69 -433.3)"/><path class="cls-57" d="M2607.14,1847.72s-13.23,30.72-12.51,51.44,23.9,17.29,23.9,17.29l.2,13.09a28.3,28.3,0,0,1-16.38,26.12l-8.91,4.15s61,7.87,91.9-18l-9.52-.14a28.32,28.32,0,0,1-27.42-23.12l-1-5.53S2652.45,1847.83,2607.14,1847.72Z" transform="translate(-430.69 -433.3)"/><path class="cls-58" d="M2541.83,1992a157.89,157.89,0,0,0-38.82,42.39c-36.52,59.09-14,115.62-46.75,139.88-9.38,6.94-26.42,13.56-59.26,5.67l-11.46,7.72s-6.95,77,84.91,70.2S2596,2132.51,2596,2132.51Z" transform="translate(-430.69 -433.3)"/><path class="cls-59" d="M2618.94,1876.2c3.08-.52,5.32-4.66,7.54-3.67s2.55,6.79.95,11a14.54,14.54,0,0,1-5.12,6.5,38.17,38.17,0,0,1,8,14.64c4,14.68-2.89,27.33-5.61,34.62-12.23,32.87,15,81,42.49,104.13,22.32,18.82,31.26,9.77,45,25.51,12.65,14.55,6.53,82.2,12.6,112.17,11,54.28,84.4,88.38,133.19,97.79,57.41,11.07,130.06-2.51,175.35-54.61,32.47-37.34,47.59-90.4,42-128.49-1.72-11.65-9-55.83-48.21-89.13-6.22-5.28-43.1-36.49-89.16-33.09-24.4,1.8-28.6,10.8-47.69,7-26.12-5.15-43.77-27.06-54.71-40.64-20.14-25-13.32-31.25-27.3-43.2-27.41-23.42-55.42-.92-84.3-21.2-28.46-20-14.89-51.43-42.19-68.51-28.16-17.61-78.3-6.49-87.16,18C2586.9,1846.07,2609.5,1877.77,2618.94,1876.2Z" transform="translate(-430.69 -433.3)"/><path class="cls-60" d="M2139.84,2038.37c6.29,2.37,102.18,40.51,121.89,140.59,1.59,8.09,17,94.07-41.32,154.82-65.39,68.11-191.3,66.43-241.28,9.48-11.65-13.28-17.8-28-21.24-40.36h0l13.17-35c16.06-19.39,37.94-24,49.62-26.87,28.81-7.1,50.56,5.73,67-8.16,9.13-7.68,10.94-18.75,12.56-28.63,5.52-33.65-13.48-54.37-14.86-75.12-1-15.51-6.46-49.51,13.79-71.68C2112,2043.42,2129.8,2039.59,2139.84,2038.37Z" transform="translate(-430.69 -433.3)"/><path class="cls-61" d="M2177.2,3153.76c1.12-6.16,21-11.74,30.87-3.49,4.89,4.1,8.26,12.41,5.43,16.16-1,1.36,3.19,3.76-.85,3.81C2199.24,3170.4,2176.09,3159.88,2177.2,3153.76Z" transform="translate(-430.69 -433.3)"/><path class="cls-62" d="M2198.06,3156l20.46-2.89c-9.48-11.42-7.72-47.77-7.72-47.77L2189,3110.2s2.48,10,6.7,24.7C2197.18,3139.93,2197.82,3147.82,2198.06,3156Z" transform="translate(-430.69 -433.3)"/><path class="cls-63" d="M2196.24,3153.48s24.64-5.68,27.3-.79,4.74,18-10.89,17.55S2194.85,3157.62,2196.24,3153.48Z" transform="translate(-430.69 -433.3)"/><path class="cls-64" d="M1896.42,3176.86c2-5.94,22.45-8.68,31.06.87,4.26,4.74,6.44,13.44,3.11,16.76-1.21,1.2,2.63,4.17-1.38,3.65C1915.92,3196.42,1894.46,3182.77,1896.42,3176.86Z" transform="translate(-430.69 -433.3)"/><path class="cls-65" d="M1916.76,3182h20.67c-7.79-12.63-1-48.37-1-48.37l-22.23,1.76s1.06,10.23,3.18,25.39C1918.13,3166,1917.67,3173.87,1916.76,3182Z" transform="translate(-430.69 -433.3)"/><path class="cls-66" d="M1863.2,2400.47a956.47,956.47,0,0,0-32,146.66c-25.1,182.6,28.25,188.43,18.29,390.77-3.18,64.59,56,213.53,61.17,216.82a64.66,64.66,0,0,0,8.18.32,81.3,81.3,0,0,0,20.83-3.47c9.37-1.62,43.14-93.1,35.31-147.49-5.54-38.49-3.93-79.81-.72-162.44.52-13.38,34.77-260.48,34.77-260.48h0c10.42,91.46,22.41,169.17,32.8,229.43,33.37,193.57,141.9,310.74,147.56,312.62,1.12.44,11.3,4.14,19.63-1.34a13.59,13.59,0,0,0,5-5.6c2.91-2.27-.85-193.26-33.95-337-48.05-208.63-27.13-257.45-42.35-350.63C2124.46,2348,1863.2,2400.47,1863.2,2400.47Z" transform="translate(-430.69 -433.3)"/><path class="cls-67" d="M1850.33,2432c28.85,14.81,103.16,41.34,191.73,28.16a298.24,298.24,0,0,0,93.54-30.45c.7-.34,1.39-.69,2.05-1-23-69.57-5-106.8,3.52-141.12,12.15-48.92,12.32-45.21,22.32-84.1,16.47-64.14,19.16-129.66,7.85-143-30.51-36.15-85.52-37.47-114.06-38.33-31.9-.94-105.24-12.18-145.61,24.14-.69.63,7.58,5.06,3.49,9.83a265.79,265.79,0,0,0-28.5,40.93c-8.51,15.18-16.23,32.9-24,59.26a510.8,510.8,0,0,0-18.92,103.44q-.63,8.57-1.14,16.57C1837.25,2362,1844.07,2403.34,1850.33,2432Z" transform="translate(-430.69 -433.3)"/><path class="cls-68" d="M1915.32,3179.25s25.18-2.17,27.14,3,2.17,18.46-13.25,15.85S1913.36,3183.16,1915.32,3179.25Z" transform="translate(-430.69 -433.3)"/><path class="cls-69" d="M1965.47,1981.3c-8.7-17.35-3-36.08-1.69-40.13,5.34-16.93,7.07-19.43,10.52-22.86l4.85-4.46.61-.37c3.3-2,15.28-4.64,17.82-4.59,8.12.16,22.56,30.34,28.87,75.72q1,2.48,1.94,5c4,10.47,7.28,20.73,10,30.7,54.37,8.45,61.51,15.4,61.5,19.12,0,7.84-31.83,14.68-55.51,16.47-51.64,3.91-103.24-13.24-102.33-22.76.39-4.14,10.93-8.84,54.66-11.48q-.77-10.86-1.54-21.73C1991.76,1998.9,1971.87,1994.09,1965.47,1981.3Z" transform="translate(-430.69 -433.3)"/><path class="cls-70" d="M1960.52,1904.21c2.74,13.91,12.17,27.51,16,29.25a23.72,23.72,0,0,1,6.1,4.54,6.63,6.63,0,0,1,1.11,1.49c4.75,8.18-7.21,21.2-3.76,24.6,2.51,2.47,11.25-3.17,12.85-.92s-5.44,8.42-3.7,11c1.31,1.92,5.79-.93,9.47,1.69,1.83,1.3,1.63,2.65,4.19,7.22a43.88,43.88,0,0,0,4.62,6.85c6.39,7.25,20.59,7.6,22.58,3.83.55-1.06-.22-1.7-.07-4.9a24.79,24.79,0,0,1,1.48-6.63c1.92-5.23,8.07-9.89,14-16.16,11-11.61,12.9-20.08,13.42-22.91.19-1,.28-1.77.35-2.31,1.33-10.9-1.57-26-8-34.35-10.73-14-26.73-3.29-44-15.92-19.89-14.57-14.77-40.72-24.22-41.67C1972.54,1847.81,1955.47,1878.49,1960.52,1904.21Z" transform="translate(-430.69 -433.3)"/><path class="cls-71" d="M1984.31,1959.86c2.51-5.35,9.36-2.1,10.56,4s-3.45,13.5-9.38,13.41S1980.94,1967.05,1984.31,1959.86Z" transform="translate(-430.69 -433.3)"/><path class="cls-72" d="M2127.47,2385.57h.2a1.86,1.86,0,0,0,1.64-2c-3.75-33.76,3.25-58.31,9.43-80,1.51-5.31,3-10.46,4.24-15.54,6.87-27.71,9.88-38.42,13.07-49.76,2.09-7.44,4.23-15.07,7.57-27.88a1.87,1.87,0,0,0-1.33-2.27,1.84,1.84,0,0,0-2.26,1.33c-3.33,12.79-5.47,20.39-7.56,27.82-3.19,11.36-6.21,22.1-13.09,49.86-1.25,5.05-2.71,10.15-4.21,15.42-6.27,22-13.38,46.92-9.54,81.4A1.84,1.84,0,0,0,2127.47,2385.57Z" transform="translate(-430.69 -433.3)"/><path class="cls-73" d="M1850.33,2432c28.85,14.81,103.16,41.34,191.73,28.16a298.24,298.24,0,0,0,93.54-30.45c-10.27-8-22.93-21.38-43.86-44.14-25.36-27.54-55.08-17.26-72.55-6.88a41.27,41.27,0,0,1-62.24-34.43,185.35,185.35,0,0,1,.94-23c6-62.65-80.82-68-80.82-68-12.24-6.37-23.87,3.91-34.45,23C1837.25,2362,1844.07,2403.34,1850.33,2432Z" transform="translate(-430.69 -433.3)"/><path class="cls-74" d="M1546.89,2152.89c3.5.34,7.72,3.88,10.69,5.56,4.23,2.4,8.48,4.75,12.78,7,8.31,4.33,17.12,7.54,26.62,7.37a20.53,20.53,0,0,0-1.27-4c-1.61-3.77-3.73-7-2.46-8.15,1.81-1.65,9.79,1.74,17.16,8.8a47.27,47.27,0,0,1,8.15,10.2c3.75,6.41,3.12,9.91,6.27,14.79,4.67,4.19,8.18,5.11,8.18,5.11v1.34l-.53,1.64a43.46,43.46,0,0,0,12.59,6.31c-6.5,1.74-12.86,3.52-19.33,5.3l-4.5,7.51s-24.53-5.14-39.32-14.12c-6.92-4.21-9.31-9.41-9.89-13.73a18.4,18.4,0,0,1,.39-6.92,16.06,16.06,0,0,1,.58-1.81s-20.2-8.4-28.18-26.55C1543.61,2155.78,1543.49,2152.57,1546.89,2152.89Z" transform="translate(-430.69 -433.3)"/><path class="cls-75" d="M1632.49,2192c-11.54,8.07-17.72,19-20.93,26,8.48,19.91,27.71,56.87,67.53,84.11,65.28,44.67,161,46.17,227.67-4.77,79.65-60.85,93-177.55,59.5-227.52-3.85-5.75-16.51-24.67-36.17-26.84-12.41-1.37-29.31,3.75-56,35-55.63,65.13-36,105.8-68.85,124.85C1756,2231.44,1682.74,2156.84,1632.49,2192Z" transform="translate(-430.69 -433.3)"/><path class="cls-76" d="M1353.46,1838.54a59.64,59.64,0,0,1-9.68-30.54c-.75-28.33,20.26-50.43,23.09-49.16,1.52.68-.41,9-1.49,12.66-2.25,7.66-4.67,8.4-4.47,11.92.42,7.24,10.87,7.52,16.39,17.13a25.94,25.94,0,0,1,0,24.58C1370.18,1838.07,1354.14,1838.53,1353.46,1838.54Z" transform="translate(-430.69 -433.3)"/><polygon class="cls-77" points="473.9 2020.6 481.98 1992.81 448.26 1967.82 427.24 1959.96 439.69 1998.85 473.9 2020.6"/><path class="cls-78" d="M946.33,3013.65s-18.44,46.4-13.59,67c-19.8-.39-32.61-2.91-32.61-2.91s8-21.16,9.51-31.65c2.1-14.16,2-37.08,2-37.08Z" transform="translate(-430.69 -433.3)"/><path class="cls-70" d="M1149.64,3122.17a14.61,14.61,0,0,0-3.49,8.53,13.92,13.92,0,0,0,1,5.71c3.14,8.27,8.08,9.36,13.41,18.14,3.26,5.37,2.64,7,5.63,9.41,3.93,3.19,8.69,3.37,12.81,3.42a228.52,228.52,0,0,0,29.63-1.67q-9.93-12.8-21.14-25.95-4.93-5.76-9.83-11.24l-19.46-6.58Z" transform="translate(-430.69 -433.3)"/><path class="cls-79" d="M1165.82,3027.69s11.13,58-3,74.29c-12.06,16.26,5.82,4.66,5.82,4.66l21.36,18.64,12.81,22.13s-11.79-56.81-8.65-79.35,4.72-37.75,4.72-37.75Z" transform="translate(-430.69 -433.3)"/><path class="cls-80" d="M1207.76,2392.79s29.89,26.74,29.89,136.84-14.16,349.16-14.16,349.16L1200.84,3050s-23.49.84-39.21-3.88c-14.16-64.48-37.23-173.57-26.22-264.79,4.72-99.09-39.32-223.34-39.32-223.34s-37.74,125.82-64.48,188.74-77.65,260-82.36,274.16c-31.29,2.83-44.65-5.44-44.65-5.44s20.06-212.1,38.93-292.31,17.3-273.68,48.76-328.73C1063.06,2366.05,1207.76,2392.79,1207.76,2392.79Z" transform="translate(-430.69 -433.3)"/><path class="cls-81" d="M1207.76,2392.79s29.89,26.74,29.89,136.84-14.16,349.16-14.16,349.16L1200.84,3050s-23.49.84-39.21-3.88c-14.16-64.48-37.23-173.57-26.22-264.79,4.72-99.09-39.32-223.34-39.32-223.34s-37.74,125.82-64.48,188.74-77.65,260-82.36,274.16c-31.29,2.83-44.65-5.44-44.65-5.44s20.06-212.1,38.93-292.31,17.3-273.68,48.76-328.73C1063.06,2366.05,1207.76,2392.79,1207.76,2392.79Z" transform="translate(-430.69 -433.3)"/><path class="cls-82" d="M1052.52,2594.52c-9.31,60.57-28,93.19-74.54,135.12-37.27,28-9.32,88.52-23.3,135.11-4.66,14-18.64,28-23.29,41.94-17.34,34.67-1.15,77.09-9,113.8-12.23-1.69-17.78-5.09-17.78-5.09s20.06-212.1,38.93-292.31,17.3-273.68,48.76-328.73c70.77-28.31,215.47-1.57,215.47-1.57s29.89,26.74,29.89,136.84c0,8.93-.1,18.72-.27,29.16-31,27.45-94.47,33.55-133.61,3.12a18.48,18.48,0,0,0-7.47-3.39c-.12-.35-.21-.58-.21-.58s-.06.22-.16.54C1078.12,2555.23,1056.56,2578.36,1052.52,2594.52Z" transform="translate(-430.69 -433.3)"/><path class="cls-70" d="M937.6,3098.24s4.59,0,4.21,5.93,2.07,26.36-21.29,27.32-27-1.65-27.74-1.65,6.13-19.54,6.13-19.54l7.47-9.57,20.11-2.11Z" transform="translate(-430.69 -433.3)"/><path class="cls-83" d="M885.79,3118.74c.5-4.94,3.26-12.7,6-18.95,4.13-9.28.74-12.75,4.68-21.2a25.3,25.3,0,0,1,5.57-8.45,24.15,24.15,0,0,1,16.5-6.28,16.76,16.76,0,0,1,7.77,1.82c3.62,1.93,5.44,4.83,7,7.38,2.43,4,1.87,5.23,5.63,16.69a42.13,42.13,0,0,1,1.47,5.68,41.19,41.19,0,0,1,.61,5.1c-6.13,0-29.68,1-34.66,4.6s-7.47,9.77-7.47,15.9-3.07,9-6.13,8.81C890,3129.67,884.6,3124.6,885.79,3118.74Z" transform="translate(-430.69 -433.3)"/><path class="cls-83" d="M1168.81,3093.83c-5.26.08-9.13,4.27-12,14.36s-16.89,19-.58,16.89,28.15,21,34,29.51,21.46,16.13,21.07,7.79-7.28-12.25-9.22-20.79S1180.81,3093.64,1168.81,3093.83Z" transform="translate(-430.69 -433.3)"/><path class="cls-84" d="M892.22,2406.08c-3.87-10.76-28-81.43,11-145.88,32-52.76,87.25-70,95.14-72.3,48-14.18,72.05,4,87.19-12.73,25.7-28.44-3.41-125.3-59.72-144.71-63.46-21.87-139.6,62.23-170.45,117.47-40.48,72.47-30.52,144.49-28.18,159.33a248.78,248.78,0,0,0,30.72,86Z" transform="translate(-430.69 -433.3)"/><path class="cls-85" d="M1058,2016.79c56.65-2.27,100.34-1.37,125,23.29,26.07,26.05-.27,55.46,5.39,123.6,8.66,104.33,75.14,129.82,80.14,235.65a270,270,0,0,1-9,82.36,284.07,284.07,0,0,1-73.71,65.25c-51.28,31.21-81,25.76-154.67,45.92-120.47,33-131.18,72.24-190.92,62.23-60.37-10.11-113.34-60.91-106.94-88.81,3.83-16.71,28.17-12,56.19-37.46,36.11-32.85,22.18-64.2,49.64-99.49,39.44-50.69,94.38-19.7,128-63.64,34-44.45,20.51-132-8.15-179.76-18.71-31.19-26.73-67.73-42.66-100.42a22.7,22.7,0,0,1-2.18-12.74c2.59-21.29,38.08-32.84,65-41.31C1020,2018.54,1053.3,2017,1058,2016.79Z" transform="translate(-430.69 -433.3)"/><path class="cls-86" d="M1105.68,2014.45,1094.5,2011s-2.92,15.13-38.84,17a53.66,53.66,0,0,1-32.83-11.18l-7.64,5.57s16.75,20.92,43.39,20.39C1093,2042.12,1105.68,2014.45,1105.68,2014.45Z" transform="translate(-430.69 -433.3)"/><path class="cls-87" d="M1082.93,1968.43c-2.16-16.61-15.29-27.26-18.16-29.54-12-9.53-14.44-10.49-18.56-11.28l-5.63-.85-.61,0c-3.3.2-13.17,4-15,5.31-5.73,4-1.51,32.6,15.88,68.12q1,4.52,2,9c-15.16,2.66-18.91,5.4-19,7.58-.26,4.73,16.34,10.76,31.71,11.15,19.29.5,39.76-7.8,39.37-14-.16-2.51-3.79-5.6-17.8-8.64q-3.29-4.61-6.56-9.23C1072.61,1993.71,1084.51,1980.67,1082.93,1968.43Z" transform="translate(-430.69 -433.3)"/><path class="cls-88" d="M1059.09,1962.18c-4.38-2.62-7.71,3-5.65,7.92s9,8,13.19,5.07S1065,1965.7,1059.09,1962.18Z" transform="translate(-430.69 -433.3)"/><path class="cls-89" d="M492.16,1962.09c57.58-62.47,191.54-45.34,265.84,4.84,34.53,23.31,52.25,50.85,93,53.16,31,1.76,80.35-9.9,106.33-43.5,3.28-4.23,16.37-22,36-44.37,8.67-9.87,17.29-19.13,30.65-21.22,3.39-.53,14.68-2.37,22.15,4.92,6,5.91,7.53,16.18,5.74,23.59-1.07,4.43-2.45,4.89-2.25,7.79.55,8.15,15.39,11.7,14.56,15.8-.59,2.93-8.31,1.86-9.64,5.54-1.46,4,7,7.5,10.67,17.64,6.82,4.57,11.13,15.94,12.63,31.15,2.19,22.37-.06,40.54-4.3,54.23-20.4,65.9-35,113-70.32,139.36-46.77,34.85-88.88,2.67-207.84-2.42-162.9-7-203.51,48.25-262.06,10.47C460.3,2171.91,432.38,2027,492.16,1962.09Z" transform="translate(-430.69 -433.3)"/><path class="cls-90" d="M1346.58,1834.57c1.45,13.63,6.36,73.92-35.23,124.83-38.86,47.57-93.89,57.07-104.12,58.62-49.48,7.47-70.82-13.85-88.11.68-29.35,24.66-13.76,124.59,39.36,151.51,59.89,30.35,146.81-42.55,184.92-93.05,50-66.26,50-139,49.69-154a248.48,248.48,0,0,0-18.67-89.4,44.13,44.13,0,0,0-27.84.79Z" transform="translate(-430.69 -433.3)"/><path class="cls-91" d="M838.36,2615.22c14.48-14.86-1.46-44.8,19.94-67.07,19.85-20.66,42.34-4,74.31-21.75,41-22.8,29.71-64.56,68.88-87,28.16-16.14,41.4,1.21,85.19-7.25s97-38.59,123.25-92.44a158.72,158.72,0,0,0,15.84-66c19.66,35.13,40.06,68.79,42.74,125.59a270,270,0,0,1-9,82.36,284.07,284.07,0,0,1-73.71,65.25c-51.28,31.2-81,25.76-154.67,45.92-120.47,33-131.18,72.24-190.92,62.23-38.58-6.46-74.06-29.54-93-52.64C802.81,2627.23,827.84,2626,838.36,2615.22Z" transform="translate(-430.69 -433.3)"/></g></g></svg>