<svg xmlns="http://www.w3.org/2000/svg" viewBox="0 0 784.92 637.34"><defs><style>.cls-1{isolation:isolate;}.cls-11,.cls-2{fill:#d1d3d4;}.cls-3{fill:#fff;}.cls-4{fill:#f5425c;}.cls-5{fill:#414042;}.cls-6{fill:#546885;}.cls-13,.cls-7{fill:#f1f2f2;}.cls-11,.cls-12,.cls-7,.cls-8{mix-blend-mode:multiply;}.cls-8{fill:#e6e7e8;}.cls-9{fill:#b2bdcf;}.cls-10{fill:#f56e82;}.cls-14{fill:#475870;}</style></defs><title>deadline-concept</title><g class="cls-1"><g id="Ñëîé_1" data-name="Ñëîé 1"><rect class="cls-2" x="69.43" y="56.5" width="548.79" height="527.77" rx="58.42"/><rect class="cls-3" x="69.43" y="46" width="548.79" height="527.77" rx="58.42"/><path class="cls-4" d="M862,311v94.72H313.25V311a58.43,58.43,0,0,1,58.42-58.42h432A58.42,58.42,0,0,1,862,311Z" transform="translate(-243.82 -206.58)"/><circle class="cls-5" cx="394.32" cy="286.14" r="16.53" transform="translate(-284.38 -140.08) rotate(-9.17)"/><rect class="cls-6" x="135.47" width="30.05" height="90.34" rx="12.02"/><path class="cls-7" d="M409.34,218.6v66.3a12,12,0,0,1-12,12h-3V206.58h3A12,12,0,0,1,409.34,218.6Z" transform="translate(-243.82 -206.58)"/><circle class="cls-5" cx="490.98" cy="286.14" r="16.53" transform="translate(-269.55 -156.97) rotate(-5.64)"/><rect class="cls-6" x="232.14" width="30.05" height="90.34" rx="12.02"/><path class="cls-7" d="M506,218.6v66.3a12,12,0,0,1-12,12h-3V206.58h3A12,12,0,0,1,506,218.6Z" transform="translate(-243.82 -206.58)"/><circle class="cls-5" cx="587.65" cy="286.14" r="16.53" transform="translate(-274.27 -132.93) rotate(-6.99)"/><rect class="cls-6" x="328.8" width="30.05" height="90.34" rx="12.02"/><path class="cls-7" d="M602.67,218.6v66.3a12,12,0,0,1-12,12h-3V206.58h3A12,12,0,0,1,602.67,218.6Z" transform="translate(-243.82 -206.58)"/><circle class="cls-5" cx="684.31" cy="286.14" r="16.53" transform="matrix(0.87, -0.49, 0.49, 0.87, -295.81, 169.03)"/><rect class="cls-6" x="425.47" width="30.05" height="90.34" rx="12.02"/><path class="cls-7" d="M699.34,218.6v66.3a12,12,0,0,1-12,12h-3V206.58h3A12,12,0,0,1,699.34,218.6Z" transform="translate(-243.82 -206.58)"/><circle class="cls-5" cx="780.97" cy="286.14" r="16.53" transform="translate(-265.44 -138.68) rotate(-4.91)"/><rect class="cls-6" x="522.13" width="30.05" height="90.34" rx="12.02"/><path class="cls-7" d="M796,218.6v66.3a12,12,0,0,1-12,12h-3V206.58h3A12,12,0,0,1,796,218.6Z" transform="translate(-243.82 -206.58)"/><rect class="cls-8" x="69.43" y="189.94" width="548.79" height="9.19"/><rect class="cls-8" x="69.43" y="199.13" width="548.79" height="9.19"/><rect class="cls-9" x="123.02" y="252.39" width="54.97" height="54.97" rx="15.55"/><rect class="cls-9" x="219.68" y="252.39" width="54.97" height="54.97" rx="15.55"/><rect class="cls-9" x="316.34" y="252.39" width="54.97" height="54.97" rx="15.55"/><rect class="cls-9" x="413.01" y="252.39" width="54.97" height="54.97" rx="15.55"/><rect class="cls-9" x="509.67" y="252.39" width="54.97" height="54.97" rx="15.55"/><rect class="cls-9" x="123.02" y="350.13" width="54.97" height="54.97" rx="15.55"/><rect class="cls-9" x="219.68" y="350.13" width="54.97" height="54.97" rx="15.55"/><rect class="cls-9" x="316.34" y="350.13" width="54.97" height="54.97" rx="15.55"/><rect class="cls-9" x="413.01" y="350.13" width="54.97" height="54.97" rx="15.55"/><rect class="cls-9" x="509.67" y="350.13" width="54.97" height="54.97" rx="15.55"/><rect class="cls-9" x="123.02" y="447.86" width="54.97" height="54.97" rx="15.55"/><rect class="cls-10" x="219.68" y="447.86" width="54.97" height="54.97" rx="15.55"/><rect class="cls-9" x="316.34" y="447.86" width="54.97" height="54.97" rx="15.55"/><rect class="cls-9" x="413.01" y="447.86" width="54.97" height="54.97" rx="15.55"/><rect class="cls-9" x="509.67" y="447.86" width="54.97" height="54.97" rx="15.55"/><path class="cls-11" d="M463.58,648.66,451,593.92a106.15,106.15,0,1,0-47.62,45.42l52.4,16.55A6.13,6.13,0,0,0,463.58,648.66Z" transform="translate(-243.82 -206.58)"/><path class="cls-4" d="M455.18,640.25l-12.61-54.74A106.07,106.07,0,1,0,395,630.94l52.39,16.54A6.14,6.14,0,0,0,455.18,640.25Z" transform="translate(-243.82 -206.58)"/><g class="cls-12"><path class="cls-2" d="M343.94,555.08l-3.32-49.62q-.93-14.49-.93-20.82,0-8.59,4.51-13.41a15.47,15.47,0,0,1,11.86-4.82q8.91,0,11.91,6.16t3,17.77a136.47,136.47,0,0,1-.72,13.88l-4.46,51.07q-.72,9.12-3.1,14a8.15,8.15,0,0,1-7.88,4.87c-3.72,0-6.32-1.57-7.76-4.71S344.56,561.5,343.94,555.08Z" transform="translate(-243.82 -206.58)"/><path class="cls-2" d="M355.44,616.55a16.36,16.36,0,0,1-11-4.09q-4.71-4.1-4.71-11.45a14.86,14.86,0,0,1,4.51-10.93,15,15,0,0,1,11-4.51,15.35,15.35,0,0,1,11.13,4.51A14.69,14.69,0,0,1,371,601q0,7.25-4.66,11.39A15.87,15.87,0,0,1,355.44,616.55Z" transform="translate(-243.82 -206.58)"/></g><path class="cls-3" d="M338.68,549.83l-3.31-49.62q-.93-14.5-.93-20.82,0-8.59,4.5-13.42a15.49,15.49,0,0,1,11.86-4.81q8.91,0,11.92,6.16t3,17.76A133.88,133.88,0,0,1,365,499L360.54,550q-.72,9.12-3.11,14a8.13,8.13,0,0,1-7.87,4.87q-5.6,0-7.77-4.72T338.68,549.83Z" transform="translate(-243.82 -206.58)"/><path class="cls-3" d="M350.18,611.29a16.28,16.28,0,0,1-11-4.09q-4.71-4.1-4.71-11.45A15.38,15.38,0,0,1,350,580.32a15.34,15.34,0,0,1,11.14,4.51,14.7,14.7,0,0,1,4.61,10.92q0,7.26-4.66,11.4A15.89,15.89,0,0,1,350.18,611.29Z" transform="translate(-243.82 -206.58)"/><circle class="cls-11" cx="870.45" cy="685.62" r="158.29" transform="translate(-473.68 609.74) rotate(-45)"/><circle class="cls-6" cx="618.22" cy="470.64" r="158.29"/><path class="cls-11" d="M1020.33,677.22A158.29,158.29,0,0,1,750.11,789.14L974,565.29A157.79,157.79,0,0,1,1020.33,677.22Z" transform="translate(-243.82 -206.58)"/><circle class="cls-13" cx="618.22" cy="470.64" r="130.53"/><path class="cls-8" d="M748.26,741.18A130.53,130.53,0,0,1,974.33,610.66c-32.5-54.48-108.39-69.75-170.33-34S717.33,685.8,748.26,741.18Z" transform="translate(-243.82 -206.58)"/><circle class="cls-14" cx="618.22" cy="360.22" r="7.29"/><path class="cls-14" d="M813.14,577.94a7.29,7.29,0,1,1-9.95-2.66A7.29,7.29,0,0,1,813.14,577.94Z" transform="translate(-243.82 -206.58)"/><path class="cls-14" d="M770.06,615.69a7.29,7.29,0,1,1-10,2.67A7.29,7.29,0,0,1,770.06,615.69Z" transform="translate(-243.82 -206.58)"/><circle class="cls-14" cx="507.8" cy="470.64" r="7.29"/><path class="cls-14" d="M762.77,726.11a7.29,7.29,0,1,1-2.67,10A7.29,7.29,0,0,1,762.77,726.11Z" transform="translate(-243.82 -206.58)"/><path class="cls-14" d="M800.52,769.2a7.29,7.29,0,1,1,2.67,10A7.29,7.29,0,0,1,800.52,769.2Z" transform="translate(-243.82 -206.58)"/><circle class="cls-14" cx="618.22" cy="581.06" r="7.29"/><circle class="cls-14" cx="917.25" cy="772.84" r="7.29" transform="translate(-521.44 461.84) rotate(-35.12)"/><path class="cls-14" d="M954,738.74a7.29,7.29,0,1,1,10-2.67A7.3,7.3,0,0,1,954,738.74Z" transform="translate(-243.82 -206.58)"/><circle class="cls-14" cx="728.64" cy="470.64" r="7.29"/><path class="cls-14" d="M961.31,628.32a7.29,7.29,0,1,1,2.67-10A7.3,7.3,0,0,1,961.31,628.32Z" transform="translate(-243.82 -206.58)"/><circle class="cls-14" cx="917.25" cy="581.59" r="7.29" transform="translate(-329.97 790.67) rotate(-54.88)"/><path class="cls-14" d="M862,700.69a5,5,0,0,1-5-5V590.12a5,5,0,0,1,10,0V695.71A5,5,0,0,1,862,700.69Z" transform="translate(-243.82 -206.58)"/><path class="cls-14" d="M933.32,683.62H843.55a6.4,6.4,0,0,1,0-12.8h89.77a6.4,6.4,0,0,1,0,12.8Z" transform="translate(-243.82 -206.58)"/><circle class="cls-14" cx="618.22" cy="470.64" r="13.97"/></g></g></svg>