<svg xmlns="http://www.w3.org/2000/svg" xmlns:xlink="http://www.w3.org/1999/xlink" viewBox="0 0 2881.31 2800"><defs><style>.cls-1{isolation:isolate;}.cls-2{opacity:0.3;fill:url(#linear-gradient);}.cls-3{fill:url(#linear-gradient-2);}.cls-12,.cls-4,.cls-8{fill:#fff;}.cls-4{mix-blend-mode:soft-light;}.cls-5{fill:url(#linear-gradient-3);}.cls-6{fill:url(#linear-gradient-4);}.cls-7{fill:url(#linear-gradient-5);}.cls-9{fill:url(#linear-gradient-6);}.cls-10{fill:url(#linear-gradient-7);}.cls-11{fill:url(#linear-gradient-8);}.cls-12,.cls-13{opacity:0.78;}.cls-14{fill:url(#linear-gradient-9);}.cls-15{fill:url(#linear-gradient-10);}.cls-16{fill:url(#linear-gradient-11);}.cls-17{fill:url(#linear-gradient-12);}.cls-18{fill:url(#linear-gradient-13);}.cls-19{fill:url(#linear-gradient-14);}.cls-20{fill:url(#linear-gradient-15);}.cls-21{fill:url(#linear-gradient-16);}.cls-22{fill:url(#linear-gradient-17);}.cls-23{fill:url(#linear-gradient-18);}.cls-24{fill:url(#linear-gradient-19);}.cls-25{fill:url(#linear-gradient-20);}.cls-26{fill:url(#linear-gradient-21);}.cls-27{fill:url(#linear-gradient-22);}.cls-28{fill:url(#linear-gradient-23);}.cls-29{fill:url(#linear-gradient-24);}.cls-30{fill:url(#linear-gradient-25);}.cls-31{fill:url(#linear-gradient-26);}.cls-32{fill:url(#linear-gradient-27);}.cls-33{fill:url(#linear-gradient-28);}.cls-34{fill:url(#linear-gradient-29);}.cls-35{fill:url(#linear-gradient-30);}.cls-36{fill:url(#linear-gradient-31);}.cls-37{fill:url(#linear-gradient-32);}</style><linearGradient id="linear-gradient" x1="3683.48" y1="3568.42" x2="1466.48" y2="1579.65" gradientUnits="userSpaceOnUse"><stop offset="0" stop-color="#b37cff"/><stop offset="1" stop-color="#f895e7"/></linearGradient><linearGradient id="linear-gradient-2" x1="2961.45" y1="154.63" x2="4089.45" y2="154.63" gradientTransform="matrix(0.64, 0.77, -0.77, 0.64, 738.84, -1171.13)" gradientUnits="userSpaceOnUse"><stop offset="0" stop-color="#a737d5"/><stop offset="1" stop-color="#ef497a"/></linearGradient><linearGradient id="linear-gradient-3" x1="1131.87" y1="3641.92" x2="2515.64" y2="3641.92" gradientTransform="matrix(0.64, -0.77, 0.77, 0.64, -1384.58, 382.41)" gradientUnits="userSpaceOnUse"><stop offset="0" stop-color="#ce1567"/><stop offset="1" stop-color="#7a1dbc"/></linearGradient><linearGradient id="linear-gradient-4" x1="-947.22" y1="2882.29" x2="-370.02" y2="1150.67" gradientTransform="matrix(-1, 0, 0, 1, 1155.78, 0)" gradientUnits="userSpaceOnUse"><stop offset="0" stop-color="#2b3582"/><stop offset="1" stop-color="#150e42"/></linearGradient><linearGradient id="linear-gradient-5" x1="2098.38" y1="1964.15" x2="-1377.57" y2="5532.39" gradientUnits="userSpaceOnUse"><stop offset="0" stop-color="#fdf53f"/><stop offset="1" stop-color="#d93c65"/></linearGradient><linearGradient id="linear-gradient-6" x1="396.31" y1="2778.67" x2="-2175.08" y2="3404.14" gradientTransform="matrix(1, 0, 0, -1, 2554.22, 6090.29)" xlink:href="#linear-gradient-4"/><linearGradient id="linear-gradient-7" x1="1680.96" y1="990.85" x2="1297.46" y2="3492.47" gradientUnits="userSpaceOnUse"><stop offset="0" stop-color="#53d8ff"/><stop offset="0.21" stop-color="#4db9fd"/><stop offset="1" stop-color="#3840f7"/></linearGradient><linearGradient id="linear-gradient-8" x1="2355.64" y1="877.56" x2="2012.31" y2="1292.64" gradientTransform="translate(56.53 -41.06) rotate(1.97)" xlink:href="#linear-gradient-7"/><linearGradient id="linear-gradient-9" x1="-2550.63" y1="2926" x2="-2382.78" y2="2926" gradientTransform="matrix(-1, 0, 0, 1, 83.01, 0)" gradientUnits="userSpaceOnUse"><stop offset="0" stop-color="#53d8ff"/><stop offset="1" stop-color="#3840f7"/></linearGradient><linearGradient id="linear-gradient-10" x1="-2550.64" y1="2893.1" x2="-2387.52" y2="2893.1" gradientTransform="matrix(-1, 0, 0, 1, 83.01, 0)" xlink:href="#linear-gradient-4"/><linearGradient id="linear-gradient-11" x1="-2535.13" y1="2847.18" x2="-2487.85" y2="2847.18" gradientTransform="matrix(-1, 0, 0, 1, 83.01, 0)" gradientUnits="userSpaceOnUse"><stop offset="0" stop-color="#f9b776"/><stop offset="1" stop-color="#f47960"/></linearGradient><linearGradient id="linear-gradient-12" x1="-2885.24" y1="2922.38" x2="-2820.92" y2="2922.38" xlink:href="#linear-gradient-9"/><linearGradient id="linear-gradient-13" x1="-2884.78" y1="2872.85" x2="-2790.36" y2="2872.85" gradientTransform="matrix(-1, 0, 0, 1, 83.01, 0)" xlink:href="#linear-gradient-4"/><linearGradient id="linear-gradient-14" x1="-2835.7" y1="2807.76" x2="-2779.2" y2="2807.76" xlink:href="#linear-gradient-11"/><linearGradient id="linear-gradient-15" x1="-2398.81" y1="2287.17" x2="-3024.26" y2="3198.67" gradientTransform="matrix(-1, 0, 0, 1, 83.01, 0)" gradientUnits="userSpaceOnUse"><stop offset="0" stop-color="#18459f"/><stop offset="0.11" stop-color="#2874b5"/></linearGradient><linearGradient id="linear-gradient-16" x1="-2125.14" y1="1628.26" x2="-3420.44" y2="2754.85" gradientTransform="matrix(-1, 0, 0, 1, 83.01, 0)" xlink:href="#linear-gradient-3"/><linearGradient id="linear-gradient-17" x1="-2645.3" y1="2598.52" x2="-2618.22" y2="2544.37" xlink:href="#linear-gradient-9"/><linearGradient id="linear-gradient-18" x1="-2576.84" y1="1984.16" x2="-2777.98" y2="2162.28" xlink:href="#linear-gradient-11"/><linearGradient id="linear-gradient-19" x1="-2233.12" y1="1508.88" x2="-3522.59" y2="2630.38" gradientTransform="matrix(-1, 0, 0, 1, 83.01, 0)" xlink:href="#linear-gradient-3"/><linearGradient id="linear-gradient-20" x1="-2030.42" y1="1741.93" x2="-3319.88" y2="2863.44" gradientTransform="matrix(-1, 0, 0, 1, 83.01, 0)" xlink:href="#linear-gradient-3"/><linearGradient id="linear-gradient-21" x1="-2199.78" y1="2001.01" x2="-2041.37" y2="2001.01" xlink:href="#linear-gradient-11"/><linearGradient id="linear-gradient-22" x1="-2353.75" y1="1577.69" x2="-2355.48" y2="1873.5" xlink:href="#linear-gradient-11"/><linearGradient id="linear-gradient-23" x1="-2526.97" y1="2676.71" x2="-2672.58" y2="2869.34" gradientTransform="matrix(-0.99, -0.14, -0.14, 0.99, 222.07, -1480.94)" xlink:href="#linear-gradient-11"/><linearGradient id="linear-gradient-24" x1="-2638.18" y1="2723.18" x2="-2464.24" y2="2723.18" gradientTransform="matrix(-0.99, -0.14, -0.14, 0.99, 222.07, -1480.94)" xlink:href="#linear-gradient-4"/><linearGradient id="linear-gradient-25" x1="-2740.24" y1="2829.26" x2="-2623.44" y2="2709.43" gradientTransform="matrix(-0.99, -0.14, -0.14, 0.99, 222.07, -1480.94)" xlink:href="#linear-gradient-11"/><linearGradient id="linear-gradient-26" x1="-2058.2" y1="1982.41" x2="-2001.47" y2="1982.41" xlink:href="#linear-gradient-11"/><linearGradient id="linear-gradient-27" x1="-1426.04" y1="1542.15" x2="-3818.64" y2="3287.51" gradientTransform="matrix(-1, 0, 0, 1, 83.01, 0)" xlink:href="#linear-gradient-4"/><linearGradient id="linear-gradient-28" x1="-1342.16" y1="1930.58" x2="-1027.01" y2="1656.64" gradientTransform="matrix(-1, 0, 0, 1, 83.01, 0)" xlink:href="#linear-gradient-4"/><linearGradient id="linear-gradient-29" x1="-1066.62" y1="1528.51" x2="-2233.48" y2="2727.7" gradientTransform="matrix(-1, 0, 0, 1, 83.01, 0)" xlink:href="#linear-gradient-5"/><linearGradient id="linear-gradient-30" x1="-1778.2" y1="1563.52" x2="-2831.26" y2="2645.75" gradientTransform="matrix(-1, 0, 0, 1, 83.01, 0)" xlink:href="#linear-gradient-2"/><linearGradient id="linear-gradient-31" x1="-1750.97" y1="1658.62" x2="-2804.03" y2="2740.86" gradientTransform="matrix(-1, 0, 0, 1, 83.01, 0)" xlink:href="#linear-gradient-2"/><linearGradient id="linear-gradient-32" x1="-2497.41" y1="2073.86" x2="-2698.55" y2="2251.98" xlink:href="#linear-gradient-11"/></defs><title>email-temp</title><g class="cls-1"><g id="Illustration"><path class="cls-2" d="M2944.71,2880c-74.71,77-90.38,88.1-141.56,122.27C2304,3335.58,1581.75,3255,1405.34,3222.19c-284.61-53-424.39-71.68-630.81-258.17C305.47,2540.25,328.29,1656.23,686.7,1108.61c42.5-64.93,394.12-568.74,965.94-643.48,14-1.83,676.44-89.31,1123.41,285.16,64,53.61,166.95,150.3,262.43,297.76C3387.61,1587.25,3388.71,2422.35,2944.71,2880Z" transform="translate(-414.34 -455)"/><path class="cls-3" d="M3067.23,743.54c3.56-12.41,21.07-12.78,25.35-.6,43.38,123.69,123.11,468-144.27,858.22-335.48,489.6-325.76,737-250.72,923.77,0,0-157.69-151.49-174.16-405.93C2483,1494.32,3004,964.15,3067.23,743.54Z" transform="translate(-414.34 -455)"/><path class="cls-4" d="M3046.86,940.34c-19.65,63.71-40.55,127-63.73,189.42q-34.27,93.81-74.21,185.32c-26.85,60.85-54.85,121.19-85.36,180.25-30.25,59.2-63,117-96.1,175-32.75,58.1-66.08,116.44-93.53,178.37-27.45,61.78-48,127.82-55.8,195.66-1.94,16.91-3.58,33.93-4.2,50.87-.93,16.94-1.11,33.92-1,50.9a727,727,0,0,0,8.25,101.61c10.53,67.28,31.3,132.9,59.9,194.17a12.89,12.89,0,0,0,23.51-10.55l0,0c-6.53-15.1-12.89-30.25-18.54-45.64-3-7.65-5.56-15.41-8.31-23.13-2.46-7.8-5.22-15.52-7.43-23.39a679.55,679.55,0,0,1-21.32-95.63c-9.84-64.55-10.09-130.9-2.71-195.72a648.68,648.68,0,0,1,19.36-95.81,736.13,736.13,0,0,1,33.33-92.34c26.19-60.35,58.7-118.36,91-176.69s64.28-117.28,93.82-177.4q22.29-45,42.93-90.81c7-15.22,13.64-30.57,20.34-45.91s13-30.84,19.35-46.32q37.86-93,69.9-188.1c21-63.48,40.35-127.5,57.18-192.16a3.46,3.46,0,0,0-6.65-1.89Z" transform="translate(-414.34 -455)"/><path class="cls-5" d="M2461.2,2070.28c-16.5,17.13-45.13,11.83-54.7-10C2353.69,1940.19,2235.1,1587,2442,1184c174.71-340.35,237.1-541.5,259.09-634.78,4.66-19.72,31.78-22,39.76-3.41C2828.79,751.34,3059.29,1449.77,2461.2,2070.28Z" transform="translate(-414.34 -455)"/><path class="cls-4" d="M2431.71,2057.34a9.56,9.56,0,0,1-1.79.12,9.28,9.28,0,0,1-9-9.53c.15-5.81,18-586.7,239.51-1070.9a9.29,9.29,0,1,1,16.89,7.72c-219.93,480.68-237.68,1057.9-237.84,1063.67A9.29,9.29,0,0,1,2431.71,2057.34Z" transform="translate(-414.34 -455)"/><path class="cls-6" d="M612.61,2945.11a45.31,45.31,0,0,0,45.19,45.15H3101.74a45.31,45.31,0,0,0,45.2-45.15l20.34-1404.47c0-24.83-29.26-73.31-82.88-69.67l-2388.49-61.8a113.88,113.88,0,0,0-116.86,116.48Z" transform="translate(-414.34 -455)"/><path class="cls-7" d="M657.23,2901.79A42.88,42.88,0,0,0,700,2944.55H3042.81a42.88,42.88,0,0,0,42.75-42.76l19.19-1275c-2.26-76.73-69.52-104.31-110.3-102.68L705.3,1462.72a80,80,0,0,0-82.12,81.91Z" transform="translate(-414.34 -455)"/><path class="cls-8" d="M3060.25,2296.08h-.1a6.26,6.26,0,0,1-6.17-6.36l1.52-103.4a6.26,6.26,0,0,1,6.26-6.17h.09a6.27,6.27,0,0,1,6.18,6.36l-1.52,103.4A6.26,6.26,0,0,1,3060.25,2296.08Z" transform="translate(-414.34 -455)"/><path class="cls-8" d="M3064,2042.7h-.09a6.27,6.27,0,0,1-6.18-6.36l5.82-396c-.11-23.52-7.25-42.31-21.23-55.7-26.09-25-67.5-23.71-69.25-23.63l-731.66-19.62a6.27,6.27,0,0,1-6.1-6.43,6,6,0,0,1,6.44-6.09L2973,1548.47c4.55-.27,48.64-1,78,27.1,16.52,15.83,25,37.64,25.09,64.81l-5.82,396.15A6.26,6.26,0,0,1,3064,2042.7Z" transform="translate(-414.34 -455)"/><rect class="cls-9" x="414.34" y="2983.45" width="2881.31" height="123.4" rx="5.65" transform="translate(3295.66 5635.29) rotate(180)"/><path class="cls-10" d="M2217.85,800.84,767.68,792a83,83,0,0,0-83.41,87.12L784,2939.42H2397.8l89.6-1840.81Z" transform="translate(-414.34 -455)"/><path class="cls-11" d="M2278.15,1089.79a83,83,0,0,1-79.83-89.5l15.54-196.74,273.83,293.85Z" transform="translate(-414.34 -455)"/><path class="cls-12" d="M1449.39,1194.12c130.18-.21,629.93-1.8,756.13-2.21,15.92-.05,28.55,15.14,27.92,33.53h0c-.61,17.51-13.08,31.47-28.23,31.6l-755.79,6.44c-14.56.12-26.69-12.6-28-29.34l-.33-4.24C1419.62,1210.76,1432.74,1194.14,1449.39,1194.12Z" transform="translate(-414.34 -455)"/><path class="cls-12" d="M1443.45,1338.63c130.18-.2,629.94-1.79,756.13-2.2,15.92,0,28.55,15.14,27.92,33.53h0c-.6,17.51-13.07,31.47-28.22,31.6L1443.49,1408c-14.56.13-26.69-12.59-28-29.33l-.33-4.24C1413.69,1355.28,1426.8,1338.66,1443.45,1338.63Z" transform="translate(-414.34 -455)"/><path class="cls-12" d="M992,1544.59c201,.14,972.85-.13,1167.75-.21,24.58,0,44.54,15.23,44.1,33.62h0c-.42,17.51-19.28,31.45-42.67,31.53L994.08,1614c-22.48.08-41.58-12.67-44.08-29.42l-.63-4.24C946.53,1561.16,966.3,1544.57,992,1544.59Z" transform="translate(-414.34 -455)"/><path class="cls-12" d="M982.72,1696.26c156.5-.68,757.27-4.1,909-5,19.13-.11,34.56,15,34.09,33.44h0c-.45,17.51-15.22,31.51-33.43,31.7l-908.5,9.2c-17.5.18-32.29-12.49-34.11-29.24l-.46-4.23C947.2,1713,962.71,1696.35,982.72,1696.26Z" transform="translate(-414.34 -455)"/><path class="cls-12" d="M990,1894.85c201,.14,972.86-.13,1167.75-.2,24.59,0,44.54,15.22,44.1,33.62h0c-.42,17.51-19.27,31.44-42.67,31.53l-1167.1,4.44c-22.48.09-41.59-12.67-44.08-29.42l-.63-4.24C944.55,1911.42,964.32,1894.83,990,1894.85Z" transform="translate(-414.34 -455)"/><path class="cls-12" d="M972.54,2049.05c157.23.29,760.85.57,913.28.64,19.22,0,34.63,15.25,34,33.64h0c-.55,17.51-15.47,31.42-33.77,31.5l-912.83,3.6c-17.58.07-32.36-12.7-34.09-29.45l-.44-4.24C936.76,2065.58,952.43,2049,972.54,2049.05Z" transform="translate(-414.34 -455)"/><path class="cls-12" d="M980.12,2252.26c201.05.14,972.86-.13,1167.75-.2,24.58,0,44.54,15.22,44.1,33.61h0c-.42,17.52-19.28,31.45-42.67,31.54l-1167.11,4.44c-22.48.09-41.58-12.67-44.07-29.42l-.63-4.24C934.64,2268.83,954.41,2252.24,980.12,2252.26Z" transform="translate(-414.34 -455)"/><path class="cls-12" d="M968,2404.64c157.23.28,760.85.57,913.27.63,19.23,0,34.64,15.26,34.06,33.65h0c-.55,17.51-15.48,31.42-33.78,31.49L968.71,2474c-17.58.07-32.36-12.69-34.1-29.45l-.43-4.23C932.19,2421.17,947.87,2404.6,968,2404.64Z" transform="translate(-414.34 -455)"/><path class="cls-12" d="M992,2605.52c201,.14,972.85-.13,1167.75-.21,24.58,0,44.54,15.23,44.1,33.62h0c-.42,17.51-19.28,31.45-42.67,31.53l-1167.11,4.45c-22.48.08-41.58-12.67-44.08-29.42l-.63-4.24C946.53,2622.09,966.3,2605.5,992,2605.52Z" transform="translate(-414.34 -455)"/><path class="cls-12" d="M980.63,2774.4c155.25,0,751.25-.78,901.75-1,19,0,34.21,15.19,33.65,33.58h0c-.52,17.51-15.24,31.45-33.31,31.56l-901.29,5.21c-17.36.1-32-12.63-33.7-29.38l-.43-4.24C945.32,2791,960.78,2774.4,980.63,2774.4Z" transform="translate(-414.34 -455)"/><g class="cls-13"><path class="cls-8" d="M1136.64,1102.37l-81.72,300.83-22.1-.37L888.63,1033.75q-9.89-26.13-20.14-31.22t-56-6.73v-5.67l224.25,8.1v5.61q-39.74-1.43-55.12,2.1t-15.39,15.43q0,6.28,3.94,15.19l102.3,264.85,59-214.72-13.73-44.89q-7.83-25.3-18.92-30.72t-56.91-7.05v-5.61l220.45,8v5.55q-38.73-1.4-53.73,2.1t-15,16.52a39.19,39.19,0,0,0,2.56,13.73l82.33,262.21,69.77-189.92q10.64-29.8,10.64-48.89,0-52.29-76-55v-5.55l162.63,5.88v5.5q-44.47-1.59-65.88,42.48-3.15,6.65-23.31,59.48l-104,286-21-.36Z" transform="translate(-414.34 -455)"/></g><path class="cls-14" d="M2470.53,2917.88c28.76,2.49,78.66,6.52,118,8.25,23.65,1,37.27-1.27,45.11-4.41,0,.88,0,1.72-.07,2.5a8.14,8.14,0,0,1-7.73,7.68,1382.63,1382.63,0,0,1-154.51.16,5.8,5.8,0,0,1-4.72-8.71A48.18,48.18,0,0,1,2470.53,2917.88Z" transform="translate(-414.34 -455)"/><path class="cls-15" d="M2588.53,2926.13c-39.34-1.73-89.24-5.76-118-8.25,28.27-34.68,118-58.06,118-58.06h25.35c17.43,25.12,19.95,49,19.76,61.9C2625.8,2924.86,2612.18,2927.18,2588.53,2926.13Z" transform="translate(-414.34 -455)"/><path class="cls-16" d="M2618.14,2818.45l-2.37,46.93a10.71,10.71,0,0,1-9.15,10.08,41.78,41.78,0,0,1-19-1.58,12.68,12.68,0,0,1-8.53-9.75l-8.19-45.68Z" transform="translate(-414.34 -455)"/><path class="cls-17" d="M2947.31,2925.78c12.47-1.74,18.11-8.21,20.48-15.14l0,.19c1.84,7.3-2.41,14.87-10.92,18.47-10.27,4.36-21.51,5.1-30.23,4.74-9.36-.39-17.95-4.26-22.68-10.46l-.07-.09C2913.33,2928.14,2926.51,2928.68,2947.31,2925.78Z" transform="translate(-414.34 -455)"/><path class="cls-18" d="M2888.52,2818.14h20.9c31.83-.65,51.82,66.5,58.37,92.5-2.37,6.93-8,13.4-20.48,15.14-20.8,2.9-34,2.36-43.38-2.29-17.19-22.63-25.72-55.78-29.82-75.13C2869.45,2826.36,2888.52,2818.14,2888.52,2818.14Z" transform="translate(-414.34 -455)"/><path class="cls-19" d="M2906.73,2774.59l11.61,46.15a12.53,12.53,0,0,1-6.52,14.2c-6.49,3.33-15.63,6.84-24,5.82a10.47,10.47,0,0,1-8.54-7l-17-48.56Z" transform="translate(-414.34 -455)"/><path class="cls-20" d="M2920.58,2787.93c-14.44,12.81-61.41,14.5-61.41,14.5-169.17-406-238.37-463.71-238.37-463.71,24.43,153.25,3.94,492.53,3.94,492.53-27.92,12.32-63.91,0-63.91,0a2615.2,2615.2,0,0,0-86.39-642.2c114.34-2.57,175.15-41.7,195-57.4C2764.75,2285.31,2920.58,2787.93,2920.58,2787.93Z" transform="translate(-414.34 -455)"/><path class="cls-21" d="M2640.4,1664.72c21.64,108,13.89,301.16,8.79,389.29-1.43,24.77,15.86,59.11,29.84,82.53a7.35,7.35,0,0,1-3,10.34c-23.4,12-102.67,49.3-194.55,53.94a13.11,13.11,0,0,1-13.18-9.79C2400.18,1936.56,2321,1774,2321,1774,2408.42,1634.39,2640.4,1664.72,2640.4,1664.72Z" transform="translate(-414.34 -455)"/><path class="cls-22" d="M2609.26,2329.1a5.34,5.34,0,0,0,2.81-.79,5.42,5.42,0,0,0,1.81-7.44c-.91-1.5-22.79-36.87-67.08-58.23a5.42,5.42,0,0,0-4.71,9.76c41.29,19.92,62.33,53.77,62.54,54.11A5.41,5.41,0,0,0,2609.26,2329.1Z" transform="translate(-414.34 -455)"/><path class="cls-23" d="M2776.15,1974.53c-7,50.29-27.49,105.15-68.58,163.41L2692,2125.21s18-73.15,7.78-156.17C2725.08,1964.09,2755,1969.19,2776.15,1974.53Z" transform="translate(-414.34 -455)"/><path class="cls-24" d="M2616.23,1797.91l24.17-133.19s161.51,123.45,135.75,309.81c-21.14-5.34-51.07-10.44-76.42-5.49C2692.35,1909.23,2670.29,1844.31,2616.23,1797.91Z" transform="translate(-414.34 -455)"/><path class="cls-25" d="M2321,1774l62.34,134.27c-10.08,81-53.62,116.1-100.57,129.55a284.94,284.94,0,0,0-20.94-87.44C2321.84,1888.39,2321,1774,2321,1774Z" transform="translate(-414.34 -455)"/><path class="cls-26" d="M2261.85,1950.33a284.94,284.94,0,0,1,20.94,87.44c-125.27,48.6-158.41-45.66-158.41-45.66l23.15-4.08C2199.81,1993.54,2236.33,1976.68,2261.85,1950.33Z" transform="translate(-414.34 -455)"/><path class="cls-27" d="M2378.46,1608.2l30.1,110.64a21.52,21.52,0,0,0,28.78,14.32,437.14,437.14,0,0,0,43.38-19.82,29,29,0,0,0,10.23-41.68l-62.57-93.3Z" transform="translate(-414.34 -455)"/><path class="cls-28" d="M2312.61,1524.14c-.27,1.9,25.11,126.25,25.11,126.25l70.7-16L2401.87,1513S2317.2,1492.33,2312.61,1524.14Z" transform="translate(-414.34 -455)"/><path class="cls-29" d="M2386,1540l8.45,63.65a8.67,8.67,0,0,1,0,2.44c-.71,5-4.42,22-21.57,17.12-15.56-4.41-29.83-8.2-39.68-5.18a9,9,0,0,0-6.17,10.37c2.31,11.29,8,36.66,16.27,57.94a9,9,0,0,0,10.87,5.29c13.4-3.91,41.45-12.94,62.31-25.5a9,9,0,0,0,4.38-8.07c-.68-16.07-2.56-64.92-1-78.62,1.48-12.85,17.26-20.55,24.11-23.31a8.79,8.79,0,0,0,4.91-4.92c3.17-8,7.55-26.36-15.64-33.9a9,9,0,0,1-5.69-11.62c3.43-9.56,4.88-24.16-13.06-32.2-18.24-8.17-31.86,1.55-39.21,9.45a9,9,0,0,1-11.43,1.35c-2.1-1.32-4.81-1.76-8.08.28a8.84,8.84,0,0,1-12.51-3.79c-4.37-9-13.27-18.57-31.12-15.51-31.68,5.42-35.27,40.53-26.91,61.1s42.37,12.74,59.43,2.37c13-7.89,29.8.38,37.12,4.79A8.88,8.88,0,0,1,2386,1540Z" transform="translate(-414.34 -455)"/><path class="cls-30" d="M2422.69,1602.67s-13-36.47.35-45.4,33.2-4.29,28.84,22.13C2446.45,1612.26,2422.69,1602.67,2422.69,1602.67Z" transform="translate(-414.34 -455)"/><path class="cls-31" d="M2133.67,2009.36c-6.31,4.92-27.91-5.36-41.13-12.47a15.21,15.21,0,0,1-7.35-18c3.18-10,8.48-23,15-24.61C2111,1951.6,2159.65,1989.06,2133.67,2009.36Z" transform="translate(-414.34 -455)"/><path class="cls-32" d="M3197.29,2314,1547.74,1727.35l-87.27,242.42,1649,603.05a76.88,76.88,0,0,0,92.87-33.62c19.28-33.1,37.7-84.82,38.81-162.29A65.87,65.87,0,0,0,3197.29,2314Z" transform="translate(-414.34 -455)"/><path class="cls-33" d="M1037.42,1664.69l227.86,28c-.24,31.36-10.51,71.93-45.27,118.48l-190.29-125.53C1019.62,1679,1025.41,1663.22,1037.42,1664.69Z" transform="translate(-414.34 -455)"/><path class="cls-34" d="M1547.74,1727.35c10.44,151.92-87.27,242.42-87.27,242.42L1220,1811.15c34.76-46.55,45-87.12,45.27-118.48Z" transform="translate(-414.34 -455)"/><path class="cls-35" d="M3176.83,2388.35a4.84,4.84,0,0,0,1.61-9.41L1600.27,1821.2a4.84,4.84,0,1,0-3.23,9.13l1578.17,557.74A4.85,4.85,0,0,0,3176.83,2388.35Z" transform="translate(-414.34 -455)"/><path class="cls-36" d="M3149.6,2483.46a4.85,4.85,0,0,0,1.62-9.42L1573,1916.3a4.85,4.85,0,0,0-3.23,9.14L3148,2483.18A4.79,4.79,0,0,0,3149.6,2483.46Z" transform="translate(-414.34 -455)"/><path class="cls-37" d="M2698.39,2123l-72.9-5.94-31.58,29.1s7.47,10.33,30.83,4.39,55.34-7.39,55.34-7.39,32.24,14.54,32.63-12.66Z" transform="translate(-414.34 -455)"/></g></g></svg>