<svg xmlns="http://www.w3.org/2000/svg" xmlns:xlink="http://www.w3.org/1999/xlink" viewBox="0 0 2948.35 2991.03"><defs><style>.cls-1{fill:url(#linear-gradient);}.cls-2{fill:url(#linear-gradient-2);}.cls-3{isolation:isolate;}.cls-4{fill:#f4f7fa;}.cls-5{clip-path:url(#clip-path);}.cls-6{opacity:0.5;}.cls-19,.cls-6{mix-blend-mode:soft-light;}.cls-19,.cls-22,.cls-7{fill:#fff;}.cls-8{clip-path:url(#clip-path-2);}.cls-9{fill:url(#linear-gradient-5);}.cls-10{fill:url(#linear-gradient-6);}.cls-11{fill:url(#linear-gradient-7);}.cls-12{fill:url(#linear-gradient-8);}.cls-13{fill:url(#linear-gradient-9);}.cls-14{opacity:0.37;fill:url(#linear-gradient-10);}.cls-14,.cls-21,.cls-31,.cls-36,.cls-39{mix-blend-mode:multiply;}.cls-15{fill:url(#linear-gradient-11);}.cls-16{fill:url(#linear-gradient-12);}.cls-17{fill:url(#linear-gradient-13);}.cls-18{fill:url(#linear-gradient-14);}.cls-19{opacity:0.48;}.cls-20{fill:url(#linear-gradient-15);}.cls-21,.cls-31,.cls-36,.cls-39{opacity:0.3;}.cls-21{fill:url(#linear-gradient-16);}.cls-22{opacity:0.63;}.cls-23{fill:url(#linear-gradient-17);}.cls-24{fill:url(#linear-gradient-18);}.cls-25{fill:url(#linear-gradient-19);}.cls-26{fill:url(#linear-gradient-20);}.cls-27{fill:url(#linear-gradient-21);}.cls-28{fill:url(#linear-gradient-22);}.cls-29{fill:url(#linear-gradient-23);}.cls-30{fill:url(#linear-gradient-24);}.cls-31{fill:url(#linear-gradient-25);}.cls-32{fill:url(#linear-gradient-26);}.cls-33{fill:url(#linear-gradient-27);}.cls-34{fill:url(#linear-gradient-28);}.cls-35{fill:url(#linear-gradient-29);}.cls-36{fill:url(#linear-gradient-30);}.cls-37{fill:url(#linear-gradient-31);}.cls-38{fill:url(#linear-gradient-32);}.cls-39{fill:url(#linear-gradient-33);}.cls-40{fill:url(#linear-gradient-34);}.cls-41{fill:url(#linear-gradient-35);}</style><linearGradient id="linear-gradient" x1="1406.85" y1="1617.17" x2="2705.71" y2="1617.17" gradientUnits="userSpaceOnUse"><stop offset="0" stop-color="#aa80f9"/><stop offset="1" stop-color="#6165d7"/></linearGradient><linearGradient id="linear-gradient-2" x1="3210.98" y1="883.88" x2="2742.87" y2="2140.37" gradientUnits="userSpaceOnUse"><stop offset="0" stop-color="#e38ddd"/><stop offset="1" stop-color="#9571f6"/></linearGradient><clipPath id="clip-path" transform="translate(-421.61 -338.08)"><path class="cls-1" d="M1980.11,2816c52.56-140.27,108.1-353.36,62.37-593.3-60-314.67-241.44-399.06-460.15-874-138.3-300.28-231.78-511.23-137-695.56,74.29-144.45,255.31-255.25,410-231.73,128.61,19.56,254.07,134.27,321,227.31,54.56,75.83,73.13,141.28,142.25,161.29,70.63,20.45,110.75-30.68,172.53-20.21,125.29,21.25,181.11,268.95,190.13,309,100.37,445.32-133.75,894.68-238.24,1089.47C2356.61,2349.36,2212.89,2578.09,1980.11,2816Z"/></clipPath><clipPath id="clip-path-2" transform="translate(-421.61 -338.08)"><path class="cls-2" d="M2349.47,2301.73c189.26-23.29,427-79.95,644.36-214.38,55.46-34.3,398.08-246.22,333.55-406.42-22.73-56.43-76.78-58.79-108.49-133.71-37.57-88.77,14.27-142.28,39.44-262.27,15-71.59,59-281.11-75.53-376.49-80.37-57-220.82-70.65-321.48-32.93-147.65,55.32-180.75,210.33-232.21,473.58-45.62,233.37-19.3,285.78-55.09,453.24C2547.47,1926.64,2489.65,2100.53,2349.47,2301.73Z"/></clipPath><linearGradient id="linear-gradient-5" x1="1121.58" y1="2098.91" x2="91.33" y2="2208.27" gradientTransform="matrix(1, -0.02, 0, 1, 0, 6.13)" gradientUnits="userSpaceOnUse"><stop offset="0" stop-color="#ffc444"/><stop offset="1" stop-color="#f36f56"/></linearGradient><linearGradient id="linear-gradient-6" x1="1671.74" y1="1649.19" x2="2529.34" y2="3548.57" xlink:href="#linear-gradient-5"/><linearGradient id="linear-gradient-7" x1="1875.75" y1="1900.85" x2="1960.17" y2="56.43" xlink:href="#linear-gradient-5"/><linearGradient id="linear-gradient-8" x1="1671.72" y1="1649.2" x2="2529.32" y2="3548.58" xlink:href="#linear-gradient-5"/><linearGradient id="linear-gradient-9" x1="1654.87" y1="1719.72" x2="2979.62" y2="-336.61" xlink:href="#linear-gradient-5"/><linearGradient id="linear-gradient-10" x1="1914.68" y1="1539.51" x2="2772.27" y2="3438.88" xlink:href="#linear-gradient-5"/><linearGradient id="linear-gradient-11" x1="1355.36" y1="3234.67" x2="1204.51" y2="3298.02" gradientUnits="userSpaceOnUse"><stop offset="0" stop-color="#40447e"/><stop offset="1" stop-color="#3c3b6b"/></linearGradient><linearGradient id="linear-gradient-12" x1="1153.93" y1="2569.84" x2="990.23" y2="2638.6" xlink:href="#linear-gradient-11"/><linearGradient id="linear-gradient-13" x1="448.33" y1="2607.06" x2="1965.44" y2="2607.06" xlink:href="#linear-gradient-11"/><linearGradient id="linear-gradient-14" x1="1406.73" y1="2239.34" x2="244.01" y2="4140.14" gradientUnits="userSpaceOnUse"><stop offset="0" stop-color="#ff9085"/><stop offset="1" stop-color="#fb6fbb"/></linearGradient><linearGradient id="linear-gradient-15" x1="448.33" y1="3168.08" x2="2595.67" y2="3168.08" xlink:href="#linear-gradient-11"/><linearGradient id="linear-gradient-16" x1="237.3" y1="2812.41" x2="1810.64" y2="2812.41" xlink:href="#linear-gradient-11"/><linearGradient id="linear-gradient-17" x1="4432.17" y1="413.37" x2="5272.83" y2="984.39" gradientTransform="matrix(-1, 0, 0, 1, 5597.17, 0)" gradientUnits="userSpaceOnUse"><stop offset="0" stop-color="#311944"/><stop offset="1" stop-color="#6b3976"/></linearGradient><linearGradient id="linear-gradient-18" x1="4412.72" y1="763.94" x2="4629.82" y2="1359.99" gradientTransform="matrix(-1, 0, 0, 1, 5690.8, 0)" xlink:href="#linear-gradient-5"/><linearGradient id="linear-gradient-19" x1="3335.21" y1="4032.74" x2="3458.76" y2="4032.74" gradientTransform="matrix(-0.83, -0.56, -0.56, 0.83, 6533.22, 279.31)" xlink:href="#linear-gradient-17"/><linearGradient id="linear-gradient-20" x1="4112.21" y1="1802.87" x2="4313.82" y2="1198.06" gradientTransform="matrix(-1, 0, 0, 1, 5597.17, 0)" xlink:href="#linear-gradient-5"/><linearGradient id="linear-gradient-21" x1="4078.41" y1="1525.14" x2="4147.65" y2="1525.14" xlink:href="#linear-gradient-17"/><linearGradient id="linear-gradient-22" x1="4038.28" y1="1715.26" x2="4151.34" y2="1376.07" gradientTransform="matrix(-1, 0, 0, 1, 5597.17, 0)" xlink:href="#linear-gradient-5"/><linearGradient id="linear-gradient-23" x1="4177.59" y1="1143.81" x2="4261.92" y2="1631.34" gradientTransform="matrix(-1, 0, 0, 1, 5597.17, 0)" xlink:href="#linear-gradient"/><linearGradient id="linear-gradient-24" x1="4296.69" y1="1721.61" x2="4416.59" y2="1342.12" gradientTransform="matrix(-1, 0, 0, 1, 5597.17, 0)" xlink:href="#linear-gradient"/><linearGradient id="linear-gradient-25" x1="4296.7" y1="1721.61" x2="4416.6" y2="1342.13" gradientTransform="matrix(-1, 0, 0, 1, 5597.17, 0)" xlink:href="#linear-gradient"/><linearGradient id="linear-gradient-26" x1="4465.42" y1="1094.61" x2="4549.56" y2="1581.01" gradientTransform="matrix(-1, 0, 0, 1, 5597.17, 0)" xlink:href="#linear-gradient"/><linearGradient id="linear-gradient-27" x1="4590.37" y1="699.23" x2="4807.48" y2="1295.28" gradientTransform="matrix(-1, 0, 0, 1, 5690.8, 0)" xlink:href="#linear-gradient-5"/><linearGradient id="linear-gradient-28" x1="-2622.88" y1="1513.33" x2="-2614.29" y2="1284.47" gradientTransform="translate(3848.74 -244.24) rotate(10.28)" xlink:href="#linear-gradient-5"/><linearGradient id="linear-gradient-29" x1="-2625.56" y1="1311.29" x2="-2629.24" y2="1607.61" gradientTransform="translate(3848.74 -244.24) rotate(10.28)" xlink:href="#linear-gradient-5"/><linearGradient id="linear-gradient-30" x1="4458.92" y1="1078.95" x2="4913.62" y2="1078.95" gradientTransform="matrix(-1, 0, 0, 1, 5690.8, 0)" xlink:href="#linear-gradient-5"/><linearGradient id="linear-gradient-31" x1="5831.34" y1="1088.25" x2="6157.98" y2="1088.25" gradientTransform="matrix(-1, 0, 0, 1, 7107.17, 0)" xlink:href="#linear-gradient-11"/><linearGradient id="linear-gradient-32" x1="5622.45" y1="882.21" x2="5836.6" y2="1094.65" gradientTransform="matrix(-1, 0, 0, 1, 7107.17, 0)" xlink:href="#linear-gradient-11"/><linearGradient id="linear-gradient-33" x1="5622.45" y1="882.21" x2="5836.61" y2="1094.65" gradientTransform="matrix(-1, 0, 0, 1, 7107.17, 0)" xlink:href="#linear-gradient-11"/><linearGradient id="linear-gradient-34" x1="4681.82" y1="1050.12" x2="5380.5" y2="458.01" gradientTransform="matrix(-1, 0, 0, 1, 5690.8, 0)" xlink:href="#linear-gradient-5"/><linearGradient id="linear-gradient-35" x1="-4295.62" y1="1023.84" x2="-4404.2" y2="1126.17" gradientTransform="translate(5366.89)" xlink:href="#linear-gradient-5"/></defs><title>email-mar</title><g class="cls-3"><g id="Illustration"><path class="cls-4" d="M1113.92,594.82c-96.33,140.42,16.62,368.09-126.32,473.7-139.14,102.81-310.07-65.7-441.21,22.79-194.52,131.28-159,732,125.41,1105.2,85.53,112.24,157,155.91,188.65,282.85,68,272.57-170.9,434.71-125.45,569.52,102.36,303.55,1676.44,558.25,2308-354,295-426.06,339.11-1041.28,75.56-1508.55C2642.36,342,1330.07,279.73,1113.92,594.82Z" transform="translate(-421.61 -338.08)"/><path class="cls-1" d="M1980.11,2816c52.56-140.27,108.1-353.36,62.37-593.3-60-314.67-241.44-399.06-460.15-874-138.3-300.28-231.78-511.23-137-695.56,74.29-144.45,255.31-255.25,410-231.73,128.61,19.56,254.07,134.27,321,227.31,54.56,75.83,73.13,141.28,142.25,161.29,70.63,20.45,110.75-30.68,172.53-20.21,125.29,21.25,181.11,268.95,190.13,309,100.37,445.32-133.75,894.68-238.24,1089.47C2356.61,2349.36,2212.89,2578.09,1980.11,2816Z" transform="translate(-421.61 -338.08)"/><g class="cls-5"><g class="cls-6"><path class="cls-7" d="M1903.72,2944.11l-5.14-4.78c138.24-148.68,246.58-298.07,322-444,111.29-215.31,147.17-417,106.65-599.5-31.73-142.91-108-269.45-213.48-444.59-84.23-139.8-156.53-231.28-220.31-312-83.27-105.37-149-188.59-201.85-330.32C1638,665.06,1616,506.65,1626,338.08l7,.41c-10,167.6,11.91,325,65.15,468C1750.6,947.16,1816.07,1030,1899,1134.89c63.91,80.87,136.35,172.53,220.81,312.71,101.87,169.1,182.34,302.66,214.32,446.69,40.89,184.14,4.8,387.43-107.26,604.24C2151.11,2645.05,2042.39,2795,1903.72,2944.11Z" transform="translate(-421.61 -338.08)"/><path class="cls-7" d="M2042.4,1350.69c-30.92,0-133.52-3.64-255.71-47-85.77-30.44-164.32-74.22-233.49-130.11-86.44-69.85-158.35-158.92-213.74-264.72l6.21-3.26c54.95,104.95,126.25,193.27,211.94,262.52,68.55,55.39,146.41,98.78,231.42,129,129.78,46.07,237,46.91,258.6,46.58-50.94-303.47,9-539,68.45-683.4,33.81-82.14,71.05-144.14,96.33-181.69,27.43-40.75,47.19-62.4,47.38-62.61l5.18,4.75c-.78.84-78.29,86.34-142.53,242.53-59.27,144.12-119,379.64-67.22,683.23l.67,3.91-4,.19C2051.74,1350.56,2048.43,1350.69,2042.4,1350.69Z" transform="translate(-421.61 -338.08)"/><path class="cls-7" d="M2273.79,1734l-2.23-1.25c-1.64-.92-166.62-93.33-350.15-153.6-182.8-60-491.65,40.3-494.74,41.32l-2.2-6.66c3.12-1,314.17-102.06,499.13-41.33,172.56,56.67,328.75,141.63,349.16,152.91,133.95-125.56,189.48-421.43,212.48-648.07,25.08-247.11,17.91-467.43,17.84-469.62l7-.24c.08,2.2,7.26,223-17.86,470.57-14.77,145.49-37.64,271.65-68,375-38,129.54-88,223.49-148.6,279.26Z" transform="translate(-421.61 -338.08)"/><path class="cls-7" d="M2258.43,2437.89l.45-7c6-95-16.48-180-67-252.68-40.46-58.26-98.87-108.86-173.63-150.39-127.6-70.88-260.27-90.93-261.6-91.13l1-6.94c1.33.19,135.11,20.39,263.82,91.85,75.75,42.05,135,93.36,176.09,152.52,50.2,72.25,73.28,156.38,68.66,250.15,27.55-18.75,149.19-104.39,286.84-244.48,143.82-146.38,335-383.85,429.22-683.92l182.79-582.3,6.69,2.1L2989,1498c-94.63,301.47-286.64,539.92-431.05,686.87-156.43,159.19-292.34,248.33-293.7,249.21Z" transform="translate(-421.61 -338.08)"/></g></g><path class="cls-2" d="M2349.47,2301.73c189.26-23.29,427-79.95,644.36-214.38,55.46-34.3,398.08-246.22,333.55-406.42-22.73-56.43-76.78-58.79-108.49-133.71-37.57-88.77,14.27-142.28,39.44-262.27,15-71.59,59-281.11-75.53-376.49-80.37-57-220.82-70.65-321.48-32.93-147.65,55.32-180.75,210.33-232.21,473.58-45.62,233.37-19.3,285.78-55.09,453.24C2547.47,1926.64,2489.65,2100.53,2349.47,2301.73Z" transform="translate(-421.61 -338.08)"/><g class="cls-8"><g class="cls-6"><path class="cls-7" d="M1727.4,2475.9a1381.73,1381.73,0,0,1-180.61-12.1l.92-7c214.25,28.24,416.37,6.74,600.75-63.91,245.63-94.12,445.84-274.58,595.08-536.38C2899,1583.92,2960.18,1291.38,2984.17,1094c16.62-136.7-8.93-282.35-75.94-432.9l6.41-2.86c67.53,151.73,93.27,298.63,76.5,436.61-24.07,198-85.5,491.56-241.5,765.21-150.07,263.24-351.49,444.74-598.67,539.45C2018.21,2450.35,1876.32,2475.9,1727.4,2475.9Z" transform="translate(-421.61 -338.08)"/><path class="cls-7" d="M2905,1490.71l-2.28-2.18c-.62-.59-62.24-59.78-118.19-155.11-51.7-88.07-109.07-225.94-88.8-382.62l7,.9c-20,154.63,36.7,290.9,87.78,378,49.44,84.28,103.3,140,114.84,151.55C3272.92,1168.06,3230.12,870,3208.2,786a39.46,39.46,0,0,1-1-4.15l7-.83-3.48.41,3.48-.45c.07.48.37,1.57.81,3.25,22.23,85.22,65.77,387.89-307.62,704.48Z" transform="translate(-421.61 -338.08)"/><path class="cls-7" d="M2769.06,1857.4c-6.59,0-13.22-.05-19.94-.17l-1.88,0-1-1.57c-1.39-2.17-139.5-220-156.77-538.44L2572,996l7-.38,17.41,321.16c16.39,302.22,142.19,513.2,154.68,533.44,138,2.1,333.87-19.94,486.94-135.93,91.92-69.65,125.17-141.23,125.49-141.94l6.39,2.9c-.34.74-8.55,18.65-28.4,45.52-18.25,24.71-50.22,61.91-98.87,98.84C3159.19,1783,3009.84,1857.4,2769.06,1857.4Z" transform="translate(-421.61 -338.08)"/></g></g><path class="cls-9" d="M3022,1311.91,698.16,1267.74c-49.07-.94-89.77,39-89.77,88.11v1497.7a85.21,85.21,0,0,0,93.27,85.09L3025.47,2728.3a88.44,88.44,0,0,0,80.28-87.77V1397.33A85.15,85.15,0,0,0,3022,1311.91Z" transform="translate(-421.61 -338.08)"/><path class="cls-10" d="M3061.91,1311.29,738.1,1267.12c-49.07-.94-89.77,39-89.77,88.11v1497.7A85.21,85.21,0,0,0,741.6,2938l2323.81-210.33a88.46,88.46,0,0,0,80.29-87.78V1396.72A85.16,85.16,0,0,0,3061.91,1311.29Z" transform="translate(-421.61 -338.08)"/><path class="cls-11" d="M2149.57,2158.27,3123.29,1339a85.05,85.05,0,0,0-61.38-27.7L738.1,1267.12a87.62,87.62,0,0,0-58.26,20.75L1981.56,2168C2032.86,2202.72,2101.48,2198.73,2149.57,2158.27Z" transform="translate(-421.61 -338.08)"/><path class="cls-12" d="M2149.57,2158.27c-48.09,40.46-116.71,44.45-168,9.76L679.84,1287.87a88,88,0,0,0-31.51,67.36v1497.7A85.21,85.21,0,0,0,741.6,2938l2323.81-210.33a88.46,88.46,0,0,0,80.29-87.78V1396.72a85.17,85.17,0,0,0-22.41-57.73Z" transform="translate(-421.61 -338.08)"/><path class="cls-13" d="M2149.57,2158.27,3123.29,1339a85.05,85.05,0,0,0-61.38-27.7L738.1,1267.12a87.62,87.62,0,0,0-58.26,20.75L1981.56,2168C2032.86,2202.72,2101.48,2198.73,2149.57,2158.27Z" transform="translate(-421.61 -338.08)"/><path class="cls-14" d="M3123.29,1339l-973.72,819.28c-48.09,40.46-116.71,44.45-168,9.76L679.84,1287.87a88,88,0,0,0-31.51,67.36v220.89c47-20.5,86.83-24.91,119.18-22.71,89.43,6.09,110.78,61.59,282,139.53,160.11,72.87,176.91,40.5,247.49,94,136,103.1,76.51,225.44,195.69,336.55,124.11,115.69,231.18,22.74,408.65,131.8,187.53,115.26,127.5,255.64,282,335.22C2399.88,2702,2621,2479.61,2805,2592.4c55.65,34.1,91.22,88.65,114.16,148.53l146.26-13.24a88.46,88.46,0,0,0,80.29-87.78V1396.72A85.17,85.17,0,0,0,3123.29,1339Z" transform="translate(-421.61 -338.08)"/><path class="cls-15" d="M2595.67,3152.13,448.33,3133.42v55.34c0,15,9.37,27.79,22.05,30.07l607.2,109a83.37,83.37,0,0,0,21.79,1l1473-124.23c13.15-1.11,23.34-13.92,23.34-29.36Z" transform="translate(-421.61 -338.08)"/><path class="cls-16" d="M1904.41,3062.42,472,3163.65c-25.63,1.82-46.47-17.43-46.47-43v-1024A46.4,46.4,0,0,1,472,2050.35H1904.41c21.12,0,38.19,18.73,38.19,41.83v925.71C1942.6,3041,1925.53,3060.93,1904.41,3062.42Z" transform="translate(-421.61 -338.08)"/><path class="cls-17" d="M1927.25,3062.42,494.8,3163.65c-25.63,1.82-46.47-17.43-46.47-43v-1024a46.4,46.4,0,0,1,46.47-46.28H1927.25c21.12,0,38.19,18.73,38.19,41.83v925.71C1965.44,3041,1948.37,3060.93,1927.25,3062.42Z" transform="translate(-421.61 -338.08)"/><path class="cls-18" d="M1882.63,2997.16,548.45,3085.09c-20.86,1.38-37.81-14.42-37.81-35.29V2153.26a38,38,0,0,1,37.81-37.94l1334.18-5.52c17.42-.07,31.51,15.28,31.51,34.28v816.59C1914.14,2979.68,1900.05,2996,1882.63,2997.16Z" transform="translate(-421.61 -338.08)"/><path class="cls-7" d="M1261.62,2078.36c0,9.51-7.37,17.25-16.48,17.27s-16.51-7.68-16.51-17.21,7.4-17.27,16.51-17.28S1261.62,2068.84,1261.62,2078.36Z" transform="translate(-421.61 -338.08)"/><path class="cls-19" d="M1582.13,2781.57c-110.43-59.42-197.26,15.87-281.06-58.41-50.8-45-25.86-78.62-88.37-145.92-69.24-74.54-114.32-49.48-183.9-116.57-88-84.83-44-150.82-119.76-211.73-91.94-73.88-191.09-5.49-278.61-76.35-37.75-30.56-58.46-75-69.28-122.24H475.52a27.19,27.19,0,0,0-27.19,27.16V3139a25,25,0,0,0,27.19,25.23l1459.9-103.62c7.17-.51,13.52-4.69,17.6-10.76-106.87-3.89-172.53-39.72-214.5-76.76C1656.42,2900.65,1670.66,2829.2,1582.13,2781.57Z" transform="translate(-421.61 -338.08)"/><path class="cls-20" d="M1891.51,3057.83,448.33,3164.39l629.25,112.92a83.37,83.37,0,0,0,21.79,1l1496.3-126.2-681.2-93.57A109.52,109.52,0,0,0,1891.51,3057.83Z" transform="translate(-421.61 -338.08)"/><polygon class="cls-21" points="237.3 2828.99 1438.79 2738.96 1810.64 2789.62 619.5 2885.86 237.3 2828.99"/><path class="cls-22" d="M2720.32,1916.47l-15.44-14.66a19.29,19.29,0,0,0-25.76-.74l-804.3,681L1486.9,2213.62a19.31,19.31,0,0,0-26.58,0l-849.7,807a19.3,19.3,0,1,0,26.58,28l836.41-794.39L1860.79,2622a19.29,19.29,0,0,0,25.76.74l804.3-681,29.47,28Z" transform="translate(-421.61 -338.08)"/><ellipse class="cls-7" cx="1040.81" cy="1928.08" rx="95.35" ry="90.56"/><ellipse class="cls-7" cx="2269.41" cy="1577.72" rx="95.35" ry="90.56"/><path class="cls-23" d="M1118.81,717.1c15.82-10.25,1.41-40.08.56-104.14-1-78.51,19.81-93.15,3.06-124-20.48-37.66-72-53.25-106.19-54-7.53-.17-9.3-4.28-72.41,12.06-113.7,29.45-142.16-2.12-193.08,29.42-49.19,30.46-27.65,63.83-75.42,99.55C597.9,634,516.47,571.37,461.14,619.81c-52.35,45.82-53.56,162.56,1.5,226.26,62.42,72.23,175,50.53,250.4,36.21,15.87-3,96-19.85,179.51-81.46a478.16,478.16,0,0,0,98.05-97.29c4.73-5.33,12.12-11.79,21.87-12.82,11.71-1.25,21.11,5.91,25.64,9C1061.91,716.24,1103.28,727.17,1118.81,717.1Z" transform="translate(-421.61 -338.08)"/><path class="cls-24" d="M1055.27,674.08c20.33-18.53,92.9,17.18,141,64.56,56.49,55.68,52.15,100.82,101.46,170,24.51,34.39,66.53,80.68,141,121.22q-7.9,19.77-15.81,39.53c-36,2.17-106.68.9-172.62-42.16-45.8-29.91-69.37-69.54-114.64-147.58C1090.22,801.31,1029.85,697.23,1055.27,674.08Z" transform="translate(-421.61 -338.08)"/><path class="cls-25" d="M1499.38,1762.53l-23.12-49.12a42.57,42.57,0,0,0-14.82-17.23l-11.45-7.66s-27.37-.73-31.63,16.48c-.91,21.84,41.54,70.66,68.39,90,4.46,3.22,10.81,7.51,14.68,5.3C1508,1796.6,1503.38,1776.51,1499.38,1762.53Z" transform="translate(-421.61 -338.08)"/><path class="cls-26" d="M1455.93,1661.81c-3.64,21.07,1,32.06,5.93,38.21,3.49,4.33,31.85,51.09,20.2,58.64-5.25,3.4-41.28-41.33-44.77-48.19-3.17-6.2-5.22-4.74-5.41-21.65a88,88,0,0,0-4.16-25.7Z" transform="translate(-421.61 -338.08)"/><path class="cls-27" d="M1496.88,1494.81s25.59,30.54,21.43,64-49-15.46-55.24-32-13.55-40.11-13.55-40.11S1481,1467.16,1496.88,1494.81Z" transform="translate(-421.61 -338.08)"/><path class="cls-28" d="M1487.12,1447s-6.95,35.58,6.29,54.35c6.6,9.35,15.5,17.29,12.88,24.9-1.75,5.1-8.41,8.77-14,8.19-10.79-1.11-16.78-17.66-21-29.34-6.23-17.24-9.71-54.13-9.71-54.13Z" transform="translate(-421.61 -338.08)"/><path class="cls-29" d="M1466.72,1477l23.61-8.6c12.28-28.05,27.26-74.11,22.26-130.1-12.87-144-146-220.28-160.84-228.45-36.28,18.21-73,43.89-74.36,76.26-1.67,40.64,53.69,62.13,105.74,121.56C1414.37,1343.36,1447.75,1396.51,1466.72,1477Z" transform="translate(-421.61 -338.08)"/><path class="cls-30" d="M1458.23,1678.28c26-101.59,19.36-184.48,11.86-232.24-11.34-72.18-34.4-219-132.42-273.74-21.41-12-52-22.66-89.3-55.9a316.11,316.11,0,0,1-62.89-77.52c-131.09-38.45-252-22.87-305.37,47.44-6.16,8.12-21.6,25.75-24.58,51.73-6.74,58.62,50.86,129.2,115.5,143.94,82.15,18.74,129.81-65.62,202.59-37.55,20.36,7.85,37.62,27.3,72.14,66.21a550.66,550.66,0,0,1,78,113.44c27.81,54.42,48.9,94.59,52,146.66.72,12.12,1.15,36.63,15.35,63.06,10.91,20.28,25.69,33.81,36.69,42.17Z" transform="translate(-421.61 -338.08)"/><path class="cls-31" d="M855.53,1138.05c3-26,18.42-43.61,24.58-51.73,53.36-70.31,174.28-85.89,305.37-47.44a316.11,316.11,0,0,0,62.89,77.52c37.29,33.24,67.89,43.94,89.3,55.9,59.86,33.43,91.73,101.18,110.09,165.32-27.23-42.23-50.54-53.45-68.58-53.65-25.83-.29-37.36,21.79-68.19,18.77-33-3.22-40.49-30.46-67.2-33.59-8-.94-17.84.29-29.65,6.58-15.77-16.51-27.52-26.28-40.52-31.29-72.78-28.07-120.44,56.29-202.59,37.55C906.39,1267.25,848.79,1196.67,855.53,1138.05Z" transform="translate(-421.61 -338.08)"/><path class="cls-32" d="M1390.31,1217.73a432,432,0,0,0-65.25,1.48c-130.8,12.93-166.86,77.63-275,93.42-25.57,3.73-139.44,20.36-188.75-45.46-35.41-47.26-30.05-128.69,8.67-160.72,16.39-13.55,32.62-13.17,137.59-12.22,39.53.35,79.06.48,118.59,1,167.32,2.14,199.32-9.45,229.77,18.22C1370.16,1126.35,1390.93,1154.08,1390.31,1217.73Z" transform="translate(-421.61 -338.08)"/><path class="cls-33" d="M1037.07,680.87S905,642.35,846.82,708.2c-10.68,12.08-19.12,28-25.26,58.67-31.31,156.38,87.11,250.3,40.45,332.8-18.53,32.76-51.16,42.63-74.35,101.51-3.92,10-18.12,46-5.09,57.38,11.47,10,30.34-11.12,63.87-7,35.5,4.32,43.79,31.59,67.68,27.62,15.57-2.59,22.29-15.89,45.23-49,33.22-48,49.82-72,61.73-80.4,47-33.19,83.28,10.1,136.84-22.77,19.4-11.91,91.25-104.42,70.11-79h0c-50.32-62.77-62-114.56-63.21-150.57-1.32-39.47,10.06-57.42,0-104.08,0,0-11.22-52.07-51.72-96.78C1107.28,690.08,1100.35,683.4,1037.07,680.87Z" transform="translate(-421.61 -338.08)"/><path class="cls-34" d="M994.66,595.2c1.79,8.36,10.89,53.2-7.45,64.73-4,2.51-11.62,3.94-26.91,6.8-10,1.88-18.4,3-24.32,3.74.86,7.52,3.39,19.76,12.07,30.89,24.32,31.21,73.1,23.13,80,21.86,24.54-4.46,48.68-12,54.51-16.68,8.88-7,15.86-12.34,20-17.72-9.5-4.59-28.67-16.69-41.53-20.65a236.64,236.64,0,0,0-26.85-6.58l-4-26Q1012.43,615.4,994.66,595.2Z" transform="translate(-421.61 -338.08)"/><path class="cls-35" d="M993.8,617.55s3.32,32.86,35.26,38.65c28.6,5.18,50.13-63.93,35.5-81.81-4.89-6-16.94-11.64-27.39-11.34-7.35.22-32.17,9.67-35.64,34.51-4.94-5.21-11.1-6.71-14.14-4.53-3.85,2.77-1.79,10.81-1.32,12.64A23.16,23.16,0,0,0,993.8,617.55Z" transform="translate(-421.61 -338.08)"/><path class="cls-36" d="M1228,1047.93c-6-7.56-11.52-14.94-16.5-22.17a262.58,262.58,0,0,0-71.13-13.7c-43.68-2.11-67.6,8.16-97.34-9.73-33.75-20.31-27.78-48.51-60.35-64.24-34.28-16.57-58.52,2.15-91.5-3.9-19.91-3.65-44.17-17-68.93-55.82,19,93.54,74.1,160.54,39.73,221.3-18.53,32.76-51.16,42.63-74.35,101.51-3.92,10-18.12,46-5.09,57.38,11.47,10,30.34-11.12,63.87-7,35.5,4.32,43.8,31.59,67.68,27.62,15.57-2.59,22.29-15.89,45.23-49,33.22-48,49.82-72,61.73-80.4,47-33.19,83.28,10.1,136.84-22.77C1177.32,1115,1249.17,1022.51,1228,1047.93Z" transform="translate(-421.61 -338.08)"/><path class="cls-37" d="M1267.83,1064,969,1078.52a12.54,12.54,0,0,0-10,5.9l-8.27,13.27a9.71,9.71,0,0,0,8.61,14.83l316.55-12.06Z" transform="translate(-421.61 -338.08)"/><path class="cls-38" d="M1578.65,897.56l-308.74,6a25.89,25.89,0,0,0-22,13.1L1141,1104.74l326.07-13a26.55,26.55,0,0,0,21.72-12.89l99-165.48A10.45,10.45,0,0,0,1578.65,897.56Z" transform="translate(-421.61 -338.08)"/><path class="cls-39" d="M1247.9,916.64a25.89,25.89,0,0,1,22-13.1l6.77-.13c1,10,4.06,19.08,10.16,26.44,19,23,50.67,8.81,74.24,33.13,25.9,26.71,2,58.51,25.13,83.37,24.37,26.17,63.78,4.87,109.08,21.61l-6.52,10.9a26.55,26.55,0,0,1-21.72,12.89l-326.07,13Z" transform="translate(-421.61 -338.08)"/><path class="cls-40" d="M993.33,1054l11.67-30.82c-43-11.78-102.44-29.2-163.43-51-9.55-3.41-20.89-7.64-24.61-17.69-10.43-28.19,55.86-57.41,81.64-119,23.83-56.93,10.71-135.94-17-145.27C824.09,670.83,620,924.9,692.87,1032,734.08,1092.55,861.13,1102.19,993.33,1054Z" transform="translate(-421.61 -338.08)"/><path class="cls-41" d="M1005,1023.17c27-14.33,59.3.36,61.38,1.35a80.63,80.63,0,0,1,23.28,16.69c1,1.34,12.69,17.57,8.43,22.76-3.42,4.17-16.66.72-32.57-9.18a124.14,124.14,0,0,0-28.49-.7c-21.85,2-31.85,8.92-39.78,3-5.81-4.36-7.79-13.58-5.7-20.43C993.8,1029.25,1000.44,1025.6,1005,1023.17Z" transform="translate(-421.61 -338.08)"/></g></g></svg>