<svg id="Layer_1" data-name="Layer 1" xmlns="http://www.w3.org/2000/svg" viewBox="0 0 1396.77 1379.67"><defs><style>.cls-1{opacity:0.15;}.cls-2{fill:none;}.cls-3,.cls-6{fill:#52298a;}.cls-3,.cls-4{fill-rule:evenodd;}.cls-5{fill:#4c78ff;}.cls-7{fill:#ff666a;}.cls-8{fill:#faf9f9;}.cls-9{fill:#3c415e;}.cls-10{fill:#738598;}.cls-11{fill:#c69c6d;}.cls-12{fill:#333;}.cls-13{fill:#fb7668;}.cls-14{fill:#ffda32;}.cls-15{fill:#e59d00;}.cls-16{fill:#00bb5f;}.cls-17{fill:#00663e;}.cls-18{fill:#82ff44;}</style></defs><title>focus-concept</title><ellipse class="cls-1" cx="698.38" cy="1325.21" rx="698.38" ry="54.46"/><path class="cls-2" d="M2948.8,1185.17l1.57-1.45,1.23-1.15,2.27-2.19c1.48-1.44,2.89-2.85,4.3-4.27,2.79-2.83,5.49-5.66,8.13-8.51,5.29-5.7,10.36-11.49,15.28-17.42a434,434,0,0,0,27.61-37.13l-76.66-50.73a344,344,0,0,1-21.68,29.13c-3.87,4.67-7.88,9.24-11.95,13.63-2,2.2-4.1,4.35-6.14,6.43l-3,3-1.45,1.4-1,.91Z" transform="translate(-1890.23 -597.94)"/><path class="cls-3" d="M2955.91,1103.27l7.37,5.5c3.09-4.17,6.13-8.38,9.06-12.67l-7.58-5.2C2961.9,1095.08,2958.93,1099.19,2955.91,1103.27Z" transform="translate(-1890.23 -597.94)"/><path class="cls-4" d="M2938.82,1124.51l6.95,6c3.41-3.92,6.7-7.93,9.95-12l-7.19-5.74C2945.36,1116.77,2942.14,1120.68,2938.82,1124.51Z" transform="translate(-1890.23 -597.94)"/><path class="cls-4" d="M2920.31,1144.36l6.44,6.56c3.73-3.67,7.33-7.42,10.86-11.24l-6.76-6.23C2927.41,1137.16,2923.91,1140.82,2920.31,1144.36Z" transform="translate(-1890.23 -597.94)"/><path class="cls-2" d="M3009.19,1113.05a377.65,377.65,0,0,0,23.5-40.7,313.76,313.76,0,0,0,18.18-44.67l-87.59-27.91c-6.78,21.34-17.52,42.5-30.75,62.55Z" transform="translate(-1890.23 -597.94)"/><path class="cls-3" d="M2996.71,1032.61l8.5,3.51c1.05-2.39,1.92-4.86,2.88-7.29s1.81-4.9,2.67-7.38l-8.69-3c-.83,2.38-1.64,4.77-2.57,7.12S2997.73,1030.3,2996.71,1032.61Z" transform="translate(-1890.23 -597.94)"/><path class="cls-3" d="M2985.15,1057.22l8.14,4.29c1.21-2.31,2.43-4.61,3.55-7s2.33-4.67,3.39-7l-8.34-3.87c-1,2.31-2.18,4.56-3.28,6.84S2986.33,1055,2985.15,1057.22Z" transform="translate(-1890.23 -597.94)"/><polygon class="cls-3" points="1081.29 482.75 1089.05 487.69 1093.16 481.06 1097.13 474.35 1089.16 469.76 1085.3 476.3 1081.29 482.75"/><path class="cls-2" d="M3050.87,1027.68c1.22-3.91,2.45-7.81,3.48-11.81.53-2,1.08-4,1.59-6l1.39-6.06c1-3.91,1.72-8.48,2.5-12.8.43-2.14.65-4.5,1-6.76s.6-4.52.78-6.88l.44-7.16c.05-1.21.16-2.35.14-3.61v-3.73l-.05-3.72c0-1.25,0-2.47-.13-3.77q-.3-3.85-.66-7.71c-.06-.64-.11-1.28-.19-1.93l-.31-2-.64-3.95-.69-3.94c-.24-1.32-.62-2.66-.94-4-.69-2.65-1.32-5.3-2.14-7.94s-1.82-5.28-2.79-7.9L2968,949.51a17.61,17.61,0,0,0,.67,1.84c.2.64.3,1.36.51,2a9,9,0,0,1,.28,1c0,.39.1.77.16,1.15s.13.77.2,1.15l.12.57c0,.2,0,.43,0,.64.05.86.12,1.72.22,2.58a9,9,0,0,1,0,1.39v1.44l0,1.43a13.88,13.88,0,0,1-.08,1.55q-.12,1.58-.18,3.15c-.07,1.07-.29,2.25-.41,3.37s-.19,2.23-.47,3.47l-.66,3.61c-.12.63-.17,1.16-.35,1.86l-.47,2-.91,4c-.33,1.33-.72,2.66-1.07,4-.67,2.67-1.53,5.33-2.35,8Z" transform="translate(-1890.23 -597.94)"/><path class="cls-3" d="M3012.44,953.92l9.15-.94-.18-2-.33-2-.67-4a37.6,37.6,0,0,0-.91-4l-1-4-8.81,2.63.91,3.56a31.08,31.08,0,0,1,.81,3.59l.61,3.63.3,1.82Z" transform="translate(-1890.23 -597.94)"/><path class="cls-3" d="M3011.65,980.54l9.1,1.31c.31-2.65.7-5.28.94-8s.36-5.35.44-8l-9.2-.19c-.07,2.48-.27,5-.4,7.44S3011.94,978.06,3011.65,980.54Z" transform="translate(-1890.23 -597.94)"/><path class="cls-3" d="M3005.8,1006.84l8.83,2.56,2.06-7.59c.67-2.53,1.19-5.11,1.8-7.66l-9-2c-.59,2.45-1.08,4.92-1.73,7.36Z" transform="translate(-1890.23 -597.94)"/><path class="cls-2" d="M3053.59,916.07A124.47,124.47,0,0,0,3037.27,887c-1.66-2.15-3.4-4.17-5.13-6.23-.88-1-1.73-2.08-2.64-3l-2.72-2.79L3024,872.2c-.92-.93-1.85-1.84-2.79-2.64-1.88-1.66-3.78-3.3-5.68-4.93-.48-.4-.95-.83-1.43-1.2l-1.44-1.1-2.89-2.18c-1.92-1.43-3.87-3-5.8-4.18l-5.82-3.82-1.46-.95-1.44-.84-2.91-1.69c-1.93-1.1-3.88-2.28-5.81-3.29l-5.77-3-2.9-1.47c-1-.47-1.9-.88-2.86-1.32L2969.3,837l-36.89,84.21,3.68,1.67c.61.28,1.24.55,1.83.84l1.7.88,3.42,1.74c1.13.58,2.11,1.21,3.17,1.81l1.57.89.79.45.7.47,2.81,1.84a30.52,30.52,0,0,1,2.57,1.87l1.24.92.63.45c.2.15.35.32.53.47.7.63,1.4,1.24,2.12,1.84a7,7,0,0,1,1,.91l.88.91.91.87a11.53,11.53,0,0,1,.73.9c.46.59,1,1.14,1.46,1.71a32.29,32.29,0,0,1,3.84,6.83Z" transform="translate(-1890.23 -597.94)"/><path class="cls-3" d="M2968.32,891.62l4.66-7.93c-4.56-2.74-9.28-5.1-14-7.4L2955,884.6C2959.54,886.8,2964,889,2968.32,891.62Z" transform="translate(-1890.23 -597.94)"/><path class="cls-3" d="M2989.74,907.51l6.38-6.62a38.8,38.8,0,0,0-3-2.75l-3.07-2.66c-1-.92-2.12-1.66-3.18-2.49l-3.22-2.42-5.35,7.47,3,2.24c1,.76,2,1.45,2.93,2.29L2987,905A30.88,30.88,0,0,1,2989.74,907.51Z" transform="translate(-1890.23 -597.94)"/><path class="cls-3" d="M3005.32,928.51l8.25-4.07a32.71,32.71,0,0,0-2-3.65l-2.07-3.59c-.72-1.17-1.56-2.27-2.34-3.41s-1.55-2.28-2.41-3.34l-7.25,5.65c.77.95,1.42,2,2.14,3s1.44,2,2.08,3l1.83,3.18A27,27,0,0,1,3005.32,928.51Z" transform="translate(-1890.23 -597.94)"/><path class="cls-2" d="M2969.3,837a349,349,0,0,0-44.8-15.77c-14.66-4.16-29.11-7.52-43.44-10.5l-18.59,90c12.63,2.63,25,5.53,36.85,8.89a257.85,257.85,0,0,1,33.09,11.56Z" transform="translate(-1890.23 -597.94)"/><path class="cls-3" d="M2891.92,863.61l2.16-8.93c-5-1.26-10-2.34-15.09-3.45l-1.93,9C2882,861.31,2887,862.37,2891.92,863.61Z" transform="translate(-1890.23 -597.94)"/><path class="cls-3" d="M2918.29,870.74l2.68-8.8-7.46-2.2c-2.49-.75-5-1.35-7.5-2l-2.36,8.88c2.44.68,4.92,1.27,7.34,2Z" transform="translate(-1890.23 -597.94)"/><path class="cls-3" d="M2943.86,879.74l3.46-8.52c-4.83-2-9.76-3.73-14.66-5.51l-3,8.69C2934.42,876.14,2939.22,877.77,2943.86,879.74Z" transform="translate(-1890.23 -597.94)"/><path class="cls-2" d="M2881.06,810.76c-28.64-5.9-56.8-10.14-84.8-13.88l-12,91.15c26.58,3.54,52.92,7.55,78.23,12.76Z" transform="translate(-1890.23 -597.94)"/><polygon class="cls-3" points="920.79 250.68 922.11 241.58 914.49 240.48 906.87 239.44 905.63 248.56 913.22 249.58 920.79 250.68"/><path class="cls-3" d="M2838.12,852.84l1.52-9.06c-5.06-.9-10.14-1.64-15.21-2.45l-1.4,9.08C2828.06,851.22,2833.11,852,2838.12,852.84Z" transform="translate(-1890.23 -597.94)"/><path class="cls-3" d="M2865,857.73l1.79-9c-5.05-1.06-10.12-1.9-15.18-2.87l-1.62,9C2855,855.85,2860,856.69,2865,857.73Z" transform="translate(-1890.23 -597.94)"/><path class="cls-2" d="M2796.26,796.88l-20.18-2.72c-6.67-.94-13.35-1.86-20-2.87s-13.22-2-19.82-3.06-13.12-2.16-19.58-3.35l-16.26,90.48c7.08,1.31,14.1,2.44,21.14,3.62s14,2.24,21,3.24,13.95,2,20.91,3l20.76,2.8Z" transform="translate(-1890.23 -597.94)"/><polygon class="cls-3" points="838.95 239 840.42 229.92 825.36 227.4 823.79 236.46 838.95 239"/><polygon class="cls-3" points="866.19 243.16 867.51 234.06 852.39 231.81 851 240.89 866.19 243.16"/><path class="cls-3" d="M2783.62,844.84l1.21-9.11c-5-.69-10.12-1.33-15.16-2.05l-1.27,9.1C2773.47,843.51,2778.55,844.15,2783.62,844.84Z" transform="translate(-1890.23 -597.94)"/><path class="cls-2" d="M2716.7,784.88c-12.95-2.34-25.76-4.85-38.1-7.76a360.18,360.18,0,0,1-35.14-9.92L2613.28,854a450.8,450.8,0,0,0,44.31,12.58c14.47,3.41,28.7,6.19,42.85,8.74Z" transform="translate(-1890.23 -597.94)"/><path class="cls-3" d="M2648,820.09l2.46-8.86c-2.44-.63-4.83-1.4-7.25-2.1l-3.61-1.08-3.58-1.16-2.84,8.74,3.68,1.2,3.71,1.1C2643,818.65,2645.49,819.45,2648,820.09Z" transform="translate(-1890.23 -597.94)"/><polygon class="cls-3" points="784.61 228.79 786.6 219.82 779.19 218.14 771.83 216.34 769.6 225.26 777.09 227.09 784.61 228.79"/><path class="cls-3" d="M2701.81,832.21l1.68-9c-5-1-10-1.88-14.94-2.92l-1.84,9C2691.73,830.31,2696.78,831.23,2701.81,832.21Z" transform="translate(-1890.23 -597.94)"/><path class="cls-2" d="M2643.46,767.2c-5.32-1.92-10.59-3.87-15.12-6l-1.73-.79-.87-.39-.79-.41-3.14-1.62a13.88,13.88,0,0,1-1.45-.82l-1.39-.81-1.39-.8c-.44-.27-.79-.55-1.19-.81l-1.18-.79a8.88,8.88,0,0,1-1.11-.77c-.63-.52-1.27-1-1.93-1.49s-1-.93-1.49-1.35c-.12-.11-.27-.21-.37-.32l-.24-.3c-.17-.19-.34-.38-.52-.56a9.35,9.35,0,0,1-2-3l-86,32.44c.57,1.51,1.15,3,1.76,4.51s1.38,2.91,2.09,4.36,1.45,2.88,2.2,4.31,1.62,2.71,2.46,4.06,1.69,2.68,2.56,4,1.81,2.49,2.73,3.72a86.54,86.54,0,0,0,5.75,7l3,3.22,1.51,1.59c.51.51,1,.95,1.53,1.43,2,1.88,4.11,3.79,6.18,5.56s4.14,3.25,6.23,4.85c1.06.84,2.08,1.49,3.11,2.2l3.1,2.09c1,.69,2.09,1.41,3.11,2l3.06,1.81,3.07,1.8c1,.6,2.06,1.2,3,1.7l6,3.12,1.51.77,1.48.68,3,1.36c7.94,3.7,15.6,6.54,23.23,9.28Z" transform="translate(-1890.23 -597.94)"/><path class="cls-3" d="M2573.47,782.61l6.77-6.22a58.41,58.41,0,0,1-4.4-5.33c-.67-.93-1.22-1.93-1.84-2.88l-.92-1.44c-.26-.5-.5-1-.76-1.53l-8.17,4.22c.31.61.6,1.22.92,1.82l1.08,1.72c.73,1.14,1.41,2.32,2.2,3.41A65.46,65.46,0,0,0,2573.47,782.61Z" transform="translate(-1890.23 -597.94)"/><path class="cls-3" d="M2596,799.91l4.54-8c-2.07-1.25-4.24-2.4-6.19-3.8l-3-2c-1-.69-1.89-1.45-2.84-2.17l-5.67,7.24c1.06.8,2.08,1.65,3.16,2.41l3.28,2.21C2591.42,797.33,2593.73,798.56,2596,799.91Z" transform="translate(-1890.23 -597.94)"/><path class="cls-3" d="M2621.35,811.52l3.23-8.61c-2.37-.81-4.63-1.82-6.94-2.74s-4.55-2-6.8-3l-3.87,8.34c2.37,1.08,4.72,2.2,7.14,3.13S2618.9,810.68,2621.35,811.52Z" transform="translate(-1890.23 -597.94)"/><path class="cls-2" d="M2607.58,746.15a13,13,0,0,1-.65-4.37c.06-.66,0-1.25,0-2s.18-1.56.23-2.35a3.28,3.28,0,0,1,.08-.65l.13-.68.22-1.38.11-.69,0-.34.07-.27c.09-.35.16-.7.23-1.05a19.49,19.49,0,0,1,1-3,8.3,8.3,0,0,1,.41-.89s0,0,0,0l-46.32-79.43a90.75,90.75,0,0,0-29.88,28c-.94,1.44-1.86,2.9-2.76,4.36s-1.64,2.91-2.43,4.38-1.46,2.88-2.14,4.32-1.34,2.88-1.88,4.28a111.56,111.56,0,0,0-5.34,16.62l-.89,4-.21,1-.16.93-.32,1.86-.61,3.72-.29,1.86c-.1.61-.19,1.24-.25,1.92-.28,2.64-.52,5.28-.74,7.92s-.17,5.58-.21,8.36v2.1l.12,2.21.3,4.41a83.84,83.84,0,0,0,1.17,9c.27,1.52.47,3,.85,4.56s.76,3.08,1.17,4.61.81,3.07,1.3,4.59,1.08,3,1.65,4.56Z" transform="translate(-1890.23 -597.94)"/><path class="cls-3" d="M2568.18,701.63l7.71,5a38.59,38.59,0,0,1,9-9.81l-5.65-7.26A47.39,47.39,0,0,0,2568.18,701.63Z" transform="translate(-1890.23 -597.94)"/><path class="cls-3" d="M2558.75,728.7l9.09,1.38a69.73,69.73,0,0,1,3.31-13.75l-8.64-3.13A78.53,78.53,0,0,0,2558.75,728.7Z" transform="translate(-1890.23 -597.94)"/><path class="cls-3" d="M2559.55,757.18l8.93-2.21-.44-1.65-.27-1.7c-.18-1.14-.39-2.26-.54-3.41l-.23-3.47c0-.58-.11-1.15-.11-1.74l0-1.76-9.2,0,0,2c0,.67.08,1.34.11,2l.28,4c.18,1.34.42,2.67.62,4l.33,2Z" transform="translate(-1890.23 -597.94)"/><path class="cls-2" d="M2609.43,728.48s0,0,0,0,.09,0,.12-.05.18-.07.3-.12l.19-.09.26-.07a18.09,18.09,0,0,1,3.08-.74,45.89,45.89,0,0,1,4.86-.51c1.9-.08,4-.1,6.21,0a125.82,125.82,0,0,1,14.91,1.62c5.33.87,11,2.07,16.69,3.48L2678,642.71c-7.62-1.87-15.48-3.57-23.74-4.92a215,215,0,0,0-26.14-2.76c-4.64-.18-9.46-.18-14.44.05a135.2,135.2,0,0,0-15.65,1.69,109.89,109.89,0,0,0-17,4.22l-2.18.74-2.22.85c-1.48.58-2.93,1.13-4.47,1.85s-3,1.35-4.54,2.16-3.05,1.6-4.54,2.46Z" transform="translate(-1890.23 -597.94)"/><path class="cls-3" d="M2646.55,679.82l-1.46,9.07c4.91.79,9.81,1.76,14.69,2.85l2-9C2656.76,681.64,2651.68,680.64,2646.55,679.82Z" transform="translate(-1890.23 -597.94)"/><path class="cls-3" d="M2618.57,677.65l.23,9.19a123.77,123.77,0,0,1,14.62.55l.85-9.15A132.28,132.28,0,0,0,2618.57,677.65Z" transform="translate(-1890.23 -597.94)"/><path class="cls-3" d="M2590.62,683l3.55,8.48a59.28,59.28,0,0,1,13.38-3.67l-1.43-9.08A68.28,68.28,0,0,0,2590.62,683Z" transform="translate(-1890.23 -597.94)"/><path class="cls-2" d="M2656.06,732c11.51,2.83,23.52,6.53,35.76,10.69s24.72,8.78,37.59,13.57l32.09-86.15c-12.94-4.82-26.29-9.78-40.12-14.47s-28.15-9.17-43.39-12.92Z" transform="translate(-1890.23 -597.94)"/><polygon class="cls-3" points="836.22 104.76 833.08 113.4 847.43 118.67 850.63 110.06 836.22 104.76"/><path class="cls-3" d="M2700.37,693.65l-2.86,8.74q7.22,2.36,14.4,4.89l3-8.68Q2707.69,696.05,2700.37,693.65Z" transform="translate(-1890.23 -597.94)"/><path class="cls-3" d="M2673.93,685.75l-2.36,8.89q7.29,1.92,14.54,4.15l2.67-8.8Q2681.4,687.74,2673.93,685.75Z" transform="translate(-1890.23 -597.94)"/><path class="cls-2" d="M2729.41,756.25l19.72,7.3,2.55.92,1.29.46,1.89.62c2.53.81,5.07,1.61,7.61,2.37s5.32,1.28,8,1.87,5.46,1,8.24,1.38a115.53,115.53,0,0,0,34.26-.5,118.89,118.89,0,0,0,31.92-10.27l-39.95-82.81a26.84,26.84,0,0,1-7.24,2.42,23,23,0,0,1-6.88,0,34.33,34.33,0,0,1-4-.77c-.74-.27-1.49-.51-2.24-.73l-.57-.15-1.14-.41-2.31-.84-19-7Z" transform="translate(-1890.23 -597.94)"/><path class="cls-3" d="M2804,722.24l1.43,9.08c1.37-.18,2.72-.53,4.08-.79a37.28,37.28,0,0,0,4.05-1l4-1.17c1.3-.45,2.59-.95,3.88-1.43l-3.33-8.57c-1.15.42-2.29.87-3.44,1.28l-3.51,1a31.06,31.06,0,0,1-3.55.85C2806.42,721.77,2805.24,722.09,2804,722.24Z" transform="translate(-1890.23 -597.94)"/><path class="cls-3" d="M2778,721.05l-2.13,8.94,4,.9c1.35.27,2.73.4,4.1.61l2.05.27,1,.14,1,.05,4.15.21.22-9.19-3.65-.18-.92,0-.9-.13-1.82-.25c-1.2-.18-2.42-.29-3.62-.53Z" transform="translate(-1890.23 -597.94)"/><polygon class="cls-3" points="862.22 114.37 859.01 122.99 873.46 128.31 876.59 119.66 862.22 114.37"/><path class="cls-2" d="M2844.87,760.4a139,139,0,0,0,26.06-16.52,171.07,171.07,0,0,0,20.55-19.5,199.92,199.92,0,0,0,16.43-21.07c2.48-3.62,4.83-7.31,7.09-11.12.57-1,1.13-1.91,1.69-2.9s1.11-1.95,1.66-3,1.11-2.06,1.67-3.12l.88-1.71.48-1,.65-1.35-83.25-39,.13-.26,0,.07-.09.19-.31.59-.76,1.43c-.27.49-.56,1-.86,1.53s-.6,1-.92,1.57c-1.25,2.1-2.59,4.23-4,6.29a107.91,107.91,0,0,1-8.94,11.48c-6.19,7-12.72,12-18.06,14.54Z" transform="translate(-1890.23 -597.94)"/><path class="cls-4" d="M2866.8,676.24l7.57,5.22c3-4.37,5.8-8.85,8.4-13.5l-8-4.47C2872.29,667.85,2869.64,672.12,2866.8,676.24Z" transform="translate(-1890.23 -597.94)"/><path class="cls-3" d="M2849.68,697l6.49,6.51a141.06,141.06,0,0,0,10.67-11.89l-7.16-5.77A130.76,130.76,0,0,1,2849.68,697Z" transform="translate(-1890.23 -597.94)"/><path class="cls-3" d="M2828.81,713.27l4.6,8a112.18,112.18,0,0,0,13.36-9.26l-5.8-7.14A103.06,103.06,0,0,1,2828.81,713.27Z" transform="translate(-1890.23 -597.94)"/><path class="cls-5" d="M2841,599.54l23,31.24,162.64-32.84Z" transform="translate(-1890.23 -597.94)"/><path class="cls-6" d="M2865.87,692.1l-1.82-61.32,162.64-32.84-141.32,60.22Z" transform="translate(-1890.23 -597.94)"/><path class="cls-5" d="M2924.6,705.23l-39.23-47.07,141.33-60.22Z" transform="translate(-1890.23 -597.94)"/><circle class="cls-7" cx="2642.24" cy="1426.84" r="503.77" transform="translate(-2125.27 1688.31) rotate(-45)"/><circle class="cls-8" cx="2642.24" cy="1426.84" r="429.46" transform="translate(-2125.27 1688.31) rotate(-45)"/><path class="cls-7" d="M2642.24,1753.47c180.11,0,326.64-146.53,326.64-326.64s-146.53-326.64-326.64-326.64-326.64,146.53-326.64,326.64S2462.13,1753.47,2642.24,1753.47Z" transform="translate(-1890.23 -597.94)"/><path class="cls-8" d="M2642.24,1650.66c123.42,0,223.83-100.41,223.83-223.83S2765.66,1203,2642.24,1203s-223.83,100.41-223.83,223.83S2518.82,1650.66,2642.24,1650.66Z" transform="translate(-1890.23 -597.94)"/><path class="cls-7" d="M2642.24,1547.85a121,121,0,1,0-121-121A121.16,121.16,0,0,0,2642.24,1547.85Z" transform="translate(-1890.23 -597.94)"/><path class="cls-9" d="M2227.69,1052.19l395.62,395.62a27.82,27.82,0,0,0,39.34,0h0a27.81,27.81,0,0,0,0-39.34L2267,1012.85Z" transform="translate(-1890.23 -597.94)"/><path class="cls-10" d="M2227.69,1052.19l395.62,395.62a27.82,27.82,0,0,0,39.34,0h0l-415.29-415.29Z" transform="translate(-1890.23 -597.94)"/><polygon class="cls-9" points="564.65 475.83 412.34 323.52 376.8 414.9 529.11 567.21 564.65 475.83"/><polygon class="cls-10" points="530.38 441.56 507.53 418.71 472 510.1 494.84 532.94 530.38 441.56"/><polygon class="cls-10" points="474.53 385.71 451.69 362.87 416.15 454.25 439 477.1 474.53 385.71"/><polygon class="cls-9" points="337.46 454.25 489.76 606.56 398.38 642.09 246.07 489.79 337.46 454.25"/><polygon class="cls-10" points="376.8 493.6 399.65 516.44 308.27 551.98 285.42 529.13 376.8 493.6"/><polygon class="cls-10" points="432.65 549.44 455.5 572.29 364.11 607.83 341.27 584.98 432.65 549.44"/><path class="cls-11" d="M2046.9,1556.32l72.06-6.73s17.3-8.65,30.75,0,14.41,15.37,10.57,16.34-15.38-10.57-21.14-9.61c-2.27.37-2.6,1.94-2.18,3.7a3.34,3.34,0,0,1-4,4.12l-12.07-3-30.74,11-34.59,4.41Z" transform="translate(-1890.23 -597.94)"/><path class="cls-5" d="M2046.79,1483.13s35.18,53.49,19.81,88.08-23.06,27.86-23.06,27.86-40.36,1-49,1,1.92-59.57,7.68-66.29S2046.79,1483.13,2046.79,1483.13Z" transform="translate(-1890.23 -597.94)"/><path class="cls-11" d="M2054.11,1475.13s28.82.87,24.84-39a17.25,17.25,0,0,0-9.22-13.77c-3.94-2-9.19-2.87-15.62-.06-15.38,6.73-24,14.42-23.06,26S2054.11,1475.13,2054.11,1475.13Z" transform="translate(-1890.23 -597.94)"/><path class="cls-12" d="M2069.48,1429s14.41-1,1.92-24c-8.44-15.58-47.08,1-49,25.94s-5.77,44.2-21.14,51.89-22.1,55.72-30.74,56.68,33.62,17.3,45.15,17.3-1.44-17.78,14.9-43.72,25.94-49,20.17-57.65c-1.88-2.82-3.76-5.75-5.44-8.41a7.7,7.7,0,0,1,4.89-11.66C2056.2,1434.1,2063.59,1432.07,2069.48,1429Z" transform="translate(-1890.23 -597.94)"/><path class="cls-9" d="M2055.07,1904.61h-15.38s-24-127.79-21.13-176.79-7.88-127.43-7.88-127.43l35.74-.36s14.89,62.94,9.13,102.33S2055.07,1904.61,2055.07,1904.61Z" transform="translate(-1890.23 -597.94)"/><path class="cls-9" d="M2010.39,1905.09H1995s-11.53-54.77-5.77-97,6.73-75.9-1.92-108.57-17.29-73,7.69-99.93h51.88s-1.44,86-16.81,142.68S2010.39,1905.09,2010.39,1905.09Z" transform="translate(-1890.23 -597.94)"/><path class="cls-12" d="M2054.59,1904.13l28.73,20.75a2.34,2.34,0,0,1-1.37,4.23h-39.53a2.34,2.34,0,0,1-2.33-2.25l-.88-22.73Z" transform="translate(-1890.23 -597.94)"/><path class="cls-12" d="M2008.62,1903.65,2034,1922a2.06,2.06,0,0,1-1.21,3.74h-35a2.06,2.06,0,0,1-2.07-2l-.77-20.11Z" transform="translate(-1890.23 -597.94)"/><path class="cls-11" d="M2030.57,1513.08s12.49-6.73,16.33,16.33,8.65,42.28,8.65,42.28l123,4.8s10.09,5.29-32.67,10.57c-36,4.46-82.84,1.6-98.44.43a10,10,0,0,1-8-5.17C2031.84,1568.6,2012.42,1528.86,2030.57,1513.08Z" transform="translate(-1890.23 -597.94)"/><path class="cls-13" d="M2114.16,1574.09h0a2.4,2.4,0,0,1,2.4-2.4h67.74l34.44-59.58a2.55,2.55,0,0,1,3.16-1.09h0a2.55,2.55,0,0,1,1.26,3.66l-36,61.81h-70.62A2.39,2.39,0,0,1,2114.16,1574.09Z" transform="translate(-1890.23 -597.94)"/><path class="cls-14" d="M3192,1841.5c0,90.82-89.34,85.61-200.26,85.61s-200.26,4.47-200.26-85.61c0-90.83,89.33-242,200.26-242C3102.69,1600.29,3192,1751.42,3192,1841.5Z" transform="translate(-1890.23 -597.94)"/><path class="cls-14" d="M2894.24,1506.49c0-43.93,43.93-41.69,97.53-41.69s97.52-2.24,97.52,41.69-43.92,117.62-97.52,117.62S2894.24,1550.41,2894.24,1506.49Z" transform="translate(-1890.23 -597.94)"/><path class="cls-15" d="M3077.38,1608.48a13.35,13.35,0,0,1-13.4,13.4H2919.55a13.35,13.35,0,0,1-13.4-13.4v-3.72a13.34,13.34,0,0,1,13.4-13.4h145.18a13.34,13.34,0,0,1,13.4,13.4v3.72Z" transform="translate(-1890.23 -597.94)"/><circle class="cls-15" cx="2991.77" cy="1780.45" r="89.34" transform="translate(-1688.28 3265.19) rotate(-67.5)"/><path class="cls-14" d="M2984.32,1852.66v-18.61c-14.89-.74-23.08-3.72-29.78-7.44l4.47-20.1c7.45,3.72,17.12,7.44,28.29,7.44,9.68,0,16.38-3.72,16.38-10.42s-5.21-10.42-18.61-14.89c-18.61-6-30.53-14.89-30.53-31.27,0-14.89,6.7-26.8,29-30.52v-15.63h14.89v14.88c14.89.75,20.1,3,25.31,6l-4.47,19.36a50.15,50.15,0,0,0-24.56-6c-11.17,0-14.89,4.47-14.89,9.68,0,5.95,5.95,8.93,20.84,14.89,20.1,7.44,28.29,16.38,28.29,32s-8.19,28.29-30.52,32v18.61Z" transform="translate(-1890.23 -597.94)"/><path class="cls-14" d="M2303.45,1746.8c8.57-1.3,17.87,3.65,25.46,7,.81.36,2.52,1.3,4.29,2.24q-4.54-5.2-9.16-10.35c-2-2.28-4.11-4.54-6.18-6.8-2.22.34-6.87-.45-12.17.14-6.28.71-8.94,3.16-14.67-1.61-5.4-4.49-7.68-12.33.86-13.62,7.26-1.09,14,3.65,20,8.43-6.29-7.13-12.23-14.5-16.79-22.74-22.56-11.44-33.29-45-30.07-68.36.31-2.25.8-4.63,2.4-6.23,3.49-3.47,9.62-1,12.88,2.64,4.58,5.15,6.6,12.12,7.34,19s.3,13.77.65,20.65a77.06,77.06,0,0,0,2.9,16.5,1.5,1.5,0,0,1,.18.28c3.53,8.81,8.78,16.68,14.77,24.06-2.21-5.45-3.29-13.45-3.68-16.59-1.08-8.78,0-18.05,4.55-25.65.84-1.42,2-2.89,3.62-3.11,2.05-.29,3.76,1.51,4.89,3.24a29.22,29.22,0,0,1,4.17,20.92c-1.68,9.16-6.55,17.56-8.61,26.66l-.34,0c3.73,4.23,7.63,8.33,11.52,12.39a62.49,62.49,0,0,1-.65-20.81c.63-3.29,1.74-6.63,4.1-9s6.2-3.54,9.16-2a8.47,8.47,0,0,1,3.67,4.42c2.35,5.8.28,12.34-1.79,18.25s-3.91,12-6.22,17.83l1.37,1.48q9.92,10.8,19.53,21.87a106.32,106.32,0,0,1-4.9-15.72c-2.44-10.81-2.77-22.28.52-32.72,1.33-4.19,3.31-8.31,6.64-11.07,1.35-1.12,3.17-2,4.81-1.35a5.3,5.3,0,0,1,2.12,1.9c3.52,4.87,3.93,11.37,3.19,17.31-1.17,9.41-4.84,18.21-7.44,27.28-1.49,5.21-3.09,11.19-2.78,16.86q9.89,11.52,19.29,23.44c-4.32-9.45-6.49-21.94-7.57-30.82-1.05-8.67-.17-18.73,6.7-24.13a8.28,8.28,0,0,1,3.37-1.7c3.91-.79,7.48,2.76,8.82,6.51,1.71,4.81,1.11,10.15-.3,15s-3.6,9.54-5.13,14.4c-2.73,8.66-2.65,17.14-1.8,25.94q7.15,9.33,14,18.94a89.68,89.68,0,0,1-2-12.75,61.49,61.49,0,0,1,3.35-26.08c1-2.81,2.64-5.88,5.55-6.54,2.54-.58,5.08,1,7,2.76a21.24,21.24,0,0,1,6.08,18.26c-.68,4.27-2.65,8.2-4.6,12.06l-6,12a28.33,28.33,0,0,0-3,9.49q7.29,10.78,14,21.91a74.6,74.6,0,0,1-2.07-10.62c-.93-8.06-.13-16.53,3.66-23.7,1.3-2.47,3.17-4.93,5.87-5.64,3.82-1,7.82,2.11,8.95,5.9s.07,7.89-1.52,11.5a40.58,40.58,0,0,1-5.78,9.38c-1.67,2-3.56,3.93-4.69,6.3-1.39,2.94-1.5,6.3-1.57,9.55,0,.67,0,1.34,0,2,3.45,5.84,6.87,11.78,10.12,17.84a41.21,41.21,0,0,1,5.51-21.07c2.16-3.72,6-7.46,10.15-6.34a6.52,6.52,0,0,1,3.32,2.23c3.1,3.82,1.8,9.68-1.08,13.66s-7.06,6.83-10.24,10.58c-1.82,2.15-2.53,5.7-4,8a196.89,196.89,0,0,1,12.42,29.91c.94,3-3.09,4.38-4.48,1.68-3.78-7.31-7.43-14.66-11.11-22-3.71,1.79-19.23,4.88-21.62,5.52-3.81,1-8.54.52-10.7-2.77s-.73-7.77,2.21-10.18,7-3,10.78-2.87c2.13.09,11.48,2.16,16.7,5.1-3.81-7.51-7.71-15-11.87-22.31a31,31,0,0,0-7.39,0c-3.89.71-7.52,2.54-11.42,3.18s-8.55-.36-10.46-3.82c-2.28-4.14.86-9.66,5.28-11.34s9.4-.5,13.77,1.29c1.38.57,3.37,1.34,5.36,2.31-.36-.59-.7-1.18-1.06-1.77q-3-4.8-6-9.52c-5.13,1.09-12.37-.56-17.83-.42-5.12.14-10.5.57-15.14-1.61s-8-8.12-5.43-12.56c2.33-4,8-4.61,12.52-3.72a55.9,55.9,0,0,1,19.82,9.12q-6.69-9.93-13.77-19.58c-8.91-1.06-20.45,5.82-30,2.39-3.87-1.38-9.19-5.83-7.24-10.76,1.53-3.88,8.17-4.18,11.65-4.49,5.91-.55,13.14,1.21,19.41,4.49q-2.84-3.76-5.71-7.5c-2.47-3.21-5-6.38-7.5-9.55a70.45,70.45,0,0,0-14.74.57c-7,1.16-14.42,3.9-20.08-2.55-5.18-5.9-7.53-18.18,3.31-17.52,6.1.36,15.44,4,22.95,8.95q-7.41-9-15.07-17.8c-5.34.65-9.94-.27-17.58,2.34-6.18,2.11-13.63,8-19.35,2.71C2291.69,1757.33,2294.92,1748.1,2303.45,1746.8Z" transform="translate(-1890.23 -597.94)"/><path class="cls-14" d="M2390.21,1719.77c8.3,2.49,14.58,11,20,17.21.58.67,1.72,2.25,2.91,3.86q-1.87-6.64-3.84-13.28c-.87-2.93-1.77-5.86-2.67-8.79-2.15-.64-6-3.35-11.07-5.08-6-2-9.42-1-12.56-7.73-2.95-6.38-1.66-14.44,6.61-12,7,2.12,11.08,9.29,14.46,16.18-2.64-9.14-4.85-18.35-5.43-27.74-15.5-20-10.83-54.9,2.09-74.65,1.24-1.9,2.71-3.84,4.85-4.6,4.63-1.65,9.12,3.18,10.5,7.9,1.93,6.61.78,13.78-1.5,20.28s-5.62,12.58-8.25,18.95a77.52,77.52,0,0,0-4.45,16.14,1.19,1.19,0,0,1,0,.33c-.58,9.48.8,18.84,3,28.07.34-5.87,2.79-13.56,3.78-16.56,2.78-8.4,7.75-16.31,15.1-21.24,1.37-.92,3-1.75,4.6-1.26,2,.62,2.76,3,3,5a29.23,29.23,0,0,1-5.19,20.68c-5.44,7.57-13.44,13.07-19.19,20.41a2.9,2.9,0,0,1-.29-.19c1.56,5.42,3.32,10.8,5.1,16.13,1.79-7.53,5.83-15.67,8.33-19.08,2-2.71,4.41-5.25,7.56-6.39s7.12-.54,9.12,2.14a8.51,8.51,0,0,1,1.43,5.57c-.36,6.24-5,11.27-9.44,15.72s-8.67,9.19-13.26,13.45c.2.65.41,1.29.61,1.93q4.34,14,8.28,28.13a107.48,107.48,0,0,1,2.31-16.31c2.43-10.82,7-21.32,14.48-29.34,3-3.22,6.55-6.09,10.74-7.16,1.7-.44,3.73-.47,4.93.84a5.26,5.26,0,0,1,1.1,2.62c1.09,5.91-1.32,12-4.53,17-5.09,8-12.17,14.39-18.41,21.47-3.58,4.06-7.58,8.79-9.74,14q4,14.64,7.4,29.44c.15-10.39,3.53-22.6,6.36-31.1,2.76-8.28,7.87-17,16.39-18.92a8.06,8.06,0,0,1,3.78-.1c3.87,1,5.57,5.69,5.17,9.66-.51,5.07-3.34,9.65-6.71,13.47s-7.34,7.07-10.81,10.81c-6.17,6.66-9.73,14.36-12.74,22.68q2.49,11.49,4.53,23.09a88.62,88.62,0,0,1,3.66-12.37,61.49,61.49,0,0,1,14.2-22.13c2.12-2.1,4.9-4.19,7.82-3.53,2.53.56,4.18,3,5.09,5.47a21.23,21.23,0,0,1-2.32,19.1c-2.44,3.57-5.91,6.28-9.32,8.93l-10.59,8.23a28.55,28.55,0,0,0-6.74,7.31q2,12.85,3.28,25.8a75,75,0,0,1,2.68-10.49c2.61-7.68,7-15,13.46-19.85,2.23-1.67,5-3.09,7.72-2.58,3.88.73,6.15,5.26,5.56,9.17s-3.32,7.16-6.31,9.74a40.48,40.48,0,0,1-9.24,6c-2.37,1.12-4.89,2-6.93,3.69-2.52,2-4,5-5.51,8l-.91,1.81c.62,6.75,1.16,13.59,1.51,20.45a41.12,41.12,0,0,1,14-16.68c3.55-2.43,8.61-4.17,11.89-1.38a6.54,6.54,0,0,1,2,3.44c1.17,4.78-2.51,9.52-6.83,11.87s-9.3,3.16-13.78,5.18c-2.57,1.16-4.73,4.07-7,5.5a196.71,196.71,0,0,1-1.59,32.35c-.44,3.11-4.66,2.63-4.77-.4-.28-8.23-.43-16.43-.62-24.63-4.12,0-19.47-3.82-21.9-4.27-3.88-.71-7.94-3.19-8.48-7.09s2.67-7.33,6.36-8.25,7.6.24,11,2c1.88,1,9.45,6.87,12.9,11.76-.23-8.41-.56-16.82-1.17-25.24a31.2,31.2,0,0,0-6.69-3.13c-3.82-1-7.89-.92-11.69-2s-7.57-4-7.81-7.93c-.28-4.72,4.92-8.36,9.63-8s8.71,3.57,11.89,7.06c1,1.11,2.47,2.65,3.85,4.38-.07-.68-.12-1.37-.2-2-.4-3.74-.86-7.46-1.35-11.18-5.11-1.21-10.94-5.8-15.93-8-4.7-2.07-9.74-4-13-8s-3.75-10.75.48-13.66c3.83-2.64,9.16-.77,12.9,2a56.12,56.12,0,0,1,14,16.73q-1.8-11.84-4.06-23.59c-7.6-4.78-21-3.5-28.16-10.7-2.9-2.9-5.8-9.2-1.93-12.82,3.05-2.86,9.17-.28,12.45.93,5.58,2,11.37,6.72,15.62,12.38q-.95-4.62-2-9.24c-.86-4-1.77-7.89-2.69-11.83a70.22,70.22,0,0,0-13.56-5.8c-6.86-2-14.7-2.65-17-10.91-2.15-7.54,1-19.65,10.5-14.41,5.35,2.94,12.22,10.25,16.9,17.91q-2.85-11.29-6-22.53c-5.11-1.7-8.88-4.5-16.89-5.42-6.49-.74-15.75,1.38-18.65-5.84C2375.07,1724.25,2382,1717.29,2390.21,1719.77Z" transform="translate(-1890.23 -597.94)"/><path class="cls-16" d="M2472.91,1925.32s34.94-54.4,15.09-131.84c0,0-57.19,12.71-76.25,131.84Z" transform="translate(-1890.23 -597.94)"/><path class="cls-17" d="M2446.86,1925.32s14.93-71.48,23.27-85.78c0,0-25.09,45.27-28.83,85.78Z" transform="translate(-1890.23 -597.94)"/><path class="cls-16" d="M2376.3,1926.35s-35-54.4-15.09-131.84c0,0,57.18,12.71,76.24,131.84Z" transform="translate(-1890.23 -597.94)"/><path class="cls-17" d="M2402.34,1926.35s-14.92-71.48-23.26-85.78c0,0,25.09,45.27,28.82,85.78Z" transform="translate(-1890.23 -597.94)"/><path class="cls-18" d="M2310.21,1926.35s-45.05-70.13-19.45-169.95c0,0,73.71,16.38,98.28,169.95Z" transform="translate(-1890.23 -597.94)"/><path class="cls-17" d="M2343.79,1926.35s-19.25-92.14-30-110.57c0,0,32.35,58.36,37.16,110.57Z" transform="translate(-1890.23 -597.94)"/><path class="cls-18" d="M2552.39,1926.35s45-70.13,19.45-169.95c0,0-73.72,16.38-98.29,169.95Z" transform="translate(-1890.23 -597.94)"/><path class="cls-17" d="M2518.81,1926.35s19.24-92.14,30-110.57c0,0-32.34,58.36-37.16,110.57Z" transform="translate(-1890.23 -597.94)"/><path class="cls-5" d="M1956.64,824.84a9.79,9.79,0,1,0,13.82.88A9.79,9.79,0,0,0,1956.64,824.84Z" transform="translate(-1890.23 -597.94)"/><path class="cls-5" d="M2160.25,795.23a8.26,8.26,0,1,0,11.65.75A8.26,8.26,0,0,0,2160.25,795.23Z" transform="translate(-1890.23 -597.94)"/><path class="cls-7" d="M1927.25,750.45l13.78-16.2-5.53-20.54a3.12,3.12,0,0,1,4.2-3.69l19.66,8.1,17.83-11.61a3.12,3.12,0,0,1,4.81,2.86l-1.63,21.2,16.55,13.37a3.12,3.12,0,0,1-1.23,5.45l-20.67,5c-8.28,21.64-7.66,20.4-8.45,21.09a3.11,3.11,0,0,1-4.72-.7l-11.14-18.12-21.25-1.09A3.11,3.11,0,0,1,1927.25,750.45Z" transform="translate(-1890.23 -597.94)"/><path class="cls-7" d="M1904,904.74l1.21-17.8-14-11.09a2.62,2.62,0,0,1,1-4.59l17.3-4.35,6.23-16.73a2.62,2.62,0,0,1,4.67-.48l9.48,15.12,17.83.75a2.62,2.62,0,0,1,1.9,4.29l-11.45,13.7,4.8,17.19a2.78,2.78,0,0,1,0,1.25,2.63,2.63,0,0,1-3.54,1.88l-16.56-6.65-14.87,9.87A2.62,2.62,0,0,1,1904,904.74Z" transform="translate(-1890.23 -597.94)"/><path class="cls-14" d="M2164.87,927.5S2115.74,856,2106.14,800c-1-7.23,1.71-13.75,10.78-15.91h0c9.74-2.32,12.31,7.95,12.31,7.95h0C2130.19,813.78,2135.69,866,2164.87,927.5Z" transform="translate(-1890.23 -597.94)"/><path class="cls-14" d="M1999.89,989.92h0l-3.46.63c-4.55.45-12.1-.27-13.49-9.61-1.61-11,10.45-13,12.42-13.31,66.25-6.53,134.85,26.13,134.85,26.13-56.63-12.89-104.24-8.44-130.31-3.84Z" transform="translate(-1890.23 -597.94)"/><path class="cls-14" d="M2184.77,833.49c.51-2.24,3.53-13.31,12.69-10.54,5.65,1.71,7.31,6.19,5.49,11.89h0A265.49,265.49,0,0,0,2192.48,939S2174.52,884.13,2184.77,833.49Z" transform="translate(-1890.23 -597.94)"/><path class="cls-7" d="M2064.63,771.59c-1.12-.65-.82-.79-.05-12.06-8.95-7.1-9.15-6.9-8.88-8.15s.48-1,11.45-3.78c4-10.69,3.73-10.83,5-11s1.12.15,7.12,9.72l10.62.45a1.55,1.55,0,0,1,1.13,2.55l-6.81,8.16c3.06,11,3.35,11,2.39,11.82s-1,.53-11.48-3.68l-8.86,5.88A1.56,1.56,0,0,1,2064.63,771.59Z" transform="translate(-1890.23 -597.94)"/><path class="cls-14" d="M1988.81,790.58h0c4.85-12.7,6.39-14.5,20.32-17.88h0c12-2.9,17.19,3.3,18.41,5.1,21,33.41,64.41,100.72,110.4,161.8-54.55-53.21-115.55-104.66-146.12-129.85C1988.35,806.86,1984,803.13,1988.81,790.58Z" transform="translate(-1890.23 -597.94)"/><path class="cls-14" d="M1971.44,904.3c-4.56-.95-6-3.72-6.47-5l-2-7a7.42,7.42,0,0,1,1.13-6.57l.37-.44h0l3.83-4.59c3.62-4.33,9.08-2.75,9.68-2.56,67.37,23.16,148,86.71,148,86.71-66-38.4-123.06-54.22-154.62-60.57Z" transform="translate(-1890.23 -597.94)"/></svg>