<svg id="Layer_1" data-name="Layer 1" xmlns="http://www.w3.org/2000/svg" xmlns:xlink="http://www.w3.org/1999/xlink" viewBox="0 0 295.03 202.29"><defs><style>.cls-1{fill:url(#linear-gradient);}.cls-2{fill:url(#linear-gradient-2);}.cls-3{fill:url(#linear-gradient-3);}.cls-4{fill:url(#linear-gradient-4);}.cls-5{fill:url(#linear-gradient-5);}.cls-6{opacity:0.5;}.cls-7,.cls-9{fill:#fff;}.cls-8{fill:#5a5bae;}.cls-9{fill-rule:evenodd;}.cls-10{fill:#393768;}.cls-11{fill:#cce9f1;}.cls-12{fill:#dcf3f9;}.cls-13{fill:#fbb03b;}.cls-14{fill:#ffd648;}.cls-15{fill:#136d6a;}.cls-16{fill:#9b9ad3;}.cls-17{fill:#8888ba;}.cls-18{fill:#c9937a;}.cls-19{fill:#fdcf9b;}</style><linearGradient id="linear-gradient" x1="147.13" y1="212.2" x2="147.13" y2="191.6" gradientUnits="userSpaceOnUse"><stop offset="0" stop-color="#f0f0fa"/><stop offset="1" stop-color="#dddcee"/></linearGradient><linearGradient id="linear-gradient-2" x1="268.47" y1="156.12" x2="429.7" y2="156.12" gradientTransform="translate(-187.41)" xlink:href="#linear-gradient"/><linearGradient id="linear-gradient-3" x1="1356.78" y1="54.09" x2="1428.99" y2="180.21" gradientTransform="translate(-1200)" xlink:href="#linear-gradient"/><linearGradient id="linear-gradient-4" x1="-1026.08" y1="97.27" x2="-1022.48" y2="242.71" gradientTransform="translate(1199.66)" xlink:href="#linear-gradient"/><linearGradient id="linear-gradient-5" x1="-83.52" y1="36.74" x2="-90.49" y2="100.83" gradientTransform="matrix(0.13, 0.99, -0.99, 0.13, 324.43, 166.47)" xlink:href="#linear-gradient"/></defs><title>hosting-concept</title><ellipse class="cls-1" cx="147.13" cy="195.97" rx="115.4" ry="6.33"/><path class="cls-2" d="M208.67,195.9C184.89,250.78,128,255,89.61,230.86s-47.43-79-20.11-122.46,56.17,26.49,97.44-32.4C195.46,35.3,229.08,148.79,208.67,195.9Z" transform="translate(-35.61 -49.33)"/><path class="cls-3" d="M311,151.54a93.75,93.75,0,0,1-187.5,0c0-51.78,98.69-153.06,93.75-71.66C214.23,129.38,311,99.76,311,151.54Z" transform="translate(-35.61 -49.33)"/><path class="cls-4" d="M265.5,245.29c8.37-16.71,9.36-37.94,9.36-61,0-110-74.48-74.48-97.61-32.05-25.81,47.33-77.2-23.7-97.61,32.05-7.94,21.69,3.25,44.33,13.26,61Z" transform="translate(-35.61 -49.33)"/><ellipse class="cls-5" cx="248.71" cy="89.27" rx="13.29" ry="24.48" transform="translate(50.64 248.35) rotate(-71.81)"/><g class="cls-6"><rect class="cls-7" x="319.74" y="227.95" width="1.53" height="1.53" transform="translate(-103.47 244.28) rotate(-45)"/><rect class="cls-7" x="319.74" y="221.59" width="1.53" height="1.53" transform="translate(-98.96 242.43) rotate(-45)"/><rect class="cls-7" x="319.74" y="215.23" width="1.53" height="1.53" transform="translate(-94.46 240.57) rotate(-45)"/><rect class="cls-7" x="319.74" y="208.86" width="1.53" height="1.53" transform="translate(-89.96 238.71) rotate(-45)"/><rect class="cls-7" x="319.74" y="202.5" width="1.53" height="1.53" transform="translate(-85.46 236.86) rotate(-45)"/><rect class="cls-7" x="319.74" y="234.32" width="1.53" height="1.53" transform="translate(-107.96 246.18) rotate(-45)"/><rect class="cls-7" x="310.7" y="227.95" width="1.53" height="1.53" transform="translate(-106.11 237.88) rotate(-45)"/><rect class="cls-7" x="310.7" y="221.59" width="1.53" height="1.53" transform="translate(-101.61 236.04) rotate(-45)"/><rect class="cls-7" x="310.7" y="215.23" width="1.53" height="1.53" transform="translate(-97.11 234.17) rotate(-45)"/><rect class="cls-7" x="310.7" y="208.86" width="1.53" height="1.53" transform="translate(-92.61 232.31) rotate(-45)"/><rect class="cls-7" x="310.7" y="202.5" width="1.53" height="1.53" transform="translate(-88.11 230.46) rotate(-45)"/><rect class="cls-7" x="310.7" y="234.32" width="1.53" height="1.53" transform="translate(-110.61 239.78) rotate(-45)"/><rect class="cls-7" x="301.66" y="227.95" width="1.53" height="1.53" transform="translate(-108.76 231.49) rotate(-45)"/><rect class="cls-7" x="301.66" y="221.59" width="1.53" height="1.53" transform="translate(-104.26 229.65) rotate(-45)"/><rect class="cls-7" x="301.66" y="215.23" width="1.53" height="1.53" transform="translate(-99.76 227.78) rotate(-45)"/><rect class="cls-7" x="301.66" y="208.86" width="1.53" height="1.53" transform="translate(-95.26 225.92) rotate(-45)"/><rect class="cls-7" x="301.66" y="202.5" width="1.53" height="1.53" transform="translate(-90.76 224.07) rotate(-45)"/><rect class="cls-7" x="301.66" y="234.32" width="1.53" height="1.53" transform="translate(-113.26 233.39) rotate(-45)"/><rect class="cls-7" x="292.61" y="227.95" width="1.53" height="1.53" transform="translate(-111.41 225.11) rotate(-45)"/><rect class="cls-7" x="292.61" y="221.59" width="1.53" height="1.53" transform="translate(-106.91 223.27) rotate(-45)"/><rect class="cls-7" x="292.61" y="215.23" width="1.53" height="1.53" transform="translate(-102.41 221.4) rotate(-45)"/><rect class="cls-7" x="292.61" y="208.86" width="1.53" height="1.53" transform="translate(-97.91 219.54) rotate(-45)"/><rect class="cls-7" x="292.61" y="202.5" width="1.53" height="1.53" transform="translate(-93.4 217.69) rotate(-45.01)"/><rect class="cls-7" x="292.61" y="234.32" width="1.53" height="1.53" transform="translate(-115.91 226.99) rotate(-45)"/><rect class="cls-7" x="283.57" y="227.95" width="1.53" height="1.53" transform="translate(-114.06 218.72) rotate(-45)"/><rect class="cls-7" x="283.57" y="221.59" width="1.53" height="1.53" transform="translate(-109.56 216.87) rotate(-45)"/><rect class="cls-7" x="283.57" y="215.23" width="1.53" height="1.53" transform="translate(-105.06 215.01) rotate(-45)"/><rect class="cls-7" x="283.57" y="208.86" width="1.53" height="1.53" transform="translate(-100.56 213.14) rotate(-45)"/><rect class="cls-7" x="283.57" y="202.5" width="1.53" height="1.53" transform="translate(-96.05 211.29) rotate(-45.01)"/><rect class="cls-7" x="283.57" y="234.32" width="1.53" height="1.53" transform="translate(-118.56 220.6) rotate(-45)"/><rect class="cls-7" x="274.53" y="227.95" width="1.53" height="1.53" transform="translate(-116.71 212.32) rotate(-45)"/><rect class="cls-7" x="274.53" y="221.59" width="1.53" height="1.53" transform="translate(-112.21 210.48) rotate(-45)"/><rect class="cls-7" x="274.53" y="215.23" width="1.53" height="1.53" transform="translate(-107.71 208.61) rotate(-45)"/><rect class="cls-7" x="274.53" y="208.86" width="1.53" height="1.53" transform="translate(-103.21 206.75) rotate(-45)"/><rect class="cls-7" x="274.53" y="202.5" width="1.53" height="1.53" transform="translate(-98.7 204.9) rotate(-45.01)"/><rect class="cls-7" x="274.53" y="234.32" width="1.53" height="1.53" transform="translate(-121.21 214.2) rotate(-45)"/><rect class="cls-7" x="265.48" y="227.95" width="1.53" height="1.53" transform="translate(-119.36 205.91) rotate(-45)"/><rect class="cls-7" x="265.48" y="221.59" width="1.53" height="1.53" transform="translate(-114.86 204.06) rotate(-45)"/><rect class="cls-7" x="265.48" y="215.23" width="1.53" height="1.53" transform="translate(-110.36 202.2) rotate(-45)"/><rect class="cls-7" x="265.48" y="208.86" width="1.53" height="1.53" transform="translate(-105.86 200.34) rotate(-45)"/><rect class="cls-7" x="265.48" y="202.5" width="1.53" height="1.53" transform="translate(-101.36 198.49) rotate(-45)"/><rect class="cls-7" x="265.48" y="234.32" width="1.53" height="1.53" transform="translate(-123.86 207.79) rotate(-45)"/><rect class="cls-7" x="256.44" y="227.95" width="1.53" height="1.53" transform="translate(-122.01 199.52) rotate(-45)"/><rect class="cls-7" x="256.44" y="221.59" width="1.53" height="1.53" transform="translate(-117.51 197.67) rotate(-45)"/><rect class="cls-7" x="256.44" y="215.23" width="1.53" height="1.53" transform="translate(-113.01 195.81) rotate(-45)"/><rect class="cls-7" x="256.44" y="208.86" width="1.53" height="1.53" transform="translate(-108.51 193.94) rotate(-45)"/><rect class="cls-7" x="256.44" y="202.5" width="1.53" height="1.53" transform="translate(-104 192.09) rotate(-45)"/><rect class="cls-7" x="256.44" y="234.32" width="1.53" height="1.53" transform="translate(-126.5 201.41) rotate(-45)"/><rect class="cls-7" x="247.39" y="227.95" width="1.53" height="1.53" transform="translate(-124.65 193.12) rotate(-45)"/><rect class="cls-7" x="247.39" y="221.59" width="1.53" height="1.53" transform="translate(-120.15 191.27) rotate(-45)"/><rect class="cls-7" x="247.39" y="215.23" width="1.53" height="1.53" transform="translate(-115.65 189.41) rotate(-45)"/><rect class="cls-7" x="247.39" y="208.86" width="1.53" height="1.53" transform="translate(-111.15 187.55) rotate(-45)"/><rect class="cls-7" x="247.39" y="202.5" width="1.53" height="1.53" transform="translate(-106.65 185.7) rotate(-45)"/><rect class="cls-7" x="247.39" y="234.32" width="1.53" height="1.53" transform="translate(-129.15 195.02) rotate(-45)"/><rect class="cls-7" x="328.79" y="227.95" width="1.53" height="1.53" transform="translate(-100.82 250.67) rotate(-45)"/><rect class="cls-7" x="328.79" y="221.59" width="1.53" height="1.53" transform="translate(-96.31 248.83) rotate(-45)"/><rect class="cls-7" x="328.79" y="215.23" width="1.53" height="1.53" transform="translate(-91.81 246.96) rotate(-45)"/><rect class="cls-7" x="328.79" y="208.86" width="1.53" height="1.53" transform="translate(-87.32 245.1) rotate(-45)"/><rect class="cls-7" x="328.79" y="202.5" width="1.53" height="1.53" transform="translate(-82.81 243.25) rotate(-45)"/><rect class="cls-7" x="328.79" y="234.32" width="1.53" height="1.53" transform="translate(-105.31 252.57) rotate(-45)"/><rect class="cls-7" x="238.35" y="227.95" width="1.53" height="1.53" transform="translate(-127.3 186.72) rotate(-45)"/><rect class="cls-7" x="238.35" y="221.59" width="1.53" height="1.53" transform="translate(-122.8 184.88) rotate(-45)"/><rect class="cls-7" x="238.35" y="215.23" width="1.53" height="1.53" transform="translate(-118.3 183.01) rotate(-45)"/><rect class="cls-7" x="238.35" y="208.86" width="1.53" height="1.53" transform="translate(-113.8 181.15) rotate(-45)"/><rect class="cls-7" x="238.35" y="202.5" width="1.53" height="1.53" transform="translate(-109.3 179.3) rotate(-45)"/><rect class="cls-7" x="238.35" y="234.32" width="1.53" height="1.53" transform="translate(-131.8 188.62) rotate(-45)"/></g><g class="cls-6"><rect class="cls-7" x="44.97" y="93.66" width="1.53" height="1.53" transform="translate(-88.98 10.67) rotate(-45)"/><rect class="cls-7" x="44.97" y="100.02" width="1.53" height="1.53" transform="translate(-93.48 12.53) rotate(-45)"/><rect class="cls-7" x="44.97" y="106.39" width="1.53" height="1.53" transform="translate(-97.98 14.4) rotate(-45)"/><rect class="cls-7" x="44.97" y="112.75" width="1.53" height="1.53" transform="translate(-102.48 16.26) rotate(-45)"/><rect class="cls-7" x="44.97" y="119.11" width="1.53" height="1.53" transform="translate(-106.98 18.12) rotate(-45)"/><rect class="cls-7" x="44.97" y="87.3" width="1.53" height="1.53" transform="translate(-84.49 8.81) rotate(-45)"/><rect class="cls-7" x="54.01" y="93.66" width="1.53" height="1.53" transform="translate(-86.33 17.07) rotate(-45)"/><rect class="cls-7" x="54.01" y="100.02" width="1.53" height="1.53" transform="translate(-90.83 18.93) rotate(-45)"/><rect class="cls-7" x="54.01" y="106.39" width="1.53" height="1.53" transform="translate(-95.34 20.8) rotate(-45)"/><rect class="cls-7" x="54.01" y="112.75" width="1.53" height="1.53" transform="translate(-99.84 22.66) rotate(-45)"/><rect class="cls-7" x="54.01" y="119.11" width="1.53" height="1.53" transform="translate(-104.34 24.53) rotate(-45)"/><rect class="cls-7" x="54.01" y="87.3" width="1.53" height="1.53" transform="translate(-81.84 15.21) rotate(-45)"/><rect class="cls-7" x="63.06" y="93.66" width="1.53" height="1.53" transform="translate(-83.69 23.46) rotate(-45)"/><rect class="cls-7" x="63.06" y="100.02" width="1.53" height="1.53" transform="translate(-88.19 25.32) rotate(-45)"/><rect class="cls-7" x="63.06" y="106.39" width="1.53" height="1.53" transform="translate(-92.69 27.19) rotate(-45)"/><rect class="cls-7" x="63.06" y="112.75" width="1.53" height="1.53" transform="translate(-97.19 29.06) rotate(-45)"/><rect class="cls-7" x="63.06" y="119.11" width="1.53" height="1.53" transform="translate(-101.69 30.92) rotate(-45)"/><rect class="cls-7" x="63.06" y="87.3" width="1.53" height="1.53" transform="translate(-79.19 21.6) rotate(-45)"/><rect class="cls-7" x="72.1" y="93.66" width="1.53" height="1.53" transform="translate(-81.04 29.85) rotate(-45)"/><rect class="cls-7" x="72.1" y="100.02" width="1.53" height="1.53" transform="translate(-85.54 31.72) rotate(-45)"/><rect class="cls-7" x="72.1" y="106.39" width="1.53" height="1.53" transform="translate(-90.04 33.59) rotate(-45)"/><rect class="cls-7" x="72.1" y="112.75" width="1.53" height="1.53" transform="translate(-94.54 35.45) rotate(-45)"/><rect class="cls-7" x="72.1" y="119.11" width="1.53" height="1.53" transform="translate(-99.04 37.32) rotate(-45)"/><rect class="cls-7" x="72.1" y="87.3" width="1.53" height="1.53" transform="translate(-76.54 28) rotate(-45)"/><rect class="cls-7" x="81.15" y="93.66" width="1.53" height="1.53" transform="translate(-78.39 36.24) rotate(-45)"/><rect class="cls-7" x="81.15" y="100.02" width="1.53" height="1.53" transform="translate(-82.89 38.11) rotate(-45)"/><rect class="cls-7" x="81.15" y="106.39" width="1.53" height="1.53" transform="translate(-87.39 39.98) rotate(-45)"/><rect class="cls-7" x="81.15" y="112.75" width="1.53" height="1.53" transform="translate(-91.89 41.84) rotate(-45)"/><rect class="cls-7" x="81.15" y="119.11" width="1.53" height="1.53" transform="translate(-96.39 43.7) rotate(-45)"/><rect class="cls-7" x="81.15" y="87.3" width="1.53" height="1.53" transform="translate(-73.89 34.39) rotate(-45)"/><rect class="cls-7" x="90.19" y="93.66" width="1.53" height="1.53" transform="translate(-75.74 42.64) rotate(-45)"/><rect class="cls-7" x="90.19" y="100.02" width="1.53" height="1.53" transform="translate(-80.24 44.5) rotate(-45)"/><rect class="cls-7" x="90.19" y="106.39" width="1.53" height="1.53" transform="translate(-84.74 46.37) rotate(-45)"/><rect class="cls-7" x="90.19" y="112.75" width="1.53" height="1.53" transform="translate(-89.24 48.24) rotate(-45)"/><rect class="cls-7" x="90.19" y="119.11" width="1.53" height="1.53" transform="translate(-93.74 50.1) rotate(-45)"/><rect class="cls-7" x="90.19" y="87.3" width="1.53" height="1.53" transform="translate(-71.24 40.79) rotate(-45)"/><rect class="cls-7" x="99.23" y="93.66" width="1.53" height="1.53" transform="translate(-73.09 49.03) rotate(-45)"/><rect class="cls-7" x="99.23" y="100.02" width="1.53" height="1.53" transform="translate(-77.59 50.9) rotate(-45)"/><rect class="cls-7" x="99.23" y="106.39" width="1.53" height="1.53" transform="translate(-82.09 52.77) rotate(-45)"/><rect class="cls-7" x="99.23" y="112.75" width="1.53" height="1.53" transform="translate(-86.59 54.63) rotate(-45)"/><rect class="cls-7" x="99.23" y="119.11" width="1.53" height="1.53" transform="translate(-91.09 56.49) rotate(-45)"/><rect class="cls-7" x="99.23" y="87.3" width="1.53" height="1.53" transform="translate(-68.59 47.18) rotate(-45)"/><rect class="cls-7" x="108.28" y="93.66" width="1.53" height="1.53" transform="translate(-70.44 55.43) rotate(-45)"/><rect class="cls-7" x="108.28" y="100.02" width="1.53" height="1.53" transform="translate(-74.94 57.29) rotate(-45)"/><rect class="cls-7" x="108.28" y="106.39" width="1.53" height="1.53" transform="translate(-79.44 59.16) rotate(-45)"/><rect class="cls-7" x="108.28" y="112.75" width="1.53" height="1.53" transform="translate(-83.94 61.03) rotate(-45)"/><rect class="cls-7" x="108.28" y="119.11" width="1.53" height="1.53" transform="translate(-88.44 62.89) rotate(-45)"/><rect class="cls-7" x="108.28" y="87.3" width="1.53" height="1.53" transform="translate(-65.94 53.58) rotate(-45)"/><rect class="cls-7" x="117.32" y="93.66" width="1.53" height="1.53" transform="translate(-67.79 61.82) rotate(-45)"/><rect class="cls-7" x="117.32" y="100.02" width="1.53" height="1.53" transform="translate(-72.29 63.68) rotate(-45)"/><rect class="cls-7" x="117.32" y="106.39" width="1.53" height="1.53" transform="translate(-76.79 65.56) rotate(-45)"/><rect class="cls-7" x="117.32" y="112.75" width="1.53" height="1.53" transform="translate(-81.29 67.42) rotate(-45)"/><rect class="cls-7" x="117.32" y="119.11" width="1.53" height="1.53" transform="translate(-85.79 69.28) rotate(-45)"/><rect class="cls-7" x="117.32" y="87.3" width="1.53" height="1.53" transform="translate(-63.29 59.97) rotate(-45)"/><rect class="cls-7" x="35.93" y="93.66" width="1.53" height="1.53" transform="translate(-91.63 4.27) rotate(-45)"/><rect class="cls-7" x="35.93" y="100.02" width="1.53" height="1.53" transform="translate(-96.13 6.13) rotate(-45)"/><rect class="cls-7" x="35.93" y="106.39" width="1.53" height="1.53" transform="translate(-100.63 8) rotate(-45)"/><rect class="cls-7" x="35.93" y="112.75" width="1.53" height="1.53" transform="translate(-105.13 9.87) rotate(-45)"/><rect class="cls-7" x="35.93" y="119.11" width="1.53" height="1.53" transform="translate(-109.63 11.73) rotate(-45)"/><rect class="cls-7" x="35.93" y="87.3" width="1.53" height="1.53" transform="translate(-87.13 2.42) rotate(-45)"/><rect class="cls-7" x="126.36" y="93.66" width="1.53" height="1.53" transform="translate(-65.14 68.22) rotate(-45)"/><rect class="cls-7" x="126.36" y="100.02" width="1.53" height="1.53" transform="translate(-69.64 70.08) rotate(-45)"/><rect class="cls-7" x="126.36" y="106.39" width="1.53" height="1.53" transform="translate(-74.14 71.95) rotate(-45)"/><rect class="cls-7" x="126.36" y="112.75" width="1.53" height="1.53" transform="translate(-78.64 73.82) rotate(-45)"/><rect class="cls-7" x="126.36" y="119.11" width="1.53" height="1.53" transform="translate(-83.14 75.68) rotate(-45)"/><rect class="cls-7" x="126.36" y="87.3" width="1.53" height="1.53" transform="translate(-60.64 66.37) rotate(-45)"/></g><path class="cls-8" d="M59.88,158.71v1.44a1.28,1.28,0,0,0,1.28,1.28h2.37a1.25,1.25,0,0,1,1.2.88,9.52,9.52,0,0,0,.62,1.47,1.28,1.28,0,0,1-.23,1.48l-1.68,1.68a1.28,1.28,0,0,0,0,1.81l1,1a1.28,1.28,0,0,0,1.81,0l1.67-1.68a1.26,1.26,0,0,1,1.48-.23,9.59,9.59,0,0,0,1.48.61,1.27,1.27,0,0,1,.87,1.21v2.37a1.29,1.29,0,0,0,1.28,1.28H74.5a1.28,1.28,0,0,0,1.27-1.28v-2.37a1.28,1.28,0,0,1,.88-1.21,9.59,9.59,0,0,0,1.48-.61,1.26,1.26,0,0,1,1.48.23l1.67,1.68a1.28,1.28,0,0,0,1.81,0l1-1a1.28,1.28,0,0,0,0-1.81l-1.68-1.68a1.28,1.28,0,0,1-.23-1.48,8.59,8.59,0,0,0,.61-1.47,1.27,1.27,0,0,1,1.21-.88h2.37a1.28,1.28,0,0,0,1.28-1.28v-1.44a1.28,1.28,0,0,0-1.28-1.28H84a1.27,1.27,0,0,1-1.21-.88,8.59,8.59,0,0,0-.61-1.47,1.28,1.28,0,0,1,.23-1.48l1.68-1.68a1.28,1.28,0,0,0,0-1.81l-1-1a1.28,1.28,0,0,0-1.81,0l-1.67,1.67a1.26,1.26,0,0,1-1.48.23,9.59,9.59,0,0,0-1.48-.61,1.28,1.28,0,0,1-.88-1.21v-2.37a1.28,1.28,0,0,0-1.27-1.28H73.05a1.29,1.29,0,0,0-1.28,1.28v2.37a1.27,1.27,0,0,1-.87,1.21,9.59,9.59,0,0,0-1.48.61,1.26,1.26,0,0,1-1.48-.23l-1.67-1.67a1.28,1.28,0,0,0-1.81,0l-1,1a1.28,1.28,0,0,0,0,1.81l1.68,1.68a1.28,1.28,0,0,1,.23,1.48,9.52,9.52,0,0,0-.62,1.47,1.25,1.25,0,0,1-1.2.88H61.16A1.28,1.28,0,0,0,59.88,158.71Zm14.86-4.1A4.92,4.92,0,1,1,69,160.39,4.9,4.9,0,0,1,74.74,154.61Z" transform="translate(-35.61 -49.33)"/><polygon class="cls-8" points="125.01 40.4 97.46 40.72 122.09 56.63 122.62 49.16 127.26 46.61 105.81 41.96 124.46 44.07 125.74 42.69 127.9 40.35 125.01 40.4"/><path class="cls-9" d="M170.14,97.33l-.22.78-1.3-.35.2-.79Z" transform="translate(-35.61 -49.33)"/><polygon class="cls-9" points="130.83 47.07 132.16 47.38 131.97 48.17 130.65 47.86 130.83 47.07"/><polygon class="cls-9" points="128.44 46.58 129.78 46.84 129.62 47.64 128.29 47.38 128.44 46.58"/><polygon class="cls-9" points="139.94 50.61 140.23 49.85 141.5 50.35 141.19 51.1 139.94 50.61"/><path class="cls-9" d="M173.53,98.36c.43.15.86.28,1.29.44l-.27.77c-.42-.16-.85-.3-1.28-.44Z" transform="translate(-35.61 -49.33)"/><path class="cls-9" d="M172.5,98l-.24.77q-.64-.21-1.29-.39l.23-.78Z" transform="translate(-35.61 -49.33)"/><path class="cls-9" d="M182.5,102.38c.38.26.78.5,1.15.77l-.46.66c-.36-.26-.75-.49-1.12-.74Z" transform="translate(-35.61 -49.33)"/><path class="cls-9" d="M181.56,101.83l-.41.7c-.38-.23-.78-.43-1.18-.64l.38-.72C180.75,101.38,181.16,101.59,181.56,101.83Z" transform="translate(-35.61 -49.33)"/><path class="cls-9" d="M177.8,100.86l.33-.75c.42.18.83.38,1.25.58l-.35.73C178.62,101.23,178.22,101,177.8,100.86Z" transform="translate(-35.61 -49.33)"/><path class="cls-9" d="M187.23,107.94l.7-.41c.23.42.44.86.63,1.29l-.76.3A12.81,12.81,0,0,0,187.23,107.94Z" transform="translate(-35.61 -49.33)"/><path class="cls-9" d="M185.81,106.05l.59-.55c.33.34.61.72.91,1.08l-.65.48C186.37,106.73,186.11,106.37,185.81,106.05Z" transform="translate(-35.61 -49.33)"/><polygon class="cls-9" points="148.44 55.12 148.95 54.48 150.01 55.39 149.46 55.98 148.44 55.12"/><path class="cls-9" d="M188.46,115c-.18.43-.39.86-.58,1.29l-.72-.38c.18-.4.37-.79.54-1.2Z" transform="translate(-35.61 -49.33)"/><path class="cls-9" d="M188.25,112.44l.81.07-.11.72a4.37,4.37,0,0,1-.15.7l-.79-.21a3.31,3.31,0,0,0,.14-.64Z" transform="translate(-35.61 -49.33)"/><path class="cls-9" d="M188.21,110.76l-.1-.64.79-.18.12.72a3.44,3.44,0,0,1,.06.72l-.81,0A2.86,2.86,0,0,0,188.21,110.76Z" transform="translate(-35.61 -49.33)"/><path class="cls-9" d="M184.17,121.12c-.34.32-.66.65-1,.94l-.54-.61c.35-.28.66-.6,1-.91Z" transform="translate(-35.61 -49.33)"/><polygon class="cls-9" points="150.25 69.98 149.33 71.02 148.74 70.46 149.63 69.46 150.25 69.98"/><polygon class="cls-9" points="151.01 67.52 151.7 67.95 151.34 68.55 150.92 69.11 150.26 68.63 150.66 68.09 151.01 67.52"/><polygon class="cls-9" points="142.71 76.32 141.55 77.05 141.13 76.35 142.27 75.64 142.71 76.32"/><polygon class="cls-9" points="144.75 74.95 143.62 75.73 143.17 75.06 144.28 74.29 144.75 74.95"/><path class="cls-9" d="M182.31,122.78c-.34.31-.72.57-1.08.85l-.49-.64c.35-.28.72-.54,1.06-.83Z" transform="translate(-35.61 -49.33)"/><polygon class="cls-9" points="135.91 79.14 136.26 79.87 135.03 80.45 134.69 79.72 135.91 79.14"/><path class="cls-9" d="M174.06,128.1c-.4.22-.81.42-1.22.62l-.36-.73c.4-.2.81-.39,1.2-.61Z" transform="translate(-35.61 -49.33)"/><path class="cls-9" d="M176.2,126.92c-.39.23-.79.46-1.19.67l-.39-.71c.4-.21.79-.44,1.18-.66Z" transform="translate(-35.61 -49.33)"/><polygon class="cls-9" points="129.23 82.03 129.53 82.79 128.26 83.28 127.97 82.52 129.23 82.03"/><polygon class="cls-9" points="131.48 81.13 131.79 81.87 130.53 82.39 130.23 81.64 131.48 81.13"/><polygon class="cls-9" points="133.7 80.17 134.03 80.91 132.78 81.45 132.46 80.71 133.7 80.17"/><polygon class="cls-9" points="122.38 84.49 122.63 85.26 121.33 85.68 121.09 84.9 122.38 84.49"/><polygon class="cls-9" points="124.67 83.71 124.94 84.48 123.65 84.92 123.39 84.15 124.67 83.71"/><polygon class="cls-9" points="126.95 82.9 127.23 83.66 125.95 84.13 125.68 83.36 126.95 82.9"/><polygon class="cls-9" points="115.4 86.6 115.61 87.38 114.3 87.73 114.09 86.95 115.4 86.6"/><polygon class="cls-9" points="117.73 85.93 117.96 86.71 116.65 87.08 116.43 86.3 117.73 85.93"/><polygon class="cls-9" points="120.05 85.23 120.29 86.01 118.99 86.4 118.75 85.63 120.05 85.23"/><polygon class="cls-9" points="107.01 88.68 108.33 88.38 108.51 89.17 107.18 89.47 107.01 88.68"/><polygon class="cls-9" points="110.69 87.83 110.89 88.61 109.56 88.93 109.38 88.14 110.69 87.83"/><polygon class="cls-9" points="113.04 87.23 113.24 88.02 111.92 88.35 111.73 87.57 113.04 87.23"/><rect class="cls-10" x="58.94" y="77.73" width="154.88" height="107.26" rx="4.9"/><path class="cls-10" d="M127.82,243.63l6.51-3.1a1.32,1.32,0,0,1,.56-.13h26.32v-6.08h21.56v6.08H209a1.18,1.18,0,0,1,.56.13l6.59,3.09a1.31,1.31,0,0,1-.56,2.5H128.38A1.31,1.31,0,0,1,127.82,243.63Z" transform="translate(-35.61 -49.33)"/><polygon class="cls-11" points="207.37 84.16 207.37 141.87 207.37 151.79 207.37 171.06 198.25 171.06 140.72 84.16 207.37 84.16"/><polygon class="cls-11" points="112.49 84.16 170.03 171.06 163.21 171.06 157.43 171.06 99.89 84.16 112.49 84.16"/><polygon class="cls-11" points="71.05 84.16 85.88 84.16 86.56 84.16 144.1 171.06 65.39 171.06 65.39 151.79 65.39 141.87 65.39 84.16 71.05 84.16"/><polygon class="cls-12" points="140.72 84.16 198.25 171.06 178.03 171.06 170.03 171.06 112.49 84.16 140.72 84.16"/><polygon class="cls-12" points="99.89 84.16 157.43 171.06 144.1 171.06 86.56 84.16 99.89 84.16"/><path class="cls-13" d="M274.72,214.64a11.51,11.51,0,0,0,1.78-2.52,6.24,6.24,0,0,0-.05-4.24c-.42-1.38-1.07-2.68-1.44-4.07a10.87,10.87,0,0,1,2.42-9.92,16.32,16.32,0,0,0,1.57-1.76,7.55,7.55,0,0,0,.75-5.3,26.28,26.28,0,0,1-.68-5.42,8.17,8.17,0,0,1,2.92-5.72,9.67,9.67,0,0,1,6.06-1.89h.14a9.71,9.71,0,0,1,6.08,1.82,8.1,8.1,0,0,1,3,5.69,26.35,26.35,0,0,1-.61,5.43,7.53,7.53,0,0,0,.81,5.29,16.31,16.31,0,0,0,1.59,1.74,10.86,10.86,0,0,1,2.53,9.89c-.35,1.39-1,2.7-1.4,4.09a6.3,6.3,0,0,0,0,4.24,11.78,11.78,0,0,0,1.81,2.5c2.4,3,3.44,7.43,1.36,10.64A11,11,0,0,1,300,228.2a20,20,0,0,1-6.51,2.81,6.79,6.79,0,0,1-3.1.17,20.63,20.63,0,0,0-3.85,0,6.78,6.78,0,0,1-3.1-.13,20.09,20.09,0,0,1-6.55-2.74,10.93,10.93,0,0,1-3.38-3C271.37,222.11,272.35,217.64,274.72,214.64Z" transform="translate(-35.61 -49.33)"/><path class="cls-14" d="M277.36,211.54l10,10.71.35-21.06-7.49-10,7.52,8.06.22-12.79-5.42-7.21,5.44,5.83.15-9,.18,11.54,5.21-5.7L288.34,189l.2,13,7.44-8.15L288.57,204l.33,21.32,10.16-11.13s-9.07,12.37-10.12,13.79l.05,3.14h-1.78l.1-6.3Z" transform="translate(-35.61 -49.33)"/><rect class="cls-13" x="287.18" y="231.08" width="1.79" height="3.44" transform="translate(540.55 416.28) rotate(180)"/><polygon class="cls-15" points="260.41 185.24 244.53 185.24 247.5 197.79 257.39 197.79 260.41 185.24"/><rect class="cls-16" x="280.14" y="233.61" width="15.88" height="0.95" transform="translate(540.55 418.85) rotate(180)"/><polygon class="cls-7" points="234.98 65.7 231.21 67.77 234.98 69.84 237.05 73.61 239.12 69.84 242.89 67.77 239.12 65.7 237.05 61.92 234.98 65.7"/><polygon class="cls-7" points="225.83 72.42 223.64 73.61 225.83 74.81 227.02 77 228.22 74.81 230.41 73.61 228.22 72.42 227.02 70.23 225.83 72.42"/><polygon class="cls-7" points="90.92 60.84 94.7 62.91 90.92 64.97 88.86 68.75 86.79 64.97 83.01 62.91 86.79 60.84 88.86 57.06 90.92 60.84"/><polygon class="cls-7" points="100.08 67.56 102.27 68.75 100.08 69.95 98.88 72.14 97.69 69.95 95.5 68.75 97.69 67.56 98.88 65.37 100.08 67.56"/><path class="cls-7" d="M258,147.16c0,3.89,4.87,14.08,7.05,14.08s7-10.19,7-14.08a7.05,7.05,0,1,0-14.1,0Zm2.84.47a4.21,4.21,0,1,1,4.21,4.21A4.22,4.22,0,0,1,260.83,147.63Z" transform="translate(-35.61 -49.33)"/><circle class="cls-13" cx="233.11" cy="104.51" r="12.76" transform="translate(-57.7 66.91) rotate(-26.78)"/><path class="cls-14" d="M243.83,104.51A10.72,10.72,0,1,1,233.11,93.8,10.72,10.72,0,0,1,243.83,104.51Z" transform="translate(-35.61 -49.33)"/><path class="cls-7" d="M236.36,106.31a2.89,2.89,0,0,1-.23,1.16,2.7,2.7,0,0,1-.64.89,3.24,3.24,0,0,1-1,.59,4.83,4.83,0,0,1-1.31.29v1.6a.3.3,0,0,1,0,.1.18.18,0,0,1-.09.08l-.2,0h-.31a2.06,2.06,0,0,1-.38,0,.58.58,0,0,1-.23-.06.29.29,0,0,1-.11-.11.24.24,0,0,1,0-.15v-1.52a4.93,4.93,0,0,1-1.12-.27,3,3,0,0,1-.4-.17,1.08,1.08,0,0,1-.25-.18.45.45,0,0,1-.12-.25,2.12,2.12,0,0,1,0-.5c0-.17,0-.31,0-.42a.7.7,0,0,1,.06-.25.19.19,0,0,1,.09-.12.2.2,0,0,1,.13,0,.68.68,0,0,1,.28.11,5.15,5.15,0,0,0,.48.25,5.23,5.23,0,0,0,.71.25,3.93,3.93,0,0,0,1,.11,2.11,2.11,0,0,0,1.3-.33,1,1,0,0,0,.43-.86.87.87,0,0,0-.19-.59,1.69,1.69,0,0,0-.49-.41,4.45,4.45,0,0,0-.69-.31l-.79-.3a6.08,6.08,0,0,1-.78-.36,2.72,2.72,0,0,1-.69-.52,2.13,2.13,0,0,1-.49-.74,2.58,2.58,0,0,1-.19-1.06,2.53,2.53,0,0,1,.19-1,2.22,2.22,0,0,1,.54-.81,2.59,2.59,0,0,1,.86-.55,4,4,0,0,1,1.16-.29l0-1.42a.24.24,0,0,1,0-.1.21.21,0,0,1,.1-.08.74.74,0,0,1,.19,0h.31a2.18,2.18,0,0,1,.39,0A.83.83,0,0,1,234,98a.23.23,0,0,1,.11.11.77.77,0,0,1,0,.15l0,1.33.44.08.44.13a1.94,1.94,0,0,1,.36.15.84.84,0,0,1,.23.14l.1.12a.75.75,0,0,1,.05.16,1.4,1.4,0,0,1,0,.23,2.63,2.63,0,0,1,0,.3c0,.15,0,.28,0,.38a1.07,1.07,0,0,1,0,.23.2.2,0,0,1-.07.1.12.12,0,0,1-.09,0,.79.79,0,0,1-.28-.1l-.46-.21q-.27-.1-.63-.21a3.1,3.1,0,0,0-.78-.09,2.52,2.52,0,0,0-.66.07,1.18,1.18,0,0,0-.45.21.85.85,0,0,0-.25.32,1,1,0,0,0,.1,1,1.57,1.57,0,0,0,.5.41,4.58,4.58,0,0,0,.7.32l.8.29a8.25,8.25,0,0,1,.8.37,2.88,2.88,0,0,1,.7.5,2.39,2.39,0,0,1,.49.74A2.46,2.46,0,0,1,236.36,106.31Z" transform="translate(-35.61 -49.33)"/><path class="cls-8" d="M143.4,114.48h57.39a0,0,0,0,1,0,0V218.63a2,2,0,0,1-2,2H145.4a2,2,0,0,1-2-2V114.48A0,0,0,0,1,143.4,114.48Z" transform="translate(308.59 285.78) rotate(180)"/><path class="cls-11" d="M155.22,122.64h42a.82.82,0,0,1,.81.82V129a.82.82,0,0,1-.81.82h-42Z" transform="translate(-35.61 -49.33)"/><path class="cls-12" d="M147,122.64h6.56v7.13H147a.82.82,0,0,1-.81-.82v-5.49A.82.82,0,0,1,147,122.64Z" transform="translate(-35.61 -49.33)"/><path class="cls-8" d="M194.44,125.08a1,1,0,1,1-1,1A1,1,0,0,1,194.44,125.08Z" transform="translate(-35.61 -49.33)"/><path class="cls-14" d="M191.3,125.08a1,1,0,1,1-1,1A1,1,0,0,1,191.3,125.08Z" transform="translate(-35.61 -49.33)"/><path class="cls-17" d="M188.16,125.08a1,1,0,0,1,0,2.07,1,1,0,1,1,0-2.07Z" transform="translate(-35.61 -49.33)"/><path class="cls-11" d="M155.22,134.53h42a.81.81,0,0,1,.81.82v5.48a.81.81,0,0,1-.81.82h-42Z" transform="translate(-35.61 -49.33)"/><path class="cls-12" d="M147,134.53h6.56v7.12H147a.81.81,0,0,1-.81-.82v-5.48A.81.81,0,0,1,147,134.53Z" transform="translate(-35.61 -49.33)"/><path class="cls-8" d="M194.44,137a1,1,0,1,1-1,1A1,1,0,0,1,194.44,137Z" transform="translate(-35.61 -49.33)"/><path class="cls-14" d="M191.3,137a1,1,0,1,1-1,1A1,1,0,0,1,191.3,137Z" transform="translate(-35.61 -49.33)"/><path class="cls-17" d="M188.16,137a1,1,0,1,1-1,1A1,1,0,0,1,188.16,137Z" transform="translate(-35.61 -49.33)"/><path class="cls-11" d="M155.22,146.41h42a.82.82,0,0,1,.81.82v5.49a.81.81,0,0,1-.81.81h-42Z" transform="translate(-35.61 -49.33)"/><path class="cls-12" d="M147,146.41h6.56v7.12H147a.81.81,0,0,1-.81-.81v-5.49A.82.82,0,0,1,147,146.41Z" transform="translate(-35.61 -49.33)"/><path class="cls-8" d="M194.44,148.84a1,1,0,1,1-1,1A1,1,0,0,1,194.44,148.84Z" transform="translate(-35.61 -49.33)"/><path class="cls-14" d="M191.3,148.84a1,1,0,1,1-1,1A1,1,0,0,1,191.3,148.84Z" transform="translate(-35.61 -49.33)"/><path class="cls-17" d="M188.16,148.84a1,1,0,1,1-1,1A1,1,0,0,1,188.16,148.84Z" transform="translate(-35.61 -49.33)"/><circle class="cls-7" cx="136.49" cy="163.12" r="3.85"/><path class="cls-8" d="M154.5,167s2.8,19.73,6.58,24.63,11,7.82,11,7.82,7.24-2.92,11-7.82S189.7,167,189.7,167l-17.6-6.36L154.5,167" transform="translate(-35.61 -49.33)"/><path class="cls-7" d="M172.1,163.4,157,168.85s2.4,16.93,5.65,21.14,9.45,6.7,9.45,6.7,6.21-2.5,9.45-6.7,5.65-21.14,5.65-21.14Z" transform="translate(-35.61 -49.33)"/><circle class="cls-13" cx="172.1" cy="178.16" r="7.43" transform="translate(-76.54 255.24) rotate(-76.67)"/><path class="cls-7" d="M170.26,181.84a.31.31,0,0,1-.43,0l-3.25-3.25,1-1,2.28,2.27a.31.31,0,0,0,.44,0l6.24-5.82,1,1.05Z" transform="translate(-35.61 -49.33)"/><path class="cls-8" d="M104.16,151.9h37.16a0,0,0,0,1,0,0v66.73a2,2,0,0,1-2,2H106.16a2,2,0,0,1-2-2V151.9A0,0,0,0,1,104.16,151.9Z" transform="translate(209.87 323.2) rotate(180)"/><path class="cls-11" d="M111.81,157.18H139a.53.53,0,0,1,.53.53v3.56a.53.53,0,0,1-.53.53H111.81Z" transform="translate(-35.61 -49.33)"/><path class="cls-12" d="M106.46,157.18h4.24v4.62h-4.24a.53.53,0,0,1-.53-.53v-3.56A.53.53,0,0,1,106.46,157.18Z" transform="translate(-35.61 -49.33)"/><path class="cls-8" d="M137.21,158.76a.67.67,0,1,1-.68.67A.67.67,0,0,1,137.21,158.76Z" transform="translate(-35.61 -49.33)"/><path class="cls-14" d="M135.17,158.76a.67.67,0,1,1-.67.67A.67.67,0,0,1,135.17,158.76Z" transform="translate(-35.61 -49.33)"/><path class="cls-17" d="M133.14,158.76a.67.67,0,1,1-.67.67A.67.67,0,0,1,133.14,158.76Z" transform="translate(-35.61 -49.33)"/><path class="cls-11" d="M111.81,164.88H139a.53.53,0,0,1,.53.53V169a.53.53,0,0,1-.53.53H111.81Z" transform="translate(-35.61 -49.33)"/><path class="cls-12" d="M106.46,164.88h4.24v4.61h-4.24a.53.53,0,0,1-.53-.53v-3.55A.53.53,0,0,1,106.46,164.88Z" transform="translate(-35.61 -49.33)"/><path class="cls-8" d="M137.21,166.45a.68.68,0,1,1-.68.67A.67.67,0,0,1,137.21,166.45Z" transform="translate(-35.61 -49.33)"/><path class="cls-14" d="M135.17,166.45a.68.68,0,1,1-.67.67A.67.67,0,0,1,135.17,166.45Z" transform="translate(-35.61 -49.33)"/><path class="cls-17" d="M133.14,166.45a.68.68,0,1,1-.67.67A.67.67,0,0,1,133.14,166.45Z" transform="translate(-35.61 -49.33)"/><path class="cls-11" d="M111.81,172.57H139a.53.53,0,0,1,.53.53v3.56a.53.53,0,0,1-.53.53H111.81Z" transform="translate(-35.61 -49.33)"/><path class="cls-12" d="M106.46,172.57h4.24v4.62h-4.24a.53.53,0,0,1-.53-.53V173.1A.53.53,0,0,1,106.46,172.57Z" transform="translate(-35.61 -49.33)"/><path class="cls-8" d="M137.21,174.15a.67.67,0,1,1-.68.67A.67.67,0,0,1,137.21,174.15Z" transform="translate(-35.61 -49.33)"/><path class="cls-14" d="M135.17,174.15a.67.67,0,1,1-.67.67A.67.67,0,0,1,135.17,174.15Z" transform="translate(-35.61 -49.33)"/><path class="cls-17" d="M133.14,174.15a.67.67,0,1,1-.67.67A.67.67,0,0,1,133.14,174.15Z" transform="translate(-35.61 -49.33)"/><circle class="cls-7" cx="87.13" cy="166.01" r="2.49"/><path class="cls-8" d="M202.88,151.9H240a0,0,0,0,1,0,0v66.73a2,2,0,0,1-2,2H204.88a2,2,0,0,1-2-2V151.9A0,0,0,0,1,202.88,151.9Z" transform="translate(407.31 323.2) rotate(180)"/><path class="cls-11" d="M210.53,157.18h27.21a.53.53,0,0,1,.53.53v3.56a.53.53,0,0,1-.53.53H210.53Z" transform="translate(-35.61 -49.33)"/><path class="cls-12" d="M205.18,157.18h4.24v4.62h-4.24a.53.53,0,0,1-.53-.53v-3.56A.53.53,0,0,1,205.18,157.18Z" transform="translate(-35.61 -49.33)"/><path class="cls-8" d="M235.92,158.76a.67.67,0,1,1-.67.67A.67.67,0,0,1,235.92,158.76Z" transform="translate(-35.61 -49.33)"/><path class="cls-14" d="M233.89,158.76a.67.67,0,1,1-.67.67A.67.67,0,0,1,233.89,158.76Z" transform="translate(-35.61 -49.33)"/><path class="cls-17" d="M231.86,158.76a.67.67,0,1,1-.67.67A.67.67,0,0,1,231.86,158.76Z" transform="translate(-35.61 -49.33)"/><path class="cls-11" d="M210.53,164.88h27.21a.53.53,0,0,1,.53.53V169a.53.53,0,0,1-.53.53H210.53Z" transform="translate(-35.61 -49.33)"/><path class="cls-12" d="M205.18,164.88h4.24v4.61h-4.24a.53.53,0,0,1-.53-.53v-3.55A.53.53,0,0,1,205.18,164.88Z" transform="translate(-35.61 -49.33)"/><path class="cls-8" d="M235.92,166.45a.68.68,0,1,1-.67.67A.67.67,0,0,1,235.92,166.45Z" transform="translate(-35.61 -49.33)"/><path class="cls-14" d="M233.89,166.45a.68.68,0,1,1-.67.67A.67.67,0,0,1,233.89,166.45Z" transform="translate(-35.61 -49.33)"/><path class="cls-17" d="M231.86,166.45a.68.68,0,1,1-.67.67A.67.67,0,0,1,231.86,166.45Z" transform="translate(-35.61 -49.33)"/><path class="cls-11" d="M210.53,172.57h27.21a.53.53,0,0,1,.53.53v3.56a.53.53,0,0,1-.53.53H210.53Z" transform="translate(-35.61 -49.33)"/><path class="cls-12" d="M205.18,172.57h4.24v4.62h-4.24a.53.53,0,0,1-.53-.53V173.1A.53.53,0,0,1,205.18,172.57Z" transform="translate(-35.61 -49.33)"/><path class="cls-8" d="M235.92,174.15a.67.67,0,1,1-.67.67A.67.67,0,0,1,235.92,174.15Z" transform="translate(-35.61 -49.33)"/><path class="cls-14" d="M233.89,174.15a.67.67,0,1,1-.67.67A.67.67,0,0,1,233.89,174.15Z" transform="translate(-35.61 -49.33)"/><path class="cls-17" d="M231.86,174.15a.67.67,0,1,1-.67.67A.67.67,0,0,1,231.86,174.15Z" transform="translate(-35.61 -49.33)"/><path class="cls-7" d="M219,215.33a2.49,2.49,0,1,0,2.49-2.49A2.49,2.49,0,0,0,219,215.33Z" transform="translate(-35.61 -49.33)"/><path class="cls-13" d="M50.68,219.63c-.92,1.7-2.91.51-2.91.51s.12-.56,1-1a2.73,2.73,0,0,1,2,.06l1.09,0h0l.72.06c-3.12-1.1-1.65-4.79-1.65-4.79a3,3,0,0,1,2,1.42c.84,1.11.51,3,.41,3.46a17.92,17.92,0,0,1,3.6.91c-.15-.14-.3-.31-.46-.49-1.19-1.43-.66-4.13-.66-4.13,4.26.55,3.41,4.56,3.16,5.48a26.8,26.8,0,0,1,3.85,2.29A5.64,5.64,0,0,1,62,221.5c-.54-2,1.27-4.51,1.27-4.51,4.18,2.63,1.17,6.43.58,7.11.75.58,1.44,1.16,2.06,1.72s1.3,1.23,1.87,1.82a5.57,5.57,0,0,1-.21-2.71c.3-2.25,3.17-4,3.17-4,3,4.31-1.31,6.87-2.33,7.39a38.16,38.16,0,0,1,3.07,3.77l-.38.25s-.75-1.09-2-2.61c-1.61,5.11-7.16,2.51-7.16,2.51s.14-1.39,2.19-2.76c1.33-.88,3.31-.65,4.37-.44-.8-.88-1.76-1.88-2.85-2.87-.37-.33-.75-.66-1.16-1-1.43,4.82-6.59,2.41-6.59,2.41a4,4,0,0,1,2-2.53,5.64,5.64,0,0,1,3.92-.41,27.73,27.73,0,0,0-4-2.67c-.88,4.56-5.73,2.72-5.73,2.72a3.5,3.5,0,0,1,1.62-2.38,5.08,5.08,0,0,1,3.57-.62A19.46,19.46,0,0,0,54,219.85c.08,4.14-4.4,3.34-4.4,3.34a3,3,0,0,1,1-2.27,4.77,4.77,0,0,1,3.26-1.09,14.75,14.75,0,0,0-2-.23Z" transform="translate(-35.61 -49.33)"/><path class="cls-17" d="M86.85,244.21s9.29-21,2.57-40.47-23-25.19-23-25.19,9.64,11.16,4,28.56c-5.29,16.47,4.8,37.1,4.8,37.1Z" transform="translate(-35.61 -49.33)"/><path class="cls-16" d="M83.56,244.21s2.38-42.68-7.69-53.9c9.16,14.14,5.35,53.9,5.35,53.9Z" transform="translate(-35.61 -49.33)"/><path class="cls-17" d="M67.6,244.21h9.94a26.23,26.23,0,0,0-5.4-11,12.66,12.66,0,0,0-9.8-4.37,16.17,16.17,0,0,1,3.43,9.12A17.67,17.67,0,0,0,67.6,244.21Z" transform="translate(-35.61 -49.33)"/><path class="cls-13" d="M90.58,221c-7.24,9.44-8.86,21.74-9,23.21H95.62c3.56-3.29,7.92-8.6,7.95-15,.07-11.41,5.36-18.18,5.36-18.18A24.74,24.74,0,0,0,90.58,221Z" transform="translate(-35.61 -49.33)"/><path class="cls-8" d="M74.31,244.21h.75c-1.42-3.24-5-10.84-8.41-12.38C70,234.05,73,240.92,74.31,244.21Z" transform="translate(-35.61 -49.33)"/><path class="cls-14" d="M86,244.21h1.47c1.71-5.67,6.94-21.44,13.55-26.65C94.19,221.34,87.81,238.85,86,244.21Z" transform="translate(-35.61 -49.33)"/><rect class="cls-17" x="26.2" y="194.88" width="41.94" height="1.66"/><path class="cls-18" d="M89.89,141.27,89.73,143c.17,0,2.31.21,2.31.21l.17-1.72Z" transform="translate(-35.61 -49.33)"/><path class="cls-10" d="M89.21,142.33l-5.35,2.07a4.91,4.91,0,0,1-.57.08.9.9,0,0,0-.79.77,1.18,1.18,0,0,0,0,.28c0,.08,9.65.92,9.65.92s.52-3.06,0-3.23S89.9,143.29,89.21,142.33Z" transform="translate(-35.61 -49.33)"/><polygon class="cls-7" points="50.59 94.16 50.97 95.02 50.65 95.17 50.26 94.29 50.59 94.16"/><polygon class="cls-7" points="50.01 94.39 50.37 95.21 50.04 95.36 49.68 94.52 50.01 94.39"/><polygon class="cls-7" points="49.46 94.61 49.8 95.4 49.48 95.54 49.13 94.74 49.46 94.61"/><path class="cls-18" d="M82.06,138.07l-.92,1.47c.15.08,2,1.24,2,1.24l.92-1.47Z" transform="translate(-35.61 -49.33)"/><path class="cls-10" d="M81,138.71l-5.72-.55-.54-.18a.88.88,0,0,0-1,.34,1.21,1.21,0,0,0-.13.24c0,.09,8.21,5.15,8.21,5.15s1.84-2.5,1.47-2.87S81.16,139.89,81,138.71Z" transform="translate(-35.61 -49.33)"/><polygon class="cls-7" points="42.16 89.08 42.11 90.01 41.75 89.99 41.8 89.04 42.16 89.08"/><polygon class="cls-7" points="41.53 89.02 41.49 89.91 41.13 89.89 41.18 88.98 41.53 89.02"/><polygon class="cls-7" points="40.94 88.96 40.9 89.82 40.54 89.8 40.59 88.93 40.94 88.96"/><path class="cls-16" d="M101.67,119.27s-11.33-1-12.37.2-7.57,19.12-7.57,19.12l2.47,1.25,8.74-13.79,10-4.77Z" transform="translate(-35.61 -49.33)"/><path class="cls-10" d="M99.22,98.21s-2,.3-2.73-.15-3.4-3.27-1.66-2.94,1.73.19,2.43-1,1-3.49,3.46-3.61,5.1,0,5.6,1.78.12,3.71.7,4.44,1,1.35-.46,1.1a5.28,5.28,0,0,0-3.09.8L101,97.5Z" transform="translate(-35.61 -49.33)"/><path class="cls-18" d="M99.07,97.45s.35,2.32,1.2,2.49.3,1.36,1.78,1.7,2.51-.47,2.83-.14a32.83,32.83,0,0,1,1.76,2.87l.65.72,1.56-5.65L107,97.33s-1.88.85-2.1-.51-2.39-1.6-2.24-.24S100.44,94.08,99.07,97.45Z" transform="translate(-35.61 -49.33)"/><path class="cls-8" d="M107.51,99.06s1.94-1.92,2.21-.7,3.69.92,5.42,6.61a101.5,101.5,0,0,1,2.93,17.2c.1,1.92-1.83,4.71-3,4.76s.58-2.3-3.25-6-7.07-3.71-7.07-3.71-.19-8.23.31-10.45S106.12,99.65,107.51,99.06Z" transform="translate(-35.61 -49.33)"/><path class="cls-16" d="M115.07,126.93s-7.6.22-11.83.07c-3.48-.13-7.34-.47-7.34-.47l-2.65,15.4-3.38-.24.52-19.78s-.64-3,5.65-2.69a143.65,143.65,0,0,0,15-.42l2.3,2Z" transform="translate(-35.61 -49.33)"/><path class="cls-18" d="M99.37,116.06s-4.46-.44-5-.42A4.48,4.48,0,0,0,92,117.09c-.49.75-1.09,2-.38,1.67s1.2-1.12,3.13-.82,2.81.68,4.6.36S99.37,116.06,99.37,116.06Z" transform="translate(-35.61 -49.33)"/><polygon class="cls-10" points="48.86 63.05 54.79 69.53 52.54 69.64 46.2 62.98 48.86 63.05"/><path class="cls-8" d="M108.77,107s1-5.84,3.57-3.33S114,110,113.7,113.91c-.25,3.8-1.91,7.55-4.75,7.45s-9.79-3.12-9.79-3.12l.24-2.46,8.48.63S107.75,110.47,108.77,107Z" transform="translate(-35.61 -49.33)"/><rect class="cls-10" x="88.15" y="118.37" width="8.91" height="0.66" transform="translate(-41.44 -44.54) rotate(-2.87)"/><path class="cls-10" d="M102.44,96.87S103.91,98.43,104,99s.05,2.13-.41,2.32a9.93,9.93,0,0,1-1.39.35l.85.07s1.75,0,1.84-.24.81-1.32.5-2.09a11.44,11.44,0,0,0-.79-1.51l-1.93-1.66Z" transform="translate(-35.61 -49.33)"/><path class="cls-18" d="M241.94,190.44l-1.07-.14s.2-2.19-.25-2.49-.67-.29-.7,0c0,.5-.08,2.07-.12,2.89a13.93,13.93,0,0,0,0,1.74s.17.17.65,0a4.33,4.33,0,0,1,1.6,0Z" transform="translate(-35.61 -49.33)"/><path class="cls-8" d="M262.74,184.38c1.42-.41,2.91,1.09,2.83,2.88a2.42,2.42,0,0,1-1.9,2.44c-2.17.58-9.68,2.54-9.68,2.54l-11.9.69-.64-2.6,11.74-1.75,9.49-4.18Z" transform="translate(-35.61 -49.33)"/><path class="cls-17" d="M277,205c.06.28,5.54,20.14,5.54,20.14l14.32,12.67-2.52,2.34-15.62-11-9.33-17.91Z" transform="translate(-35.61 -49.33)"/><path class="cls-18" d="M242.19,182.74l-1.06-.15s.2-2.19-.25-2.49-.68-.29-.71,0c0,.5-.07,2.07-.11,2.89a12,12,0,0,0,.05,1.74s.17.18.64,0a4.27,4.27,0,0,1,1.6,0Z" transform="translate(-35.61 -49.33)"/><polygon class="cls-18" points="223.06 131.31 224.63 131.73 226.3 130.34 225.59 128.53 223.13 131.3 223.06 131.31"/><path class="cls-10" d="M253.25,174.59a5.14,5.14,0,0,0-.77-.41,3.86,3.86,0,0,1-1.55-1.45c-.08-.13-.11-.36,0-.38l.1,0a1.8,1.8,0,0,0,1.65-.54c.44-.41.92-.48,1.28-1a4.15,4.15,0,0,1,3.69-1.48,5,5,0,0,1,2,.23,3.46,3.46,0,0,1,2.29,2.16,4.84,4.84,0,0,1,.22,1.07c.08.68.16,1.36.25,2a6.17,6.17,0,0,1,0,1.82c-.09.52.29.7.07,1.19a1.61,1.61,0,0,1-2.05,1.09,4.37,4.37,0,0,1-2.22-.66c-.73-.54-1.1-1.44-1.75-2.07s-1.07,0-1.74-.34c-.15-.07-.34-.5-.5-.46s-.4-.21-.63-.32S253.41,174.7,253.25,174.59Z" transform="translate(-35.61 -49.33)"/><path class="cls-18" d="M260.39,178.36a3.57,3.57,0,0,0-.45-.67,3.59,3.59,0,0,1-.63-1.52c-.06-.39-.06-.79-.13-1.18a1.64,1.64,0,0,0-.53-1,.85.85,0,0,0-1.09,0,1.05,1.05,0,0,0-.12,1.17,9.88,9.88,0,0,1,.54,1.14,15.2,15.2,0,0,1-1.39-1.39h0c-.07.06-.18.17-.32.28l0,0a1.43,1.43,0,0,1-.54.29,7.13,7.13,0,0,1-1.64-.35.23.23,0,0,0-.23.07,1.6,1.6,0,0,0,0,.7,3.7,3.7,0,0,0,.7,1.08l.6,1.88a.87.87,0,0,0,.19.37c.18.18.46.17.7.25.76.26,1,1.39,1.79,1.54.56.11,1.05-.35,1.44-.78l1.19-1.3C260.56,178.71,260.5,178.61,260.39,178.36Z" transform="translate(-35.61 -49.33)"/><path class="cls-19" d="M275.31,242.57l1.07,1.32c.12-.11,1.76-1.43,1.76-1.43l-1.07-1.31Z" transform="translate(-35.61 -49.33)"/><path class="cls-10" d="M275.67,243.67s-2.34,5-2.39,5-.18.24-.35.44a.86.86,0,0,0,0,1.07,1,1,0,0,0,.18.2c.09,0,7.44-5.81,7.44-5.81s-1.69-2.51-2.15-2.3S276.81,243.89,275.67,243.67Z" transform="translate(-35.61 -49.33)"/><polygon class="cls-7" points="238.72 197.17 239.56 197.53 239.42 197.85 238.57 197.49 238.72 197.17"/><polygon class="cls-7" points="238.46 197.72 239.26 198.06 239.12 198.38 238.31 198.04 238.46 197.72"/><polygon class="cls-7" points="238.21 198.25 238.98 198.57 238.85 198.89 238.06 198.56 238.21 198.25"/><path class="cls-19" d="M294.47,239.73l1.06,1.31c.12-.11,1.76-1.42,1.76-1.42l-1.06-1.32Z" transform="translate(-35.61 -49.33)"/><path class="cls-10" d="M294.83,240.82s-2.34,5-2.4,5.05-.18.23-.34.44a.85.85,0,0,0,0,1.07c.08.1.15.19.18.19s7.44-5.81,7.44-5.81-1.69-2.51-2.15-2.3S296,241,294.83,240.82Z" transform="translate(-35.61 -49.33)"/><polygon class="cls-7" points="257.87 194.32 258.71 194.68 258.58 195 257.73 194.64 257.87 194.32"/><polygon class="cls-7" points="257.61 194.88 258.42 195.22 258.28 195.54 257.47 195.19 257.61 194.88"/><polygon class="cls-7" points="257.37 195.4 258.14 195.73 258.01 196.04 257.22 195.71 257.37 195.4"/><path class="cls-17" d="M276.63,203.73s2.51,4.58-1.05,7.79-10.92,14.17-10.92,14.17l13.62,15.36-3.47,2L257.45,226.9l8.33-20.31Z" transform="translate(-35.61 -49.33)"/><path class="cls-8" d="M267.46,183.11c-2.06-2.92-3.91-3.65-5.55-4a7.66,7.66,0,0,1-1.88,2,5.37,5.37,0,0,1-.92.53,15,15,0,0,0-.44,4.81c.28,2.27,6.82,20.37,6.82,20.37l11.84-3.13S270.16,186.92,267.46,183.11Z" transform="translate(-35.61 -49.33)"/><path class="cls-8" d="M264.28,182.06c1.48-.06,2.56,1.75,2.06,3.47a2.42,2.42,0,0,1-2.42,1.91l-10,.15-11.71-2.18v-2.67l11.82,1.1,10.21-1.78Z" transform="translate(-35.61 -49.33)"/></svg>