<svg xmlns="http://www.w3.org/2000/svg" xmlns:xlink="http://www.w3.org/1999/xlink" viewBox="0 0 2854.89 2963.68"><defs><style>.cls-1{fill:url(#linear-gradient);}.cls-2{fill:url(#linear-gradient-2);}.cls-3{isolation:isolate;}.cls-4{fill:#f4f7fa;}.cls-5{clip-path:url(#clip-path);}.cls-6{opacity:0.7;}.cls-12,.cls-13,.cls-14,.cls-17,.cls-19,.cls-6{mix-blend-mode:soft-light;}.cls-13,.cls-14,.cls-17,.cls-20,.cls-7{fill:#fff;}.cls-8{clip-path:url(#clip-path-2);}.cls-9{fill:#fcfdfe;}.cls-10{fill:#bfc8d6;}.cls-11{fill:#d8dee8;}.cls-14{opacity:0.48;}.cls-15{fill:url(#linear-gradient-5);}.cls-16{fill:url(#linear-gradient-6);}.cls-17{opacity:0.74;}.cls-18{fill:url(#linear-gradient-7);}.cls-19,.cls-20{opacity:0.5;}.cls-21{fill:url(#linear-gradient-8);}.cls-22{fill:url(#linear-gradient-9);}.cls-23,.cls-34,.cls-44{opacity:0.3;}.cls-23,.cls-26,.cls-34,.cls-44{mix-blend-mode:multiply;}.cls-23{fill:url(#linear-gradient-10);}.cls-24{fill:url(#linear-gradient-11);}.cls-25{fill:url(#linear-gradient-12);}.cls-26{opacity:0.2;fill:url(#linear-gradient-13);}.cls-27{fill:url(#linear-gradient-14);}.cls-28{fill:url(#linear-gradient-15);}.cls-29{fill:url(#linear-gradient-16);}.cls-30{fill:url(#linear-gradient-17);}.cls-31{fill:url(#linear-gradient-18);}.cls-32{fill:url(#linear-gradient-19);}.cls-33{fill:url(#linear-gradient-20);}.cls-34{fill:url(#linear-gradient-21);}.cls-35{fill:url(#linear-gradient-22);}.cls-36{fill:url(#linear-gradient-23);}.cls-37{fill:url(#linear-gradient-24);}.cls-38{fill:url(#linear-gradient-25);}.cls-39{fill:url(#linear-gradient-26);}.cls-40{fill:url(#linear-gradient-27);}.cls-41{fill:url(#linear-gradient-28);}.cls-42{fill:url(#linear-gradient-29);}.cls-43{fill:url(#linear-gradient-30);}.cls-44{fill:url(#linear-gradient-31);}.cls-45{fill:url(#linear-gradient-32);}.cls-46{fill:url(#linear-gradient-33);}</style><linearGradient id="linear-gradient" x1="1451.54" y1="1087.38" x2="1391.61" y2="2521.99" gradientUnits="userSpaceOnUse"><stop offset="0" stop-color="#ffc444"/><stop offset="0.59" stop-color="#f8924f"/><stop offset="1" stop-color="#f36f56"/></linearGradient><linearGradient id="linear-gradient-2" x1="1102.95" y1="2850.22" x2="1289.86" y2="1249.63" gradientUnits="userSpaceOnUse"><stop offset="0" stop-color="#aa80f9"/><stop offset="1" stop-color="#6165d7"/></linearGradient><clipPath id="clip-path" transform="translate(-411.46 -291.32)"><path class="cls-1" d="M1704.59,2525.65c102.52-72.39,120.85-262,95.75-389.29-29.31-148.59-106.06-152.53-119.86-269.86-25.69-218.45,229.82-294.39,221.38-516.75-6.9-181.77-180.28-200-178.76-401.64,1.1-145.51,91.9-206,51.12-332.92-3.49-10.86-42.77-127.37-142.28-154.6-100.44-27.49-203.49,52.06-254.45,116.13-94.2,118.44-24.47,201.68-84.62,383.06-81.89,246.94-259.62,238.82-282.33,433.11-18.76,160.44,98.1,203,73.77,380.47-22.59,164.8-131.57,188-136.15,300.34C937.63,2332.12,1495.49,2673.3,1704.59,2525.65Z"/></clipPath><clipPath id="clip-path-2" transform="translate(-411.46 -291.32)"><path class="cls-2" d="M1539.79,3150.62c26.28.77,84.14-20.73,96.91-32.55,85-78.69,253.7-215.66,265.79-337.51,2.07-20.8-87-54.6-96.92-75.58-51.57-35.33-71.66-44.39-104.18-102.06-96-170.28,223-410.57-79.77-561-221.75-110.21-431.66-61.17-348.91-419.48S1173.18,558.2,750.41,750.06C507.78,860.18,681.65,1203.73,532.52,1413c-141.7,198.87-78.44,391.22,130.35,557.31s70.4,246.23-28.92,440.84c-119.31,233.77,252.95,337.78,428.91,371.13C1204.55,2809.14,1547.24,2973.13,1539.79,3150.62Z"/></clipPath><linearGradient id="linear-gradient-5" x1="581.07" y1="2985.12" x2="3224.29" y2="2985.12" gradientUnits="userSpaceOnUse"><stop offset="0.49" stop-color="#ebeff2"/><stop offset="1" stop-color="#fff"/></linearGradient><linearGradient id="linear-gradient-6" x1="2153.8" y1="761.61" x2="495.97" y2="4077.27" gradientUnits="userSpaceOnUse"><stop offset="0" stop-color="#e38ddd"/><stop offset="1" stop-color="#9571f6"/></linearGradient><linearGradient id="linear-gradient-7" x1="1228.37" y1="-193.94" x2="1514.38" y2="950.11" xlink:href="#linear-gradient-6"/><linearGradient id="linear-gradient-8" x1="1733.5" y1="1610.25" x2="1269.37" y2="2586.76" gradientUnits="userSpaceOnUse"><stop offset="0" stop-color="#444b8c"/><stop offset="1" stop-color="#26264f"/></linearGradient><linearGradient id="linear-gradient-9" x1="1060.03" y1="2997.67" x2="1907.4" y2="2997.67" gradientUnits="userSpaceOnUse"><stop offset="0" stop-color="#ffc444"/><stop offset="1" stop-color="#f36f56"/></linearGradient><linearGradient id="linear-gradient-10" x1="1692.9" y1="2872.41" x2="1549.69" y2="3267.16" xlink:href="#linear-gradient"/><linearGradient id="linear-gradient-11" x1="1544.94" y1="2816.09" x2="1393.23" y2="3234.25" xlink:href="#linear-gradient"/><linearGradient id="linear-gradient-12" x1="1486.78" y1="2188.05" x2="1455.95" y2="3192.17" xlink:href="#linear-gradient-9"/><linearGradient id="linear-gradient-13" x1="1216.89" y1="2693.72" x2="1540.5" y2="2693.72" xlink:href="#linear-gradient-9"/><linearGradient id="linear-gradient-14" x1="4049.92" y1="1935.75" x2="4043.09" y2="2076.45" gradientTransform="translate(-1183.76)" xlink:href="#linear-gradient-9"/><linearGradient id="linear-gradient-15" x1="3610.81" y1="3210.22" x2="3659.33" y2="3210.22" gradientTransform="translate(-1183.76)" xlink:href="#linear-gradient-9"/><linearGradient id="linear-gradient-16" x1="3552.21" y1="3223.96" x2="3638.39" y2="3223.96" gradientTransform="translate(-1183.76)" xlink:href="#linear-gradient-8"/><linearGradient id="linear-gradient-17" x1="3607.34" y1="3192.58" x2="3597.8" y2="3214.62" gradientTransform="translate(-1183.76)" xlink:href="#linear-gradient-8"/><linearGradient id="linear-gradient-18" x1="96.13" y1="1197.26" x2="931.49" y2="2614.21" gradientTransform="matrix(-1, 0.01, 0.01, 1, 3079.35, -154.81)" gradientUnits="userSpaceOnUse"><stop offset="0" stop-color="#311944"/><stop offset="1" stop-color="#893976"/></linearGradient><linearGradient id="linear-gradient-19" x1="82.7" y1="1205.53" x2="905.05" y2="2600.4" gradientTransform="matrix(-1, 0.01, 0.01, 1, 3079.35, -154.81)" gradientUnits="userSpaceOnUse"><stop offset="0" stop-color="#ff9085"/><stop offset="1" stop-color="#fb6fbb"/></linearGradient><linearGradient id="linear-gradient-20" x1="3834.36" y1="2720.21" x2="3570.65" y2="3177.83" gradientTransform="translate(-1183.76)" xlink:href="#linear-gradient-18"/><linearGradient id="linear-gradient-21" x1="3864.8" y1="2737.75" x2="3601.09" y2="3195.37" gradientTransform="translate(-1183.76)" xlink:href="#linear-gradient-18"/><linearGradient id="linear-gradient-22" x1="4318.58" y1="3123.12" x2="4358.46" y2="3123.12" gradientTransform="translate(-1183.76)" xlink:href="#linear-gradient-8"/><linearGradient id="linear-gradient-23" x1="4163.43" y1="2621.16" x2="3987.26" y2="3016.72" gradientTransform="translate(-1183.76)" xlink:href="#linear-gradient-18"/><linearGradient id="linear-gradient-24" x1="3536.7" y1="1911.21" x2="3530.06" y2="2048.33" gradientTransform="translate(-1183.76)" xlink:href="#linear-gradient-9"/><linearGradient id="linear-gradient-25" x1="3610.47" y1="2142.85" x2="3798.83" y2="2670.28" gradientTransform="translate(-1183.76)" xlink:href="#linear-gradient-2"/><linearGradient id="linear-gradient-26" x1="3795.2" y1="2076.88" x2="3983.57" y2="2604.3" gradientTransform="translate(-1183.76)" xlink:href="#linear-gradient-2"/><linearGradient id="linear-gradient-27" x1="4049.72" y1="1985.98" x2="4238.09" y2="2513.4" gradientTransform="translate(-1183.76)" xlink:href="#linear-gradient-2"/><linearGradient id="linear-gradient-28" x1="2718.9" y1="-549.16" x2="2724.98" y2="-711.21" gradientTransform="matrix(-0.97, 0.23, 0.23, 0.97, 5476.68, 2168.91)" xlink:href="#linear-gradient-9"/><linearGradient id="linear-gradient-29" x1="1180.11" y1="-982.78" x2="1145.27" y2="-1071.26" gradientTransform="matrix(0.94, 0.34, -0.34, 0.94, 1243.79, 2738.32)" gradientUnits="userSpaceOnUse"><stop offset="0" stop-color="#311944"/><stop offset="1" stop-color="#6b3976"/></linearGradient><linearGradient id="linear-gradient-30" x1="423.68" y1="-1073.17" x2="422.13" y2="-947.58" gradientTransform="matrix(-0.92, -0.39, -0.39, 0.92, 2646.48, 3292.23)" xlink:href="#linear-gradient-9"/><linearGradient id="linear-gradient-31" x1="3587.85" y1="1758.41" x2="3876.53" y2="2566.72" gradientTransform="translate(-1183.76)" xlink:href="#linear-gradient-2"/><linearGradient id="linear-gradient-32" x1="610.31" y1="772.76" x2="1240.23" y2="1841.22" xlink:href="#linear-gradient-18"/><linearGradient id="linear-gradient-33" x1="600.19" y1="779" x2="1220.29" y2="1830.81" xlink:href="#linear-gradient-19"/></defs><title>interactive-elem</title><g class="cls-3"><g id="Illustration"><path class="cls-4" d="M1885.22,455.64c-729.84-21.56-1362,508-1457.54,1202.87C323.25,2418.24,898,3101.82,1605.25,3211.31c879.68,136.18,1732.91-651.65,1656.3-1506.32C3203.83,1061.07,2627.12,477.54,1885.22,455.64Z" transform="translate(-411.46 -291.32)"/><path class="cls-1" d="M1704.59,2525.65c102.52-72.39,120.85-262,95.75-389.29-29.31-148.59-106.06-152.53-119.86-269.86-25.69-218.45,229.82-294.39,221.38-516.75-6.9-181.77-180.28-200-178.76-401.64,1.1-145.51,91.9-206,51.12-332.92-3.49-10.86-42.77-127.37-142.28-154.6-100.44-27.49-203.49,52.06-254.45,116.13-94.2,118.44-24.47,201.68-84.62,383.06-81.89,246.94-259.62,238.82-282.33,433.11-18.76,160.44,98.1,203,73.77,380.47-22.59,164.8-131.57,188-136.15,300.34C937.63,2332.12,1495.49,2673.3,1704.59,2525.65Z" transform="translate(-411.46 -291.32)"/><g class="cls-5"><g class="cls-6"><path class="cls-7" d="M1556.76,2647a3.49,3.49,0,0,1-1.78-.49c-96.23-56.52-176.42-130.7-238.33-220.47-58.72-85.15-119.44-173.19-114.54-283.3,3.73-83.78,42.71-128.54,92.06-185.2,47.06-54,105.62-121.26,146.59-245.79,23.39-71.08,52.49-159.54,30-265.44-13-61.47-37.07-96.25-58.29-126.94-22.23-32.13-41.42-59.89-37.75-107.51,5.87-76.28,46.61-125,93.78-181.4,28.61-34.21,58.19-69.58,84.13-115.52,72.92-129.15,74.86-303,5.75-516.77a3.53,3.53,0,0,1,6.71-2.17c69.73,215.71,67.61,391.47-6.32,522.4-26.26,46.51-56,82.13-84.86,116.58-46.4,55.48-86.46,103.39-92.16,177.42-3.48,45.13,14.17,70.65,36.51,103,21.6,31.24,46.08,66.64,59.4,129.49,22.83,107.76-6.6,197.22-30.26,269.1-41.41,125.88-100.49,193.72-148,248.22-48.45,55.62-86.72,99.56-90.34,180.88-4.79,107.75,55.24,194.79,113.3,279,61.33,88.93,140.76,162.41,236.09,218.4a3.53,3.53,0,0,1-1.78,6.57Z" transform="translate(-411.46 -291.32)"/></g><g class="cls-6"><path class="cls-7" d="M1481.44,1500.22a3.52,3.52,0,0,1-2.35-6.15c163.07-145.7,239.68-280.88,275.24-368.62,38.51-95,38.49-156.41,38.49-157a3.53,3.53,0,0,1,3.49-3.55h0a3.53,3.53,0,0,1,3.53,3.49c0,2.53.09,63.06-38.82,159.27-35.81,88.54-113,224.9-277.26,371.69A3.5,3.5,0,0,1,1481.44,1500.22Z" transform="translate(-411.46 -291.32)"/></g><g class="cls-6"><path class="cls-7" d="M1403,1815.26a3.51,3.51,0,0,1-2.23-.8c-91-74.37-160.23-158.72-205.7-250.72a623.47,623.47,0,0,1-63.45-233.82c-9.72-138.79,30-239.15,30.37-240.15a3.52,3.52,0,0,1,6.54,2.63c-.4,1-39.54,100.11-29.86,237.36,8.93,126.57,62.42,312.45,266.56,479.24a3.53,3.53,0,0,1-2.23,6.26Z" transform="translate(-411.46 -291.32)"/></g><g class="cls-6"><path class="cls-7" d="M1254,2335.75a3.53,3.53,0,0,1-1-6.91c240.44-70.54,365.82-198.71,428.66-293.82,68-102.89,79.38-190,79.48-190.88a3.53,3.53,0,1,1,7,.86c-.11.88-11.7,89.66-80.59,193.91-63.5,96.08-190.08,225.55-432.56,296.69A3.52,3.52,0,0,1,1254,2335.75Z" transform="translate(-411.46 -291.32)"/></g><g class="cls-6"><path class="cls-7" d="M1563.8,895.77a3.54,3.54,0,0,1-2.6-1.14c-137.52-149.12-154.26-304.72-144.1-409,11-112.94,55.2-191.76,55.64-192.54a3.52,3.52,0,0,1,6.13,3.48c-.43.78-44,78.51-54.78,190-10,102.76,6.64,256.13,142.3,403.23a3.53,3.53,0,0,1-.21,5A3.47,3.47,0,0,1,1563.8,895.77Z" transform="translate(-411.46 -291.32)"/></g></g><path class="cls-2" d="M1539.79,3150.62c26.28.77,84.14-20.73,96.91-32.55,85-78.69,253.7-215.66,265.79-337.51,2.07-20.8-87-54.6-96.92-75.58-51.57-35.33-71.66-44.39-104.18-102.06-96-170.28,223-410.57-79.77-561-221.75-110.21-431.66-61.17-348.91-419.48S1173.18,558.2,750.41,750.06C507.78,860.18,681.65,1203.73,532.52,1413c-141.7,198.87-78.44,391.22,130.35,557.31s70.4,246.23-28.92,440.84c-119.31,233.77,252.95,337.78,428.91,371.13C1204.55,2809.14,1547.24,2973.13,1539.79,3150.62Z" transform="translate(-411.46 -291.32)"/><g class="cls-8"><g class="cls-6"><path class="cls-9" d="M1764.72,2959.2l3.21-4.57C1062.58,2460.36,726.92,1601.16,870,656.29l-5.53-.84c-67.82,447.8-26,893.3,120.92,1288.32C1139.9,2359.07,1409.37,2710.2,1764.72,2959.2Z" transform="translate(-411.46 -291.32)"/><path class="cls-9" d="M573.21,2502.63c232.6-37.36,602.65,19.48,824.92,126.71l2.42-5c-223.13-107.65-594.67-164.71-828.22-127.2Z" transform="translate(-411.46 -291.32)"/><path class="cls-9" d="M1627.37,2860.59l4.35-3.51c-80.53-99.84-107.5-236.57-80.14-406.37,20.05-124.5,68.31-263.56,143.42-413.32l-5-2.51c-75.37,150.27-123.8,289.88-143.94,414.94C1518.44,2621.26,1545.8,2759.46,1627.37,2860.59Z" transform="translate(-411.46 -291.32)"/><path class="cls-9" d="M966.75,1886.89l4.52-3.28c-142.12-196-382.25-280.59-558.68-317l-1.13,5.48C586.92,1608.29,825.68,1692.34,966.75,1886.89Z" transform="translate(-411.46 -291.32)"/><path class="cls-9" d="M846.11,1346l5.57.47c23.26-271.75,215.51-483.91,328-586.18l-3.76-4.14C1062.82,858.94,869.53,1072.3,846.11,1346Z" transform="translate(-411.46 -291.32)"/></g></g><path class="cls-10" d="M3224.29,2965.62,581.07,2942.77v67.61c0,18.34,11.53,33.95,27.14,36.73l747.43,133.12a103.49,103.49,0,0,0,26.82,1.25L3195.57,3029.7c16.19-1.36,28.72-17,28.72-35.86Z" transform="translate(-411.46 -291.32)"/><path class="cls-10" d="M2251.58,2857.29,571.6,2981c-30.06,2.21-54.5-21.31-54.5-52.53v-1251c0-31.23,24.44-56.54,54.5-56.54L631,1655.11l1620.54-34.25c24.77,0,44.8,22.88,44.8,51.11V2802.88C2296.38,2831.11,2276.35,2855.46,2251.58,2857.29Z" transform="translate(-411.46 -291.32)"/><path class="cls-7" d="M2278.37,2857.29,598.39,2981c-30.06,2.21-54.5-21.31-54.5-52.53v-1251c0-31.23,24.44-56.54,54.5-56.54h1680c24.77,0,44.79,22.88,44.79,51.11V2802.88C2323.16,2831.11,2303.14,2855.46,2278.37,2857.29Z" transform="translate(-411.46 -291.32)"/><path class="cls-11" d="M2226,2777.56,661.31,2885c-24.46,1.68-44.35-17.62-44.35-43.11V1746.58c0-25.49,19.89-46.24,44.35-46.34L2226,1693.49c20.43-.09,36.95,18.66,36.95,41.88V2733C2263,2756.2,2246.47,2776.15,2226,2777.56Z" transform="translate(-411.46 -291.32)"/><g class="cls-12"><polygon class="cls-13" points="804.8 1511.71 382.52 1512.81 382.46 1472.55 804.74 1472.69 804.8 1511.71"/><polygon class="cls-13" points="1003.65 1500.05 906.1 1500.23 906.06 1472.72 1003.61 1472.75 1003.65 1500.05"/><polygon class="cls-13" points="1003.71 1537.99 906.16 1538.44 906.12 1510.94 1003.67 1510.69 1003.71 1537.99"/><polygon class="cls-7" points="1489.85 1535.73 1111.39 1537.49 1111.35 1510.41 1489.81 1509.44 1489.85 1535.73"/><polygon class="cls-7" points="1551.96 1571.8 1177.28 1574.62 1177.23 1547.68 1551.92 1545.63 1551.96 1571.8"/><polygon class="cls-7" points="1552.02 1608.15 1177.33 1612.05 1177.29 1585.11 1551.98 1581.98 1552.02 1608.15"/><polygon class="cls-13" points="1552.08 1644.5 1177.39 1649.49 1177.35 1622.55 1552.04 1618.33 1552.08 1644.5"/><polygon class="cls-13" points="1003.77 1575.93 906.22 1576.66 906.18 1549.15 1003.73 1548.62 1003.77 1575.93"/><polygon class="cls-13" points="1003.83 1613.86 906.28 1614.88 906.24 1587.37 1003.79 1586.56 1003.83 1613.86"/><polygon class="cls-13" points="1003.89 1651.8 906.34 1653.1 906.3 1625.59 1003.85 1624.5 1003.89 1651.8"/><polygon class="cls-13" points="1003.95 1689.74 906.4 1691.32 906.36 1663.81 1003.9 1662.43 1003.95 1689.74"/><polygon class="cls-13" points="1265.35 1685.5 1025.23 1689.39 1025.19 1662.13 1265.3 1658.74 1265.35 1685.5"/><polygon class="cls-13" points="1004 1727.67 906.46 1729.54 906.41 1702.03 1003.96 1700.37 1004 1727.67"/><polygon class="cls-13" points="1004.06 1765.61 906.51 1767.76 906.47 1740.25 1004.02 1738.31 1004.06 1765.61"/><polygon class="cls-13" points="1004.12 1803.55 906.58 1805.97 906.53 1778.47 1004.08 1776.24 1004.12 1803.55"/><polygon class="cls-7" points="1377.9 1720.53 1111.68 1725.62 1111.64 1698.54 1377.86 1694 1377.9 1720.53"/><polygon class="cls-13" points="1516.26 1754.34 1177.56 1761.79 1177.52 1734.85 1516.22 1728.11 1516.26 1754.34"/><polygon class="cls-13" points="1516.32 1790.8 1177.62 1799.23 1177.58 1772.29 1516.28 1764.56 1516.32 1790.8"/><polygon class="cls-13" points="1004.18 1841.48 906.63 1844.19 906.59 1816.68 1004.14 1814.18 1004.18 1841.48"/><polygon class="cls-13" points="1004.24 1879.42 906.69 1882.41 906.65 1854.9 1004.2 1852.12 1004.24 1879.42"/><polygon class="cls-13" points="1004.3 1917.36 906.75 1920.63 906.71 1893.12 1004.26 1890.05 1004.3 1917.36"/><polygon class="cls-13" points="1004.36 1955.29 906.81 1958.85 906.77 1931.34 1004.31 1927.99 1004.36 1955.29"/><polygon class="cls-13" points="1004.41 1993.23 906.87 1997.07 906.83 1969.56 1004.37 1965.92 1004.41 1993.23"/><polygon class="cls-13" points="1004.47 2031.16 906.93 2035.28 906.89 2007.78 1004.43 2003.86 1004.47 2031.16"/><polygon class="cls-13" points="1004.53 2069.1 906.99 2073.5 906.95 2046 1004.49 2041.8 1004.53 2069.1"/><polygon class="cls-13" points="1004.59 2107.04 907.05 2111.72 907 2084.21 1004.55 2079.73 1004.59 2107.04"/><polygon class="cls-13" points="1004.65 2144.97 907.11 2149.94 907.06 2122.43 1004.61 2117.67 1004.65 2144.97"/><polygon class="cls-13" points="1004.71 2182.91 907.16 2188.16 907.12 2160.65 1004.67 2155.61 1004.71 2182.91"/><polygon class="cls-13" points="1004.77 2220.85 907.22 2226.38 907.18 2198.87 1004.73 2193.54 1004.77 2220.85"/><polygon class="cls-13" points="1004.83 2258.78 907.28 2264.59 907.24 2237.09 1004.78 2231.48 1004.83 2258.78"/><polygon class="cls-13" points="1004.88 2296.72 907.34 2302.81 907.3 2275.31 1004.84 2269.42 1004.88 2296.72"/><polygon class="cls-13" points="1004.94 2334.66 907.4 2341.03 907.36 2313.53 1004.9 2307.35 1004.94 2334.66"/><polygon class="cls-13" points="1005 2372.59 907.46 2379.25 907.42 2351.74 1004.96 2345.29 1005 2372.59"/><polygon class="cls-13" points="1005.06 2410.53 907.52 2417.47 907.48 2389.96 1005.02 2383.22 1005.06 2410.53"/><polygon class="cls-13" points="1005.12 2448.47 907.58 2455.69 907.54 2428.18 1005.08 2421.16 1005.12 2448.47"/><polygon class="cls-13" points="1005.18 2486.4 907.64 2493.91 907.6 2466.4 1005.13 2459.1 1005.18 2486.4"/><polygon class="cls-7" points="1290.33 1499.55 1024.28 1500.02 1024.24 1472.76 1290.28 1472.84 1290.33 1499.55"/><polygon class="cls-13" points="1490.98 2266.35 1112.56 2289.99 1112.52 2262.91 1490.94 2240.06 1490.98 2266.35"/><polygon class="cls-7" points="1553.09 2298.83 1178.43 2323.32 1178.39 2296.37 1553.05 2272.66 1553.09 2298.83"/><polygon class="cls-7" points="1553.14 2335.18 1178.49 2360.75 1178.45 2333.81 1553.1 2309.01 1553.14 2335.18"/><polygon class="cls-7" points="1714.65 2360.04 1349.69 2386.01 1349.65 2359.42 1714.61 2334.21 1714.65 2360.04"/><polygon class="cls-13" points="1714.7 2395.93 1349.75 2422.95 1349.71 2396.36 1714.66 2370.1 1714.7 2395.93"/><polygon class="cls-13" points="1714.76 2431.81 1349.81 2459.89 1349.77 2433.3 1714.72 2405.98 1714.76 2431.81"/><polygon class="cls-7" points="1291.47 2241.7 1025.45 2257.55 1025.41 2230.29 1291.43 2215 1291.47 2241.7"/><polygon class="cls-7" points="1490.36 1864.51 1111.92 1876.12 1111.88 1849.04 1490.32 1838.22 1490.36 1864.51"/><polygon class="cls-13" points="1552.47 1898.96 1177.8 1911.53 1177.75 1884.59 1552.43 1872.8 1552.47 1898.96"/><polygon class="cls-7" points="1552.53 1935.31 1177.85 1948.97 1177.81 1922.02 1552.48 1909.15 1552.53 1935.31"/><polygon class="cls-7" points="1552.58 1971.66 1177.91 1986.4 1177.87 1959.46 1552.54 1945.5 1552.58 1971.66"/><polygon class="cls-7" points="1265.86 2020.13 1025.76 2030.27 1025.72 2003.01 1265.82 1993.37 1265.86 2020.13"/><polygon class="cls-13" points="1378.41 2052.23 1112.21 2064.24 1112.17 2037.16 1378.37 2025.7 1378.41 2052.23"/><polygon class="cls-13" points="1516.77 2082.44 1178.09 2098.71 1178.04 2071.76 1516.72 2056.21 1516.77 2082.44"/><polygon class="cls-7" points="1516.82 2118.9 1178.14 2136.14 1178.1 2109.2 1516.78 2092.66 1516.82 2118.9"/><polygon class="cls-7" points="1591.96 2151.32 1257.36 2169.32 1257.32 2142.54 1591.92 2125.23 1591.96 2151.32"/><polygon class="cls-7" points="1592.02 2187.55 1257.41 2206.52 1257.37 2179.74 1591.98 2161.47 1592.02 2187.55"/><polygon class="cls-7" points="1290.84 1833.52 1024.81 1840.91 1024.76 1813.65 1290.8 1806.81 1290.84 1833.52"/><polygon class="cls-13" points="804.9 1572.69 563.19 1574.42 563.13 1534.69 804.84 1533.66 804.9 1572.69"/><polygon class="cls-13" points="500.68 1574.87 546.2 1574.55 546.14 1534.76 500.62 1534.96 500.68 1574.87"/><polygon class="cls-13" points="804.98 1628.79 563.28 1631.54 563.22 1591.81 804.92 1589.76 804.98 1628.79"/><polygon class="cls-13" points="500.77 1632.25 546.29 1631.73 546.23 1591.95 500.7 1592.34 500.77 1632.25"/><polygon class="cls-13" points="805.07 1684.88 563.37 1688.65 563.31 1648.92 805.01 1645.86 805.07 1684.88"/><polygon class="cls-13" points="500.85 1689.63 546.38 1688.92 546.32 1649.14 500.79 1649.71 500.85 1689.63"/><polygon class="cls-13" points="805.69 2083.08 383.43 2102.3 383.37 2062.03 805.63 2044.06 805.69 2083.08"/><polygon class="cls-13" points="805.78 2144.06 564.09 2156.16 564.03 2116.43 805.72 2105.03 805.78 2144.06"/><polygon class="cls-13" points="501.58 2159.29 547.1 2157.01 547.04 2117.23 501.52 2119.38 501.58 2159.29"/><polygon class="cls-13" points="805.87 2200.16 564.18 2213.28 564.12 2173.55 805.81 2161.13 805.87 2200.16"/><polygon class="cls-13" points="501.67 2216.67 547.19 2214.2 547.13 2174.42 501.61 2176.76 501.67 2216.67"/><polygon class="cls-13" points="805.95 2256.26 564.27 2270.4 564.21 2230.66 805.89 2217.23 805.95 2256.26"/><polygon class="cls-13" points="501.76 2274.05 547.28 2271.39 547.22 2231.61 501.7 2234.14 501.76 2274.05"/><polygon class="cls-13" points="805.16 1741.36 382.89 1749.74 382.82 1709.48 805.1 1702.34 805.16 1741.36"/><polygon class="cls-13" points="805.25 1802.34 563.55 1808.24 563.49 1768.51 805.19 1763.31 805.25 1802.34"/><polygon class="cls-13" points="501.04 1809.77 546.56 1808.66 546.5 1768.87 500.98 1769.85 501.04 1809.77"/><polygon class="cls-13" points="805.34 1858.44 563.64 1865.36 563.58 1825.63 805.28 1819.41 805.34 1858.44"/><polygon class="cls-13" points="501.13 1867.15 546.65 1865.84 546.59 1826.06 501.07 1827.23 501.13 1867.15"/><polygon class="cls-13" points="805.51 1971.36 563.82 1980.33 563.76 1940.6 805.45 1932.34 805.51 1971.36"/><polygon class="cls-13" points="501.31 1982.65 546.83 1980.96 546.77 1941.18 501.25 1942.74 501.31 1982.65"/><polygon class="cls-13" points="805.6 2027.46 563.91 2037.45 563.85 1997.71 805.54 1988.43 805.6 2027.46"/><polygon class="cls-13" points="501.4 2040.03 546.92 2038.15 546.86 1998.37 501.33 2000.12 501.4 2040.03"/><polygon class="cls-13" points="805.43 1914.54 563.73 1922.47 563.67 1882.74 805.37 1875.51 805.43 1914.54"/><polygon class="cls-13" points="501.22 1924.53 546.74 1923.03 546.68 1883.25 501.16 1884.61 501.22 1924.53"/><polygon class="cls-13" points="806.04 2312.34 383.8 2338.82 383.74 2298.55 805.98 2273.31 806.04 2312.34"/><polygon class="cls-13" points="806.13 2373.31 564.45 2389.57 564.39 2349.84 806.08 2334.29 806.13 2373.31"/><polygon class="cls-13" points="501.94 2393.78 547.46 2390.72 547.4 2350.94 501.88 2353.87 501.94 2393.78"/><polygon class="cls-13" points="806.22 2429.41 564.54 2446.69 564.48 2406.96 806.16 2390.39 806.22 2429.41"/><polygon class="cls-13" points="502.03 2451.16 547.55 2447.91 547.49 2408.12 501.97 2411.24 502.03 2451.16"/><polygon class="cls-13" points="806.31 2485.51 564.63 2503.81 564.57 2464.07 806.25 2446.48 806.31 2485.51"/><polygon class="cls-13" points="502.12 2508.54 547.64 2505.09 547.58 2465.31 502.06 2468.63 502.12 2508.54"/><polygon class="cls-13" points="857.62 2481.82 848.32 2482.52 846.76 1472.7 856.06 1472.7 857.62 2481.82"/></g><path class="cls-7" d="M1497.71,1655.07c0,11.63-8.64,21.08-19.32,21.11s-19.37-9.38-19.37-21,8.68-21.1,19.37-21.11S1497.71,1643.45,1497.71,1655.07Z" transform="translate(-411.46 -291.32)"/><path class="cls-14" d="M598.39,2981l1671.48-123.05,8.5-.62c11.37-.84,21.7-6.46,29.59-15-120.28-6.58-195-49.27-243.18-93.37-96.78-88.57-80-175.92-184.36-234.16-130.18-72.63-232.53,19.41-331.32-71.41-59.88-55-30.48-96.11-104.17-178.38-81.62-91.13-134.76-60.5-216.78-142.51-103.71-103.7-51.84-184.38-141.18-258.84-108.38-90.32-225.26-6.72-328.42-93.34-44.5-37.36-68.92-91.68-81.67-149.45H598.39c-30.06,0-54.5,25.32-54.5,56.54v1251C543.89,2959.65,568.32,2983.17,598.39,2981Z" transform="translate(-411.46 -291.32)"/><path class="cls-15" d="M2357.53,2850.43,581.07,2980.6l774.57,138a103.49,103.49,0,0,0,26.82,1.25l1841.83-154.19-838.51-114.31A135.5,135.5,0,0,0,2357.53,2850.43Z" transform="translate(-411.46 -291.32)"/><polygon class="cls-11" points="428.82 2690.4 1907.77 2580.41 2365.5 2642.31 899.29 2759.89 428.82 2690.4"/><path class="cls-16" d="M2361.07,1153.62,831.73,1104.29c-52.24-1.68-94.81,38.78-94.81,90.39V2685.5c0,51.61,42.57,90.84,94.81,87.65l1529.34-93.5c43.44-2.65,78.48-42.67,78.48-89.38V1240.73C2439.55,1194,2404.51,1155,2361.07,1153.62Z" transform="translate(-411.46 -291.32)"/><path class="cls-17" d="M831.73,2743.47c-35.52,2.11-64.43-24.6-64.43-59.67V1195.5c0-35.07,28.91-62.61,64.43-61.53l1529.34,46.79c29.6.9,53.5,27.45,53.5,59.3V2591.67c0,31.84-23.9,59.08-53.49,60.84Z" transform="translate(-411.46 -291.32)"/><path class="cls-18" d="M2361.07,1153.62,831.73,1104.29c-52.24-1.68-94.81,38.78-94.81,90.39v67l1702.63,39.71v-60.68C2439.55,1194,2404.51,1155,2361.07,1153.62Z" transform="translate(-411.46 -291.32)"/><path class="cls-7" d="M905.34,1190.26a29.54,29.54,0,0,1-30.66,29.51c-17-.44-30.77-14.41-30.77-31.2a29.54,29.54,0,0,1,30.77-29.5C891.63,1159.57,905.34,1173.53,905.34,1190.26Z" transform="translate(-411.46 -291.32)"/><path class="cls-7" d="M1012.21,1193.21a29.28,29.28,0,0,1-30.3,29.33,31.29,31.29,0,0,1-30.4-31,29.28,29.28,0,0,1,30.4-29.33A31.29,31.29,0,0,1,1012.21,1193.21Z" transform="translate(-411.46 -291.32)"/><path class="cls-7" d="M1117.8,1196.12a29,29,0,0,1-29.94,29.16,31,31,0,0,1-30-30.81,29,29,0,0,1,30-29.16A31,31,0,0,1,1117.8,1196.12Z" transform="translate(-411.46 -291.32)"/><g class="cls-19"><path class="cls-7" d="M1773.05,1720.24c-178.27-256.11-488.6-172.63-686.08-457.69-35.71-51.54-60-104-76.59-152.49l-178.65-5.77c-52.24-1.68-94.81,38.78-94.81,90.39V2685.5c0,51.61,42.57,90.84,94.81,87.65L2306,2683c-33.21-47.21-323.58-219.75-398.91-491.71C1838.09,1942.18,1880.26,1874.25,1773.05,1720.24Z" transform="translate(-411.46 -291.32)"/></g><path class="cls-20" d="M1635.3,2185.41a410.92,410.92,0,0,1-195.76-45.57,397.58,397.58,0,0,1-156.72-145.34A379.28,379.28,0,0,1,1227,1796.78c0-218.35,185.48-391.16,408.29-385.35,217.29,5.66,390.14,179.91,390.14,388.55S1852.59,2181.49,1635.3,2185.41Z" transform="translate(-411.46 -291.32)"/><path class="cls-7" d="M1991.69,1799.85c0,190.89-157.77,348.19-356.39,351.39A372.34,372.34,0,0,1,1457,2109.4a362.82,362.82,0,0,1-142.54-132.55,344.3,344.3,0,0,1-50.66-179.92c0-199,168.25-356.23,371.47-351.33C1833.92,1450.39,1991.69,1609,1991.69,1799.85Z" transform="translate(-411.46 -291.32)"/><path class="cls-21" d="M1863.11,1743.31l-.1,101.39a36.25,36.25,0,0,1-11,25.83l-88.29,86.58a38.4,38.4,0,0,1-26.84,10.9H1603.29s-91.78,88.61-146.26,141.38a362.82,362.82,0,0,1-142.54-132.55c55-52.78,149.15-143.48,149.15-143.48l-.54-131.43a36.24,36.24,0,0,1,11.45-26.48l91.21-86.52a38.62,38.62,0,0,1,27.19-10.43l105.82,1.81a22.11,22.11,0,0,1,20,13.33,20.55,20.55,0,0,1-4.71,22.88l-100.82,96.61a21.71,21.71,0,0,0,0,31.44l36.09,35.28,10,9.71,35.91,35.14a23.16,23.16,0,0,0,32.14.08l99.52-96.58a21.55,21.55,0,0,1,23.24-4.34A21.06,21.06,0,0,1,1863.11,1743.31Z" transform="translate(-411.46 -291.32)"/><path class="cls-7" d="M2164.1,2479.12a41.68,41.68,0,0,1-39.86,41.29l-997.39,38.08c-24.76,1-44.87-17.22-44.87-40.58V2359.29c0-23.36,20.11-42.8,44.87-43.41l997.39-24.68A38.63,38.63,0,0,1,2164.1,2330Z" transform="translate(-411.46 -291.32)"/><path class="cls-22" d="M1907.4,2994.6v30.91c0,7.91-4.06,14.45-9.44,15.16l-482.22,43.7a34.48,34.48,0,0,1-10.73-.21q-1.4-.26-2.79-.6l-336-63.33c-3.57-.93-6.2-5.6-6.2-11v-32.66l356.49-44.18,45.89-21.72,45.63,6.57,26.94-5.16,61.58,17.92Z" transform="translate(-411.46 -291.32)"/><path class="cls-23" d="M1907.4,2994.6v30.91c0,7.91-4.06,14.45-9.44,15.16l-482.2,43.7a34.28,34.28,0,0,1-10.71-.22v-166.5l57.38-7,45.62,6.57,26.94-5.16,61.58,17.92Z" transform="translate(-411.46 -291.32)"/><path class="cls-24" d="M1535,2912.05l-474.95,63,342.58,64.53a33,33,0,0,0,12.74.75l492.05-45.77Z" transform="translate(-411.46 -291.32)"/><path class="cls-25" d="M1709.09,2969c0,22.62-71.18,40.21-169.45,44.77-24.81,1.14-51.32,1.46-78.83.83-135.25-3.12-243.92-28.28-243.92-56.13a7.1,7.1,0,0,1,.19-2h-.19l.56-1.34a7.62,7.62,0,0,1,.51-1.3l31.19-81.54,37.66-98.39L1339.56,2636l40.38-105.56,50.22-131.25c6.28-16.43,17.93-26.65,30.51-26.65a22.37,22.37,0,0,1,5,.55c10.63,2.32,20.11,11.89,25.56,26.13l50.65,132.17,40.44,106.95L1635.73,2779v0l38.32,101.07v0l.61.06,31.91,82.13C1707.94,2964.5,1709.09,2966.74,1709.09,2969Z" transform="translate(-411.46 -291.32)"/><path class="cls-7" d="M1674.66,2880.18c-30.79,10.29-80,17.7-139,20.45-23.75,1.12-48.87,1.48-75,1-90.87-1.72-169.66-13.41-211.59-29.32l37.71-98.4c44.12,9.93,105.61,16.62,174,17.65,22.1.33,43.63.05,64.14-.78,43.16-1.71,81.21-5.85,111.19-11.73l38,101.06v0Z" transform="translate(-411.46 -291.32)"/><path class="cls-7" d="M1582.82,2638.33c-23.5,2.54-49.34,4.27-76.75,5.05-14.68.44-29.81.58-45.26.43a1051,1051,0,0,1-121.25-7.82l40.38-105.56c25.26,2,52.48,3.14,80.87,3.3,10,.06,19.91,0,29.6-.2,17.8-.34,35-1.05,51.51-2.15Z" transform="translate(-411.46 -291.32)"/><path class="cls-26" d="M1539.64,3013.76c-24.81,1.14-51.32,1.46-78.83.83-135.25-3.12-243.92-28.28-243.92-56.13a7.1,7.1,0,0,1,.19-2h-.19l.56-1.34a7.62,7.62,0,0,1,.51-1.3l31.19-81.54,37.66-98.39L1339.56,2636l40.38-105.56,50.22-131.25c6.28-16.43,17.93-26.65,30.51-26.65a22.37,22.37,0,0,1,5,.55c5.37,33.41,14.55,91.72,24.7,160.45,5.09,34.6,10.43,71.85,15.66,109.85,6.74,49.14,13.27,99.61,18.81,147.38,4.53,39.16,8.39,76.51,11.13,109.87C1540,2948.93,1541.65,2988.88,1539.64,3013.76Z" transform="translate(-411.46 -291.32)"/><path class="cls-27" d="M2871.59,1949.45s-12.4-6.83-16-15.5-3.65-22.18,8.62-29.27-13.44-13.72-9-19.48,18.94-11.46,18.94-11.46,8.8,36.78,6.61,42.3-14,6.19-3,22Z" transform="translate(-411.46 -291.32)"/><path class="cls-28" d="M2475.57,3195.48c-1,.64-18.61,24.5-26.58,40.1l-21.94-11.78s12.36-4.41,18.58-28.32S2475.57,3195.48,2475.57,3195.48Z" transform="translate(-411.46 -291.32)"/><path class="cls-29" d="M2417.9,3249.86s13.75,4.66,19.47,5.07l.58,0a9.48,9.48,0,0,0,8.31-3.78c3.38-4.54,8.27-11.41,8.36-13.33.15-2.93-7.79-9-14.87-11.58s-8.73-6.11-21.85-16.59-35.29-22.92-45.67-13.34S2371.44,3229.79,2417.9,3249.86Z" transform="translate(-411.46 -291.32)"/><path class="cls-30" d="M2379.84,3197.86c11.4,4.54,14.83,17.36,34.61,30.38,11.22,7.38,25.06,14.16,34.93,18.65,2.66-3.76,5.18-7.66,5.24-9,.15-2.94-7.79-9-14.87-11.58s-8.73-6.11-21.85-16.59-35.29-22.92-45.67-13.34a11.93,11.93,0,0,0-3.75,9.8C2370.53,3200.62,2374,3195.55,2379.84,3197.86Z" transform="translate(-411.46 -291.32)"/><path class="cls-31" d="M2279.37,1687.16l.67,45.58c.2,13.37,11.42,23.18,25,21.9l24.76-2.32a279.63,279.63,0,0,0,17.06,61.39l-20.35,13.6c-11.68,7.81-15.5,23-8.52,33.9l23.76,37.16c7,10.89,38.28,16,49.93,8.21l3-15.59a270.9,270.9,0,0,0,47.46,42.37l-10.54,19.53c-6.59,12.21-2.36,26.55,9.44,32l40.18,18.63c11.76,5.46,49.06,4.57,55.61-7.61l-12.34-23.34a289.1,289.1,0,0,0,64.84,10.8l.3,20.19c.2,13.25,11.21,22.88,24.59,21.5l45.51-4.67c13.33-1.37,24-13.19,23.78-26.4l-.3-20.14a324,324,0,0,0,63.72-23.71l10.47,16.56c6.8,10.74,45.49,14.55,56.85,6.8l14.71-27.77c11.33-7.74,15-22.69,8.27-33.42l-10.83-17.18a340.45,340.45,0,0,0,44.87-50.88l19,9c11.48,5.44,44.77,6.89,51.16-5.12l3-47.65c6.38-12,2.28-26.12-9.17-31.59l-20-9.53a312.71,312.71,0,0,0,14.65-63.28l23.85-2.24a26.1,26.1,0,0,0,23.34-25.92l-.66-44.64a21.67,21.67,0,0,0-24.05-21.55l-25.25,2.29a278,278,0,0,0-17.92-58.63l22.48-15.09c11.25-7.56,14.93-22.42,8.21-33.19l2.24-44.49c-6.73-10.8-46.51-5.71-57.8,1.83l-23.65,15.81A270.84,270.84,0,0,0,2816,1431l13.79-25.63c6.43-12,2.3-26.18-9.23-31.8l-17.87-23.34c-11.57-5.64-47.66,3.64-54.11,15.61l-14.18,26.26a289.21,289.21,0,0,0-59.89-10.61l-.44-29.25c-.19-13.22-11.15-23-24.49-22l-45.53,3.72c-13.38,1.1-24.07,12.72-23.88,26l.44,29.33a323.15,323.15,0,0,0-60,20.72l7.55-31.35c-6.9-10.94-44.55-6.3-56.12,1.31l-39.51,26c-11.61,7.63-15.41,22.72-8.47,33.67l14.86,23.49a341.42,341.42,0,0,0-44.64,47.54l.27-15.53c-11.85-5.66-51.89,3.29-58.51,15.44l-22.6,41.43c-6.64,12.17-2.38,26.61,9.51,32.24l23.68,11.23a314.43,314.43,0,0,0-16.73,62.81l-26.22,2.39C2290.06,1661.94,2279.17,1673.79,2279.37,1687.16Zm169.37,11.8c-1.48-100.28,79.63-188.73,180.6-197.51,100.36-8.72,182.47,64.64,183.94,163.83s-78.24,187.5-178.59,197.31C2533.73,1872.47,2450.23,1799.24,2448.74,1699Z" transform="translate(-411.46 -291.32)"/><path class="cls-32" d="M2309.91,1685.28l.68,45.58c.2,13.37,11.41,23.18,25,21.9l24.76-2.32a279.24,279.24,0,0,0,17.06,61.39l-20.35,13.6c-11.69,7.8-15.51,23-8.53,33.9l23.77,37.16c7,10.89,22.06,13.37,33.71,5.54l19.25-12.93a270.14,270.14,0,0,0,47.45,42.38L2462.21,1951c-6.59,12.21-2.36,26.55,9.45,32l40.17,18.63c11.77,5.46,26.62,0,33.17-12.19l10.1-18.76a289.18,289.18,0,0,0,64.85,10.8l.3,20.19c.19,13.25,11.2,22.88,24.58,21.5l45.52-4.67c13.33-1.37,24-13.19,23.77-26.4l-.3-20.14a325,325,0,0,0,63.73-23.71l10.47,16.56c6.79,10.74,21.52,13.16,32.88,5.41l38.68-26.39c11.33-7.73,15-22.68,8.26-33.41L2857,1893.28a340.38,340.38,0,0,0,44.87-50.88l19,9c11.48,5.44,26,.12,32.37-11.89l21.77-40.88c6.39-12,2.28-26.12-9.16-31.59l-20-9.53a311.31,311.31,0,0,0,14.65-63.29l23.85-2.23a26.13,26.13,0,0,0,23.35-25.93l-.67-44.63a21.66,21.66,0,0,0-24-21.55l-25.25,2.29a278,278,0,0,0-17.92-58.63l22.47-15.09c11.26-7.56,14.93-22.42,8.21-33.19l-22.93-36.76c-6.73-10.8-21.33-13.44-32.62-5.9l-23.66,15.81a270.84,270.84,0,0,0-44.78-39.29l13.79-25.64c6.43-11.94,2.3-26.17-9.23-31.79l-39.35-19.19c-11.56-5.63-26.17-.51-32.63,11.46l-14.18,26.26a288.43,288.43,0,0,0-59.89-10.61l-.43-29.26c-.2-13.21-11.16-23-24.49-21.94l-45.53,3.72c-13.38,1.1-24.08,12.72-23.88,26l.43,29.34a323.06,323.06,0,0,0-60,20.72l-15.13-24c-6.9-10.94-21.87-13.65-33.44-6l-39.52,26c-11.61,7.63-15.4,22.71-8.47,33.67l14.86,23.49a340.87,340.87,0,0,0-44.64,47.54L2400.05,1497c-11.85-5.66-26.83-.41-33.46,11.74l-22.6,41.43c-6.63,12.17-2.38,26.61,9.51,32.24l23.68,11.23a315.1,315.1,0,0,0-16.73,62.81l-26.22,2.39C2320.61,1660.06,2309.72,1671.91,2309.91,1685.28Zm169.38,11.79c-1.49-100.28,79.62-188.72,180.6-197.5,100.36-8.72,182.47,64.64,183.93,163.83s-78.24,187.49-178.59,197.31C2564.27,1870.59,2480.77,1797.35,2479.29,1697.07Z" transform="translate(-411.46 -291.32)"/><path class="cls-33" d="M2606.11,2550.56a1621,1621,0,0,0-167.4,639.26l37.76,15.59c24.74-15.76,61-43.52,87.78-88.57,43.87-73.83,12.9-111.27,48.56-200.08,34.55-86.1,78.35-87.54,116.29-181.15,22.64-55.85,27.81-106.56,28.81-139.62Z" transform="translate(-411.46 -291.32)"/><path class="cls-34" d="M2675.27,2571.26c13.65,35.29,12.56,61.81,7.3,81.24-17.51,64.69-86.6,71.71-103.05,144.05-11,48.55,16.92,59.28,2.22,109.69-15.6,53.5-49.93,51.15-68.7,106.38-14.76,43.4,1,61-5.54,121.88a326.58,326.58,0,0,1-11.46,57.37c22.08-16.59,47.89-40.81,68.21-75,43.87-73.83,12.9-111.27,48.56-200.08,34.55-86.1,78.35-87.54,116.29-181.15,22.64-55.85,27.81-106.56,28.81-139.62Z" transform="translate(-411.46 -291.32)"/><path class="cls-35" d="M3160,3070.24s9.32,3.5,13.46,16.52-2.63,67.13-8.52,80.43-23.23,10.12-28.29,0,2.14-81.75,2.14-81.75Z" transform="translate(-411.46 -291.32)"/><path class="cls-36" d="M2611.65,2582.7a1174,1174,0,0,1,87.54,137.39c38.55,71.1,47.37,105.37,92.81,171.44,42.08,61.19,69.86,83.19,81.2,91.63,27.35,20.37,49.92,29.49,108,51.47q76.14,28.8,161.15,59.44c10,1.13,14.21-3.19,17-12.27-.93-43.24-13.95-69.65-24.74-85.27-23-33.35-47-33.52-118.26-84-38-26.94-57.35-40.86-73.38-62.89-7.71-10.6-20.33-30.29-40.33-104.62-8.2-30.46-18-71.66-26.36-121.46Z" transform="translate(-411.46 -291.32)"/><path class="cls-37" d="M2373,1936.25s7-14.45-9.47-27.43-48-30.83-45.49-55.76c0,0,17,28.62,28,26a22,22,0,0,1,18.4,3.74s25.72,14.64,25,42.7l-.75,28.07Z" transform="translate(-411.46 -291.32)"/><path class="cls-38" d="M2365.11,1929.76l28.95-4.65a239.84,239.84,0,0,1,28.41,57.72c19.39,58.29,4.52,90.94,16.05,126.18,9.45,28.87,38.36,64.85,127.15,91.42q-1,84.57-1.93,169.15c-36.4-5.41-95-19.85-151-62.78-32.43-24.88-67.58-51.83-80.61-98.06-16.45-58.35,7.92-127.51,17.45-154.58,5.46-15.49,16.05-41.75,17.83-79.27A231.14,231.14,0,0,0,2365.11,1929.76Z" transform="translate(-411.46 -291.32)"/><path class="cls-39" d="M2558.93,2198.35a394.37,394.37,0,0,0,122.23,4.8c86-10.14,148.41-46.57,180.69-68.9,35.25,76.93,36,134,29.78,172.27-4.57,28.24-11.53,37.71-12.15,69.31-1.05,53.21,18,61.27,26.91,130.41,7.36,56.93-3.22,69.33,13.4,93,11.92,17,27.75,25.42,37.16,52,3.12,8.8,10.87,30.7,2.63,37.8-13.21,11.37-46-33.74-107.21-39.89-32.64-3.28-37.63,8.11-71.46,1.66-36.93-7-34.37-21.25-69-28.25-34.3-6.94-44.72,5.43-97.23-.83-22.09-2.64-33.14-4-40-10.08-22.28-19.82-3.87-59.24.14-121.23,4-61.13-11.22-65.21-17.45-156.23A862.4,862.4,0,0,1,2558.93,2198.35Z" transform="translate(-411.46 -291.32)"/><path class="cls-40" d="M2855.7,1947.79l20.77-23.27a383.44,383.44,0,0,1,114.12,93.41c30.23,36.69,56.92,69.07,59.79,116.06,4.12,67.36-43.57,117.78-65.77,141.25-43.76,46.26-94.23,65.6-123.1,73.94-55.9-124.08-47.59-172.54-27.8-193.23,11-11.52,25.87-14.73,39.49-36.1,19-29.73,15.59-63.37,13.46-84.69C2882.74,1996,2867.4,1966,2855.7,1947.79Z" transform="translate(-411.46 -291.32)"/><path class="cls-41" d="M2687.85,2138.48c-1.59,8.45-2.57,26.68,8.6,41.16,9.77,12.68,24.73,16.51,30.72,18.11,14.48,3.86,22.3.73,23.08,3.22,1.73,5.51-33.79,30-74.89,28.45-24.15-.9-48.49-10.72-48.24-18.48.28-8.71,31.29-7.72,39-25.76,4.92-11.52-1.86-25.72-9.22-36.78C2663.55,2140.65,2681.16,2146.26,2687.85,2138.48Z" transform="translate(-411.46 -291.32)"/><path class="cls-42" d="M2658.06,2130.93c-2.51-7,.28-16.43,7.11-20.42,5.89-3.44,12.78-1.6,16.91-.49,12,3.2,25.11,13.4,26.92,25.43,1.08,7.13-9.49,17-11.24,18.81-2,2.07-4.36,2.12-6.92,3.27-3.55,1.59-9.12,4.15-18.27,8.5a47.71,47.71,0,0,0-.21-8.44,44.38,44.38,0,0,0-2.64-10.84C2666,2137.48,2660.44,2137.57,2658.06,2130.93Z" transform="translate(-411.46 -291.32)"/><path class="cls-43" d="M2684.28,2163.94a26.42,26.42,0,0,1-26.29,2c-13.24-6.11-5.85-35.52,4.77-38.25,3.55-.91,9.6.49,13.89,3.55,2.54,1.82,3.12,3.27,7.32,6.16,3.88,2.66,5.21,2.68,6.15,4.18,1.18,1.89,1.34,5.44-4.06,12.8,3.4-1.47,6.82-1.21,8.7.63a5.21,5.21,0,0,1,1.27,2.36C2696.86,2161.37,2692.31,2164.33,2684.28,2163.94Z" transform="translate(-411.46 -291.32)"/><path class="cls-44" d="M2863.18,2581.59c-26-5-35.74,19.82-60.95,15.51-35-6-31.38-56.6-72-80.88-46.56-27.82-93.13,13.66-124.1-10-17.72-13.52-29.59-47.8-6.65-137.39.39-7,1.46-40.14-23.27-68.7-28.09-32.45-67.2-33.23-73.13-33.24-62.94,3.86-122.43-25.91-154-77.56a154.36,154.36,0,0,1-20.38-54.2c-3.14,23.92-3.27,49.66,3.48,73.59,13,46.23,48.18,73.18,80.61,98.06,54.43,41.74,111.27,56.52,147.83,62.28,7,58.55,17.59,69.2,14.22,121.37-4,62-22.42,101.41-.14,121.23,6.89,6.12,17.94,7.44,40,10.08,52.51,6.26,62.93-6.11,97.23.83,34.61,7,32.05,21.21,69,28.25,33.83,6.45,38.82-4.94,71.46-1.66,61.2,6.15,94,51.26,107.21,39.89,4.72-4.06,4.19-13,2.29-21.5-16.37-5.51-28.11-13.1-36.64-20.61C2896.06,2621.33,2892.2,2587.2,2863.18,2581.59Z" transform="translate(-411.46 -291.32)"/><path class="cls-45" d="M1936.42,1112.07l.51,34.37c.15,10.09,8.6,17.48,18.88,16.52l18.67-1.75a210.49,210.49,0,0,0,12.86,46.29L1972,1217.75c-8.81,5.89-11.69,17.34-6.43,25.56l17.92,28c5.25,8.22,28.86,12.1,37.65,6.2l2.28-11.76a204.07,204.07,0,0,0,35.79,32l-7.95,14.73c-5,9.2-1.78,20,7.12,24.15l30.3,14.05c8.87,4.11,37,3.45,41.93-5.74l-9.31-17.6a218.56,218.56,0,0,0,48.9,8.14l.23,15.23c.15,10,8.45,17.25,18.54,16.21l34.32-3.52a20.2,20.2,0,0,0,17.93-19.91l-.23-15.18A245,245,0,0,0,2289,1310.4l7.9,12.48c5.12,8.1,34.29,11,42.86,5.13l11.1-20.94c8.54-5.83,11.33-17.11,6.23-25.2l-8.17-12.95a256.92,256.92,0,0,0,33.84-38.37l14.33,6.79c8.65,4.11,33.75,5.2,38.58-3.86l2.24-35.93c4.81-9,1.72-19.7-6.91-23.82l-15.06-7.19a235.24,235.24,0,0,0,11.05-47.72l18-1.68a19.69,19.69,0,0,0,17.6-19.55l-.5-33.65a16.34,16.34,0,0,0-18.13-16.26l-19,1.73a209.86,209.86,0,0,0-13.51-44.21l16.94-11.38c8.49-5.7,11.26-16.9,6.19-25l1.69-33.55c-5.07-8.14-35.06-4.3-43.58,1.39l-17.83,11.92a203.68,203.68,0,0,0-33.77-29.63l10.4-19.33c4.84-9,1.73-19.74-7-24L2331,858c-8.72-4.25-35.93,2.75-40.8,11.77l-10.69,19.81a217.48,217.48,0,0,0-45.17-8l-.32-22.07A16.75,16.75,0,0,0,2215.58,843l-34.33,2.81a19.76,19.76,0,0,0-18,19.59l.33,22.12a243.93,243.93,0,0,0-45.23,15.62l5.69-23.63c-5.2-8.26-33.59-4.76-42.32,1l-29.79,19.6c-8.76,5.76-11.62,17.13-6.39,25.39l11.2,17.71A257.7,257.7,0,0,0,2023.07,979l.21-11.71c-8.94-4.27-39.13,2.48-44.12,11.64l-17.05,31.25c-5,9.17-1.79,20.06,7.17,24.31l17.86,8.46a236.81,236.81,0,0,0-12.61,47.37l-19.77,1.79C1944.48,1093.06,1936.27,1102,1936.42,1112.07Zm127.72,8.9c-1.12-75.62,60-142.32,136.18-148.94,75.68-6.57,137.59,48.75,138.7,123.54s-59,141.39-134.67,148.79C2128.22,1251.81,2065.26,1196.58,2064.14,1121Z" transform="translate(-411.46 -291.32)"/><path class="cls-46" d="M1959.45,1110.65,1960,1145c.15,10.09,8.6,17.48,18.88,16.52l18.67-1.75a211,211,0,0,0,12.86,46.29L1995,1216.33c-8.81,5.89-11.69,17.34-6.43,25.57l17.92,28c5.25,8.21,16.64,10.08,25.42,4.18l14.52-9.75a203.65,203.65,0,0,0,35.78,32l-7.95,14.73c-5,9.21-1.78,20,7.12,24.15l30.3,14c8.87,4.12,20.07,0,25-9.19l7.62-14.15a217.24,217.24,0,0,0,48.9,8.14l.22,15.23c.15,10,8.45,17.25,18.54,16.22l34.32-3.53a20.2,20.2,0,0,0,17.93-19.91l-.23-15.18a244.4,244.4,0,0,0,48.05-17.88l7.9,12.49c5.12,8.1,16.23,9.92,24.8,4.07l29.16-19.89c8.54-5.83,11.33-17.1,6.23-25.19l-8.17-13a256.43,256.43,0,0,0,33.84-38.37l14.33,6.8c8.66,4.1,19.58.08,24.4-9l16.42-30.83c4.82-9,1.72-19.69-6.91-23.81l-15.06-7.19a235.55,235.55,0,0,0,11-47.72l18-1.69a19.68,19.68,0,0,0,17.6-19.55l-.5-33.65a16.34,16.34,0,0,0-18.13-16.26l-19,1.73a210,210,0,0,0-13.51-44.21l16.95-11.38c8.48-5.7,11.25-16.9,6.19-25l-17.29-27.72c-5.08-8.14-16.09-10.13-24.6-4.44l-17.84,11.92a203.73,203.73,0,0,0-33.77-29.63l10.4-19.33c4.85-9,1.73-19.74-7-24l-29.67-14.46c-8.72-4.25-19.74-.39-24.61,8.63l-10.69,19.81a217.5,217.5,0,0,0-45.16-8l-.33-22.06a16.74,16.74,0,0,0-18.47-16.55l-34.33,2.8a19.77,19.77,0,0,0-18,19.59l.33,22.12a243.93,243.93,0,0,0-45.23,15.62L2130,883.6c-5.2-8.25-16.49-10.3-25.22-4.56L2075,898.64c-8.76,5.76-11.62,17.13-6.39,25.39l11.21,17.72a256.47,256.47,0,0,0-33.66,35.84l-18.69-8.92c-8.94-4.27-20.24-.31-25.23,8.85l-17,31.25c-5,9.17-1.8,20.06,7.17,24.31l17.85,8.46a237.67,237.67,0,0,0-12.61,47.37l-19.77,1.8C1967.51,1091.64,1959.3,1100.57,1959.45,1110.65Zm127.72,8.9c-1.12-75.62,60-142.31,136.18-148.93,75.68-6.58,137.59,48.74,138.7,123.53s-59,141.39-134.67,148.79C2151.25,1250.39,2088.29,1195.16,2087.17,1119.55Z" transform="translate(-411.46 -291.32)"/></g></g></svg>