<svg xmlns="http://www.w3.org/2000/svg" xmlns:xlink="http://www.w3.org/1999/xlink" viewBox="0 0 2800 2674.25"><defs><style>.cls-1{isolation:isolate;}.cls-2{fill:#f4f7fa;}.cls-3{fill:url(#linear-gradient);}.cls-4{opacity:0.8;}.cls-30,.cls-4{mix-blend-mode:soft-light;}.cls-5{fill:#fff;}.cls-6{fill:url(#linear-gradient-2);}.cls-29,.cls-7{fill:#d8dee8;}.cls-40,.cls-7{opacity:0.7;}.cls-13,.cls-17,.cls-23,.cls-37,.cls-48,.cls-49,.cls-52,.cls-59,.cls-65,.cls-67,.cls-7{mix-blend-mode:multiply;}.cls-8{fill:url(#linear-gradient-3);}.cls-9{fill:url(#linear-gradient-4);}.cls-10{fill:url(#linear-gradient-5);}.cls-11{fill:url(#linear-gradient-6);}.cls-12{fill:url(#linear-gradient-7);}.cls-13,.cls-17,.cls-23,.cls-30,.cls-59,.cls-65{opacity:0.3;}.cls-13{fill:url(#linear-gradient-8);}.cls-14{fill:url(#linear-gradient-9);}.cls-15{fill:url(#linear-gradient-10);}.cls-16{fill:url(#linear-gradient-11);}.cls-17{fill:url(#linear-gradient-12);}.cls-18{fill:url(#linear-gradient-13);}.cls-19{fill:url(#linear-gradient-14);}.cls-20{fill:url(#linear-gradient-15);}.cls-21{fill:url(#linear-gradient-16);}.cls-22{fill:url(#linear-gradient-17);}.cls-23{fill:url(#linear-gradient-18);}.cls-24{fill:url(#linear-gradient-19);}.cls-25{fill:url(#linear-gradient-20);}.cls-26{fill:url(#linear-gradient-21);}.cls-27{fill:url(#linear-gradient-22);}.cls-28{fill:#26264f;}.cls-31{fill:url(#linear-gradient-23);}.cls-32{fill:url(#linear-gradient-24);}.cls-33{fill:url(#linear-gradient-25);}.cls-34{fill:url(#linear-gradient-26);}.cls-35{fill:url(#linear-gradient-27);}.cls-36{fill:url(#linear-gradient-28);}.cls-37,.cls-67{opacity:0.2;}.cls-37{fill:url(#linear-gradient-29);}.cls-38{fill:url(#linear-gradient-30);}.cls-39{fill:url(#linear-gradient-31);}.cls-41{fill:url(#linear-gradient-32);}.cls-42{fill:url(#linear-gradient-33);}.cls-43{fill:url(#linear-gradient-34);}.cls-44{fill:url(#linear-gradient-35);}.cls-45{fill:url(#linear-gradient-36);}.cls-46{fill:#fec045;}.cls-47{fill:url(#linear-gradient-37);}.cls-48{opacity:0.15;fill:url(#linear-gradient-38);}.cls-49{opacity:0.42;}.cls-50{fill:url(#linear-gradient-39);}.cls-51{fill:url(#linear-gradient-40);}.cls-52{opacity:0.26;fill:url(#linear-gradient-41);}.cls-53{opacity:0.53;}.cls-54{fill:url(#linear-gradient-42);}.cls-55{fill:url(#linear-gradient-43);}.cls-56{fill:url(#linear-gradient-44);}.cls-57{fill:url(#linear-gradient-45);}.cls-58{fill:url(#linear-gradient-46);}.cls-59{fill:url(#linear-gradient-47);}.cls-60{fill:url(#linear-gradient-48);}.cls-61{fill:url(#linear-gradient-49);}.cls-62{fill:url(#linear-gradient-50);}.cls-63{fill:url(#linear-gradient-51);}.cls-64{fill:url(#linear-gradient-52);}.cls-65{fill:url(#linear-gradient-53);}.cls-66{fill:url(#linear-gradient-54);}.cls-67{fill:url(#linear-gradient-55);}.cls-68{fill:url(#linear-gradient-56);}.cls-69{fill:url(#linear-gradient-57);}</style><linearGradient id="linear-gradient" x1="203.81" y1="1764.82" x2="-214.43" y2="5002.8" gradientTransform="matrix(-1, 0, 0, 1, 976.05, 0)" gradientUnits="userSpaceOnUse"><stop offset="0" stop-color="#ff9085"/><stop offset="1" stop-color="#fb6fbb"/></linearGradient><linearGradient id="linear-gradient-2" x1="4547.03" y1="918.99" x2="4277.04" y2="3009.21" gradientTransform="matrix(-0.76, 0.65, 0.65, 0.76, 3327.07, -1195.76)" gradientUnits="userSpaceOnUse"><stop offset="0" stop-color="#aa80f9"/><stop offset="1" stop-color="#6165d7"/></linearGradient><linearGradient id="linear-gradient-3" x1="1582.42" y1="3093.34" x2="1696.3" y2="3093.34" gradientTransform="translate(1331.48 -58.46) rotate(2.66)" gradientUnits="userSpaceOnUse"><stop offset="0" stop-color="#444b8c"/><stop offset="1" stop-color="#26264f"/></linearGradient><linearGradient id="linear-gradient-4" x1="1670.93" y1="2957.14" x2="1613.72" y2="3061.78" gradientTransform="translate(1331.48 -58.46) rotate(2.66)" gradientUnits="userSpaceOnUse"><stop offset="0" stop-color="#ffc444"/><stop offset="1" stop-color="#f36f56"/></linearGradient><linearGradient id="linear-gradient-5" x1="1457.51" y1="3078.97" x2="1658.91" y2="2200.54" gradientTransform="translate(1331.48 -58.46) rotate(2.66)" xlink:href="#linear-gradient-2"/><linearGradient id="linear-gradient-6" x1="1712.32" y1="3150.95" x2="1869.04" y2="3150.95" gradientTransform="translate(1174.63)" xlink:href="#linear-gradient-3"/><linearGradient id="linear-gradient-7" x1="1797.61" y1="3142.99" x2="1858" y2="3017.99" gradientTransform="translate(1174.63)" xlink:href="#linear-gradient-4"/><linearGradient id="linear-gradient-8" x1="1460.3" y1="3079.61" x2="1661.7" y2="2201.18" gradientTransform="translate(1331.48 -58.46) rotate(2.66)" xlink:href="#linear-gradient-2"/><linearGradient id="linear-gradient-9" x1="1705.19" y1="2705.44" x2="2060.97" y2="2144.57" gradientTransform="translate(1174.63)" xlink:href="#linear-gradient-2"/><linearGradient id="linear-gradient-10" x1="1437.93" y1="1478.84" x2="1553.52" y2="1888.83" gradientTransform="translate(1174.63)" gradientUnits="userSpaceOnUse"><stop offset="0" stop-color="#311944"/><stop offset="1" stop-color="#893976"/></linearGradient><linearGradient id="linear-gradient-11" x1="1637.57" y1="1423.4" x2="1864.61" y2="2228.7" xlink:href="#linear-gradient-10"/><linearGradient id="linear-gradient-12" x1="1751.02" y1="2734.51" x2="2106.8" y2="2173.64" gradientTransform="translate(1174.63)" xlink:href="#linear-gradient-2"/><linearGradient id="linear-gradient-13" x1="1507.04" y1="1348.86" x2="1734.09" y2="2154.17" xlink:href="#linear-gradient-10"/><linearGradient id="linear-gradient-14" x1="788.02" y1="1585.77" x2="795.27" y2="1392.65" gradientTransform="matrix(-0.92, 0.4, 0.4, 0.92, 2982.04, -184.89)" xlink:href="#linear-gradient-4"/><linearGradient id="linear-gradient-15" x1="2168.4" y1="1408.83" x2="2261.74" y2="1527.4" gradientTransform="translate(1858.27 -1085.37) rotate(34.67)" xlink:href="#linear-gradient-3"/><linearGradient id="linear-gradient-16" x1="403.17" y1="1708.87" x2="398.97" y2="2047.01" gradientTransform="matrix(-0.99, -0.14, -0.14, 0.99, 3485.94, -215.37)" xlink:href="#linear-gradient-4"/><linearGradient id="linear-gradient-17" x1="963.35" y1="1769.35" x2="968.1" y2="1811.69" gradientTransform="translate(1987.89 -391.95) rotate(4.82)" gradientUnits="userSpaceOnUse"><stop offset="0" stop-color="#ffc444"/><stop offset="1" stop-color="#f36f56"/></linearGradient><linearGradient id="linear-gradient-18" x1="1531.55" y1="1341.95" x2="1758.6" y2="2147.26" xlink:href="#linear-gradient-10"/><linearGradient id="linear-gradient-19" x1="2511.72" y1="1096.09" x2="2678.12" y2="1686.28" gradientTransform="translate(1043.5 -484.9) rotate(19.54)" xlink:href="#linear-gradient-10"/><linearGradient id="linear-gradient-20" x1="1556.89" y1="1909.72" x2="1562.03" y2="1772.97" gradientTransform="translate(1174.63)" xlink:href="#linear-gradient-4"/><linearGradient id="linear-gradient-21" x1="1625.8" y1="1983.57" x2="1630.15" y2="1867.47" gradientTransform="translate(1174.63)" xlink:href="#linear-gradient-4"/><linearGradient id="linear-gradient-22" x1="2851.5" y1="1840.51" x2="4476.06" y2="1840.51" gradientTransform="translate(-2122.78 -41.9) rotate(1.14)" xlink:href="#linear-gradient-3"/><linearGradient id="linear-gradient-23" x1="-1707.61" y1="-1264.02" x2="-1144.95" y2="604.64" gradientTransform="translate(3203.07 875.18) rotate(-50.36)" xlink:href="#linear-gradient-2"/><linearGradient id="linear-gradient-24" x1="-2210.02" y1="-1169.5" x2="-1537.37" y2="1064.46" gradientTransform="translate(3203.07 875.18) rotate(-50.36)" xlink:href="#linear-gradient-2"/><linearGradient id="linear-gradient-25" x1="-2412.53" y1="-1267.42" x2="-1704.53" y2="1083.94" gradientTransform="translate(3203.07 875.18) rotate(-50.36)" xlink:href="#linear-gradient-2"/><linearGradient id="linear-gradient-26" x1="-1121.14" y1="-1655.61" x2="-416.56" y2="684.34" gradientTransform="translate(3203.07 875.18) rotate(-50.36)" xlink:href="#linear-gradient-2"/><linearGradient id="linear-gradient-27" x1="-1297.55" y1="-1668.54" x2="-621.28" y2="577.42" gradientTransform="translate(3203.07 875.18) rotate(-50.36)" xlink:href="#linear-gradient-2"/><linearGradient id="linear-gradient-28" x1="-1531.03" y1="-678.45" x2="-1419.76" y2="-308.9" gradientTransform="translate(3203.07 875.18) rotate(-50.36)" xlink:href="#linear-gradient-2"/><linearGradient id="linear-gradient-29" x1="-2153.27" y1="-453.48" x2="-797.55" y2="-453.48" gradientTransform="translate(3203.07 875.18) rotate(-50.36)" xlink:href="#linear-gradient-2"/><linearGradient id="linear-gradient-30" x1="-4071.06" y1="-742.54" x2="-5317.86" y2="-856.67" gradientTransform="matrix(0.37, -0.92, 0.96, 0.27, 4179.5, -2299.46)" xlink:href="#linear-gradient-10"/><linearGradient id="linear-gradient-31" x1="-5189.1" y1="-868.91" x2="-3425.57" y2="-803.31" gradientTransform="matrix(0.37, -0.93, 0.96, 0.27, 4184.64, -2295.64)" gradientUnits="userSpaceOnUse"><stop offset="0" stop-color="#e38ddd"/><stop offset="1" stop-color="#9571f6"/></linearGradient><linearGradient id="linear-gradient-32" x1="-5283.43" y1="-1083.46" x2="-4735.13" y2="-772.63" gradientTransform="matrix(0.37, -0.93, 0.96, 0.27, 4184.64, -2295.64)" gradientUnits="userSpaceOnUse"><stop offset="0" stop-color="#f57e53"/><stop offset="0" stop-color="#f68252"/><stop offset="0.04" stop-color="#f99a4d"/><stop offset="0.08" stop-color="#fcad49"/><stop offset="0.13" stop-color="#feba46"/><stop offset="0.2" stop-color="#ffc244"/><stop offset="0.32" stop-color="#ffc444"/><stop offset="0.45" stop-color="#fdb946"/><stop offset="0.69" stop-color="#f99c4c"/><stop offset="1" stop-color="#f36f56"/></linearGradient><linearGradient id="linear-gradient-33" x1="-5108.14" y1="-892.69" x2="-4987.21" y2="-892.69" gradientTransform="matrix(0.37, -0.92, 0.96, 0.27, 4179.5, -2299.46)" xlink:href="#linear-gradient"/><linearGradient id="linear-gradient-34" x1="-5086.78" y1="-969.09" x2="-4977.21" y2="-969.09" gradientTransform="matrix(0.37, -0.93, 0.96, 0.27, 3729.64, -2813.51)" xlink:href="#linear-gradient"/><linearGradient id="linear-gradient-35" x1="-5089.76" y1="-942.81" x2="-4980.14" y2="-942.81" gradientTransform="matrix(0.37, -0.93, 0.96, 0.27, 3729.64, -2813.51)" xlink:href="#linear-gradient"/><linearGradient id="linear-gradient-36" x1="-5092.75" y1="-916.5" x2="-4983.07" y2="-916.5" gradientTransform="matrix(0.37, -0.93, 0.96, 0.27, 3729.64, -2813.51)" xlink:href="#linear-gradient"/><linearGradient id="linear-gradient-37" x1="-5082.16" y1="-892.67" x2="-5012.99" y2="-892.67" gradientTransform="matrix(0.37, -0.92, 0.96, 0.27, 4179.5, -2299.46)" xlink:href="#linear-gradient"/><linearGradient id="linear-gradient-38" x1="-5199.24" y1="-645.99" x2="-3489.55" y2="-582.39" gradientTransform="matrix(0.37, -0.93, 0.96, 0.27, 4184.64, -2295.64)" gradientUnits="userSpaceOnUse"><stop offset="0" stop-color="#fb6fbb"/><stop offset="1" stop-color="#ff9085"/></linearGradient><linearGradient id="linear-gradient-39" x1="-5151.85" y1="-561.04" x2="-4909.44" y2="-561.04" gradientTransform="matrix(0.37, -0.92, 0.96, 0.27, 4179.5, -2299.46)" xlink:href="#linear-gradient-38"/><linearGradient id="linear-gradient-40" x1="-4797.54" y1="-557.44" x2="-4481.9" y2="-557.44" gradientTransform="matrix(0.37, -0.92, 0.96, 0.27, 4179.5, -2299.46)" xlink:href="#linear-gradient-38"/><linearGradient id="linear-gradient-41" x1="-4084.85" y1="-1616.17" x2="-3916.31" y2="-1616.17" gradientTransform="matrix(0.26, -0.95, 1, 0.16, 4255.03, -2080.03)" xlink:href="#linear-gradient"/><linearGradient id="linear-gradient-42" x1="1258.98" y1="1943.77" x2="905.28" y2="2057.28" gradientUnits="userSpaceOnUse"><stop offset="0" stop-color="#fcb148"/><stop offset="0.05" stop-color="#fdba46"/><stop offset="0.14" stop-color="#ffc244"/><stop offset="0.32" stop-color="#ffc444"/><stop offset="0.48" stop-color="#fdb946"/><stop offset="0.78" stop-color="#f99c4d"/><stop offset="0.87" stop-color="#f8924f"/><stop offset="1" stop-color="#f8924f"/></linearGradient><linearGradient id="linear-gradient-43" x1="1545.11" y1="1591.69" x2="1229.34" y2="2288.33" gradientUnits="userSpaceOnUse"><stop offset="0" stop-color="#ffdb44"/><stop offset="1" stop-color="#feef06"/></linearGradient><linearGradient id="linear-gradient-44" x1="1487.02" y1="2327.26" x2="1426.09" y2="1994.42" xlink:href="#linear-gradient-42"/><linearGradient id="linear-gradient-45" x1="1357.84" y1="1788.52" x2="1608.93" y2="2321.53" xlink:href="#linear-gradient-42"/><linearGradient id="linear-gradient-46" x1="1347.84" y1="1673.82" x2="1474.1" y2="2147.01" xlink:href="#linear-gradient-43"/><linearGradient id="linear-gradient-47" x1="1283.97" y1="1823.01" x2="1534.56" y2="2354.95" xlink:href="#linear-gradient-42"/><linearGradient id="linear-gradient-48" x1="1235.56" y1="1285.5" x2="997.34" y2="1361.96" xlink:href="#linear-gradient-42"/><linearGradient id="linear-gradient-49" x1="1428.27" y1="1048.38" x2="1215.6" y2="1517.57" xlink:href="#linear-gradient-43"/><linearGradient id="linear-gradient-50" x1="1389.15" y1="1543.79" x2="1348.12" y2="1319.62" xlink:href="#linear-gradient-42"/><linearGradient id="linear-gradient-51" x1="1302.15" y1="1180.94" x2="1471.26" y2="1539.93" xlink:href="#linear-gradient-42"/><linearGradient id="linear-gradient-52" x1="1295.41" y1="1103.69" x2="1380.45" y2="1422.39" xlink:href="#linear-gradient-43"/><linearGradient id="linear-gradient-53" x1="1252.4" y1="1204.17" x2="1421.17" y2="1562.44" xlink:href="#linear-gradient-42"/><linearGradient id="linear-gradient-54" x1="1792.54" y1="1058.28" x2="1482.2" y2="3793.45" gradientUnits="userSpaceOnUse"><stop offset="0" stop-color="#ab316d"/><stop offset="1" stop-color="#792d3d"/></linearGradient><linearGradient id="linear-gradient-55" x1="4863.62" y1="1288.6" x2="450.57" y2="2953.9" xlink:href="#linear-gradient-54"/><linearGradient id="linear-gradient-56" x1="3151.92" y1="2125.62" x2="1761.34" y2="2650.36" xlink:href="#linear-gradient-54"/><linearGradient id="linear-gradient-57" x1="2279.58" y1="2404.78" x2="1930.7" y2="2536.44" gradientTransform="matrix(1, 0, 0, 1, 0, 0)" xlink:href="#linear-gradient-4"/></defs><title>payment-processing</title><g class="cls-1"><g id="Illustration"><path class="cls-2" d="M1623.63,3166.06C929,3060.87,364.53,2404.13,467.08,1674.18c87.49-622.53,633.29-1107,1287.8-1152.75q71.08-5,143.72-2.94c365.12,10.54,689.54,156.59,929.48,377.59,238.81,219.94,394,514.12,422.21,822.75C3325.52,2540,2487.57,3296.9,1623.63,3166.06Z" transform="translate(-455 -517.88)"/><path class="cls-3" d="M971.75,3128.32c-162.44-20.87-368.39-75.7-451.11-230.33-19.68-36.78-39.42-108.24,10.25-135.15,45.4-24.6,104.11,1.39,137.85,33.39,24.81,23.54,44.17,76.07,72,92.68,40.8,24.31,62.76-42,61.9-69.4-1.92-61.21-77.21-86.27-127.24-99.56-83.06-22.06-179.77-41-174.56-134.57s96.46-149.74,166.67-108.8c57.84,33.75,49.7,105.76,89.22,149,35.11,38.39,47.33-23.92,45-54.46-5.1-66.35-63.43-114.34-106.36-158.81C646.88,2362,593.26,2260.88,645,2194.41c29.77-38.25,105.39-47.21,150.09-40.76,218.79,31.59,73.71,314.73,113.49,346.32s77.42-23.71,77.32-107.79,12.77-146.1,100.52-119.19,104.45,246.54,4.25,331,6.29,176.49,33.19,116c19.42-43.68,36.49-158.06,92.62-170.6,93.51-20.87,92.13,170.09,65.21,214.53-37.72,62.3-123,75.83-170.67,129.58-13.84,15.61-45.09,54.29-33,77.11,16.93,31.83,64.16-2.22,81.51-17,39-33.17,93-145.89,148-71C1375.39,2975,1261.91,3112,971.75,3128.32Z" transform="translate(-455 -517.88)"/><g class="cls-4"><path class="cls-5" d="M948.35,3114.56c3.82,0,6.94-4.37,7-8.2.06-3.31,4.58-336.94-140.83-733a7.21,7.21,0,0,0-9-4.5,6.84,6.84,0,0,0-4.17,8.85c144.51,393.56,140,725.13,140,728.42-.07,3.88,3,8.38,6.89,8.38Z" transform="translate(-455 -517.88)"/></g><path class="cls-6" d="M842.5,3100.89c5.45-34.14,70.73-43.88,97-48.85,15.26-2.88,37-5.84,44.81-21.61,8.24-16.55-4.28-29.35-20.33-32.28-28.74-5.25-59.65,13-86.36,21.31-28.69,8.92-58.45,13.12-86.9.8-22.68-9.82-45.91-33.16-50.84-57.72-13.66-68,54.45-64.08,98.83-54.53,21.54,4.64,63.88,8.13,67.68-22.3,4-32.38-37.16-48.71-62.61-49.68-33.26-1.26-66,6-99,8.44-29.75,2.16-65-1.08-73.23-35.31-6.37-26.45,8.52-56.85,30-72.54,49.71-36.28,115.22,25.58,168.29,25.45,18.76,0,49.73-13.81,54.92-34,5.27-20.53-21.39-34.35-36-41.84-43.32-22.18-242.31-50.59-171-136.51,17.94-21.62,52.6-39.8,80.58-40.57,52.78-1.44,112.09,34.38,152.75,65.29,64,48.61,119.92,115.5,156.26,187.18,80.3,158.42,41.4,264.64,41.4,264.64-23.28,38.39-59.31,78.32-99,99.94-46.64,25.43-118.88,36.59-169.61,16.83C863.82,3136.68,839.13,3122,842.5,3100.89Z" transform="translate(-455 -517.88)"/><path class="cls-7" d="M3014.48,2156.81l-67.41,4.55a525.67,525.67,0,0,0-30.51-86.85l55.92-37.53a33.18,33.18,0,0,0,8.77-46.3l-65.24-96a33.81,33.81,0,0,0-46.62-9.33l-56.68,37.83a541,541,0,0,0-69.92-60.4l29.89-61.37c8.06-16.54,1-36.64-15.76-44.89l-105-51.68c-16.83-8.28-37-1.56-45.15,15l-30.09,61.56a540.09,540.09,0,0,0-91.07-18l-5.24-69a34.5,34.5,0,0,0-36.45-31.56l-117.39,6.93a33.27,33.27,0,0,0-31.52,35.66l5.25,69.25a533,533,0,0,0-88.28,29L2172.37,1746a34.91,34.91,0,0,0-47.72-9.55L2026.4,1801a33.31,33.31,0,0,0-9.09,47l39.73,57.74a532,532,0,0,0-61.65,69.46l-63.57-30.7c-17.21-8.32-37.9-1.44-46.21,15.37l-52,105.22c-8.33,16.85-1.09,37.23,16.17,45.51l63.1,30.29a519.49,519.49,0,0,0-17.77,91.53l-69.86,4.71c-19.13,1.29-33.49,17.54-32.07,36.29l8.9,117.25c1.42,18.75,18.09,32.86,37.21,31.51l69.29-4.87a525.82,525.82,0,0,0,31.1,88.67l-57,38a33.61,33.61,0,0,0-9.14,47.25l67.36,97a35,35,0,0,0,48,8.88l56.56-38a541.08,541.08,0,0,0,72.17,61.25l-29.56,60.47a33.59,33.59,0,0,0,16.08,45.22l107,50.38a34.6,34.6,0,0,0,45.78-16l29.17-59.9a539.45,539.45,0,0,0,93.27,17l5,66.22a33.83,33.83,0,0,0,36.57,31l117.22-9.25a33.94,33.94,0,0,0,31.31-36.23l-5-66a533.37,533.37,0,0,0,88.82-30.93l37.42,54.38a33.84,33.84,0,0,0,46.94,8.67l96.13-65.54a33.47,33.47,0,0,0,8.82-46.59l-37.53-54.71a531.32,531.32,0,0,0,60.58-70.4l60,28.79a33.54,33.54,0,0,0,44.73-15.63l50.06-103.92a33.45,33.45,0,0,0-15.66-44.61l-60.1-29a519.32,519.32,0,0,0,16.71-90.61l66.86-4.7a33.17,33.17,0,0,0,30.79-35.62l-8.73-114.93A33.71,33.71,0,0,0,3014.48,2156.81Zm-607.67-206.52c188.93-12,352.73,129.46,366.88,315.89s-126.59,348.88-315.37,362.93C2268.4,2643.23,2102,2502,2087.7,2313.48S2216.73,1962.37,2406.81,1950.29Z" transform="translate(-455 -517.88)"/><path class="cls-7" d="M2801.44,1137.17l-37.06,2.5a289.67,289.67,0,0,0-16.78-47.75l30.75-20.63a18.24,18.24,0,0,0,4.81-25.45l-35.86-52.77a18.6,18.6,0,0,0-25.63-5.13l-31.16,20.8a297.44,297.44,0,0,0-38.44-33.21l16.43-33.73a18.55,18.55,0,0,0-8.66-24.68l-57.74-28.41a18.46,18.46,0,0,0-24.82,8.25l-16.55,33.85a296.71,296.71,0,0,0-50.06-9.92l-2.88-37.95a19,19,0,0,0-20-17.35l-64.54,3.8A18.3,18.3,0,0,0,2405.88,889l2.89,38.07a292.47,292.47,0,0,0-48.53,16l-21.77-31.74a19.2,19.2,0,0,0-26.24-5.25l-54,35.47a18.32,18.32,0,0,0-5,25.82l21.84,31.74a292.53,292.53,0,0,0-33.89,38.19l-35-16.88a19.05,19.05,0,0,0-25.4,8.45l-28.59,57.85a18.63,18.63,0,0,0,8.89,25l34.69,16.65a285.77,285.77,0,0,0-9.77,50.32l-38.41,2.59a18.72,18.72,0,0,0-17.63,20l4.89,64.46a19,19,0,0,0,20.46,17.33l38.1-2.69a288,288,0,0,0,17.09,48.76L2179.2,1350a18.46,18.46,0,0,0-5,26l37,53.33a19.2,19.2,0,0,0,26.41,4.88l31.1-20.87a298,298,0,0,0,39.67,33.68l-16.25,33.24a18.47,18.47,0,0,0,8.84,24.86l58.81,27.7A19,19,0,0,0,2385,1524l16-32.94a295.68,295.68,0,0,0,51.28,9.35l2.76,36.41a18.6,18.6,0,0,0,20.11,17l64.44-5.09a18.65,18.65,0,0,0,17.21-19.92l-2.75-36.29a293.55,293.55,0,0,0,48.83-17l20.57,29.9a18.62,18.62,0,0,0,25.81,4.77l52.85-36a18.41,18.41,0,0,0,4.85-25.61l-20.64-30.08a291.49,291.49,0,0,0,33.31-38.71l33,15.83a18.44,18.44,0,0,0,24.6-8.59l27.52-57.13a18.4,18.4,0,0,0-8.61-24.53l-33-16a285.51,285.51,0,0,0,9.18-49.81L2809,1237a18.23,18.23,0,0,0,16.93-19.58l-4.8-63.18A18.52,18.52,0,0,0,2801.44,1137.17Zm-334.08-113.54c103.87-6.6,193.92,71.17,201.69,173.67s-69.59,191.8-173.37,199.52c-104.42,7.77-195.9-69.9-203.76-173.52S2362.86,1030.27,2467.36,1023.63Z" transform="translate(-455 -517.88)"/><path class="cls-8" d="M2862.79,3050.45c20.26,16.38,21.41,28,20.75,33.68-1.05,9.14-7.94,12.69-24.43,29.95-22.31,23.34-18.9,26.46-30.26,34.9-25.07,18.63-60.53,17.4-62.66,11.06-1.51-4.45,14.53-8.07,32.78-29.21a114.88,114.88,0,0,0,24.06-44.49,107.28,107.28,0,0,0,3.63-25.39Z" transform="translate(-455 -517.88)"/><path class="cls-9" d="M2794.93,3000.55l39.9,69.52c9.61,4.26,18.8,2.11,27.32-10.29l-15.57-84.52Z" transform="translate(-455 -517.88)"/><path class="cls-10" d="M2746.56,2108.8c-38.87,65.62-101.92,192.26-114.68,363.51-12.59,169,30,297.84,47.91,345.89,33.47,90,91.66,184.53,125.47,229.58,22.8-9.54,36.22-24.49,59-34-3.42-12.4-14-53.37-20.65-77.78-5.15-18.9-14.66-53.89-16.62-61.36-16.37-62.6-3.44-109.58-8-187-5.25-90.3-25.94-79.81-22.83-134,4.65-80.94,50.51-99.84,103.17-217,36-80.2,73.9-164.43,39.11-210.48C2894.71,2068.13,2761.44,2104.57,2746.56,2108.8Z" transform="translate(-455 -517.88)"/><path class="cls-11" d="M3027.84,3114c12.16,7.73,19.49,26.1,13.95,37.67-5.44,11.37-19.31,7.78-53,18.14-36.1,11.09-43.24,22.3-69.85,22.27-10.75,0-30.24-1.86-31.87-9.09-1.14-5.08,7.13-10.14,34.37-28.44,38.68-26,38.27-26.71,46.91-30.7C2990,3113.88,3011.8,3103.83,3027.84,3114Z" transform="translate(-455 -517.88)"/><path class="cls-12" d="M2970.11,3059l14.81,67.68c2.07,3,23.17,10.27,37.95,0l-5.45-67.68Z" transform="translate(-455 -517.88)"/><path class="cls-13" d="M2938.51,2126.1c-43.8-58-177.07-21.53-192-17.3a845.73,845.73,0,0,0-55,110.81c47.23-9.29,67.73-.85,77.28,10.35,37.08,43.48-79,139.48-55.14,285.16,9.34,57,33.7,82.61,29.24,152.2-3.31,51.78-19.4,78-30.52,115.91a305.48,305.48,0,0,0-12.08,84.52c33.39,73.4,77.27,143.22,104.89,180,22.8-9.54,36.22-24.49,59-34-3.42-12.4-14-53.37-20.65-77.78-5.15-18.9-14.66-53.89-16.62-61.36-16.37-62.6-3.44-109.58-8-187-5.25-90.3-25.94-79.81-22.83-134,4.65-80.94,50.51-99.84,103.17-217C2935.44,2256.38,2973.3,2172.15,2938.51,2126.1Z" transform="translate(-455 -517.88)"/><path class="cls-14" d="M2850.65,2144.37a3395.75,3395.75,0,0,0,108.83,941.76c4.48,2.53,20.2,10.68,40.33,6.86a59.2,59.2,0,0,0,28-13.83,548.68,548.68,0,0,1-4.18-110.22c5-79.8,23.83-96.06,31.89-178.64,7.07-72.41-.38-131.57-4-159-11.12-84.43-26.21-86.17-26.51-136.73-.46-77.87,35.14-105.75,54.71-179.93,13.06-49.49,20-123.37-12.85-224.69Z" transform="translate(-455 -517.88)"/><path class="cls-15" d="M2773.61,1541.89a368.81,368.81,0,0,0-97.52,78.74c-79.05,90.52-127.93,239.48-77.13,288.21,34.57,33.16,116.55,23.11,144.79-16.23,20.77-28.95,5.82-64.49-1.36-115C2734.68,1723.23,2735,1644.38,2773.61,1541.89Z" transform="translate(-455 -517.88)"/><path class="cls-16" d="M3080.57,2126.37c-29.27-385.81-122.59-543.74-114.44-590.62-11.74-8.45-58.14-21.87-163.27-8a174.47,174.47,0,0,0-56.73,34.7,170.55,170.55,0,0,0-13.08,13.89c73.85,13.94,149.08,56,176.16,115.57,46.91,113.92-40.21,241.24,0,341.76,21.13,52.83,54.93,99.65,95.28,143.42C3050.63,2165.55,3082.25,2148.61,3080.57,2126.37Z" transform="translate(-455 -517.88)"/><path class="cls-17" d="M3066.91,2090l-63.31,15.93c11,38,21.64,95.09,8.9,159.87-17.6,89.46-63.08,109.08-69.77,189.75-6,72.57,28.25,87.37,44.65,184.17,16.81,99.19-8.63,145.85-14,228.81-3.64,56.78,2.27,131.06,36.81,221.47a60.27,60.27,0,0,0,17.6-10.79,548.68,548.68,0,0,1-4.18-110.22c5-79.8,23.83-96.06,31.89-178.64,7.07-72.41-.38-131.57-4-159-11.12-84.43-26.21-86.17-26.51-136.73-.46-77.87,35.14-105.75,54.71-179.93C3092.82,2265.15,3099.74,2191.27,3066.91,2090Z" transform="translate(-455 -517.88)"/><path class="cls-18" d="M2746.13,1562.42s-28,25.45-44.28,62.85c-24.57,56.33,1.89,104.69,9.83,196.68,8.71,100.92-3.61,269-32,329.26a14.37,14.37,0,0,0-1.22,7.84c7.67,58.2,408,45,402.11-32.68-29.27-385.81-122.59-543.74-114.44-590.62-11.74-8.45-58.14-21.87-163.27-8A174.47,174.47,0,0,0,2746.13,1562.42Z" transform="translate(-455 -517.88)"/><path class="cls-19" d="M2865.13,1430.84s25.85,81.14,34.22,90.91-33.6,35.29-65.78,23.78c-29.55-10.57,0-55.61,0-55.61Z" transform="translate(-455 -517.88)"/><path class="cls-20" d="M2784.9,1411.89c-10.13-16-8.71-42.36,5.7-58,12.41-13.4,30.28-14,41-14.38,31-1.08,68.73,14.87,79.93,44.23,6.64,17.4-13.45,50.82-16.66,56.86-3.63,6.83-9.39,8.81-14.95,13.74-7.73,6.85-19.83,17.75-39.62,36A126.07,126.07,0,0,0,2835,1469c-1.07-3.11-5.41-15.29-12.61-25.67C2807.93,1422.52,2794.5,1427,2784.9,1411.89Z" transform="translate(-455 -517.88)"/><path class="cls-21" d="M2867.58,1475.91s-22.86,31.5-62.86,25.64c-35.81-5.25-34.57-86.4-10.2-101.68,8.13-5.09,23.69-6.23,35.9-1.72,7.21,2.66,9.46,5.93,21.33,10,10.94,3.8,14.2,2.82,17.35,5.93,3.93,3.89,6.32,12.85-2.63,35.88,7.43-6.4,15.89-8.4,21.51-5.17a12.26,12.26,0,0,1,4.41,5.05C2896.68,1459.52,2887.31,1470.62,2867.58,1475.91Z" transform="translate(-455 -517.88)"/><path class="cls-22" d="M2789.75,1462.53s7.45,4.69,20.94,5c.66,0,1.36.27,1.42.61.21,1.3-8.87,6.32-16.64,3.45-5.51-2-9.46-7.74-8.6-9C2787.24,1462,2788.51,1462.21,2789.75,1462.53Z" transform="translate(-455 -517.88)"/><path class="cls-23" d="M2967.69,1785.71c-43.69,15.34-101.66,58.44-105.55,113.66-6,84.82,120.35,131.36,103.52,190.79-4.59,16.2-19.1,30.82-113.66,65-38.27,13.81-73.82,25.07-106.09,34.39,115.71,17.05,339.07-4.95,334.66-63.13-11.21-147.69-31.8-261.89-52.49-349.35A162.4,162.4,0,0,0,2967.69,1785.71Z" transform="translate(-455 -517.88)"/><path class="cls-24" d="M2830.15,1959.25c71.06,72.14,172.51,94.87,250.5,58.78,108.32-50.12,125.07-192.23,99.82-281.17-42.17-148.48-225.92-235.07-283.81-195.52-41.87,28.61-41.47,139.28,8.42,194.68,44.85,49.8,113.73,37.22,132.47,88,14,38-13.08,76.28-15.41,79.47-30.16,41.28-95.89,55.29-158,26.94Z" transform="translate(-455 -517.88)"/><path class="cls-25" d="M2689.45,1834.92c5.79-18.58,24.59-28.11,39.38-30.17,14.47-2,38.33,1.27,47.83,20.2,8.88,17.7,1.89,42.46-18.53,55.89-2.87-7.13-8-16.51-17.09-19.36-16.68-5.23-31.14,16.51-43.47,10.83C2687.75,1867.78,2685.2,1848.57,2689.45,1834.92Z" transform="translate(-455 -517.88)"/><path class="cls-5" d="M2757.69,1947.6l54.68,9.5A15.17,15.17,0,0,0,2829.8,1939l-19.9-92.51a15.16,15.16,0,0,0-14-12l-65.47-3.51a15.17,15.17,0,0,0-15.1,20.22l30.68,86.5A15.16,15.16,0,0,0,2757.69,1947.6Z" transform="translate(-455 -517.88)"/><path class="cls-26" d="M2853.13,1939.7c-4.49-32.21-18.07-40.64-23-43-8.24-4-12.31-.9-41.07-1.36-25.7-.41-31.79-3-35,1.36-6.16,8.32,6.49,30.2,20.83,43,20.1,18,45,19.53,55.28,19.55Z" transform="translate(-455 -517.88)"/><path class="cls-27" d="M2056,645.67l236.63,2379.89c3.53,35.44-20.87,66.43-54.31,68.87l-1153,96.57c-70.28,2.46-108.21-35.4-112-72.9L716.93,599c-3.85-37.84,31.26-71.33,102.26-69.89l1168.67,49.28C2021.81,579.64,2052.43,609.93,2056,645.67Z" transform="translate(-455 -517.88)"/><path class="cls-28" d="M2108.4,642.64,2346,3034.79c3.54,35.62-21,66.77-54.53,69.23l-1195.33,87.63c-37.32,2.73-71.07-25.87-74.91-63.57L763.73,595.6c-3.87-38,24.08-68,62-66.56L2040,575C2074.09,576.26,2104.83,606.71,2108.4,642.64Z" transform="translate(-455 -517.88)"/><path class="cls-29" d="M2083.24,774.63l220.39,2217.18c3.31,33.28-19.62,62.33-51,64.56l-1124.28,79.92c-34.71,2.46-66.09-24.23-69.66-59.34L821,737.81c-3.6-35.4,22.35-63.45,57.57-62.33l1140.77,36.31C2051.16,712.8,2079.9,741.08,2083.24,774.63Z" transform="translate(-455 -517.88)"/><path class="cls-5" d="M1478.54,628c1.29,12.8-7.74,22.83-20.19,22.41s-23.6-11.15-24.89-24,7.77-22.86,20.23-22.41S1477.26,615.19,1478.54,628Z" transform="translate(-455 -517.88)"/><g class="cls-30"><path class="cls-2" d="M1367.88,1795.66c-118.8-351,88-527.84-29.13-853C1275,765.81,1147.51,634,1007.21,535.91L825.73,529c-37.92-1.43-65.87,28.52-62,66.56l257.53,2532.48c3.84,37.7,37.59,66.3,74.91,63.57l1032-75.65c-3.24-264.43-70.42-452.62-145.13-586.41C1777.72,2162,1490.89,2159.12,1367.88,1795.66Z" transform="translate(-455 -517.88)"/></g><path class="cls-31" d="M2047.85,953.86l533.93,442.3c-459.14,206.47-405.71,837.54-864.85,1044L1183,1997.87C1642.15,1791.4,1588.71,1160.32,2047.85,953.86Z" transform="translate(-455 -517.88)"/><path class="cls-5" d="M2491.77,1388.62c-389.5,219.47-374.82,773.76-764.32,993.24L1273,2005.41c389.5-219.48,374.82-773.77,764.31-993.24Z" transform="translate(-455 -517.88)"/><path class="cls-32" d="M1353.78,1940.68c2,1.66,3.76,3.23,5.58,5l.46.45c20.72,19.93,30.44,45.14,28,69.25-2.06,21.07-13.49,41.22-35.14,56.08a109.34,109.34,0,0,1-10.14,6.11c-13.54,7.29-29.07,12.14-45.54,14.78l-114-94.46a612.12,612.12,0,0,0,130.26-79.21C1327.12,1922.7,1341.79,1930.75,1353.78,1940.68Z" transform="translate(-455 -517.88)"/><path class="cls-33" d="M1818.82,2325.91c12.49,10.35,20.81,21.72,27.78,35.53a612,612,0,0,1-129.67,78.73l-116.68-96.66a151.11,151.11,0,0,1,34-24.36c3.58-1.92,7.25-3.74,11-5.44,55.42-25.43,123.37-25.42,168.69,8.33.18.12.35.26.53.4C1815.89,2323.53,1817.43,2324.76,1818.82,2325.91Z" transform="translate(-455 -517.88)"/><path class="cls-34" d="M2047.85,953.86l114,94.46a151,151,0,0,1-34,24.36c-3.58,1.93-7.24,3.74-10.95,5.45-54.86,25.15-121.81,25.55-167.13-7.18-2.12-1.51-3.85-2.83-5.85-4.48-12-9.93-21.69-22.09-26.4-33.4A612.45,612.45,0,0,1,2047.85,953.86Z" transform="translate(-455 -517.88)"/><path class="cls-35" d="M2465.1,1299.5l116.68,96.66a611.93,611.93,0,0,0-129.66,78.73c-16.88-6-30.61-12.84-43.1-23.19-1.39-1.16-2.88-2.43-4.2-3.66-.16-.15-.33-.29-.48-.44-20.19-18.63-30.56-42.17-30.17-65.21s11.8-45.67,35.4-61.86a109.8,109.8,0,0,1,10.07-6.19C2433.17,1307.06,2448.63,1302.14,2465.1,1299.5Z" transform="translate(-455 -517.88)"/><path class="cls-36" d="M1975.44,1512.71c85.23,70.6,110.41,208.49,61.3,312.16S1874,1951.45,1788,1880.22c-85.23-70.61-110.41-208.49-61.3-312.17S1889.45,1441.47,1975.44,1512.71Z" transform="translate(-455 -517.88)"/><path class="cls-5" d="M1913,1636.45c-15,3.52-30.52,13.71-48.45,34.6l-37.9-31.4,1.48-2.6a126.63,126.63,0,0,1,16.49-22.48,106.84,106.84,0,0,1,10.87-10.16c4.24-3.41,4.24-10.8.1-15L1840,1573.71c-3.27-3.27-8-3.37-11-.27-5.12,5.16-10.17,11-14.8,16.63a232,232,0,0,0-17.55,24.67l-13.25-11c-3.87-3.2-8.94-2.7-11.52,1.6a10.49,10.49,0,0,0,2.51,13.28l13.53,11.21c-10.81,22.32-15.34,43.21-13.27,62.1s10.63,34.76,25.64,47.19q21.78,18,44.18,12.67t46.12-34l42.1,35.08a168.86,168.86,0,0,1-18.65,26.41,153.48,153.48,0,0,1-14.22,14.4c-4.31,3.83-4.38,11.59,0,15.9l20.21,20c3.37,3.32,8.09,3.22,11.15-.1a192.46,192.46,0,0,0,14.45-17.81,263.8,263.8,0,0,0,17.77-28.66c.68-1.27,1.36-2.54,2-3.81l14.42,11.94c3.9,3.22,8.91,2.76,11.14-1.85l.07-.15a11.26,11.26,0,0,0-2.9-13.46l-14.62-12.11c6.94-16.59,10.79-32.45,11.37-47.27a97,97,0,0,0-.92-18.9c-3-20.06-12.16-36.18-27.35-48.76C1942.5,1636.94,1927.94,1633,1913,1636.45Zm-11.17,67.72c6-6.17,12-10.51,17.28-11.55s10.46.46,15.57,4.68a27.41,27.41,0,0,1,9.94,17.13c1.06,6.69-.24,13.81-4.12,21.78Zm-64-9q-7.2,1.74-14-3.86a23.56,23.56,0,0,1-8.49-15.37c-.89-6.31.53-13.91,3.18-20.65l34.81,28.83C1847.64,1690.57,1842.61,1694,1837.8,1695.15Z" transform="translate(-455 -517.88)"/><path class="cls-37" d="M2580.05,1394.72l1.73,1.44c-459.14,206.47-405.71,837.54-864.85,1044q-261.32-216.48-522.64-432.95a668.2,668.2,0,0,1,82.22-3.79,625.68,625.68,0,0,1,111.35,11.93c44.81,8.86,93.82,23.39,148.14,46.35,268.33,113.87,345.44,18,392-143.92,12.77-42.93,23.8-90.18,37.17-138.22,5.89-21.12,12.47-42.41,19.8-63.55,14.38-41.39,31.68-82.22,52.58-120.14,68.34-129.66,188.3-217.41,336.67-213.49a417.55,417.55,0,0,1,82.68,9.61,215.06,215.06,0,0,0,22.83,3.61C2508.57,1398.73,2542.14,1397.51,2580.05,1394.72Z" transform="translate(-455 -517.88)"/><path class="cls-38" d="M2132.39,1489.1c15.93,6.31,24.19,23.18,18.34,37.5l-368.86,907c-6.31,15.42-28.42,26.51-44.85,19.68l-600.89-249.85c-16.09-6.69-22.76-30-16.14-45.09l372-892.73c6.12-14,23.88-20.42,39.47-14.24Z" transform="translate(-455 -517.88)"/><path class="cls-39" d="M2142.21,1471.14c16.05,6.35,24.35,23.36,18.44,37.8L1785,2427.48c-6.35,15.53-25.09,22.61-41.63,15.74l-604.64-251.29c-16.19-6.72-24-24.66-17.31-39.84l375.95-905.71c6.17-14.14,24.05-20.62,39.75-14.4Z" transform="translate(-455 -517.88)"/><g class="cls-40"><path class="cls-2" d="M1688.38,2099.6l-63.65,149.07a14.51,14.51,0,0,1-17.61,7.92l-37.53-12.6a11.94,11.94,0,0,1-7.26-16.27l64.11-149a14.39,14.39,0,0,1,17.48-7.76l37.21,12.55A11.85,11.85,0,0,1,1688.38,2099.6Z" transform="translate(-455 -517.88)"/><path class="cls-2" d="M1772.13,1903.44l-62.48,146.34a14.29,14.29,0,0,1-17.39,7.72L1655.09,2045a11.8,11.8,0,0,1-7.23-16l62.94-146.26a14.16,14.16,0,0,1,17.26-7.56l36.85,12.49A11.7,11.7,0,0,1,1772.13,1903.44Z" transform="translate(-455 -517.88)"/><path class="cls-2" d="M1854.37,1710.84,1793,1854.53a14.07,14.07,0,0,1-17.19,7.52l-36.8-12.47a11.66,11.66,0,0,1-7.2-15.8l61.8-143.61a13.93,13.93,0,0,1,17-7.36l36.49,12.42A11.57,11.57,0,0,1,1854.37,1710.84Z" transform="translate(-455 -517.88)"/><path class="cls-2" d="M1935.12,1521.7l-60.25,141.11a13.84,13.84,0,0,1-17,7.33l-36.45-12.41a11.51,11.51,0,0,1-7.17-15.56l60.68-141c2.67-6.21,10.25-9.43,16.85-7.18l36.14,12.36A11.43,11.43,0,0,1,1935.12,1521.7Z" transform="translate(-455 -517.88)"/></g><path class="cls-41" d="M1508.62,2109.75l-30,70.7c-5.46,12.86-21.2,18.74-35,13.05l-75-31c-13.73-5.67-20.44-20.8-14.93-33.62l30.29-70.4c5.48-12.73,21.14-18.54,34.81-12.92l74.71,30.71C1507.26,2081.91,1514.05,2097,1508.62,2109.75Z" transform="translate(-455 -517.88)"/><path class="cls-42" d="M1499.3,2111.76l-25.79,60.71c-5.06,11.9-19.54,17.3-32.27,12l-64.39-26.61c-12.7-5.25-18.88-19.17-13.79-31l26-60.5c5.06-11.78,19.48-17.13,32.14-11.93l64.18,26.39C1498.09,2086.06,1504.33,2099.93,1499.3,2111.76Zm-133,16.43c-4.39,10.21.93,22.2,11.87,26.72l64.38,26.6c11,4.53,23.44-.12,27.79-10.36l25.8-60.71c4.33-10.19-1-22.13-12-26.62l-64.19-26.4c-10.91-4.48-23.32.12-27.69,10.28Z" transform="translate(-455 -517.88)"/><path class="cls-2" d="M1385.46,2159.7l43.06-100.5Z" transform="translate(-455 -517.88)"/><polygon class="cls-43" points="975.12 1541.98 932.06 1642.48 928.86 1641.16 971.92 1540.67 975.12 1541.98"/><path class="cls-2" d="M1409.66,2169.7l43-100.57Z" transform="translate(-455 -517.88)"/><polygon class="cls-44" points="999.24 1551.91 956.27 1652.48 953.06 1651.16 996.05 1550.59 999.24 1551.91"/><path class="cls-2" d="M1433.89,2179.71l42.91-100.65Z" transform="translate(-455 -517.88)"/><polygon class="cls-45" points="1023.39 1561.84 980.49 1662.49 977.28 1661.17 1020.2 1560.52 1023.39 1561.84"/><path class="cls-46" d="M1479.19,2122.57l-12,28.14c-3,7.15-11.81,10.42-19.47,7.26l-56.2-23.2c-7.64-3.16-11.39-11.58-8.33-18.71l12-28.06c3-7.11,11.79-10.36,19.42-7.22l56.11,23.1C1478.45,2107,1482.23,2115.44,1479.19,2122.57Z" transform="translate(-455 -517.88)"/><path class="cls-47" d="M1480.79,2123.23l-12,28.14c-3.4,8-13.14,11.63-21.71,8.09l-56.2-23.2c-8.55-3.53-12.71-12.88-9.29-20.86l12.05-28.06c3.42-8,13.13-11.56,21.66-8.05l56.1,23.1C1480,2105.91,1484.18,2115.26,1480.79,2123.23Zm-96-6.51c-2.72,6.33.59,13.76,7.37,16.56l56.2,23.19c6.8,2.81,14.53-.07,17.23-6.42l12-28.14c2.7-6.33-.64-13.75-7.43-16.54l-56.1-23.1c-6.78-2.79-14.49.07-17.2,6.39Z" transform="translate(-455 -517.88)"/><path class="cls-48" d="M1755.13,2060.3c-21.91,79.71-41.31,128.25-82.88,174.8-57.1,63.93-128.23,93.07-172.69,106.81l243.77,101.31c16.54,6.87,35.28-.21,41.63-15.74l375.69-918.54c5.91-14.44-2.39-31.45-18.44-37.8l-96.88-38.38c-147.73,100.69-203.49,203.4-226.71,280.39C1790.55,1806.18,1807.16,1871,1755.13,2060.3Z" transform="translate(-455 -517.88)"/><g class="cls-49"><path class="cls-50" d="M1823.43,2102.11l-84.84,205.61a8,8,0,0,1-10.56,4l-34.49-14.26a8,8,0,0,1-4.66-10.25L1774,2081.9c1.59-3.84,6.3-5.6,10.45-3.9l34.26,14C1822.91,2093.71,1825,2098.26,1823.43,2102.11Z" transform="translate(-455 -517.88)"/><path class="cls-51" d="M1987.37,1707.72l-112.9,273.51c-1.61,3.9-6.35,5.69-10.54,4l-34.5-14a7.91,7.91,0,0,1-4.67-10.17l113.3-273.07c1.59-3.81,6.27-5.57,10.42-3.91l34.2,13.72C1986.84,1699.42,1988.94,1703.9,1987.37,1707.72Z" transform="translate(-455 -517.88)"/></g><path class="cls-52" d="M1637,1377.89c41.6,16.55,60.75,64.66,42.89,107.07-17.7,42-65.07,62.46-105.91,46.08s-60.18-63.49-43.23-105.66C1547.8,1382.8,1595.42,1361.36,1637,1377.89Z" transform="translate(-455 -517.88)"/><g class="cls-53"><path class="cls-2" d="M1481.72,2018.58a13.22,13.22,0,0,1-7.14,17.12,12.87,12.87,0,0,1-17-7,13.2,13.2,0,0,1,7.28-17A12.87,12.87,0,0,1,1481.72,2018.58Z" transform="translate(-455 -517.88)"/><path class="cls-2" d="M1544.87,2000.12a4.73,4.73,0,0,1-2.57,2.63,4.92,4.92,0,0,1-6.4-2.61c-15.9-36.66-58.41-54-96-39.19a4.91,4.91,0,0,1-6.39-2.61,4.79,4.79,0,0,1,2.82-6.21c42.41-16.58,90.36,3,108.42,44.27A4.85,4.85,0,0,1,1544.87,2000.12Z" transform="translate(-455 -517.88)"/><path class="cls-2" d="M1527,2007.65a4.79,4.79,0,0,1-2.61,2.66,4.93,4.93,0,0,1-6.44-2.63c-11.6-27.21-43.06-40.06-70.81-28.94a4.92,4.92,0,0,1-6.43-2.62,4.87,4.87,0,0,1,2.82-6.3c32.67-13,69.68,2.11,83.42,34.08A4.88,4.88,0,0,1,1527,2007.65Z" transform="translate(-455 -517.88)"/><path class="cls-2" d="M1508.92,2015.27a4.94,4.94,0,0,1-9.14,0,34.77,34.77,0,0,0-45.34-18.53,4.88,4.88,0,1,1-3.66-9,44.93,44.93,0,0,1,34.06,0,44,44,0,0,1,24.05,23.77A5,5,0,0,1,1508.92,2015.27Z" transform="translate(-455 -517.88)"/></g><path class="cls-54" d="M1666.17,1930.93c0,164.09-128.31,293.17-292.3,288.13-170.66-5.24-314.2-152.63-314.2-329s143.54-304.43,314.2-286.66C1537.86,1620.47,1666.17,1766.85,1666.17,1930.93Z" transform="translate(-455 -517.88)"/><path class="cls-55" d="M1710.48,1916.79c0,164.08-128.31,293.16-292.29,288.13-170.67-5.25-314.2-152.64-314.2-329s143.53-304.42,314.2-286.65C1582.17,1606.32,1710.48,1752.7,1710.48,1916.79Z" transform="translate(-455 -517.88)"/><path class="cls-56" d="M1697.61,1915.92c0,156.86-122.77,280-279.42,275-162.74-5.27-299.38-145.93-299.38-314s136.64-290.3,299.38-273.63C1574.84,1619.32,1697.61,1759.06,1697.61,1915.92Z" transform="translate(-455 -517.88)"/><path class="cls-57" d="M1688.39,1915.3c0,151.68-118.79,270.66-270.2,265.58-157.09-5.28-288.82-141.14-288.82-303.27s131.73-280.23,288.82-264.33C1569.6,1628.62,1688.39,1763.61,1688.39,1915.3Z" transform="translate(-455 -517.88)"/><path class="cls-58" d="M1416.64,1664.89h0a16.51,16.51,0,0,1,14.57,16.2V1709a410.14,410.14,0,0,1,48.41,8.4q17.87,4.2,35.5,10a16.33,16.33,0,0,1,11.12,16.76l-3.43,35a13.13,13.13,0,0,1-18.74,10.9,202,202,0,0,0-23.82-8.88,216.22,216.22,0,0,0-44.92-8.39l-4.12-.34v80c42,11.76,72.91,27.58,92.85,47.48s29.75,44.48,29.75,74.11q0,48.06-32.9,77-33.11,29.18-93.05,32.76v30.83a14,14,0,0,1-14.59,14.24H1413a15.49,15.49,0,0,1-14.64-15.46v-30.4l-6.49-.3A426.74,426.74,0,0,1,1338,2077a352.65,352.65,0,0,1-37.25-8.57,16.06,16.06,0,0,1-11.69-16.6l4-45c.87-9.73,10.65-15.39,19.9-11.74a292.85,292.85,0,0,0,32.76,10.75,286.25,286.25,0,0,0,52.38,8.75l.26-89c-40.34-10-70.55-24.78-90.4-44.36s-29.94-44.86-29.94-75.48q0-47.54,32.46-73.32,32.27-25.62,91.52-25.55v-28.55A13.18,13.18,0,0,1,1416.64,1664.89ZM1402,1771.65q-18.71,1.36-29.16,10.28t-10.46,24q0,14.28,9.68,23.86t29.94,15.27Zm25.85,161.11v81.58q20.34,0,31.21-9.7t10.86-27.46q0-16.18-10.09-26.85T1427.86,1932.76Z" transform="translate(-455 -517.88)"/><path class="cls-59" d="M1369.29,1952.44c9.13-90.16,92-128.33,81.18-211.27-6.66-51.12-45.41-94.2-88.63-127.84-131.1,13.75-232.47,122.3-232.47,264.28,0,162.13,131.73,298,288.82,303.27a272.72,272.72,0,0,0,44.63-2.18C1400.43,2116.62,1361.45,2029.91,1369.29,1952.44Z" transform="translate(-455 -517.88)"/><path class="cls-60" d="M1509.81,1276.86c0,110.51-86.42,197.45-196.87,194.06-114.94-3.53-211.61-102.8-211.61-221.6s96.67-205,211.61-193.06C1423.39,1067.76,1509.81,1166.35,1509.81,1276.86Z" transform="translate(-455 -517.88)"/><path class="cls-61" d="M1539.65,1267.33c0,110.52-86.41,197.45-196.86,194.06-115-3.53-211.62-102.8-211.62-221.6s96.67-205,211.62-193.06C1453.24,1058.23,1539.65,1156.82,1539.65,1267.33Z" transform="translate(-455 -517.88)"/><path class="cls-62" d="M1531,1266.75c0,105.64-82.69,188.61-188.2,185.2-109.61-3.55-201.63-98.29-201.63-211.48s92-195.53,201.63-184.3C1448.3,1067,1531,1161.1,1531,1266.75Z" transform="translate(-455 -517.88)"/><path class="cls-63" d="M1524.78,1266.33c0,102.16-80,182.29-182,178.87-105.8-3.55-194.52-95.06-194.52-204.26s88.72-188.73,194.52-178C1444.77,1073.25,1524.78,1164.17,1524.78,1266.33Z" transform="translate(-455 -517.88)"/><path class="cls-64" d="M1341.74,1097.67h0a11.13,11.13,0,0,1,9.82,10.92v18.81a275.27,275.27,0,0,1,32.6,5.65q12,2.84,23.91,6.74a11,11,0,0,1,7.5,11.28l-2.31,23.59a8.85,8.85,0,0,1-12.63,7.34,135.41,135.41,0,0,0-16-6,145.27,145.27,0,0,0-30.25-5.65l-2.78-.23V1224c28.31,7.92,49.1,18.57,62.54,32s20,30,20,49.92q0,32.37-22.15,51.89-22.31,19.67-62.67,22.07v20.76a9.44,9.44,0,0,1-9.83,9.59h-.17a10.44,10.44,0,0,1-9.87-10.41v-20.48l-4.37-.2a287.81,287.81,0,0,1-36.31-3.87,235.83,235.83,0,0,1-25.09-5.77,10.83,10.83,0,0,1-7.87-11.18l2.72-30.32c.59-6.56,7.17-10.37,13.41-7.91a197.36,197.36,0,0,0,22.06,7.24,194,194,0,0,0,35.28,5.9l.17-59.93q-40.76-10.08-60.88-29.87t-20.17-50.84q0-32,21.87-49.38c14.48-11.5,35.07-17.22,61.63-17.21v-19.23A8.89,8.89,0,0,1,1341.74,1097.67Zm-9.85,71.91q-12.6.92-19.63,6.92t-7,16.17a21.72,21.72,0,0,0,6.52,16.07q6.51,6.45,20.16,10.29Zm17.42,108.51v55q13.7,0,21-6.54t7.31-18.49q0-10.9-6.8-18.09T1349.31,1278.09Z" transform="translate(-455 -517.88)"/><path class="cls-65" d="M1309.86,1291.35c6.15-60.73,62-86.44,54.67-142.3-4.49-34.43-30.58-63.45-59.69-86.1-88.3,9.26-156.57,82.37-156.57,178,0,109.2,88.72,200.7,194.52,204.25a184.05,184.05,0,0,0,30.06-1.47C1330.83,1401.92,1304.57,1343.52,1309.86,1291.35Z" transform="translate(-455 -517.88)"/><path class="cls-66" d="M2146.81,2104.42l65.87,769.08c1.7,19.84-4.32,38.47-17,51.82A65.23,65.23,0,0,1,2153.4,2946l-970.31,81.72c-41.11,3.46-76.32-25.78-79.24-65l-61-818.22c-2.87-38.52,27.68-72,68.55-73.36l964.29-31.37C2112.31,2038.62,2143.71,2068.2,2146.81,2104.42Z" transform="translate(-455 -517.88)"/><path class="cls-67" d="M2196.78,2925.32a66.23,66.23,0,0,1-42.71,20.67l-970.65,81.72c-41.11,3.46-76.65-25.77-79.57-64.95l-61-818.22c-2.87-38.52,27.68-72,68.55-73.36l11.23-.37c4.07,21.12,9.53,44.83,14.75,67.59.72,3.16,1.46,6.58,2.18,9.61,6.05,26.26,11.24,47.86,12.16,50.64,30.26,90.6,73,194.71,163.41,245.36,138.1,77.45,312.95,63.54,458.17,105.95,95.64,27.93,193.82,65.68,269.91,128.86,55.6,46.17,102.51,103.09,130,169.69A463.14,463.14,0,0,1,2196.78,2925.32Z" transform="translate(-455 -517.88)"/><g class="cls-40"><path class="cls-5" d="M2075.79,2912.53h-.05l-33.42,2.06a7.2,7.2,0,0,1-7.48-6.63c-.32-3.79,2.48-6.62,6.28-6.92l33.36-2.21h0c5.71,0,11.28-2.26,16.62-4a6.71,6.71,0,0,1,8.69,4c1.2,3.59-.7,8-4.29,9.17C2089.17,2910.12,2082.6,2912.53,2075.79,2912.53Zm-85.82,5.68-52.61,4.3a6.92,6.92,0,1,1-1.14-13.8l52.61-4.27a6.91,6.91,0,1,1,1.14,13.77Zm-105.53,8.64-53.24,4.35a7,7,0,1,1-1.14-13.88l53.24-4.32a6.95,6.95,0,1,1,1.14,13.85Zm-106.8,8.74-53.87,4.41a7,7,0,1,1-1.13-14l53.87-4.36a7,7,0,1,1,1.13,13.93Zm-108.08,8.84L1615,2948.9a7.05,7.05,0,1,1-1.12-14.06l54.53-4.42a7,7,0,1,1,1.12,14Zm-109.39,9L1505,2957.9a7.1,7.1,0,1,1-1.11-14.14l55.19-4.47a7.07,7.07,0,1,1,1.11,14.1Zm-110.72,9.06-55.87,4.57a7.23,7.23,0,0,1-7.94-6.51,7.31,7.31,0,0,1,6.84-7.72l55.86-4.53a7.12,7.12,0,1,1,1.11,14.19Zm-112.08,9.17-56.56,4.63a7.3,7.3,0,0,1-8-6.55,7.41,7.41,0,0,1,6.94-7.77l56.55-4.58a7.28,7.28,0,0,1,8,6.53A7.35,7.35,0,0,1,1337.37,2971.62Zm-113.45,7.62a7.83,7.83,0,0,1-1.53,0,94.46,94.46,0,0,1-54.79-25.47,7,7,0,0,1,.12-10.22,7.86,7.86,0,0,1,10.73,0,79.16,79.16,0,0,0,45.89,21.37,7.18,7.18,0,0,1,6.51,8A7.52,7.52,0,0,1,1223.92,2979.24Zm910.32-102.71a6.87,6.87,0,0,1-6.28-10.61,70,70,0,0,0,11.37-44.87,6.75,6.75,0,0,1,6.21-7.33,6.9,6.9,0,0,1,7.37,6.29,83.44,83.44,0,0,1-13.54,53.49A6.75,6.75,0,0,1,2134.24,2876.53Zm-984.77,30.73c-4.07.32-7.78-2.33-8.22-6.21-.12-1.06-.34-2-.42-3.06l-3.86-51.6c-.3-4,2.21-7.48,6.39-7.79a6.8,6.8,0,0,1,7.47,6.59l3.87,51.55c.07.9.92,1.69,1,2.59a6.93,6.93,0,0,1-6.36,7.9C1149.26,2907.24,1149.56,2907.25,1149.47,2907.26Zm995.78-105.91c-3.75.28-5.77-2.52-6.09-6.28l-4.39-51.56c-.31-3.76,1.19-7,4.94-7.3s5.77,2.54,6.09,6.29l4.38,51.52C2150.5,2797.77,2149,2801.06,2145.25,2801.35Zm-1004.89-2.85a6.83,6.83,0,0,1-7.48-6.6l-4.08-54.44c-.29-4,2.21-7.44,6.4-7.72a6.84,6.84,0,0,1,7.46,6.62l4.08,54.39C1147,2794.71,1144.54,2798.2,1140.36,2798.5Zm996.13-100.19c-3.75.26-5.77-2.56-6.09-6.31l-4.38-51.46c-.31-3.75,1.19-7,4.94-7.24s5.77,2.58,6.09,6.32l4.37,51.42C2141.74,2694.78,2140.24,2698,2136.49,2698.31Zm-1004.29-8.58a6.88,6.88,0,0,1-7.47-6.65l-4.07-54.32c-.3-4,2.21-7.39,6.39-7.65a6.9,6.9,0,0,1,7.46,6.66l4.07,54.27C1138.88,2686,1136.38,2689.45,1132.2,2689.73Zm995.55-94.25c-3.75.24-5.78-2.6-6.09-6.35l-4.37-51.35c-.32-3.74,1.19-7,4.94-7.18s5.76,2.63,6.08,6.36l4.37,51.31C2133,2592,2131.49,2595.24,2127.75,2595.48Zm-1003.69-14.29a6.93,6.93,0,0,1-7.47-6.68l-4.06-54.21c-.29-3.94,2.21-7.35,6.39-7.58a6.93,6.93,0,0,1,7.45,6.7l4.07,54.14C1130.74,2577.51,1128.24,2580.94,1124.06,2581.19Zm995-88.33c-3.75.22-5.77-2.64-6.09-6.38l-4.35-51.24c-.32-3.74,1.19-6.92,4.93-7.12s5.76,2.66,6.08,6.39l4.36,51.2C2124.27,2489.44,2122.76,2492.64,2119,2492.86Zm-1003.09-20a7,7,0,0,1-7.45-6.72l-4.06-54.08c-.29-3.94,2.21-7.31,6.39-7.52a7,7,0,0,1,7.45,6.74l4,54C1122.61,2469.27,1120.11,2472.65,1115.93,2472.88Zm994.38-82.43c-3.74.2-5.77-2.68-6.08-6.41l-4.35-51.14c-.32-3.72,1.19-6.87,4.94-7.06s5.75,2.71,6.07,6.43l4.35,51.09C2115.56,2387.09,2114.05,2390.25,2110.31,2390.45Zm-1002.48-25.64a7,7,0,0,1-7.45-6.75l-4.05-54c-.29-3.93,2.21-7.27,6.39-7.45a7,7,0,0,1,7.44,6.77l4,53.91C1114.5,2361.25,1112,2364.61,1107.83,2364.81Zm993.79-76.56c-3.74.18-5.76-2.72-6.08-6.44l-4.34-51c-.31-3.72,1.2-6.84,4.94-7s5.75,2.74,6.07,6.46l4.34,51C2106.86,2284.94,2105.36,2288.08,2101.62,2288.25ZM1099.74,2257a7.06,7.06,0,0,1-7.45-6.79l-3-40.51a82.41,82.41,0,0,1,.3-14.49c.39-3.9,4.16-6.63,8.31-6.19s6.48,4,6.09,7.93-1.19,8.1-.88,12.16l3,40.47C1106.41,2253.48,1103.91,2256.8,1099.74,2257ZM2093,2186.26c-3.74.16-5.77-2.76-6.08-6.47l-.84-9.87c-1.07-12.59-6.55-24.77-13.92-35.27-2.19-3.11-2-7.26,1.06-9.29s6.79-1.11,9,2a85.48,85.48,0,0,1,14.89,42.08l.83,9.86C2098.19,2183,2096.68,2186.11,2093,2186.26Zm-971.88-30.47a8.07,8.07,0,0,1-5.73-2.1,6.79,6.79,0,0,1-.27-10,92.28,92.28,0,0,1,54.07-24.64,7.8,7.8,0,0,1,8.51,6.25,6.9,6.9,0,0,1-6.35,7.8,77.27,77.27,0,0,0-45.3,20.68A7.53,7.53,0,0,1,1121.07,2155.79Zm914.79-48.88a7,7,0,0,1-2.48-.37,72.94,72.94,0,0,0-25.83-3.73l-23.19.83a7.22,7.22,0,0,1-7.42-6.5,6.42,6.42,0,0,1,6.28-7l23.2-.82a87.17,87.17,0,0,1,30.79,4.48,7,7,0,0,1,4.64,8.56A6.43,6.43,0,0,1,2035.86,2106.91Zm-103.52-1.4-52.32,1.88a7.27,7.27,0,0,1-7.49-6.54,6.48,6.48,0,0,1,6.36-7l52.32-1.84a7.24,7.24,0,0,1,7.44,6.52A6.44,6.44,0,0,1,1932.34,2105.51Zm-104.95,3.77-53,1.91a7.32,7.32,0,0,1-7.56-6.58,6.56,6.56,0,0,1,6.45-7.08l52.93-1.86a7.31,7.31,0,0,1,7.53,6.56A6.52,6.52,0,0,1,1827.39,2109.28Zm-106.2,3.82-53.58,1.93a7.38,7.38,0,0,1-7.64-6.62,6.62,6.62,0,0,1,6.53-7.12l53.57-1.88a7.34,7.34,0,0,1,7.6,6.59A6.58,6.58,0,0,1,1721.19,2113.1ZM1613.72,2117l-54.21,1.94a7.44,7.44,0,0,1-7.73-6.65,6.7,6.7,0,0,1,6.63-7.16l54.21-1.91a7.42,7.42,0,0,1,7.68,6.63A6.67,6.67,0,0,1,1613.72,2117Zm-108.75,3.9-54.87,2a7.52,7.52,0,0,1-7.81-6.7,6.76,6.76,0,0,1,6.72-7.2l54.86-1.93a7.46,7.46,0,0,1,7.76,6.67A6.72,6.72,0,0,1,1505,2120.87Zm-110.07,4-55.53,2a7.56,7.56,0,0,1-7.89-6.73,6.84,6.84,0,0,1,6.81-7.26l55.53-2a7.53,7.53,0,0,1,7.84,6.71A6.79,6.79,0,0,1,1394.9,2124.83Zm-111.4,4-56.21,2a7.64,7.64,0,0,1-8-6.78,6.92,6.92,0,0,1,6.9-7.3l56.21-2a7.59,7.59,0,0,1,7.93,6.75A6.88,6.88,0,0,1,1283.5,2128.84Z" transform="translate(-455 -517.88)"/></g><path class="cls-68" d="M2185.91,2316.22a20.8,20.8,0,0,0-19.17-1.51l-197.31,84.42c-28.31,12.23-47.63,40.9-45.07,71.73l6.81,81.95c2.73,32.81,29.26,60.23,61.77,67.39l204.19,44.71a21.24,21.24,0,0,0,18.35-4.58,20.81,20.81,0,0,0,7.19-17.27L2196,2332.82A21.47,21.47,0,0,0,2185.91,2316.22Z" transform="translate(-455 -517.88)"/><path class="cls-69" d="M2055.56,2502.53a40.19,40.19,0,0,1-37.94,43.58c-22.94,1.4-43.13-15.94-45-38.72a40.17,40.17,0,0,1,38.13-43.56C2033.59,2462.54,2053.64,2479.86,2055.56,2502.53Z" transform="translate(-455 -517.88)"/></g></g></svg>