<svg xmlns="http://www.w3.org/2000/svg" xmlns:xlink="http://www.w3.org/1999/xlink" viewBox="0 0 556.19 683.45"><defs><style>.cls-1{fill:url(#linear-gradient);}.cls-2{fill:url(#linear-gradient-2);}.cls-3{fill:url(#linear-gradient-3);}.cls-4{fill:url(#linear-gradient-4);}.cls-5{fill:url(#linear-gradient-5);}.cls-6{fill:url(#linear-gradient-6);}.cls-7{fill:url(#linear-gradient-7);}.cls-8{fill:url(#linear-gradient-8);}.cls-9{fill:url(#linear-gradient-9);}.cls-10{fill:url(#linear-gradient-10);}.cls-11{fill:url(#linear-gradient-11);}.cls-12{fill:none;}.cls-13{fill:#c2b8db;}.cls-14{mask:url(#mask);}.cls-15{clip-path:url(#clip-path);}.cls-16{fill:#7a5ca2;}.cls-17{fill:#795ba2;}.cls-18{fill:#785aa1;}.cls-19{fill:#7759a1;}.cls-20{fill:#7759a0;}.cls-21{fill:#7758a0;}.cls-22{fill:#76579f;}.cls-23{fill:#75569e;}.cls-24{fill:#74569d;}.cls-25{fill:#74559d;}.cls-26{fill:#73549c;}.cls-27{fill:#72539c;}.cls-28{fill:#71529b;}.cls-29{fill:#71519a;}.cls-30{fill:#70519a;}.cls-31{fill:#6f5099;}.cls-32{fill:#6e4f98;}.cls-33{fill:#6e4e98;}.cls-34{fill:#6d4d97;}.cls-35{fill:#6c4d96;}.cls-36{fill:#6b4c96;}.cls-37{fill:#6b4b95;}.cls-38{fill:#6a4a95;}.cls-39{fill:#694994;}.cls-40{fill:#684893;}.cls-41{fill:#674892;}.cls-42{fill:#674792;}.cls-43{fill:#664691;}.cls-44{fill:#654591;}.cls-45{fill:#654590;}.cls-46{fill:#65448f;}.cls-47{fill:#64428f;}.cls-48{fill:#63428e;}.cls-49{fill:#63418d;}.cls-50{fill:#62408d;}.cls-51{fill:#61408c;}.cls-52{fill:#613f8c;}.cls-53{fill:#603e8b;}.cls-54{fill:#5f3d8b;}.cls-55{fill:#5e3d8a;}.cls-56{fill:#5e3c89;}.cls-57{fill:#5d3b89;}.cls-58{fill:#5c3b88;}.cls-59{fill:#5b3a88;}.cls-60{fill:#5b3a87;}.cls-61{fill:#5a3987;}.cls-62{fill:#593887;}.cls-63{fill:#583886;}.cls-64{fill:#583785;}.cls-65{fill:#573785;}.cls-66{fill:#563684;}.cls-67{fill:#7561ab;}.cls-68{fill:#3f3574;}.cls-69{fill:#fff;}.cls-70{fill:#35285a;}.cls-71{fill:#f5b691;}.cls-72{mask:url(#mask-2);}.cls-73{fill:#f2987c;}.cls-74{mask:url(#mask-3);}.cls-75{mask:url(#mask-4);}.cls-76{fill:#323366;}.cls-77{mask:url(#mask-5);}.cls-78{mask:url(#mask-6);}.cls-79{mask:url(#mask-7);}.cls-80{mask:url(#mask-8);}.cls-81{fill:#ef805c;}.cls-82{mask:url(#mask-9);}.cls-83{fill:#f2957a;}.cls-84{mask:url(#mask-10);}.cls-85{fill:#332657;}.cls-86{mask:url(#mask-11);}</style><linearGradient id="linear-gradient" x1="400" y1="724.05" x2="400" y2="25.17" gradientUnits="userSpaceOnUse"><stop offset="0.07" stop-color="#1d1d1b"/><stop offset="0.89" stop-color="#f5f5f5"/></linearGradient><linearGradient id="linear-gradient-2" x1="524.38" y1="575.55" x2="555.31" y2="575.55" gradientUnits="userSpaceOnUse"><stop offset="0" stop-color="#fff"/><stop offset="1"/></linearGradient><linearGradient id="linear-gradient-3" x1="435.67" y1="435.91" x2="434.8" y2="423.1" xlink:href="#linear-gradient-2"/><linearGradient id="linear-gradient-4" x1="379" y1="471.14" x2="380.24" y2="430.95" xlink:href="#linear-gradient-2"/><linearGradient id="linear-gradient-5" x1="359.68" y1="460.33" x2="346.01" y2="425.86" xlink:href="#linear-gradient-2"/><linearGradient id="linear-gradient-6" x1="349.53" y1="536.64" x2="363.61" y2="578.55" xlink:href="#linear-gradient-2"/><linearGradient id="linear-gradient-7" x1="317.15" y1="499.79" x2="338.13" y2="604.71" xlink:href="#linear-gradient-2"/><linearGradient id="linear-gradient-8" x1="310.79" y1="695.57" x2="247.41" y2="738.01" xlink:href="#linear-gradient-2"/><linearGradient id="linear-gradient-9" x1="463.52" y1="445.88" x2="465.1" y2="476.67" xlink:href="#linear-gradient-2"/><linearGradient id="linear-gradient-10" x1="452.79" y1="437.7" x2="445.35" y2="500" xlink:href="#linear-gradient-2"/><linearGradient id="linear-gradient-11" x1="483.75" y1="470.45" x2="476.13" y2="410.71" xlink:href="#linear-gradient-2"/><mask id="mask" x="0" y="158" width="556.19" height="512.14" maskUnits="userSpaceOnUse"><g transform="translate(-121.9 -68.52)"><rect class="cls-1" x="121.9" y="226.52" width="556.19" height="512.14"/></g></mask><clipPath id="clip-path" transform="translate(-121.9 -68.52)"><path class="cls-12" d="M570,125.87c21.28,28.51,30.85,65.32,27.06,100.65H121.9c16.7-28.52,51-46,84-42a103.71,103.71,0,0,1,135.58-56.29C367.22,92.13,410.78,69.42,455.12,69S543.48,90.31,570,125.87Z"/></clipPath><mask id="mask-2" x="402.48" y="488.96" width="30.93" height="36.14" maskUnits="userSpaceOnUse"><g transform="translate(-121.9 -68.52)"><path class="cls-2" d="M532.59,563.63c-1.85-2-3.44-4.26-5.4-6.15a61.68,61.68,0,0,1-2.81,12.29c.12.38.24.76.37,1.13A45.45,45.45,0,0,0,529,580a9.87,9.87,0,0,0,2.34,2.87,3.83,3.83,0,0,0,3.52.69,59.36,59.36,0,0,0-2.37-9.76,45.85,45.85,0,0,0,9.05,11.45,10.94,10.94,0,0,0,.65,2.18,9.13,9.13,0,0,0,4.33,4.28,20.47,20.47,0,0,0,5.93,1.79,2.12,2.12,0,0,0,1.59-.12,2.17,2.17,0,0,0,.77-1.53,30.78,30.78,0,0,0,.45-6.57,94.89,94.89,0,0,0-5.58-13.14A27.39,27.39,0,0,1,532.59,563.63Z"/></g></mask><mask id="mask-3" x="249.63" y="359.11" width="15.31" height="50.79" maskUnits="userSpaceOnUse"><g transform="translate(-121.9 -68.52)"><path class="cls-4" d="M385.64,466.11l.09.09c-.16,1.31-.36,2.62-.58,3.93-4.67,2.54-9.21,5.29-13.62,8.29a395.3,395.3,0,0,0,10.17-50.08c1.05-.19,2.11-.43,3.15-.72a123.24,123.24,0,0,1,.9,38.43A.29.29,0,0,0,385.64,466.11Z"/></g></mask><mask id="mask-4" x="208.19" y="363.02" width="37.08" height="32.22" maskUnits="userSpaceOnUse"><g transform="translate(-121.9 -68.52)"><path class="cls-5" d="M367.17,431.53v0a149.46,149.46,0,0,1-8.3,32.2c-4-6.75-8.12-13.54-13.45-19.33a42.74,42.74,0,0,0-15.32-11A145.24,145.24,0,0,0,367.17,431.53Z"/></g></mask><mask id="mask-5" x="216.45" y="463.82" width="28.83" height="61.44" maskUnits="userSpaceOnUse"><g transform="translate(-121.9 -68.52)"><path class="cls-6" d="M367.19,559.83c-1.07,11.31-2.26,22.62-3.42,33.95a460.73,460.73,0,0,1-24.71-58.92,18.5,18.5,0,0,1-.71-2.52c.86.85,1.72,1.68,2.58,2.52C349.56,543.3,358.21,551.77,367.19,559.83Z"/></g></mask><mask id="mask-6" x="173.37" y="421.43" width="68.5" height="152.22" maskUnits="userSpaceOnUse"><g transform="translate(-121.9 -68.52)"><path class="cls-7" d="M338.35,532.34l-42.8-42.4s-7,106.21,48.94,144.4l.8-.4a7.35,7.35,0,0,1,.3,1.14,74.1,74.1,0,0,0,13.7,7.08q1.11-14.62,2.56-29.26c.61-6.38,1.28-12.74,1.92-19.12q-3.78-7.53-7.29-15.19h0a456.43,456.43,0,0,1-17.42-43.73A18.5,18.5,0,0,1,338.35,532.34Z"/></g></mask><mask id="mask-7" x="132.55" y="636.23" width="85.25" height="26.3" maskUnits="userSpaceOnUse"><g transform="translate(-121.9 -68.52)"><path class="cls-8" d="M254.46,704.75c.55,1,1.14,2,1.74,3a67.89,67.89,0,0,0,24,23.34,179.52,179.52,0,0,0,59.46-26.3Z"/></g></mask><mask id="mask-8" x="335.5" y="376.66" width="13.8" height="28.53" maskUnits="userSpaceOnUse"><g transform="translate(-121.9 -68.52)"><path class="cls-9" d="M471.21,464.68a26.5,26.5,0,0,1-9.51-19.47,8.67,8.67,0,0,1-3.89,0A114.54,114.54,0,0,0,459,473.7c1.06-.7,2.13-1.41,3.2-2.14A104.29,104.29,0,0,0,471.21,464.68Z"/></g></mask><mask id="mask-9" x="315.99" y="373.15" width="21.09" height="42.07" maskUnits="userSpaceOnUse"><g transform="translate(-121.9 -68.52)"><path class="cls-10" d="M457.81,445.17a20.45,20.45,0,0,1-3.91-1.32c-2.41-1-4.94-2.21-7.5-2.18a91.28,91.28,0,0,0-8.51,38.05l2.26-1a29,29,0,0,0,.81,3.14,2.62,2.62,0,0,0,4.06,1.32l.39-.3c4.22-3.21,8.85-6.09,13.57-9.21A114.54,114.54,0,0,1,457.81,445.17Z"/></g></mask><mask id="mask-10" x="339.95" y="327.96" width="29.86" height="77.83" maskUnits="userSpaceOnUse"><g transform="translate(-121.9 -68.52)"><path class="cls-11" d="M486.88,416.58c-4.33-8.89-12-16.32-21.48-19.23a31.19,31.19,0,0,0-3.55-.88,47.47,47.47,0,0,1,11.76,17.35c4.24,10.66,5.1,22.38,4.63,33.84-.28,6.57-1,13.11-1.66,19.64a26.18,26.18,0,0,0,6.75,7l.23-.33c3.77-9.13,6.84-18.65,7.82-28.49S491.21,425.46,486.88,416.58Z"/></g></mask><mask id="mask-11" x="308.63" y="354.72" width="9.21" height="9.32" maskUnits="userSpaceOnUse"><g transform="translate(-121.9 -68.52)"><path class="cls-3" d="M438.89,425a5.19,5.19,0,0,1,.66,4.3,9.72,9.72,0,0,1-1.69,3.31,3.69,3.69,0,0,0-2.37-1.91,3.79,3.79,0,0,0-3.85,1.36,6.22,6.22,0,0,1-.92-5,5.18,5.18,0,0,1,3.49-3.61A4.43,4.43,0,0,1,438.89,425Z"/></g></mask></defs><title>sad-man</title><g id="Layer_3" data-name="Layer 3"><path class="cls-13" d="M143.08,212.83v71.75h1.5V211.73Z" transform="translate(-121.9 -68.52)"/><g class="cls-14"><rect class="cls-13" y="158" width="556.19" height="512.14"/></g><rect class="cls-13" x="64.76" y="184.36" width="1.5" height="90.01"/><rect class="cls-13" x="306.35" y="147.09" width="1.5" height="90.01"/><rect class="cls-13" x="202.97" y="233.75" width="1.5" height="90.01"/><rect class="cls-13" x="45.38" y="330.57" width="1.5" height="90.01"/><rect class="cls-13" x="103.74" y="241.52" width="1.5" height="90.01"/><rect class="cls-13" x="250.96" y="184.36" width="1.5" height="90.01"/><rect class="cls-13" x="153.2" y="300.94" width="1.5" height="90.01"/><rect class="cls-13" x="153.2" y="139.36" width="1.5" height="90.01"/><rect class="cls-13" x="439.85" y="184.36" width="1.5" height="90.01"/><rect class="cls-13" x="396.26" y="126.05" width="1.5" height="90.01"/><rect class="cls-13" x="420.47" y="330.57" width="1.5" height="90.01"/><rect class="cls-13" x="478.83" y="241.52" width="1.5" height="90.01"/><rect class="cls-13" x="528.29" y="300.94" width="1.5" height="90.01"/><rect class="cls-13" x="528.29" y="139.36" width="1.5" height="90.01"/><rect class="cls-13" x="364.33" y="272.33" width="1.5" height="90.01"/><rect class="cls-13" x="67.38" y="492.18" width="1.5" height="90.01"/><rect class="cls-13" x="308.97" y="454.9" width="1.5" height="90.01"/><rect class="cls-13" x="23.79" y="433.87" width="1.5" height="90.01"/><rect class="cls-13" x="205.58" y="541.56" width="1.5" height="90.01"/><rect class="cls-13" x="47.99" y="638.39" width="1.5" height="34.07"/><rect class="cls-13" x="106.36" y="549.33" width="1.5" height="90.01"/><rect class="cls-13" x="253.57" y="492.18" width="1.5" height="90.01"/><rect class="cls-13" x="155.81" y="608.75" width="1.5" height="63.7"/><rect class="cls-13" x="155.81" y="447.17" width="1.5" height="90.01"/><rect class="cls-13" x="442.47" y="492.18" width="1.5" height="90.01"/><rect class="cls-13" x="398.88" y="433.87" width="1.5" height="90.01"/><rect class="cls-13" x="423.08" y="638.39" width="1.5" height="39.8"/><rect class="cls-13" x="481.45" y="409.9" width="1.5" height="90.01"/><rect class="cls-13" x="530.9" y="608.75" width="1.5" height="61.4"/><rect class="cls-13" x="530.9" y="447.17" width="1.5" height="90.01"/><rect class="cls-13" x="366.95" y="580.14" width="1.5" height="90.01"/><g class="cls-15"><rect class="cls-16" width="115.94" height="158"/><rect class="cls-16" x="115.94" width="7.06" height="158"/><rect class="cls-17" x="123" width="7.06" height="158"/><rect class="cls-18" x="130.06" width="7.06" height="158"/><rect class="cls-19" x="137.12" width="7.06" height="158"/><rect class="cls-20" x="144.18" width="7.06" height="158"/><rect class="cls-21" x="151.24" width="7.06" height="158"/><rect class="cls-22" x="158.3" width="7.06" height="158"/><rect class="cls-23" x="165.36" width="7.06" height="158"/><rect class="cls-24" x="172.41" width="7.06" height="158"/><rect class="cls-25" x="179.47" width="7.06" height="158"/><rect class="cls-26" x="186.53" width="7.06" height="158"/><rect class="cls-27" x="193.59" width="7.06" height="158"/><rect class="cls-28" x="200.65" width="7.06" height="158"/><rect class="cls-29" x="207.71" width="7.06" height="158"/><rect class="cls-30" x="214.77" width="7.06" height="158"/><rect class="cls-31" x="221.83" width="7.06" height="158"/><rect class="cls-32" x="228.89" width="7.06" height="158"/><rect class="cls-33" x="235.95" width="7.06" height="158"/><rect class="cls-34" x="243.01" width="7.06" height="158"/><rect class="cls-35" x="250.07" width="7.06" height="158"/><rect class="cls-36" x="257.13" width="7.06" height="158"/><rect class="cls-37" x="264.19" width="7.06" height="158"/><rect class="cls-38" x="271.25" width="7.06" height="158"/><rect class="cls-39" x="278.3" width="7.06" height="158"/><rect class="cls-40" x="285.36" width="7.06" height="158"/><rect class="cls-41" x="292.42" width="7.06" height="158"/><rect class="cls-42" x="299.48" width="7.06" height="158"/><rect class="cls-43" x="306.54" width="7.06" height="158"/><rect class="cls-44" x="313.6" width="7.06" height="158"/><rect class="cls-45" x="320.66" width="7.06" height="158"/><rect class="cls-46" x="327.72" width="7.06" height="158"/><rect class="cls-47" x="334.78" width="7.06" height="158"/><rect class="cls-48" x="341.84" width="7.06" height="158"/><rect class="cls-49" x="348.9" width="7.06" height="158"/><rect class="cls-50" x="355.96" width="7.06" height="158"/><rect class="cls-51" x="363.02" width="7.06" height="158"/><rect class="cls-52" x="370.08" width="7.06" height="158"/><rect class="cls-53" x="377.14" width="7.06" height="158"/><rect class="cls-54" x="384.19" width="7.06" height="158"/><rect class="cls-55" x="391.25" width="7.06" height="158"/><rect class="cls-56" x="398.31" width="7.06" height="158"/><rect class="cls-57" x="405.37" width="7.06" height="158"/><rect class="cls-58" x="412.43" width="7.06" height="158"/><rect class="cls-59" x="419.49" width="7.06" height="158"/><rect class="cls-60" x="426.55" width="7.06" height="158"/><rect class="cls-61" x="433.61" width="7.06" height="158"/><rect class="cls-62" x="440.67" width="7.06" height="158"/><rect class="cls-63" x="447.73" width="7.06" height="158"/><rect class="cls-64" x="454.79" width="7.06" height="158"/><rect class="cls-65" x="461.85" width="7.06" height="158"/><rect class="cls-66" x="468.91" width="7.06" height="158"/><rect class="cls-66" x="475.97" width="2.98" height="158"/></g><path class="cls-67" d="M678.1,226.52h-401a146.82,146.82,0,0,1,172.07-51.33c14.44-33.46,47.92-57.26,84-62.23s73.73,8.17,100.6,32.79C656.81,166.85,672,195.82,678.1,226.52Z" transform="translate(-121.9 -68.52)"/><path class="cls-13" d="M226.4,741c115.22,16.66,250.51,12.52,393.89,0Z" transform="translate(-121.9 -68.52)"/><path class="cls-68" d="M474.07,462.55c-.12,1.32-.23,2.64-.33,4a18.75,18.75,0,0,1-2.53-1.84,26.5,26.5,0,0,1-9.51-19.47c-2.52.63-5.34-.29-7.8-1.36-2.86-1.23-5.9-2.68-8.95-2-1.54.31-3.12,1.15-4.59.6a3,3,0,0,1-1.68-3.34,3.7,3.7,0,0,1,2.76-2.69l.08.1a10.36,10.36,0,1,0-16.59-6.65,9.87,9.87,0,0,0,1.77,4.35,20.55,20.55,0,0,1-27.3-12.45c3.39-1.79,6.67-3.79,9.89-5.85,8.58-5.51,16.95-11.51,26.3-15.56s20.07-6,29.81-3c9.45,2.91,17.15,10.34,21.48,19.23s5.49,19.09,4.5,28.91-4.05,19.36-7.82,28.49l-.23.33A26.69,26.69,0,0,1,474.07,462.55Z" transform="translate(-121.9 -68.52)"/><path class="cls-69" d="M385.64,466.11l.09.09c-.16,1.31-.36,2.62-.58,3.93-4.67,2.54-9.21,5.29-13.62,8.29a395.3,395.3,0,0,0,10.17-50.08c1.05-.19,2.11-.43,3.15-.72a123.24,123.24,0,0,1,.9,38.43A.29.29,0,0,0,385.64,466.11Z" transform="translate(-121.9 -68.52)"/><path class="cls-68" d="M367.17,431.53v0a149.46,149.46,0,0,1-8.3,32.2c-4-6.75-8.12-13.54-13.45-19.33a42.74,42.74,0,0,0-15.32-11A145.24,145.24,0,0,0,367.17,431.53Z" transform="translate(-121.9 -68.52)"/><path class="cls-70" d="M506.06,544.37c-11.45-.86-24.23-1.79-36.81-2.69l.05-.62c-.57-1.4-1.14-2.8-1.72-4.2q-8.65-21-17.28-42.05l21-10.59q13.14,18.27,26.28,36.55c2.83,3.94,5.69,7.93,7.39,12.47A20.31,20.31,0,0,1,506.06,544.37Z" transform="translate(-121.9 -68.52)"/><path class="cls-68" d="M469.77,616.6Q438.38,654.16,407,691.74c-10.82,13-21.72,26-34.91,36.5S342.84,739.82,326,741H313.82c-23.57-1.57-44.92-12.68-57.62-33.26-.6-1-1.19-2-1.74-3H357.31c-.8-30.44,1.54-61.13,4.54-91.85l25.66-16.78q65.61-6.68,131.18-13.37c10.65,18,41.5,92.7,63.61,131.67l35.9,14.89a8.82,8.82,0,0,1,4.52,1.73,7.91,7.91,0,0,1,2.67,3.79c.92,2.69-1.94,6.14-5.1,6.14h-60C547.65,723.38,497.37,653.51,469.77,616.6Z" transform="translate(-121.9 -68.52)"/><path class="cls-69" d="M462.18,471.56q4.54,6.33,9.1,12.66l-21,10.59c-1.64-4-3.26-7.93-4.89-11.9C450.59,479,456.36,475.56,462.18,471.56Z" transform="translate(-121.9 -68.52)"/><path class="cls-71" d="M561.73,589.75a1.52,1.52,0,0,1-.05,1,1.06,1.06,0,0,1-1.38.31,3.19,3.19,0,0,1-1.12-1.1l-3.92-5.56a30.59,30.59,0,0,1-.42,7.46,2.17,2.17,0,0,1-.77,1.53,2.12,2.12,0,0,1-1.59.12,20.47,20.47,0,0,1-5.93-1.79,9.13,9.13,0,0,1-4.33-4.28,10.94,10.94,0,0,1-.65-2.18,45.85,45.85,0,0,1-9.05-11.45,59.36,59.36,0,0,1,2.37,9.76,3.83,3.83,0,0,1-3.52-.69A9.87,9.87,0,0,1,529,580a45.45,45.45,0,0,1-4.28-9.12c-.13-.37-.25-.75-.37-1.13a62.31,62.31,0,0,0,3.23-23.26c.44.12.89.22,1.33.33a235.27,235.27,0,0,1,26.74,19.25S560.33,581.85,561.73,589.75Z" transform="translate(-121.9 -68.52)"/><path class="cls-69" d="M516.2,545.12l8.52.65,2.89.74a62.31,62.31,0,0,1-3.23,23.26c-.12.36-.24.73-.38,1.09a53.47,53.47,0,0,1-5.38-.47A220.26,220.26,0,0,0,516.2,545.12Z" transform="translate(-121.9 -68.52)"/><path class="cls-71" d="M426.7,434.18a9.87,9.87,0,0,1-1.77-4.35,10.36,10.36,0,1,1,16.59,6.65l-.08-.1a3.7,3.7,0,0,0-2.76,2.69,3,3,0,0,0,1.68,3.34c1.47.55,3.05-.29,4.59-.6,3.05-.64,6.09.81,8.95,2,2.46,1.07,5.28,2,7.8,1.36a26.5,26.5,0,0,0,9.51,19.47,104.29,104.29,0,0,1-9,6.88c-5.82,4-11.59,7.41-16.77,11.35l-.39.3a2.62,2.62,0,0,1-4.06-1.32,29,29,0,0,1-.81-3.14c-1.62.7-9.82,4.24-13.75,5.49-4.36,1.36-9.56,1.49-13-1.48-3.12-2.66-4-7-4.86-11q-1.53-7.47-3.61-14.83l-19.13,9.16a123.24,123.24,0,0,0-.9-38.43,66,66,0,0,0,14.55-5.89,20.55,20.55,0,0,0,27.3,12.45Z" transform="translate(-121.9 -68.52)"/><path class="cls-67" d="M367.19,559.83c-1.07,11.31-2.26,22.62-3.42,33.95a460.73,460.73,0,0,1-24.71-58.92,18.5,18.5,0,0,1-.71-2.52c.86.85,1.72,1.68,2.58,2.52C349.56,543.3,358.21,551.77,367.19,559.83Z" transform="translate(-121.9 -68.52)"/><path class="cls-67" d="M381.7,428.34a395.3,395.3,0,0,1-10.17,50.08c-.36,1.32-.72,2.64-1.09,4q-5-7.74-9.81-15.69l-1.76-2.95a149.46,149.46,0,0,0,8.3-32.2v0a138.67,138.67,0,0,0,14.56-3.43A1.75,1.75,0,0,1,381.7,428.34Z" transform="translate(-121.9 -68.52)"/><path class="cls-70" d="M385.73,466.2c5.16,5.27,48.09,48.79,81.85,70.66.58,1.4,1.15,2.8,1.72,4.2l-.05.62c-22.63-1.63-44.64-3.18-57.18-4a505,505,0,0,1-41.63-55.24c.37-1.33.73-2.65,1.09-4,4.41-3,9-5.75,13.62-8.29C385.37,468.82,385.57,467.51,385.73,466.2Z" transform="translate(-121.9 -68.52)"/><path class="cls-70" d="M518.69,582.75q-65.58,6.71-131.18,13.37,11.33-7.39,22.65-14.8L510.44,573a78,78,0,0,1,6.19,6.69A26.08,26.08,0,0,1,518.69,582.75Z" transform="translate(-121.9 -68.52)"/><path class="cls-67" d="M345.29,633.94a10.91,10.91,0,0,1-1.49,9.2c-2.09,3.24-5.33,5.51-8.5,7.67-4,2.7-8,5.37-12.18,7.73a0,0,0,0,0,0,0,21.75,21.75,0,0,1-10.36.15,14.49,14.49,0,0,1-8.6-6Q325.14,644.33,345.29,633.94Z" transform="translate(-121.9 -68.52)"/><path class="cls-68" d="M323.12,658.54c4.18-2.36,8.19-5,12.18-7.73,3.17-2.16,6.41-4.43,8.5-7.67a10.91,10.91,0,0,0,1.49-9.2q-20.13,10.38-41.15,18.8a14.49,14.49,0,0,0,8.6,6,21.75,21.75,0,0,0,10.36-.15A0,0,0,0,1,323.12,658.54ZM510.44,573l-100.28,8.36-6.67.56A20.73,20.73,0,0,1,389,577.61c-6.44-5-16.18-12.68-21.84-17.78-9-8.06-17.63-16.53-26.26-25-.86-.84-1.72-1.67-2.58-2.52a18.5,18.5,0,0,0,.71,2.52,460.73,460.73,0,0,0,24.71,58.92c-.64,6.38-1.31,12.74-1.92,19.12-3,30.72-5.34,61.41-4.54,91.85H240.14c-11.93-53-9.3-108.72,3.23-161.58,5.58-23.53,13.24-46.9,26.43-67.15,12-18.42,31.63-41.66,53.92-44.38a28.67,28.67,0,0,1,6.38,1.79,42.74,42.74,0,0,1,15.32,11c5.33,5.79,9.42,12.58,13.45,19.33l1.76,2.95q4.75,7.94,9.81,15.69a505,505,0,0,0,41.63,55.24c12.54.87,34.55,2.42,57.18,4,12.58.9,25.36,1.83,36.81,2.69,3.52.25,6.92.51,10.14.75a220.26,220.26,0,0,1,2.42,25.27q.06.95.06,1.89Z" transform="translate(-121.9 -68.52)"/><g class="cls-72"><path class="cls-73" d="M532.59,563.63c-1.85-2-3.44-4.26-5.4-6.15a61.68,61.68,0,0,1-2.81,12.29c.12.38.24.76.37,1.13A45.45,45.45,0,0,0,529,580a9.87,9.87,0,0,0,2.34,2.87,3.83,3.83,0,0,0,3.52.69,59.36,59.36,0,0,0-2.37-9.76,45.85,45.85,0,0,0,9.05,11.45,10.94,10.94,0,0,0,.65,2.18,9.13,9.13,0,0,0,4.33,4.28,20.47,20.47,0,0,0,5.93,1.79,2.12,2.12,0,0,0,1.59-.12,2.17,2.17,0,0,0,.77-1.53,30.78,30.78,0,0,0,.45-6.57,94.89,94.89,0,0,0-5.58-13.14A27.39,27.39,0,0,1,532.59,563.63Z" transform="translate(-121.9 -68.52)"/></g><g class="cls-74"><path class="cls-13" d="M385.64,466.11l.09.09c-.16,1.31-.36,2.62-.58,3.93-4.67,2.54-9.21,5.29-13.62,8.29a395.3,395.3,0,0,0,10.17-50.08c1.05-.19,2.11-.43,3.15-.72a123.24,123.24,0,0,1,.9,38.43A.29.29,0,0,0,385.64,466.11Z" transform="translate(-121.9 -68.52)"/></g><g class="cls-75"><path class="cls-76" d="M367.17,431.53v0a149.46,149.46,0,0,1-8.3,32.2c-4-6.75-8.12-13.54-13.45-19.33a42.74,42.74,0,0,0-15.32-11A145.24,145.24,0,0,0,367.17,431.53Z" transform="translate(-121.9 -68.52)"/><path class="cls-70" d="M367.17,431.53v0a149.46,149.46,0,0,1-8.3,32.2c-4-6.75-8.12-13.54-13.45-19.33a42.74,42.74,0,0,0-15.32-11A145.24,145.24,0,0,0,367.17,431.53Z" transform="translate(-121.9 -68.52)"/></g><path class="cls-70" d="M506.06,544.37c-11.45-.86-24.23-1.79-36.81-2.69l.05-.62c-.57-1.4-1.14-2.8-1.72-4.2q-8.65-21-17.28-42.05l21-10.59q13.14,18.27,26.28,36.55c2.83,3.94,5.69,7.93,7.39,12.47A20.31,20.31,0,0,1,506.06,544.37Z" transform="translate(-121.9 -68.52)"/><path class="cls-69" d="M462.18,471.56q4.54,6.33,9.1,12.66l-21,10.59c-1.64-4-3.26-7.93-4.89-11.9C450.59,479,456.36,475.56,462.18,471.56Z" transform="translate(-121.9 -68.52)"/><path class="cls-69" d="M516.2,545.12l8.52.65,2.89.74a62.31,62.31,0,0,1-3.23,23.26c-.12.36-.24.73-.38,1.09a53.47,53.47,0,0,1-5.38-.47A220.26,220.26,0,0,0,516.2,545.12Z" transform="translate(-121.9 -68.52)"/><g class="cls-77"><path class="cls-68" d="M367.19,559.83c-1.07,11.31-2.26,22.62-3.42,33.95a460.73,460.73,0,0,1-24.71-58.92,18.5,18.5,0,0,1-.71-2.52c.86.85,1.72,1.68,2.58,2.52C349.56,543.3,358.21,551.77,367.19,559.83Z" transform="translate(-121.9 -68.52)"/></g><path class="cls-67" d="M381.7,428.34a395.3,395.3,0,0,1-10.17,50.08c-.36,1.32-.72,2.64-1.09,4q-5-7.74-9.81-15.69l-1.76-2.95a149.46,149.46,0,0,0,8.3-32.2v0a138.67,138.67,0,0,0,14.56-3.43A1.75,1.75,0,0,1,381.7,428.34Z" transform="translate(-121.9 -68.52)"/><path class="cls-70" d="M385.73,466.2c5.16,5.27,48.09,48.79,81.85,70.66.58,1.4,1.15,2.8,1.72,4.2l-.05.62c-22.63-1.63-44.64-3.18-57.18-4a505,505,0,0,1-41.63-55.24c.37-1.33.73-2.65,1.09-4,4.41-3,9-5.75,13.62-8.29C385.37,468.82,385.57,467.51,385.73,466.2Z" transform="translate(-121.9 -68.52)"/><path class="cls-70" d="M518.69,582.75q-65.58,6.71-131.18,13.37,11.33-7.39,22.65-14.8L510.44,573a78,78,0,0,1,6.19,6.69A26.08,26.08,0,0,1,518.69,582.75Z" transform="translate(-121.9 -68.52)"/><path class="cls-67" d="M345.29,633.94a10.91,10.91,0,0,1-1.49,9.2c-2.09,3.24-5.33,5.51-8.5,7.67-4,2.7-8,5.37-12.18,7.73a0,0,0,0,0,0,0,21.75,21.75,0,0,1-10.36.15,14.49,14.49,0,0,1-8.6-6Q325.14,644.33,345.29,633.94Z" transform="translate(-121.9 -68.52)"/><path class="cls-12" d="M344.49,634.34l1.1.74a7.35,7.35,0,0,0-.3-1.14Z" transform="translate(-121.9 -68.52)"/><path class="cls-12" d="M304.14,652.74a14.49,14.49,0,0,0,8.6,6,21.75,21.75,0,0,0,10.36-.15,0,0,0,0,1,0,0c4.18-2.36,8.19-5,12.18-7.73,3.17-2.16,6.41-4.43,8.5-7.67a11.38,11.38,0,0,0,1.79-8.06l-1.1-.74Q324.75,644.47,304.14,652.74Z" transform="translate(-121.9 -68.52)"/><path class="cls-68" d="M340.93,534.86c6.91,6.76,13.84,13.52,20.93,20.09l-23.51-22.61C339.21,533.19,340.07,534,340.93,534.86Z" transform="translate(-121.9 -68.52)"/><g class="cls-78"><path class="cls-70" d="M338.35,532.34l-42.8-42.4s-7,106.21,48.94,144.4l.8-.4a7.35,7.35,0,0,1,.3,1.14,74.1,74.1,0,0,0,13.7,7.08q1.11-14.62,2.56-29.26c.61-6.38,1.28-12.74,1.92-19.12q-3.78-7.53-7.29-15.19h0a456.43,456.43,0,0,1-17.42-43.73A18.5,18.5,0,0,1,338.35,532.34Z" transform="translate(-121.9 -68.52)"/></g><g class="cls-79"><path class="cls-70" d="M254.46,704.75c.55,1,1.14,2,1.74,3a67.89,67.89,0,0,0,24,23.34,179.52,179.52,0,0,0,59.46-26.3Z" transform="translate(-121.9 -68.52)"/></g><g class="cls-80"><path class="cls-81" d="M471.21,464.68a26.5,26.5,0,0,1-9.51-19.47,8.67,8.67,0,0,1-3.89,0A114.54,114.54,0,0,0,459,473.7c1.06-.7,2.13-1.41,3.2-2.14A104.29,104.29,0,0,0,471.21,464.68Z" transform="translate(-121.9 -68.52)"/></g><path class="cls-71" d="M446.4,441.67a7.13,7.13,0,0,0-1.45.14c-1.54.31-3.12,1.15-4.59.6a3,3,0,0,1-1.68-3.34,3.7,3.7,0,0,1,2.76-2.69l.08.1a10.36,10.36,0,1,0-16.59-6.65,9.87,9.87,0,0,0,1.77,4.35,20.55,20.55,0,0,1-27.3-12.45,66,66,0,0,1-14.55,5.89,123.24,123.24,0,0,1,.9,38.43l19.13-9.16q2.07,7.37,3.61,14.83c.84,4,1.74,8.38,4.86,11,3.49,3,8.69,2.84,13,1.48,3-.94,8.32-3.17,11.49-4.52A91.28,91.28,0,0,1,446.4,441.67Z" transform="translate(-121.9 -68.52)"/><g class="cls-82"><path class="cls-83" d="M457.81,445.17a20.45,20.45,0,0,1-3.91-1.32c-2.41-1-4.94-2.21-7.5-2.18a91.28,91.28,0,0,0-8.51,38.05l2.26-1a29,29,0,0,0,.81,3.14,2.62,2.62,0,0,0,4.06,1.32l.39-.3c4.22-3.21,8.85-6.09,13.57-9.21A114.54,114.54,0,0,1,457.81,445.17Z" transform="translate(-121.9 -68.52)"/></g><g class="cls-84"><path class="cls-85" d="M486.88,416.58c-4.33-8.89-12-16.32-21.48-19.23a31.19,31.19,0,0,0-3.55-.88,47.47,47.47,0,0,1,11.76,17.35c4.24,10.66,5.1,22.38,4.63,33.84-.28,6.57-1,13.11-1.66,19.64a26.18,26.18,0,0,0,6.75,7l.23-.33c3.77-9.13,6.84-18.65,7.82-28.49S491.21,425.46,486.88,416.58Z" transform="translate(-121.9 -68.52)"/></g><g class="cls-86"><path class="cls-83" d="M438.89,425a5.19,5.19,0,0,1,.66,4.3,9.72,9.72,0,0,1-1.69,3.31,3.69,3.69,0,0,0-2.37-1.91,3.79,3.79,0,0,0-3.85,1.36,6.22,6.22,0,0,1-.92-5,5.18,5.18,0,0,1,3.49-3.61A4.43,4.43,0,0,1,438.89,425Z" transform="translate(-121.9 -68.52)"/></g></g></svg>