<svg xmlns="http://www.w3.org/2000/svg" xmlns:xlink="http://www.w3.org/1999/xlink" viewBox="0 0 2913.48 2913.48"><defs><style>.cls-1{fill:none;}.cls-2{isolation:isolate;}.cls-23,.cls-3{fill:#f4f7fa;}.cls-4{fill:url(#linear-gradient);}.cls-27,.cls-35,.cls-5,.cls-7{fill:#fff;}.cls-12,.cls-17,.cls-18,.cls-29,.cls-45,.cls-47,.cls-48,.cls-5,.cls-52,.cls-59,.cls-62,.cls-9{opacity:0.3;}.cls-23,.cls-35,.cls-5,.cls-7{mix-blend-mode:soft-light;}.cls-6{fill:url(#linear-gradient-2);}.cls-7{opacity:0.5;}.cls-8{fill:url(#linear-gradient-3);}.cls-12,.cls-17,.cls-29,.cls-45,.cls-47,.cls-48,.cls-52,.cls-59,.cls-62,.cls-9{mix-blend-mode:multiply;}.cls-9{fill:url(#linear-gradient-4);}.cls-10{fill:url(#linear-gradient-5);}.cls-11{fill:url(#linear-gradient-6);}.cls-12{fill:url(#linear-gradient-7);}.cls-13{fill:url(#linear-gradient-8);}.cls-14{fill:url(#linear-gradient-9);}.cls-15{clip-path:url(#clip-path);}.cls-16{fill:url(#linear-gradient-10);}.cls-17{fill:url(#linear-gradient-11);}.cls-18{fill:url(#linear-gradient-12);}.cls-19{fill:url(#linear-gradient-13);}.cls-20{fill:url(#linear-gradient-14);}.cls-21{fill:url(#linear-gradient-15);}.cls-22{fill:url(#linear-gradient-16);}.cls-24{fill:url(#linear-gradient-17);}.cls-25{fill:url(#linear-gradient-18);}.cls-26{fill:url(#linear-gradient-19);}.cls-28{fill:url(#linear-gradient-20);}.cls-29{fill:url(#linear-gradient-21);}.cls-30{fill:url(#linear-gradient-22);}.cls-31{fill:#d8dee8;}.cls-32{fill:url(#linear-gradient-23);}.cls-33{fill:url(#linear-gradient-24);}.cls-34{fill:url(#linear-gradient-25);}.cls-35{opacity:0.48;}.cls-36{fill:url(#linear-gradient-26);}.cls-37{fill:url(#linear-gradient-27);}.cls-38{fill:url(#linear-gradient-28);}.cls-39{fill:url(#linear-gradient-29);}.cls-40{fill:url(#linear-gradient-30);}.cls-41{fill:url(#linear-gradient-31);}.cls-42{fill:url(#linear-gradient-32);}.cls-43{fill:url(#linear-gradient-33);}.cls-44{fill:url(#linear-gradient-34);}.cls-46{fill:url(#linear-gradient-35);}.cls-47{fill:url(#linear-gradient-36);}.cls-48{fill:url(#linear-gradient-37);}.cls-49{fill:url(#linear-gradient-38);}.cls-50{fill:url(#linear-gradient-39);}.cls-51{fill:url(#linear-gradient-40);}.cls-52{fill:url(#linear-gradient-41);}.cls-53{fill:url(#linear-gradient-42);}.cls-54{fill:url(#linear-gradient-43);}.cls-55{fill:url(#linear-gradient-44);}.cls-56{fill:url(#linear-gradient-45);}.cls-57{fill:url(#linear-gradient-46);}.cls-58{fill:url(#linear-gradient-47);}.cls-59{fill:url(#linear-gradient-48);}.cls-60{fill:url(#linear-gradient-49);}.cls-61{fill:url(#linear-gradient-50);}.cls-62{fill:url(#linear-gradient-51);}.cls-63{fill:url(#linear-gradient-52);}.cls-64{fill:url(#linear-gradient-53);}</style><linearGradient id="linear-gradient" x1="-3462.48" y1="1072.45" x2="-3486.37" y2="2141.78" gradientTransform="matrix(-0.82, -0.23, -0.25, 0.89, 166.14, 395.04)" gradientUnits="userSpaceOnUse"><stop offset="0" stop-color="#aa80f9"/><stop offset="1" stop-color="#6165d7"/></linearGradient><linearGradient id="linear-gradient-2" x1="-3539.13" y1="1738.28" x2="-3969.26" y2="979.59" gradientTransform="matrix(-0.82, -0.23, -0.25, 0.89, 166.14, 395.04)" gradientUnits="userSpaceOnUse"><stop offset="0" stop-color="#e38ddd"/><stop offset="1" stop-color="#9571f6"/></linearGradient><linearGradient id="linear-gradient-3" x1="255.38" y1="1480.87" x2="-49.66" y2="1840.62" gradientTransform="translate(933.05 -54.64) rotate(-18.13)" gradientUnits="userSpaceOnUse"><stop offset="0" stop-color="#ffc444"/><stop offset="1" stop-color="#f36f56"/></linearGradient><linearGradient id="linear-gradient-4" x1="217.8" y1="1449.01" x2="-87.24" y2="1808.76" xlink:href="#linear-gradient-3"/><linearGradient id="linear-gradient-5" x1="-398.58" y1="1225.24" x2="-644.8" y2="1515.62" gradientTransform="matrix(-0.95, 0.31, 0.31, 0.95, 310.45, 149.49)" xlink:href="#linear-gradient-2"/><linearGradient id="linear-gradient-6" x1="396.23" y1="820.79" x2="677.74" y2="2377.85" gradientTransform="translate(933.05 -54.64) rotate(-18.13)" xlink:href="#linear-gradient"/><linearGradient id="linear-gradient-7" x1="299.9" y1="823.61" x2="584.92" y2="2400.1" gradientTransform="translate(933.05 -54.64) rotate(-18.13)" xlink:href="#linear-gradient"/><linearGradient id="linear-gradient-8" x1="-1411.68" y1="1040.09" x2="-1972.43" y2="1701.41" gradientTransform="matrix(-1, 0, 0, 1, 652.97, -445.12)" xlink:href="#linear-gradient-2"/><linearGradient id="linear-gradient-9" x1="-1372.41" y1="1362.6" x2="-1912.98" y2="1376.38" gradientTransform="matrix(-0.95, 0.31, 0.31, 0.95, 310.45, 149.49)" gradientUnits="userSpaceOnUse"><stop offset="0" stop-color="#311944"/><stop offset="1" stop-color="#893976"/></linearGradient><clipPath id="clip-path" transform="translate(-429.07 -383.38)"><path class="cls-1" d="M2503.23,1408.81c28.13-9.2,51.9-30,70.66-62,19.09-32.47,32.15-74.68,38.82-125.45,14-106.72-1.9-237.71-44.84-368.85s-107.58-246.17-182-323.93c-35.41-37-70.91-63.29-105.51-78.18-34-14.64-65.49-17.38-93.62-8.18s-51.89,30.06-70.65,62c-19.09,32.47-32.16,74.68-38.83,125.45-14,106.72,1.9,237.71,44.84,368.85s107.58,246.17,182,323.93c35.4,37,70.9,63.29,105.5,78.18C2443.61,1415.27,2475.11,1418,2503.23,1408.81Z"/></clipPath><linearGradient id="linear-gradient-10" x1="773.07" y1="869.98" x2="956.87" y2="1886.62" xlink:href="#linear-gradient-3"/><linearGradient id="linear-gradient-11" x1="879.06" y1="1000.95" x2="1014.67" y2="1751.07" xlink:href="#linear-gradient-3"/><linearGradient id="linear-gradient-12" x1="792.72" y1="1320.55" x2="1209.92" y2="1689.12" gradientTransform="matrix(-0.95, 0.31, 0.31, 0.95, 3019.13, -737.49)" xlink:href="#linear-gradient-2"/><linearGradient id="linear-gradient-13" x1="634" y1="1094.94" x2="977.91" y2="1273.18" gradientTransform="matrix(-0.95, 0.31, 0.31, 0.95, 3019.13, -737.49)" gradientUnits="userSpaceOnUse"><stop offset="0" stop-color="#ff9085"/><stop offset="1" stop-color="#fb6fbb"/></linearGradient><linearGradient id="linear-gradient-14" x1="693.98" y1="1274.19" x2="1093.45" y2="1627.09" gradientTransform="matrix(-0.95, 0.31, 0.31, 0.95, 3019.13, -737.49)" xlink:href="#linear-gradient-2"/><linearGradient id="linear-gradient-15" x1="559.19" y1="1215.42" x2="938.87" y2="1412.21" xlink:href="#linear-gradient-13"/><linearGradient id="linear-gradient-16" x1="763.12" y1="1413.42" x2="1248.95" y2="1842.62" gradientTransform="matrix(-0.95, 0.31, 0.31, 0.95, 3019.13, -737.49)" xlink:href="#linear-gradient"/><linearGradient id="linear-gradient-17" x1="1688.88" y1="3066.61" x2="1497.5" y2="3146.99" gradientUnits="userSpaceOnUse"><stop offset="0" stop-color="#40447e"/><stop offset="1" stop-color="#3c3b6b"/></linearGradient><linearGradient id="linear-gradient-18" x1="1433.33" y1="2223.13" x2="1225.63" y2="2310.36" xlink:href="#linear-gradient-17"/><linearGradient id="linear-gradient-19" x1="538.12" y1="2270.35" x2="2462.91" y2="2270.35" xlink:href="#linear-gradient-17"/><linearGradient id="linear-gradient-20" x1="538.12" y1="2982.13" x2="3262.48" y2="2982.13" xlink:href="#linear-gradient-17"/><linearGradient id="linear-gradient-21" x1="376.22" y1="2576.43" x2="2372.34" y2="2576.43" xlink:href="#linear-gradient-17"/><linearGradient id="linear-gradient-22" x1="1958.53" y1="1277.89" x2="936.73" y2="2374.2" gradientTransform="matrix(1, 0, 0, 1, 0, 0)" xlink:href="#linear-gradient"/><linearGradient id="linear-gradient-23" x1="695.3" y1="1752.06" x2="744.66" y2="1752.06" gradientUnits="userSpaceOnUse"><stop offset="0" stop-color="#444b8c"/><stop offset="1" stop-color="#26264f"/></linearGradient><linearGradient id="linear-gradient-24" x1="784.9" y1="1751.54" x2="833.81" y2="1751.54" xlink:href="#linear-gradient-23"/><linearGradient id="linear-gradient-25" x1="873.68" y1="1751.03" x2="922.14" y2="1751.03" xlink:href="#linear-gradient-23"/><linearGradient id="linear-gradient-26" x1="2280.57" y1="1962.15" x2="1428.93" y2="3399.29" gradientUnits="userSpaceOnUse"><stop offset="0" stop-color="#ab316d"/><stop offset="1" stop-color="#792d3d"/></linearGradient><linearGradient id="linear-gradient-27" x1="2181.92" y1="1584.46" x2="2208.45" y2="1539.35" xlink:href="#linear-gradient-26"/><linearGradient id="linear-gradient-28" x1="2768.12" y1="1090.32" x2="2736.28" y2="1366.32" xlink:href="#linear-gradient-26"/><linearGradient id="linear-gradient-29" x1="2782.74" y1="1340.1" x2="2846.44" y2="873.02" xlink:href="#linear-gradient-26"/><linearGradient id="linear-gradient-30" x1="1722.99" y1="1644.63" x2="1412.48" y2="2215.22" gradientTransform="matrix(1, 0, 0, 1, 0, 0)" xlink:href="#linear-gradient-13"/><linearGradient id="linear-gradient-31" x1="1189.4" y1="2545.38" x2="610.6" y2="3439.17" gradientTransform="matrix(1, 0, 0, 1, 0, 0)" xlink:href="#linear-gradient-13"/><linearGradient id="linear-gradient-32" x1="1489.44" y1="2140.73" x2="275.28" y2="2355.69" gradientTransform="matrix(1, 0, 0, 1, 0, 0)" xlink:href="#linear-gradient-13"/><linearGradient id="linear-gradient-33" x1="2022.86" y1="1552.88" x2="1998.98" y2="1786.42" gradientTransform="matrix(1, 0, 0, 1, 0, 0)" xlink:href="#linear-gradient-13"/><linearGradient id="linear-gradient-34" x1="2337.22" y1="1595.11" x2="2836.15" y2="960.83" gradientTransform="matrix(1, 0, 0, 1, 0, 0)" xlink:href="#linear-gradient-13"/><linearGradient id="linear-gradient-35" x1="2128.21" y1="2015.03" x2="1817.71" y2="2585.62" gradientTransform="matrix(1, 0, 0, 1, 0, 0)" xlink:href="#linear-gradient-13"/><linearGradient id="linear-gradient-36" x1="2506.93" y1="1968.35" x2="2420.03" y2="2128.04" gradientTransform="matrix(1, 0, 0, 1, 0, 0)" xlink:href="#linear-gradient-13"/><linearGradient id="linear-gradient-37" x1="1164.85" y1="2529.49" x2="586.05" y2="3423.28" gradientTransform="matrix(1, 0, 0, 1, 0, 0)" xlink:href="#linear-gradient-13"/><linearGradient id="linear-gradient-38" x1="-227.74" y1="2320.51" x2="-35.43" y2="2320.51" gradientTransform="matrix(-1, 0, 0, 1, 1470.22, 0)" xlink:href="#linear-gradient-3"/><linearGradient id="linear-gradient-39" x1="442.67" y1="2681.6" x2="815.6" y2="2681.6" gradientTransform="matrix(-1, 0, 0, 1, 2471.81, 0)" xlink:href="#linear-gradient"/><linearGradient id="linear-gradient-40" x1="2710.84" y1="2818.12" x2="2726.96" y2="3108.28" gradientTransform="matrix(0.96, 0.29, -0.29, 0.96, -61.86, -392.26)" xlink:href="#linear-gradient-2"/><linearGradient id="linear-gradient-41" x1="617.97" y1="2695.63" x2="990.91" y2="2695.63" gradientTransform="matrix(-1, 0, 0, 1, 2471.81, 0)" xlink:href="#linear-gradient"/><linearGradient id="linear-gradient-42" x1="4720.55" y1="3182.74" x2="4744.8" y2="3182.74" gradientTransform="matrix(-1, 0, 0, 1, 6408.78, 0)" gradientUnits="userSpaceOnUse"><stop offset="0" stop-color="#311944"/><stop offset="1" stop-color="#a03976"/></linearGradient><linearGradient id="linear-gradient-43" x1="641.8" y1="2450.05" x2="976.18" y2="2856.34" gradientTransform="matrix(-1, 0, 0, 1, 2471.81, 0)" xlink:href="#linear-gradient"/><linearGradient id="linear-gradient-44" x1="1571.88" y1="1946.12" x2="1129.63" y2="2316.46" gradientTransform="matrix(-1, -0.05, -0.05, 1, 2566, 27.22)" xlink:href="#linear-gradient-23"/><linearGradient id="linear-gradient-45" x1="-1321.15" y1="2462.09" x2="-962" y2="2139.18" gradientTransform="translate(2574.76)" xlink:href="#linear-gradient-3"/><linearGradient id="linear-gradient-46" x1="4925.58" y1="2091.42" x2="5052.21" y2="2091.42" xlink:href="#linear-gradient-42"/><linearGradient id="linear-gradient-47" x1="4941.62" y1="2419.63" x2="4938.89" y2="2169.73" xlink:href="#linear-gradient-42"/><linearGradient id="linear-gradient-48" x1="-1309.35" y1="2475.21" x2="-950.2" y2="2152.3" gradientTransform="translate(2574.76)" xlink:href="#linear-gradient-3"/><linearGradient id="linear-gradient-49" x1="-1191" y1="2526.47" x2="-864.33" y2="2526.47" gradientTransform="translate(2574.76)" xlink:href="#linear-gradient-23"/><linearGradient id="linear-gradient-50" x1="-1035.67" y1="2440.68" x2="-587.29" y2="2440.68" gradientTransform="translate(2574.76)" xlink:href="#linear-gradient-23"/><linearGradient id="linear-gradient-51" x1="2432.19" y1="2321.73" x2="2646.36" y2="2534.19" gradientTransform="matrix(-1, 0, 0, 1, 4315.03, 0)" xlink:href="#linear-gradient-23"/><linearGradient id="linear-gradient-52" x1="-1172.32" y1="2459.68" x2="-1446.6" y2="2189.79" gradientTransform="translate(2574.76)" xlink:href="#linear-gradient-3"/><linearGradient id="linear-gradient-53" x1="1395.22" y1="2426.91" x2="1483.93" y2="2489" gradientTransform="matrix(1, 0, 0, 1, 0, 0)" xlink:href="#linear-gradient-42"/></defs><title>sell-any-product</title><g class="cls-2"><g id="Illustration"><circle class="cls-3" cx="1456.74" cy="1456.74" r="1456.74"/><path class="cls-4" d="M2409.93,2836.33c-39.29-25.86,55.9-258.33,141.72-412.06,70.48-126.25,153.41-233,177.35-220.66,18.33,9.44-4.64,85.18,12,91.22,22.27,8.09,69.13-125.84,114.67-121.34,28.06,2.77,52.31,57.77,53.22,108.31,1.63,91.18-73,151.58-235.33,310C2465.52,2794.74,2430.15,2849.64,2409.93,2836.33Z" transform="translate(-429.07 -383.38)"/><path class="cls-5" d="M2476.91,2686.1c21.88-65.58,20-107.43,59.8-149.83,34.77-37,56.24-26.45,97.25-69.27,46.44-48.49,30.2-73.86,69.1-111.42,54-52.14,106-23.15,151.78-70,14.48-14.82,29.4-38.31,36.69-77.69,10.2,20.65,16.88,47.87,17.35,73.93,1.63,91.18-73,151.58-235.33,310-208,203-243.4,257.87-263.62,244.56-3.07-2-5.32-5.31-6.82-9.72C2442.54,2773,2464.17,2724.27,2476.91,2686.1Z" transform="translate(-429.07 -383.38)"/><path class="cls-6" d="M2334.76,2955.3c83.93-187.56,179-321.66,250.43-409,160.59-196.56,238.76-202.76,273.06-200.14,45.7,3.49,104.39,29.58,113.42,73.36,16.88,81.91-147.55,189.51-129.6,220.44,9.29,16,54.72-10.4,73.06,10.56,25.08,28.65-23.56,119.53-36.65,141.44C2777.36,2961.29,2442.66,2959.15,2334.76,2955.3Z" transform="translate(-429.07 -383.38)"/><path class="cls-7" d="M2496.59,2811.93c75.29-48.27,97.79-43.44,138.21-88.1,74.54-82.35,47.24-153.15,116.32-205.93,49.25-37.63,77.89-12.92,147-52.7a291.49,291.49,0,0,0,70-56.94,59.29,59.29,0,0,1,3.56,11.24c16.88,81.91-147.55,189.51-129.6,220.44,9.29,16,54.72-10.4,73.06,10.56,25.08,28.65-23.56,119.53-36.65,141.44-101.12,169.35-435.82,167.21-543.72,163.36,1.53-3.42,3.07-6.79,4.61-10.17C2399.53,2880,2455.08,2838.55,2496.59,2811.93Z" transform="translate(-429.07 -383.38)"/><path class="cls-8" d="M1760,1809.81c-38.22,9.86-81.34-2.28-108.51-33.83l-383.12-444.87c-34.88-40.51-30.24-100.8,10.54-135,41.07-34.43,122.07-36.24,157.62,4.6l390.5,448.64c36.81,42.3,31,103.64-12.8,136.69C1803.47,1794.17,1772.62,1806.56,1760,1809.81Z" transform="translate(-429.07 -383.38)"/><path class="cls-9" d="M1278.93,1196.11c41.07-34.43,122.07-36.24,157.62,4.6l357,410.21c-36.5,2.38-76.1,16.21-125.34-4.81-82-35-74.07-116.81-145.42-164-32.62-21.58-85.36-38.27-175.28-19l-79.17-91.93C1233.51,1290.6,1238.15,1230.31,1278.93,1196.11Z" transform="translate(-429.07 -383.38)"/><path class="cls-10" d="M1116.36,1136.17a44.27,44.27,0,0,1,5.61-1.41l132.09-44.86,112.87,344.68-128.58,40.16a42.9,42.9,0,0,1-9.63,4.56c-45.43,14.88-107.41-49.87-138.44-144.63S1070.93,1151.05,1116.36,1136.17Z" transform="translate(-429.07 -383.38)"/><path class="cls-11" d="M1254.06,1089.9c-12.63,131.21,24.82,245.58,112.87,344.68l1089.88-5.86L2150.21,458Z" transform="translate(-429.07 -383.38)"/><path class="cls-12" d="M2097.51,1231.52c-105.39-4.82-179.06-131.3-289.41-100.23-86.58,24.37-85.16,115.73-171.77,134.19-88.67,18.89-133.3-68.76-239.89-69.9-48.47-.51-93.2,17.16-133.39,44.18q24.73,105.73,103.88,194.82l1089.88-5.86-165.89-309.37C2212.27,1207.91,2148.6,1233.86,2097.51,1231.52Z" transform="translate(-429.07 -383.38)"/><ellipse class="cls-13" cx="2344.98" cy="925.54" rx="252.39" ry="526.39" transform="translate(-600.66 392.33) rotate(-18.13)"/><path class="cls-14" d="M2503.23,1408.81c28.13-9.2,51.9-30,70.66-62,19.09-32.47,32.15-74.68,38.82-125.45,14-106.72-1.9-237.71-44.84-368.85s-107.58-246.17-182-323.93c-35.41-37-70.91-63.29-105.51-78.18-34-14.64-65.49-17.38-93.62-8.18s-51.89,30.06-70.65,62c-19.09,32.47-32.16,74.68-38.83,125.45-5.86,44.62-6.49,93.49-2.1,144.83,6.12,71.46,73.91,125.94,98.9,202.24,26.57,81.14,9.49,177.89,49.85,241.68,24.87,39.31,51.83,74.38,80.21,104,35.4,37,70.9,63.29,105.5,78.18C2443.61,1415.27,2475.11,1418,2503.23,1408.81Z" transform="translate(-429.07 -383.38)"/><g class="cls-15"><path class="cls-16" d="M2366.87,925.64c41.5,126.74-9.47,254.85-112.37,285.71-101.31,30.37-215-45.23-255.35-168.44s7-250.18,107.18-284.05C2208.07,724.45,2325.37,798.9,2366.87,925.64Z" transform="translate(-429.07 -383.38)"/><path class="cls-17" d="M2350.07,928.86c30.82,94.11,14.4,182.23-36,196.6-49.58,14.16-113.5-48.69-143.45-140.19s-15.3-179.06,33.42-195.81C2253.58,772.44,2319.25,834.74,2350.07,928.86Z" transform="translate(-429.07 -383.38)"/></g><path class="cls-18" d="M2424.35,910.38l313.55-88.65c25.56-7.23,52,3.39,58.67,23.82h0c6.69,20.43-9,42.48-34.77,49.17l-315.7,82.07c-21,5.47-42.65-4.85-48.59-23h0C2391.58,935.7,2403.49,916.28,2424.35,910.38Z" transform="translate(-429.07 -383.38)"/><path class="cls-19" d="M2351.19,729.39l356.95-123.5c29.92-10.35,61.59,2.51,70.23,28.89h0c8.64,26.38-9.27,55.57-39.48,65L2378.47,812.69c-23.35,7.31-48-5.22-55.43-27.88h0C2315.62,762.15,2328.07,737.39,2351.19,729.39Z" transform="translate(-429.07 -383.38)"/><path class="cls-20" d="M2516.65,829.88l295.87-87c24.06-7.07,49.08,3.21,55.57,23.05h0c6.5,19.84-8.12,41.32-32.34,47.88l-297.91,80.76c-19.89,5.39-40.5-4.61-46.29-22.27h0C2485.77,854.66,2496.9,835.69,2516.65,829.88Z" transform="translate(-429.07 -383.38)"/><path class="cls-21" d="M2792.22,629.66c8.68,26.5,39.23,40.64,68.75,31.43,30.11-9.4,47.67-39.41,38.68-66.86s-40.86-41.16-70.65-30.8C2799.78,573.59,2783.54,603.16,2792.22,629.66Z" transform="translate(-429.07 -383.38)"/><path class="cls-22" d="M2429.62,1003.94l378.92-92.48c31.81-7.76,65.18,7.56,73.95,34.36h0c8.78,26.81-10.6,54.19-42.72,61l-382.49,81.54c-24.73,5.28-50.57-9.14-58.09-32.11h0C2391.66,1033.31,2405.13,1009.92,2429.62,1003.94Z" transform="translate(-429.07 -383.38)"/><path class="cls-23" d="M2782.26,969.13c6.59,20.11,31.47,32.19,55.89,26.9,24.79-5.37,39.68-26.53,32.91-47.19s-32.47-32.55-57.08-26.63C2789.73,928,2775.67,949,2782.26,969.13Z" transform="translate(-429.07 -383.38)"/><path class="cls-24" d="M3262.48,2961.88,538.12,2938.16v70.2c0,19.06,11.88,35.26,28,38.15l770.36,138.24a105.89,105.89,0,0,0,27.64,1.3l1868.77-157.62c16.69-1.41,29.61-17.66,29.61-37.24Z" transform="translate(-429.07 -383.38)"/><path class="cls-25" d="M2385.47,2848.08,568.1,2976.51c-32.52,2.3-59-22.12-59-54.55V1622.76a58.87,58.87,0,0,1,59-58.72H2385.47c26.8,0,48.46,23.76,48.46,53.08V2791.57C2433.93,2820.89,2412.27,2846.18,2385.47,2848.08Z" transform="translate(-429.07 -383.38)"/><path class="cls-26" d="M2414.45,2848.08,597.08,2976.51c-32.52,2.3-59-22.12-59-54.55V1622.76a58.87,58.87,0,0,1,59-58.72H2414.45c26.79,0,48.46,23.76,48.46,53.08V2791.57C2462.91,2820.89,2441.24,2846.18,2414.45,2848.08Z" transform="translate(-429.07 -383.38)"/><path class="cls-27" d="M2357.83,2765.28,665.15,2876.84c-26.47,1.74-48-18.3-48-44.78V1694.61a48.22,48.22,0,0,1,48-48.13l1692.68-7c22.11-.09,40,19.38,40,43.5V2719C2397.81,2743.09,2379.94,2763.82,2357.83,2765.28Z" transform="translate(-429.07 -383.38)"/><path class="cls-27" d="M1570,1599.58c0,12.07-9.35,21.88-20.9,21.92s-21-9.75-21-21.85,9.38-21.91,21-21.92S1570,1587.5,1570,1599.58Z" transform="translate(-429.07 -383.38)"/><path class="cls-28" d="M2369.1,2842.25l-1831,135.19,798.34,143.27a105.89,105.89,0,0,0,27.64,1.29l1898.38-160.12-864.25-118.71A139.14,139.14,0,0,0,2369.1,2842.25Z" transform="translate(-429.07 -383.38)"/><polygon class="cls-29" points="376.22 2597.46 1900.57 2483.24 2372.34 2547.52 861.12 2669.62 376.22 2597.46"/><path class="cls-30" d="M2398,1859.4,617,1881.53V1680.32a40.85,40.85,0,0,1,40.85-40.85H2357.17a40.85,40.85,0,0,1,40.85,40.85Z" transform="translate(-429.07 -383.38)"/><polygon class="cls-31" points="1304.51 2015.05 297.54 2056.65 297.54 1580.99 1304.51 1564.1 1304.51 2015.05"/><polygon class="cls-31" points="1877.45 1991.37 1363.9 2012.59 1363.9 1563.11 1877.45 1554.49 1877.45 1991.37"/><polygon class="cls-31" points="1877.45 2315.66 297.54 2409.72 297.54 2118.77 1877.45 2048.42 1877.45 2315.66"/><path class="cls-32" d="M744.66,1751.91c0,12.67-11,23-24.65,23.11s-24.71-10.12-24.71-22.81,11.07-23,24.71-23.11S744.66,1739.25,744.66,1751.91Z" transform="translate(-429.07 -383.38)"/><path class="cls-33" d="M833.81,1751.4c0,12.38-10.92,22.49-24.42,22.58s-24.49-9.89-24.49-22.3,11-22.52,24.49-22.58S833.81,1739,833.81,1751.4Z" transform="translate(-429.07 -383.38)"/><path class="cls-34" d="M922.14,1750.89c0,12.32-10.82,22.38-24.2,22.47s-24.26-9.84-24.26-22.19,10.87-22.42,24.26-22.48S922.14,1738.56,922.14,1750.89Z" transform="translate(-429.07 -383.38)"/><path class="cls-35" d="M1976.58,2491.75c-140.1-75.38-250.26,20.14-356.57-74.11-64.46-57.13-32.82-99.74-112.13-185.12-87.84-94.57-145-62.78-233.31-147.9C1163,1977,1218.78,1893.27,1122.63,1816c-116.65-93.73-242.44-7-353.48-96.87C721.26,1680.36,695,1624,681.26,1564H572.62a34.49,34.49,0,0,0-34.5,34.46V2945.24c0,19,15.46,33.37,34.5,32l1852.2-131.48c9.08-.64,17.14-6,22.32-13.64-135.59-4.94-218.89-50.4-272.13-97.38C2070.84,2642.83,2088.91,2552.19,1976.58,2491.75Z" transform="translate(-429.07 -383.38)"/><path class="cls-36" d="M3133.12,1821.76l-202.73,331.68-618.45-7-274.29,530.66-708.13,24.78-367.44,566.2a38.87,38.87,0,0,1-29.36,17.59l-48,4.05c-21.78,3.43-68.3-3.2-61.2-24.08l248.88-563.06L1277.1,2611l688.44-26.32L2226,2063l632.63-7,212-322.08Z" transform="translate(-429.07 -383.38)"/><polygon class="cls-37" points="2326.93 1460.68 2213.26 1408.42 2339.95 1382.62 2326.93 1460.68"/><polygon class="cls-38" points="2759.99 1350.57 2819.46 1438.38 2687.5 1438.38 2642.9 1382.62 2759.99 1350.57"/><polygon class="cls-39" points="2833.41 1046.18 2778.28 1005.33 2754.41 1336.16 2778.28 1378.68 2819.46 1438.38 2833.41 1046.18"/><polygon class="cls-40" points="1284.1 2163.09 1569.64 2241.11 1843.93 1710.45 1558.39 1632.42 1284.1 2163.09"/><path class="cls-41" d="M618.58,3228.15l213.76,58.41a53.85,53.85,0,0,0,59.35-22.63l398.89-614.66-285.54-78-401.2,618.23A25.62,25.62,0,0,0,618.58,3228.15Z" transform="translate(-429.07 -383.38)"/><polygon class="cls-42" points="575.97 2187.87 861.5 2265.89 1569.64 2241.11 1284.1 2163.09 575.97 2187.87"/><polygon class="cls-43" points="1558.39 1632.42 1843.93 1710.45 2462.38 1717.42 2176.84 1639.4 1558.39 1632.42"/><polygon class="cls-44" points="2213.26 1408.42 2321.5 1402.72 2176.84 1639.4 2462.38 1717.42 2665.8 1384.6 2778.28 1378.68 2778.28 1005.33 2213.26 1408.42"/><g class="cls-45"><path class="cls-46" d="M1812.83,2527.23c82.06-65.87,156.51-25.79,209-79.62,44.88-46-1.57-83.53,49.76-197.05,41.8-92.44,103.1-135,115.45-143.31a293.79,293.79,0,0,1,44.77-24.68l-244.34-66.77-274.29,530.67,63.7,17.4A221,221,0,0,1,1812.83,2527.23Z" transform="translate(-429.07 -383.38)"/></g><path class="cls-47" d="M2308.44,2029.62c-52.22,3.57-61.59,5.54-61.7,8-.34,7.33,83.51,21.66,169.19,23.89,76.24,2,89.56-7.29,171.17-2,53.12,3.45,88.7,10.05,89.57,6,1-4.9-48.34-22.94-101.51-33.84C2502.75,2016.77,2437,2020.85,2308.44,2029.62Z" transform="translate(-429.07 -383.38)"/><path class="cls-48" d="M857.43,2963.13c44.16-72,60.45-145.46,137.34-181.13,58.88-27.32,98.93-7.27,151.27-41.8,40.75-26.88,62.82-69.63,75.36-109.83L1005,2571.25,619.74,3165C752.77,3100.47,820.19,3023.87,857.43,2963.13Z" transform="translate(-429.07 -383.38)"/><path class="cls-49" d="M1537.77,2120.94c24.22-7.07,56.58,37.39,83.48,74.35,40.25,55.29,87.27,119.9,74.6,197.48-12.46,76.32-77.89,135.76-96.54,127.26-16-7.27,14.72-58.61-8.78-127.26-19-55.41-50.36-55.43-71.43-109.74C1493,2215.62,1508,2129.64,1537.77,2120.94Z" transform="translate(-429.07 -383.38)"/><path class="cls-50" d="M1549.76,2472.49c124.71,30.28,206.85,78.88,254.83,113.26,26,18.63,38,30.26,44.49,47.19,36.94,96.53-152.86,242.48-173.08,257.76l-26.51-61.8c19.62-107.65,52.27-141.42,79.59-151.46,7.64-2.81,20.47-5.82,20.23-9.44-.59-8.55-72.68,3.63-141.58-21.57-68.7-25.14-137.71-88.74-125.39-130.79C1484.59,2508,1494,2485.78,1549.76,2472.49Z" transform="translate(-429.07 -383.38)"/><path class="cls-51" d="M1670.68,3178s-11.61,4.13-11.65,13.31,11.76,49.62,24.58,64,14-7.06,13.18-20.87-4.16-44.73-7.33-50.7S1670.68,3178,1670.68,3178Z" transform="translate(-429.07 -383.38)"/><path class="cls-52" d="M1708,2613.62c22.66-.45,75.75-4.68,89.89,21.57,11.79,21.9-8.87,55.09-21.58,75.51-34.54,55.5-68.07,61.18-91.68,95.28-9.14,13.2-17.43,31.63-20.06,58l-15-35c19.62-107.65,52.27-141.42,79.59-151.46,7.64-2.81,20.47-5.82,20.23-9.44-.59-8.55-72.68,3.63-141.58-21.57-62.62-22.92-125.3-77.75-126.6-119.13C1580.29,2598.43,1654.93,2614.66,1708,2613.62Z" transform="translate(-429.07 -383.38)"/><path class="cls-53" d="M1664,3139c.68,14.14,1.88,26,3,34.76,2.4,19.43,4.6,27.12,7.62,34.12,2.63,6.11,9.21,19.42,12.35,18.5s-.1-15.69-2.58-56.71c-.36-5.95-1.46-24.91-1.46-24.91h0Z" transform="translate(-429.07 -383.38)"/><path class="cls-54" d="M1477.84,2480.58a560.62,560.62,0,0,1,145.62,125.85c32,39.26,80.71,99,98.34,188.06,9.4,47.47,4.78,90.06-4.85,173.29a1745.14,1745.14,0,0,1-34,195.92l-16.58,6.66c-14.8-27.19-34.16-70.24-41.1-125.28-11.35-90.06,22.34-118.67,6.16-182.54-14-55.32-54.59-89.25-135.76-157.09-66.7-55.75-128.2-88.82-151-158.35-3.88-11.8-7.17-26.29-.86-39.55C1357.4,2479,1409.51,2469,1477.84,2480.58Z" transform="translate(-429.07 -383.38)"/><path class="cls-55" d="M1420.49,2126.09c18.65-4,49.32-3.22,78.56-26.24,8.8-6.93,40-31.49,36.2-66.63-3.33-30.93-32.65-47.56-36.25-49.54-20.75-11.42-41.44-8.88-64.39-5.74-29.76,4.06-39.64,12.19-60.32,17.77-51.15,13.79-68.45-15-120-12.57-65.83,3.11-71.52,51.72-126.9,52.94-62.18,1.36-74.09-59.49-135.48-69.8-85.21-14.31-214.13,77.41-211.53,183.16,1.5,61.07,47,131.06,105.06,152.07,33.86,12.25,70.39,8.36,80.82,30.38,7.42,15.67-9.26,27.74-7.68,55,2,35.2,32.33,59.9,37.22,63.88,45.42,37,147.26,18.33,216.81-34.06C1338.06,2322.27,1319.08,2147.91,1420.49,2126.09Z" transform="translate(-429.07 -383.38)"/><path class="cls-56" d="M1276.43,2113.54a1334,1334,0,0,1,145.1-9.91c114.4-1.55,130.78,13,135,23.69,7.81,20-5.57,30,2,65,4.55,20.87.25,30.38,9,52.8,8.56,21.85,1.84,33.6-5.73,84.84-9.67,65.53-14.14,98.83,4.2,125.24,12.74,18.35,27,19.91,25.63,28.63-2.89,18.57-67.11,8.33-148.42,44-23.54,10.33-45.21,23.05-63.37,33.71-42.55,25-50.42,34.53-70.12,45.85-62.3,35.78-155.89,39.23-204.94-4-18.29-16.14-31.62-39.86-25.62-48.54,8.17-11.82,44.69,15,78.2-1.35,22.21-10.85,18-28.4,43.66-49.09,30.89-24.89,52.36-11.85,73.39-28,32.8-25.27,17.88-85.76,8.67-187.19A1696.34,1696.34,0,0,1,1276.43,2113.54Z" transform="translate(-429.07 -383.38)"/><path class="cls-57" d="M1400.24,2090c-15.61,9.68-40.83,22.33-43.61,25.77s76.41,17,125.68-7.88c0,0,7.64-4.24-22.06-10.18-6.33-1.27-5.09-13.58-4.25-26.31l-5.94-11S1415.84,2080.29,1400.24,2090Z" transform="translate(-429.07 -383.38)"/><path class="cls-58" d="M1439.6,2052.84s-6.12,26,16.74,38.8c20.48,11.49,55.12-35.62,48.65-53.12-2.16-5.84-9.87-13.35-17.93-15.87-5.67-1.77-27.11-1.09-36.29,17-2.41-5.27-6.72-8-9.61-7.17-3.67,1.09-4.21,7.78-4.34,9.29A18.71,18.71,0,0,0,1439.6,2052.84Z" transform="translate(-429.07 -383.38)"/><path class="cls-59" d="M1475.05,2469.06c-23.56,9.76-26.74,30.86-59.31,42.83-31.07,11.42-41.5-2.89-72.49,6.59-46.55,14.24-64.35,59.16-71.39,54.92-6.46-3.88-.26-46.85,29.65-74.69,34.37-32,71.38-17.33,93.36-50.52,8.56-12.92,15.15-33.55,7.69-49.43-10.11-21.51-36.53-14.05-50.52-31.85-25.15-32,33.7-89.64,17.57-138.39-6.44-19.45-26.93-43.84-93-60.16.9,48.87,3.72,89.7,6.53,120.71,9.21,101.42,24.13,161.92-8.67,187.19-21,16.19-42.5,3.15-73.39,28-25.67,20.69-21.45,38.24-43.66,49.09-33.51,16.38-70-10.47-78.2,1.35-6,8.68,7.33,32.4,25.62,48.54,49,43.28,142.64,39.83,204.94,4,19.7-11.32,27.57-20.87,70.12-45.85,18.16-10.66,39.83-23.38,63.37-33.71,57.06-25,105.67-27.44,130.61-33.08C1524.33,2461.68,1494.17,2461.13,1475.05,2469.06Z" transform="translate(-429.07 -383.38)"/><path class="cls-60" d="M1702.42,2502.2l-298.86,14.54a12.51,12.51,0,0,0-10,5.9l-8.28,13.27a9.71,9.71,0,0,0,8.61,14.83l316.58-12.06Z" transform="translate(-429.07 -383.38)"/><path class="cls-61" d="M1976.79,2337.08l-308.76,6a25.88,25.88,0,0,0-22,13.09l-106.92,188.12,326.09-13a26.55,26.55,0,0,0,21.72-12.89L1986,2352.9A10.45,10.45,0,0,0,1976.79,2337.08Z" transform="translate(-429.07 -383.38)"/><path class="cls-62" d="M1646,2356.17a25.87,25.87,0,0,1,22-13.1l6.76-.13c1,10,4.07,19.08,10.17,26.44,19,23,50.67,8.81,74.24,33.13,25.9,26.71,2,58.52,25.13,83.38,24.38,26.17,63.79,4.86,109.09,21.61l-6.52,10.9a26.55,26.55,0,0,1-21.72,12.89l-326.09,13Z" transform="translate(-429.07 -383.38)"/><path class="cls-63" d="M1452.52,2502.35q5-13.33,10.1-26.68c-37.22-10.2-88.7-25.28-141.5-44.15-13-4.66-17.82-10.68-21.31-15.31-27.07-35.91,41.82-99.24,40.58-181.43-.85-57-35.39-122.13-65.82-122.87-61.86-1.51-198.26,261-83.38,373C1248.21,2540.53,1354.73,2547,1452.52,2502.35Z" transform="translate(-429.07 -383.38)"/><path class="cls-64" d="M1462.62,2475.67c23.37-12.41,51.34.31,53.14,1.17a69.88,69.88,0,0,1,20.16,14.45c.85,1.16,11,15.21,7.29,19.71-3,3.61-14.42.62-28.2-7.95a106.75,106.75,0,0,0-24.66-.61c-18.92,1.75-27.58,7.72-34.45,2.57-5-3.78-6.74-11.76-4.93-17.7C1452.91,2480.94,1458.66,2477.78,1462.62,2475.67Z" transform="translate(-429.07 -383.38)"/></g></g></svg>