<svg xmlns="http://www.w3.org/2000/svg" xmlns:xlink="http://www.w3.org/1999/xlink" viewBox="0 0 2878.29 2800"><defs><style>.cls-1{fill:none;}.cls-2{isolation:isolate;}.cls-3{fill:#f4f7fa;}.cls-4{fill:#97a6b7;}.cls-5{fill:url(#linear-gradient);}.cls-6{fill:url(#linear-gradient-2);}.cls-7{fill:url(#linear-gradient-3);}.cls-8{fill:url(#linear-gradient-4);}.cls-24,.cls-9{opacity:0.48;}.cls-13,.cls-24,.cls-9{mix-blend-mode:soft-light;}.cls-10,.cls-24{fill:#fff;}.cls-11{clip-path:url(#clip-path);}.cls-12{fill:url(#linear-gradient-5);}.cls-13{opacity:0.5;}.cls-14{fill:#beb8f2;}.cls-15{fill:url(#linear-gradient-6);}.cls-16{clip-path:url(#clip-path-2);}.cls-17{fill:#fcfdfe;}.cls-18{fill:url(#linear-gradient-7);}.cls-19{fill:url(#linear-gradient-8);}.cls-20{fill:url(#linear-gradient-9);}.cls-21{fill:url(#linear-gradient-10);}.cls-22{fill:url(#linear-gradient-11);}.cls-23,.cls-42,.cls-45,.cls-51{opacity:0.3;}.cls-23,.cls-45,.cls-51{mix-blend-mode:multiply;}.cls-23{fill:url(#linear-gradient-12);}.cls-25{fill:url(#linear-gradient-13);}.cls-26{fill:url(#linear-gradient-14);}.cls-27{fill:url(#linear-gradient-15);}.cls-28{fill:#de8bdf;}.cls-29{fill:url(#linear-gradient-16);}.cls-30{fill:url(#linear-gradient-17);}.cls-31{fill:url(#linear-gradient-18);}.cls-32{fill:url(#linear-gradient-19);}.cls-33{fill:url(#linear-gradient-20);}.cls-34{fill:url(#linear-gradient-21);}.cls-35{fill:url(#linear-gradient-22);}.cls-36{fill:url(#linear-gradient-23);}.cls-37{fill:url(#linear-gradient-24);}.cls-38{fill:url(#linear-gradient-25);}.cls-39{fill:url(#linear-gradient-26);}.cls-40{fill:url(#linear-gradient-27);}.cls-41{fill:url(#linear-gradient-28);}.cls-42{mix-blend-mode:color-burn;}.cls-43{fill:url(#linear-gradient-29);}.cls-44{fill:url(#linear-gradient-30);}.cls-46{fill:url(#linear-gradient-31);}.cls-47{fill:url(#linear-gradient-32);}.cls-48{fill:url(#linear-gradient-33);}.cls-49{fill:url(#linear-gradient-34);}.cls-50{fill:url(#linear-gradient-35);}.cls-51{fill:url(#linear-gradient-36);}</style><linearGradient id="linear-gradient" x1="2165.86" y1="2264.93" x2="2172.75" y2="2523.36" gradientUnits="userSpaceOnUse"><stop offset="0" stop-color="#444b8c"/><stop offset="1" stop-color="#26264f"/></linearGradient><linearGradient id="linear-gradient-2" x1="2222.12" y1="1943.65" x2="1462.71" y2="-722.5" xlink:href="#linear-gradient"/><linearGradient id="linear-gradient-3" x1="2660.1" y1="667.4" x2="1361.88" y2="2169.79" gradientUnits="userSpaceOnUse"><stop offset="0" stop-color="#e38ddd"/><stop offset="1" stop-color="#9571f6"/></linearGradient><linearGradient id="linear-gradient-4" x1="1012.54" y1="2160.87" x2="3133.46" y2="2160.87" xlink:href="#linear-gradient"/><clipPath id="clip-path" transform="translate(-393.09 -455)"><path class="cls-1" d="M1656.33,1928.15l-216.78,121.41s-103.09-88.35-93.91-196.58c18.71-220.83-176-221.81-257.5-234.42-122.89-19-222.9-89.37-120.72-201.61s-133.12-236.24-336-238.34C432.84,1176.54,321.93,822.4,752.09,787.4c256.89-20.9,346.28,213.82,419.6,321.62s247.1,22.78,266.94,193.52c17,145.83-28.36,284.48,88.6,325.76S1702.64,1756.59,1656.33,1928.15Z"/></clipPath><linearGradient id="linear-gradient-5" x1="1140.82" y1="1221.37" x2="814.66" y2="2094.83" gradientUnits="userSpaceOnUse"><stop offset="0" stop-color="#ffc444"/><stop offset="1" stop-color="#f36f56"/></linearGradient><linearGradient id="linear-gradient-6" x1="2745.07" y1="1282.89" x2="3466.11" y2="2469.9" gradientTransform="translate(-2114.97 1066.8) rotate(-16.83)" gradientUnits="userSpaceOnUse"><stop offset="0" stop-color="#ff9085"/><stop offset="1" stop-color="#fb6fbb"/></linearGradient><clipPath id="clip-path-2" transform="translate(-393.09 -455)"><path class="cls-1" d="M1653.73,2491.67l304.87-92.24c4.7-48.53,3.29-135-66.43-135.34-96.94-.45-145.17-156.52-137-219.14,10-77.5,29.76-258.45-120.08-261.51-124.75-2.55-205.77,21.31-257-123.29s-158.36-212.7-289.06-164.78c-137.54,50.43-307.43-102.43-404-6.21-168.21,167.66,108.38,438.17,379.44,460.4s157.19,151,186,273.21c39.3,166.81,250.94,66.48,328.53,113.74C1639.84,2373.56,1651.82,2445.84,1653.73,2491.67Z"/></clipPath><linearGradient id="linear-gradient-7" x1="1726.22" y1="2937.64" x2="1560.8" y2="3007.11" gradientUnits="userSpaceOnUse"><stop offset="0" stop-color="#40447e"/><stop offset="1" stop-color="#3c3b6b"/></linearGradient><linearGradient id="linear-gradient-8" x1="1505.33" y1="2208.57" x2="1325.8" y2="2283.97" xlink:href="#linear-gradient-7"/><linearGradient id="linear-gradient-9" x1="731.55" y1="2249.39" x2="2395.25" y2="2249.39" xlink:href="#linear-gradient-7"/><linearGradient id="linear-gradient-10" x1="2122.99" y1="1420.98" x2="770.91" y2="3310.44" xlink:href="#linear-gradient-3"/><linearGradient id="linear-gradient-11" x1="731.55" y1="2864.62" x2="3086.37" y2="2864.62" xlink:href="#linear-gradient-7"/><linearGradient id="linear-gradient-12" x1="569.39" y1="2390.32" x2="2294.74" y2="2390.32" xlink:href="#linear-gradient-7"/><linearGradient id="linear-gradient-13" x1="3126.79" y1="2629.75" x2="2800.36" y2="2351.29" xlink:href="#linear-gradient"/><linearGradient id="linear-gradient-14" x1="-1000.69" y1="4238.89" x2="245.1" y2="4285.23" gradientTransform="translate(-1389.03 1734.32) rotate(-90)" xlink:href="#linear-gradient"/><linearGradient id="linear-gradient-15" x1="2971.75" y1="2256.23" x2="2555.9" y2="2815.36" xlink:href="#linear-gradient-3"/><linearGradient id="linear-gradient-16" x1="2747.2" y1="964.46" x2="2414.4" y2="1284.34" xlink:href="#linear-gradient-5"/><linearGradient id="linear-gradient-17" x1="1758.04" y1="1037.35" x2="2889.34" y2="2887.66" xlink:href="#linear-gradient-5"/><linearGradient id="linear-gradient-18" x1="2357.93" y1="2090.84" x2="1439.15" y2="243.37" xlink:href="#linear-gradient-5"/><linearGradient id="linear-gradient-19" x1="1668.63" y1="1732.44" x2="2555.76" y2="1732.44" gradientUnits="userSpaceOnUse"><stop offset="0" stop-color="#311944"/><stop offset="1" stop-color="#893976"/></linearGradient><linearGradient id="linear-gradient-20" x1="2394.76" y1="1274.73" x2="2029.9" y2="1949.17" xlink:href="#linear-gradient-3"/><linearGradient id="linear-gradient-21" x1="2072.24" y1="1807.36" x2="2171.86" y2="1807.36" xlink:href="#linear-gradient-19"/><linearGradient id="linear-gradient-22" x1="2289.33" y1="1217.7" x2="1924.47" y2="1892.14" xlink:href="#linear-gradient-3"/><linearGradient id="linear-gradient-23" x1="-2300.18" y1="317.65" x2="-2331.62" y2="534.41" gradientTransform="matrix(-0.81, -0.59, -0.59, 0.81, 188.41, -458.3)" gradientUnits="userSpaceOnUse"><stop offset="0" stop-color="#f36f56"/><stop offset="1" stop-color="#ffc444"/></linearGradient><linearGradient id="linear-gradient-24" x1="926.59" y1="3209.13" x2="966.34" y2="3209.13" gradientTransform="translate(0.98 -81.33) rotate(-9.66)" xlink:href="#linear-gradient-23"/><linearGradient id="linear-gradient-25" x1="1003.41" y1="3045.36" x2="899.18" y2="3411.04" gradientTransform="translate(0.98 -81.33) rotate(-9.66)" xlink:href="#linear-gradient-3"/><linearGradient id="linear-gradient-26" x1="1578.11" y1="2583.69" x2="1241.07" y2="2860.55" gradientUnits="userSpaceOnUse"><stop offset="0" stop-color="#ab316d"/><stop offset="1" stop-color="#792d3d"/></linearGradient><linearGradient id="linear-gradient-27" x1="1400.5" y1="2520.08" x2="1308.27" y2="2843.68" gradientTransform="translate(20.03 69.06) rotate(5.38)" xlink:href="#linear-gradient-3"/><linearGradient id="linear-gradient-28" x1="1258.28" y1="2892.07" x2="1305.18" y2="2892.07" gradientTransform="translate(20.03 69.06) rotate(5.38)" xlink:href="#linear-gradient-23"/><linearGradient id="linear-gradient-29" x1="1220.42" y1="3151.19" x2="833.53" y2="2942.72" gradientTransform="translate(0.98 -81.33) rotate(-9.66)" xlink:href="#linear-gradient-26"/><linearGradient id="linear-gradient-30" x1="437.76" y1="2999.12" x2="64.21" y2="3387.03" gradientTransform="translate(-14.04 -148) rotate(-17.41)" xlink:href="#linear-gradient-26"/><linearGradient id="linear-gradient-31" x1="409.66" y1="2988.2" x2="43.87" y2="3368.06" gradientTransform="translate(-14.04 -148) rotate(-17.41)" xlink:href="#linear-gradient-26"/><linearGradient id="linear-gradient-32" x1="-1722.58" y1="2122.25" x2="-1730.8" y2="2023.61" gradientTransform="matrix(-1, 0.05, 0.05, 1, -504.55, -55.8)" xlink:href="#linear-gradient"/><linearGradient id="linear-gradient-33" x1="1345.75" y1="1879.25" x2="1372.84" y2="2285.49" gradientTransform="matrix(1, 0, 0, 1, 0, 0)" xlink:href="#linear-gradient-23"/><linearGradient id="linear-gradient-34" x1="4134.81" y1="2681.21" x2="4212.34" y2="2762.93" gradientTransform="matrix(0.97, -0.26, 0.26, 0.97, -3411.84, 402.95)" xlink:href="#linear-gradient-23"/><linearGradient id="linear-gradient-35" x1="-1927.18" y1="980.8" x2="-1960.91" y2="1213.33" gradientTransform="matrix(-1, 0, 0, 1, -318.97, 0)" xlink:href="#linear-gradient-23"/><linearGradient id="linear-gradient-36" x1="-1887.59" y1="2068.16" x2="-1787.02" y2="2591.97" gradientTransform="matrix(-1, 0, 0, 1, -318.97, 0)" xlink:href="#linear-gradient-23"/></defs><title>ssl-con</title><g class="cls-2"><g id="Illustration"><circle class="cls-3" cx="1478.29" cy="1400" r="1400"/><path class="cls-4" d="M2405,2514.9a107.53,107.53,0,0,1-71.3-81l-53-262.31-453.37,16.1L1771.51,2461c-7.81,38.27,23.47,76.67,59.49,90.76L2020.68,2626a246.58,246.58,0,0,0,110.9,16.07l400.86-34.29a24.85,24.85,0,0,0,22.48-22c1.37-11.82,9.58-25.09-1.6-28.79Z" transform="translate(-393.09 -455)"/><path class="cls-5" d="M2409.47,2499a106.6,106.6,0,0,1-71.23-79.95l-52.95-259L1843,2175.9l-55.74,269.83a79,79,0,0,0,48.84,89.61l189.49,73.28a248.87,248.87,0,0,0,110.78,15.87l400.46-33.86a24.71,24.71,0,0,0,5.61-48.1Z" transform="translate(-393.09 -455)"/><path class="cls-6" d="M3133.46,1989.24V813.06c0-24.12-19.87-44.65-44.23-45.63L1068.52,686.2c-30.75-1.24-56,20-56,47.22V2033.28Z" transform="translate(-393.09 -455)"/><path class="cls-7" d="M3045.65,826.18,1126,754.56c-28-1-50.92,18.41-50.92,43.24V1929.7c0,25.35,23.42,45.42,52,44.6l1917.78-54.54c22.89-.65,41.57-19.67,41.57-42.28V868C3086.37,845.81,3068.07,827,3045.65,826.18Z" transform="translate(-393.09 -455)"/><path class="cls-8" d="M1012.54,2033.28v259.6c0,27.21,25.23,48.41,56,47.11l2020.71-85.43c24.36-1,44.23-21.61,44.23-45.72V1981.7Z" transform="translate(-393.09 -455)"/><g class="cls-9"><path class="cls-10" d="M2914.6,1837.39c-166-56.06-303.27,58.28-422.57-31.74-134.49-101.5-25.79-296.48-150.19-411.35-172.82-159.58-518.34,87.89-668.4-62.55-103.17-103.43,18.53-269-68.83-443.2C1560.19,800,1477,739.6,1375.92,698.56l-307.4-12.36c-30.75-1.24-56,20-56,47.22V2292.88c0,27.21,25.23,48.41,56,47.11l2020.71-85.43c24.36-1,44.23-21.61,44.23-45.72V2041C3062.3,1915.19,2983.75,1860.75,2914.6,1837.39Z" transform="translate(-393.09 -455)"/></g><g class="cls-11"><path class="cls-12" d="M1656.33,1928.15l-216.78,121.41s-103.09-88.35-93.91-196.58c18.71-220.83-176-221.81-257.5-234.42-122.89-19-208.93-84.33-137.57-197.92,80.74-128.53-116.27-239.93-319.17-242C432.84,1176.54,321.93,822.4,752.09,787.4c256.89-20.9,346.28,213.82,419.6,321.62s247.1,22.78,266.94,193.52c17,145.83-28.36,284.48,88.6,325.76S1702.64,1756.59,1656.33,1928.15Z" transform="translate(-393.09 -455)"/><g class="cls-13"><path class="cls-14" d="M1573.78,2000.82l-5,1.69c-1-3.07-107.32-310.49-304.57-583.47-181.71-251.49-480.07-524.38-869.51-396.19l-1.64-5c173.36-57.06,343.39-40.77,505.36,48.42,129.39,71.25,253.91,188.93,370.11,349.76C1466.23,1689.67,1572.72,1997.74,1573.78,2000.82Z" transform="translate(-393.09 -455)"/><path class="cls-14" d="M964.52,1106.48l-4.86,2C893.83,946.77,716,764.31,714.21,762.49l3.74-3.68C719.75,760.65,898.3,943.84,964.52,1106.48Z" transform="translate(-393.09 -455)"/><path class="cls-14" d="M855,1050c-207.81-9.7-326,117-327.12,118.25l-3.87-3.54c1.18-1.3,120.88-129.77,331.24-120Z" transform="translate(-393.09 -455)"/><path class="cls-14" d="M1383.47,1604.53c-172-187.11-495.1-75.67-498.16-74.32l-2.43-4.65c2.88-1.61,330.92-113.35,504.45,75.42Z" transform="translate(-393.09 -455)"/><path class="cls-14" d="M1333.68,1512.31l-5,1.58c-48.77-154.67,48.12-334.16,49.11-336l4.59,2.52C1381.4,1182.23,1285.58,1359.8,1333.68,1512.31Z" transform="translate(-393.09 -455)"/><path class="cls-14" d="M1551,1954.51c-53.64-80.29-210.78-79.64-212.36-79.62l-.06-5.24c6.57-.07,161.56-.71,216.78,81.94Z" transform="translate(-393.09 -455)"/><path class="cls-14" d="M1526.84,1881.37l-4.95,1.76c-25.56-71.94,32.72-200.66,51.88-243,2.7-6,5-11.14,5.27-12.14l5.13,1.13c-.32,1.41-1.86,4.85-5.63,13.17C1559.61,1684.16,1502,1811.43,1526.84,1881.37Z" transform="translate(-393.09 -455)"/></g></g><path class="cls-15" d="M1633.6,2399.3l4,.47c79.44,9.18,167.88,5.18,265.17-20l55.85-18.71c2.45-49.34-4.05-96.71-66.47-97-96.94-.45-145.17-156.52-137-219.14,10-77.5,29.76-258.45-120.08-261.51-124.75-2.55-205.77,21.31-257-123.29s-158.36-212.7-289.06-164.78c-137.54,50.43-307.43-102.43-404-6.21-168.21,167.66,108.38,438.17,379.44,460.4s157.19,151,186,273.21c39.3,166.81,250.94,66.48,328.53,113.74C1605.29,2352.52,1622.43,2375.11,1633.6,2399.3Z" transform="translate(-393.09 -455)"/><g class="cls-16"><g class="cls-13"><path class="cls-17" d="M1782.77,2400.28l6.1-3.23c-236.68-445.67-688.5-774.29-1179.13-857.61l-1.16,6.8C1097.15,1629.22,1547.07,1956.47,1782.77,2400.28Z" transform="translate(-393.09 -455)"/><path class="cls-17" d="M1632.92,2168.36l6.61-2c-56.59-190.07,62-386.67,63.21-388.64l-5.88-3.6C1695.63,1776.13,1575.43,1975.3,1632.92,2168.36Z" transform="translate(-393.09 -455)"/><path class="cls-17" d="M1737,2319.49l4.88-4.88c-142-142.34-499.25-62.09-502.85-61.26l1.55,6.73C1244.14,2259.26,1597.7,2179.85,1737,2319.49Z" transform="translate(-393.09 -455)"/><path class="cls-17" d="M1275.38,1826.6l5.29-4.43c-102.6-122.13-75.32-365.18-75-367.62l-6.85-.81C1198.49,1456.21,1170.89,1702.23,1275.38,1826.6Z" transform="translate(-393.09 -455)"/><path class="cls-17" d="M997.91,1666.24l1.78-6.67c-175.55-47-390.38,71.81-392.53,73l3.38,6C612.66,1737.41,825.09,1620,997.91,1666.24Z" transform="translate(-393.09 -455)"/></g></g><path class="cls-18" d="M3086.37,2847.12,731.55,2826.61v60.68c0,16.47,10.27,30.48,24.18,33l665.87,119.5a92,92,0,0,0,23.89,1.12l1615.29-136.24c14.42-1.22,25.59-15.27,25.59-32.19Z" transform="translate(-393.09 -455)"/><path class="cls-19" d="M2328.32,2748.75l-1570.85,111c-28.11,2-51-19.12-51-47.15v-1123a50.89,50.89,0,0,1,51-50.76H2328.32c23.16,0,41.88,20.54,41.88,45.88V2699.91C2370.2,2725.25,2351.48,2747.11,2328.32,2748.75Z" transform="translate(-393.09 -455)"/><path class="cls-20" d="M2353.37,2748.75l-1570.85,111c-28.11,2-51-19.12-51-47.15v-1123a50.89,50.89,0,0,1,51-50.76H2353.37c23.16,0,41.88,20.54,41.88,45.88V2699.91C2395.25,2725.25,2376.53,2747.11,2353.37,2748.75Z" transform="translate(-393.09 -455)"/><path class="cls-21" d="M2304.43,2677.18,841.35,2773.61c-22.88,1.5-41.47-15.82-41.47-38.7V1751.74a41.67,41.67,0,0,1,41.47-41.6l1463.08-6.06c19.11-.08,34.56,16.76,34.56,37.6v895.49C2339,2658,2323.54,2675.92,2304.43,2677.18Z" transform="translate(-393.09 -455)"/><path class="cls-10" d="M1623.42,1669.6c0,10.43-8.09,18.92-18.07,19s-18.11-8.43-18.11-18.88,8.11-18.94,18.11-19S1623.42,1659.16,1623.42,1669.6Z" transform="translate(-393.09 -455)"/><path class="cls-22" d="M2314.17,2743.71,731.55,2860.56,1421.6,2984.4a91.6,91.6,0,0,0,23.89,1.12l1640.88-138.4-747-102.61A119.83,119.83,0,0,0,2314.17,2743.71Z" transform="translate(-393.09 -455)"/><polygon class="cls-23" points="569.39 2408.5 1886.96 2309.77 2294.74 2365.33 988.51 2470.87 569.39 2408.5"/><path class="cls-24" d="M1974.9,2440.76c-121.1-65.16-216.32,17.4-308.22-64.06-55.71-49.39-28.36-86.21-96.91-160-75.92-81.75-125.36-54.27-201.66-127.84-96.49-93-48.23-165.39-131.34-232.18-100.82-81-209.55-6-305.53-83.73-41.39-33.52-64.1-82.24-76-134.06H761.37a29.81,29.81,0,0,0-29.82,29.79V2832.73a27.41,27.41,0,0,0,29.82,27.68l1601-113.64c7.85-.56,14.82-5.15,19.29-11.8-117.19-4.27-189.19-43.56-235.22-84.17C2056.37,2571.35,2072,2493,1974.9,2440.76Z" transform="translate(-393.09 -455)"/><path class="cls-25" d="M3043.65,2032.8v703.08c0,10.52-9,12.9-19.13,13.38l-340.17,22.31-5,.23a18.06,18.06,0,0,1-18.78-18.41V2044.27c0-10.61,8.45-19.53,18.78-19.84l6.83-.2,341.53,5.7C3037.84,2029.64,3043.65,2022.28,3043.65,2032.8Z" transform="translate(-393.09 -455)"/><path class="cls-26" d="M3054.53,2032.13v703.6c0,10.52-8.32,19.51-18.5,20l-346.35,16a18.08,18.08,0,0,1-18.8-18.43V2043.63c0-10.61,8.46-19.55,18.8-19.85L3036,2013.55C3046.21,2013.25,3054.53,2021.61,3054.53,2032.13Z" transform="translate(-393.09 -455)"/><path class="cls-27" d="M3043,2071.49v651.3c0,9.81-7.77,18.2-17.26,18.63l-325.69,14.9a16.86,16.86,0,0,1-17.53-17.18V2082.6c0-9.9,7.89-18.23,17.53-18.53l325.69-9.91C3035.27,2053.87,3043,2061.67,3043,2071.49Z" transform="translate(-393.09 -455)"/><path class="cls-28" d="M2870,2039.78a6.78,6.78,0,0,1-6.44,6.83,6.31,6.31,0,0,1-6.44-6.44,6.78,6.78,0,0,1,6.44-6.82A6.3,6.3,0,0,1,2870,2039.78Z" transform="translate(-393.09 -455)"/><g class="cls-9"><path class="cls-10" d="M2942,2439.78c-31.57-79.39-116.69-60.64-143.21-140.87-21.64-65.49,26.5-103.87,7.66-179.69-10.58-42.55-36.6-74.16-63.2-97l-52.73,1.55a20.09,20.09,0,0,0-19.35,19.85v709c0,10.6,8.72,18.36,19.35,17.24L2955.84,2742c-21.29-33.56-29.85-64.23-32.87-89.7C2912,2559.64,2971,2512.51,2942,2439.78Z" transform="translate(-393.09 -455)"/></g><path class="cls-29" d="M2083.15,2460.21a152.17,152.17,0,0,1-82.8-21.41c-75.57-45.31-187.24-120.12-287.7-218.05-127.48-124.27-200.72-250.59-216.74-374.63l-.25-1.94-3.11-529.28c0-104.6,68.22-189.51,196.31-245.3,105.83-46.1,246.1-68.94,394.29-64.65,146.46,4.24,282,34.46,382.29,84.81,119.24,59.86,181.81,144,181.81,243.71l-2.84,505.73-.23,1.86c-14.65,118.78-82,241.56-201.14,365.71-95.54,99.59-203.49,178.51-277.63,227.4A157.61,157.61,0,0,1,2083.15,2460.21Z" transform="translate(-393.09 -455)"/><path class="cls-30" d="M2112.21,2460.21a148.6,148.6,0,0,1-81.7-21.41c-74.58-45.31-184.77-120.12-283.9-218.05-125.79-124.27-198.07-250.59-213.88-374.63l-.25-1.94-3.07-529.28c0-104.6,67.33-189.51,193.73-245.3,104.43-46.1,242.84-68.94,389.07-64.65,144.53,4.24,278.26,34.46,377.24,84.81,117.67,59.86,179.41,144,179.41,243.71l-2.8,505.73-.23,1.86c-14.45,118.78-80.95,241.56-198.48,365.71-94.27,99.59-200.8,178.51-274,227.4A154.05,154.05,0,0,1,2112.21,2460.21Z" transform="translate(-393.09 -455)"/><path class="cls-31" d="M1564.36,1315.28l3.09,526.61c34.66,268.68,350.43,486.22,488,568.87,39.4,23.68,89.77,22.27,128.89-3.47,134.65-88.61,433.13-311.68,465-570l2.83-504.33C2652.15,958.77,1564.36,924.57,1564.36,1315.28Z" transform="translate(-393.09 -455)"/><path class="cls-32" d="M2120,2329.59a18.76,18.76,0,0,1-10.19-2.7c-56.63-34.29-166.4-106.11-261.89-199.91-103.15-101.33-162.64-199.84-176.29-292.36l-3-517.88c.12-49.69,39.46-92.22,116.56-126.25,86.08-38,208.32-57.92,334.83-54.92,125.25,3,243.92,28.19,326.13,69,72.72,36.08,109.49,78.62,109.61,126.59l-2.82,500c-12.74,89.53-68.57,186.05-166.61,287.51-92.17,95.4-199.85,171-256.13,207.79A19.42,19.42,0,0,1,2120,2329.59Z" transform="translate(-393.09 -455)"/><path class="cls-3" d="M2107.1,2294.19c-57.19-35.22-158.88-103.23-247.6-190.55-96.94-95.4-153-186.94-166.22-271.65l-3-514.88c.09-35.53,32.75-68.12,96.82-96.48,81.54-36.11,198.37-55.13,320-52.4,120.47,2.7,234,26.5,312.06,65.11,60.63,30,91.3,62.72,91.38,97.37l-2.81,498.11c-12.37,82.19-65.29,172.07-157.81,267.66C2264,2185.22,2164,2256.58,2107.1,2294.19Z" transform="translate(-393.09 -455)"/><path class="cls-33" d="M2311.71,1620.08l-385.08,3.42c-29.61.27-53.72,23.34-53.72,51.53v246.73c0,28,24,49.74,53.52,48.54l383.73-15.72c27.29-1.11,49.43-23.71,49.57-50.48l1.21-235.7C2361.08,1641.47,2339.1,1619.83,2311.71,1620.08Z" transform="translate(-393.09 -455)"/><path class="cls-34" d="M2171.86,1761.56c.09-27.25-23.3-48.79-51.86-47-25.28,1.6-46.26,22-47.68,46.53a46.39,46.39,0,0,0,24.83,43.83,17.17,17.17,0,0,1,8.63,18.35l-11.12,62.33c-1.42,7.93,4.87,14.91,13.16,14.62l28.17-1c8.24-.28,14.5-7.66,13.14-15.46L2138.36,1822c-1.28-7.37,2.51-14.68,9.19-18.69C2162.07,1794.62,2171.81,1779.08,2171.86,1761.56Z" transform="translate(-393.09 -455)"/><path class="cls-35" d="M2306.31,1595.6a20.54,20.54,0,0,1-20.87-20.52l.23-53.75c.24-54-44.39-98.38-100-98.93L2060,1421.15c-57.56-.57-104.89,44.31-104.94,100l0,55.44c0,11.77-10,21.38-22.42,21.46s-22.48-9.43-22.47-21.25l0-55.68c0-79.59,67.81-143.5,149.93-142.35l125.75,1.74c79,1.1,142.1,64.33,141.74,140.85l-.26,53.53A21,21,0,0,1,2306.31,1595.6Z" transform="translate(-393.09 -455)"/><path class="cls-36" d="M1506.83,1864.24a210.37,210.37,0,0,0,11.34-18c3.91-7.45-5.62-28.09-9.82-45.32s-6.37,9.64-6.9,15.73-.59,17.33-6.89,36.63Z" transform="translate(-393.09 -455)"/><path class="cls-37" d="M1459.08,2899.89l-2.89,46.19s6.56,6.94,19.18,2.11l13.78-45.36Z" transform="translate(-393.09 -455)"/><path class="cls-38" d="M1464.86,2933.85s-22.62,9.23-18.23,19.23c2.36,5.37,10.52,17.51,17.57,27.59a26.44,26.44,0,0,0,29.23,10.2c3.66-1.1,7.4-2.17,10.72-3a7.17,7.17,0,0,0,.58-13.71,53.77,53.77,0,0,0-9.24-2.5c-8.28-1.28-19.68-20.84-21-28.68S1464.86,2933.85,1464.86,2933.85Z" transform="translate(-393.09 -455)"/><path class="cls-39" d="M1410.49,2456.58c33.32,11.5,156.53,58.07,184,164.9,1.46,5.7,5.22,21.56,5.39,47.47.71,107.82-62,199.08-107.6,252.17l-43.13-.72c-7.17-27.52-13.76-68.68-3.45-115,15.78-70.78,56.69-89.14,48.8-123.89-14.33-63.09-160.83-53.55-174.64-110C1314.86,2551.06,1325.81,2516.43,1410.49,2456.58Z" transform="translate(-393.09 -455)"/><path class="cls-40" d="M998.38,3102.13l62.56-1.46a4.17,4.17,0,0,0,2.56-7.38,15.86,15.86,0,0,0-12.07-3.91c-11.9,1.24-38.59-15.41-50.7-11.83-4,1.16-7.18,10.47-8.82,13A7.49,7.49,0,0,0,998.38,3102.13Z" transform="translate(-393.09 -455)"/><path class="cls-41" d="M1026.49,3054.06l-25.76,23.49a28.66,28.66,0,0,0,22.11,3.84l26.33-18.13Z" transform="translate(-393.09 -455)"/><g class="cls-42"><path class="cls-43" d="M1521,2734.78c17.28-46.65,38-104.17,14.34-136.83-23.95-33.06-76.42-5.16-129.06-31.79-19.53-9.88-39.59-27.56-56.28-59.56-29.55,30.51-33.57,51-30.18,64.87,13.81,56.49,160.31,47,174.64,110,7.89,34.75-33,53.11-48.8,123.89-8.87,39.82-5.23,75.8.52,102.61a355.17,355.17,0,0,1,25.27-77.43C1490.36,2789.67,1502.82,2783.93,1521,2734.78Z" transform="translate(-393.09 -455)"/></g><path class="cls-44" d="M1429.58,2443.11a1121.73,1121.73,0,0,1-162.5,383.67,1117.76,1117.76,0,0,1-217,240.44,52.46,52.46,0,0,1-37.77-2.9,358.73,358.73,0,0,1,35.28-106.91c39.82-76.63,75.27-74.17,115.26-141.81,29.29-49.52,38.81-102.13,57.85-207.36,14.7-81.25,14.71-100.67,34.85-124C1296.29,2437.17,1372.72,2436.64,1429.58,2443.11Z" transform="translate(-393.09 -455)"/><g class="cls-45"><path class="cls-46" d="M1062.89,2974.75c14.21-22.43,39.42-45.78,89.15-91.85,51.4-47.62,49.42-39,59.54-53.08,45.29-63,20.76-130.3,32-211.53,6.25-45.32,26.26-104.54,84.52-170.88-27.3,5-53.45,15.87-72.48,36.86-23.37,25.79-21.65,51-34.85,124-19,105.23-28.56,157.84-57.85,207.36-40,67.64-75.44,65.18-115.26,141.81a358.73,358.73,0,0,0-35.28,106.91,52.79,52.79,0,0,0,16.23,4.74,52.26,52.26,0,0,0,14.48-.26C1039.76,3015.55,1055.68,2986.12,1062.89,2974.75Z" transform="translate(-393.09 -455)"/></g><path class="cls-3" d="M1484.34,1838.07s16.66,124-114,211.51l139.08,33.18s44.52-83.24,12.29-221.12Z" transform="translate(-393.09 -455)"/><path class="cls-47" d="M1353.18,1956.08c6.83-13.46,9.65-13.38,11.33-20.48,3.82-16.18-6-36.73-14.42-37-5.4-.18-5.84,8.21-17.27,21.28-14,16-22.48,13.92-30.72,27.82-1.92,3.25-10.59,17.89-5.26,28.82,6.8,13.94,33.63,16.15,44.84,5.39C1347,1976.79,1344.77,1972.65,1353.18,1956.08Z" transform="translate(-393.09 -455)"/><path class="cls-48" d="M1333.07,1970.59s4.79,25.57,1.38,46.36c-3.08,18.79-37.89,38.31-44.56,43.91s17.7,11.67,40,8.74,83.55-22.51,92.84-33.42-10.82-5.54-27.75-7.6-33.09-30.44-33.58-44.92S1333.07,1970.59,1333.07,1970.59Z" transform="translate(-393.09 -455)"/><path class="cls-49" d="M1340.36,1989.68s17.11,7.51,32.27-4.61c13.57-10.85-6.61-44.18-20.41-44.61-4.61-.14-11.33,3.16-15.3,8-2.34,2.86-2.48,4.75-6.4,9.34-3.62,4.23-5.21,4.61-5.76,6.66-.68,2.57.5,6.86,9.79,14.24-4.63-.86-8.62.36-10.17,3.06a5.92,5.92,0,0,0-.61,3.17C1324.33,1989.94,1330.9,1992.27,1340.36,1989.68Z" transform="translate(-393.09 -455)"/><path class="cls-50" d="M1716.39,1900.74s10.36-1.44,7.13-21.23c-2.53-15.52-.61-20.73,3-18s4.18,11.71,4.18,11.71,13.35-11.39,18.85-26.32,9-2.36,10.22,5.11-7.86,30.64-13,35-12.57,23.37-12.57,23.37Z" transform="translate(-393.09 -455)"/><path class="cls-10" d="M1744,1906l-35.36-24.76c-14.35,88.17-47,122.77-74.64,137.91-66.8,36.51-126.42-28.56-254.29-2-35.23,7.32-96.65,21-130.7,71.15-9,13.19-12.14,23.18-27,117.84-19,121-19.67,142.1-17,168.15,4.9,47.68,7.87,76.57,29.85,102.15,58.38,67.9,182.44,32.89,198,28.28,28.74-8.51,73.4-21.74,91.14-59.71,8.35-17.87,7.46-34.2-5.37-99.54-25.42-129.42-28.66-137.8-21.57-152,24-47.83,99.81-20.47,163.9-64.94C1698.44,2102.58,1740.68,2045.91,1744,1906Z" transform="translate(-393.09 -455)"/><path class="cls-51" d="M1374.72,2487.47c12.51-25.66-4.3-49.31,14.14-80.15,23.51-39.3,65.8-26,81.71-55,27.22-49.66-79.91-118.93-58.14-198,10.39-37.75,46.68-65.08,77-75.43,67.31-23,111.33,35.6,174.43,17.28,15-4.34,32.12-13.33,49.48-32-15.35,32.37-34.4,51.93-52.38,64.41-64.09,44.47-140,17.11-163.9,64.94-7.09,14.17-3.85,22.55,21.57,152,12.83,65.34,13.72,81.67,5.37,99.54-17.74,38-62.4,51.2-91.14,59.71-8.51,2.52-49.55,14.12-94.52,13C1358.4,2509.6,1369.2,2498.78,1374.72,2487.47Z" transform="translate(-393.09 -455)"/></g></g></svg>