<svg xmlns="http://www.w3.org/2000/svg" xmlns:xlink="http://www.w3.org/1999/xlink" viewBox="0 0 2839.36 2912.26"><defs><style>.cls-1{fill:none;}.cls-2{isolation:isolate;}.cls-3{fill:url(#linear-gradient);}.cls-4{fill:url(#linear-gradient-2);}.cls-5{fill:url(#linear-gradient-3);}.cls-6{fill:url(#linear-gradient-4);}.cls-7{fill:url(#linear-gradient-5);}.cls-11,.cls-16,.cls-21,.cls-8{opacity:0.3;mix-blend-mode:multiply;}.cls-8{fill:url(#linear-gradient-6);}.cls-9{fill:url(#linear-gradient-7);}.cls-10{fill:url(#linear-gradient-8);}.cls-11{fill:url(#linear-gradient-9);}.cls-12{fill:#d8dee8;}.cls-13{fill:url(#linear-gradient-10);}.cls-14{clip-path:url(#clip-path);}.cls-15{fill:url(#linear-gradient-11);}.cls-16{fill:url(#linear-gradient-12);}.cls-17{fill:url(#linear-gradient-13);}.cls-18{fill:url(#linear-gradient-14);}.cls-19{fill:#fff;}.cls-20{fill:url(#linear-gradient-15);}.cls-22{fill:url(#linear-gradient-16);}</style><linearGradient id="linear-gradient" x1="2057.13" y1="937.73" x2="1339.6" y2="3928.69" gradientUnits="userSpaceOnUse"><stop offset="0" stop-color="#ffc444"/><stop offset="1" stop-color="#f36f56"/></linearGradient><linearGradient id="linear-gradient-2" x1="3256.35" y1="1225.42" x2="2538.81" y2="4216.39" xlink:href="#linear-gradient"/><linearGradient id="linear-gradient-3" x1="1481.4" y1="799.61" x2="763.87" y2="3790.59" xlink:href="#linear-gradient"/><linearGradient id="linear-gradient-4" x1="1986.88" y1="920.88" x2="1269.35" y2="3911.84" xlink:href="#linear-gradient"/><linearGradient id="linear-gradient-5" x1="-2675.01" y1="1965.55" x2="-3126.03" y2="2497.46" gradientTransform="translate(3109.06 -379.34) rotate(-19.81)" gradientUnits="userSpaceOnUse"><stop offset="0" stop-color="#311944"/><stop offset="1" stop-color="#893976"/></linearGradient><linearGradient id="linear-gradient-6" x1="-2737.68" y1="1912.41" x2="-3184.64" y2="2439.54" xlink:href="#linear-gradient-5"/><linearGradient id="linear-gradient-7" x1="-539.74" y1="1623.74" x2="-813.81" y2="1946.96" gradientTransform="translate(1325.6 619.33)" xlink:href="#linear-gradient-5"/><linearGradient id="linear-gradient-8" x1="-426.87" y1="1880.21" x2="864.03" y2="1880.21" gradientTransform="translate(496.72 392.5) rotate(-15.09)" gradientUnits="userSpaceOnUse"><stop offset="0" stop-color="#e38ddd"/><stop offset="1" stop-color="#9571f6"/></linearGradient><linearGradient id="linear-gradient-9" x1="-2888.58" y1="1076.22" x2="-2503.68" y2="3205.2" gradientTransform="translate(3109.06 -379.34) rotate(-19.81)" gradientUnits="userSpaceOnUse"><stop offset="0" stop-color="#aa80f9"/><stop offset="1" stop-color="#6165d7"/></linearGradient><linearGradient id="linear-gradient-10" x1="2110.62" y1="1763.24" x2="911" y2="1793.8" gradientTransform="matrix(-0.94, 0.34, 0.34, 0.94, 2492.23, -157.59)" xlink:href="#linear-gradient-5"/><clipPath id="clip-path" transform="translate(-440.32 -417.58)"><path class="cls-1" d="M2020.33,2672.49c62.07-22.36,117.09-60.9,163.53-114.55,47.26-54.61,83.52-122,107.75-200.38,50.94-164.71,42.45-356.85-23.9-541s-182.35-337.58-326.63-432c-68.64-44.9-139.56-73.71-210.79-85.62-70-11.71-137-6.31-199,16s-117.09,60.91-163.53,114.56c-47.27,54.61-83.52,122-107.76,200.38-50.93,164.71-42.44,356.85,23.91,541s182.35,337.58,326.63,432c68.63,44.9,139.55,73.7,210.78,85.62C1891.3,2700.26,1958.26,2694.85,2020.33,2672.49Z"/></clipPath><linearGradient id="linear-gradient-11" x1="160.02" y1="1911.96" x2="866.07" y2="1911.96" gradientTransform="translate(496.72 392.5) rotate(-15.09)" gradientUnits="userSpaceOnUse"><stop offset="0" stop-color="#ff9085"/><stop offset="1" stop-color="#fb6fbb"/></linearGradient><linearGradient id="linear-gradient-12" x1="-2311.47" y1="1254.19" x2="-2118.45" y2="2321.81" gradientTransform="translate(3109.06 -379.34) rotate(-19.81)" xlink:href="#linear-gradient-11"/><linearGradient id="linear-gradient-13" x1="-1437.83" y1="-1101.86" x2="-3480.14" y2="4003.92" gradientTransform="matrix(-0.99, 0.12, 0.12, 0.99, -39.84, 234.26)" xlink:href="#linear-gradient-5"/><linearGradient id="linear-gradient-14" x1="-2702.19" y1="852.52" x2="-1764.06" y2="2592.46" gradientTransform="matrix(-0.99, 0.12, 0.12, 0.99, -39.84, 234.26)" xlink:href="#linear-gradient-11"/><linearGradient id="linear-gradient-15" x1="2287.48" y1="696.1" x2="2613.95" y2="1872.9" gradientTransform="translate(60.86 62.36) rotate(-1.97)" xlink:href="#linear-gradient-11"/><linearGradient id="linear-gradient-16" x1="-2955.95" y1="949.26" x2="-2029.48" y2="2808.45" gradientTransform="matrix(-0.99, 0.12, 0.12, 0.99, -39.84, 234.26)" xlink:href="#linear-gradient-11"/></defs><title>warning-concept</title><g class="cls-2"><g id="Illustration"><path class="cls-3" d="M1533.4,917.39c-129.47,15.08-173.22-231.13-393.49-286.53-149-37.48-279.33,37.36-304.7,52.67C731,746.41,638.1,866.19,629.89,1001.25c-12.37,203.62,174.91,323.16,118.1,421-43.94,75.67-174.32,35.86-210,117-29.42,66.89,32,155.86,69.22,209.76C709,1896.43,795.72,1884.5,827.29,1961.56c61.68,150.55-232.85,284.85-301.62,580.52-52.61,226.18,33.72,517.51,240.18,672.18,247.31,185.28,593.56,119.46,793.06,0,216.33-129.54,182-275.42,356.18-321.7,210-55.82,315.11,141.66,708.78,163.09,128.64,7,266.38,12.62,339.88-75.53,103.47-124.09,12-352.83-2.53-389.06-109.34-273.3-359.56-362.59-323.44-465.06,22.71-64.42,140.29-82.23,156.26-84.65,118.67-18,175.17,56.56,260.7,25.16,50.17-18.42,103.32-70.71,111.56-128.28,23.86-166.62-345.33-259.6-338.8-436.47,4-109.2,146.4-118,272.21-289,124.07-168.68,211.17-466.77,83.08-642-141-192.86-510.79-193.41-737.56-58.41-269.86,160.64-312.18,498.39-440.7,481.37-111.7-14.78-132-276.84-241.69-279.45C1668.69,712,1645.86,904.28,1533.4,917.39Z" transform="translate(-440.32 -417.58)"/><path class="cls-4" d="M2977.2,2167.53c-38.41-12.83-195.1-65.13-220.07-22.86-28,47.36,106.22,218.86,282.45,257.95,89.53,19.86,209.44,9.87,222-33C3277.72,2314.65,3114.94,2213.51,2977.2,2167.53Z" transform="translate(-440.32 -417.58)"/><path class="cls-5" d="M1612.93,711.92c-4.9,48.3-47.4,103.71-103.53,103.53-58.43-.19-94.29-60.51-103.53-103.53-12.06-56.17,12-126.17,56.65-141.19C1522.75,550.5,1621.26,629.83,1612.93,711.92Z" transform="translate(-440.32 -417.58)"/><path class="cls-6" d="M2046.07,570.73c-54.58,17.09-137.66,43.1-154.83,113.29-16.11,65.82,30.8,149.76,86.86,162.39C2087.64,871.1,2250.37,627.56,2208.46,567,2181.7,528.26,2070.75,563,2046.07,570.73Z" transform="translate(-440.32 -417.58)"/><path class="cls-7" d="M1493,3176.29c-68.87,11-145.57-11-193.71-59.66L652,2462.2c-56.15-56.77-52.5-144.25,9-197.17,63.17-54.34,194.41-64.4,255-5.75l700.86,678.54c69.61,67.39,58.1,161.32-24.29,207.81C1572.62,3156.93,1515.93,3172.63,1493,3176.29Z" transform="translate(-440.32 -417.58)"/><path class="cls-8" d="M661.07,2265c63.17-54.34,194.41-64.4,255-5.75l638.17,617.84c-67.59,2.26-139.69,21.73-228.21-11.84-144.17-54.69-132.46-177-256.29-247.28-55.72-31.63-144-55.24-288.63-25.28L652,2462.2C595.89,2405.43,599.54,2318,661.07,2265Z" transform="translate(-440.32 -417.58)"/><ellipse class="cls-9" cx="648.78" cy="2404.63" rx="207.54" ry="214.94" transform="translate(-1216.93 -55.35) rotate(-19.81)"/><path class="cls-10" d="M566.51,2211.48c3.07,150.38,50.28,281.41,143.75,399l1304.38,92L1522.69,1291.17Z" transform="translate(-440.32 -417.58)"/><path class="cls-11" d="M1504.19,2403.35c-133.61-10.57-233.33-178.65-360.78-138.94-95.66,29.8-85.79,144-178.12,163.16-91.08,18.93-145.49-87.44-251.7-91.31-46.89-1.71-87.44,17.66-122,47.44,23.06,80.7,62.33,155.91,118.66,226.78l1304.38,92-254.87-449.58C1655.09,2375.57,1571.16,2408.65,1504.19,2403.35Z" transform="translate(-440.32 -417.58)"/><ellipse class="cls-12" cx="1775.8" cy="1993.75" rx="562.67" ry="746.78" transform="translate(-1010.97 302.33) rotate(-19.81)"/><path class="cls-13" d="M2020.33,2672.49c62.07-22.36,117.09-60.9,163.53-114.55,47.26-54.61,83.52-122,107.75-200.38,50.94-164.71,42.45-356.85-23.9-541s-182.35-337.58-326.63-432c-68.64-44.9-139.56-73.71-210.79-85.62-70-11.71-137-6.31-199,16s-117.09,60.91-163.53,114.56c-47.27,54.61-83.52,122-107.76,200.38-21.29,68.87-32.2,142.53-32.84,218.41-.88,105.58,133.74,167,172.34,274.14,41.06,113.95-14.48,264.6,59.52,348.3,45.61,51.58,96.51,96.14,151.52,132.13,68.63,44.9,139.55,73.7,210.78,85.62C1891.3,2700.26,1958.26,2694.85,2020.33,2672.49Z" transform="translate(-440.32 -417.58)"/><g class="cls-14"><path class="cls-15" d="M1822.69,1987.27c64.13,178-36.9,374.08-223,437.05-183.21,62-380.2-28.74-442.54-201.78s32.15-366.82,213.59-433.73C1555,1720.86,1758.56,1809.27,1822.69,1987.27Z" transform="translate(-440.32 -417.58)"/><path class="cls-16" d="M1792.45,1994.9c47.62,132.18,11.4,263.8-79.6,293.56-89.59,29.3-198.74-51.45-245-179.95s-13.25-259,75-292C1632.5,1783.08,1744.83,1862.72,1792.45,1994.9Z" transform="translate(-440.32 -417.58)"/></g><path class="cls-17" d="M1953.76,1828.47s88.22-70.27,132.81-169.27c-95.55-86.22-158.92-198.51-173.69-324.38-35.41-301.82,219.38-588.48,584.56-642.56C2871,636.94,3219,843.42,3272.61,1158.9c0,.11,0,.22,0,.33.67,3.91,1.28,7.85,1.86,11.8l.24,1.72c.55,3.88,1.06,7.76,1.52,11.67a496,496,0,0,1,3.38,53.73q.11,11.41-.33,22.75-.87,22.68-3.78,44.95-1.46,11.13-3.41,22.15-1.3,7.35-2.82,14.64c-23.78,114.23-87.37,218.3-178.61,301.09q-2.91,2.64-5.86,5.25a699.09,699.09,0,0,1-103.42,75.71q-3.51,2.1-7,4.17-24.72,14.49-50.93,27.25-11.22,5.46-22.7,10.58-7.65,3.42-15.41,6.68-11.66,4.89-23.53,9.43-7.92,3-15.94,5.9a813.07,813.07,0,0,1-214.54,45q-8.37.6-16.71,1l-4.85.21c-4,.19-7.93.37-11.88.49-1.75.06-3.5.09-5.26.13-3.84.1-7.68.19-11.5.24-1.65,0-3.28,0-4.92,0-4,0-7.95,0-11.92,0l-4.22-.06c-4.25-.06-8.49-.14-12.72-.27l-3.23-.1q-7-.24-13.92-.59l-1.89-.1q-7.82-.4-15.58-1h-.09A781.87,781.87,0,0,1,2385.52,1814a1,1,0,0,0,.13-.16q-36.18-8.79-70.58-20.9C2267.62,1840.12,2142.58,1931.23,1953.76,1828.47Z" transform="translate(-440.32 -417.58)"/><path class="cls-18" d="M1863.8,1338.47c35.41,301.83,350.08,525.67,718.47,498.83,386.85-28.19,683.62-319.44,644.93-649.22s-395.35-549-778.84-492.17C2083.17,750,1828.39,1036.65,1863.8,1338.47Z" transform="translate(-440.32 -417.58)"/><path class="cls-19" d="M1863.8,1338.47c35.41,301.83,350.08,525.67,718.47,498.83,386.85-28.19,683.62-319.44,644.93-649.22s-395.35-549-778.84-492.17C2083.17,750,1828.39,1036.65,1863.8,1338.47Z" transform="translate(-440.32 -417.58)"/><path class="cls-19" d="M2287.38,1772.3s-137.64,193.19-382.71,59.83c0,0,167.9-133.69,157.53-292.1Z" transform="translate(-440.32 -417.58)"/><path class="cls-20" d="M2462.09,1563.47q-1.34-38.68,24.61-64.45t66-27.14q40.07-1.38,67.72,22.54t29,62.61q1.33,38.7-24.61,64.46t-66,27.14q-40.07,1.36-67.71-22.54T2462.09,1563.47Zm157.69-167.72-136.73,4.71-39.44-519.57,179.81-6.19Z" transform="translate(-440.32 -417.58)"/><g class="cls-21"><path class="cls-22" d="M2401.25,1705.44c61.36-174.3-38.73-322.52,58-442.42,99.72-123.57,260.85-36.93,413.64-147.43,59.94-43.35,123.77-120.8,160.94-269.69,106,87.56,177.38,205.95,193.36,342.18,38.69,329.78-258.08,621-644.93,649.22-86,6.26-168.88-1.08-245.83-19.7C2368.74,1779.45,2388.69,1741.13,2401.25,1705.44Z" transform="translate(-440.32 -417.58)"/></g><path class="cls-19" d="M1450.22,1258.44c-37.08-111.29-91.16-239-150.4-236.34-44.21,2-54.8,74.89-102.06,80.57-103.11,12.39-187.87-318.53-257.82-306.17-40.09,7.09-65.15,125.14-43,225.6,41.14,186.36,246.86,321.39,327.65,279.31,60.14-31.32,35.41-152.64,85.94-166.51C1349.7,1124.16,1402.76,1186.43,1450.22,1258.44Z" transform="translate(-440.32 -417.58)"/><path class="cls-19" d="M1638.22,1194c20.65-114.89,10.3-148.81-5.37-155.77-22.22-9.85-47.13,38-91.32,37.6-75.58-.66-130.15-141.74-134.28-139.65-16.08,8.11,47.3,239.92,107.42,236.34,21.52-1.28,30.92-32.18,59.09-32.23C1600,1140.22,1622,1166.88,1638.22,1194Z" transform="translate(-440.32 -417.58)"/><path class="cls-19" d="M2358,2322c1.52-22.45,232.82-46.85,252.45,10.74,9.5,27.85-39.95,47.08-43,91.32-7.6,111.64,293.61,192.15,284.69,225.59-10.25,38.37-422.82-6.67-435.09-112.79-6.1-52.83,90.2-93.07,75.2-145C2476.46,2337,2356.88,2338.17,2358,2322Z" transform="translate(-440.32 -417.58)"/><path class="cls-19" d="M2417.06,2112.49c6.27-31.35,126.1-57.31,155.77-10.75,14.94,23.44,6.69,64.69-16.11,80.58C2511.42,2213.89,2410.8,2143.83,2417.06,2112.49Z" transform="translate(-440.32 -417.58)"/></g></g></svg>