<svg xmlns="http://www.w3.org/2000/svg" xmlns:xlink="http://www.w3.org/1999/xlink" viewBox="0 0 2853.75 2848.25"><defs><style>.cls-1{isolation:isolate;}.cls-2,.cls-39{opacity:0.3;}.cls-2{fill:url(#linear-gradient);}.cls-3{fill:url(#linear-gradient-2);}.cls-11,.cls-12,.cls-15,.cls-18,.cls-35,.cls-4,.cls-46{fill:#fff;}.cls-4{mix-blend-mode:soft-light;}.cls-5{fill:url(#linear-gradient-3);}.cls-6{fill:url(#linear-gradient-4);}.cls-7{fill:url(#linear-gradient-5);}.cls-8{fill:url(#linear-gradient-6);}.cls-9{fill:url(#linear-gradient-7);}.cls-10{fill:url(#linear-gradient-8);}.cls-11{opacity:0.32;}.cls-12{opacity:0.35;}.cls-13{fill:url(#linear-gradient-9);}.cls-14{fill:url(#linear-gradient-10);}.cls-15{opacity:0.6;}.cls-16{fill:url(#linear-gradient-11);}.cls-17{fill:url(#linear-gradient-12);}.cls-18{opacity:0.67;}.cls-19{fill:url(#New_Gradient_Swatch_1);}.cls-20{fill:url(#New_Gradient_Swatch_19);}.cls-21{fill:url(#linear-gradient-13);}.cls-22{fill:url(#linear-gradient-14);}.cls-23{fill:url(#linear-gradient-15);}.cls-24{fill:url(#linear-gradient-16);}.cls-25{fill:url(#linear-gradient-17);}.cls-26{fill:url(#New_Gradient_Swatch_14);}.cls-27{fill:url(#linear-gradient-18);}.cls-28{fill:url(#linear-gradient-19);}.cls-29{fill:url(#New_Gradient_Swatch_14-2);}.cls-30{fill:url(#linear-gradient-20);}.cls-31{fill:url(#New_Gradient_Swatch_14-3);}.cls-32{fill:url(#New_Gradient_Swatch_14-4);}.cls-33{fill:url(#linear-gradient-21);}.cls-34{fill:url(#linear-gradient-22);}.cls-36{fill:url(#New_Gradient_Swatch_1-2);}.cls-37{fill:url(#linear-gradient-23);}.cls-38{fill:#5436df;}.cls-40{fill:url(#linear-gradient-24);}.cls-41{fill:url(#linear-gradient-25);}.cls-42{fill:url(#linear-gradient-26);}.cls-43{fill:url(#linear-gradient-27);}.cls-44{fill:url(#linear-gradient-28);}.cls-45{fill:url(#New_Gradient_Swatch_19-2);}.cls-46{opacity:0.56;}.cls-47{fill:url(#linear-gradient-29);}.cls-48{fill:url(#linear-gradient-30);}.cls-49{fill:url(#linear-gradient-31);}.cls-50{fill:url(#linear-gradient-32);}.cls-51{fill:url(#New_Gradient_Swatch_19-3);}</style><linearGradient id="linear-gradient" x1="3638.9" y1="4117.49" x2="1114.04" y2="981.78" gradientUnits="userSpaceOnUse"><stop offset="0" stop-color="#b37cff"/><stop offset="1" stop-color="#f895e7"/></linearGradient><linearGradient id="linear-gradient-2" x1="-2742.77" y1="1684.7" x2="-1419.25" y2="1684.7" gradientTransform="matrix(-0.63, -0.78, -0.78, 0.63, 2918.96, -1491.11)" gradientUnits="userSpaceOnUse"><stop offset="0" stop-color="#a737d5"/><stop offset="1" stop-color="#ef497a"/></linearGradient><linearGradient id="linear-gradient-3" x1="3876.76" y1="1787.49" x2="5256.78" y2="1787.49" gradientTransform="matrix(-0.92, 0.38, 0.38, 0.92, 6444.16, -1929.64)" gradientUnits="userSpaceOnUse"><stop offset="0" stop-color="#ce1567"/><stop offset="1" stop-color="#7a1dbc"/></linearGradient><linearGradient id="linear-gradient-4" x1="1792.81" y1="473.04" x2="1843" y2="1652.6" gradientUnits="userSpaceOnUse"><stop offset="0" stop-color="#2b3582"/><stop offset="1" stop-color="#150e42"/></linearGradient><linearGradient id="linear-gradient-5" x1="1839.38" y1="2952.96" x2="1826.2" y2="567.27" gradientTransform="translate(3680.65 6248.15) rotate(-180)" xlink:href="#linear-gradient-4"/><linearGradient id="linear-gradient-6" x1="1998.62" y1="1725.21" x2="1396.37" y2="3809.18" gradientTransform="matrix(1, 0, 0, 1, 0, 0)" xlink:href="#linear-gradient-2"/><linearGradient id="linear-gradient-7" x1="1485.91" y1="35.64" x2="1071.42" y2="2443.86" xlink:href="#linear-gradient"/><linearGradient id="linear-gradient-8" x1="1863.74" y1="-114.7" x2="1750.61" y2="985.78" xlink:href="#linear-gradient"/><linearGradient id="linear-gradient-9" x1="1606.5" y1="601.19" x2="1575.58" y2="2971.73" gradientUnits="userSpaceOnUse"><stop offset="0" stop-color="#fdf53f"/><stop offset="1" stop-color="#d93c65"/></linearGradient><linearGradient id="linear-gradient-10" x1="2132.47" y1="-12.75" x2="1922.53" y2="2617" xlink:href="#linear-gradient-9"/><linearGradient id="linear-gradient-11" x1="1723.61" y1="2815.21" x2="2073.5" y2="-1301.79" gradientUnits="userSpaceOnUse"><stop offset="0" stop-color="#53d8ff"/><stop offset="1" stop-color="#3840f7"/></linearGradient><linearGradient id="linear-gradient-12" x1="2333.44" y1="555.45" x2="2116.21" y2="3276.49" xlink:href="#linear-gradient-11"/><linearGradient id="New_Gradient_Swatch_1" x1="2304.37" y1="1324.12" x2="2190.02" y2="1600.55" gradientTransform="translate(126.98 357.24) rotate(9.25)" xlink:href="#linear-gradient-4"/><linearGradient id="New_Gradient_Swatch_19" x1="2116.83" y1="2323.08" x2="2168.9" y2="3898.23" xlink:href="#linear-gradient-9"/><linearGradient id="linear-gradient-13" x1="1815.49" y1="2469.91" x2="2160.49" y2="3303.29" gradientUnits="userSpaceOnUse"><stop offset="0" stop-color="#f9b776"/><stop offset="1" stop-color="#f47960"/></linearGradient><linearGradient id="linear-gradient-14" x1="-6594.17" y1="2468.12" x2="-6249.16" y2="3301.5" gradientTransform="matrix(-1, 0, 0, 1, -4167.07, 0)" xlink:href="#linear-gradient-13"/><linearGradient id="linear-gradient-15" x1="1693.82" y1="2135.88" x2="1675.87" y2="2863.02" xlink:href="#linear-gradient-4"/><linearGradient id="linear-gradient-16" x1="2117.71" y1="2668.01" x2="2137.42" y2="2216.92" xlink:href="#linear-gradient-11"/><linearGradient id="linear-gradient-17" x1="2342.43" y1="2979.79" x2="2530.96" y2="2979.79" gradientTransform="translate(9.52 16.81) rotate(0.44)" xlink:href="#linear-gradient-4"/><linearGradient id="New_Gradient_Swatch_14" x1="2523.72" y1="2933.26" x2="2585.43" y2="2464.72" gradientTransform="translate(9.52 16.81) rotate(0.44)" gradientUnits="userSpaceOnUse"><stop offset="0" stop-color="#7c27dd"/><stop offset="1" stop-color="#2b41d9"/></linearGradient><linearGradient id="linear-gradient-18" x1="2453.44" y1="2674.72" x2="2254.44" y2="3213.75" xlink:href="#linear-gradient-13"/><linearGradient id="linear-gradient-19" x1="-6745.4" y1="2930.23" x2="-6556.79" y2="2930.23" gradientTransform="matrix(-1, -0.02, -0.02, 1, -4814, -50.84)" xlink:href="#linear-gradient-4"/><linearGradient id="New_Gradient_Swatch_14-2" x1="-6177.1" y1="-53.89" x2="-6115.39" y2="-522.44" gradientTransform="matrix(-1, -0.02, -0.02, 1, -4814, -50.84)" xlink:href="#New_Gradient_Swatch_14"/><linearGradient id="linear-gradient-20" x1="2054.73" y1="2512.28" x2="1855.62" y2="3051.59" xlink:href="#linear-gradient-13"/><linearGradient id="New_Gradient_Swatch_14-3" x1="2537.79" y1="2664.31" x2="2020.45" y2="3052.94" gradientTransform="matrix(1, 0, 0, 1, 0, 0)" xlink:href="#New_Gradient_Swatch_14"/><linearGradient id="New_Gradient_Swatch_14-4" x1="2070.21" y1="3012.77" x2="1934.62" y2="2667.02" gradientTransform="matrix(1, 0, 0, 1, 0, 0)" xlink:href="#New_Gradient_Swatch_14"/><linearGradient id="linear-gradient-21" x1="2118.35" y1="2538.72" x2="2113.76" y2="2139.32" xlink:href="#linear-gradient-13"/><linearGradient id="linear-gradient-22" x1="2257.69" y1="1592.88" x2="2270.98" y2="1269.95" gradientTransform="translate(126.98 357.24) rotate(9.25)" xlink:href="#linear-gradient-13"/><linearGradient id="New_Gradient_Swatch_1-2" x1="2297.36" y1="1321.03" x2="2184.03" y2="1595.04" gradientTransform="translate(126.98 357.24) rotate(9.25)" xlink:href="#linear-gradient-4"/><linearGradient id="linear-gradient-23" x1="2071.04" y1="2204.69" x2="2091.86" y2="1698.63" gradientTransform="translate(31.26 60.87) rotate(1.75)" xlink:href="#linear-gradient-13"/><linearGradient id="linear-gradient-24" x1="133.79" y1="8286.93" x2="747.37" y2="8286.93" gradientTransform="matrix(0.96, 0.27, 0.27, -0.96, -1647.45, 10878.3)" xlink:href="#linear-gradient"/><linearGradient id="linear-gradient-25" x1="777.2" y1="8125.34" x2="813.03" y2="8125.34" gradientTransform="matrix(0.96, 0.27, 0.27, -0.96, -1647.45, 10878.3)" xlink:href="#linear-gradient"/><linearGradient id="linear-gradient-26" x1="963.18" y1="8399.17" x2="987.77" y2="8399.17" gradientTransform="matrix(0.96, 0.27, 0.27, -0.96, -1647.45, 10878.3)" xlink:href="#linear-gradient"/><linearGradient id="linear-gradient-27" x1="361.03" y1="8678.86" x2="993.03" y2="8678.86" gradientTransform="matrix(0.96, 0.27, 0.27, -0.96, -1647.45, 10878.3)" xlink:href="#linear-gradient"/><linearGradient id="linear-gradient-28" x1="298.03" y1="8812.05" x2="333.41" y2="8812.05" gradientTransform="matrix(0.96, 0.27, 0.27, -0.96, -1647.45, 10878.3)" xlink:href="#linear-gradient"/><linearGradient id="New_Gradient_Swatch_19-2" x1="1269.22" y1="2547.02" x2="775.53" y2="3918.4" xlink:href="#linear-gradient-9"/><linearGradient id="linear-gradient-29" x1="-231.2" y1="8797.94" x2="-213.71" y2="8797.94" gradientTransform="matrix(0.96, 0.27, 0.27, -0.96, -1647.45, 10878.3)" xlink:href="#linear-gradient"/><linearGradient id="linear-gradient-30" x1="-238.27" y1="8601.47" x2="104.5" y2="8601.47" gradientTransform="matrix(0.96, 0.27, 0.27, -0.96, -1647.45, 10878.3)" xlink:href="#linear-gradient"/><linearGradient id="linear-gradient-31" x1="-85.31" y1="8930.07" x2="305.9" y2="8930.07" gradientTransform="matrix(0.96, 0.27, 0.27, -0.96, -1647.45, 10878.3)" xlink:href="#linear-gradient"/><linearGradient id="linear-gradient-32" x1="-128.32" y1="8954.53" x2="-101.56" y2="8954.53" gradientTransform="matrix(0.96, 0.27, 0.27, -0.96, -1647.45, 10878.3)" xlink:href="#linear-gradient"/><linearGradient id="New_Gradient_Swatch_19-3" x1="885.67" y1="2142.61" x2="378.26" y2="3226" xlink:href="#linear-gradient-9"/></defs><title>website-builder</title><g class="cls-1"><g id="Illustration"><path class="cls-2" d="M2952.09,2875.47c-58.42,60.76-113.7,99.94-157.38,130.9-513.38,363.9-1120.85,257.82-1250,231.92-190.64-38.25-559.16-112.2-825.59-421.72-403.09-468.28-340.32-1206-27.66-1693,57.19-89.08,359.29-583.51,973.3-662.8,371.6-48,804.76,48.79,1118.44,308.42C3441.69,1314.1,3394.81,2415,2952.09,2875.47Z" transform="translate(-428.12 -441.53)"/><path class="cls-3" d="M3032.72,1914.6c15.6,16.56,43,11.8,52.43-8.93,51.79-114.34,169-450.86-24.57-838.56-163.45-327.39-221-520.44-241-609.89-4.24-18.92-30.16-21.43-38-3.7C2695.26,649.19,2467.33,1314.72,3032.72,1914.6Z" transform="translate(-428.12 -441.53)"/><path class="cls-4" d="M3061.06,1902.54a9.7,9.7,0,0,0,1.71.13,8.88,8.88,0,0,0,8.75-9c-.09-5.56-10.91-561.34-217.62-1026.82a8.88,8.88,0,1,0-16.23,7.22c205.2,462.09,216,1014.35,216.09,1019.87A8.88,8.88,0,0,0,3061.06,1902.54Z" transform="translate(-428.12 -441.53)"/><path class="cls-5" d="M3239,471.13c3.41-14.55-17-24.22-29.58-14.06-127.26,103.19-433,412.21-356.82,952.23,95.61,677.54-67.84,924.77-271.29,1075.57,0,0,279.41-70.91,455.2-321.78C3468.07,1547.16,3178.18,729.81,3239,471.13Z" transform="translate(-428.12 -441.53)"/><path class="cls-4" d="M3142.1,682.75C3126.18,758.18,3112,833.84,3101,909.83q-17.15,113.91-26.17,228.46c-5.65,76.34-9.64,152.76-9.87,229.21-.63,76.45,2.55,152.83,6.05,229.51,3,76.66,6.54,153.86.93,231.62-5.52,77.59-21.85,155.87-54.27,229.24-8.1,18.29-16.62,36.52-26.3,54.14-9.3,17.77-19.52,35.2-30.1,52.46a827.09,827.09,0,0,1-72.18,99.3c-53.78,63.06-118.63,119-190.08,166.34-7.52,5-18.29,3.76-24.06-2.73s-4.4-15.46,2.77-20.51l.05,0c17-11.94,33.82-24,50-36.74,8.18-6.24,16-12.77,24-19.18,7.7-6.67,15.7-13.07,23.16-19.93a824.23,824.23,0,0,0,83.94-86.28c51.29-60.63,92.34-128.2,123.45-198.25a669.91,669.91,0,0,0,36-108,736,736,0,0,0,17.36-111.9c6.12-75.47,3.36-151.91,1-228.58s-3.9-153.76-1.88-230.78q1.33-57.75,5.08-115.43c1.11-19.23,2.66-38.43,4.17-57.63q2.58-28.8,5.59-57.54,12.39-115,33-229c14.16-75.92,30.66-151.5,50.5-226.4.56-2.14,3-3.48,5.51-3S3142.54,680.67,3142.1,682.75Z" transform="translate(-428.12 -441.53)"/><path class="cls-6" d="M586.31,3020a45.57,45.57,0,0,0,45.46,45.41H3090a45.56,45.56,0,0,0,45.46-45.41L3156,1607.26c0-25-29.43-73.74-83.36-70.08L670.1,1475a114.56,114.56,0,0,0-117.55,117.16Z" transform="translate(-428.12 -441.53)"/><rect class="cls-7" x="428.12" y="3058.52" width="2824.4" height="131.11" rx="5.65" transform="translate(3252.53 5806.62) rotate(180)"/><path class="cls-8" d="M631.19,2976.39a43.13,43.13,0,0,0,43,43H3030.75a43.13,43.13,0,0,0,43-43l19.3-1282.46c-2.27-77.18-69.93-104.91-110.95-103.28L679.55,1528.88a80.51,80.51,0,0,0-82.6,82.39Z" transform="translate(-428.12 -441.53)"/><rect class="cls-9" x="275.42" y="331.12" width="2107.95" height="1227.71" rx="41"/><path class="cls-10" d="M2812.05,946.49V891.37c0-65.3-53.11-116.3-117.34-116.3H820.34c-64.24,0-116.79,51-116.79,116.3v55.12Z" transform="translate(-428.12 -441.53)"/><rect class="cls-11" x="342.79" y="565.82" width="598.89" height="434.61" rx="7.83"/><rect class="cls-11" x="1611.73" y="561.68" width="675.15" height="290.22" rx="9.33"/><rect class="cls-11" x="1614.4" y="881.7" width="675.15" height="290.22" rx="9.5"/><rect class="cls-11" x="1617.06" y="1201.72" width="675.15" height="290.22" rx="11.33"/><rect class="cls-11" x="341.48" y="1052.52" width="598.89" height="434.61" rx="9"/><rect class="cls-11" x="974.34" y="565.82" width="598.89" height="434.61" rx="7.83"/><rect class="cls-11" x="973.03" y="1052.52" width="598.89" height="434.61" rx="9"/><circle class="cls-12" cx="388.16" cy="421.18" r="43.07"/><circle class="cls-12" cx="1078.28" cy="862.7" r="43.07" transform="translate(-676.19 36.78) rotate(-22.5)"/><circle class="cls-12" cx="517.36" cy="421.18" r="43.07"/><rect class="cls-13" x="572.14" y="770.13" width="2048.75" height="1193.22" rx="41"/><path class="cls-14" d="M3048.61,1381.9V1327a112.52,112.52,0,0,0-113.11-113.13H1113.77c-62.43,0-115.38,49.67-115.38,113.13v54.86Z" transform="translate(-428.12 -441.53)"/><rect class="cls-15" x="642.37" y="991.28" width="576.69" height="580.11" rx="7.83"/><rect class="cls-15" x="1265.55" y="991.28" width="576.69" height="580.11" rx="7.83"/><rect class="cls-15" x="1884.63" y="994.21" width="656.19" height="425.55" rx="9.33"/><rect class="cls-15" x="1887.22" y="1470.32" width="656.19" height="425.55" rx="9.5"/><rect class="cls-15" x="646.63" y="1622.64" width="1187.89" height="274.37" rx="9"/><circle class="cls-12" cx="1109.83" cy="1299.18" r="41.86" transform="translate(-1021.72 723.76) rotate(-45)"/><circle class="cls-12" cx="1364.47" cy="1299.17" r="41.86" transform="translate(-641.56 1887.13) rotate(-76.72)"/><circle class="cls-12" cx="1235.41" cy="1299.18" r="41.86" transform="translate(-984.94 812.56) rotate(-45)"/><path class="cls-16" d="M779.81,1382.33h2026a41,41,0,0,1,41,41V2579.53a30.5,30.5,0,0,1-30.5,30.5H779.81a41,41,0,0,1-41-41V1423.33a41,41,0,0,1,41-41Z"/><path class="cls-17" d="M3274.89,1999v-56.46c0-65.29-52.56-118.39-116.79-118.39H1283.73c-64.24,0-117.34,53.1-117.34,118.39V1999Z" transform="translate(-428.12 -441.53)"/><rect class="cls-15" x="821.26" y="1620.46" width="1222.21" height="434.61" rx="7.83"/><rect class="cls-15" x="2088.84" y="1612.89" width="675.15" height="290.22" rx="9.33"/><rect class="cls-15" x="2091.51" y="1932.9" width="675.15" height="290.22" rx="9.5"/><rect class="cls-15" x="2094.18" y="2252.92" width="675.15" height="290.22" rx="11.33"/><rect class="cls-15" x="818.59" y="2107.16" width="1222.21" height="434.61" rx="9"/><circle class="cls-18" cx="851.55" cy="1472.38" r="43.07"/><circle class="cls-18" cx="1113.55" cy="1472.38" r="43.07"/><circle class="cls-18" cx="980.75" cy="1472.38" r="43.07"/><path class="cls-19" d="M2052.77,2077.44c-.82,1.55-25.55,19-25.55,19s-17.19,94.66,14.34,141.27,139-36.38,139-36.38,60.43-9.45,90.78-128.26c7-27.26-36.58-6.54-85.1-1.52C2123.63,2078,2052.77,2077.44,2052.77,2077.44Z" transform="translate(-428.12 -441.53)"/><path class="cls-20" d="M1945.52,2374.18a222.15,222.15,0,0,1,67.46-31.39c9.06-2.46,58,11.76,88.23,11.06,41.52-.95,83.78-19.85,118-11.32,34,8.47,61.81,19.54,77.88,31,48.08,34.2,76.31,98,93.51,161.14-32.57,33.44-73.57,48.3-73.57,48.3l-7.57,307-181.56,92.89-207.22-104,7.43-300s-65.81-30.64-70.63-41.79S1887.47,2414.09,1945.52,2374.18Z" transform="translate(-428.12 -441.53)"/><path class="cls-21" d="M1860.54,2535.64s-88.18,244.47,112.9,344.94c41.75-5.54,25.7-74.88,25.7-74.88s-87.38-19.34-61.13-223.27C1913.85,2562.55,1860.54,2535.64,1860.54,2535.64Z" transform="translate(-428.12 -441.53)"/><path class="cls-22" d="M2386.36,2535.64s60.68,255.19-112.9,344.94c-41.75-5.54-25.69-74.88-25.69-74.88s70.42-34.68,61.13-223.27C2333.06,2562.55,2386.36,2535.64,2386.36,2535.64Z" transform="translate(-428.12 -441.53)"/><rect class="cls-23" x="1490.17" y="2187.36" width="398.12" height="268.87" rx="5.05"/><path class="cls-24" d="M2140.84,2701.7c2.11,14.26-5.53,27.21-19.8,29.32a26.11,26.11,0,0,1-29.65-22c-2.11-14.26,4.42-28.43,18.68-30.54S2138.73,2687.43,2140.84,2701.7Z" transform="translate(-428.12 -441.53)"/><path class="cls-25" d="M2491,2977.46c-45.56-10.46-150.87-4.83-150.87-4.83l-4.28,11.6-7.09,57.65s100.28,18.08,149.71,18a46.39,46.39,0,0,0,13.87-2.07c1.51-1.35,3-2.76,4.38-4.28C2517.73,3030.66,2511.67,2997,2491,2977.46Z" transform="translate(-428.12 -441.53)"/><path class="cls-26" d="M2495.55,2978.61c-1.42-.41-2.93-.79-4.51-1.15,20.63,19.55,26.69,53.2,5.72,76.1-1.4,1.52-2.87,2.93-4.38,4.28C2529.47,3046.3,2533.86,2989.38,2495.55,2978.61Z" transform="translate(-428.12 -441.53)"/><path class="cls-27" d="M2309.91,2969.38l17.84.76a34.36,34.36,0,0,1,25.05,13A42.31,42.31,0,0,1,2362,3012a33.28,33.28,0,0,1-9.65,22,27.06,27.06,0,0,1-20.87,7.92l-27.28-1.94Z" transform="translate(-428.12 -441.53)"/><path class="cls-28" d="M1710.33,2971.92c45.8-9.06,150.93-.21,150.93-.21l4,11.73,5.65,57.85s-100.7,15-150.11,13.43a46.69,46.69,0,0,1-13.81-2.5c-1.47-1.4-2.91-2.84-4.27-4.41C1682.32,3024.27,1689.22,2990.82,1710.33,2971.92Z" transform="translate(-428.12 -441.53)"/><path class="cls-29" d="M1705.79,2972.92c1.43-.36,3-.69,4.54-1-21.11,18.9-28,52.35-7.62,75.89,1.36,1.57,2.8,3,4.27,4.41C1670.2,3039.55,1667.23,2982.52,1705.79,2972.92Z" transform="translate(-428.12 -441.53)"/><path class="cls-30" d="M1891.58,2969.4l-17.84.21a34.06,34.06,0,0,0-25.36,12.18,42,42,0,0,0-9.91,28.61,33.43,33.43,0,0,0,9.1,22.28,27.19,27.19,0,0,0,20.65,8.57l27.33-1.11Z" transform="translate(-428.12 -441.53)"/><path class="cls-31" d="M2503.78,2796.72c-20.66-47.55-71.2-55.27-114.21-33-.75,1-273.15,140.6-513.38,201.78a261,261,0,0,1,11.18,68.57q.21,7.71-.24,15.2c184.21-9.46,384.15-70.9,555.95-124.89C2496.36,2907.16,2526.68,2849.43,2503.78,2796.72Z" transform="translate(-428.12 -441.53)"/><path class="cls-32" d="M2311.22,3037.64q-1.08-39.87,15.51-74.23c.31-1,.69-2,1-3.09-13.71-4.25-31.44-10-54.72-17.9-170.58-58.38-300.72-117.33-424.92-185.18-48.25-26.36-103.11-8.7-118.56,48.4-13.79,51,17.51,91.71,62.45,109.77,154.5,62.06,381.45,118.74,519.51,128C2311.41,3041.5,2311.29,3039.57,2311.22,3037.64Z" transform="translate(-428.12 -441.53)"/><path class="cls-33" d="M2013,2342.79s18.35,79.51,107.42,77.85c90.72-1.65,98.81-78.11,98.81-78.11L2160,2329.85l-5-66-89.14,6.6-1.65,62.73Z" transform="translate(-428.12 -441.53)"/><path class="cls-34" d="M2074.41,2069.19s-94.92,183.87,17.68,228.47c79.42,31.47,129.21-122.1,114.36-163.69-23-64.31-38.09-56.68-38.09-56.68Z" transform="translate(-428.12 -441.53)"/><path class="cls-35" d="M2206.45,2134c-.27-.75-.5-1.41-.71-2,.36,3.4.56,6.93.6,10.57q.21-3.89.35-7.78C2206.61,2134.47,2206.54,2134.21,2206.45,2134Z" transform="translate(-428.12 -441.53)"/><path class="cls-35" d="M2205.74,2131.93c-.14-1.25-.29-2.5-.46-3.72C2210.16,2136.35,2200.77,2117.39,2205.74,2131.93Z" transform="translate(-428.12 -441.53)"/><path class="cls-36" d="M2250.39,2019.83c50.86-11.57,15.56,145.75-60.16,120s-111-41.63-122.79-20.84-31.46,105.84-38,61.74c-6.11-41.21-12-116.75,27.76-133.23,22.59-9.36,42.46,10.92,58,5.84,24-7.81,47.06-8.08,61.3.13C2203.49,2069,2218.07,2027.18,2250.39,2019.83Z" transform="translate(-428.12 -441.53)"/><path class="cls-37" d="M2059,2149.54s-16.42-24.8-23.9.58-2.73,60.42,12.32,44.13S2059,2149.54,2059,2149.54Z" transform="translate(-428.12 -441.53)"/><path class="cls-38" d="M2117.82,2425.92c-53.74,0-94.7-30.36-109.87-81.64a5.25,5.25,0,0,1,10.06-3c6.64,22.44,29.58,74.12,99.61,74.12.89,0,1.78,0,2.68,0,20.87-.38,38.85-4.92,53.45-13.49a5.25,5.25,0,1,1,5.32,9.06c-16.18,9.49-35.89,14.51-58.58,14.92Q2119.15,2425.92,2117.82,2425.92Z" transform="translate(-428.12 -441.53)"/><g class="cls-39"><path class="cls-40" d="M769.77,2697.39a10.74,10.74,0,0,1,6.08,13.94c-4.21,10.75-8,21.83-11.34,33a10.75,10.75,0,0,1-13.17,7.31l-.21-.06a10.76,10.76,0,0,1-7.24-13.38c3.48-11.7,7.5-23.38,11.94-34.69A10.76,10.76,0,0,1,768.7,2697,8.41,8.41,0,0,1,769.77,2697.39Zm-17.64,102.13c-1.76,11.47-3,23.12-3.82,34.63a10.75,10.75,0,1,1-21.46-1.45c.81-12.11,2.17-24.37,4-36.44a10.77,10.77,0,0,1,12.27-9,12.59,12.59,0,0,1,1.25.27A10.75,10.75,0,0,1,752.13,2799.52Zm-3.68,91.21c.84,11.54,2.18,23.18,4,34.6a10.76,10.76,0,0,1-21.25,3.39c-1.92-12-3.34-24.29-4.22-36.43a10.76,10.76,0,1,1,21.46-1.56Zm16.81,89.74c3.4,11.08,7.31,22.13,11.64,32.85a10.76,10.76,0,1,1-19.95,8c-4.56-11.3-8.68-22.93-12.26-34.58a10.76,10.76,0,0,1,20.57-6.32Zm36.38,83.76c5.76,10,12,19.93,18.63,29.46a10.75,10.75,0,1,1-17.68,12.25c-7-10-13.54-20.45-19.6-31a10.76,10.76,0,1,1,18.65-10.72Zm54,73.62c7.84,8.51,16.15,16.79,24.68,24.6a10.76,10.76,0,1,1-14.53,15.87c-9-8.22-17.72-16.93-26-25.89a10.76,10.76,0,0,1,15.82-14.58Zm375.81,135.42a10.76,10.76,0,0,1-9,12.3c-12,1.9-24.29,3.29-36.46,4.15a10.76,10.76,0,0,1-1.51-21.46c11.55-.81,23.2-2.14,34.62-3.94a10.63,10.63,0,0,1,4.54.25A10.76,10.76,0,0,1,1231.46,3273.27ZM924.6,3197.64c9.53,6.54,19.46,12.76,29.52,18.46a10.76,10.76,0,0,1-10.62,18.71c-10.59-6-21-12.55-31.09-19.44a10.76,10.76,0,1,1,12.19-17.73Zm213.33,82.13a10.76,10.76,0,0,1-11.47,10c-12.14-.84-24.41-2.22-36.46-4.09a10.76,10.76,0,1,1,3.31-21.26c11.45,1.78,23.1,3.09,34.64,3.89a10.77,10.77,0,0,1,10,11.48Zm-132.77-39.27c10.74,4.25,21.82,8.09,32.91,11.41a10.76,10.76,0,0,1-6,20.67l-.22-.06c-11.68-3.5-23.34-7.54-34.65-12a10.76,10.76,0,0,1,6.81-20.38C1004.43,3240.24,1004.79,3240.36,1005.16,3240.5Z" transform="translate(-428.12 -441.53)"/><path class="cls-41" d="M1296.94,3246.09a10.62,10.62,0,0,0-6.42.22c-5.24,1.84-10.59,3.59-15.93,5.23a10.76,10.76,0,1,0,6.3,20.57c5.61-1.72,11.25-3.57,16.75-5.5a10.76,10.76,0,0,0-.7-20.52Z" transform="translate(-428.12 -441.53)"/></g><g class="cls-39"><path class="cls-42" d="M1539.37,3025.21a10.77,10.77,0,0,0-12.64,5.9c-2.31,5-4.76,10.13-7.28,15.1a10.76,10.76,0,1,0,19.18,9.74c2.66-5.23,5.24-10.58,7.66-15.89a10.75,10.75,0,0,0-5.31-14.26A11.16,11.16,0,0,0,1539.37,3025.21Z" transform="translate(-428.12 -441.53)"/><path class="cls-43" d="M1290.86,2453.2a10.76,10.76,0,0,1-6.75,20.43c-10.74-3.55-21.79-6.69-33-9.39a10.75,10.75,0,1,1,5-20.91q7.27,1.74,14.43,3.73C1277.4,2448.94,1284.22,2451,1290.86,2453.2Zm-82.87-7.92a10.76,10.76,0,0,1-11.78,9.62c-11.35-1.14-22.87-1.82-34.24-2a10.76,10.76,0,1,1,.36-21.51c12,.2,24.09.91,36,2.12a10.42,10.42,0,0,1,1.8.34A10.76,10.76,0,0,1,1208,2445.28Zm137.14,30.07c10.75,5.27,21.42,11.07,31.71,17.25a10.76,10.76,0,0,1-11.08,18.45c-9.77-5.87-19.9-11.38-30.1-16.38a10.76,10.76,0,0,1,7.59-20A10.21,10.21,0,0,1,1345.13,2475.35Zm-229.39-31.54a10.74,10.74,0,0,1-9.38,12c-11.31,1.38-22.69,3.25-33.83,5.57a10.76,10.76,0,0,1-4.39-21.06c11.74-2.44,23.72-4.42,35.63-5.86a10.72,10.72,0,0,1,12,9.38Zm309.13,82.32c9.31,7.5,18.44,15.5,27.12,23.79a10.75,10.75,0,1,1-14.85,15.56c-8.25-7.87-16.91-15.47-25.76-22.59a10.76,10.76,0,1,1,13.49-16.76Zm66.66,67c7.47,9.38,14.63,19.18,21.29,29.14a10.76,10.76,0,0,1-17.89,11.95c-6.32-9.46-13.13-18.77-20.22-27.69a10.75,10.75,0,1,1,16.82-13.4Zm50.48,80c5.25,10.79,10.11,21.92,14.43,33.08a10.76,10.76,0,1,1-20.06,7.77c-4.11-10.6-8.72-21.17-13.71-31.43a10.76,10.76,0,1,1,19.34-9.42Zm31.83,89.08c2.76,11.67,5.06,23.6,6.83,35.45a10.76,10.76,0,0,1-21.28,3.18c-1.67-11.25-3.86-22.58-6.49-33.67a10.76,10.76,0,0,1,20.94-5Zm11.48,93.94c.13,12-.26,24.1-1.15,36.07a10.75,10.75,0,0,1-21.45-1.59c.84-11.36,1.2-22.89,1.09-34.25a10.75,10.75,0,0,1,10.64-10.87,11,11,0,0,1,3,.38A10.78,10.78,0,0,1,1585.32,2856.15Zm-9.42,94.08c-1.83,8.63-3.94,17.3-6.29,25.79q-1.27,4.61-2.65,9.16a10.63,10.63,0,0,1-13.39,7.21,10.76,10.76,0,0,1-7.21-13.4c.86-2.88,1.71-5.79,2.51-8.71,2.24-8.07,4.25-16.31,6-24.51a10.75,10.75,0,0,1,12.75-8.3l.65.16A10.76,10.76,0,0,1,1575.9,2950.23Z" transform="translate(-428.12 -441.53)"/><path class="cls-44" d="M1017.91,2456a10.71,10.71,0,0,0-6.47.24c-5.49,2-11,4.07-16.49,6.27a10.76,10.76,0,1,0,8.06,19.95c5.18-2.1,10.45-4.1,15.66-6a10.76,10.76,0,0,0-.76-20.5Z" transform="translate(-428.12 -441.53)"/></g><path class="cls-45" d="M938.74,2622.57a5,5,0,0,0-1.92,5.51L954,2686.82a266.78,266.78,0,0,0-46,73.07l-60.34,9.93a5,5,0,0,0-4.14,4.12l-12.34,72.35a5,5,0,0,0,2.54,5.26l53.64,29.37a266.34,266.34,0,0,0,19.19,84.2l-35.67,49.72a5,5,0,0,0,0,5.84l42.43,59.89a5,5,0,0,0,5.52,1.91l58.73-17.16a266.69,266.69,0,0,0,73.08,46l9.93,60.34a5,5,0,0,0,4.11,4.14l72.36,12.34a5,5,0,0,0,5.25-2.54l29.37-53.64a266.28,266.28,0,0,0,84.2-19.19l49.72,35.67a5,5,0,0,0,5.84,0l59.89-42.44a5,5,0,0,0,1.92-5.51L1356,3041.8a266.45,266.45,0,0,0,46-73.08l60.34-9.93a5,5,0,0,0,4.14-4.11l12.34-72.36a5,5,0,0,0-2.54-5.25l-53.63-29.37a266.89,266.89,0,0,0-19.19-84.21l35.67-49.72a5,5,0,0,0,0-5.83l-42.43-59.89a5,5,0,0,0-5.51-1.92l-58.74,17.17a266.31,266.31,0,0,0-73.07-46l-9.93-60.34a5,5,0,0,0-4.12-4.14L1173,2540.46a5,5,0,0,0-5.26,2.54l-29.37,53.63a266.61,266.61,0,0,0-84.2,19.19l-49.72-35.67a5,5,0,0,0-5.84,0Z" transform="translate(-428.12 -441.53)"/><path class="cls-46" d="M1184.83,2796.83a73.71,73.71,0,1,1-10.2-3.65A73.86,73.86,0,0,1,1184.83,2796.83Zm-9.42,120.23a56.56,56.56,0,1,0-43.28-1,57.71,57.71,0,0,0,7.9,2.82A56.19,56.19,0,0,0,1175.41,2917.06Z" transform="translate(-428.12 -441.53)"/><path class="cls-46" d="M1204.5,2690.88q-8.94-2.48-18.2-4.06h0q-2.91-.5-5.84-.9a183.14,183.14,0,0,0-29-1.66h-.39l-1.12,0-2.18.08a4.3,4.3,0,0,0-4,3.15,4.21,4.21,0,0,0-.16,1.34,4.32,4.32,0,0,0,4.49,4.11,172.94,172.94,0,0,1,178,201.73,175.26,175.26,0,0,1-3.87,17.36A172.85,172.85,0,0,1,1126.74,3036c-94-16-157.31-105.48-141.29-199.41a173.2,173.2,0,0,1,39.06-83.35,4.21,4.21,0,0,0,.88-1.65,4.3,4.3,0,0,0-7.41-4,181,181,0,0,0-37,69.52c-1.63,5.9-3,11.91-4,18-16.83,98.61,49.74,192.52,148.32,209.34a181.47,181.47,0,0,0,205.27-130.1,183.47,183.47,0,0,0,4.06-18.22,181.44,181.44,0,0,0-130.12-205.28Z" transform="translate(-428.12 -441.53)"/><g class="cls-39"><path class="cls-47" d="M490.49,2325.93a6.62,6.62,0,0,0-7.41,2.9c-3,4.79-5.85,9.74-8.53,14.71a6.64,6.64,0,0,0,11.69,6.31c2.56-4.73,5.29-9.44,8.13-14a6.61,6.61,0,0,0-3.88-9.9Z" transform="translate(-428.12 -441.53)"/><path class="cls-48" d="M468.29,2371.86a6.64,6.64,0,0,1,3.78,8.6,276.09,276.09,0,0,0-8.79,26.46q-.78,2.82-1.51,5.68a6.65,6.65,0,0,1-8.07,4.8,6.88,6.88,0,0,1-4.81-8.08c.51-2,1-4,1.58-6a287.77,287.77,0,0,1,9.22-27.73,6.64,6.64,0,0,1,7.95-4C467.86,2371.7,468.07,2371.78,468.29,2371.86Zm-12.82,73.89a274.8,274.8,0,0,0-2.22,33.66,6.64,6.64,0,1,1-13.28-.06,285.52,285.52,0,0,1,2.32-35.28,6.64,6.64,0,0,1,7.43-5.76,6,6,0,0,1,.94.2A6.64,6.64,0,0,1,455.47,2445.75Zm-.25,67.34a273.12,273.12,0,0,0,6.13,33.18,6.64,6.64,0,1,1-12.89,3.22,287.86,287.86,0,0,1-6.43-34.8,6.64,6.64,0,0,1,5.8-7.39,6.51,6.51,0,0,1,2.57.19A6.63,6.63,0,0,1,455.22,2513.09Zm16.31,65.35a275.77,275.77,0,0,0,14.06,30.66,6.64,6.64,0,1,1-11.71,6.28,286.49,286.49,0,0,1-14.74-32.16,6.64,6.64,0,0,1,12.39-4.78Zm31.77,59.39a276.91,276.91,0,0,0,21.09,26.33,6.64,6.64,0,1,1-9.85,8.92,290.49,290.49,0,0,1-22.1-27.59,6.64,6.64,0,0,1,7.21-10.23A6.55,6.55,0,0,1,503.3,2637.83Zm45.23,49.87a271.85,271.85,0,0,0,26.84,20.38,6.64,6.64,0,0,1-7.36,11.06,285.61,285.61,0,0,1-28.16-21.37,6.65,6.65,0,0,1,6.11-11.44A6.75,6.75,0,0,1,548.53,2687.7Zm56,37.29a275.86,275.86,0,0,0,31.05,13.17,6.65,6.65,0,1,1-4.43,12.53,289.11,289.11,0,0,1-32.55-13.81,6.64,6.64,0,0,1,4.73-12.35A6.05,6.05,0,0,1,604.55,2725Zm102.83,34.88a6.64,6.64,0,0,1-7.24,6,289.3,289.3,0,0,1-30.39-4.52q-2.29-.47-4.56-1a6.65,6.65,0,0,1,2.87-13c1.42.32,2.85.62,4.31.91a275.31,275.31,0,0,0,29,4.32,6.16,6.16,0,0,1,1.15.22A6.64,6.64,0,0,1,707.38,2759.87Z" transform="translate(-428.12 -441.53)"/></g><g class="cls-39"><path class="cls-49" d="M807.33,2204.67a291.11,291.11,0,0,1,32.75,11.71,6.64,6.64,0,0,1-5.22,12.22,275.58,275.58,0,0,0-31.24-11.17,6.64,6.64,0,0,1,3.63-12.78Zm-28.46-.05a6.65,6.65,0,0,1-7.63,5.48,277.13,277.13,0,0,0-33-3.41,6.65,6.65,0,0,1,.57-13.28,291.2,291.2,0,0,1,34.61,3.58c.24,0,.47.09.71.15A6.64,6.64,0,0,1,778.87,2204.62ZM871.19,2232a289,289,0,0,1,29,19.29,6.64,6.64,0,0,1-8,10.59,277.19,277.19,0,0,0-27.62-18.4,6.64,6.64,0,0,1,5.11-12.14A6.9,6.9,0,0,1,871.19,2232Zm-160.06-31.84a6.66,6.66,0,0,1-6.09,7.16,271.26,271.26,0,0,0-32.86,4.66,6.65,6.65,0,0,1-2.67-13,285.68,285.68,0,0,1,34.47-4.89,6.78,6.78,0,0,1,2.3.22A6.64,6.64,0,0,1,711.13,2200.15Zm215.4,73.77A289.58,289.58,0,0,1,950,2299.6a6.65,6.65,0,0,1-10.34,8.36,273.08,273.08,0,0,0-22.38-24.49,6.64,6.64,0,0,1,6.4-11.17A6.55,6.55,0,0,1,926.53,2273.92Zm43.68,54a292.34,292.34,0,0,1,16.65,30.55,6.64,6.64,0,1,1-12,5.64A278.76,278.76,0,0,0,958.94,2335a6.65,6.65,0,0,1,11.27-7.05Zm29.49,62.9a287.49,287.49,0,0,1,8.84,33.67,6.65,6.65,0,0,1-13,2.59,270.62,270.62,0,0,0-8.43-32.1,6.65,6.65,0,0,1,12.63-4.16Z" transform="translate(-428.12 -441.53)"/><path class="cls-50" d="M639.49,2208a6.63,6.63,0,0,0-3.89.1c-5.39,1.82-10.75,3.8-15.93,5.9a6.64,6.64,0,0,0,5,12.32c4.94-2,10.05-3.89,15.2-5.62a6.64,6.64,0,0,0-.36-12.7Z" transform="translate(-428.12 -441.53)"/></g><path class="cls-51" d="M581.85,2320.57a3.36,3.36,0,0,0-1.28,3.69l11.48,39.31a178.31,178.31,0,0,0-30.79,48.9l-40.38,6.64a3.37,3.37,0,0,0-2.77,2.75l-8.26,48.42a3.37,3.37,0,0,0,1.7,3.52l35.89,19.65a178.71,178.71,0,0,0,12.84,56.34l-23.86,33.27a3.36,3.36,0,0,0,0,3.91l28.39,40.08a3.37,3.37,0,0,0,3.69,1.28l39.3-11.49a178.49,178.49,0,0,0,48.9,30.8l6.64,40.37a3.37,3.37,0,0,0,2.76,2.77L714.5,2699a3.37,3.37,0,0,0,3.52-1.7l19.66-35.89A178.16,178.16,0,0,0,794,2648.61l33.27,23.87a3.38,3.38,0,0,0,3.91,0l40.07-28.4a3.34,3.34,0,0,0,1.28-3.68l-11.48-39.31a178.31,178.31,0,0,0,30.79-48.9l40.38-6.64a3.37,3.37,0,0,0,2.77-2.75l8.26-48.42a3.37,3.37,0,0,0-1.7-3.52l-35.89-19.65a178.44,178.44,0,0,0-12.85-56.34l23.87-33.27a3.36,3.36,0,0,0,0-3.91l-28.39-40.08a3.37,3.37,0,0,0-3.69-1.28l-39.3,11.49a178.49,178.49,0,0,0-48.9-30.8l-6.64-40.37a3.37,3.37,0,0,0-2.76-2.77l-48.41-8.26a3.37,3.37,0,0,0-3.52,1.7l-19.66,35.89a178.16,178.16,0,0,0-56.34,12.84l-33.27-23.87a3.36,3.36,0,0,0-3.91,0Z" transform="translate(-428.12 -441.53)"/><path class="cls-46" d="M746.88,2436.37a50,50,0,1,1-7-2.51A52.53,52.53,0,0,1,746.88,2436.37Zm13.49,60.92a37,37,0,0,0-18.86-48.77h0a37,37,0,1,0,18.86,48.77Z" transform="translate(-428.12 -441.53)"/><path class="cls-46" d="M760.56,2362.63q-6.07-1.68-12.42-2.77a126.22,126.22,0,0,0-25.45-1.73l-1.14,0a6.64,6.64,0,1,0,.58,13.27A112.8,112.8,0,0,1,745.9,2373h0l1.29.23a110.83,110.83,0,0,1,49.87,22.69,112.41,112.41,0,0,1,20.72,21.86l.15.2c.15.21.3.41.44.62a111.18,111.18,0,0,1,19,83.49,112.77,112.77,0,0,1-2.51,11.23,111.87,111.87,0,0,1-218-48.86,109.06,109.06,0,0,1,2.47-11.09,111.46,111.46,0,0,1,22.81-42.86,6.56,6.56,0,0,0,1.36-2.56,6.64,6.64,0,0,0-11.45-6.09,125.17,125.17,0,1,0,215.65,115,127.2,127.2,0,0,0,2.81-12.57A125.34,125.34,0,0,0,760.56,2362.63Z" transform="translate(-428.12 -441.53)"/></g></g></svg>